<?xml version="1.0" encoding="UTF-8" standalone="no"?>
<svg
   xmlns:dc="http://purl.org/dc/elements/1.1/"
   xmlns:cc="http://creativecommons.org/ns#"
   xmlns:rdf="http://www.w3.org/1999/02/22-rdf-syntax-ns#"
   xmlns:svg="http://www.w3.org/2000/svg"
   xmlns="http://www.w3.org/2000/svg"
   xmlns:sodipodi="http://sodipodi.sourceforge.net/DTD/sodipodi-0.dtd"
   xmlns:inkscape="http://www.inkscape.org/namespaces/inkscape"
   version="1.1"
   id="svg2"
   xml:space="preserve"
   width="1410.6051"
   height="1008.8661"
   viewBox="0 0 1410.6051 1008.8661"
   sodipodi:docname="alone_moving_child5.svg"
   inkscape:version="1.0.2 (e86c870879, 2021-01-15)"><metadata
     id="metadata8"><rdf:RDF><cc:Work
         rdf:about=""><dc:format>image/svg+xml</dc:format><dc:type
           rdf:resource="http://purl.org/dc/dcmitype/StillImage" /><dc:title></dc:title></cc:Work></rdf:RDF></metadata><defs
     id="defs6"><clipPath
       clipPathUnits="userSpaceOnUse"
       id="clipPath18"><path
         d="M 0,561 H 864 V 0 H 0 Z"
         id="path16" /></clipPath></defs><sodipodi:namedview
     pagecolor="#ffffff"
     bordercolor="#666666"
     borderopacity="1"
     objecttolerance="10"
     gridtolerance="10"
     guidetolerance="10"
     inkscape:pageopacity="0"
     inkscape:pageshadow="2"
     inkscape:window-width="1920"
     inkscape:window-height="997"
     id="namedview4"
     showgrid="false"
     inkscape:zoom="0.16897772"
     inkscape:cx="187.87994"
     inkscape:cy="119.02101"
     inkscape:window-x="0"
     inkscape:window-y="0"
     inkscape:window-maximized="1"
     inkscape:current-layer="g10"
     inkscape:document-rotation="0"
     fit-margin-top="0"
     fit-margin-left="0"
     fit-margin-right="0"
     fit-margin-bottom="0" /><g
     id="g10"
     inkscape:groupmode="layer"
     inkscape:label="alone_moving_child5"
     transform="matrix(1.3333333,0,0,-1.3333333,113.70868,842.48077)"><rect
       style="fill:#ffffff;stroke-width:4.25197;stroke-linecap:square;stroke-linejoin:round;stroke-dasharray:8.50395, 8.50395"
       id="rect838"
       width="1057.9539"
       height="756.6496"
       x="-85.281509"
       y="-631.8606"
       transform="scale(1,-1)" /><g
       id="g12"><g
         id="g14"
         clip-path="url(#clipPath18)"><g
           id="g20"
           transform="translate(0.0562,57.416)"><path
             d="M 0,0 C 0.102,1.402 0.236,2.802 0.37,4.201 0.298,6.479 0.197,8.757 0.052,11.033 -0.041,7.422 -0.109,3.71 0,0"
             style="fill:#000000;fill-opacity:1;fill-rule:nonzero;stroke:none"
             id="path22" /></g><g
           id="g24"
           transform="translate(774.8516,12.5322)"><path
             d="m 0,0 c 19.849,-0.971 39.794,-1.23 59.68,-0.943 5.149,0.074 10.417,0.012 15.597,0.462 7.898,3.155 15.15,7.946 13.681,15.358 -0.389,1.96 -1.335,3.769 -2.6,5.486 -6.047,1.492 -12.033,3.188 -17.886,5.099 -6.276,2.05 -12.305,4.566 -18.471,6.83 -5.471,2.01 -11.127,3.734 -16.438,5.977 -9.353,3.947 -18.529,8.16 -27.732,12.325 -4.93,2.231 -9.913,4.421 -14.597,6.95 -4.854,2.621 -5.092,4.048 -2.548,8.154 3.149,5.083 1.079,8.517 -6.02,10.025 -0.333,0.07 -0.602,0.336 -1.316,0.754 -0.23,1.168 -0.831,2.639 -0.745,4.085 0.28,4.638 0.332,9.335 1.335,13.89 3.669,16.639 10.461,32.599 18.464,48.17 7.422,14.441 16.163,28.451 23.887,42.8 5.638,10.473 10.772,21.125 15.73,31.814 2.952,6.364 4.627,13.111 7.777,19.402 3.901,7.791 8.243,15.499 13.278,22.863 7.978,11.667 14.24,23.844 19.166,36.477 4.17,10.69 5.416,21.414 -0.069,32.153 -2.087,4.086 -4.763,7.765 -8.553,11.031 -8.687,7.489 -17.436,14.95 -25.678,22.744 -7.768,7.346 -15.001,15.054 -22.315,22.696 -6.856,7.164 -13.447,14.488 -20.275,21.67 -6.261,6.586 -12.596,13.131 -19.058,19.594 -5.28,5.28 -10.6,10.55 -16.256,15.573 -6.546,5.813 -13.479,11.351 -20.481,17.205 1.709,2.417 0.738,4.179 -2.274,5.859 -2.877,1.604 -5.228,3.814 -7.742,5.812 -8.154,6.481 -16.115,13.122 -24.464,19.44 -6.697,5.07 -13.745,9.861 -20.836,14.588 -5.351,3.568 -10.94,6.922 -16.56,10.225 -8.653,5.085 -18.1,9.32 -25.724,15.51 -1.81,1.469 -4.175,2.706 -6.577,3.482 -8.039,2.594 -16.197,4.961 -24.341,7.351 -2.654,0.779 -5.393,1.383 -8.107,2.029 -9.123,2.169 -18.081,5.816 -27.892,2.018 -8.093,-0.103 -16.206,-0.33 -24.167,1.133 -1.729,0.318 -3.279,0.858 -4.646,-0.466 -2.379,-2.304 -5.367,-2.367 -8.745,-1.724 -2.568,0.489 -5.249,0.602 -7.874,0.911 -8.608,1.011 -17.175,2.418 -25.83,2.977 -19.516,1.26 -38.928,0.952 -58.223,-2.519 -18.825,-3.388 -37.99,-5.615 -56.739,-9.223 -17.261,-3.321 -34.297,-7.491 -51.187,-11.882 -10.858,-2.823 -20.697,-7.498 -28.523,-14.305 -5.227,-4.546 -10.037,-9.392 -15.067,-14.08 -7.438,-6.931 -14.903,-13.844 -22.373,-20.754 -0.363,-0.336 -0.864,-0.586 -1.33,-0.843 -6.986,-3.849 -11.038,-9.641 -15.673,-15.023 -1.793,-2.081 -3.172,-4.399 -4.592,-6.666 -2.193,-3.499 -3.883,-7.041 -4.092,-11.111 -0.173,-3.384 -1.042,-6.937 -2.749,-10.015 -1.149,-2.072 -1.521,-3.868 -1.304,-5.974 1.116,0.13 2.069,0.241 3.242,0.378 -3.415,-6.323 -5.308,-12.707 -8.045,-18.868 -7.831,-17.621 -10.88,-35.841 -7.522,-54.523 -2.199,-7.229 -3.933,-14.577 -6.793,-21.637 -1.401,-3.457 -4.953,-6.352 -7.416,-9.557 -1.233,-1.606 -2.676,-2.807 -5.067,-3.34 -2.355,-0.525 -4.587,-1.386 -6.911,-2.01 -11.756,-3.156 -23.955,-4.409 -36.243,-5.328 -8.243,-0.617 -13.962,-4.78 -15.425,-11.262 -0.977,-4.324 -3.092,-7.935 -7.73,-10.611 -2.843,-1.642 -3.305,-3.907 -1.928,-6.413 0.523,-0.952 1.34,-1.803 1.979,-2.642 -1.803,-3.803 -1.788,-3.819 -6.404,-6.385 -2.256,-1.253 -3.109,-2.765 -2.528,-5.023 1.507,-5.861 1.054,-6.118 -5.086,-9.404 -3.391,-1.816 -7.251,-3.99 -6.423,-7.832 0.472,-2.183 -0.567,-3.368 -2.025,-4.792 -7.316,-7.146 -15.551,-13.529 -24.643,-19.255 -5.392,-3.395 -9.859,-7.451 -12.65,-12.553 -4.824,-8.82 -9.702,-17.621 -14.583,-26.421 -9.249,-16.674 -16.995,-33.766 -22.828,-51.395 -3.369,-10.183 -6.817,-20.35 -10.149,-30.541 -1.341,-11.934 -3.221,-23.823 -4.946,-35.747 -1.031,-7.119 -2.198,-14.504 -2.912,-21.934 0.168,-6.457 0.099,-12.92 -0.289,-19.374 -0.018,-0.284 -0.042,-0.571 -0.063,-0.857 0.389,-4.566 1.167,-9.073 2.487,-13.464 1.049,-3.487 2.371,-6.861 3.904,-10.144 2.659,-2.619 5.521,-5.107 8.524,-7.479 8.458,-1.356 16.72,-3.352 25.019,-5.239 10.381,-2.359 20.785,-4.606 31.779,-4.233 9.268,0.314 18.548,0.381 27.82,0.629 4.347,0.116 8.714,0.226 13.024,0.644 7.298,0.709 14.607,1.459 21.814,2.583 4.383,0.683 8.667,1.932 12.835,3.247 2.838,0.896 5.962,8.723 4.556,10.774 -0.415,0.605 -1.25,1.145 -2.052,1.45 -4.603,1.748 -9.26,3.407 -13.889,5.113 -5.814,2.144 -11.745,4.118 -17.376,6.532 -2.987,1.281 -5.761,1.786 -9.146,1.649 -6.842,-0.277 -13.923,-0.073 -19.354,3.703 -7.265,5.051 -15.316,6.106 -24.348,4.448 -0.732,-0.134 -1.508,-0.188 -2.26,-0.175 -2.681,0.049 -5.098,0.269 -6.962,2.309 -1.119,1.225 -3.289,1.844 -5.174,2.833 -0.918,2.254 -1.376,4.551 -2.758,6.418 -1.22,1.647 -1.442,2.929 -0.475,4.584 0.793,1.356 1.466,2.785 1.906,4.235 0.636,2.096 2.314,3.113 4.85,3.078 3.398,-0.046 6.814,-0.184 10.181,-0.531 6.382,-0.657 12.707,-1.791 19.108,-2.156 5.221,-0.298 10.55,0.001 15.771,0.461 5.981,0.526 11.87,1.996 17.846,2.209 10.413,0.37 20.861,0.1 31.294,0.081 9.184,-0.019 17.974,1.277 26.142,4.769 3.207,1.372 3.358,4.125 0.473,6.05 -9.272,6.184 -20.531,8.575 -31.968,10.575 -3.3,0.578 -6.73,0.893 -10.109,0.939 -9.601,0.129 -19.205,-0.891 -28.704,1.587 -6.454,1.683 -13.258,2.445 -16.343,8.238 -0.38,0.714 -1.712,1.11 -2.113,1.354 0.485,2.184 1.446,3.869 1.058,5.329 -0.747,2.813 1.137,4.944 2.088,7.315 1.015,2.531 2.239,5.012 3.424,7.498 0.398,0.835 0.899,1.648 1.452,2.426 3.943,5.545 7.503,11.209 8.67,17.6 3.725,-0.171 3.317,-3.281 5.355,-4.252 3.228,-1.539 2.516,-3.778 1.42,-5.408 -1.545,-2.297 -1.395,-4.371 -0.925,-6.54 2.071,-0.748 3.892,-1.406 5.678,-2.05 -1.656,-4.206 -1.505,-4.417 3.456,-4.192 3.524,0.159 6.957,0.291 9.046,-2.717 4.547,1.052 9.076,1.883 13.383,-0.698 -0.596,-1.777 -1.196,-3.57 -1.877,-5.602 6.782,-0.382 12.75,0.435 17.967,3.095 4.009,2.044 8.048,0.328 12.168,1.174 -0.204,-0.921 -0.33,-1.492 -0.509,-2.301 2.384,-0.462 4.786,-0.929 7.355,-1.427 -0.621,-0.827 -1.075,-1.43 -1.527,-2.034 1.399,-1.503 3.192,-1.994 5.324,-1.117 2.576,1.062 4.802,0.55 7.445,-0.62 -4.521,-2.413 -8.612,-4.597 -12.914,-6.892 0.797,-0.187 1.833,-0.717 2.694,-0.577 3.129,0.515 6.29,1.066 9.265,1.964 2.612,0.789 4.968,0.947 7.46,0.065 -0.45,-2.132 -5.385,-1.734 -3.823,-4.864 2.719,0.255 5.469,1.061 7.857,0.624 5.374,-0.985 10.35,0.027 15.443,0.89 0.646,0.11 1.899,0.05 1.979,-0.153 0.806,-2.039 2.303,-0.75 3.553,-0.539 1.651,0.28 3.525,1.135 4.894,0.771 2.97,-0.789 5.02,0.312 7.354,1.243 4.503,1.799 9.158,3.343 12.489,6.596 0.897,0.877 2.604,1.204 3.823,1.909 3.321,1.922 6.92,3.649 9.764,5.952 2.574,2.086 5.276,3.096 8.532,2.894 3.589,3.324 4.091,7.055 4.352,11.083 0.235,3.618 0.17,7.133 -0.481,10.693 -0.165,0.905 0.271,1.878 0.432,2.827 5.712,-0.333 4.063,-4.822 6.941,-6.857 1.562,2.974 -2.902,6.434 1.705,8.718 1.657,-0.15 3.326,-0.3 5.009,-0.451 2.034,-1.764 1.461,-4.715 5.311,-5.944 2.392,-0.763 3.801,-3.465 5.746,-5.39 1.124,2.232 1.976,3.925 2.802,5.565 2.621,-0.578 4.543,-1.003 6.651,-1.468 -0.483,1.324 -1.499,2.556 -1.082,3.231 2.249,3.637 0.863,7.116 -0.109,10.67 -0.248,0.905 -0.038,1.888 -0.038,3.905 2.754,-1.549 5.204,-2.224 6.005,-3.532 1.382,-2.253 2.607,-0.716 3.913,-0.665 -0.392,2.896 -0.83,5.561 -1.089,8.237 -0.169,1.742 0.81,2.726 3.205,3.021 2.629,0.323 5.181,1.039 7.766,1.584 -0.012,0.321 -0.026,0.642 -0.04,0.963 -4.245,-1.28 -6.793,2.149 -10.983,1.843 -1.107,2.18 -2.348,4.364 -3.328,6.621 -1.593,3.667 -0.245,5.998 4.145,7.886 2.983,1.282 5.874,2.698 8.807,4.055 -0.126,0.179 -0.251,0.36 -0.376,0.541 -3.341,-0.603 -6.681,-1.204 -10.021,-1.806 1.844,3.059 4.844,5.064 6.374,7.622 1.536,2.569 1.61,5.689 2.458,9.107 -2.836,-0.944 -4.94,-1.643 -7.044,-2.342 l -0.946,0.69 c 0.714,1.081 1.695,2.107 2.069,3.257 0.413,1.269 -0.093,2.75 0.432,3.967 1.761,4.071 0.232,8.116 -0.774,11.894 -1.378,5.167 -4.391,10.062 -6.762,15.055 -0.254,0.534 -0.836,1.011 -1.386,1.409 -2.446,1.766 -4.947,3.485 -7.403,5.242 -0.786,0.562 -2.112,1.174 -2.139,1.791 -0.162,3.737 -2.151,6.831 -4.568,9.915 -4.18,5.336 -8.198,10.756 -12.099,16.224 -1.932,2.707 -4.001,5.482 -5.003,8.44 -0.954,2.814 -2.204,5.089 -5.56,6.359 -2.002,0.758 -2.91,1.935 -2.467,3.614 1.231,4.668 2.241,9.403 4.88,13.162 7.603,2.921 14.708,0.081 21.785,0.453 0.107,1.275 -1.546,3.088 1.605,2.911 -1.179,0.339 -2.46,0.709 -3.813,1.099 0.428,0.599 0.53,0.969 0.807,1.091 1.318,0.583 2.683,1.1 4.033,1.638 8.184,3.262 15.512,7.307 21.688,12.838 5.382,4.818 9.318,10.298 12.626,15.968 4.141,7.095 9.866,13.403 14.49,20.238 0.848,1.255 2.462,2.279 3.968,3.141 4.574,2.615 9.299,5.067 13.9,7.655 1.374,0.773 2.55,1.771 3.787,2.691 4.208,3.134 8.177,6.5 12.651,9.371 7.594,4.871 15.512,9.423 23.267,14.138 0.729,0.444 1.323,1.053 1.882,1.645 5.175,5.474 9.254,11.502 14.542,16.98 7.155,7.412 15.349,13.847 23.963,20.061 5.583,4.026 11.373,7.763 18.358,10.285 2.63,0.95 4.71,2.857 7.813,4.814 0.37,-1.702 0.709,-2.757 0.815,-3.826 0.531,-5.373 0.869,-10.759 1.531,-16.12 0.642,-5.202 3.756,-9.694 6.87,-14.197 4.188,-6.055 7.913,-12.321 13.708,-17.585 2.611,-2.37 5.454,-4.614 7.73,-7.173 6.817,-7.672 15.28,-14.112 23.954,-20.376 2.015,-1.457 4.887,-2.216 7.462,-3.127 3.591,-1.272 7.343,-2.268 10.903,-3.591 8.216,-3.052 16.147,-6.665 24.584,-9.247 10.203,-3.122 20.75,-5.574 31.258,-8.02 10.269,-2.391 20.677,-4.41 31.722,-6.74 1.604,2.467 3.482,4.71 4.578,7.172 2.456,5.52 4.504,11.154 6.769,16.728 0.369,0.907 0.992,1.749 1.588,2.777 1.223,-0.618 2.102,-0.941 2.794,-1.43 10.304,-7.291 20.807,-14.42 30.76,-22.001 4.03,-3.07 7.134,-6.999 10.137,-10.796 2.734,-3.456 3.373,-7.295 0.588,-11.1 -4.559,-6.236 -8.722,-12.677 -13.712,-18.688 -18.706,-22.535 -26.067,-47.716 -28.199,-74.179 -0.554,-6.892 -0.952,-13.796 -1.696,-20.675 -1.665,-15.401 -3.44,-30.794 -5.29,-46.181 -1.662,-13.819 -5.156,-27.317 -11.153,-40.412 -3.997,-8.725 -10.766,-16.182 -16.644,-24.046 -2.589,-3.465 -4.337,-7.086 -4.408,-11.034 -0.038,-2.155 0.918,-4.371 1.779,-6.468 0.723,-1.759 1.958,-3.385 3.209,-5.475 9.771,-1.388 19.907,-1.527 30.143,-0.674 5.315,0.442 10.571,1.883 16.609,1.084 -1.124,-1.816 -2.034,-3.269 -2.926,-4.729 -6.634,-10.857 -12.171,-21.669 -5.082,-34.009 1.771,-3.082 3.656,-4.753 7.486,-5.086 7.524,-0.655 15.062,-1.276 22.616,-1.634 C -69.317,6.642 -53.38,6.574 -37.617,4.491 -25.104,2.837 -12.608,0.616 0,0"
             style="fill:#000000;fill-opacity:1;fill-rule:nonzero;stroke:none"
             id="path26" /></g></g></g></g></svg>
