<?xml version="1.0" encoding="UTF-8" standalone="no"?>
<svg
   xmlns:dc="http://purl.org/dc/elements/1.1/"
   xmlns:cc="http://creativecommons.org/ns#"
   xmlns:rdf="http://www.w3.org/1999/02/22-rdf-syntax-ns#"
   xmlns:svg="http://www.w3.org/2000/svg"
   xmlns="http://www.w3.org/2000/svg"
   xmlns:sodipodi="http://sodipodi.sourceforge.net/DTD/sodipodi-0.dtd"
   xmlns:inkscape="http://www.inkscape.org/namespaces/inkscape"
   width="744.69476mm"
   height="1151.9524mm"
   viewBox="0 0 744.69475 1151.9524"
   version="1.1"
   id="svg1463"
   inkscape:version="1.0.2 (e86c870879, 2021-01-15)"
   sodipodi:docname="alone_sitting_male7.svg">
  <defs
     id="defs1457" />
  <sodipodi:namedview
     id="base"
     pagecolor="#ffffff"
     bordercolor="#666666"
     borderopacity="1.0"
     inkscape:pageopacity="0.0"
     inkscape:pageshadow="2"
     inkscape:zoom="0.16073422"
     inkscape:cx="1599.4218"
     inkscape:cy="2197.5064"
     inkscape:document-units="mm"
     inkscape:current-layer="layer1"
     showgrid="false"
     fit-margin-top="0"
     fit-margin-left="0"
     fit-margin-right="0"
     fit-margin-bottom="0"
     inkscape:window-width="1920"
     inkscape:window-height="997"
     inkscape:window-x="0"
     inkscape:window-y="0"
     inkscape:window-maximized="1"
     inkscape:document-rotation="0" />
  <metadata
     id="metadata1460">
    <rdf:RDF>
      <cc:Work
         rdf:about="">
        <dc:format>image/svg+xml</dc:format>
        <dc:type
           rdf:resource="http://purl.org/dc/dcmitype/StillImage" />
        <dc:title></dc:title>
      </cc:Work>
    </rdf:RDF>
  </metadata>
  <g
     inkscape:label="Ebene 1"
     inkscape:groupmode="layer"
     id="layer1"
     transform="translate(-20.811317,442.84576)">
    <rect
       style="fill:#ffffff;stroke-width:1.5;stroke-linecap:square;stroke-linejoin:round;stroke-dasharray:3, 3"
       id="rect834"
       width="744.69476"
       height="1151.9524"
       x="20.811317"
       y="-442.84576" />
    <g
       id="g2026"
       transform="matrix(37.556387,0,0,37.556387,-3014.2356,-3382.2332)">
      <path
         inkscape:connector-curvature="0"
         id="path831"
         d="m 83.531029,94.960721 c 0.03959,0 0.05376,0.0163 0.07001,0.05343 0.01161,0.03101 0.03488,0.06201 0.04845,0.06589 0.01357,0.0058 0.031,0.03488 0.03682,0.06589 0.02907,0.112398 0.294553,0.451525 0.354629,0.451525 0.0155,0 0.04457,0.04069 0.06589,0.08914 0.04845,0.108524 0.149218,0.259675 0.174408,0.259675 0.0097,0 0.01744,0.01162 0.01744,0.02713 0,0.0155 0.02907,0.06395 0.06589,0.106582 0.08721,0.102704 0.104643,0.180221 0.05426,0.230603 -0.04457,0.04457 -0.03876,0.112395 0.01937,0.213167 0.01939,0.03488 0.03488,0.0872 0.03488,0.118211 0,0.06783 0.03682,0.176344 0.06007,0.176344 0.0078,0 0.02133,0.03294 0.02713,0.0717 0.0078,0.04069 0.02906,0.09689 0.05039,0.12596 0.01937,0.02907 0.03682,0.06589 0.03682,0.07945 0,0.01551 0.01744,0.04845 0.03682,0.07364 0.01937,0.02713 0.05039,0.07945 0.06589,0.120147 0.01744,0.03876 0.0407,0.0717 0.05039,0.0717 0.03682,0 0.02326,0.07558 -0.01744,0.0969 -0.02133,0.01162 -0.03876,0.02907 -0.03876,0.04069 0,0.03101 -0.292616,0.31006 -0.346882,0.329438 -0.01304,0.0051 -0.03105,0.0074 -0.0519,0.0074 -0.07509,0 -0.187206,-0.02994 -0.238778,-0.06937 -0.02519,-0.02133 -0.0717,-0.03682 -0.102706,-0.03682 -0.03101,0 -0.06007,-0.01162 -0.06589,-0.02713 -0.0097,-0.02713 -0.184099,-0.147278 -0.213169,-0.147278 -0.02133,0 -0.124021,-0.09883 -0.222851,-0.213164 -0.04845,-0.05814 -0.08139,-0.120147 -0.09496,-0.184097 -0.01162,-0.05232 -0.03294,-0.108521 -0.04651,-0.125963 -0.04845,-0.05813 -0.09689,-0.420518 -0.10077,-0.755769 0,-0.18991 0.0058,-0.325562 0.01744,-0.331374 0.0097,-0.0078 0.02133,-0.06783 0.02519,-0.13565 0.0039,-0.06782 0.01357,-0.255799 0.02326,-0.416642 0.01161,-0.160843 0.0155,-0.315872 0.0097,-0.343003 -0.0097,-0.04457 -0.0019,-0.05039 0.07364,-0.06782 0.05748,-0.0132 0.09535,-0.0205 0.121835,-0.0205 z"
         style="fill:#000000;fill-opacity:1;stroke-width:0.264583;stroke-linejoin:miter" />
      <path
         inkscape:connector-curvature="0"
         id="path829"
         d="m 94.370274,98.158862 v 0 q -0.160245,0.896588 -0.204414,1.348917 -0.03667,0.266747 -0.03689,1.044861 -0.0046,0.11651 -0.02228,0.21747 -0.01434,0.0882 -0.05944,0.20373 l -0.241956,0.50188 q -0.05748,0.13104 -0.08704,0.26118 -0.02408,0.1074 -0.03794,0.23034 -0.05664,0.62345 -0.07587,0.7438 -0.02686,0.20951 -0.07685,0.48009 -0.113705,0.61876 -0.382349,1.72747 h -5.3e-4 c -0.0205,-0.0285 -0.02861,-0.09 -0.02861,-0.19573 0,-0.0717 -0.0097,-0.10465 -0.03876,-0.1279 -0.02133,-0.0194 -0.03876,-0.0446 -0.03876,-0.0562 0,-0.0388 -0.09495,-0.10271 -0.172468,-0.11627 -0.03876,-0.006 -0.09689,-0.0233 -0.129837,-0.0388 -0.03294,-0.0136 -0.141465,-0.0349 -0.238358,-0.0465 -0.09884,-0.0116 -0.195725,-0.0291 -0.215103,-0.0388 -0.02133,-0.0116 -0.145341,-0.033 -0.28099,-0.0485 -0.133713,-0.0155 -0.259676,-0.0368 -0.279054,-0.0485 -0.01937,-0.01 -0.110458,-0.0271 -0.203475,-0.0368 -0.09108,-0.0116 -0.20735,-0.0329 -0.257735,-0.0484 -0.05232,-0.0174 -0.131776,-0.0368 -0.180221,-0.0446 l -0.0872,-0.0155 -0.01744,-0.18991 c -0.01937,-0.20347 0,-0.30618 0.06976,-0.3992 0.04457,-0.0601 0.05039,-0.41083 0.0058,-0.4864 -0.01357,-0.0271 -0.03876,-0.0756 -0.05426,-0.10853 -0.03682,-0.0756 -0.05232,-0.0853 -0.164716,-0.10076 l -0.09108,-0.0135 -0.01162,-0.13565 c -0.01162,-0.14923 -0.08527,-0.29068 -0.160843,-0.31007 -0.02326,-0.008 -0.07364,-0.0252 -0.114335,-0.0426 -0.03449,-0.0148 -0.05446,-0.022 -0.07314,-0.022 -0.01804,0 -0.0349,0.007 -0.06251,0.0201 -0.03488,0.0174 -0.236421,0.11433 -0.449588,0.21704 -0.213164,0.10465 -0.401135,0.19572 -0.416639,0.20735 -0.0155,0.01 -0.05038,0.0271 -0.07751,0.0407 -0.06782,0.031 -0.418579,0.19767 -0.633685,0.29843 -0.09883,0.0485 -0.205409,0.0911 -0.236416,0.0969 -0.01453,0.003 -0.02577,0.005 -0.03484,0.005 -0.0236,0 -0.03255,-0.0128 -0.04655,-0.0478 -0.01357,-0.031 -0.02519,-0.13179 -0.02713,-0.2248 -0.0019,-0.093 -0.0078,-0.17634 -0.01551,-0.18409 -0.01937,-0.0194 -0.0155,-0.11821 0.0039,-0.12984 0.0097,-0.008 0.0097,-0.0368 -0.0039,-0.0698 -0.01744,-0.0446 -0.01744,-0.0678 0.0019,-0.0969 0.01357,-0.0213 0.01551,-0.0407 0.0039,-0.0484 -0.01357,-0.01 -0.02326,-0.2306 -0.02133,-0.50966 0,-0.0911 0,-0.28681 0,-0.34883 -0.0058,-0.41664 0.01164,-1.48052 0.02326,-1.48827 0.0097,-0.0058 0.01162,-0.02133 0.0039,-0.03295 -0.01937,-0.031 -0.02326,-0.496093 -0.0039,-0.550349 0.01357,-0.03488 0.0039,-0.05039 -0.05426,-0.0872 -0.04069,-0.02326 -0.110458,-0.05232 -0.160842,-0.06589 -0.0717,-0.01744 -0.0872,-0.02907 -0.0872,-0.06782 0,-0.031 0.01357,-0.04845 0.03875,-0.05426 0.03682,-0.0058 0.145344,-0.110458 0.145344,-0.139528 0,-0.0078 0.02713,-0.04069 0.05813,-0.07558 l 0.05814,-0.06201 1.408832,0.0019 c 0.170304,2.65e-4 0.320675,5.3e-4 0.453448,5.3e-4 0.812993,0 0.966359,-0.0059 0.998011,-0.02756 0.02713,-0.01744 0.131776,-0.03682 0.259672,-0.04845 0.12015,-0.0097 0.242234,-0.031 0.273243,-0.04651 0.03294,-0.0155 0.09689,-0.03488 0.147275,-0.04263 0.04845,-0.0078 0.102703,-0.02907 0.118208,-0.04845 0.01744,-0.02133 0.05039,-0.03682 0.07364,-0.03682 0.02519,0 0.06976,-0.02133 0.100772,-0.04845 0.03294,-0.02713 0.06588,-0.04845 0.07557,-0.04845 0.0078,0 0.02713,-0.01744 0.0407,-0.03876 0.01357,-0.02133 0.03488,-0.03876 0.04845,-0.03876 0.01164,0 0.06201,-0.03876 0.110461,-0.0872 0.03058,-0.0297 0.05504,-0.05379 0.07486,-0.07394 h -7.94e-4 l 1.799553,-0.106738 z"
         style="fill:#000000;fill-opacity:1;stroke-width:0.264583;stroke-linejoin:miter" />
      <path
         inkscape:connector-curvature="0"
         id="path825"
         d="m 87.645368,79.166287 c -0.0019,0.0019 -0.03876,0.01164 -0.08139,0.02133 -0.186039,0.04651 -0.474781,0.143405 -0.598805,0.203478 -0.07364,0.03489 -0.149214,0.06395 -0.168592,0.06395 -0.05814,0 -0.151157,0.06589 -0.174408,0.122087 -0.01744,0.03876 -0.05426,0.06976 -0.1279,0.100769 -0.06395,0.02907 -0.110458,0.06395 -0.124023,0.09496 -0.01357,0.02713 -0.04458,0.06395 -0.06783,0.07945 -0.04651,0.02907 -0.201539,0.228669 -0.201539,0.255794 0,0.0097 -0.03876,0.07752 -0.08721,0.151156 -0.04845,0.07558 -0.0872,0.143404 -0.0872,0.151157 0,0.0097 -0.04263,0.106582 -0.09689,0.215101 -0.05232,0.108521 -0.09689,0.213167 -0.09689,0.230605 0,0.01744 -0.01744,0.06395 -0.03682,0.104646 -0.02519,0.05038 -0.0407,0.137591 -0.05039,0.275174 -0.0078,0.110464 -0.02519,0.242237 -0.04069,0.290682 -0.0155,0.04845 -0.03294,0.162782 -0.03876,0.253862 -0.0078,0.09108 -0.02519,0.199597 -0.0407,0.242232 -0.01357,0.04264 -0.03488,0.135652 -0.04457,0.20929 -0.01162,0.07364 -0.03294,0.176345 -0.05038,0.226733 -0.031,0.09495 -0.02907,0.366254 0.0019,0.575548 0.0155,0.09107 -0.0058,0.166653 -0.09301,0.354626 -0.07137,0.154149 -0.144843,0.234714 -0.211118,0.234714 -0.02371,0 -0.04649,-0.01032 -0.06794,-0.03124 -0.01672,-0.01672 -0.05993,-0.02418 -0.108286,-0.02418 -0.075,0 -0.162361,0.01799 -0.182395,0.04744 -0.01162,0.01937 -0.04263,0.108519 -0.06589,0.199602 -0.02133,0.09108 -0.04845,0.172469 -0.0562,0.184097 -0.0078,0.0097 -0.01937,0.05038 -0.02519,0.09108 -0.01161,0.0717 -0.031,0.09883 -0.424391,0.571672 -0.09883,0.118207 -0.240295,0.296492 -0.315873,0.395324 -0.07364,0.09883 -0.153091,0.197662 -0.176345,0.218977 -0.0562,0.05814 -0.186036,0.253863 -0.249986,0.379823 -0.0562,0.110458 -0.211228,0.350755 -0.461211,0.707324 -0.08139,0.120147 -0.242234,0.311996 -0.360442,0.432144 -0.151151,0.153087 -0.215101,0.234479 -0.224793,0.27905 -0.0078,0.03488 -0.02713,0.08914 -0.04263,0.118211 -0.0155,0.03101 -0.03682,0.108516 -0.04651,0.174408 -0.01162,0.06589 -0.03101,0.13371 -0.04457,0.149214 -0.01357,0.01551 -0.03101,0.07945 -0.03876,0.139528 -0.0058,0.06201 -0.02519,0.149212 -0.04069,0.195726 -0.0155,0.04651 -0.03876,0.155027 -0.05038,0.238355 -0.01162,0.08333 -0.03488,0.184097 -0.05039,0.220917 -0.02326,0.05233 -0.03488,0.205414 -0.05039,0.641434 -0.01744,0.517411 -0.01744,0.583298 0.01164,0.672439 0.01937,0.05426 0.03294,0.129839 0.03294,0.168595 0,0.0562 -0.0097,0.07364 -0.05232,0.09302 -0.07558,0.031 -0.20929,0.178284 -0.279053,0.304247 -0.118211,0.211225 -0.178284,0.581361 -0.1279,0.794522 0.01744,0.06977 0.03488,0.182161 0.04263,0.251923 0.01162,0.112395 0.0717,0.406956 0.127899,0.629807 0.01162,0.04263 0.02907,0.12015 0.0407,0.174408 0.0097,0.05232 0.03876,0.166658 0.06395,0.251923 0.04845,0.172471 0.07557,0.271303 0.120147,0.445709 0.01551,0.06395 0.0407,0.145343 0.05426,0.178284 0.05038,0.116271 0.106582,0.370134 0.106582,0.484468 0,0.07558 0.01164,0.131773 0.03682,0.170534 0.01937,0.03294 0.0407,0.102704 0.04845,0.155025 0.0078,0.05426 0.02907,0.1279 0.04845,0.164719 0.01937,0.03682 0.0407,0.10658 0.04845,0.15503 0.0078,0.04651 0.02519,0.100769 0.0407,0.116271 0.0155,0.01744 0.04069,0.06977 0.05814,0.116274 0.01744,0.04651 0.04263,0.09883 0.05813,0.116271 0.06395,0.0717 0.100769,0.486405 0.06783,0.771271 -0.0097,0.09689 -0.02326,0.271299 -0.02907,0.385636 -0.0058,0.114334 -0.01551,0.226729 -0.02326,0.248047 -0.0058,0.02133 -0.01357,0.06395 -0.01744,0.09689 -0.0019,0.03101 -0.01357,0.131775 -0.02132,0.222853 -0.0097,0.09108 -0.01744,0.329438 -0.01551,0.532916 0.0019,0.333311 0.0078,0.38563 0.05426,0.552291 0.05814,0.217038 0.178286,0.476713 0.228671,0.505783 0.02133,0.01162 0.03682,0.04069 0.03682,0.0717 0,0.03682 0.01551,0.06202 0.0562,0.08527 0.03876,0.02133 0.06007,0.05038 0.06395,0.08527 0.0039,0.04263 0.02133,0.06007 0.06395,0.07558 0.03294,0.0097 0.06589,0.031 0.07364,0.04457 0.0097,0.01357 0.04651,0.05232 0.08333,0.08526 0.03682,0.03295 0.06589,0.0717 0.06589,0.08721 0,0.01357 0.02133,0.02519 0.04845,0.02519 0.031,0 0.06201,0.02132 0.09108,0.05813 0.02907,0.0407 0.05814,0.05814 0.09689,0.05814 0.03294,0 0.06395,0.01551 0.07751,0.03876 0.01744,0.02519 0.04651,0.03876 0.0872,0.03876 0.04069,0 0.0717,0.01357 0.08914,0.03876 0.01556,0.02122 0.0301,0.03109 0.05418,0.03109 0.0089,0 0.01908,-0.0013 0.03109,-0.004 0.01087,-0.0021 0.02064,-0.0033 0.02951,-0.0033 0.02275,0 0.03933,0.0073 0.05189,0.02265 0.01551,0.01937 0.0562,0.03101 0.102703,0.03101 0.05039,0 0.07945,0.0097 0.08721,0.031 0.0053,0.01471 0.01532,0.02111 0.03439,0.02111 0.0085,0 0.01892,-0.0013 0.0315,-0.0037 0.0087,-0.0021 0.01799,-0.003 0.02772,-0.003 0.02724,0 0.05754,0.0076 0.08467,0.02045 0.03101,0.01744 0.07752,0.031 0.102703,0.031 0.02519,0 0.08333,0.01357 0.131779,0.03101 0.06007,0.02133 0.215103,0.03488 0.513535,0.04845 0.234479,0.0097 0.461211,0.02519 0.503843,0.03682 0.04263,0.0097 0.110459,0.01937 0.149217,0.01937 0.07751,0 0.08527,0.01161 0.120148,0.213164 0.0078,0.03682 0.03294,0.106585 0.0562,0.15503 0.03876,0.07945 0.05039,0.08914 0.141462,0.108522 0.03298,0.0072 0.07301,0.01056 0.116565,0.01056 0.143275,0 0.324665,-0.03606 0.41829,-0.08807 0.125961,-0.0717 0.149215,-0.116277 0.145336,-0.267428 -0.0058,-0.178284 0.0078,-0.189912 0.228672,-0.189912 0.21704,0 0.263548,0.02519 0.273237,0.151154 0.0019,0.04457 0.0097,0.08914 0.0155,0.09883 0.0058,0.0097 0.07558,0.02326 0.151154,0.031 0.07752,0.0078 0.147275,0.02326 0.155027,0.03682 0.02713,0.03876 0.0155,0.137589 -0.02133,0.199602 -0.03101,0.05038 -0.05814,0.06395 -0.145341,0.08333 -0.122084,0.02519 -0.162777,0.06007 -0.118211,0.0969 0.03488,0.02907 0.03682,0.08333 0.0058,0.137584 -0.01937,0.03295 -0.01937,0.04457 0,0.05039 0.02907,0.01164 0.031,0.0872 0.0039,0.114334 -0.0155,0.0155 -0.01357,0.03682 0.0019,0.07364 0.01937,0.03875 0.01937,0.06782 0.0039,0.114332 -0.02713,0.07752 -0.01937,0.279055 0.0097,0.308125 0.03488,0.0349 0.02713,0.10852 -0.0097,0.12983 -0.03294,0.0174 -0.03294,0.0194 0,0.0543 0.03876,0.0426 0.04263,0.0853 0.01162,0.11627 -0.02713,0.0271 -0.03488,0.44378 -0.0078,0.51548 0.01357,0.0388 0.01162,0.064 -0.0078,0.093 -0.01744,0.0291 -0.01939,0.0465 -0.0039,0.062 0.02907,0.0291 0.02713,0.0969 -0.0019,0.12596 -0.01744,0.0174 -0.01551,0.0329 0.0039,0.0717 0.01937,0.0368 0.02132,0.0581 0.0039,0.0969 -0.02907,0.062 -0.031,0.29261 -0.0039,0.31005 0.02713,0.0174 0.02519,0.1124 -0.0039,0.14146 -0.01744,0.0174 -0.01744,0.0291 0,0.0465 0.031,0.031 0.02907,0.12597 0,0.13758 -0.01937,0.008 -0.01937,0.0136 0,0.0349 0.02326,0.0252 0.03294,0.11821 0.01161,0.13953 -0.0058,0.006 -0.0155,0.18797 -0.02133,0.40307 -0.0039,0.21705 -0.01357,0.4244 -0.02133,0.46316 -0.01117,0.0509 -0.03666,0.0764 -0.0785,0.0764 -0.02347,0 -0.0521,-0.008 -0.08622,-0.024 -0.03488,-0.0174 -0.08527,-0.0368 -0.116271,-0.0426 -0.02907,-0.008 -0.05813,-0.0213 -0.06395,-0.031 -0.0058,-0.01 -0.02907,-0.0174 -0.05232,-0.0174 -0.02326,0 -0.06782,-0.0174 -0.100769,-0.0387 -0.031,-0.0213 -0.07363,-0.0388 -0.09495,-0.0388 -0.01937,0 -0.06783,-0.0174 -0.106579,-0.0368 -0.03876,-0.0194 -0.118216,-0.0581 -0.17635,-0.0853 -0.05813,-0.0252 -0.16278,-0.0736 -0.232543,-0.10658 -0.203477,-0.0949 -0.24611,-0.1124 -0.581363,-0.24223 -0.349314,-0.13719 -0.465376,-0.17941 -0.534226,-0.17941 -0.02551,0 -0.04452,0.006 -0.06651,0.0147 -0.05038,0.0213 -0.08139,0.0562 -0.120147,0.13371 -0.05232,0.10464 -0.05232,0.11239 -0.0562,0.50191 0,0.21897 0.0039,0.4147 0.01357,0.43601 0.0078,0.0213 0.04651,0.0795 0.0872,0.12985 0.04264,0.0504 0.07558,0.11045 0.07558,0.13759 0,0.0698 0.01937,0.11045 0.05039,0.11045 0.05426,0 0.104645,0.0756 0.104645,0.15697 0,0.0698 -0.0058,0.0795 -0.06201,0.10464 -0.03488,0.0136 -0.09883,0.031 -0.141465,0.0388 -0.04263,0.008 -0.08721,0.0213 -0.09689,0.031 -0.01164,0.008 -0.106588,0.0329 -0.21317,0.0562 -0.106579,0.0233 -0.294555,0.064 -0.416639,0.0911 -0.122084,0.0271 -0.290682,0.0601 -0.375947,0.0756 -0.08333,0.0135 -0.180223,0.0349 -0.213167,0.0465 -0.03294,0.01 -0.151153,0.0368 -0.263548,0.0581 -0.509657,0.0969 -0.592987,0.12596 -0.691822,0.2306 -0.04845,0.0523 -0.06395,0.0872 -0.07363,0.17441 -0.0058,0.0601 -0.02133,0.14534 -0.03295,0.18991 -0.01162,0.0504 -0.01744,0.18798 -0.01162,0.34882 0.01162,0.29843 0.04263,0.40889 0.141462,0.51741 0.118211,0.13177 0.149217,0.18797 0.137589,0.24417 -0.0097,0.0543 -0.0058,0.0562 0.07558,0.0698 0.04845,0.006 0.110458,0.031 0.139523,0.0542 0.04457,0.0329 0.07945,0.0407 0.209293,0.0407 0.129836,0 0.172469,-0.008 0.248047,-0.0485 0.168592,-0.0872 0.341066,-0.36239 0.37982,-0.60268 0.02713,-0.16859 0.0058,-0.30036 -0.05813,-0.3585 -0.04457,-0.0388 -0.04845,-0.12984 -0.0078,-0.17053 0.02713,-0.0271 0.07364,-0.0349 0.366258,-0.062 0.07364,-0.006 0.182157,-0.0252 0.242234,-0.0407 0.06007,-0.0155 0.234484,-0.0349 0.389509,-0.0446 0.15503,-0.008 0.306183,-0.0252 0.335248,-0.0368 0.03101,-0.0116 0.153096,-0.0213 0.27518,-0.0213 0.232545,0 0.28099,-0.008 0.28099,-0.0484 0,-0.031 0.04264,-0.0426 0.25192,-0.0659 0.09108,-0.01 0.19185,-0.0291 0.222859,-0.0407 0.03294,-0.0116 0.15503,-0.0291 0.271304,-0.0388 0.118208,-0.01 0.261609,-0.0329 0.319743,-0.0523 0.0711,-0.0213 0.155242,-0.0312 0.306266,-0.0312 0.01363,0 0.0278,8e-5 0.04255,2.4e-4 0.211228,0 0.251926,0.006 0.323628,0.0426 0.10658,0.0562 0.114332,0.0698 0.1279,0.20542 0.0058,0.064 0.02519,0.2461 0.04069,0.40695 0.03876,0.38369 0.04069,0.56973 0,0.62593 -0.01987,0.028 -0.06015,0.0427 -0.108974,0.0427 -0.03216,0 -0.06803,-0.006 -0.104193,-0.0194 -0.02215,-0.008 -0.0411,-0.0133 -0.05727,-0.0133 -0.07299,0 -0.0893,0.0978 -0.08613,0.40082 0.0019,0.20735 0.0078,0.2558 0.07751,0.62981 0.02133,0.11627 0.04457,0.26355 0.05232,0.32363 0.0078,0.0814 0.02326,0.12208 0.0562,0.15309 0.02519,0.0233 0.04651,0.0601 0.04651,0.0795 0,0.0174 0.01939,0.0794 0.04263,0.13565 0.03101,0.0775 0.06201,0.11627 0.12596,0.1589 0.09108,0.0581 0.232545,0.10853 0.31006,0.10853 0.02519,0 0.09495,0.0174 0.155027,0.0388 0.10296,0.0363 0.204428,0.0541 0.295995,0.0541 0.142827,0 0.261538,-0.0431 0.324119,-0.12575 0.03101,-0.0387 0.06783,-0.0833 0.08333,-0.10077 0.04264,-0.0446 0.145338,-0.26548 0.184097,-0.38951 0.03876,-0.12015 0.0407,-0.33913 0.0058,-0.42051 -0.03876,-0.0891 -0.137592,-0.17248 -0.240295,-0.20542 -0.170532,-0.0543 -0.269364,-0.093 -0.294555,-0.11821 -0.04457,-0.0426 -0.08139,-0.25774 -0.102709,-0.5988 -0.03682,-0.59879 -0.05232,-0.87204 -0.06395,-1.08908 l -0.01162,-0.21316 0.06589,-0.0543 c 0.07455,-0.0596 0.170905,-0.0851 0.376592,-0.0851 0.08838,0 0.196961,0.005 0.332666,0.0134 0.207353,0.0116 0.430207,0.0349 0.494157,0.0485 0.06395,0.0136 0.230605,0.0349 0.368194,0.0465 0.139528,0.0136 0.313933,0.0349 0.389511,0.0504 0.07558,0.0155 0.277112,0.0329 0.445709,0.0388 0.168596,0.008 0.364318,0.0252 0.434084,0.0388 0.06976,0.0155 0.284863,0.0368 0.476712,0.0465 0.191849,0.0116 0.377886,0.0291 0.412766,0.0407 0.03682,0.01 0.129836,0.0233 0.207351,0.031 0.21123,0.0194 0.21123,0.0194 0.176348,0.25385 -0.02519,0.16472 -0.02519,0.21316 -0.0039,0.31587 0.0155,0.0756 0.03876,0.12983 0.06395,0.14534 0.02519,0.0194 0.04264,0.0601 0.05039,0.1279 0.0097,0.0678 0.02713,0.11239 0.06008,0.14147 0.06395,0.0581 0.156964,0.28486 0.174405,0.41857 0.02133,0.17635 0.151154,0.4961 0.207351,0.51935 0.0097,0.004 0.04264,0.0291 0.07364,0.0562 0.07752,0.0639 0.226727,0.13953 0.310057,0.15309 0.03682,0.006 0.129839,0.0271 0.203478,0.0465 0.120147,0.0329 0.372071,0.0581 0.875914,0.0911 0.04113,0.003 0.07227,0.005 0.09708,0.005 0.06053,0 0.08342,-0.01 0.121899,-0.0374 0.034,-0.0238 0.0501,-0.0343 0.106076,-0.0343 0.03973,0 0.09955,0.005 0.200105,0.015 0.135652,0.0116 0.302313,0.0387 0.370133,0.0601 0.06783,0.0194 0.137589,0.0368 0.15503,0.0368 0.01744,0 0.08333,0.0174 0.147275,0.0388 0.131779,0.0426 0.358511,0.0988 0.77515,0.19378 0.05703,0.0134 0.250164,0.0196 0.461915,0.0196 0.277535,0 0.587044,-0.0106 0.663985,-0.0293 0.06589,-0.0155 0.251923,-0.0368 0.410827,-0.0484 0.16084,-0.0116 0.327501,-0.0329 0.368194,-0.0465 0.04264,-0.0155 0.135652,-0.0329 0.20929,-0.0407 0.07364,-0.006 0.168596,-0.0233 0.211228,-0.0388 0.04264,-0.0136 0.125963,-0.0407 0.18797,-0.0562 0.08139,-0.0233 0.12209,-0.0484 0.164722,-0.10077 0.02907,-0.0368 0.09689,-0.1124 0.149214,-0.16471 l 0.09302,-0.095 -0.0078,-0.15116 c -0.0058,-0.13953 -0.01162,-0.15503 -0.08333,-0.24998 -0.04263,-0.0543 -0.108522,-0.14147 -0.145341,-0.19185 -0.07945,-0.10853 -0.21704,-0.20154 -0.296492,-0.20154 -0.03101,0 -0.08333,-0.0194 -0.116274,-0.0446 -0.0562,-0.0388 -0.09108,-0.0446 -0.34494,-0.0523 -0.242231,-0.008 -0.290679,-0.0155 -0.325562,-0.0465 -0.03367,-0.0302 -0.09934,-0.0472 -0.159509,-0.0472 -0.04024,0 -0.07802,0.008 -0.102103,0.0239 -0.02713,0.0174 -0.0717,0.031 -0.09883,0.031 -0.04069,0 -0.04845,-0.01 -0.04845,-0.0543 0,-0.0484 -0.01161,-0.0562 -0.160845,-0.10658 -0.0872,-0.0291 -0.189913,-0.0601 -0.22673,-0.0698 -0.07945,-0.0174 -0.329438,-0.1531 -0.329438,-0.17635 0,-0.01 -0.01744,-0.0233 -0.04069,-0.0291 -0.02712,-0.01 -0.03682,-0.0271 -0.03295,-0.0543 0.0058,-0.0426 0.0078,-0.0426 0.587176,-0.0465 0.60074,-0.002 1.065827,-0.0271 1.12784,-0.0601 0.01937,-0.01 0.100766,-0.0291 0.180221,-0.0426 0.07945,-0.0136 0.158903,-0.0349 0.174408,-0.0484 0.0155,-0.0136 0.0562,-0.0388 0.09108,-0.0562 0.03294,-0.0174 0.06782,-0.0504 0.07558,-0.0736 0.0058,-0.0252 0.04069,-0.0717 0.07751,-0.10465 0.08914,-0.0833 0.09883,-0.14146 0.04651,-0.26936 -0.02326,-0.0581 -0.05038,-0.10658 -0.06007,-0.10658 -0.0097,0 -0.03101,-0.0291 -0.04845,-0.064 -0.06007,-0.11627 -0.116271,-0.14728 -0.275174,-0.14921 -0.135652,0 -0.141465,-0.002 -0.162782,-0.0523 l -0.02133,-0.0543 -0.01937,0.0523 c -0.01937,0.0484 -0.031,0.0543 -0.112395,0.0543 -0.09496,0 -0.28099,-0.0698 -0.323625,-0.12209 -0.01357,-0.0174 -0.06007,-0.0349 -0.102706,-0.0426 -0.0562,-0.01 -0.08333,-0.0271 -0.09883,-0.0601 -0.01937,-0.0387 -0.03682,-0.0465 -0.147277,-0.0504 -0.112395,-0.006 -0.129837,-0.0116 -0.166656,-0.0601 -0.03876,-0.0543 -0.0407,-0.0717 -0.03488,-0.64919 0.0039,-0.40695 0.01355,-0.61043 0.02906,-0.64144 0.01357,-0.0271 0.05039,-0.0562 0.08139,-0.0659 0.03294,-0.01 0.06976,-0.0271 0.08333,-0.0387 0.02713,-0.0213 0.031,-0.1531 0.0058,-0.24224 -0.01162,-0.0349 -0.02907,-0.3023 -0.0407,-0.59105 -0.01161,-0.29067 -0.02907,-0.60074 -0.04069,-0.69181 -0.06007,-0.55229 -0.06201,-0.66663 -0.01937,-1.31775 0.02326,-0.346878 0.05038,-0.755768 0.06007,-0.910798 0.0097,-0.155027 0.02519,-0.304244 0.03682,-0.333312 0.0097,-0.02907 0.02906,-0.191849 0.04069,-0.362381 0.0097,-0.170534 0.02907,-0.333314 0.03876,-0.362384 0.03682,-0.09301 0.06201,-0.620114 0.05426,-1.12396 -0.0058,-0.4709 -0.0078,-0.505783 -0.04845,-0.579422 -0.02326,-0.04263 -0.05038,-0.09883 -0.06395,-0.12596 -0.02907,-0.06395 -0.09108,-0.168595 -0.168596,-0.279054 -0.05232,-0.07558 -0.06782,-0.11821 -0.08139,-0.24611 -0.0097,-0.08333 -0.02713,-0.164719 -0.03876,-0.180221 -0.01162,-0.01357 -0.02906,-0.0717 -0.04069,-0.129839 -0.01551,-0.08333 -0.03294,-0.116271 -0.0872,-0.158903 -0.02831,-0.02384 -0.05318,-0.05455 -0.06317,-0.07716 h -0.0011 l 2.549824,-5.106633 -2.145469,-1.040545 -0.0044,-0.0021 -2.581574,4.486225 v 0 c -0.100888,-0.07113 -0.330986,-0.243028 -0.593196,-0.443706 -0.348819,-0.267428 -0.647248,-0.484468 -0.670499,-0.484468 -0.02133,0 -0.0562,-0.01357 -0.07752,-0.02907 -0.02326,-0.01744 -0.08139,-0.02713 -0.153093,-0.02907 -0.06588,0 -0.1279,-0.0097 -0.139525,-0.02132 -0.0055,-0.0055 -0.01902,-0.0085 -0.04213,-0.0085 -0.03371,0 -0.08781,0.0063 -0.167163,0.02008 -0.08861,0.01574 -0.136697,0.02349 -0.164611,0.02349 -0.02702,0 -0.03511,-0.0073 -0.04274,-0.02156 -0.01106,-0.02043 -0.03779,-0.03038 -0.07431,-0.03038 -0.04668,0 -0.109341,0.0163 -0.175675,0.04782 -0.09007,0.04047 -0.169587,0.06158 -0.234408,0.06158 -0.03141,0 -0.05937,-0.0049 -0.0834,-0.01508 -0.03101,-0.01162 -0.141462,-0.03101 -0.242234,-0.03876 -0.207351,-0.01744 -0.414702,-0.05814 -0.480589,-0.09302 -0.02326,-0.01357 -0.11821,-0.02907 -0.209293,-0.03488 l -0.166652,-0.01161 -0.08527,-0.09108 c -0.09108,-0.09883 -0.151151,-0.124024 -0.366252,-0.153091 -0.07752,-0.01161 -0.155032,-0.03488 -0.186039,-0.05814 -0.02907,-0.02132 -0.116274,-0.0562 -0.191849,-0.07557 -0.08139,-0.02133 -0.147278,-0.05039 -0.158904,-0.06783 -0.0097,-0.01937 -0.031,-0.03294 -0.04457,-0.03294 -0.01744,0 -0.02907,-0.01937 -0.02907,-0.04845 0,-0.05039 -0.05814,-0.116271 -0.18216,-0.207352 -0.05248,-0.03729 -0.07445,-0.04997 -0.119216,-0.04997 -0.01804,0 -0.0398,0.0021 -0.06876,0.0054 -0.02758,0.0035 -0.04983,0.0054 -0.06933,0.0054 -0.0449,0 -0.07523,-0.01019 -0.12252,-0.03451 -0.04115,-0.02109 -0.06276,-0.03072 -0.08299,-0.03072 -0.01693,0 -0.03287,0.0067 -0.05847,0.01908 -0.06217,0.02901 -0.108092,0.04572 -0.151185,0.04572 -0.0778,0 -0.14641,-0.05444 -0.284835,-0.189121 -0.127899,-0.124024 -0.172471,-0.147278 -0.31006,-0.160843 -0.06589,-0.0078 -0.147277,-0.02713 -0.178286,-0.04263 -0.05426,-0.02713 -0.05813,-0.03682 -0.05813,-0.141464 0,-0.180221 -0.02326,-0.197663 -0.248047,-0.197663 h -0.186039 l -0.06395,-0.0717 c -0.04845,-0.05426 -0.06395,-0.08914 -0.06395,-0.143404 0,-0.07557 0.03101,-0.162777 0.06977,-0.205409 0.01357,-0.01357 0.02907,-0.06201 0.03682,-0.106587 0.0078,-0.04457 0.031,-0.112395 0.05038,-0.151149 0.01744,-0.03682 0.04069,-0.129839 0.04651,-0.203478 0.0078,-0.07558 0.02519,-0.147277 0.03682,-0.162779 0.01162,-0.01551 0.03682,-0.07945 0.0562,-0.145341 0.07751,-0.261612 0.07751,-0.255799 0.02132,-0.414703 -0.02713,-0.08333 -0.06007,-0.162785 -0.07364,-0.178284 -0.01357,-0.01551 -0.03488,-0.06589 -0.04845,-0.112395 -0.01162,-0.04457 -0.031,-0.08139 -0.04069,-0.08139 -0.01162,0 -0.01937,-0.01162 -0.01937,-0.02713 0,-0.01357 -0.02519,-0.0717 -0.0562,-0.129836 -0.03101,-0.05814 -0.06201,-0.143404 -0.06976,-0.191849 -0.0078,-0.04845 -0.02519,-0.108522 -0.03876,-0.135652 -0.01357,-0.02713 -0.02907,-0.0872 -0.03682,-0.135649 -0.0078,-0.04651 -0.02907,-0.112398 -0.05039,-0.145341 -0.01937,-0.03101 -0.04069,-0.09883 -0.04845,-0.151154 -0.0078,-0.05039 -0.031,-0.112395 -0.05038,-0.137589 -0.02133,-0.02713 -0.04264,-0.0872 -0.05039,-0.137588 -0.0049,-0.04292 -0.01413,-0.07038 -0.02154,-0.07038 -0.0013,0 -0.0026,7.94e-4 -0.0037,0.0026 -7.94e-4,0.0011 -0.0016,0.0016 -0.0024,0.0016 -0.0095,0 -0.03063,-0.05125 -0.05177,-0.121716 -0.0562,-0.199599 -0.131775,-0.403075 -0.156964,-0.428268 -0.01161,-0.01162 -0.02132,-0.03488 -0.02132,-0.05232 0,-0.0155 -0.01744,-0.09883 -0.03876,-0.184097 -0.02713,-0.108519 -0.03876,-0.220914 -0.03876,-0.379822 v -0.22479 l 0.07558,-0.108522 c 0.102706,-0.145341 0.149217,-0.362384 0.07751,-0.362384 -0.01744,0 -0.220919,-0.199601 -0.408889,-0.405013 -0.106582,-0.112395 -0.118211,-0.174408 -0.04457,-0.240295 0.02519,-0.02326 0.07364,-0.06589 0.106582,-0.09689 0.0408,-0.0357 0.08011,-0.05387 0.125122,-0.05387 0.05761,0 0.124565,0.02977 0.215945,0.09069 0.07364,0.05038 0.166655,0.102703 0.207353,0.116269 0.04069,0.01357 0.09301,0.03876 0.116269,0.0562 0.02326,0.0155 0.05426,0.02906 0.0717,0.02906 0.0155,0 0.05426,0.01357 0.08526,0.02907 0.03475,0.01815 0.07255,0.02673 0.110662,0.02673 0.10428,0 0.210838,-0.06421 0.263347,-0.172069 0.02326,-0.04845 0.04263,-0.102709 0.04263,-0.122087 0.0019,-0.05814 0.08527,-0.124023 0.199602,-0.156967 0.116273,-0.03294 0.145341,-0.05814 0.168592,-0.139525 0.01551,-0.06201 0.03876,-0.07558 0.151157,-0.104645 0.07945,-0.01937 0.08333,-0.02326 0.09496,-0.118211 0.0078,-0.06395 0.031,-0.120147 0.06201,-0.156967 l 0.05039,-0.05814 0.158903,0.01162 c 0.04837,0.0038 0.08252,0.0062 0.108231,0.0062 0.05257,0 0.06983,-0.0098 0.10106,-0.03718 0.03682,-0.03294 0.0562,-0.07945 0.07558,-0.176345 0.02326,-0.116271 0.02326,-0.168592 -0.0078,-0.436017 -0.01937,-0.166659 -0.03488,-0.358505 -0.03682,-0.424395 0,-0.141464 0.05232,-0.292616 0.137588,-0.387575 0.05426,-0.06201 0.06589,-0.102703 0.05814,-0.191849 -0.0019,-0.02326 0.0097,-0.145336 0.02519,-0.271298 0.06976,-0.554228 0.133709,-0.821656 0.215103,-0.899171 0.09689,-0.09108 0.106582,-0.220916 0.02713,-0.333311 -0.02907,-0.0407 -0.03488,-0.06976 -0.02519,-0.122084 0.0097,-0.06008 0.0019,-0.08527 -0.0562,-0.170535 -0.03876,-0.0562 -0.07558,-0.125958 -0.08333,-0.158906 -0.0078,-0.031 -0.04263,-0.0872 -0.07945,-0.124024 -0.06201,-0.06395 -0.08333,-0.143401 -0.04457,-0.166655 0.01937,-0.01162 -0.07751,-0.104646 -0.149214,-0.143402 -0.02326,-0.01161 -0.07945,-0.07364 -0.124024,-0.137588 -0.04457,-0.06395 -0.08914,-0.116272 -0.09689,-0.116272 -0.0078,0 -0.06589,-0.04264 -0.127899,-0.09302 -0.06201,-0.05038 -0.164719,-0.112395 -0.226732,-0.135646 -0.06395,-0.02326 -0.133713,-0.06395 -0.156967,-0.0872 -0.02132,-0.02326 -0.08526,-0.08333 -0.139525,-0.133713 -0.05426,-0.05038 -0.104643,-0.106582 -0.110459,-0.125963 -0.02133,-0.06589 -0.129836,-0.116271 -0.277116,-0.129836 -0.07558,-0.0078 -0.187973,-0.03101 -0.246108,-0.05232 -0.06007,-0.01937 -0.145341,-0.03682 -0.191849,-0.03682 -0.04457,0 -0.133715,-0.01357 -0.193786,-0.02907 -0.06201,-0.0155 -0.114335,-0.02713 -0.116274,-0.02713 z"
         style="fill:#000000;fill-opacity:1;stroke-width:0.264583;stroke-linejoin:miter" />
    </g>
  </g>
</svg>
