<?xml version="1.0" encoding="UTF-8" standalone="no"?>
<svg
   xmlns:dc="http://purl.org/dc/elements/1.1/"
   xmlns:cc="http://creativecommons.org/ns#"
   xmlns:rdf="http://www.w3.org/1999/02/22-rdf-syntax-ns#"
   xmlns:svg="http://www.w3.org/2000/svg"
   xmlns="http://www.w3.org/2000/svg"
   xmlns:sodipodi="http://sodipodi.sourceforge.net/DTD/sodipodi-0.dtd"
   xmlns:inkscape="http://www.inkscape.org/namespaces/inkscape"
   version="1.1"
   width="1260.6438"
   height="1059.6536"
   viewBox="0 0 1260.6438 1059.6536"
   id="svg9"
   sodipodi:docname="alone_sitting_male6.svg"
   inkscape:version="1.0.2 (e86c870879, 2021-01-15)">
  <metadata
     id="metadata15">
    <rdf:RDF>
      <cc:Work
         rdf:about="">
        <dc:format>image/svg+xml</dc:format>
        <dc:type
           rdf:resource="http://purl.org/dc/dcmitype/StillImage" />
        <dc:title></dc:title>
      </cc:Work>
    </rdf:RDF>
  </metadata>
  <defs
     id="defs13" />
  <sodipodi:namedview
     pagecolor="#ffffff"
     bordercolor="#666666"
     borderopacity="1"
     objecttolerance="10"
     gridtolerance="10"
     guidetolerance="10"
     inkscape:pageopacity="0"
     inkscape:pageshadow="2"
     inkscape:window-width="1920"
     inkscape:window-height="997"
     id="namedview11"
     showgrid="false"
     inkscape:zoom="0.16212724"
     inkscape:cx="306.96237"
     inkscape:cy="906.14348"
     inkscape:window-x="0"
     inkscape:window-y="0"
     inkscape:window-maximized="1"
     inkscape:current-layer="svg9"
     inkscape:document-rotation="0"
     fit-margin-top="0"
     fit-margin-left="0"
     fit-margin-right="0"
     fit-margin-bottom="0" />
  <rect
     style="fill:#ffffff;stroke-width:5.66929;stroke-linecap:square;stroke-linejoin:round;stroke-dasharray:11.3386, 11.3386"
     id="rect831"
     width="1260.6438"
     height="1059.6536"
     x="0"
     y="0" />
  <g
     id="g2"
     style="fill:#000000;fill-opacity:1;stroke-linejoin:miter"
     transform="translate(-106.69344,325.4024)" />
  <path
     style="fill:#000000;fill-opacity:1;stroke-width:2.86722;stroke-linejoin:miter"
     d="m 975.63996,437.41134 c 0,0 0.01,9e-5 0.012,1.4e-4 0.3531,0.0115 0.7491,0.49947 1.4017,1.53654 1.1051,1.97821 1.0892,2.29794 -0.2282,4.63802 -0.7439,1.22565 -1.2146,1.80921 -1.5964,1.80921 0,0 -0.01,-8e-5 -0.011,-1.7e-4 -0.1956,-0.006 -0.3681,-0.16573 -0.5422,-0.47177 -0.3684,-0.65946 -0.6095,-2.27437 -0.5467,-3.5538 0.067,-1.35958 0.4611,-2.86304 0.8925,-3.48322 0.2208,-0.31183 0.4129,-0.47495 0.6186,-0.47495 z m -509.86482,-132.99736 32.36593,16.79924 h -0.009 c -0.71285,3.1722 -0.75319,6.47633 -0.121,9.91243 1.44287,6.53098 4.85822,11.62207 10.24604,15.27321 4.16893,2.65826 8.56446,3.98739 13.18659,3.98739 1.57187,0 3.16994,-0.15369 4.79422,-0.46111 2.15778,-0.47708 4.15956,-1.17312 6.00528,-2.08819 h 0.009 l 70.43505,35.28748 h -0.0115 c -13.1529,26.7027 -24.73816,41.19362 -46.38614,58.29812 -6.14884,4.91908 -17.76331,14.21068 -25.8251,20.63279 -7.92527,6.42211 -19.94959,15.8503 -26.64497,20.90609 l -12.2977,9.15492 -2.45962,-6.55882 c -1.3664,-3.55266 -2.18619,-7.92517 -1.77624,-9.56484 0.95645,-3.96253 -1.63976,-9.42819 -5.73899,-12.0244 -2.32279,-1.503 -3.14268,-3.41606 -3.14268,-6.96863 0,-3.68937 -1.22975,-6.14884 -5.87556,-11.20455 -9.15494,-10.11156 -15.44045,-20.76943 -17.2167,-29.10444 -3.14281,-14.89396 -16.12371,-28.42139 -27.46479,-28.55807 -2.59619,0 -6.42223,-0.81973 -8.47183,-1.91295 -1.91295,-1.09321 -6.28546,-2.32279 -9.56487,-2.86948 -5.19228,-0.81971 -14.75712,-5.32896 -14.75712,-6.96857 0,-0.41002 1.2297,-4.50922 2.73275,-9.15498 2.18631,-6.69558 4.37251,-10.24806 10.11142,-15.85038 6.69535,-6.69536 7.92519,-7.24208 15.98706,-8.33512 10.79459,-1.50291 26.5083,-5.73899 31.97393,-8.4718 7.92511,-4.09923 9.29151,-6.83209 9.56487,-19.12973 0,-2.77665 0.13333,-6.72679 0.34103,-11.02561 z m 180.36449,129.44387 c 0.13362,0 0.24572,0.0172 0.33461,0.0493 1.09298,0.27324 4.7824,1.22992 8.19841,2.04966 10.38475,2.59626 10.93127,2.86945 10.93127,5.3291 0,1.22955 -1.22972,6.96854 -2.73281,12.57086 -1.50311,5.60223 -2.73286,13.52742 -2.73286,17.62659 0,6.96878 -0.68317,8.33518 -7.92516,18.58322 -9.9748,14.2106 -37.98617,45.50135 -46.73119,52.19682 -7.24193,5.6022 -14.48392,10.52132 -30.06095,20.76939 -6.64409,4.42945 -12.74541,7.02669 -15.76936,7.02669 -1.26719,0 -1.99395,-0.456 -1.99395,-1.42438 0,-0.6832 -1.36643,-1.77635 -3.00619,-2.18631 -1.77624,-0.54649 -4.37239,-2.0496 -5.87547,-3.416 -1.50308,-1.3664 -4.50919,-2.7328 -6.69539,-3.00608 -3.14281,-0.27325 -3.96261,-1.09318 -4.37256,-4.23583 -0.27325,-3.14287 2.18625,-7.10537 12.98087,-20.49614 16.39693,-20.49611 28.83129,-38.53277 38.25947,-55.88615 3.9625,-7.24197 9.8382,-15.71374 12.98088,-18.71979 5.46566,-5.46563 21.99919,-16.53358 24.73202,-16.53358 0.81988,0 5.05568,-2.45947 9.56487,-5.46567 4.14293,-2.76199 8.40132,-4.83183 9.91349,-4.83183 z M 455.0403,620.42202 c 0.6832,0 2.18628,1.50317 3.41603,3.27941 1.09313,1.91295 3.41601,3.68936 4.91906,4.23586 2.3229,0.81994 2.73286,1.63976 1.91301,5.60237 -1.0931,6.01216 0.27324,7.65192 12.43432,14.34727 5.46564,3.006 10.93127,6.55865 12.29767,8.06179 1.22975,1.36637 4.50905,3.27938 7.10531,4.23589 l 4.78244,1.50311 -3.82593,2.59615 c -5.37632,3.54024 -24.72044,9.59755 -30.74083,9.59755 -0.25317,0 -0.48261,-0.0115 -0.68661,-0.0327 -0.13849,-0.009 -0.28443,-0.0115 -0.43725,-0.0115 -4.97064,0 -17.30131,4.25409 -25.38784,8.89394 -7.242,4.23585 -36.3465,13.93726 -44.95481,15.16712 l -6.83206,0.81971 3.00602,-3.96258 c 8.4718,-10.93127 9.97488,-14.34727 15.30383,-35.3899 3.00608,-12.02434 6.01213,-22.27244 6.69539,-22.95561 0.26636,-0.26608 0.90604,-0.38728 1.7738,-0.38728 1.35887,0 3.27689,0.29687 5.19492,0.7972 2.50583,0.66319 4.69369,1.02847 6.74576,1.02847 5.55681,0 10.11813,-2.67769 17.30309,-9.36367 4.7824,-4.3724 9.29151,-8.06185 9.97468,-8.06185 z m 570.7589,-220.98836 c -4.4495,0 -10.5913,2.81724 -14.0189,6.51297 -2.7042,2.83296 -3.7714,3.34169 -8.6205,4.14528 -1.9841,0.28271 -3.49984,0.43926 -5.04074,0.43926 -0.2251,0 -0.4509,-0.003 -0.6787,-0.0115 -1.8284,-0.0545 -3.7907,-0.33073 -6.6829,-0.87829 -3.019,-0.57826 -4.8325,-0.88763 -6.1921,-0.92823 -0.1024,-0.003 -0.2019,-0.006 -0.2994,-0.006 -1.2654,0 -2.152,0.25633 -3.3599,0.7691 -1.5623,0.61287 -3.5595,1.13112 -4.6406,1.13112 -0.032,0 -0.062,-4e-4 -0.092,-0.001 -0.017,-5.2e-4 -0.035,-0.001 -0.052,-0.002 -0.023,-0.001 -0.047,-0.002 -0.071,-0.003 -0.037,-0.001 -0.074,-0.002 -0.1118,-0.002 -2.4536,0 -5.5817,2.36417 -7.2174,5.41236 -0.9819,2.03544 -1.2479,4.18689 -1.1231,9.80374 0.2546,7.86822 1.2286,10.8819 3.4674,10.99162 1.1997,0.0594 1.5563,0.95866 1.9354,4.66431 0.5325,5.47702 0.5364,5.39705 -1.5936,16.11377 -2.4445,12.22381 -2.4433,13.82704 0.3936,16.45149 1.6595,1.56381 4.0035,2.40035 6.6436,2.47906 0.1367,0.003 0.2744,0.006 0.4126,0.006 2.2451,0 4.6854,-0.53703 7.0897,-1.62981 10.1632,-4.55039 30.44534,-19.26418 34.33044,-24.92479 1.0271,-1.52051 1.5313,-2.19032 1.9252,-2.19032 0,0 0.01,8e-5 0.011,2e-4 0.2647,0.009 0.4803,0.31986 0.7741,0.88058 0.5087,1.06698 0.5181,7.39974 -0.1007,18.35088 -0.8421,15.50919 -1.1119,17.74032 -3.9732,28.66141 -3.9532,15.19597 -9.9894,30.3698 -17.1795,42.92174 -16.22804,28.45995 -33.56804,42.0358 -70.77864,55.43733 -17.1384,6.21137 -31.343,16.33454 -47.59588,33.89195 -14.90715,16.26057 -19.29827,24.06026 -25.24892,45.65099 -7.12275,25.86145 -7.03785,55.12328 0.14537,81.84791 3.11655,11.61567 8.28993,25.41663 12.54247,33.48119 1.91014,3.54062 3.20027,6.65023 2.86441,6.95418 -0.066,0.0596 -0.76125,0.0886 -1.95441,0.0886 -1.4154,0 -3.53118,-0.0404 -6.12696,-0.11784 -3.57792,-0.10666 -8.06792,-0.28357 -12.89251,-0.5204 -17.83246,-0.87651 -22.05854,-1.32446 -31.65581,-3.39929 -25.77248,-5.67563 -47.86374,-17.74283 -57.37069,-31.43598 -11.60475,-16.68214 -12.39891,-42.93258 -2.38615,-78.67217 4.57989,-16.52737 8.7051,-27.06569 17.97229,-46.00854 7.39944,-15.18679 10.94254,-23.66966 11.07994,-26.46861 0.11412,-2.31895 -2.1173,-7.47851 -4.10614,-9.41979 -0.8401,-0.84282 -2.71612,-1.81667 -4.22356,-2.1312 l -2.69108,-0.69329 2.04102,2.5048 c 3.94576,4.52235 2.28237,9.00966 -9.94339,27.80714 -9.54308,14.76073 -19.34252,33.11594 -24.64874,46.48203 -6.39533,15.95739 -7.34417,18.95707 -11.16345,36.32393 -2.87978,12.92416 -3.15758,15.31513 -3.24105,25.17062 -0.0376,12.18195 2.27651,25.4414 5.74143,33.22676 11.69269,26.3053 34.9485,44.04105 72.54803,55.34764 16.35349,4.95263 39.04976,8.08211 62.04629,8.76767 3.17068,0.0946 6.34696,0.14278 9.51306,0.14278 2.70596,0 5.40442,-0.0353 8.08555,-0.10637 2.08745,-0.0476 3.82168,-0.0731 5.26738,-0.0731 0.9043,0 1.6957,0.009 2.3902,0.0307 2.9332,0.0875 4.1364,0.36635 4.8052,0.89555 0.6921,0.59512 3.8488,3.23454 7.0056,5.87453 16.0992,13.29598 28.9425,19.45781 53.1759,25.45889 5.2265,1.29868 13.0434,2.08361 34.7021,3.38891 9.38554,0.57187 18.98734,0.99837 28.54894,1.28351 9.7743,0.29131 19.5065,0.43482 28.9226,0.43482 28.0413,0 53.2788,-1.27279 68.4736,-3.70477 22.4624,-3.62533 24.0852,-4.02643 31.3066,-7.43896 15.8341,-7.39786 21.2702,-13.62331 20.9209,-24.46199 -0.2759,-9.07154 -3.1084,-16.66497 -8.7914,-23.35688 -6.8994,-8.03412 -10.4758,-10.29406 -22.3891,-14.16595 -19.4121,-6.2448 -47.9937,-10.21433 -90.7666,-12.47699 -8.8691,-0.46564 -17.356,-0.81888 -25.4606,-1.06044 -8.7847,-0.26178 -17.1205,-0.39252 -25.0073,-0.39252 -24.12794,0 -44.05404,1.22272 -59.77704,3.64925 -3.4046,0.50876 -5.302,0.77461 -6.5069,0.77461 -0.075,0 -0.1476,-10e-4 -0.2176,-0.003 -1.2026,-0.0358 -1.6677,-0.37922 -2.3993,-1.05961 -3.4375,-3.45543 -15.0394,-21.82011 -17.6271,-27.87882 -7.4713,-17.60129 -10.8398,-38.76812 -8.8988,-55.42563 1.0601,-8.52481 4.1388,-22.24101 6.349,-28.06405 1.9385,-5.19511 12.4947,-17.74206 22.8098,-27.01436 7.7221,-7.07486 9.2966,-8.11967 19.8751,-12.97043 21.5733,-10.00143 38.1634,-21.37024 50.76234,-34.69831 20.7075,-21.7467 34.7775,-48.70965 44.4941,-84.94432 3.8298,-14.32018 5.1618,-23.47263 5.9712,-39.9456 1.0806,-21.99019 -1.0826,-36.6852 -7.4685,-51.9083 -3.7983,-9.16446 -11.4264,-18.677 -17.3662,-21.77443 -2.1078,-1.14594 -5.343,-2.18662 -7.1025,-2.27304 -0.062,-0.003 -0.1233,-0.006 -0.1855,-0.009 -0.1001,-0.003 -0.2013,-0.006 -0.3033,-0.006 z M 387.57772,74.270875 c -8.75001,0 -16.72067,1.92778 -23.91197,5.78335 h -0.009 c -21.23972,2.4491 -49.29425,15.55386 -84.16361,39.314355 -29.37692,21.44154 -46.66845,42.25425 -51.87466,62.43812 -4.66551,19.68555 2.36353,40.197 21.08713,61.53436 19.12819,19.96464 38.36599,32.57894 57.71344,37.84286 h -0.009 c 0.21161,0.96975 0.38309,1.8725 0.50908,2.69175 0.54655,3.96255 1.77636,7.78862 2.86951,8.74501 2.7328,2.18626 2.32288,6.55885 -1.22981,12.8442 -3.0061,5.32909 -6.28545,7.10539 -13.6641,7.37875 -5.05568,0.13648 -15.16712,5.0556 -20.35946,9.97471 -4.1773,3.91616 -10.10055,5.33813 -21.22487,5.33813 -0.51994,0 -1.05118,-0.003 -1.59417,-0.009 -2.59621,0 -9.15497,1.50309 -14.7572,3.27936 -17.76331,6.01232 -27.7381,13.52756 -43.17853,32.6573 -22.95567,28.55772 -40.30908,57.93553 -53.69985,91.00267 -20.90607,51.78686 -22.40912,55.7495 -30.74421,88.13336 -4.09923,15.57702 -10.111453,55.74942 -8.88164,59.02894 0.4099,1.09307 -1.093153,9.42819 -3.416033,18.58302 -2.32293,9.155 -6.01221,28.14806 -8.06182,42.22217 -3.27941,21.72586 -4.37248,26.5083 -7.92519,32.79381 -7.65189,13.66402 -12.84422,34.16021 -10.65797,42.63181 0.4099,1.91301 3.00608,5.60235 5.73891,8.19853 4.78244,4.64575 4.78244,4.64575 3.14276,10.93127 -2.32293,9.15503 -0.81985,15.16712 6.28546,25.55187 6.55879,9.56487 8.88167,17.89996 8.88167,31.56409 0,7.92517 1.3664,11.47779 6.695413,17.21667 2.32288,2.4595 4.23586,4.919 4.23586,5.4655 0,3.41609 4.50916,26.78171 6.14884,32.11066 2.32287,7.51527 21.86254,32.79381 31.15413,40.30908 6.42211,5.05577 16.8068,8.4718 39.21592,12.57103 8.60839,1.63977 20.22287,3.8259 25.82509,4.91918 18.04866,3.47908 69.57862,6.69879 97.24533,6.69879 7.1031,0 12.63319,-0.21217 15.62006,-0.6867 3.61754,-0.59466 7.12719,-0.90185 11.07644,-0.90185 6.94045,0 15.23875,0.94856 27.86621,2.95151 6.42211,0.95651 15.30378,2.18626 19.81294,2.73275 4.50907,0.40987 18.30982,3.27935 30.7442,6.14886 12.43433,3.00617 29.65106,6.01216 38.25945,6.96866 18.58322,1.77625 21.72586,2.4595 36.89299,7.78852 8.19852,2.86951 17.35341,4.7824 30.74423,6.28551 10.52135,1.22975 24.73203,2.86951 31.42739,3.82602 6.83206,0.95639 22.40908,1.77624 34.84344,1.77624 21.58915,0 22.81901,-0.13677 30.061,-3.68936 4.09918,-1.9129 15.16716,-6.69542 24.45867,-10.52123 17.49009,-7.10546 20.90609,-9.15495 33.06717,-20.35946 10.79459,-9.97488 15.8503,-19.26639 16.94343,-31.01757 0.81988,-8.88164 0.54654,-9.97477 -3.27936,-16.53353 -2.7328,-4.64575 -6.55887,-8.60834 -11.34128,-11.75118 -8.60831,-5.73885 -27.32815,-13.11735 -36.07316,-14.3473 -3.27936,-0.40981 -6.28552,-1.22972 -6.55871,-1.63956 -0.41001,-0.5465 0.6832,-3.6894 2.04963,-6.96878 2.8694,-6.28551 8.88164,-11.20451 19.26631,-15.44026 2.86939,-1.23003 8.19846,-5.19253 12.02442,-9.01837 6.55865,-6.55894 6.83204,-7.10543 6.83204,-14.48393 0,-7.10545 -3.82596,-17.08016 -9.8382,-25.41531 -1.22975,-1.77624 -0.13648,-4.91909 5.46563,-16.39688 3.82605,-7.78839 8.33512,-18.58318 9.8382,-23.77543 1.63968,-5.32901 5.46564,-16.6703 8.60831,-25.27855 5.32904,-14.48404 5.73897,-16.67029 5.46564,-28.01146 -0.13648,-11.06786 -0.8198,-13.66413 -6.28543,-27.46491 -9.56487,-23.63878 -15.30378,-32.93041 -25.41514,-40.85557 -5.88933,-4.64501 -13.99415,-7.07457 -22.32761,-7.07457 -5.39441,0 -10.8847,1.018 -15.93187,3.11207 -2.64776,1.09026 -4.47441,1.69224 -5.44206,1.69224 -2.42817,0 0.55254,-3.79047 9.54132,-13.17 10.79459,-11.20466 27.46475,-31.42744 43.99825,-53.28998 2.04957,-2.73283 5.05579,-6.5589 6.42219,-8.4718 1.50308,-1.91295 6.28552,-8.06178 10.65791,-13.66413 9.42828,-12.02425 17.49015,-19.40295 28.01138,-25.68838 4.23594,-2.59624 13.39091,-10.65808 20.49614,-17.89999 12.1611,-12.57097 13.11755,-13.80072 14.6206,-21.45258 0.16573,-0.8842 0.3595,-1.85223 0.57213,-2.86223 h 0.0115 l 14.79828,14.52275 6.26344,12.68704 c 2.75597,15.0264 5.23692,25.02688 7.44287,30.00148 2.31571,5.55452 4.9834,8.73056 8.00304,9.52811 0.60954,0.20271 1.24684,0.30398 1.91195,0.30398 8.22602,0 20.70556,-15.49898 37.43864,-46.49693 17.68205,-34.93973 23.93833,-56.4422 18.76879,-64.50742 -1.64799,-2.18669 -4.30697,-3.28004 -7.97692,-3.28004 -2.77137,0 -6.11927,0.62347 -10.04366,1.87046 -7.80162,2.23057 -21.75508,8.81442 -41.86045,19.75154 l -22.17271,-6.73518 h -0.0115 c -0.47513,-2.16163 -1.24217,-4.30034 -2.30109,-6.41618 -0.80336,-1.69845 -1.71164,-3.38799 -2.72486,-5.06863 h -0.0115 c 0.009,-0.0628 0.0201,-0.12587 0.0292,-0.18924 h 0.0115 l -0.5926,-0.7461 h -0.0115 c -5.14726,-8.20773 -12.80649,-16.20337 -22.9768,-23.9869 -8.90667,-6.74155 -17.41282,-10.55529 -25.51847,-11.4412 h -0.0115 c -2.58875,-4.64791 -7.23069,-10.41767 -13.92576,-17.30929 h -0.0115 c 0.006,-0.002 0.0115,-0.006 0.0172,-0.009 h -0.0143 c -0.50096,-0.51561 -1.01341,-1.0375 -1.53734,-1.56567 h -0.0115 c 2.85511,-9.31224 0.81726,-19.4388 -6.11346,-30.37961 -8.41102,-13.02624 -17.87935,-19.66193 -28.40496,-19.9071 l -0.17347,-0.003 c -0.0903,-8.3e-4 -0.18063,-0.001 -0.27095,-0.001 -6.86696,0 -14.48507,2.34111 -22.85437,7.02337 -9.23987,5.43681 -15.69375,11.13037 -19.36158,17.08067 -1.54741,2.58816 -2.56456,5.48236 -3.05141,8.6826 -0.18436,0.27353 -0.46859,3.81191 -0.85294,10.6153 l -64.79624,-33.62966 h -0.009 c 0.32878,-2.53625 0.24256,-5.1531 -0.25862,-7.85056 -1.40445,-6.43151 -4.79967,-11.49774 -10.18568,-15.19872 -4.18158,-2.68151 -8.59489,-4.02225 -13.2399,-4.02225 -1.55165,0 -3.1292,0.14967 -4.73263,0.44884 -4.53568,0.99071 -8.3851,2.94945 -11.5483,5.87622 l -38.54034,-20.00192 h -0.009 c 0.0172,-0.23712 0.0364,-0.47189 0.0545,-0.70413 0.81988,-12.98087 1.63971,-16.53341 3.68928,-18.30966 3.41603,-3.14287 3.14276,-8.47182 -0.81982,-14.3473 -1.77642,-2.59635 -4.09921,-7.51524 -4.91906,-10.93127 -0.81988,-3.27952 -2.73283,-8.06196 -4.23592,-10.52143 -3.55271,-6.14884 -3.27935,-8.33512 1.63977,-15.03045 3.96255,-5.46566 4.0992,-6.01239 2.7328,-12.57103 -0.81985,-3.8259 -2.59621,-9.15503 -4.0992,-12.02437 -0.32142,-0.64277 -0.70333,-1.49729 -1.12255,-2.49408 h -0.009 c 3.81048,-4.46268 6.70963,-8.9368 8.69748,-13.42237 8.41153,-20.37574 4.17636,-42.16723 -12.70557,-65.37447 C 436.51377,89.222355 414.52737,76.296795 389.68111,74.308235 l -0.14508,-0.006 c -0.65682,-0.0201 -1.30937,-0.0318 -1.95762,-0.0318 z"
     id="path4"
     inkscape:connector-curvature="0"
     sodipodi:nodetypes="scccsccccsscccccsccccccccccccscccccsccccccccccscscccsscscccccsccccccccccccscsccccccscsccccccscccscscccscccccccsccscccccccccccsccccccccccccccccccscsccccccscccccccscscccccccccccccccccccccccccccccscccccscccccccscsccccscscccccccscccccccccccscccccccscscccccccccccccsccscccccccccccccccccccccccsccccccccscccccccccccccccccccc" />
</svg>
