<?xml version="1.0" encoding="UTF-8" standalone="no"?>
<svg
   xmlns:dc="http://purl.org/dc/elements/1.1/"
   xmlns:cc="http://creativecommons.org/ns#"
   xmlns:rdf="http://www.w3.org/1999/02/22-rdf-syntax-ns#"
   xmlns:svg="http://www.w3.org/2000/svg"
   xmlns="http://www.w3.org/2000/svg"
   xmlns:sodipodi="http://sodipodi.sourceforge.net/DTD/sodipodi-0.dtd"
   xmlns:inkscape="http://www.inkscape.org/namespaces/inkscape"
   version="1.1"
   width="1847.5198"
   height="1140.0735"
   viewBox="0 0 1847.5198 1140.0735"
   id="svg7"
   sodipodi:docname="alone_sitting_male2.svg"
   inkscape:version="1.0.2 (e86c870879, 2021-01-15)">
  <metadata
     id="metadata13">
    <rdf:RDF>
      <cc:Work
         rdf:about="">
        <dc:format>image/svg+xml</dc:format>
        <dc:type
           rdf:resource="http://purl.org/dc/dcmitype/StillImage" />
        <dc:title></dc:title>
      </cc:Work>
    </rdf:RDF>
  </metadata>
  <defs
     id="defs11" />
  <sodipodi:namedview
     pagecolor="#ffffff"
     bordercolor="#666666"
     borderopacity="1"
     objecttolerance="10"
     gridtolerance="10"
     guidetolerance="10"
     inkscape:pageopacity="0"
     inkscape:pageshadow="2"
     inkscape:window-width="1920"
     inkscape:window-height="997"
     id="namedview9"
     showgrid="false"
     fit-margin-top="0"
     fit-margin-left="0"
     fit-margin-right="0"
     fit-margin-bottom="0"
     inkscape:zoom="0.25104056"
     inkscape:cx="1436.7472"
     inkscape:cy="434.95183"
     inkscape:window-x="0"
     inkscape:window-y="0"
     inkscape:window-maximized="1"
     inkscape:current-layer="svg7"
     inkscape:document-rotation="0" />
  <rect
     style="fill:#ffffff;stroke-width:5.66929;stroke-linecap:square;stroke-linejoin:round;stroke-dasharray:11.3386, 11.3386"
     id="rect832"
     width="1847.5198"
     height="1140.0735"
     x="0"
     y="0" />
  <g
     id="layer1"
     transform="matrix(8.2770757,0,0,8.2770757,-1967.6008,-3904.2925)">
    <g
       style="fill:#000000;fill-opacity:1;stroke-linejoin:miter"
       id="g4">
      <path
         d="m 373.98724,482.68903 c -0.47848,0.22329 -1.00482,0.39871 -1.1643,0.39871 -0.15949,0 -0.44657,0.0957 -0.63794,0.2233 -0.1914,0.11163 -0.92505,0.25516 -1.6268,0.31896 -1.6268,0.1276 -3.0303,0.59012 -4.57737,1.51517 -1.2759,0.74957 -1.48323,0.97287 -0.92503,0.97287 0.60607,0 0.2871,0.68582 -0.52632,1.11643 -0.25518,0.12759 -0.57416,0.47848 -0.71771,0.78149 -0.17542,0.36682 -0.43061,0.59014 -0.73364,0.66986 -0.62201,0.17545 -1.05263,0.59012 -1.05263,1.05264 0,0.57416 -0.622,1.30784 -1.4673,1.69059 -0.73368,0.33493 -0.76554,0.36682 -0.66986,0.86125 0.0957,0.47847 0.0638,0.52632 -0.27114,0.52632 -0.22328,0 -0.51036,0.19138 -0.6858,0.41468 -0.28708,0.3987 -0.28708,0.41467 0.0797,0.79742 0.19136,0.20733 0.49441,0.38278 0.6539,0.38278 0.15948,0 0.28711,0.0638 0.28711,0.1595 0,0.0797 -0.0798,0.1595 -0.17545,0.1595 -0.0797,0 -0.23922,0.20734 -0.319,0.47845 -0.14352,0.39875 -0.2552,0.47845 -0.71768,0.47845 -0.60605,0 -0.63797,0.0479 -0.30304,0.7018 0.14352,0.25518 0.20734,0.57415 0.17545,0.68578 -0.0957,0.23926 1.03667,0.92505 1.80224,1.06862 0.7815,0.1435 2.88675,2.31258 3.18976,3.28545 0.63797,1.97765 1.69061,3.95535 2.56781,4.7847 0.25519,0.23922 0.46253,0.6539 0.52631,1.05265 0.0638,0.38274 0.25519,0.76552 0.47845,0.97286 0.2233,0.17544 0.57416,0.82934 0.81342,1.45134 0.23922,0.60606 0.66986,1.51518 0.9729,2.02553 0.30301,0.51037 0.55818,0.97287 0.55818,1.05267 0,0.0797 -0.27113,0.31897 -0.5901,0.52624 -0.4306,0.28711 -1.06858,0.46253 -2.2807,0.638 -2.59967,0.38276 -4.44977,1.06856 -9.17066,3.44501 -2.99841,1.49915 -4.62518,2.23279 -5.34289,2.37635 -1.13239,0.23925 -1.70655,0.4466 -2.07337,0.7496 -0.22328,0.17544 -0.95694,0.36685 -3.46094,0.941 -0.60604,0.1435 -1.33972,0.319 -1.64274,0.39875 -0.30303,0.0797 -1.91387,0.47845 -3.58852,0.8772 -6.04465,1.43545 -7.67145,2.05735 -8.99521,3.42895 -0.78149,0.82935 -1.24402,1.6907 -1.7225,3.25366 l -0.28705,0.95694 -0.79745,0.1754 c -1.35569,0.3031 -2.32857,0.8772 -3.50877,2.0574 -1.37164,1.3876 -2.0415,2.26473 -4.46572,5.83736 -2.37638,3.4928 -2.79105,4.09888 -4.99204,7.2887 -2.48804,3.5885 -3.31738,5.27904 -3.85961,7.89464 l -0.17548,0.92506 -2.69537,1.91394 c -1.46728,1.0526 -2.75916,2.0255 -2.87078,2.1531 -0.1595,0.1914 -0.0319,0.52635 0.68578,1.78623 1.37162,2.44017 1.86602,3.47693 1.86602,3.95537 0,0.941 -4.5614,9.34615 -6.44335,11.882 -1.91388,2.5518 -2.6316,3.11 -2.80705,2.1531 -0.1276,-0.7018 -0.60604,-0.62206 -1.19616,0.1914 -0.38278,0.5104 -0.59012,0.6698 -1.03668,0.7177 -0.49442,0.0478 -0.5582,0.0957 -0.51036,0.4625 0.0319,0.2711 -0.0798,0.52636 -0.319,0.7496 -0.6858,0.622 -1.88197,1.4673 -2.0893,1.4673 -0.11164,0 -0.27113,0.0639 -0.35087,0.14357 -0.0957,0.0797 -0.73367,0.44653 -1.41947,0.81333 -1.22808,0.65395 -1.29186,0.66994 -2.31259,0.57424 -1.54707,-0.15954 -9.56937,-0.12764 -10.22329,0.0319 -0.60605,0.14356 -2.90271,-0.0159 -3.82776,-0.2711 -2.85486,-0.7975 -3.20575,-0.8612 -3.5885,-0.6858 -0.20734,0.0957 -0.73365,0.73364 -1.14832,1.40343 -1.1005,1.77037 -1.1643,1.81827 -2.2488,1.81827 -0.97288,0 -4.67307,-0.5264 -4.96012,-0.7018 -0.0957,-0.0638 -0.17548,-0.3987 -0.17548,-0.7496 0,-0.3509 -0.0797,-0.78154 -0.15948,-0.94096 -0.20734,-0.38284 -1.11642,-0.63794 -1.81818,-0.52634 -1.06857,0.17545 -3.44498,-1.3716 -4.992,-3.23764 -2.07338,-2.48806 -3.71613,-5.15156 -4.06701,-6.58691 -0.0957,-0.39875 -0.22328,-2.13715 -0.27113,-3.84369 -0.11163,-2.93466 -0.1276,-3.1579 -0.54227,-3.98726 -0.57415,-1.1802 -1.27591,-1.6746 -2.2169,-1.5152 -0.38277,0.0639 -0.94099,0.319 -1.25996,0.57424 -0.62201,0.49436 -0.7815,0.78146 -1.72249,3.07812 -0.38277,0.94098 -1.43541,4.81659 -1.61086,5.91714 -0.46251,3.0621 -0.55819,4.2902 -0.54225,7.49595 0,3.54065 0.14354,4.92822 1.03668,10.04785 0.68581,3.8596 1.35567,5.7416 2.26476,6.3158 0.47845,0.303 0.73364,0.31896 4.41785,0.2551 3.52474,-0.0478 4.0032,-0.0956 4.94418,-0.41465 1.30783,-0.44655 1.65869,-0.68579 2.13718,-1.41945 0.59011,-0.9569 1.59488,-1.18016 5.16745,-1.2121 2.08933,-0.0159 2.93463,0.0319 3.07815,0.17543 0.15948,0.15947 0.15948,0.51037 -0.016,1.72247 -0.14352,1.0846 -0.15948,1.579 -0.0319,1.70655 0.0957,0.0957 0.98886,0.27112 1.97769,0.39875 2.15308,0.2712 14.83252,0.30303 23.89154,0.0478 12.13715,-0.35089 15.7416,-0.47844 16.58692,-0.65384 0.47845,-0.0957 1.59491,-0.22335 2.47208,-0.28714 0.9729,-0.0797 1.94576,-0.25516 2.504,-0.46252 1.13237,-0.43064 1.06856,-0.43064 4.09887,0.0479 2.26477,0.3508 3.14196,0.3987 9.82458,0.4944 12.07337,0.17545 27.54382,0.1595 36.36362,-0.0638 7.46411,-0.1754 8.53268,-0.2392 10.71768,-0.5901 1.51517,-0.2552 2.79108,-0.5582 3.42905,-0.82934 1.06857,-0.46252 2.47207,-1.33972 3.1898,-2.00956 0.5263,-0.4944 1.61083,-2.1531 2.42424,-3.7321 0.60606,-1.1483 0.60606,-1.1483 1.45136,-1.3237 0.66986,-0.14356 0.97287,-0.319 1.4035,-0.7815 0.63794,-0.7018 1.94577,-2.88684 2.51993,-4.1627 0.39871,-0.9251 1.16427,-2.4562 3.09407,-6.1404 0.65394,-1.228 1.3238,-2.5996 1.4833,-3.0303 0.17544,-0.4465 0.82934,-1.8341 1.43538,-3.11 0.60608,-1.27596 1.32376,-2.7751 1.59492,-3.3493 0.25518,-0.5741 1.06857,-2.2488 1.77032,-3.7321 0.71771,-1.46727 1.29188,-2.7113 1.29188,-2.7273 0,-0.0478 0.73363,-1.6427 2.23284,-4.78465 1.22806,-2.6156 2.55186,-5.66185 2.55186,-5.90112 0,-0.22327 0.4306,-0.44653 0.54225,-0.27113 0.0319,0.0639 0.39872,1.2281 0.81339,2.58375 0.6539,2.18505 2.07336,6.37965 2.95056,8.6922 0.47845,1.29185 1.3716,3.85968 1.96173,5.69379 0.31897,0.92506 0.92502,2.64752 1.35565,3.82776 2.21689,5.8851 3.9075,10.44653 4.49759,12.16907 2.66348,7.62353 2.83893,8.08603 3.4769,9.25036 0.71768,1.32373 1.51513,2.36047 2.16903,2.87087 0.9091,0.6858 3.06223,1.0366 6.52314,1.0366 2.26476,0 3.23764,0.0798 4.41788,0.319 2.04144,0.41465 4.68898,0.5901 5.02392,0.31894 0.36682,-0.30298 0.28708,-0.87714 -0.1914,-1.45129 l -0.43061,-0.51035 1.25995,0.1116 c 0.70175,0.0638 1.88199,0.28705 2.63159,0.47846 2.36045,0.63794 3.14193,0.78149 3.90751,0.68579 1.14832,-0.12755 2.08929,-0.94092 1.73842,-1.49915 -0.20733,-0.33496 -1.7225,-1.13244 -3.49282,-1.83416 -3.50878,-1.37164 -3.58853,-1.40351 -6.14035,-1.64274 -1.35565,-0.1436 -3.11005,-0.36684 -3.9075,-0.4944 -0.7815,-0.14356 -2.36043,-0.30305 -3.50876,-0.3828 -2.90271,-0.17544 -3.63637,-0.3828 -4.2265,-1.1164 -0.6539,-0.8134 -1.78627,-4.27437 -2.36044,-7.1771 -0.19138,-0.9569 -0.41468,-3.50877 -0.6539,-7.7352 -0.30303,-5.0718 -1.4354,-10.319 -3.44498,-15.8533 -2.00955,-5.59806 -2.55182,-8.118 -2.82297,-13.20567 l -0.19138,-3.36523 0.59012,-0.65393 c 0.31898,-0.36682 0.59008,-0.70177 0.59008,-0.78147 0,-0.0639 -0.1435,-0.66995 -0.31896,-1.3716 -0.15948,-0.68586 -0.35086,-1.8342 -0.39871,-2.5519 -0.23926,-3.11003 -1.32376,-8.91545 -2.15311,-11.4035 -0.9729,-2.9665 -2.44022,-5.62994 -3.47689,-6.36364 -0.23923,-0.19136 -1.45136,-0.70172 -2.67943,-1.14831 -2.6475,-0.9729 -3.3971,-1.25995 -10.19136,-3.98725 -5.15152,-2.07336 -5.27912,-2.1372 -6.22014,-3.0303 -0.9569,-0.9091 -1.7703,-1.4354 -2.21688,-1.4354 -0.43062,0 -1.35568,-0.9729 -2.04147,-2.10528 -0.62201,-1.06857 -0.63795,-1.11642 -0.44655,-1.72247 0.12758,-0.39872 0.17543,-1.06858 0.11162,-1.94578 -0.0478,-0.86127 0,-1.73843 0.15952,-2.48803 0.28706,-1.43544 0.22326,-3.89154 -0.11167,-4.57736 -0.12759,-0.25518 -0.47847,-0.62201 -0.7496,-0.79746 -0.28707,-0.17542 -0.51037,-0.41467 -0.52631,-0.54227 -0.016,-0.6539 -1.97766,-6.25198 -2.63159,-7.51193 -0.41467,-0.78149 -2.32855,-2.87085 -3.03027,-3.28552 -0.39874,-0.22327 -0.90912,-0.38275 -1.29187,-0.38275 -0.68583,0 -1.33973,-0.35089 -1.33973,-0.73365 0,-0.3509 -0.43063,-0.4466 -0.7177,-0.15948 -0.44657,0.44653 -0.9729,0.31898 -1.4673,-0.36685 -0.622,-0.87717 -0.9091,-1.00479 -2.2807,-1.06857 -0.98885,-0.0319 -1.35567,0.0159 -2.07336,0.33493 z m -18.14996,49.76077 c 0.41467,0.3987 0.8772,0.7177 1.0686,0.7177 0.19142,0 0.7815,-0.17543 1.32376,-0.3987 0.73368,-0.3031 1.27591,-0.3988 2.15311,-0.3988 1.02075,0 1.29187,0.0638 2.21692,0.5582 0.57416,0.3031 1.24403,0.55825 1.49921,0.55825 0.63794,0 0.76552,0.25525 0.95692,1.8501 0.0798,0.78149 0.27113,1.99365 0.39873,2.67945 0.12759,0.6858 0.35089,2.26476 0.47845,3.5088 0.14356,1.244 0.38279,2.8229 0.55822,3.5087 0.41468,1.6587 0.41468,1.8501 -0.17543,4.0511 -0.41467,1.547 -0.51035,2.18493 -0.51035,3.70007 -0.016,1.00483 0.0638,2.18503 0.15948,2.63159 0.41468,1.81824 0.41468,2.23294 -0.0319,2.77514 -0.23922,0.2711 -0.47845,0.4944 -0.55818,0.4944 -0.0798,0 -0.33494,-0.2073 -0.5742,-0.4784 -0.25516,-0.25525 -0.63794,-0.5423 -0.87717,-0.65393 -0.23923,-0.0957 -0.47848,-0.33497 -0.52633,-0.52637 -0.12757,-0.54224 -1.3716,-1.86597 -1.97767,-2.1212 -0.31897,-0.1276 -0.59008,-0.3827 -0.68579,-0.6539 -0.0798,-0.2392 -0.35089,-0.57414 -0.59012,-0.74956 -0.25518,-0.17547 -1.30782,-1.24404 -2.36044,-2.37644 -2.02551,-2.20095 -2.44018,-2.6156 -5.50238,-5.61404 -2.4721,-2.40826 -3.74802,-3.52466 -7.59174,-6.66662 -1.69058,-1.37159 -3.07812,-2.6156 -3.07812,-2.74329 0,-0.14349 0.12756,-0.44655 0.30304,-0.6698 0.15948,-0.23925 0.44652,-0.73365 0.63794,-1.10045 0.51038,-1.02076 0.81341,-1.1005 4.16266,-1.2122 2.95056,-0.1116 6.01275,-0.5582 7.57577,-1.1164 0.35085,-0.1276 0.68582,-0.2392 0.73368,-0.25515 0.0478,0 0.41467,0.30295 0.81335,0.70175 z m -23.95532,24.5136 c 0,0.11155 -0.14356,1.6427 -0.31896,3.3971 -0.17546,1.75437 -0.31898,4.2105 -0.31898,5.4545 0,2.07337 0.0319,2.2807 0.30301,2.44025 0.36685,0.19135 0.92505,0.0159 1.32377,-0.41465 0.2711,-0.3031 0.76555,-3.0144 1.32378,-7.16116 0.41467,-3.12597 0.87717,-4.30624 1.45136,-3.71604 0.20733,0.20725 0.20733,0.5741 0.0638,2.77506 -0.0957,1.38754 -0.23926,3.1579 -0.31897,3.90754 -0.30305,2.6315 -0.14355,3.1738 0.89312,3.1738 0.95693,0 1.49921,-1.1802 1.96173,-4.29026 0.11164,-0.65394 0.22327,-1.22809 0.27112,-1.27594 0.1276,-0.1276 0.35088,0.20734 2.10528,3.1739 2.74323,4.6251 5.0558,7.9745 7.2727,10.51037 0.49446,0.57409 0.8772,1.11639 0.84532,1.19616 -0.0638,0.20727 -0.89316,0.31897 -4.01912,0.55817 -1.2281,0.0957 -3.52473,0.28705 -5.1037,0.4147 -10.66984,0.84525 -13.60444,1.0207 -14.2424,0.84525 -0.33494,-0.0957 -1.21214,-0.11155 -2.10527,-0.0478 -1.78631,0.1117 -1.96173,0.1117 -4.86443,0 -3.5885,-0.1594 -3.8118,-0.1594 -4.25837,-0.0159 -0.65393,0.19143 -0.57416,-0.11164 0.44657,-1.75434 1.25997,-1.97773 1.78628,-2.61563 2.20095,-2.61563 0.39871,0 5.02393,-4.0351 5.29505,-4.6412 0.0957,-0.2073 0.23925,-0.6061 0.33492,-0.8612 0.17545,-0.55824 5.03988,-6.85804 5.39075,-7.0016 0.20733,-0.0798 0.2233,0.0319 0.1276,0.7496 -0.19141,1.2759 -0.14357,3.8118 0.0797,4.2105 0.2552,0.4625 0.8772,0.4785 1.30784,0.0478 0.3349,-0.33494 0.3349,-0.33494 0.71771,-2.55184 0.14353,-0.8293 0.39868,-2.1212 0.57415,-2.87077 0.17542,-0.74963 0.39872,-1.72253 0.4944,-2.15313 0.11166,-0.4466 0.23925,-0.8613 0.319,-0.957 0.0638,-0.0797 0.1276,-0.2711 0.1276,-0.4306 0,-0.15946 0.0797,-0.287 0.15947,-0.287 0.0957,0 0.15949,0.0957 0.15949,0.1914 z m -32.36046,22.34446 c -0.12758,0.12754 -0.17543,0.11157 -0.17543,-0.0639 0,-0.31895 0.20733,-0.5422 0.28711,-0.30296 0.0478,0.11156 -0.016,0.27112 -0.11168,0.36682 z"
         id="path2"
         inkscape:connector-curvature="0" />
    </g>
  </g>
</svg>
