<?xml version="1.0" encoding="UTF-8" standalone="no"?>
<svg
   xmlns:dc="http://purl.org/dc/elements/1.1/"
   xmlns:cc="http://creativecommons.org/ns#"
   xmlns:rdf="http://www.w3.org/1999/02/22-rdf-syntax-ns#"
   xmlns:svg="http://www.w3.org/2000/svg"
   xmlns="http://www.w3.org/2000/svg"
   xmlns:sodipodi="http://sodipodi.sourceforge.net/DTD/sodipodi-0.dtd"
   xmlns:inkscape="http://www.inkscape.org/namespaces/inkscape"
   width="675.63727mm"
   height="757.49194mm"
   viewBox="0 0 675.63729 757.49194"
   version="1.1"
   id="svg905"
   inkscape:version="1.0.2 (e86c870879, 2021-01-15)"
   sodipodi:docname="alone_sitting_male4.svg">
  <defs
     id="defs899" />
  <sodipodi:namedview
     id="base"
     pagecolor="#ffffff"
     bordercolor="#666666"
     borderopacity="1.0"
     inkscape:pageopacity="0.0"
     inkscape:pageshadow="2"
     inkscape:zoom="0.250944"
     inkscape:cx="1042.5612"
     inkscape:cy="1387.608"
     inkscape:document-units="mm"
     inkscape:current-layer="layer1"
     showgrid="false"
     fit-margin-top="0"
     fit-margin-left="0"
     fit-margin-right="0"
     fit-margin-bottom="0"
     inkscape:window-width="1920"
     inkscape:window-height="997"
     inkscape:window-x="0"
     inkscape:window-y="0"
     inkscape:window-maximized="1"
     inkscape:document-rotation="0" />
  <metadata
     id="metadata902">
    <rdf:RDF>
      <cc:Work
         rdf:about="">
        <dc:format>image/svg+xml</dc:format>
        <dc:type
           rdf:resource="http://purl.org/dc/dcmitype/StillImage" />
        <dc:title></dc:title>
      </cc:Work>
    </rdf:RDF>
  </metadata>
  <g
     inkscape:label="Ebene 1"
     inkscape:groupmode="layer"
     id="layer1"
     transform="translate(89.144234,248.32634)">
    <rect
       style="fill:#ffffff;stroke-width:1.5;stroke-linecap:square;stroke-linejoin:round;stroke-dasharray:3, 3"
       id="rect831"
       width="675.63727"
       height="757.49194"
       x="-89.144234"
       y="-248.32634" />
    <path
       style="fill:#000000;stroke-width:0.39377"
       d="m 13.584183,488.00801 c -9.9681438,-0.56862 -21.3376734,-3.40543 -24.57892,-6.13279 -2.497584,-2.10154 -1.575467,-9.27356 1.8728367,-14.56649 2.0324534,-3.11972 2.5031633,-3.48363 6.8014034,-5.25856 2.03385015,-0.83981 5.2926308,-2.25926 7.2417871,-3.1543 1.9491612,-0.89506 3.8983175,-1.78955 4.3314487,-1.98777 0.4329894,-0.19825 1.9832491,-0.88901 3.4446281,-1.53504 1.46138,-0.646 3.410536,-1.71029 4.331447,-2.36509 0.920907,-0.65476 2.440143,-1.35892 3.376074,-1.56466 2.278531,-0.5009 3.085541,-1.3232 3.407842,-3.47253 0.392065,-2.61306 0.471965,-2.72479 2.495862,-3.47984 1.014809,-0.37858 2.110866,-0.91618 2.435725,-1.19448 0.325091,-0.27869 1.055735,-0.62214 1.624112,-0.76392 0.971326,-0.24225 1.919812,-1.57924 1.919812,-2.70606 0,-0.27679 0.664509,-0.85182 1.476635,-1.27846 0.906445,-0.47608 1.52519,-1.11085 1.602392,-1.64378 0.07767,-0.53698 0.782642,-1.25307 1.847865,-1.87733 1.203398,-0.70524 1.856,-1.41499 2.166676,-2.35636 0.383226,-1.16143 0.723992,-1.43012 2.471584,-1.94907 1.152053,-0.34227 2.626922,-1.17002 3.417142,-1.91813 0.764689,-0.72388 2.187698,-1.62369 3.162278,-1.99953 2.355639,-0.90838 2.756352,-1.28949 2.756352,-2.62109 0,-1.22404 0.952396,-2.03874 2.91904,-2.49713 0.630885,-0.1471 1.959854,-1.09839 2.95327,-2.11416 0.993415,-1.01573 2.62548,-2.59451 3.626895,-3.50837 1.254048,-1.14454 1.965576,-2.18608 2.286482,-3.34705 0.256253,-0.92697 0.551028,-1.88268 0.655207,-2.12369 0.110218,-0.25575 -0.392994,-0.53284 -1.208142,-0.66508 -0.768641,-0.12467 -2.85737,-0.92522 -4.641656,-1.77877 -1.784242,-0.85357 -4.717467,-2.04933 -6.518263,-2.65729 -1.912463,-0.64561 -3.433468,-1.40289 -3.657123,-1.82076 -0.26417,-0.49338 -0.19486,-1.34841 0.22232,-2.75412 0.333,-1.12127 0.605446,-2.65326 0.605446,-3.40449 0,-0.75126 0.276706,-2.73077 0.614604,-4.39902 0.338114,-1.66822 0.559492,-3.90084 0.492196,-4.96142 l -0.122314,-1.92827 -9.056679,-0.0417 c -9.580312,-0.0417 -11.168333,-0.24885 -18.704053,-2.41806 -1.840888,-0.52993 -4.498833,-1.10139 -5.906541,-1.26996 -1.407709,-0.1684 -3.94836,-0.67849 -5.645813,-1.13321 -2.729798,-0.73125 -3.5484834,-0.7852 -7.0878476,-0.46698 -6.8504216,0.61587 -18.0242004,1.22325 -21.5242654,1.16994 -1.840888,-0.0284 -5.004467,-0.3158 -7.030225,-0.63906 -2.025757,-0.32323 -4.029375,-0.49759 -4.452461,-0.38695 -1.215538,0.31812 -9.845039,-1.2962 -11.22954,-2.10039 -0.688506,-0.39996 -2.101611,-0.81567 -3.140185,-0.92385 -1.03862,-0.10834 -1.953017,-0.39066 -2.031989,-0.6275 -0.343229,-1.02962 -1.410592,-1.59794 -3.001498,-1.59794 -1.094525,0 -2.04385,-0.27773 -2.691941,-0.7875 -0.550657,-0.43298 -1.469333,-0.78751 -2.041521,-0.78751 -1.204378,0 -3.081262,-0.89196 -4.673748,-2.22113 -0.612188,-0.51098 -1.610718,-0.92906 -2.218906,-0.92906 -0.745016,0 -1.316273,-0.32139 -1.750848,-0.98439 -0.408807,-0.62382 -1.012621,-0.98445 -1.648574,-0.98445 -0.730783,0 -1.925672,-0.90974 -4.396094,-3.34706 -1.865908,-1.84082 -3.532947,-3.34699 -3.704561,-3.34699 -0.62042,0 -1.975203,-3.29704 -2.183281,-5.31324 -0.266966,-2.58701 0.464616,-6.90138 1.529466,-9.01905 2.064266,-4.10505 4.288706,-7.19421 5.786875,-8.03623 0.84538,-0.47516 1.886884,-0.86391 2.31448,-0.86391 0.42741,0 1.466636,-0.46986 2.308992,-1.04416 3.304128,-2.25258 5.242309,-2.88612 8.816324,-2.88171 1.840885,0.003 4.498827,0.19856 5.906539,0.4362 3.13042,0.52844 13.334407,0.74523 13.616199,0.28938 0.382299,-0.61858 5.748133,-3.91763 8.917386,-5.48267 1.738848,-0.85864 4.029515,-2.19834 5.09046,-2.97712 1.758661,-1.291 1.908837,-1.52539 1.701132,-2.6548 -0.216727,-1.17749 -0.07581,-1.34744 2.844671,-3.43531 1.689875,-1.2081 3.371566,-2.30584 3.737075,-2.4393 0.365553,-0.13358 0.848818,-0.9099 1.073964,-1.72538 0.456246,-1.65156 0.216256,-2.19768 -2.105795,-4.79519 -2.157144,-2.41303 -2.325131,-2.9649 -1.613742,-5.30048 0.419967,-1.37889 1.034247,-2.37257 1.875815,-3.03466 1.177028,-0.92589 1.603461,-0.99611 7.1754685,-1.18132 l 5.92412031,-0.19668 0.12231049,-1.47663 c 0.1046491,-1.26599 0.25813665,-1.47666 1.075361,-1.47666 0.6600925,0 1.02146,0.27272 1.1753566,0.88598 0.2167272,0.8639 0.354392,0.88599 5.5200092,0.88599 2.9137869,0 5.2979339,-0.12411 5.2980729,-0.27618 3.71e-4,-0.44649 3.259293,-2.54065 4.331679,-2.78333 0.54145,-0.12223 1.751498,-0.50698 2.688963,-0.85441 1.600998,-0.59331 4.37735,-0.95812 7.556325,-0.99281 1.284694,-0.0125 1.533746,-0.23721 3.425142,-3.06683 2.025897,-3.0311 2.039382,-3.0717 1.991106,-6.005 -0.08511,-5.16703 0.388809,-7.49369 1.802286,-8.85083 2.586646,-2.4836 4.953168,-6.45228 4.972375,-8.33889 0.01854,-1.61368 -1.857118,-6.35441 -3.144417,-7.95633 -1.269534,-1.57968 -1.288649,-1.66235 -1.079641,-4.67093 0.117191,-1.68452 0.600933,-4.12596 1.075315,-5.42538 0.474385,-1.29946 1.287113,-4.31178 1.8061,-6.69408 0.518937,-2.38228 1.192794,-5.04022 1.497422,-5.90654 0.304637,-0.86631 1.047132,-2.99265 1.649879,-4.72524 2.126214,-6.11176 4.619798,-11.26896 6.269488,-12.96633 2.405403,-2.47503 5.142549,-6.26833 6.343065,-8.79083 1.170707,-2.45978 7.251323,-11.88275 8.148283,-12.62716 0.392064,-0.32556 0.55777,-1.41856 0.568374,-3.74856 0.0094,-1.91642 0.227881,-3.6843 0.525497,-4.23555 0.457641,-0.84846 1.819494,-6.75893 2.751005,-11.94006 0.191623,-1.06545 0.605304,-2.48301 0.919467,-3.15019 0.314394,-0.66708 0.687948,-1.84397 0.830635,-2.61534 0.24092,-1.30322 0.153016,-1.47313 -1.247162,-2.40423 -0.82854,-0.55103 -2.370797,-1.49115 -3.427139,-2.08918 l -1.920647,-1.08731 0.20881,-2.59853 c 0.181382,-2.25751 0.355788,-2.71635 1.329997,-3.49598 0.616744,-0.49353 1.375712,-0.89821 1.686617,-0.89928 0.311141,0 0.958953,-0.37162 1.44008,-0.8238 l 0.874818,-0.82185 -1.151958,-3.40782 c -1.944463,-5.75248 -2.249883,-7.94022 -1.662485,-11.90807 0.280917,-1.89651 0.890911,-4.48241 1.355902,-5.74646 1.065503,-2.89657 4.310099,-9.5558 5.916212,-12.14254 1.116244,-1.79773 1.203026,-2.17421 0.998485,-4.33144 -0.12325,-1.29944 -0.440433,-3.29292 -0.705483,-4.42991 l -0.481359,-2.06729 -2.196536,-0.005 c -1.208096,-0.004 -2.616551,-0.11766 -3.129907,-0.25534 -0.882681,-0.23627 -0.919469,-0.36974 -0.678369,-2.45572 0.170699,-1.47664 0.689764,-2.92179 1.570304,-4.37159 2.330479,-3.83706 2.368334,-3.94752 1.548115,-4.52203 -0.399968,-0.27998 -1.591138,-1.76257 -2.647384,-3.29441 -1.708849,-2.478516 -1.897256,-2.957363 -1.710618,-4.348934 0.298574,-2.226394 -0.640465,-2.467075 -1.679504,-0.430669 -0.436245,0.854729 -1.278787,1.805356 -1.872743,2.112497 -0.593958,0.306964 -1.422129,0.936626 -1.840422,1.398776 -0.41811,0.46229 -1.714152,1.386 -2.879787,2.05287 -2.05929,1.1782 -2.232766,1.20792 -6.129499,1.04839 -3.605036,-0.14741 -4.318751,-0.30881 -7.063105,-1.59365 -3.870645,-1.81251 -6.435663,-4.383206 -8.447607,-8.466301 -1.443708,-2.930016 -1.492495,-3.164739 -1.45045,-6.980972 0.0372,-3.478346 0.19951,-4.347908 1.350598,-7.296016 0.718877,-1.840886 2.028266,-4.348423 2.909736,-5.57224 1.662902,-2.308806 5.593307,-5.323556 8.099913,-6.212887 0.850309,-0.301841 5.335232,-0.6167 11.708993,-0.822405 5.681905,-0.183235 10.506199,-0.441825 10.720601,-0.574329 0.214404,-0.132551 4.868382,-0.401367 10.342117,-0.596978 42.967462,-1.537189 48.386372,-1.916742 58.976512,-4.130951 2.49061,-0.520706 6.21173,-1.218561 8.26916,-1.550722 5.93603,-0.958349 9.56902,-1.683364 10.63177,-2.121659 0.54143,-0.223231 2.93358,-0.703063 5.31588,-1.066105 3.85512,-0.587489 10.07424,-1.835772 14.56946,-2.924296 0.8663,-0.209753 3.79004,-0.828076 6.4972,-1.374036 2.70716,-0.545961 6.47613,-1.427664 8.37543,-1.959296 1.89935,-0.531684 5.13885,-1.253768 7.19897,-1.60472 2.06009,-0.351135 4.84742,-0.990115 6.19403,-1.420358 1.34661,-0.430203 3.68876,-0.953186 5.20476,-1.16201 1.51602,-0.20881 4.66125,-0.845843 6.98942,-1.415615 3.29654,-0.806776 4.23301,-1.182703 4.23301,-1.699361 0,-0.857334 -1.18993,-4.880754 -1.51952,-5.137806 -0.13885,-0.108359 -0.69543,-1.063595 -1.23686,-2.122868 -1.09031,-2.132956 -4.53666,-6.146193 -5.27816,-6.146193 -0.64024,0 -2.766,-2.281786 -3.48494,-3.740795 -1.2277,-2.491397 -1.6523,-6.229864 -1.14248,-10.059162 0.46854,-3.519133 0.45787,-3.626615 -0.7499,-7.5403699 -0.67386,-2.1836999 -1.72617,-4.9646549 -2.33848,-6.179823 -0.73465,-1.4580789 -1.20466,-3.1467437 -1.38205,-4.9658175 -0.14785,-1.5160284 -0.69811,-5.5029415 -1.22281,-8.8597946 l -0.95403,-6.103556 -1.66624,-1.457751 c -0.91652,-0.801853 -2.55231,-1.939587 -3.63518,-2.528366 -2.76899,-1.505555 -6.72743,-5.602701 -7.91122,-8.188487 -0.53903,-1.177409 -1.78374,-3.339239 -2.76604,-4.804063 -1.55058,-2.312323 -1.75329,-2.848002 -1.53833,-4.064791 0.4075,-2.306585 0.58636,-2.680574 1.59917,-3.344187 1.14174,-0.748095 1.23321,-1.264051 0.27998,-1.578823 -0.37899,-0.125164 -1.55342,-1.039334 -2.60982,-2.031505 l -1.92073,-1.803952 0.20013,-2.796618 c 0.20687,-2.89167 0.31839,-3.083405 2.81163,-4.833268 0.70993,-0.49823 0.68394,-0.574861 -0.54573,-1.609561 -2.23172,-1.87788 -3.02213,-5.208181 -1.7979,-7.5755 0.84471,-1.633555 3.09872,-3.194041 4.62371,-3.201082 2.36344,-0.0099 2.37014,-0.07685 0.70072,-6.893121 -0.84756,-3.46066 -1.65698,-7.08949 -1.79874,-8.064082 -0.14175,-0.974576 -0.47816,-2.214946 -0.74754,-2.756381 -0.51631,-1.037669 -2.7044,-10.37126 -3.13861,-13.388159 -0.14027,-0.974576 -0.44262,-2.258581 -0.67197,-2.853341 -0.37332,-0.96841 -0.26798,-1.24621 1.00844,-2.65907 0.95517,-1.05723 1.42537,-1.95857 1.42537,-2.73224 0,-1.92107 0.66717,-3.07966 2.56757,-4.45879 1.73097,-1.25615 5.12196,-2.57689 5.54081,-2.15805 0.10933,0.10933 0.30323,1.44489 0.43094,2.96792 0.12765,1.52302 0.34658,2.95424 0.48634,3.18045 0.13984,0.22622 1.66588,0.52828 3.39123,0.67123 2.93858,0.24347 3.28643,0.18702 5.49961,-0.89326 1.29944,-0.63427 4.13458,-2.22462 6.30031,-3.53414 4.06291,-2.45665 12.6317,-6.58855 17.12897,-8.25967 1.40772,-0.5231 3.09109,-1.20914 3.7408,-1.52456 0.64973,-0.31541 3.13047,-1.30892 5.51278,-2.2078 10.84259,-4.09106 17.54081,-6.75727 20.08222,-7.99369 1.51603,-0.73754 6.03452,-2.70387 10.04112,-4.36962 4.00661,-1.66574 8.34792,-3.56158 9.64736,-4.21296 1.29944,-0.65137 3.24859,-1.52964 4.33149,-1.95169 1.08285,-0.42207 3.20921,-1.36123 4.72524,-2.08706 2.91304,-1.39474 12.60873,-5.32614 13.13534,-5.32614 0.53369,0 3.88884,6.81151 4.17012,8.46606 0.27765,1.63405 5.20412,13.14977 6.64508,15.53356 0.62843,1.03957 5.82673,12.03534 7.23393,15.30151 0.1316,0.30543 0.48141,0.40262 0.86009,0.2389 1.67648,-0.72479 7.22113,-1.72041 9.62778,-1.72879 1.91968,-0.007 3.38459,0.26125 5.11902,0.93631 1.33642,0.52012 3.05797,1.05293 3.82572,1.18402 1.62807,0.278 6.00397,2.09303 7.54889,3.13121 0.58818,0.39526 2.18643,0.85718 3.55154,1.02647 1.36512,0.16929 3.18489,0.68447 4.0437,1.14481 0.85892,0.46033 1.81769,0.83696 2.13064,0.83696 1.03033,0 4.30089,2.53279 5.08479,3.937699 0.42275,0.758005 1.24795,2.96464 1.83343,4.903634 1.15164,3.813689 3.07089,8.276596 7.32691,17.037223 1.49617,3.079678 2.72026,5.893908 2.72026,6.253831 0,0.359923 0.3609,1.238309 0.80199,1.951971 l 0.80194,1.29756 0.87157,-0.79933 c 0.47935,-0.439639 3.2637,-2.644724 6.18744,-4.900154 3.80353,-2.934133 6.62858,-4.743065 9.92992,-6.358282 2.53772,-1.241624 4.6198,-2.358019 4.62678,-2.480906 0.01,-0.122855 -0.92125,-0.517837 -2.06284,-0.877694 -2.77932,-0.876111 -5.23095,-3.373853 -5.50674,-5.610386 -0.10785,-0.875863 -0.54694,-2.293441 -0.97539,-3.150142 -0.42832,-0.856718 -2.21065,-4.392805 -3.96048,-7.857984 -3.00909,-5.95891 -5.59517,-12.78164 -5.59517,-14.76138 0,-1.26321 -0.86524,-4.08291 -1.35902,-4.42883 -0.22696,-0.15914 -0.88058,-0.29205 -1.45217,-0.29535 -0.57158,-0.003 -1.45756,-0.34523 -1.96883,-0.75984 -0.84723,-0.68703 -0.93109,-1.06212 -0.94588,-4.23302 -0.0132,-2.94862 -0.18836,-3.86955 -1.14369,-6.03872 -0.77771,-1.76559 -1.18595,-3.44941 -1.31622,-5.42866 -0.15304,-2.32386 -0.33486,-2.94725 -0.95636,-3.27997 -0.59031,-0.31592 -0.94243,-0.25253 -1.52477,0.27444 -1.02851,0.93077 -1.39612,0.41896 -0.82789,-1.15254 0.64051,-1.77129 0.66238,-1.71804 -1.06913,-2.60139 -1.18092,-0.60247 -1.69856,-1.20419 -2.22759,-2.58938 -0.47434,-1.24209 -1.06876,-1.99993 -1.90707,-2.43144 -0.66982,-0.34481 -1.97265,-1.24366 -2.89513,-1.99746 -0.9225,-0.75382 -2.23459,-1.48455 -2.9157,-1.62386 -0.68111,-0.13935 -1.36971,-0.51528 -1.53013,-0.83548 -0.73975,-1.47655 -1.26045,-6.81123 -1.44109,-14.76489 -0.17811,-7.84712 -0.11675,-9.0407 0.64958,-12.57677 1.18224,-5.45668 3.83194,-10.58337 7.903,-15.2906 1.72531,-1.99494 3.50731,-4.40794 3.96003,-5.36222 1.26901,-2.67503 4.60491,-6.20597 7.68519,-8.13462 1.53422,-0.9606 2.96723,-1.74654 3.18451,-1.74654 0.2172,0 1.43092,-0.75307 2.69697,-1.67351 3.6594,-2.66047 7.27336,-4.90371 9.98192,-6.19593 1.37956,-0.65816 3.00661,-1.61601 3.61572,-2.12855 1.7441,-1.46753 6.98274,-3.47323 9.62677,-3.68574 1.29944,-0.10439 3.05531,0.002 3.90195,0.23528 1.39083,0.38417 1.77674,0.30708 3.99942,-0.79913 2.43958,-1.21415 2.47354,-1.21895 4.07984,-0.57623 2.23527,0.89438 2.98987,0.8176 4.13843,-0.42103 l 0.99133,-1.06917 2.5347,0.67539 c 1.39408,0.37146 3.92314,0.67974 5.62018,0.68503 4.16179,0.0132 5.91431,0.47574 10.67726,2.81928 5.73143,2.82011 11.54435,8.20039 13.74813,12.72497 0.63294,1.29944 2.07079,4.1658 3.19517,6.3697 1.12447,2.20388 2.04445,4.47316 2.04445,5.04283 0,0.5697 0.62451,2.54454 1.38786,4.38856 l 1.38784,3.35277 -0.18557,14.24611 c -0.11757,9.03242 -0.35159,14.82256 -0.63971,15.82121 -0.24975,0.86628 -1.05675,2.57282 -1.79307,3.7923 -0.73637,1.21949 -1.34047,2.72566 -1.34247,3.34704 0,0.6214 -0.6205,3.34476 -1.37458,6.05192 -0.75405,2.70717 -1.37266,5.75844 -1.37461,6.78061 -0.003,1.94893 -0.88923,8.79565 -1.62318,12.54999 -0.373,1.90949 -0.31812,2.58877 0.41532,5.11901 0.75274,2.59659 1.24977,5.97538 2.36959,16.10863 0.17953,1.6243 0.5842,3.66206 0.89928,4.52834 0.56615,1.55635 0.6029,1.57882 3.0934,1.890065 1.38623,0.17325 3.11414,0.665064 3.83976,1.092945 l 1.31934,0.777942 1.53664,-1.388258 c 1.48323,-1.340004 1.64401,-1.388254 4.62658,-1.388254 2.84566,0 3.22623,0.0988 4.81435,1.249173 1.91931,1.390303 2.861,2.3863 3.69852,3.911726 0.37904,0.690097 1.13792,1.187155 2.31666,1.517198 0.99948,0.279844 2.28909,1.043786 2.99978,1.777022 1.11425,1.149607 1.42573,1.265997 2.93353,1.096046 1.82502,-0.205687 3.13787,0.29114 3.73951,1.415302 0.27868,0.520689 0.12319,1.264678 -0.58122,2.785602 -0.52877,1.141345 -0.8697,2.223703 -0.75748,2.405214 0.11213,0.181512 1.20353,0.704015 2.42523,1.161101 1.22166,0.457085 2.68015,1.146407 3.24111,1.531825 0.56092,0.385417 1.62555,0.942732 2.36581,1.238474 1.08197,0.43225 5.89792,4.107749 6.72629,5.133429 0.10834,0.134068 1.39207,0.907772 2.85287,1.719322 2.68741,1.492973 3.1897,2.044599 6.19229,6.800576 1.70274,2.697031 5.62837,11.998829 6.60958,15.661581 0.36323,1.355243 1.24353,3.160069 2.08226,4.268252 2.0209,2.670003 3.09023,4.951225 3.37908,7.208502 0.13572,1.059222 0.79109,3.166221 1.45676,4.682231 0.67051,1.527076 1.93415,6.002218 2.83336,10.03421 l 1.6231,7.277839 1.70747,0.337649 c 0.93907,0.18556 2.34406,0.744689 3.12209,1.242094 0.77809,0.497452 2.25691,1.009784 3.28632,1.13852 1.02944,0.128824 2.57282,0.591772 3.42982,1.028994 0.85698,0.437175 2.05247,0.79766 2.65668,0.801057 2.40685,0.01385 5.69948,1.090943 6.94132,2.271511 0.68477,0.651022 2.21965,1.8091511 3.41079,2.5736519 2.5036,1.6068567 5.71149,4.676395 12.55803,12.0164576 l 4.87944,5.2311952 -0.8457,6.7697303 c -0.46512,3.723306 -1.26503,8.363938 -1.77747,10.312445 -0.51249,1.948552 -1.04638,4.577334 -1.18646,5.841707 -0.14017,1.264417 -0.59068,3.302174 -1.00126,4.528362 -0.74384,2.221462 -3.5883,16.087275 -5.14243,25.068051 -0.44973,2.598875 -1.27228,6.408593 -1.8278,8.466022 -1.0584,3.919618 -5.43184,24.871462 -6.04128,28.942043 -0.19448,1.299435 -0.5542,4.205505 -0.79924,6.457895 -0.25166,2.31108 -0.93471,5.57066 -1.5683,7.48163 -1.32594,3.99919 -4.33861,18.77396 -4.33669,21.26824 0,0.95556 -0.26172,2.63892 -0.58361,3.74079 -1.1647,3.98929 -2.25688,8.49523 -4.54195,18.73864 -2.25327,10.10083 -4.17991,18.17759 -5.30709,22.24798 -2.19263,7.91784 -3.31746,14.14604 -3.53145,19.5539 -0.23532,5.94565 -0.97565,9.91543 -2.74212,14.70404 -0.83688,2.26861 -1.08834,3.90607 -1.42124,9.25353 -0.22244,3.57346 -0.56698,7.11739 -0.76561,7.87543 -0.52067,1.98693 -0.55746,23.62397 -0.061,35.83298 0.23344,5.7392 0.51891,14.51041 0.63444,19.49157 0.11593,4.98121 0.38601,15.31904 0.60054,22.97303 0.27679,9.85493 0.26612,14.71916 -0.0371,16.66719 -0.23502,1.51298 -0.31263,3.20684 -0.17249,3.7642 0.14017,0.55735 0.60041,5.81524 1.02347,11.68419 0.8053,11.17302 1.47765,39.08526 1.68453,69.93314 0.0833,12.4155 0.24978,17.5082 0.6055,18.50719 0.26988,0.75801 0.65251,3.23875 0.85029,5.51277 l 0.35997,4.13456 -1.78403,1.64993 c -1.38745,1.28311 -2.28278,1.75029 -4.02743,2.10161 -1.23385,0.24821 -2.95215,0.6287 -3.81847,0.8451 -3.66796,0.9163 -9.20991,1.98135 -11.22242,2.15669 -1.90713,0.16589 -2.56555,0.003 -5.51276,-1.35961 -2.24951,-1.04054 -4.58195,-1.7578 -7.11289,-2.1872 -3.68614,-0.6254 -5.00482,-1.0202 -11.00056,-3.29321 l -2.95321,-1.11968 -0.2655,-2.35007 c -0.1461,-1.29253 -0.43949,-3.41325 -0.65194,-4.7127 -0.21271,-1.29943 -0.594,-4.31177 -0.84796,-6.69405 -0.25387,-2.38234 -0.63746,-5.01653 -0.85215,-5.85382 -0.2149,-0.83727 -0.55208,-9.51988 -0.74971,-19.29468 -0.36414,-17.99867 -0.81612,-27.60584 -1.54638,-32.85594 -0.22088,-1.5895 -0.41021,-5.04777 -0.42045,-7.68513 -0.01,-2.63734 -0.18568,-7.09873 -0.39018,-9.91418 -0.20455,-2.81542 -0.54899,-9.54889 -0.76569,-14.96322 -0.21678,-5.41436 -0.58421,-11.26182 -0.81689,-12.99438 -0.23254,-1.73257 -0.52183,-5.86607 -0.64271,-9.18561 -0.21487,-5.90632 -0.23764,-6.03108 -1.05704,-5.83198 -0.46042,0.11217 -3.31798,0.66825 -6.35004,1.23637 -3.032,0.56808 -6.39878,1.27897 -7.48158,1.57974 -3.24259,0.90053 -7.41457,1.7687 -8.49439,1.7676 -0.55699,0 -1.79736,0.24758 -2.75637,0.55143 -0.95899,0.30382 -3.78138,0.85337 -6.27198,1.22122 -2.49062,0.36789 -7.4521,1.37448 -11.02556,2.23718 -4.12533,0.99588 -8.15033,1.69431 -11.02551,1.91311 -4.27316,0.32509 -6.03117,0.59997 -10.23803,1.60012 -0.97457,0.23156 -3.38175,0.73138 -5.34927,1.11038 -1.96749,0.37903 -3.74508,0.79283 -3.95009,0.91948 -0.68185,0.42135 -25.47903,3.77926 -29.88066,4.04619 -2.38234,0.14446 -4.5087,0.40232 -4.72524,0.57318 -1.27558,1.00568 -15.93425,4.59488 -16.31187,3.99393 -0.12467,-0.19825 -0.45484,-0.11444 -0.73418,0.18662 -0.41577,0.44835 -0.40834,0.54705 0.0419,0.54705 0.44927,0 0.52763,0.92375 0.42602,5.02055 -0.0684,2.76134 -0.15205,5.39889 -0.18555,5.86132 -0.0325,0.4623 0.66381,2.06111 1.54996,3.55269 0.88612,1.49157 2.30955,4.65717 3.16317,7.03466 0.85357,2.37746 1.8319,4.98147 2.17412,5.78664 0.34229,0.8052 0.62306,2.48857 0.62433,3.74087 0,1.25222 0.17486,2.8992 0.38647,3.65998 1.00677,3.62388 1.11146,6.42014 0.35207,9.41002 -0.40741,1.60475 -0.74092,3.49712 -0.74092,4.20521 0,0.70814 -0.72893,3.11626 -1.61993,5.35139 -2.57883,6.46956 -2.63473,6.66235 -3.6521,12.59357 -0.53261,3.10529 -1.26436,6.44339 -1.62612,7.41795 -0.36182,0.97458 -0.81668,3.93882 -1.0108,6.58719 -0.19443,2.64837 -0.52415,5.57849 -0.73321,6.51138 -0.57032,2.54492 -0.98127,21.14344 -0.49433,22.37136 0.22138,0.55829 1.34879,2.24165 2.50536,3.7408 l 2.10278,2.72571 -0.01,3.15019 c -0.01,3.82594 -1.14796,13.22207 -1.73387,14.31675 -0.23301,0.4353 -0.42369,1.59058 -0.42369,2.56716 0,1.55528 -0.14643,1.86215 -1.18132,2.47341 -0.64971,0.38368 -1.1813,0.82485 -1.1813,0.98013 0,0.15518 -0.39857,0.40232 -0.88599,0.54917 -0.48731,0.14709 -1.41756,0.7632 -2.06729,1.3699 -1.08227,1.01053 -1.47834,1.11415 -4.72522,1.23633 -4.43855,0.16684 -13.11298,-0.40603 -13.40943,-0.88557 -0.12236,-0.19763 -0.66031,-0.3595 -1.19591,-0.3595 -2.36326,0 -6.24168,-2.77107 -8.97436,-6.41199 -1.84065,-2.45251 -2.42674,-8.85471 -1.43175,-15.63909 0.37858,-2.58206 0.83947,-4.18703 1.48762,-5.18138 0.82942,-1.2725 0.89003,-1.61707 0.51897,-2.95325 -0.23115,-0.832 -0.42089,-2.26108 -0.42229,-3.17582 0,-0.91466 -0.71097,-4.70662 -1.57727,-8.42649 -0.86627,-3.71988 -1.57505,-7.36493 -1.57505,-8.1002 0,-1.72549 -1.15457,-6.3732 -1.85266,-7.458 -0.29718,-0.4623 -1.06968,-2.85434 -1.71614,-5.31588 -1.55711,-5.9291 -2.18487,-7.55942 -3.98003,-10.3369 -0.82935,-1.28318 -1.5079,-2.56078 -1.5079,-2.83919 0,-0.27869 -1.00053,-2.42158 -2.22332,-4.76264 -2.12565,-4.06938 -2.88811,-5.48955 -5.56196,-10.35988 -1.45125,-2.64336 -1.83563,-6.53416 -1.3226,-13.38816 0.1865,-2.49054 0.26508,-4.65923 0.1744,-4.81929 -0.0902,-0.15996 -0.56795,-0.0282 -1.06112,0.2966 -0.49321,0.32323 -1.79651,0.85476 -2.8962,1.18139 -1.09979,0.32648 -2.50327,0.85645 -3.1189,1.17757 -0.61567,0.32092 -1.38779,0.5849 -1.71587,0.58619 -0.32788,0 -1.29893,0.37904 -2.15746,0.83911 -1.36761,0.733 -1.95219,0.80485 -4.71937,0.58008 l -3.15847,-0.25669 -3.15016,-3.11716 c -1.73258,-1.71444 -3.82929,-3.79174 -4.65939,-4.61623 -4.01893,-3.99196 -10.10697,-10.59976 -10.10697,-10.96987 0,-0.6374 -2.31613,-2.65948 -4.72522,-4.12535 -1.70463,-1.03719 -2.70908,-1.35496 -4.71775,-1.49257 -2.5973,-0.17752 -9.16324,0.45626 -12.01745,1.16095 -0.86628,0.21396 -2.99264,0.53032 -4.72522,0.70335 l -3.15016,0.31438 -2.2876,-1.42045 c -3.85634,-2.39456 -4.53012,-3.14325 -5.17642,-5.75196 -0.50268,-2.02888 -0.85116,-2.58276 -2.46719,-3.92127 -1.03503,-0.85726 -3.21084,-2.93314 -4.83514,-4.61302 -1.81192,-1.87394 -3.63807,-3.35431 -4.72523,-3.83039 -2.67625,-1.17215 -7.0228,-1.4312 -11.11496,-0.66255 -3.52696,0.66255 -9.79384,0.91414 -11.25074,0.45163 -0.79467,-0.25199 -1.48128,-1.74089 -1.73073,-3.75239 -0.0729,-0.58786 -0.66413,-1.33788 -1.49857,-1.90107 -1.18781,-0.80162 -1.66789,-0.89425 -3.47549,-0.67054 -3.28462,0.40646 -5.47158,-0.30666 -7.60006,-2.47876 -2.306,-2.35322 -7.15372,-7.98707 -9.20357,-10.69604 -2.53584,-3.35123 -3.51443,-4.24988 -5.10723,-4.68965 -0.82565,-0.22778 -1.8943,-0.7838 -2.37474,-1.23517 -0.73379,-0.68936 -1.02884,-0.74991 -1.84398,-0.37856 -0.94438,0.43018 -0.98325,0.61854 -1.44592,7.00613 -0.26157,3.61019 -0.64193,7.71573 -0.84531,9.12345 -0.20338,1.40776 -0.46595,3.7113 -0.58353,5.11903 -0.11753,1.40768 -0.38764,3.88842 -0.60026,5.51276 -0.21259,1.62429 -0.56982,5.16821 -0.79384,7.8754 -0.22403,2.70714 -0.65995,5.98526 -0.96875,7.28472 -0.30877,1.29942 -0.55671,3.38715 -0.55088,4.63929 0.006,1.25213 -0.34002,3.55566 -0.76852,5.11895 -0.92777,3.38479 -3.0844,12.82417 -3.43833,15.04922 -0.49549,3.11515 -0.59019,3.55809 -0.96783,4.52838 -0.21069,0.54136 -0.72483,3.19931 -1.14252,5.90652 -0.79697,5.1658 -1.48259,7.53973 -2.78719,9.65057 -0.43206,0.69907 -0.78725,1.69314 -0.78938,2.20898 -0.005,1.29599 -1.7223,4.86562 -2.91323,6.05655 -0.7419,0.74193 -1.40199,0.9863 -2.67622,0.99082 -3.45621,0.0132 -3.57648,1.06816 -0.51513,4.52232 1.34362,1.51603 2.64962,3.14736 2.90211,3.62514 0.25906,0.48975 0.43486,2.29349 0.4037,4.13458 -0.0326,1.79622 0.073,3.91087 0.23021,4.69925 0.25487,1.27709 0.13674,1.59917 -1.08089,2.95329 -1.10788,1.23193 -1.3034,1.68918 -1.03211,2.41384 0.35113,0.93827 1.36529,7.92461 1.92785,13.2817 0.46043,4.38459 1.52119,9.57981 2.23965,10.96912 0.6687,1.29305 0.78622,4.62785 0.49694,14.10008 -0.17301,5.66634 -0.19859,5.80637 -1.36994,7.47289 -0.985,1.40144 -1.48715,1.74843 -2.87272,1.98499 -0.92351,0.15765 -2.68985,0.93223 -3.92511,1.72135 -7.22988,4.61835 -10.59135,5.97839 -17.79994,7.20187 -9.13829,1.55106 -14.450039,2.81748 -16.007367,3.81658 -0.466011,0.2991 -2.680962,1.36756 -4.922145,2.3747 -2.241137,1.00717 -5.50336,2.50664 -7.249373,3.33207 -1.745963,0.82554 -4.565986,1.78837 -6.266651,2.13965 -1.700711,0.35115 -3.195902,0.70077 -3.322684,0.77666 -0.126961,0.0757 -2.289364,0.24223 -4.805734,0.36973 -2.516376,0.12747 -4.819925,0.31717 -5.119017,0.42183 -4.473901,1.56393 -38.183916,3.28212 -50.552442,2.57663 z M -5.9117652,309.13314 c 0.7604095,-0.46415 1.5917894,-1.11669 1.8475382,-1.45057 0.7700812,-1.0055 -2.0139923,-1.19402 -4.3989314,-0.29754 -2.7021716,1.01536 -3.3601676,2.16288 -1.6772236,2.92491 0.9900668,0.44832 2.048126,0.15396 4.2286168,-1.17642 z m 97.5974192,-190.87455 1.304089,-2.37215 -2.294667,0.22465 c -4.935306,0.48308 -4.854523,0.4488 -4.851406,2.07147 0,0.80236 0.119046,2.69213 0.261374,4.1995 l 0.258579,2.74069 2.008779,-2.24598 c 1.10485,-1.23535 2.595623,-3.31347 3.312873,-4.61812 z m 3.555506,-5.69637 c 0.893885,-0.96974 1.625275,-1.93032 1.625275,-2.13468 0,-0.20416 1.133684,-1.6069 2.519254,-3.11679 2.023291,-2.20467 2.644591,-3.1993 3.155671,-5.05158 0.35021,-1.26846 1.18792,-3.546713 1.86196,-5.062742 1.44798,-3.256641 2.7011,-6.779357 2.7011,-7.593019 0,-0.448802 -0.33393,-0.527401 -1.47664,-0.34788 -0.81217,0.127901 -3.95738,0.439501 -6.989383,0.693296 -3.032056,0.253457 -5.575865,0.515545 -5.65293,0.581957 -0.07719,0.06651 0.172552,0.93891 0.554236,1.938927 0.632047,1.655041 0.638699,1.873908 0.07396,2.438657 -0.481915,0.481965 -0.528379,0.822637 -0.2079,1.525839 0.343695,0.75441 0.166961,1.35218 -1.061085,3.586155 -0.810498,1.47449 -1.896602,3.18358 -2.413586,3.79795 -0.516986,0.61442 -0.939979,1.24047 -0.939979,1.3912 0,0.15069 0.63628,1.24019 1.413894,2.42094 2.047523,3.10897 2.523815,4.14592 2.523815,5.49415 0,0.66051 0.154384,1.20089 0.343694,1.20089 0.188829,0 1.074992,-0.79343 1.968832,-1.76322 z M 223.06947,86.403415 c 1.9442,-0.682277 1.97164,-0.715156 2.19227,-2.627434 0.12285,-1.065084 0.6735,-3.01238 1.2236,-4.327353 1.06329,-2.541579 2.10667,-6.393575 1.8117,-6.688576 -0.0975,-0.09721 -2.85496,0.446947 -6.12796,1.210005 -3.27301,0.762825 -7.68749,1.552721 -9.80998,1.75522 -2.12249,0.202307 -5.01087,0.718641 -6.41859,1.146937 -1.40773,0.428341 -5.21745,1.336926 -8.46604,2.019104 -3.2486,0.682231 -6.17234,1.337159 -6.4972,1.455291 -0.32486,0.118138 1.91002,0.610324 4.96642,1.093591 3.39791,0.537263 6.15182,1.196004 7.08785,1.695457 2.25515,1.203351 3.68623,1.557653 9.99681,2.474978 3.14031,0.456711 5.97545,0.985417 6.30031,1.175403 0.82062,0.479824 1.47332,0.412993 3.74081,-0.382764 z m 67.16186,-58.916332 c 3.17204,-1.597372 3.34078,-1.883025 4.11583,-6.965764 0.80697,-5.292492 3.00565,-8.583782 7.13311,-10.6780469 1.14113,-0.578982 1.97552,-1.7125695 1.5637,-2.1243999 -0.2451,-0.2450975 -4.8664,1.8259108 -6.52947,2.9258778 -0.75413,0.4988 -1.51068,0.906862 -1.68123,0.906862 -0.44322,0 -10.5919,4.959958 -11.42395,5.583259 -0.65814,0.493034 -0.64468,0.653768 0.2572,3.079681 0.52336,1.407707 1.43547,3.932776 2.02682,5.611212 0.59141,1.678433 1.23317,3.051727 1.42614,3.051727 0.19301,0 1.59327,-0.625677 3.11177,-1.390408 z"
       id="path1518"
       inkscape:connector-curvature="0" />
  </g>
</svg>
