<?xml version="1.0" encoding="UTF-8" standalone="no"?>
<svg
   xmlns:dc="http://purl.org/dc/elements/1.1/"
   xmlns:cc="http://creativecommons.org/ns#"
   xmlns:rdf="http://www.w3.org/1999/02/22-rdf-syntax-ns#"
   xmlns:svg="http://www.w3.org/2000/svg"
   xmlns="http://www.w3.org/2000/svg"
   xmlns:sodipodi="http://sodipodi.sourceforge.net/DTD/sodipodi-0.dtd"
   xmlns:inkscape="http://www.inkscape.org/namespaces/inkscape"
   width="1476.4744mm"
   height="2149.1819mm"
   viewBox="0 0 1476.4744 2149.1819"
   version="1.1"
   id="svg8"
   inkscape:version="1.0.2 (e86c870879, 2021-01-15)"
   sodipodi:docname="alone_sitting_male8.svg">
  <defs
     id="defs2" />
  <sodipodi:namedview
     id="base"
     pagecolor="#ffffff"
     bordercolor="#666666"
     borderopacity="1.0"
     inkscape:pageopacity="0.0"
     inkscape:pageshadow="2"
     inkscape:zoom="0.05647901"
     inkscape:cx="1438.6531"
     inkscape:cy="4969.8417"
     inkscape:document-units="mm"
     inkscape:current-layer="layer1"
     showgrid="false"
     fit-margin-top="0"
     fit-margin-left="0"
     fit-margin-right="0"
     fit-margin-bottom="0"
     inkscape:window-width="1920"
     inkscape:window-height="997"
     inkscape:window-x="0"
     inkscape:window-y="0"
     inkscape:window-maximized="1"
     inkscape:document-rotation="0" />
  <metadata
     id="metadata5">
    <rdf:RDF>
      <cc:Work
         rdf:about="">
        <dc:format>image/svg+xml</dc:format>
        <dc:type
           rdf:resource="http://purl.org/dc/dcmitype/StillImage" />
        <dc:title></dc:title>
      </cc:Work>
    </rdf:RDF>
  </metadata>
  <g
     inkscape:label="Ebene 1"
     inkscape:groupmode="layer"
     id="layer1"
     transform="translate(1234.223,1875.3477)">
    <rect
       style="fill:#ffffff;stroke-width:1.5;stroke-linecap:square;stroke-linejoin:round;stroke-dasharray:3, 3"
       id="rect831"
       width="1476.4744"
       height="2149.1819"
       x="-1234.223"
       y="-1875.3477" />
    <path
       style="fill:#000000;stroke-width:1.18178"
       d="m -791.3963,204.09131 c -1.94994,-0.54856 -10.38004,-1.56624 -18.73365,-2.26191 -8.3536,-0.69511 -15.64822,-1.54878 -16.21017,-1.8962 -0.56251,-0.34755 -11.34914,-1.14456 -23.9714,-1.77281 -24.20311,-1.20318 -25.78902,-1.53775 -41.53606,-8.75308 -20.55727,-9.41931 -24.34129,-11.72546 -28.47608,-17.35404 -2.21263,-3.012 -4.02299,-6.51617 -4.02299,-7.78705 0,-1.27158 2.06049,-4.21742 4.5788,-6.5473 3.17992,-2.94222 4.8165,-5.61797 5.35681,-8.75783 0.42851,-2.48677 1.27996,-6.9144 1.89355,-9.83931 0.61276,-2.9249 1.40809,-6.79701 1.76555,-8.60457 1.02452,-5.17816 6.61988,-7.87387 15.88258,-7.65166 4.26181,0.0977 13.86452,-0.70209 21.33933,-1.78677 7.47482,-1.08454 19.70625,-2.58559 27.18092,-3.33499 10.60658,-1.06361 15.01774,-2.07417 20.09037,-4.60323 16.5608,-8.25702 23.32458,-10.64566 30.2193,-10.67134 2.55376,-0.0119 5.80515,-0.67417 7.22524,-1.47732 12.97079,-7.333415 22.1563,-13.557725 25.5481,-17.312019 2.2312,-2.469736 10.37571,-10.279819 18.09884,-17.355709 15.41247,-14.121072 24.87295,-22.833543 26.90566,-24.778038 3.83972,-3.673198 8.43498,-5.665011 12.51492,-5.424234 4.04239,0.238682 5.0235,-0.378263 11.18081,-7.028852 3.71228,-4.009726 8.0986,-9.477929 9.74718,-12.151592 1.64872,-2.673663 3.85116,-6.190671 4.89425,-7.8155267 3.97204,-6.1877397 9.36487,-21.5695023 10.10911,-28.8341053 0.42712,-4.162846 1.25343,-9.083754 1.83925,-10.935009 0.58484,-1.851255 1.37626,-8.450059 1.75969,-14.66404 l 0.69651,-11.298058 -4.73527,-6.346583 c -5.09929,-6.834555 -5.76034,-10.550325 -3.47094,-19.510272 4.56637,-17.871182 4.78844,-20.011082 4.04839,-38.998772 -0.78584,-20.16839 -4.38827,-49.73599 -7.1267,-58.49815 -0.91425,-2.92491 -1.98428,-9.04063 -2.37803,-13.59053 -0.68395,-7.91058 -4.76277,-20.20943 -10.06989,-30.36949 -1.25483,-2.40371 -2.28298,-5.64575 -2.28298,-7.20458 0,-8.08687 -5.65915,-12.31337 -20.09023,-15.00434 -3.57493,-0.6658 -9.87378,-2.29442 -13.9974,-3.61751 l -7.4977,-2.40552 -11.41084,3.79435 c -17.40722,5.7884 -24.21107,8.44085 -26.47855,10.32239 -1.88922,1.56763 -2.06663,4.89481 -2.05071,38.46362 0.014,29.61896 0.34476,37.32059 1.70232,39.70184 7.53497,13.21338 10.36189,21.06924 13.82125,38.40792 0.64765,3.24985 1.93724,9.44178 2.86405,13.75956 2.77263,12.915936 1.86396,22.820004 -4.21254,45.920425 -0.5988,2.274881 -1.42232,6.263392 -1.83087,8.863356 -0.40897,2.599825 -1.92398,6.322435 -3.36752,8.272374 -1.44368,1.949938 -4.04378,6.009216 -5.77807,9.020385 -1.73429,3.011308 -4.09808,5.85819 -5.25283,6.326482 -2.68748,1.090123 -27.75654,3.74941 -50.5524,5.362401 -9.74969,0.689527 -22.24703,2.032989 -27.7719,2.984508 -19.40126,3.341695 -21.27205,2.566326 -21.27205,-8.818272 0,-9.782494 -0.98963,-10.921749 -8.27643,-9.529016 -8.92295,1.705673 -31.92106,4.642445 -42.54006,5.432052 -5.52487,0.410366 -10.62989,1.210162 -11.34454,1.776579 -0.71465,0.566697 -7.89383,1.55688 -15.95404,2.201602 -8.06007,0.644862 -18.44765,1.772532 -23.08339,2.506167 -5.38962,0.852836 -18.38609,1.123622 -36.04445,0.749547 -29.8837,-0.633696 -29.9536,-0.644862 -51.8419,-8.628583 -6.5316,-2.382219 -16.7574,-6.017591 -21.2721,-7.562467 -14.7303,-5.040249 -20.9322,-7.314852 -22.7333,-8.337279 -1.1292,-0.640674 -2.6586,-1.165496 -3.3998,-1.165496 -1.125,0 -10.0122,-4.724658 -20.5473,-10.922587 -4.4843,-2.638209 -15.3775,-9.508218 -20.4202,-12.878527 -2.7815,-1.858932 -5.3019,-3.3798 -5.6011,-3.3798 -0.6463,0 -11.9053,-7.850422 -16.1337,-11.249345 -4.5609,-3.666359 -5.7517,-6.881454 -6.0362,-16.299086 -0.24,-7.9519 0.028,-9.08166 3.2835,-13.64022 1.95,-2.73368 4.0772,-5.88541 4.7272,-7.00372 0.6504,-1.11804 2.9819,-5.14829 5.1818,-8.95548 3.9738,-6.87657 8.5872,-10.21366 14.1202,-10.21366 1.2325,0 3.7624,-1.19621 5.6204,-2.65901 3.0079,-2.36756 4.677,-2.65258 15.2271,-2.59954 6.5168,0.0279 21.1553,0.85283 32.53,1.82166 27.3803,2.33281 42.4336,2.01861 49.5303,-1.03429 2.9824,-1.28275 9.1451,-3.22487 13.6949,-4.31583 8.489,-2.03508 15.1883,-5.89713 23.6357,-13.62556 12.75753,-11.67157 24.3314,-18.63273 35.26823,-21.21218 15.46593,-3.64751 23.13434,-4.11176 31.66968,-1.91741 l 7.51431,1.93193 4.04002,-4.48974 c 2.22212,-2.46932 9.27581,-10.1087 15.67502,-16.97633 6.39934,-6.86764 12.59797,-14.37511 13.77477,-16.68349 1.99963,-3.92207 9.38581,-26.07809 13.79934,-41.39327 2.27879,-7.90738 1.97646,-9.17477 -4.88406,-20.47506 -2.84856,-4.69171 -5.17899,-8.96064 -5.17899,-9.48644 0,-0.52622 -0.99661,-2.05379 -2.2164,-3.39557 -1.21854,-1.34137 -3.94454,-5.63068 -6.05695,-9.53055 -2.11241,-3.89988 -5.63542,-10.08525 -7.82879,-13.74505 -2.48788,-4.15112 -3.98823,-8.19923 -3.98823,-10.76095 0,-4.1849 11.32137,-27.91148 16.96712,-35.55881 5.72922,-7.76025 8.41195,-15.3036 9.7402,-27.38694 0.71465,-6.49984 1.90011,-15.80636 2.63444,-20.68121 0.73419,-4.87484 2.19741,-16.30857 3.25097,-25.40824 1.05383,-9.09967 2.65998,-18.89989 3.56991,-21.77804 0.91006,-2.87814 1.65444,-8.61755 1.65444,-12.75402 0,-4.13646 0.75513,-11.35389 1.67846,-16.03891 0.92262,-4.68501 2.02126,-11.70884 2.44042,-15.60872 1.29949,-12.09269 4.41228,-28.21115 6.09366,-31.55396 0.88215,-1.75523 1.61272,-4.94604 1.62207,-7.09069 0.009,-2.14479 1.38184,-9.21747 3.04913,-15.71731 1.66785,-6.49985 3.5004,-15.13708 4.07254,-19.19385 0.57228,-4.0569 1.59289,-8.4093 2.26874,-9.67208 0.67557,-1.26321 1.22831,-3.84154 1.22831,-5.73076 0,-4.30731 4.34779,-25.88742 5.98172,-29.68987 0.66998,-1.55855 1.71837,-6.34477 2.33029,-10.63603 0.61136,-4.29112 2.18388,-12.32244 3.49342,-17.84717 1.30927,-5.52487 2.96748,-13.50189 3.68423,-17.72671 0.71744,-4.22496 1.79779,-8.2901 2.40204,-9.03365 0.60438,-0.74396 1.4039,-4.20039 1.77727,-7.68167 0.81376,-7.58689 3.64752,-18.4221 5.67381,-21.69261 0.80538,-1.29949 1.82808,-3.84069 2.27279,-5.64589 0.82771,-3.36095 2.83725,-7.94017 12.57898,-28.66577 3.06547,-6.52175 5.9298,-12.98042 6.36529,-14.35236 1.05383,-3.32103 -2.01415,-6.28879 -6.50166,-6.28879 -1.92439,0 -5.34314,-0.77049 -7.59708,-1.71237 -6.31936,-2.64031 -5.57414,-6.10386 2.89909,-13.47356 3.84851,-3.34728 7.81636,-6.08613 8.81729,-6.08613 1.00079,0 2.77123,-0.96171 3.93408,-2.13739 2.71176,-2.74136 12.80273,-8.88834 17.79231,-10.83828 2.12316,-0.82911 5.66725,-1.21575 7.87583,-0.85703 3.02889,0.49133 4.52115,0.0977 6.07258,-1.62136 1.1306,-1.24925 3.35496,-2.27279 4.94129,-2.27279 1.58647,0 4.29601,-0.71605 6.02122,-1.59178 8.04737,-4.08398 14.07026,-6.61792 17.31816,-7.28651 1.94994,-0.40199 6.87057,-2.29052 10.93459,-4.19816 4.06417,-1.90765 8.1455,-3.46844 9.06952,-3.46844 0.92402,0 5.66459,-1.5954 10.53427,-3.54534 4.86982,-1.94994 10.09502,-3.54283 11.6117,-3.53962 1.51668,0 5.15066,-0.78444 8.07556,-1.75187 2.92491,-0.9673 11.43373,-3.66343 18.90854,-5.99247 7.47482,-2.32904 15.33682,-4.9974 17.47143,-5.92966 2.13446,-0.93239 4.62583,-1.69492 5.53645,-1.69492 0.91007,0 3.15271,-0.60857 4.98247,-1.35393 8.56577,-3.48588 18.89726,-6.90881 20.86716,-6.91342 1.1976,0 3.45252,-1.00917 5.01121,-2.2344 1.5587,-1.22552 6.4288,-3.13261 10.82237,-4.23683 4.39371,-1.10408 9.05207,-2.58921 10.35198,-3.29996 1.2995,-0.71046 5.28857,-2.03494 8.86336,-2.94249 3.57493,-0.90728 8.62705,-2.19658 11.22701,-2.86447 2.59983,-0.66859 7.479,-1.47258 10.84261,-1.78831 3.96478,-0.37268 6.83456,-1.36788 8.16015,-2.8332 1.33858,-1.4783 3.61541,-2.25939 6.58862,-2.25939 2.49918,0 4.54404,-0.52761 4.54404,-1.17247 0,-0.64486 1.99418,-2.12567 4.43167,-3.29061 5.7898,-2.76746 5.37106,-4.9974 -2.45438,-13.07185 -8.22017,-8.4816 -16.45555,-13.16606 -23.17188,-13.18016 -2.8822,-0.006 -8.20021,-0.78723 -11.81786,-1.7347 -8.95213,-2.34579 -23.99024,-5.13908 -32.57639,-6.05095 -3.89988,-0.41456 -9.7497,-1.43447 -12.99969,-2.26721 -3.24988,-0.83329 -12.2905,-2.43554 -20.09025,-3.56181 -7.79976,-1.12642 -16.92218,-2.78058 -20.27211,-3.67641 -3.34993,-0.89611 -8.40204,-1.62863 -11.22701,-1.62877 -6.45085,-2.7e-4 -19.8669,-2.59801 -32.9079,-6.37212 -18.02904,-5.21752 -19.36622,-5.61183 -31.31724,-9.23576 -6.49984,-1.97087 -15.27456,-4.60141 -19.49938,-5.84549 -4.22482,-1.24366 -10.34054,-3.04648 -13.59053,-4.00512 -11.96469,-3.52943 -27.60133,-8.88569 -43.71477,-14.97419 -19.13885,-7.2318 -18.96019,-7.03443 -20.10503,-22.20152 l -0.75792,-10.04503 7.20263,-10.0452 c 3.96143,-5.5249 11.44894,-16.4268 16.63868,-24.2266 15.95753,-23.9827 24.52498,-36.4718 27.67475,-40.3426 1.65933,-2.0393 3.01689,-4.2229 3.01689,-4.8527 0,-0.6295 1.81832,-3.5266 4.04086,-6.4373 2.22254,-2.9106 8.29861,-11.6618 13.50245,-19.4469 10.14094,-15.1708 11.43247,-16.4058 49.22736,-47.0666 8.44964,-6.8547 18.70978,-15.25 22.80032,-18.6562 4.09055,-3.4062 8.87676,-7.3535 10.63603,-8.7718 1.75927,-1.4181 6.12367,-5.0232 9.69861,-8.0109 3.57479,-2.9879 11.81771,-9.6859 18.31756,-14.8846 16.7664,-13.4103 31.06616,-25.0179 33.60638,-27.2793 7.55856,-6.7292 14.85597,-11.6536 17.26931,-11.6536 2.09469,0 4.75579,2.4593 10.54977,9.7497 7.65864,9.6366 11.36045,14.245 17.2118,21.4267 2.79524,3.4309 12.05431,15.4987 25.94926,33.8216 3.20393,4.2248 7.30675,9.4825 9.11753,11.6836 1.81078,2.2012 4.62179,5.9866 6.24678,8.4121 1.62486,2.4255 6.39628,8.52 10.60295,13.5433 4.20668,5.0232 8.46109,10.3406 9.45434,11.8162 0.99381,1.4755 5.79412,7.8803 10.66897,14.2327 4.87485,6.3525 11.64464,15.246 15.04384,19.7635 3.3992,4.5174 7.53134,9.2761 9.18244,10.5749 1.65109,1.2995 3.80259,3.9098 4.78132,5.8024 1.62723,3.1468 2.30713,3.4364 7.95344,3.389 3.39571,-0.028 10.16243,-0.5863 15.03727,-1.2395 21.74608,-2.9122 31.21493,-3.2415 44.86283,-1.56 7.4501,0.9185 17.02253,1.6753 21.27205,1.683 8.91333,0.014 42.38081,4.0609 48.4901,5.8605 2.2707,0.6686 5.4615,1.2088 7.09069,1.199 1.62918,-0.01 6.52441,1.1418 10.87806,2.5591 8.79887,2.8635 10.70023,2.3207 12.15354,-3.4701 0.44108,-1.7572 1.28414,-3.7759 1.87359,-4.4861 0.58903,-0.7105 3.18076,-5.3915 5.75839,-10.4025 2.57763,-5.0111 6.30694,-11.157 8.28745,-13.6576 1.98051,-2.5006 3.6009,-5.1347 3.6009,-5.8537 0,-0.7942 -2.89937,-1.386 -7.38604,-1.5093 -14.79804,-0.4048 -18.66623,-1.8678 -23.49432,-8.8851 l -3.68325,-5.3535 1.96586,-9.029 c 1.08174,-4.966 2.96859,-13.5495 4.19411,-19.0744 1.22551,-5.5247 2.83962,-14.0335 3.5868,-18.9084 0.74675,-4.8748 2.20579,-12.7621 3.24161,-17.5272 1.66883,-7.6779 1.71419,-11.5784 0.3992,-34.2718 -3.05751,-52.7378 -3.51142,-70.3599 -2.8138,-109.2186 0.7663,-42.6841 0.80398,-42.3849 -4.89355,-38.0748 -1.26181,0.9547 -4.2639,1.7351 -6.67153,1.7351 -2.40762,0 -8.2679,1.6554 -13.02271,3.6788 -8.13209,3.4606 -9.0684,3.6076 -15.78236,2.4778 -8.2827,-1.3944 -19.97689,-5.5747 -22.41661,-8.0146 -1.12642,-1.1264 -4.36929,-1.696 -9.749,-1.7133 -5.46122,-0.014 -9.72317,-0.7803 -13.2131,-2.3637 -2.83334,-1.2855 -5.79552,-2.3375 -6.58247,-2.3375 -0.78724,0 -3.60537,-1.8613 -6.26312,-4.1362 -5.9538,-5.0962 -9.06393,-5.1856 -15.50906,-0.4453 -4.06723,2.991 -5.78533,3.566 -9.06519,3.0338 -6.71326,-1.0901 -10.30452,-3.5088 -13.10492,-8.828 -1.46448,-2.782 -4.2251,-7.5973 -6.1347,-10.7008 -1.9096,-3.1035 -3.82576,-6.6771 -4.25818,-7.9415 -0.4327,-1.2646 -3.02722,-5.1745 -5.76635,-8.6893 -4.55842,-5.8492 -5.98074,-6.7827 -16.79794,-11.0247 -6.49985,-2.549 -13.94506,-5.601 -16.54489,-6.7822 -2.59996,-1.1809 -5.93105,-2.5069 -7.40237,-2.9459 -1.47132,-0.4397 -5.6865,-4.8814 -9.36696,-9.8721 -3.68046,-4.9907 -9.12409,-11.9989 -12.09702,-15.5738 -8.29791,-9.9781 -31.10312,-31.9081 -33.18161,-31.9081 -1.79222,0 -15.02556,8.6322 -23.80126,15.5258 -5.50966,4.328 -10.1394,4.5043 -11.16322,0.4257 -1.37208,-5.4677 1.44605,-16.0512 7.90541,-29.6863 1.88532,-3.9796 3.42782,-7.7676 3.42782,-8.4177 0,-0.6505 1.11246,-3.6971 2.47239,-6.7712 3.03043,-6.8506 2.51398,-10.3276 -3.0758,-20.7104 -2.2746,-4.2248 -5.22072,-10.0746 -6.54701,-12.9995 -1.32602,-2.9249 -3.00727,-6.3817 -3.73532,-7.6817 -1.84176,-3.2884 -5.60178,-10.9815 -12.1294,-24.8174 -7.32364,-15.5233 -10.16327,-21.2147 -21.68789,-43.4687 -7.82013,-15.1006 -9.65883,-19.6457 -9.65883,-23.8741 0,-6.3479 2.55712,-9.1269 19.62267,-21.325 6.3389,-4.531 15.14126,-11.5706 19.56066,-15.6436 4.41953,-4.0729 9.24371,-7.928 10.72061,-8.5667 1.4769,-0.6393 5.87606,-3.8025 9.77594,-7.0307 6.36165,-5.266 14.28675,-10.73 39.03855,-26.9157 4.21449,-2.7559 10.71586,-6.6165 14.44755,-8.5792 3.73168,-1.9626 12.45769,-7.419 19.39121,-12.1251 6.93351,-4.706 16.93389,-11.2155 22.22329,-14.4654 5.28926,-3.25 16.00764,-10.0609 23.81843,-15.1358 21.07622,-13.6931 21.46118,-13.8668 33.6915,-15.1957 10.60462,-1.1529 11.21431,-1.0873 17.45397,1.8645 3.55595,1.6822 7.19509,3.0586 8.08687,3.0586 1.70972,0 17.35585,15.6745 36.86375,36.9308 6.41247,6.9872 11.9968,12.704 12.40954,12.704 0.41316,0 4.38994,-3.2307 8.83823,-7.1793 10.00038,-8.8772 12.61277,-9.9726 19.31039,-8.0973 11.01583,3.0842 14.09777,12.9472 12.71131,40.6814 -0.71325,14.2658 -1.21993,17.4794 -3.09547,19.6422 -2.79147,3.2186 -2.84228,5.8646 -0.17448,9.0917 1.13758,1.3762 3.92933,5.1988 6.20435,8.4951 2.27489,3.2964 5.33337,7.437 6.79687,9.2014 1.46322,1.7643 3.50501,4.9838 4.5372,7.1542 2.46109,5.1758 9.86583,12.5018 15.58499,15.4196 2.5098,1.28 11.4396,6.8826 19.84387,12.4492 8.40428,5.5668 16.1221,10.125 17.15081,10.1298 1.02871,0 3.57982,-2.1189 5.6692,-4.7187 3.26199,-4.0591 4.4508,-4.7271 8.41251,-4.7271 4.4575,0 12.6866,1.861 21.27401,4.8113 4.71098,1.6184 10.47663,3.4108 20.68121,6.4288 3.89988,1.1529 9.48379,3.0049 12.4087,4.1144 2.92491,1.1097 8.50882,2.9679 12.4087,4.1299 3.89988,1.1627 7.80604,2.6784 8.68023,3.3698 0.87377,0.6909 5.35137,2.2124 9.94901,3.38 4.59778,1.1669 9.24232,2.9219 10.32128,3.8984 1.07895,0.977 4.07323,1.7754 6.65394,1.7754 5.02712,0 9.38217,2.4142 21.19235,11.7478 4.75914,3.7613 8.20063,5.4869 12.14796,6.0913 11.9111,1.8239 61.165402,21.6767 80.550471,32.4675 1.624995,0.9045 8.580427,4.2843 15.4568565,7.5106 12.0424406,5.6503 12.7061455,6.1619 18.0484466,13.9096 3.0503909,4.4238 8.8580529,11.81 12.9060249,16.4135 4.047832,4.6037 9.487002,11.1903 12.086827,14.6373 2.599964,3.4468 7.386177,9.5279 10.636028,13.5134 9.912443,12.1564 21.86304,29.0989 21.86304,30.9956 0,0.4787 0.992417,3.0337 2.206766,5.6764 1.21435,2.6425 3.147539,6.932 4.297263,9.5318 5.511472,12.4646 14.915983,31.2692 15.961161,31.9152 0.643466,0.3978 1.169684,1.5212 1.169684,2.4964 0,0.9757 2.190156,6.3948 4.867029,12.0436 7.518643,15.8657 10.461553,23.7416 10.461833,27.997 0,1.2995 1.01614,5.8204 2.25757,10.0452 3.06365,10.4251 8.49724,32.3552 9.80888,39.5896 0.58903,3.25 1.79933,7.7981 2.68887,10.1069 0.88913,2.3088 2.19435,7.095 2.89937,10.636 1.90611,9.5745 4.4857,21.1848 5.89448,26.5284 0.68534,2.6 1.25902,7.6556 1.27437,11.2347 0.014,3.5792 0.55693,8.3497 1.20179,10.6011 0.64625,2.2513 1.97185,9.9589 2.94682,17.1279 3.57075,26.2531 4.34263,30.8598 6.00349,35.8253 0.931,2.785 1.69353,6.8957 1.69353,9.1347 0,2.239 0.76072,8.2033 1.6899,13.2537 0.92961,5.0506 2.55516,14.7668 3.61276,21.5916 l 1.92286,12.4087 -4.85363,14.1813 c -2.66947,7.7998 -5.34244,16.5745 -5.93984,19.4994 -2.62649,12.8587 -5.77026,37.1336 -6.4281,49.6348 -0.39362,7.4748 -1.46155,15.9836 -2.37343,18.9085 -1.52352,4.8851 -2.21067,8.2673 -5.52347,27.181 -0.62672,3.5749 -1.64272,7.0049 -2.25869,7.6224 -0.61695,0.617 -1.12083,2.5304 -1.12083,4.2508 0,3.52876 -1.75425,5.72492 -9.60411,12.02251 -5.97586,4.79417 -15.897934,9.19416 -20.733279,9.19416 -1.687946,0 -5.096221,0.60718 -7.573913,1.34975 -4.383942,1.31345 -4.523941,1.52715 -5.224774,7.97702 -0.396409,3.645 -1.190621,9.02038 -1.764297,11.94529 -0.573675,2.92491 -1.373471,10.02006 -1.777696,15.767 -0.403388,5.74681 -1.299494,11.86253 -1.990836,13.59039 -0.690923,1.72787 -1.712652,14.04361 -2.269857,27.36809 -1.238078,29.61953 -3.744105,55.15563 -5.592708,57.00423 -0.756526,0.75653 -1.376263,2.56744 -1.376263,4.0241 0,1.45652 -0.517843,2.96818 -1.150143,3.35901 -1.365096,0.84446 -8.558652,15.87559 -14.712753,30.74593 -6.618764,15.99313 -7.803244,18.47612 -11.362545,23.8201 -1.79947,2.70144 -3.624903,6.02527 -4.056905,7.38618 -0.431303,1.36091 -1.281348,2.47448 -1.887546,2.47448 -0.605779,0 -1.102685,0.47318 -1.102685,1.05104 0,0.57786 -2.924908,5.47086 -6.499702,10.87346 -3.574934,5.40246 -6.499841,10.14763 -6.499841,10.54502 0,1.2953 7.45499,6.27316 14.51748,9.69428 4.166197,2.01819 9.106087,5.76816 12.444991,9.44722 3.045086,3.35537 9.857727,10.2773 15.139171,15.38204 8.275584,7.99852 9.880061,10.21408 11.609183,16.02955 1.104081,3.71145 2.971947,9.67307 4.152099,13.248 1.180851,3.57494 3.068536,9.69065 4.196486,13.59053 1.127809,3.89988 2.649515,8.15429 3.381056,9.4542 0.875169,1.5559 1.458476,14.17886 1.705673,36.94177 l 0.375471,34.57826 3.448055,1.783 c 4.52115,2.33797 5.039552,4.9431 4.458199,22.40517 -0.549947,16.52618 -1.046853,17.62203 -9.861636,21.76547 -5.988558,2.81492 -6.92612,5.00885 -6.018987,14.08353 0.368492,3.69106 0.951939,35.16254 1.295306,69.93649 0.343368,34.77381 0.891919,75.98842 1.218538,91.58793 1.044061,49.86664 1.755642,82.04607 2.406226,108.7238 0.348952,14.29959 1.129206,65.08663 1.733868,112.86012 0.604384,47.77349 1.665753,100.155932 2.357793,116.405466 0.692319,16.249394 1.635883,49.161341 2.097754,73.137489 l 0.840274,43.59306 11.817856,3.858142 c 6.499837,2.121762 17.667667,5.710235 24.817397,7.97409 7.14973,2.264134 14.92855,5.255063 17.28634,6.646683 6.14991,3.63007 16.40028,17.3451 16.37195,21.90547 -0.0279,5.46513 -6.34477,14.65371 -11.55349,16.82237 -2.40791,1.00219 -4.64398,2.19058 -4.96893,2.64003 -0.32522,0.44944 -2.98409,2.08644 -5.909,3.6376 -15.86219,8.41182 -24.95963,12.41275 -31.3171,13.77324 -6.490905,1.38882 -17.845633,4.12223 -33.089909,7.96502 -3.249851,0.81933 -7.405998,2.1145 -9.235757,2.87842 -1.82976,0.76351 -5.27614,1.38883 -7.658778,1.38883 -2.382498,0 -7.001075,1.02312 -10.263628,2.27223 -9.759044,3.73824 -17.592577,4.76234 -46.1122069,6.0289 -14.9496221,0.6644 -31.1695651,1.69394 -36.0444111,2.28898 -12.979862,1.58381 -31.004859,1.40278 -43.134957,-0.4341 -5.849815,-0.88494 -17.017645,-1.67441 -24.817403,-1.75299 -17.66725,-0.17866 -39.12788,-2.20356 -48.45297,-4.57279 -3.89987,-0.99103 -10.54739,-2.16797 -14.77235,-2.61588 -4.22482,-0.44805 -8.74513,-1.36231 -10.04505,-2.03257 -1.29949,-0.66999 -4.99767,-1.56274 -8.2171,-1.9833 -3.21942,-0.42014 -7.47383,-1.27856 -9.4542,-1.90485 -1.9805,-0.62672 -6.06197,-1.44271 -9.07007,-1.81301 -6.10106,-0.75095 -18.31337,-8.1709 -26.57276,-16.14457 -4.00931,-3.87057 -5.30518,-6.31253 -7.39428,-13.93515 -1.52868,-5.57834 -2.17815,-10.19203 -1.63853,-11.63836 1.28693,-3.4475 9.7342,-9.58652 34.01114,-24.71718 1.28554,-0.80119 5.26149,-2.912764 8.83642,-4.692833 3.57479,-1.78007 8.11102,-4.422327 10.0805,-5.87173 1.9692,-1.449264 4.62821,-3.069513 5.90886,-3.600617 1.27995,-0.530405 4.88671,-2.55139 8.01359,-4.489743 l 5.68553,-3.524406 -0.70628,-53.770985 c -0.38803,-29.5740208 -1.20737,-76.106644 -1.82083,-103.405783 -1.1641,-51.873253 -1.88768,-101.064883 -2.97083,-202.084533 -0.35593,-33.14896 -0.86958,-63.99344 -1.14177,-68.54334 -1.35113,-22.583 -1.92718,-43.75163 -3.03685,-111.62903 l -1.20597,-73.8118 -14.07752,-13.63994 c -7.74267,-7.50189 -15.89333,-14.617 -18.11266,-15.81139 -3.99507,-2.14996 -4.20137,-2.1353 -20.78911,1.47718 -9.21468,2.00689 -18.55889,3.64891 -20.76468,3.64891 -2.20593,0 -4.33955,0.5318 -4.74127,1.18225 -0.40199,0.65044 -1.78369,1.18224 -3.07132,1.18224 -2.38767,0 -11.70089,4.28219 -11.70089,5.37999 0,0.3322 0.73698,2.37036 1.63923,4.52813 0.90169,2.15764 2.02517,6.26214 2.4971,9.12088 0.47178,2.85861 1.27995,5.72936 1.79695,6.37939 0.51645,0.65044 1.52981,4.10659 2.25186,7.68153 2.68692,13.30313 4.57628,21.11237 5.44977,22.52562 0.49412,0.7998 1.57377,4.70107 2.39841,8.66851 2.17746,10.47676 4.07045,17.34119 5.9492,21.57369 0.90867,2.0482 1.65305,5.39841 1.65305,7.4448 0,2.04653 0.81515,5.29721 1.81148,7.22384 0.9966,1.92649 2.26162,5.7556 2.81212,8.50911 1.95887,9.79966 3.8996,16.87164 5.5352,20.16978 0.91286,1.84023 1.65892,5.29694 1.65878,7.68167 -1.4e-4,2.38474 1.04127,7.52674 2.31312,11.42662 4.03988,12.38301 5.95953,19.68446 5.95953,22.6673 0,1.59303 0.62392,4.05788 1.38603,5.47755 0.76211,1.41981 2.05588,5.50631 2.87452,9.08124 2.77807,12.13261 4.17025,17.13057 5.40177,19.39191 0.67556,1.24087 1.65528,4.96348 2.17675,8.27252 0.52203,3.30903 1.77574,8.40944 2.78673,11.33434 1.01056,2.92491 2.58447,8.24293 3.49621,11.81786 0.91146,3.57479 2.28688,8.89281 3.05555,11.81772 0.76909,2.9249 2.15415,12.23143 3.07859,20.68121 0.92402,8.44964 2.48927,20.41517 3.47708,26.59007 0.98823,6.17476 2.35752,16.27898 3.04383,22.45374 0.68674,6.1749 2.01736,14.94962 2.95827,19.49939 4.24674,20.53716 4.26111,36.83234 0.0419,43.5075 -0.8989,1.42023 -2.01192,4.44326 -2.47449,6.71828 -0.46201,2.27488 -2.02447,6.79519 -3.47122,10.04504 -1.44675,3.25 -3.24678,7.39442 -4.00024,9.20994 -0.75373,1.81552 -5.4668,7.13354 -10.47439,11.81786 -5.00745,4.68431 -14.71373,13.87527 -21.5695,20.42424 -6.85577,6.54925 -15.12633,14.34398 -18.37925,17.321931 -5.14955,4.71391 -6.18467,6.463271 -8.00424,13.52632 -1.14875,4.461828 -2.5828,12.089339 -3.18537,16.949948 -0.60299,4.860749 -1.91239,13.092086 -2.91095,18.291875 -0.998,5.19979 -2.66947,14.240414 -3.71326,20.090229 -1.04406,5.849816 -2.30754,11.16783 -2.80821,11.817856 -0.5011,0.650445 -1.22971,4.012239 -1.61844,7.47174 -0.66022,5.8715899 -1.7495,10.1244658 -4.69367,18.3313759 -1.25204,3.4910461 -4.84679,5.5141241 -9.79785,5.5141241 -2.84981,0 -3.09464,-0.336388 -6.43647,-8.8633563 -1.96571,-5.0155434 -4.88657,-14.3875317 -5.89267,-18.9085407 -0.57926,-2.599965 -2.44098,-8.715681 -4.1387,-13.590527 -1.69785,-4.874847 -3.55008,-10.724662 -4.1165,-12.999544 -0.5667,-2.274882 -2.16866,-7.858796 -3.56042,-12.4087 -1.39162,-4.549903 -3.15675,-10.399718 -3.92193,-12.999543 -0.7649,-2.599965 -1.79082,-5.347884 -2.27893,-6.106364 -0.48853,-0.757922 -1.22412,-3.949428 -1.63546,-7.090686 -0.41177,-3.141397 -1.4501,-7.107435 -2.30825,-8.813526 -1.40948,-2.801659 -4.94575,-15.311832 -9.3121,-32.942232 -0.88494,-3.57494 -2.76691,-9.42475 -4.18127,-12.99969 -1.41437,-3.57479 -3.07161,-9.00363 -3.68255,-12.06407 -0.61137,-3.06044 -1.88532,-7.04895 -2.83181,-8.86336 -0.94636,-1.81441 -1.7241,-4.11818 -1.72801,-5.11953 0,-1.00079 -1.64091,-6.85117 -3.63732,-12.99954 -1.99656,-6.14852 -4.07282,-13.30635 -4.61397,-15.90631 -0.54158,-2.59982 -1.55186,-6.32243 -2.24627,-8.27237 -0.69372,-1.94994 -2.35598,-7.40098 -3.69246,-12.11335 -1.33718,-4.71224 -2.96958,-8.56787 -3.62867,-8.56787 -0.65882,0 -3.96772,2.06733 -7.35212,4.59401 -8.67283,6.47486 -14.60598,9.18468 -22.10773,10.09711 -3.57493,0.43549 -10.89174,1.61969 -16.25972,2.63319 -8.90495,1.68124 -10.01252,1.67706 -12.6432,-0.0419 -4.25413,-2.78742 -7.86898,-11.88178 -8.9813,-22.59569 -0.54018,-5.19979 -1.52687,-13.44272 -2.19337,-18.31756 -0.66579,-4.87485 -1.2283,-15.04551 -1.24785,-22.60156 -0.014,-7.55619 -0.35593,-15.33905 -0.74815,-17.29541 -1.06918,-5.34328 -1.04127,-5.33951 -71.37724,-9.81013 -10.07463,-0.64068 -21.17114,-1.67706 -24.65883,-2.30378 -3.48756,-0.62671 -6.81139,-0.84865 -7.38604,-0.49411 -0.57507,0.35453 -1.04546,5.063 -1.04546,10.46183 0,8.32053 0.3992,10.33537 2.61825,13.22524 1.44005,1.87513 3.10413,3.749 3.69791,4.16425 1.40376,0.98125 1.20318,10.37138 -0.30569,14.34133 -0.64625,1.69925 -1.73093,9.36794 -2.41083,17.04123 -1.40111,15.81349 -3.39348,23.48399 -7.54013,29.02743 -2.42214,3.23826 -3.10832,6.21719 -4.42163,19.19621 -1.8373,18.15802 -1.8158,16.35464 -0.60578,50.81649 l 0.95473,27.18105 4.59806,9.725966 c 5.06942,10.723126 5.49235,14.147173 2.74638,22.235161 -2.10571,6.202396 -1.85502,20.812837 0.62811,36.582075 1.2339,7.836184 2.19505,10.323228 5.61602,14.531019 l 4.1274,5.076959 -0.79143,11.468067 c -0.67417,9.77481725 -0.4313,12.6022979 1.64873,19.1495968 5.26735,16.5802002 5.58015,17.0878542 14.9425,24.2589382 9.36292,7.171363 11.13084,9.35775 11.13964,13.775889 0.003,1.505096 1.31484,5.927423 2.91583,9.8273 1.60071,3.899877 3.54744,10.015593 4.32602,13.590527 0.77886,3.574933 1.80742,7.031643 2.28619,7.681529 0.47876,0.650445 3.05011,7.599177 5.71372,15.44248 3.52524,10.380453 4.84302,16.170673 4.84302,21.280013 0,3.86038 0.50807,8.79259 1.1306,10.96013 1.22133,4.25609 3.47221,27.15649 3.78193,38.46586 0.14238,5.22463 -0.28893,7.31987 -1.72661,8.37105 -2.72056,1.9893 -18.49342,4.11553 -39.82075,5.36757 -10.07478,0.59182 -22.30621,1.58005 -27.18106,2.19685 -14.57666,1.844 -34.0251,3.76211 -56.3461,5.55712 -11.58322,0.931 -24.25126,2.17606 -28.15114,2.76565 -3.89991,0.58902 -11.11454,1.11664 -16.03252,1.17247 -4.91797,0.0558 -11.83139,0.61695 -15.36319,1.25064 -8.30783,1.48891 -36.93354,4.59122 -60.19239,6.52315 -19.84387,1.64845 -32.96764,3.27749 -48.07442,5.96776 -10.7329,1.91142 -11.29192,1.92887 -16.33259,0.51087 z"
       id="path880"
       inkscape:connector-curvature="0" />
  </g>
</svg>
