<?xml version="1.0" encoding="UTF-8" standalone="no"?>
<svg
   xmlns:dc="http://purl.org/dc/elements/1.1/"
   xmlns:cc="http://creativecommons.org/ns#"
   xmlns:rdf="http://www.w3.org/1999/02/22-rdf-syntax-ns#"
   xmlns:svg="http://www.w3.org/2000/svg"
   xmlns="http://www.w3.org/2000/svg"
   xmlns:sodipodi="http://sodipodi.sourceforge.net/DTD/sodipodi-0.dtd"
   xmlns:inkscape="http://www.inkscape.org/namespaces/inkscape"
   width="711.7522mm"
   height="776.44427mm"
   viewBox="0 0 711.75219 776.4443"
   version="1.1"
   id="svg853"
   inkscape:version="1.0.2 (e86c870879, 2021-01-15)"
   sodipodi:docname="alone_sitting_male3.svg">
  <defs
     id="defs847" />
  <sodipodi:namedview
     id="base"
     pagecolor="#ffffff"
     bordercolor="#666666"
     borderopacity="1.0"
     inkscape:pageopacity="0.0"
     inkscape:pageshadow="2"
     inkscape:zoom="0.12951117"
     inkscape:cx="2862.8397"
     inkscape:cy="500.7837"
     inkscape:document-units="mm"
     inkscape:current-layer="layer1"
     showgrid="false"
     fit-margin-top="0"
     fit-margin-left="0"
     fit-margin-right="0"
     fit-margin-bottom="0"
     inkscape:window-width="1920"
     inkscape:window-height="997"
     inkscape:window-x="0"
     inkscape:window-y="0"
     inkscape:window-maximized="1"
     inkscape:document-rotation="0" />
  <metadata
     id="metadata850">
    <rdf:RDF>
      <cc:Work
         rdf:about="">
        <dc:format>image/svg+xml</dc:format>
        <dc:type
           rdf:resource="http://purl.org/dc/dcmitype/StillImage" />
        <dc:title></dc:title>
      </cc:Work>
    </rdf:RDF>
  </metadata>
  <g
     inkscape:label="Ebene 1"
     inkscape:groupmode="layer"
     id="layer1"
     transform="translate(508.08502,211.28387)">
    <rect
       style="fill:#ffffff;stroke-width:1.5;stroke-linecap:square;stroke-linejoin:round;stroke-dasharray:3, 3"
       id="rect832"
       width="711.7522"
       height="776.44427"
       x="-508.08502"
       y="-211.28387" />
    <g
       transform="matrix(1.7644097,0,0,1.7644097,-238.57784,-843.14915)"
       id="g10"
       style="fill:#000000;fill-opacity:1;stroke-linejoin:miter">
      <path
         inkscape:connector-curvature="0"
         id="path8"
         d="m -119.05861,568.2259 c -0.48144,0.009 -1.10083,0.2384 -1.38586,0.589 -0.18592,0.2524 -0.44068,2.3419 -0.56568,4.64646 -0.12732,2.30444 -0.31201,4.77259 -0.39502,5.49708 -0.11328,1.0144 -0.0432,1.3883 0.46753,1.82299 0.23255,0.20107 0.40784,0.31787 0.5492,0.31787 0.33886,-0.005 0.46985,-0.7152 0.71057,-2.72985 0.13904,-1.3042 0.39844,-3.01025 0.57727,-3.82835 0.47095,-2.3091 0.83557,-5.6 0.67187,-6.0393 -0.077,-0.1917 -0.32605,-0.28055 -0.62988,-0.2759 z m 78.72328,63.0487 0.01166,0.7853 c 0.0082,0.5376 0.232543,0.8227 0.707031,0.93955 2.660889,0.5282 4.967712,0.71985 8.216431,0.6731 3.094482,-0.042 3.722046,-0.15415 3.717346,-0.5282 -0.0046,-0.25245 -0.163575,-0.47205 -0.32251,-0.47205 -0.188171,0.005 -0.319031,-0.2759 -0.32373,-0.59375 -0.01166,-0.78991 -0.32721,-0.84605 -6.734681,-0.82265 z m 18.664979,24.1201 -3.454409,4.92213 q 4.707156,-0.77123 7.366885,-1.2948 1.855773,-0.35998 3.758239,-0.83667 h 0.153076 z m -62.366293,51.6714 c -1.338016,0.0187 -2.803466,0.0467 -4.33313,0.0748 -10.506956,0.2431 -11.136841,0.2852 -11.760866,0.86014 -0.53052,0.48146 -0.64978,0.92556 -0.57263,1.89782 l 0.11218,1.2948 1.64307,0.0747 c 0.91504,0.0515 1.67578,0.1916 1.6781,0.3833 0.0023,0.15427 0.19397,0.2899 0.3833,0.2851 0.22205,-0.005 1.0459,0.4208 1.8125,0.9115 2.89697,1.9213 4.25488,6.3246 2.51367,8.1803 -0.50366,0.5469 -0.80163,1.4678 -0.791135,2.169 l 0.04676,-0.005 28.74189,-15.31347 0.155454,-0.005 c -1.132384,-0.26646 -3.572449,-0.4067 -8.082094,-0.5189 -2.43188,-0.0327 -4.483946,-0.15894 -4.57977,-0.28516 -0.07129,-0.07 -2.94837,-0.0654 -6.967294,-0.005 z M -52.42462,384.66083 c 0.219664,-0.005 0.393797,0 0.50128,0 0.0199,0.005 0.03973,0.005 0.05493,0.005 0.1543,0.005 0.67432,0.0374 1.161623,0.0561 5.165222,0.28514 10.122497,1.81836 13.977722,4.33789 2.119812,1.3883 4.130982,3.23005 5.659546,5.17925 1.999512,2.54762 3.425171,5.55793 4.134521,8.72254 0.447571,2.00531 0.423035,3.26276 -0.08411,4.60896 l -0.151916,0.41137 0.420654,0.58429 c 0.697693,0.95361 1.699158,2.20636 3.593506,4.46411 3.03601,3.61798 4.069091,4.95489 4.7901,6.26373 0.57727,1.03772 0.747925,1.68744 0.602966,2.23438 -0.179932,0.68712 -0.701111,1.16858 -2.025146,1.88379 -0.553956,0.29919 -0.795838,0.41137 -1.077454,0.4768 -0.05847,0.009 -0.116882,0.014 -0.181152,0.028 -0.239564,0.0327 -0.452271,0.0748 -0.638062,0.11687 -0.781799,0.17761 -1.1604,0.3833 -1.35907,0.72455 -0.170654,0.28978 -0.140259,0.62634 0.113343,1.36963 0.12384,0.35992 0.247741,0.77595 0.266418,0.93017 0.07129,0.35053 0.229065,0.65436 0.643921,1.18256 0.509521,0.64978 0.620544,0.88354 0.624023,1.28552 -0.0012,0.58423 -0.289795,0.98633 -1.260925,1.75757 -0.205688,0.16357 -0.393799,0.34595 -0.408997,0.38793 -0.05841,0.15894 0.137879,0.4535 0.677795,1.01905 0.52002,0.54688 0.682435,0.80872 0.687135,1.08447 0.007,0.23378 -0.06311,0.34118 -0.745605,1.15931 -0.801637,0.97229 -1.093812,1.55187 -1.124146,2.23901 -0.0152,0.46741 -0.0059,0.50952 0.566772,2.12219 0.833191,2.32324 1.013184,3.22534 0.799317,4.12757 -0.26294,1.10315 -1.456116,2.5055 -2.706483,3.19262 -0.57495,0.31311 -0.97345,0.48145 -1.671142,0.67774 l -0.545715,0.15894 -5.276245,0.14025 -1.451418,0.0281 h 0.153078 q -1.936402,3.2019 -4.633545,7.08177 h 0.153077 q 4.300475,2.14552 7.566771,3.417 13.295228,4.68848 14.281495,5.30543 4.282959,1.86975 6.647033,4.07617 3.3948367,2.94958 5.8734744,9.47034 1.7505493,4.08081 2.902771,11.34484 h 0.1531372 q 1.9772339,2.04749 3.0056153,3.19262 3.0500488,3.3656 4.3343515,5.7497 1.3977051,2.56153 1.4806516,5.4363 l 0.154236,-0.005 q 3.802674,3.43103 5.159425,4.96423 0.999145,1.09852 1.381287,1.85107 0.169433,0.1543 0.879943,2.41675 0.247742,0.5796 0.593689,1.1405 0.670777,1.1079 2.292786,3.0664 2.094116,2.51027 4.721191,5.2074 1.56592,1.69215 6.520815,6.11414 1.022522,1.00036 1.737732,1.9773 0.750246,1.03306 1.442016,2.49609 h 0.151917 c 0.205689,0.35537 0.286316,0.72927 0.292176,1.22007 0.0012,0.0514 0.0035,0.1122 0.0059,0.16824 l 0.153078,-0.005 q 0.07715,0.187 0.150755,0.37866 l 3.064085,8.80188 q 24.557074,-4.98754 37.39661,-5.94114 l 0.15192,-0.005 c 0.16711,-0.0561 0.32837,-0.11218 0.472106,-0.17297 0.823854,-0.32251 1.600954,-0.45337 3.379574,-0.48147 0.72925,-0.009 1.62903,-0.005 2.767276,0.0187 4.198794,0.0327 4.894104,0.1216 6.165589,0.76196 0.203305,0.10279 0.413695,0.21034 0.622865,0.33194 l 0.151915,-0.005 q 3.450865,0.7853 5.673585,2.3933 2.05438,1.4351 3.502326,3.6554 l 0.100464,0.1543 q 1.75525,3.5059 3.758243,7.0164 l 0.15192,-0.005 c 0.16949,0.2711 0.34594,0.64515 0.48034,1.02845 h -0.0421 q 2.56042,4.4126 5.51349,8.82068 6.23108,9.73682 41.35127,60.79097 0.21033,0.59825 -0.0876,0.8226 h -0.0596 c -0.003,0.45815 -0.17993,0.8228 -0.5235,1.1266 -0.37512,0.3506 -0.99682,0.8928 -1.37194,1.2761 -0.37165,0.3833 -0.9665,0.77127 -1.31238,0.8694 -0.34473,0.1309 -0.81098,0.64515 -1.02485,1.1453 -0.0479,0.12156 -0.09,0.21506 -0.1239,0.30845 l 0.15076,-0.005 q 7.17761,8.41395 11.93616,13.0978 5.15004,5.1466 12.84999,11.9292 l 0.15192,-0.005 q 1.58117,0.3366 2.65045,0.5984 3.76989,0.8975 6.40747,2.0614 1.74469,0.7666 3.36438,1.8838 6.47992,5.0531 6.90533,5.1372 1.90717,1.19667 4.54584,2.0194 2.25543,0.7105 5.45276,1.2948 16.4259,2.5569 19.97729,3.37966 5.27863,1.08454 7.7596,2.25774 7.24538,3.749 2.99629,10.7092 -3.02435,4.1743 -12.32409,8.2176 -9.58612,4.0668 -20.18885,5.75894 -3.65545,0.57031 -6.87843,0.62171 -1.93292,0.0281 -3.70917,-0.1355 l 0.15192,-0.005 c -1.49347,-0.0468 -2.47278,-0.1682 -3.1377,-0.3833 l 0.1507,-0.005 -1.35791,-0.20105 q -7.44051,-1.57526 -10.40413,-2.0474 -2.93555,-0.5142 -7.18927,-1.15457 h -0.15307 l -0.0514,0.29444 c -0.31317,1.95863 -0.0643,2.29983 -3.82721,2.35133 -1.10432,0.0139 -2.5569,0.005 -4.47108,0 -7.23016,0.0139 -7.57843,-0.009 -8.50281,-0.6919 -0.54107,-0.3739 -1.23987,-0.67775 -1.61853,-0.6731 -0.34704,0.005 -0.63336,-0.1122 -0.63568,-0.2711 -0.002,-0.15896 -0.44641,-0.3412 -0.95245,-0.45815 -1.23401,-0.21035 -2.86072,-1.38831 -2.87006,-2.04735 -0.005,-0.2571 -0.39386,-1.0331 -0.84491,-1.69216 -0.83673,-1.1593 -0.83905,-1.28554 -0.84259,-5.98327 -0.005,-2.62232 -0.12622,-6.69387 -0.28516,-9.02161 -0.23834,-3.44043 -0.22436,-4.64172 0.1648,-6.18903 0.3576,-1.45849 0.37744,-2.22033 0.1449,-3.15993 -0.19983,-0.6638 -0.46741,-1.82774 -0.60413,-2.5149 -0.0339,-0.1822 -0.0853,-0.36923 -0.15662,-0.55624 l 0.15424,-0.005 -17.06634,-19.00145 -0.15308,0.005 c -0.74554,0.0608 -1.46539,0.36925 -1.85455,0.8508 -0.34125,0.44875 -3.28614,1.9773 -4.54236,2.3466 -0.44177,0.1262 -0.84845,0.3552 -0.94074,0.4814 -0.0923,0.12624 -0.59369,0.32253 -1.13006,0.4534 -0.20685,0.0514 -0.38916,0.0795 -0.55512,0.0842 -0.41717,0.005 -0.74439,-0.145 -1.15455,-0.5002 -0.3833,-0.3412 -0.92437,-0.6217 -1.14526,-0.61697 -0.21967,0.005 -0.60651,-0.55627 -0.80634,-1.24816 -0.26879,-0.86011 -0.54809,-1.27613 -0.77362,-1.27137 -0.27459,0 -0.46624,0.62635 -0.44873,1.82764 0.0421,2.96362 0.74207,10.0874 1.10083,10.93826 0.29566,0.7479 0.54572,2.8607 1.42334,11.34006 0.21973,2.05219 0.53174,3.97334 0.693,4.28194 0.16125,0.3131 0.46862,1.9492 0.6825,3.65074 0.70935,5.54382 0.99097,7.50246 1.52618,9.73216 0.2688,1.1919 0.68714,3.9639 0.90918,6.13747 0.21851,2.18298 0.52936,4.07143 0.69062,4.25843 0.41839,0.4955 -0.87177,3.0056 -1.56592,3.01964 -0.31665,0 -0.59833,0.13096 -0.59595,0.28516 0.001,0.15894 -0.94195,0.43005 -2.13978,0.5376 -1.1651,0.1449 -3.08392,0.61706 -4.2771,1.04236 -1.19543,0.43469 -2.63983,0.80407 -3.20782,0.80874 l -1.00965,0.009 -0.21972,2.43545 c -0.26642,3.38425 0.10986,7.76426 0.90216,10.1809 0.3623,1.1406 0.83325,3.11314 1.04126,4.40794 0.27576,1.63611 0.83557,3.23936 1.81018,5.17932 0.77826,1.53784 1.59393,3.42164 1.79498,4.13684 0.23139,0.7573 0.49194,1.3556 0.61932,1.35095 0.284,-0.005 1.8125,-1.22475 2.71467,-2.1549 l 0.68365,-0.70115 0.67433,0.6777 c 1.15338,1.1874 1.59747,1.4678 2.51251,1.45387 0.47326,-0.009 1.1405,0.20556 1.45837,0.44873 0.57379,0.41125 0.57495,0.4441 -0.0514,0.76184 -0.34473,0.20106 -1.03656,0.36462 -1.54254,0.36936 -1.48181,0.0187 -2.83509,0.3833 -2.98701,0.804 -0.0432,0.10276 0.0175,0.30845 0.14728,0.54685 q 0.12971,-0.2384 0.51649,-0.32251 l 0.0187,-0.005 q 0.0479,-0.005 0.0934,-0.005 0.33893,-0.005 0.58899,0.33666 6.612,10.49403 9.22265,13.9718 1.9925,2.74855 3.70917,4.1322 1.69563,1.4211 4.64174,2.9918 l 12.60571,6.2262 2.85144,1.55185 h 0.15192 c 0.73035,0.18702 1.48761,0.50025 1.67108,0.74329 0.19403,0.24306 0.48029,0.42529 0.6369,0.42529 0.29566,-0.005 1.58229,1.00501 2.50667,1.86047 h 0.16248 q 2.71582,1.86976 3.94403,3.5199 4.68841,7.1846 -8.05171,9.246 -4.34955,0.52354 -8.719,0.58897 -5.22015,0.0702 -10.47186,-0.5188 h 0.15308 c -3.54322,-0.12147 -5.52167,-0.40662 -6.27546,-0.88807 h 0.15314 q -2.44592,-0.4535 -4.89765,-1.0425 -2.43536,-0.64963 -3.90784,-1.4303 -3.57593,-2.75327 -15.908263,-9.1759 l 0.151914,-0.005 c -0.420654,-0.0466 -0.807494,-0.0795 -1.125364,-0.0747 -0.22083,0 -0.40785,0.0233 -0.549204,0.0608 -0.377506,0.10275 -1.125366,0.64965 -1.719056,1.22935 -0.7771,0.7946 -1.058776,0.9723 -2.17596,0.991 -0.22199,0 -0.47675,-0.005 -0.77594,-0.009 -3.094486,-0.0468 -5.59058,-0.32716 -5.59528,-0.64503 -0.0023,-0.15897 -0.351745,-0.28052 -0.76074,-0.27112 -0.44293,0.005 -0.887025,-0.14965 -0.98285,-0.30385 -0.09815,-0.187 -0.6684,-0.3038 -1.20361,-0.2992 -1.64075,0.0233 -4.74573,-0.78526 -5.16291,-1.3182 -0.19519,-0.2804 -0.60772,-0.50014 -0.923214,-0.4955 -1.547242,0.0234 -3.072276,-0.7385 -3.910166,-1.9585 -0.901,-1.24817 -0.90216,-1.31823 -0.55157,-3.33764 0.204465,-1.14051 0.37158,-2.7251 0.35876,-3.53846 0.0105,-1.54724 0.73389,-3.8938 1.45019,-4.6325 0.21857,-0.22437 0.39502,-1.0751 0.3833,-1.8978 -0.02801,-1.9539 0.5224,-5.4644 0.89282,-5.9506 0.18817,-0.22436 0.51422,-1.6406 0.71289,-3.1926 0.23139,-1.5238 0.67896,-3.42165 1.01319,-4.2163 1.40466,-3.3002 1.6477,-4.0247 1.65588,-5.5486 0.0047,-2.052 -0.88928,-16.0753 -1.21185,-18.82386 l -0.25122,-2.14564 -2.11402,0.0327 c -1.67346,0.0235 -2.210996,-0.0935 -2.66095,-0.5609 -0.92785,-0.9956 -1.83703,-4.9269 -2.24719,-9.4751 -0.49664,-6.01134 -0.999145,-10.3025 -1.37195,-12.1255 -0.202146,-0.8834 -0.603025,-4.7585 -0.91272,-8.66636 -0.34472,-4.35654 -0.77124,-7.68954 -1.100766,-8.6618 -0.659119,-1.98194 -1.214234,-9.96119 -1.381344,-19.52514 -0.07129,-5.04835 -0.27344,-8.0774 -0.64856,-10.0874 -0.58197,-3.18324 -0.60297,-9.24135 -0.06543,-11.3308 0.38916,-1.36965 -0.01288,-2.04275 -1.18378,-2.0241 -0.184692,0 -0.38916,0.0187 -0.612366,0.0608 -1.599854,0.28054 -4.72705,0.49086 -7.300296,0.5282 -1.478272,0.0235 -2.774292,-0.014 -3.489441,-0.12144 -0.705872,-0.0983 -1.221192,-0.1543 -1.714357,-0.14966 -0.808715,0.014 -1.55426,0.19165 -2.9823,0.6311 -1.446715,0.4253 -2.70062,0.91614 -2.792967,1.0751 -0.09351,0.16355 -1.540223,0.5001 -3.178589,0.7058 -1.636051,0.2478 -3.494144,0.561 -4.092474,0.7246 -3.80499,1.00024 -3.773436,1.00024 -3.761778,1.7903 0.0047,0.28514 0.02106,0.4674 0.137938,0.5843 h 0.04669 q 2.07666,-0.46274 3.141237,-0.68246 2.44708,-0.49084 4.16144,-0.66844 0.51184,-0.0514 0.97577,-0.0795 h 0.153076 c 0.146057,-0.0327 0.308534,-0.0561 0.463928,-0.0561 0.153076,-0.005 0.295656,0.009 0.413696,0.0421 h 0.154236 q 1.547241,0.0467 2.417847,0.5001 1.664123,0.92553 1.380127,3.1787 -0.426514,2.44935 -2.510132,4.52955 -1.634888,1.55652 -4.219848,1.79025 -0.36463,0.0327 -0.81806,0.042 -0.219664,0.005 -0.458068,-0.005 l -0.155395,0.005 -53.866953,15.1872 h 0.154236 c 0.154236,0.12624 0.413696,0.24306 0.707031,0.2992 0.508301,0.1216 1.584595,0.3599 2.470399,0.5983 0.855469,0.24314 1.996033,0.5095 2.534729,0.62644 0.505981,0.12622 1.015503,0.30386 1.110168,0.43006 0.19397,0.2477 2.538209,0.90673 3.993165,1.1078 0.1051635,0.014 0.2325439,0.0234 0.3762817,0.0187 0.5842895,-0.009 1.4244997,-0.16356 2.0789187,-0.39256 0.93841567,-0.3413 2.34893825,-0.54225 3.4882817,-0.5563 0.6556396,-0.009 1.2224123,0.042 1.5566409,0.1636 1.0739135,0.3973 0.4615478,1.7529 -1.1043704,2.9028 l 0.1530762,-0.005 q 0.019897,0.43 -0.4849244,0.64963 -17.1446554,4.18372 -22.4209004,6.17493 -3.851748,1.39304 -6.666933,3.06174 h 0.151917 c -0.139039,0.3273 -0.176453,0.79935 -0.164735,1.594 0.021,1.4865 0.151915,1.83254 0.983946,2.5758 0.511841,0.4721 0.961731,1.02835 0.964112,1.21536 0.0023,0.19164 0.130859,0.34584 0.32019,0.34119 0.189331,0 0.342407,1.85571 0.38678,4.97825 0.06543,4.609 0.102844,5.0204 0.708191,5.4318 0.350586,0.2384 0.640381,0.68235 0.64508,0.9956 0.0046,0.31786 0.1344,0.56554 0.32367,0.56554 0.158936,-0.005 0.32373,0.56566 0.334228,1.25746 0,0.0234 0,0.0514 0,0.0748 q 0.643921,-0.0467 1.201355,-0.0561 1.313479,-0.0187 2.136233,0.17774 1.450195,0.32714 2.478576,1.2854 1.416382,1.2761 2.830385,4.30053 h 0.154235 q 9.8268455,2.12217 17.8388103,3.44971 l 0.1530762,-0.005 c 0.9442145,0.1168 1.5320439,0.229 1.8335575,0.3506 H 6.28391 q 0.511841,0.0747 1.0143437,0.15416 1.6851193,0.26184 3.4228523,0.49549 h 0.161255 c 2.288147,0.17295 4.720033,0.45815 5.5766,0.71985 h 0.153137 q 1.044678,0.11694 2.104615,0.2197 1.329897,0.15896 5.112672,0.50014 l 0.154236,-0.005 c 1.107849,0.0608 1.9469,0.14966 2.21222,0.21973 h 0.151916 q 4.098269,0.35523 10.208927,0.86477 l 4.87311,0.5001 q 4.903442,0.58435 7.536316,1.52856 2.534729,0.90684 3.732544,2.26244 0.629883,0.4114 2.72052,4.7025 1.561283,2.8234 1.676945,7.23135 h 0.08764 c 0.14728,-0.009 0.315553,-0.0608 0.5177,-0.12155 0.236085,-0.0934 0.486146,-0.14017 0.77478,-0.14017 0.483827,-0.005 1.078615,0.10743 1.914186,0.34117 1.646544,0.5142 1.997131,0.762 3.509338,2.7345 1.576416,2.0288 1.673466,2.24843 1.700316,4.10427 0.02106,1.54723 -0.12854,2.11743 -0.68597,2.85133 -0.372805,0.4768 -0.80402,1.1826 -0.955935,1.56126 -0.397339,0.9209 -2.143188,2.3606 -2.870117,2.37464 -0.347046,0.005 -0.941895,0.32715 -1.319336,0.68713 -1.038879,1.02832 -2.671448,1.59863 -4.379948,1.62207 -0.948914,0.014 -1.923524,-0.14026 -2.830384,-0.4768 -1.61969,-0.61243 -3.667052,-2.5709 -3.968566,-3.76295 -0.369264,-1.60805 -0.862427,-3.08045 -1.183777,-3.45445 -0.352905,-0.43934 -0.06427,-2.30446 0.377443,-2.3091 0.473265,-0.009 -0.03858,-7.13793 -0.671937,-9.4657 -0.666138,-2.51025 -0.922058,-2.82336 -2.247253,-2.8047 -0.599488,0.009 -1.075135,-0.1169 -1.077454,-0.2711 -0.0023,-0.15893 -0.888123,-0.36926 -1.994812,-0.43945 -1.958561,-0.16821 -4.295781,-0.19629 -24.593331,-0.47681 -6.03119,-0.0935 -11.1461813,-0.21494 -11.369387,-0.30384 -0.879944,-0.28515 -8.88373,-0.4955 -13.1187777,-0.4347 -1.0014648,0.014 -1.7914433,0.0421 -2.2273563,0.0841 h 0.151917 q 2.374634,2.38406 4.586793,4.3893 1.3204957,1.30884 9.6105974,8.157 l 2.6585703,2.37926 q 2.6492323,2.49144 4.2046523,4.60901 2.26361,3.05237 3.182129,6.73108 0.527039,2.03808 0.760804,4.78195 0.113342,1.2902 0.217346,3.50125 h -0.03156 c 0.243042,0.31775 0.559754,0.64038 0.986267,1.07971 1.186157,1.21534 1.604553,1.86974 1.615051,2.599 0.007,0.50954 0.240723,1.38831 0.532898,1.92124 0.324833,0.6218 0.598331,2.1362 0.722172,4.1837 0.19751,2.80467 0.142578,3.31407 -0.441712,4.4874 -0.704713,1.4304 -1.172121,1.8137 -2.715882,2.1222 -0.19983,0.0467 -0.373902,0.0701 -0.530518,0.0748 -0.434754,0.005 -0.739747,-0.16367 -1.116028,-0.5516 -0.352907,-0.37867 -0.708192,-0.97694 -0.777101,-1.3229 -0.108703,-0.54686 -0.994507,-0.86937 -2.292848,-0.84605 -0.329528,0.005 -0.687133,0.0375 -1.065734,0.0888 -0.883484,0.0982 -1.007325,0.23366 -0.995667,1.0237 0.00702,0.5001 -0.144897,0.91613 -0.302673,0.9209 -0.189332,0 -0.312013,0.19165 -0.308534,0.4393 0.00702,0.5376 -0.683594,0.83206 -2.0087894,0.85073 -1.1359263,0.0188 -2.4096696,-0.85076 -2.4213882,-1.6734 -0.00464,-0.28513 -0.1659544,-0.50023 -0.3236694,-0.50023 -0.189331,0.005 -0.32605,-0.71986 -0.336609,-1.57057 -0.012817,-0.88353 -0.1799316,-1.57533 -0.3400268,-1.57533 -0.1870117,0.005 -0.3330691,-1.35094 -0.3623049,-3.4637 -0.030334,-2.1176 0.075989,-3.4778 0.2641604,-3.48245 0.1588745,0 0.3131713,-0.21975 0.310791,-0.47215 -0.00464,-0.2477 0.1192017,-0.47207 0.3073733,-0.4768 0.1589353,0 0.310852,-0.3506 0.3049924,-0.7947 -0.00702,-0.444 0.1157226,-0.7899 0.303833,-0.7899 0.1589356,-0.005 0.3143926,-0.1917 0.3108526,-0.41604 -0.00348,-0.21972 0.274658,-0.60302 0.618225,-0.8601 0.5947877,-0.42066 0.619324,-0.8274 0.557434,-5.27746 l -0.058472,-4.01527 -28.29316,-19.61863 -0.154235,0.005 c -0.02454,0.0187 -0.05139,0.0468 -0.07593,0.0702 -0.250122,0.2617 -0.45929,1.05177 -0.449951,1.7482 0.0093,0.7246 -0.139038,1.29014 -0.296814,1.2948 -0.188172,0 -0.310852,0.29453 -0.306152,0.6405 0.0046,0.3458 -0.149598,0.6263 -0.306214,0.6263 -0.190491,0.005 -0.308472,0.50954 -0.300293,1.1126 0.007,0.5936 -0.141418,1.10776 -0.299194,1.10776 -0.190491,0.005 -0.313172,0.22434 -0.309693,0.47681 0.01056,0.72923 -1.423339,2.0708 -2.584961,2.44003 -0.58197,0.17764 -1.841676,0.2852 -3.246339,0.30386 -1.403504,0.0187 -2.950746,-0.0421 -4.105346,-0.20106 -1.676942,-0.19164 -3.30365,-1.34154 -3.31769,-2.3512 -0.0035,-0.2524 -0.163573,-0.4674 -0.32251,-0.4674 -0.18817,0.005 -0.31787,-0.2197 -0.32135,-0.4675 -0.0035,-0.25246 -0.164794,-0.47207 -0.32373,-0.47207 -0.18817,0.005 -0.31787,-0.21508 -0.32135,-0.46753 -0.0035,-0.2523 -0.163635,-0.47204 -0.32373,-0.47204 -0.18695,0.005 -0.33423,-1.34631 -0.363403,-3.43106 -0.04443,-3.18796 -0.112183,-3.4685 -0.68134,-3.6507 -0.181091,-0.0468 -0.345887,-0.13565 -0.462767,-0.2338 h -0.153077 l -49.760513,19.4879 h 0.1543 c -0.424194,0.5563 -0.753784,1.2854 -1.01782,2.2063 -0.71985,2.4728 -0.697634,4.05276 0.03381,4.58095 0.320314,0.21509 1.23645,0.38795 2.08838,0.37865 1.54602,-0.0187 4.050415,0.72914 4.058594,1.234 0.0023,0.15896 0.224366,0.2852 0.476806,0.2852 0.69531,-0.0141 2.97168,2.37925 3.17383,3.3562 0.5061,2.2297 0.548094,3.01976 0.2489,4.16026 -0.32837,1.32754 -2.28223,3.83301 -3.009155,3.84241 -0.252319,0.005 -0.653195,0.54223 -0.89978,1.17798 -0.546875,1.39295 -1.600955,2.63635 -2.201661,2.64575 -0.220824,0 -0.409054,0.1074 -0.406614,0.229 0.0023,0.15894 -0.46631,0.57495 -1.028444,0.9863 -0.737426,0.50955 -2.083616,0.78995 -3.337526,0.804 -1.190794,0.0187 -2.297484,-0.19167 -2.71936,-0.6498 -0.32141,-0.3458 -0.7677,-0.6217 -1.01904,-0.61694 -0.22083,0.005 -0.41248,-0.1543 -0.4148,-0.31326 -0.0023,-0.187 -0.28747,-0.30844 -0.604245,-0.3038 -0.662595,0.009 -1.943359,-1.36023 -1.953855,-2.0521 -0.0023,-0.2244 -0.39502,-1.1032 -0.848391,-1.9118 -0.71289,-1.32285 -0.81336,-1.7623 -0.68018,-3.562 0.0759,-1.1405 0.1543,-2.33714 0.18238,-2.6877 0.0268,-0.346 -0.0958,-2.27176 -0.25013,-4.25845 -0.23254,-3.02905 -0.18115,-3.84705 0.24427,-5.0531 0.27221,-0.78992 0.752561,-2.53345 1.016601,-3.86108 0.29687,-1.33677 0.68957,-2.65967 0.90686,-2.91677 0.34131,-0.4161 0.27588,-0.5422 -0.48499,-0.81334 -0.42883,-0.16836 -1.158081,-0.27586 -1.690911,-0.26646 -0.0619,0 -0.11927,0 -0.1753,0.005 -0.3927,0.0327 -0.74206,0.0468 -1.05761,0.0514 -1.38245,0.0188 -2.09644,-0.2057 -2.77076,-0.818 -0.48144,-0.43003 -1.05407,-0.7712 -1.2749,-0.7666 -0.22095,0.005 -0.92908,-0.9021 -1.57532,-1.9679 -1.00268,-1.79026 -1.13708,-2.2578 -1.16516,-4.2771 -0.0187,-1.29954 -0.22778,-2.73923 -0.52112,-3.40305 -0.84729,-1.91651 -0.68249,-3.65065 0.72339,-9.09645 0.62989,-2.31847 2.10462,-5.1465 3.28723,-6.30114 0.93494,-0.86476 1.52967,-1.15456 2.88416,-1.36022 0.94543,-0.11219 2.26709,-0.4441 2.957761,-0.67774 0.72339,-0.2711 3.64136,-0.6498 6.62708,-0.9303 h 0.15552 q 5.956295,-1.1312 13.37702,-2.2623 10.78387,-1.66885 39.00458,-5.4179 h 0.154235 c 0.04328,-0.416 0.03858,-1.0891 0.02338,-2.1689 -0.02453,-1.6781 0.08765,-2.8467 0.274664,-2.85146 0.160096,0 0.312011,-0.28979 0.307312,-0.63564 -0.0046,-0.3459 0.118042,-0.62644 0.306214,-0.6311 0.157714,0 0.31317,-0.229 0.30963,-0.4814 -0.0035,-0.25247 0.119202,-0.4722 0.308533,-0.47683 0.188172,0 0.289797,-1.79967 0.247742,-4.73523 -0.04089,-2.93554 0.06079,-4.73524 0.247742,-4.73987 0.160093,0 0.314393,-0.19167 0.310853,-0.44407 -0.0035,-0.25246 0.276976,-0.5702 0.622862,-0.6685 0.344728,-0.1074 0.626404,-0.3271 0.624024,-0.48606 -0.0023,-0.16358 0.279297,-0.38331 0.625244,-0.48624 0.816834,-0.2663 0.79578,-1.65476 -0.03509,-2.3653 -0.414857,-0.3412 -1.461915,-0.60305 -2.85022,-0.7199 -1.612672,-0.1355 -2.21448,-0.3132 -2.21918,-0.65903 -0.0035,-0.24781 -0.164793,-0.43467 -0.32135,-0.43467 -0.19049,0.005 -0.32019,-0.2852 -0.32489,-0.6311 -0.0059,-0.3506 -0.167113,-0.6264 -0.32489,-0.6264 -0.18927,0.005 -0.32019,-0.2805 -0.324828,-0.62644 -0.0047,-0.34582 0.117981,-0.63096 0.306153,-0.63562 0.158935,0 0.312011,-0.35058 0.304992,-0.79467 -0.0059,-0.43947 0.113343,-0.78527 0.303833,-0.79007 0.156616,0 0.314392,-0.1916 0.310852,-0.4487 -0.0093,-0.59363 0.682495,-0.8274 2.575623,-0.85535 1.599855,-0.0235 2.313843,-0.42542 2.423705,-1.41175 l 0.154237,-0.005 q -0.891663,-0.76197 -1.598633,-1.41177 h 0.155396 c -0.766602,-0.46274 -1.842896,-1.3835 -2.307984,-1.99595 l 0.155394,-0.005 q -0.06427,-0.07 -0.12152,-0.14024 -0.84253,-0.99561 -1.16974,-1.76696 -0.335386,-0.7478 -0.30737,-1.636 0.007,-0.2992 0.07599,-0.6918 -0.01288,-0.0188 0.309633,-1.39304 0.06311,-0.32251 0.06897,-0.54686 0.01172,-0.21974 -0.02802,-0.57496 -0.215026,-1.36964 -0.213867,-1.52854 -0.03857,-0.4347 0.0012,-0.8648 0.07477,-0.78525 0.486144,-1.46775 0.989808,-1.66885 5.210816,-3.77235 l 0.250061,-0.005 -13.888857,-6.10464 h 0.154234 q -2.608337,-0.17296 -4.691954,-0.21973 l -0.155458,0.005 c -0.0093,0.009 -0.021,0.0186 -0.03271,0.0281 -0.281617,0.30845 -0.487304,0.45815 -0.621704,0.46275 -0.132019,0 -0.193969,-0.1449 -0.198608,-0.42064 0,-0.0329 -0.0047,-0.0656 -0.01288,-0.0889 h 0.154235 q -1.135862,-0.0187 -2.142028,0 -0.58429,0.005 -1.123047,0.0187 h -0.03388 q -0.891662,0.014 -5.736694,0.3132 -0.905698,0.042 -1.625548,0.0514 h -0.17761 q -1.9469,0.0233 -3.166935,-0.2617 -2.105835,-0.46755 -3.429871,-2.1549 -0.113344,-0.13565 -0.226684,-0.2946 l 0.153076,-0.005 c -2.164246,-0.1403 -8.446656,-0.173 -19.343996,-0.0843 -18.144904,0.0935 -20.135014,0.0562 -21.563124,-0.45801 -2.75793,-0.93494 -3.01379,-1.0658 -3.02087,-1.57068 -0.005,-0.31311 -0.28979,-0.46276 -0.85767,-0.45336 -0.56799,0.005 -1.20483,-0.402 -2.03808,-1.2388 -0.672,-0.68235 -1.34156,-1.2434 -1.46777,-1.2434 -0.28626,-0.0279 -3.78626,-4.3004 -4.37061,-5.36156 -0.19287,-0.41124 -0.71289,-1.15454 -1.09729,-1.68738 -0.38684,-0.52832 -0.80872,-1.35096 -0.94312,-1.88376 -0.13317,-0.5049 -0.58777,-1.3136 -1.00268,-1.78103 -0.38794,-0.50012 -0.74439,-1.1593 -0.74903,-1.50513 -0.006,-0.34594 -0.39733,-1.41638 -0.85314,-2.38404 -0.48841,-1.00963 -1.05164,-2.9542 -1.32862,-4.5903 -0.24426,-1.6127 -0.651,-3.62734 -0.88355,-4.4734 -0.56786,-2.16896 -0.47668,-13.5652 0.27003,-29.8323 0.24304,-5.1465 0.33191,-5.68407 1.21765,-7.65196 0.672,-1.52394 1.32165,-2.44944 2.32092,-3.25344 1.34265,-1.06114 1.8136,-1.2247 5.37207,-1.71556 1.4502,-0.17764 1.76221,-0.3739 2.28687,-1.22934 0.30859,-0.54227 0.48852,-1.2107 0.38916,-1.46304 -0.0982,-0.2478 -0.41126,-2.44946 -0.70118,-4.88013 -0.28625,-2.42603 -0.73388,-5.04373 -0.99682,-5.82433 -0.26294,-0.7853 -0.74548,-3.6227 -1.03528,-6.30116 -0.29102,-2.67384 -0.77478,-5.70288 -1.01086,-6.70788 -0.2677,-1.00501 -0.68372,-3.71143 -0.90686,-5.98792 -0.22083,-2.2998 -0.70472,-5.23074 -1.03772,-6.51614 -0.36463,-1.29013 -0.82044,-4.3425 -1.07508,-6.7733 -0.25828,-2.64104 -0.66966,-4.97356 -1.03074,-5.8571 -0.29456,-0.77588 -0.69886,-2.60828 -0.84607,-4.05274 -0.18701,-2.11743 -0.38562,-2.70642 -0.92908,-3.10852 -2.99744,-2.26709 -4.07141,-4.52478 -3.44739,-7.28271 0.53528,-2.33728 1.31348,-3.10853 3.57947,-3.48719 0.93249,-0.18224 2.72754,-0.33178 4.22681,-0.35058 0.17187,0 0.33899,-0.005 0.50134,0 1.57995,-0.0233 3.2511,-0.17286 3.78393,-0.40198 0.50135,-0.22436 1.91541,-0.65906 3.14124,-0.99098 3.99316,-1.1312 4.87195,-1.45836 5.02271,-1.96324 0.21032,-0.70116 0.19042,-2.02406 -0.0444,-5.36621 -0.23608,-3.24878 0.34131,-9.31617 1.06812,-11.34485 0.21154,-0.63574 0.63574,-1.9353 0.87524,-2.91687 0.2688,-0.94898 0.76087,-2.02869 1.10327,-2.34656 0.34229,-0.31787 0.62049,-0.73853 0.61817,-0.89282 -0.007,-0.47681 2.88879,-3.29553 3.92187,-3.85169 0.50244,-0.25244 1.60193,-0.55626 2.45154,-0.69189 0.85071,-0.11217 1.98193,-0.50012 2.513674,-0.82739 0.53174,-0.35523 1.597536,-0.8086 2.38513,-1.01428 0.78418,-0.22913 1.63135,-0.6217 1.94336,-0.8788 0.28052,-0.25243 1.25281,-0.67785 2.194705,-0.93957 0.913815,-0.2384 2.357055,-0.83203 3.203125,-1.27613 0.84497,-0.45812 1.785644,-0.81798 2.039184,-0.82274 0.284056,-0.005 1.131226,-0.46276 1.88147,-0.98156 0.750246,-0.54225 1.629026,-0.96766 1.911866,-0.9723 0.285156,0 0.78418,-0.2898 1.064575,-0.60767 0.559815,-0.61243 2.694825,-1.33691 4.08435,-1.35559 0.629885,-0.009 0.84729,-0.26648 1.271485,-1.56128 0.27228,-0.8601 0.66962,-1.75293 0.91968,-1.93994 0.2489,-0.22436 0.52472,-0.86012 0.64276,-1.46302 0.08527,-0.60302 0.605284,-1.7202 1.09961,-2.50548 0.45343,-0.72462 0.793516,-1.12659 1.252744,-1.39307 l 0.154296,-0.005 c 0.01166,-0.0981 0.02222,-0.17296 0.03156,-0.229 0.14605,-1.26684 0.31433,-3.86108 0.35174,-5.427 0.03736,-2.08947 -0.28631,-3.42175 -1.29248,-5.3429 -0.69885,-1.34154 -1.21771,-2.13158 -2.939085,-4.5155 -2.455195,-3.40313 -2.787105,-3.99212 -3.757075,-6.54437 -1.61621,-4.2724 -2.39099,-8.44201 -2.33252,-12.51339 0.06775,-4.44074 1.217654,-8.62904 3.349246,-12.20496 3.651909,-6.1235 10.031304,-10.39126 18.246634,-12.17691 0.07361,-0.0187 0.14606,-0.0421 0.218507,-0.0514 1.759949,-0.3833 2.932068,-0.57031 4.883606,-0.7713 0.625244,-0.0701 3.282654,-0.17291 4.503847,-0.18695 z" />
    </g>
  </g>
</svg>
