<?xml version="1.0" encoding="UTF-8" standalone="no"?>
<!-- Created with Inkscape (http://www.inkscape.org/) -->

<svg
   xmlns:dc="http://purl.org/dc/elements/1.1/"
   xmlns:cc="http://creativecommons.org/ns#"
   xmlns:rdf="http://www.w3.org/1999/02/22-rdf-syntax-ns#"
   xmlns:svg="http://www.w3.org/2000/svg"
   xmlns="http://www.w3.org/2000/svg"
   xmlns:sodipodi="http://sodipodi.sourceforge.net/DTD/sodipodi-0.dtd"
   xmlns:inkscape="http://www.inkscape.org/namespaces/inkscape"
   width="16.21538mm"
   height="28.869841mm"
   viewBox="0 0 16.21538 28.869841"
   version="1.1"
   id="svg862"
   inkscape:version="0.92.4 (5da689c313, 2019-01-14)"
   sodipodi:docname="woman with laptop sitting on office chair.svg">
  <defs
     id="defs856" />
  <sodipodi:namedview
     id="base"
     pagecolor="#ffffff"
     bordercolor="#666666"
     borderopacity="1.0"
     inkscape:pageopacity="0.0"
     inkscape:pageshadow="2"
     inkscape:zoom="3.959798"
     inkscape:cx="-42.684751"
     inkscape:cy="43.21215"
     inkscape:document-units="mm"
     inkscape:current-layer="layer1"
     showgrid="false"
     fit-margin-top="0"
     fit-margin-left="0"
     fit-margin-right="0"
     fit-margin-bottom="0"
     inkscape:window-width="1920"
     inkscape:window-height="1048"
     inkscape:window-x="0"
     inkscape:window-y="0"
     inkscape:window-maximized="1" />
  <metadata
     id="metadata859">
    <rdf:RDF>
      <cc:Work
         rdf:about="">
        <dc:format>image/svg+xml</dc:format>
        <dc:type
           rdf:resource="http://purl.org/dc/dcmitype/StillImage" />
        <dc:title></dc:title>
      </cc:Work>
    </rdf:RDF>
  </metadata>
  <g
     inkscape:label="Ebene 1"
     inkscape:groupmode="layer"
     id="layer1"
     transform="translate(-97.725643,-134.39841)">
    <g
       transform="matrix(0.26458333,0,0,0.26458333,97.725643,133.95927)"
       id="g841">
      <path
         inkscape:connector-curvature="0"
         id="path835"
         d="m 54.514763,27.31202 c -0.0366,0 -0.0732,0.0366 -0.0732,0.0806 0,0.0249 0.0169,0.0396 0.0392,0.0396 0.0105,0 0.0222,-0.003 0.034,-0.0103 0.0439,-0.022 0.0732,-0.0586 0.0732,-0.0806 0,-0.0147 -0.0293,-0.0293 -0.0732,-0.0293 z"
         style="fill:#000000;fill-opacity:1;stroke-linejoin:miter" />
      <path
         inkscape:connector-curvature="0"
         id="path833"
         d="m 55.679533,59.39731 c 0.0748,0 0.1481,0.0199 0.2122,0.0607 0.0659,0.0439 0.0806,0.13915 0.0513,0.32227 -0.044,0.2124 -0.0293,0.27832 0.0659,0.31494 0.0806,0.0293 0.10987,0.12451 0.10253,0.30762 -0.022,0.43945 0.16847,2.09472 0.25636,2.19726 0.0439,0.0586 0.11719,0.40283 0.16846,0.76906 0.0513,0.37352 0.12451,0.80565 0.17578,0.96678 0.0439,0.16112 0.1172,0.58594 0.14648,0.95215 0.0366,0.35889 0.10987,0.84229 0.16114,1.06201 0.0513,0.21973 0.0879,0.73976 0.0879,1.15723 0,0.79833 -0.0366,0.89355 -0.3662,0.89355 -0.1831,0 -0.24903,-0.12452 -0.24903,-0.46142 0,-0.13184 -0.0586,-0.35156 -0.13917,-0.49072 -0.0732,-0.13918 -0.16112,-0.40284 -0.19042,-0.58594 -0.0293,-0.18311 -0.10986,-0.43214 -0.1831,-0.54932 -0.0733,-0.12452 -0.14648,-0.35889 -0.16846,-0.53467 -0.022,-0.17578 -0.0879,-0.37353 -0.15382,-0.44677 -0.0659,-0.0733 -0.13915,-0.29298 -0.16112,-0.49073 -0.022,-0.19775 -0.10988,-0.44677 -0.18311,-0.55665 -0.0732,-0.10985 -0.13917,-0.30028 -0.13917,-0.4248 0,-0.11718 -0.0659,-0.28564 -0.13915,-0.35888 -0.0806,-0.0806 -0.16845,-0.27099 -0.19043,-0.4248 -0.0293,-0.15382 -0.10986,-0.35889 -0.17578,-0.46142 -0.0732,-0.10255 -0.15381,-0.3589 -0.1831,-0.5713 -0.0293,-0.21972 -0.11719,-0.5127 -0.19044,-0.65918 -0.0806,-0.14648 -0.14648,-0.38818 -0.14648,-0.53467 0,-0.1538 -0.0586,-0.34423 -0.14648,-0.4541 -0.18994,-0.24105 -0.20499,-0.78088 -0.0234,-0.78369 h 0.003 c 0.0664,9.8e-4 0.1969,0.0666 0.28414,0.15381 0.08,0.0762 0.1224,0.11276 0.19825,0.11276 0.07,0 0.16837,-0.0311 0.35108,-0.0908 0.21972,-0.0659 0.46142,-0.1831 0.54199,-0.25634 0.0926,-0.0882 0.2092,-0.13395 0.32248,-0.13395 z"
         style="fill:#000000;fill-opacity:1;stroke-linejoin:miter" />
      <path
         inkscape:connector-curvature="0"
         id="path827"
         d="m 58.909693,101.31061 0.0102,0.009 -0.0443,-0.005 h -0.003 c 0.0111,-0.001 0.0225,-0.003 0.0341,-0.004 z"
         style="fill:#000000;fill-opacity:1;stroke-linejoin:miter" />
      <path
         inkscape:connector-curvature="0"
         id="path2"
         d="m 47.727233,1.65992 c -0.3039,0 -0.3711,0.0348 -0.46344,0.12719 -0.0733,0.0806 -0.18311,0.19043 -0.23438,0.23438 -0.22705,0.2124 -0.33691,0.35889 -0.38086,0.50537 -0.022,0.0806 -0.13916,0.25635 -0.24902,0.38086 -0.21973,0.24902 -0.32227,0.43214 -0.4248,0.78369 -0.0659,0.20508 -0.0952,0.21973 -0.4541,0.2417 -0.0467,0.002 -0.0896,0.003 -0.1295,0.003 -0.2293,0 -0.36263,-0.0398 -0.58096,-0.16452 -0.17578,-0.10987 -0.40284,-0.19042 -0.49804,-0.19042 -0.10254,0 -0.542,-0.0659 -0.98877,-0.13917 -0.47533,-0.0836 -0.79798,-0.11873 -1.32386,-0.11873 -0.21147,0 -0.45584,0.006 -0.75622,0.0162 -0.81299,0.022 -1.34765,0.0732 -1.48682,0.13182 -0.11719,0.0513 -0.37353,0.11718 -0.56396,0.14648 -0.19043,0.0293 -0.38087,0.0952 -0.42481,0.15382 -0.0513,0.0513 -0.20508,0.13183 -0.35156,0.1831 -0.14648,0.0513 -0.35156,0.14648 -0.44678,0.21973 -0.0952,0.0806 -0.2124,0.13915 -0.25634,0.13915 -0.0806,0 -0.32958,0.16114 -0.73975,0.47608 -0.0806,0.0659 -0.27833,0.21242 -0.43945,0.32959 -0.58594,0.41748 -1.10596,0.92286 -1.39161,1.34766 -0.49804,0.73242 -0.77637,1.33301 -0.76171,1.6333 0.007,0.10987 -0.0293,0.30029 -0.0733,0.42481 -0.13182,0.32226 -0.249,1.7871 -0.2783,3.55224 l -0.0293,1.56738 0.271,0.84229 c 0.21972,0.68848 0.25634,0.91553 0.22704,1.24512 -0.0659,0.68847 -0.20508,1.42089 -0.32226,1.64063 -0.14648,0.30028 -0.16846,1.49413 -0.0293,1.58935 0.0586,0.0366 0.32227,0.10255 0.57862,0.15381 0.40283,0.0806 0.49804,0.13184 0.6079,0.32226 0.0806,0.13184 0.13916,0.35888 0.13916,0.55664 0,0.37354 0.15381,0.57862 0.43214,0.57862 0.61523,0 0.93017,0.6958 0.61523,1.3623 -0.11719,0.2417 -0.11719,0.26367 -0.007,0.32959 0.44678,0.24903 0.7251,0.62256 0.82764,1.09131 0.0293,0.13916 0.13916,0.38086 0.24902,0.52734 0.23212,0.32608 0.51844,0.46866 1.03522,0.46866 0.16806,0 0.36052,-0.0151 0.58344,-0.0438 0.70251,-0.09 1.05428,-0.12979 1.27804,-0.12979 0.15881,0 0.25311,0.0201 0.36258,0.0565 0.30029,0.0952 0.6958,0.47608 0.9668,0.93018 0.10254,0.16846 0.32959,0.53467 0.51269,0.80566 0.43947,0.66651 0.42481,0.7837 -0.11718,1.21582 -0.2417,0.19043 -0.5127,0.37354 -0.60791,0.41016 -0.0952,0.0366 -0.29297,0.23438 -0.43946,0.43213 -0.14648,0.19775 -0.38818,0.4834 -0.53468,0.64453 -0.3369,0.37354 -0.65184,0.82031 -0.72508,1.05469 -0.0293,0.10255 -0.11719,0.30029 -0.19042,0.43945 -0.0806,0.13916 -0.13917,0.32227 -0.13917,0.40283 0,0.0806 -0.0659,0.2417 -0.14649,0.36621 -0.0806,0.11719 -0.14648,0.271 -0.14648,0.33692 0,0.0659 -0.16113,0.26367 -0.36621,0.43214 -0.32227,0.2783 -0.36621,0.34423 -0.36621,0.60057 0,0.16113 -0.0366,0.35889 -0.0806,0.43946 -0.0513,0.0879 -0.10987,0.40283 -0.14647,0.70312 -0.0366,0.30762 -0.10988,0.60059 -0.1758,0.66651 -0.0586,0.0732 -0.14648,0.23437 -0.19043,0.36621 -0.0513,0.13183 -0.2124,0.46875 -0.36621,0.74707 -0.15381,0.28564 -0.30029,0.58593 -0.32959,0.67382 -0.022,0.0879 -0.0732,0.19776 -0.10987,0.23438 -0.0293,0.044 -0.1831,0.32226 -0.34423,0.62256 -0.15381,0.3003 -0.38087,0.71045 -0.49072,0.91553 -0.58595,1.04737 -1.06201,2.04345 -1.06201,2.21923 0,0.10987 -0.0366,0.31494 -0.0806,0.45411 -0.0366,0.13916 -0.11719,0.73973 -0.16847,1.333 -0.0659,0.70313 -0.1538,1.2085 -0.249,1.46485 -0.1831,0.47608 -0.38087,1.3916 -0.38087,1.74316 0,0.13916 -0.0659,0.58594 -0.13916,0.98877 -0.0806,0.40283 -0.19775,1.1792 -0.26367,1.73585 -0.0586,0.5493 -0.16113,1.13524 -0.21973,1.3037 -0.0586,0.16846 -0.12451,0.52002 -0.15381,0.79102 -0.0513,0.50538 -0.2417,1.02538 -0.49804,1.31103 -0.0949,0.11135 -0.2757,0.17163 -0.42734,0.17163 -0.11762,0 -0.21768,-0.0362 -0.24648,-0.11303 -0.0586,-0.14649 -0.63722,-0.41015 -1.0547,-0.47608 -0.1831,-0.0366 -0.40283,-0.0806 -0.49072,-0.10987 -0.028,-0.01 -0.0556,-0.0151 -0.0828,-0.0151 -0.0724,0 -0.14297,0.0358 -0.21745,0.11032 -0.0733,0.0733 -0.21974,0.16114 -0.31496,0.19043 -0.0952,0.022 -0.24169,0.15381 -0.32226,0.27832 -0.0806,0.13183 -0.26368,0.30763 -0.40283,0.40283 -0.13915,0.0879 -0.44678,0.29297 -0.68115,0.46143 -0.22706,0.16113 -0.50538,0.29297 -0.60792,0.29297 -0.30761,0 -1.65528,0.21973 -1.875,0.3003 -0.10986,0.0439 -0.2124,0.1245 -0.23438,0.17577 -0.0146,0.0513 -0.16112,0.13916 -0.31493,0.18311 -0.49072,0.16112 -0.95947,0.43212 -1.01074,0.57862 -0.0293,0.0952 -0.13916,0.16845 -0.30763,0.19775 -0.0643,0.0117 -0.1147,0.0187 -0.15725,0.0187 -0.11719,0 -0.1752,-0.0533 -0.30417,-0.20916 -0.15828,-0.19455 -0.4086,-0.28815 -0.64668,-0.28815 -0.2908,0 -0.5633,0.13956 -0.62773,0.40533 -0.0366,0.12452 -0.0952,0.1758 -0.22705,0.1758 -0.10254,0 -0.18312,-0.0366 -0.18312,-0.0733 0,-0.0439 -0.0513,-0.0732 -0.10985,-0.0732 -0.0586,0 -0.10985,-0.0513 -0.10985,-0.10986 0,-0.0586 -0.044,-0.10986 -0.10255,-0.10986 -0.12451,0 -0.90088,0.60058 -1.04737,0.80566 -0.0586,0.0806 -0.14648,0.14648 -0.19043,0.14648 -0.0513,0 -0.13183,0.0659 -0.17578,0.13916 -0.0513,0.0806 -0.19043,0.16114 -0.30761,0.19042 -0.12452,0.0293 -0.29296,0.13185 -0.37354,0.2344 -0.18312,0.23436 -0.73242,0.38817 -1.39162,0.38817 -0.33691,0 -0.53466,0.0366 -0.65918,0.12451 -0.19775,0.13916 -1.27441,0.23438 -3.12012,0.27832 -0.52734,0.0147 -1.1499,0.0586 -1.38427,0.10254 -0.099,0.0186 -0.21243,0.0358 -0.32144,0.0496 v 0 l -7.9000599,-17.62698 -0.004,-0.009 -5.13857002,2.59247 q -0.0445,0.002 -0.0112,0.0472 L 5.2991931,52.50034 h -0.002 c 0.0437,0.1 0.0876,0.2 0.13159,0.30004 0.2417,0.54199 0.62256,1.43554 0.85694,1.97754 0.22705,0.54199 0.46875,1.10595 0.52734,1.24512 0.0659,0.13915 0.32959,0.74706 0.58594,1.35497 0.26367,0.60059 0.59326,1.36231 0.73242,1.68457 0.44678,1.0254 0.73242,1.75049 0.78369,1.99219 0.0439,0.19777 0.0146,0.26367 -0.27099,0.56397 -0.23438,0.2417 -0.35889,0.43945 -0.42481,0.70312 -0.0659,0.271 -0.15381,0.40283 -0.30762,0.50538 -0.47607,0.3003 -1.25976,1.16454 -1.50879,1.6699 -0.13916,0.271 -0.30029,0.59328 -0.36621,0.7178 -0.10254,0.1831 -0.11718,0.55663 -0.11718,2.41698 0,1.94824 0.0146,2.22656 0.12451,2.43164 0.0732,0.12451 0.15381,0.42481 0.17578,0.65918 0.0293,0.23438 0.0952,0.6079 0.15381,0.82764 0.0586,0.21972 0.13183,0.94482 0.17578,1.61133 0.0366,0.6665 0.11719,1.3916 0.17578,1.61133 0.0586,0.21972 0.13916,0.71044 0.18311,1.0913 0.0439,0.38086 0.10986,0.74707 0.14648,0.813 0.0366,0.0659 0.10254,0.35155 0.14648,0.62987 0.0439,0.27833 0.12452,0.59327 0.18311,0.71045 0.0513,0.10988 0.13916,0.38818 0.18311,0.62256 0.0513,0.22705 0.13183,0.49805 0.1831,0.60059 0.0513,0.10253 0.11719,0.32226 0.14649,0.47607 0.0293,0.16113 0.10986,0.4541 0.1831,0.65918 0.2417,0.68118 0.37353,1.09863 0.52002,1.61133 0.35889,1.23779 0.43213,1.47949 0.53467,1.75781 0.0586,0.16114 0.10986,0.39554 0.11719,0.5127 0,0.12451 0.0513,0.30029 0.11718,0.3955 0.0659,0.0879 0.16114,0.35154 0.21241,0.57864 0.0513,0.227 0.14648,0.56394 0.20507,0.74705 0.2709999,0.82765 0.4101599,1.3916 0.4541099,1.83105 0.0293,0.25635 0.0952,0.59326 0.1538,0.7471 0.0513,0.14646 0.11719,0.51267 0.13916,0.80564 0.0293,0.29296 0.0806,0.70312 0.11719,0.9082 0.10986,0.56396 -0.0293,1.03272 -0.64453,2.18996 -0.3076199,0.56395 -0.5859399,1.062 -0.6225599,1.11326 -0.0659,0.0805 -0.57128,1.01074 -0.84228,1.56004 -0.0733,0.1392 -0.17578,0.3003 -0.21973,0.3516 -0.0513,0.0513 -0.11719,0.13914 -0.14648,0.1904 -0.0806,0.1172 -1.14259,0.40285 -1.99219,0.52736 -0.6665,0.0952 -0.95947,0.22704 -0.95947,0.43214 0,0.0513 -0.14649,0.249 -0.32959,0.44676 -0.37459,0.41028 -0.63102,0.71454 -0.78876,0.93734 h -0.002 q -2.10439,1.31407 -0.71041,3.7208 0.18731,0.2705 0.43528,0.42005 0.25598,0.1648 0.86909,0.35541 0.12261,0.17364 0.28647,0.22857 0.9767,0.18512 1.99922,0.31531 0.91681,0.12216 1.73001,0.12216 1.5633899,0 2.7438099,-0.45144 1.09651,-0.42056 1.60811,-1.08771 0.19455,-0.24815 0.33258,-0.5943 l 0.14648,-0.4483 h -0.002 c 0.0809,-0.0793 0.11531,-0.17945 0.10399,-0.30285 h -0.002 l 0.20208,-0.6185 q 0.17137,-0.3525 0.44434,-0.6034 0.22801,-0.21573 0.62123,-0.4487 0.0768,-0.0703 1.77801,-0.9324 l 0.26311,-0.16373 h 0.003 c 0.0179,0.0187 0.0357,0.04 0.0545,0.0644 0.13915,0.17578 0.14648,0.29294 0.14648,1.50144 0.007,0.8643 -0.0293,1.46487 -0.0952,1.7505 l -0.10254,0.43214 0.3003,0.27832 0.30029,0.271 0.0879,-0.21973 c 0.0513,-0.13183 0.10254,-0.9668 0.13184,-2.14599 0.0366,-1.45754 0.0732,-1.97754 0.1538,-2.13134 0.0586,-0.1099 0.12452,-0.3369 0.15381,-0.5054 0.0366,-0.2124 0.19043,-0.4907 0.52735,-0.9375 0.25636,-0.35155 0.50538,-0.7397 0.54933,-0.86424 0.0439,-0.11716 0.10987,-0.2417 0.15381,-0.271 0.12451,-0.0806 0.0806,-0.97412 -0.0586,-1.17186 -0.16114,-0.21974 -0.14648,-0.5127 0.0293,-0.8423 0.40283,-0.74707 -0.0293,-1.88965 -1.09132,-2.9004 -0.24902,-0.23436 -0.44678,-0.4541 -0.44678,-0.4907 0,-0.1126 -0.25434,-0.2253 -0.4406,-0.2253 -0.0439,0 -0.0839,0.006 -0.11604,0.0202 -0.0659,0.0308 -0.13898,0.045 -0.21163,0.045 -0.1697,0 -0.33694,-0.0779 -0.40361,-0.20615 -0.1831,-0.34426 -0.24902,-1.8164 -0.16113,-3.479 0.0513,-0.8936 0.12451,-1.73587 0.16113,-1.875 0.0439,-0.13186 0.12452,-0.8643 0.18311,-1.6187 0.0586,-0.7544 0.13916,-1.582 0.17578,-1.83103 0.044,-0.25635 0.10986,-0.98877 0.15381,-1.6333 0.0366,-0.64453 0.10986,-1.35497 0.16114,-1.57471 0.11718,-0.50536 0.1245,-2.40966 0.007,-2.85646 -0.0513,-0.1831 -0.10987,-0.48338 -0.13184,-0.68114 -0.0293,-0.2124 -0.0806,-0.34424 -0.13916,-0.34424 -0.0952,0 -0.271,-0.53466 -0.38086,-1.13525 -0.0293,-0.16113 -0.0952,-0.39551 -0.15381,-0.52734 -0.13183,-0.32227 -0.12451,-0.71778 0.0293,-0.83497 0.0743,-0.0629 0.28677,-0.0856 0.91574,-0.0856 0.1772,0 0.38747,0.002 0.63699,0.005 0.83498,0.0146 1.47219,0.0586 1.53078,0.10254 0.0513,0.0513 0.0879,0.26366 0.0879,0.56396 0,0.6958 0.22705,1.13526 0.79102,1.5088 0.22705,0.1538 0.51269,0.34423 0.6372,0.43212 0.15381,0.10254 0.39551,0.16113 0.80567,0.19775 0.32226,0.0293 0.71776,0.10253 0.8789,0.16113 0.20508,0.0879 0.54932,0.1172 1.17188,0.1172 1.32568,0.007 3.91846,0.14648 4.87061,0.271 0.46142,0.0586 1.17187,0.10253 1.58203,0.10253 0.13006,0 0.24359,-0.002 0.3425,-0.002 0.72524,0 0.66414,0.10208 0.58034,1.80366 -0.0439,0.8789 -0.11718,1.70653 -0.16112,1.82372 -0.0513,0.12451 -0.10254,0.57861 -0.10988,1.01074 -0.0293,0.87891 -0.0732,1.22314 -0.22704,1.77246 -0.0513,0.19776 -0.13183,1.02538 -0.17578,1.83108 -0.0439,0.80564 -0.10986,1.582 -0.14648,1.72117 -0.10987,0.35153 -0.21973,2.42433 -0.13916,2.5708 0.0439,0.0952 0.25634,0.12453 1.06933,0.16113 0.55663,0.0293 1.24513,0.0952 1.52343,0.16113 0.26167,0.0561 0.5412,0.0794 1.08396,0.0794 0.30802,0 0.70078,-0.007 1.22318,-0.0208 0.58169,-0.0153 0.97781,-0.0245 1.25201,-0.0245 0.50949,0 0.59809,0.0315 0.67425,0.11235 0.12452,0.1172 0.13184,0.2637 0.0952,1.82375 -0.022,0.93015 -0.0366,2.00685 -0.0366,2.38769 l -0.007,0.6958 -1.29638,-0.0366 c -0.71778,-0.022 -1.355,-0.0586 -1.41358,-0.0879 -0.0586,-0.022 -1.77979,-0.59323 -3.82325,-1.27443 -2.51019,-0.8281 -3.4787,-1.15837 -3.93155,-1.15837 -0.31612,0 -0.38095,0.16101 -0.54354,0.42597 l -0.21973,0.35156 -0.007,1.6626 -0.007,1.66259 0.27832,0.28565 c 0.31494,0.32226 0.39551,0.56396 0.29298,0.8496 -0.10987,0.2783 0.14647,0.71046 0.52733,0.91554 0.23437,0.11716 0.3003,0.19776 0.31495,0.37356 0.022,0.227 0.0146,0.23435 -0.40284,0.3149 -0.23437,0.044 -0.57129,0.13185 -0.75439,0.19044 -0.18311,0.0659 -0.59325,0.17576 -0.91553,0.24903 -0.32226,0.0732 -0.64452,0.15383 -0.71045,0.18313 -0.16847,0.0659 -1.20117,0.3076 -1.88965,0.4394 -0.30029,0.0586 -0.71045,0.15383 -0.91552,0.2124 -0.19776,0.0586 -0.52735,0.13186 -0.73243,0.15384 -0.31494,0.044 -0.41015,0.0952 -0.71044,0.41016 -0.41749,0.43944 -0.45411,0.6445 -0.46143,2.37304 0,1.51611 0.0439,1.75781 0.38818,2.1167 0.57129,0.60791 0.74707,0.8789 0.74707,1.15722 0,0.23438 0.0366,0.29297 0.34425,0.49074 0.32226,0.2124 0.38085,0.22704 1.02538,0.22704 0.41016,0 0.77637,-0.0366 0.92285,-0.10254 0.2417,-0.10254 1.00342,-0.76904 1.00342,-0.88623 0,-0.0366 0.0439,-0.11717 0.10255,-0.17577 0.13183,-0.1465 0.4834,-1.355 0.4834,-1.6626 0,-0.1245 -0.044,-0.271 -0.10255,-0.31495 -0.0586,-0.0512 -0.12451,-0.18311 -0.15381,-0.29295 -0.022,-0.1099 -0.13184,-0.25637 -0.26367,-0.3296 -0.28564,-0.16847 -0.44677,-0.4248 -0.41747,-0.68116 0.022,-0.18311 0.0586,-0.21241 0.35155,-0.25634 0.18311,-0.0293 0.54199,-0.0879 0.80567,-0.1245 0.26368,-0.044 0.92285,-0.1172 1.46484,-0.16116 0.54199,-0.0366 1.14258,-0.12451 1.34034,-0.1831 0.19042,-0.0659 0.62255,-0.13914 0.95214,-0.16844 0.37354,-0.0366 0.68116,-0.1099 0.80566,-0.1831 0.10987,-0.0806 0.4541,-0.16116 0.79834,-0.2051 0.33692,-0.0366 0.7544,-0.10986 0.9375,-0.16846 0.18311,-0.0586 0.66651,-0.13914 1.06934,-0.17578 0.41016,-0.044 0.83496,-0.10986 0.95215,-0.16116 0.11719,-0.0439 0.51269,-0.10984 0.87157,-0.14646 0.36622,-0.0439 0.8423,-0.13184 1.06202,-0.19774 0.27832,-0.0806 0.67383,-0.1172 1.28174,-0.1172 0.79102,0 0.91554,0.0146 1.28174,0.19043 0.4834,0.22707 0.62256,0.37354 0.6958,0.71777 0.0293,0.13916 0.0952,0.3296 0.1538,0.4175 0.0513,0.0806 0.13917,0.3149 0.1831,0.5127 0.0513,0.1904 0.1465,0.4687 0.22706,0.6079 0.0732,0.13915 0.13184,0.3369 0.13184,0.43944 0,0.10256 0.0879,0.34426 0.1831,0.54932 0.10254,0.19774 0.1831,0.46144 0.1831,0.57864 0,0.11716 0.0513,0.2783 0.1172,0.3442 0.0659,0.0733 0.14648,0.3369 0.17578,0.5933 0.0293,0.2563 0.10986,0.5859 0.17578,0.7324 0.0659,0.1538 0.11719,0.3296 0.11719,0.4028 0,0.0733 0.0659,0.2564 0.14648,0.4102 0.0806,0.14647 0.14649,0.35155 0.14649,0.44676 0,0.0952 0.0513,0.31494 0.10986,0.4834 0.009,0.024 0.0167,0.0505 0.0244,0.079 h -0.003 q -0.6101,2.5287 -0.22246,3.51385 0.22889,0.71035 0.82459,1.23715 0.66861,0.5924 1.42322,0.7795 0.29648,0.0695 0.58758,0.0695 1.06197,0 2.05252,-0.92514 1.21988,-1.2132 0.83823,-2.45743 -0.0838,-0.27017 -0.26038,-0.56047 h -0.003 c -0.0644,-0.20217 -0.23658,-0.42696 -0.4407,-0.6014 h -0.003 q -0.26145,-0.3013 -0.61023,-0.6217 l -0.45892,-0.41956 q -0.063,-0.0537 -0.1396,-0.0871 -0.10143,-0.0412 -0.2008,-0.0454 h -0.003 q -0.96787,-3.00879 -1.4205,-4.65809 -0.38602,-1.37395 -0.65787,-2.88879 h -0.003 c 0.0665,-0.0218 0.14203,-0.0439 0.22768,-0.0678 0.22652,-0.0614 0.35643,-0.0926 0.53957,-0.0926 0.16619,0 0.37625,0.0258 0.74218,0.078 0.4541,0.0659 1.30371,0.1538 1.88965,0.19776 0.58594,0.0439 1.3916,0.12451 1.79444,0.1831 0.40283,0.0586 1.32568,0.12454 2.05078,0.14649 0.72508,0.0293 1.6333,0.0952 2.01416,0.1538 0.38086,0.0586 1.36962,0.13915 2.19726,0.17579 0.82764,0.044 1.71386,0.10986 1.97754,0.14646 0.26367,0.044 0.74707,0.10256 1.07666,0.13186 0.76904,0.0732 0.86426,0.14648 0.76904,0.64454 -0.0439,0.19774 -0.13183,0.50536 -0.19775,0.68846 -0.13183,0.35889 -0.0952,0.90821 0.0659,1.00344 0.11365,0.0741 0.27395,0.34153 0.37747,0.6089 h -0.003 q 0.003,0.11356 0.0358,0.22446 0.0279,0.0861 0.0716,0.16184 h -0.003 c 0.0361,0.2534 0.0817,0.31734 0.23145,0.3744 0.0597,0.0214 0.15677,0.0327 0.25775,0.0327 0.006,0 0.0123,-4e-5 0.0184,-10e-5 h 0.003 q 0.39735,0.1685 1.62764,0.1685 0.0265,0 0.0534,-4e-5 0.14924,-0.0129 0.26204,-0.0811 h 0.003 c 0.0145,0.0972 0.0522,0.1437 0.12594,0.1437 0.13183,0 0.71778,-0.6592 0.71778,-0.8203 0,-0.0513 0.0733,-0.2344 0.1538,-0.3882 0.13915,-0.24904 0.16115,-0.4248 0.16845,-1.13527 0.007,-0.79833 0,-0.85693 -0.19774,-1.19383 -0.19776,-0.3223 -0.22706,-0.34425 -0.52736,-0.34425 -0.4834,0 -0.55663,-0.10985 -0.65184,-0.98875 -0.0147,-0.16116 -0.0879,-0.4468 -0.15381,-0.6372 -0.15381,-0.42483 -0.53467,-0.67386 -1.13525,-0.7471 -0.21973,-0.0293 -0.56397,-0.0952 -0.76905,-0.1538 -0.19775,-0.0513 -0.61523,-0.1172 -0.91552,-0.1465 -0.3003,-0.0293 -0.84229,-0.10986 -1.2085,-0.1831 -0.35889,-0.0732 -0.92285,-0.1538 -1.24513,-0.1831 -0.32225,-0.022 -0.74706,-0.0879 -0.95214,-0.1465 -0.19776,-0.0513 -0.56396,-0.1172 -0.80566,-0.1465 -0.82764,-0.0879 -2.417,-0.32956 -3.07617,-0.47605 -0.35889,-0.0732 -1.04737,-0.17575 -1.52343,-0.21975 -0.50538,-0.0439 -0.9668,-0.1245 -1.09864,-0.1904 -0.13916,-0.0733 -0.54932,-0.1465 -1.06201,-0.1831 -0.70313,-0.0513 -0.89355,-0.0952 -1.1792,-0.25636 -0.20173,-0.11824 -0.41007,-0.18364 -0.56855,-0.18364 -0.008,0 -0.0166,2e-4 -0.0247,5.4e-4 -0.0351,0.002 -0.0718,0.003 -0.10943,0.003 -0.3161,0 -0.69623,-0.0772 -0.69623,-0.14256 0,-0.0293 0.25635,-0.0806 0.57128,-0.1099 0.30763,-0.022 0.6885,-0.0806 0.84962,-0.1172 0.10553,-0.0283 0.18848,-0.0421 0.2456,-0.0421 0.10541,0 0.12296,0.0471 0.0327,0.13739 -0.0659,0.0659 -0.0293,0.10986 0.15381,0.19046 0.4248,0.1904 0.95947,0.3076 1.3916,0.3076 0.46875,0 1.79443,-0.1831 2.15332,-0.3003 0.26367,-0.0806 0.53467,-0.52 0.53467,-0.86426 0,-0.11719 0.0513,-0.49804 0.10986,-0.84229 0.10986,-0.60791 0.10254,-0.65185 -0.0293,-0.95945 -0.11718,-0.2637 -0.2124,-0.3589 -0.49804,-0.49074 -0.41748,-0.20506 -0.53466,-0.40286 -0.53466,-0.9375 0,-0.54199 -0.0513,-0.70313 -0.271,-0.84961 -0.0816,-0.0509 -0.13004,-0.0783 -0.17686,-0.0783 -0.054,0 -0.10589,0.0365 -0.20401,0.11496 -0.10253,0.0805 -0.33691,0.227 -0.52003,0.32224 -0.1831,0.0952 -0.5786,0.31496 -0.8789,0.49072 -0.3003,0.17578 -0.68114,0.38818 -0.84228,0.46874 -0.57129,0.3003 -1.50146,0.8716 -1.58202,0.9668 -0.0439,0.0586 -0.16114,0.10254 -0.25636,0.10254 -0.0879,0 -0.1831,0.0293 -0.2124,0.0659 -0.0586,0.10254 -1.23779,0.66651 -1.37694,0.66651 -0.0659,0 -0.19777,-0.0366 -0.3003,-0.0806 -0.1465,-0.0732 -0.1831,-0.13916 -0.1831,-0.35156 0.007,-1.05469 -0.0733,-3.88914 -0.1172,-4.0503 -0.0293,-0.12451 -0.007,-0.28564 0.0806,-0.46144 0.19043,-0.41014 0.71777,-0.6152 1.80908,-0.7031 0.46875,-0.0366 0.94483,-0.10255 1.04735,-0.13917 0.10255,-0.0439 0.5054,-0.10983 0.89357,-0.14648 1.58203,-0.17578 3.08349,-0.49805 3.85986,-0.84229 0.90821,-0.3955 1.12793,-0.54196 1.68457,-1.09866 0.79834,-0.80563 1.50147,-1.56 1.50147,-1.6186 0,-0.022 0.16113,-0.24905 0.36621,-0.49807 0.19775,-0.2417 0.41015,-0.51269 0.46875,-0.59323 0.0659,-0.0806 0.19043,-0.24905 0.28564,-0.36624 0.42481,-0.52736 0.93018,-1.23779 0.93018,-1.29639 0,-0.0439 0.0805,-0.16847 0.1831,-0.29297 0.10255,-0.11718 0.18311,-0.25634 0.18311,-0.31494 0,-0.0513 0.0439,-0.13183 0.10254,-0.17578 0.0586,-0.0513 0.13183,-0.19775 0.1538,-0.32228 0.0293,-0.13182 0.0952,-0.28563 0.1465,-0.34422 0.0513,-0.0586 0.13183,-0.2417 0.1831,-0.40284 0.0513,-0.16114 0.1538,-0.41014 0.22705,-0.54931 0.0806,-0.13916 0.13915,-0.30763 0.13915,-0.36621 0,-0.0586 0.0659,-0.21242 0.1465,-0.32959 0.0806,-0.12451 0.14648,-0.26367 0.14648,-0.32227 0,-0.0513 0.0806,-0.28564 0.16845,-0.51269 0.35157,-0.83497 0.43947,-1.15723 0.49073,-1.86037 0.0659,-0.7617 0.13916,-0.93016 0.41014,-0.93016 0.1172,0 0.2051,-0.0732 0.28566,-0.21974 0.0586,-0.11717 0.17578,-0.249 0.25634,-0.29296 0.0806,-0.0439 0.19776,-0.17578 0.25635,-0.29296 0.0586,-0.11718 0.17578,-0.22706 0.25635,-0.25635 0.0879,-0.0293 0.16113,-0.13916 0.19043,-0.3003 0.022,-0.13916 0.10987,-0.28563 0.18311,-0.32959 0.0879,-0.0439 0.13916,-0.1538 0.13916,-0.27099 0,-0.11719 0.0659,-0.27832 0.14648,-0.36621 0.0952,-0.0952 0.16846,-0.30762 0.19775,-0.52734 0.022,-0.20508 0.0659,-0.3882 0.10254,-0.40284 0.0293,-0.022 0.0366,-0.16113 0.0147,-0.30762 -0.0366,-0.20507 -0.0147,-0.28564 0.0879,-0.35888 0.10988,-0.0806 0.1172,-0.11719 0.0366,-0.2124 -0.0586,-0.0659 -0.0732,-0.18311 -0.0366,-0.30762 0.0732,-0.271 0.0879,-1.47217 0.022,-1.70654 -0.0293,-0.10254 -0.0879,-0.57862 -0.13183,-1.06202 -0.0439,-0.48338 -0.13185,-1.07666 -0.19043,-1.31836 -0.16846,-0.68115 -0.32227,-1.52342 -0.46142,-2.5415 -0.0732,-0.51269 -0.16114,-0.97412 -0.2051,-1.02539 -0.0952,-0.13183 -0.24168,-0.65918 -0.24168,-0.87891 0,-0.10254 0.0513,-0.23437 0.11718,-0.28564 0.0952,-0.0806 0.10987,-0.19043 0.0732,-0.58594 -0.022,-0.26367 -0.0952,-0.62256 -0.15381,-0.79834 -0.14649,-0.4248 -0.15381,-1.7505 0,-1.94824 0.13916,-0.19043 0.13916,-0.71776 0,-0.83496 -0.14649,-0.1245 -0.13916,-1.56006 0.0147,-1.80908 0.0512,-0.0879 0.0952,-0.27832 0.0952,-0.41748 0,-0.14649 0.0439,-0.26368 0.10254,-0.28564 0.0879,-0.0366 0.0952,-0.0879 0.022,-0.26368 -0.0659,-0.18312 -0.0586,-0.2417 0.0366,-0.35156 0.0879,-0.0952 0.10254,-0.16846 0.0513,-0.25636 -0.0366,-0.0659 -0.0806,-0.38085 -0.0952,-0.6958 -0.007,-0.31493 -0.044,-0.62987 -0.0806,-0.70312 -0.0732,-0.16845 0.0879,-0.56396 0.31494,-0.75438 0.13184,-0.1172 0.18311,-0.2344 0.19044,-0.46144 0,-0.24902 -0.0366,-0.34423 -0.24903,-0.55664 -0.2124,-0.2124 -0.35157,-0.27832 -0.76904,-0.35156 -0.28565,-0.0586 -0.57863,-0.13184 -0.65918,-0.17578 -0.0806,-0.0439 -0.23438,-0.11718 -0.34425,-0.16113 l -0.20507,-0.0806 v -0.74708 c 0,-0.41747 0.0366,-0.9668 0.0732,-1.23778 0.0366,-0.26368 0.10253,-0.95215 0.13916,-1.53809 0.0439,-0.57861 0.11719,-1.26709 0.17577,-1.53076 0.0659,-0.28565 0.10988,-0.88623 0.1172,-1.50147 0,-1.06933 -0.022,-1.28173 -0.1538,-1.28173 -0.0366,0 -0.16846,-0.0806 -0.29298,-0.18311 -0.14227,-0.1192 -0.32287,-0.17984 -0.51432,-0.17984 -0.17318,0 -0.35524,0.0496 -0.52572,0.15054 -0.13626,0.0779 -0.30703,0.12699 -0.4461,0.12699 -0.0179,0 -0.0353,-8e-4 -0.0519,-0.002 l -0.2417,-0.022 -0.022,-0.52734 c -0.0147,-0.35889 0.0293,-0.7251 0.13916,-1.17188 0.1538,-0.60791 0.16845,-0.80566 0.16845,-3.28125 v -2.63673 l -0.19775,-0.7031 c -0.11719,-0.39552 -0.271,-0.83497 -0.35156,-0.98878 -0.0733,-0.15382 -0.13917,-0.33692 -0.13917,-0.41016 0,-0.0659 -0.0293,-0.13916 -0.0659,-0.16113 -0.0366,-0.0293 -0.16847,-0.26367 -0.29298,-0.52733 -0.27832,-0.59327 -0.30029,-1.00343 -0.0586,-1.25978 0.14647,-0.16112 0.16113,-0.23437 0.13917,-0.85692 -0.022,-0.65187 -0.0147,-0.6885 0.14647,-0.77638 0.0879,-0.0513 0.2124,-0.13182 0.26367,-0.19042 0.0634,-0.06 0.1373,-0.0897 0.21846,-0.0897 0.0971,0 0.2045,0.0425 0.3162,0.12627 0.0952,0.0806 0.2417,0.15382 0.32228,0.1758 0.0806,0.022 0.20507,0.0659 0.27832,0.0952 0.0241,0.0102 0.0447,0.015 0.0618,0.015 0.11816,0 0.0715,-0.22877 -0.1204,-0.49107 -0.22705,-0.30761 -0.2417,-0.70313 -0.0293,-1.11328 0.1758,-0.33691 0.16846,-0.79101 -0.007,-2.3291 -0.0732,-0.62255 -0.0732,-0.81299 0.007,-0.98877 0.10987,-0.24902 0.24903,-0.93018 0.3589,-1.72118 0.13915,-0.95948 0.21972,-1.2964 0.37353,-1.47218 0.0732,-0.0879 0.13917,-0.20508 0.13917,-0.25634 0,-0.0513 0.0513,-0.12452 0.11718,-0.16114 0.0806,-0.0439 0.13182,-0.24902 0.17578,-0.71777 0.0586,-0.66651 0.1831,-1.05469 0.32226,-1.05469 0.15381,0 0.0439,-4.15283 -0.12452,-4.54101 -0.0586,-0.13917 -0.13183,-0.45411 -0.16112,-0.69581 -0.0293,-0.24169 -0.10988,-0.51269 -0.19043,-0.60791 -0.0879,-0.11718 -0.13185,-0.27832 -0.12451,-0.48339 0.007,-0.16114 -0.0293,-0.45411 -0.0879,-0.65186 -0.0806,-0.271 -0.13915,-0.34424 -0.26368,-0.34424 -0.12451,0 -0.16845,-0.0586 -0.20507,-0.25636 -0.0293,-0.13915 -0.0952,-0.25633 -0.1465,-0.25633 -0.1831,0 -0.271,-0.47607 -0.10253,-0.52735 0.0586,-0.022 0.0366,-0.0952 -0.0732,-0.2417 -0.0879,-0.10986 -0.16113,-0.26367 -0.16113,-0.34422 0,-0.0733 -0.0513,-0.15382 -0.10987,-0.1758 -0.12451,-0.0513 -0.4248,-0.57128 -0.55663,-0.95947 -0.0439,-0.15381 -0.19776,-0.4248 -0.33692,-0.60058 -0.13184,-0.17579 -0.2417,-0.38085 -0.2417,-0.45411 0,-0.0659 -0.0732,-0.21972 -0.16846,-0.33691 -0.0952,-0.10986 -0.19775,-0.26367 -0.21972,-0.34423 -0.0879,-0.21973 -0.34424,-0.52003 -1.1206,-1.31104 -0.82765,-0.84229 -0.88624,-0.89356 -1.30372,-1.11328 -0.76904,-0.41748 -1.13525,-0.56398 -1.53808,-0.62988 -0.2417,-0.0439 -0.46876,-0.0952 -0.5127,-0.12452 -0.0439,-0.0293 -0.46875,-0.0659 -0.94483,-0.0879 -0.2369,-0.011 -0.41007,-0.0173 -0.53997,-0.0173 z"
         style="fill:#000000;fill-opacity:1;stroke-linejoin:miter" />
    </g>
  </g>
</svg>
