<?xml version="1.0" encoding="UTF-8" standalone="no"?>
<!-- Created with Inkscape (http://www.inkscape.org/) -->

<svg
   xmlns:dc="http://purl.org/dc/elements/1.1/"
   xmlns:cc="http://creativecommons.org/ns#"
   xmlns:rdf="http://www.w3.org/1999/02/22-rdf-syntax-ns#"
   xmlns:svg="http://www.w3.org/2000/svg"
   xmlns="http://www.w3.org/2000/svg"
   xmlns:sodipodi="http://sodipodi.sourceforge.net/DTD/sodipodi-0.dtd"
   xmlns:inkscape="http://www.inkscape.org/namespaces/inkscape"
   width="1.2426236mm"
   height="1.4514301mm"
   viewBox="0 0 1.2426236 1.4514301"
   version="1.1"
   id="svg856"
   inkscape:version="0.92.4 (5da689c313, 2019-01-14)"
   sodipodi:docname="woman sitting at table writing.svg">
  <defs
     id="defs850" />
  <sodipodi:namedview
     id="base"
     pagecolor="#ffffff"
     bordercolor="#666666"
     borderopacity="1.0"
     inkscape:pageopacity="0.0"
     inkscape:pageshadow="2"
     inkscape:zoom="63.356767"
     inkscape:cx="5.516567"
     inkscape:cy="0.20807481"
     inkscape:document-units="mm"
     inkscape:current-layer="layer1"
     showgrid="false"
     fit-margin-top="0"
     fit-margin-left="0"
     fit-margin-right="0"
     fit-margin-bottom="0"
     inkscape:window-width="1920"
     inkscape:window-height="1048"
     inkscape:window-x="0"
     inkscape:window-y="0"
     inkscape:window-maximized="1" />
  <metadata
     id="metadata853">
    <rdf:RDF>
      <cc:Work
         rdf:about="">
        <dc:format>image/svg+xml</dc:format>
        <dc:type
           rdf:resource="http://purl.org/dc/dcmitype/StillImage" />
        <dc:title></dc:title>
      </cc:Work>
    </rdf:RDF>
  </metadata>
  <g
     inkscape:label="Ebene 1"
     inkscape:groupmode="layer"
     id="layer1"
     transform="translate(-158.88464,-169.27429)">
    <g
       id="g12"
       style="fill:#000000;fill-opacity:1;stroke-linejoin:miter"
       transform="matrix(0.26458333,0,0,0.26458333,104.66861,16.561854)">
      <path
         inkscape:connector-curvature="0"
         id="path10"
         d="m 207.17165,577.25165 c 0.005,0 0.006,4.5e-4 0.004,8.5e-4 -10e-4,2e-4 -0.003,3e-4 -0.005,3.7e-4 h -0.001 c -10e-4,0 -0.003,-1.2e-4 -0.004,-2.7e-4 -0.003,-3.4e-4 -6.4e-4,-7.7e-4 0.004,-9e-4 h 6.8e-4 l 1.2e-4,-5e-5 z m -0.51191,0.0827 c 0.005,0 0.006,4e-4 0.004,8e-4 -10e-4,2.5e-4 -0.003,4e-4 -0.005,4.3e-4 h -0.001 c -10e-4,0 -0.003,-1.3e-4 -0.004,-2.3e-4 -0.003,-4e-4 -6.4e-4,-8e-4 0.004,-9e-4 2.4e-4,0 4.7e-4,0 7.2e-4,-10e-5 z m -0.039,0.6975 c 8e-4,0 10e-4,9e-4 10e-4,0.002 4e-5,0.002 -10e-4,0.004 -0.002,0.004 h -3e-5 c -0.001,0 -0.002,-8.6e-4 -0.002,-0.002 -3e-5,-10e-4 8.2e-4,-0.003 0.002,-0.004 2.4e-4,-1.3e-4 4.9e-4,-2.7e-4 7.2e-4,-2.7e-4 z m 1.06764,0.8244 -0.0172,0.0282 h -0.002 q 10e-4,-0.009 0.003,-0.0189 h -6e-5 c 3.3e-4,-5e-4 6.7e-4,-10e-4 9.7e-4,-0.002 h -5e-5 q 0.007,-0.004 0.0137,-0.008 z m -0.15688,0.2567 -0.018,0.0293 c -4e-5,0 -9e-5,-3e-5 -1.3e-4,-3e-5 h -7e-5 c -0.002,-10e-4 -0.003,-0.002 -0.005,-0.003 h -5e-5 c -0.001,-0.002 -2.1e-4,-0.004 0.002,-0.007 h 10e-4 q 0.003,-0.003 0.005,-0.006 h -5e-5 c 3e-5,0 8e-5,0 1.1e-4,-10e-5 0.003,-0.002 0.005,-0.004 0.007,-0.007 h -4e-5 q 0.003,-0.003 0.005,-0.006 z m 0.9724,0.2511 q -0.005,0.01 -0.009,0.0201 l -2e-5,-6e-4 h -3e-5 c -9.3e-4,0.002 -0.002,0.004 -0.002,0.004 -3.8e-4,3.6e-4 -0.003,8e-4 -0.007,10e-4 l 0.0158,-0.0246 z m -1.50949,1.43906 c 0.004,0 0.008,0.004 0.008,0.008 1.1e-4,0.007 0.0458,0.0368 0.12808,0.0837 0.0333,0.0189 0.0617,0.0357 0.0633,0.037 0.004,0.004 -0.0434,0.0311 -0.0688,0.0396 -0.0113,0.004 -0.0429,0.0188 -0.0707,0.0331 -0.0378,0.0198 -0.055,0.0277 -0.0642,0.0279 h -3.7e-4 c -0.004,0 -0.007,-0.002 -0.009,-0.005 -0.003,-0.005 -0.004,-0.008 -0.002,-0.0235 0.004,-0.0316 0.005,-0.0718 0.005,-0.11567 -5.2e-4,-0.0445 0.001,-0.0736 0.005,-0.0809 0.001,-0.002 0.003,-0.004 0.005,-0.004 z m -0.0254,-3.62226 c -0.0186,5e-4 -0.0415,0.003 -0.0577,0.008 -0.0276,0.007 -0.063,0.0233 -0.0898,0.0401 -0.0285,0.0182 -0.0415,0.0282 -0.0645,0.0511 -0.0107,0.0107 -0.0215,0.0205 -0.0241,0.0221 -0.003,10e-4 -0.0135,0.004 -0.0239,0.005 -0.0107,10e-4 -0.0235,0.004 -0.0287,0.006 -0.0139,0.005 -0.0351,0.0194 -0.0335,0.022 3.4e-4,5e-4 5e-4,8.7e-4 5.3e-4,10e-4 h -0.001 c -1.8e-4,-10e-5 -4.6e-4,-10e-5 -7.9e-4,-10e-5 h -3e-5 c -0.002,0 -0.005,10e-4 -0.008,0.003 -0.006,0.005 -0.0417,0.04 -0.0417,0.0422 1e-5,3.4e-4 0.002,5e-4 0.005,5e-4 h 0.002 c 0.002,-4e-5 0.004,-1.6e-4 0.007,-3e-4 10e-4,-10e-5 0.003,-1.6e-4 0.004,-2e-4 h 0.002 c 0.005,0 0.008,4e-4 0.008,10e-4 3e-5,10e-4 -0.003,0.005 -0.007,0.009 -0.009,0.009 -0.0357,0.0453 -0.0487,0.0672 -0.009,0.0158 -0.0116,0.0185 -0.0166,0.0187 h -0.002 c -9.3e-4,0 -0.002,-6e-5 -0.002,-6e-5 h -0.002 c -5.5e-4,6e-5 6.8e-4,2.4e-4 0.004,7e-4 0.004,4e-4 0.006,10e-4 0.006,0.002 1e-5,4e-4 -0.003,0.009 -0.008,0.0191 -0.01,0.0237 -0.0232,0.065 -0.027,0.0826 -0.005,0.0219 -0.006,0.0628 -0.003,0.0937 0.004,0.0469 0.0164,0.095 0.0395,0.1544 0.0201,0.0508 0.0339,0.0924 0.0391,0.11703 0.007,0.0329 0.008,0.0726 0.002,0.10347 -0.002,0.0127 -0.004,0.0237 -0.004,0.0248 2e-5,4.9e-4 9.2e-4,7.3e-4 0.002,7.3e-4 h 6.1e-4 c 0.001,0 0.002,-10e-5 0.004,-4e-4 0.001,-3.3e-4 0.003,-5e-4 0.004,-5e-4 h 3.4e-4 c 0.002,0 0.002,5.4e-4 0.002,0.001 -0.001,0.005 -0.0243,0.0354 -0.0265,0.0354 h -2e-5 c -0.002,0 -0.0425,-0.0118 -0.0911,-0.026 -0.074,-0.0217 -0.0911,-0.026 -0.10309,-0.026 h -0.003 c -5.7e-4,0 -0.001,0 -0.002,5e-5 -0.0134,3e-4 -0.0159,0.002 -0.0175,0.009 -5.9e-4,0.003 -0.013,0.0315 -0.0274,0.0623 -0.0236,0.0513 -0.0326,0.0733 -0.0325,0.0794 1.7e-4,0.0105 -0.0482,0.0985 -0.0931,0.1696 -0.0347,0.0546 -0.0468,0.0884 -0.0462,0.12746 3.9e-4,0.0238 0.002,0.0332 0.0138,0.0806 0.01,0.0394 0.0105,0.0529 0.006,0.096 -0.002,0.0175 -0.004,0.0479 -0.005,0.0677 -9.8e-4,0.0199 -0.002,0.0405 -0.003,0.046 -3.4e-4,0.005 -9.2e-4,0.0225 -0.002,0.0382 -4e-4,0.0156 -9.6e-4,0.0339 -0.002,0.0405 -3.2e-4,0.007 -0.001,0.0246 -0.002,0.0404 -9.9e-4,0.0319 -0.005,0.0877 -0.008,0.1065 -0.003,0.0204 -0.009,0.0362 -0.0265,0.0721 -0.0256,0.0528 -0.0436,0.1093 -0.05,0.1581 -0.001,0.009 -0.004,0.0318 -0.007,0.0506 -0.008,0.0591 -0.0134,0.11314 -0.0171,0.18139 l -7.8e-4,0.0186 -0.0884,0.0921 c -0.10328,0.10743 -0.1436,0.15223 -0.20096,0.2229 -0.0473,0.058 -0.0912,0.12184 -0.10834,0.15705 -0.01,0.0194 -0.019,0.0552 -0.0187,0.0705 9e-5,0.006 0.002,0.0133 0.005,0.0187 0.007,0.0121 0.007,0.0296 -2.6e-4,0.0631 -0.009,0.0441 -0.0112,0.0609 -0.0119,0.099 -0.002,0.0745 0.0125,0.15836 0.0371,0.22086 0.0112,0.0289 0.0188,0.0432 0.0381,0.0706 0.009,0.0132 0.0171,0.027 0.018,0.0309 l 0.001,0.007 -0.0192,5e-4 c -6.5e-4,0 -0.001,10e-5 -0.002,10e-5 -0.003,5e-5 -0.007,1e-4 -0.01,2e-4 -0.007,10e-5 -0.0143,1.6e-4 -0.0208,1.6e-4 -0.014,0 -0.0255,-2.6e-4 -0.0294,-6.6e-4 -0.003,-2e-4 -0.0168,-8.7e-4 -0.0306,-0.001 -0.0138,-6.5e-4 -0.0334,-0.002 -0.0437,-0.003 -0.0103,-9e-4 -0.0249,-0.002 -0.0328,-0.003 -0.0271,-0.002 -0.0777,-0.009 -0.0887,-0.0116 -0.0127,-0.004 -0.0436,-0.0199 -0.0522,-0.028 -0.0157,-0.0146 -0.0225,-0.0512 -0.0139,-0.0758 0.0246,-0.0703 0.0445,-0.14617 0.0799,-0.3063 0.0301,-0.1362 0.0613,-0.3038 0.0724,-0.3885 0.006,-0.0462 0.0115,-0.1098 0.0139,-0.1619 0.001,-0.026 -7.1e-4,-0.14805 -0.003,-0.16374 -7.7e-4,-0.006 -0.002,-0.0183 -0.003,-0.0273 -0.002,-0.0222 -0.0106,-0.071 -0.016,-0.0937 -0.007,-0.0301 -0.0155,-0.0515 -0.0293,-0.0793 -0.0172,-0.034 -0.0268,-0.0456 -0.0462,-0.0553 -0.0377,-0.0191 -0.13067,-0.0431 -0.16716,-0.0434 -0.002,0 -0.003,-4e-5 -0.004,-4e-5 -10e-4,0 -0.002,4e-5 -0.004,4e-5 h -9.6e-4 c -0.008,1.6e-4 -0.008,10e-4 -0.009,0.005 -1.7e-4,0.003 0.005,0.0167 0.0112,0.0304 0.0383,0.0819 0.0545,0.12512 0.0715,0.18886 0.0105,0.0391 0.0207,0.0872 0.0251,0.1197 0.004,0.0296 0.008,0.149 0.006,0.1978 -0.004,0.0929 -0.009,0.1382 -0.0253,0.20006 -0.0121,0.0472 -0.0161,0.0716 -0.0126,0.0804 0.002,0.005 0.018,0.0186 0.0372,0.0319 0.004,0.003 0.004,0.005 -0.0131,0.0539 -0.0285,0.0848 -0.0406,0.1193 -0.058,0.1665 -0.0182,0.0496 -0.0246,0.0683 -0.0732,0.21084 -0.055,0.16211 -0.0698,0.20142 -0.0829,0.21716 -0.003,0.004 -0.0114,0.0103 -0.0181,0.0136 -0.0245,0.0131 -0.0287,0.023 -0.0187,0.0449 0.004,0.009 0.005,0.0152 0.006,0.0342 3.8e-4,0.0225 -0.001,0.0712 -0.003,0.0841 -3.8e-4,0.003 -0.002,0.0169 -0.003,0.0296 -0.003,0.0348 -0.003,0.0361 -0.0104,0.0995 -0.004,0.0324 -0.0132,0.1103 -0.0211,0.1729 -0.008,0.0626 -0.016,0.1292 -0.0183,0.1478 -0.002,0.0186 -0.006,0.0512 -0.009,0.0722 -0.0138,0.11486 -0.0212,0.179 -0.0305,0.26587 -0.004,0.0337 -0.008,0.0716 -0.01,0.0843 -0.002,0.0127 -0.005,0.0416 -0.008,0.0645 -0.0103,0.088 -0.033,0.27319 -0.0469,0.38193 -0.0114,0.0896 -0.021,0.17056 -0.03,0.25607 -0.009,0.0884 -0.0152,0.13853 -0.0209,0.17548 -0.003,0.0177 -0.005,0.0329 -0.005,0.0335 1e-5,3.5e-4 0.006,4.9e-4 0.0149,4.9e-4 0.008,0 0.0197,-1.4e-4 0.0328,-3e-4 0.0157,-2.4e-4 0.034,-6.4e-4 0.0523,-10e-4 0.0474,-10e-4 0.0959,-0.003 0.10628,-0.004 0.0292,-0.003 0.0286,-0.003 0.0299,-0.0138 5.7e-4,-0.005 0.002,-0.0164 0.003,-0.0247 0.003,-0.0208 0.007,-0.0914 0.0141,-0.27 0.002,-0.0511 0.005,-0.1071 0.006,-0.12455 0.001,-0.0175 0.003,-0.0636 0.005,-0.10275 0.002,-0.0391 0.004,-0.0761 0.004,-0.082 3.4e-4,-0.006 0.001,-0.0199 0.002,-0.0306 0.002,-0.0511 0.008,-0.1231 0.0144,-0.187 0.003,-0.0297 0.005,-0.0501 0.009,-0.1039 0.004,-0.0509 0.004,-0.0529 0.005,-0.0732 4.7e-4,-0.0103 0.002,-0.0285 0.003,-0.0405 0.002,-0.0256 0.003,-0.0348 0.006,-0.0874 0.001,-0.0216 0.003,-0.0418 0.004,-0.0448 3.7e-4,-0.003 0.001,-0.0138 0.002,-0.0241 4.9e-4,-0.0102 0.002,-0.026 0.003,-0.035 9.5e-4,-0.009 0.002,-0.0239 0.003,-0.0328 5.1e-4,-0.009 0.002,-0.0301 0.004,-0.047 0.001,-0.0168 0.003,-0.0376 0.004,-0.0459 7.3e-4,-0.009 0.002,-0.0286 0.004,-0.0449 0.001,-0.0162 0.003,-0.0345 0.003,-0.0404 0.003,-0.0321 0.009,-0.10515 0.014,-0.15635 0.0116,-0.11947 0.0132,-0.1252 0.0477,-0.16354 0.0287,-0.0318 0.0467,-0.0394 0.1041,-0.0443 0.006,-5.5e-4 0.0173,-10e-4 0.0307,-10e-4 0.005,-1e-4 0.0106,-2e-4 0.0163,-3e-4 0.0157,-2.4e-4 0.0335,-3.6e-4 0.0512,-3.6e-4 0.0421,0 0.0839,6.6e-4 0.0969,0.002 0.005,6.1e-4 0.0372,0.002 0.0721,0.003 0.0347,10e-4 0.0693,0.003 0.0765,0.003 0.016,8.6e-4 0.0341,0.002 0.10274,0.005 0.0289,10e-4 0.0667,0.003 0.0842,0.004 0.0763,0.004 0.16024,0.008 0.19127,0.009 0.0144,4e-4 0.0395,0.001 0.0557,0.002 0.0162,9e-4 0.0398,0.002 0.0525,0.002 0.0127,4.4e-4 0.0489,0.002 0.0808,0.003 0.094,0.004 0.0979,0.004 0.1355,0.004 0.11076,0.002 0.17767,0.006 0.27377,0.0186 l 0.0171,0.002 0.003,0.17866 0.003,0.17884 -0.0255,0.0166 c -0.0281,0.0186 -0.0512,0.0331 -0.15497,0.0987 -0.15066,0.0948 -0.20444,0.13226 -0.22154,0.1539 -0.0214,0.027 -0.0302,0.0341 -0.0625,0.0506 -0.0465,0.024 -0.111,0.0485 -0.19684,0.075 -0.0314,0.01 -0.0522,0.0144 -0.0656,0.0147 h -0.002 c -0.002,0 -0.004,-1.4e-4 -0.006,-4e-4 -0.005,-8e-4 -0.0193,-0.004 -0.032,-0.008 -0.0241,-0.007 -0.0463,-0.0105 -0.0819,-0.0105 -0.004,0 -0.007,4e-5 -0.0112,10e-5 -0.002,6e-5 -0.005,6e-5 -0.008,10e-5 -0.007,2e-4 -0.0145,4.5e-4 -0.0225,8e-4 -0.053,0.002 -0.0818,0.006 -0.10329,0.0146 -0.0232,0.009 -0.0251,0.0172 -0.0271,0.1201 -5.4e-4,0.033 -6e-4,0.0955 1.2e-4,0.13875 0.001,0.0729 5.9e-4,0.19305 -10e-4,0.25995 -0.001,0.0393 -0.004,0.0687 -0.009,0.0919 -0.0142,0.0683 -0.018,0.2157 -0.007,0.26484 0.007,0.0316 0.0145,0.0457 0.0338,0.0636 0.0213,0.0193 0.0649,0.0395 0.11269,0.0519 0.0156,0.004 0.0224,0.005 0.0419,0.005 0.004,0 0.008,-6e-5 0.0132,-10e-5 7.3e-4,0 0.001,-10e-5 0.002,-10e-5 0.002,0 0.005,-5e-5 0.007,-5e-5 0.002,-5e-5 0.004,-5e-5 0.006,-1.2e-4 0.0207,-4.9e-4 0.0282,-0.002 0.0416,-0.006 0.0237,-0.007 0.0382,-0.014 0.0479,-0.0239 0.0125,-0.0125 0.0158,-0.0217 0.0153,-0.0418 -7.7e-4,-0.0213 -0.005,-0.0353 -0.025,-0.0738 -0.0199,-0.0388 -0.0224,-0.0486 -0.0214,-0.0772 0.002,-0.0489 0.0137,-0.11094 0.0305,-0.1619 0.011,-0.0334 0.0283,-0.0682 0.049,-0.0982 0.0211,-0.031 0.0311,-0.0488 0.0365,-0.0655 0.005,-0.0167 0.01,-0.0249 0.0212,-0.0403 0.0649,-0.088 0.25243,-0.23901 0.33211,-0.26765 0.009,-0.003 0.0182,-0.006 0.021,-0.006 h 2e-4 c 0.009,0 0.0231,0.0111 0.0463,0.0357 0.0375,0.0394 0.051,0.0522 0.0563,0.0522 h 8e-5 c 0.007,-1.8e-4 0.028,-0.0135 0.0883,-0.0561 0.0481,-0.034 0.0602,-0.0423 0.0631,-0.0424 h 10e-6 c 2.8e-4,0 4.8e-4,10e-5 6.1e-4,2.4e-4 0.002,0.002 0.006,0.0676 0.0142,0.26251 0.002,0.048 0.005,0.11939 0.007,0.15869 0.002,0.0395 0.005,0.10431 0.007,0.14406 0.009,0.194 0.0139,0.2841 0.0157,0.2854 2.1e-4,10e-5 0.002,1.7e-4 0.004,1.7e-4 0.001,0 0.003,0 0.005,-7e-5 0.002,0 0.003,-5e-5 0.005,-5e-5 0.025,-6.1e-4 0.0783,-0.003 0.11066,-0.005 0.0127,-9.2e-4 0.0284,-0.002 0.0351,-0.002 l 0.0122,-2.7e-4 0.005,-0.028 c 0.003,-0.0154 0.007,-0.0342 0.008,-0.0421 l 0.003,-0.0142 0.027,-0.003 c 0.0174,-0.002 0.0463,-0.004 0.0768,-0.004 0.005,-10e-5 0.01,-2e-4 0.0145,-3e-4 0.008,-10e-5 0.0169,-2e-4 0.0251,-2e-4 0.0293,0 0.0559,8e-4 0.0704,0.003 0.0418,0.005 0.0904,0.007 0.14402,0.007 0.01,0 0.0194,-4e-5 0.0293,-2.4e-4 h 6e-5 c 0.006,-7e-5 0.0112,-2e-4 0.0169,-3e-4 0.0444,-10e-4 0.0916,-0.004 0.14062,-0.008 0.0103,-8.6e-4 0.022,-0.002 0.0262,-0.003 0.004,-5e-4 0.0139,-0.002 0.0218,-0.003 0.0255,-0.003 0.0649,-0.0107 0.0786,-0.0155 0.0339,-0.0121 0.0604,-0.0304 0.0671,-0.0463 0.004,-0.008 0.004,-0.0108 0.001,-0.0177 -0.01,-0.0285 -0.0321,-0.0404 -0.15952,-0.083 -0.09,-0.0302 -0.12349,-0.0445 -0.1586,-0.0677 -0.0132,-0.009 -0.0291,-0.0185 -0.0351,-0.0215 -0.006,-0.003 -0.0251,-0.0137 -0.0419,-0.024 -0.0397,-0.024 -0.067,-0.0388 -0.108,-0.0587 -0.0363,-0.0175 -0.0547,-0.0314 -0.0675,-0.0506 -0.0238,-0.0357 -0.0227,-0.0914 0.003,-0.1475 0.0144,-0.032 0.028,-0.0446 0.0501,-0.0451 1.7e-4,0 3.4e-4,-1e-4 5.1e-4,-1e-4 0.002,0 0.005,1.3e-4 0.007,3e-4 0.007,5.7e-4 0.0294,0.006 0.0487,0.0125 0.0193,0.006 0.0375,0.0114 0.0406,0.0116 0.002,10e-5 0.003,10e-5 0.005,10e-5 h 4.9e-4 c 0.0218,-5.6e-4 0.0296,-0.0132 0.0539,-0.0803 0.008,-0.021 0.019,-0.0499 0.0254,-0.0645 0.0301,-0.0688 0.0492,-0.11437 0.0689,-0.16497 0.0331,-0.0846 0.0478,-0.11783 0.06,-0.13643 0.008,-0.0123 0.0282,-0.0513 0.0544,-0.1057 0.0494,-0.10217 0.0637,-0.124 0.095,-0.1453 0.0261,-0.0177 0.0548,-0.0431 0.0897,-0.0792 0.0474,-0.0493 0.069,-0.0818 0.0835,-0.12616 0.007,-0.02 0.007,-0.0222 0.006,-0.0536 -4.3e-4,-0.0257 -0.002,-0.0375 -0.006,-0.0549 -0.01,-0.0416 -0.007,-0.0543 0.0174,-0.0971 0.0544,-0.0926 0.0767,-0.17103 0.0685,-0.24013 -0.006,-0.0499 -0.0229,-0.0785 -0.0694,-0.1161 -0.0671,-0.054 -0.12959,-0.0826 -0.22934,-0.10477 -0.0491,-0.011 -0.08,-0.0159 -0.22231,-0.0361 -0.14406,-0.0203 -0.21785,-0.0318 -0.29146,-0.0452 -0.0307,-0.006 -0.0894,-0.0154 -0.16296,-0.027 -0.0175,-0.003 -0.05,-0.009 -0.0723,-0.0141 -0.0386,-0.008 -0.0539,-0.0113 -0.14962,-0.028 -0.0644,-0.0113 -0.0857,-0.0188 -0.0916,-0.0323 -7.8e-4,-0.002 -0.001,-0.004 -0.002,-0.007 h -0.002 l 0.0193,-0.0594 h -0.001 q 0.01,-0.0256 0.019,-0.054 h -2.9e-4 l 0.005,-0.0162 h 0.002 c 0.002,-0.004 0.003,-0.007 0.003,-0.009 10e-4,-0.004 0.008,-0.0168 0.0159,-0.0276 0.0361,-0.0508 0.0445,-0.0669 0.0644,-0.11877 0.007,-0.0185 0.022,-0.0579 0.0337,-0.0875 0.0325,-0.0835 0.0531,-0.14508 0.0822,-0.24734 0.0126,-0.0441 0.0256,-0.0749 0.0378,-0.0897 0.005,-0.005 0.0119,-0.0119 0.0203,-0.0182 h 4e-5 l 0.13096,0.005 0.0423,-0.0177 h 7e-5 c 0.007,-0.004 0.0148,-0.007 0.0212,-0.01 h 7e-5 c 0.005,0.005 0.01,0.0101 0.015,0.0155 0.0361,0.0358 0.0742,0.0633 0.088,0.0633 h 2.3e-4 c 0.005,0 0.0183,0.0138 0.0168,0.0182 -0.003,0.009 -0.0324,0.0117 -0.14806,0.0156 -0.0694,0.002 -0.14143,0.006 -0.14251,0.007 -0.002,0.002 0.007,0.0991 0.0105,0.1178 0.003,0.0161 0.005,0.0198 0.0115,0.0212 0.0568,0.012 0.12993,0.0238 0.15946,0.0262 0.008,7.5e-4 0.0181,0.002 0.023,0.002 0.005,6e-4 0.0201,10e-4 0.0339,0.002 0.0138,6.6e-4 0.028,0.002 0.0317,0.002 0.003,5e-4 0.0156,7.5e-4 0.0365,7.5e-4 0.0391,0 0.10634,-8e-4 0.18929,-0.002 h 0.001 c 0.14923,-0.002 0.34877,-0.006 0.52573,-0.0106 0.11339,-0.003 0.2175,-0.005 0.29314,-0.008 0.0323,-10e-4 0.14627,-0.004 0.25323,-0.007 0.10677,-0.003 0.22946,-0.006 0.27225,-0.008 l 0.0781,-0.003 0.0233,1.4031 0.0234,1.4032 0.0114,9.3e-4 c 0.0508,0.004 0.0984,0.007 0.12751,0.007 0.002,0 0.005,0 0.007,-7e-5 10e-4,0 0.002,0 0.003,-6e-5 0.0111,-2.4e-4 0.018,-0.001 0.0192,-0.002 0.003,-0.004 0.004,-0.11967 0.002,-0.3811 -0.004,-0.4789 -0.0168,-1.5175 -0.0271,-2.2569 l -0.002,-0.1703 0.16069,-0.003 0.16073,-0.003 0.0108,0.57023 c 0.006,0.3138 0.0188,0.99684 0.0283,1.51766 l 0.0171,0.94714 0.0904,-10e-4 0.0902,-0.002 -0.0266,-1.6005 -0.0266,-1.6006 -0.34676,0.006 c -0.0576,9e-4 -0.10732,0.002 -0.15057,0.002 l -7.5e-4,4e-5 c -0.1219,0.002 -0.19246,0.003 -0.2453,0.003 -0.0416,0 -0.0722,-4.6e-4 -0.1083,-10e-4 -0.0575,-0.001 -0.0634,-0.002 -0.0635,-0.007 -8e-5,-0.004 0.0118,-0.0376 0.0301,-0.0838 0.009,-0.022 0.0284,-0.0754 0.0443,-0.11871 0.0157,-0.0433 0.0403,-0.11029 0.0545,-0.14899 0.0594,-0.16022 0.0725,-0.1969 0.081,-0.22415 0.005,-0.0158 0.0154,-0.0443 0.0236,-0.0637 0.0235,-0.0568 0.0812,-0.2156 0.0908,-0.251 0.003,-0.011 0.003,-0.0116 -8.9e-4,-0.0137 -0.003,-10e-4 -0.008,-0.002 -0.0146,-0.002 h -0.003 c -0.003,3e-5 -0.006,2.3e-4 -0.01,4.8e-4 h -10e-4 l -0.001,1.9e-4 h -2e-5 c -0.0223,0.002 -0.0526,0.007 -0.0782,0.0124 h -3e-5 l -0.0737,0.0117 -0.0286,0.0676 -0.0698,0.19075 c -6.5e-4,-1.9e-4 -0.001,-3.5e-4 -0.002,-4.9e-4 h -8e-5 l -0.0616,0.16964 h 8e-5 c 4.9e-4,1.6e-4 9.6e-4,4e-4 0.001,6.5e-4 h -3e-5 l -0.13833,0.37775 h -3e-5 c -0.0343,0.004 -0.17443,0.009 -0.443,0.0175 l -0.0613,0.002 -7e-5,-0.003 -0.0436,0.002 3e-5,0.002 -0.0587,9.8e-4 c -0.0111,1.6e-4 -0.0231,4.3e-4 -0.0348,6.6e-4 -0.0223,5.6e-4 -0.0435,10e-4 -0.0545,0.002 -0.005,3e-4 -0.013,6.1e-4 -0.0232,9.8e-4 l 0.14799,-0.21294 h -9e-5 q 0.0207,-0.002 0.0201,-0.003 0.0132,-0.003 0.0252,-0.0153 0.0348,-0.0386 0.0592,-0.11554 0.004,-0.0137 0.006,-0.0249 h -9e-5 l 0.12884,-0.1854 -0.32457,-0.22867 -9.1e-4,10e-4 -0.0914,0.1495 q -0.002,-0.007 -0.006,-0.0158 -0.006,-0.013 -0.0199,-0.0343 h -5e-5 c 0.002,-0.002 0.005,-0.003 0.008,-0.005 h 1.1e-4 l -0.037,-0.0199 q -0.0119,-0.006 -0.0362,-0.0138 l -0.0114,-0.005 -0.0257,-0.0165 -0.055,0.0105 -0.11305,-0.1575 -1.5e-4,10e-5 -0.0203,0.0147 0.12577,0.17511 h -1e-4 c 3.3e-4,9.5e-4 4e-4,0.002 2e-4,0.002 -0.007,0.005 -0.0456,0.0203 -0.068,0.0266 -0.0401,0.0108 -0.0496,0.0215 -0.051,0.0572 -0.002,0.0454 -0.026,0.1673 -0.0365,0.1864 -0.0123,0.0214 -0.0358,0.0442 -0.0591,0.0588 -0.0139,-0.0128 -0.0286,-0.0274 -0.0442,-0.0437 -0.0936,-0.0981 -0.12285,-0.1369 -0.16573,-0.219 -0.0284,-0.0548 -0.0529,-0.0937 -0.0857,-0.13617 -0.0259,-0.0336 -0.0372,-0.0555 -0.0485,-0.0942 -0.006,-0.0222 -0.02,-0.0489 -0.0345,-0.0674 -0.0125,-0.0164 -0.0345,-0.054 -0.0526,-0.0902 l -0.0156,-0.0308 -0.0142,2.5e-4 -0.0142,2.5e-4 0.003,-0.007 c 0.01,-0.0191 0.064,-0.0893 0.0939,-0.12079 0.0459,-0.0488 0.0712,-0.0674 0.0965,-0.0713 0.001,-2.7e-4 0.003,-4e-4 0.005,-4.5e-4 h 0.001 c 0.0217,0 0.064,0.0138 0.11882,0.0389 0.0475,0.0219 0.0686,0.03 0.0854,0.03 h 10e-4 c 0.006,-10e-5 0.0115,-10e-4 0.0176,-0.003 0.0254,-0.008 0.039,-0.0304 0.0423,-0.0691 0.002,-0.0249 0.004,-0.0278 0.0178,-0.0319 0.006,-0.002 0.01,-0.005 0.0112,-0.008 0.003,-0.007 0.003,-0.0293 -1.9e-4,-0.0371 -0.002,-0.005 -0.002,-0.006 0.003,-0.007 0.007,-0.003 0.0162,-0.0132 0.0176,-0.0204 10e-4,-0.004 -6.1e-4,-0.0109 -0.005,-0.0214 -0.01,-0.0232 -0.006,-0.0311 0.0186,-0.0354 0.0159,-0.003 0.0369,-0.0139 0.0401,-0.0212 0.001,-0.003 0.003,-0.009 0.003,-0.014 0.001,-0.009 0.002,-0.008 -0.0255,-0.0472 -0.0136,-0.0199 -0.0241,-0.0441 -0.0277,-0.0645 -0.004,-0.0251 0.002,-0.0829 0.0151,-0.1281 0.004,-0.0125 0.006,-0.0246 0.006,-0.027 -5e-5,-0.002 5.3e-4,-0.003 0.001,-0.003 h 2e-5 c 2e-4,0 4.1e-4,5e-5 6.4e-4,2e-4 0.001,8e-4 0.002,0.0124 0.003,0.0274 3.5e-4,0.0211 0.001,0.026 0.003,0.026 h 1.4e-4 c 0.004,0 0.005,0.005 0.006,0.0224 1.4e-4,0.008 0.001,0.0205 0.003,0.0273 l 0.003,0.0124 0.002,-0.0263 c 0.001,-0.0145 0.003,-0.0322 0.004,-0.0392 0.001,-0.007 0.002,-0.0134 0.002,-0.0138 0,-1.6e-4 1.6e-4,-3e-4 4.5e-4,-3e-4 h 2e-5 c 3.6e-4,0 8.8e-4,1.4e-4 0.001,5e-4 0.001,6e-4 0.003,0.006 0.003,0.0111 0.001,0.008 0.002,0.01 0.006,0.01 h 6e-4 c 0.004,-10e-5 0.005,-9e-4 0.003,-0.016 -0.001,-0.009 -0.002,-0.0434 -0.003,-0.0775 -0.001,-0.0519 -8.1e-4,-0.0616 0.002,-0.0616 h 2e-5 c 0.002,0 0.004,0.002 0.004,0.005 5e-4,0.003 10e-4,0.005 0.002,0.005 h 8e-5 c 0.003,-3e-5 0.008,-0.0148 0.008,-0.0293 1.6e-4,-0.0161 -0.007,-0.0351 -0.0265,-0.073 l -0.0162,-0.0312 0.008,-1.5e-4 h 10e-4 c 0.007,-1.6e-4 0.007,-7.7e-4 0.006,-0.005 -0.009,-0.0276 -0.0485,-0.0687 -0.0824,-0.0849 -0.005,-0.002 -0.01,-0.007 -0.0113,-0.01 -0.004,-0.008 -0.0346,-0.0427 -0.047,-0.0534 -0.0239,-0.0204 -0.0541,-0.0376 -0.0875,-0.0497 -0.0121,-0.004 -0.0231,-0.009 -0.0242,-0.01 -0.001,-10e-4 2.8e-4,-0.002 0.004,-0.002 l 3.1e-4,-10e-5 h 4.9e-4 c 0.0101,0 0.0327,0.004 0.0466,0.008 0.0126,0.004 0.0207,0.006 0.0279,0.006 h 10e-4 c 6.9e-4,-1e-4 0.001,-1e-4 0.002,-1.4e-4 l 0.0111,-8.6e-4 -0.019,-0.0121 c -0.0157,-0.01 -0.0253,-0.014 -0.0557,-0.0235 -0.0204,-0.006 -0.0435,-0.0128 -0.0513,-0.0145 -0.0266,-0.006 -0.0746,-0.009 -0.11879,-0.009 -0.005,0 -0.009,3e-5 -0.0139,1.3e-4 h -6.4e-4 c -0.002,5e-5 -0.004,10e-5 -0.006,10e-5 -0.0238,6e-4 -0.0451,0.002 -0.0595,0.005 -0.0104,0.002 -0.0196,0.003 -0.0232,0.003 h -1.7e-4 c -8.4e-4,0 -0.001,0 -0.001,-1e-4 -0.003,-0.003 0.003,-0.006 0.0227,-0.0131 0.0199,-0.007 0.0228,-0.007 0.0526,-0.008 l 5.7e-4,-7e-5 c 10e-4,0 0.003,0 0.004,-6e-5 0.0156,-3.4e-4 0.0276,-10e-4 0.027,-0.002 -0.002,-0.003 -0.0212,-0.0101 -0.0323,-0.0119 -0.004,-6.1e-4 -0.009,-8.6e-4 -0.0152,-8.6e-4 z" />
    </g>
  </g>
</svg>
