<?xml version="1.0" encoding="UTF-8" standalone="no"?>
<svg
   xmlns:dc="http://purl.org/dc/elements/1.1/"
   xmlns:cc="http://creativecommons.org/ns#"
   xmlns:rdf="http://www.w3.org/1999/02/22-rdf-syntax-ns#"
   xmlns:svg="http://www.w3.org/2000/svg"
   xmlns="http://www.w3.org/2000/svg"
   xmlns:sodipodi="http://sodipodi.sourceforge.net/DTD/sodipodi-0.dtd"
   xmlns:inkscape="http://www.inkscape.org/namespaces/inkscape"
   version="1.1"
   width="1542.0823"
   height="2228.4866"
   viewBox="0 0 1542.0823 2228.4866"
   id="svg7"
   sodipodi:docname="alone_sitting_female7.svg"
   inkscape:version="1.0.2 (e86c870879, 2021-01-15)">
  <metadata
     id="metadata13">
    <rdf:RDF>
      <cc:Work
         rdf:about="">
        <dc:format>image/svg+xml</dc:format>
        <dc:type
           rdf:resource="http://purl.org/dc/dcmitype/StillImage" />
        <dc:title></dc:title>
      </cc:Work>
    </rdf:RDF>
  </metadata>
  <defs
     id="defs11" />
  <sodipodi:namedview
     pagecolor="#ffffff"
     bordercolor="#666666"
     borderopacity="1"
     objecttolerance="10"
     gridtolerance="10"
     guidetolerance="10"
     inkscape:pageopacity="0"
     inkscape:pageshadow="2"
     inkscape:window-width="1920"
     inkscape:window-height="997"
     id="namedview9"
     showgrid="false"
     fit-margin-top="0"
     fit-margin-left="0"
     fit-margin-right="0"
     fit-margin-bottom="0"
     inkscape:zoom="0.16622731"
     inkscape:cx="1025.3982"
     inkscape:cy="937.67646"
     inkscape:window-x="0"
     inkscape:window-y="0"
     inkscape:window-maximized="1"
     inkscape:current-layer="svg7"
     inkscape:document-rotation="0" />
  <rect
     style="fill:#ffffff;stroke-width:5.66929;stroke-linecap:square;stroke-linejoin:round;stroke-dasharray:11.3386, 11.3386"
     id="rect832"
     width="1542.0823"
     height="2228.4866"
     x="0"
     y="0" />
  <g
     id="layer1"
     transform="matrix(13.418111,0,0,13.418111,-1914.0653,-4894.0615)">
    <g
       style="fill:#000000;fill-opacity:1;stroke-linejoin:miter"
       id="g4">
      <path
         d="m 196.86002,374.27014 c -2.10569,0.80219 -4.03312,2.59596 -4.96898,4.63476 -0.50136,1.0696 -0.84674,1.8495 -0.98044,2.22828 -0.0891,0.21167 -0.25624,0.66846 -0.38994,1.00268 -0.12256,0.33424 -0.32309,1.09186 -0.43451,1.67121 -0.12255,0.57933 -0.26739,1.20323 -0.34537,1.38153 -0.22284,0.60162 -0.5682,2.56244 -0.66848,3.85486 -0.26738,3.45374 -0.35651,3.87714 -0.93586,4.72387 -0.15597,0.23395 -0.34538,0.63501 -0.41223,0.8913 -0.43451,1.6712 -2.23939,3.94397 -3.75459,4.72387 -0.38994,0.1894 -0.75762,0.3565 -0.82445,0.3565 -0.26739,0 -1.88287,0.77992 -2.17254,1.04732 -0.82447,0.77984 -1.47065,1.10296 -3.46494,1.74914 -0.45679,0.14484 -0.84673,0.30084 -0.88016,0.3454 -0.0223,0.0557 -0.13368,0.0891 -0.2451,0.0891 -0.31195,0 -2.11683,1.09186 -3.17525,1.91633 -1.66005,1.31463 -3.15297,2.25054 -5.30322,3.32006 -1.13641,0.55707 -2.16141,1.08069 -2.28396,1.14752 -0.12255,0.078 -0.80216,0.45679 -1.50406,0.84674 -0.70191,0.38996 -1.45951,0.84674 -1.67119,1.00275 -0.21169,0.16711 -0.59049,0.42333 -0.83559,0.56818 -0.73532,0.44567 -2.55134,1.9497 -3.08612,2.5625 -0.27854,0.31195 -0.73532,0.99157 -1.02499,1.49292 -0.42337,0.75763 -0.5125,1.02496 -0.5125,1.47063 0,0.56824 0.34538,1.6266 0.77988,2.35084 0.12256,0.22278 0.20054,0.47906 0.16713,0.57934 -0.0334,0.10022 -0.42337,0.31189 -0.8913,0.49018 -0.99158,0.36767 -2.04999,1.00274 -3.11956,1.84942 -0.79102,0.62397 -1.72689,1.54865 -1.72689,1.71582 0,0.0557 -0.21167,0.3788 -0.47907,0.72412 -0.25625,0.3454 -0.54592,0.77991 -0.62391,0.9693 -0.20053,0.44568 -0.67961,1.9386 -0.67961,2.11682 0,0.078 -0.078,0.20056 -0.16712,0.27856 -0.2451,0.2005 -0.2451,5.6263 0,5.9494 0.0891,0.12257 0.16712,0.3677 0.16712,0.5348 0,0.49024 0.55706,3.1195 0.947,4.48993 0.0891,0.30077 0.34538,1.33691 0.56821,2.28394 0.22282,0.94703 0.52364,2.04998 0.66847,2.45105 0.14484,0.40112 0.3788,1.10302 0.53478,1.55981 0.25625,0.80217 0.93586,2.26167 1.8383,3.97742 0.54593,1.01385 1.40379,2.10565 2.21712,2.78528 0.34536,0.30084 0.70189,0.60162 0.79101,0.67962 0.078,0.078 0.55707,0.41223 1.05843,0.73535 2.09454,1.38147 3.77687,1.8606 6.55104,1.84943 1.15869,0 1.77145,-0.0446 2.11683,-0.16711 0.26739,-0.0892 0.56821,-0.16712 0.67962,-0.16712 0.65733,0 4.16682,-1.54864 5.39236,-2.3731 0.30081,-0.20057 0.7576,-0.47907 1.03613,-0.6239 0.47907,-0.24513 2.5402,-1.7715 3.14183,-2.3285 0.3788,-0.3454 0.61277,-0.2563 0.70189,0.2785 0.12256,0.74646 0.5125,2.41767 0.67963,2.9079 0.45679,1.3592 1.894,3.2755 3.91057,5.18067 0.51249,0.49017 0.81331,0.9024 1.1364,1.57093 0.31195,0.6239 0.60162,1.03612 0.95816,1.3258 0.60162,0.52362 0.63504,0.791 0.16711,1.4372 -0.37881,0.5125 -0.44565,1.1698 -0.17827,1.79372 0.078,0.20053 0.17827,0.61276 0.22283,0.91358 0.13369,0.9247 0.40109,2.17254 0.51249,2.37307 0.56821,1.03613 0.61278,1.32581 0.33424,2.6962 -0.15597,0.76873 -0.54592,3.00815 -0.60162,3.50949 -0.15597,1.30354 -0.41223,3.05267 -0.62391,4.23364 -0.1337,0.73536 -0.27854,1.71576 -0.33425,2.17255 -0.0557,0.45679 -0.15597,1.08069 -0.21167,1.39267 -0.11142,0.50138 -0.28967,1.7269 -0.57935,3.84372 -0.24511,1.81604 -0.62391,4.26709 -0.79102,5.12496 -0.12256,0.67964 -0.35653,2.2394 -0.53478,3.62092 -0.0557,0.4902 -0.17827,1.31468 -0.2674,1.83828 -0.0891,0.52366 -0.2451,1.54865 -0.34538,2.28397 -0.10026,0.73533 -0.22282,1.58206 -0.28965,1.89403 -0.0557,0.3008 -0.14484,1.02498 -0.20055,1.58202 -0.0668,0.5682 -0.14484,1.08072 -0.17827,1.14755 -0.0668,0.10028 -0.17825,0.8356 -0.54591,3.56523 -0.0891,0.64616 -0.21169,1.4149 -0.27854,1.72685 -0.14483,0.67963 -0.34538,2.00545 -0.46794,2.89673 -0.0446,0.36768 -0.13368,1.05832 -0.21166,1.52622 -0.12257,0.80215 -0.11143,0.88015 0.1114,1.2813 0.35652,0.64616 0.88015,0.9581 1.62663,0.9692 0.54591,0 0.65732,-0.0334 0.8913,-0.30077 0.31195,-0.36767 0.42335,-0.74643 0.65731,-2.47339 0.28968,-2.02754 0.60164,-4.05526 0.72419,-4.67916 0.0669,-0.31195 0.15597,-0.98044 0.22284,-1.50406 0.0557,-0.52365 0.21167,-1.60434 0.34536,-2.39539 0.12256,-0.80215 0.30082,-1.94971 0.3788,-2.56247 0.38996,-2.75189 0.3788,-2.74076 0.67961,-4.09996 0.11142,-0.50136 0.45681,-0.44566 3.60978,0.61275 1.37036,0.46795 2.16139,0.71305 2.7853,0.86902 0.67962,0.16711 2.50678,0.80218 2.65162,0.91357 0.0891,0.0891 0.13369,0.57936 0.13369,1.78259 0,1.77149 0.0668,2.04999 0.57935,2.4845 0.64618,0.55707 0.95814,0.61279 1.5152,0.27857 0.61277,-0.37882 0.76875,-0.75763 0.82446,-2.128 0.0334,-0.67962 0.1114,-1.28124 0.15598,-1.3258 0.0557,-0.0557 0.51249,0.0334 1.04727,0.2228 0.52363,0.16715 1.27009,0.4011 1.66003,0.52366 1.01386,0.28967 1.02499,0.33424 1.13641,3.76574 0.0557,1.52634 0.12257,3.36463 0.15598,4.06654 0.0446,0.7019 0.11142,3.8659 0.15598,7.01886 0.0668,5.0581 0.10028,5.7823 0.26739,6.09423 0.65733,1.24781 2.60706,1.3927 3.09726,0.22287 0.18941,-0.43454 0.18941,-3.231 0,-6.65133 -0.0668,-1.25897 -0.17825,-4.83517 -0.23396,-7.94357 l -0.12255,-5.6709 0.26738,-0.23398 c 0.50136,-0.45679 0.80217,-0.69074 1.16983,-0.92472 0.3788,-0.23397 0.38994,-0.23397 1.03614,-0.0334 0.35652,0.1114 0.83558,0.3008 1.06956,0.41222 0.23396,0.11138 0.77988,0.38995 1.20325,0.60162 1.24781,0.63504 1.90515,0.77988 3.58748,0.77988 1.74917,0.0111 1.74917,0.0111 1.93858,1.15868 0.43451,2.70732 0.61276,3.6989 0.83559,4.7239 0.0891,0.40108 0.15597,0.8356 0.15597,0.9693 0,0.36763 0.59049,0.98042 1.14754,1.1921 0.46794,0.17825 0.51251,0.17825 0.98044,-0.0223 0.26739,-0.12256 0.55707,-0.28968 0.6239,-0.36768 0.2117,-0.25624 0.50137,-1.22552 0.42337,-1.41492 -0.0334,-0.11142 -0.1337,-0.61279 -0.22282,-1.13642 -0.078,-0.5236 -0.25624,-1.52636 -0.38994,-2.22823 -0.12256,-0.70191 -0.27854,-1.58207 -0.33423,-1.94974 -0.0669,-0.36763 -0.15599,-0.96927 -0.22284,-1.33691 -0.1337,-0.81332 -0.14483,-1.61552 -0.0223,-1.61552 0.0557,0 0.3788,-0.27853 0.72418,-0.6239 l 0.63504,-0.61276 v -0.73532 c 0,-0.41222 0.0557,-0.90242 0.1337,-1.11412 0.11142,-0.30082 0.10028,-0.42338 -0.0557,-0.7576 -0.10028,-0.22282 -0.18941,-0.6462 -0.18941,-0.947 0,-0.3008 -0.0446,-0.5682 -0.10027,-0.60166 -0.0446,-0.0334 -0.12255,-0.26736 -0.15597,-0.52362 -0.0334,-0.24512 -0.14484,-0.54592 -0.24512,-0.65735 -0.11142,-0.12252 -0.2451,-0.54589 -0.30081,-0.96927 -0.16711,-1.14755 -0.23396,-6.41735 -0.0891,-7.38662 0.0668,-0.45678 0.16712,-1.40381 0.22283,-2.09454 0.0668,-0.6908 0.15597,-1.34812 0.21168,-1.45954 0.0557,-0.10028 0.14484,-0.7353 0.17826,-1.40378 0.0446,-0.67962 0.20054,-1.82718 0.35652,-2.56247 0.14484,-0.73535 0.34538,-1.76031 0.43451,-2.28399 0.0891,-0.52362 0.21168,-1.24781 0.27853,-1.61548 0.0668,-0.36765 0.1337,-1.82715 0.15598,-3.25324 0.0334,-2.13909 0.0668,-2.62934 0.21168,-2.841 0.25624,-0.35651 0.22282,-0.60162 -0.1114,-0.90244 -0.27854,-0.25625 -0.27854,-0.28967 -0.28968,-1.94973 v -1.67114 l -0.37881,-0.53479 c -0.21167,-0.28968 -0.3788,-0.64618 -0.3788,-0.79102 0,-0.15602 -0.0557,-0.36768 -0.12254,-0.5014 -0.0669,-0.12256 -0.16713,-0.50135 -0.2117,-0.85785 -0.0557,-0.3454 -0.20053,-1.09187 -0.32309,-1.66004 -0.12256,-0.56817 -0.27854,-1.53753 -0.34537,-2.17253 -0.11142,-1.09187 -0.33425,-2.65163 -0.54593,-3.81032 -0.0669,-0.31195 -0.14484,-0.7799 -0.18939,-1.05841 -0.16713,-1.19214 -1.25897,-4.22253 -2.02771,-5.68207 -1.00272,-1.89398 -1.24784,-2.39532 -1.24784,-2.56243 0,-0.0892 -0.20053,-0.44567 -0.44564,-0.77991 -0.24511,-0.33423 -0.57935,-0.8913 -0.73533,-1.22553 -0.41221,-0.84673 -1.47063,-2.19483 -1.84942,-2.35083 -0.17827,-0.0668 -0.47908,-0.31195 -0.67963,-0.5348 -0.32308,-0.3676 -0.8356,-0.74645 -1.47064,-1.08067 -0.33423,-0.17823 -0.50136,-0.59046 -0.50136,-1.24781 0,-0.57934 -0.26738,-1.29236 -0.63505,-1.71576 -0.12255,-0.13366 -0.17826,-0.46789 -0.1894,-1.12524 0,-0.52362 -0.0668,-1.00275 -0.14483,-1.09186 -0.0669,-0.0891 -0.14484,-0.47906 -0.16712,-0.86902 l -0.0334,-0.72418 0.69075,-0.1225 0.69077,-0.12256 0.7019,0.71302 c 0.42337,0.44568 0.93585,0.83558 1.31467,1.01385 0.55705,0.2674 0.73532,0.28967 1.94971,0.27851 1.09184,0 1.48178,-0.0446 2.11683,-0.25623 0.85787,-0.28967 1.41493,-0.50135 1.8383,-0.72418 0.15598,-0.078 0.45679,-0.17829 0.66848,-0.21167 0.21168,-0.0335 0.81331,-0.2674 1.33696,-0.52362 1.02499,-0.51252 0.83558,-0.49024 4.86871,-0.75763 1.14755,-0.0668 1.2701,-0.10028 1.55977,-0.37885 0.16713,-0.1671 0.53477,-0.41217 0.80217,-0.557 0.5125,-0.27857 0.67963,-0.51252 1.28125,-1.88288 l 0.37878,-0.84674 0.71305,-0.17828 c 0.91359,-0.22284 1.64891,-0.38996 2.5402,-0.56818 0.40108,-0.0891 0.8913,-0.21167 1.10298,-0.28967 0.5125,-0.18939 2.50678,-0.0891 2.96357,0.15595 0.1894,0.10027 0.55706,0.17828 0.8356,0.16717 0.72418,-0.0112 0.74646,0 0.45679,0.22278 -0.23397,0.17828 -0.25626,0.23401 -0.1337,0.59051 0.24511,0.74646 1.31466,0.93584 1.94972,0.3454 0.47908,-0.43456 0.27852,-1.37042 -0.28967,-1.37042 -0.3788,0 -0.0446,-0.28968 0.50136,-0.42334 1.12525,-0.28967 1.9497,-0.46796 2.16139,-0.46796 0.34538,0 0.50136,0.25623 0.41223,0.71301 -0.1337,0.7688 0.52363,1.3147 1.02499,0.83565 0.32309,-0.30086 0.33425,-0.66847 0.0446,-1.2701 -0.11142,-0.2451 -0.17826,-0.47912 -0.15597,-0.52368 0.0334,-0.0557 0.25624,-0.0891 0.50134,-0.0891 0.24512,0 0.57935,-0.0668 0.74646,-0.156 0.16712,-0.0779 0.66849,-0.17822 1.103,-0.21166 0.90243,-0.0668 1.03613,0.0112 1.03613,0.67962 0,0.38996 0.37878,0.91358 0.66846,0.91358 0.31196,0 0.42337,-0.28968 0.31196,-0.8244 -0.0557,-0.24512 -0.13369,-0.59052 -0.16713,-0.7688 l -0.0557,-0.30078 h 0.73532 c 0.93585,0 1.22553,-0.23401 1.32581,-1.05841 0.0446,-0.31195 0.23396,-0.85791 0.41223,-1.22553 0.37878,-0.75762 0.40108,-0.95819 0.17825,-1.60437 -0.0891,-0.24512 -0.20055,-0.75757 -0.24512,-1.12525 -0.0668,-0.64623 -0.10026,-0.7019 -0.6239,-1.14758 -0.30081,-0.25622 -0.73532,-0.74646 -0.947,-1.10296 -0.44565,-0.73529 -0.73533,-0.86902 -1.23668,-0.60163 -0.18939,0.10027 -0.50135,0.17823 -0.67961,0.17823 -0.28968,0 -0.36766,-0.0668 -0.52364,-0.42334 -0.10028,-0.22284 -0.21169,-0.59046 -0.25626,-0.80212 -0.0557,-0.30085 -0.13369,-0.40113 -0.33422,-0.4234 -0.22283,-0.0335 -0.25626,-0.0112 -0.17826,0.1671 0.0446,0.1114 0.11141,0.55707 0.1337,1.00275 0.078,1.06952 0.0446,1.10297 -2.29511,1.77143 l -0.71304,0.20056 -0.20053,-0.25629 c -0.2117,-0.25623 -0.2117,-0.25623 0.0668,-0.47905 0.56821,-0.44563 0.15598,-1.4261 -0.60162,-1.4261 -0.47906,0 -0.56821,0.24512 -0.4902,1.4038 0.0668,1.12525 0.0557,1.1476 -0.71305,1.35926 -0.26739,0.078 -0.69076,0.18939 -0.947,0.26734 -0.25624,0.078 -0.71304,0.13372 -1.025,0.1449 h -0.5682 v -0.74647 c -0.0111,-0.63507 -0.0446,-0.79107 -0.27852,-1.02503 -0.30082,-0.33422 -0.46794,-0.3565 -0.71305,-0.11138 -0.22283,0.22284 -0.23397,1.00268 -0.0111,1.42608 0.0891,0.16712 0.16711,0.40107 0.16711,0.51246 0,0.17828 -0.41223,0.44567 -0.69077,0.44567 -0.078,0 -0.38993,0.2674 -0.69075,0.59047 -0.69075,0.71306 -1.71574,1.33696 -2.5959,1.5709 -0.35653,0.0891 -1.27011,0.2674 -2.03885,0.40113 -0.76873,0.13367 -1.70462,0.31189 -2.0834,0.40107 -0.37882,0.0891 -0.90245,0.15594 -1.14755,0.15594 -0.42337,0 -0.46793,-0.0334 -0.62392,-0.42334 -0.25624,-0.59045 -0.59048,-0.91357 -0.95814,-0.91357 -0.42337,0 -0.83561,0.47907 -0.93586,1.08069 -0.0334,0.26738 -0.11141,0.47906 -0.15599,0.47906 -0.0446,0 -0.26738,-0.12256 -0.49022,-0.2785 -0.4902,-0.33423 -0.72418,-0.3454 -1.2478,-0.0669 -0.31195,0.16712 -0.46794,0.18946 -0.69076,0.11145 -0.30082,-0.12256 -0.91358,-0.0334 -0.91358,0.12257 0,0.0557 -0.26739,0.36767 -0.57934,0.7019 -0.53479,0.5459 -0.65734,0.6239 -1.31467,0.74646 -0.40109,0.078 -0.94701,0.17822 -1.22554,0.23394 -1.14754,0.22284 -2.12798,0.3565 -2.18367,0.28968 -0.18941,-0.1894 -0.53479,-2.04998 -0.77991,-4.25592 -0.22281,-1.94971 -0.23395,-4.01086 -0.0223,-5.24756 0.12256,-0.7353 0.14484,-0.79102 0.33425,-0.66846 0.33424,0.20056 0.98042,2.61816 0.99156,3.72119 0,0.34534 0.0669,0.95813 0.1337,1.33692 l 0.13369,0.71301 0.14484,-0.65729 c 0.10028,-0.47907 0.11142,-0.88019 0.0334,-1.53754 -0.20052,-1.58203 -0.4345,-3.0415 -0.50134,-3.15295 -0.0334,-0.0668 -0.13369,-0.45678 -0.22283,-0.88013 -0.0891,-0.41223 -0.33423,-1.25897 -0.54592,-1.8717 -0.23396,-0.66852 -0.47908,-1.72693 -0.63505,-2.67395 -0.32309,-2.12793 -0.60163,-3.14185 -1.11411,-4.0888 -0.23398,-0.4457 -0.61278,-1.16987 -0.8356,-1.5932 -0.23396,-0.43452 -0.47907,-0.85792 -0.55707,-0.94703 -0.23396,-0.2785 -1.57091,-2.59589 -1.88288,-3.2644 -0.27851,-0.56817 -0.4902,-1.23664 -0.91357,-2.85212 -0.0891,-0.32312 -0.23396,-1.10295 -0.33423,-1.72685 -0.16711,-1.03615 -0.26739,-1.89406 -0.59048,-5.35896 -0.0669,-0.67964 -0.16712,-1.62664 -0.23398,-2.12799 -0.0557,-0.49025 -0.1114,-1.19215 -0.1114,-1.55975 -0.0111,-0.63508 -0.20055,-2.22828 -0.43451,-3.49836 -0.43451,-2.40649 -1.972,-5.38122 -3.30895,-6.41736 -1.02499,-0.7799 -2.36193,-1.38153 -3.33123,-1.49292 -0.42336,-0.0557 -1.15868,-0.17828 -1.61548,-0.27856 -1.20325,-0.2785 -1.45951,-0.28967 -1.90515,-0.12256 z M 178.9672,412.3175 c 0.3231,0.21167 0.5682,0.56818 1.62663,2.35077 0.56819,0.94703 0.56819,0.94703 0.56819,1.92743 0,0.6239 0.0668,1.12525 0.16713,1.38153 0.10026,0.22284 0.20055,0.84674 0.2451,1.37037 l 0.0668,0.9693 -0.34538,0.2451 c -0.38994,0.26735 -1.39266,0.50135 -2.08341,0.47908 -3.1864,-0.11138 -3.87715,-0.16712 -4.82416,-0.36768 -0.60162,-0.12256 -1.42608,-0.30084 -1.84944,-0.38995 -0.42337,-0.0891 -0.93587,-0.25623 -1.13641,-0.3899 -0.42336,-0.25628 -1.93857,-1.87175 -1.93857,-2.06115 0,-0.0668 -0.078,-0.1894 -0.16711,-0.2674 -0.22283,-0.1894 -0.21169,-0.4345 0.0334,-0.5125 0.10027,-0.0446 0.49022,-0.21168 0.85788,-0.3788 0.36766,-0.1671 0.74646,-0.3454 0.83559,-0.37878 0.0891,-0.0335 0.3231,-0.16712 0.50136,-0.28967 0.1894,-0.12255 0.49022,-0.30085 0.66847,-0.38995 0.42337,-0.21174 0.7576,-0.4234 0.8356,-0.51252 0.0334,-0.0446 0.77987,-0.44568 1.67117,-0.91358 1.98314,-1.02502 2.33966,-1.22552 2.33966,-1.3369 0,-0.0446 0.0668,-0.078 0.14484,-0.078 0.078,0 0.21169,-0.0669 0.27853,-0.13374 0.12257,-0.12256 0.96929,-0.51251 1.13642,-0.52362 0.0334,-0.0112 0.20053,0.0891 0.36765,0.20056 z m 27.93108,11.8097 c 0,0.1114 0.078,0.38995 0.16712,0.6239 0.30081,0.69073 0.3788,1.37036 0.20053,1.52637 -0.16711,0.13366 -0.76873,0.17823 -0.8913,0.0557 -0.0334,-0.0446 -0.11142,-0.28967 -0.15597,-0.5459 -0.0446,-0.26739 -0.12256,-0.61279 -0.15598,-0.76873 -0.11142,-0.4457 0.23397,-1.10297 0.56821,-1.10297 0.18939,0 0.26739,0.0668 0.26739,0.21167 z m -2.62933,39.1837 c 0.10027,0.0891 0.17825,0.22285 0.17825,0.2897 0,0.0668 0.0668,0.21166 0.15598,0.30077 0.078,0.10028 0.20055,0.32313 0.26739,0.51251 0.0668,0.17828 0.28968,0.8356 0.51249,1.44836 0.23397,0.64618 0.40109,1.32581 0.40109,1.61548 0,0.35651 0.1337,0.75763 0.44565,1.39264 0.47908,0.9693 0.52365,1.22556 0.27853,1.54864 -0.0891,0.12256 -0.16711,0.3454 -0.16711,0.50135 0,0.33425 0.31195,1.22555 0.52363,1.47065 0.14484,0.17827 0.20055,0.947 0.078,1.25896 -0.078,0.20056 -0.40109,0.23398 -0.71304,0.0669 -0.12256,-0.0669 -0.47907,-0.16715 -0.80216,-0.22281 -0.46794,-0.0892 -1.29239,-0.36768 -1.51521,-0.51252 -0.0223,-0.0112 -0.0891,-1.47064 -0.14483,-3.24212 -0.0557,-1.76032 -0.14484,-3.63202 -0.20055,-4.15564 -0.12256,-1.28124 -0.0334,-2.31738 0.20055,-2.37311 0.3008,-0.0891 0.32308,-0.078 0.50135,0.10027 z m -4.05542,6.3505 c 0.0446,1.7269 0.0223,2.28397 -0.078,2.3174 -0.078,0.0334 -0.16711,0.0111 -0.20054,-0.0446 -0.0334,-0.0668 -0.078,-1.08068 -0.0891,-2.25048 -0.0223,-1.96088 0.0446,-2.57367 0.2451,-2.37312 0.0334,0.0446 0.0891,1.09187 0.12256,2.3508 z m 5.4592,5.8937 c 0.27853,0.078 0.65735,0.1783 0.85788,0.22285 0.42337,0.0891 0.43451,0.13367 0.53479,2.02771 l 0.0557,1.24781 -0.74647,0.60163 c -0.92471,0.73534 -2.04998,1.35924 -2.15025,1.19213 -0.0446,-0.0669 -0.11142,-1.3147 -0.14484,-2.76306 -0.0446,-1.94971 -0.0223,-2.66272 0.0669,-2.72959 0.15597,-0.10025 0.82444,-0.0111 1.52633,0.20052 z m 1.88287,6.38396 c 0.078,0.16711 0.16712,0.92471 0.20055,1.69344 0.0557,1.18098 0.0334,1.5152 -0.16711,2.22828 -0.12256,0.45679 -0.25624,1.05842 -0.30083,1.33692 -0.13368,0.9136 -0.38993,1.5598 -0.61276,1.5598 -0.31195,0 -1.57091,-0.33425 -1.91629,-0.5125 -0.2674,-0.1337 -0.30082,-0.23398 -0.38994,-1.01386 -0.1337,-1.29239 -0.10027,-3.32007 0.0668,-3.62091 0.078,-0.14483 0.34536,-0.40106 0.60162,-0.56818 0.25626,-0.16715 0.84674,-0.56823 1.30353,-0.90245 0.45678,-0.3231 0.89129,-0.5682 0.95814,-0.5459 0.0668,0.0223 0.18941,0.1782 0.25624,0.34536 z m -19.74226,3.25324 c 0.15597,0.12255 0.40108,0.2228 0.53477,0.2228 0.25626,0 0.38996,0.18942 0.38996,0.55707 0,0.35653 0.44565,1.22553 0.73532,1.40381 0.14484,0.10028 0.26739,0.26739 0.26739,0.37878 0,0.10028 0.10027,0.31194 0.22282,0.45679 0.12255,0.14483 0.25625,0.31195 0.31196,0.37881 0.0445,0.0557 0.12254,0.20054 0.16711,0.32309 0.078,0.18939 0.17827,0.20055 1.55977,0.13373 1.22554,-0.0557 1.42609,-0.0446 1.16983,0.0668 -0.16711,0.078 -0.5125,0.34538 -0.77987,0.5905 -0.50136,0.46792 -1.14756,0.947 -1.25898,0.947 -0.0668,0 -0.72418,0.44564 -0.83558,0.55706 -0.14484,0.15597 -2.37308,1.57092 -3.03041,1.92744 -0.74646,0.41222 -1.03613,0.49022 -1.12528,0.3231 -0.0223,-0.0446 0.0446,-0.65734 0.15598,-1.35925 0.11142,-0.7019 0.27853,-1.78259 0.37881,-2.39535 0.41222,-2.77417 0.74646,-4.73502 0.80216,-4.73502 0.0334,0 0.17826,0.10025 0.33424,0.22282 z m 12.3222,5.2698 c 0.20055,-0.0111 0.42337,-0.0335 0.5125,-0.0557 0.34538,-0.0891 0.47908,0.77991 0.56821,3.92173 0.0557,1.68234 0.1337,3.44265 0.16711,3.91058 0.10028,1.13642 0.0334,1.18097 -1.12526,0.8356 -1.31466,-0.41223 -2.04999,-0.7019 -2.29509,-0.92474 -0.2117,-0.17826 -0.22284,-0.30082 -0.15597,-1.31464 0.0334,-0.6128 0.1114,-2.36197 0.16711,-3.8883 0.0557,-1.52637 0.14484,-2.80762 0.20053,-2.8633 0.21169,-0.20055 0.76876,-0.156 1.18097,0.1114 0.24512,0.15598 0.59049,0.2674 0.77989,0.2674 z m 5.93828,0.1894 c 0.34538,0.15596 0.47907,0.28966 0.52364,0.53478 0.14484,0.7019 -0.0334,1.11412 -0.80217,1.92742 -0.76874,0.8133 -1.03613,0.90244 -1.16983,0.4011 -0.0891,-0.35654 -0.078,-3.03042 0.0111,-3.1307 0.12256,-0.1114 0.91359,0.0334 1.43722,0.2674 z m -11.02982,0.1671 c 0.0334,0.2117 0.0111,1.2701 -0.0557,2.33966 -0.0669,1.06958 -0.12256,2.37311 -0.12256,2.88559 0,1.1587 -0.0891,1.27011 -0.86901,1.06955 -0.28967,-0.078 -0.5682,-0.1894 -0.63505,-0.23394 -0.0557,-0.0557 -0.20055,-0.10029 -0.33424,-0.10029 -0.28968,0 -1.84944,-0.4902 -4.71274,-1.49292 -0.4011,-0.13369 -0.43451,-0.3565 -0.078,-0.55705 0.12254,-0.0668 0.40108,-0.25627 0.62392,-0.43452 0.22281,-0.16712 0.44564,-0.30081 0.47906,-0.30081 0.0446,0 0.21169,-0.0892 0.3788,-0.2117 0.32311,-0.22281 1.44836,-0.96927 1.86058,-1.23667 0.27853,-0.17825 1.43723,-0.98044 2.43994,-1.6823 0.74646,-0.5348 0.92472,-0.54594 1.02499,-0.0446 z"
         id="path2"
         inkscape:connector-curvature="0" />
    </g>
  </g>
</svg>
