<?xml version="1.0" encoding="UTF-8" standalone="no"?>
<svg
   xmlns:dc="http://purl.org/dc/elements/1.1/"
   xmlns:cc="http://creativecommons.org/ns#"
   xmlns:rdf="http://www.w3.org/1999/02/22-rdf-syntax-ns#"
   xmlns:svg="http://www.w3.org/2000/svg"
   xmlns="http://www.w3.org/2000/svg"
   xmlns:sodipodi="http://sodipodi.sourceforge.net/DTD/sodipodi-0.dtd"
   xmlns:inkscape="http://www.inkscape.org/namespaces/inkscape"
   version="1.1"
   width="720.31891"
   height="742.71094"
   viewBox="0 0 720.31891 742.71094"
   id="svg11"
   sodipodi:docname="alone_sitting_female8.svg"
   inkscape:version="1.0.2 (e86c870879, 2021-01-15)">
  <metadata
     id="metadata17">
    <rdf:RDF>
      <cc:Work
         rdf:about="">
        <dc:format>image/svg+xml</dc:format>
        <dc:type
           rdf:resource="http://purl.org/dc/dcmitype/StillImage" />
        <dc:title></dc:title>
      </cc:Work>
    </rdf:RDF>
  </metadata>
  <defs
     id="defs15" />
  <sodipodi:namedview
     pagecolor="#ffffff"
     bordercolor="#666666"
     borderopacity="1"
     objecttolerance="10"
     gridtolerance="10"
     guidetolerance="10"
     inkscape:pageopacity="0"
     inkscape:pageshadow="2"
     inkscape:window-width="1920"
     inkscape:window-height="997"
     id="namedview13"
     showgrid="false"
     fit-margin-top="0"
     fit-margin-left="0"
     fit-margin-right="0"
     fit-margin-bottom="0"
     inkscape:zoom="0.73258197"
     inkscape:cx="359.9114"
     inkscape:cy="390.73595"
     inkscape:window-x="0"
     inkscape:window-y="0"
     inkscape:window-maximized="1"
     inkscape:current-layer="svg11" />
  <rect
     style="fill:#ffffff;stroke-width:5.66929;stroke-linecap:square;stroke-linejoin:round;stroke-dasharray:11.3386, 11.3386"
     id="rect842"
     width="720.31891"
     height="742.71094"
     x="0"
     y="0" />
  <g
     id="layer1"
     transform="matrix(18.40811,0,0,18.40811,-7216.5422,-10357.735)">
    <g
       style="fill:#000000;fill-opacity:1;stroke-linejoin:miter"
       id="g2" />
    <g
       style="fill:#000000;fill-opacity:1;stroke-linejoin:miter"
       id="g6">
      <path
         d="m 407.45737,583.4531 0.0591,0.0542 c 0.0566,0.0517 0.0591,0.0689 0.0542,0.28554 -0.0123,0.36675 -0.002,0.4578 0.0467,0.5538 0.0541,0.0985 0.0443,0.1625 -0.0443,0.30526 -0.0271,0.0467 -0.0517,0.11324 -0.0517,0.1477 0,0.0885 0.0788,0.20674 0.18216,0.26824 0.0763,0.0468 0.0886,0.069 0.0886,0.1477 0,0.0541 -0.0172,0.1108 -0.0443,0.14033 -0.0689,0.0739 -0.17721,0.31507 -0.17721,0.3938 0,0.0394 0.0271,0.11322 0.0615,0.16247 0.0345,0.0492 0.0615,0.0985 0.0615,0.10584 0,0.01 -0.0394,0.0641 -0.0861,0.12061 -0.0468,0.0591 -0.0862,0.11815 -0.0862,0.13049 0,0.0296 -0.0369,0.0985 -0.11813,0.22886 -0.0788,0.1256 -0.0763,0.3151 0.01,0.41604 l 0.064,0.0763 -0.0689,0.16737 c -0.0369,0.0911 -0.096,0.2043 -0.13044,0.2511 -0.14278,0.187 -0.1526,0.21654 -0.17968,0.51195 -0.0271,0.29785 -0.0222,0.28795 -0.20922,0.6178 -0.0714,0.12311 -0.0665,0.22895 0.0148,0.34461 0.0689,0.0935 0.0664,0.1206 -0.0271,0.30274 -0.064,0.12554 -0.0787,0.1846 -0.0812,0.3077 0,0.16244 -0.0148,0.1797 -0.15016,0.1797 -0.0295,0 -0.0812,0.0221 -0.11815,0.0516 -0.0591,0.0468 -0.0664,0.0665 -0.0615,0.19205 0.005,0.123 -0.002,0.1477 -0.0591,0.20676 -0.0763,0.0738 -0.0837,0.13537 -0.0295,0.23874 0.0197,0.0394 0.0271,0.0763 0.0172,0.0837 -0.002,10e-4 -0.0171,0.002 -0.0431,0.002 -0.0991,0 -0.3565,-0.007 -0.65103,-0.0188 -0.43062,-0.0182 -0.87787,-0.0268 -1.35968,-0.0268 -0.427,0 -0.88116,0.007 -1.375,0.0194 -0.24808,0.007 -0.48029,0.011 -0.63821,0.011 -0.11316,0 -0.18818,-0.002 -0.20359,-0.006 -0.0837,-0.0197 -0.0861,-0.0541 -0.002,-0.0739 0.0345,-0.01 0.11078,-0.0369 0.16739,-0.0615 0.0541,-0.0246 0.14029,-0.0591 0.18707,-0.0763 0.0935,-0.032 0.14767,-0.0517 0.25847,-0.0984 0.0418,-0.0148 0.12303,-0.0443 0.1846,-0.0641 0.0615,-0.0196 0.1329,-0.0467 0.16,-0.0591 0.0271,-0.0123 0.20428,-0.0788 0.3938,-0.1452 0.18953,-0.0689 0.3889,-0.1477 0.44307,-0.17476 0.0541,-0.0271 0.11075,-0.0492 0.12553,-0.0492 0.0172,0 0.0935,-0.0296 0.1723,-0.064 0.0812,-0.0344 0.16738,-0.0713 0.19445,-0.0837 0.42585,-0.16736 1.20612,-0.62763 1.55317,-0.91316 0.0566,-0.0468 0.14523,-0.11815 0.19693,-0.16247 0.50457,-0.41107 0.58581,-0.48986 0.65965,-0.63507 0.0418,-0.0813 0.0812,-0.15256 0.0886,-0.15996 0.0197,-0.0197 0.13785,-0.27326 0.1674,-0.35694 0.0148,-0.0418 0.032,-0.16246 0.0394,-0.27076 0.007,-0.1083 0.0246,-0.29046 0.0369,-0.4061 0.0148,-0.11575 0.0418,-0.3692 0.064,-0.5662 0.0222,-0.1969 0.0517,-0.4504 0.064,-0.5661 0.0492,-0.43565 0.096,-0.91814 0.14768,-1.5778 z m 8.98673,0 0.0295,0.3717 c 0.0172,0.2043 0.0443,0.5046 0.0566,0.6671 0.032,0.35685 0.064,0.66704 0.096,0.9476 0.0123,0.1157 0.0418,0.3692 0.064,0.5661 0.0222,0.197 0.0492,0.45045 0.064,0.5662 0.0123,0.11564 0.0295,0.2978 0.0369,0.4061 0.007,0.1083 0.0246,0.22895 0.0394,0.27076 0.0295,0.0837 0.1477,0.33724 0.16738,0.35694 0.007,0.007 0.0468,0.0787 0.0886,0.15996 0.0738,0.14521 0.15505,0.224 0.65967,0.63507 0.0517,0.0443 0.14028,0.11567 0.19688,0.16247 0.3471,0.28553 1.12737,0.7458 1.55318,0.91316 0.0271,0.0123 0.11325,0.0492 0.19445,0.0837 0.0788,0.0345 0.1551,0.064 0.17231,0.064 0.0148,0 0.0714,0.0221 0.12556,0.0492 0.0541,0.0271 0.2535,0.10585 0.44304,0.17476 0.18951,0.0664 0.36676,0.13294 0.39383,0.1452 0.0271,0.0123 0.0985,0.0394 0.16,0.0591 0.0615,0.0197 0.14521,0.0493 0.1846,0.0641 0.11075,0.0467 0.16493,0.0664 0.25846,0.0984 0.0467,0.0172 0.1329,0.0517 0.18707,0.0763 0.0566,0.0246 0.1329,0.0517 0.16736,0.0615 0.0837,0.0197 0.0812,0.0542 -0.002,0.0739 -0.0154,0.004 -0.0904,0.006 -0.20359,0.006 -0.15793,0 -0.39013,-0.004 -0.63823,-0.011 -0.49385,-0.0127 -0.948,-0.0194 -1.375,-0.0194 -0.48182,0 -0.92906,0.009 -1.35966,0.0268 -0.29452,0.0117 -0.55197,0.0188 -0.65104,0.0188 -0.026,0 -0.041,-4.9e-4 -0.0431,-0.002 -0.01,-0.007 -0.002,-0.0443 0.0172,-0.0837 0.0542,-0.10337 0.0468,-0.1649 -0.0295,-0.23874 -0.0566,-0.0591 -0.064,-0.0838 -0.0591,-0.20676 0.005,-0.1256 -0.002,-0.14523 -0.0616,-0.19205 -0.0369,-0.0295 -0.0886,-0.0516 -0.11813,-0.0516 -0.13538,0 -0.15015,-0.0173 -0.15015,-0.1797 -0.002,-0.1231 -0.0172,-0.18216 -0.0812,-0.3077 -0.0935,-0.18214 -0.096,-0.2092 -0.0271,-0.30274 0.0812,-0.11566 0.0861,-0.2215 0.0148,-0.34461 -0.18707,-0.32985 -0.18217,-0.31995 -0.20923,-0.6178 -0.0271,-0.29541 -0.0369,-0.32495 -0.17969,-0.51195 -0.0345,-0.0468 -0.0936,-0.16004 -0.13045,-0.2511 l -0.0689,-0.16737 0.064,-0.0763 c 0.0861,-0.10094 0.0886,-0.29044 0.01,-0.41604 -0.0812,-0.1304 -0.11813,-0.1993 -0.11813,-0.22886 0,-0.0123 -0.0394,-0.0714 -0.0861,-0.13049 -0.0468,-0.0566 -0.0862,-0.11075 -0.0862,-0.12061 0,-0.007 0.0271,-0.0566 0.0615,-0.10584 0.0345,-0.0493 0.0615,-0.12304 0.0615,-0.16247 0,-0.0787 -0.1083,-0.31993 -0.17721,-0.3938 -0.0271,-0.0295 -0.0443,-0.0862 -0.0443,-0.14033 0,-0.0787 0.0123,-0.1009 0.0886,-0.1477 0.1034,-0.0615 0.18217,-0.1797 0.18217,-0.26824 0,-0.0345 -0.0246,-0.10096 -0.0517,-0.1477 -0.0886,-0.14276 -0.0985,-0.20679 -0.0443,-0.30526 0.0493,-0.096 0.0591,-0.18705 0.0468,-0.5538 -0.005,-0.2141 -0.002,-0.23384 0.0517,-0.28303 z m -4.93253,11.4721 c 0.17343,0 0.36657,0.021 0.52655,0.0622 0.12308,0.032 0.26584,0.0763 0.31998,0.101 0.0542,0.0246 0.16738,0.0738 0.25353,0.1107 0.13537,0.0616 0.15262,0.0763 0.15262,0.1379 0,0.0492 -0.0148,0.0738 -0.0542,0.0861 -0.032,0.007 -0.0763,0.032 -0.0985,0.0517 -0.0222,0.0197 -0.25353,0.1231 -0.5169,0.22894 -0.48981,0.19689 -0.60797,0.25106 -0.63257,0.2904 -8.9e-4,10e-4 -0.003,0.002 -0.007,0.002 -0.0275,0 -0.12915,-0.0389 -0.24413,-0.0932 -0.36677,-0.17477 -0.47508,-0.224 -0.50215,-0.224 -0.0123,0 -0.11077,-0.0443 -0.21661,-0.0935 l -0.19446,-0.0935 0.096,-0.0616 c 0.21905,-0.1452 0.68917,-0.4357 0.73348,-0.4529 0.0855,-0.0352 0.22672,-0.0524 0.38419,-0.0524 z m -0.78567,-30.6976 c -0.0565,0 -0.0904,0.006 -0.10804,0.0164 -0.0246,0.0148 -0.0566,0.0271 -0.0738,0.0271 -0.0172,0 -0.0861,0.0271 -0.15509,0.0615 -0.0665,0.032 -0.13785,0.0615 -0.15259,0.0615 -0.0172,0 -0.032,0.01 -0.032,0.0246 0,0.0123 -0.0369,0.0246 -0.0837,0.0246 -0.0468,0 -0.0911,0.01 -0.0985,0.0222 -0.007,0.0123 -0.0616,0.0443 -0.11817,0.0713 -0.0591,0.0271 -0.14275,0.0813 -0.18955,0.1207 -0.31997,0.26824 -0.44057,0.38146 -0.5021,0.4652 -0.0369,0.0541 -0.12063,0.16736 -0.18463,0.2535 -0.24367,0.3298 -0.30767,0.43077 -0.43814,0.68675 -0.10583,0.21165 -0.1329,0.28555 -0.13538,0.38641 0,0.0664 -0.0148,0.16248 -0.032,0.20924 -0.0197,0.0468 -0.0788,0.22893 -0.13537,0.4061 -0.0566,0.1748 -0.11325,0.3373 -0.12555,0.3594 -0.01,0.0222 -0.0419,0.1428 -0.0714,0.27075 -0.0271,0.12805 -0.0788,0.33972 -0.11322,0.47265 -0.0344,0.13043 -0.0615,0.26087 -0.0615,0.2855 0,0.0246 -0.0148,0.0763 -0.0345,0.1157 -0.0197,0.0394 -0.0541,0.18706 -0.0763,0.3298 -0.0394,0.2462 -0.064,0.38894 -0.11078,0.64 -0.0271,0.14524 -0.0911,0.53165 -0.12799,0.76304 -0.0246,0.15753 -0.032,0.75811 -0.0172,1.35382 0.007,0.23871 0.007,0.23871 -0.22153,0.71874 -0.0837,0.1723 -0.15017,0.3175 -0.15017,0.3249 0,0.007 -0.0541,0.128 -0.12061,0.2658 -0.064,0.1403 -0.15015,0.32984 -0.18707,0.42585 -0.0394,0.0935 -0.0886,0.20678 -0.11322,0.2511 -0.11813,0.21165 -0.29536,0.69165 -0.36676,0.99195 -0.0911,0.38646 -0.0984,0.41845 -0.0984,0.4923 0,0.0738 -0.14029,0.36426 -0.20923,0.43317 -0.0197,0.0197 -0.0861,0.10339 -0.14767,0.18219 -0.096,0.12548 -0.29538,0.29534 -0.34461,0.29534 -0.0221,0 -0.20924,0.12555 -0.3323,0.2215 -0.21598,0.1705 -0.40326,0.376 -0.46808,0.5061 h 0.004 q -6.2e-4,0.004 -0.001,0.008 -0.0204,0.0717 -0.0364,0.12513 h 0.004 c -4.7e-4,0.003 -9.6e-4,0.005 -10e-4,0.008 h 0.004 q 0.006,0.007 0.006,0.0151 4e-4,0.005 -1.5e-4,0.0102 l -0.0153,0.1506 q -0.0147,0.1177 -0.0241,0.21534 l -0.009,0.0665 h 0.004 c 0.007,0.0341 0.003,0.0908 -0.0105,0.1806 -0.0246,0.1551 -0.0517,0.4086 -0.096,0.8566 -0.0123,0.128 -0.0295,0.3052 -0.0369,0.39384 -0.0148,0.14766 0.0221,0.54646 0.0837,0.89836 0.0123,0.0665 0.0345,0.1896 0.0468,0.2708 0.0148,0.0812 0.0443,0.21414 0.0664,0.2954 0.0419,0.1501 0.0714,0.30766 0.1083,0.5587 0.0123,0.0763 0.0295,0.15014 0.0369,0.1649 0.0271,0.0419 0.0197,0.832 -0.007,1.024 -0.0148,0.0936 -0.0271,0.2314 -0.0271,0.3003 0,0.0714 -0.01,0.1304 -0.0246,0.1304 -0.0147,0 -0.0246,0.0838 -0.0246,0.20187 0,0.11323 -0.01,0.24373 -0.0246,0.29046 -0.0418,0.15257 -0.0788,0.68183 -0.10092,1.43997 -0.0246,0.8861 -0.0591,1.2135 -0.14766,1.4301 -0.0148,0.0394 -0.0369,0.0935 -0.0492,0.1206 -0.01,0.0271 -0.0246,0.0738 -0.0345,0.1009 -0.0172,0.064 -0.0935,0.1575 -0.13046,0.1575 -0.0148,0 -0.0295,0.007 -0.0344,0.0173 -0.002,0.0123 -0.10093,0.0812 -0.21662,0.155 -0.35691,0.2314 -0.48984,0.3422 -0.93538,0.78774 -0.29042,0.29286 -0.5341,0.50946 -0.75072,0.66949 -0.17474,0.13044 -0.37658,0.28302 -0.44798,0.33722 -0.0689,0.0566 -0.13784,0.10089 -0.15013,0.10089 -0.0123,0 -0.0369,0.0173 -0.0542,0.037 -0.0394,0.0467 -0.41352,0.30765 -0.44306,0.30765 -0.01,0 -0.032,0.0172 -0.0492,0.0394 -0.0197,0.0197 -0.0665,0.0517 -0.11078,0.069 -0.0418,0.0172 -0.0911,0.0467 -0.11074,0.0664 -0.0197,0.0197 -0.0985,0.0665 -0.1723,0.1058 -0.20924,0.1133 -0.27324,0.14773 -0.41847,0.2413 -0.31259,0.19794 -0.79783,0.3588 -1.05011,0.3588 -0.0238,0 -0.0456,-10e-4 -0.0649,-0.004 -0.27813,-0.0443 -0.3372,-0.0591 -0.39138,-0.0984 -0.32736,-0.23635 -0.52182,-0.3028 -1.02148,-0.34957 -0.22644,-0.0196 -0.39874,-0.0467 -0.43076,-0.0689 -0.032,-0.0172 -0.11813,-0.0467 -0.19198,-0.064 -0.12555,-0.027 -0.21167,-0.0516 -0.3323,-0.0984 -0.0271,-0.01 -0.11076,-0.037 -0.1846,-0.0616 -0.0739,-0.0246 -0.15016,-0.0541 -0.16493,-0.0689 -0.0172,-0.0123 -0.0911,-0.0246 -0.16244,-0.0271 -0.008,-1.7e-4 -0.0161,-3e-4 -0.0235,-3e-4 -0.089,0 -0.12952,0.0142 -0.1931,0.0619 -0.11568,0.0886 -0.1649,0.1821 -0.1255,0.24365 0.0443,0.0714 0.0369,0.0984 -0.0345,0.15509 -0.0369,0.0271 -0.1378,0.16242 -0.224,0.29786 -0.0886,0.1378 -0.18212,0.2658 -0.20675,0.2855 -0.0344,0.0271 -0.0566,0.0886 -0.0714,0.18953 -0.01,0.0837 -0.0369,0.18463 -0.0591,0.22147 -0.0197,0.0369 -0.0542,0.1182 -0.0738,0.1797 -0.0492,0.1551 -0.2117,0.54646 -0.24121,0.5834 -0.0148,0.0172 -0.064,0.032 -0.11078,0.032 -0.0467,0 -0.10583,0.0123 -0.13538,0.0271 -0.0148,0.008 -0.0265,0.0128 -0.0369,0.0128 -0.0172,0 -0.0308,-0.0123 -0.0492,-0.0399 -0.0197,-0.0296 -0.0739,-0.0861 -0.1206,-0.128 -0.0468,-0.0418 -0.0837,-0.096 -0.0837,-0.1206 0,-0.064 -0.0911,-0.26583 -0.17969,-0.3963 -0.0887,-0.1319 -0.19211,-0.1882 -0.33932,-0.1882 -0.0121,0 -0.0246,4.3e-4 -0.0373,10e-4 -0.11322,0.007 -0.12306,0.0123 -0.16983,0.10584 -0.0591,0.12305 -0.0665,0.54394 -0.0123,0.67444 0.032,0.0812 0.16248,0.28056 0.31754,0.49476 0.0443,0.0615 0.0935,0.1427 0.11322,0.18456 0.0394,0.091 0.10339,0.16734 0.18464,0.21164 0.0376,0.0207 0.132,0.0312 0.2482,0.0312 0.1195,0 0.26198,-0.0111 0.3893,-0.0336 0.0726,-0.0123 0.12305,-0.0184 0.1655,-0.0184 0.0425,0 0.0769,0.006 0.11755,0.0184 0.23877,0.0714 0.23139,0.0665 0.30768,0.2535 0.0542,0.13296 0.15015,0.16494 0.52182,0.16494 0.18463,0 0.3963,-0.0123 0.47263,-0.0271 l 0.13782,-0.0295 0.11077,0.1157 c 0.11075,0.11074 0.11323,0.11325 0.27076,0.11325 0.14523,0 0.1846,-0.0124 0.48737,-0.16245 0.17968,-0.0911 0.43075,-0.21414 0.55874,-0.27817 0.12552,-0.0615 0.2363,-0.12799 0.24121,-0.14523 0.008,-0.0182 0.0462,-0.0308 0.0747,-0.0308 0.0175,0 0.0312,0.005 0.0312,0.0161 0,0.007 -0.0271,0.0615 -0.0615,0.12304 -0.0345,0.0615 -0.0615,0.13044 -0.0615,0.15754 0,0.0246 -0.0394,0.16246 -0.0861,0.30526 -0.12556,0.3716 -0.13786,0.6621 -0.0517,1.14945 0.0344,0.1994 0.0812,0.41602 0.1009,0.47998 0.0615,0.19202 0.19938,0.45783 0.29783,0.57107 0.0812,0.096 0.54397,0.448 0.58829,0.448 0.0123,0 0.0566,0.0271 0.10092,0.0615 0.0443,0.0345 0.096,0.0615 0.11322,0.0615 0.0172,0 0.12061,0.0665 0.22891,0.1453 0.34461,0.2535 1.04367,0.66704 1.13227,0.66704 0.0222,0 0.54644,0.26336 0.63998,0.31996 0.0443,0.0271 0.0886,0.0763 0.096,0.1083 0.01,0.0443 0.0665,0.0861 0.22891,0.16494 0.12061,0.0566 0.30768,0.16246 0.41843,0.23382 0.11325,0.0738 0.21908,0.13294 0.2363,0.13294 0.0172,0 0.0419,0.01 0.0566,0.0222 0.0222,0.0196 0.32492,0.18705 0.50212,0.27565 0.20186,0.10094 0.4726,0.2191 0.50462,0.2191 0.0197,0 0.0418,0.01 0.0492,0.0246 0.007,0.0123 0.0369,0.0246 0.064,0.0246 0.0689,0 0.0566,0.0467 -0.032,0.1379 -0.10092,0.0984 -0.16001,0.1723 -0.22153,0.2732 -0.0616,0.10336 -0.17477,0.1723 -0.33723,0.20676 -0.0714,0.0147 -0.13536,0.0418 -0.14275,0.0615 -0.007,0.0197 -0.0271,0.0345 -0.0443,0.0345 -0.0443,0 -0.33231,0.33473 -0.33231,0.38883 0,0.0123 -0.0172,0.0369 -0.0369,0.0542 -0.0197,0.0173 -0.0369,0.0468 -0.0369,0.064 0,0.0197 -0.0197,0.0812 -0.0443,0.1403 -0.0985,0.224 -0.1157,0.30274 -0.1157,0.5489 v 0.2486 l -0.096,0.1403 c -0.0812,0.11323 -0.10092,0.1649 -0.1083,0.28553 -0.01,0.12557 -0.005,0.14771 0.0418,0.17727 0.0271,0.0172 0.0517,0.0492 0.0517,0.0689 0,0.0541 0.0492,0.0984 0.11322,0.0984 0.0394,0 0.0566,0.0172 0.0665,0.0813 0.007,0.0443 0.0394,0.123 0.0714,0.1723 0.0405,0.0669 0.052,0.0859 0.10492,0.0859 0.021,0 0.0486,-0.003 0.0871,-0.007 0.0354,-0.003 0.0621,-0.006 0.0837,-0.006 0.0565,0 0.0775,0.0156 0.12554,0.0672 0.0566,0.0591 0.0911,0.0739 0.17723,0.0739 0.064,0 0.10587,0.0123 0.10587,0.0271 0,0.0131 0.0207,0.0197 0.0667,0.0197 0.023,0 0.0523,-0.002 0.0884,-0.005 0.18215,-0.0172 0.23877,-0.0369 0.23877,-0.0813 0,-0.0418 0.0591,-0.0714 0.17968,-0.0935 0.0517,-0.01 0.0985,-0.0295 0.10584,-0.0468 0.005,-0.0172 0.0862,-0.0689 0.17722,-0.11566 0.0911,-0.0467 0.16984,-0.0935 0.17722,-0.10094 0.007,-0.007 0.0566,-0.0295 0.11077,-0.0468 0.0541,-0.0172 0.14525,-0.0517 0.20429,-0.0763 0.0566,-0.0271 0.11816,-0.0467 0.1354,-0.0467 0.0172,0 0.0788,-0.0222 0.13538,-0.0493 0.0541,-0.027 0.11813,-0.0492 0.14028,-0.0492 0.0222,0 0.0615,-0.0123 0.0862,-0.0246 0.0271,-0.0148 0.14524,-0.0418 0.26337,-0.064 0.11817,-0.0197 0.22153,-0.0467 0.224,-0.0591 0.005,-0.0148 0.0418,-0.0246 0.0788,-0.0246 0.0394,0 0.0788,-0.0123 0.0861,-0.0246 0.007,-0.0148 0.0763,-0.0246 0.15262,-0.0246 0.14276,0 0.67197,-0.0911 0.99194,-0.1723 0.10093,-0.0246 0.32245,-0.0591 0.49232,-0.0739 0.42581,-0.0369 0.87872,-0.091 1.16918,-0.1378 0.12174,-0.0201 0.2999,-0.0298 0.51536,-0.0298 0.46841,0 1.11304,0.0457 1.73684,0.1283 0.14276,0.0197 0.3914,0.0492 0.55384,0.064 0.16244,0.0148 0.3963,0.0442 0.5169,0.0615 0.12308,0.0197 0.33722,0.0468 0.47998,0.0615 0.14276,0.0172 0.36676,0.0517 0.49968,0.0763 0.1329,0.0246 0.2929,0.0468 0.35445,0.0468 0.15505,0 0.7901,0.11814 1.06579,0.1994 0.57599,0.16734 0.78766,0.2264 0.87381,0.2486 0.0541,0.0148 0.13291,0.0393 0.17231,0.0566 0.11322,0.0492 0.224,0.0763 0.5169,0.1354 0.15014,0.027 0.35444,0.0738 0.4603,0.1009 0.17722,0.0443 0.33228,0.0714 0.91809,0.15996 0.13538,0.0197 0.26093,0.0418 0.27817,0.0468 0.0935,0.032 0.60798,0.091 1.1864,0.13535 0.35938,0.0271 0.73843,0.0616 0.84428,0.0763 0.0856,0.0117 0.33904,0.0188 0.62752,0.0188 0.0764,0 0.15518,-5e-4 0.23398,-0.002 l 0.66952,-0.007 0.16736,0.0837 c 0.10092,0.0517 0.17722,0.10835 0.19692,0.14525 0.0345,0.0714 0.32738,0.2412 0.46028,0.2658 0.0468,0.01 0.10832,0.0321 0.13542,0.0468 0.084,0.0531 0.16435,0.0776 0.2711,0.0776 0.0465,0 0.0981,-0.005 0.15717,-0.0136 0.10336,-0.0172 0.24613,-0.0468 0.31506,-0.0689 0.11322,-0.0345 0.13785,-0.0541 0.19199,-0.15016 0.0517,-0.0935 0.0615,-0.13049 0.0468,-0.21904 -0.0148,-0.1059 -0.16247,-0.35695 -0.2757,-0.47017 -0.0369,-0.0369 -0.0541,-0.096 -0.0665,-0.21903 -0.007,-0.0911 -0.0246,-0.1871 -0.0369,-0.20925 -0.0148,-0.0246 -0.0246,-0.0566 -0.0246,-0.0714 0,-0.0295 -0.11078,-0.30274 -0.15015,-0.36674 -0.0123,-0.0197 -0.0369,-0.0714 -0.0566,-0.11074 -0.0295,-0.0665 -0.0935,-0.14276 -0.32983,-0.38892 -0.0369,-0.0369 -0.12555,-0.10094 -0.19693,-0.14274 -0.0714,-0.0419 -0.14524,-0.10835 -0.16492,-0.1453 -0.11568,-0.2264 -0.34213,-0.47996 -0.53658,-0.60795 -0.256,-0.1698 -0.27815,-0.17719 -0.50706,-0.21165 -0.0474,-0.007 -0.1211,-0.01 -0.21054,-0.01 -0.2728,0 -0.69232,0.0287 -0.96112,0.0713 -0.0694,0.0101 -0.19641,0.0148 -0.33875,0.0148 -0.27157,0 -0.59881,-0.0169 -0.68765,-0.0443 -0.0665,-0.0197 -0.0935,-0.0394 -0.0935,-0.0763 0,-0.0271 -0.0172,-0.0542 -0.0369,-0.0615 -0.0197,-0.01 -0.0369,-0.0369 -0.0369,-0.0615 0,-0.0246 -0.0345,-0.0837 -0.0739,-0.1305 -0.0689,-0.0763 -0.0738,-0.091 -0.0443,-0.14273 0.0172,-0.0296 0.0517,-0.0714 0.0763,-0.0886 0.0222,-0.0173 0.0419,-0.0468 0.0419,-0.0616 0,-0.0172 0.0197,-0.0418 0.0443,-0.0566 0.0418,-0.0271 0.0739,-0.10094 0.128,-0.31264 l 0.032,-0.11564 h 0.13047 c 0.0739,0 0.19693,-0.0222 0.27322,-0.0493 0.12799,-0.0443 0.47507,-0.1378 0.8812,-0.23877 0.29046,-0.0738 0.7926,-0.22643 1.03381,-0.31506 0.13538,-0.0517 0.28799,-0.10087 0.33969,-0.11322 0.11074,-0.027 0.42828,-0.17475 0.54398,-0.25105 0.0418,-0.0295 0.18704,-0.11077 0.32246,-0.17724 0.13536,-0.0689 0.2535,-0.13536 0.26335,-0.15016 0.01,-0.0148 0.14275,-0.0886 0.29538,-0.1649 0.15507,-0.0738 0.35937,-0.1969 0.45783,-0.2732 0.0876,-0.0683 0.13409,-0.1029 0.17758,-0.12035 h 0.004 q 0.0113,-0.0121 0.0211,-0.0193 0.34823,-0.27867 0.86563,-0.58085 0.15403,-0.1175 0.25989,-0.19685 h 0.004 c 0.10675,-0.1137 0.22818,-0.2255 0.28943,-0.2568 0.0369,-0.0172 0.0738,-0.0394 0.0812,-0.0468 0.007,-0.007 0.0541,-0.0345 0.10584,-0.0616 0.0517,-0.027 0.11322,-0.0664 0.13538,-0.0861 0.0222,-0.0197 0.0738,-0.0541 0.11325,-0.0738 0.0861,-0.0443 0.31012,-0.28552 0.31012,-0.33476 0,-0.0197 0.01,-0.0344 0.0222,-0.0344 0.0172,0 0.0862,-0.1477 0.17478,-0.38156 0.0295,-0.0763 0.0788,-0.30026 0.10092,-0.4652 0.0123,-0.0812 0.0344,-0.2338 0.0492,-0.33476 0.0566,-0.36424 0.0345,-0.62518 -0.0738,-0.92304 -0.0788,-0.2092 -0.0886,-0.2338 -0.14277,-0.3446 -0.15752,-0.31994 -0.2929,-0.5144 -0.52672,-0.7557 -0.10514,-0.10843 -0.13901,-0.1671 -0.1016,-0.1691 h 0.004 c 0.0187,8.5e-4 0.0511,0.0127 0.0974,0.0362 0.0394,0.0222 0.0935,0.0394 0.11812,0.0394 0.0246,0 0.1157,0.0345 0.20432,0.0788 0.13782,0.0664 0.1969,0.0812 0.41843,0.0935 0.14275,0.01 0.32245,0.0345 0.40122,0.0591 0.0874,0.0242 0.15121,0.0365 0.20791,0.0365 0.0646,0 0.12002,-0.016 0.19082,-0.0488 0.057,-0.0273 0.099,-0.0401 0.15153,-0.0401 0.0472,0 0.10293,0.0104 0.1857,0.0303 0.0309,0.008 0.0596,0.0119 0.0873,0.0119 0.10462,0 0.1956,-0.0595 0.3435,-0.2113 0.13783,-0.14275 0.18953,-0.18215 0.24614,-0.18215 0.0369,0 0.16244,-0.0345 0.27813,-0.0763 0.1157,-0.0419 0.25846,-0.0837 0.31998,-0.096 0.0616,-0.0123 0.22155,-0.0492 0.35695,-0.0861 0.13536,-0.0369 0.2855,-0.0739 0.33226,-0.0862 0.34954,-0.0812 0.38154,-0.11815 0.44304,-0.47997 0.0148,-0.096 0.0394,-0.21167 0.0517,-0.25843 0.1108,-0.4283 0.12062,-0.864 0.0222,-1.05596 -0.0952,-0.18609 -0.27393,-0.32684 -0.40197,-0.32684 -0.021,0 -0.0406,0.004 -0.0583,0.0118 -0.10586,0.0467 -0.1674,0.2732 -0.19446,0.70396 -0.0123,0.23384 -0.0517,0.40614 -0.12307,0.56114 -0.0227,0.0494 -0.0402,0.0803 -0.0623,0.0803 -0.0473,0 -0.11575,-0.1418 -0.302,-0.54794 -0.0493,-0.10586 -0.0886,-0.21166 -0.0886,-0.23626 0,-0.0222 -0.01,-0.0517 -0.0222,-0.0665 -0.0148,-0.0123 -0.0591,-0.1231 -0.10092,-0.2437 -0.0984,-0.2781 -0.1846,-0.46025 -0.2609,-0.5415 -0.032,-0.0345 -0.0591,-0.0738 -0.0591,-0.0886 0,-0.064 -0.15753,-0.3421 -0.25107,-0.44795 -0.0788,-0.0861 -0.12799,-0.12065 -0.19937,-0.13295 -0.0133,-0.002 -0.0272,-0.003 -0.0415,-0.003 -0.11346,0 -0.25589,0.0588 -0.34989,0.15055 -0.0443,0.0443 -0.1206,0.096 -0.16737,0.1181 -0.0468,0.0222 -0.14275,0.0911 -0.2117,0.1527 -0.0689,0.0615 -0.1846,0.14023 -0.26088,0.1747 -0.0738,0.0345 -0.15018,0.0788 -0.16739,0.1009 -0.0468,0.0542 -0.15753,0.0985 -0.38153,0.1477 -0.25845,0.0566 -0.55875,0.2043 -0.86395,0.4209 -0.17725,0.12556 -0.41845,0.256 -0.56861,0.30275 -0.045,0.0154 -0.084,0.0228 -0.14054,0.0228 -0.0516,0 -0.1177,-0.006 -0.21636,-0.0179 -0.28061,-0.0344 -0.66954,-0.13044 -0.8172,-0.20185 -0.0541,-0.0246 -0.10831,-0.0467 -0.11814,-0.0467 -0.0123,0 -0.20184,-0.0787 -0.42092,-0.17725 -0.3569,-0.15995 -0.50214,-0.23385 -1.00918,-0.52675 -0.0813,-0.0467 -0.15507,-0.0837 -0.16492,-0.0837 -0.0123,0 -0.0246,-0.007 -0.0295,-0.0197 -0.005,-0.01 -0.10093,-0.0812 -0.21661,-0.15995 -0.30522,-0.20675 -0.50214,-0.34705 -0.74335,-0.53905 -0.11813,-0.0911 -0.22644,-0.1674 -0.24121,-0.1674 -0.0123,0 -0.0246,-0.01 -0.0246,-0.0197 0,-0.0123 -0.0911,-0.0861 -0.20183,-0.16735 -0.28553,-0.20678 -0.5169,-0.4234 -0.56614,-0.52429 -0.0222,-0.0493 -0.10828,-0.15506 -0.18951,-0.23633 -0.13785,-0.13783 -0.15015,-0.15753 -0.17478,-0.30767 -0.0615,-0.35932 -0.096,-0.68426 -0.14767,-1.41526 -0.0148,-0.21664 -0.0369,-0.448 -0.0492,-0.51205 -0.0148,-0.0639 -0.0246,-0.20429 -0.0246,-0.30765 0,-0.10586 -0.01,-0.2019 -0.0221,-0.21664 -0.0148,-0.0123 -0.0296,-0.19936 -0.0369,-0.41596 -0.007,-0.2166 -0.0197,-0.51196 -0.0295,-0.6572 -0.01,-0.15505 -0.005,-0.3914 0.0123,-0.57845 0.0296,-0.3274 0.0419,-0.39875 0.12552,-0.74579 0.0271,-0.11573 0.0591,-0.28803 0.0738,-0.38156 0.0148,-0.096 0.0369,-0.23874 0.0492,-0.32 0.0591,-0.3889 0.0812,-0.93534 0.0517,-1.32914 -0.11569,-1.59746 -0.23629,-1.96426 -0.7655,-2.35316 -0.0861,-0.064 -0.54154,-0.3274 -0.82458,-0.475 -0.21909,-0.1182 -0.25846,-0.1453 -0.25846,-0.19205 0,-0.0246 -0.0172,-0.0443 -0.0394,-0.0443 -0.032,0 -0.19198,-0.13287 -0.28796,-0.24121 -0.0172,-0.0172 -0.0542,-0.0566 -0.0837,-0.0837 -0.032,-0.0295 -0.0566,-0.064 -0.0566,-0.0788 0,-0.0147 -0.0197,-0.0394 -0.0468,-0.0566 -0.0468,-0.0296 -0.12555,-0.1773 -0.1723,-0.3274 -0.0148,-0.0468 -0.0492,-0.15755 -0.0788,-0.2462 -0.0468,-0.1501 -0.0616,-0.2166 -0.12064,-0.5661 -0.0123,-0.0738 -0.0345,-0.17966 -0.0468,-0.2338 -0.0763,-0.3372 -0.1255,-0.6055 -0.1255,-0.69903 0,-0.0591 -0.01,-0.14771 -0.0222,-0.19697 -0.0123,-0.0492 -0.0345,-0.15014 -0.0492,-0.224 -0.0148,-0.0738 -0.0369,-0.1969 -0.0517,-0.27074 -0.0148,-0.0739 -0.0369,-0.2732 -0.0492,-0.44306 -0.0222,-0.2831 -0.0492,-0.4455 -0.0886,-0.5513 -0.009,-0.0224 -0.004,-0.0366 0.012,-0.0391 h 0.004 q -0.0109,-0.082 -0.0189,-0.20464 h 5e-5 q -0.0109,-0.0783 -0.0383,-0.25596 h -7.9e-4 c -0.032,-0.0542 -0.1157,-0.50955 -0.14033,-0.75814 -0.01,-0.12311 -0.0271,-0.26586 -0.0344,-0.32001 -0.007,-0.0541 -0.0197,-0.19195 -0.0271,-0.30515 l -0.01,-0.13577 h 0.004 q -0.009,-0.0362 -0.0152,-0.0683 -0.007,-0.0343 -0.0115,-0.07 -0.0104,-0.111 -0.0216,-0.18827 h 0.004 c -0.0308,-0.0503 -0.0482,-0.10876 -0.0708,-0.21703 -0.0222,-0.10834 -0.0566,-0.2683 -0.0763,-0.35694 -0.0172,-0.0886 -0.0517,-0.26093 -0.0738,-0.38156 -0.0788,-0.443 -0.0886,-0.4947 -0.12308,-0.5661 -0.0197,-0.0418 -0.0517,-0.1304 -0.0738,-0.1969 -0.10583,-0.32 -0.14767,-0.4258 -0.20184,-0.5095 -0.0295,-0.0517 -0.0566,-0.1058 -0.0566,-0.1231 0,-0.0172 -0.0221,-0.0591 -0.0492,-0.0935 -0.0271,-0.0345 -0.0492,-0.0788 -0.0492,-0.10096 0,-0.0221 -0.0222,-0.0689 -0.0492,-0.10334 -0.0271,-0.0345 -0.0492,-0.0738 -0.0492,-0.0862 0,-0.0122 -0.032,-0.0591 -0.0738,-0.10337 -0.0394,-0.0443 -0.0739,-0.0861 -0.0739,-0.096 0,-0.0147 -0.064,-0.0959 -0.16734,-0.21165 -0.0246,-0.0271 -0.10832,-0.12305 -0.1871,-0.21411 -0.0812,-0.091 -0.18953,-0.1969 -0.24614,-0.23388 -0.0566,-0.0369 -0.11569,-0.0837 -0.13291,-0.10089 -0.0197,-0.0148 -0.0862,-0.064 -0.1477,-0.10827 -0.064,-0.0443 -0.13043,-0.0936 -0.14768,-0.10835 -0.0172,-0.0172 -0.0689,-0.0443 -0.11569,-0.0616 -0.0467,-0.0172 -0.0861,-0.0418 -0.0861,-0.0517 0,-0.01 -0.0222,-0.0197 -0.0467,-0.0197 -0.0271,0 -0.0517,-0.01 -0.0566,-0.0246 -0.004,-0.0116 -0.0438,-0.0331 -0.11032,-0.0607 h 0.004 q -0.0397,-0.008 -0.0821,-0.0164 -0.12023,-0.0372 -0.21287,-0.0668 h -0.004 q -0.0827,-0.004 -0.21332,-0.0252 -0.14136,-0.008 -0.3056,-0.0266 -0.13205,-0.0155 -0.25586,-0.0389 -0.30609,-0.0169 -0.3591,-0.0269 -0.11365,-0.0196 -0.15409,-0.0527 -0.0287,6.1e-4 -0.0545,6.1e-4 -0.0651,0 -0.11273,-0.004 -0.13144,-0.009 -0.20575,-0.0262 -0.0453,-0.008 -0.19959,-0.0542 -0.009,-0.003 -0.0165,-0.007 h 0.004 c -0.0615,-0.005 -0.11059,-0.008 -0.14916,-0.008 z"
         id="path4" />
    </g>
    <g
       style="fill:#000000;fill-opacity:1;stroke-linejoin:miter"
       id="g8" />
  </g>
</svg>
