<?xml version="1.0" encoding="UTF-8" standalone="no"?>
<svg
   xmlns:dc="http://purl.org/dc/elements/1.1/"
   xmlns:cc="http://creativecommons.org/ns#"
   xmlns:rdf="http://www.w3.org/1999/02/22-rdf-syntax-ns#"
   xmlns:svg="http://www.w3.org/2000/svg"
   xmlns="http://www.w3.org/2000/svg"
   xmlns:sodipodi="http://sodipodi.sourceforge.net/DTD/sodipodi-0.dtd"
   xmlns:inkscape="http://www.inkscape.org/namespaces/inkscape"
   version="1.1"
   id="Layer_1"
   x="0px"
   y="0px"
   viewBox="0 0 5264.0697 5330.4624"
   xml:space="preserve"
   sodipodi:docname="alone_sitting_female5.svg"
   width="5264.0698"
   height="5330.4624"
   inkscape:version="1.0.2 (e86c870879, 2021-01-15)"><metadata
   id="metadata9"><rdf:RDF><cc:Work
       rdf:about=""><dc:format>image/svg+xml</dc:format><dc:type
         rdf:resource="http://purl.org/dc/dcmitype/StillImage" /><dc:title></dc:title></cc:Work></rdf:RDF></metadata><defs
   id="defs7" /><sodipodi:namedview
   pagecolor="#ffffff"
   bordercolor="#666666"
   borderopacity="1"
   objecttolerance="10"
   gridtolerance="10"
   guidetolerance="10"
   inkscape:pageopacity="0"
   inkscape:pageshadow="2"
   inkscape:window-width="1920"
   inkscape:window-height="997"
   id="namedview5"
   showgrid="false"
   fit-margin-top="0"
   fit-margin-left="0"
   fit-margin-right="0"
   fit-margin-bottom="0"
   inkscape:zoom="0.143"
   inkscape:cx="2618.2043"
   inkscape:cy="2492.294"
   inkscape:window-x="0"
   inkscape:window-y="0"
   inkscape:window-maximized="1"
   inkscape:current-layer="Layer_1" />
<rect
   style="fill:#ffffff;stroke-width:5.66929;stroke-linecap:square;stroke-linejoin:round;stroke-dasharray:11.3386, 11.3386"
   id="rect834"
   width="5264.0698"
   height="5330.4624"
   x="0"
   y="0" /><path
   d="m 5050.7337,5014.5793 c -233.6,-110.9 -257.8,-118.3 -299.9,-150 -19.2,-14.5 -102.1,-67 -116.9,-80.5 -37.7,-33.3 -80.5,-60.9 -114.8,-98 -22.2,-22.4 -47.7,-41.3 -71.1,-62.4 -24,-21.5 -53.3,-36.6 -75.1,-60.7 -9.9,-10.7 -22.2,-18.7 -32,-29.5 -22,-24.3 -48.5,-43.8 -71.9,-66.6 0,0 -116.5,-129.3 -122.9,-136 -14,-14.8 -22.2,-33.8 -35.2,-49.4 -25.6,-32.4 -43.7,-70 -69.7,-102.1 -266,-331.5 -191.6,-206.8 -335.5,-410.6 -24.3,-38 -57.6,-68.8 -86.6,-103.1 -22.1,-33.3 -48.8,-63.4 -68.6,-98.2 -9.3,-15.2 -15.6,-31.9 -24.7,-47.2 -69.6,-108 -22.2,-49.9 -83.1,-129.6 -61.4,-91.6 -24.9,-105.6 -172.7,-196.5 -10.9,-7.5 -23.8,-14.8 -28,-28.2 -6.2,-20.4 -15.9,-39.4 -23,-59.4 -7.5,-16.8 -11.3,-35.2 -20,-51.5 -10.3,-17.4 -25.2,-31.2 -37.7,-46.8 -20.9,-23.8 -58.7,-96.5 -106,-122 -29.5,-15.3 -31.7,-28.9 -148.4,-38.6 -33.8,-3.5 -68.1,-0.4 -100.9,8.5 -40.4,17.1 -85.3,24.6 -121.9,50 -22.1,15.7 -46.6,27.4 -70.9,39.3 -9.1,4.3 -16.8,10.8 -25.7,15.4 -10.5,6.3 -22.1,11.3 -30.7,20.3 -10.4,10.6 -24,16.8 -35.6,25.9 -7.3,6.4 -14.2,13.4 -22.3,18.8 -12.6,8.5 -22.9,19.8 -35.1,28.9 -125.1,91.5 -134.1,92.8 -166.3,126 -17.3,15.2 -35.2,29.7 -50.6,46.8 -10.4,10.6 -24,16.9 -35.3,26.4 -33.4,28.1 -79.6,55.8 -105.7,76.4 -11.1,9.1 -20.3,20.7 -33.7,26.8 5.6,-19.2 9.6,-38.7 15.5,-57.8 3.9,-13.7 3.3,-28.5 9.3,-41.6 7.5,-23 37.7,-20.5 35,-188.6 64.7,15.1 70,33.3 115.7,21.2 43.5,-8.5 61.5,-37.6 75.5,-60.4 60.4,-107.5 59.7,-170.2 66.6,-220.4 4.6,-64.1 20.3,-126.8 25.1,-190.9 11.8,-52.2 10.5,-424.9 11.1,-400.8 -0.6,-29.6 7.8,-140 7.8,-141 0.8,-23.7 17.5,-122.3 17.7,-123.3 4.1,-49.5 -14.8,-67.8 -1.8,-117.7 2.8,-19.4 13.8,-36 20.1,-54.3 16.9,-45.1 28.3,-111.5 37.3,-129.3 32.3,-55.1 33.6,-116.1 94.7,-205.3 62.7,-70 173.7,-255.9 177.8,-276.2 7.1,-7.4 14.1,-15 20.7,-22.8 14.6,-17.1 34,-29.4 48.1,-46.9 4.4,-17.5 -14.7,-33.7 -31.6,-30.4 -25.5,4.1 -67.5,38.4 -83.4,53.4 -1.5,-3.6 -4,-7.2 -3.5,-11.3 1.3,-16.6 4.3,-33.1 4.9,-49.7 -0.3,-7.2 7.2,-12 6.3,-19.3 -1.2,-38.6 1.1,-31.4 -45.6,-32.7 0.5,-0.1 0.9,-0.1 1.4,-0.2 -0.9,0.1 -4.7,-3.1 -5.7,-3.7 -11.3,-6 -41.4,-6.8 -55.2,-1.1 -15.4,4 -27.2,-8.90002 -41,-13.00002 -2.9,-5.1 -3.1,-14.4 -10.2,-15.2 -12.6,-1.2 -25.4,-1.2 -37.9,0.8 -3.5,-13 -17.2,-342 -17.2,-350.8 0,-11.1 105.4,3.1 116.4,-4.8 5.5,-4 4.3,-17.8 4.6,-23.9 6.7,-138.3 14.2,-138.9 4.4,-152.7 -9.1,-14.6 -28.6,-14.9 -43.9,-15.1 -1.7,-3.1 -3.3,-6.2 -4.9,-9.3 -53.8,3 -93,-1.7 -180.3,11.1 -30,4.4 -55.7,11.3 -70.4,11.3 -7.9,1.3 -7.5,10.9 -8.4,17 -1.5,19 -7.8,37.1 -10.2,55.9 -3.6,34.8 -19.7,78.6 -11.7,115.9 2.2,32.8 7.4,65.4 7.8,98.3 -15.4,5.8 -32,6.2 -48,8.9 -4.2,3.9 -5.7,9.8 -8.5,14.7 -10.1,0.9 -20.2,0.6 -30.2,2.5 -9.5,2.2 -17.2,8.6 -26.2,12 -31.7,5.1 -64.4,4.1 -95.4,13 -27.2,5 -94.5,8.5 -108.2,14.5 -8.9,-8.3 -10.3,-21.2 -7.9,-32.6 3.1,-9.7 14.7,-15.3 14.2,-26.4 0.5,-29.1 3.6,-74.4 -22.1,-130.8 -12.8,-29 -22.2,-59.7 -38.6,-87 -23.3,-44.1 -8.5,-49.5 -13.3,-63.8 -3.2,-10.5 -7.5,-20.6 -10.4,-31.2 -6.6,-21.3 -10.1,-45.3 -27.2,-61.2 -13.2,-9.6 -29,-15.1 -42.2,-24.7 -8.8,-6.2 -6.3,-19.8 -15.4,-25.7 -10.9,-5.9 -23.6,-6.6 -35.6,-8.7 -20.8,-11 -1.4,-15.4 -62.4,-19.1 -18.3,-5.8 -28.6,-24 -44.9,-33 -6.4,-1.6 -12.7,2.7 -19.2,2.9 -15.6,0.3 -31.4,-1.3 -46.4,-5.9 -10.7,-3.3 -45.1,-27.2 -67.3,-27.7 -17.5,-0.3 -34.3,-7.4 -51.9,-5.8 -13.2,0.8 -26.4,-0.7 -39.4,-2.9 -7.3,-2.9 -13.7,-7.9 -19.4,-13.2 -5.4,-5 -5.2,-12.9 -6.8,-19.5 -15.4,0.4 -29.6,6.2 -44.1,10.4 -57,-17.4 -75.9,-36.2 -124.4,-18.2 -24.1,2.5 -48.9,5.5 -71.1,16.2 -17.7,8.2 -36.5,13.9 -53.7,23.3 -50.3,33.2 -33.2,17.3 -87,71.7 -27,38.2 -36.4,39.1 -44.4,57.9 -6,15.5 -17.2,28.2 -23.4,43.6 -3.3,8.4 -6.6,16.8 -12.3,23.9 -6.3,7.2 -5.1,17.2 -7.2,25.9 -1.1,10.1 -11.7,13.9 -18.2,20.3 -3.3,8.1 -2.8,17.1 -5.6,25.3 -4.1,7 -10.2,13.1 -11.5,21.4 -12,56.6 -18.8,49.5 -36,144.3 -2.9,13.1 -9.2,25.1 -11.6,38.3 -4.6,29.2 -15.8,56.8 -20.1,86.1 -9.8,42.2 -13.8,114.2 -21.4,137.7 -3.9,10.8 -1.6,22.6 -4.4,33.6 -2,7.7 -3.5,15.5 -4.5,23.3 -3.9,36.50002 -30.1,92.40002 -30.9,105.60002 -6,-0.3 -12.1,-1.2 -17.4,-4.4 -8.1,-4.8 -17.8,-3.9 -26.7,-6.1 -14.4,-3.7 -27.8,5.1 -40.6,10.3 -101,41.4 -172.9,268.6 -196.1,321.4 -6.8,16 -9.7,33.3 -14,50.1 -20.3,60.1 -16.5,60.9 -19.2,83.2 -64.8,-17.9 -179.6,-27.2 -240.6,30.9 -42.2,40.1 -60.4,112.4 -78.7,166.1 -23.1,68.1 -41.6,138.4 -50.5,209.7 -18,144.1 -10.2,404.4 101.2,496.1 36.7,30.2 180.3,44.2 202.6,46.8 13.1,115.3 35.7,233.6 62.2,339.5 2.6,10.8 28.2,71.3 28.6,72.3 10.7,29.9 55,78.6 55.9,79.7 5.8,6.1 3.6,15 3.7,22.5 -1.8,25.8 -3.3,51.7 -7.5,77.3 -5.1,35.2 -2.9,71.3 -12.4,105.8 -2.1,9.8 -3.6,19.7 -3.6,29.7 -0.4,22.4 -5.6,44.4 -5.4,66.8 0,8.7 -0.3,17.4 -1.4,26.1 -2.2,20.1 0.6,40.4 -1.7,60.5 -3.7,16.4 -6.2,33.1 -8.8,49.7 -51,434.4 16.6,846.5 91.5,1228.4 16,81.5 37.2,211.7 227,273 329.5,106.4 868.8,10.2 1315.6,-352.9 49.1,-39.9 92.9,-90.9 148.8,-121 41.8,-22.5 76.6,-57.5 107.1,-93.6 14.1,-17 66.1,-57.7 67.1,-58.6 14.5,-14.6 26.4,-31.9 43.4,-43.9 34,-33.4 72.3,-62.6 104.4,-98 9.4,-9.5 19.9,-17.7 29,-27.4 15.2,-16.5 29.3,-33.9 45.1,-49.9 32.4,-37.1 145.5,-108.9 172.5,-129.9 11.6,-7.9 24,-14.8 36.8,-20.5 24.6,35.4 48.4,71.8 78.5,102.9 7,8.2 67.6,68.6 83.5,93.5 8.2,13.7 22.4,22.2 31.4,35.4 24.8,34.4 51.9,67.5 82.6,96.9 45.2,36.9 72.4,85.2 89.4,105.4 1,1.1 93,100.6 100.3,107.4 29,28.1 99.5,135 165.8,198.2 7.2,7.9 39.4,47.9 59.4,86.6 15.3,21 19.3,47.3 29,71 5.8,13.8 10.1,30.2 3.2,44.5 -4.7,7.7 -0.1,20.4 -1,28.8 -3,29.6 -73.3,121.8 148.8,126.2 46.7,0.9 93.2,-12.9 139,-7.2 15.3,1.7 30.3,-2.9 45.5,-2.3 15.1,0.7 30,-3.5 45.1,-1.1 9.5,1.5 19.1,-0.1 28.7,0.7 39.3,6.2 123.2,-1.8 150.1,10 5.4,7.1 3.9,17 6.7,25.3 2.6,11.7 14.2,19 16.2,31 12.4,55.3 99.1,62.6 135.1,73.9 13.7,4.9 28.6,3.4 42.4,7.8 19,3.3 37.2,11 56.7,10.6 13.7,1 27.2,-2 40.9,-1.4 153.7,-4.1 280.8,29.1 448.9,-6.3 35.1,-7.4 67.8,-7.9 99.7,-27.7 13.5,-8.4 40,-31.3 39.4,-49.4 -0.5,-18.3 -20.6,-54.4 -61.1,-57.3 z m -2864.8,-3337.9 c 1.4,0.4 4.3,1.1 5.7,1.5 23.3,52.8 31.1,187.5 31.3,188.5 1.6,11.9 -2.3,23.5 -2.1,35.4 0,1.6 -3,104.5 -9.1,126.4 1.6,30.3 -15,179.9 -20.7,209.8 -1.1,59.4 -67.5,274.5 -83.7,310.1 -2.5,-0.3 -5.1,-0.6 -7.5,-1 -20.9,-24.5 -76.1,-99.9 -77.3,-102.8 -2.4,-31.4 9.3,-25.1 40.5,-170.4 76.2,-329 92.8,-555.3 122.9,-597.5 z m -372.5,-238.6 c -0.2,-8.4 6,-15 9.4,-22.2 127.7,10.1 163.2,-23.9 174.7,-131.1 2.1,-12.7 11.5,-22.8 12.3,-35.9 24.4,1.2 48.7,-2.8 73.1,-2.6 -0.4,21.8 -2.8,13 -50.3,102.9 -12.5,22.2 -27.5,42.9 -39.7,65.3 -7.8,13.7 -10.4,29.4 -14.5,44.5 -6.7,26 -40,81.6 -56.3,102.7 -34.5,47.8 -48.6,128.7 -62.3,149.5 -6.9,-17.8 -1.7,-37 -5.1,-55.3 -1.1,-35.2 -8.1,-69.9 -7.9,-105.2 0.2,-13.4 -2.5,-19.5 -22.1,-87.6 -2.4,-9 -12.3,-15 -11.3,-25 z m -111.6,42.1 c 4.5,-22.8 2.6,-46.3 7.4,-69.1 19.5,-3.4 39.8,-4.8 59.2,0.3 1.5,21.8 13.2,40.7 22.6,59.8 3,5.6 2.1,12.2 2.1,18.3 -1.1,19.3 -0.4,38.7 -1.3,58 -6.2,53.7 -4.4,109.1 -3.5,165.1 0.5,17.8 5.4,35 5.8,52.8 1.3,13.3 1.5,26.7 3.4,40 1.9,15.5 -0.3,31.2 1.8,46.7 0.9,6.7 1.1,13.6 0.5,20.4 -5.2,-5.6 -43.2,-125.4 -45.6,-136.5 -8.7,-38.8 -26,-73.7 -32.7,-92.8 -11.2,-35.6 -13,-124.6 -17,-141.7 -1.7,-6.9 -3.9,-14.1 -2.7,-21.3 z m -72.5,2271.3 c 0.4,-15.6 1.2,-33 -8.6,-46.1 -53.9,-42.2 -1.7,-43 -7.3,-64 -6.2,-8.6 -17.7,-13.5 -20.6,-24.2 -0.1,-15.4 13.4,-27.4 12.9,-42.8 -0.9,-4.7 -1.3,-10 -4.1,-13.9 -5.4,-2.8 -11.4,-4.3 -17.2,-6.4 -0.8,-5.9 -3.8,-13.5 1.6,-18.1 8.6,-5.9 20.7,-5.2 27.9,-13.2 6,-6.2 -1.6,-13.9 -7.9,-15.6 -9.7,-4 -25.3,-4.3 -25.9,-17.9 1.2,-15.6 20.3,-20.4 25.7,-33.8 -0.4,-27.3 -27,-53.4 -30.4,-61.5 -0.6,-11 0.8,-21.9 -0.1,-32.8 -1.4,-15.6 4.5,-30.6 2.6,-46.2 -2.1,-16.7 5.9,-33.3 1.1,-49.8 -2.3,-8.3 -1.3,-16.9 0.6,-25.2 3.3,-15.3 -3.3,-30.3 -1.8,-45.6 1.8,-15.8 -5.9,-30.5 -5.5,-46.1 0.2,-7.9 -3,-16 -1.1,-23.8 8.4,-7.3 19.4,-13.6 21.6,-25.5 4.8,-14.6 -4.3,-28.2 -9.1,-41.4 -3.2,-6.3 4.4,-9.4 7.7,-13.4 10.9,-11.8 10.7,-28.9 12.2,-43.9 15.3,-10.3 24.8,-26.5 37.6,-39.3 10,-6.9 15.4,-17.8 21.3,-28 13.6,1 27.3,-0.8 40.7,2.3 14.6,2.7 31,6.1 44.7,-1.5 8,-3.7 16.6,5.5 13.2,13.4 -6.6,26 -11.8,52.4 -19.8,78 -6.6,27.5 -23.7,61.1 -24,125 0.1,27.2 -5.7,54.5 0,81.4 1.8,36.3 -5.5,72.9 0.7,109.1 -0.7,27.9 -5.4,55.8 -3.5,83.8 1.6,20.3 -3.4,41.9 4.8,61.3 9.2,19.1 17.7,39 33,54.2 14,13.8 29.5,27.6 48.7,33.3 9.5,2.7 18.9,5.6 28.2,9.1 -19,20.5 -151.2,134.5 -199.9,169.1 z m 397.3,-380.1 c -12.3,20.7 -16.8,45 -28.9,65.8 -11.5,-2.5 -19.8,6.7 -26.9,14.2 -17.2,19 -40,31.6 -57.9,49.9 -16.3,16.4 -34.9,30.4 -54.1,43.2 -13.9,9.2 -30.9,11.1 -46.8,14.5 -8.2,1.8 -16.8,0.6 -24.6,-2.2 -11.3,-11.6 -14.1,-76.6 -18.7,-109 -4.5,-40.2 -13.7,-11.1 5.2,-90.4 3.9,-21 -2.6,-42 -1.5,-63 0.7,-26.5 -2.9,-53.2 0.9,-79.6 1.2,-20.1 3.3,-138.8 6.7,-160.3 5.1,-38.4 22.6,-73.8 27.5,-112.1 1,-3.9 0.6,-8.9 4.6,-11.3 15.9,-1.5 31.8,-3.3 47.8,-3.3 10.7,-0.2 19.5,-9.3 21.6,-19.5 1.8,-5.5 -2.7,-10.3 -5.4,-14.6 -5.3,-8.4 -18.3,-6.6 -22.4,-16.3 -5.9,-11.3 -21.3,-16.3 -22.7,-29.8 5.7,0.2 10.9,2.7 15.1,6.6 13.3,12 184.7,160.6 223.9,186.6 10.9,11.8 13.8,28.7 21.4,42.6 6,9.9 4.4,21.8 6.1,32.8 5.8,19.6 6.9,40.2 11.8,60 6.3,37.2 2.2,36 -30.5,83 -12.3,24.6 -28.2,47.5 -36.5,73.8 -5.1,13 -8.6,26.5 -15.7,38.4 z"
   id="path2" />
</svg>
