<?xml version="1.0" encoding="UTF-8" standalone="no"?>
<svg
   xmlns:dc="http://purl.org/dc/elements/1.1/"
   xmlns:cc="http://creativecommons.org/ns#"
   xmlns:rdf="http://www.w3.org/1999/02/22-rdf-syntax-ns#"
   xmlns:svg="http://www.w3.org/2000/svg"
   xmlns="http://www.w3.org/2000/svg"
   xmlns:sodipodi="http://sodipodi.sourceforge.net/DTD/sodipodi-0.dtd"
   xmlns:inkscape="http://www.inkscape.org/namespaces/inkscape"
   version="1.1"
   width="98.251419"
   height="82.566833"
   viewBox="0 0 98.251419 82.566833"
   id="svg7"
   sodipodi:docname="man and woman sitting table couple_new.svg"
   inkscape:version="0.92.4 (5da689c313, 2019-01-14)">
  <metadata
     id="metadata13">
    <rdf:RDF>
      <cc:Work
         rdf:about="">
        <dc:format>image/svg+xml</dc:format>
        <dc:type
           rdf:resource="http://purl.org/dc/dcmitype/StillImage" />
        <dc:title></dc:title>
      </cc:Work>
    </rdf:RDF>
  </metadata>
  <defs
     id="defs11" />
  <sodipodi:namedview
     pagecolor="#ffffff"
     bordercolor="#666666"
     borderopacity="1"
     objecttolerance="10"
     gridtolerance="10"
     guidetolerance="10"
     inkscape:pageopacity="0"
     inkscape:pageshadow="2"
     inkscape:window-width="933"
     inkscape:window-height="512"
     id="namedview9"
     showgrid="false"
     fit-margin-top="0"
     fit-margin-left="0"
     fit-margin-right="0"
     fit-margin-bottom="0"
     inkscape:zoom="0.24180328"
     inkscape:cx="49.097277"
     inkscape:cy="57.7713"
     inkscape:window-x="0"
     inkscape:window-y="0"
     inkscape:window-maximized="0"
     inkscape:current-layer="svg7" />
  <g
     id="layer1"
     transform="translate(-250.90272,-463.20447)">
    <g
       style="fill:#000000;fill-opacity:1;stroke-linejoin:miter"
       id="g4">
      <path
         d="m 319.26465,475.86322 c 10e-4,0 0.002,0 0.003,0 h -0.006 c 0.001,0 0.002,0 0.003,0 z m 1.6275,0.81578 c -4.9e-4,0 -9.8e-4,0 -0.001,0 -5e-4,0 -10e-4,0 -10e-4,0 z m 4.76085,1.835 c -0.004,0 -0.008,0 -0.0113,0 -0.004,0 -0.007,0 -0.0111,0 z m -38.56096,8.2734 c 7.3e-4,0 0.002,0 0.002,0 h -0.004 c 7.8e-4,0 0.001,0 0.002,0 z m 0.4997,0.23338 c -0.001,0 -0.003,0 -0.004,0 -10e-4,0 -0.003,0 -0.004,0 z m -2.68384,7.68958 c 2e-4,0 4.3e-4,0 6.4e-4,0 h -0.001 c 2.1e-4,0 4.2e-4,0 6.4e-4,0 z m 32.4173,3.02362 c 9.4e-4,0 0.002,0 0.003,0 h -0.006 c 9.7e-4,0 0.002,0 0.003,0 z m 25.05645,0.24412 c 4.3e-4,0 8.5e-4,0 0.001,0 h -0.003 c 4e-4,0 8.3e-4,0 10e-4,0 z m -22.77472,0.0919 c -0.002,0 -0.005,0 -0.007,0 -0.002,0 -0.005,0 -0.007,0 z m -5.86173,0.0742 c 0.1867,0 0.38462,0.003 0.5959,0.008 -0.21128,-0.005 -0.4092,-0.008 -0.5959,-0.008 -0.17815,0 -0.34606,0.003 -0.5055,0.008 h -3.5e-4 c 0.15955,-0.005 0.32758,-0.008 0.50585,-0.008 z m 29.73695,0.28877 c 8.5e-4,0 0.002,0 0.003,0 h -0.005 c 8.6e-4,0 0.002,0 0.003,0 z m -0.91461,-0.1062 c 0.0327,0 0.081,0.0241 0.15274,0.063 l 0.13662,0.0713 -0.17822,0.26733 -0.17822,0.26734 v -0.34457 c 0,-0.23743 0.005,-0.3244 0.0671,-0.3244 z m -0.2172,1.17153 c -3.6e-4,0 -7.4e-4,0 -0.001,0 -3.6e-4,0 -7.4e-4,0 -10e-4,0 z m -83.25094,0.20567 c 8e-4,0 0.002,0 0.002,0 h -0.005 c 7.8e-4,0 0.002,0 0.002,0 z m 36.13308,1.03545 c 0.0838,0 0.17352,7.5e-4 0.26786,0.002 h -5.4e-4 c -0.0942,-0.001 -0.18373,-0.002 -0.26732,-0.002 -0.0814,0 -0.15718,7e-4 -0.22604,0.002 v 0 c 0.0689,-0.002 0.14462,-0.002 0.22604,-0.002 z m -4.98922,0.10025 c -7.1e-4,0 -0.001,0 -0.002,0 -7e-4,0 -0.001,0 -0.002,0 z m 35.82484,0.6985 c 5.6e-4,0 10e-4,0 0.002,2e-5 h -0.003 c 5.6e-4,-2e-5 0.001,-2e-5 0.002,-2e-5 z m 17.58485,-2.75035 c 0.0357,0 0.4159,0.12473 0.83768,0.27329 1.33667,0.46929 1.76441,0.60596 2.34659,0.73663 0.30896,0.0713 0.59412,0.13666 0.63568,0.14853 0.0772,0.0238 0.006,0.26733 -0.3208,1.03964 -0.2031,0.48233 -0.25855,0.61511 -0.36804,0.61511 -0.0443,0 -0.0974,-0.0217 -0.17258,-0.0507 -0.12472,-0.0416 -0.71288,-0.26138 -1.31885,-0.47525 -0.60598,-0.21982 -1.30697,-0.47528 -1.56241,-0.57031 -0.25549,-0.0951 -0.51092,-0.1723 -0.56439,-0.1723 -0.0594,-0.006 -0.1604,-0.0356 -0.23169,-0.0772 -0.12474,-0.0713 -0.12474,-0.0772 0.1901,-0.60003 0.17822,-0.29112 0.35049,-0.60597 0.39209,-0.701 0.0356,-0.0891 0.10097,-0.16635 0.13662,-0.16635 z m -84.01693,2.98673 c 4.2e-4,0 8.8e-4,0 0.001,0 v 0 c -4.6e-4,0 -8.9e-4,0 -0.001,0 z m 83.14053,0.82217 c 5.2e-4,0 0.001,0 0.002,0 h 2.1e-4 c -3e-4,0 -6.1e-4,0 -9.1e-4,0 z m -83.93103,-2.54187 c 0.19818,0 0.24255,0.12595 0.40063,0.57462 0.10695,0.3089 0.22577,0.61785 0.26735,0.67724 0.0891,0.15448 -0.0357,0.24951 -0.40992,0.30298 -0.15445,0.0178 -0.37428,0.0594 -0.48716,0.0891 -0.11285,0.0297 -0.52872,0.12477 -0.9208,0.20795 -0.39209,0.0891 -1.19409,0.27325 -1.78224,0.41582 -1.25142,0.30604 -2.17108,0.49143 -2.38442,0.49143 -0.0186,0 -0.0318,-10e-4 -0.0394,-0.004 -0.0356,-0.0178 -0.12475,-0.16043 -0.18417,-0.31486 -0.13069,-0.3327 -0.36832,-0.88518 -0.46338,-1.0753 -0.0356,-0.0772 -0.0535,-0.1485 -0.0356,-0.17225 0.0356,-0.0297 0.65348,-0.16043 1.68124,-0.35052 0.29704,-0.0535 0.96242,-0.18418 1.4852,-0.29706 0.52279,-0.11285 1.24756,-0.25543 1.604,-0.3208 0.3624,-0.0653 0.79012,-0.1485 0.95052,-0.17822 0.14012,-0.0267 0.2409,-0.0459 0.31822,-0.0459 z m -5.48756,3.14984 c -6.4e-4,0 -0.001,0 -0.002,0 -6.3e-4,0 -0.001,0 -0.002,0 z m 63.97144,0.11151 v 0 c -0.001,0 -0.002,0 -0.003,0 -10e-4,0 -0.002,0 -0.004,0 z m -56.2663,0.30057 c 7e-4,0 10e-4,0 0.002,0 h -0.004 c 7e-4,0 10e-4,0 0.002,0 z m 0.2231,0.0248 v 0 c -0.001,0 -0.002,0 -0.003,0 -0.001,0 -0.002,0 -0.003,0 z m 25.05175,0.20173 c 4.9e-4,0 0.001,3e-5 0.002,7e-5 h -0.003 c 4.5e-4,-4e-5 9.1e-4,-7e-5 10e-4,-7e-5 z m 15.55802,0.46677 c 5.1e-4,0 0.001,0 0.002,0 h -0.003 c 5.2e-4,0 10e-4,0 0.002,0 z m 10.20047,0.1809 c 3e-5,0 6e-5,0 9e-5,0 h 6.7e-4 c 6e-5,0 1.2e-4,0 1.8e-4,0 h -0.004 c 8e-5,0 2e-4,0 3e-4,0 z m -11.38398,0.004 c 2.2e-4,0 4.4e-4,0 6.4e-4,0 h -10e-4 c 2.2e-4,0 4.3e-4,0 6.4e-4,0 z m 5.91344,0.0434 c 0.28325,0 0.56758,0.002 0.8453,0.005 h -0.001 c -0.27733,-0.003 -0.56128,-0.005 -0.84413,-0.005 -0.27083,0 -0.54063,0.002 -0.8028,0.005 v 0 c 0.26217,-0.003 0.53197,-0.005 0.8028,-0.005 z m -15.9581,0.27292 c 4e-4,0 8.4e-4,0 10e-4,0 h -0.003 c 4.3e-4,0 8.6e-4,0 0.001,0 z m 3.062,0.18878 v 0 c -0.003,0 -0.006,0 -0.01,0 -0.003,0 -0.006,0 -0.01,0 z m -2.65528,0.0657 c -0.001,0 -0.002,0 -0.003,0 -0.001,0 -0.002,0 -0.003,0 z m -36.65457,0.12836 v 0 c -7.8e-4,0 -0.002,0 -0.002,0 -7.6e-4,0 -0.002,0 -0.002,0 z m 30.1117,-9.26302 c 0.0216,0 0.0275,0.0373 0.0342,0.0997 0.0119,0.0951 0.0832,0.43963 0.1604,0.76638 0.0832,0.3208 0.29702,0.98617 0.4812,1.46737 l 0.33267,0.87922 -0.4099,0.43963 c -0.22575,0.2436 -0.63566,0.64755 -0.90895,0.90894 -1.15845,1.07528 -1.4555,1.38421 -1.85945,1.91888 -0.45744,0.60004 -0.9921,1.50898 -1.37828,2.32285 -0.19269,0.41348 -0.24432,0.52859 -0.27954,0.52859 -0.0169,0 -0.03,-0.0265 -0.0531,-0.0593 -0.0297,-0.0476 -0.0475,-0.38617 -0.0416,-0.74262 0.0178,-0.73663 0.0119,-0.71288 0.70102,-1.69311 0.44556,-0.62377 0.86143,-1.37232 1.08121,-1.93671 0.0891,-0.23169 0.30298,-0.97426 0.46932,-1.63373 0.40995,-1.61587 0.4337,-1.67529 1.35453,-2.89911 0.20044,-0.26352 0.28027,-0.36702 0.31632,-0.36702 z m -3.93393,10.2289 v 0 c -1.9e-4,0 -3.7e-4,0 -5.5e-4,0 -1.7e-4,0 -3.7e-4,0 -5.5e-4,0 z m 0.18213,0.8326 c 6.1e-4,0 10e-4,0 0.002,0 h -0.004 c 6.3e-4,0 10e-4,0 0.002,0 z m 64.61789,0.40846 c 1.8e-4,0 3.6e-4,0 5.1e-4,0 h -0.001 c 1.8e-4,0 3.6e-4,0 5.2e-4,0 z M 282.6454,508.498 c 0.004,0 0.008,0.005 0.0134,0.0148 0.0119,0.0416 0.0119,0.11285 0,0.1485 -0.005,0.0126 -0.0102,0.0187 -0.0144,0.0187 -0.01,0 -0.0153,-0.032 -0.0153,-0.0899 0,-0.0599 0.006,-0.0921 0.0163,-0.0921 z m 34.19866,-7.20918 c 0.12808,0 0.4776,0.0674 1.35854,0.24951 0.57032,0.11287 1.4793,0.29707 2.01987,0.39801 0.54063,0.10693 1.3664,0.27332 1.84165,0.36836 0.69138,0.147 1.14888,0.21428 1.55386,0.21428 0.2005,0 0.38812,-0.0165 0.58484,-0.048 0.43365,-0.0653 1.31885,-0.26134 1.50302,-0.33263 0.008,-0.003 0.0155,-0.005 0.0222,-0.005 0.056,0 0.0585,0.12968 0.0372,0.68218 -0.0356,0.77824 0.0238,1.08717 0.33865,1.74067 0.3505,0.72473 0.35645,0.99207 0.0119,1.3129 -0.15463,0.14948 -0.56863,0.27658 -0.8385,0.27658 -0.0412,0 -0.079,-0.003 -0.11203,-0.009 -0.0156,-0.003 -0.0405,-0.005 -0.0731,-0.005 -0.15341,0 -0.4768,0.0328 -0.8002,0.0819 -0.39209,0.0594 -0.98025,0.12475 -1.30698,0.14849 -0.73665,0.0476 -1.25945,0.10694 -2.55455,0.29111 -0.55247,0.0831 -1.2119,0.17227 -1.4555,0.20792 -0.44554,0.0594 -1.75847,0.27328 -2.76247,0.4515 -1.9664,0.3505 -3.55258,0.76639 -4.55658,1.19413 -0.23803,0.0996 -0.43481,0.17346 -0.46055,0.17346 -0.002,0 -0.003,-3.6e-4 -0.003,-10e-4 0,-0.0179 0.19605,-0.33267 0.43369,-0.6951 0.23761,-0.36832 0.6416,-1.02179 0.89704,-1.4436 0.25546,-0.42774 0.6119,-0.96837 0.79012,-1.21192 l 0.33271,-0.43963 0.67724,0.0416 c 0.18418,0.009 0.3906,0.0134 0.57477,0.0134 0.18416,0 0.34604,-0.004 0.4411,-0.0134 0.33862,-0.0416 0.33862,-0.0416 0.97428,-0.68324 l 0.62976,-0.6475 h 0.36236 c 0.42182,0 0.44556,-0.0297 0.45151,-0.50498 0,-0.26734 -0.0297,-0.33267 -0.24355,-0.59409 -0.23765,-0.29107 -0.73668,-1.08716 -0.73668,-1.18223 0,-0.0188 0.0157,-0.0297 0.0672,-0.0297 z m -34.83126,5.57864 v 0 c 0.0159,0.006 0.01,0.10419 -0.007,0.21958 -0.0238,0.12476 -0.0891,0.38616 -0.15444,0.58221 -0.0594,0.19605 -0.1604,0.51085 -0.21388,0.69507 -0.0772,0.24356 -0.13665,0.34454 -0.20794,0.34454 -0.17228,0 -0.17228,-0.0594 -0.0238,-0.49902 0.15885,-0.44708 0.55649,-1.32524 0.60465,-1.34238 z m 2.2079,1.92118 c -1.2e-4,0 -2.7e-4,0 -4e-4,0 -1.2e-4,0 -2.4e-4,0 -3.6e-4,0 z m -1.62674,-0.0331 c 0.014,0 0.0233,0.0109 0.0233,0.0365 0,0.0119 -0.0416,0.10095 -0.0891,0.1901 -0.041,0.0769 -0.0676,0.11505 -0.0799,0.11505 -0.0162,0 -0.007,-0.0664 0.0264,-0.1982 0.0212,-0.0763 0.0846,-0.14342 0.11929,-0.14342 z m 25.20508,4.70712 c 0.0583,0 0.11182,0.0222 0.1236,0.0642 v 0 c -0.0118,-0.042 -0.0653,-0.0642 -0.1236,-0.0642 -0.0563,0 -0.11706,0.0207 -0.14914,0.0642 v 0 c 0.0321,-0.0435 0.0929,-0.0642 0.14914,-0.0642 z m 31.65064,2.5602 c 3e-4,0 6.2e-4,0 9.2e-4,0 h -0.002 c 3.1e-4,0 6.1e-4,0 9.2e-4,0 z m -34.33475,-11.2308 c 1.36877,0 4.26752,0.0631 4.31311,0.10872 0.0297,0.0297 -0.58218,1.00995 -1.36044,2.18028 -0.77228,1.1763 -1.68717,2.57234 -2.0258,3.11296 -0.34456,0.54062 -0.71883,1.12874 -0.83172,1.30698 -0.11285,0.17822 -0.54058,0.88516 -0.95053,1.57426 -0.40395,0.68324 -1.02182,1.6932 -1.37231,2.2457 -0.44617,0.7037 -0.58249,0.9053 -0.6489,0.9053 -0.0193,0 -0.0327,-0.0171 -0.0462,-0.0439 -0.0356,-0.0891 -0.0653,-1.37826 -0.0772,-3.5823 -0.006,-1.89514 -0.0178,-4.40216 -0.0297,-5.56653 -0.006,-1.58617 0.006,-2.13275 0.0595,-2.15057 0.0356,-0.0178 0.55841,-0.0297 1.1525,-0.0356 0.59409,0 1.09905,-0.0178 1.11688,-0.0357 0.0124,-0.0138 0.28657,-0.0196 0.7009,-0.0196 z m -7.48895,0.4407 c 0.27872,0 0.57282,2.3e-4 0.88287,7.2e-4 h 2.0199 l 0.0415,3.17828 c 0.0178,1.74662 0.0654,3.8437 0.10103,4.6635 0.13201,3.1002 0.14755,3.4707 0.0895,3.4707 -0.002,0 -0.004,-4e-4 -0.006,-0.001 -0.1307,-0.0476 -2.65556,-3.6358 -4.14073,-5.8755 -1.27133,-1.91884 -3.3031,-5.19817 -3.3031,-5.32888 0,-0.0763 1.18703,-0.10762 4.31531,-0.10762 z m 26.32752,11.9796 c 0.0115,0 0.0231,3e-4 0.0347,8.6e-4 v 0 c -0.0116,-5.6e-4 -0.0232,-8.6e-4 -0.0347,-8.6e-4 -0.0117,0 -0.0233,3e-4 -0.0346,8.6e-4 h -2.8e-4 c 0.0114,-5.6e-4 0.0231,-8.6e-4 0.0349,-8.6e-4 z m 18.84994,-14.02847 0.22573,0.11287 c 0.12476,0.0653 0.40993,0.20198 0.63569,0.3089 0.71289,0.32676 1.6456,0.65944 2.07334,0.74263 0.11287,0.0178 0.22573,0.0594 0.24355,0.0891 0.0713,0.12476 -0.6297,1.97236 -1.1109,2.91098 -0.1604,0.30893 -0.29115,0.61783 -0.29115,0.6832 0,0.0654 -0.10097,0.2911 -0.23168,0.50498 -0.54654,0.93862 -1.21192,2.608 -1.34854,3.37435 -0.0713,0.42181 -0.32675,1.33665 -0.50498,1.84161 -0.10098,0.27924 -0.2792,0.79014 -0.39208,1.13474 -0.3208,0.96835 -0.84955,1.91885 -1.48517,2.6674 l -0.1723,0.202 -0.62378,-0.31487 c -0.65943,-0.3327 -1.12281,-0.59403 -1.12281,-0.6297 0,-0.0119 0.14258,-0.13073 0.32081,-0.26143 0.22023,-0.16844 0.29923,-0.2207 0.43548,-0.2207 0.0512,0 0.11045,0.007 0.18829,0.0187 0.0725,0.0101 0.13071,0.0159 0.18213,0.0159 0.12963,0 0.21633,-0.0369 0.38223,-0.1348 0.2614,-0.1485 1.11686,-1.0337 1.26542,-1.301 0.0416,-0.0713 0.0713,-0.202 0.0772,-0.28516 0,-0.26734 0.40399,-1.43769 0.59405,-1.74064 0.10102,-0.1604 0.23169,-0.3981 0.28519,-0.5347 0.12475,-0.29705 0.12475,-0.93865 0.0119,-1.40203 -0.10098,-0.40399 -0.10098,-1.79413 0,-2.64365 0.0356,-0.32082 0.0772,-1.28322 0.0891,-2.1387 0.006,-0.86737 0.0476,-1.72876 0.0891,-1.96045 0.0356,-0.23169 0.0951,-0.55844 0.13071,-0.72479 z m -41.50556,14.64757 c -6.1e-4,0 -0.001,0 -0.002,0 -6.4e-4,0 -0.001,0 -0.002,0 z m 39.32922,0.2528 c -4.5e-4,0 -9e-4,0 -10e-4,0 -4.9e-4,0 -9.7e-4,0 -0.001,0 z m -28.80572,-13.28575 c 0.0632,0 0.084,0.0165 0.084,0.0488 0,0.0356 -0.0416,0.14853 -0.0951,0.25543 -0.12475,0.23764 -1.41983,2.25752 -2.10898,3.27936 -0.81982,1.22379 -1.65155,2.51294 -1.78222,2.77436 -0.0654,0.13067 -0.303,0.48712 -0.5228,0.78417 -0.48715,0.65943 -1.36044,1.90699 -2.41196,3.45163 -0.2911,0.4218 -0.7723,1.10495 -1.06936,1.51487 -0.29703,0.40993 -0.66535,0.9505 -0.82575,1.20003 -0.15448,0.2555 -0.29705,0.46336 -0.3208,0.46336 -0.0475,0 -0.36833,-0.39209 -0.36833,-0.44556 0,-0.0237 0.31487,-0.51086 0.69505,-1.08716 0.38617,-0.58214 0.83768,-1.31884 1.004,-1.64554 0.30301,-0.5941 0.74262,-1.2654 1.77631,-2.7328 0.30298,-0.42775 0.71289,-1.02776 0.9208,-1.3367 0.20794,-0.30888 0.67728,-0.9921 1.03964,-1.51488 0.36835,-0.52279 0.71293,-1.04559 0.77232,-1.15844 0.25546,-0.49903 1.32478,-2.17435 1.85946,-2.91102 l 0.58222,-0.802 0.3208,-0.0654 c 0.23694,-0.0487 0.37457,-0.0726 0.45068,-0.0726 z m 6.66699,13.7739 c 8.3e-4,0 0.002,0 0.003,0 h -0.005 c 8.5e-4,0 0.002,0 0.002,0 z m 0.29361,0.1167 c -9.4e-4,0 -0.002,0 -0.003,0 -9.1e-4,0 -0.002,0 -0.003,0 z m 16.332,0.0908 c 0.0126,0 0.0273,2.3e-4 0.0439,7.9e-4 h -5.3e-4 c -0.0164,-4.6e-4 -0.031,-7.9e-4 -0.0434,-7.9e-4 -0.0123,0 -0.0225,2.3e-4 -0.0306,7.9e-4 v 0 c 0.008,-5.6e-4 0.0183,-7.9e-4 0.0306,-7.9e-4 z M 260.23712,504.1518 c 0.005,0 0.009,1.5e-4 0.013,4.8e-4 0.095,0.0119 0.17227,0.17822 0.41587,0.90302 0.16632,0.48712 0.41586,1.2119 0.54653,1.604 0.25547,0.76044 0.47529,1.4377 0.64161,2.01987 0.0535,0.19601 0.11884,0.42178 0.14854,0.50497 0.0416,0.13663 -0.0297,0.74259 -0.1723,1.48516 -0.1307,0.6654 -0.39803,1.3664 -0.9327,2.43574 -0.87924,1.75846 -1.0337,2.17436 -1.0337,2.78626 0,0.52874 0.11882,0.7426 0.60597,1.07525 0.52873,0.36245 0.55249,0.40991 0.42773,0.79015 -0.0772,0.24354 -0.19012,0.398 -0.54656,0.74257 l -0.44556,0.43373 -0.15445,-0.1367 c -0.95053,-0.8495 -1.65747,-2.13865 -2.41196,-4.39615 -0.17822,-0.53465 -0.36834,-1.12879 -0.42181,-1.32485 -0.0535,-0.196 -0.13068,-0.493 -0.17822,-0.6534 -0.0416,-0.1664 -0.14258,-0.5525 -0.22574,-0.86144 -0.16635,-0.67133 -0.3208,-1.12284 -0.57032,-1.72284 -0.10099,-0.24356 -0.2911,-0.71289 -0.42179,-1.03965 -0.13069,-0.32672 -0.2614,-0.64752 -0.29111,-0.71289 -0.12476,-0.26733 -0.68913,-2.09118 -0.7426,-2.406 l -0.0357,-0.20795 0.67132,-0.1723 c 1.34855,-0.33863 2.1862,-0.53463 3.6417,-0.83765 0.23169,-0.0475 0.62973,-0.13658 0.89112,-0.20196 0.24658,-0.0617 0.49843,-0.10742 0.58105,-0.10742 z m 57.81012,14.9426 v 0 c 0.007,1e-4 0.013,1.4e-4 0.0194,1.4e-4 0.004,0 0.009,-4e-5 0.0135,-4e-5 h 0.003 c -0.005,4e-5 -0.0111,4e-5 -0.0166,4e-5 -0.008,0 -0.0151,-4e-5 -0.0226,-1.4e-4 z m 20.30856,0.006 v 0 c -0.003,0 -0.006,0 -0.009,0 -0.003,0 -0.006,0 -0.009,0 z m -37.07196,0.0537 -0.0457,0.0515 h -3e-5 z m -9.74254,-13.85533 c 0.11007,0 0.1808,0.0233 0.23073,0.0777 0.0534,0.0535 0.30295,0.4396 0.55841,0.86734 1.87134,3.10702 2.66146,4.34274 4.31302,6.77246 0.38022,0.5525 1.03369,1.515 1.44956,2.13876 0.77826,1.15244 0.98618,1.45544 1.71688,2.49514 0.39313,0.563 0.70582,1.00334 0.95045,1.3379 h -0.003 q -0.0399,0.0147 -0.0731,0.0468 -0.0587,0.0607 -0.0595,0.14361 4.5e-4,0.0473 0.0197,0.0874 h -0.003 l -0.11292,0.12708 v 0 c -0.0245,-0.0356 -0.0502,-0.0721 -0.0771,-0.10919 -0.47524,-0.67125 -0.90893,-1.30105 -2.22778,-3.29715 -0.94462,-1.4317 -1.20599,-1.81784 -1.9664,-2.8872 -0.8555,-1.20597 -2.2991,-3.29713 -2.79812,-4.0635 -1.40204,-2.1446 -2.2872,-3.55852 -2.2872,-3.64766 0,-0.0297 0.11285,-0.0653 0.25543,-0.0831 0.0421,-0.004 0.0798,-0.006 0.11387,-0.006 z m 7.92968,14.39533 v 0 c -3.1e-4,0 -6.1e-4,0 -9.5e-4,0 -3e-4,0 -6.1e-4,0 -9.1e-4,0 z m 1.59076,-0.2899 -0.31281,0.35236 h -3e-5 z m -0.54447,0.5119 q -9.4e-4,0 -0.002,0 -9.5e-4,0 -0.002,0 z m -38.61792,0.187 v 0 c -0.001,0 -0.002,0 -0.004,0 -0.001,0 -0.002,0 -0.004,0 z m 38.92652,0.022 v 0 c -5.5e-4,0 -0.001,0 -0.002,0 -5.5e-4,0 -10e-4,0 -0.002,0 z m 2.42886,0.0667 c 2.4e-4,0 4.7e-4,0 6.7e-4,0 h -0.001 c 2.4e-4,0 4.6e-4,0 6.7e-4,0 z m -3.78753,0.21069 c 5.7e-4,0 0.001,0 0.002,0 h -0.004 c 6e-4,0 0.001,0 0.002,0 z m -40.87794,0.005 c -9.6e-4,0 -0.002,0 -0.003,0 -9.7e-4,0 -0.002,0 -0.003,0 z m 42.69712,0.9162 c 6.4e-4,0 10e-4,0 0.002,10e-5 h -0.004 c 6.6e-4,-10e-5 10e-4,-10e-5 0.002,-10e-5 z m 0.55842,0.22053 c 5.4e-4,0 10e-4,0 0.002,0 h -0.003 c 5.6e-4,0 0.001,0 0.002,0 z m 25.33022,-2.53963 5.6521,0.33834 -2.14054,3.43086 -3.50814,-3.7655 z m -57.43122,4.9069 c 2e-4,0 3.7e-4,0 5.5e-4,0 h 0.002 c -4e-5,0 -4e-5,0 -6e-5,0 z m 62.2755,0.43407 c 7.8e-4,0 0.002,0 0.002,0 h -0.005 c 7.9e-4,0 0.002,0 0.002,0 z m -1.3908,0.063 c 1.3e-4,0 2.5e-4,0 3.8e-4,0 h 0.003 c 0,0 0,0 0,0 z m 1.15934,0.0368 c -3.4e-4,0 -6.7e-4,0 -0.001,0 -3.3e-4,0 -6.7e-4,0 -10e-4,0 z M 274.72668,520.778 c 0.0364,0 0.0487,0.0118 0.0487,0.0323 0,0.0178 -0.23762,0.2792 -0.5228,0.57624 -0.58814,0.61186 -1.41984,1.63966 -2.21592,2.7387 -0.2919,0.40286 -0.55511,0.73102 -0.59231,0.73102 -6.4e-4,0 -10e-4,-1.2e-4 -0.002,-3e-4 -0.0357,-0.0119 -0.83768,-0.94456 -1.1763,-1.37232 -0.0713,-0.0891 -0.0594,-0.12474 0.0654,-0.29114 0.15445,-0.20196 0.6891,-0.8079 1.18814,-1.33667 l 0.2911,-0.31483 0.80201,-0.1782 c 0.4396,-0.101 1.06933,-0.2733 1.40795,-0.3862 0.43192,-0.1426 0.6263,-0.1986 0.70578,-0.1986 z m -2.63358,5.3049 c 0.0187,0 0.0358,0.003 0.0527,0.009 h -9e-5 c -0.0169,-0.006 -0.0341,-0.009 -0.0527,-0.009 -0.0221,0 -0.0461,0.004 -0.0742,0.009 0.0281,-0.005 0.0522,-0.009 0.0742,-0.009 z m -0.66424,0.4607 c 5.2e-4,0 0.001,0 0.002,0 h -0.003 c 5.2e-4,0 10e-4,0 0.002,0 z m 67.90934,-7.7345 c 0.0973,0 0.23007,0.0126 0.4176,0.0348 0.16635,0.0237 0.30893,0.0594 0.30893,0.0832 0,0.0237 -0.32675,0.4693 -0.72476,0.98614 -1.52087,1.98426 -2.67933,3.6239 -4.51502,6.36854 l -0.29108,0.43371 -0.33862,-0.3446 c -0.19012,-0.19005 -0.56439,-0.62375 -0.8258,-0.96835 -0.26735,-0.3446 -0.63569,-0.77823 -0.81388,-0.96244 -0.18417,-0.19006 -0.33267,-0.37426 -0.33267,-0.41583 0,-0.18413 1.78223,-2.87533 2.72086,-4.11103 l 0.62974,-0.8198 0.5109,0.0416 c 0.27922,0.0238 0.6119,0.0653 0.7426,0.0951 0.1307,0.0297 0.60595,0.0713 1.05746,0.0951 0.2012,0.009 0.36026,0.0157 0.4881,0.0157 0.4422,0 0.51102,-0.0759 0.65848,-0.36621 0.0628,-0.11775 0.11779,-0.16545 0.30716,-0.16545 z m -78.3294,0.90165 c 0.1038,0 0.17385,0.0575 0.28692,0.24405 0.14953,0.2508 0.40872,0.4351 0.57406,0.4351 0.0383,0 0.0716,-0.01 0.0973,-0.0311 0.0559,-0.0476 0.39486,-0.0701 0.77393,-0.0701 0.42621,0 0.90316,0.0285 1.08553,0.082 0.34458,0.10103 0.5228,0.27923 1.09907,1.05153 0.52279,0.7188 0.86733,1.0574 1.26538,1.25944 0.16742,0.0865 0.40298,0.1297 0.68637,0.1297 0.32001,0 0.70098,-0.0551 1.11371,-0.16534 0.28995,-0.0829 0.56634,-0.13416 0.66407,-0.13416 0.0144,0 0.0249,10e-4 0.031,0.003 0.0891,0.0297 0.38614,0.46934 0.38614,0.57034 0,0.0297 -0.24952,0.3446 -0.5525,0.701 -0.65942,0.7664 -1.05746,1.2654 -1.67532,2.09115 -0.65692,0.88185 -1.27847,1.65759 -1.33017,1.65759 -1.8e-4,0 -3.5e-4,-4e-5 -5.5e-4,-4e-5 -0.0713,-0.006 -1.72876,-2.3289 -2.78622,-3.91506 -1.33075,-1.99609 -2.38822,-3.68924 -2.38822,-3.82584 0,-0.0238 0.27329,-0.0594 0.65348,-0.0832 0.005,-3e-4 0.0108,-4.5e-4 0.0161,-4.5e-4 z m 4.79567,8.59198 v 0 c -2.7e-4,0 -5.1e-4,0 -7.9e-4,0 -2.8e-4,0 -5.2e-4,0 -7.8e-4,0 z m 0.42981,0.86137 c 7.2e-4,0 10e-4,0 0.002,0 h -0.004 c 7e-4,0 10e-4,0 0.002,0 z m 3.55085,-4.7715 c 0.0178,0 0.22573,0.3208 0.46337,0.7069 0.2317,0.38616 0.42774,0.7486 0.42774,0.79607 0,0.14263 -0.6832,0.99813 -2.95854,3.71303 -0.2376,0.28514 -0.45146,0.52275 -0.47524,0.5287 -2.4e-4,10e-5 -4.9e-4,10e-5 -7.9e-4,10e-5 -0.0269,0 -0.22127,-0.28297 -0.43881,-0.63575 l -0.404,-0.65351 0.61786,-0.78418 c 0.73668,-0.9505 1.05748,-1.37231 2.008,-2.67926 0.39801,-0.54657 0.74258,-0.9921 0.76041,-0.9921 z m 6.78787,6.2422 v 0 c 2.4e-4,0 5.2e-4,0 8e-4,0 h -0.004 c 3e-4,0 5.8e-4,0 8.5e-4,0 z m 2.7774,-12.21976 c 0.22867,0 0.59394,0.0534 1.3064,0.15552 0.50494,0.0713 0.9208,0.13074 0.9208,0.13664 0,0.006 0.22574,0.2436 0.49308,0.5228 l 0.4931,0.5168 -0.11883,0.3981 c -0.0713,0.2317 -0.13663,0.6654 -0.1604,1.0456 -0.0416,0.6357 -0.0475,0.6594 -0.29703,1.0515 -0.60002,0.9446 -1.01587,1.6812 -1.40202,2.4951 -0.84954,1.79415 -1.56243,3.1843 -1.907,3.71303 -0.22574,0.34457 -0.6,0.80201 -1.0337,1.23567 -0.5648,0.57476 -0.6627,0.67425 -0.8175,0.67425 -0.0308,0 -0.0639,-0.004 -0.10333,-0.009 -0.038,-0.006 -0.0735,-0.009 -0.10874,-0.009 -0.14103,0 -0.27981,0.0532 -0.57446,0.20534 -0.22667,0.11556 -0.37357,0.17456 -0.44061,0.17456 -0.0226,0 -0.0361,-0.007 -0.0406,-0.0201 -0.0119,-0.0357 -0.19604,-0.31482 -0.40991,-0.6178 -0.21979,-0.30296 -0.6713,-0.98022 -1.01586,-1.50306 -0.33863,-0.52276 -0.70695,-1.08715 -0.8139,-1.24755 -0.56438,-0.86731 -0.98024,-1.52675 -0.98024,-1.56245 0,-0.095 0.91489,-1.30693 1.50897,-1.9961 0.68915,-0.802 1.56244,-1.81785 2.55454,-2.9704 1.20003,-1.402 1.28323,-1.4852 1.68719,-1.72874 0.21982,-0.13066 0.54654,-0.33862 0.72476,-0.46336 0.19855,-0.13344 0.28534,-0.19716 0.53528,-0.19716 z m -12.65252,12.64783 v 0 c -5.5e-4,0 -10e-4,0 -0.002,0 -5.3e-4,0 -10e-4,0 -0.002,0 z m 9.08206,0.32788 c -8.9e-4,0 -0.002,0 -0.003,0 -9.1e-4,0 -0.002,0 -0.003,0 z m 31.66388,-17.03809 c 0.0238,0 0.14258,0.3089 0.27328,0.68314 0.1604,0.4753 0.3208,0.80795 0.51685,1.08127 0.40399,0.57623 0.6416,1.05153 0.6416,1.28913 0,0.6297 0.62973,2.4179 1.24165,3.51104 0.14257,0.26136 0.3208,0.58216 0.38613,0.71286 0.0653,0.1307 0.16635,0.33267 0.22573,0.4456 0.66538,1.2594 1.0159,2.0852 1.27729,3.02977 0.20199,0.73073 0.24359,1.14063 0.30893,2.97633 0.10692,2.87535 0.26732,3.4635 1.39016,5.0616 0.0534,0.0713 -0.26141,0.8317 -0.36834,0.897 -0.001,7e-4 -0.002,10e-4 -0.004,10e-4 -0.10327,0 -1.29788,-1.55034 -1.74272,-2.26444 -0.0832,-0.1367 -0.20198,-0.26144 -0.2614,-0.2852 -0.10693,-0.0297 -0.1604,-0.1069 -0.7307,-0.92674 -0.40992,-0.58221 -1.29512,-2.00206 -1.81196,-2.90503 -0.25544,-0.43963 -0.51684,-0.85553 -0.58814,-0.92083 -0.1307,-0.12476 -1.8357,-2.59613 -2.56048,-3.713 -1.01587,-1.5743 -1.75254,-2.61397 -2.04956,-2.911 -0.202,-0.202 -0.19606,-0.2317 0.0356,-0.6119 0.12476,-0.202 0.45743,-0.68915 0.73663,-1.08124 0.27924,-0.39209 0.58814,-0.83173 0.68323,-0.98023 0.48712,-0.72479 2.32282,-3.08917 2.40006,-3.08917 z m 4.89868,20.19397 c 5.2e-4,0 0.001,0 0.002,7e-5 h -0.003 c 5.3e-4,-7e-5 10e-4,-7e-5 0.002,-7e-5 z m -26.11917,-30.35278 c 0.13067,0 0.30297,0.13075 0.7901,0.60003 l 0.62377,0.59406 0.32676,-0.0356 c 0.49684,-0.0662 1.08789,-0.10987 1.34689,-0.10987 0.0662,0 0.11069,0.003 0.12641,0.009 0.0475,0.0119 0.60598,0.81983 1.24758,1.78816 1.20596,1.81786 2.65556,3.95064 3.07734,4.52096 0.22572,0.30297 0.38614,0.53464 1.46737,2.10897 1.57431,2.29317 4.02191,6.17247 4.02191,6.36853 -0.006,0.0594 -0.16632,0.33271 -0.36236,0.61194 -0.35648,0.499 -1.37827,2.03766 -2.04364,3.05945 -0.19013,0.29115 -0.58222,0.93275 -0.86736,1.42585 -1.41987,2.4238 -2.4298,4.0278 -4.53285,7.218 -0.65942,0.9981 -1.24755,1.9189 -1.30697,2.04365 l -0.10691,0.23169 -0.11291,-0.14258 c -0.1782,-0.22571 -0.74259,-1.40796 -0.90894,-1.89506 -0.58215,-1.71694 -0.61188,-3.6774 -0.11877,-7.8419 l 0.095,-0.802 0.67724,-0.8911 c 0.37428,-0.4931 0.83765,-1.09313 1.0337,-1.33666 0.6535,-0.83174 1.69906,-2.28724 2.09115,-2.91104 0.8436,-1.35446 1.09906,-2.25156 0.84955,-2.9763 -0.19009,-0.54656 -0.75449,-1.4496 -1.23569,-1.99016 -0.37426,-0.40994 -1.40203,-1.09904 -1.85351,-1.23574 -0.71289,-0.21385 -0.83765,-0.2673 -1.24759,-0.4931 -0.22573,-0.13066 -0.76041,-0.41582 -1.18813,-0.64156 -0.42183,-0.21981 -0.7961,-0.42178 -0.83174,-0.44558 -0.10098,-0.0713 -3.37436,-1.71094 -3.55853,-1.78223 -0.1485,-0.0535 -0.16633,-0.0832 -0.13068,-0.26138 0.0416,-0.21387 0.24951,-0.76045 0.48712,-1.27133 0.0772,-0.17232 0.14258,-0.33272 0.14258,-0.35645 0,-0.0238 0.0476,-0.0951 0.0951,-0.1604 0.0319,-0.0404 0.0532,-0.0648 0.0654,-0.0667 h 0.003 c 0.0184,0.003 0.0107,0.074 -0.0147,0.24497 -0.0356,0.26733 -0.1188,0.4693 -0.40991,1.00994 -0.0535,0.095 -0.0951,0.24353 -0.0951,0.3208 0,0.17224 0.2733,0.4812 0.42774,0.4812 0.13071,0 0.67133,-0.79016 0.88519,-1.30697 0.16633,-0.39212 0.39801,-1.30697 0.52872,-2.04959 0.0654,-0.38614 0.27921,-1.39608 0.3327,-1.56244 0.0119,-0.0356 0.0951,-0.0713 0.18418,-0.0713 z m 26.26681,30.47632 c -3.4e-4,0 -7e-4,0 -10e-4,0 -3.7e-4,0 -7.3e-4,0 -0.001,0 z m 8.47342,0.14776 c 2.4e-4,0 4.9e-4,0 7.4e-4,0 h -10e-4 c 2.1e-4,0 4.6e-4,0 7e-4,0 z m -31.04724,0.43311 v 0 c -8.5e-4,0 -0.002,0 -0.002,0 -8.2e-4,0 -0.002,0 -0.002,0 z m 12.9502,-14.31274 c 0.0142,0 0.0266,0.007 0.0385,0.0205 0.0416,0.0416 0.26138,0.3862 0.49902,0.7723 0.23169,0.3802 0.93272,1.44956 1.55649,2.3763 0.62378,0.9208 1.43768,2.1328 1.806,2.6912 0.36833,0.5525 0.76639,1.1228 0.88519,1.25944 0.11881,0.13666 0.65348,0.90302 1.18814,1.69906 1.00995,1.50303 1.1941,1.75846 2.34662,3.3031 0.62973,0.8436 0.68915,0.95054 0.76044,1.307 0.12476,0.6534 0.10098,0.9564 -0.0891,1.1881 l -0.16635,0.19604 -1.0456,-1.38414 c -1.37826,-1.8417 -1.3129,-1.7526 -4.63974,-6.7369 -1.59213,-2.38823 -3.09516,-4.62786 -3.33874,-4.9784 -0.24356,-0.3505 -0.44556,-0.6653 -0.44556,-0.69505 0,-0.0238 0.13666,-0.27925 0.30298,-0.56439 0.19943,-0.3371 0.285,-0.45416 0.34168,-0.45416 z m 20.95218,-3.3719 c 0.0374,0 0.13638,0.1522 0.22964,0.3388 0.22576,0.43367 0.29111,0.48713 0.6535,0.48713 0.42774,0 0.62378,0.14257 1.05152,0.78427 0.45147,0.6713 1.08124,1.4673 1.63374,2.06736 0.5287,0.57624 0.9208,1.03369 1.4139,1.66339 0.73666,0.93865 1.09902,1.39612 1.27725,1.604 0.10101,0.11292 0.18417,0.23169 0.18417,0.26142 0,0.0297 -0.30298,0.45743 -0.67725,0.95648 -0.37427,0.4931 -0.95647,1.34265 -1.2951,1.87732 -0.34457,0.53467 -0.76637,1.20003 -0.93863,1.47923 -0.36834,0.57625 -1.3248,1.901 -2.53079,3.5051 -0.45151,0.60594 -1.08121,1.4733 -1.38419,1.9307 -0.85876,1.26954 -1.12369,1.62903 -1.21188,1.62903 -0.01,0 -0.0178,-0.005 -0.0238,-0.0131 -0.0297,-0.0356 -0.15444,-0.27324 -0.2792,-0.51683 -0.3505,-0.69507 -0.44556,-0.81983 -0.72476,-1.01587 l -0.26142,-0.1782 0.0178,-1.22976 c 0.0119,-1.3783 -0.006,-1.48524 -0.43962,-2.20404 -0.33268,-0.5525 -0.33862,-0.60004 -0.29111,-3.3922 0.0297,-1.60994 -0.17227,-3.3625 -0.59407,-5.1982 -0.0594,-0.2614 -0.1307,-0.5822 -0.1485,-0.7129 -0.0357,-0.21385 -0.1129,-0.51683 -0.26735,-1.09905 -0.0297,-0.11285 -0.13665,-0.47525 -0.23765,-0.80792 -0.0951,-0.33273 -0.1782,-0.64166 -0.1782,-0.68913 0,-0.0654 0.11285,-0.11293 0.37426,-0.16634 1.02774,-0.20202 2.40601,-0.59411 3.75458,-1.06939 0.45746,-0.1604 0.86142,-0.29107 0.89111,-0.29107 6.7e-4,-1.3e-4 0.001,-2e-4 0.002,-2e-4 z m -23.8484,3.9746 c 0.0238,0 0.17823,0.1248 0.34458,0.2733 l 0.29706,0.2673 -0.48124,0.6951 c -0.74258,1.0752 -1.25942,1.87723 -2.24563,3.4872 -0.88517,1.4496 -2.23373,3.49916 -3.71297,5.64375 -0.40992,0.5882 -1.2832,1.87735 -1.94264,2.86945 -0.82716,1.2299 -1.14929,1.6781 -1.21664,1.6781 -0.007,0 -0.0114,-0.005 -0.0131,-0.0147 -0.006,-0.0772 0.0297,-0.44557 0.0891,-0.81983 0.0832,-0.55247 0.13662,-0.72477 0.26138,-0.89112 0.24951,-0.3208 1.72876,-2.61985 2.74463,-4.2655 0.78421,-1.26538 1.91888,-2.97632 2.6199,-3.95065 0.33863,-0.46335 0.73667,-1.03366 0.89112,-1.25943 0.15448,-0.23167 0.42773,-0.6297 0.6119,-0.89112 0.17823,-0.26141 0.404,-0.63565 0.49903,-0.83175 0.0891,-0.196 0.28515,-0.53464 0.4218,-0.7544 0.1426,-0.2198 0.3802,-0.58816 0.52873,-0.81985 0.14257,-0.22575 0.2792,-0.41585 0.30297,-0.41585 z m 12.12214,15.1327 c -3.7e-4,0 -7.7e-4,0 -0.001,0 -3.6e-4,0 -7.5e-4,0 -10e-4,0 z m -49.9093,0.14106 v 0 c 0.0441,10e-4 0.008,0.0364 -0.0854,0.0832 -0.10791,0.0589 -0.16185,0.0853 -0.18851,0.0853 -0.0218,0 -0.0254,-0.0177 -0.0254,-0.0497 0,-0.0534 0.12457,-0.1069 0.29662,-0.11884 z m -0.4292,0.17704 c 0.0493,0 0.0733,0.0155 0.0527,0.0309 -0.0103,0.0104 -0.0327,0.0167 -0.0578,0.0167 -0.0181,0 -0.0376,-0.003 -0.055,-0.0108 -0.0475,-0.0178 -0.0297,-0.0356 0.0356,-0.0356 0.009,-8e-4 0.0169,-0.001 0.0245,-0.001 z m -0.16574,0.12 c 0.052,4.4e-4 0.0455,0.024 -0.0311,0.0535 -0.0653,0.0296 -0.1604,0.0534 -0.20793,0.0534 -0.0535,0 -0.0475,-0.0238 0.0297,-0.0534 0.0648,-0.0295 0.15876,-0.0531 0.20667,-0.0535 z m -0.42832,0.1771 c 0.0493,0 0.0733,0.0154 0.0527,0.0309 -0.0104,0.0104 -0.0328,0.0166 -0.0578,0.0166 -0.0181,0 -0.0376,-0.003 -0.055,-0.0107 -0.0476,-0.0178 -0.0297,-0.0357 0.0357,-0.0357 0.009,-7.9e-4 0.0169,-10e-4 0.0245,-10e-4 z m 60.83532,0.1475 c 4e-4,0 8e-4,0 10e-4,0 h -0.006 c 4e-4,0 8e-4,0 10e-4,0 z m -0.4149,0.0781 c -6.5e-4,0 -0.001,0 -0.002,0 -6.4e-4,0 -0.001,0 -0.002,0 z m -56.0369,-7.71577 c 0.0119,0 0.0951,0.1426 0.17822,0.3089 0.0891,0.1723 0.23168,0.4218 0.31488,0.5525 0.0891,0.1307 0.21387,0.3386 0.27325,0.4634 0.14853,0.2792 0.17231,0.22574 -0.77227,1.3902 -0.93271,1.1406 -1.92484,2.47727 -2.29911,3.0832 l -0.29702,0.4812 -0.73072,0.3684 c -0.99808,0.49893 -2.58426,1.25345 -2.75061,1.3188 l -0.14258,0.0535 0.11289,-0.19606 c 0.13071,-0.21984 1.74657,-2.44174 2.42977,-3.33284 0.8733,-1.1465 3.612,-4.4912 3.6833,-4.4912 z m 65.672,-4.1238 c 0.001,0 0.003,3e-4 0.003,9e-4 0.0357,0.0178 0.36835,0.4396 0.73667,0.93864 0.36834,0.4931 0.81986,1.08126 1.00399,1.30103 0.3208,0.39209 0.32677,0.40993 0.24952,0.56439 -0.13068,0.24954 -0.7901,1.17029 -2.00202,2.81594 -0.60599,0.8257 -1.41986,1.9545 -1.80603,2.5129 -0.38614,0.5525 -0.9624,1.3664 -1.27133,1.80605 -0.31485,0.43955 -0.77231,1.11682 -1.01587,1.50895 -0.36002,0.57955 -0.52533,0.80214 -0.63025,0.80214 -0.0371,0 -0.0666,-0.0277 -0.0945,-0.0774 -0.0356,-0.0653 -0.42182,-0.4812 -0.86737,-0.92675 -0.73667,-0.7426 -1.25947,-1.39014 -1.25947,-1.56245 0,-0.14255 1.20005,-1.84755 2.9704,-4.22385 0.51093,-0.6892 1.0456,-1.4199 1.18818,-1.63375 1.32592,-1.97132 2.68664,-3.82675 2.79462,-3.82675 z m -4.75397,12.65634 c -6.1e-4,0 -0.001,0 -0.002,0 -5.8e-4,0 -10e-4,0 -0.002,0 z m -66.42759,-0.50708 c 0.009,0 0.008,0.007 0.008,0.0183 0,0.0633 -1.11481,0.6673 -1.22251,0.6673 -0.004,0 -0.006,-6.4e-4 -0.007,-0.002 -0.0594,-0.0594 0.15445,-0.25546 0.35645,-0.33267 0.24951,-0.0951 0.51089,-0.20203 0.69505,-0.28513 0.11366,-0.0477 0.15492,-0.0659 0.16984,-0.0659 z m 21.40134,0.90144 c 0.0414,0 0.0786,6e-4 0.11218,0.002 h -4.6e-4 c -0.0334,-10e-4 -0.0705,-0.002 -0.11172,-0.002 -0.0462,0 -0.0976,8e-4 -0.1546,0.002 0.057,-10e-4 0.10837,-0.002 0.1546,-0.002 z m -1.77646,0.0511 c 4.6e-4,0 9.5e-4,0 10e-4,0 h -0.003 c 4.6e-4,0 9.4e-4,0 10e-4,0 z m -4.07019,0.20484 c 5.2e-4,0 0.001,0 0.002,0 h -0.003 c 5.2e-4,0 10e-4,0 0.002,0 z m -4.07461,-11.8562 c 0.0178,0 0.23168,0.30297 0.4693,0.66533 0.24358,0.36836 0.7723,1.14064 1.18818,1.71095 0.86733,1.20001 1.3842,1.96045 1.35448,1.99015 -0.006,0.006 -0.13068,0.0713 -0.27328,0.1426 -0.32676,0.1664 -0.903,0.7426 -1.05152,1.0456 -0.17228,0.36236 -0.13663,0.7307 0.14258,1.5743 0.31488,0.9267 0.64754,1.68717 1.35452,3.0833 0.30298,0.59996 0.55249,1.09905 0.55249,1.10497 0,0.0585 -1.50487,1.01653 -1.59497,1.01653 -0.001,0 -0.002,-2.4e-4 -0.003,-6.6e-4 -0.0357,-0.0238 -0.30894,-0.39209 -0.61192,-0.82584 -0.29703,-0.4336 -0.92081,-1.295 -1.38418,-1.9129 -1.03965,-1.3901 -1.7763,-2.4535 -2.34662,-3.3862 -0.67725,-1.11097 -1.18818,-2.0496 -1.18818,-2.1803 0,-0.0713 0.14258,-0.28516 0.31488,-0.4872 0.17822,-0.20195 0.38019,-0.43956 0.46338,-0.53465 0.0772,-0.0951 0.43366,-0.49305 0.78418,-0.89112 0.35646,-0.39803 0.90299,-1.03369 1.21786,-1.41388 0.3208,-0.38615 0.5941,-0.70098 0.61192,-0.70098 z m 74.46112,14.17199 v 0 c -6.1e-4,0 -10e-4,0 -0.002,0 -6.1e-4,0 -0.001,0 -0.002,0 z m -58.63608,1.27404 c -1.8e-4,0 -3.6e-4,0 -5.2e-4,0 h 0.003 c 4e-5,0 7e-5,0 1e-4,0 h -0.004 c 1.6e-4,0 3.1e-4,0 4.9e-4,0 z m 27.44568,0.2462 c 0.20218,0 0.34723,0.005 0.3941,0.0152 -0.0469,-0.0105 -0.19192,-0.0152 -0.3941,-0.0152 -0.21756,0 -0.50128,0.005 -0.80004,0.0152 h -4e-5 c 0.29877,-0.01 0.58252,-0.0152 0.80008,-0.0152 z m -39.95749,0.7023 c -0.003,0 -0.006,0 -0.009,0 -0.003,0 -0.006,0 -0.009,0 z m 42.00295,0.1752 v 0 c -0.0128,1.5e-4 -0.0261,1.5e-4 -0.0399,1.5e-4 -0.0139,0 -0.0283,-5e-5 -0.0433,-1.5e-4 h 0.004 c 0.0137,10e-5 0.0269,1.5e-4 0.0398,1.5e-4 0.0126,0 0.0248,-5e-5 0.0367,-1.5e-4 z m 12.95896,-80.49063 c -0.28531,0 -0.54922,0.0105 -0.71481,0.0335 -2.4476,0.35053 -3.72485,0.84955 -5.04968,1.9783 -0.6832,0.58222 -0.91489,0.84358 -1.00992,1.14063 -0.0891,0.27327 -0.0357,0.44557 0.30893,0.96241 0.20792,0.30893 0.22574,0.36834 0.17227,0.53466 -0.0297,0.10694 -0.0713,0.29706 -0.095,0.42774 -0.0178,0.13071 -0.10102,0.60003 -0.19012,1.03966 -0.17228,0.92677 -0.1604,1.2654 0.0654,1.71095 l 0.1485,0.297 -0.46933,0.70697 c -0.52873,0.80203 -0.65347,1.14065 -0.54063,1.50302 0.0713,0.23764 0.30894,0.43368 0.68916,0.57034 0.202,0.0713 0.32674,0.26732 0.32674,0.51685 0,0.23169 0.0891,0.38017 0.40397,0.70697 l 0.27329,0.28515 -0.10099,0.20792 c -0.13665,0.28519 -0.1307,0.31485 0.10693,0.70693 0.20792,0.34458 0.20792,0.35053 0.1485,0.73072 -0.0891,0.54065 0.0297,0.94461 0.3624,1.22382 0.26563,0.22918 0.408,0.27569 1.1517,0.27569 0.10456,0 0.22098,-9.1e-4 0.35132,-0.002 0.48716,0 0.90302,0.0178 0.96241,0.0534 0.0654,0.0356 0.24359,0.19012 0.39804,0.35052 l 0.28515,0.29114 -0.71289,0.71283 c -0.42773,0.42185 -0.72476,0.77235 -0.74856,0.87335 -0.0772,0.29108 0.0297,0.5703 0.42181,1.1525 0.37427,0.54654 0.38617,0.5703 0.31488,0.7545 -0.0416,0.101 -0.0951,0.2079 -0.12476,0.24355 -0.0238,0.0297 -0.0475,0.0892 -0.0475,0.12475 0,0.0416 -0.10098,0.29703 -0.22574,0.57034 -0.22577,0.48713 -0.46932,1.11091 -0.60596,1.55054 -0.0392,0.11772 -0.0732,0.20896 -0.0869,0.20896 -8.2e-4,0 -0.002,-3.4e-4 -0.002,-10e-4 -0.0178,-0.0238 -0.93268,-1.94861 -1.06338,-2.25753 -0.0535,-0.12473 -0.19604,-0.5109 -0.31484,-0.86143 -0.21388,-0.63567 -0.21388,-0.6535 -0.26143,-2.00799 -0.0475,-1.36638 -0.0832,-1.71094 -0.24951,-2.27533 -0.13066,-0.43365 -0.14258,-0.45148 -0.88516,-1.20595 -0.73987,-0.75606 -1.1991,-1.09664 -1.5668,-1.09664 -0.17258,0 -0.32502,0.075 -0.47684,0.21738 -0.0476,0.0431 -0.077,0.0697 -0.12784,0.0697 -0.0825,0 -0.22122,-0.0701 -0.58505,-0.2538 -0.49307,-0.25546 -0.65947,-0.30896 -1.00995,-0.33863 l -0.42178,-0.0356 -0.18418,0.32077 c -0.40396,0.70694 -0.60596,1.51492 -0.60596,2.3882 0.006,0.97432 0.17228,1.5268 0.45743,1.5268 0.13667,0 0.49311,0.19605 0.49311,0.27326 0,0.14854 0.40396,0.95649 0.91488,1.83574 0.65348,1.12282 1.23568,2.2753 1.42578,2.83376 0.14258,0.42174 0.21982,0.82574 0.41587,2.12677 0.19603,1.34265 0.2792,1.72879 0.81983,3.86151 0.52874,2.09711 0.9743,3.04169 2.07333,4.40808 l 0.1307,0.1604 -0.14258,0.46933 -0.14257,0.47528 -0.41588,0.12477 c -0.23168,0.0712 -0.58217,0.22573 -0.77822,0.3386 -1.06936,0.6238 -1.52678,0.7842 -2.72683,0.96836 -0.45313,0.0678 -0.73151,0.10344 -0.99195,0.10344 -0.30978,0 -0.59417,-0.0504 -1.11703,-0.1569 -0.61597,-0.12506 -1.03117,-0.1876 -1.36511,-0.1876 -0.30056,0 -0.53534,0.0506 -0.79142,0.15195 -0.21981,0.0831 -0.46337,0.15445 -0.54654,0.15445 -0.0772,0 -0.1604,0.0297 -0.18417,0.0653 -0.0177,0.0284 -0.15396,0.0419 -0.44659,0.0419 -0.19766,0 -0.46671,-0.006 -0.81879,-0.0182 -0.22562,-0.007 -0.43857,-0.0104 -0.64085,-0.0104 -1.56063,0 -2.48564,0.21492 -3.69,0.83026 -0.3386,0.16636 -0.77825,0.4396 -0.9802,0.6 -0.33864,0.26142 -0.8852,0.87928 -0.9446,1.0575 -0.0139,0.0388 -0.12863,0.0582 -0.43124,0.0582 -0.34586,0 -0.9371,-0.0253 -1.9035,-0.076 -2.13223,-0.1106 -3.12473,-0.14872 -4.47861,-0.14872 -0.46429,0 -0.97113,0.005 -1.58099,0.0121 -1.60401,0.0238 -2.83972,0.0654 -3.32686,0.11884 -1.2246,0.13952 -2.23802,0.19363 -3.7829,0.19363 -0.2313,0 -0.4745,-10e-4 -0.7321,-0.004 -1.66342,-0.0178 -1.96045,-0.0297 -1.94263,-0.101 0.0891,-0.4099 -0.10101,-2.15652 -0.3446,-3.1902 -0.11287,-0.45152 -0.37424,-1.2832 -0.65347,-2.06742 -0.0713,-0.19605 -0.2317,-0.76041 -0.36237,-1.24756 -0.13071,-0.49308 -0.27329,-1.0456 -0.32675,-1.22382 -0.39208,-1.38418 -0.79608,-3.2912 -0.79608,-3.74863 0,-0.18417 -0.0356,-0.53467 -0.0832,-0.7723 -0.0475,-0.24357 -0.10099,-0.5228 -0.11881,-0.62377 l -0.0297,-0.18416 0.60596,-0.0654 c 0.33271,-0.0356 0.82578,-0.0832 1.09906,-0.10694 l 0.49311,-0.0416 0.39207,-0.55848 c 0.5822,-0.84356 0.98616,-1.96044 0.98024,-2.75057 0,-0.21387 -0.0238,-0.45151 -0.0594,-0.53463 l -0.0535,-0.14857 -1.1525,0.0178 c -2.28128,0.0297 -3.612,0.0832 -3.71896,0.1604 -0.0594,0.0476 -0.1069,0.19013 -0.12473,0.40995 -0.0188,0.23696 -0.0567,0.36678 -0.097,0.36678 -0.0234,0 -0.0476,-0.0436 -0.0694,-0.1351 -0.0654,-0.28515 -0.27922,-0.61191 -0.4693,-0.72476 -0.54447,-0.33337 -1.72276,-0.53162 -3.1365,-0.53162 -0.098,0 -0.19713,9.5e-4 -0.2973,0.003 -0.18416,0.004 -0.33895,0.007 -0.46804,0.007 -0.64946,0 -0.64804,-0.0707 -0.46466,-0.42262 0.0832,-0.15444 0.22574,-0.41585 0.3208,-0.58217 l 0.16636,-0.30298 1.02179,-0.0356 c 1.12283,-0.0416 1.68127,-0.11883 1.95452,-0.2555 0.28516,-0.1485 0.44556,-0.3683 0.49311,-0.65346 0.0297,-0.22574 0.0119,-0.32672 -0.14853,-0.6416 -0.20792,-0.42179 -0.21387,-0.45744 -0.11289,-0.72477 0.0594,-0.16635 0.0535,-0.22577 -0.0475,-0.40991 l -0.11289,-0.21386 0.14258,-0.24952 c 0.0832,-0.13665 0.1604,-0.35648 0.17822,-0.48718 0.0356,-0.2376 0.0356,-0.2376 0.33271,-0.26733 0.35049,-0.0416 0.51089,-0.11881 0.67723,-0.33267 0.24357,-0.30894 0.11287,-0.78416 -0.40398,-1.44956 -0.19009,-0.24359 -0.39209,-0.54059 -0.45148,-0.65347 -0.11288,-0.22577 -0.1307,-0.71292 -0.0416,-1.20005 0.0535,-0.28518 0.006,-0.67132 -0.19605,-1.53272 -0.0475,-0.2139 -0.1307,-0.58813 -0.17227,-0.83172 -0.10101,-0.54062 -0.24359,-0.96835 -0.40991,-1.24756 -0.21387,-0.35052 -0.46932,-0.64755 -0.60004,-0.68914 -0.0713,-0.0178 -0.71884,-0.33271 -1.44955,-0.68912 -1.58026,-0.77231 -1.6456,-0.80203 -2.44168,-0.90896 -0.23273,-0.0327 -0.45801,-0.0494 -0.68005,-0.0494 -0.7472,0 -1.4582,0.18979 -2.29627,0.60193 -0.35645,0.17822 -0.59409,0.3624 -1.18223,0.93274 -0.85546,0.8317 -1.35448,1.53272 -1.93075,2.73276 -0.59408,1.22379 -0.63568,1.33664 -0.93865,2.40604 -0.095,0.34454 -0.20792,0.75445 -0.25544,0.92078 -0.1604,0.55846 -0.43963,1.78225 -0.55844,2.43575 -0.12475,0.6832 -0.39804,1.72281 -0.86142,3.32682 -0.48715,1.66937 -0.93866,2.61395 -1.59808,3.33873 -0.42774,0.46934 -0.81982,1.06935 -0.9921,1.52085 -0.30298,0.78421 -0.43368,2.23375 -0.29112,3.20805 0.0772,0.55248 0.2317,1.5149 0.26735,1.705 0.28515,1.4258 0.38022,2.46543 0.38022,4.06944 0,1.62776 -0.1604,3.04172 -0.49311,4.4259 -0.12476,0.5228 -0.17822,0.62378 -0.70098,1.39609 -1.92484,2.82782 -3.43973,5.2279 -4.1348,6.54675 -0.14258,0.26734 -0.27924,0.49902 -0.30893,0.51685 -4e-4,2.7e-4 -8.2e-4,4.2e-4 -10e-4,4.2e-4 -0.0297,0 -0.25229,-0.53405 -0.50366,-1.20047 -0.25544,-0.67724 -0.48713,-1.2832 -0.5109,-1.34854 -0.10101,-0.21981 -0.53468,-1.36639 -0.53468,-1.40799 0,-0.0238 0.1901,-0.10098 0.4218,-0.16635 0.2317,-0.0713 0.43368,-0.16632 0.4515,-0.2198 0.0356,-0.0832 -0.28515,-1.12874 -0.4812,-1.5862 -0.27923,-0.65347 -0.36834,-0.82577 -0.46338,-0.8733 -0.0392,-0.0214 -0.13189,-0.0321 -0.2511,-0.0321 -0.0795,0 -0.17072,0.005 -0.26577,0.0143 l -0.40395,0.0356 -0.22575,-0.69506 c -0.25545,-0.78417 -0.26735,-0.75449 0.27325,-0.85547 0.2911,-0.0594 0.35645,-0.0951 0.38617,-0.2139 0.0297,-0.12476 -0.31487,-1.3842 -0.51092,-1.85944 -0.0357,-0.0772 -0.0594,-0.18416 -0.0594,-0.24359 0,-0.0594 -0.0535,-0.15447 -0.11884,-0.21387 -0.057,-0.0507 -0.0904,-0.076 -0.12265,-0.076 -0.0282,0 -0.0555,0.0194 -0.0971,0.0582 -0.0654,0.0535 -0.45746,0.14852 -0.93866,0.22577 -0.45743,0.0713 -1.05748,0.17227 -1.33668,0.21979 -0.27923,0.0416 -0.67132,0.10693 -0.87924,0.13666 -0.7723,0.1188 -3.33279,0.6 -4.28926,0.80792 -0.21385,0.0476 -0.5406,0.11291 -0.73071,0.14258 -0.19604,0.0356 -0.44556,0.10693 -0.56438,0.16638 -0.26733,0.12472 -0.29702,0.27325 -0.1604,0.83169 0.24952,0.99805 0.46338,1.4733 0.75449,1.6456 0.20198,0.11883 0.28516,0.29703 0.53467,1.11689 0.10693,0.36236 0.1604,0.64752 0.13664,0.74258 -0.0416,0.19606 0.22575,1.56241 0.39209,2.01392 0.0772,0.19009 0.19604,0.37429 0.32674,0.48124 0.52279,0.43364 1.33075,2.26342 1.65155,3.75457 0.0535,0.24356 0.13662,0.6297 0.18415,0.86138 0.0535,0.22577 0.1307,0.5644 0.18418,0.74262 0.0475,0.17823 0.14256,0.52875 0.20791,0.77228 0.0594,0.24359 0.24358,0.79015 0.40398,1.21789 0.15447,0.42176 0.34459,1.00989 0.42182,1.30696 0.0713,0.2911 0.19009,0.6832 0.26733,0.86144 0.0713,0.17822 0.27324,0.67132 0.44556,1.09906 0.17228,0.42175 0.53466,1.22375 0.80795,1.77624 0.27325,0.55249 0.49899,1.02186 0.49899,1.05152 0,0.0238 -0.095,0.0653 -0.21384,0.0891 -0.26736,0.0475 -0.29705,0.13663 -0.20794,0.58223 0.13049,0.64274 0.38284,0.95134 0.78586,0.95134 0.0924,0 0.19271,-0.0162 0.3013,-0.0483 0.0906,-0.0254 0.14553,-0.056 0.19964,-0.056 0.14804,0 0.29025,0.2287 1.14298,1.4165 0.71292,0.998 1.4555,2.0911 2.17434,3.202 0.1307,0.202 0.53467,0.8139 0.89707,1.3724 0.36236,0.55246 0.8436,1.3129 1.06933,1.67527 l 0.40397,0.67133 -0.22574,0.3386 c -0.32675,0.49904 -1.53273,2.0971 -2.51889,3.3447 -0.55844,0.70695 -1.73471,2.2575 -2.50107,3.2971 -0.24359,0.3267 -0.62973,0.8198 -0.8555,1.0931 -0.23169,0.2733 -0.58217,0.70695 -0.77823,0.96244 -0.19604,0.25546 -0.54062,0.67726 -0.77231,0.93266 -0.22573,0.2555 -0.58218,0.68325 -0.78418,0.9446 -0.43962,0.5644 -0.90895,1.00995 -1.09905,1.0515 -0.0713,0.0178 -0.2911,0.0416 -0.48714,0.0654 -0.51686,0.0475 -0.86736,0.37425 -0.86736,0.8139 0,0.365 0.40096,0.5813 0.825,0.5813 0.2799,0 0.56985,-0.0942 0.7612,-0.30214 0.0891,-0.10096 0.30298,-0.24951 0.46338,-0.33266 0.31486,-0.1604 0.64162,-0.46336 0.98024,-0.9089 0.58218,-0.75453 1.62778,-1.7763 2.03768,-1.9783 0.16636,-0.0892 0.45743,-0.2436 0.63566,-0.3446 0.46981,-0.27264 1.39837,-0.74346 1.46414,-0.74346 0.002,0 0.003,3e-4 0.003,8.6e-4 0.0119,0.006 -0.0119,0.0951 -0.0416,0.19604 -0.13664,0.38616 0.24954,0.79606 0.79013,0.83172 0.0355,0.003 0.07,0.004 0.10348,0.004 0.34725,0 0.58823,-0.14273 0.79953,-0.47326 0.10099,-0.15447 0.27329,-0.43372 0.38614,-0.61197 0.11288,-0.1841 0.24951,-0.38016 0.29706,-0.4336 0.0475,-0.0535 0.23762,-0.29117 0.41586,-0.5169 0.26731,-0.3446 0.94458,-1.11094 1.65152,-1.8713 0.0772,-0.0832 0.17824,-0.2258 0.23169,-0.3208 0.095,-0.17823 0.47528,-0.7129 1.14063,-1.5922 0.2496,-0.3377 0.36212,-0.46165 0.42392,-0.46165 0.0132,0 0.0241,0.006 0.0335,0.0161 0.18416,0.18423 2.04364,2.83973 2.04364,2.91103 0,0.0891 1.06932,1.6812 1.71688,2.56046 0.57032,0.77228 1.28916,1.86544 1.34264,2.05549 0.0237,0.0832 0.2376,0.41589 0.47524,0.74261 0.4515,0.61784 0.9624,1.37824 1.10498,1.63374 0.0416,0.0831 0.0951,0.35643 0.11288,0.60595 0.0297,0.37425 0.0653,0.4931 0.17822,0.61185 0.12561,0.1346 0.30875,0.198 0.57505,0.198 0.0864,0 0.18157,-0.007 0.28637,-0.0197 0.40396,-0.0475 0.69506,-0.23761 0.74854,-0.48121 0.0653,-0.3327 -0.006,-0.54058 -0.32675,-0.90894 -0.28516,-0.3327 -1.43171,-2.13866 -1.41983,-2.2337 0.006,-0.0416 0.6713,-0.4337 1.13467,-0.6654 0.0724,-0.0344 0.12873,-0.0534 0.1723,-0.0534 0.10669,0 0.13663,0.11364 0.13663,0.392 0.006,0.4753 0.3505,1.2951 0.71884,1.69314 0.14258,0.15446 0.42178,0.39206 0.61783,0.53466 0.5347,0.38026 0.83768,0.4991 1.66343,0.6535 0.80584,0.15 1.40844,0.22785 1.86288,0.22785 0.69796,0 1.04626,-0.18375 1.24417,-0.57238 0.3089,-0.59412 0.16632,-0.93867 -0.75449,-1.84757 -0.37426,-0.3743 -0.65946,-0.71884 -0.77231,-0.9327 -0.10098,-0.1842 -0.18415,-0.35645 -0.18415,-0.37434 0,-0.0178 0.095,-0.0356 0.21385,-0.0356 0.16043,0 0.25545,0.0416 0.38615,0.1841 l 0.17824,0.19015 0.55844,-0.0297 c 0.82574,-0.0475 0.99805,-0.21976 0.7901,-0.79606 -0.0731,-0.19974 -0.21805,-0.29964 -0.45126,-0.29964 -0.0512,0 -0.10669,0.005 -0.16657,0.0145 -0.0917,0.0138 -0.17415,0.0213 -0.25043,0.0213 -0.28432,0 -0.48312,-0.1035 -0.75949,-0.36586 -0.19603,-0.1842 -0.31488,-0.35054 -0.31488,-0.42774 0,-0.0654 0,-0.5525 0,-1.0753 -0.006,-1.0337 0.11285,-1.93073 0.35053,-2.6436 0.33267,-1.00405 1.46142,-3.00015 2.2456,-3.97445 0.45954,-0.573 0.97867,-1.10265 1.07105,-1.10265 0.004,0 0.008,10e-4 0.0102,0.004 0.0237,0.0297 0.10693,0.2614 0.17228,0.5109 0.14852,0.5347 0.3802,1.2119 0.71883,2.10304 0.31485,0.82581 0.73664,2.17436 0.89707,2.88126 0.0891,0.40994 0.12475,0.7842 0.13067,1.39017 0.0119,0.80203 0.006,0.83173 -0.1188,0.89117 -0.202,0.0891 -0.26141,0.27326 -0.18417,0.63562 l 0.0594,0.31488 -0.3802,0.802 c -0.21387,0.43966 -0.42774,0.90896 -0.48716,1.03966 -0.0535,0.1307 -0.12474,0.2792 -0.1485,0.32674 -0.0297,0.0535 -0.0832,0.24356 -0.12474,0.42776 -0.0594,0.2614 -0.0594,0.37424 0,0.5584 0.0831,0.2673 0.3089,0.5822 0.55248,0.79014 0.29107,0.24356 1.06338,0.76636 1.42578,0.95642 0.18417,0.10104 0.33862,0.20204 0.33862,0.23169 0,0.0298 -0.0951,0.0713 -0.20791,0.0891 -0.23169,0.0475 -0.44557,0.27924 -0.44557,0.49311 0,0.21386 0.15446,0.46933 0.3921,0.65353 0.196,0.14255 0.26733,0.1663 0.67725,0.1663 0.51685,0 0.65347,-0.0713 0.80795,-0.43366 0.0387,-0.10514 0.0929,-0.17944 0.1194,-0.17944 0.002,0 0.004,4e-4 0.005,10e-4 0.0297,0.006 0.39801,0.2495 0.81983,0.5347 0.99805,0.6653 2.09712,1.2297 2.88129,1.4792 l 0.62377,0.20206 1.5268,0.0178 c 0.1799,0.002 0.36221,0.004 0.54022,0.004 0.65677,0 1.25491,-0.016 1.45587,-0.0394 0.75449,-0.0891 1.29511,-0.41589 1.55649,-0.94458 0.13071,-0.26141 0.13071,-0.27925 0.0356,-0.45745 -0.0535,-0.101 -0.202,-0.2317 -0.32081,-0.28516 -0.1188,-0.0594 -0.48716,-0.3327 -0.81386,-0.61784 -0.32676,-0.27926 -0.9565,-0.7664 -1.3961,-1.08126 -1.03372,-0.73074 -1.14065,-0.84354 -1.0931,-1.14064 0.0475,-0.28514 -0.0238,-0.4099 -0.4753,-0.85545 -0.35048,-0.34455 -1.58617,-1.94265 -1.71092,-2.21595 -0.0772,-0.1544 0.0832,-0.4574 0.51684,-0.98614 0.1485,-0.1842 0.3208,-0.44556 0.38018,-0.58816 0.14262,-0.3327 0.74262,-1.2951 1.1585,-1.8535 0.1782,-0.2436 0.41585,-0.5941 0.52278,-0.79015 0.32082,-0.57031 1.82382,-2.8219 2.76246,-4.12885 1.40796,-1.97235 3.01794,-4.3665 4.03381,-6.0002 0.21521,-0.3432 0.40762,-0.6123 0.43793,-0.6123 6.4e-4,0 10e-4,1.4e-4 0.002,4e-4 0.18413,0.1129 0.98613,1.18223 1.49706,1.99016 1.08714,1.72284 2.59017,3.9328 3.83774,5.64374 0.73666,1.00994 1.34857,1.8892 1.82977,2.614 0.46933,0.7129 0.68319,1.0277 1.59213,2.34064 0.31488,0.45146 0.38617,0.59406 0.32675,0.63566 -0.0476,0.0238 -0.5228,0.0476 -1.06341,0.0476 -0.0373,-3e-4 -0.074,-3.3e-4 -0.11034,-3.3e-4 -0.97493,0 -1.58305,0.0777 -1.90953,0.24383 -0.47527,0.2436 -0.89112,0.83765 -0.89112,1.2832 0,0.4753 0.33863,0.79017 1.33667,1.27137 0.80796,0.38617 1.22974,0.4812 2.08521,0.48713 0.27327,0 0.51093,0.0178 0.5228,0.0356 0.0238,0.0416 -0.10691,0.10694 -1.18223,0.60597 -0.84356,0.38616 -1.2,0.8139 -1.25945,1.5149 -0.0297,0.32677 -0.0178,0.37425 0.13073,0.55253 0.1901,0.22571 0.66535,0.48121 1.18814,0.64161 0.23746,0.0717 0.43436,0.096 1.21498,0.096 0.25448,0 0.57103,-0.003 0.97124,-0.007 1.00996,-0.006 1.90106,-0.0356 1.97826,-0.0712 0.0906,-0.0336 0.5075,-0.052 0.88832,-0.052 0.29321,0 0.56508,0.0109 0.65036,0.0342 0.0654,0.0178 0.22577,0.19006 0.35644,0.38016 0.14258,0.2139 0.30893,0.3802 0.41588,0.42776 0.10097,0.0415 0.4396,0.0772 0.78417,0.0772 0.69507,0 0.8139,-0.0594 0.8139,-0.41586 0,-0.23764 -0.16635,-0.43964 -0.54062,-0.66534 -0.14258,-0.0832 -0.25545,-0.1723 -0.25545,-0.20203 0,-0.10102 1.47332,-0.4693 1.87136,-0.4693 0.10694,0 0.22574,-0.0357 0.26138,-0.0773 0.0357,-0.0475 0.21982,-0.11286 0.40396,-0.1544 2.14466,-0.4634 2.80408,-0.7248 3.01795,-1.1882 0.095,-0.2198 0.10101,-0.35644 0.0653,-1.4495 -0.0178,-0.65944 -0.0535,-1.2833 -0.0713,-1.38424 -0.0297,-0.1723 -0.0178,-0.19606 0.16635,-0.25546 0.20199,-0.0653 0.67132,-0.51095 1.08715,-1.02774 0.1188,-0.16046 0.2436,-0.28522 0.2733,-0.28522 0.0238,0 0.23168,0.24952 0.45742,0.55249 0.21982,0.29707 0.66538,0.84363 0.98022,1.20597 0.31488,0.3684 0.57626,0.7011 0.57626,0.74264 0,0.0476 -0.1901,0.32672 -0.42178,0.61786 -0.23169,0.29706 -0.56439,0.75446 -0.74262,1.0218 -0.1782,0.2673 -0.43365,0.5763 -0.56435,0.6832 -0.29703,0.2376 -0.40992,0.4456 -0.40992,0.74855 0,0.43365 0.38614,0.74255 0.93271,0.74255 0.5109,0 0.84356,-0.3208 1.00396,-0.9802 0.0713,-0.2792 0.16044,-0.4515 0.32676,-0.64754 0.12479,-0.14256 0.23172,-0.28516 0.23172,-0.3089 0,-0.0238 0.30295,-0.4812 0.6713,-1.00996 0.36832,-0.52873 0.87329,-1.27135 1.12875,-1.6456 0.25543,-0.3743 0.802,-1.14656 1.21787,-1.70503 1.52084,-2.0614 2.78622,-3.79617 2.9585,-4.05757 0.10097,-0.1485 0.5287,-0.76037 0.95052,-1.3664 0.42774,-0.60594 0.84955,-1.2119 0.95053,-1.3485 0.1146,-0.1683 0.18601,-0.24597 0.24549,-0.24597 0.0392,0 0.0732,0.0337 0.11096,0.0974 0.0356,0.0534 0.36832,0.46335 0.7426,0.90301 0.36833,0.43964 1.0337,1.22974 1.4733,1.75254 0.43965,0.5228 1.0337,1.21194 1.32484,1.53274 0.28513,0.32672 0.52276,0.61186 0.52276,0.6416 0,0.0297 0.14258,0.21976 0.3149,0.42182 0.17226,0.20788 0.5703,0.69504 0.88515,1.08714 0.80795,1.0099 1.26541,1.4139 1.68125,1.4852 0.1307,0.0178 0.27923,0.0713 0.32674,0.1069 0.10099,0.0773 1.69906,1.913 2.28721,2.6259 0.43963,0.53464 0.71289,0.7307 1.06341,0.7782 0.21979,0.0297 0.27326,0.0653 0.27326,0.15445 0,0.15445 0.10693,0.35645 0.26141,0.47525 0.0832,0.0713 0.23169,0.10696 0.47525,0.10696 0.70102,0 1.10502,-0.23761 1.10502,-0.65942 0,-0.19014 -0.0416,-0.27324 -0.22578,-0.45744 -0.23169,-0.2317 -0.44556,-0.3089 -0.88519,-0.3089 -0.16633,0 -0.22573,-0.0476 -0.41583,-0.32674 -0.12476,-0.17822 -0.25547,-0.3208 -0.29114,-0.32676 -0.0416,0 -0.38019,-0.3683 -0.75446,-0.81985 -0.38022,-0.44555 -1.07528,-1.25345 -1.55053,-1.79415 -0.48121,-0.54056 -0.96837,-1.1287 -1.08717,-1.3069 -0.20794,-0.309 -1.94265,-2.3169 -2.72088,-3.15456 -0.20202,-0.21394 -0.61192,-0.67731 -0.91492,-1.03967 -0.30297,-0.35647 -0.7069,-0.81983 -0.8911,-1.02777 -0.18415,-0.202 -0.37428,-0.4515 -0.42774,-0.5406 -0.11881,-0.21386 -0.32672,-0.45153 -1.10498,-1.27136 -0.33271,-0.35644 -0.61188,-0.67124 -0.61188,-0.70691 0,-0.1723 1.1109,-1.72283 2.03766,-2.85163 0.31488,-0.38616 0.57626,-0.7248 0.57626,-0.75444 0,-0.0297 0.20792,-0.33271 0.46338,-0.67726 0.4634,-0.6238 1.51492,-2.13866 2.31692,-3.33275 0.2436,-0.36245 0.45743,-0.67135 0.47528,-0.69515 0.006,-0.006 0.023,-0.009 0.0473,-0.009 0.0664,0 0.19055,0.0221 0.32102,0.0569 0.14947,0.0383 0.26595,0.0603 0.36352,0.0603 0.22036,0 0.34414,-0.1126 0.53358,-0.40494 0.24355,-0.38016 0.3267,-0.66536 0.26732,-0.90896 -0.0297,-0.11283 -0.10102,-0.1663 -0.30298,-0.21976 -0.14856,-0.0415 -0.26734,-0.10104 -0.26734,-0.13068 0,-0.0357 0.1901,-0.3327 0.41584,-0.66541 0.23169,-0.33265 0.41586,-0.62375 0.41586,-0.6416 0,-0.0238 0.0653,-0.14255 0.14853,-0.27325 0.0832,-0.1307 0.1485,-0.28516 0.1485,-0.34455 0,-0.0534 0.0772,-0.30295 0.1723,-0.54655 0.33863,-0.89705 1.66342,-4.90712 1.69312,-5.1388 0.0119,-0.13072 0.0951,-0.45152 0.1723,-0.7129 0.0832,-0.2614 0.19009,-0.68915 0.24951,-0.95053 0.29108,-1.40799 0.60596,-2.43573 1.02774,-3.35654 0.72476,-1.59216 1.12876,-2.6199 1.1644,-2.94665 0.0356,-0.42182 0.101,-0.61786 0.4812,-1.47925 0.18418,-0.42773 0.3624,-0.87927 0.3921,-1.00995 0.0356,-0.12476 0.0832,-0.26138 0.10693,-0.29706 0.1307,-0.1604 0.54061,-1.3129 0.54061,-1.51489 0,-0.36237 -0.31484,-0.60001 -1.03964,-0.76636 -0.25543,-0.0594 -1.71094,-0.50494 -2.1684,-0.65942 -0.13067,-0.0416 -0.89703,-0.27921 -1.6931,-0.51685 -0.1604,-0.0475 -0.3624,-0.10693 -0.44557,-0.13666 -0.44533,-0.1398 -0.79135,-0.22546 -0.92401,-0.22546 -0.0195,0 -0.0344,0.002 -0.0443,0.006 -0.0475,0.0178 -0.10098,0.13664 -0.1188,0.26734 -0.0238,0.12475 -0.0832,0.3386 -0.13666,0.46337 -0.0528,0.12866 -0.0781,0.18588 -0.0993,0.18588 -0.017,0 -0.0314,-0.0366 -0.0551,-0.10269 -0.0356,-0.0891 -0.0653,-1.98426 -0.0772,-4.60413 l -0.0178,-4.45559 -0.1604,-0.62381 c -0.19604,-0.77823 -0.49902,-1.6753 -0.84356,-2.52481 -0.31488,-0.77232 -1.13471,-2.47732 -1.2179,-2.5308 -0.0356,-0.0237 -0.22574,-0.2792 -0.42774,-0.57622 -0.19604,-0.29707 -0.53466,-0.7367 -0.74853,-0.9743 -0.40397,-0.45747 -1.37827,-1.3664 -1.50302,-1.40797 -0.1307,-0.0416 -0.87329,-0.67133 -1.17627,-0.99805 -0.36238,-0.40398 -0.44558,-0.55848 -0.59408,-1.1347 -0.16632,-0.65351 -0.26734,-0.87921 -0.51685,-1.18222 -0.25543,-0.30893 -0.57625,-0.49308 -0.86737,-0.49308 -0.11285,0 -0.21978,-0.0238 -0.23761,-0.0535 -0.0178,-0.0297 -0.0416,-0.3386 -0.0475,-0.69508 l -0.0119,-0.64755 0.30298,-0.57032 c 0.16635,-0.31485 0.34457,-0.73071 0.39804,-0.92083 0.11881,-0.44552 0.24356,-1.46142 0.33863,-2.66739 0.0594,-0.83768 0.0594,-1.06937 -0.0357,-1.89511 -0.095,-0.86145 -0.11883,-0.98026 -0.32672,-1.39612 -0.40993,-0.8317 -0.90303,-1.39014 -1.81793,-2.06146 -0.59406,-0.43366 -1.09903,-0.68909 -1.74063,-0.87922 -0.19223,-0.0577 -0.78763,-0.0929 -1.31101,-0.0929 z"
         id="path2"
         inkscape:connector-curvature="0" />
    </g>
  </g>
</svg>
