<?xml version="1.0" encoding="UTF-8" standalone="no"?>
<svg
   xmlns:dc="http://purl.org/dc/elements/1.1/"
   xmlns:cc="http://creativecommons.org/ns#"
   xmlns:rdf="http://www.w3.org/1999/02/22-rdf-syntax-ns#"
   xmlns:svg="http://www.w3.org/2000/svg"
   xmlns="http://www.w3.org/2000/svg"
   xmlns:sodipodi="http://sodipodi.sourceforge.net/DTD/sodipodi-0.dtd"
   xmlns:inkscape="http://www.inkscape.org/namespaces/inkscape"
   version="1.1"
   width="61.651848"
   height="81.767616"
   viewBox="0 0 61.651848 81.767616"
   id="svg15"
   sodipodi:docname="students with bags talking.svg"
   inkscape:version="0.92.4 (5da689c313, 2019-01-14)">
  <metadata
     id="metadata21">
    <rdf:RDF>
      <cc:Work
         rdf:about="">
        <dc:format>image/svg+xml</dc:format>
        <dc:type
           rdf:resource="http://purl.org/dc/dcmitype/StillImage" />
        <dc:title></dc:title>
      </cc:Work>
    </rdf:RDF>
  </metadata>
  <defs
     id="defs19" />
  <sodipodi:namedview
     pagecolor="#ffffff"
     bordercolor="#666666"
     borderopacity="1"
     objecttolerance="10"
     gridtolerance="10"
     guidetolerance="10"
     inkscape:pageopacity="0"
     inkscape:pageshadow="2"
     inkscape:window-width="1920"
     inkscape:window-height="1048"
     id="namedview17"
     showgrid="false"
     fit-margin-top="0"
     fit-margin-left="0"
     fit-margin-right="0"
     fit-margin-bottom="0"
     inkscape:zoom="5.4713836"
     inkscape:cx="-35.212718"
     inkscape:cy="23.460571"
     inkscape:window-x="0"
     inkscape:window-y="0"
     inkscape:window-maximized="1"
     inkscape:current-layer="svg15" />
  <g
     id="layer1"
     transform="translate(-264.52554,-436.56352)">
    <g
       style="fill:#000000;fill-opacity:1;stroke-linejoin:miter"
       id="g4">
      <path
         d="m 283.20624,436.66016 c 2.6e-4,0.0796 0.0481,0.10594 0.22323,0.12661 0.58923,0.0777 0.95551,0.14023 1.0459,0.193 0.0584,0.0263 0.15933,0.0526 0.2283,0.0523 0.069,-2.4e-4 0.26557,0.084 0.43567,0.18433 0.17011,0.10027 0.31894,0.18469 0.33486,0.18463 0.0106,-3e-5 0.17543,0.10556 0.35624,0.23764 0.18613,0.13205 0.35626,0.23764 0.37748,0.23755 0.11673,-3.5e-4 0.82408,0.52268 1.17004,0.87177 0.21826,0.21682 0.6131,0.91595 0.61362,1.08044 1.5e-4,0.0478 0.0216,0.11136 0.0429,0.1431 0.0266,0.0265 0.0908,0.18542 0.1444,0.36034 0.1501,0.493 0.041,1.20432 -0.20795,1.3484 -0.1695,0.096 -0.39441,1.11017 -0.42375,1.90613 -0.0143,0.48817 -0.0354,0.55194 -0.23128,0.67987 -0.0847,0.0587 -0.15875,0.13318 -0.15862,0.17028 8e-5,0.0319 -0.0687,0.10636 -0.1534,0.15436 -0.2648,0.15473 -0.3015,0.29279 -0.2047,0.69574 0.0914,0.3711 0.055,0.6153 -0.0934,0.67414 -0.0424,0.0161 -0.074,0.0798 -0.0738,0.13818 4.8e-4,0.15387 -0.18403,0.5312 -0.35853,0.7174 -0.0793,0.0905 -0.2749,0.31397 -0.43347,0.50547 -0.1586,0.18619 -0.33835,0.3884 -0.39655,0.44696 -0.25909,0.27139 -0.5021,0.61177 -0.62325,0.88803 -0.17912,0.40384 -0.40165,0.50006 -1.11277,0.46514 -0.27063,-0.015 -0.53589,-0.009 -0.59421,0.0125 -0.10599,0.0375 -0.13222,0.13306 -0.2941,0.95598 -0.0313,0.1593 -0.0786,0.3133 -0.10504,0.33992 -0.0264,0.0319 -0.0474,0.11158 -0.0472,0.18585 3.7e-4,0.11676 0.0536,0.16431 0.30867,0.28553 0.16472,0.0791 0.32408,0.14224 0.3506,0.14215 0.13797,-4.3e-4 0.9094,0.64975 1.61734,1.36907 1.13382,1.15308 1.27228,1.31183 1.44321,1.67208 0.32045,0.6622 0.3258,0.67814 0.32985,1.95152 0.002,0.7269 -0.0174,1.2045 -0.0491,1.23642 -0.0317,0.032 -0.0677,0.39816 -0.077,0.82266 -0.0291,0.87024 -0.11196,1.49128 -0.2174,1.70917 -0.058,0.1116 -0.0682,0.25491 -0.0407,0.55725 0.0219,0.22278 0.0448,0.7533 0.0568,1.17774 0.0255,1.34228 0.0856,1.8992 0.22434,2.14284 0.14938,0.2542 0.16061,0.45048 0.0446,0.67368 -0.1318,0.26575 -0.0837,0.37702 0.23506,0.49802 0.36654,0.1368 0.4252,0.23743 0.25072,0.429 -0.15862,0.17027 -0.16345,0.31886 -0.0249,0.49883 0.0852,0.10583 0.1068,0.21719 0.1079,0.56737 7.6e-4,0.23878 0.0226,0.45094 0.0545,0.46675 0.0266,0.0158 0.0534,0.10595 0.0537,0.19085 3e-4,0.0902 0.0379,0.23334 0.0859,0.31806 0.0587,0.12184 0.0805,0.29156 0.0709,0.62057 -0.005,0.25467 -0.003,0.7269 0.003,1.05057 0.006,0.3236 -0.003,0.71097 -0.0238,0.8649 -0.0311,0.24948 -0.0203,0.2919 0.0968,0.41885 0.30878,0.328 0.32486,0.38098 0.28444,1.02845 -0.0303,0.467 -0.0564,0.61566 -0.13045,0.67956 -0.074,0.0692 -0.0896,0.19128 -0.0983,0.7962 -0.004,0.53058 -0.0293,0.79596 -0.10285,1.02967 -0.10503,0.3399 -0.2741,0.56329 -0.42797,0.56377 -0.1008,3e-4 -0.12689,0.13834 -0.17746,0.9291 -0.0356,0.49886 -0.12884,1.1942 -0.1868,1.32704 -0.0474,0.10629 -0.068,0.31326 -0.14383,1.48612 -0.0305,0.42987 -0.0773,0.72184 -0.151,0.90246 -0.12109,0.29752 -0.19964,0.6214 -0.2828,1.16821 -0.0312,0.20173 -0.078,0.50427 -0.0987,0.66352 -0.14038,0.91308 -0.26524,1.69342 -0.35894,2.25615 -0.0573,0.35035 -0.1354,0.80162 -0.16657,1.00862 -0.0312,0.20172 -0.0783,0.41943 -0.0993,0.47784 -0.0421,0.11158 -0.17829,0.66382 -0.23566,0.98236 -0.0209,0.10086 -0.0575,0.27076 -0.0784,0.37165 -0.0209,0.10089 -0.0888,0.43536 -0.14621,0.74328 -0.14626,0.72205 -0.2142,1.04595 -0.27186,1.27429 -0.0262,0.1009 -0.0993,0.46192 -0.16195,0.79639 -0.0573,0.33444 -0.1304,0.70609 -0.16185,0.82291 -0.0837,0.37698 -0.14113,0.67959 -0.19816,1.08836 -0.0258,0.2176 -0.10944,0.63704 -0.18274,0.93968 -0.1257,0.51508 -0.1308,0.57877 -0.0859,1.34797 0.0279,0.44561 0.0399,0.85943 0.0295,0.91785 -0.0785,0.35043 -0.31628,0.65362 -0.76096,0.9787 -0.2435,0.17583 -0.30691,0.2556 -0.33825,0.4149 -0.0156,0.11146 -0.0787,0.28678 -0.12607,0.39304 -0.0528,0.10099 -0.11036,0.33994 -0.13098,0.53101 -0.0206,0.19107 -0.0568,0.47769 -0.0776,0.63693 -0.026,0.15927 -0.0933,0.67417 -0.15552,1.14127 -0.0622,0.46713 -0.13494,0.95015 -0.16108,1.0776 -0.0315,0.12215 -0.0521,0.31321 -0.0517,0.41932 3.2e-4,0.10613 -0.0202,0.32903 -0.0515,0.48831 -0.0469,0.27606 -0.13407,1.22079 -0.25113,2.79168 -0.0307,0.35028 -0.0499,0.98172 -0.0539,1.40622 0.001,0.42447 -0.0238,0.86492 -0.0499,0.98175 -0.0261,0.11683 -0.0521,0.31852 -0.0516,0.44587 4e-4,0.13263 -0.0778,0.57327 -0.17732,0.98214 -0.0995,0.41416 -0.19354,0.87076 -0.20898,1.01938 -0.062,0.50955 -0.18293,0.87604 -0.37324,1.09952 -0.24844,0.28732 -0.25306,0.51016 -0.0139,0.62613 0.19662,0.0949 0.41003,0.46561 0.37878,0.65143 -0.0157,0.069 0.0164,0.1538 0.0856,0.21194 0.0639,0.0582 0.11185,0.1323 0.11197,0.17476 1.3e-4,0.0371 0.0215,0.0689 0.0427,0.0688 0.0266,-9e-5 0.10098,0.0474 0.17013,0.10557 0.0691,0.0582 0.1648,0.10558 0.21787,0.1054 0.0531,-1.5e-4 0.1062,0.0209 0.12219,0.0474 0.016,0.0212 0.17001,0.0737 0.34524,0.11032 0.33979,0.0679 0.64289,0.27386 0.76035,0.51226 0.0374,0.0742 0.17568,0.19042 0.30325,0.25902 0.12757,0.0632 0.28177,0.1689 0.34558,0.22176 0.27143,0.24847 0.68061,0.44879 1.00437,0.48494 0.18045,0.0206 0.5202,0.0726 0.75381,0.1196 0.23357,0.0418 0.62644,0.10414 0.87592,0.1352 0.24948,0.0364 0.59982,0.083 0.78027,0.10364 0.46713,0.0675 0.95078,0.32062 1.22241,0.64346 0.12781,0.1481 0.22913,0.3123 0.22927,0.36 4e-4,0.1274 -0.63954,0.77675 -0.8938,0.9102 -0.11653,0.0587 -0.2968,0.1017 -0.41353,0.0968 -0.21227,-0.01 -1.73999,0.10636 -1.98923,0.1496 -0.0742,0.0108 -0.47224,10e-4 -0.87558,-0.0291 -0.40332,-0.0252 -1.11444,-0.0654 -1.58142,-0.0904 -0.79071,-0.04 -0.85964,-0.0344 -1.02384,0.0616 -0.1218,0.0747 -0.16933,0.1438 -0.169,0.24465 4e-4,0.122 0.0483,0.1696 0.3087,0.30143 0.16475,0.0844 0.34017,0.18464 0.3827,0.21631 0.0425,0.0317 0.2658,0.15833 0.49433,0.27436 0.37204,0.1951 0.71234,0.4328 0.93587,0.64434 0.1437,0.13752 0.39503,0.75746 0.42244,1.03326 0.022,0.25996 0.0168,0.2759 -0.16846,0.41444 -0.11114,0.0852 -0.17456,0.17566 -0.15851,0.21801 0.0214,0.053 -0.058,0.10102 -0.25947,0.16005 -0.52477,0.1555 -3.78273,0.1075 -3.98488,-0.0563 -0.0319,-0.0265 -0.19119,-0.0578 -0.3504,-0.0679 -0.31842,-0.0255 -0.99265,-0.14546 -1.69882,-0.3023 -0.24958,-0.0576 -0.59998,-0.1255 -0.77515,-0.15145 -0.18048,-0.0259 -0.37165,-0.0732 -0.42478,-0.0995 -0.12225,-0.0633 -0.4675,-0.17889 -0.89767,-0.29956 -0.17523,-0.0472 -0.37705,-0.1102 -0.45142,-0.1312 -0.0743,-0.0263 -0.29202,-0.0681 -0.49374,-0.0993 -1.29526,-0.19753 -1.29526,-0.19753 -1.32248,-0.40967 -0.011,-0.1167 0.0154,-0.16456 0.11609,-0.21256 l 0.13245,-0.0588 -0.1433,-0.005 c -0.14327,-0.005 -0.53154,-0.306 -0.63295,-0.4914 -0.0267,-0.053 -0.0649,-0.3871 -0.0872,-0.7425 -0.0171,-0.3608 -0.05,-0.695 -0.0766,-0.74264 -0.0854,-0.15886 -0.054,-0.2757 0.13629,-0.51506 0.1004,-0.1277 0.18491,-0.2553 0.18484,-0.2765 -1e-4,-0.0266 0.0841,-0.2338 0.18955,-0.4569 0.21607,-0.4782 0.21543,-0.6746 -0.008,-0.8967 -0.0798,-0.074 -0.1651,-0.1958 -0.19186,-0.26998 -0.0267,-0.0689 -0.0495,-0.55166 -0.0565,-1.06632 -0.002,-0.51464 -0.0251,-1.22558 -0.0527,-1.57567 -0.0445,-0.64185 -0.0192,-1.02927 0.13245,-1.7248 0.0837,-0.38233 0.0958,-1.56555 0.0209,-1.76163 -0.12843,-0.33917 -0.22785,-1.5804 -0.21546,-2.69467 0.0127,-1.01348 0.0333,-1.21517 0.16393,-1.83105 0.0837,-0.38228 0.1673,-0.78583 0.1882,-0.90262 0.10954,-0.58398 0.21407,-1.08306 0.26113,-1.30076 0.0314,-0.13274 0.0731,-0.361 0.0992,-0.50438 0.0208,-0.14862 0.0942,-0.40885 0.15204,-0.58412 0.0789,-0.20717 0.11529,-0.44076 0.11456,-0.67418 -6.4e-4,-0.20166 0.02,-0.40332 0.0463,-0.45649 0.17933,-0.33483 0.32659,-0.73853 0.37341,-1.03051 0.0259,-0.18579 0.0729,-0.44062 0.099,-0.57334 0.0261,-0.13272 0.0461,-0.5148 0.045,-0.84908 0.003,-0.65794 0.12641,-1.96888 0.21058,-2.19202 0.0316,-0.0743 0.1003,-0.1648 0.16387,-0.19684 0.13243,-0.0694 0.13715,-0.24451 0.0144,-0.48284 -0.13886,-0.27015 -0.27814,-0.69423 -0.28394,-0.84807 -2.4e-4,-0.0743 -0.0217,-0.15377 -0.043,-0.18557 -0.0692,-0.074 -0.1666,-0.668 -0.22722,-1.37879 -0.0442,-0.54637 -0.125,-0.93344 -0.25878,-1.29382 -0.20872,-0.56175 -0.3489,-1.26165 -0.53932,-2.7467 -0.0325,-0.21213 -0.0756,-0.41365 -0.10754,-0.45069 -0.0533,-0.0635 -0.22931,-0.36004 -0.37879,-0.64609 -0.064,-0.11654 -0.0859,-0.31807 -0.0874,-0.76907 -0.007,-0.6526 -0.0563,-1.02386 -0.16826,-1.1933 -0.12796,-0.19592 -0.39618,-1.1236 -0.39697,-1.36233 -1.9e-4,-0.0637 -0.059,-0.20145 -0.13361,-0.30731 -0.18121,-0.25943 -0.34716,-0.72049 -0.34796,-0.96456 -3.4e-4,-0.11143 -0.0273,-0.2493 -0.054,-0.30757 -0.0267,-0.0583 -0.0801,-0.15363 -0.10678,-0.21191 -0.032,-0.0583 -0.0805,-0.29157 -0.11307,-0.5196 -0.0273,-0.22277 -0.0867,-0.55154 -0.12967,-0.7265 -0.0377,-0.17499 -0.0863,-0.46136 -0.10812,-0.63107 -0.0165,-0.17502 -0.0541,-0.3447 -0.0808,-0.38175 -0.0852,-0.0952 -0.62659,-0.1678 -2.09668,-0.27456 -0.6846,-0.0509 -1.05627,-0.12399 -1.33783,-0.24512 -0.1116,-0.0527 -0.41952,-0.11008 -0.6796,-0.13049 -0.26535,-0.0151 -0.56259,-0.0566 -0.66879,-0.0828 -0.24429,-0.0682 -1.05273,-0.68112 -1.16479,-0.88769 -0.0533,-0.09 -0.11249,-0.32857 -0.13434,-0.53015 -0.0219,-0.20688 -0.0864,-0.46134 -0.14508,-0.5726 -0.14417,-0.28604 -0.20442,-0.88012 -0.12058,-1.20932 0.0419,-0.16465 0.0619,-0.57856 0.0547,-1.14627 -0.002,-0.49341 0.0177,-1.10895 0.054,-1.36908 0.031,-0.26538 0.072,-0.72181 0.087,-1.01899 l 0.0301,-0.53601 -0.21292,-0.22215 c -0.22888,-0.23274 -0.26117,-0.35997 -0.16655,-0.65742 0.0262,-0.0903 0.0629,-0.22834 0.0733,-0.30265 0.0209,-0.10617 0.0791,-0.15413 0.25402,-0.20773 0.1272,-0.0375 0.38684,-0.1551 0.58282,-0.25653 0.32843,-0.17084 0.36016,-0.19745 0.35968,-0.35132 -3e-4,-0.0902 -0.054,-0.30759 -0.11297,-0.48248 -0.24635,-0.71552 -0.26801,-0.86402 -0.26062,-1.88275 -0.002,-0.5412 0.002,-1.09832 -0.004,-1.24689 -0.006,-0.18567 0.036,-0.35028 0.13086,-0.5575 0.23718,-0.49951 0.35321,-0.71213 0.42194,-0.79723 0.037,-0.0426 0.11602,-0.21262 0.17388,-0.37196 0.0632,-0.15939 0.13691,-0.33471 0.1633,-0.38256 0.0317,-0.0532 0.0527,-0.13282 0.0525,-0.17524 -1.3e-4,-0.0425 0.021,-0.0797 0.0528,-0.0798 0.0265,-9e-5 0.0529,-0.0267 0.0529,-0.0585 -3.2e-4,-0.0902 0.45948,-0.66998 0.62358,-0.78194 0.0794,-0.0533 0.21187,-0.1174 0.2967,-0.1389 0.0848,-0.0215 0.15894,-0.0801 0.1747,-0.1385 0.0157,-0.0584 0.0474,-0.10628 0.0739,-0.10637 0.0265,-6e-5 0.0477,-0.032 0.0475,-0.0744 -1.6e-4,-0.0425 0.063,-0.2284 0.13662,-0.41431 0.21061,-0.52062 0.22113,-0.5419 0.24732,-0.65342 0.0157,-0.0584 0.0998,-0.31866 0.18921,-0.57363 0.12616,-0.36121 0.16266,-0.56293 0.16171,-0.86537 -0.002,-0.7534 0.16502,-1.51268 0.37146,-1.6566 0.20116,-0.13858 1.26349,-1.45252 1.29489,-1.5959 0.0627,-0.28667 0.14185,-0.4355 0.42203,-0.76006 0.1586,-0.18622 0.31698,-0.4361 0.36426,-0.57947 0.0578,-0.16997 0.19516,-0.37207 0.42251,-0.61685 0.19037,-0.1969 0.3595,-0.4097 0.37525,-0.4628 0.0578,-0.18057 0.52795,-0.8241 0.74487,-1.02109 0.0635,-0.0586 0.20645,-0.15451 0.31769,-0.21323 0.11123,-0.0587 0.2966,-0.17074 0.41308,-0.2454 0.49768,-0.33583 1.29224,-0.7469 1.57856,-0.8221 0.16962,-0.043 0.41357,-0.0809 0.5462,-0.0813 0.14856,-4.7e-4 0.32882,-0.0488 0.49835,-0.13955 0.21185,-0.11207 0.302,-0.1283 0.4931,-0.10236 0.22297,0.0364 0.27063,0.0151 0.71552,-0.24634 0.37067,-0.22934 0.53473,-0.36249 0.75137,-0.64442 0.30121,-0.38295 0.33811,-0.45735 0.54334,-0.9992 0.12624,-0.34 0.16304,-0.44622 0.32046,-1.00384 0.0998,-0.32928 0.10862,-0.88641 0.023,-1.1037 -0.0642,-0.16426 -0.12359,-0.49304 -0.22143,-1.23553 -0.1089,-0.86453 -0.10388,-0.96537 0.1834,-2.38825 0.12013,-0.59994 0.21458,-0.93451 0.34623,-1.24798 0.0263,-0.0584 0.0631,-0.16468 0.0841,-0.23902 0.0734,-0.29205 1.0935,-1.51034 1.6333,-1.95776 0.19049,-0.15448 0.23823,-0.17052 0.43463,-0.13934 0.22824,0.0311 0.22824,0.0311 0.22772,-0.13338 -4.9e-4,-0.15386 0.0101,-0.15917 0.15875,-0.13313 0.12213,0.0261 0.15923,0.0154 0.15903,-0.0482 -3.7e-4,-0.11142 0.21155,-0.2182 0.5827,-0.29898 0.19617,-0.0431 0.29697,-0.0487 0.3077,-0.006 0.0322,0.0901 0.2708,0.0575 0.38188,-0.0543 0.1322,-0.13306 0.26482,-0.13876 0.26526,-0.006 z"
         id="path2"
         inkscape:connector-curvature="0" />
    </g>
    <g
       style="fill:#000000;fill-opacity:1;stroke-linejoin:miter"
       id="g8">
      <path
         d="m 309.94507,444.1467 c 0.36113,0.10495 0.68533,0.2737 0.82907,0.42184 0.0639,0.0688 0.15426,0.12683 0.19672,0.12671 0.0371,-1.2e-4 0.51004,0.21591 1.05206,0.47418 1.05218,0.51661 1.33408,0.72797 1.79245,1.37384 0.34103,0.46583 0.68329,1.30303 0.87689,2.11957 0.24197,1.00733 0.0871,2.3555 -0.36124,3.20056 -0.12662,0.2339 -0.2164,0.3668 -0.62852,0.9146 -0.0634,0.0851 -0.26952,0.33516 -0.45985,0.548 -0.36478,0.415 -0.37531,0.44686 -0.45762,1.25893 -0.0308,0.31845 -0.0308,0.31845 0.17673,0.50879 0.11707,0.10574 0.28724,0.23258 0.3776,0.28 0.0956,0.0475 0.17014,0.10558 0.17019,0.13211 9e-5,0.0265 0.0905,0.0899 0.19678,0.13737 0.11157,0.0527 0.35095,0.2429 0.53723,0.42803 0.3992,0.39667 0.60211,0.80457 0.63014,1.26611 0.0113,0.20691 0.006,0.25996 -0.0207,0.15924 -0.0269,-0.10602 -0.0748,-0.16424 -0.14914,-0.17462 -0.0955,-0.0156 -0.11663,0.0216 -0.14793,0.19678 -0.0311,0.22296 -0.17342,0.52582 -0.27926,0.61639 -0.037,0.0266 -0.0792,0.12757 -0.10014,0.21253 -0.0313,0.1593 -0.026,0.16454 0.30858,0.259 0.87628,0.25724 1.15835,0.52692 1.53272,1.45956 0.21392,0.5246 0.85534,2.01352 1.0263,2.38438 0.1068,0.2172 0.20318,0.4875 0.22476,0.59884 0.0216,0.11139 0.0696,0.21203 0.11214,0.22781 0.0372,0.0158 0.10115,0.1005 0.13325,0.18527 0.0588,0.13245 0.096,0.15358 0.26578,0.15302 0.11142,-3.4e-4 0.22824,0.0311 0.26019,0.0682 0.0746,0.0952 0.2728,0.6889 0.32675,0.98053 0.0325,0.19091 0.022,0.23339 -0.0627,0.28143 -0.13245,0.0694 -0.12128,0.24444 0.0444,0.61002 0.0748,0.17483 0.15503,0.36032 0.17642,0.4186 0.0214,0.0583 0.10688,0.2384 0.18698,0.39734 0.0748,0.15894 0.139,0.33383 0.13917,0.38159 1.5e-4,0.0477 0.0215,0.10074 0.0481,0.11657 0.0266,0.0158 0.16015,0.31254 0.3045,0.65165 0.14434,0.34443 0.36343,0.83719 0.4863,1.09145 0.12814,0.2543 0.22967,0.47682 0.2297,0.48744 3e-5,0.0106 0.0642,0.15896 0.139,0.32852 0.0748,0.16954 0.17103,0.39206 0.2191,0.49274 0.0428,0.10068 0.12292,0.28082 0.17635,0.39737 0.11753,0.24903 0.35798,0.78415 0.4542,1.00668 0.0427,0.0847 0.12825,0.29142 0.20303,0.45035 0.0695,0.15897 0.19775,0.44507 0.27795,0.63583 0.33137,0.75767 0.65711,1.40927 0.74219,1.47797 0.10642,0.0899 0.24524,0.36533 0.24564,0.49265 2.1e-4,0.0584 -0.0472,0.16467 -0.10536,0.23913 -0.1321,0.1702 -0.13686,0.33469 -0.0149,0.33429 0.11675,0.005 0.40973,0.36481 0.61789,0.7515 0.13342,0.24893 0.14426,0.31259 0.11862,0.60446 -0.0309,0.27072 -0.0202,0.32904 0.0489,0.35535 0.0478,0.0211 0.0852,0.0847 0.0854,0.143 2e-4,0.0584 0.0216,0.10602 0.0534,0.10596 0.0266,-1.2e-4 0.0532,0.037 0.0534,0.0794 1.2e-4,0.0425 0.048,0.0794 0.10635,0.0792 0.11142,-3.4e-4 0.14352,0.0792 0.0535,0.13251 -0.0318,0.016 -0.0529,0.0691 -0.0527,0.11157 3.1e-4,0.0955 0.40026,0.73625 0.57599,0.932 0.17035,0.18512 0.27741,0.4766 0.27835,0.77375 6.8e-4,0.2069 0.0864,0.48254 0.61106,1.94528 0.10702,0.29147 0.19281,0.56712 0.19296,0.61487 1.2e-4,0.0425 0.0483,0.17495 0.10175,0.2915 0.0587,0.11655 0.14447,0.38687 0.19293,0.60425 0.0537,0.21738 0.12887,0.48773 0.16638,0.59903 0.0428,0.10599 0.0751,0.27037 0.0754,0.35527 2.7e-4,0.0849 0.0218,0.1697 0.0537,0.18553 0.0319,0.0158 0.0534,0.11124 0.0537,0.20145 3e-4,0.0955 0.038,0.28642 0.081,0.43482 0.1876,0.60427 0.27947,1.12395 0.4159,2.31203 0.0656,0.60997 0.0502,0.76389 -0.10322,0.92357 -0.80381,0.84087 -1.63483,1.4696 -3.18644,2.40843 -0.98501,0.59205 -2.3999,1.15369 -3.418,1.35322 -0.11666,0.0216 -0.40294,0.0915 -0.6362,0.15591 -0.40817,0.11801 -2.10467,0.54788 -2.54476,0.64477 -0.32871,0.0753 -0.92801,0.16747 -1.19324,0.18417 l -0.23874,0.0114 -0.009,0.58367 c 10e-4,0.31833 0.0186,0.83298 0.0514,1.1406 0.0275,0.30767 0.0659,0.71078 0.0772,0.90176 0.0165,0.19095 0.049,0.39249 0.0757,0.45074 0.0267,0.0583 0.0593,0.29693 0.0759,0.53037 0.022,0.24396 0.0651,0.45076 0.1077,0.4931 0.0479,0.0476 0.0641,0.14832 0.0487,0.29696 -0.0208,0.15922 -0.005,0.23878 0.0593,0.29163 0.0532,0.0423 0.0854,0.1536 0.0858,0.27564 3.4e-4,0.11143 0.0274,0.2652 0.0595,0.35001 0.0321,0.0795 0.0645,0.25445 0.0755,0.38708 0.0111,0.1326 0.049,0.40308 0.0815,0.60992 0.11905,0.73182 0.19547,1.4054 0.30017,2.63074 0.0274,0.27582 0.0179,0.62604 -0.0131,0.87548 -0.0311,0.2336 -0.0711,1.01368 -0.0847,1.74592 -0.0136,0.72693 -0.0579,1.81478 -0.0984,2.41448 -0.0406,0.59968 -0.0753,1.34263 -0.0743,1.65568 0.002,0.55179 -0.003,0.57302 -0.1568,0.74862 -0.1586,0.18092 -0.44473,0.30384 -0.72595,0.30476 -0.15388,4.8e-4 -0.15912,0.0111 -0.22171,0.3562 -0.11469,0.63704 -0.14427,1.34814 -0.0992,2.18104 0.0449,0.7904 0.088,0.9654 0.23653,0.9649 0.0902,-3e-4 0.17044,0.20635 0.21399,0.56176 0.0218,0.16968 0.0595,0.35529 0.0862,0.40294 0.0694,0.13246 0.0726,1.1352 -4.3e-4,1.5281 -0.0731,0.3929 -0.16785,0.6107 -0.30035,0.6642 -0.053,0.0213 -0.24918,0.0591 -0.4401,0.0863 -0.19095,0.0218 -0.51442,0.0706 -0.71597,0.10307 -0.20685,0.0271 -0.65762,0.0923 -1.00765,0.14117 -0.35008,0.0435 -0.75843,0.10316 -0.9016,0.13016 -0.1485,0.027 -0.41894,0.0703 -0.60985,0.10275 -0.19092,0.0271 -0.58335,0.092 -0.875,0.14075 -0.98639,0.1623 -1.58582,0.212 -2.59922,0.2152 -1.68723,0.0106 -2.67993,-0.1507 -2.68081,-0.4319 -2.2e-4,-0.0637 -0.0272,-0.21744 -0.0648,-0.3447 l -0.0644,-0.2385 -0.31823,0.0381 c -0.56751,0.0655 -1.20429,0.0463 -2.07483,-0.0783 -0.4671,-0.0622 -0.92364,-0.1297 -1.00861,-0.1506 -0.22827,-0.0418 -0.98721,-0.10305 -2.46783,-0.1885 -0.71643,-0.0455 -1.4541,-0.10156 -1.64523,-0.13275 -0.19111,-0.0312 -0.45121,-0.0729 -0.57862,-0.0884 -0.13269,-0.0155 -0.36635,-0.0838 -0.53103,-0.14157 -0.3772,-0.1474 -0.56382,-0.4386 -0.5279,-0.826 0.0359,-0.37685 0.21528,-0.7117 0.42198,-0.78664 0.16427,-0.0589 0.9596,-0.22589 1.47405,-0.30716 0.27045,-0.0433 0.40292,-0.102 0.56161,-0.25113 0.1164,-0.10651 0.41294,-0.28787 0.55072,-0.34131 0.0424,-0.0161 0.17462,-0.15442 0.29087,-0.30336 0.32235,-0.4096 0.608,-0.68108 0.95218,-0.905 0.17474,-0.112 0.43417,-0.28792 0.58239,-0.38917 0.14295,-0.10129 0.34955,-0.20807 0.45026,-0.24023 l 0.19082,-0.059 0.0145,-0.45636 c 0.01,-0.2547 0.0186,-0.83307 0.0224,-1.28409 l 0.003,-0.82241 -0.19638,-0.0153 c -0.38211,-0.0306 -0.39294,-0.0995 -0.30997,-2.37073 0.005,-0.11673 -0.0331,-0.41373 -0.0817,-0.66297 -0.0485,-0.24923 -0.11353,-0.66818 -0.1409,-0.9281 -0.0274,-0.26518 -0.0763,-0.62051 -0.10865,-0.79553 -0.0324,-0.17499 -0.0811,-0.46133 -0.10813,-0.63638 -0.0271,-0.17499 -0.0866,-0.53557 -0.13518,-0.79541 -0.0486,-0.26514 -0.11347,-0.64696 -0.14062,-0.84851 -0.0762,-0.5781 -0.1356,-0.92279 -0.22706,-1.32575 -0.12914,-0.562 -0.24224,-1.09222 -0.28006,-1.30432 -0.0163,-0.10608 -0.10171,-0.28618 -0.19228,-0.39734 -0.1332,-0.16937 -0.1546,-0.23297 -0.12858,-0.39224 0.0156,-0.10617 0.004,-0.29715 -0.0279,-0.42438 -0.0323,-0.13252 -0.086,-0.33932 -0.11289,-0.45596 -0.0376,-0.14844 -0.0909,-0.23316 -0.15464,-0.24884 -0.0584,-0.0157 -0.12762,-0.0845 -0.14907,-0.15344 -0.10163,-0.25965 -0.17139,-0.50348 -0.17169,-0.60431 -1.8e-4,-0.0584 -0.0484,-0.20147 -0.10181,-0.31803 -0.0587,-0.11654 -0.12293,-0.27551 -0.1391,-0.35504 -0.0215,-0.0795 -0.0589,-0.159 -0.0854,-0.17483 -0.0266,-0.0158 -0.048,-0.0848 -0.0482,-0.15372 -2.5e-4,-0.069 -0.0217,-0.13788 -0.0482,-0.15372 -0.0798,-0.0528 -0.18252,-0.66265 -0.15152,-0.92803 0.0154,-0.14863 0.0784,-0.37168 0.13635,-0.4992 0.058,-0.1275 0.12631,-0.32936 0.15247,-0.44087 0.0575,-0.26016 0.26834,-0.71185 0.33203,-0.71203 0.0265,-10e-5 0.0476,-0.0426 0.0474,-0.0956 -1.2e-4,-0.0478 0.0844,-0.15945 0.18493,-0.25 0.10053,-0.0852 0.18507,-0.1969 0.1849,-0.24995 -1.4e-4,-0.0478 0.0209,-0.1062 0.0527,-0.12218 0.0265,-0.016 0.0528,-0.0745 0.0526,-0.1275 -4.9e-4,-0.15387 0.19457,-0.55242 0.34271,-0.69086 0.074,-0.0692 0.13206,-0.18086 0.13184,-0.24451 -2.1e-4,-0.0689 0.0578,-0.19115 0.12646,-0.2763 0.15326,-0.1915 0.61191,-1.12677 0.61152,-1.25412 -1.9e-4,-0.0584 0.0419,-0.16461 0.10004,-0.23911 0.0528,-0.0797 0.14773,-0.26574 0.21624,-0.40922 0.0632,-0.14876 0.14752,-0.33473 0.1897,-0.41976 0.0422,-0.085 0.0737,-0.18064 0.0736,-0.21246 -2.1e-4,-0.0637 -0.45178,-0.24261 -0.60564,-0.24213 -0.25468,8e-4 -0.4573,-0.31692 -0.45856,-0.70953 -4.4e-4,-0.13266 -0.0488,-0.33942 -0.13984,-0.58852 -0.0107,-0.0318 -0.08,-0.1483 -0.15472,-0.2648 -0.31995,-0.50306 -0.32004,-0.53486 -0.104,-1.0078 0.43202,-0.9564 0.44782,-1.00955 0.33624,-1.04632 -0.0372,-0.0105 -0.006,-0.12201 0.0735,-0.26553 0.10019,-0.19663 0.13157,-0.34528 0.14628,-0.71675 0.0151,-0.25475 0.0617,-0.60506 0.10897,-0.775 0.10495,-0.37175 0.1269,-1.8097 0.0259,-1.87306 -0.0425,-0.0264 -0.0536,-0.17494 -0.0281,-0.49334 0.0662,-0.87568 0.10778,-1.14643 0.2291,-1.37495 0.13183,-0.25512 0.14693,-0.52045 0.0456,-0.67401 -0.0373,-0.0582 -0.10148,-0.2066 -0.14432,-0.3338 -0.059,-0.18552 -0.0592,-0.25979 -10e-4,-0.45099 0.0367,-0.12213 0.0894,-0.24435 0.11584,-0.27627 0.0582,-0.0639 0.0518,-0.40873 -0.0132,-0.81705 -0.0432,-0.23865 -0.0437,-0.39253 -0.002,-0.53058 0.084,-0.27618 0.16842,-0.43033 0.23211,-0.43055 0.12201,-3.6e-4 0.18491,-0.24462 0.35107,-1.3806 0.0312,-0.21766 0.0779,-0.53086 0.0986,-0.69007 0.0883,-0.61047 0.40802,-1.84247 0.85962,-3.32423 0.27824,-0.9294 0.39258,-1.6779 0.44678,-2.99923 0.0391,-1.04537 0.07,-1.34262 0.18011,-1.75149 0.17297,-0.6691 0.5462,-1.77393 0.78848,-2.33178 0.10532,-0.24973 0.26327,-0.63755 0.34745,-0.86597 0.21038,-0.5737 0.30535,-0.74909 0.87558,-1.63169 0.39071,-0.6008 0.62326,-0.88806 1.0411,-1.30856 0.33322,-0.32471 0.64017,-0.58035 0.80439,-0.66046 0.14303,-0.0694 0.36547,-0.19217 0.49792,-0.26688 0.20653,-0.12271 0.36553,-0.17094 0.98063,-0.30026 0.0583,-0.0108 0.1378,-0.0428 0.1749,-0.0642 0.09,-0.0587 0.16796,-0.57355 0.1663,-1.08823 -0.001,-0.37671 -0.0173,-0.42971 -0.1772,-0.668 -0.19193,-0.29119 -0.3779,-0.37548 -0.83952,-0.37402 -0.15921,-0.005 -0.56253,-0.0353 -0.90222,-0.0714 -0.67406,-0.0721 -0.8919,-0.16167 -1.06256,-0.43172 -0.12268,-0.20121 -0.12848,-0.36568 -0.0178,-0.57828 0.0897,-0.15945 0.10983,-0.5044 0.0606,-0.98178 -0.011,-0.1326 -0.0276,-0.33948 -0.0333,-0.4668 -0.006,-0.15915 -0.0379,-0.23865 -0.10697,-0.25967 -0.18591,-0.0684 -0.48908,-0.29553 -0.5159,-0.39099 -0.0429,-0.13251 0.0468,-0.29196 0.37469,-0.63256 0.68218,-0.71846 0.7454,-0.86726 0.66892,-1.55674 -0.0599,-0.49326 -0.0547,-0.53574 0.0661,-0.90223 0.0736,-0.21246 0.16812,-0.53109 0.20996,-0.71693 0.0472,-0.18056 0.142,-0.39842 0.2107,-0.48354 0.0687,-0.0851 0.12673,-0.1914 0.1266,-0.23386 -1.4e-4,-0.0478 0.0421,-0.11684 0.095,-0.15414 0.17997,-0.13856 0.4861,-0.64886 0.48555,-0.82396 -9.2e-4,-0.2812 0.19952,-0.65858 0.49048,-0.9354 0.28564,-0.2715 0.60327,-0.50068 0.83107,-0.60752 0.47154,-0.21902 1.43696,-0.29638 1.93617,-0.14938 z m 6.38635,19.4363 c -0.0158,0.0425 0.001,0.33427 0.0286,0.65253 0.0328,0.31824 0.067,1.05567 0.0742,1.63929 0.008,0.77993 0.0355,1.14596 0.0946,1.37921 0.0483,0.17497 0.10269,0.59393 0.125,0.92817 0.017,0.3342 0.0931,0.9176 0.16858,1.29937 0.21594,1.156 0.23752,1.27267 0.23806,1.44775 2.8e-4,0.0902 0.0218,0.18033 0.0537,0.19618 0.0266,0.0158 0.0533,0.0847 0.0535,0.14305 4e-4,0.12732 0.14533,0.65748 0.22007,0.79517 0.0267,0.053 0.0482,0.15375 0.0485,0.22272 2.4e-4,0.0743 0.0217,0.1485 0.0536,0.1643 0.0266,0.0158 0.0534,0.12186 0.0538,0.22796 3.3e-4,0.11146 0.0487,0.2917 0.10742,0.4082 0.0908,0.18013 0.10709,0.31276 0.10916,0.96535 0.001,0.44567 -0.0188,0.7641 -0.0505,0.78543 -0.0953,0.0587 -0.0577,0.21774 0.13454,0.58852 0.1014,0.196 0.18688,0.38142 0.18694,0.40266 9e-5,0.0212 0.0428,0.09 0.0907,0.14824 0.0692,0.0794 0.15949,0.10566 0.36112,0.105 0.14855,-4.7e-4 0.29175,-0.0222 0.31821,-0.0488 0.10049,-0.0958 1.81394,-0.20737 1.8991,-0.12275 0.0319,0.0317 0.1063,0.058 0.16999,0.0578 0.16449,-4.8e-4 0.4779,0.12055 0.57905,0.22632 0.0585,0.0582 0.17537,0.0897 0.32924,0.0892 l 0.23346,-7.3e-4 -7.6e-4,-0.23346 c -4e-4,-0.13263 -0.022,-0.24933 -0.0486,-0.26513 -0.0638,-0.0423 -0.11791,-0.37635 -0.11358,-0.68409 0.004,-0.26532 -0.0541,-0.30758 -0.26593,-0.19549 -0.053,0.0267 -0.13782,0.0376 -0.1803,0.0218 -0.12219,-0.0474 -0.23444,-0.30701 -0.20844,-0.46626 0.0209,-0.0903 -0.0272,-0.21746 -0.12857,-0.3869 -0.12265,-0.19594 -0.14413,-0.27544 -0.1072,-0.34454 0.0422,-0.0638 0.0208,-0.15393 -0.0808,-0.36584 -0.0801,-0.15894 -0.15491,-0.32318 -0.17096,-0.3656 -0.0161,-0.0424 -0.0534,-0.11655 -0.0748,-0.15894 -0.11203,-0.19061 -0.17081,-0.31781 -0.17095,-0.36554 -10e-5,-0.0265 -0.0857,-0.23852 -0.1925,-0.4663 -0.10683,-0.22782 -0.27785,-0.6146 -0.37947,-0.86364 -0.23529,-0.5829 -0.9997,-2.36857 -1.19739,-2.79243 -0.0801,-0.18012 -0.25119,-0.57221 -0.36886,-0.87427 -0.12302,-0.30206 -0.24068,-0.5935 -0.26738,-0.65176 -0.0267,-0.0583 -0.12297,-0.29676 -0.21392,-0.52994 -0.0962,-0.23312 -0.26728,-0.61993 -0.37942,-0.85303 -0.11746,-0.23837 -0.20844,-0.47687 -0.20862,-0.5299 -1.8e-4,-0.0584 -0.14981,-0.39217 -0.33134,-0.75237 -0.2723,-0.52974 -0.35225,-0.6462 -0.44774,-0.6459 -0.0637,2e-4 -0.12726,0.0322 -0.14304,0.0694 z m -9.34942,24.8983 c 10e-5,0.0265 -0.0474,0.1063 -0.1003,0.1701 -0.0581,0.0692 -0.15328,0.18088 -0.21144,0.25003 -0.0635,0.0692 -0.11096,0.14361 -0.1109,0.15954 6e-5,0.0159 -0.0792,0.12233 -0.17438,0.2287 -0.20088,0.23413 -0.35944,0.43091 -0.70825,0.86183 -0.13739,0.17553 -0.30655,0.37236 -0.37531,0.44158 -0.0634,0.0692 -0.11627,0.14362 -0.11622,0.16482 7e-5,0.0212 -0.095,0.1595 -0.21654,0.30314 -0.11626,0.14361 -0.23779,0.30846 -0.26946,0.36694 -0.0316,0.0585 -0.0792,0.1329 -0.1003,0.15952 -0.0793,0.0957 -0.52276,0.78692 -0.5227,0.81344 3e-5,0.0106 -0.0634,0.0851 -0.13742,0.16492 -0.074,0.0798 -0.16913,0.20746 -0.20602,0.28186 -0.0422,0.0797 -0.13216,0.15428 -0.19576,0.17572 -0.14314,0.0376 -0.3066,0.36178 -0.30583,0.60052 2.8e-4,0.0902 -0.0366,0.19116 -0.0842,0.23377 -0.0529,0.0426 -0.0739,0.11694 -0.0524,0.2124 0.0216,0.11664 0.006,0.15384 -0.0737,0.1806 -0.1378,0.0429 -0.13708,0.27637 10e-4,0.45099 0.0586,0.0741 0.10676,0.19598 0.10696,0.27028 6.7e-4,0.2122 0.11298,0.48778 0.25135,0.61467 0.13305,0.12693 0.13848,0.17465 0.12475,0.85385 -0.005,0.24411 0.0121,0.46688 0.0387,0.50394 0.0266,0.037 0.0801,0.16952 0.1177,0.30206 0.0428,0.13251 0.10721,0.34454 0.14475,0.47174 0.0429,0.13251 0.0752,0.2916 0.0754,0.35529 2e-4,0.069 0.0217,0.13257 0.0482,0.14837 0.0213,0.0159 0.0587,0.11658 0.0803,0.22791 0.0163,0.11139 0.0594,0.33411 0.0865,0.49317 0.1833,0.92266 0.23247,1.36288 0.27345,2.5725 0.0235,0.7268 0.0744,1.70825 0.10773,2.17505 0.0333,0.4668 0.0454,0.93369 0.0298,1.03455 -0.0156,0.11148 0.006,0.31833 0.06,0.50384 0.075,0.24384 0.0862,0.42423 0.0662,0.79569 -0.0202,0.3078 -0.003,0.62613 0.0453,0.90185 0.0918,0.50376 0.0497,0.61532 -0.30004,0.7544 l -0.21726,0.0856 0.036,1.30515 c 0.024,0.86474 0.0629,1.43237 0.12205,1.67626 0.0431,0.20148 0.0809,0.42951 0.0812,0.50379 7.3e-4,0.23345 0.145,0.54605 0.3099,0.68347 0.0851,0.074 0.17575,0.20638 0.19196,0.29648 0.24277,1.26736 0.26994,1.4636 0.29916,2.3178 0.006,0.175 0.0219,0.2015 0.12798,0.20115 0.069,-1.8e-4 0.2226,-0.0749 0.33906,-0.16022 0.12177,-0.0906 0.33899,-0.19739 0.48737,-0.24563 0.14844,-0.0429 0.42401,-0.14994 0.62007,-0.23545 0.19072,-0.0907 0.3709,-0.16035 0.39742,-0.1604 0.0265,-1.5e-4 0.14831,-0.0747 0.27008,-0.16005 0.11645,-0.0906 0.24887,-0.15995 0.2807,-0.1601 0.0371,-10e-5 0.0795,-0.0373 0.0953,-0.0746 0.0158,-0.0425 0.10575,-0.11704 0.20108,-0.1651 0.09,-0.0533 0.4022,-0.33557 0.69305,-0.63361 0.2856,-0.30333 0.6136,-0.6015 0.7301,-0.66553 0.11656,-0.0641 0.36,-0.26116 0.53456,-0.4315 0.31207,-0.30342 0.33324,-0.3141 0.54559,-0.28822 0.33969,0.0414 0.49835,-0.11835 0.56061,-0.56421 0.0259,-0.1911 0.094,-0.46722 0.15194,-0.61067 0.0526,-0.14873 0.11542,-0.40892 0.13608,-0.5841 0.0154,-0.17513 0.057,-0.44586 0.083,-0.5998 0.047,-0.23894 0.0415,-0.3026 -0.0385,-0.42436 -0.0853,-0.12704 -0.0915,-0.40827 -0.0972,-3.88354 -0.005,-3.15702 -0.0175,-3.85203 -0.0937,-4.45667 -0.049,-0.39246 -0.0935,-1.02906 -0.0947,-1.40577 l -0.0128,-0.68969 -0.19718,-0.26997 c -0.1066,-0.14825 -0.19739,-0.33367 -0.19763,-0.41326 -3.1e-4,-0.0955 -0.0536,-0.16962 -0.18652,-0.25409 -0.24988,-0.1637 -0.32996,-0.31729 -0.25092,-0.49261 0.1317,-0.29224 0.0352,-0.59967 -0.24115,-0.74207 -0.10629,-0.058 -0.21283,-0.18507 -0.28225,-0.33337 -0.13355,-0.2808 -0.2585,-1.1983 -0.17393,-1.29938 0.12159,-0.14365 0.0528,-1.7511 -0.0975,-2.29184 -0.0322,-0.11661 -0.0595,-0.35001 -0.06,-0.5145 -10e-4,-0.33423 0.0202,-0.31311 -0.53228,-0.53418 -0.27094,-0.11056 -0.99964,-0.66534 -1.27118,-0.96695 -0.33548,-0.38095 -0.43177,-0.63 -0.43347,-1.16589 -0.001,-0.40854 -0.012,-0.44566 -0.10755,-0.44534 -0.0584,1.8e-4 -0.10605,0.0215 -0.10592,0.0534 z"
         id="path6"
         inkscape:connector-curvature="0" />
    </g>
    <g
       style="fill:#000000;fill-opacity:1;stroke-linejoin:miter"
       id="g12">
      <path
         d="m 272.92664,516.1534 c 0.0161,0.0424 0.0375,0.1219 0.0589,0.1696 0.0215,0.0689 -0.005,0.0637 -0.1062,-0.0315 -0.0798,-0.074 -0.13842,-0.1481 -0.1385,-0.1746 -2.3e-4,-0.0743 0.159,-0.0483 0.18584,0.0365 z"
         id="path10"
         inkscape:connector-curvature="0" />
    </g>
  </g>
</svg>
