<?xml version="1.0" encoding="utf-8"?>
<svg version="1.1" id="Layer_1" xmlns="http://www.w3.org/2000/svg" xmlns:xlink="http://www.w3.org/1999/xlink" x="0px" y="0px"
	 viewBox="0 0 4014.554 4000" enable-background="new 0 0 4014.554 4000" xml:space="preserve">
<path d="M3999.974,1103.688c31.104-136.243,17.049-379.481-87.364-504.608c-17.415-19.493-16.875-46.966-24.771-70.49
	c-5.402-7.879-44.944-21.87-40.191-46.3c9.102-18.163,21.239-34.621,30.631-52.618c6.318-17.041,11.097-34.746,20.698-50.374
	c3.824-21.903,17.207-41.604,15.004-64.38c-1.039-16.126,6.4-30.756,10.515-45.885c-5.902-29.592-19.992-56.94-28.013-85.993
	c-3.574-11.388-1.455-25.976-13.425-32.709c-22.236-16.084-25.27-45.552-42.103-65.751c-10.599-15.71-28.512-23.94-40.69-38.237
	c-15.253-9.144-31.629-16.666-47.215-25.395c-5.694,5.32-11.305,10.682-16.916,15.96c-2.369-4.946-4.655-9.933-6.858-14.921
	c-5.777,0.624-11.471,1.247-17.165,1.787c-4.863-7.772-7.398-18.62-14.921-23.774c-10.432,3.948-19.534,10.557-29.301,15.628
	c-9.726-0.707-17.249-10.807-27.431-7.98c-12.344,3.034-23.981,9.476-32.876,18.495c-5.112,9.435-8.77,19.742-15.295,28.304
	c-6.525,3.325-13.508,5.486-20.324,7.938c-2.255-20.156-9.742-12.247,27.514-34.123c-25.353-1.455-47.464,13.342-69.908,22.818
	c-39.718,10.8-44.092,16.964-42.809,63.881c-0.333,13.009,19.202,18.205,14.09,32.086c-1.954,5.612-56.244,105.314-63.715,137.779
	c6.982,8.479,14.921,16.459,19.95,26.351c-5.902,35.328-46.508,52.451-52.618,87.614c-1.953,19.077,17.539,29.966,34.372,29.592
	c-2.735,9.526,1.473,28.426,1.823,29.43c1.629,4.663,4.182,4.179,6.833,7.611c6.117,7.914-4.607,11.439-6.175,13.995
	c-5.693,9.287,3.832,28.972,5.834,37.651c3.83,16.6-0.139,41.099,18.195,55.671c33.841,26.897,99.078,7.35,119.539,25.381
	c10.1,15.254,13.051,34.372,24.979,48.711c-15.586,31.172-43.266,56.067-50.706,91.146c-2.66,8.52-2.369,21.155-13.009,23.857
	c-12.219,0.499-23.192-6.982-35.411-7.066c-10.598-2.328-17.789,7.481-24.896,13.549c-8.396,7.024-9.809,18.37-13.092,28.179
	c9.268,7.814,20.282,15.004,25.893,26.059c-0.748,7.481-6.234,13.217-9.559,19.618c7.481,4.073,15.669,7.938,19.285,16.292
	c-6.068,0.042-12.095-0.125-18.08-0.291c-5.57,14.963,5.361,26.351,15.794,35.37c-47.996,102.196,14.278-86.247-175.933,392.556
	c-9.31,20.615-5.57,43.848-10.058,65.502c-29.019,95.995,58.265,55.168-182.999,227.346c-21.155,13.383-38.03,32.377-59.933,44.638
	c-1.954-10.058-3.283-20.199-4.821-30.299c-9.31-5.86-18.329-12.178-27.14-18.703c3.741-13.632,4.53-27.764,4.406-41.77
	c-10.391-12.594-23.774,4.821-35.12-1.953c-12.801-16.043-16.999-37.365-31.38-52.452c-12.552-14.339,11.679-28.47,4.697-44.471
	c-11.721-0.665-23.441-1.247-34.996-2.951c-2.036-14.256-2.535-35.951-20.532-38.778c-9.767-3.242-14.921,7.44-20.948,12.801
	c-4.821-4.239-9.559-8.562-14.214-12.843c4.073-4.322,8.229-8.562,12.385-12.843c-11.513-5.362-20.573-14.464-31.504-20.698
	c-15.627-5.528-32.211,1.289-48.129-2.535c-6.608,4.78-5.86,14.339-8.687,21.363c-6.899-3.076-13.425-6.982-20.74-8.811
	c-14.63,2.244-27.556,10.515-41.978,13.466c-8.728-1.995-16.583-6.525-25.104-8.936c-13.84,1.829-27.265,5.819-40.773,9.102
	c-5.237-4.031-9.975-10.266-17.124-10.224c-9.061,1.621-17.539,7.19-26.974,4.821c-15.544-3.117-31.296,5.985-40.773,17.747
	c-6.401,20.282-16.708,39.235-22.111,59.808c0.291,14.505,4.489,28.927,11.887,41.438c-9.435,17.747-10.474,39.858-24.771,54.862
	c-15.877,14.131-16.168,37.78-30.881,52.95c15.586,19.493,33.333,38.403,38.902,63.59c9.435-2.577,17.539-8.146,24.979-14.422
	c6.484,8.396,13.716,17.248,10.972,28.72c-46.531,4.834-72.674-15.204-183.498-80.922c-18.038-8.978-32.335-22.984-45.926-37.489
	c-42.934-31.795-86.034-63.383-128.719-95.552c-12.884-10.64-20.365-26.974-35.577-34.871
	c-24.065-12.718-41.895-35.203-68.121-44.222c-21.209-6.203-61.986-44.486-68.619-47.755c-44.834-22.925-41.094-20.451-73.44-60.515
	c5.818-9.352,9.559-20.116,7.149-31.172c-2.91-13.424,5.029-31.463-9.601-39.401c-4.987,4.115-10.016,8.229-15.17,12.136
	c-3.408-7.065-9.31-13.674-8.936-21.903c0.083-10.848,10.1-18.204,11.846-28.554c0.873-9.269,0.748-18.537,1.164-27.805
	c7.813-4.78,17.581-8.395,19.493-18.578c-11.305-1.496-21.363,3.865-31.505,7.772c19.976-26.121,36.56-20.23,36.284-37.24
	c-13.216,2.286-24.771,10.931-38.445,10.474c-1.08-17.872,13.217-30.465,20.117-45.635c-11.471-9.269-21.156-20.448-29.8-32.336
	c8.977-0.873,19.118,0.333,26.558-5.819c10.266-22.943,6.941-48.503,5.985-72.817c-1.995-0.416-5.943-1.205-7.938-1.579
	c-3.034,11.762-6.484,23.441-8.77,35.411c-17.913-13.924-33.665-30.299-49.002-46.924c-6.276-6.567-6.4-15.96-6.816-24.397
	c10.266-3.616,21.987-6.858,28.429-16.459c1.579-12.178-3.7-23.857-4.406-35.868c1.455-8.978,6.442-16.833,8.77-25.561
	c-0.332-8.313-3.449-16.209-5.278-24.272c37.353-18.781,26.547-29.912,22.028-57.688c7.864-4.358,46.094-14.673,19.16-44.264
	c-13.799-14.09-28.47-27.888-38.612-44.929c-3.657-13.383,5.57-26.558,3.699-40.149c-2.078-20.615-10.141-40.025-15.295-60.016
	c-4.239-17.83-16.998-31.712-23.441-48.545c-2.827-12.801,0.166-26.101,0.125-39.11c-30.382-6.858-59.684-17.165-88.071-29.758
	c-1.205-16.334-12.302-29.717-27.971-34.372c-19.451-8.604-36.866,8.52-50.706,20.033c-16.209,1.704-33.042,1.621-48.669-3.574
	c-11.928-5.195-23.482,7.896-35.411,3.159c-8.104-6.484-15.128-14.173-22.776-21.197c-105.351,48.625-30.04-14.379-169.865,114.13
	c-70.602,44.22-64.151,55.203-123.44,163.88c-79.659,101.834-84.048,171.181-116.458,244.387
	c-0.581,1-98.803,151.84-133.748,219.989c-38.686,55.965-77.005,147.865-97.006,171.985c-38.541,61.666-108,266.255-128.926,308.6
	c-8.104,18.828-18.994,37.198-20.116,58.187c-1.496,31.795-19.368,60.058-21.114,91.811c-0.706,15.794-8.063,30.216-15.336,43.89
	c16.209,14.588,3.367,36.575,5.237,54.945c2.245,20.324-0.083,40.856,3.408,61.055c2.701,18.412,5.985,36.783,7.855,55.32
	c3.45,1.995,6.899,4.115,10.307,6.234c4.364-4.156,9.227-8.686,15.794-7.024c0.665,15.752-5.86,32.668,2.286,47.464
	c13.466,18.952,22.485,40.523,35.66,59.684c3.782,16.25-5.985,32.418-6.733,48.794c-22.905,182.624-28.794,140.622-18.578,167.579
	c-6.026,2.12-17.124,0.748-14.297,10.349c14.671,6.359,30.922,6.068,46.591,7.273c2.203,11.264,4.323,22.568,6.65,33.832
	c-31.297,36.533-50.498,85.452-94.18,109.891c-37.946,20.947-55.486,63.798-89.858,88.902
	c-67.864,54.647-79.195,115.991-93.183,135.618c-17.456,25.228-37.281,48.711-54.447,74.189
	c-21.571,26.849-29.759,62.177-53.823,87.281c-2.528,2.777-155.086,205.815-189.233,238.734
	c-38.046,37.031-6.781,30.955-65.128,50.29c-16.75,5.445-35.702,1.704-51.288,10.848c-19.243,9.725-29.551,29.675-44.139,44.638
	c-12.427,11.928-2.286,30.922-9.809,45.053c-8.917,22.826-46.152,42.165-42.643,54.447c3.533,16.542,13.092,33.458,5.944,50.623
	c-9.975,33.208-51.163,39.65-65.96,69.284c-4.322,15.17-1.163,31.38-1.122,46.966c-53.182,45.814-76.981,205.781-76.267,224.104
	c-0.208,31.92,15.212,61.097,31.421,87.655c2.12,4.156,6.193,9.351,2.743,14.131c-13.466,24.854-37.323,49.833-31.047,80.257
	c5.403,24.813,32.834,29.551,51.953,39.9c13.466,8.021,29.301,8.77,44.555,9.102c2.41,3.657,4.821,7.398,7.273,11.139
	c10.349,0.083,20.656,0.208,31.005,0.291c3.066,116.847,109.349,13.15,143.432,0.166c19.285,0.333,34.704,16.417,54.322,17.083
	c143.571,7.489,209.65-11.924,278.301-16.708c15.895,0.282,71.332,45.191,206.897,30.465
	c125.527-7.302,125.013-22.785,139.898-13.841c72.94,35.067,140.973,2.175,214.171-0.873c17.248-2.66,26.517,16.168,42.269,19.534
	c61.739,20.546,191.686-28.498,264.919-16.334c22.444,7.232,43.183,20.449,67.165,22.485c39.234,5.653,73.607-19.825,112.177-21.446
	c17.456-3.242,32.46,8.604,49.459,9.186c237.62,10.679,285.79-0.62,391.185,4.78c146.25,11.681,160.015-12.371,236.697-13.051
	c99.199,20.022,145.102-18.191,195.135-11.388c30.299,3.948,60.972,1.621,91.479,2.161c54.28-1.122,110.015,14.505,163.132-2.743
	c36.118-10.391,73.69-11.638,110.971-10.224c32.22,2.459,3.523,16.034,116.749,16.833c34.248-0.499,65.585,16.542,99.583,18.204
	c24.979,1.289,45.885,17.997,70.822,19.742c23.483,3.076,46.716-19.202,43.89-42.934c0.748-14.173-10.1-24.605-16.417-36.118
	c-13.591-22.111-11.014-49.708-23.233-72.318c-11.097-21.238-15.129-45.012-17.706-68.536c-9.352-3.574-17.789-10.557-28.137-10.266
	c-11.721-0.79-23.441,2.494-35.037,0.624c-15.046-3.865-29.468,4.697-44.264,6.525c-3.408-13.259-7.814-26.143-12.677-38.861
	c-5.694-15.918,3.907-36.242-10.1-49.043c-18.408-19.436-4.25-30.905-60.93-46.799c-11.513,8.562-25.062,13.716-39.609,11.388
	c-4.863-21.612-12.594-43.058-9.269-65.585c8.479-6.151,16.957-12.303,25.187-18.828c0.914-12.801-4.239-24.314-11.014-34.746
	c-7.273-12.053,12.219-18.911,10.848-30.964c1.87-20.532-11.43-36.824-22.194-52.659c-8.104-18.953-6.816-40.856-14.838-59.767
	c-7.315-9.684-7.896-21.904-9.06-33.458c-44.05-5.05-43.762-51.509-67.29-81.296c-4.572-4.115-10.848-5.362-16.251-7.689
	c17.91-38.082,16.071-25.097,3.117-46.882c-7.481-0.333-14.921-0.707-22.319-1.039c-1.954-13.715-5.403-27.182-10.682-39.941
	c-4.904-9.393,0.79-19.576,0.333-29.343c-5.611-11.263-16.791-20.532-15.503-34.248c1.787-20.449-15.96-34.871-18.163-54.447
	c-1.829-15.586-13.424-27.015-19.617-40.773c-9.476-17.165-11.18-37.24-20.573-54.364c-11.762-22.693-27.265-43.599-34.621-68.37
	c-3.325,0.25-6.65,0.54-9.892,0.831c-2.535-3.367-4.987-6.733-7.356-10.1c-3.533,0.416-7.024,0.831-10.474,1.33
	c-0.125-8.936-0.291-17.872-0.416-26.808c-5.486-0.582-10.931-1.122-16.334-1.621c-13.063-89.056-73.229-136.696-98.087-200.33
	c-23.981-51.537-62.884-94.18-87.239-145.51c-14.09-20.448-22.485-43.807-33.665-65.752
	c-70.563-101.817-244.775-380.873-245.301-381.875c-13.13-16.466-101.625-109.204-108.852-145.094
	c-9.851-3.865-16.542-11.513-20.075-21.363c-71.705-23.821-17.012-28.696-71.861-54.447c1.372-6.525,2.91-13.009,4.448-19.493
	c-10.266-8.603-22.818-13.466-34.081-20.282c-7.149-20.947,2.411-41.978,4.24-62.634c-7.273-27.265,7.98-53.989,3.366-81.296
	c-0.457-22.942,2.12-45.926,5.278-68.661c-3.117-19.618-6.276-39.443-2.66-59.31c0,0,72.735,42.293,99.084,54.488
	c8.188,21.737,30.881,30.091,47.548,43.973c37.365,35.162,86.574,52.618,130.838,76.89c48.745,40.436,62.961,15.829,89.525,31.047
	c123.55,64.252,119.129,50.943,121.611,61.637c-2.701,14.464-9.019,28.304-7.814,43.308c23.94,10.266,43.807,27.805,67.29,38.819
	c15.503,4.364,19.659-22.984,35.827-16.708c16.417,8.396,34.746,14.505,47.672,28.304c9.435,10.224,22.901,15.627,36.45,17.623
	c12.177,1.704,12.219-19.243,24.729-16.75c23.524,1.496,39.401,23.275,63.341,22.818c-2.078,7.98-5.195,15.669-8.479,23.275
	c15.998,28.479,14.201,22.319,39.609,24.896c-13.85,24.325-9.63,44.262,17.498,45.635c13.258-4.406,24.064-14.131,37.365-18.578
	c-1.621,12.302-9.393,25.686-2.785,37.738c5.195,9.518,18.329,6.026,27.223,5.154c12.011-5.403,19.285-17.332,30.05-24.605
	c18.246-12.261,36.824-24.106,55.403-35.951c24.106-14.588,36.99-41.105,58.644-58.52c51.188-6.962,68.026-28.676,79.135-11.513
	c19.119,24.273,42.81,44.389,68.661,61.18c11.596-9.767,23.898-18.62,36.99-26.267c36.776,97.981,86.739,66.723,149.333,114.005
	c2.452,31.089-1.081,62.468,1.413,93.598c1.663,15.42,10.266,28.595,15.336,42.934c3.405,77.779-11.372,231.167,43.267,467.992
	c4.447,15.42,0.457,31.379,2.535,47.049c1.455,22.236,13.674,41.895,16.168,63.923c8.734,75.901,26.979,76.536,26.891,126.017
	c1.87,7.772,6.11,14.713,8.521,22.402c3.491,12.552,2.161,25.852,5.569,38.445c35.757,105.186,65.918,166.665,65.918,166.665
	c58.271,138.179,91.803,348.192,93.183,352.158c5.943,14.381-1.538,29.343-5.278,43.308c-1.357,3.544-28.293,100.886-31.297,179.716
	c1.278,13.829,10.354,24.806,18.245,35.724c-0.173,0.28-0.336,0.501-0.484,0.635c-0.001,0-5.452,2.252-5.453,2.252
	c-23.868-2.805-23.985,8.9-35.184,15.985c-5.562,1.654-5.079,3.781-9.771,1.904c-13.779-4.939-15.889,4.352-26.479,6.915
	c-5.737,1.409-7.365-1.95-13.05,0.238c-8.489,3.172-5.574,3.751-7.824,3.155c-15.072,1.346-16.189,8.263-16.189,8.263
	c-3.489,0.762,0.448,1.184-3.828,3.543c-9.395,5.217-2.279,8.177-28.863,12.18c-31.676,3.888-15.448,5.269-48.045,10.291
	c-1.465,0.22-65.958,2.223-65.967,2.222c-0.869,0.171-0.973,0.054-6.212-1.019c-15.112-4.028-23.818,1.967-28.107,2.17
	c-4.111-9.217-42.945,22.217-38.571,66.395c0.728,11.464,2.018,35.482,16.028,48.284c8.186,7.355,14.588,12.648,20.122,11.595
	c0.19,6.099,34.162,20.577,37.423,20.32c2.104-0.047,3.527-1.973,4.137-2.182c0.692,1.226,0.727,2.678,1.228,3.969
	c4.352,4.489,32.396,13.889,34.452,14c0.896-0.797,0.961-2.17,1.625-3.131c0.706,0.087,1.661-0.117,2.152,0.48
	c0.04,1.254,0.227,2.498,0.278,3.752c4.35,2.807,38.876,12.368,43.452,9.793c1-0.716,4.416-1.903,6.963,0.07
	c7.541,9.607,100.698,12.145,105.405,9.658c6.354,1.017,131.521,11.074,139.222-12.842c1.434-0.229,7.104,0.624,9.028-3.541
	c0.673-1.882,32.17-10.891,65.254-4.023c17.186,1.547,10.641,6.134,26.514,12.641c1,0.436,31.493,9.264,43.71,4.563
	c5.863,3.801,29.888,5.007,35.703,2.342c1.841-0.874,26.376,4.056,34.188-1.025c-0.302-0.138-0.442-0.426-0.584-0.7
	c0.426-0.135,0.991-0.5,1.319-0.005c1.792-0.264,1.305,0.516,3.042,0.465c0.11,0.683,0.632,1.254,1.279,1.464
	c32.342,1.067,34.781-2.511,34.792-6.659c0.192,0,0.375,0.035,0.55,0.105c0.517,1,0.734,2.435,3.069,3.349
	c1.009-0.003,19.858-4.174,45.278-15.908c38.084-19.98,42.405-75.02,29.498-86.747c-0.76-9.35-1.706-18.7-8.005-25.359
	c-2.757-10.17,0.159-31.467-5.414-41.221c-2.556-15.484,2.111-13.528,0.287-21.734c-0.634-13.973-1.89-17.152-1.89-17.152
	c0.039-0.343,1.565-12.446,1.457-12.774c-0.071-1.596,3.513,0.317-0.313-10.967c-0.192-0.017-0.386-0.033-0.58-0.049
	c-0.192-0.309-0.423-0.597-0.751-0.772c-0.229-4.608-1.374-5.541-2.685-10.522c-1.072-3.357-0.074-3.33-4.757-5.967
	c0.224-1.705-0.817-8.732,0.242-12.967c-0.967-1.69-2.18-5.136-2.768-7.072c-0.589,0.438-0.96,0.768-1.134,1.659
	c-0.238-2.853-0.639-5.69-1.155-8.459c0.214-0.172,0.49-0.391,0.602-0.64c-0.349-2.275-0.555-4.567-0.618-6.875
	c-0.034,0.057-0.907,1.14-1.256,1.668c-4.181-16.851-37.029-46.708-40.967-82.2c-5.777-93.875-14.392-588.913-49.376-682.703
	c-10.515-29.8-5.403-61.471-8.229-92.144c-22.717-56.792-8.501-182.74-21.571-206.398c-5.819-6.858-13.508-12.053-18.121-19.867
	c-2.12-9.85-1.746-20.282,1.164-29.925c4.428-13.638,28.636-116.665,28.636-116.665c8.313-15.254,17.664-29.967,25.395-45.552
	c22.117-38.459,10.033-99.875,21.779-156.565c4.364-28.429,9.06-56.94,9.767-85.743c17.415-6.733,32.709-17.622,45.469-31.213
	c-2.161-11.887-4.364-23.774-4.281-35.868c-0.083-32.336-13.674-63.092-12.635-95.51c0.208-27.764,0.125-55.527,0-83.291
	c-0.623-19.534,5.694-38.487,4.406-58.062c2.896-98.615-31.603-272.014-42.394-298.667c-2.535-7.232-6.65-14.089-7.522-21.779
	c2.203-28.886,7.689-57.605,18.329-84.662c13.444-82.731-10.248-49.754,13.84-90.273
	C3925.076,1370.051,3995.78,1119.877,3999.974,1103.688z M3515.69,108.852c-2.743-4.364-6.151-8.562-7.315-13.633
	c2.036-5.569,5.071-10.682,7.855-15.877c1.538,0.748,4.614,2.286,6.151,3.076C3517.976,90.606,3516.313,99.667,3515.69,108.852z
	 M1541.604,1637.265c-6.816,25.727-4.655,54.156-19.576,77.223c-7.565,0.997-15.087,2.036-22.61,3.283
	c-5.778-34.995,2.868-70.739-5.071-105.693c-7.689-1.579-15.336-5.445-23.275-4.032c-13.591,4.697-25.353,15.42-40.315,15.378
	c-12.763-44.729,36.166-75.817,9.684-107.729c-1.621,5.528-3.159,11.055-4.655,16.625c-2.868,0.208-8.604,0.623-11.471,0.79
	c-1.995-32.086,6.941-63.216,13.716-94.222c6.567-0.624,13.133-1.206,19.742-1.787c3.449-13.05,3.366-26.558,5.154-39.817
	c4.156-6.65,12.801-4.946,19.409-6.359c-2.65,56.217-19.122,55.183-17.539,84.58c12.427-4.323,15.836-17.332,19.992-28.304
	c2.161-0.208,6.525-0.582,8.686-0.79c3.034,13.3,3.782,27.514,10.973,39.484c6.234,10.972,9.975,23.483,9.06,36.201
	c-2.078,23.898,16.583,43.183,15.877,66.998c3.491,0.042,6.982,0.083,10.515,0.167
	C1541.437,1605.22,1546.383,1621.346,1541.604,1637.265z M1989.105,1257.302c8.271,5.819,15.212,13.341,18.121,23.275
	C1995.256,1278.998,1987.152,1269.48,1989.105,1257.302z M3646.362,31.463c0.623-1.538,1.829-4.613,2.411-6.193
	C3662.987,18.62,3653.677,44.638,3646.362,31.463z"/>
</svg>
