<?xml version="1.0" encoding="UTF-8" standalone="no"?>
<svg
   xmlns:dc="http://purl.org/dc/elements/1.1/"
   xmlns:cc="http://creativecommons.org/ns#"
   xmlns:rdf="http://www.w3.org/1999/02/22-rdf-syntax-ns#"
   xmlns:svg="http://www.w3.org/2000/svg"
   xmlns="http://www.w3.org/2000/svg"
   xmlns:sodipodi="http://sodipodi.sourceforge.net/DTD/sodipodi-0.dtd"
   xmlns:inkscape="http://www.inkscape.org/namespaces/inkscape"
   version="1.1"
   width="442.56104"
   height="865.98682"
   viewBox="0 0 442.56104 865.98682"
   id="svg7"
   sodipodi:docname="couple standing.svg"
   inkscape:version="0.92.4 (5da689c313, 2019-01-14)">
  <metadata
     id="metadata13">
    <rdf:RDF>
      <cc:Work
         rdf:about="">
        <dc:format>image/svg+xml</dc:format>
        <dc:type
           rdf:resource="http://purl.org/dc/dcmitype/StillImage" />
        <dc:title></dc:title>
      </cc:Work>
    </rdf:RDF>
  </metadata>
  <defs
     id="defs11" />
  <sodipodi:namedview
     pagecolor="#ffffff"
     bordercolor="#666666"
     borderopacity="1"
     objecttolerance="10"
     gridtolerance="10"
     guidetolerance="10"
     inkscape:pageopacity="0"
     inkscape:pageshadow="2"
     inkscape:window-width="933"
     inkscape:window-height="512"
     id="namedview9"
     showgrid="false"
     fit-margin-top="0"
     fit-margin-left="0"
     fit-margin-right="0"
     fit-margin-bottom="0"
     inkscape:zoom="0.24180328"
     inkscape:cx="251.29462"
     inkscape:cy="398.8254"
     inkscape:window-x="0"
     inkscape:window-y="0"
     inkscape:window-maximized="0"
     inkscape:current-layer="svg7" />
  <g
     id="layer1"
     transform="translate(-48.705376,-20.838594)">
    <g
       style="fill:#000000;fill-opacity:1;stroke-linejoin:miter"
       id="g4">
      <path
         d="m 437.81625,291.4458 c 0.0128,0 0.025,0.005 0.0365,0.0161 0.13685,0.0856 0.62403,1.45995 1.16125,3.01197 1.08314,3.41723 4.03956,9.69178 5.58533,12.06568 0.65345,0.92174 1.41553,2.51207 1.75831,3.53222 0.73156,2.08386 4.96923,10.87426 5.56884,11.48401 0.23145,0.26207 0.42969,0.9281 0.44642,1.50977 0.0166,0.58178 0.5575,2.26794 1.18298,3.7727 2.0216,4.91296 3.25439,8.86337 3.60254,11.62997 0.29298,2.40979 0.21753,2.90453 -0.76929,4.41077 -0.64429,0.95886 -1.23865,2.09558 -1.36011,2.54676 -0.12134,0.4514 -0.6416,1.04845 -1.21435,1.3783 -1.01245,0.6112 -2.22181,2.16856 -5.05445,6.45934 -1.58886,2.37439 -3.40162,4.755 -5.0979,6.50536 -2.43274,2.62232 -6.62572,6.3252 -7.51294,6.6194 -2.03903,0.73022 -5.97518,4.02258 -7.17025,6.07214 -0.71963,1.24798 -1.08573,1.71179 -1.431,1.71179 -0.14606,0 -0.28839,-0.083 -0.45218,-0.22473 -1.05995,-1.04444 -1.77381,-5.6366 -1.27161,-8.42762 0.65686,-3.64611 1.38709,-14.10156 1.55896,-22.1676 0.17944,-7.79736 1.39966,-15.22153 4.08106,-24.79245 0.72839,-2.70776 1.35584,-5.81579 1.32507,-6.88977 -0.0295,-1.02916 0.24133,-2.51476 0.62097,-3.33179 0.38098,-0.77221 0.813,-2.8894 0.98523,-4.68567 0.16089,-2.19897 0.56617,-3.68847 1.12595,-4.46582 0.47424,-0.6405 0.97534,-1.90881 1.12732,-2.85363 0.10864,-0.89881 0.3795,-2.3844 0.61975,-3.37647 0.18048,-0.86778 0.40509,-1.51068 0.5476,-1.51068 z m -67.58249,256.3143 c 0.011,0 0.25964,2.57517 0.57166,5.9036 0.27783,3.4403 0.74225,7.14404 1.04285,8.255 0.30053,1.11096 0.63971,5.1316 0.74873,8.93506 0.15373,3.80224 0.49937,8.04654 0.76158,9.38264 0.56787,2.62584 0.68298,3.5183 1.65027,10.7007 0.34283,2.5875 0.85835,4.94626 1.13575,5.2518 0.32604,0.4385 0.73455,6.8755 1.1616,20.20874 0.35383,10.78246 0.79317,19.86096 0.97993,20.12426 0.18793,0.3081 0.68421,1.9956 1.04731,3.7317 0.36328,1.7362 1.01818,4.27 1.45941,5.60095 0.39635,1.33215 0.7622,3.15772 0.78912,4.09742 0.0693,2.41623 2.57683,7.09143 4.49853,8.51413 1.50867,1.07644 1.55604,1.1647 0.9565,2.1222 -0.9446,1.4154 -0.69117,5.5729 0.3983,7.6466 0.5191,0.92544 1.15094,2.65383 1.45398,3.8544 0.3031,1.20043 1.02052,2.7921 1.57935,3.5375 0.97547,1.2258 1.08429,1.8945 1.40063,8.2446 0.39447,7.5122 -0.21466,28.4434 -0.84851,31.3277 -0.24017,0.99206 -0.39685,8.02746 -0.35645,15.6843 0.0822,9.3183 0.0496,12.49984 -0.21493,12.49984 -0.0557,0 -0.12182,-0.14134 -0.19931,-0.39644 -0.74054,-2.3971 -3.16162,-11.86656 -3.78583,-14.8939 -0.47198,-2.40467 -0.66888,-3.026 -3.10888,-10.03186 -0.68415,-1.99564 -1.27887,-3.9939 -1.29169,-4.44129 -0.0141,-0.49219 -0.64069,-2.04165 -1.40026,-3.54245 -0.75953,-1.5009 -1.52937,-3.3598 -1.73267,-4.20486 -0.20331,-0.84497 -0.63697,-1.90729 -0.9195,-2.39179 -0.32733,-0.48315 -0.75703,-1.41135 -0.91053,-2.07861 -0.74554,-2.57617 -10.12225,-20.35498 -11.31646,-21.39551 -0.45898,-0.38989 -0.83618,-1.05093 -0.84772,-1.45363 -0.0129,-0.4475 -0.44,-1.286 -0.95012,-1.8983 -0.51014,-0.6124 -0.9347,-1.3616 -0.94496,-1.7195 -0.0167,-0.58165 -0.44378,-1.4204 -2.27734,-4.45787 -0.56397,-0.92433 -1.0396,-1.89587 -1.0486,-2.20913 -0.009,-0.3132 -0.8107,-1.72324 -1.74803,-3.17417 -1.45123,-2.19763 -1.79273,-3.17309 -2.14197,-5.98423 -0.1869,-1.8308 -0.76758,-4.9042 -1.27142,-6.86025 -0.70728,-2.80105 -0.77771,-3.69485 -0.35846,-4.69202 0.33618,-0.77099 0.48535,-4.94003 0.41943,-11.92433 -0.0916,-9.4465 0.0347,-11.28624 0.86157,-15.25096 0.71436,-3.20007 0.88422,-5.08594 0.66285,-6.55737 -0.211,-1.11353 -0.1908,-3.53237 0.0251,-5.37477 1.00787,-8.5824 1.45508,-11.72997 1.84369,-12.2339 0.21472,-0.31943 0.53674,-1.5826 0.68116,-2.7959 0.143,-1.258 0.49963,-2.88047 0.78966,-3.69504 0.3349,-0.81566 0.69154,-2.43796 0.8371,-3.60656 0.10089,-1.16725 0.46131,-2.6554 0.75654,-3.2909 0.29528,-0.6354 0.6032,-2.39075 0.7373,-3.96204 0.0842,-1.7489 0.56988,-3.55416 1.20776,-4.73676 0.59686,-1.0471 1.34076,-3.218 1.69734,-4.84045 0.3565,-1.62245 1.1284,-4.37635 1.66143,-6.09338 0.82434,-2.48667 3.55413,-13.49197 3.85693,-15.42637 -1.6e-4,-0.006 -6e-5,-0.009 3e-4,-0.009 z M 204.75797,20.838594 c -2.50701,0 -4.90227,0.557438 -6.8617,1.637957 l -2.29211,1.274902 -2.36536,-1.275634 c -1.84634,-0.964709 -3.4279,-1.455469 -5.33125,-1.455469 -2.03347,0 -4.43421,0.560148 -7.91753,1.700952 -2.48395,0.83252 -3.05408,1.251953 -4.257,3.032837 -0.72858,1.140623 -1.94025,4.175657 -2.67261,6.749386 -1.50549,5.282711 -3.06879,8.551998 -4.00848,8.578975 -1.25287,0.03589 -2.66663,2.270752 -3.08448,4.880246 -1.2138,7.647824 -1.24316,8.186031 -0.54199,13.898189 0.4043,3.168087 0.83454,10.365841 1.04218,16.047355 l 0.34112,10.33508 -1.1582,1.77978 c -1.07243,1.64296 -1.18999,2.22853 -1.09758,5.45021 0.0577,2.01355 0.39026,4.243155 0.77258,5.08312 0.33765,0.84119 0.84162,2.79724 1.02197,4.4043 0.79194,5.75427 2.71777,10.44604 4.81452,11.72949 1.73248,1.06995 2.17749,2.53503 1.97461,6.3922 -0.15058,2.55689 0.0272,4.07447 0.6181,5.93836 1.03198,3.19482 1.24365,10.578 0.43469,13.60168 -0.3233,1.21839 -0.58911,2.88306 -0.56725,3.64368 0.0346,1.20825 -0.4358,1.98291 -2.5246,4.10291 -1.39081,1.47288 -3.51551,3.90733 -4.68128,5.41856 -4.492,5.77136 -4.97266,6.18823 -7.38898,6.25744 -1.70037,0.0488 -3.16418,0.5387 -6.29626,2.19593 -2.25,1.18408 -4.19316,2.13537 -4.37212,2.1405 -0.17901,0.005 -0.74914,0.42456 -1.27075,0.97693 -0.74017,0.73767 -2.20654,1.13794 -6.70795,1.89392 -3.11944,0.53735 -6.41143,1.30347 -7.25134,1.68579 -0.83868,0.42713 -3.05285,1.29663 -4.86951,1.97571 -5.31823,1.94372 -7.26397,2.80566 -7.96325,3.40796 -0.349,0.32348 -1.54303,0.85034 -2.65271,1.19556 -1.10967,0.34533 -2.47631,1.10107 -3.08612,1.70068 -0.61108,0.55493 -1.88812,1.3081 -2.81884,1.64819 -1.28607,0.43994 -3.03357,1.9679 -6.46338,5.73841 -2.56183,2.80529 -4.98297,5.83032 -5.36133,6.69201 -0.378296,0.86168 -1.06348,1.95616 -1.49811,2.41649 -0.43591,0.41553 -1.192625,2.13904 -1.63733,3.80872 -0.44476,1.66967 -1.15288,3.52612 -1.49419,4.11816 -0.38605,0.59314 -0.89716,3.07092 -1.142396,5.45142 -0.289978,2.38183 -0.709104,4.94653 -0.957034,5.67016 -0.24664,0.76831 -0.59295,2.74878 -0.76666,4.50025 -0.17493,1.70678 -0.579956,4.76367 -0.92627,6.74401 -0.30151,1.97913 -0.824096,5.62159 -1.15625,8.09424 -0.33215,2.47242 -0.89813,6.161 -1.33264,8.18871 -0.38971,2.02637 -0.7168,4.67785 -0.68341,5.84131 0.03332,1.16345 -0.20673,3.72302 -0.50952,5.65734 -0.30286,1.93433 -0.53656,4.71754 -0.494205,6.19434 0.04102,1.43189 -0.07898,3.49524 -0.317935,4.53211 -1.48486,7.56615 -2.006344,22.18042 -1.18835,33.53185 1.364745,19.4863 2.61212,28.6312 5.28387,39.0338 0.45142,1.68883 1.120365,4.71496 1.53479,6.67345 1.09613,5.43213 2.10126,7.68725 4.40014,9.771 1.97749,1.76315 3.26488,2.26657 9.09471,2.26657 1.48664,0 3.26865,-0.0327 5.43282,-0.0857 l 7.38439,-0.16686 0.0455,7.8358 c 0.0336,4.29822 -0.11938,8.333 -0.36993,8.96716 -0.20581,0.63282 -0.78845,3.73964 -1.27777,6.97791 -0.44592,3.1925 -1.10528,6.74923 -1.43115,7.87813 -0.77575,2.61964 -1.76745,7.08168 -2.4638,10.90822 -0.26709,1.61975 -0.92145,3.7882 -1.3855,4.78674 -0.46393,0.99854 -1.04041,2.7616 -1.2768,3.88794 -0.19165,1.125 -1.0736,3.16553 -1.88525,4.53235 -0.81177,1.3667 -1.48663,2.81921 -1.4751,3.22192 0.0103,0.35803 -0.35016,1.84607 -0.846,3.29333 -1.07105,3.25513 -1.49866,10.20887 -0.86683,13.50452 0.89923,4.81092 2.92743,9.94751 4.39392,11.11475 0.73389,0.60596 1.34125,1.48413 1.40009,1.9751 0.14087,1.78723 -0.93536,4.8634 -2.6073,7.46399 -0.94342,1.46008 -2.0401,3.82019 -2.49255,5.22144 -0.45118,1.44604 -1.6847,3.72057 -2.76362,5.13976 -1.08013,1.37451 -1.93017,2.96631 -1.91351,3.54798 0.0154,0.53698 -0.354,1.71179 -0.77832,2.53016 -0.46911,0.81957 -1.36377,3.97994 -2.03723,7.0445 -0.67474,3.0199 -1.39813,5.90675 -1.652404,6.40663 -0.210936,0.45387 -0.392396,1.93689 -0.355166,3.23462 0.08466,2.95325 -0.74066,8.5299 -1.87426,12.72729 -1.70233,6.22888 -2.01928,7.67108 -1.980764,9.01349 0.0205,0.71594 -0.29126,2.33704 -0.747556,3.604 -0.412844,1.22095 -0.826785,3.96473 -0.94556,6.07287 -0.10968,2.4214 -0.49939,4.4479 -1.00555,5.5371 -0.465275,0.9539 -0.83338,2.1736 -0.817936,2.7106 0.01538,0.537 -0.375734,2.51867 -0.815304,4.3673 -0.718204,3.0658 -0.73084,4.1858 -0.2865,11.87573 0.48523,7.55447 0.43811,9.03357 -0.25061,13.12867 -0.65296,3.7805 -0.75879,6.3362 -0.55359,13.4956 0.1886,6.57776 0.123656,8.9979 -0.30463,9.6819 -1.07245,1.6429 -1.59454,9.98753 -1.29565,20.41344 0.28857,10.06799 0.28857,10.06799 1.617185,12.67212 l 1.282535,2.56064 -0.81153,2.9341 c -0.975155,3.4762 -0.9776,4.95423 -0.01831,8.7333 1.46692,5.86937 1.469485,5.95885 0.12854,7.60936 -0.69287,0.82604 -1.847104,2.73999 -2.61151,4.19494 -1.14276,2.3168 -1.29864,3.1273 -1.21527,6.03583 0.07953,2.77417 0.33154,3.75232 1.37366,5.73757 l 1.27612,2.337 -0.97272,1.9983 c -0.9331,1.8181 -1.00848,2.3129 -0.597775,5.7046 l 0.419739,3.70496 -1.830688,1.75424 c -1.785826,1.7531 -1.785826,1.7531 -1.449341,4.11685 0.873715,5.48325 1.032471,7.89695 0.581295,9.34302 -0.2901,0.81443 -0.580135,3.19629 -0.65411,5.3031 -0.07391,2.10703 -0.37543,4.08618 -0.59021,4.40563 -0.69031,0.91553 -0.76849,12.24793 -0.2937,30.3716 l 0.4068,15.75194 -1.07617,3.07606 -1.07489,3.12084 0.41717,17.67749 c 0.233644,9.71117 0.28943,17.90491 0.11939,18.22327 -0.16999,0.31836 -1.009945,0.7007 -1.85498,0.90405 -1.87036,0.36719 -2.864865,1.60475 -4.02929,4.72825 -0.74903,1.99184 -0.88947,3.3394 -0.7663,7.63503 0.187256,6.53297 0.686035,8.31007 2.77899,9.45911 0.86426,0.46789 1.552126,1.03039 1.557314,1.20936 0.0051,0.17894 0.735166,0.6506 1.596866,1.0289 1.36162,0.63283 1.59435,0.9397 1.63286,2.2821 0.02436,0.8501 -0.20819,2.11074 -0.54693,2.79226 -0.29401,0.68004 -0.94708,2.89319 -1.380245,4.96558 -0.479309,2.02906 -1.504275,5.32766 -2.344115,7.27736 -0.794984,1.94847 -1.45447,3.93785 -1.44293,4.34056 0.01281,0.44751 -0.74256,2.2157 -1.67829,3.94424 -0.934384,1.7733 -1.818845,3.72434 -1.97992,4.3559 -0.11499,0.6751 -0.99951,2.6261 -1.889095,4.3981 -0.890995,1.7274 -1.602905,3.44946 -1.593935,3.7627 0.03461,1.2081 -2.29687,5.7981 -3.812926,7.5881 -0.86676,1.01004 -2.155274,2.9279 -2.832764,4.2908 -0.67743,1.36304 -2.181945,3.55566 -3.397705,4.8893 -3.124265,3.493 -6.277828,7.5243 -6.261165,8.10606 0.0077,0.26844 -0.377075,0.9065 -0.85382,1.45764 -2.16803,2.48035 -3.625245,18.82325 -1.85559,21.1908 1.518457,2.0421 7.82882,3.2134 15.15071,3.2134 3.683406,0 7.6228,-0.29647 11.336894,-0.9275 5.125236,-0.86354 11.706716,-2.48524 12.940361,-3.1923 0.44104,-0.23667 1.594175,-0.6279 2.574705,-0.7904 2.5365,-0.5653 6.20044,-2.41685 9.31201,-4.79 1.534,-1.1636 2.94025,-2.0995 3.16401,-2.106 0.22369,-0.006 1.10455,-0.52427 1.9815,-1.17637 0.87695,-0.6521 1.98151,-1.17639 2.42896,-1.18923 0.44751,-0.0128 2.0813,-0.821 3.66521,-1.80686 2.77289,-1.69164 2.85852,-1.82849 2.80976,-3.52881 -0.0461,-1.61083 0.0829,-1.79358 1.19769,-1.95993 0.66864,-0.1088 1.37176,-0.5768 1.62744,-1.032 0.21094,-0.45387 0.91278,-0.96656 1.4906,-1.11744 1.42163,-0.39916 3.25464,-3.63111 3.91785,-7.05371 0.59167,-2.79358 -0.13617,-20.37245 -0.91114,-22.41028 -0.24176,-0.61997 -0.5589,-2.31262 -0.78027,-3.78417 -0.17651,-1.4728 -0.90949,-5.16884 -1.57971,-8.23964 -1.44269,-6.58656 -1.50153,-7.07736 -1.25806,-14.20496 0.16828,-5.0653 0.24494,-5.5154 1.08997,-5.71874 5.42828,-1.23046 5.82586,-1.4209 7.82525,-3.53836 1.82672,-1.8884 2.07984,-2.4331 2.32502,-4.8136 0.3999,-3.2358 0.14587,-12.09555 -0.3017,-13.65024 -0.19702,-0.62136 -1.0268,-1.44836 -1.80029,-1.87402 l -1.45496,-0.76441 0.13507,-4.66137 c 0.11212,-3.8993 0.26544,-4.79932 1.00433,-5.58191 0.52155,-0.55225 0.89856,-1.45875 0.88062,-2.08509 -0.0179,-0.62646 0.54309,-2.92666 1.19488,-5.18446 0.69654,-2.259 1.21161,-4.60265 1.19489,-5.1843 -0.0179,-0.6265 0.2594,-1.8883 0.63513,-2.8395 1.0813,-2.8971 2.14453,-7.98815 2.51746,-12.1637 0.15961,-2.24364 0.4956,-4.58214 0.74615,-5.2162 0.20575,-0.6328 0.45996,-2.70017 0.5838,-4.62937 0.12378,-1.92933 0.42792,-3.81883 0.77564,-4.18713 0.30292,-0.36694 0.72583,-2.79724 0.91998,-5.40027 0.1941,-2.60303 0.50183,-5.92578 0.68329,-7.40893 0.18134,-1.4829 0.28033,-8.9646 0.19653,-16.5753 -0.0432,-10.8811 0.0421,-14.15273 0.54956,-15.1973 0.33875,-0.6814 0.69397,-2.3486 0.79108,-3.65013 0.16596,-2.02002 0.0138,-2.6427 -1.11145,-4.40161 l -1.31323,-2.06716 1.3562,-2.68114 c 1.56329,-3.26916 1.90314,-5.47336 1.20099,-8.09546 l -0.54993,-1.9994 2.13489,-2.0765 c 1.8728,-1.845 2.12714,-2.3449 2.33404,-4.5004 0.14185,-1.30284 0.83582,-3.6515 1.50812,-5.19335 1.47504,-3.2218 2.34528,-7.23245 2.56732,-11.9859 0.12635,-1.83975 0.42914,-3.77405 0.72828,-4.27515 0.29913,-0.5012 0.69653,-2.25915 0.96234,-3.9238 0.22101,-1.66335 0.83191,-3.78555 1.29974,-4.6499 0.51135,-0.9103 1.11585,-3.2564 1.37,-5.32363 1.24047,-9.84302 4.11059,-23.76343 5.70324,-27.5708 0.46393,-0.99867 1.16053,-3.25767 1.60395,-4.97217 0.4422,-1.75916 1.09533,-3.9723 1.42503,-4.96704 0.32977,-0.99476 0.60193,-2.43556 0.6236,-3.24231 -0.0269,-0.93955 0.39227,-1.93689 1.25903,-2.9469 0.69281,-0.82595 1.41504,-2.19019 1.5249,-3.04419 0.1546,-0.85536 0.72846,-2.70786 1.31513,-4.11292 2.17547,-5.3468 3.14042,-7.61384 4.90825,-11.5606 1.00976,-2.26807 1.92999,-4.53357 2.09234,-5.12034 0.11884,-0.5409 0.41925,-0.99734 0.64301,-1.0038 0.31323,-0.009 2.89905,-5.09877 5.9757,-11.81495 0.80145,-1.72461 1.92377,-3.18995 3.71607,-4.71912 1.44324,-1.20569 3.27392,-2.96008 4.05237,-3.92283 l 1.38574,-1.6519 0.87964,1.0048 c 0.50891,0.5676 0.89642,1.58653 0.91693,2.3025 0.0205,0.7159 0.56402,2.4917 1.23279,3.9503 0.71869,1.63635 1.22129,3.5477 1.30705,4.9784 0.0372,1.2976 0.5105,3.74706 1.05273,5.47814 0.7865,2.44043 1.13575,5.25171 1.67603,13.16296 0.38281,5.542 0.98694,12.5558 1.34393,15.6356 0.40174,3.0784 0.65399,7.1913 0.57617,9.16396 -0.33429,7.08534 -0.29132,28.89349 0.0295,41.6474 0.15925,7.11594 0.32868,14.58984 0.38514,16.55874 0.0564,1.96885 0.35461,4.5577 0.65637,5.7135 0.45666,1.8678 3.01404,6.7207 4.87701,9.2198 0.42066,0.615 0.3913,1.1531 -0.37048,2.69754 -0.84619,1.72619 -0.90363,2.84741 -0.91308,10.32641 0.002,6.31435 -0.15131,8.78185 -0.65113,10.09485 -0.37573,0.9512 -0.84217,3.42773 -0.96087,5.5359 -0.36133,4.57824 -1.23511,11.58947 -1.82679,14.3829 -0.59039,2.8384 -0.5141,25.80984 0.0671,33.5855 0.28168,3.57456 0.80237,7.6798 1.15796,9.14743 0.66504,2.89173 0.46594,6.88317 -0.42108,8.74477 -0.63275,1.36156 -1.36219,7.15953 -1.26984,10.3812 0.0449,1.5662 -0.15442,2.42286 -0.8064,3.1133 -0.43463,0.4603 -1.24896,1.73754 -1.7998,2.8281 -0.88837,1.8169 -0.96118,2.40114 -0.64868,8.6169 0.28821,5.3657 0.51593,7.06103 1.2857,8.9198 1.24811,2.9199 1.61634,3.2676 3.60059,3.74817 l 1.62237,0.35643 0.36774,8.14 c 0.32019,6.4844 0.28076,8.2321 -0.23956,8.82925 -0.86279,1.14429 -2.90259,8.09935 -3.17975,10.92859 -0.0958,1.34631 -0.67719,4.49766 -1.32257,6.97926 -1.64093,6.8093 -2.13147,10.00304 -2.06598,13.8525 0.059,2.0584 -0.15039,4.1243 -0.5249,5.1204 -0.45764,1.2223 -0.57245,3.4647 -0.40442,9.3265 0.26684,9.3073 0.66327,10.63943 3.45935,11.32046 2.56982,0.59814 8.15698,3.34888 8.17493,3.97534 0.018,0.62647 1.80157,1.9188 4.02746,3.0194 0.8183,0.4243 2.73352,1.6233 4.28833,2.7432 3.25751,2.4392 4.37689,3.0664 5.46773,3.0664 0.0279,0 0.0558,-4.4e-4 0.0837,-10e-4 0.008,-2.6e-4 0.0161,-3.6e-4 0.0244,-3.6e-4 0.49588,0 1.34059,0.4179 1.92791,0.92956 2.99126,2.6579 17.30951,5.36029 27.79223,5.36029 0.46824,0 0.92884,-0.005 1.38043,-0.0164 5.28009,-0.15136 13.34588,-1.54699 15.72888,-2.77963 3.22284,-1.615 3.41833,-2.60586 2.48541,-11.715 -0.56305,-5.58166 -1.044,-8.2997 -1.71405,-9.8031 -0.67004,-1.5033 -2.6136,-3.68676 -7.12567,-7.99096 -4.00586,-3.82617 -6.22553,-6.27039 -6.24347,-6.89684 -0.0154,-0.537 -0.89892,-1.6759 -2.04706,-2.673 -2.20556,-1.95214 -3.34106,-4.0692 -4.1123,-7.54015 -0.25965,-1.24635 -1.17908,-3.63845 -2.078,-5.31435 -0.90027,-1.7207 -2.0882,-4.10496 -2.61628,-5.3437 -0.52813,-1.2389 -1.3836,-2.96084 -1.89886,-3.7522 -0.5614,-0.83487 -0.99872,-2.0314 -1.01666,-2.65786 -0.0193,-0.67114 -0.37226,-2.04944 -0.80579,-3.1117 -0.38873,-1.06374 -1.04999,-3.82114 -1.47467,-6.13784 -0.47455,-2.49424 -1.06921,-4.4924 -1.53076,-4.9719 -0.87714,-0.91516 -1.11913,-4.67004 -0.39948,-6.1238 0.2544,-0.49986 0.44599,-1.625 0.42035,-2.5199 l -0.0449,-1.56614 2.37927,0.20044 c 0.24698,0.0157 0.49149,0.0234 0.73287,0.0234 2.60875,0 4.85267,-0.9021 5.9163,-2.4083 1.16193,-1.6455 2.71961,-9.7959 2.60803,-13.6888 -0.13214,-4.6089 -0.5299,-5.9858 -2.07562,-6.7923 -1.68255,-0.89224 -1.98187,-1.9585 -1.23407,-3.99514 1.12213,-3.0326 2.34509,-8.79981 2.68738,-12.48196 0.16601,-2.02 0.59021,-4.40574 0.92383,-5.2661 0.33233,-0.90526 0.76172,-3.1118 0.93408,-4.9082 0.47253,-5.38744 1.83698,-15.5924 2.69824,-19.91625 0.4281,-2.25135 0.8982,-6.16101 1.04755,-8.76285 0.10583,-2.55563 0.47876,-6.73105 0.76617,-9.20236 0.33216,-2.47264 0.86737,-7.23499 1.30811,-10.60644 0.39606,-3.37 0.6897,-7.18507 0.65124,-8.5275 -0.0384,-1.34226 0.21448,-3.4543 0.58252,-4.67405 0.72717,-2.75255 1.35889,-15.08605 0.84345,-17.44485 -0.25586,-1.1123 -1.09973,-2.4316 -2.4372,-3.78147 -1.10724,-1.13269 -2.03808,-2.35983 -2.04834,-2.71777 -0.0103,-0.35806 0.54066,-1.44861 1.27436,-2.41016 0.86291,-1.1443 1.2796,-2.2311 1.25134,-3.21545 -0.0551,-1.92405 -1.06934,-6.05981 -1.62555,-6.7157 -0.23145,-0.26195 -0.59485,-3.56555 -0.83557,-7.27565 l -0.37268,-6.75145 2.40179,-5.26379 2.44647,-5.26502 -0.1491,-8.32544 c -0.0811,-5.9537 0.0618,-8.7793 0.47595,-9.95544 0.33355,-0.86046 0.65161,-3.82516 0.7536,-6.51506 0.0573,-2.68874 0.36767,-5.9219 0.69105,-7.1403 0.322,-1.2633 0.81517,-4.3674 1.18828,-6.97556 0.32959,-2.56214 0.96472,-5.40164 1.38654,-6.30934 0.46783,-0.86437 0.79498,-1.9486 0.78216,-2.396 -0.0128,-0.4475 0.27216,-1.4408 0.65308,-2.2131 0.84491,-1.77077 1.55254,-8.32936 1.6886,-16.0807 0.0841,-3.3164 0.30114,-6.6814 0.50427,-7.4037 0.20197,-0.7672 0.51361,-3.95556 0.69232,-7.0957 0.17743,-3.1847 0.49292,-6.2389 0.69989,-6.827 0.20709,-0.58816 0.43439,-3.5951 0.52356,-6.73256 l 0.1516,-5.64698 1.37044,-0.62146 c 0.92816,-0.4297 1.70794,-1.34765 2.42626,-2.8462 0.9715,-2.04296 1.03913,-2.80626 0.9964,-8.9851 -0.017,-3.71655 -0.28723,-8.4558 -0.5687,-10.46307 -0.38634,-2.5415 -0.4915,-6.21069 -0.3258,-11.3656 0.3672,-10.62399 -1.57696,-33.13913 -3.10766,-36.54343 -0.23657,-0.44104 0.2594,-1.8883 1.40594,-4.07092 0.93312,-1.81798 2.03235,-4.08862 2.40942,-4.99512 0.41547,-1.13146 1.0674,-1.8219 1.9533,-2.16089 1.24013,-0.48327 3.91444,-2.48571 7.14748,-5.31005 2.31512,-2.03687 2.82116,-4.69362 2.32818,-12.51648 -0.19086,-3.53244 -0.62206,-7.63999 -0.93292,-9.10898 -0.31079,-1.469 -0.79174,-4.18701 -1.06934,-6.05994 -0.27765,-1.87292 -0.88385,-4.27392 -1.31738,-5.33618 -0.67389,-1.6377 -0.92732,-4.22778 -1.40656,-16.26074 -0.49969,-11.1814 -0.77484,-14.53235 -1.29534,-15.5027 -0.47182,-0.8374 -0.81982,-3.60387 -1.19362,-8.83275 -0.41875,-6.79502 -0.39708,-7.60178 0.22938,-7.61972 0.0132,-3.7e-4 0.0264,-5.8e-4 0.0396,-5.8e-4 0.38962,0 0.77704,0.16363 0.95639,0.37509 0.26703,0.44443 1.79483,0.71014 3.2984,0.71014 0.87943,0 1.75055,-0.0909 2.35633,-0.2901 4.70209,-1.56788 8.36978,-3.28515 9.98697,-4.67505 3.14605,-2.73243 4.40002,-4.29101 4.67095,-5.77661 0.3501,-1.84619 2.55604,-9.25378 3.27442,-10.75232 0.29523,-0.63525 0.7439,-2.17077 0.97766,-3.3867 0.27735,-1.26186 0.86402,-2.667 1.34082,-3.21803 0.47815,-0.50635 1.0136,-2.13379 1.2398,-3.61817 0.22743,-1.4397 0.584,-3.062 0.79365,-3.56067 0.0155,-0.0374 0.0307,-0.0555 0.0455,-0.0555 0.50944,0 0.68037,21.22713 0.21226,23.11156 -0.24408,0.85779 -0.43628,9.77514 -0.41606,19.8508 0.0358,13.74732 -0.0904,18.72194 -0.54146,20.16797 -0.32849,1.03943 -0.79217,5.17273 -1.08331,9.07727 -0.2898,3.94922 -0.74451,8.39576 -1.06018,9.88257 -0.27088,1.48573 -0.59277,4.31616 -0.71661,6.24536 -0.0778,1.97277 -0.61834,4.98877 -1.15254,6.66114 -0.53295,1.71693 -1.15655,4.95923 -1.3148,7.24765 -0.20314,2.28978 -0.6133,5.16772 -0.98133,6.38733 -0.32209,1.26318 -0.70154,3.64758 -0.78571,5.3966 -0.13026,1.70545 -0.43311,3.63977 -0.72833,4.27527 -0.29529,0.63538 -0.61609,1.94324 -0.72077,2.97632 -0.15076,0.98962 -0.50091,2.83569 -0.82428,4.05408 -0.3233,1.21838 -0.76422,3.02246 -0.95971,4.0133 -0.24024,0.99208 -0.80384,3.20264 -1.24604,4.96178 -0.97125,3.6106 -2.44091,10.14613 -2.69641,12.16884 -0.10345,1.07763 0.13568,1.60826 1.14575,2.47496 1.4137,1.24846 4.51645,2.93388 5.43769,2.93388 0.007,0 0.0137,-8e-5 0.0204,-2.8e-4 0.004,-1.2e-4 0.008,-1.5e-4 0.0115,-1.5e-4 0.93353,0 6.88768,3.03159 8.16864,4.15433 0.91797,0.77979 1.065,1.22352 0.86951,2.21422 -0.20447,0.67775 -0.27057,4.6205 -0.23951,8.8292 0.0632,5.3274 -0.0797,8.15272 -0.49006,9.46326 -0.3297,0.99464 -0.6912,4.0055 -0.7919,6.74018 -0.10076,2.73474 -0.54534,5.97192 -0.9544,7.32716 -0.45367,1.35643 -1.02355,4.91063 -1.29687,7.87413 -0.27197,3.0083 -0.71265,7.94717 -1.02686,11.04617 -0.31414,3.099 -0.78797,8.44175 -1.04717,11.89756 -0.30396,3.45704 -0.6691,7.901 -0.8364,9.87624 -1.0843,12.16734 -0.73468,44.6699 0.73038,70.78117 0.80548,14.03883 0.96197,19.49793 0.62329,20.17933 -0.25312,0.54467 -0.54297,4.494 -0.68701,8.842 -0.22296,7.84353 -0.22168,7.8882 1.02764,10.85293 1.8811,4.69312 4.073,10.85511 4.0948,11.61573 0.0295,1.02917 2.8031,7.17444 3.63415,8.04638 0.32348,0.349 0.656,1.01126 0.66882,1.45862 0.0115,0.40274 0.52808,1.23877 1.17249,1.84729 0.64447,0.60855 1.15588,1.26565 1.16229,1.48938 0.006,0.22377 0.65851,1.10071 1.39885,1.93027 0.9231,0.9588 1.5881,2.28323 1.90144,3.8417 0.30573,1.2899 0.79291,2.6642 1.1164,3.0132 0.74163,0.8744 7.4151,13.4016 7.4331,14.02806 0.006,0.22374 0.52301,1.0597 1.17383,1.89197 0.65083,0.83227 1.17383,1.89197 1.18921,2.42897 0.0154,0.537 0.58442,1.64025 1.23522,2.4724 0.6509,0.8323 2.77344,4.578 4.76185,8.32764 1.94365,3.75086 3.96905,7.23056 4.4306,7.70996 0.46161,0.47937 2.01389,3.077 3.47805,5.7219 1.46534,2.68984 3.30152,5.8168 4.09815,7.0479 2.38855,3.64853 5.08399,8.6318 5.10968,9.5267 0.0128,0.4474 0.62403,1.45984 1.31837,2.2461 0.739,0.78503 1.49084,2.0172 1.68908,2.68335 0.19952,0.71081 1.06265,2.70129 1.91806,4.42335 4.74921,9.4474 6.04326,12.4109 6.55872,14.7695 0.30951,1.4242 0.94128,3.1527 1.41052,3.90053 0.46802,0.70313 0.99994,2.07617 1.20587,3.01077 0.20465,0.88975 0.96675,2.4801 1.7135,3.53354 0.74542,1.00866 1.36055,2.15526 1.37079,2.51331 0.0103,0.35791 0.83766,2.66295 1.80316,5.09825 1.83496,4.6498 2.1203,6.79103 1.40338,9.9016 -0.56103,2.3001 -2.65868,5.6742 -4.3244,6.9312 -0.70184,0.5127 -1.47778,1.5649 -1.76916,2.3347 -0.29272,0.7247 -0.67749,1.3628 -0.90125,1.36914 -0.80542,0.0231 -6.95032,7.49902 -8.82677,10.77722 -0.29914,0.50124 -1.4075,0.89114 -3.32512,1.17004 -4.14605,0.65625 -8.15638,2.9209 -9.25318,5.281 -0.88826,1.81696 -4.22615,4.1069 -6.15023,4.16206 -2.46107,0.0705 -6.3128,3.18154 -6.78437,5.479 -0.15203,0.9447 -0.80785,1.50098 -2.97216,2.5481 -1.50084,0.75964 -3.2229,1.61524 -3.84039,1.94641 -0.61871,0.28638 -1.52887,1.34243 -2.0824,2.34353 -0.89349,1.6378 -0.96631,2.22214 -0.65149,5.3927 0.4646,5.2711 0.85468,6.3795 2.36206,7.4111 0.73004,0.4717 2.49445,1.0928 3.88922,1.32154 l 2.5647,0.41906 0.33258,2.2296 c 0.16888,1.20437 0.47711,2.5839 0.71368,3.0248 0.71735,1.59155 3.65284,2.4479 10.0708,2.9358 4.7646,0.36865 9.03898,0.55584 13.13688,0.55584 5.70709,0 11.07184,-0.3631 16.94162,-1.1048 5.04223,-0.63734 9.72265,-1.39834 10.38617,-1.68614 0.70825,-0.28895 1.77575,-0.5435 2.4469,-0.56276 0.67113,-0.0191 1.78093,-0.3645 2.48663,-0.74294 0.7057,-0.3785 2.47754,-1.05625 3.98737,-1.50266 1.46508,-0.44507 3.90435,-1.27624 5.36425,-1.90027 3.36353,-1.39517 9.79028,-3.72901 13.51813,-4.91067 1.59802,-0.4936 3.2804,-1.1688 3.76373,-1.4962 0.48316,-0.32726 1.32569,-0.6201 1.95202,-0.63805 1.8346,-0.0526 7.90086,-2.46555 8.8109,-3.52175 0.6942,-0.78123 0.93066,-1.9076 1.05822,-5.27 l 0.19116,-4.2599 -1.79626,-1.73986 -1.84119,-1.73854 -0.52368,-8.8968 c -0.44312,-7.64524 -0.33679,-17.99314 0.23585,-19.89035 0.1251,-0.31715 1.09166,-0.97181 2.15148,-1.49475 2.21032,-1.0039 2.25256,-1.0946 2.47058,-7.5497 0.0752,-2.0621 0.48144,-5.0743 0.92614,-6.744 0.3988,-1.71326 0.90736,-4.2804 1.13343,-5.7648 1.00817,-7.015 3.53552,-21.95554 4.24867,-25.2004 0.43566,-1.9828 0.82164,-4.14345 0.8037,-4.7699 -0.0193,-0.6713 0.33215,-2.4727 0.73462,-4.05165 0.44738,-1.58035 0.91504,-4.01195 1.01086,-5.35815 0.27466,-2.9187 1.11914,-7.82434 1.91662,-11.25074 0.31947,-1.35266 0.57887,-3.24096 0.55067,-4.22536 -0.0282,-0.9845 0.25293,-2.11216 0.59923,-2.5251 0.78114,-0.8733 3.16664,-16.0784 3.60328,-22.7188 0.11475,-2.2424 0.44568,-4.7598 0.6897,-5.6176 0.69152,-2.4381 0.56958,-19.1836 -0.20044,-24.1771 -0.33521,-2.3191 -0.88281,-7.364 -1.2157,-11.161 -0.54639,-6.5674 -2.02417,-17.497 -2.66101,-19.4043 -0.29675,-0.9768 -1.43701,-12.6326 -1.48193,-15.76613 -0.0295,-1.02917 -0.44532,-3.03247 -0.97852,-4.45017 -0.4873,-1.3744 -1.0603,-4.1792 -1.29822,-6.23245 -0.36462,-3.34825 -0.29052,-3.88782 0.7179,-6.20068 1.3446,-3.08387 1.20117,-6.52797 -0.42139,-8.45191 -1.11365,-1.35632 -1.06007,-2.61182 0.26026,-4.97839 0.59704,-1.04712 0.78479,-2.30652 0.71557,-4.72277 -0.095,-3.3113 0.65857,-11.3938 1.39966,-15.2217 0.23644,-1.12633 0.54164,-4.53856 0.67688,-7.6325 0.13526,-3.09375 0.45326,-7.626 0.7854,-10.09863 0.28736,-2.47131 0.50562,-5.79163 0.50426,-7.40367 -0.0461,-1.61086 0.0635,-4.03237 0.2488,-5.3811 0.18517,-1.3488 0.4956,-4.5822 0.6897,-7.1851 0.19396,-2.603 0.63085,-6.1086 0.94152,-7.7745 0.35388,-1.7119 0.68225,-4.31874 0.7727,-5.844 0.0907,-1.52516 0.6377,-4.3174 1.21155,-6.16993 0.65173,-2.25794 1.06567,-5.00147 1.19713,-8.22974 0.14394,-4.34813 0.3063,-4.93493 1.30336,-6.08313 0.6073,-0.68908 1.24134,-2.00598 1.34851,-2.94946 0.15343,-0.90014 0.82703,-2.39722 1.47253,-3.3114 1.55445,-2.01502 1.90577,-3.81641 1.17566,-5.85559 -0.48596,-1.32947 -0.45654,-1.86768 0.29494,-3.77015 0.5841,-1.49462 0.8499,-3.15924 0.79472,-5.0833 -0.0577,-2.01368 0.13648,-3.0493 0.57238,-3.46482 0.349,-0.32348 0.72474,-1.27466 0.87684,-2.21936 0.10866,-0.89892 0.50342,-2.74634 0.86768,-4.10022 0.80896,-3.02368 0.58691,-12.33215 -0.42346,-16.33374 -0.35559,-1.46766 -0.77016,-4.99366 -0.85096,-7.81262 -0.12805,-2.90724 -0.4314,-5.67517 -0.76513,-6.38208 -0.33374,-0.70703 -0.61267,-2.62464 -0.66017,-4.28028 -0.0473,-1.65564 -0.38512,-4.06421 -0.7816,-5.39636 -0.3517,-1.33349 -0.8684,-3.73678 -1.04883,-5.34384 -0.2251,-1.60571 -0.81861,-3.5592 -1.33387,-4.35046 -0.51782,-0.88099 -0.91687,-2.30262 -0.95288,-3.55542 -0.0679,-2.3716 -1.34532,-4.7533 -2.79002,-5.15967 -1.625,-0.44593 -3.64162,-5.18006 -4.31837,-10.04199 -0.83663,-5.75294 -0.83408,-5.66346 0.49414,-6.19422 0.61877,-0.2865 1.26818,-1.06628 1.51477,-1.83472 0.57641,-1.76306 2.86352,-3.2169 5.19043,-3.28356 2.41626,-0.0693 6.71301,-1.71509 7.70763,-2.95289 0.8628,-1.14428 0.91627,-3.96705 0.0327,-5.1062 -1.02172,-1.26941 0.4242,-2.38562 3.85548,-2.97655 3.2971,-0.58717 2.94433,-0.39796 7.23583,-3.79014 1.79492,-1.4397 4.02807,-3.20556 5.03809,-3.90613 1.00866,-0.74548 2.44934,-2.04077 3.23048,-2.91406 0.781,-0.87317 1.61192,-1.56885 1.83568,-1.5752 0.22362,-0.006 1.75134,-1.39379 3.3595,-3.09667 1.60692,-1.74793 5.00219,-5.15918 7.48217,-7.69336 5.8331,-5.85474 7.1229,-7.72779 8.30503,-11.79212 0.8551,-2.98022 0.91504,-4.01196 0.61645,-11.3031 -0.30749,-7.60437 -0.36511,-8.05042 -1.37903,-9.05136 -0.7378,-0.74023 -1.12658,-1.80383 -1.41052,-3.90051 -0.23681,-2.00843 -0.72522,-3.42749 -1.56396,-4.56787 -0.60739,-0.87818 -1.31712,-2.20142 -1.4719,-2.91346 -0.19946,-0.71082 -0.76842,-1.81408 -1.27734,-2.38159 -0.46545,-0.61365 -0.89771,-1.63135 -0.91821,-2.34729 -0.0205,-0.71594 -0.66127,-2.75757 -1.47583,-4.61524 -0.76978,-1.85863 -1.45264,-3.80956 -1.46802,-4.34655 -0.0154,-0.53685 -0.44885,-1.59935 -0.96167,-2.30115 -0.51405,-0.74658 -0.95007,-1.89843 -0.97058,-2.61438 -0.0706,-2.46106 -2.15003,-9.38769 -3.11914,-10.38989 -0.69177,-0.69666 -1.08435,-1.89453 -1.37097,-4.08081 -0.56043,-3.92482 -1.83656,-7.82895 -3.23156,-9.62522 -0.69825,-0.9204 -1.08827,-2.02868 -1.1216,-3.19213 -0.0282,-0.98437 -0.6765,-3.29467 -1.4912,-5.1521 -2.06263,-4.77747 -1.91956,-6.03552 0.85192,-7.77197 2.72693,-1.7351 3.12915,-6.44886 0.66541,-8.03528 -0.63928,-0.42945 -1.82837,-1.29102 -2.60693,-1.89576 l -1.42188,-1.16833 -0.49402,-6.30029 c -0.36108,-4.78148 -0.67956,-6.51891 -1.18835,-7.08641 -0.41553,-0.43604 -1.00135,-2.12085 -1.31848,-3.81348 -0.31604,-1.64795 -1.09997,-3.99902 -1.71619,-5.19055 -0.65991,-1.14539 -1.19312,-2.56323 -1.2085,-3.10022 -0.0167,-0.58167 -0.30688,-1.3346 -0.67518,-1.68238 -0.50756,-0.52282 -3.4603,-8.23045 -4.9348,-12.80088 -0.0985,-0.31055 -0.55628,-0.65576 -0.9641,-0.82312 -0.76845,-0.24683 -3.28724,-2.18982 -6.54884,-5.052 -2.43433,-2.12464 -5.60132,-3.24292 -10.08876,-3.56202 -3.76888,-0.25024 -3.9952,-0.33337 -6.6955,-2.36071 -1.51002,-1.1211 -3.57362,-2.80847 -4.58375,-3.67517 -0.96521,-0.86805 -2.10828,-1.68616 -2.55969,-1.80762 -2.14472,-0.50899 -5.0282,-0.86765 -7.29986,-0.86765 -0.40284,0 -0.78645,0.0113 -1.14326,0.035 -0.2706,0.0155 -0.54144,0.023 -0.80786,0.023 -1.27414,0 -2.44733,-0.17078 -3.01098,-0.45094 l -1.1366,-0.59436 1.6914,-0.36193 c 1.7821,-0.31982 4.0985,-2.31201 4.50244,-3.84619 0.11878,-0.54065 0.7157,-1.58777 1.27442,-2.40991 0.55994,-0.77747 1.02514,-1.7312 1.01611,-2.04443 -0.009,-0.31324 0.49085,-1.62622 1.03783,-2.85108 0.5906,-1.27087 1.04298,-2.67212 1.02894,-3.16443 -0.0142,-0.49218 0.14563,-1.16845 0.36036,-1.48803 0.0215,-0.0384 0.0511,-0.0566 0.0878,-0.0566 0.61668,0 3.23786,5.15204 3.279,6.58797 0.027,0.9397 1.68811,4.20605 2.75183,5.38464 0.41818,0.48743 1.30925,0.73397 2.17025,0.73397 0.76053,0 1.4976,-0.19237 1.86454,-0.58101 0.6521,-0.69031 0.54296,-4.49378 -0.15014,-6.80262 -0.29664,-0.9768 -1.68165,-3.9823 -3.1023,-6.67334 -1.42054,-2.69116 -2.9065,-6.0968 -3.35157,-7.56176 -0.44373,-1.4204 -1.13683,-3.72936 -1.53333,-5.06151 -0.44115,-1.33081 -0.80956,-3.24585 -0.83776,-4.23023 -0.0487,-1.70044 1.27746,-10.11291 2.04296,-13.09057 0.4447,-1.6698 0.29334,-6.94982 -0.36413,-11.14049 -0.44897,-3.16675 -1.38391,-6.0957 -2.90942,-9.32104 -0.47559,-0.97156 -1.14319,-2.3855 -1.43482,-3.18322 -0.33496,-0.75184 -0.98963,-1.71827 -1.49475,-2.15162 -0.45886,-0.38989 -0.87695,-0.91528 -0.88464,-1.18371 -0.006,-0.22376 -0.38501,-0.92945 -0.85034,-1.54309 -1.53955,-2.15015 -3.89905,-9.4718 -4.3252,-13.40051 -0.66528,-6.02673 -4.28296,-15.058706 -9.4488,-23.419416 -0.79796,-1.275879 -3.3424,-4.11377 -5.64257,-6.24231 -3.31403,-3.129264 -4.95831,-4.246574 -7.86187,-5.551504 -4.08226,-1.80872 -7.96896,-3.04077 -11.02579,-3.4458 -1.12377,-0.146853 -2.52367,-0.554568 -3.16175,-0.939456 -0.68429,-0.396881 -1.72852,-0.554164 -4.84109,-0.554164 -1.23761,0 -2.80219,0.02487 -4.80118,0.06942 l -8.50183,0.243652 -1.96869,1.623905 c -1.0943,0.8822 -3.8006,3.33325 -6.0249,5.41223 -2.22313,2.12377 -4.27869,3.83971 -4.59193,3.848746 -1.0739,0.03076 -5.1173,4.266724 -7.00145,7.276489 -1.79475,3.007075 -5.16687,7.223875 -7.91022,9.944705 -1.56726,1.5675 -3.55109,5.7893 -3.5036,7.44482 0.0179,0.626466 -0.20429,2.245003 -0.52381,3.597663 -0.31817,1.39746 -0.91222,5.66881 -1.29547,9.48644 -1.32452,13.15942 -1.45953,17.82067 -0.7937,28.54955 0.91547,14.75231 0.86078,17.53038 -0.28168,22.98192 -1.22039,5.85681 -1.55267,6.76196 -2.49231,6.78882 -1.16346,0.0333 -3.69592,2.30041 -3.66894,3.24011 0.0282,0.98438 2.77208,4.53319 4.46625,5.82799 0.77733,0.56006 2.31023,0.91907 4.51056,1.12463 1.83972,0.12635 4.49133,0.45337 5.88617,0.68225 1.3818,0.20902 2.46636,0.32227 3.38717,0.32227 1.5669,0 2.65958,-0.3279 3.93583,-1.0697 0.85488,-0.47269 1.38412,-0.69077 1.7182,-0.69077 0.1999,0 0.32995,0.0781 0.41802,0.22653 0.60743,0.87818 1.69861,7.69873 1.57478,9.62806 -0.0673,1.31388 -0.46116,1.96066 -1.26218,1.96066 -0.56608,0 -1.33548,-0.32303 -2.33664,-0.96188 -1.00232,-0.62748 -1.63923,-0.95556 -2.46033,-0.95556 -0.97195,0 -2.20205,0.45972 -4.60193,1.42674 -2.23428,0.88578 -3.19604,1.21578 -4.16418,1.21578 -0.50924,0 -1.02027,-0.0913 -1.71918,-0.24104 -0.83554,-0.16487 -1.69699,-0.24762 -2.57146,-0.24762 -2.23665,0 -4.55833,0.5413 -6.7485,1.63434 -1.6817,0.82338 -2.49697,1.18959 -3.21727,1.18959 -0.52817,0 -1.00528,-0.1969 -1.73548,-0.55483 -0.72619,-0.33752 -2.9815,-0.8999 -4.96185,-1.24622 -3.6897,-0.61071 -4.8277,-1.24975 -4.87256,-2.81591 -0.0128,-0.44751 -0.76727,-1.76929 -1.65204,-2.95313 -1.58166,-2.05944 -3.64306,-6.79211 -4.5562,-10.52781 -0.8135,-3.38013 -1.73915,-4.42847 -8.8621,-10.76258 -1.4231,-1.21313 -2.80908,-2.69604 -3.09296,-3.22534 -0.32861,-0.52783 -1.14941,-1.04175 -1.82574,-1.20153 -0.7198,-0.11365 -2.2221,-0.96631 -3.3664,-1.82923 -1.14557,-0.90747 -3.3767,-2.18701 -4.9646,-2.90283 -2.2834,-0.96994 -2.98736,-1.16072 -7.09515,-1.16072 -0.86715,0 -1.88595,0.008 -3.10333,0.02 -6.85138,0.0173 -7.38574,0.12219 -8.25757,0.95325 -0.52155,0.55236 -2.55042,1.6405 -4.49738,2.45764 -1.94708,0.81714 -4.33392,1.91565 -5.35022,2.39258 -1.20433,0.63379 -2.26365,0.95547 -3.08207,0.95547 -0.71059,0 -1.2396,-0.2425 -1.52423,-0.73379 -0.23529,-0.39636 -0.7826,-2.3064 -1.28528,-4.21765 -0.90801,-3.55663 -1.1881,-3.95165 -5.09024,-7.28807 -0.96405,-0.82323 -1.6175,-1.74498 -1.49347,-2.10668 0.12524,-0.31714 0.81793,-2.71057 1.50677,-5.23804 0.68891,-2.5277 1.51586,-4.92492 1.81877,-5.29187 0.30298,-0.36694 0.68262,-1.18396 0.84363,-1.81555 0.16101,-0.63159 0.83081,-2.26294 1.46349,-3.62452 1.09546,-2.40491 2.34149,-7.3667 3.28563,-13.48437 0.30157,-1.97913 0.80005,-3.33679 1.57855,-4.29956 0.64941,-0.78003 1.96985,-3.14661 2.98346,-5.28052 0.96881,-2.13257 2.32117,-4.94787 2.99866,-6.31078 1.56708,-3.134893 1.66131,-7.660773 0.15643,-8.602913 -1.18652,-0.77209 -1.34143,-3.05151 -0.54797,-8.17956 0.76025,-4.723995 0.73443,-7.1864 -0.0623,-9.98486 -0.54993,-1.99939 -0.55249,-2.08887 0.80255,-3.24743 0.698,-0.64685 1.96869,-1.62378 2.80481,-2.14026 1.05591,-0.657346 1.61322,-1.52417 2.06317,-3.01501 0.32331,-1.218386 0.96503,-2.26685 1.49555,-2.50586 1.45733,-0.713502 2.46826,-4.50427 2.06402,-7.67236 -0.40173,-3.078492 -1.57574,-6.53796 -2.74182,-8.161496 -0.46545,-0.613648 -0.98462,-1.539064 -1.1355,-2.117064 -0.19568,-0.57654 -1.12524,-1.759035 -2.04712,-2.673093 -0.92309,-0.958617 -2.17108,-2.31128 -2.77453,-3.055177 -0.6969,-0.87573 -1.60724,-1.386962 -2.7323,-1.578735 -2.11463,-0.342405 -5.25214,-1.999023 -6.18553,-3.31567 -0.60865,-0.923095 -0.61512,-1.14685 -0.0986,-1.878175 0.73248,-1.006224 0.74243,-3.78308 0.0301,-5.195675 -0.76208,-1.590332 -4.39184,-3.232786 -8.39093,-3.700315 -1.93304,-0.258057 -4.45941,-0.902222 -5.59344,-1.407105 -2.5073,-1.165033 -4.1642,-1.658159 -5.94626,-1.658159 -0.73419,0 -1.48961,0.0837 -2.3345,0.238604 -0.90239,0.16761 -1.9682,0.268153 -2.82352,0.268153 -0.4958,0 -0.92087,-0.03379 -1.20236,-0.107875 -0.76587,-0.157349 -2.65936,-0.59558 -4.14881,-1.000731 -1.34324,-0.318287 -2.70335,-0.474873 -4.03208,-0.474873 z"
         id="path2"
         inkscape:connector-curvature="0" />
    </g>
  </g>
</svg>
