<?xml version="1.0" encoding="UTF-8" standalone="no"?>
<!-- Created with Inkscape (http://www.inkscape.org/) -->

<svg
   xmlns:dc="http://purl.org/dc/elements/1.1/"
   xmlns:cc="http://creativecommons.org/ns#"
   xmlns:rdf="http://www.w3.org/1999/02/22-rdf-syntax-ns#"
   xmlns:svg="http://www.w3.org/2000/svg"
   xmlns="http://www.w3.org/2000/svg"
   xmlns:sodipodi="http://sodipodi.sourceforge.net/DTD/sodipodi-0.dtd"
   xmlns:inkscape="http://www.inkscape.org/namespaces/inkscape"
   width="25.849012mm"
   height="87.229744mm"
   viewBox="0 0 25.849012 87.229744"
   version="1.1"
   id="svg1423"
   inkscape:version="0.92.4 (5da689c313, 2019-01-14)"
   sodipodi:docname="man walking suitcase frontal.svg">
  <defs
     id="defs1417" />
  <sodipodi:namedview
     id="base"
     pagecolor="#ffffff"
     bordercolor="#666666"
     borderopacity="1.0"
     inkscape:pageopacity="0.0"
     inkscape:pageshadow="2"
     inkscape:zoom="1.4"
     inkscape:cx="-311.73606"
     inkscape:cy="257.86748"
     inkscape:document-units="mm"
     inkscape:current-layer="layer1"
     showgrid="false"
     fit-margin-top="0"
     fit-margin-left="0"
     fit-margin-right="0"
     fit-margin-bottom="0"
     inkscape:window-width="1920"
     inkscape:window-height="1048"
     inkscape:window-x="0"
     inkscape:window-y="0"
     inkscape:window-maximized="1" />
  <metadata
     id="metadata1420">
    <rdf:RDF>
      <cc:Work
         rdf:about="">
        <dc:format>image/svg+xml</dc:format>
        <dc:type
           rdf:resource="http://purl.org/dc/dcmitype/StillImage" />
        <dc:title></dc:title>
      </cc:Work>
    </rdf:RDF>
  </metadata>
  <g
     inkscape:label="Ebene 1"
     inkscape:groupmode="layer"
     id="layer1"
     transform="translate(-116.34331,-118.82567)">
    <path
       inkscape:connector-curvature="0"
       style="clip-rule:evenodd;fill-rule:evenodd;stroke-width:0.26458156"
       d="m 141.97628,194.23426 c 0.25479,-1.05092 -0.15293,-1.52293 -0.40296,-2.37383 l -0.0444,-0.80644 c -0.11192,-0.34237 -0.33337,-0.71226 -0.49292,-1.075 -0.48418,-1.10013 -1.12844,-2.21349 -1.61262,-3.31468 -0.19473,-0.4429 -0.2966,-0.84745 -0.49265,-1.29909 -0.1024,-0.23601 -0.72046,-1.4425 -0.71675,-1.61289 0.002,-0.0913 0.15134,-0.16034 0.0897,-0.31353 -0.0598,-0.045 -0.11933,-0.0894 -0.17913,-0.13441 -0.24976,-0.38337 -0.32649,-0.83158 -0.58234,-1.2094 -0.28495,-0.42095 -0.77178,-0.65642 -0.94059,-1.2094 -0.2487,-0.81438 -0.15266,-1.79307 -0.35824,-2.6429 -0.52705,-2.17725 -0.53737,-4.577 -1.07499,-6.71932 -0.20797,-0.82761 -0.21273,-1.68512 -0.40323,-2.46378 -0.072,-0.29475 0.001,-0.58975 -0.1344,-0.80645 v -0.045 c 0.22833,0.077 0.37253,0.2921 0.58234,0.35825 0.24289,0.077 0.31247,-0.10901 0.40296,-0.13441 0.15107,-0.0418 0.45905,0.10557 0.58261,0.13441 0.12726,-0.14341 0.21854,-0.31142 0.31352,-0.49265 0.13388,-0.0209 0.26988,0.005 0.35825,-0.0444 0.21696,-0.0992 0.31062,-0.40878 0.40322,-0.62733 0.11404,-0.0106 0.21299,0.0201 0.31353,-0.0447 0.20346,-0.10345 0.23971,-0.34634 0.35824,-0.53763 0.22781,-0.36724 0.43736,-0.69585 0.53763,-1.2094 0.041,-0.21034 -0.0503,-0.66198 -0.0897,-0.85116 v -0.62706 c -0.1561,-0.72204 -0.20558,-1.77984 0.0447,-2.37435 0.26908,-0.10901 0.7239,-0.0976 1.11998,-0.0894 0.11191,-0.9525 0.12726,-1.79836 0.31353,-2.64291 0.1471,-0.66648 -0.20267,-1.565 -0.0897,-2.10527 0.0831,-0.3974 0.18203,-0.93688 0.2241,-1.34381 -0.0445,-0.32861 -0.0894,-0.65696 -0.13441,-0.98557 0.0304,-0.2487 0.0802,-0.65034 0.13441,-0.89587 0.0151,-0.46275 0.0299,-0.92577 0.0447,-1.38879 0.0757,-0.31511 0.30215,-0.8337 0.2241,-1.2094 -0.27834,-1.33667 -0.45191,-2.72466 -0.76147,-4.07615 -0.0151,-0.40322 -0.0299,-0.80644 -0.0447,-1.2094 -0.11086,-0.44502 -0.17462,-0.94138 -0.31353,-1.4335 -0.16695,-0.59107 -0.34263,-1.23771 -0.58234,-1.79175 -0.11139,-0.25743 -0.322,-0.5752 -0.40322,-0.85089 -0.0299,-0.31379 -0.0595,-0.62732 -0.0894,-0.94085 -0.45403,-1.88118 -0.23945,-4.18859 -1.16469,-5.55463 -0.5887,-0.86915 -1.51844,-1.63538 -2.41907,-2.1947 -0.2958,-0.18389 -0.60087,-0.26326 -0.89561,-0.44794 -0.47651,-0.29845 -0.86915,-0.7784 -1.34407,-1.07499 -0.60325,-0.37677 -1.68671,-0.7366 -2.10528,-1.25438 -0.13679,0.0445 -0.16642,0.0963 -0.31353,0.1344 -0.26564,-0.37676 -0.6723,-0.63843 -0.80644,-1.16468 -0.0849,-0.33311 0.2741,-1.12792 0.35824,-1.38879 0.20902,-0.64664 0.32835,-1.33799 0.49265,-1.97114 0.0151,-0.34316 0.0299,-0.68685 0.0447,-1.03028 0.118,-0.33866 0.36883,-0.61303 0.26882,-1.11971 0.0299,-0.0299 0.0598,-0.0598 0.0894,-0.0897 0.20716,0.004 0.26987,0.0193 0.35824,0.13441 h 0.13441 c -0.0442,-0.12039 -0.14737,-0.14446 -0.17912,-0.2241 -0.0601,-0.15108 0.0685,-0.78396 0.0894,-0.98557 0.0177,-0.17118 -0.14287,-0.21325 -0.13441,-0.31353 0.0299,-0.0299 0.0598,-0.0598 0.0894,-0.0897 -0.0685,-0.32306 -0.41909,-0.34316 -0.58234,-0.67177 -0.004,-0.0611 -0.0111,-0.063 0.0897,-0.13441 -0.0749,-0.0389 -0.13388,0.008 -0.2241,-0.0447 -0.22119,-0.12727 -0.30004,-0.59981 -0.13414,-0.76147 -0.0331,-0.23574 -0.25744,-0.40799 -0.40323,-0.53763 -0.002,-0.002 -0.98027,0.34951 -1.11997,0.44794 -0.14737,-0.0905 -0.0804,-0.24977 -0.0447,-0.40323 -0.25744,-0.11377 -1.692,-0.77601 -1.97087,-0.62705 0,0 -0.17595,-0.0103 -0.0897,-0.0447 l 0.0447,-0.0447 c -0.26485,0.0402 -0.50985,-0.15955 -0.76147,-0.13441 -0.0701,0.007 -0.28151,0.12515 -0.31353,0.13441 -0.20293,0.0598 -0.53763,-0.13785 -0.71675,-0.17913 -0.26193,-0.0606 -0.56488,0.0759 -0.76146,0.0447 -0.39344,-0.0624 -0.93424,-0.0222 -1.34408,-0.13441 -0.16086,-0.0442 -0.4347,-0.18018 -0.58234,-0.22383 -0.28575,-0.0847 -0.0825,0.14922 -0.35824,0 -0.13706,0.24711 -0.0312,0.40745 -0.13441,0.58234 v 0.0894 c -0.19156,-0.0362 -0.29713,-0.15028 -0.40322,-0.26882 h -0.0897 c 0.0762,0.12885 0.13097,0.19817 0.26882,0.26882 v 0.13441 c -0.24448,-0.0529 -0.58605,0.006 -0.58235,0.17912 -0.17303,-0.005 -0.22754,-0.0101 -0.31353,-0.0897 h -0.13467 c 0.13335,0.17066 0.32597,0.1315 0.49292,0.26882 0.0362,0.0299 0.17727,0.31935 0.26881,0.40322 -0.0328,0.4318 -0.26855,0.61304 -0.31353,0.94059 -0.0286,0.20822 0.0918,0.27278 0.13441,0.40322 -0.0151,0.13441 -0.0296,0.26882 -0.0447,0.40296 0.20558,-0.0376 0.31273,-0.16669 0.40295,-0.31353 h 0.0447 c -0.055,0.68262 -1.68935,1.97854 -0.76147,2.86674 -0.0386,0.55165 -0.48736,0.79719 -0.71648,1.16469 -0.12674,0.2032 -0.15637,0.41804 -0.31353,0.58234 -0.0151,0.54848 0.13837,0.48286 0.40295,0.71675 0.30824,-0.0164 0.42651,-0.007 0.49292,0.2241 0.12779,0.18336 0.0569,0.39846 0.0447,0.67204 0.28575,0.0373 0.54716,0.20267 0.62706,0.44794 h 0.0447 c -0.0638,0.11271 -0.33999,0.24897 -0.44794,0.31353 0.0161,0.30506 0.18997,0.47519 0.35824,0.62706 -0.0627,0.28786 -0.38126,0.65431 -0.1344,0.98556 0.26511,0.5371 1.35465,0.25744 1.97113,0.44794 0.32543,0.10054 0.8964,0.41063 1.07499,0.67204 0.15637,0.22886 0.13309,0.56461 0.31353,0.76146 -0.0609,0.25823 -0.1778,0.18812 -0.35824,0.3138 -0.16722,0.11615 -0.24739,0.37147 -0.40322,0.49265 -0.18812,0.14657 -0.42413,0.18573 -0.62706,0.31353 -0.57891,0.36459 -0.99695,0.90275 -1.52293,1.29909 -0.50086,0.37729 -1.13797,0.77443 -1.34381,1.4335 -0.0897,0.67204 -0.17912,1.34381 -0.26882,2.01585 0.0394,0.29422 0.15663,0.89852 0.0894,1.20967 -0.22225,1.02869 -0.11985,2.35901 -0.35824,3.44908 -0.10583,0.48392 0.005,1.00277 -0.0894,1.43324 0.0148,1.2094 0.0296,2.41907 0.0447,3.62847 -0.10345,0.46911 -0.0476,1.00647 -0.0447,1.47822 -0.0148,0.14922 -0.0299,0.29871 -0.0447,0.44794 0.0204,0.13361 0.0984,0.46883 0.0447,0.67203 -0.14076,0.53155 -0.21431,1.01997 -0.13441,1.61263 0.0794,0.59001 -0.35533,1.18638 -0.2241,1.79174 0.14817,0.68289 0.0897,1.32661 0.0897,2.10528 v 0.85116 c -0.0571,0.26008 0.0336,0.71807 -0.0447,1.03054 -0.0675,0.26961 -0.23495,0.66066 -0.26882,0.85116 v 1.16443 c -0.0733,0.30956 -0.20531,0.79427 -0.17885,1.07499 0.0418,0.44714 -0.17489,0.93371 -0.26882,1.25412 -0.0299,0.35824 -0.0598,0.71675 -0.0894,1.07499 -0.28601,0.89984 -0.88502,1.68962 -1.29936,2.5085 -0.13202,0.26061 -0.003,0.62785 -0.0894,0.98557 -0.0439,0.18203 -0.13679,0.44476 -0.17913,0.62705 -0.0288,0.12515 0.006,0.29845 0.045,0.35825 0.0524,0.37464 0.49292,0.49106 0.67177,0.76146 0.0897,0.26908 0.17913,0.53763 0.26882,0.80645 0.19897,0.48312 0.42836,1.04007 0.62706,1.52319 0.53392,1.29619 0.92656,2.53628 1.47822,3.80786 0.16113,0.37094 0.31379,0.89085 0.53736,1.25385 0.073,0.11853 0.21696,0.21114 0.26882,0.35825 0.15927,0.45323 0.0159,0.97524 0.1344,1.47821 0.21405,0.90937 0.36962,1.78302 0.58235,2.68762 v 0.58261 c 0,1.31576 -0.69982,1.65575 -1.20941,2.4188 -0.23389,0.35005 -0.31088,0.71888 -0.44793,1.1647 -0.0775,0.25214 -0.23495,0.71939 -0.13441,1.1197 0.19817,0.78872 0.55694,1.47319 0.85089,2.15026 0.26617,0.6125 0.44741,1.17844 0.71676,1.79148 0.16536,0.37703 0.49953,0.77549 0.62732,1.16469 0.0148,1.25438 0.0299,2.50849 0.0447,3.76288 0.001,0.57811 0.11271,1.0816 0.2241,1.56791 0.14182,0.62044 0.003,1.33931 0.13441,1.92615 0.0299,0.71675 0.0595,1.4335 0.0894,2.14999 0.15531,0.47704 0.57308,0.85063 0.85116,1.20967 0.18838,0 0.30321,-0.01 0.40322,-0.0897 0.10319,0.0145 0.11112,0.0206 0.17912,0.0447 -0.0161,0.14604 -0.15028,0.47704 -0.2241,0.58208 -0.0722,0.0468 -0.28548,0.045 -0.35824,0.0897 -0.23733,0.20187 -0.26088,0.67124 -0.58235,0.85142 -0.14922,0.0299 -0.29871,0.0598 -0.44793,0.0897 -0.22119,0.11297 -0.38629,0.39237 -0.58235,0.53736 -0.33654,0.24871 -0.72204,0.3847 -1.07499,0.62733 -0.12594,0.0862 -0.2122,0.22754 -0.35824,0.31353 -0.0275,0.34184 -0.11483,0.60112 -0.0897,0.89587 0.24686,0.0865 0.5633,0.0556 0.85116,0.13441 1.05753,0.28892 2.85378,0.49397 4.12112,0.17938 0.37809,-0.0939 0.74877,-0.34713 1.075,-0.44793 0.34343,0.0151 0.68685,0.0299 1.03028,0.045 -0.005,0.16509 -0.0196,0.39608 0.0447,0.49238 v 0.0897 c 2.50797,0.54107 5.35592,-0.6977 6.31609,-2.14998 0.29633,-0.44794 0.40904,-1.02394 0.62706,-1.5232 0.19711,-0.45058 0.58657,-0.84296 0.71675,-1.34408 0.89323,0.0725 2.114,0.21643 2.82203,0.53763 0.0759,0.21167 0.0974,0.50482 0.2241,0.67178 0.11721,0.17462 0.28442,0.18812 0.44767,0.31379 0.63764,0.004 0.90116,-0.38391 1.07526,-0.85089 0.20902,0.0299 0.41804,0.0598 0.62732,0.0892 0.74638,-0.20452 1.01308,-1.06759 1.34381,-1.70206 0.0431,-0.0825 0.19949,-0.23865 0.2241,-0.31353 -0.0151,-0.14948 -0.0296,-0.29871 -0.0447,-0.44793 0.34687,-1.09087 1.34011,-1.79942 0.67177,-3.35966 0.93636,-0.55589 0.0603,-0.93609 0.22357,-1.61262 z M 119.6239,173.31512 c -0.40799,-0.98954 -0.84031,-2.04892 -1.25438,-3.04587 -0.17119,-0.41274 -0.22172,-0.93608 -0.49265,-1.25438 v -0.0897 c 0.15901,0.0751 0.36909,0.15267 0.49265,0.26908 0.28204,-0.0151 1.03107,-0.32041 1.16468,-0.49265 0.24289,0.36592 0.0659,1.31841 0.17913,1.83646 0.14261,0.65193 0.0249,1.39752 0.17912,2.10528 0.13255,0.60854 0.18309,1.40255 0.17912,2.06082 -0.27278,-0.34157 -0.27225,-0.96334 -0.44767,-1.38905 z m 16.52947,7.74986 c -0.31327,-0.15981 -0.644,-0.35031 -1.03029,-0.44794 -0.25558,-0.0646 -0.64822,-2.6e-4 -0.85115,-0.0447 -0.32861,-0.0717 -0.87974,0.0302 -1.16469,0.0897 h -1.2991 c -0.0995,0 -0.38285,0.0508 -0.40296,0.0447 -0.0746,-0.0897 -0.14922,-0.17939 -0.2241,-0.26908 -0.21457,-0.12144 -1.20622,-0.22701 -1.34381,-0.0894 -0.0921,-0.0177 -0.0865,-0.0111 -0.13467,-0.0447 -0.11033,-0.14288 -0.0571,-0.3937 -0.13414,-0.58261 -0.10319,-0.25188 -0.31274,-0.45773 -0.44794,-0.67177 -0.0151,-0.0151 -0.0299,-0.0299 -0.0447,-0.045 0.10451,-0.0746 0.20902,-0.14896 0.31353,-0.22384 0.006,-0.42227 0.10372,-1.06309 0,-1.25438 0.0402,-0.46963 0.47281,-0.57758 0.67177,-0.89561 0.47493,-0.75988 0.74163,-1.6711 1.25439,-2.37435 0.42174,0.005 1.89863,0.11403 2.14999,-0.045 h 1.70231 c -0.0386,0.0294 -0.14049,0.0606 -0.17912,0.0897 -0.0278,0.046 0.20717,1.31364 0.26855,1.56791 0.28998,1.19405 0.28654,2.58363 0.58261,3.71816 0.12277,0.47175 0.0712,1.03372 0.31353,1.38853 z"
       id="path4" />
  </g>
</svg>
