<?xml version="1.0" encoding="UTF-8" standalone="no"?>
<svg
   xmlns:dc="http://purl.org/dc/elements/1.1/"
   xmlns:cc="http://creativecommons.org/ns#"
   xmlns:rdf="http://www.w3.org/1999/02/22-rdf-syntax-ns#"
   xmlns:svg="http://www.w3.org/2000/svg"
   xmlns="http://www.w3.org/2000/svg"
   xmlns:xlink="http://www.w3.org/1999/xlink"
   xmlns:sodipodi="http://sodipodi.sourceforge.net/DTD/sodipodi-0.dtd"
   xmlns:inkscape="http://www.inkscape.org/namespaces/inkscape"
   viewBox="0 0 313.62659 461.40958"
   version="1.1"
   id="svg16"
   sodipodi:docname="businessman walking calling suitcase.svg"
   width="313.62659"
   height="461.40958"
   inkscape:version="0.92.4 (5da689c313, 2019-01-14)">
  <metadata
     id="metadata20">
    <rdf:RDF>
      <cc:Work
         rdf:about="">
        <dc:format>image/svg+xml</dc:format>
        <dc:type
           rdf:resource="http://purl.org/dc/dcmitype/StillImage" />
        <dc:title></dc:title>
      </cc:Work>
    </rdf:RDF>
  </metadata>
  <sodipodi:namedview
     pagecolor="#ffffff"
     bordercolor="#666666"
     borderopacity="1"
     objecttolerance="10"
     gridtolerance="10"
     guidetolerance="10"
     inkscape:pageopacity="0"
     inkscape:pageshadow="2"
     inkscape:window-width="640"
     inkscape:window-height="512"
     id="namedview18"
     showgrid="false"
     fit-margin-top="0"
     fit-margin-left="0"
     fit-margin-right="0"
     fit-margin-bottom="0"
     inkscape:zoom="0.49166667"
     inkscape:cx="319.11259"
     inkscape:cy="223.39193"
     inkscape:window-x="0"
     inkscape:window-y="0"
     inkscape:window-maximized="0"
     inkscape:current-layer="svg16" />
  <defs
     id="defs6">
    <clipPath
       id="b">
      <use
         xlink:href="#a"
         id="use2"
         x="0"
         y="0"
         width="100%"
         height="100%" />
    </clipPath>
    <path
       id="a"
       d="m 25.944,7.285 1.585,-3.616 c 0,0 0.382,-0.423 0.783,-0.127 l 2.114,1.988 c 0,0 0.339,0.253 0,1.015 l -1.304,2.579 c 0,0 -1.311,0.79 -1.621,0.845 0,0 -0.227,0.127 -0.367,-0.14 L 26.12,7.715 c 9.99e-4,0 -0.196,-0.324 -0.176,-0.43 z"
       inkscape:connector-curvature="0" />
  </defs>
  <path
     d="m 312.48259,417.86763 c 0,0 2.574,5.2602 0,9.9355 0,0 -22.364,21.326 -24.424,21.907 0,0 -0.004,8.4753 -1.289,10.811 0,0 -4.3659,2.6346 -8.7359,-1.17 l -4.3739,-5.555 c 0,0 -6.1698,3.2196 -10.799,-0.58044 l -49.366,-75.956 c 0,0 -8.4804,-12.851 -8.225,-20.742 l 0.2554,-2.0406 -43.711,-63.984 2.3147,-4.3805 42.941,64.855 1.7998,-1.7549 -46.026,-71.866 2.3147,-4.385 43.711,70.115 c 0,0 3.5917,-0.29019 6.1738,-0.29019 0,0 5.9064,-11.976 20.054,-10.811 0,0 13.102,-3.5053 27.76,12.856 l 49.626,73.035 z"
     id="path8"
     inkscape:connector-curvature="0" />
  <path
     d="m 1.8545926,408.78763 c 2.191,-0.76639 7.2553,2.1041 7.2553,2.1041 l 20.7560004,6.5254 c 3.2086,-0.19046 10.971,-4.6027 10.971,-4.6027 0,0 1.0137,1.9136 -0.50683,-1.5327 -1.5165,-3.4554 0.84605,-7.8631 0.84605,-7.8631 l 29.368,-48.897 c 7.0837,-9.3958 9.7815,-22.818 9.7815,-22.818 -1.3489,-3.8408 2.7058,-12.47 2.7058,-12.47 1.6841,-3.0655 2.195,-4.0268 1.5205,-6.7113 -0.67844,-2.6845 1.1773,-8.244 1.1773,-8.244 4.3899,-7.4822 14.853997,-54.271 14.853997,-54.271 -0.16761,-1.7277 -3.543797,-3.6413 -3.543797,-3.6413 -2.3666,-2.1086 -1.1853,-2.6845 -1.1853,-2.6845 1.6921,-4.6027 4.729097,-21.29 5.571197,-25.122 0.84206,-3.8318 0.67844,-13.232 0.67844,-16.683 0,-3.4509 3.033,-28.568 3.033,-28.568 0.84205,-10.167 -2.3626,-42.762 -2.3626,-42.762 l -11.979997,12.847 c -8.1013,11.119 -16.542,9.2008 -16.542,9.2008 -6.4132,-3.2604 -6.5768,-14.765 -6.7484,-15.146 -3.6037,-8.1942 6.5768,-30.11 6.5768,-30.11 3.2126,-7.477699 13.333,-27.420999 14.008,-29.719999 0.67844,-2.2991 -0.16362,-22.628 -0.16362,-22.628 0.16362,-7.4777 5.5672,-16.302 5.5672,-16.302 5.4035,-3.0654 9.282597,-8.4345 9.282597,-8.4345 0,0 0,-3.4509 -0.50683,-6.7113 -0.50683,-3.2604 1.0137,-8.6249 1.0137,-8.6249 5.7388,-17.454 28.69,-14.76900002 28.69,-14.76900002 14.008,4.02680002 14.682,25.31700002 14.682,25.31700002 -0.1716,10.162 -6.9201,22.433 -6.9201,22.433 -1.1813,4.4122 3.7154,12.847 3.7154,12.847 4.0507,4.7931 22.105,21.476 22.105,21.476 8.9474,9.3958 11.31,34.326999 11.31,34.326999 -1.6881,6.5209 -0.50682,28.763 -0.50682,28.763 2.1949,6.5163 1.8557,17.644 1.8557,17.644 -1.5205,8.0536 -3.8831,33.942 -3.8831,36.432 0,2.4941 8.1013,40.463 8.1013,40.463 3.5438,9.2054 -5.5712,8.82 -5.5712,8.82 -5.5712,3.0654 -3.5478,11.314 -3.5478,11.314 -0.17162,5.7545 6.078,47.94 6.078,47.94 1.3489,9.7767 20.92,53.695 20.92,53.695 10.971,17.83 20.76,73.824 20.76,73.824 1.0137,5.9449 1.5165,9.5863 1.5165,9.5863 l -11.641,3.6459 c -2.8734,0.95682 -4.9007,0.38092 -4.9007,0.38092 l -2.5182,-3.6414 -8.6082,5.1786 c -11.306,4.2218 -33.754,2.2991 -33.754,2.2991 -4.8927,-0.95682 -7.0837,-2.4896 -7.0837,-2.4896 0,-2.3036 0.84206,-3.6459 1.8557,-3.8363 1.0136,-0.19046 18.9,-5.7545 18.9,-5.7545 4.8967,-2.4941 13.501,-19.368 13.501,-19.368 -0.16762,-3.07 -18.729,-41.034 -18.729,-41.034 -4.0546,-6.9018 -4.8967,-15.726 -6.2416,-20.134 -1.3489,-4.4122 -5.7388,-15.531 -5.7388,-15.531 -1.1813,-0.95682 -3.5438,-3.0655 -3.5438,-3.0655 -2.8694,-4.4168 -19.579,-34.328 -20.421,-34.713 -0.84206,-0.37637 -29.025,58.683 -29.025,58.683 -3.5478,10.929 -30.880997,52.543 -32.907997,57.717 -2.0273,5.1786 -12.487,23.975 -12.487,23.975 -2.6978,4.5982 -5.9064,7.0877 -5.9064,7.0877 l -12.826,-9.2008 c -1.6881,-1.7232 -0.50684,-4.6027 -0.50684,-4.6027 -5.2319,0.57135 -17.715,-8.0536 -17.715,-8.0536 -7.4269,-3.8363 -21.77400035,-21.286 -21.77400035,-21.286 -1.69610005,-2.3081 1.34089995,-2.4986 1.34089995,-2.4986 z M 114.33459,65.827631 c 0,0 -4.4737,-5.9495 -5.2319,-4.9836 0,0 -1.6881,12.752 -4.8967,15.336 l -1.4327,1.6325 3.2046,4.3125 -0.9219,7.7679 10.041,-18.506 c 0,0 1.5205,-2.1086 -0.76224,-5.5595 z"
     id="path10"
     inkscape:connector-curvature="0" />
  <use
     transform="matrix(3.9908,0,0,4.5347,-0.00512135,-0.00293702)"
     xlink:href="#a"
     id="use12"
     x="0"
     y="0"
     width="100%"
     height="100%" />
  <path
     d="M 104.22,38.502 110.3539,22.2 c 0,0 1.1813,-1.9816 2.8135,-0.4444 l 6.6886,6.8383 c 0,0 1.0735,1.2153 0.0639,3.7048 l -8.8356,18.152 -6.8642,-11.949 z"
     clip-path="url(#b)"
     id="path14"
     inkscape:connector-curvature="0"
     transform="translate(-0.88740735,-1.982369)" />
</svg>
