<?xml version="1.0" encoding="UTF-8" standalone="no"?>
<svg
   xmlns:dc="http://purl.org/dc/elements/1.1/"
   xmlns:cc="http://creativecommons.org/ns#"
   xmlns:rdf="http://www.w3.org/1999/02/22-rdf-syntax-ns#"
   xmlns:svg="http://www.w3.org/2000/svg"
   xmlns="http://www.w3.org/2000/svg"
   xmlns:sodipodi="http://sodipodi.sourceforge.net/DTD/sodipodi-0.dtd"
   xmlns:inkscape="http://www.inkscape.org/namespaces/inkscape"
   version="1.1"
   id="Layer_1"
   x="0px"
   y="0px"
   viewBox="0 0 302.36221 530.13208"
   xml:space="preserve"
   sodipodi:docname="alone_moving_male3.svg"
   width="302.36221"
   height="530.13208"
   inkscape:export-filename="/home/alarith/Projekte/AIPS/01_LaufendeAktivitäten/Silhouetten/silhouettes/alone_moving_male/alone_moving_male3.svg.png"
   inkscape:export-xdpi="300"
   inkscape:export-ydpi="300"
   inkscape:version="0.92.4 (5da689c313, 2019-01-14)"><metadata
   id="metadata9"><rdf:RDF><cc:Work
       rdf:about=""><dc:format>image/svg+xml</dc:format><dc:type
         rdf:resource="http://purl.org/dc/dcmitype/StillImage" /><dc:title></dc:title></cc:Work></rdf:RDF></metadata><defs
   id="defs7" /><sodipodi:namedview
   pagecolor="#ffffff"
   bordercolor="#666666"
   borderopacity="1"
   objecttolerance="10"
   gridtolerance="10"
   guidetolerance="10"
   inkscape:pageopacity="0"
   inkscape:pageshadow="2"
   inkscape:window-width="1920"
   inkscape:window-height="1048"
   id="namedview5"
   showgrid="false"
   fit-margin-top="0"
   fit-margin-left="0"
   fit-margin-right="0"
   fit-margin-bottom="0"
   inkscape:zoom="0.7552"
   inkscape:cx="-110.58898"
   inkscape:cy="208.44549"
   inkscape:window-x="0"
   inkscape:window-y="0"
   inkscape:window-maximized="1"
   inkscape:current-layer="Layer_1" />
<path
   d="m 142.80017,0.46106628 c 0.91175,-0.3816 1.95073,-0.5831 2.9367,-0.3816 0.80574,0.1378 1.10259,1.12370002 1.92953,1.24040002 1.32522,0.4877 13.31586,-2.4172 21.21421,11.4180997 1.00717,1.145 1.28281,2.6929 1.94013,4.0393 0.94356,1.9189 0.77393,4.2725 2.19457,5.9688 1.25101,3.0321 0.81634,6.3929 1.03898,9.6052 0.45587,0.4771 1.29342,0.5831 1.46304,1.3041 0.13783,0.7315 0.0424,1.4948 0.26505,2.2263 0.87995,3.4138 -2.62925,9.8067 -2.40661,12.0119 0.0636,0.4665 -0.0848,0.9223 -0.32866,1.3146 -0.5937,0.5513 -1.53726,0.5725 -2.06735,1.2086 -0.50888,0.4665 -0.24384,1.2192 -0.45587,1.8023 -0.26505,0.7634 -0.5407,1.5267 -0.68912,2.3324 0.81634,0.3605 1.72809,0.2757 2.59744,0.4135 3.71063,0.3287 7.26224,1.5373 10.76083,2.7565 3.26536,0.4028 14.40785,1.2616 36.4384,11.2485 1.88712,0.9223 1.13439,0.7633 2.63985,2.7034 10.72903,13.0403 15.34081,39.131304 19.35889,46.796404 0.39227,0.7527 0.5725,1.5903 0.63611,2.4278 0.26505,3.0639 3.62582,6.7534 3.4986,8.7889 -2.09916,2.5656 -4.52697,3.4774 -4.27253,4.527 0.33926,1.3782 3.38198,14.7471 3.81665,16.3374 0.79513,2.5656 3.90146,9.8596 2.9579,15.7648 -0.0742,0.88 0.21204,1.7493 0.19084,2.6399 0.13782,2.2794 -2.12037,16.613 -2.3324,18.6486 -0.27565,1.8023 -0.94356,3.5092 -1.22981,5.3115 -2.71406,15.5846 -2.71406,10.6018 -4.15591,16.1889 -0.30745,1.2086 -0.86935,2.3218 -1.2086,3.5304 -0.0742,0.2333 -1.12379,4.8769 -1.66449,6.1491 -0.16963,0.3392 -0.19083,0.7209 -0.0954,1.1026 0.31805,1.4206 -0.0742,6.6897 1.97193,9.1493 1.29342,2.0356 1.1556,0.3075 1.145,8.7359 0.0636,1.8341 1.198,3.4774 0.97536,5.3433 -0.26504,2.1628 -0.12722,4.3786 0.51949,6.4671 0.33926,0.8906 -0.23324,1.8023 -0.0424,2.7035 0.11662,0.6891 0.26505,1.3994 0.23324,2.1097 -0.22263,1.8235 0.29685,3.6364 0.23324,5.46 -0.21203,0.9859 -0.0424,1.9719 0.0848,2.9579 0.0106,1.7811 0.0424,3.5622 -0.0212,5.3327 -0.29685,1.463 -0.10601,8.6404 -0.20143,11.5135 -0.36046,2.1204 -0.36046,13.9202 -0.41347,14.9804 -0.5937,3.3501 0.32866,2.5232 0.25444,6.7957 -0.0212,1.0072 0.29685,2.0144 0.0954,3.0215 -0.13782,0.7104 -0.11662,6.552 -1.29342,9.7749 -0.55129,1.5797 -0.64671,3.2654 -1.07078,4.8768 -1.1768,4.7815 0.0318,1.9084 -0.45588,7.3789 -0.13782,0.6997 -0.40287,1.3782 -0.6149,2.0673 0.6043,1.0496 1.95073,1.3571 2.50202,2.4597 0.75273,1.6008 0.55129,3.4243 0.61491,5.1418 -0.0636,1.1662 0.23324,2.4385 -0.40287,3.4986 -0.40287,0.827 -1.34643,1.4101 -1.34643,2.4066 0.42407,1.6433 2.27939,1.6539 1.92953,6.1809 -0.14843,0.9966 -1.00718,1.6645 -1.39944,2.5444 -0.0954,0.88 0.66791,1.5797 0.75273,2.449 0.0954,1.2723 0.15902,2.5551 0.30745,3.8273 0.26504,0.8693 1.1768,1.357 1.43124,2.2476 0.50889,1.3888 -0.28625,2.8307 0.0636,4.2407 0.30746,1.8765 0.16963,3.7742 0.10602,5.6614 0.49829,1.9189 -0.0424,3.9014 0.31805,5.831 0.25445,1.3358 -0.11661,2.661 -0.18023,3.9862 -0.33925,1.6539 0.0424,3.3608 -0.30745,5.0041 -0.34986,1.7705 -0.15903,3.6046 -0.6149,5.3645 -0.49829,1.8023 -0.053,3.6894 -0.42407,5.5129 -0.0212,1.4631 -0.72093,2.8201 -0.65732,4.2832 0,0.7527 0.0212,1.516 0.0106,2.2794 0.0212,0.9329 -0.5407,1.7492 -0.60431,2.6716 -0.0848,1.2722 0.12722,2.5762 -0.29685,3.8167 -0.34986,1.1343 -1.59027,23.4936 -1.59027,23.9176 -0.0954,2.4066 -1.14499,5.7038 -0.6149,6.1385 0.43467,0.4664 1.11319,0.6679 1.51605,1.1768 0.45588,1.3146 0.26505,6.2126 -2.68225,7.9195 -2.37481,1.3252 -3.44559,3.7849 -6.40349,3.7106 -0.0106,0.3605 -0.0106,0.7316 -0.0106,1.1132 2.52323,2.0886 2.05675,0.9754 3.83785,4.4528 1.70689,0.3499 3.64702,0.095 4.78141,2.1946 0.65732,0.7951 1.42065,1.6114 1.62208,2.661 0.0424,1.198 0.11662,2.4596 0.82694,3.488 -1.39944,2.29 0.82694,4.5482 1.53726,5.8734 2.40661,3.8485 0.20144,2.1416 5.33271,6.9972 0.10602,0.085 7.41066,5.5978 8.62987,8.2058 0.51949,1.1768 -0.45588,2.5232 0.19083,3.6682 1.55846,-0.011 3.11693,0.1166 4.6754,0.085 0.6149,-0.032 1.24041,0.064 1.8023,0.3287 0.82694,-0.4665 1.47365,-1.3358 2.50203,-1.3676 0.85874,-0.1167 1.36763,0.7209 2.10976,0.9541 1.25101,0.085 2.50202,-0.085 3.75304,0 1.89772,0.1166 3.83785,-0.4559 5.71437,0.021 0.77393,0.4877 1.59027,-0.106 2.40661,-0.1484 1.01777,-0.042 2.04614,-0.159 3.06392,-0.1696 1.14499,-0.2863 1.49485,-1.9402 3.541,-0.4241 1.1662,0.085 2.41721,-0.2226 3.4986,0.3605 1.01777,0.159 2.08855,-0.096 3.11693,0.1272 1.67508,0.1908 3.30776,0.6361 4.99345,0.7845 3.80604,0.6785 3.68942,4.4528 2.51262,4.8768 -3.48799,1.092 -5.47053,1.0072 -13.08262,1.6963 -1.02838,0.6149 -1.98254,1.3677 -2.96851,2.0568 0.41347,0.9542 0.87995,1.9401 0.85875,3.0109 0.0636,0.986 -0.40287,7.3046 -2.62925,10.0929 0.72092,2.7141 0.97537,3.4986 0.41347,4.3256 -0.48768,0.2438 -1.01777,0.424 -1.51606,0.6573 0.33926,2.5868 0.45588,5.5235 -0.91175,7.8559 -2.23698,3.7954 -7.0608,6.096 -11.40754,5.4069 -7.45307,-1.1768 -11.29092,-10.0611 -9.11755,-16.8038 1.07078,-3.329 1.67508,-3.9439 3.80604,-6.6262 -0.37106,-1.3994 -0.31805,-2.8625 -0.26504,-4.2937 0.0106,-0.7103 0.73152,-1.198 0.65731,-1.9189 -0.39227,-0.1272 -0.80574,-0.2015 -1.13439,-0.4559 -0.36046,-0.8163 -0.44528,-1.7175 -0.75273,-2.5444 -68.31802,-0.3287 -142.09598,-1.5267 -215.195412,-6.0113 0.816339,0.053 0.64671,4.8875 0.551294,5.4706 -1.038977,6.8487 -10.485184,14.9909 -19.496717,8.9479 0.0106,1.357 0.159027,2.7777 -0.137823,4.1029 -0.742127,3.2866 -1.64328,5.6826 -4.145306,8.015 -2.342998,2.1839 -5.52354,3.4667 -8.725284,3.4667 -13.7081327,0.011 -18.7545914,-20.4826 2.173369,-24.6597 -0.773931,-2.0674 -1.484252,-4.156 -2.289989,-6.2021 -0.636108,0.159 -0.805737,0.8163 -1.049579,1.3464 -0.434674,-0.1272 -0.954162,-0.1908 -1.208605,-0.6149 -0.424073,-0.6467 -0.625507,-1.3994 -1.007172,-2.0673 -0.137823,0 -7.1350138,-0.5513 -7.2516336,-0.5725 -1.0389768,-0.1697 -2.109759,0.032 -3.1487358,-0.1272 -1.1449948,-0.3499 -2.30059144,-1.145 -2.57623834,-2.3642 -0.25444329,-0.8482 0.15902706,-1.7069 0.51948839,-2.4491 0.69971905,-1.6326 2.96850515,-1.3358 16.27376935,-2.8094 0.657311,-0.4241 1.282818,-1.1026 2.141564,-0.9542 0.784534,-0.053 1.272216,0.6679 1.929528,0.9754 14.429055,1.1025 14.450259,1.5054 15.637661,0.5831 0.752728,-0.5619 1.728094,-0.2439 2.364202,0.318 0.508887,0.2969 0.720923,0.9966 1.357031,1.0814 1.569067,0.3287 3.180541,0 4.76021,0.2226 1.876519,0.3181 3.795446,-0.053 5.661363,0.2757 2.311193,0.4241 5.004052,-0.2015 7.304643,-0.4559 14.948543,-1.6221 30.15153,-2.1522 45.322712,-0.9224 1.73869,0.1379 3.62581,0.5725 5.36451,0.4029 0.6043,-0.7845 1.25101,-1.5372 1.7811,-2.3748 1.46305,-2.3218 4.0923,-3.4456 6.13845,-5.1525 1.27221,-1.0495 1.48425,-2.7776 2.20517,-4.1665 0.34986,-0.6573 1.67509,-3.541 2.40661,-6.6367 0.15903,-0.7209 -0.0954,-1.4312 -0.19083,-2.131 -0.32866,-0.2438 -0.65731,-0.4876 -0.96477,-0.7315 0.15903,-1.5479 -0.82694,-1.7387 1.7387,-3.3502 0.77393,-0.4558 1.71749,-0.1802 2.52323,-0.5407 0.38166,-0.7209 0.43467,-1.728 1.28282,-2.0673 0.29685,0.2014 0.5831,0.4347 0.84814,0.6891 0.71032,-1.3146 2.19458,-2.8201 2.21578,-5.6932 -4.18771,-2.3111 -3.63642,-1.6114 -5.43873,-2.2369 -1.7917,-1.0496 -1.91892,-5.3752 -0.95416,-7.3471 1.57967,-2.9897 0.93296,1.1556 1.06018,-8.7783 0.20144,-1.2934 0.26505,-2.608 0.15903,-3.912 -0.11662,-1.8448 0.37106,-3.6895 0.0318,-5.513 -0.75272,-6.9336 0.61491,-14.5139 0.0742,-17.5354 -0.14843,-0.8799 0.20143,-1.7387 0.22263,-2.608 0.053,-1.1132 -0.36046,-2.184 -0.24384,-3.2972 0.16963,-1.6539 -0.43467,-3.2759 -0.20143,-4.9298 0.63611,-4.4846 -0.39227,-6.8594 -0.0212,-9.4462 0.22263,-1.8447 -0.24385,-3.6894 0.0212,-5.5236 0.30745,-2.5232 -0.0424,-5.0994 0.36046,-7.6121 0.28625,-1.0813 0.12722,-2.1945 0.20143,-3.2971 0.0424,-1.4843 0.63611,-2.8625 0.82695,-4.3255 0.053,-0.6362 0.56189,-1.1026 0.74212,-1.6963 0.44528,-1.2404 -0.0742,-2.5869 0.30745,-3.8379 0.51949,-1.6857 0.37107,-3.5304 1.1768,-5.1313 0.91176,-1.6857 1.86592,-1.6432 0.0954,-5.1842 -0.32866,-0.5619 -0.11662,-1.2193 -0.053,-1.8236 0.22264,-1.8235 0.36046,-3.753 1.41004,-5.3221 0.54069,-0.8269 0.12722,-1.8023 -0.25444,-2.5974 -0.47708,-0.9118 -0.11662,-1.9295 0.20143,-2.8201 0.79514,-2.2052 -0.30745,-6.6367 2.55504,-8.7677 0.90115,-0.6785 0.48768,-1.8977 0.53009,-2.8413 0.27564,-2.6504 -2.15217,-5.99 -2.343,-6.8805 -0.5619,-1.5161 -0.12722,-3.1064 0.0424,-4.6436 0,0 1.198,-19.3271 0.96476,-29.7805 -0.0848,-1.251 0.32866,-12.4359 0.33926,-12.5419 0,-0.1484 1.42064,-13.793 1.65388,-15.4256 0.0212,-1.2511 -0.10602,-2.5127 -0.41347,-3.7213 0.053,-0.9435 1.11319,-1.6115 0.97536,-2.608 -0.27564,-1.4313 -11.42874,-13.2099 -12.90239,-14.7259 -4.1029,-4.0181 -16.68724,-21.193 -23.387577,-35.1344 -0.201434,-0.4347 -1.717492,-7.029 -2.077953,-10.2732 -0.932959,-4.2619 -1.081384,-6.308 -0.943561,-14.8425 0.159027,-1.1132 -0.169629,-2.2264 0.11662,-3.3289 0.07421,-0.8482 0.551294,-3.7107 -1.781103,-4.2514 -1.685687,-0.4452 -3.201745,-1.357 -4.834423,-1.9613 -1.961333,-0.7845 -5.375114,-1.2298 -4.982847,-2.9155 0.593701,-2.8519 2.989708,-19.2211 3.678826,-22.3592 1.452447,-9.1176 1.993139,-17.8852 6.127842,-33.0988 0.254444,-1.866 0.64671,-3.7213 1.304022,-5.502404 0.201434,-0.8163 0.06361,-1.7599 0.636108,-2.449 3.806048,-4.7284 21.246016,-20.048 21.352026,-20.1434 3.63642,-2.9473 1.65389,-1.7069 9.372,-6.8488 1.63268,-1.0814 2.91549,-2.608 4.59058,-3.647 0.55129,-0.4241 1.28282,-0.9118 1.27222,-1.6857 -0.5937,-1.7175 -1.44185,-3.3396 -1.84472,-5.1207 -0.6255,-1.9189 -0.56189,-3.965 -1.07078,-5.9052 -0.12722,-0.5619 -0.67852,-0.8163 -1.11319,-1.1132 -0.77393,-0.5194 -1.7917,-0.3816 -2.53383,-0.9647 -1.11319,-0.933 -2.55503,0.6467 -3.67883,-2.2688 -0.48768,-1.2722 0.13783,-2.6823 -0.41347,-3.9333 -2.01434,-4.8768 -3.541,-6.0642 -3.04271,-7.6227 0.78453,-2.0567 2.28999,-1.9083 3.45618,-1.9613 1.03898,-3.0957 0.92236,-2.4808 1.00718,-4.1983 0.0318,-1.3783 0.45587,-2.7247 0.38166,-4.1029 -0.11662,-1.6009 0.0742,-3.2124 0.48768,-4.7602 0.84815,-2.2158 1.12379,-7.5379 3.92267,-11.2591 0.79514,-1.0072 1.36763,-2.1627997 2.19457,-3.1593997 2.28999,-2.7883 7.0184,-5.4387 8.66168,-5.9582 1.62207,-0.3923 3.22295,-0.9011 4.88743,-1.0284 0.36046,-0.4664 0.65731,-1.03890002 1.22981,-1.24040002 M 120.01682,161.16327 c -2.08855,6.4671 -2.9791,4.5269 -4.00748,6.3823 -0.11662,1.2828 -0.36046,2.555 -0.37106,3.8484 -0.19084,4.1559 -1.79171,2.6293 -0.42408,11.3651 0.0742,1.2829 0.66792,2.4491 0.83755,3.7213 0.18023,1.2192 0.91175,2.237 1.39944,3.3395 0.38166,0.7952 0.6361,1.6539 1.04957,2.4385 0.67852,1.5584 4.81322,7.453 6.26567,10.2095 0.19083,0.021 0.37106,0.053 0.5619,0.085 0.36046,-0.8905 0.34986,-1.8235 0.053,-2.7247 -0.11662,-1.2404 -0.10601,-11.1743 -0.50888,-13.178 -0.14843,-1.5055 -0.95416,-2.9473 -0.51949,-4.4846 0.5831,-1.6644 1.47365,-3.2441 1.7705,-5.004 0.40287,-2.131 1.96133,-3.594 0.33926,-5.3857 -0.66791,-0.7316 -0.81634,-1.7387 -1.31462,-2.5763 -0.5725,-0.8905 -0.76333,-1.9613 -1.32523,-2.8519 -3.25475,-5.5659 -2.39601,-4.8874 -3.80605,-5.1842 m 59.73056,99.0632 c -0.65731,1.3571 -0.68911,2.9261 -1.16619,4.3574 -0.33926,1.8129 -0.82694,1.198 1.59027,4.018 0.77393,0.9966 2.20517,1.3253 2.63985,2.5975 -0.43468,1.2086 -1.7387,1.8553 -2.96851,1.7705 -1.50546,0.032 -2.75647,-1.092 -4.27253,-0.933 -0.74212,2.1628 -1.46304,4.3468 -2.42781,6.4247 -0.21204,0.4983 -0.54069,0.9966 -0.53009,1.5585 0.87995,2.6504 5.65076,6.9654 5.65076,9.4462 -0.16963,0.9966 -1.02837,1.9825 -2.09915,1.9401 -0.71033,-0.1908 -1.44185,-0.4665 -1.97194,-0.9859 -0.73152,-0.7846 -1.55847,-1.4631 -2.21578,-2.3006 -0.5937,-0.6149 -0.93296,-1.6751 -1.95073,-1.6115 -0.54069,0.4877 -0.65731,1.357 -0.55129,2.0567 1.28282,2.1416 6.10664,4.8451 2.31119,7.2517 -1.63268,0.3816 -2.58684,-1.7811 -4.20892,-1.4843 -0.46648,1.304 -0.33925,2.7247 -0.79513,4.0287 -0.23324,0.6361 -0.30745,1.3146 -0.31806,1.9931 -0.23324,1.8766 -1.198,3.7001 -0.82694,5.6296 0.19084,1.1344 -0.0742,2.2794 -0.11662,3.4138 -0.15902,2.0143 -0.81633,3.9439 -1.53726,5.831 -0.56189,1.8235 0.21204,3.7954 -0.64671,5.5553 -0.0424,0.9224 -0.22264,7.3365 0.0106,8.2164 0.28625,1.0708 -0.22263,2.1098 -0.23324,3.1806 -0.24384,0.8799 -0.73152,1.6538 -1.08138,2.4914 -0.31805,0.7421 -0.95416,1.2828 -1.34643,1.9825 -0.15903,0.5513 -0.0318,1.145 -0.0742,1.7175 -0.0212,1.5267 -0.74213,2.9261 -0.71032,4.4634 -1.83411,3.4774 -0.14843,2.5974 -1.51606,7.4742 -0.14843,2.1522 -1.1874,4.0817 -2.05675,6.0113 -0.74213,0.9647 -1.56907,1.8659 -2.3324,2.8094 -0.56189,0.5831 -0.0848,1.4101 -0.18023,2.1098 -0.42407,3.6788 0.66792,4.0075 1.02838,5.4917 0.0954,0.7952 0.0212,6.6474 0.0318,6.764 0.0636,1.0072 -0.39226,1.9613 -0.34986,2.9685 0.0212,0.8481 -0.30745,1.6539 -0.37106,2.4914 -0.18023,2.0886 0.18023,9.2872 -1.52666,19.624 -0.13782,2.5232 0.053,5.0676 -0.31805,7.5696 -0.0106,0.1061 -1.86592,19.3801 -1.67509,21.087 -0.68912,1.7599 -0.51949,3.6789 -0.81634,5.5236 -0.11662,1.4948 -0.64671,2.8943 -0.82694,4.3785 1.80231,2.0462 0.69972,3.5092 1.09199,5.9688 0.22264,1.6115 -0.74213,3.0322 -1.30402,4.474 -0.14843,0.4347 -0.5407,0.6785 -0.94356,0.8587 -0.5725,0.2439 -0.99657,0.7104 -1.47366,1.0814 0.11662,4.315 1.94013,6.7322 0.80574,10.1566 -0.6043,1.5902 0.86935,2.8518 1.66448,6.2974 0.16963,1.3889 -0.58309,2.6611 -0.73152,3.9969 0.49829,1.3464 1.20861,2.7671 0.85875,4.2407 -0.0848,0.7316 -0.45588,1.4949 -0.14843,2.2264 0.62551,1.6539 0.11662,5.1949 -0.62551,7.0714 -0.24384,0.6891 -0.96476,1.0072 -1.46304,1.4843 5.48113,0.2438 61.45865,1.5584 64.84063,0.3816 -0.12722,-0.4134 -0.29685,-0.8057 -0.46648,-1.198 -0.36046,-0.7315 -0.30745,-1.569 -0.50889,-2.343 -0.27564,-1.198 0.053,-2.4066 0.0106,-3.6046 -0.0318,-1.2722 0.13783,-2.5232 0.44528,-3.753 0.54069,-2.1204 -2.19457,-3.1806 0.18023,-7.2305 1.53726,-5.9052 1.95073,-3.2547 1.66448,-6.0112 -0.56189,-2.7352 0.36046,-5.5765 1.94013,-7.8241 0.80574,-1.2192 0.50889,-2.7565 0.13783,-4.0817 -0.5513,-0.2226 -1.37824,-0.2651 -1.53726,-0.9542 -0.21204,-1.4842 -0.59371,-2.9579 -0.51949,-4.4633 0.0848,-1.251 -0.41347,-2.449 -0.43468,-3.6895 -0.0424,-0.7951 0.69972,-1.2616 1.03898,-1.8977 0.39227,-0.6679 -0.0212,-1.41 -0.0318,-2.1203 -0.34986,-4.0817 -1.25101,-29.049 -1.03897,-31.0209 0.16963,-2.1628 -0.15903,-4.315 -0.36046,-6.4565 0.22263,-6.923 -0.46648,-11.8846 0.23324,-17.0371 0.39226,-2.7353 -0.65732,-2.1734 0.72092,-8.7465 0.23324,-0.9118 -0.5937,-1.6539 -0.53009,-2.5444 0.14842,-0.9542 0.86935,-1.7175 1.00717,-2.6823 -0.14843,-0.8163 -0.43467,-1.6115 -0.42407,-2.4384 -0.14843,-1.1238 0.10602,-2.29 -0.28625,-3.382 -1.64328,-6.3611 0.68912,-5.3751 -0.0212,-9.8491 -0.16963,-0.9011 -1.1344,-1.1874 -1.60088,-1.8765 -1.7811,-2.3324 -1.69629,-2.3748 -3.05332,-10.1247 -0.46648,-1.8871 1.30403,-2.6611 -0.51948,-6.2127 -0.62551,-1.3252 -0.60431,-2.82 -0.89056,-4.2301 -0.21203,-1.7917 0.77394,-3.4456 0.68912,-5.2267 -0.0848,-6.5519 -0.0954,-5.9264 0.0848,-7.294 0.28624,-2.1734 -0.98597,-9.7219 -1.10259,-13.6551 0,-0.106 -0.0954,-7.2835 -0.13783,-7.5061 -0.13782,-0.7845 -0.30745,-1.5585 -0.34986,-2.343 -0.0742,-1.0496 -0.51948,-2.0249 -0.5937,-3.0639 -2.14156,-7.0714 0.0848,-4.1983 -3.29716,-13.3265 -0.48768,-1.1344 -0.56189,-2.3854 -0.99657,-3.5304 -0.5831,-2.4066 -1.49485,-4.7178 -2.13096,-7.1138 -0.69972,-1.8341 -0.75273,-3.8167 -1.26161,-5.7038 -0.23324,-0.9859 -1.32523,-1.2722 -2.02495,-1.8553 -1.68569,-1.145 -2.98971,-2.8201 -3.73183,-4.7072 -0.15903,-0.3499 -0.26505,-0.7951 -0.65732,-0.9436 -3.71063,-2.5656 -8.40723,3.1912 -11.46055,6.8912 z"
   id="path2"
   inkscape:connector-curvature="0"
   style="stroke-width:0.10601804" />
</svg>