<?xml version="1.0" encoding="UTF-8" standalone="no"?>
<svg
   xmlns:dc="http://purl.org/dc/elements/1.1/"
   xmlns:cc="http://creativecommons.org/ns#"
   xmlns:rdf="http://www.w3.org/1999/02/22-rdf-syntax-ns#"
   xmlns:svg="http://www.w3.org/2000/svg"
   xmlns="http://www.w3.org/2000/svg"
   xmlns:sodipodi="http://sodipodi.sourceforge.net/DTD/sodipodi-0.dtd"
   xmlns:inkscape="http://www.inkscape.org/namespaces/inkscape"
   version="1.1"
   width="88.518517"
   height="157.0957"
   viewBox="0 0 88.518517 157.0957"
   id="svg11"
   sodipodi:docname="man with hoodie cycling.svg"
   inkscape:version="0.92.4 (5da689c313, 2019-01-14)">
  <metadata
     id="metadata17">
    <rdf:RDF>
      <cc:Work
         rdf:about="">
        <dc:format>image/svg+xml</dc:format>
        <dc:type
           rdf:resource="http://purl.org/dc/dcmitype/StillImage" />
        <dc:title></dc:title>
      </cc:Work>
    </rdf:RDF>
  </metadata>
  <defs
     id="defs15" />
  <sodipodi:namedview
     pagecolor="#ffffff"
     bordercolor="#666666"
     borderopacity="1"
     objecttolerance="10"
     gridtolerance="10"
     guidetolerance="10"
     inkscape:pageopacity="0"
     inkscape:pageshadow="2"
     inkscape:window-width="1920"
     inkscape:window-height="1048"
     id="namedview13"
     showgrid="false"
     fit-margin-top="0"
     fit-margin-left="0"
     fit-margin-right="0"
     fit-margin-bottom="0"
     inkscape:zoom="1.9344262"
     inkscape:cx="-154.10114"
     inkscape:cy="75.949707"
     inkscape:window-x="0"
     inkscape:window-y="0"
     inkscape:window-maximized="1"
     inkscape:current-layer="svg11" />
  <g
     id="layer1"
     transform="translate(-322.87183,-490.17961)">
    <g
       style="fill:#000000;fill-opacity:1;stroke-linejoin:miter"
       id="g4">
      <path
         d="m 388.72632,490.30908 c -0.18067,0.0821 -0.62409,0.14782 -0.98538,0.16425 -0.3613,0 -0.77188,0.0985 -0.91971,0.2135 -0.32843,0.2464 -0.7226,0.96899 -0.65693,1.18249 0.0329,0.0822 0.0493,0.57478 0.0329,1.06751 -0.0164,0.49267 0.0657,1.1496 0.16423,1.44525 0.16423,0.49268 0.1314,0.59125 -0.1971,0.95252 -0.2135,0.22998 -0.55837,0.39416 -0.83755,0.39416 -0.36133,0 -0.47632,0.0986 -0.55845,0.44342 -0.0657,0.26276 -0.21343,0.57482 -0.32842,0.70618 -0.29562,0.34491 -1.05112,2.10224 -1.0018,2.31567 0.0164,0.0986 -0.52558,0.34491 -1.21533,0.54193 -1.34668,0.39424 -2.47989,1.1004 -3.85947,2.44714 -0.83755,0.78827 -0.854,0.8047 -2.16788,0.8868 -0.72256,0.0493 -1.41235,0.1478 -1.51092,0.21355 -0.24631,0.14775 -0.82114,2.18425 -0.82114,2.8905 0,0.64045 0.73908,2.82471 1.08396,3.20251 0.2463,0.27918 0.21347,0.32844 -0.36133,0.83754 -0.36133,0.29564 -1.14963,1.01824 -1.79013,1.62584 -0.62412,0.59136 -1.60947,1.33033 -2.1843,1.62592 -1.2153,0.64054 -2.92331,2.15149 -3.62948,3.23544 -0.64056,0.96897 -0.969,2.02005 -1.16608,3.843 -0.0821,0.7719 -0.34491,1.92156 -0.55841,2.54564 -0.98537,2.80836 -1.23175,3.49811 -1.65875,4.41786 -0.24634,0.5419 -0.5748,1.3466 -0.73902,1.80645 -0.39416,1.10035 -2.70984,6.24085 -3.13684,6.94702 -0.18063,0.31207 -0.50912,1.01823 -0.73906,1.57663 -0.21345,0.55844 -0.67332,1.42886 -0.98536,1.95444 -0.50914,0.83756 -0.59124,1.06746 -0.50914,1.69156 0.0328,0.41055 0.3285,1.2317 0.62406,1.8394 0.37774,0.73906 0.62412,1.56016 0.77192,2.4963 0.37772,2.56203 0.47628,3.0382 0.64052,3.4489 0.0986,0.2299 0.2628,0.96897 0.37773,1.64237 0.0985,0.67328 0.32847,1.52728 0.4927,1.88853 0.16425,0.3614 0.82117,2.7592 1.46167,5.3376 0.64044,2.57843 1.1989,4.8449 1.2646,5.05835 0.0985,0.34491 0.0821,0.36135 -0.32847,0.19708 -0.60767,-0.22998 -6.20803,-0.47623 -12.05466,-0.52557 l -4.99264,-0.0492 -0.39417,0.45983 c -0.49266,0.5747 -0.49266,0.8376 0.0164,1.85584 0.50913,1.01826 1.33027,1.52726 2.677,1.65869 0.8047,0.0822 1.0182,0.16427 1.47807,0.6734 l 0.54193,0.57471 1.1497,-0.11494 c 0.62404,-0.0493 1.13317,-0.0656 1.13317,-0.0163 0,0.0327 -0.14787,0.36125 -0.32849,0.70615 -0.41058,0.78836 -0.31201,1.1168 0.41062,1.2482 0.29555,0.0657 0.57476,0.21344 0.62405,0.3449 0.0493,0.11494 0.29562,0.24635 0.55841,0.2792 0.44342,0.0492 0.45984,0.0821 0.88684,2.26634 0.73907,3.8266 0.70617,3.44891 0.27917,3.44891 -0.21347,0 -0.49267,0.0821 -0.62405,0.16425 -0.32849,0.21344 -0.0164,0.7226 0.47625,0.78827 0.45987,0.0657 1.00181,0.95257 1.00181,1.64233 0,0.98535 -0.37772,1.5931 -1.24811,2.0036 -0.54203,0.2628 -1.51099,1.084 -2.97263,2.562 -2.02004,2.0365 -2.52917,2.7591 -2.28287,3.1697 0.0657,0.0986 -0.0657,0.5255 -0.29559,0.96905 l -0.41058,0.78825 -1.52738,-0.39415 c -2.08572,-0.54195 -5.3211,-0.6734 -6.99627,-0.29559 -4.56565,1.03464 -7.68605,3.53094 -11.36485,9.13124 -2.87405,4.385 -4.22072,8.34306 -5.4853,16.29185 -0.2792,1.69159 -0.24638,2.03645 0.2135,2.18425 0.26275,0.0822 0.312,0.4599 0.39412,3.9088 0.14783,5.41965 0.62406,8.5564 1.95438,12.74436 2.34848,7.40694 7.06195,12.95788 12.44876,14.64947 0.854,0.26282 2.08574,0.55841 2.70987,0.65697 1.72443,0.2792 4.51637,-0.0164 4.84479,-0.4927 0.0493,-0.0657 0.854,-0.52554 1.79013,-1.00185 2.21713,-1.13318 3.85943,-2.38129 5.63318,-4.23719 2.2828,-2.41416 4.31927,-5.79736 5.73172,-9.52546 0.27915,-0.7226 0.49265,-1.051 0.72255,-1.1003 1.29747,-0.2792 5.5675,-0.6405 7.01274,-0.5913 2.21713,0.0493 2.41418,-0.0327 2.31566,-1.0839 -0.0821,-0.6569 -0.0493,-0.75543 0.13142,-0.5912 0.11493,0.11494 0.34488,0.21345 0.50912,0.21345 0.18066,0 0.5091,0.14785 0.75546,0.31205 0.54197,0.3777 2.64408,0.57485 3.51456,0.34494 0.80474,-0.22999 0.96897,-0.72264 1.0018,-2.97264 0.0493,-5.1897 -0.24636,-8.5565 -0.93612,-10.1988 -0.3613,-0.854 -0.0985,-1.6095 0.57483,-1.6095 0.55838,0 0.77188,-0.34486 0.50913,-0.87043 -0.0985,-0.19702 -0.2135,-0.64047 -0.2628,-1.00171 -0.0493,-0.34496 -0.19708,-0.75549 -0.34487,-0.91976 -0.22995,-0.26274 -0.22995,-0.3285 0.0657,-0.83757 0.427,-0.75549 0.5748,-1.52743 0.34488,-1.95443 -0.14778,-0.27915 -0.0985,-0.427 0.24637,-0.8868 0.22992,-0.29567 0.41055,-0.59126 0.41055,-0.6405 0,-0.0493 0.78833,-1.4781 1.75732,-3.1861 0.95255,-1.69166 2.7591,-4.8941 3.99078,-7.1113 1.23182,-2.21714 2.75913,-4.9433 3.39964,-6.0766 1.33029,-2.36485 2.05291,-3.7773 1.95436,-3.7773 -0.0493,0 -0.39418,0.57487 -0.77187,1.2646 -0.37775,0.7062 -1.23175,2.20065 -1.88867,3.33395 -0.64053,1.13315 -2.1022,3.71161 -3.23538,5.74811 -3.64594,6.55279 -5.20618,9.27904 -5.35398,9.32834 -0.2463,0.0822 -0.312,-0.60764 -0.0821,-0.8048 0.13142,-0.0985 0.37775,-0.509 0.55842,-0.9196 0.27917,-0.6569 3.26818,-5.8466 7.4397,-12.9416 0.90328,-1.54375 2.16784,-3.6952 2.79195,-4.8119 0.6405,-1.1003 1.23175,-1.9872 1.33025,-1.9543 0.0985,0.0327 0.22996,0.5255 0.2792,1.11674 0.0821,1.01816 0.0657,1.08386 -0.6405,2.26636 -0.80473,1.36315 -1.6752,3.3339 -2.562,5.91235 -1.88867,5.41961 -2.52917,11.03645 -2.02008,17.9834 0.22995,3.18609 0.24634,3.2846 0.65695,3.64599 0.37775,0.31201 0.47626,0.65686 0.85401,2.80836 1.10037,6.33935 2.84118,11.2991 5.27185,14.9943 1.11677,1.7245 3.84297,4.4179 5.02547,4.97633 1.511,0.72257 2.82478,0.98537 4.3686,0.88687 1.19885,-0.0658 1.52735,-0.1643 3.10394,-0.9361 2.77558,-1.34676 4.17151,-2.9727 6.33936,-7.3084 1.44525,-2.9069 2.365,-6.10947 3.104,-11.0036 0.3285,-2.18424 0.37775,-3.05466 0.37775,-7.63675 -0.0164,-5.81378 -0.32849,-9.06562 -1.23175,-12.76081 -0.87042,-3.59668 -2.72626,-8.32654 -4.23718,-10.85574 -1.83936,-3.0711 -5.15686,-5.9288 -7.40686,-6.37216 -0.80476,-0.16424 -0.60761,-0.44344 0.2135,-0.32849 0.427,0.0657 0.77184,0.0493 0.82116,-0.0493 0.22992,-0.36127 -0.68975,-0.57477 -2.52917,-0.60766 -1.7901,-0.0492 -1.88867,-0.0656 -2.02002,-0.42687 -0.13147,-0.345 -0.27923,-1.4782 -0.29565,-2.39784 -0.0164,-0.19716 -0.0657,-0.36139 -0.13135,-0.36139 -0.0493,0 -0.2464,-0.24627 -0.41058,-0.55837 -0.27918,-0.52555 -0.29565,-0.90324 -0.21357,-4.9762 0.0493,-2.4143 0.13142,-4.5657 0.19715,-4.77915 0.16424,-0.49275 0.78827,-0.78825 3.81012,-1.82305 2.82475,-0.95246 2.75915,-0.96894 3.61309,0.3614 0.31208,0.50913 0.44342,0.5912 0.62416,0.4434 0.13134,-0.0985 0.27916,-0.4106 0.32842,-0.67334 0.13141,-0.55836 0.19708,-0.57486 0.6405,-0.16426 0.19708,0.1806 0.60768,0.37776 0.91974,0.4599 0.54194,0.1478 0.57477,0.19704 0.62404,0.9196 0.0657,0.9855 0.37773,1.0183 1.24815,0.13144 0.59125,-0.60761 0.64051,-0.62414 1.34668,-0.49268 0.39423,0.0821 1.10041,0.29564 1.54377,0.49268 0.59124,0.2464 0.88696,0.31201 1.01825,0.18066 0.24639,-0.24633 0.0493,-0.4763 -0.87043,-1.0018 l -0.80468,-0.45987 0.62408,-0.39416 c 0.70618,-0.45987 1.65868,-2.10211 1.67518,-2.8905 0,-0.27917 -0.0986,-0.72257 -0.22993,-0.98537 -0.22997,-0.4763 -0.77191,-2.2499 -1.03467,-3.44884 -0.0986,-0.427 -0.115,-1.34676 -0.0164,-2.38141 0.13133,-1.5766 0.1149,-1.69159 -0.21358,-2.0365 -0.26275,-0.27915 -0.37768,-0.70615 -0.49267,-1.708 -0.0985,-1.01825 -0.22992,-1.49445 -0.60767,-2.10212 -0.60766,-0.98543 -0.80468,-1.64233 -0.95251,-2.98903 -0.0493,-0.5912 -0.22997,-1.36314 -0.39417,-1.7244 -0.739,-1.65876 -0.95257,-4.0565 -1.14966,-12.4817 -0.11494,-4.4999 -0.2135,-6.42144 -0.427,-7.3904 -0.14784,-0.7226 -0.29559,-2.2829 -0.32844,-3.4488 -0.0821,-2.92337 -0.32842,-4.6971 -1.00182,-7.30844 -0.57478,-2.26636 -1.00178,-3.20251 -1.51092,-3.36676 -0.16426,-0.0492 -0.95252,-0.73895 -1.77376,-1.54376 -0.80468,-0.78827 -1.65868,-1.57666 -1.90502,-1.74084 -0.44342,-0.27924 -0.44342,-0.26276 -0.47625,-2.13502 -0.0165,-0.83758 0.52551,-2.75908 1.19885,-4.28643 0.37774,-0.82123 0.37774,-1.06757 0.0493,-2.1186 -0.13133,-0.45985 -0.31207,-1.59301 -0.39416,-2.51275 -0.0821,-0.9361 -0.22987,-1.80652 -0.34491,-1.938 -0.32843,-0.3941 -4.41779,-2.38134 -5.10756,-2.4635 -0.427,-0.0657 -0.75548,-0.0163 -1.05107,0.16425 -0.54199,0.37769 -0.77191,0.19715 -0.6405,-0.54193 0.0657,-0.427 0,-0.73907 -0.24637,-1.13318 -0.18066,-0.27917 -0.39416,-0.52551 -0.47629,-0.52551 -0.0821,0 -0.427,-0.37781 -0.75543,-0.82123 -0.59124,-0.82116 -0.85401,-0.91967 -1.47812,-0.65692 z m 6.5693,45.68942 c 0.57483,3.8265 0.83758,5.1897 1.37952,7.52176 0.19708,0.85401 0.41058,2.56204 0.50909,4.35214 0.14783,2.4142 0.2464,3.08756 0.52557,3.6624 0.5091,1.0511 2.31568,3.3175 3.20258,3.9908 l 0.75544,0.5748 -0.0328,1.1332 c -0.0328,0.8376 -0.13141,1.2646 -0.37775,1.6095 -0.37773,0.52555 -0.41058,1.0182 -0.18066,1.9215 0.11499,0.4106 0.0986,0.6898 -0.0657,1.01824 -0.18067,0.39416 -0.31208,0.44346 -0.969,0.42706 -0.542,0 -1.0675,0.14777 -1.95435,0.5912 l -1.21533,0.60765 -3.49812,-0.0329 c -1.92155,-0.0164 -4.5492,0.0164 -5.83022,0.0985 l -2.34858,0.13143 v -0.55843 c 0,-0.70615 0.60768,-4.35215 0.83763,-4.9926 0.26277,-0.7555 0.3613,-3.0054 0.18063,-4.1058 l -0.16424,-0.98544 0.70623,-0.77191 c 0.47625,-0.52551 0.90325,-1.28088 1.31388,-2.29915 0.32847,-0.8376 1.33023,-2.792 2.21713,-4.3194 3.71164,-6.40495 3.51456,-5.978 3.76089,-8.37583 0.115,-1.10027 0.21351,-1.51087 0.44343,-1.67511 0.49267,-0.36126 0.68975,-0.24636 0.80474,0.47634 z m 4.9762,26.9176 c 0.0328,0.2135 -0.11492,0.2956 -0.57477,0.3613 -0.34491,0.0492 -0.93615,0.13135 -1.33032,0.1806 -0.9361,0.11494 -0.854,-0.2135 0.14783,-0.59124 0.88684,-0.34486 1.69159,-0.31206 1.75726,0.0493 z m -36.19669,3.05466 c 0.22992,0.83759 0.42701,1.88874 0.42701,2.34858 0,0.47619 0.18063,1.37951 0.427,2.06926 0.26276,0.78834 0.37771,1.396 0.31204,1.6751 -0.0493,0.2629 0.0657,1.0676 0.24632,1.8559 0.55843,2.23354 0.55843,2.16786 0.0986,2.5949 -0.37776,0.3448 -0.854,0.45987 -3.99086,0.93606 -1.95436,0.29564 -3.61305,0.50914 -3.6788,0.4599 -0.0657,-0.0329 -0.18062,-0.59126 -0.24633,-1.21539 -0.0657,-0.73897 -0.19705,-1.19877 -0.34487,-1.28087 -0.16425,-0.0987 -0.3449,-0.887 -0.55842,-2.43074 -0.24633,-1.7572 -0.44345,-2.5127 -0.83755,-3.31751 l -0.49271,-1.05105 0.54193,-0.4598 c 0.3942,-0.3285 0.73908,-0.4763 1.14965,-0.49275 0.52556,0 0.73903,-0.13135 1.60948,-1.06745 0.98538,-1.06756 0.98538,-1.06756 1.90512,-1.06756 0.98535,0 1.90506,-0.36124 2.447,-0.96894 0.18066,-0.1971 0.37777,-0.29564 0.44344,-0.23 0.0657,0.0822 0.31204,0.80484 0.54199,1.64236 z m 30.66214,0.64054 c -0.32849,0.7719 -0.6734,1.4124 -0.75549,1.39596 -0.0985,0 -0.21356,-0.22986 -0.26276,-0.50916 -0.0657,-0.27917 -0.32849,-0.8704 -0.60766,-1.3138 l -0.50916,-0.8047 0.93616,-0.0657 c 0.50909,-0.0329 1.13318,-0.0657 1.37952,-0.0821 l 0.427,-0.0329 z m 5.12397,-1.1989 c 1.34668,0.1478 1.00183,0.34486 -2.41419,1.4781 -1.52735,0.5091 -2.80835,0.90326 -2.84125,0.87036 -0.0821,-0.0656 0.8869,-2.03649 1.14966,-2.36486 0.16424,-0.21357 1.93794,-0.19715 4.10578,0.0164 z m -40.77878,0.0821 c 0,0.26276 -1.0018,1.4945 -1.28101,1.5766 -0.83755,0.23 -1.4945,0.26276 -1.60945,0.0822 -0.13142,-0.22986 0.3449,-0.62406 1.6423,-1.29743 1.0018,-0.50913 1.24816,-0.59123 1.24816,-0.36133 z m 33.50334,0.47626 c 0.4105,0.5091 1.10033,2.15144 0.93608,2.28284 -0.0164,0.0164 -0.59118,0.29566 -1.26453,0.64044 -0.6734,0.32849 -1.64235,0.85406 -2.15148,1.16616 -0.50907,0.31205 -1.01819,0.5584 -1.11677,0.5584 -0.0985,0 -0.2135,-0.19715 -0.26278,-0.4599 -0.0656,-0.2464 -0.16422,-0.57484 -0.26276,-0.7226 -0.24636,-0.4763 -0.16424,-0.7555 0.22992,-0.8212 0.27918,-0.0328 0.37775,-0.18063 0.41058,-0.57486 0.0493,-0.44334 -0.0328,-0.55834 -0.427,-0.77184 -0.26276,-0.13136 -0.52551,-0.1971 -0.59124,-0.1478 -0.0493,0.0656 -0.0985,-0.0986 -0.0985,-0.32847 0,-0.39416 0.0985,-0.4599 1.44526,-0.87043 0.7883,-0.2299 1.51086,-0.4435 1.59298,-0.47625 0.62409,-0.19708 1.06756,-0.0493 1.56026,0.52551 z m 11.16777,-0.11493 c 0,0.21351 -0.49274,0.21351 -0.82123,0 -0.1806,-0.11493 -0.11494,-0.16423 0.29572,-0.16423 0.27917,0 0.52551,0.0657 0.52551,0.16423 z m 0.78827,0.14783 c 0.0493,0.13134 -0.0164,0.19704 -0.14784,0.14784 -0.11492,-0.0329 -0.24626,-0.16426 -0.27916,-0.27925 -0.0493,-0.13135 0.0164,-0.19705 0.14782,-0.14788 0.11494,0.0329 0.2464,0.16423 0.27918,0.27929 z m -52.38998,0.36124 c 0.0329,0.14786 -0.19709,0.3285 -0.5748,0.45987 -0.34488,0.13143 -0.70618,0.34483 -0.8212,0.49273 -0.16419,0.2299 -0.22986,0.2299 -0.64044,-0.0821 -0.67337,-0.49275 -0.65695,-0.68975 0.0493,-0.87045 1.3631,-0.36124 1.92151,-0.36124 1.98719,0 z m 33.86464,1.95444 c 0.21348,1.18236 0.26277,2.87402 0.1314,4.15503 -0.0165,0.16423 -0.36134,0.62413 -0.73903,1.00183 -0.60767,0.60766 -0.82119,0.72265 -1.60949,0.8211 -0.88688,0.0986 -0.90328,0.0986 -0.90328,-0.312 0,-0.8212 1.52733,-6.7335 1.7901,-6.947 0.1478,-0.1149 0.44344,-0.19705 0.67336,-0.1642 0.37774,0.0493 0.427,0.1642 0.65694,1.44524 z m 7.32472,2.59486 c -0.32842,1.62584 -0.54192,3.5638 -0.67334,5.9451 -0.0657,1.03474 -0.2135,2.2501 -0.32843,2.7099 -0.22992,0.7883 -0.96903,2.0036 -1.18247,1.93794 -0.22995,-0.0657 -0.54198,-1.51094 -0.70624,-3.16968 -0.16418,-1.87226 -0.29562,-2.4964 -0.52551,-2.6441 -0.24637,-0.16426 -0.62411,-3.26826 -0.44345,-3.62966 0.11502,-0.2134 0.0821,-0.41044 -0.0985,-0.68974 -0.26276,-0.3941 -0.26276,-0.3941 1.18249,-1.21526 0.7883,-0.4434 1.77372,-0.96894 2.1843,-1.1332 l 0.73901,-0.31206 0.0493,0.4599 c 0.0328,0.24626 -0.0657,1.03466 -0.19714,1.74086 z m 0.19714,5.91234 c -0.0493,2.75906 -0.0329,2.98901 0.24634,2.98901 0.36133,0 0.36133,0.13135 -0.0329,0.45985 -0.16425,0.1642 -0.44342,0.6733 -0.59125,1.14965 -0.14775,0.4762 -0.37768,0.96895 -0.52551,1.10035 -0.37769,0.3941 -0.854,0.2956 -1.05109,-0.18073 -0.1314,-0.37767 -0.0821,-0.54194 0.26282,-1.06747 0.68976,-0.9689 0.90326,-1.98716 1.14953,-5.40324 0.29572,-3.89236 0.47633,-4.8941 0.54206,-3.20256 0.0328,0.62413 0.0328,2.4964 0,4.15514 z m -7.01273,-3.07114 c -0.0493,0.0656 -0.36133,0.1478 -0.67337,0.21353 l -0.55838,0.0985 0.55838,-0.57484 c 0.55842,-0.5748 0.57486,-0.59123 0.67337,-0.2135 0.0492,0.2135 0.0492,0.427 0,0.4763 z m 0.96894,3.1039 c 0.0821,0.3121 0.19711,1.01826 0.24637,1.5603 0.13136,1.1168 0.26276,0.8047 -2.8248,6.15865 -0.80474,1.39599 -2.43061,4.2044 -3.61307,6.24078 -1.16607,2.03647 -2.59487,4.51642 -3.1861,5.53467 -0.57483,1.01825 -1.10037,1.83935 -1.14965,1.85583 -0.21347,0 1.36312,-5.99443 2.06933,-7.89959 0.90329,-2.47994 1.01822,-2.97254 0.67331,-3.25184 -0.16421,-0.1477 -0.26276,-0.4926 -0.26276,-0.9525 0,-0.64045 0.0493,-0.7555 0.57483,-1.05103 0.31205,-0.19707 0.5748,-0.44342 0.5748,-0.57487 0,-0.1313 0.1807,-0.52554 0.41062,-0.87045 0.2463,-0.36125 0.54195,-1.19885 0.7062,-1.95435 0.26275,-1.33025 0.26275,-1.33025 -0.0986,-1.83935 l -0.37774,-0.49275 0.62406,-1.2974 0.62413,-1.29743 1.72443,-0.22992 c 0.95254,-0.13135 2.03647,-0.22985 2.4306,-0.22985 0.65696,0.0164 0.70624,0.0492 0.85401,0.5911 z m -23.89575,3.0712 c -0.67337,1.6752 -1.92148,5.10765 -2.11856,5.8795 -0.19712,0.8212 -0.91968,4.9105 -0.91968,5.2883 0,0.87045 -1.88868,-8.29373 -2.18433,-10.6259 -0.0329,-0.1805 0.427,-0.2956 2.1022,-0.509 3.00545,-0.3778 3.26819,-0.3778 3.12037,-0.0329 z m 31.17123,1.7573 c 0.18065,0.7226 0.0657,0.8704 -0.68975,1.01825 l -0.55842,0.11495 0.11499,-0.54195 c 0.13135,-0.70625 0.55835,-1.34675 0.80469,-1.26458 0.0986,0.0328 0.26282,0.32843 0.32849,0.67333 z m -40.87732,1.1989 c -0.50913,0.9854 -1.05106,1.8723 -1.19888,1.9872 -0.14783,0.11493 -0.26275,0.34485 -0.27918,0.49274 -0.0329,0.52551 -1.19887,2.82476 -1.42883,2.82476 -0.16424,0 -0.29562,-0.3285 -0.42704,-0.9525 -0.1642,-0.87055 -0.14782,-1.05116 0.14787,-1.69166 0.18063,-0.39414 0.32843,-0.87044 0.32843,-1.05114 0,-0.197 0.49267,-0.8211 1.19888,-1.49445 2.51275,-2.44708 2.89047,-2.47995 1.65875,-0.11495 z m 1.0018,3.1697 c -0.49267,2.01995 -0.93606,3.6952 -0.96899,3.728 -0.0328,0.0329 -0.37769,-0.2628 -0.75544,-0.6405 l -0.7062,-0.7062 1.62588,-3.1532 c 0.88687,-1.74086 1.64237,-3.1041 1.6752,-3.0219 0.0164,0.0657 -0.36132,1.7737 -0.87045,3.7938 z m 2.28281,0.77185 c 0.14786,0.80475 0.427,2.06935 0.59126,2.84125 0.18065,0.77185 0.65694,3.3175 1.08394,5.66595 0.41056,2.34855 0.77191,4.38501 0.82116,4.53285 0.0493,0.197 -0.0492,0.29564 -0.34493,0.34483 -0.37769,0.0822 -0.47623,-0.0492 -1.33023,-1.65869 -0.88688,-1.64224 -1.83939,-3.13684 -3.0383,-4.72984 l -0.50914,-0.6898 0.95256,-3.7445 c 0.854,-3.36674 1.0675,-3.97447 1.39599,-3.9909 0.0493,0 0.22992,0.64046 0.37769,1.42885 z m 39.56354,4.0072 c 0.57482,3.82665 0.6405,4.5329 0.52552,5.94525 -0.0657,0.9033 -0.16426,1.5602 -0.24635,1.4781 -0.0657,-0.0657 -0.65692,-2.24995 -1.31385,-4.8284 l -1.1825,-4.69706 0.427,-0.45984 c 0.2956,-0.32843 0.42702,-0.6405 0.42702,-1.0839 0,-0.57485 0.19708,-0.8377 0.57483,-0.7391 0.0822,0.0165 0.44342,1.9872 0.78833,4.38495 z m 1.59302,-4.17145 c 0.1314,0.14777 -0.67335,7.2755 -0.82117,7.2755 -0.11493,0 -1.11676,-7.2755 -1.01825,-7.4561 0.0822,-0.16425 1.67522,0 1.83942,0.1806 z m 1.396,0.59125 0.82116,0.52555 0.0821,2.6441 c 0.0492,1.4453 0.0328,2.92337 -0.0164,3.28463 -0.18066,1.05107 -2.33209,6.35577 -2.4635,6.02727 -0.0493,-0.16417 -0.19708,-1.21525 -0.31201,-2.34843 -0.21356,-2.0036 -0.19709,-2.16787 0.32848,-6.37217 0.31196,-2.36495 0.5912,-4.3029 0.65687,-4.3029 0.0493,0 0.4599,0.2463 0.90333,0.54195 z m -49.92656,0.59125 c -0.0985,0.5748 -0.16424,0.6733 -0.50912,0.6733 -0.3941,0 -0.3941,0 -0.13135,-0.54196 0.5748,-1.13317 0.82111,-1.18234 0.64047,-0.13134 z m 51.94656,1.166 0.542,0.62416 -0.60767,1.54374 c -0.32843,0.83754 -0.67333,1.59304 -0.77185,1.69155 -0.11505,0.11505 -0.13148,0.0657 -0.0493,-0.13135 0.0493,-0.16425 0.0985,-1.2317 0.0985,-2.3486 0,-1.11673 0.0493,-2.0365 0.13142,-2.0199 0.0657,0 0.3613,0.2955 0.6569,0.6404 z m -8.5072,3.219 0.98542,3.43244 -0.0164,2.29926 c -0.0165,1.2646 -0.0657,2.7098 -0.115,3.2025 l -0.11492,0.90333 -0.36133,-0.73907 c -0.19715,-0.41066 -0.91967,-3.00546 -1.60949,-5.79736 l -1.24816,-5.0584 0.3613,-0.52553 c 0.47627,-0.68982 1.00185,-1.28107 1.08394,-1.19891 0.0328,0.0329 0.50909,1.60949 1.03466,3.48174 z m 10.29737,-1.1332 0.70618,1.0018 -1.31391,4.97625 c -0.72254,2.74265 -1.39594,5.17328 -1.51086,5.40325 -0.18068,0.3613 -0.21356,0.21345 -0.31208,-1.2318 -0.2135,-3.1697 -0.1806,-7.3576 0.0657,-8.0638 0.59126,-1.6588 1.31384,-3.20255 1.49446,-3.1368 0.0986,0.0329 0.49272,0.5091 0.87047,1.0511 z m -11.9068,3.76083 c 1.29743,5.28833 1.29743,5.1734 0.082,3.02197 l -1.05105,-1.88867 -0.29557,-2.33209 c -0.2792,-2.31567 -0.26281,-2.92334 0.11492,-2.80844 0.0985,0.0329 0.62407,1.8394 1.14967,4.00723 z M 343.7432,591.7552 c -0.0493,0.16423 -0.36133,1.6916 -0.68976,3.3996 -0.45987,2.2993 -0.65694,3.0055 -0.73904,2.70976 -0.0657,-0.21346 -0.2792,-1.57656 -0.47633,-3.02176 -0.19705,-1.44534 -0.36127,-2.7427 -0.37767,-2.87405 -0.0329,-0.26275 0.5748,-0.44355 1.6587,-0.47632 0.60765,-0.0164 0.70622,0.0328 0.6241,0.26277 z m 1.823,-0.0985 c 0.7883,0.1314 1.03466,0.2463 1.03466,0.4599 0,0.1477 -0.21356,1.65867 -0.47632,3.3831 l -0.45981,3.1205 -1.00186,1.9707 c -1.49447,2.9726 -1.39593,2.93974 -1.82293,0.7062 l -0.3613,-1.9051 0.75543,-3.5967 c 0.41055,-1.9707 0.77188,-3.74446 0.82117,-3.958 0.0985,-0.4105 0.11496,-0.427 1.51096,-0.1806 z m -4.54923,0.2135 c 0,0.0328 0.26278,1.6259 0.57477,3.531 0.31206,1.88866 0.57482,3.67876 0.57482,3.97435 0,0.41058 -1.24816,7.24265 -1.59304,8.68795 -0.13138,0.5255 -0.16425,0.2956 -1.26456,-8.3267 -0.49271,-3.77727 -0.8212,-6.93046 -0.75549,-6.9962 0.11493,-0.1314 2.08573,-0.9033 2.34848,-0.9197 0.0657,-0.0164 0.11502,0.0164 0.11502,0.0493 z m 6.63495,0.3613 c 0.39418,0.1477 0.31208,0.34485 -0.22992,0.5255 -0.44345,0.16426 -0.47626,0.2136 -0.427,0.96895 0.0657,1.00185 0.115,1.06755 0.2463,0.4599 0.0657,-0.29565 0.22995,-0.50909 0.41062,-0.54199 0.26275,-0.0493 0.29562,0 0.2135,0.427 -0.0985,0.4599 -1.7573,3.71167 -1.7573,3.44894 0,-0.115 0.50913,-3.36685 0.7555,-4.8613 0.0821,-0.5255 0.27918,-0.6241 0.7883,-0.427 z m 56.41366,5.6988 c -1.95434,3.2518 -1.77368,2.97265 -1.85578,2.8905 -0.0493,-0.0657 1.90504,-7.4397 2.11854,-7.99805 0.0822,-0.19715 0.27923,0.0657 0.75549,1.00185 l 0.65692,1.2974 z m -65.9227,-4.4507 c 0.0328,0.2136 0.52552,3.6624 1.06752,7.6861 0.55837,4.0237 1.0347,7.4397 1.0839,7.58753 0.0493,0.16417 0.0165,0.29557 -0.0657,0.29557 -0.11499,0 -2.34854,-7.1605 -3.95801,-12.728 -0.45983,-1.593 -0.45983,-1.6422 -0.16425,-1.9543 0.16425,-0.18065 0.34488,-0.2792 0.3942,-0.2299 0.0493,0.0492 0.22989,0.5583 0.37769,1.1332 0.18069,0.68973 0.36133,1.051 0.52557,1.051 0.29562,0 0.29562,-0.4434 -0.0164,-1.7736 -0.21345,-0.90334 -0.19706,-0.9855 0.0986,-1.19893 0.427,-0.31207 0.55838,-0.29557 0.65692,0.13133 z m 12.03822,0.7227 c 0.19707,0.1313 0.36132,0.3449 0.36132,0.4763 0,0.1149 0.26276,0.4434 0.60763,0.7226 l 0.59125,0.4927 -0.62408,2.10213 c -1.7901,6.0766 -1.67517,5.79743 -2.56198,6.84847 -0.45994,0.55845 -1.51099,1.8229 -2.33214,2.84117 -0.83754,1.00189 -1.54378,1.80658 -1.57662,1.77373 -0.0329,-0.0493 0.19706,-0.8376 0.52552,-1.7573 0.31207,-0.9361 0.87042,-2.66054 1.23175,-3.82655 0.90329,-2.8905 2.97259,-9.4762 3.0711,-9.73895 0.0986,-0.2628 0.26282,-0.2464 0.70625,0.0657 z m 38.693,2.79196 c 0.16426,1.31384 0.3285,2.49624 0.37776,2.62764 0.0493,0.13146 0.0164,0.22997 -0.0493,0.22997 -0.18066,0 -1.47805,-3.41602 -1.4124,-3.67884 0.16424,-0.60763 0.59124,-1.57653 0.68978,-1.57653 0.0657,0 0.24634,1.08386 0.39412,2.39776 z m 11.95613,2.06934 0.0822,4.3192 -0.73908,1.2811 c -0.41064,0.70616 -0.78832,1.21525 -0.854,1.1495 -0.36132,-0.3941 -1.01824,-2.9561 -1.03466,-4.0401 -0.0328,-1.1003 0.0493,-1.3795 1.11676,-4.0893 0.6405,-1.6095 1.1989,-2.9234 1.24823,-2.9234 0.0492,0 0.13127,1.938 0.1806,4.303 z m -63.03223,3.2682 c 2.4635,7.8667 2.59482,8.6221 1.16608,6.9306 -2.77558,-3.28474 -3.53101,-4.23725 -3.53101,-4.5164 0,-0.1643 -0.0986,-0.2957 -0.19711,-0.2957 -0.11493,0 -0.427,-0.2627 -0.70616,-0.57475 -0.26277,-0.29565 -1.14964,-1.29749 -1.9544,-2.21715 l -1.44524,-1.6423 0.50912,-0.7719 c 0.27922,-0.4435 0.72266,-1.03467 0.969,-1.3303 l 0.45982,-0.5584 0.77193,2.6113 c 0.427,1.4288 0.88681,2.989 1.03463,3.46527 0.13138,0.49267 0.27918,0.85403 0.3285,0.80473 0.0657,-0.0492 -0.93613,-3.76085 -1.83946,-6.89775 -0.0985,-0.32835 1.88868,-2.5127 2.08582,-2.29919 0.0657,0.0821 1.11676,3.35034 2.34848,7.29194 z m 9.80466,-3.1205 c -0.60766,1.9216 -1.59306,5.0255 -2.15146,6.8814 -1.1168,3.5803 -1.4288,4.28645 -1.24814,2.7919 0.0657,-0.5091 0.0493,-0.8047 -0.0329,-0.6898 -0.0821,0.11495 -0.24634,-0.37766 -0.41056,-1.3138 l -0.29564,-1.52736 0.68975,-1.28101 c 0.36133,-0.70617 0.70625,-1.24823 0.75549,-1.21533 0.0328,0.0493 -0.0821,1.11676 -0.27917,2.39777 -0.19709,1.28106 -0.3285,2.39783 -0.29567,2.49633 0.0329,0.0985 0.2628,-1.1332 0.5256,-2.7427 l 0.45982,-2.93967 1.65873,-3.23543 c 0.9197,-1.7737 1.69162,-3.219 1.708,-3.1861 0.0164,0.0164 -0.4598,1.62594 -1.08389,3.5638 z m 58.87717,-1.708 0.44342,1.52734 -1.26459,2.67706 -1.26466,2.66046 -1.62584,0.93614 c -1.54383,0.91976 -2.10216,1.1497 -1.88866,0.7884 0.0493,-0.0821 0.1314,-0.3942 0.1478,-0.68975 0.0328,-0.29571 0.22993,-1.16615 0.4106,-1.92155 0.2956,-1.11684 0.67334,-1.8887 2.0857,-4.2701 2.33214,-3.89227 2.21715,-3.7116 2.36498,-3.46527 0.0822,0.11493 0.34492,0.90327 0.59125,1.75727 z m -54.32797,-0.9032 c -0.0493,0.21344 -0.3613,1.5602 -0.68976,3.0054 -0.49268,2.1022 -0.70624,2.7263 -1.05112,3.07114 -0.47623,0.52556 -0.60764,0.50916 -0.37768,-0.0492 0.1478,-0.37777 0.32846,-0.969 1.41235,-4.7956 0.24637,-0.87044 0.52557,-1.5931 0.62415,-1.5931 0.0821,0 0.11492,0.16425 0.0821,0.3614 z m 42.61819,1.39593 c 0,0.39417 0.0657,0.70617 0.13141,0.70617 0.0657,0 0.32849,0.6405 0.55834,1.42884 0.23,0.80481 0.5749,1.85586 0.77192,2.34856 0.34491,0.95247 0.31208,2.0364 -0.0657,2.89046 -0.18062,0.37768 -0.22987,0.32844 -1.03462,-1.19892 l -0.83758,-1.60944 0.0657,-2.9562 c 0.0493,-2.21713 0.0986,-2.8741 0.24633,-2.6277 0.0822,0.1642 0.16425,0.6241 0.16425,1.01823 z m -6.14227,1.23177 c 0.47628,1.13316 0.83758,2.1678 0.80478,2.2664 -0.0329,0.1314 -0.52558,-0.18066 -1.19889,-0.7555 -0.64057,-0.52557 -1.18249,-0.9689 -1.21537,-1.0019 -0.0329,-0.0163 0.0657,-0.6732 0.22993,-1.4616 0.16425,-0.7719 0.34487,-1.3467 0.41057,-1.2645 0.0493,0.0657 0.49275,1.0674 0.96898,2.2171 z m 3.46532,-0.2135 c 0.87043,1.59306 1.10035,2.1842 1.49445,3.92515 0.26282,1.13318 0.44349,2.0857 0.41065,2.13501 -0.0493,0.0328 -0.54193,-0.27916 -1.11682,-0.72266 -0.57483,-0.42706 -1.06751,-0.80474 -1.10034,-0.82116 -0.16424,-0.11494 -0.54194,-2.61134 -0.5748,-3.79384 -0.0164,-0.73894 -0.0821,-1.3959 -0.1478,-1.4616 -0.0657,-0.0657 -0.11502,-0.37774 -0.11502,-0.6898 0,-0.32844 0.0329,-0.54194 0.0657,-0.50905 0.0328,0.0328 0.50912,0.90325 1.08394,1.93795 z m 5.76454,1.708 c -0.36134,0.36126 -0.67341,-2.1843 -0.39417,-3.1697 0.0822,-0.29564 0.18066,0.0985 0.32843,1.31386 0.11505,1.00184 0.14783,1.77368 0.0657,1.85584 z m -43.99774,-2.1021 c -0.5748,0.88676 -1.08393,1.56004 -1.13325,1.4944 -0.0657,-0.0493 0.3285,-1.7901 0.54203,-2.39774 0.0657,-0.16426 0.16418,-0.0985 0.3941,0.24634 0.16425,0.26275 0.26276,0.55835 0.19712,0.657 z m 1.21533,1.93784 0.57479,1.11676 -1.10037,1.26465 c -0.60765,0.68975 -1.65875,1.90505 -2.34855,2.69335 -0.67333,0.7884 -1.24813,1.4124 -1.26455,1.396 -0.0821,-0.0821 1.34668,-5.60033 1.51093,-5.8795 0.0821,-0.13136 0.47629,-0.7062 0.88687,-1.2646 0.83755,-1.1825 0.7883,-1.2153 1.74088,0.67334 z m 52.45567,0.42701 c 0.18062,0.75549 0.32844,1.37951 0.2956,1.41241 -0.16424,0.11494 -2.9726,1.72444 -3.02184,1.72444 -0.0328,0 0.45984,-1.0346 1.10034,-2.31575 0.62402,-1.28095 1.1825,-2.29919 1.21527,-2.26635 0.0329,0.0328 0.21356,0.68975 0.41063,1.44525 z m -17.73705,1.87225 c 0.0985,0.3777 0.42701,1.4617 0.72257,2.4142 0.31208,0.95256 0.54202,1.7408 0.50912,1.7737 -0.0657,0.0658 -4.63131,-3.20255 -4.76266,-3.416 -0.0986,-0.1478 0.3613,-3.2354 0.50912,-3.48174 0.0492,-0.0656 0.70618,0.36124 1.46167,0.95254 1.19889,0.9197 1.41233,1.16605 1.56018,1.7573 z m -56.54507,-0.0329 2.11862,2.3814 0.4434,1.6423 c 0.24636,0.8869 0.60766,2.26646 0.82116,3.0383 l 0.39414,1.4125 -3.7445,-3.7774 c -2.06932,-2.0858 -3.76088,-3.8759 -3.76088,-3.97444 0,-0.41056 1.4288,-3.33393 1.56021,-3.16966 0.0164,0.0328 0.98535,1.13316 2.16785,2.447 z m 8.75354,2.75916 c -0.52552,1.05108 -0.96892,1.80658 -0.96892,1.67511 -0.0164,-0.26277 1.11675,-6.06017 1.24812,-6.42147 0.0493,-0.1313 0.22992,0.44344 0.39418,1.29744 l 0.2956,1.52736 z m 13.87758,-3.15326 c 0.13145,0.3449 1.06755,3.05475 1.06755,3.10394 0,0.13146 -6.7171,5.6496 -6.88135,5.6496 -0.26276,0 -0.22992,-0.26274 0.22995,-2.05294 l 0.41062,-1.5765 2.4306,-2.6935 c 1.33029,-1.4781 2.4635,-2.69336 2.51275,-2.69336 0.0657,-0.0164 0.16418,0.11496 0.22988,0.26276 z m 38.16755,0.6241 c -0.0164,0.47624 -0.0164,0.47624 -0.14782,0.0821 -0.0657,-0.22994 -0.13141,-0.55844 -0.14783,-0.73904 -0.0164,-0.26282 0.0164,-0.27926 0.14783,-0.0821 0.0822,0.13133 0.14782,0.45983 0.14782,0.73903 z m 14.14039,1.1003 c 0.0986,0.7555 0.19708,1.5438 0.2135,1.7573 0.0328,0.34496 -0.19709,0.4763 -2.59484,1.4288 -1.44526,0.57485 -2.7591,1.10036 -2.92335,1.1497 -0.21355,0.0656 -0.0329,-0.4106 0.72259,-1.938 l 1.00183,-2.0201 1.51093,-0.854 c 0.82117,-0.45983 1.57666,-0.854 1.67517,-0.854 0.11493,-0.0164 0.27918,0.54206 0.39417,1.3303 z m -58.30237,2.1679 -0.65692,2.9069 -0.77188,0.82116 c -0.41057,0.44344 -0.78837,0.78834 -0.82117,0.75549 -0.0164,-0.0329 0.39416,-1.54375 0.91974,-3.36682 0.73898,-2.56193 1.06744,-3.43243 1.42874,-3.85943 0.26275,-0.2956 0.49272,-0.45984 0.52557,-0.36133 0.0329,0.11503 -0.24635,1.51098 -0.62408,3.10403 z m 45.328,-1.4781 c 0.41058,0.7719 0.68976,1.4288 0.62408,1.49455 -0.16425,0.18055 -1.41235,-0.73905 -1.51092,-1.11688 -0.13141,-0.52551 -0.11493,-1.7572 0.0328,-1.7572 0.0657,0 0.45983,0.62403 0.854,1.37953 z m -6.30649,1.11674 c 1.93792,1.37956 2.51276,1.87232 2.72629,2.36499 0.16418,0.34491 0.26276,0.65687 0.2135,0.68977 -0.0822,0.0986 -5.33757,-0.6405 -5.81384,-0.8212 -0.37773,-0.1313 -0.37773,-0.18064 -0.27918,-1.33024 0.22992,-2.54556 0.29557,-2.90686 0.49268,-2.77556 0.11497,0.0657 1.31387,0.9033 2.66055,1.87224 z m -56.24945,1.31396 c 2.87409,2.8576 4.59851,4.72987 4.15507,4.5492 -0.0821,-0.0329 -2.08576,-1.05115 -4.45066,-2.25006 l -4.30289,-2.16784 0.24631,-0.854 c 0.14784,-0.4598 0.32849,-1.01826 0.41061,-1.2317 0.0821,-0.21356 0.2135,-0.5584 0.31208,-0.7884 0.0821,-0.22985 0.21345,-0.4105 0.29555,-0.4105 0.0657,0 1.57664,1.42876 3.33393,3.1533 z m 60.40451,-2.4964 c 1.10041,0.72266 1.10041,0.77186 1.14966,3.03834 0.0328,1.69156 -0.0493,1.82296 -0.7719,1.26453 -0.27925,-0.21351 -0.5091,-0.77192 -0.854,-1.97071 -0.52553,-1.87226 -0.73903,-2.98906 -0.57484,-2.98906 0.0493,0 0.52557,0.2956 1.05108,0.6569 z m 7.81746,-0.0493 c -0.2135,1.19892 -0.4106,1.82295 -0.67335,2.03645 -0.22992,0.1807 -0.2956,0.16424 -0.49268,-0.0822 -0.19707,-0.27918 -0.14783,-0.44344 0.3941,-1.42877 0.3285,-0.62403 0.67333,-1.13317 0.73908,-1.13317 0.0657,0 0.0822,0.27916 0.0328,0.60765 z m -2.59486,3.02185 c -0.2464,0.3941 -0.36134,0.3941 -0.95258,-0.0328 -0.72259,-0.50907 -0.98536,-1.13317 -0.87036,-2.06927 0.21344,-1.5603 0.34485,-1.5274 1.21527,0.21343 0.65693,1.33032 0.77191,1.64234 0.60767,1.88867 z m -50.22214,0.45984 c -0.90332,3.15326 -1.01825,3.43246 -1.80655,4.46716 -0.54195,0.7062 -0.98541,1.1332 -1.2482,1.18244 -0.49267,0.0986 -0.49267,0.0821 -0.60763,-1.90509 l -0.0985,-1.6095 2.3321,-2.79185 c 1.281,-1.5274 2.34851,-2.7591 2.36496,-2.72634 0.0328,0.0164 -0.3942,1.54384 -0.93613,3.38318 z m 55.05057,-1.18244 c -0.70624,1.4452 -1.08393,2.0036 -1.41242,2.15144 -0.67335,0.31201 -0.73907,0.2464 -0.73907,-0.77184 0,-1.741 0.0493,-1.823 1.6095,-2.7263 0.78832,-0.45993 1.44525,-0.7883 1.47808,-0.72257 0.0329,0.0656 -0.3941,1.00171 -0.93609,2.06927 z m -59.452,0.4927 c 0.47629,2.4635 0.45987,2.5784 -0.62407,4.05656 l -0.95256,1.26454 -0.68976,-0.78834 c -0.45984,-0.52551 -0.70618,-0.9361 -0.70618,-1.24811 0,-0.427 2.447,-5.10765 2.59483,-4.95985 0.0329,0.0328 0.19711,0.78834 0.37774,1.6752 z m 13.81195,-0.5256 c 0.16422,0.5256 0.34488,1.34675 0.39411,1.8231 l 0.11502,0.854 -1.14969,0.75534 -1.13318,0.77192 -2.49631,-0.0492 -2.4963,-0.0493 3.08755,-2.57845 c 1.69156,-1.41234 3.13681,-2.54564 3.23535,-2.5292 0.0821,0.0165 0.29563,0.4763 0.44345,1.0018 z m 37.95401,-0.5091 c 0.27917,0.2135 0.27917,0.2792 0.0164,1.19887 -0.36133,1.29743 -0.49275,1.37958 -0.62415,0.34493 -0.0657,-0.4762 -0.16418,-1.1496 -0.2135,-1.511 -0.0821,-0.5747 -0.0821,-0.6076 0.2135,-0.44337 0.16425,0.0986 0.4435,0.27924 0.60773,0.41057 z m -57.66186,1.6587 c 0.85403,0.9854 1.59303,1.90516 1.67513,2.0037 0.11497,0.19705 -1.01824,2.33206 -1.2317,2.3485 -0.44343,0.0165 -0.8212,-0.8047 -1.42885,-3.0383 -0.85403,-3.15325 -0.93612,-3.49816 -0.73905,-3.2846 0.0986,0.0822 0.87046,0.96894 1.72447,1.9707 z m 71.01385,0.7884 0.11498,1.8887 -0.72258,0.0985 c -2.05292,0.27916 -4.99268,0.4434 -5.04192,0.27916 -0.0329,-0.0985 -0.18068,-0.18066 -0.32844,-0.18066 -0.14783,0 -0.42701,-0.197 -0.62416,-0.44337 -0.36132,-0.44343 -0.36132,-0.45983 -0.0657,-1.05108 0.27916,-0.52565 0.49266,-0.65699 2.16784,-1.29749 1.01825,-0.3941 2.38142,-0.91966 3.00544,-1.16601 0.90332,-0.34491 1.18248,-0.39425 1.26464,-0.22998 0.0657,0.11503 0.18061,1.06756 0.22986,2.10223 z m -7.94879,-1.3795 c -0.0329,0.37767 -0.14783,0.67326 -0.22993,0.67326 -0.0986,0 -0.1314,-0.16416 -0.0657,-0.37776 0.0493,-0.197 0.0986,-0.5255 0.0986,-0.73894 0,-0.21356 0.0657,-0.34496 0.13141,-0.29566 0.0657,0.0328 0.0985,0.37775 0.0657,0.7391 z m -6.06018,1.8557 c -0.22992,0.41064 -0.37775,-0.0328 -0.36127,-1.14954 l 0.0164,-1.26466 0.2135,1.1496 c 0.11493,0.62415 0.1806,1.199 0.13135,1.2646 z m 2.2829,-1.3795 0.27911,0.4763 -0.73906,0.5255 -0.75545,0.5256 0.0821,-0.45986 c 0.0493,-0.24634 0.14777,-0.82124 0.1971,-1.24824 0.0985,-0.73894 0.13134,-0.78825 0.37768,-0.5584 0.14782,0.14783 0.41058,0.4763 0.55847,0.7391 z m 3.41595,-0.83755 c 0,0.0822 -0.0821,0.24628 -0.16424,0.37769 -0.13136,0.19706 -0.16419,0.18066 -0.16419,-0.13141 0,-0.19703 0.0822,-0.36127 0.16419,-0.36127 0.0986,0 0.16424,0.0493 0.16424,0.11499 z m -4.6806,1.51085 c -0.0821,0.68984 -0.1806,1.0019 -0.34485,1.0019 -0.13147,0 -0.22998,-0.0328 -0.22998,-0.0821 0,-0.26276 0.55841,-2.0365 0.62408,-1.98716 0.0329,0.0492 0.0165,0.5255 -0.0493,1.0674 z m -63.06506,1.4453 c 4.51636,2.2664 4.5328,2.2664 4.69706,2.9069 0.21346,0.7555 0.0985,1.0839 -0.3449,1.0839 -0.41057,0 -9.22985,-5.89586 -9.09847,-6.09294 0.0493,-0.0821 0.11499,-0.14783 0.16417,-0.14783 0.0329,0 2.10225,1.01817 4.58214,2.24997 z m 66.34966,-1.75735 c 0.39423,0.77191 0.27924,0.93615 -0.26275,0.3778 -0.27917,-0.27915 -0.45985,-0.59125 -0.41052,-0.68975 0.19707,-0.29566 0.41052,-0.1971 0.67327,0.31195 z m -62.1125,6.4544 c 0.427,0.49265 0.57482,0.9361 0.31206,0.9361 -0.0657,0 -0.3613,-0.0657 -0.67336,-0.16419 -0.3449,-0.0986 -0.6569,-0.0986 -0.8376,0 -0.2956,0.14774 -0.75546,-0.16426 -6.27365,-4.4671 -1.77368,-1.36316 -1.92147,-1.5274 -1.82293,-1.92156 0.0493,-0.23 0.13131,-0.47627 0.16421,-0.55836 0.0985,-0.18064 8.58933,5.56746 9.13127,6.17511 z m 52.12728,-5.18975 c 1.29742,0.5091 2.31564,0.9525 2.28274,0.9854 -0.0328,0.0328 -1.33022,-0.21356 -2.87399,-0.542 l -2.80838,-0.6241 v -0.4763 c 0,-0.45977 0.0328,-0.4762 0.54193,-0.3777 0.27922,0.0493 1.57666,0.52554 2.8577,1.0347 z m 9.72247,-0.3777 c 0.52551,0.54194 0.57483,0.9197 0.0985,0.9197 -0.29553,0 -1.13318,-1.08394 -0.98536,-1.3139 0.16425,-0.2628 0.31208,-0.19704 0.88685,0.3942 z m -8.47435,-0.11504 c 1.92155,0.26288 1.95433,0.27924 2.1514,0.77191 0.16426,0.39416 0.16426,0.54199 0.0164,0.62413 -0.11493,0.0656 -1.1824,-0.27916 -2.39776,-0.7719 -1.21531,-0.49273 -2.08577,-0.88684 -1.95432,-0.9033 0.13132,0 1.11675,0.1149 2.18425,0.27916 z m 7.17693,-0.16426 c 0,0.0822 -0.14783,0.3121 -0.2956,0.5092 -0.2135,0.2792 -0.427,0.3777 -0.77191,0.3284 l -0.45984,-0.0492 0.64057,-0.4599 c 0.64045,-0.4434 0.88678,-0.5419 0.88678,-0.3285 z m 0.4599,0.7063 c 0.1806,0.29554 0.16417,0.32844 -0.18073,0.32844 -0.49268,0 -0.65692,-0.16418 -0.427,-0.44334 0.24634,-0.29573 0.36133,-0.2793 0.60773,0.1149 z m 3.81017,-0.0821 c -0.11498,0.13134 -0.27923,0.2464 -0.36132,0.2464 -0.0986,0 -0.0821,-0.11506 0.0328,-0.2464 0.11494,-0.13141 0.2792,-0.24636 0.36128,-0.24636 0.0986,0 0.0822,0.11495 -0.0328,0.24636 z m -12.67874,0.88684 c 1.47809,0.36127 2.72629,0.68976 2.77549,0.7391 0.0657,0.0493 -0.0657,0.27915 -0.27918,0.50907 -0.2135,0.22998 -0.36127,0.41053 -0.31201,0.427 0.0329,0.0164 0.31201,0.0328 0.60767,0.0657 0.62407,0.0493 0.77185,0.14786 0.6076,0.41056 -0.0656,0.115 -0.49267,0.13143 -1.24813,0.0658 -0.62406,-0.0493 -2.10215,-0.14786 -3.30106,-0.19706 l -2.18427,-0.115 -0.0493,-1.3631 c -0.0493,-1.3467 -0.0493,-1.3632 0.32842,-1.2646 0.21356,0.0492 1.57668,0.3777 3.05474,0.7226 z m -40.13826,-0.1971 c -0.16426,0.80476 -0.2135,0.87044 -0.6405,0.87044 -0.52556,0 -0.50914,-0.0821 0.0492,-0.73894 0.54196,-0.6735 0.72263,-0.7063 0.59126,-0.1315 z m 8.96703,0.45985 v 0.57485 h -0.82117 c -0.44346,0 -0.82113,-0.0492 -0.82113,-0.13136 0,-0.13144 1.31381,-1.01824 1.52737,-1.01824 0.0657,0 0.11493,0.2627 0.11493,0.57475 z m -29.82453,-0.0985 c 0.19706,0.16426 1.72443,1.33033 3.39963,2.57846 1.69159,1.26456 3.25177,2.43064 3.49811,2.6113 0.29563,0.22986 0.39416,0.3941 0.27924,0.55835 -0.11498,0.18065 -0.64058,-0.0329 -2.49638,-1.01825 -1.2974,-0.67334 -3.02187,-1.5766 -3.84298,-1.9872 -0.80482,-0.427 -1.52737,-0.8211 -1.59308,-0.8868 -0.19704,-0.19716 0.0493,-2.16787 0.24634,-2.16787 0.0985,0 0.32849,0.14777 0.50912,0.31201 z m 15.99622,3.25176 c -0.34488,0.427 -0.39419,0.1807 -0.34488,-1.2317 0.0986,-2.00364 0.26276,-2.1843 0.39411,-0.44346 0.0657,0.91966 0.0493,1.56026 -0.0492,1.67516 z m 64.87165,-1.01824 c -0.0493,0.95258 -0.11499,1.77374 -0.16425,1.823 -0.0822,0.0657 -3.26819,-0.55836 -5.96167,-1.16601 -0.19702,-0.0329 -0.4762,-0.32849 -0.62408,-0.65699 -0.34485,-0.72259 -0.34485,-0.73906 0.0164,-0.73906 0.16425,0 0.47632,-0.13136 0.68976,-0.2956 0.39423,-0.2792 3.0055,-0.6076 5.23908,-0.67334 l 0.88684,-0.0164 z m -65.85707,-0.54193 c -0.41054,1.03467 -0.55834,1.21534 -0.67336,0.90327 -0.0657,-0.1971 0.75549,-1.7573 0.93613,-1.7573 0.0493,0 -0.0821,0.3942 -0.26277,0.85403 z m -2.6277,0.73902 c -0.0328,0.26281 -0.11497,0.32849 -0.26276,0.22992 -0.16424,-0.0985 -0.1807,-0.31202 -0.0986,-0.77187 0.11503,-0.59123 0.13143,-0.60765 0.26275,-0.22996 0.0821,0.21356 0.13144,0.55841 0.0986,0.77191 z m 3.02188,0.0493 c -0.11496,1.00184 -0.37778,1.42884 -0.57483,0.90324 -0.0985,-0.2135 0.52555,-2.135 0.6405,-2.00364 0.0329,0.0165 0,0.52554 -0.0657,1.1004 z m -3.71164,-0.41066 c -0.0493,0.1315 -0.16424,0.2464 -0.24637,0.2464 -0.11497,0 -0.0985,-0.1642 0.0165,-0.427 0.19705,-0.427 0.41055,-0.2628 0.22992,0.1806 z m 1.52731,0.90334 c 0.0329,0.52556 -0.44339,-0.24634 -0.54193,-0.90334 l -0.0821,-0.6569 0.31207,0.6569 c 0.16421,0.36135 0.31198,0.7719 0.31198,0.90334 z m 60.55237,-0.80474 0.24634,0.49267 -0.45984,-0.0493 c -0.36132,-0.0328 -0.4599,-0.13134 -0.47626,-0.4598 -0.0164,-0.82113 0.26274,-0.8047 0.68976,0.0164 z m -55.05057,0.26275 c -0.13138,0.96899 -0.75543,1.57665 -0.98538,0.96899 -0.0821,-0.2135 0.80475,-1.7409 1.00183,-1.7409 0.0492,0 0.0328,0.34496 -0.0164,0.77191 z m -5.25543,-0.34479 c 0.14782,0.37768 0.11498,0.59114 -0.0493,0.49264 -0.19711,-0.1314 -0.34488,-0.7555 -0.18066,-0.7555 0.0657,0 0.18066,0.115 0.22992,0.26286 z m 6.17511,0.42694 c -0.29557,0.1642 -0.5748,0.27924 -0.60763,0.2299 -0.18067,-0.18064 0.11495,-0.5748 0.4763,-0.62407 0.62406,-0.11493 0.67332,0.0493 0.13133,0.39417 z m 5.22259,-0.312 c 0.32846,0.0328 0.26276,0.1149 -0.49267,0.70617 -0.82117,0.62403 -0.93613,0.65693 -2.15149,0.70617 l -1.2974,0.0329 0.11496,-0.54204 c 0.2135,-1.1003 0.0986,-1.0347 1.83942,-0.98537 0.88681,0.0164 1.77371,0.0657 1.98718,0.0822 z m 37.52701,0.0492 c 0.96897,0.0657 1.75732,0.1642 1.75732,0.21354 0,0.36126 -0.70623,0.82116 -3.26825,2.06926 -1.57662,0.77193 -2.87405,1.3796 -2.90692,1.3632 -0.0492,-0.0658 -0.39413,-3.12044 -0.39413,-3.5967 0,-0.3449 0.0328,-0.3613 1.52737,-0.26276 0.82114,0.0657 2.29926,0.16426 3.28461,0.21346 z m 6.09297,1.1332 c 0.22997,0.7062 0.3942,1.3303 0.36138,1.3467 -0.0329,0.0329 -0.27924,-0.1971 -0.57483,-0.5255 -0.39417,-0.45985 -0.5091,-0.7391 -0.5091,-1.29743 0,-0.60767 0.11493,-1.01827 0.26275,-0.87043 0.0328,0.0164 0.22993,0.62403 0.4598,1.34666 z m 1.7409,-1.281 c 0,0.2299 -0.90327,2.5128 -0.98542,2.5128 -0.14778,0 -0.80468,-2.34854 -0.72253,-2.49637 0.0985,-0.16423 1.70795,-0.18063 1.70795,-0.0164 z m -66.1198,2.677 3.5967,1.8558 -4.4179,1.7573 c -2.4306,0.96895 -4.4671,1.72444 -4.53273,1.6916 -0.26282,-0.1314 0,-6.88134 0.2792,-7.71887 0.0492,-0.13147 0.27918,-0.0821 0.77188,0.18061 0.39411,0.19706 2.3321,1.19891 4.30285,2.23356 z m 25.0618,-2.21714 c 0,0.47624 -0.11495,0.50914 -2.05288,0.65698 -0.72262,0.0492 -1.65875,0.13126 -2.08575,0.1806 -0.44342,0.0493 -0.7883,0.0493 -0.7883,0 0,-0.0493 0.34488,-0.34484 0.75546,-0.67334 0.77191,-0.5748 0.77191,-0.5748 2.46347,-0.5748 h 1.708 z m 41.7806,-0.14786 c 0.2135,0.542 0.0821,0.90335 -0.5091,1.4617 -0.34492,0.3121 -0.67335,0.5748 -0.7226,0.5748 -0.0657,0 0.0822,-0.5091 0.32843,-1.1496 0.427,-1.1168 0.70624,-1.4124 0.90327,-0.8869 z m -5.97804,0.13144 c 0,0.0329 -0.14776,0.0985 -0.32843,0.14782 -0.18073,0.0492 -0.29565,0.0164 -0.22993,-0.0657 0.0821,-0.14784 0.55836,-0.2136 0.55836,-0.0822 z m -53.45752,0.26276 c 0.0493,0.0986 0.0493,0.31207 0,0.50915 -0.0985,0.31201 -0.13134,0.32849 -0.427,0.0493 -0.22986,-0.2135 -0.26276,-0.3285 -0.13134,-0.50915 0.2299,-0.26275 0.427,-0.27915 0.55834,-0.0492 z m 2.92336,0.31207 c 0.36134,0.60763 0.36134,0.65693 -0.0821,0.55833 -0.52555,-0.13133 -0.83757,-0.5419 -0.60768,-0.82115 0.26278,-0.31201 0.37775,-0.27915 0.68978,0.26282 z m 51.19108,1.10028 c 0,1.5274 -0.0164,1.60949 -0.91968,3.72815 l -0.91967,2.16784 -1.98725,2.0036 c -1.10034,1.11676 -2.05291,1.95441 -2.11858,1.88866 -0.2135,-0.2135 -1.11677,-3.67876 -1.0018,-3.8759 0.0657,-0.0985 0.73904,-1.0017 1.51092,-1.9872 0.77191,-1.00175 1.88868,-2.4634 2.49638,-3.2682 0.7719,-1.03464 1.31383,-1.5766 1.82292,-1.8394 1.11676,-0.5912 1.11676,-0.5912 1.11676,1.18245 z m 1.90509,-0.96895 c -0.18067,0.1807 -0.31201,-0.0985 -0.18067,-0.39415 0.13142,-0.27915 0.13142,-0.27915 0.1971,0 0.0493,0.16425 0.0329,0.34491 -0.0164,0.39415 z m -47.62727,0.3121 c -0.0985,0.2463 -0.91966,0.3284 -0.91966,0.0821 0,-0.0821 0.19708,-0.31207 0.45984,-0.50914 0.39416,-0.3121 0.44342,-0.3285 0.49272,-0.0821 0.0328,0.14776 0.0164,0.3777 -0.0329,0.5091 z m 52.94838,-0.5091 c 0,0.13134 -0.0657,0.2463 -0.16425,0.2463 -0.082,0 -0.16418,-0.11496 -0.16418,-0.2463 0,-0.1315 0.0822,-0.2464 0.16418,-0.2464 0.0986,0 0.16425,0.1149 0.16425,0.2464 z m 1.08398,-0.0822 c 0.2135,0 1.47804,1.77366 1.34674,1.88866 -0.0165,0.0164 -0.50915,-0.2463 -1.06756,-0.60766 -0.82117,-0.52554 -1.03467,-0.73904 -1.03467,-1.0675 0,-0.31204 0.0657,-0.3941 0.26276,-0.31204 0.14782,0.0492 0.36132,0.0985 0.49273,0.0985 z m -61.50488,0.34491 c 0.2135,0.39415 -0.0821,1.13315 -0.44342,1.13315 -0.26276,0 -0.34488,-0.2463 -0.26276,-0.9197 0.0821,-0.64045 0.4106,-0.73896 0.70618,-0.21345 z m 53.76959,1.24815 c -0.13147,0.32845 -0.27923,0.55837 -0.29571,0.5255 -0.0328,-0.0328 -0.0164,-0.54196 0.0165,-1.1332 l 0.0821,-1.06745 0.2135,0.54195 c 0.19707,0.4598 0.19707,0.60764 -0.0164,1.1332 z m 0.57471,-1.4288 c 0,0.0821 -0.0657,0.1642 -0.16418,0.1642 -0.0821,0 -0.16425,-0.0821 -0.16425,-0.1642 0,-0.0986 0.0821,-0.16426 0.16425,-0.16426 0.0985,0 0.16418,0.0657 0.16418,0.16426 z m -20.06908,0.2956 c 0.0328,0.11497 -0.0657,0.2463 -0.21348,0.2956 -0.32849,0.1314 -0.44345,0.0165 -0.31208,-0.32846 0.11493,-0.29564 0.41059,-0.27917 0.52556,0.0329 z m 25.16033,0.0493 c 0.14782,0.2463 0.13134,0.55834 -0.0164,1.1824 -0.29565,1.28103 -0.39416,1.2975 -0.47625,0.0329 -0.0986,-1.39597 0.11493,-1.92151 0.49268,-1.21527 z m 5.97802,0.312 c 1.60945,0.3613 2.9726,0.68976 3.02192,0.72266 0.0657,0.0821 -0.26277,3.74444 -0.36133,3.82654 -0.0821,0.0986 -4.63134,-3.0711 -4.79554,-3.33386 -0.0986,-0.18064 -0.3778,-0.65694 -0.62414,-1.10034 -0.24634,-0.427 -0.3941,-0.7719 -0.31201,-0.7719 0.0657,0 1.46167,0.2956 3.0711,0.6569 z m -10.24805,0.8212 c 0,0.427 -0.0493,0.82114 -0.11498,0.88675 -0.18067,0.18075 -0.72266,-1.42871 -0.62409,-1.85571 0.0986,-0.36134 0.11499,-0.37781 0.41059,-0.0986 0.24633,0.2135 0.32848,0.50909 0.32848,1.06753 z m -56.33157,0.2299 c -0.37773,0.37774 -0.62411,0.22985 -0.75543,-0.4763 -0.16424,-0.8868 0.0821,-1.03463 0.60764,-0.3941 0.44342,0.54196 0.44342,0.57474 0.14779,0.8704 z m 61.57053,-1.01826 c 0.16424,0.45986 0.0329,0.95256 -0.14783,0.60766 -0.26275,-0.4927 -0.34485,-0.969 -0.16418,-0.969 0.0985,0 0.22992,0.16426 0.31201,0.36134 z m -59.10709,0.64051 c 0,0.0657 -0.11493,0.16425 -0.24633,0.2135 -0.32844,0.11495 -0.60767,-0.54195 -0.3613,-0.85401 0.13141,-0.1806 0.21353,-0.14784 0.37776,0.16426 0.13136,0.2135 0.2135,0.427 0.22987,0.47625 z m 15.27359,-0.68975 c 0,0.0985 -0.0656,0.1971 -0.14776,0.2463 -0.24637,0.14785 -0.41062,2.0693 -0.19712,2.28286 0.0985,0.0985 0.52555,0.22994 0.969,0.27918 0.70618,0.0822 0.77188,0.11493 0.72259,0.49276 -0.0328,0.2299 -0.0821,0.427 -0.0821,0.427 -0.13135,0.1313 -9.1477,-1.5931 -9.1477,-1.7409 0,-0.0657 0.54199,-0.45987 1.21533,-0.87045 1.00177,-0.64051 1.34668,-0.77191 2.0036,-0.78835 0.44342,0 1.39596,-0.0985 2.11862,-0.2299 1.6259,-0.26276 2.54556,-0.2956 2.54556,-0.0985 z m 33.71684,0.6241 c -0.24635,0.3448 -1.31382,1.7408 -2.34852,3.0875 l -1.88868,2.4635 -0.19707,-1.23175 c -0.0985,-0.67335 -0.19706,-1.54375 -0.19706,-1.90505 l -0.0164,-0.6898 1.51092,-0.70624 c 0.82114,-0.3941 1.95432,-0.95251 2.49632,-1.24811 0.55837,-0.27925 1.01824,-0.49275 1.0511,-0.45985 0.0328,0.0329 -0.14782,0.32844 -0.4106,0.6898 z m -48.7112,-0.2464 c -0.0493,0.1314 -0.0986,0.0821 -0.0986,-0.0985 -0.0164,-0.18066 0.0329,-0.27916 0.0821,-0.2135 0.0493,0.0492 0.0657,0.19708 0.0164,0.31204 z m 57.10343,0.39414 c 0.14783,1.1004 0.11493,2.36496 -0.0493,2.36496 -0.16425,0 -1.65875,-1.57663 -1.65875,-1.7573 0,-0.13134 1.33027,-1.3467 1.4945,-1.3631 0.0657,0 0.14783,0.3449 0.2135,0.75544 z m 3.44887,0.14783 1.21538,0.73907 2.05286,3.49811 2.06933,3.48175 -0.18067,0.8704 c -0.18066,0.9033 -0.5091,1.08394 -0.59124,0.32845 -0.0328,-0.22992 -0.19708,-0.55835 -0.37776,-0.72259 -0.27916,-0.24636 -0.36125,-0.26276 -0.47624,-0.0657 -0.0985,0.1642 0.0328,0.4762 0.44348,1.03465 0.55836,0.77185 0.57476,0.82111 0.3941,1.46165 -0.11494,0.3613 -0.22986,0.62404 -0.24634,0.5912 -0.0164,-0.0163 -0.7555,-0.854 -1.64233,-1.82293 -1.75727,-1.93793 -1.75727,-1.92157 -3.30103,-6.35577 -0.49274,-1.42884 -0.73907,-2.3814 -0.73907,-2.9398 0,-0.4598 0.0328,-0.8376 0.0821,-0.8376 0.0329,0 0.62409,0.3285 1.29744,0.73907 z m -61.81688,-0.16427 c 0,0.1314 -0.11496,0.2464 -0.26275,0.2464 -0.22995,0 -0.22995,-0.0493 -0.0657,-0.2464 0.11494,-0.1313 0.22992,-0.2463 0.26276,-0.2463 0.0328,0 0.0657,0.115 0.0657,0.2463 z m 9.77182,-0.1149 c -0.57486,0.5091 -1.75732,1.1496 -1.97079,1.08385 -0.27921,-0.11495 -0.16425,-0.87035 0.14779,-1.08385 0.24636,-0.1807 2.00364,-0.16426 1.823,0 z m 45.96846,0.3449 0.45995,0.4762 -0.59125,0.4435 c -0.3285,0.2463 -0.62415,0.427 -0.64056,0.39414 -0.0985,-0.13141 0.0821,-1.79014 0.19708,-1.79014 0.0657,0 0.32848,0.21354 0.57478,0.4763 z m 4.17156,0.24634 c 0.22992,0.49261 0.36126,1.281 0.427,2.57843 l 0.11494,1.87223 -0.90327,-0.9854 c -0.49268,-0.5419 -0.90333,-1.084 -0.91968,-1.21526 0,-0.2464 0.83759,-2.97264 0.91968,-2.97264 0.0328,0 0.19707,0.3285 0.36133,0.72264 z m -5.60036,0.50909 0.34492,1.06751 -0.75549,0.73901 -0.77185,0.72265 -0.0493,-0.91973 c -0.0328,-0.68977 0.0493,-1.14957 0.3285,-1.7901 0.2135,-0.49267 0.41058,-0.88687 0.45984,-0.88687 0.0493,0 0.24633,0.4763 0.4434,1.06753 z m 2.90694,1.67517 0.60766,1.6095 -0.542,2.0036 c -0.49267,1.8065 -0.78832,2.4799 -0.78832,1.77374 0,-0.14788 -0.26276,-1.21534 -0.59125,-2.3814 l -0.59123,-2.13504 0.54204,-1.2317 c 0.29559,-0.67336 0.59118,-1.2318 0.64044,-1.2318 0.0657,0 0.37775,0.7227 0.72266,1.5931 z m -1.56024,-0.50915 c -0.32844,0.75549 -0.36127,0.78835 -0.52552,0.427 -0.14783,-0.31201 -0.0986,-0.44335 0.29566,-0.854 0.26276,-0.26275 0.49266,-0.45978 0.52551,-0.42701 0.0328,0.0329 -0.0985,0.41066 -0.29565,0.85401 z m 10.18237,0.70615 1.93799,1.314 -0.26276,1.478 c -0.14783,0.8047 -0.29565,1.51094 -0.3449,1.5602 -0.0657,0.0657 -3.15327,-4.9105 -3.41603,-5.5346 -0.1314,-0.26277 0.21343,-0.0657 2.0857,1.1824 z m -7.71887,0.18075 c 0,0.13135 -0.0657,0.39415 -0.1314,0.57475 -0.13136,0.3121 -0.14778,0.2628 -0.80476,-1.7244 -0.0328,-0.13136 0.14789,0.0164 0.42706,0.3285 0.27918,0.312 0.5091,0.68974 0.5091,0.82115 z m -5.3211,-0.0164 c -0.0821,0.7883 -0.19703,1.0511 -0.59126,1.39597 -0.26274,0.22993 -0.50909,0.427 -0.54194,0.427 -0.0329,0 0.19703,-0.65692 0.52552,-1.47807 0.32848,-0.8047 0.62408,-1.4288 0.65693,-1.39596 0.0328,0.0329 0.0165,0.5091 -0.0492,1.05106 z m -56.92283,-0.2135 c 0.50913,0.24637 0.96899,0.3777 1.16603,0.31204 0.42702,-0.13134 0.41063,-0.0164 -0.21346,1.95436 -0.47628,1.4781 -0.57482,1.6423 -1.01821,1.79015 -0.27923,0.0821 -2.47993,0.88685 -4.89411,1.7901 -2.41424,0.90332 -4.43429,1.6095 -4.46716,1.57665 -0.14776,-0.1314 -0.55838,-4.1551 -0.44339,-4.2044 0.6405,-0.2792 8.85211,-3.61303 8.93423,-3.62945 0.0492,-0.0165 0.47623,0.1806 0.93607,0.41055 z m 58.97573,0.5584 c 0,0.60765 -0.22997,1.3631 -0.96893,3.1204 -0.98547,2.38135 -1.26464,2.9069 -1.11682,2.0529 0.0492,-0.27916 0.14777,-1.4124 0.19709,-2.5456 l 0.11492,-2.0529 0.73908,-0.7719 c 0.427,-0.427 0.82116,-0.739 0.90326,-0.68976 0.0657,0.0493 0.1314,0.44342 0.1314,0.88686 z m 6.65137,1.47807 c 0.39417,1.11673 0.68983,2.0694 0.67333,2.10217 -0.0328,0.0164 -0.3941,-0.36124 -0.78832,-0.88684 -0.73901,-0.9197 -0.73901,-0.9361 -0.75543,-2.2664 -0.0164,-0.7226 0.0164,-1.2481 0.0657,-1.16603 0.0328,0.0986 0.39422,1.10033 0.80474,2.2171 z M 339.0462,619.7896 c -0.0165,0.59126 -0.0986,0.739 -0.70623,1.1989 -0.37775,0.2792 -0.70621,0.4927 -0.73902,0.45986 -0.0821,-0.0658 0.59122,-2.13501 0.83755,-2.61132 0.14777,-0.31204 0.16425,-0.31204 0.37775,-0.0164 0.13138,0.16426 0.22995,0.6077 0.22995,0.969 z m 60.2731,-0.4598 c 0,0.4434 -0.0657,0.70615 -0.16424,0.6405 -0.18066,-0.115 -0.2135,-0.7391 -0.0657,-1.13326 0.16417,-0.42694 0.2299,-0.2956 0.2299,0.49276 z m 1.281,0.41056 0.80476,0.93609 0.11494,1.85585 c 0.0657,1.03466 0.14782,2.23357 0.2135,2.6934 0.0493,0.4434 0.0329,0.7719 -0.0328,0.7062 -0.0657,-0.0657 -0.59125,-1.281 -1.16607,-2.70985 -0.87043,-2.15145 -1.05103,-2.7591 -1.05103,-3.54745 0,-0.5255 0.0657,-0.9361 0.14783,-0.90324 0.0821,0.0165 0.52552,0.45984 0.96892,0.969 z m -58.81142,-0.59126 c 0.11492,0.3285 0,0.4434 -0.32848,0.3121 -0.14784,-0.0493 -0.21357,-0.19716 -0.16426,-0.3285 0.11493,-0.3121 0.3613,-0.29566 0.49274,0.0164 z m -2.16794,0.57484 c 0,0.11493 -0.0985,0.24636 -0.19704,0.27916 -0.1314,0.0493 -0.2135,-0.0657 -0.2135,-0.27916 0,-0.21354 0.0821,-0.32849 0.2135,-0.29564 0.0985,0.0493 0.19704,0.18065 0.19704,0.29564 z m 54.06519,0.19706 c -0.0493,0.2956 -0.14777,1.52736 -0.2135,2.7427 l -0.11493,2.2007 -0.8869,1.9872 c -1.26456,2.8412 -1.29743,2.9069 -1.59305,3.5803 -0.13138,0.34483 -0.27921,0.624 -0.32843,0.624 -0.13142,0 -1.41242,-2.5784 -1.41242,-2.82476 0,-0.0985 0.67334,-1.82294 1.49454,-3.81018 1.23169,-2.98901 1.60944,-3.76086 2.16786,-4.33569 0.37773,-0.37777 0.73906,-0.68982 0.82115,-0.68982 0.0821,0 0.11493,0.2464 0.0657,0.52555 z m 3.05475,1.90505 0.6405,2.43075 -0.55841,2.0364 -0.54193,2.05287 -0.0986,-1.31387 c -0.19708,-2.3649 -0.31201,-7.63675 -0.19708,-7.63675 0.0821,0 0.41059,1.1004 0.7555,2.4306 z m -55.97025,-1.60945 c -0.0821,0.2628 -0.16425,0.312 -0.29568,0.1807 -0.11493,-0.115 -0.0985,-0.24636 0.0493,-0.427 0.27918,-0.32845 0.39414,-0.2135 0.24637,0.2463 z m 1.06744,-0.2463 c 0,0.14774 -0.14777,0.2463 -0.41055,0.2463 -0.26279,0 -0.41055,-0.0986 -0.41055,-0.2463 0,-0.14785 0.14776,-0.24636 0.41055,-0.24636 0.26278,0 0.41055,0.0985 0.41055,0.24636 z m -1.80651,0.2135 c 0,0.0821 -0.1478,0.27915 -0.3285,0.4434 -0.26276,0.2299 -0.32843,0.24634 -0.32843,0.0657 0,-0.2628 0.31202,-0.64053 0.52552,-0.64053 0.0657,0 0.13141,0.0657 0.13141,0.13143 z m 13.79547,0.624 c 2.11862,0.3121 3.99087,0.62415 4.17151,0.6734 0.22991,0.0657 0.27916,0.1806 0.19706,0.59125 -0.0493,0.27915 -0.11494,0.52551 -0.14778,0.54195 -0.0657,0.0657 -8.78642,-1.5438 -9.01636,-1.6751 -0.0493,-0.0329 -0.0164,-0.2464 0.0821,-0.47635 0.14784,-0.27915 0.29562,-0.37768 0.52554,-0.32845 0.1807,0.0493 2.06937,0.3449 4.18793,0.6733 z m 45.27877,-0.3941 c 0.0986,0.2299 0.11493,1.1989 0.0328,2.51275 -0.0657,1.16605 -0.13141,2.92328 -0.13141,3.89225 -0.0164,0.969 -0.0657,1.7902 -0.14776,1.83944 -0.0657,0.0329 -0.36133,-0.95254 -0.67334,-2.20074 l -0.542,-2.2828 0.542,-2.05283 c 0.31201,-1.14972 0.6076,-2.0694 0.65687,-2.0694 0.0493,0 0.16423,0.16423 0.2628,0.36133 z m -56.24948,0.1971 c -0.0328,0.1642 0.0657,0.26274 0.29563,0.26274 0.44345,0 0.41055,0.36126 -0.11495,1.19891 l -0.44343,0.68975 -0.11493,-0.49267 c -0.14784,-0.67343 -0.16424,-1.80658 -0.0329,-1.95443 0.19708,-0.1806 0.4599,0 0.41058,0.2957 z m 3.08756,-0.22994 c 0,0.0821 -0.0657,0.16418 -0.16422,0.16418 -0.0821,0 -0.16424,-0.0821 -0.16424,-0.16418 0,-0.0986 0.0821,-0.16426 0.16424,-0.16426 0.0986,0 0.16422,0.0657 0.16422,0.16426 z m 49.91015,4.36859 0.13135,4.41785 -0.78833,3.18603 c -0.44342,1.75733 -0.83758,3.21897 -0.87042,3.25183 -0.11493,0.13134 -1.08393,-0.65692 -1.51093,-1.21533 -0.41058,-0.54199 -0.41058,-0.54199 -0.16424,-1.80653 0.32849,-1.79015 0.57484,-3.59667 0.73907,-5.7481 0.14783,-1.77374 0.19702,-1.9544 1.1825,-4.2208 0.57477,-1.31386 1.06744,-2.36495 1.08387,-2.3321 0.0329,0.0165 0.11498,2.0365 0.19713,4.46715 z m -53.83529,-4.00735 c 0.0329,0.2135 0.0329,0.70626 -0.0164,1.1004 l -0.0821,0.7226 -0.52552,-0.7554 c -0.6405,-0.88685 -0.65692,-1.0676 -0.16424,-1.26466 0.57483,-0.22994 0.72262,-0.19704 0.7883,0.19706 z m -2.87404,0.27926 c -0.0493,0.0821 -0.24635,0.18064 -0.427,0.22994 -0.2792,0.0657 -0.31206,0.0492 -0.1478,-0.1478 0.19707,-0.2464 0.7226,-0.3285 0.5748,-0.0821 z m 1.37956,0.13144 c 0,0.16416 -0.11499,0.70615 -0.24636,1.1988 -0.1314,0.4927 -0.22996,1.0183 -0.22996,1.1497 0,0.1313 0.14783,-0.2628 0.32849,-0.90334 0.18064,-0.62406 0.36133,-1.16601 0.37775,-1.19891 0.0328,-0.0164 0.29559,0.26275 0.57477,0.65695 0.70625,0.96896 0.67337,1.5274 -0.26275,3.4653 -0.68977,1.42883 -0.7883,1.57666 -0.9197,1.23175 -0.0657,-0.2135 -0.14778,-0.93609 -0.16423,-1.64235 -0.0164,-0.68974 -0.0821,-1.21525 -0.13137,-1.1824 -0.11494,0.0657 -0.31202,-1.33034 -0.31202,-2.20076 0,-0.41058 0.0985,-0.57474 0.37772,-0.68974 0.52554,-0.2135 0.60766,-0.1971 0.60766,0.115 z m 8.49079,-0.0165 c 0.2135,0.0657 0.32845,0.16424 0.27917,0.2463 -0.11492,0.1972 -1.16599,0.1972 -1.28102,0 -0.19704,-0.312 0.29567,-0.427 1.00185,-0.2463 z m 54.50855,2.1843 c 0.13146,0.2956 0.72265,1.9051 1.2974,3.5474 l 1.03474,3.0055 -0.65692,1.1988 c -0.80482,1.49453 -0.88684,1.5931 -1.03467,1.1168 -0.0657,-0.21345 -0.55841,-1.41237 -1.10035,-2.66054 -0.95256,-2.26636 -0.96898,-2.29926 -1.11675,-4.51636 -0.0986,-1.24816 -0.19715,-2.6606 -0.2464,-3.15325 l -0.0985,-0.90335 0.83753,0.90335 c 0.4599,0.49265 0.95263,1.14959 1.08393,1.46165 z m -57.54685,-1.708 c -0.27921,1.72444 -0.39415,2.0529 -0.80475,2.0529 -0.16425,0 -0.21344,-0.0985 -0.1478,-0.2627 0.0493,-0.14786 0.0985,-0.70627 0.0985,-1.23184 0,-0.98536 0,-0.98536 0.45986,-0.93616 0.3449,0.0329 0.427,0.1315 0.39415,0.3778 z m -8.08025,1.39594 c -0.73903,0.90326 -1.3631,1.64236 -1.39592,1.64236 -0.11498,0 0.73902,-2.36495 0.90326,-2.52913 0.18066,-0.18073 1.44522,-0.72272 1.69156,-0.73917 0.0657,-0.0163 -0.4598,0.7227 -1.1989,1.62594 z m 7.02913,-1.11674 c 0.0329,0.22997 -0.0164,0.6733 -0.0985,0.9689 l -0.1478,0.5584 -0.34492,-0.73905 c -0.3777,-0.80468 -0.45983,-1.23169 -0.19704,-1.06745 0.0985,0.0492 0.16421,0.0164 0.16421,-0.0821 0,-0.3942 0.57486,-0.0657 0.62406,0.3613 z m 46.44479,0.0657 c -0.13132,0.2628 -0.64044,1.49447 -1.14956,2.7427 -0.49274,1.2317 -1.01826,2.44696 -1.14963,2.69335 l -0.22993,0.44345 -0.2792,-0.6405 c -0.1478,-0.3613 -0.3449,-1.0183 -0.44342,-1.4453 l -0.19708,-0.78825 1.79013,-1.79015 c 0.98537,-0.9854 1.80655,-1.77375 1.83939,-1.74085 0.0328,0.0164 -0.0493,0.26275 -0.1807,0.52555 z m 10.83938,9.08205 0.27918,3.69519 -0.87042,0.78826 c -0.47626,0.44343 -0.8869,0.78834 -0.90326,0.7555 -0.0329,-0.0328 -0.42706,-1.52734 -0.87048,-3.3339 l -0.83759,-3.2846 0.22992,-3.85946 c 0.13141,-2.11859 0.2464,-4.00724 0.2464,-4.18794 0.0164,-0.18065 0.55835,1.0347 1.23175,2.70985 l 1.19885,3.03825 z m -47.56158,-8.70435 c 2.66056,0.5255 3.21891,0.67334 3.26818,0.91974 0.0657,0.39411 -0.6405,3.3667 -0.8212,3.3667 -0.0656,0 -1.2153,-0.59124 -2.54555,-1.31384 -1.33029,-0.7226 -2.46347,-1.31384 -2.51275,-1.31384 -0.34488,-0.0165 -0.88685,-0.70626 -1.16602,-1.47809 -0.18066,-0.49267 -0.32846,-0.91977 -0.32846,-0.95257 0,-0.0328 0.19705,-0.0164 0.45981,0.0328 0.24637,0.0657 1.88867,0.3942 3.64599,0.7391 z m -10.19879,1.2974 c 0.36127,0.5091 0.41057,1.11685 0.21344,2.2008 l -0.11493,0.624 -0.93612,-1.41236 c -0.52555,-0.77184 -0.95255,-1.54374 -0.95255,-1.72444 0,-0.18065 0.19705,-0.62407 0.44343,-0.9854 l 0.427,-0.6569 0.27917,0.739 c 0.16423,0.3942 0.44345,0.9526 0.64056,1.2153 z m -4.95983,-0.3449 c 0.18066,1.4125 0.16424,1.5274 -0.4763,4.385 l -0.64047,2.9562 -2.23355,4.3522 c -1.21533,2.3978 -2.28288,4.43424 -2.36498,4.5328 -0.18064,0.1807 -0.72257,-0.3778 -1.6259,-1.6752 l -0.49267,-0.67336 1.87222,-4.82834 c 1.01825,-2.6442 2.02008,-5.2719 2.23355,-5.81387 0.24634,-0.72259 0.78834,-1.52743 1.83945,-2.84118 0.82111,-1.0019 1.52732,-1.823 1.59299,-1.823 0.0657,0 0.19714,0.6405 0.29566,1.42875 z m 2.98904,-0.3284 c 0.0164,0.115 -0.0493,0.2135 -0.14784,0.2135 -0.0821,0 -0.16424,-0.24635 -0.14782,-0.54194 0,-0.44346 0.0329,-0.47632 0.14782,-0.19716 0.0821,0.1807 0.14784,0.427 0.14784,0.5256 z m -5.78101,-0.47627 c 0.16425,0.0985 0.0986,0.45987 -0.24637,1.54377 -0.44342,1.33026 -0.62406,1.5931 -3.31741,4.9926 -1.56025,1.98725 -3.02195,3.81025 -3.23541,4.0566 l -0.37772,0.47625 -0.34492,-0.78825 c -0.18065,-0.44344 -0.45983,-1.2811 -0.62407,-1.8723 l -0.31203,-1.0839 3.23534,-2.7427 c 3.08756,-2.6113 5.55106,-4.8284 4.86129,-4.36857 -0.18063,0.13141 -0.80471,0.64051 -1.39593,1.14957 -3.0876,2.6606 -6.78284,5.7318 -6.8321,5.68246 -0.0328,-0.0329 -0.22994,-0.87042 -0.44338,-1.87226 l -0.3942,-1.8229 3.05475,-1.1661 c 1.67513,-0.6405 3.728,-1.41236 4.53281,-1.7244 1.69156,-0.65695 1.57656,-0.6241 1.83935,-0.45987 z m 26.17862,0.16427 c 0.0656,0.0657 0.16422,0.5091 0.22989,0.9689 0.0985,0.70625 0.0657,0.87043 -0.13138,0.87043 -0.32846,0 -1.4945,0.95257 -2.00363,1.62592 -1.0675,1.46161 0.22989,3.0711 1.60944,1.98718 0.50913,-0.41053 0.64056,-0.41053 1.00186,-0.0164 0.34487,0.3778 0.22995,0.67335 -0.24637,0.67335 -0.19706,0 -0.31204,0.11499 -0.31204,0.32849 0,0.18066 0.11498,0.3285 0.24634,0.3285 0.47628,0 0.24634,0.31201 -0.27918,0.39416 -1.52738,0.22986 -3.46528,0.44336 -3.51456,0.37775 -0.0328,-0.0329 0.0985,-0.57489 0.27915,-1.19892 0.18069,-0.62408 0.57486,-2.31567 0.87048,-3.76093 0.50913,-2.39776 0.59125,-2.62774 0.93613,-2.74267 0.41055,-0.11499 1.13322,-0.0164 1.31387,0.16427 z m 42.66748,2.69334 1.3631,1.60949 -0.36133,1.10037 c -0.2135,0.62406 -0.427,1.1825 -0.49267,1.24815 -0.0821,0.0985 -1.74085,-4.25361 -2.08583,-5.55105 -0.11492,-0.41056 -0.11492,-0.41056 1.57673,1.59304 z m -61.98123,2.85766 1.00186,4.4178 -0.0985,5.3868 c -0.0657,2.9562 -0.16425,5.41965 -0.2135,5.46896 -0.0493,0.0657 -0.67337,0.11494 -1.37958,0.13144 l -1.281,0.0164 -0.47624,-5.4197 -0.4763,-5.41967 0.6241,-4.02368 c 0.6569,-4.33569 0.83756,-5.14045 1.11677,-5.04195 0.0986,0.0329 0.6405,2.05294 1.18243,4.4836 z m 7.85034,-4.30285 c 0.26276,0.19705 0.24634,0.22985 -0.24637,0.31201 -0.65692,0.0985 -0.73904,0.0328 -0.4598,-0.29566 0.2463,-0.2956 0.32843,-0.2956 0.70617,-0.0163 z m 3.26819,1.83935 c 1.80655,1.0675 2.41417,1.4945 2.36499,1.6916 -0.0493,0.14776 -0.19712,0.739 -0.34492,1.33025 -0.1314,0.59125 -0.32845,1.23175 -0.41057,1.4289 -0.18063,0.427 -0.68976,0.49261 -0.98538,0.13128 -0.45987,-0.55833 -5.7974,-5.56738 -5.6496,-5.30463 0.0821,0.1478 1.34668,1.4288 2.8248,2.8412 1.46165,1.4288 2.66055,2.64416 2.66055,2.72625 0,0.0821 -0.62412,0.14785 -1.37955,0.14785 h -1.37958 l -0.41055,-0.7062 c -0.2135,-0.37775 -0.90329,-1.67523 -1.51092,-2.87414 -0.83762,-1.67511 -1.0675,-2.23352 -0.91974,-2.38129 0.11499,-0.11497 0.68979,-0.24634 1.29742,-0.29567 0.60767,-0.0492 1.16608,-0.1149 1.2482,-0.1149 0.0821,-0.0165 1.24817,0.60765 2.59485,1.3795 z m -10.57651,0.427 c 0.52555,0.7719 0.52555,0.7719 0.52555,2.93976 0,1.19894 -0.0329,2.13504 -0.0657,2.10218 -0.0493,-0.0329 -0.37771,-1.39594 -0.75549,-3.02184 -0.3613,-1.62593 -0.7226,-3.104 -0.77187,-3.2847 -0.0657,-0.26274 -0.0328,-0.26274 0.22994,0.0822 0.18063,0.2299 0.55838,0.7554 0.83758,1.1824 z m 1.90508,-1.2646 c 0.0493,0.1314 0.19707,0.24635 0.3449,0.24635 0.19704,0 0.24636,0.2464 0.24636,1.26465 0,1.2974 -0.11499,2.01996 -0.31206,2.01996 -0.0493,0 -0.31205,-0.73896 -0.55836,-1.65866 -0.26282,-0.9033 -0.50914,-1.7573 -0.55844,-1.8887 -0.0657,-0.16425 0.0329,-0.2299 0.3285,-0.2299 0.22994,0 0.44338,0.11497 0.5091,0.2463 z m 4.4507,2.7263 c 0.80468,1.6095 1.49447,3.0054 1.52737,3.07114 0.0164,0.0821 -0.65695,0.14776 -1.52737,0.14776 h -1.56018 v -1.00176 c 0,-0.54199 -0.11502,-1.33034 -0.26282,-1.72444 -0.39414,-1.16607 -0.2463,-3.49816 0.24637,-3.4489 0.0493,0 0.75543,1.3303 1.57663,2.9562 z m 48.20208,5.40323 c -0.24638,4.23717 -0.16424,3.94153 -1.16608,3.94153 -0.5091,0 -0.83758,-0.0821 -0.88683,-0.2135 -0.0328,-0.0986 -0.14777,-1.7901 -0.22992,-3.72803 l -0.16425,-3.53103 0.57483,-2.0528 c 0.31201,-1.13327 0.60767,-2.16794 0.65692,-2.29935 0.0657,-0.13135 0.39417,0.85405 0.73908,2.21715 l 0.65687,2.46346 z m -57.38263,-5.79743 c -0.14785,0.969 -0.36135,2.28285 -0.45993,2.92335 l -0.19705,1.14965 -0.2135,-1.7244 -0.19707,-1.7245 0.59124,-1.2646 c 0.32846,-0.7062 0.64053,-1.24816 0.67336,-1.19885 0.0328,0.0327 -0.0493,0.85401 -0.19705,1.83935 z m 4.23713,-0.4106 c 0.22995,0.7391 0.39419,1.3632 0.36135,1.396 -0.0164,0.0329 -0.24636,-0.2463 -0.49267,-0.60764 -0.29569,-0.4599 -0.427,-0.87043 -0.427,-1.39596 0,-0.41056 0.0328,-0.73905 0.0656,-0.73905 0.0493,0 0.2628,0.60765 0.49268,1.34665 z m -6.01088,1.6752 c -0.26274,0.5255 -0.52553,0.91974 -0.57482,0.8704 -0.0821,-0.0821 0.47629,-2.7098 0.73908,-3.4817 0.0657,-0.2135 0.14782,0 0.2135,0.65695 0.0821,0.87045 0.0328,1.10035 -0.37776,1.95435 z m 8.343,-0.9525 c -0.0493,0.1313 -0.1807,0.2299 -0.2792,0.2299 -0.21348,0 -0.0985,-1.3303 0.1314,-1.6916 0.1478,-0.22997 0.27918,1.1168 0.1478,1.4617 z m 45.22946,0.2463 c -0.19708,1.85585 -0.78833,5.76455 -0.88684,5.86306 -0.0328,0.0329 -0.37775,-0.45976 -0.75546,-1.08393 l -0.67336,-1.14959 1.00182,-2.34854 c 0.55841,-1.2974 1.08392,-2.54557 1.16608,-2.75907 0.27917,-0.72263 0.32842,-0.22993 0.14776,1.47807 z m -59.61618,3.99086 c -1.10034,2.7591 -2.05292,5.02544 -2.11856,5.02544 -0.0657,0 -0.47632,-0.65684 -0.90332,-1.478 -0.73905,-1.396 -0.75546,-1.4945 -0.50913,-1.8395 0.57483,-0.8375 5.41968,-6.832 5.46893,-6.7827 0.0329,0.0328 -0.8376,2.3156 -1.93792,5.07476 z m 12.81009,-1.54376 c 0,0.80475 0.0657,1.0182 0.32849,1.18244 0.24634,0.14782 0.60764,1.08392 1.33024,3.33392 0.542,1.70801 1.16607,3.67877 1.39602,4.35217 0.21344,0.67337 0.3941,1.28101 0.3941,1.33027 0,0.0657 -0.55835,0.4927 -1.23172,0.9525 -0.854,0.59126 -1.2646,0.78834 -1.31387,0.6405 -0.0328,-0.1149 -0.59119,-2.31566 -1.23175,-4.8941 l -1.16602,-4.6806 0.0328,-2.38134 c 0.0328,-1.31391 0.0657,-2.44706 0.11493,-2.51276 0.0329,-0.0657 0.34491,0.2792 0.70624,0.78827 0.5748,0.82123 0.6405,1.01823 0.6405,1.88873 z m -6.0766,-0.41064 c 0.0985,0.82114 0.18066,1.92154 0.18066,2.4635 0,0.93609 -1.54379,10.69154 -1.70803,10.85577 -0.0821,0.0821 -2.00357,-0.82116 -2.34848,-1.10043 -0.18064,-0.14774 0.52554,-3.9251 1.72442,-9.3119 0.31204,-1.3467 1.70804,-4.63137 1.90509,-4.4342 0.0328,0.0327 0.14783,0.7225 0.24634,1.52726 z m 63.1308,0.95257 c 0.427,1.05107 0.73901,2.05292 0.68976,2.21711 -0.0657,0.14782 -0.34491,0.57482 -0.65693,0.93616 l -0.55834,0.6569 -0.0986,-0.73906 c -0.14782,-1.00177 -0.427,-4.40144 -0.427,-5.00904 0.0164,-0.6405 0.0986,-0.47625 1.05109,1.93793 z m -7.14411,3.77737 0.0164,2.2499 -0.65692,-0.3284 c -0.37776,-0.1971 -0.70616,-0.44343 -0.77191,-0.57484 -0.0493,-0.13136 0.19708,-1.41236 0.54193,-2.82476 l 0.64057,-2.57844 0.11492,0.90324 c 0.0493,0.4763 0.0985,1.9051 0.11499,3.1533 z m 3.6131,-0.78835 c 0.36134,1.44525 0.60767,2.677 0.54199,2.74265 -0.16425,0.16427 -1.51098,0.4435 -1.56018,0.31203 -0.0329,-0.0492 0,-1.06743 0.0656,-2.23353 0.0657,-1.1824 0.1314,-2.4634 0.1314,-2.8576 0.0164,-0.3942 0.0493,-0.68975 0.0821,-0.657 0.0493,0.0329 0.37773,1.24826 0.73906,2.69345 z m -43.99774,-2.44705 c 0,0.2135 -1.41235,3.0218 -1.51092,3.0218 -0.0821,0 -0.13138,-0.0656 -0.13138,-0.14775 0,-0.0657 -0.29562,-0.67335 -0.65698,-1.33025 -0.36127,-0.65693 -0.65687,-1.2482 -0.65687,-1.3303 0,-0.0657 0.45981,-0.1642 1.03467,-0.1971 0.55832,-0.0328 1.2153,-0.0657 1.47806,-0.0821 0.24637,-0.0164 0.44342,0.0164 0.44342,0.0657 z m -2.41422,1.88864 0.854,1.59316 -0.9525,1.4123 c -0.52555,0.7883 -1.01825,1.41244 -1.10038,1.37955 -0.16424,-0.0657 -3.94156,-5.73169 -3.94156,-5.92875 0,-0.0657 0.96894,-0.0985 2.15144,-0.0821 l 2.15142,0.0493 z m -4.30285,0.31206 c 0.59125,0.8541 1.47805,2.2336 1.98718,3.05476 l 0.93613,1.51094 -0.49271,0.6569 c -0.26275,0.36133 -0.72255,0.8376 -1.01825,1.0675 l -0.55835,0.427 -0.854,-2.74266 c -1.6752,-5.30474 -1.72443,-5.48534 -1.47809,-5.63318 0.26276,-0.16426 0.16422,-0.27916 1.47809,1.65874 z m -12.20248,3.5146 c -0.57474,2.5784 -1.06747,4.697 -1.11677,4.697 -0.1478,0 -1.72442,-1.6094 -1.72442,-1.75725 0,-0.21355 3.74452,-7.76818 3.82662,-7.70251 0.0328,0.0329 -0.4106,2.18433 -0.98543,4.76276 z m 8.31015,-2.08576 c 0.14782,0.62406 0.59124,2.51276 1.00183,4.20436 0.41061,1.708 0.73907,3.16967 0.73907,3.25176 0,0.18064 -1.11682,0.70624 -1.83945,0.87044 l -0.4598,0.0985 v -2.02005 c 0,-2.06936 0.18063,-7.50546 0.24636,-7.50546 0.0328,0 0.16419,0.49266 0.31199,1.1004 z m -4.49992,0.0164 c 0,0.44344 0.0657,1.56024 0.16422,2.51274 0.39411,4.4671 0.50913,6.09303 0.42703,6.19155 -0.0986,0.0985 -2.05291,-0.22995 -2.18435,-0.36135 -0.13132,-0.1313 1.33032,-9.13127 1.47812,-9.13127 0.0657,0 0.11498,0.36133 0.11498,0.78833 z"
         id="path2"
         inkscape:connector-curvature="0" />
    </g>
    <g
       style="fill:#000000;fill-opacity:1;stroke-linejoin:miter"
       id="g8">
      <path
         d="m 386.9362,586.3356 c -0.0985,0.2299 -0.0821,0.2463 0.0821,0.0985 0.115,-0.11495 0.16426,-0.24636 0.115,-0.2956 -0.0493,-0.0493 -0.14786,0.0328 -0.1971,0.1971 z"
         id="path6"
         inkscape:connector-curvature="0" />
    </g>
  </g>
</svg>
