<?xml version="1.0" encoding="utf-8"?>
<svg version="1.1" id="Layer_1" xmlns="http://www.w3.org/2000/svg" xmlns:xlink="http://www.w3.org/1999/xlink" x="0px" y="0px"
	 viewBox="0 0 2851.8 5000" style="enable-background:new 0 0 2851.8 5000;" xml:space="preserve">
<path d="M1346.8,4.4c8.6-3.6,18.4-5.5,27.7-3.6c7.6,1.3,10.4,10.6,18.2,11.7c12.5,4.6,125.6-22.8,200.1,107.7
	c9.5,10.8,12.1,25.4,18.3,38.1c8.9,18.1,7.3,40.3,20.7,56.3c11.8,28.6,7.7,60.3,9.8,90.6c4.3,4.5,12.2,5.5,13.8,12.3
	c1.3,6.9,0.4,14.1,2.5,21c8.3,32.2-24.8,92.5-22.7,113.3c0.6,4.4-0.8,8.7-3.1,12.4c-5.6,5.2-14.5,5.4-19.5,11.4
	c-4.8,4.4-2.3,11.5-4.3,17c-2.5,7.2-5.1,14.4-6.5,22c7.7,3.4,16.3,2.6,24.5,3.9c35,3.1,68.5,14.5,101.5,26
	c30.8,3.8,135.9,11.9,343.7,106.1c17.8,8.7,10.7,7.2,24.9,25.5c101.2,123,144.7,369.1,182.6,441.4c3.7,7.1,5.4,15,6,22.9
	c2.5,28.9,34.2,63.7,33,82.9c-19.8,24.2-42.7,32.8-40.3,42.7c3.2,13,31.9,139.1,36,154.1c7.5,24.2,36.8,93,27.9,148.7
	c-0.7,8.3,2,16.5,1.8,24.9c1.3,21.5-20,156.7-22,175.9c-2.6,17-8.9,33.1-11.6,50.1c-25.6,147-25.6,100-39.2,152.7
	c-2.9,11.4-8.2,21.9-11.4,33.3c-0.7,2.2-10.6,46-15.7,58c-1.6,3.2-1.8,6.8-0.9,10.4c3,13.4-0.7,63.1,18.6,86.3
	c12.2,19.2,10.9,2.9,10.8,82.4c0.6,17.3,11.3,32.8,9.2,50.4c-2.5,20.4-1.2,41.3,4.9,61c3.2,8.4-2.2,17-0.4,25.5
	c1.1,6.5,2.5,13.2,2.2,19.9c-2.1,17.2,2.8,34.3,2.2,51.5c-2,9.3-0.4,18.6,0.8,27.9c0.1,16.8,0.4,33.6-0.2,50.3
	c-2.8,13.8-1,81.5-1.9,108.6c-3.4,20-3.4,131.3-3.9,141.3c-5.6,31.6,3.1,23.8,2.4,64.1c-0.2,9.5,2.8,19,0.9,28.5
	c-1.3,6.7-1.1,61.8-12.2,92.2c-5.2,14.9-6.1,30.8-10.1,46c-11.1,45.1,0.3,18-4.3,69.6c-1.3,6.6-3.8,13-5.8,19.5
	c5.7,9.9,18.4,12.8,23.6,23.2c7.1,15.1,5.2,32.3,5.8,48.5c-0.6,11,2.2,23-3.8,33c-3.8,7.8-12.7,13.3-12.7,22.7
	c4,15.5,21.5,15.6,18.2,58.3c-1.4,9.4-9.5,15.7-13.2,24c-0.9,8.3,6.3,14.9,7.1,23.1c0.9,12,1.5,24.1,2.9,36.1
	c2.5,8.2,11.1,12.8,13.5,21.2c4.8,13.1-2.7,26.7,0.6,40c2.9,17.7,1.6,35.6,1,53.4c4.7,18.1-0.4,36.8,3,55
	c2.4,12.6-1.1,25.1-1.7,37.6c-3.2,15.6,0.4,31.7-2.9,47.2c-3.3,16.7-1.5,34-5.8,50.6c-4.7,17-0.5,34.8-4,52
	c-0.2,13.8-6.8,26.6-6.2,40.4c0,7.1,0.2,14.3,0.1,21.5c0.2,8.8-5.1,16.5-5.7,25.2c-0.8,12,1.2,24.3-2.8,36
	c-3.3,10.7-15,221.6-15,225.6c-0.9,22.7-10.8,53.8-5.8,57.9c4.1,4.4,10.5,6.3,14.3,11.1c4.3,12.4,2.5,58.6-25.3,74.7
	c-22.4,12.5-32.5,35.7-60.4,35c-0.1,3.4-0.1,6.9-0.1,10.5c23.8,19.7,19.4,9.2,36.2,42c16.1,3.3,34.4,0.9,45.1,20.7
	c6.2,7.5,13.4,15.2,15.3,25.1c0.4,11.3,1.1,23.2,7.8,32.9c-13.2,21.6,7.8,42.9,14.5,55.4c22.7,36.3,1.9,20.2,50.3,66
	c1,0.8,69.9,52.8,81.4,77.4c4.9,11.1-4.3,23.8,1.8,34.6c14.7-0.1,29.4,1.1,44.1,0.8c5.8-0.3,11.7,0.6,17,3.1
	c7.8-4.4,13.9-12.6,23.6-12.9c8.1-1.1,12.9,6.8,19.9,9c11.8,0.8,23.6-0.8,35.4,0c17.9,1.1,36.2-4.3,53.9,0.2c7.3,4.6,15-1,22.7-1.4
	c9.6-0.4,19.3-1.5,28.9-1.6c10.8-2.7,14.1-18.3,33.4-4c11,0.8,22.8-2.1,33,3.4c9.6,1.5,19.7-0.9,29.4,1.2c15.8,1.8,31.2,6,47.1,7.4
	c35.9,6.4,34.8,42,23.7,46c-32.9,10.3-51.6,9.5-123.4,16c-9.7,5.8-18.7,12.9-28,19.4c3.9,9,8.3,18.3,8.1,28.4
	c0.6,9.3-3.8,68.9-24.8,95.2c6.8,25.6,9.2,33,3.9,40.8c-4.6,2.3-9.6,4-14.3,6.2c3.2,24.4,4.3,52.1-8.6,74.1
	c-21.1,35.8-66.6,57.5-107.6,51c-70.3-11.1-106.5-94.9-86-158.5c10.1-31.4,15.8-37.2,35.9-62.5c-3.5-13.2-3-27-2.5-40.5
	c0.1-6.7,6.9-11.3,6.2-18.1c-3.7-1.2-7.6-1.9-10.7-4.3c-3.4-7.7-4.2-16.2-7.1-24c-644.4-3.1-1340.3-14.4-2029.8-56.7
	c7.7,0.5,6.1,46.1,5.2,51.6c-9.8,64.6-98.9,141.4-183.9,84.4c0.1,12.8,1.5,26.2-1.3,38.7c-7,31-15.5,53.6-39.1,75.6
	c-22.1,20.6-52.1,32.7-82.3,32.7c-129.3,0.1-176.9-193.2,20.5-232.6c-7.3-19.5-14-39.2-21.6-58.5c-6,1.5-7.6,7.7-9.9,12.7
	c-4.1-1.2-9-1.8-11.4-5.8c-4-6.1-5.9-13.2-9.5-19.5c-1.3,0-67.3-5.2-68.4-5.4c-9.8-1.6-19.9,0.3-29.7-1.2
	c-10.8-3.3-21.7-10.8-24.3-22.3c-2.4-8,1.5-16.1,4.9-23.1c6.6-15.4,28-12.6,153.5-26.5c6.2-4,12.1-10.4,20.2-9
	c7.4-0.5,12,6.3,18.2,9.2c136.1,10.4,136.3,14.2,147.5,5.5c7.1-5.3,16.3-2.3,22.3,3c4.8,2.8,6.8,9.4,12.8,10.2
	c14.8,3.1,30,0,44.9,2.1c17.7,3,35.8-0.5,53.4,2.6c21.8,4,47.2-1.9,68.9-4.3c141-15.3,284.4-20.3,427.5-8.7
	c16.4,1.3,34.2,5.4,50.6,3.8c5.7-7.4,11.8-14.5,16.8-22.4c13.8-21.9,38.6-32.5,57.9-48.6c12-9.9,14-26.2,20.8-39.3
	c3.3-6.2,15.8-33.4,22.7-62.6c1.5-6.8-0.9-13.5-1.8-20.1c-3.1-2.3-6.2-4.6-9.1-6.9c1.5-14.6-7.8-16.4,16.4-31.6
	c7.3-4.3,16.2-1.7,23.8-5.1c3.6-6.8,4.1-16.3,12.1-19.5c2.8,1.9,5.5,4.1,8,6.5c6.7-12.4,20.7-26.6,20.9-53.7
	c-39.5-21.8-34.3-15.2-51.3-21.1c-16.9-9.9-18.1-50.7-9-69.3c14.9-28.2,8.8,10.9,10-82.8c1.9-12.2,2.5-24.6,1.5-36.9
	c-1.1-17.4,3.5-34.8,0.3-52c-7.1-65.4,5.8-136.9,0.7-165.4c-1.4-8.3,1.9-16.4,2.1-24.6c0.5-10.5-3.4-20.6-2.3-31.1
	c1.6-15.6-4.1-30.9-1.9-46.5c6-42.3-3.7-64.7-0.2-89.1c2.1-17.4-2.3-34.8,0.2-52.1c2.9-23.8-0.4-48.1,3.4-71.8
	c2.7-10.2,1.2-20.7,1.9-31.1c0.4-14,6-27,7.8-40.8c0.5-6,5.3-10.4,7-16c4.2-11.7-0.7-24.4,2.9-36.2c4.9-15.9,3.5-33.3,11.1-48.4
	c8.6-15.9,17.6-15.5,0.9-48.9c-3.1-5.3-1.1-11.5-0.5-17.2c2.1-17.2,3.4-35.4,13.3-50.2c5.1-7.8,1.2-17-2.4-24.5
	c-4.5-8.6-1.1-18.2,1.9-26.6c7.5-20.8-2.9-62.6,24.1-82.7c8.5-6.4,4.6-17.9,5-26.8c2.6-25-20.3-56.5-22.1-64.9
	c-5.3-14.3-1.2-29.3,0.4-43.8c0,0,11.3-182.3,9.1-280.9c-0.8-11.8,3.1-117.3,3.2-118.3c0-1.4,13.4-130.1,15.6-145.5
	c0.2-11.8-1-23.7-3.9-35.1c0.5-8.9,10.5-15.2,9.2-24.6c-2.6-13.5-107.8-124.6-121.7-138.9c-38.7-37.9-157.4-199.9-220.6-331.4
	c-1.9-4.1-16.2-66.3-19.6-96.9c-8.8-40.2-10.2-59.5-8.9-140c1.5-10.5-1.6-21,1.1-31.4c0.7-8,5.2-35-16.8-40.1
	c-15.9-4.2-30.2-12.8-45.6-18.5c-18.5-7.4-50.7-11.6-47-27.5c5.6-26.9,28.2-181.3,34.7-210.9c13.7-86,18.8-168.7,57.8-312.2
	c2.4-17.6,6.1-35.1,12.3-51.9c1.9-7.7,0.6-16.6,6-23.1c35.9-44.6,200.4-189.1,201.4-190c34.3-27.8,15.6-16.1,88.4-64.6
	c15.4-10.2,27.5-24.6,43.3-34.4c5.2-4,12.1-8.6,12-15.9c-5.6-16.2-13.6-31.5-17.4-48.3c-5.9-18.1-5.3-37.4-10.1-55.7
	c-1.2-5.3-6.4-7.7-10.5-10.5c-7.3-4.9-16.9-3.6-23.9-9.1c-10.5-8.8-24.1,6.1-34.7-21.4c-4.6-12,1.3-25.3-3.9-37.1
	c-19-46-33.4-57.2-28.7-71.9c7.4-19.4,21.6-18,32.6-18.5c9.8-29.2,8.7-23.4,9.5-39.6c0.3-13,4.3-25.7,3.6-38.7
	c-1.1-15.1,0.7-30.3,4.6-44.9c8-20.9,10.6-71.1,37-106.2c7.5-9.5,12.9-20.4,20.7-29.8c21.6-26.3,66.2-51.3,81.7-56.2
	c15.3-3.7,30.4-8.5,46.1-9.7C1338.6,11.7,1341.4,6.3,1346.8,4.4 M1131.9,1520.2c-19.7,61-28.1,42.7-37.8,60.2
	c-1.1,12.1-3.4,24.1-3.5,36.3c-1.8,39.2-16.9,24.8-4,107.2c0.7,12.1,6.3,23.1,7.9,35.1c1.7,11.5,8.6,21.1,13.2,31.5
	c3.6,7.5,6,15.6,9.9,23c6.4,14.7,45.4,70.3,59.1,96.3c1.8,0.2,3.5,0.5,5.3,0.8c3.4-8.4,3.3-17.2,0.5-25.7
	c-1.1-11.7-1-105.4-4.8-124.3c-1.4-14.2-9-27.8-4.9-42.3c5.5-15.7,13.9-30.6,16.7-47.2c3.8-20.1,18.5-33.9,3.2-50.8
	c-6.3-6.9-7.7-16.4-12.4-24.3c-5.4-8.4-7.2-18.5-12.5-26.9C1137.1,1516.6,1145.2,1523,1131.9,1520.2 M1695.3,2454.6
	c-6.2,12.8-6.5,27.6-11,41.1c-3.2,17.1-7.8,11.3,15,37.9c7.3,9.4,20.8,12.5,24.9,24.5c-4.1,11.4-16.4,17.5-28,16.7
	c-14.2,0.3-26-10.3-40.3-8.8c-7,20.4-13.8,41-22.9,60.6c-2,4.7-5.1,9.4-5,14.7c8.3,25,53.3,65.7,53.3,89.1
	c-1.6,9.4-9.7,18.7-19.8,18.3c-6.7-1.8-13.6-4.4-18.6-9.3c-6.9-7.4-14.7-13.8-20.9-21.7c-5.6-5.8-8.8-15.8-18.4-15.2
	c-5.1,4.6-6.2,12.8-5.2,19.4c12.1,20.2,57.6,45.7,21.8,68.4c-15.4,3.6-24.4-16.8-39.7-14c-4.4,12.3-3.2,25.7-7.5,38
	c-2.2,6-2.9,12.4-3,18.8c-2.2,17.7-11.3,34.9-7.8,53.1c1.8,10.7-0.7,21.5-1.1,32.2c-1.5,19-7.7,37.2-14.5,55
	c-5.3,17.2,2,35.8-6.1,52.4c-0.4,8.7-2.1,69.2,0.1,77.5c2.7,10.1-2.1,19.9-2.2,30c-2.3,8.3-6.9,15.6-10.2,23.5
	c-3,7-9,12.1-12.7,18.7c-1.5,5.2-0.3,10.8-0.7,16.2c-0.2,14.4-7,27.6-6.7,42.1c-17.3,32.8-1.4,24.5-14.3,70.5
	c-1.4,20.3-11.2,38.5-19.4,56.7c-7,9.1-14.8,17.6-22,26.5c-5.3,5.5-0.8,13.3-1.7,19.9c-4,34.7,6.3,37.8,9.7,51.8
	c0.9,7.5,0.2,62.7,0.3,63.8c0.6,9.5-3.7,18.5-3.3,28c0.2,8-2.9,15.6-3.5,23.5c-1.7,19.7,1.7,87.6-14.4,185.1
	c-1.3,23.8,0.5,47.8-3,71.4c-0.1,1-17.6,182.8-15.8,198.9c-6.5,16.6-4.9,34.7-7.7,52.1c-1.1,14.1-6.1,27.3-7.8,41.3
	c17,19.3,6.6,33.1,10.3,56.3c2.1,15.2-7,28.6-12.3,42.2c-1.4,4.1-5.1,6.4-8.9,8.1c-5.4,2.3-9.4,6.7-13.9,10.2
	c1.1,40.7,18.3,63.5,7.6,95.8c-5.7,15,8.2,26.9,15.7,59.4c1.6,13.1-5.5,25.1-6.9,37.7c4.7,12.7,11.4,26.1,8.1,40
	c-0.8,6.9-4.3,14.1-1.4,21c5.9,15.6,1.1,49-5.9,66.7c-2.3,6.5-9.1,9.5-13.8,14c51.7,2.3,579.7,14.7,611.6,3.6
	c-1.2-3.9-2.8-7.6-4.4-11.3c-3.4-6.9-2.9-14.8-4.8-22.1c-2.6-11.3,0.5-22.7,0.1-34c-0.3-12,1.3-23.8,4.2-35.4
	c5.1-20-20.7-30,1.7-68.2c14.5-55.7,18.4-30.7,15.7-56.7c-5.3-25.8,3.4-52.6,18.3-73.8c7.6-11.5,4.8-26,1.3-38.5
	c-5.2-2.1-13-2.5-14.5-9c-2-14-5.6-27.9-4.9-42.1c0.8-11.8-3.9-23.1-4.1-34.8c-0.4-7.5,6.6-11.9,9.8-17.9c3.7-6.3-0.2-13.3-0.3-20
	c-3.3-38.5-11.8-274-9.8-292.6c1.6-20.4-1.5-40.7-3.4-60.9c2.1-65.3-4.4-112.1,2.2-160.7c3.7-25.8-6.2-20.5,6.8-82.5
	c2.2-8.6-5.6-15.6-5-24c1.4-9,8.2-16.2,9.5-25.3c-1.4-7.7-4.1-15.2-4-23c-1.4-10.6,1-21.6-2.7-31.9c-15.5-60,6.5-50.7-0.2-92.9
	c-1.6-8.5-10.7-11.2-15.1-17.7c-16.8-22-16-22.4-28.8-95.5c-4.4-17.8,12.3-25.1-4.9-58.6c-5.9-12.5-5.7-26.6-8.4-39.9
	c-2-16.9,7.3-32.5,6.5-49.3c-0.8-61.8-0.9-55.9,0.8-68.8c2.7-20.5-9.3-91.7-10.4-128.8c0-1-0.9-68.7-1.3-70.8
	c-1.3-7.4-2.9-14.7-3.3-22.1c-0.7-9.9-4.9-19.1-5.6-28.9c-20.2-66.7,0.8-39.6-31.1-125.7c-4.6-10.7-5.3-22.5-9.4-33.3
	c-5.5-22.7-14.1-44.5-20.1-67.1c-6.6-17.3-7.1-36-11.9-53.8c-2.2-9.3-12.5-12-19.1-17.5c-15.9-10.8-28.2-26.6-35.2-44.4
	c-1.5-3.3-2.5-7.5-6.2-8.9C1768.4,2365.4,1724.1,2419.7,1695.3,2454.6z"/>
</svg>
