<?xml version="1.0" encoding="UTF-8" standalone="no"?>
<svg
   xmlns:dc="http://purl.org/dc/elements/1.1/"
   xmlns:cc="http://creativecommons.org/ns#"
   xmlns:rdf="http://www.w3.org/1999/02/22-rdf-syntax-ns#"
   xmlns:svg="http://www.w3.org/2000/svg"
   xmlns="http://www.w3.org/2000/svg"
   xmlns:sodipodi="http://sodipodi.sourceforge.net/DTD/sodipodi-0.dtd"
   xmlns:inkscape="http://www.inkscape.org/namespaces/inkscape"
   version="1.1"
   width="359.59537"
   height="690.51074"
   viewBox="0 0 359.59537 690.51074"
   id="svg17"
   sodipodi:docname="man waiter serving coffee.svg"
   inkscape:version="0.92.4 (5da689c313, 2019-01-14)">
  <metadata
     id="metadata23">
    <rdf:RDF>
      <cc:Work
         rdf:about="">
        <dc:format>image/svg+xml</dc:format>
        <dc:type
           rdf:resource="http://purl.org/dc/dcmitype/StillImage" />
        <dc:title></dc:title>
      </cc:Work>
    </rdf:RDF>
  </metadata>
  <defs
     id="defs21" />
  <sodipodi:namedview
     pagecolor="#ffffff"
     bordercolor="#666666"
     borderopacity="1"
     objecttolerance="10"
     gridtolerance="10"
     guidetolerance="10"
     inkscape:pageopacity="0"
     inkscape:pageshadow="2"
     inkscape:window-width="640"
     inkscape:window-height="512"
     id="namedview19"
     showgrid="false"
     fit-margin-top="0"
     fit-margin-left="0"
     fit-margin-right="0"
     fit-margin-bottom="0"
     inkscape:zoom="0.24180328"
     inkscape:cx="175.52257"
     inkscape:cy="331.07966"
     inkscape:window-x="0"
     inkscape:window-y="0"
     inkscape:window-maximized="0"
     inkscape:current-layer="svg17" />
  <g
     id="layer1"
     transform="translate(-124.47742,-128.56893)">
    <g
       id="g14">
      <g
         style="fill:#000000;fill-opacity:1;stroke-linejoin:miter"
         id="g4">
        <path
           d="m 483.953,270.451 c 0,80.00896 0.0342,112.8068 0.0684,72.8537 0.0685,-39.95308 0.0685,-105.41194 0,-145.50203 -0.0342,-40.0559 -0.0684,-7.39496 -0.0684,72.64833 z"
           id="path2"
           inkscape:connector-curvature="0" />
      </g>
      <g
         style="fill:#000000;fill-opacity:1;stroke-linejoin:miter"
         id="g8">
        <path
           d="m 341.70337,128.88611 c -9.38062,1.43786 -10.68155,1.84875 -14.55017,4.41638 -1.71182,1.12988 -4.34796,3.28662 -5.8886,4.79297 -3.0812,2.9444 -4.21098,4.92999 -4.21098,7.32654 0,1.3009 -0.0342,1.33514 -0.51352,0.71887 -0.2739,-0.34229 -0.51355,-0.58197 -0.5478,-0.47931 -0.2739,1.23254 -0.23964,4.62195 0.0685,4.99841 0.30817,0.37665 0.2739,0.61633 -0.10272,1.09553 -0.68469,0.78753 -1.30094,2.73888 -1.33514,4.21105 0,0.65045 0,3.18396 0.0342,5.68317 0,4.62183 -0.2739,5.95697 -1.98568,9.68866 -0.8559,1.88299 -0.61622,4.21106 0.61628,6.19672 1.02703,1.57489 1.0613,1.78033 0.92437,4.48492 -0.0685,1.57483 -0.37662,4.211 -0.68473,5.92273 -1.0271,5.5805 -0.78744,7.84003 1.54059,13.52313 0.71894,1.78027 1.301,3.52637 1.301,3.93714 0,0.37658 0.23962,1.54058 0.51349,2.56762 1.50638,5.34082 1.81454,6.64173 1.67758,6.91571 -0.10272,0.1369 0.13696,0.68469 0.51352,1.164 0.41082,0.51355 0.71896,1.16401 0.71896,1.50641 0,0.34223 0.2739,0.95856 0.61624,1.40357 0.34238,0.44513 0.99283,1.50641 1.47214,2.3623 0.44507,0.8559 1.30099,2.1911 1.91721,2.97852 0.61627,0.78741 1.12976,1.57489 1.12976,1.74597 0,0.44513 1.9172,1.43798 2.73887,1.43798 0.30815,0 0.8559,0.23957 1.23247,0.51356 0.34238,0.2738 0.92438,0.51354 1.30099,0.51354 0.47928,0 0.58201,0.17115 0.41084,0.75312 -0.10273,0.44507 -0.20545,0.8902 -0.20545,1.0271 0,0.20544 -7.39493,4.72461 -7.73725,4.72461 -0.0685,0 -1.16403,0.65045 -2.43075,1.4378 -4.55338,2.77307 -8.73013,4.99848 -11.74285,6.16248 -2.5335,0.99274 -6.4021,3.18384 -10.54463,5.95703 -6.26517,4.21094 -6.60754,4.48493 -9.31213,7.46338 -3.38934,3.76593 -4.211,5.27234 -4.48489,8.31921 -0.23965,2.25965 -0.37659,2.67041 -1.78025,4.45075 -1.78027,2.29382 -2.465,3.56048 -2.77313,5.20379 -0.34235,1.8487 -1.50637,3.38935 -3.66321,4.86153 -2.70462,1.81444 -3.18396,2.60185 -2.91006,4.72447 0.20544,1.64331 0.1712,1.7461 -1.4721,3.59479 -1.9857,2.29376 -2.2938,3.52624 -1.36942,5.58038 0.85586,1.88306 0.82165,2.15686 -0.34238,4.48493 -1.16406,2.32806 -1.78027,2.91009 -3.8002,3.69739 -0.85587,0.34246 -1.91718,0.89019 -2.39646,1.26678 -1.06134,0.78742 -4.96424,6.57324 -7.12106,10.51044 -0.99286,1.74597 -2.56769,3.90282 -4.10828,5.51196 -1.36947,1.47206 -3.21817,3.83436 -4.10833,5.30646 l -1.60904,2.6704 -2.91007,0.719 c -3.18393,0.8216 -5.47772,1.8487 -6.7102,3.08118 -0.65046,0.65045 -1.23249,0.78747 -3.8002,0.95856 -4.793,0.27398 -7.94269,1.64336 -9.4148,4.10839 -1.78024,2.94422 -2.22534,3.45777 -4.03982,4.38221 -1.09555,0.54773 -2.67038,1.81439 -3.76597,3.04686 l -1.9172,2.12263 -6.64169,0.30823 c -9.31214,0.41077 -11.98255,0.20532 -14.4133,-1.23256 -2.22531,-1.30095 -5.58038,-2.22533 -8.04535,-2.22533 -1.98572,0 -2.49924,-0.27387 -2.70465,-1.40362 -0.10273,-0.44513 -0.30811,-5.37505 -0.51355,-10.92121 -0.30811,-9.24371 -0.85587,-17.39184 -1.23249,-17.76849 -0.10272,-0.10265 -1.26669,0.0344 -2.63614,0.27399 -7.90847,1.43786 -21.91091,2.80731 -28.92922,2.84156 -1.50638,0 -1.78028,0.10265 -1.64332,0.58196 0.47931,1.47224 1.91721,8.18237 2.6019,11.84564 0.41083,2.25952 1.33521,6.64173 2.08838,9.7572 0.75321,3.11536 1.57486,6.539 1.84876,7.63453 l 0.44503,1.95141 -1.02703,0.54779 c -0.54776,0.27399 -1.16404,0.95862 -1.36942,1.54065 -0.27389,0.78742 -0.54779,0.99286 -1.30099,0.99286 -0.54776,0 -1.09555,0.17114 -1.23249,0.37653 -0.10272,0.20543 -0.61621,0.30816 -1.09555,0.20543 -1.09555,-0.20543 -5.8201,0.95857 -7.90848,1.91713 -1.30093,0.61633 -2.15686,0.68487 -6.57324,0.68487 -4.1083,-0.0343 -5.16961,0.0684 -5.51196,0.47925 -0.47932,0.61627 0.0685,1.12975 2.29379,2.19105 0.75318,0.37658 1.60907,0.82164 1.88297,0.9928 0.27386,0.13695 1.12979,0.58208 1.88296,0.95867 0.75321,0.37663 2.22531,1.12976 3.25241,1.67749 3.35508,1.78034 7.6688,3.49206 9.65451,3.83441 1.67752,0.30823 2.19107,0.58203 3.42356,1.88299 1.81448,1.883 3.86865,2.56764 5.34079,1.78028 1.33517,-0.71894 4.14251,-1.60907 5.61465,-1.81452 1.164,-0.1712 1.30094,-0.10272 1.47211,0.78742 0.34238,1.57489 1.43793,3.69751 2.39651,4.58764 0.75324,0.68476 1.19827,0.82166 3.18393,0.78742 2.49924,-0.0342 3.49207,0.4793 3.49207,1.74597 0,0.78748 0.78744,2.15693 1.64331,2.84155 0.3081,0.27398 1.54059,0.44513 2.94424,0.44513 1.33521,0.0342 3.04703,0.23963 3.8002,0.51355 1.74604,0.65045 3.629,0.65045 5.99125,0.0342 1.0271,-0.27386 3.14968,-0.71888 4.72457,-1.0271 3.86863,-0.71888 5.68311,-1.71173 8.45624,-4.6217 l 1.43787,-1.50641 2.36227,0.78741 c 1.30097,0.41077 2.53345,0.89008 2.70462,1.02698 0.20545,0.13704 0.71894,0.37664 1.19828,0.51354 0.47927,0.13704 1.64331,0.61622 2.56768,1.06135 4.14252,1.9173 7.73725,2.87585 12.66721,3.38928 1.12979,0.13703 2.67041,0.44513 3.42355,0.68477 3.97135,1.301 7.84003,1.98564 10.61313,1.81456 2.49918,-0.1712 6.88135,-1.36944 7.36069,-2.01996 0.34231,-0.445 2.22531,-1.23248 3.45779,-1.4721 1.26673,-0.2397 3.80017,-1.3352 4.65607,-2.0199 0.27387,-0.2397 0.7532,-0.65045 1.06131,-0.95862 0.30811,-0.27392 1.64331,-1.33514 2.94431,-2.328 2.43068,-1.88306 3.69744,-3.18396 5.34075,-5.47772 2.91003,-3.97138 18.1792,-18.59003 20.74686,-19.82256 0.65047,-0.27388 1.16403,-0.65053 1.16403,-0.82167 0,-0.1369 0.13694,-0.27386 0.34234,-0.27386 0.54777,0 4.4849,-2.84162 6.4706,-4.65607 1.0613,-0.99286 2.5334,-2.63617 3.2866,-3.6975 3.83442,-5.4435 3.90287,-5.47773 4.07408,-4.62178 0.10269,0.44501 0.37655,1.50635 0.582,2.36225 0.17117,0.85595 0.47928,2.1911 0.65048,3.01281 0.51352,2.29377 1.47211,5.23798 3.56052,10.88692 1.06128,2.8416 1.9172,5.37493 1.9172,5.5805 0,0.2053 0.68472,1.84862 1.54059,3.62896 0.8559,1.81451 1.47217,3.45782 1.33521,3.66314 -0.13694,0.2397 -0.10268,0.27393 0.13696,0.1369 0.23966,-0.1369 0.41083,-0.0342 0.41083,0.23975 0,0.61621 -0.71894,0.92438 -2.05414,0.92438 -1.6091,0 -2.73886,0.58197 -2.73886,1.40363 0,1.0271 2.91,3.73174 5.78583,5.40924 1.2667,0.75317 2.49917,1.60913 2.77307,1.88293 0.23965,0.30817 0.65048,0.54785 0.95863,0.54785 0.37657,0 0.44508,0.27387 0.30812,1.26672 -0.13692,0.71894 -0.37659,2.77314 -0.58202,4.5191 -0.34236,3.0812 -0.75318,5.34083 -1.84873,10.81855 -0.27387,1.30091 -0.58197,2.77308 -0.6847,3.25238 -0.0685,0.47925 -0.30813,1.50635 -0.51355,2.29377 -0.20542,0.78735 -0.61624,3.6632 -0.8901,6.36786 -0.2739,2.73884 -0.719,5.58044 -0.99289,6.29937 -0.27387,0.75317 -0.65043,2.43073 -0.85587,3.73169 -0.71893,4.55335 -1.40366,8.07971 -1.6091,8.3877 -0.10266,0.20544 -0.34234,1.43798 -0.47928,2.80731 -0.1712,1.36957 -0.51355,3.45795 -0.78741,4.69037 -1.43793,6.33362 -2.60193,12.9754 -2.97855,16.9467 -0.65048,6.9499 -0.82165,8.1139 -3.25242,25.50563 -0.27385,1.98572 -0.58196,4.82727 -0.68468,6.33362 -0.13696,1.50641 -0.37656,3.42365 -0.54779,4.27948 -0.17113,0.85589 -0.47928,3.38934 -0.65043,5.64892 -0.13696,2.25959 -0.61626,6.19665 -0.99288,8.73011 -0.41082,2.53344 -0.95859,6.77868 -1.23248,9.41484 -0.85587,8.45625 -1.54059,14.20784 -1.71177,14.99525 -0.0685,0.41085 -0.3081,2.91005 -0.51355,5.54621 -0.20538,2.63614 -0.51355,6.47058 -0.68472,8.55894 -0.20538,2.05415 -0.51355,6.60756 -0.6847,10.09956 -0.51354,9.96259 -0.99282,14.68714 -1.67754,17.46021 -0.8559,3.28663 -1.301,9.75723 -0.71894,10.09953 0.54776,0.3424 2.22532,0.719 6.16242,1.4037 1.78026,0.3081 3.49203,0.68476 3.80014,0.8559 0.54779,0.27386 1.0271,2.1911 1.67758,7.1553 0.20541,1.40366 0.54779,3.8002 0.75317,5.3065 0.23967,1.5749 0.41083,8.0112 0.44504,15.2349 0.0343,12.42757 0.0685,12.49605 0.99289,16.09084 1.30094,5.03266 1.50638,6.02551 1.54059,8.55896 0.0342,1.2667 0.41083,3.4236 0.89011,4.96417 0.47934,1.50643 0.85592,3.28663 0.85592,3.97137 0,1.40363 1.23249,5.58036 1.98566,6.74446 0.2739,0.445 1.16403,1.164 1.98569,1.6433 0.82165,0.47925 1.50637,1.0955 1.50637,1.3694 0,0.6505 -0.8559,2.01994 -2.2938,3.66325 -0.61623,0.6847 -1.12978,1.50635 -1.12978,1.78025 0,0.2739 -0.13692,0.5135 -0.34238,0.5135 -0.17117,0 -0.41082,0.5478 -0.54776,1.19826 -0.10268,0.65054 -0.34234,1.30104 -0.51351,1.40368 -0.37659,0.23963 -0.41083,3.73176 0,4.51911 0.13696,0.30815 0.54779,1.43795 0.8901,2.46495 0.30813,1.0271 0.95863,2.7389 1.43793,3.766 0.44507,1.0271 0.99283,2.19104 1.1298,2.56763 0.17113,0.37667 0.6162,1.40367 0.9928,2.29383 0.41082,0.89014 0.71895,1.78024 0.71895,1.98564 0,0.20546 0.4451,1.71186 0.99285,3.3552 0.54777,1.6433 1.09556,3.492 1.2325,4.07395 0.1027,0.61625 0.37655,1.19825 0.54778,1.30105 0.17115,0.1369 0.30812,0.5135 0.30812,0.8558 0,0.3424 0.51354,2.22535 1.16396,4.17677 0.65051,1.95148 1.26674,4.07409 1.40372,4.72463 0.13692,0.65037 0.37655,1.40366 0.54776,1.7118 0.13696,0.2738 0.92436,2.60184 1.71176,5.13535 0.78744,2.53338 1.54065,4.75865 1.67758,4.96411 0.13696,0.1712 0.41082,0.95864 0.61624,1.71179 0.41083,1.54065 2.53345,7.66885 2.8758,8.21655 0.10272,0.17127 0.37661,1.16406 0.65048,2.1227 0.23968,0.9928 0.5478,1.8145 0.71896,1.8145 0.13694,0 0.27387,0.1369 0.27387,0.3081 0,0.2054 0.65047,1.67755 1.40371,3.35504 4.0398,8.59326 5.06686,11.43482 5.34076,14.6872 0.17118,2.25956 0.1027,2.60193 -0.85592,4.58756 -3.28663,6.5048 -3.49201,14.7214 -0.47928,17.9053 1.30093,1.36944 2.67038,1.9514 5.13534,2.1911 1.43793,0.13696 2.12266,0.34234 2.12266,0.6505 0,0.5135 -1.26673,0.9244 -2.32804,0.7531 -0.8559,-0.1368 -2.12266,0.99294 -2.12266,1.8831 0,0.3423 -0.20537,1.06126 -0.47927,1.54057 -0.85586,1.57483 -1.67755,4.79303 -1.43793,5.64886 0.1712,0.68477 -0.0342,0.99287 -1.09555,1.71177 -0.68469,0.4794 -2.56762,2.0199 -4.17672,3.4579 -1.57486,1.4379 -3.01276,2.6019 -3.14969,2.6019 -0.13694,0 -0.75321,0.44505 -1.36942,0.99284 -0.61627,0.54773 -1.88299,1.3352 -2.84158,1.78026 -0.92438,0.445 -2.32804,1.4379 -3.08124,2.2253 -1.6091,1.6433 -2.25955,2.01995 -4.07407,2.32806 -0.8901,0.17114 -1.36943,0.47924 -1.4721,0.92434 -0.20545,0.7532 -1.0271,0.8216 -2.29383,0.23966 -0.71893,-0.30811 -1.09552,-0.27386 -2.08834,0.27384 -0.65049,0.34237 -1.19828,0.7532 -1.19828,0.89016 0,0.13694 -0.58203,0.34241 -1.26675,0.47931 -0.71893,0.13693 -2.19107,0.65043 -3.25235,1.19833 -1.19828,0.58194 -3.32092,1.1639 -5.40928,1.5063 -4.6903,0.7874 -7.0868,1.609 -8.6274,2.8758 -1.6091,1.33516 -2.05414,2.8758 -2.15686,7.1552 -0.0684,2.94436 0,3.2867 0.7532,4.17684 1.164,1.40363 3.11546,2.29376 7.05256,3.25236 6.8129,1.64333 11.64013,1.88296 22.35595,1.1641 6.36785,-0.4109 21.32889,-2.56776 22.35599,-3.184 0.13693,-0.1027 1.40366,-0.4108 2.80731,-0.71897 6.40207,-1.36938 10.81848,-1.98559 15.78268,-2.19103 l 5.375,-0.20545 -0.13693,1.30095 c -0.0684,0.71895 -0.68472,2.2938 -1.3694,3.5263 -1.09557,1.95143 -1.26674,2.56765 -1.30095,4.6903 -0.0343,1.5064 0.17115,3.1497 0.51349,4.1768 0.30816,0.9243 0.7532,2.3623 0.95859,3.14964 0.78744,3.11546 4.75879,4.21106 15.44034,4.21106 8.96978,0.0342 19.10353,-1.5064 21.39737,-3.25244 0.37658,-0.27393 0.85589,-0.51356 1.12976,-0.51356 0.27392,0 1.12976,-0.5477 1.91723,-1.19823 2.70459,-2.1911 4.10827,-6.43627 4.45063,-13.52307 0.0685,-1.23255 0.20544,-3.56055 0.34234,-5.20386 0.3081,-3.3894 0.0342,-4.48484 -2.22528,-9.24364 -0.75322,-1.60914 -1.36945,-3.2182 -1.36945,-3.59474 0,-0.61636 0.17115,-0.68476 1.50635,-0.54786 1.50641,0.1712 1.50641,0.1712 2.1911,-1.3009 1.81452,-4.0056 1.81452,-5.51196 0.0685,-7.63464 -1.19824,-1.47216 -1.36944,-1.84869 -1.36944,-3.45776 0,-0.9928 -0.23962,-2.39655 -0.58196,-3.1155 -0.34236,-0.8559 -0.5478,-2.08836 -0.47932,-3.3893 0.0685,-2.3281 0.37659,-2.77316 4.07404,-5.7174 2.77313,-2.2253 2.97851,-2.73886 4.34796,-10.44186 0.23962,-1.54064 0.71892,-3.62904 1.0271,-4.62184 0.3081,-0.99285 0.85582,-4.14257 1.19824,-6.9498 0.37652,-2.84163 0.82165,-6.1968 1.02704,-7.4977 0.20544,-1.3352 0.3081,-6.7445 0.27386,-12.4961 -0.0684,-6.81286 0.0342,-11.0239 0.34241,-12.80413 1.19824,-7.70307 2.53345,-34.95471 2.12262,-43.47943 -0.0685,-1.0271 0.10265,-2.84154 0.34235,-4.10828 0.37658,-1.78026 0.37658,-2.63616 0.0685,-4.07406 -0.44508,-1.95145 -0.37665,-14.4475 0.10266,-18.41886 0.1712,-1.67754 0.0685,-3.28664 -0.47931,-6.47054 -0.41083,-2.4307 -0.71893,-5.7174 -0.71893,-7.80577 0,-2.49923 -0.2054,-4.41638 -0.71894,-6.36783 -1.0271,-4.1083 -1.06134,-8.6959 -0.0342,-11.3663 1.50641,-3.8344 2.39648,-9.92834 3.62898,-24.7867 0.1027,-1.027 0.3081,-1.9857 0.51354,-2.1911 0.1712,-0.1711 3.5263,-0.44505 7.46338,-0.58195 8.11388,-0.27395 8.86706,-0.44505 8.52472,-2.15685 -0.58197,-2.8758 -0.61628,-4.9985 -0.0685,-6.81294 0.58204,-2.05416 1.26678,-10.88696 1.0271,-13.72851 -1.06136,-13.55735 -1.64332,-19.41169 -2.15686,-21.80815 -0.17115,-0.856 -0.41083,-7.5662 -0.51356,-14.89266 -0.10266,-8.52466 -0.3081,-14.03662 -0.58197,-15.23486 -0.54779,-2.49928 -0.51355,-21.87665 0.10273,-43.65064 0.0342,-1.12976 -0.27393,-3.83441 -0.719,-5.99121 -0.44507,-2.25958 -0.89013,-6.4021 -1.06128,-9.68866 -0.1712,-3.14977 -0.41082,-5.88861 -0.54779,-6.09405 -0.37658,-0.61622 -1.164,-8.01117 -1.50633,-14.17365 -0.44508,-8.31921 -1.64333,-15.95379 -3.8002,-24.58117 -0.75322,-3.14972 -0.99284,-4.82727 -0.99284,-7.4977 v -3.4235 l 1.64331,0.2053 c 6.02551,0.71895 11.43475,0.5478 17.28906,-0.4793 1.57483,-0.2738 2.60193,-0.23956 4.75879,0.1712 2.328,0.44502 3.42358,0.44502 6.57324,0.13703 3.3551,-0.34247 4.14252,-0.54779 6.91564,-1.88305 1.8487,-0.85584 3.3551,-1.8487 3.69746,-2.36225 0.3081,-0.47931 0.82164,-0.85589 1.164,-0.85589 0.30817,0 1.40369,-0.41077 2.43072,-0.85584 1.0271,-0.47937 2.05414,-0.82178 2.32807,-0.719 0.95862,0.37653 4.48485,-1.4721 6.16241,-3.2866 0.99286,-1.02705 2.25959,-3.97145 3.08124,-6.98408 0.5478,-2.08844 0.6162,-3.49219 0.4793,-12.80426 -0.13695,-11.70856 -0.27392,-12.66724 -2.60192,-15.16646 -2.56768,-2.77306 -3.93713,-5.23802 -4.48492,-8.0111 -0.27386,-1.47222 -1.02704,-3.9713 -1.67749,-5.58038 -0.61627,-1.60912 -1.60913,-4.21106 -2.22535,-5.82019 -0.58197,-1.60907 -1.60907,-4.38213 -2.29382,-6.16235 -0.65045,-1.78034 -1.40362,-3.80018 -1.6433,-4.45062 -0.23963,-0.65058 -0.9244,-2.7389 -1.5406,-4.62196 -0.58197,-1.88287 -1.8145,-4.89568 -2.73883,-6.74438 -0.92437,-1.81452 -1.78027,-3.86859 -1.91723,-4.58758 -0.20544,-1.12976 -0.6847,-2.46497 -1.84876,-5.1012 -0.17114,-0.37654 -0.65045,-1.54059 -1.06128,-2.56764 -0.41083,-1.0271 -1.0271,-2.5676 -1.4037,-3.42363 -0.37657,-0.85584 -0.82164,-1.84863 -0.9586,-2.22527 -0.17115,-0.3766 -0.6162,-1.36946 -0.95856,-2.22535 -0.37664,-0.85585 -0.75317,-2.63617 -0.89014,-3.93708 -0.13696,-1.3352 -0.4793,-3.25237 -0.7874,-4.27947 -0.51356,-1.883 -2.70466,-6.2309 -3.25245,-6.43635 -0.1369,-0.0685 -0.27387,-0.2738 -0.27387,-0.445 0,-0.30811 -1.23248,-2.22541 -1.71178,-2.70465 -0.23963,-0.2397 -1.5406,-2.12262 -3.11543,-4.45075 -1.74603,-2.5675 -8.11389,-9.00391 -11.29785,-11.40045 -2.43072,-1.81452 -7.97692,-4.656 -9.20942,-4.69025 -0.27386,0 -0.82165,-0.23968 -1.164,-0.51355 -0.37658,-0.27386 -0.92437,-0.51355 -1.1983,-0.51355 -0.3081,0 -1.8487,-0.78741 -3.45776,-1.74597 -3.21814,-1.9173 -12.76996,-6.67602 -17.80261,-8.86713 -7.22373,-3.14965 -9.55176,-4.51916 -11.22931,-6.50475 -0.89014,-1.02705 -2.25958,-2.63618 -3.08124,-3.56055 -0.82165,-0.92438 -2.08838,-2.7389 -2.87578,-4.0398 -0.95863,-1.64331 -1.64332,-2.39648 -2.25956,-2.56775 -0.47931,-0.10266 -1.26676,-0.41083 -1.74604,-0.65039 -0.4793,-0.27392 -1.16403,-0.47937 -1.47213,-0.47937 -0.47927,0 -0.61621,-0.3081 -0.61621,-1.3352 0,-0.71894 0.20538,-1.50629 0.47927,-1.71174 0.54777,-0.445 1.40367,-2.91009 1.74604,-4.99847 0.37658,-2.1911 0.8901,-3.6289 2.94423,-8.21661 0.30815,-0.75312 0.68473,-1.67755 0.75322,-2.05408 0.10272,-0.37659 0.582,-1.60913 1.02703,-2.73889 0.75321,-1.78027 1.71183,-5.37494 2.12265,-8.04535 0.13694,-0.75317 0.17118,-7.4292 0.10273,-14.72137 0,-1.23249 0.0342,-3.69751 0.10267,-5.47773 0.1027,-3.3551 -0.6847,-7.15527 -1.98567,-9.72302 -1.19823,-2.43066 -3.08123,-5.30646 -4.69028,-7.29211 -0.95858,-1.12983 -2.3623,-2.87592 -3.11545,-3.83442 -0.7532,-0.92443 -1.67758,-1.81457 -2.05416,-1.95153 -0.37659,-0.13684 -1.36942,-0.71888 -2.22534,-1.33509 -2.22532,-1.60913 -7.32642,-4.14257 -9.99683,-4.96423 -5.78583,-1.78027 -13.72855,-2.49927 -18.7612,-1.71179 z m 90.51935,213.69964 c 0.10272,0.44501 0.89013,1.57477 1.74603,2.56763 l 1.54059,1.74597 -1.60901,1.06135 c -0.92438,0.58196 -2.15686,1.47216 -2.80737,1.9173 -1.67756,1.2324 -2.08838,1.12975 -1.74604,-0.37666 0.17121,-0.68469 0.44508,-1.64331 0.61628,-2.12262 0.17114,-0.51355 0.6162,-1.95147 0.92437,-3.25244 0.61621,-2.39642 0.9928,-2.84155 1.33515,-1.54053 z m -70.04636,230.92015 3.86862,0.2054 -0.23965,5.7174 c -0.13693,3.5263 -0.0685,7.4292 0.1712,10.305 0.20542,2.4992 0.61624,8.9013 0.89011,14.1736 0.27389,5.27227 0.71896,10.57885 0.92438,11.8113 0.23968,1.2325 0.34234,3.45785 0.27388,4.9642 -0.37658,6.43634 0.44508,22.0821 1.30094,24.8209 0.4451,1.50643 0.5478,3.38937 0.58204,9.586 0,7.4977 0.0342,7.8058 1.09555,11.98257 1.26672,5.06689 1.36944,6.47058 0.95861,13.00963 -0.17124,2.73884 -0.34237,8.28504 -0.37661,12.32484 -0.0342,4.03979 -0.20545,11.29786 -0.37659,16.09082 -0.23968,8.14804 -0.30814,8.52464 -0.54779,5.47774 -0.17117,-1.7803 -0.54775,-3.80025 -0.82165,-4.4507 -0.3081,-0.65045 -0.54777,-1.30097 -0.51356,-1.4036 0.0343,-0.137 -0.10266,-1.1298 -0.27386,-2.2254 -0.17118,-1.12973 -0.54778,-3.629 -0.8559,-5.6146 -0.65048,-4.7246 -1.36944,-8.66174 -2.22531,-12.6672 -0.37661,-1.7803 -0.85589,-4.1768 -1.06131,-5.3066 -0.20541,-1.12983 -0.47928,-2.36225 -0.65051,-2.73884 -0.17115,-0.37666 -0.41083,-1.1983 -0.54775,-1.84876 -0.2054,-1.0956 -2.1226,-6.23095 -2.91004,-7.7373 -0.23966,-0.51355 -0.20539,-0.9586 0.17117,-1.7118 0.71899,-1.36944 0.68472,-2.1911 -0.13693,-4.2794 -0.37656,-0.9586 -0.68473,-2.1912 -0.68473,-2.77314 0,-0.99286 -0.44507,-2.67041 -1.60904,-6.2309 -0.37661,-1.16406 -0.47933,-2.22536 -0.30816,-3.59476 0.1712,-1.47213 0.0685,-2.19107 -0.34235,-2.97854 -2.25958,-4.10826 -2.73886,-5.23806 -2.49922,-5.85431 0.7532,-1.883 -0.13695,-5.44348 -1.78026,-7.18945 -0.582,-0.6163 -0.61624,-0.9244 -0.34234,-2.22535 0.78744,-3.3551 0.10272,-6.77868 -1.5406,-8.01115 -0.41082,-0.27394 -0.41082,-0.6848 -0.13696,-2.05415 0.20542,-0.95865 0.51352,-2.63625 0.71896,-3.766 0.2054,-1.12975 0.51356,-2.22525 0.6505,-2.39645 0.41082,-0.5136 1.43786,-7.66885 1.23247,-8.52475 -0.10272,-0.37655 -0.34237,-2.43075 -0.54777,-4.48485 -0.30815,-3.4921 -1.06133,-7.258 -1.7118,-8.9013 -0.13694,-0.3766 -0.61622,-2.1911 -1.02705,-4.0056 l -0.78745,-3.32083 1.26673,-2.67041 c 0.71893,-1.47216 1.40367,-2.94426 1.57487,-3.25236 0.17116,-0.30813 0.47927,-2.22537 0.6847,-4.2453 0.2054,-2.01986 0.44505,-3.8002 0.54777,-3.9713 0.20539,-0.3424 2.73886,-0.3424 7.94269,-0.0343 z"
           id="path6"
           inkscape:connector-curvature="0" />
      </g>
      <g
         style="fill:#000000;fill-opacity:1;stroke-linejoin:miter"
         id="g12">
        <path
           d="m 124.47742,560.2567 c 0,145.0912 0.0342,204.42177 0.0685,131.8761 0.0685,-72.51134 0.0685,-191.2409 0,-263.78655 -0.0342,-72.51123 -0.0685,-13.18072 -0.0685,131.91045 z"
           id="path10"
           inkscape:connector-curvature="0" />
      </g>
    </g>
  </g>
</svg>
