<?xml version="1.0" encoding="UTF-8" standalone="no"?>
<!-- Created with Inkscape (http://www.inkscape.org/) -->

<svg
   xmlns:dc="http://purl.org/dc/elements/1.1/"
   xmlns:cc="http://creativecommons.org/ns#"
   xmlns:rdf="http://www.w3.org/1999/02/22-rdf-syntax-ns#"
   xmlns:svg="http://www.w3.org/2000/svg"
   xmlns="http://www.w3.org/2000/svg"
   xmlns:sodipodi="http://sodipodi.sourceforge.net/DTD/sodipodi-0.dtd"
   xmlns:inkscape="http://www.inkscape.org/namespaces/inkscape"
   width="69.144684mm"
   height="76.281776mm"
   viewBox="0 0 69.144684 76.281776"
   version="1.1"
   id="svg829"
   inkscape:version="0.92.4 (5da689c313, 2019-01-14)"
   sodipodi:docname="man picking trash.svg">
  <defs
     id="defs823" />
  <sodipodi:namedview
     id="base"
     pagecolor="#ffffff"
     bordercolor="#666666"
     borderopacity="1.0"
     inkscape:pageopacity="0.0"
     inkscape:pageshadow="2"
     inkscape:zoom="0.35"
     inkscape:cx="-612.18992"
     inkscape:cy="35.583068"
     inkscape:document-units="mm"
     inkscape:current-layer="layer1"
     showgrid="false"
     fit-margin-top="0"
     fit-margin-left="0"
     fit-margin-right="0"
     fit-margin-bottom="0"
     inkscape:window-width="1920"
     inkscape:window-height="1048"
     inkscape:window-x="0"
     inkscape:window-y="0"
     inkscape:window-maximized="1" />
  <metadata
     id="metadata826">
    <rdf:RDF>
      <cc:Work
         rdf:about="">
        <dc:format>image/svg+xml</dc:format>
        <dc:type
           rdf:resource="http://purl.org/dc/dcmitype/StillImage" />
        <dc:title></dc:title>
      </cc:Work>
    </rdf:RDF>
  </metadata>
  <g
     inkscape:label="Ebene 1"
     inkscape:groupmode="layer"
     id="layer1"
     transform="translate(-47.070489,-81.966244)">
    <path
       inkscape:connector-curvature="0"
       style="clip-rule:evenodd;fill-rule:evenodd;stroke-width:0.26458156"
       d="m 116.13027,133.61178 h 0.0849 c -0.0378,-0.27331 -0.16933,-0.254 -0.33972,-0.38232 -0.13626,-0.10186 -0.25506,-0.31723 -0.42439,-0.38153 -0.55033,-0.20981 -0.96017,0.14208 -1.35942,-0.0852 -0.263,-0.14975 -0.49583,-0.56382 -0.67945,-0.80644 -0.21219,-0.21326 -0.42439,-0.42519 -0.63685,-0.63738 -0.49185,-0.65167 -1.13002,-1.18559 -1.61394,-1.82641 -1.55045,-2.05315 -3.50333,-3.76579 -5.0543,-5.81867 -0.57494,-0.76094 -1.32847,-1.39514 -1.91134,-2.16587 -0.14711,-0.19473 -0.37148,-0.33999 -0.50932,-0.55245 -0.0849,-0.12911 0.16166,-0.55615 0.127,-0.76464 -0.0159,-0.0958 0.0871,-0.38152 0.12753,-0.55191 0.13044,-0.54928 0.0463,-1.30624 -0.16986,-1.65655 -0.37703,-0.61171 -1.01044,-1.17765 -1.57135,-1.61395 -0.0143,-0.0426 -0.0283,-0.0849 -0.0426,-0.12752 -0.25083,-0.18653 -0.66199,-0.20241 -0.84931,-0.46725 -0.62177,-0.87789 -1.03266,-1.88885 -1.613949,-2.80325 -0.247382,-0.38867 -0.635524,-0.7223 -0.892169,-1.10436 -0.219602,-0.32676 -0.297389,-0.67759 -0.509847,-1.0197 -0.150019,-0.24156 -0.441322,-0.40931 -0.594252,-0.63684 -0.24606,-0.36433 -0.434178,-0.97313 -0.595042,-1.40123 0.409043,-0.27093 0.857506,-0.59266 1.274222,-0.84983 -0.0217,-0.58764 -0.26458,-0.93795 -0.424653,-1.35916 -0.08281,-0.21854 -0.0463,-0.37491 -0.127527,-0.59451 -0.172508,-0.46726 -0.457991,-0.99351 -0.594516,-1.48642 -0.01429,-0.21273 -0.02831,-0.42466 -0.0426,-0.63712 -0.08493,-0.0712 -0.16986,-0.14181 -0.254791,-0.21272 -0.09684,-0.13467 -0.193939,-0.36168 -0.254791,-0.50958 -0.102394,-0.24871 -0.291306,-0.67575 -0.21246,-1.01917 0.0426,-0.12727 0.08493,-0.25479 0.127529,-0.38206 -0.01058,-0.0466 -0.147373,-0.2286 -0.170127,-0.29712 -0.104773,-0.31988 -0.03413,-0.64955 -0.169595,-0.97684 -0.05292,-0.12753 -0.20664,-0.30612 -0.254794,-0.46725 -0.05001,-0.165627 0.03916,-0.325434 0,-0.424652 -0.05001,-0.125676 -0.30321,-0.289717 -0.382321,-0.424653 -0.168536,-0.286807 -0.211664,-0.574407 -0.38232,-0.849307 -0.194995,-0.314852 -0.488415,-0.617269 -0.67918,-0.934502 -0.02858,-0.09922 -0.05662,-0.198436 -0.08493,-0.297654 -0.104508,-0.107685 -0.343956,-0.125941 -0.467252,-0.212195 -0.316968,-0.220925 -0.634201,-0.585254 -0.976833,-0.764376 -0.316704,-0.165363 -0.652987,-0.319614 -0.976837,-0.424653 l -0.679444,-0.08493 c -0.01429,-0.0426 -0.02805,-0.08493 -0.0426,-0.127528 -0.153456,-0.09975 -0.839783,-0.397931 -1.019432,-0.424654 0.01799,-0.12303 -0.0087,-0.294479 -0.127265,-0.38232 0.02752,-0.260877 0.135202,-0.23389 0.25453,-0.382056 1.284806,-0.068 2.068496,-0.346866 2.931033,-0.76464 0.121179,-0.28469 0.212195,-0.864917 0,-1.146697 0.03995,-0.21484 0.225951,-0.370149 0.382055,-0.46725 2.65e-4,-0.23098 -0.02513,-0.361683 -0.08493,-0.509584 0.102658,-0.05292 0.163248,-0.112977 0.254529,-0.169862 -0.009,-0.402693 -0.13335,-0.668068 -0.254529,-0.976835 0.429157,-0.234688 0.770731,-0.255325 0.89191,-0.806977 -0.453493,-0.475454 -0.741093,-1.380322 -1.274225,-1.741212 0.05662,-0.255057 0.113506,-0.510113 0.170127,-0.764641 0.751411,0.08863 1.68512,0.125677 2.250794,-0.212458 0.387348,-0.231245 0.5924,-0.761466 0.976837,-1.019433 0.01402,-0.141551 0.02831,-0.283102 0.0426,-0.424389 -0.08758,0.01667 -0.08202,0.01058 -0.12753,0.04233 h -0.0426 c 0.01429,-0.02831 0.02857,-0.05688 0.0426,-0.08493 -0.49133,-0.01773 -1.017584,-0.141022 -1.444087,-0.254527 -0.935297,-0.2495 -1.519494,-0.124089 -2.208728,-0.637112 -0.166156,-0.12356 -0.900637,-1.005675 -0.891905,-1.104364 -0.07884,-0.07117 -0.2114,-0.06509 -0.297389,-0.127528 -0.499002,-0.362477 -0.923124,-0.895873 -1.741475,-0.934502 v -0.169861 c -0.204258,0.09446 -0.705905,0.224629 -1.062032,0.127528 -0.04921,-0.01349 -0.382056,-0.169862 -0.382056,-0.169862 -0.06376,0.02963 -0.167214,0.144991 -0.254791,0.169862 -0.491064,0.138376 -0.962813,-0.104774 -1.27396,0.170126 -0.129379,-0.05292 -0.259289,-0.145256 -0.382321,-0.212459 -0.114829,0.141286 -0.278339,0.100541 -0.424653,0.212459 -0.112446,0.08546 -0.126204,0.304269 -0.254527,0.382056 -0.431003,0.260348 -1.181356,0.822319 -1.444085,1.231891 h -0.212725 c -0.01826,0.851424 -0.717016,0.941381 -0.764376,1.698878 -0.0048,0.07699 0.14949,0.160072 0.169862,0.212459 0.147371,0.378617 -0.08943,0.920744 -0.127264,1.146697 -0.07117,0.421214 0.328081,1.071026 0.212193,1.444086 -0.03889,0.125411 -0.214574,0.224365 -0.254791,0.339458 -0.109273,0.313 0.0463,0.540275 -0.170127,0.722043 -0.01588,0.363006 -0.0098,0.51223 0.21246,0.637112 -0.02117,0.580492 -0.174625,0.964665 0.08467,1.316558 -0.02752,0.245532 -0.140229,0.22119 -0.212196,0.382321 -0.0426,0.155573 -0.0852,0.311676 -0.127526,0.46725 -0.132027,0.201347 -0.39555,0.195526 -0.637114,0.29739 -0.383379,0.161659 -0.814647,0.422537 -1.231628,0.552181 -0.283101,0.02831 -0.566468,0.05662 -0.849569,0.08493 -0.683681,0.17383 -1.330317,0.561971 -1.911075,0.806974 -0.579168,0.244473 -1.206227,0.251088 -1.698876,0.552182 -0.950114,0.580227 -1.531398,1.391434 -2.166131,2.293392 -0.223041,0.317234 -0.556942,0.596896 -0.76464,0.934502 -0.328875,0.536043 -0.437354,1.274754 -0.806974,1.783809 -0.197907,0.272784 -0.837929,0.948259 -1.104098,1.146699 -0.172772,0.12858 -0.384437,0.2106 -0.509584,0.38232 -0.451641,0.61806 -0.678123,1.56658 -1.274225,2.03833 0.283896,0.43736 0.839253,1.4007 0.976835,1.91161 0.12303,0.45587 -0.373589,1.2766 -0.551917,1.48668 -0.05636,0.0661 -0.196055,0.0638 -0.254528,0.12673 -0.161659,0.17463 -0.2495,0.5887 -0.38232,0.80724 -0.227011,0.37412 -0.564088,0.81994 -0.722043,1.23189 -0.434972,1.13453 -0.429945,2.5302 -0.722043,3.82215 -0.02831,0.45296 -0.05662,0.90619 -0.08467,1.35942 -0.0635,0.27172 -0.18018,0.51276 -0.212459,0.80697 -0.522813,0.25136 -1.200671,0.47122 -1.613948,0.84931 -0.292891,0.37491 -0.471748,1.28216 -0.297389,1.95367 0.06641,0.25506 0.279927,0.99562 0.08493,1.31682 v 0.0847 c -0.137582,-0.0347 -0.223306,-0.0733 -0.297389,-0.16986 -0.06588,0.096 -0.06324,0.28839 -0.127264,0.38232 -0.121178,0.17701 -0.298712,-0.0111 -0.467251,0.0849 -0.211136,0.12065 -0.715693,0.32438 -0.891904,0.46725 -0.0926,0.0751 -0.14552,0.1868 -0.255057,0.25479 -0.14843,0.64453 -0.370414,1.39276 0,1.82641 -0.02408,0.53657 -0.914129,1.00885 -1.274225,1.27396 -0.24659,0.1815 -0.461959,0.47307 -0.721778,0.63685 -0.155839,0.0566 -0.311677,0.1135 -0.467251,0.17012 -0.35454,0.21934 -0.639494,0.57124 -0.976835,0.80698 -0.212459,0.11324 -0.424918,0.22648 -0.637113,0.33972 -0.160865,0.11562 -0.296066,0.31803 -0.467251,0.42465 -0.212459,0.0844 -0.424653,0.17013 -0.636848,0.2548 -0.576258,0.35586 -0.96387,0.9218 -1.486683,1.31682 -0.448995,0.33866 -0.863595,0.67812 -1.316823,1.01943 -0.240503,0.2405 -0.481273,0.48127 -0.722042,0.72178 -0.227804,0.16748 -0.491063,0.25717 -0.722043,0.42518 -0.183884,0.18336 -0.368033,0.36777 -0.551917,0.55192 -0.233361,0.16854 -0.529692,0.32993 -0.764641,0.46725 -0.188911,0.11059 -0.406397,0.1008 -0.594514,0.21246 -0.256115,0.15213 -0.50297,0.40163 -0.764641,0.55218 -0.2876,0.16616 -0.679181,0.0585 -0.891905,0.21246 -0.143403,0.10371 -0.630233,0.57996 -0.722042,0.72204 v 0.21246 c -0.06985,0.14975 -0.292892,0.49133 -0.424654,0.59478 -0.498472,0.38999 -1.155428,0.59954 -1.656545,0.97657 -0.552182,0.55218 -1.104363,1.10437 -1.656545,1.65628 -0.01429,0.0426 -0.02831,0.0852 -0.04233,0.12727 0.212459,0.12752 0.424653,0.25532 0.637112,0.38258 0.155839,0.0426 0.311677,0.0847 0.467251,0.12726 0.239711,0.15478 0.693204,0.7665 0.849307,1.01944 0.05424,0.0871 0.0164,0.25346 0.08493,0.33972 0.07355,0.0923 0.365387,0.15901 0.467251,0.29765 0.255321,0.34713 0.466722,0.68077 0.722043,1.01891 0.258496,0.34237 0.649812,0.61303 0.892169,0.97683 0.270667,0.40693 0.364064,0.90117 0.637112,1.31682 0.108214,0.16484 0.310619,0.30824 0.424389,0.46726 0.384702,0.53604 0.727599,1.18612 0.9771,1.82614 0.845073,0.17621 1.852865,0.28257 2.463254,0.67944 0.470955,0.30639 0.843222,0.78131 1.401489,1.01917 0.754057,0.32173 1.540922,0.38629 2.336254,0.67971 0.676006,0.24976 1.430064,0.61595 2.081199,0.89217 0.855657,0.36327 1.730892,0.44185 2.590783,0.80697 0.34766,0.14737 0.708813,0.381 1.104363,0.50959 0.282838,0.0423 0.566469,0.0852 0.849307,0.12726 0.230186,0.11668 0.387876,0.40137 0.637112,0.50985 0.562501,0.24474 1.629029,0.30877 2.335991,0.21246 0.01402,-0.0143 0.02831,-0.0281 0.0426,-0.0426 -0.06403,-1.31365 -0.332314,-2.53231 -0.594779,-3.73721 -0.16457,-0.75697 0.254792,-1.41234 0.170126,-2.0812 -0.220397,-1.73619 0.109008,-3.80336 -0.254792,-5.47896 -0.01429,-0.38232 -0.02831,-0.76437 -0.0426,-1.14669 -0.195526,-0.84296 -0.225688,-1.82218 -0.424918,-2.67598 -0.01402,-0.2122 -0.02831,-0.42439 -0.04233,-0.63659 -0.103981,-0.44793 -0.306121,-1.24035 -0.169861,-1.82614 0.153457,-0.66172 0.441322,-1.25994 0.637112,-1.86874 0.0979,-0.30426 0.05345,-1.46842 0.169862,-1.65654 0.01402,-0.0426 0.02831,-0.0849 0.04233,-0.12727 0.297918,0.004 0.618062,-0.1471 0.849306,-0.0852 0.361948,0.0966 1.486155,0.8046 1.86874,0.50985 0.179915,-0.10795 0.44238,-1.33508 0.254527,-1.48668 0.05212,-0.0955 0.07355,-0.0847 0.170126,-0.12727 0.194468,-0.79348 0.550065,-2.94823 -0.170126,-3.39775 0.0013,-0.5117 -0.04127,-0.95091 -0.126999,-1.31683 v -0.42438 c -0.05662,-0.1278 -0.28469,-0.23733 -0.339987,-0.38259 -0.01402,-0.14155 -0.02831,-0.28284 -0.0426,-0.42439 -0.09604,-0.29818 -0.432591,-0.56567 -0.679445,-0.72204 0.0048,-0.62759 0.004,-1.20993 -0.29739,-1.52875 0.009,-0.63209 0.463547,-0.61965 0.722043,-0.97657 0.132556,-0.18336 0.239711,-0.48313 0.29739,-0.72205 0.08361,-0.3466 -0.207961,-0.53286 -0.127264,-0.84957 0.106097,-0.41724 0.432326,-0.81253 0.637113,-1.14669 0.361947,-0.59082 0.613564,-1.1938 0.97657,-1.78355 0.290775,-0.47254 0.661189,-0.96334 0.892169,-1.48668 0.374119,-0.84931 0.677593,-2.03966 1.359154,-2.59105 v -0.0844 c 0.06403,0.10292 -0.0021,0.27464 0.04233,0.42439 0.03493,0.118 0.173831,0.19632 0.21246,0.29713 0.217485,0.56673 0.194202,1.11759 0.764641,1.31682 0.09446,0.069 0.265903,0.0852 0.424653,0.0852 0.01402,0.50958 0.02831,1.0197 0.0426,1.52849 -0.0381,0.17383 -0.162983,0.52175 -0.08493,0.7649 0.03387,0.1053 0.17621,0.26564 0.255056,0.33973 -0.06456,0.65695 -0.579697,0.89878 -0.806974,1.35941 -0.129114,0.26115 -0.0093,0.55933 -0.08493,0.89164 -0.218279,0.95515 -0.393698,2.65455 -0.16986,3.69515 v 0.55218 c -0.02619,0.1106 0.205578,1.43615 0.08493,1.52875 0.275693,0.45614 0.494766,0.91757 0.637111,1.52902 v 1.06177 c 0.141023,0.64214 0.03757,1.50044 0.170127,2.0812 v 0.80697 c 0.07593,0.33628 0.08493,0.79401 0.212458,1.10436 0.144463,0.35296 0.369356,0.70115 0.467252,1.10463 0.174622,0.71781 -0.454552,1.0189 -0.806974,1.23137 -0.0074,1.03715 -0.291039,1.59965 -0.509585,2.37805 -0.02831,0.26935 -0.05662,0.53816 -0.08493,0.80698 -0.137316,0.54821 -0.292627,1.1713 -0.424654,1.74147 -0.02804,0.59478 -0.05662,1.18956 -0.08493,1.78381 -0.02884,0.12885 -0.1397,0.5416 -0.127265,0.63685 0.05477,0.42862 0.169069,1.38985 0.0426,1.9116 -0.08784,0.36142 -0.179123,0.87339 -0.297389,1.31656 -0.09234,0.3466 0.0463,0.68579 -0.08493,0.9771 -0.03625,0.0812 -0.178594,0.20293 -0.212196,0.29712 -0.01402,0.15558 -0.02858,0.31142 -0.04233,0.46725 -0.05662,0.0569 -0.113242,0.11351 -0.170127,0.16987 -0.07673,0.22039 0.0093,0.69055 0.0426,0.85036 0.06085,0.28866 -0.03942,0.60483 -0.08493,0.80618 -0.220925,0.97736 0.685001,1.39011 0.382055,2.42119 -0.05477,0.18679 -0.269872,0.38628 -0.339722,0.55218 -0.0217,0.0516 -0.212458,1.31629 -0.212458,1.31629 0.07726,0.35295 0.295537,0.61383 0.382321,0.93424 v 0.63738 c 0.0048,0.37464 0.04418,0.79612 0.169859,1.10462 l 0.382321,0.67945 c 0.115887,0.11509 0.183885,0.027 0.254526,0.21219 0.09022,0.16272 -0.03095,0.25347 -0.04233,0.38206 0.08017,0.14843 0.285219,0.53525 0.42439,0.63711 0.228597,0.16695 0.547946,0.1561 0.849569,0.25426 0.846132,0.27702 1.861068,0.53023 2.930506,0.51038 -0.04921,0.21484 -0.193939,0.2204 -0.254791,0.38232 -0.188383,0.5035 -0.135202,1.0832 -0.339725,1.57109 -0.09339,0.22304 -0.313793,0.38047 -0.382056,0.63737 -0.08916,0.33285 -0.01243,0.99642 0.127265,1.14644 0.271989,0.64849 1.907103,0.67971 2.888173,0.67971 h 1.06203 c 0.06641,-0.0214 0.15875,-0.14446 0.212193,-0.17039 0.212196,-0.028 0.424653,-0.0569 0.637114,-0.0849 0.01402,-0.0421 0.02805,-0.0847 0.04233,-0.127 0.216956,-0.13706 1.05224,-0.27358 1.359154,-0.33972 h 3.015438 c 1.505468,-0.34872 2.964106,-0.58658 3.355422,-2.03861 0.08493,-0.18758 -0.214575,-0.65484 -0.297389,-0.84957 -0.202671,-0.47598 -0.64267,-1.1123 -1.146696,-1.27396 h -1.104099 c -0.142875,-0.0249 -0.719664,0.0135 -0.892169,0.127 -0.509056,-0.008 -0.836608,-0.34792 -1.189295,-0.55192 -0.02725,-0.0733 -0.0082,-0.0418 -0.04233,-0.0847 0.0029,-0.69611 0.405604,-1.01467 0.551918,-1.57188 0.02831,-0.83475 0.05662,-1.6703 0.08493,-2.50558 -0.02831,-0.24077 -0.05662,-0.48101 -0.08493,-0.72204 0.09392,-0.2921 0.448993,-0.58235 0.594778,-0.84958 0.06826,-0.12461 -0.03572,-0.0971 0,-0.21246 0.05847,-0.18944 0.187061,-0.45719 0.297389,-0.63684 0.199232,-0.32517 0.483127,-0.6133 0.679712,-0.93424 0.162452,-0.26591 0.319614,-0.61013 0.424387,-0.89164 0.01429,-0.11324 0.02858,-0.22675 0.04233,-0.34025 0.08176,-0.16986 0.275431,-0.32464 0.339987,-0.55192 v -0.46752 c 0.124354,-0.37835 0.311679,-0.86676 0.424654,-1.31682 0.01402,-0.25453 0.02831,-0.50958 0.04233,-0.76464 0.05265,-0.18573 0.203465,-0.41513 0.254794,-0.59398 0.04392,-0.15267 -0.05239,-0.38418 -0.04233,-0.46778 0.01296,-0.10742 0.173829,-0.34978 0.212458,-0.46673 0.01402,-0.14155 0.02831,-0.28363 0.04233,-0.42491 0.135996,-0.4535 0.412219,-0.98478 0.552183,-1.44383 0.17621,-0.57916 0.125145,-1.1205 0.297125,-1.69887 0.429945,-1.44515 0.661188,-3.14032 1.061765,-4.79951 0.09154,-0.37835 -0.0077,-0.6477 0.08519,-1.0197 0.231773,-0.93053 0.335754,-1.85763 0.339723,-3.01517 0.01402,-0.35401 0.02831,-0.70829 0.04233,-1.06203 -0.07937,-0.3392 -0.119856,-0.84904 -0.127264,-1.18929 -0.0058,-0.26512 -0.04207,-0.45852 -0.08466,-0.63685 -0.01429,-0.43895 -0.02831,-0.87789 -0.0426,-1.31682 -0.02434,-0.0561 -0.147638,-0.12859 -0.170127,-0.21247 -0.04657,-0.17303 0.06085,-0.34977 0.127529,-0.42465 0.04842,-0.0323 0.855922,-0.31009 1.061765,-0.16986 0.04233,0.014 0.08493,0.0283 0.127,0.0423 0.07779,0.40878 -0.08811,0.68183 -0.169598,1.0197 v 1.82587 c 0.07911,0.29475 0.283101,0.62336 0.382055,0.89217 0.02831,0.18362 0.05689,0.36804 0.0852,0.55192 0.06932,0.15213 0.231508,0.39079 0.339723,0.55245 0.182827,0.27358 0.495032,0.48339 0.679444,0.76437 0.160073,0.0347 0.432062,0.1651 0.679448,0.0849 0.248705,-0.081 0.376764,-0.40216 0.679444,-0.21272 0.137319,-0.29131 0.588428,-1.28719 0.424654,-1.78355 -0.18124,-0.54979 -0.663305,-0.95381 -0.89217,-1.44408 -0.145521,-0.31168 -0.158482,-0.62256 -0.297124,-0.93398 -0.06562,-0.14763 -0.223044,-0.29077 -0.297389,-0.42491 0.131495,-0.254 -0.132556,-0.65855 -0.297127,-0.89191 -0.305327,-0.43312 -0.77787,-0.73157 -0.976834,-1.27396 -0.281514,-0.76808 0.174358,-2.21031 -0.255056,-2.84557 -0.157956,-0.41751 -0.715166,-0.37597 -0.976571,-0.67971 h -0.04233 c 0.213784,-0.44979 0.82576,-0.65828 1.104363,-1.06177 0.122767,-0.22913 0.03069,-0.56726 -0.0426,-0.84957 0.200025,-0.0902 0.546362,-0.12356 0.722046,-0.25506 0.517255,0.0643 1.320789,1.05145 1.741209,1.35916 0.456668,0.33469 0.974191,0.55747 1.444085,0.89217 0.31803,0.22622 0.570439,0.59213 0.891906,0.80697 0.364064,0.24315 0.909632,0.31591 1.146696,0.67971 0.147373,0.22569 0.160073,0.49636 0.297391,0.72205 0.267227,0.43894 0.612507,0.96175 0.977097,1.31655 -0.002,0.13124 -0.0151,0.21802 -0.0426,0.29739 -0.16563,0.006 -0.41169,0.023 -0.50985,-0.0426 h -0.16986 c -0.0709,0.4535 -0.141814,0.90673 -0.212458,1.35916 0.169858,0.17012 0.339728,0.33999 0.509588,0.51011 0.50826,0.2548 2.16507,-0.15054 2.42092,-0.33999 0.3421,0.12304 0.52757,0.52546 0.76464,0.76465 0.69744,0.70352 1.33852,1.46498 2.0386,2.16613 0.78554,0.78713 1.66078,1.52795 2.33599,2.42118 0.21246,0.19791 0.42465,0.39608 0.63711,0.59399 0.17013,0.22542 0.46646,0.44714 0.59452,0.67971 0.0974,0.17647 0.0662,0.27093 0.21246,0.38232 0.66145,0.5035 1.15516,1.26655 1.78381,1.74121 0.64531,0.48762 1.21125,1.13902 1.69914,1.78381 0.2405,0.24077 0.48101,0.48153 0.72204,0.72204 0.0825,0.12806 0.10636,0.3466 0.1696,0.46778 0.0534,0.0233 0.12832,0.0508 0.17012,0.0847 0.11589,-10e-4 0.19447,-0.002 0.25453,-0.0423 0.14367,-0.23257 -0.0145,-0.29501 0.21219,-0.55245 0.32041,0.0151 0.62839,0.4318 0.76464,0.63659 0.1106,-0.008 0.14394,-0.0183 0.21247,-0.0418 -0.023,-0.4191 -0.44186,-0.84031 -0.72205,-1.0197 0.008,-0.11059 0.0185,-0.1442 0.0423,-0.21246 0.36909,-0.003 1.21628,0.0799 1.40123,0.25241 z M 94.214715,123.50371 h 0.16986 c -0.02831,0.0278 -0.05662,0.0564 -0.08519,0.0847 v 0.0847 c 0.05662,-0.028 0.113503,-0.0566 0.170389,-0.0847 0.370678,0.62943 0.75247,1.2721 1.146431,1.86847 0.125942,0.19076 0.18468,0.39555 0.339723,0.55245 -0.059,0.50932 -0.162187,1.07605 -0.551916,1.27369 -0.01429,0.0145 -0.02831,0.0283 -0.0426,0.0423 -0.508262,-0.75511 -0.944557,-1.70364 -1.189029,-2.71778 -0.06826,-0.28231 -0.03334,-0.89058 0.04233,-1.10383 z m 7.559885,-0.63738 h -1.23136 c -0.10557,-0.0571 -0.17013,-0.41434 -0.25506,-0.50985 v -0.0423 c 0.28337,0.0661 0.75591,0.23257 1.1893,0.12726 0.21087,-0.0511 0.41618,-0.14843 0.67944,-0.17012 v 0.12753 c 0.10187,0.0399 0.21352,0.0833 0.29713,0.12726 0.0143,0.0709 0.0283,0.14155 0.0426,0.21246 -0.20743,0.0132 -0.57282,0.0294 -0.72204,0.12779 z m 0.9771,-0.46699 c -0.0275,0.073 -0.008,0.0415 -0.0423,0.0849 -0.0376,-0.0902 -0.0669,-0.18891 -0.12752,-0.25479 0.0693,-0.13679 0.20505,-0.1442 0.29739,-0.25532 h 0.0852 c -0.041,0.15663 -0.11404,0.32252 -0.21273,0.42518 z m 11.08518,11.55216 c -0.0272,0.073 -0.008,0.0413 -0.0426,0.0849 -0.11271,-0.31115 -0.45297,-0.4781 -0.63711,-0.72204 -0.40005,-0.52996 -0.87656,-0.9607 -1.27423,-1.48615 -0.24077,-0.22701 -0.48127,-0.45323 -0.72204,-0.67971 -0.29369,-0.38867 -0.63447,-0.76173 -0.97684,-1.10437 -0.14128,-0.127 -0.2831,-0.25479 -0.42465,-0.38232 -1.24353,-1.64596 -2.95987,-2.89849 -4.20473,-4.54445 -0.24077,-0.22622 -0.48127,-0.45297 -0.72204,-0.67945 -0.29342,-0.38867 -0.63421,-0.76146 -0.97684,-1.10436 -0.25347,-0.25347 -0.64373,-0.5207 -0.76438,-0.8919 0.15426,-0.14526 0.28655,-0.34978 0.42466,-0.50985 0.28151,0.11456 0.5027,0.53048 0.67944,0.7649 0.50297,0.66648 1.14591,1.23507 1.65655,1.91134 0.23998,0.3175 0.60986,0.57414 0.84931,0.89137 1.11044,1.47293 2.45664,2.7326 3.56761,4.20526 0.23971,0.3175 0.6096,0.57467 0.84984,0.89217 0.51011,0.67627 1.15384,1.24407 1.65628,1.91107 0.17409,0.23099 0.36803,0.59108 0.59451,0.76464 0.14764,0.11272 0.39053,0.17807 0.55219,0.2548 -2.7e-4,0.17912 -0.01,0.32305 -0.0849,0.42412 z"
       id="path2" />
  </g>
</svg>
