<?xml version="1.0" encoding="UTF-8" standalone="no"?>
<svg
   xmlns:dc="http://purl.org/dc/elements/1.1/"
   xmlns:cc="http://creativecommons.org/ns#"
   xmlns:rdf="http://www.w3.org/1999/02/22-rdf-syntax-ns#"
   xmlns:svg="http://www.w3.org/2000/svg"
   xmlns="http://www.w3.org/2000/svg"
   xmlns:sodipodi="http://sodipodi.sourceforge.net/DTD/sodipodi-0.dtd"
   xmlns:inkscape="http://www.inkscape.org/namespaces/inkscape"
   version="1.1"
   width="355.20288"
   height="690.32318"
   viewBox="0 0 355.20288 690.32318"
   id="svg9"
   sodipodi:docname="man carrying groceries.svg"
   inkscape:version="0.92.4 (5da689c313, 2019-01-14)">
  <metadata
     id="metadata15">
    <rdf:RDF>
      <cc:Work
         rdf:about="">
        <dc:format>image/svg+xml</dc:format>
        <dc:type
           rdf:resource="http://purl.org/dc/dcmitype/StillImage" />
        <dc:title></dc:title>
      </cc:Work>
    </rdf:RDF>
  </metadata>
  <defs
     id="defs13" />
  <sodipodi:namedview
     pagecolor="#ffffff"
     bordercolor="#666666"
     borderopacity="1"
     objecttolerance="10"
     gridtolerance="10"
     guidetolerance="10"
     inkscape:pageopacity="0"
     inkscape:pageshadow="2"
     inkscape:window-width="933"
     inkscape:window-height="512"
     id="namedview11"
     showgrid="false"
     fit-margin-top="0"
     fit-margin-left="0"
     fit-margin-right="0"
     fit-margin-bottom="0"
     inkscape:zoom="0.24180328"
     inkscape:cx="173.44399"
     inkscape:cy="431.66854"
     inkscape:window-x="0"
     inkscape:window-y="0"
     inkscape:window-maximized="0"
     inkscape:current-layer="svg9" />
  <g
     id="layer1"
     transform="translate(-126.55601,-229.34539)">
    <g
       id="g6">
      <g
         style="fill:#000000;fill-opacity:1;stroke-linejoin:miter"
         id="g4">
        <path
           d="m 346.8613,229.85681 c 0.63986,0.29077 1.86133,0.52344 2.67566,0.52344 0.87246,0.0581 3.54814,1.51233 6.34012,3.54809 2.67562,1.91956 5.11862,3.49012 5.46765,3.5481 0.349,0 4.18792,0 8.55037,-0.058 7.1545,-0.0584 8.08512,0 10.00462,1.16321 2.61746,1.57055 2.73382,2.26855 0.40718,2.67565 -0.98885,0.23267 -1.745,0.6399 -1.745,0.93061 0,0.34906 1.68682,2.26855 3.72262,4.36249 2.09398,2.09399 4.30432,4.94421 4.94415,6.34014 1.74496,3.60634 2.50116,10.06274 1.8613,15.12324 -0.46531,3.60632 -0.81434,4.5951 -2.9083,7.21264 l -2.38479,3.02454 v 6.57287 c 0,9.42292 -0.75618,10.76068 -11.05161,19.83465 -1.10517,0.9889 -2.3848,2.32667 -2.79199,3.02467 -2.0358,3.60633 -4.76963,14.77417 -4.76963,19.83465 0,3.25738 0.1745,3.89716 1.51233,5.06043 0.81432,0.75622 1.68682,1.39605 1.97767,1.39605 0.23265,0 0.58165,0.1745 0.69799,0.46534 0.0582,0.23266 1.45414,1.4541 3.08283,2.73376 1.57046,1.27973 3.02463,2.50116 3.19909,2.67578 0.17454,0.17438 2.61754,2.03565 5.52582,4.18787 2.85016,2.15222 5.52579,4.12982 5.93296,4.47882 0.40716,0.29083 0.87249,0.5816 1.04696,0.5816 0.17453,0 2.21033,1.396 4.537,3.14106 4.4206,3.31537 8.31777,5.58392 9.53927,5.58392 0.40713,0 0.75613,0.23265 0.75613,0.58165 0,0.2909 0.29083,0.58162 0.58166,0.58162 0.349,0 2.2685,0.75628 4.24616,1.68688 2.73378,1.27967 4.42062,2.6756 6.92178,5.58393 1.8613,2.15217 3.37363,4.24617 3.37363,4.65332 0,0.40717 0.349,1.51227 0.81433,2.44293 0.46534,0.87256 1.27964,3.08282 1.74496,4.82782 0.52353,1.745 1.33783,4.47876 1.80318,5.99115 0.46532,1.51239 0.87248,3.25733 0.87248,3.89715 0,0.58167 0.23267,1.2796 0.58167,1.4541 0.29083,0.1745 0.58165,0.81434 0.58165,1.3379 0,0.52344 0.40718,1.745 0.8725,2.6756 0.46534,0.87256 0.8725,2.15222 0.8725,2.79193 0,0.63989 0.34898,1.97772 0.75614,2.96649 1.27966,2.90838 2.21033,5.75848 2.792,8.25965 0.34899,1.22155 0.81433,2.55926 1.04699,2.90833 0.29084,0.29082 0.6398,1.2215 0.8143,2.03582 0.17453,0.81428 0.87253,2.90832 1.5705,4.65338 0.698,1.74493 1.39603,3.72253 1.57052,4.36237 0.17447,0.63983 0.69797,2.03576 1.1633,3.14099 0.93067,1.9776 0.698,5.87474 -0.52349,8.43414 -0.5235,1.22144 -6.10746,5.00226 -7.32892,5.00226 -0.29084,0 -1.33786,0.40716 -2.21034,0.8725 -0.93065,0.46534 -2.26848,0.87244 -2.96648,0.87244 -4.94415,0 -3.66446,14.94872 1.91946,22.51037 0.7562,0.98889 1.39602,1.9776 1.39602,2.21026 0,0.17457 0.69798,1.39607 1.5705,2.79212 0.87247,1.33771 2.32663,3.72253 3.14097,5.35113 0.87249,1.57056 2.32663,4.36249 3.31546,6.10755 2.15217,3.83899 3.60632,7.96881 4.18795,11.92401 0.69802,4.36249 1.80317,9.71386 2.38482,11.05163 0.5817,1.57043 3.43183,12.73833 4.01347,16.11207 0.29083,1.51232 0.75616,3.25726 1.10519,3.89716 0.349,0.63976 0.6398,1.745 0.6398,2.5011 0,0.75615 0.40717,1.9195 0.8725,2.5594 0.46534,0.58164 0.8725,1.4541 0.8725,1.86124 0,0.46536 1.1633,3.78083 2.61749,7.44532 1.45413,3.60624 2.61745,7.09624 2.61745,7.67784 0,0.58174 0.23268,1.27974 0.46535,1.5705 0.58165,0.698 4.18795,11.517 4.18795,12.62214 0,0.40716 0.349,1.4541 0.81433,2.32666 0.46537,0.87244 0.98883,2.38477 1.2215,3.43176 0.23267,1.10514 0.63983,2.32664 0.93067,2.85014 0.23266,0.46535 0.98883,2.443 1.62863,4.36245 0.98883,2.90838 2.85017,6.86365 6.86361,14.54165 0.29084,0.63974 1.047,2.0939 1.62866,3.1991 0.58167,1.10513 1.27967,2.15213 1.45417,2.32663 0.52353,0.34897 2.90833,7.27077 2.90833,8.37592 0,0.87255 -3.72266,11.05165 -4.59513,12.5639 -0.29087,0.5235 -0.69803,1.80315 -0.93069,2.90835 -0.23268,1.10514 -0.69798,2.3848 -0.9888,2.7338 -0.349,0.46533 -0.46534,2.792 -0.23268,5.81665 0.1745,2.8501 0.6398,13.72725 0.93064,24.31342 0.63983,19.36933 0.93066,21.87053 3.31552,27.45446 0.40714,0.98884 0.75614,2.21037 0.75614,2.73387 0,0.52346 0.23263,0.9306 0.58163,0.9306 0.29087,0 0.58167,0.5235 0.58167,1.1052 0,0.58165 0.75616,3.3155 1.68683,5.933 1.80317,5.2931 2.44299,8.5504 3.89715,19.7183 0.98882,8.08514 1.45416,46.53295 0.63982,53.80377 -0.81432,7.03808 -0.98882,7.79423 -2.50115,9.30658 -1.39599,1.39599 -1.68682,1.45415 -9.13211,1.45415 -4.36244,0 -7.96874,0.2327 -8.31774,0.5816 -0.34904,0.349 -5.3513,0.6399 -11.98224,0.6981 l -11.40061,0.1745 -1.45413,-1.6287 c -0.8725,-0.8724 -1.68682,-2.5593 -1.8613,-3.7808 -0.17452,-1.1633 -0.69802,-3.48994 -1.16336,-5.0605 -1.86133,-6.63086 -2.21033,-10.81885 -1.86133,-24.08075 0.5235,-19.07855 1.396,-35.36511 2.03583,-39.3786 0.349,-1.86125 1.04704,-6.04925 1.5705,-9.24841 0.58166,-3.19914 1.39599,-7.15444 1.80316,-8.84124 1.04696,-3.839 1.04696,-6.74726 -0.0582,-10.2954 -1.16333,-3.78084 -1.10515,-8.89944 0.0582,-11.10976 0.5235,-0.98884 1.57048,-2.96649 2.38482,-4.47884 0.75614,-1.5123 1.6868,-3.08275 2.09396,-3.4899 0.40717,-0.40724 1.22147,-2.09407 1.86134,-3.6645 1.04699,-2.61756 1.1633,-4.4788 1.1633,-20.3582 v -17.44985 l -2.32664,-3.78082 -2.32665,-3.78083 -0.0582,-13.0874 c 0,-12.97106 -0.40714,-18.0315 -1.45416,-18.0315 -0.29084,0 -0.52347,-0.349 -0.52347,-0.75615 0,-0.349 -1.047,-2.2685 -2.38483,-4.18799 -1.27966,-1.9195 -2.55929,-4.01346 -2.90829,-4.65326 -0.29083,-0.6399 -0.8725,-1.6869 -1.22153,-2.32666 -3.5481,-5.58399 -6.8636,-10.87714 -8.02692,-12.79664 -0.75616,-1.2796 -1.51233,-2.4429 -1.74498,-2.6174 -0.58165,-0.5817 -5.81663,-8.60867 -5.81663,-9.01583 0,-0.23261 -0.75617,-1.39594 -1.62863,-2.55927 -0.87254,-1.1634 -2.03584,-3.0828 -2.6175,-4.3044 -1.57049,-3.4318 -3.83894,-8.60856 -5.35128,-12.33116 -0.5235,-1.2796 -1.396,-3.25732 -1.86133,-4.36242 -0.5235,-1.10522 -1.33783,-2.96656 -1.80316,-4.07166 -0.4653,-1.10516 -1.10517,-2.5011 -1.3378,-3.02466 -0.29083,-0.58166 -0.52353,-1.33783 -0.52353,-1.68682 0,-0.349 -0.34897,-1.45411 -0.8143,-2.443 -0.46534,-1.04698 -1.68684,-4.47882 -2.67566,-7.67798 -1.047,-3.1991 -2.21033,-6.86358 -2.67563,-8.14318 -0.46533,-1.33782 -0.81433,-3.31556 -0.81433,-4.47882 0,-1.10517 -0.40717,-3.19916 -0.8725,-4.537 -0.46532,-1.33788 -0.8725,-3.31548 -0.8725,-4.36242 0,-1.047 -0.40716,-3.02472 -0.87249,-4.36248 -0.4653,-1.3379 -0.8725,-3.43183 -0.8725,-4.65333 0,-1.16339 -0.40713,-3.43182 -0.8725,-5.00227 -0.4653,-1.57054 -0.87247,-3.89714 -0.87247,-5.1768 -0.0582,-1.2796 -0.52349,-3.19916 -1.10516,-4.3044 l -1.047,-1.91936 -0.63983,9.48102 c -0.40717,5.23504 -1.04699,14.07629 -1.51233,19.66014 -0.46534,5.5259 -0.75616,10.35365 -0.58166,10.76082 0.11632,0.349 0.46536,3.14098 0.81432,6.16571 0.29084,3.02453 0.81434,7.21252 1.16334,9.30657 0.698,4.0135 0.29083,11.74952 -0.698,13.6108 -0.5235,0.9889 0.29083,4.88603 1.745,8.4923 0.5235,1.39593 1.74499,12.27307 2.50113,23.26654 0.93066,12.79656 0.93066,12.04036 0.29083,25.70941 l -0.4653,11.4588 1.57046,3.19915 c 0.8725,1.86134 1.80316,4.9441 2.094,7.1544 0.23266,2.21035 0.75616,5.0023 1.04699,6.28195 0.349,1.27965 0.63983,3.14099 0.63983,4.12985 0,0.9888 0.52347,2.5011 1.16332,3.31546 1.39598,1.80314 1.57048,3.37364 0.63982,6.74724 -0.81432,2.792 -0.52347,4.76967 0.87248,6.34016 2.792,3.08274 4.88597,5.70024 4.88597,6.10744 0,0.2908 0.46536,1.2215 1.047,2.0359 2.09399,3.0827 3.14099,7.736 2.85015,12.33115 -0.29082,4.65335 -1.22149,9.30665 -2.32666,11.57505 -1.04699,2.1522 -0.98883,28.4433 0.11634,29.08315 1.396,0.8725 0.1745,2.792 -1.97766,3.19915 -1.10514,0.2327 -2.0358,0.6398 -2.0358,0.9306 0,0.349 -0.40717,0.5817 -0.8725,0.5817 -1.16334,0 -1.16334,7.50346 0,10.7608 1.047,3.02464 1.10516,10.5862 0.0582,13.7854 -0.46532,1.3959 -0.98882,3.60624 -1.2215,4.9441 -0.23265,1.396 -0.63982,2.61747 -0.93062,2.85013 -0.29083,0.1745 -0.52353,1.04697 -0.52353,1.97767 0,0.93066 -0.29083,2.3848 -0.6398,3.3155 -0.34903,0.8725 -0.8725,4.0716 -1.16333,7.09624 -0.29086,3.02466 -0.75617,7.32896 -1.047,9.59741 -0.349,2.26849 -0.98882,7.67795 -1.51232,11.98225 -0.8725,7.5034 -2.0358,12.91295 -3.37367,15.41405 -0.34896,0.63985 -0.8143,2.09399 -1.04696,3.19915 -0.23267,1.1052 -0.698,2.792 -0.98883,3.78083 -0.349,0.93067 -1.047,3.31543 -1.62866,5.23493 -0.5235,1.91949 -1.16333,3.95534 -1.45414,4.47884 -0.29084,0.58164 -0.5235,1.396 -0.5235,1.8613 0,0.87244 -3.25732,9.71375 -5.11864,13.7854 -0.63984,1.396 -3.72263,8.5504 -6.80543,15.9375 -3.08282,7.329 -5.99112,14.1926 -6.45647,15.2396 -0.46534,0.9888 -0.81434,2.1521 -0.81434,2.61746 0,0.46534 -0.1745,1.047 -0.40714,1.27964 -0.23266,0.2327 -0.75616,1.8031 -1.10516,3.4318 -0.40713,1.6869 -1.10516,4.5952 -1.68683,6.51463 -1.86133,6.86367 -2.09396,8.31777 -1.91949,12.56391 l 0.1745,4.30426 2.21032,0.17456 c 2.7338,0.23264 2.9083,0.63984 4.18799,9.42294 1.33783,9.3648 2.50113,13.9599 4.12979,16.11203 0.75616,0.98883 1.396,2.09394 1.396,2.38483 0,0.349 0.1745,0.698 0.40714,0.81434 0.29082,0.1163 1.16332,1.2215 2.03582,2.5011 0.8725,1.27965 2.85013,3.66454 4.3625,5.2931 6.9799,7.3872 7.1544,7.67796 7.1544,10.1792 0,3.3154 -2.50112,8.5504 -4.47878,9.3647 -0.93066,0.349 -2.50112,0.9888 -3.60629,1.4541 -2.443,1.1052 -15.8794,0.8725 -17.04273,-0.29075 -0.349,-0.34899 -1.1633,-0.69799 -1.74496,-0.69799 -0.58164,0 -2.03584,-0.52356 -3.19916,-1.16336 -1.22148,-0.63987 -2.44298,-1.1633 -2.79196,-1.1633 -0.7562,0 -3.78079,-2.792 -3.78079,-3.49 0,-0.349 -0.46537,-1.047 -1.047,-1.62866 -0.52353,-0.63974 -1.39603,-1.62864 -1.9195,-2.21034 -3.08285,-3.78074 -11.5169,-10.7607 -16.05389,-13.2619 -9.71378,-5.4094 -9.48108,-5.1768 -9.59741,-8.6668 -0.11637,-4.2461 0.11633,-7.5615 0.698,-8.2595 0.23263,-0.349 0.63987,-1.45424 0.87249,-2.443 0.1745,-1.047 1.74498,-4.5951 3.48996,-7.91065 1.68682,-3.31545 3.66446,-7.44525 4.36246,-9.19025 0.698,-1.745 1.51236,-3.6645 1.745,-4.30426 0.58166,-1.396 1.57046,-5.11864 2.61749,-10.17908 0.75613,-3.37366 1.51233,-6.68916 3.25729,-14.25076 1.62866,-6.8636 2.90833,-20.41635 4.24613,-45.0788 0.58165,-10.4118 1.1633,-16.2865 1.80315,-17.9734 0.46534,-1.396 0.87254,-3.141 0.87254,-3.8971 0,-0.698 0.75613,-3.43183 1.74496,-6.0493 0.93063,-2.6175 1.745,-5.235 1.745,-5.8748 0,-0.58165 0.23263,-1.1052 0.58163,-1.1052 0.29083,0 0.5817,-0.4071 0.5817,-0.9306 0,-1.16334 2.32659,-9.0158 2.90827,-9.83015 0.2327,-0.349 0.5817,-1.57045 0.81435,-2.73375 0.23265,-1.1634 0.75617,-2.90834 1.2215,-3.78084 0.46533,-0.87249 0.87245,-2.03582 0.87245,-2.55932 0,-0.46534 0.29085,-1.16334 0.63985,-1.51234 0.75613,-0.7561 0.40715,-6.1074 -0.87247,-13.5527 -0.46533,-2.73385 -1.27963,-7.329 -1.745,-10.17904 -0.46533,-2.90836 -0.87252,-5.29316 -0.93068,-5.40946 0,-0.0582 -0.349,-0.11636 -0.81434,-0.11636 -0.4653,0 -0.93063,-0.40724 -1.1633,-0.87254 -0.17446,-0.46535 -0.6398,-0.87246 -1.04696,-0.87246 -0.4072,-0.0581 -1.27967,-0.75614 -1.91953,-1.57049 -0.63983,-0.81435 -1.62863,-1.97765 -2.21027,-2.55935 -0.5235,-0.6398 -0.98886,-1.27964 -0.98886,-1.45414 0,-0.23266 -0.5235,-0.81426 -1.16336,-1.396 -0.58163,-0.52349 -1.39594,-1.62866 -1.74493,-2.38482 -0.349,-0.75611 -0.9888,-2.03584 -1.45417,-2.85014 -0.46533,-0.81435 -0.87248,-2.96645 -0.87248,-5.0023 0,-3.4318 -0.46538,-5.6421 -2.03584,-9.24845 -0.40714,-0.98875 -0.93064,-2.73375 -1.10514,-3.95525 -0.23266,-1.16334 -0.63986,-2.1522 -0.93066,-2.1522 -0.349,0 -0.58169,-0.5234 -0.58169,-1.2215 0,-0.6398 -0.349,-1.91947 -0.81434,-2.7338 -1.39596,-2.6174 -2.67563,-5.7584 -2.67563,-6.6309 -0.0582,-1.4542 -2.03582,-3.4318 -3.0828,-3.0247 -0.5235,0.1745 -0.9888,0.63986 -0.9888,0.9307 0,0.349 -0.34902,1.396 -0.81435,2.3848 -0.46533,1.047 -0.98885,2.5012 -1.16335,3.31544 -0.1163,0.8144 -0.69798,2.90836 -1.1633,4.65332 -0.69798,2.32664 -0.93064,5.87484 -0.93064,13.20374 0,9.4811 -0.0582,10.17914 -1.33783,12.0986 -0.69803,1.10514 -1.62867,2.0358 -2.03583,2.0358 -0.40717,0 -1.1633,0.349 -1.57047,0.698 -1.68686,1.5123 -2.32669,1.97766 -3.37365,2.3848 -0.5235,0.1745 -0.9888,0.63986 -0.9888,0.98885 0,0.29075 -0.40718,0.58165 -0.87253,0.58165 -0.46533,0 -0.87253,0.2327 -0.87253,0.5817 0,0.2908 -0.34897,0.58165 -0.8143,0.58165 -1.10512,0 -1.5123,1.86135 -1.5123,7.85242 -0.0582,7.79423 -2.09399,17.97333 -6.80548,33.73643 -0.9888,3.3736 -2.3266,12.9129 -3.0246,22.16133 -0.29086,3.48997 -0.81436,8.37592 -1.16334,10.76077 -0.81435,5.87473 -1.8613,14.8324 -2.3848,21.17246 -0.29085,2.85024 -0.75615,6.28198 -1.10515,7.56164 -0.34903,1.27967 -0.63985,3.66443 -0.63985,5.2349 0,1.62875 -0.29084,3.839 -0.58164,4.9442 -0.34906,1.10515 -0.87253,4.2461 -1.16336,6.9799 -0.29084,2.7338 -0.8143,6.1075 -1.10514,7.56165 -0.75613,3.31549 -0.75613,23.15015 -0.0582,29.37395 0.29083,2.55934 0.75613,7.3871 0.93063,10.76075 l 0.40717,6.10745 3.08282,3.37363 c 1.74498,1.86133 3.31546,4.01343 3.48996,4.76967 0.17452,0.8143 0.52352,1.4541 0.7562,1.4541 0.17449,0 0.93062,0.9889 1.68679,2.2103 0.75613,1.16334 2.50116,3.0247 3.89713,4.07167 5.11862,3.89713 5.58395,4.53699 5.40945,7.27073 -0.1745,2.3267 -0.23265,2.443 -2.26843,2.6176 l -2.09406,0.1744 0.9307,2.73384 c 0.5235,1.51226 1.16336,3.0246 1.396,3.43182 0.23266,0.349 0.63984,2.26844 0.93066,4.30424 0.4653,3.43185 0.40713,3.7227 -0.9888,5.00234 -1.45419,1.33786 -1.57052,1.33786 -16.86826,1.33786 -15.87936,0 -21.23068,-0.5817 -24.25528,-2.6757 -0.63986,-0.4653 -1.68685,-0.8143 -2.38485,-0.8143 -1.6286,0 -3.72266,-3.4318 -3.72266,-5.9911 0,-1.047 -0.34897,-2.55933 -0.8143,-3.4319 -2.73379,-5.23486 -2.3266,-10.64434 1.396,-18.206 1.22153,-2.55925 2.61749,-5.8166 3.02463,-7.27074 1.047,-3.66446 0.81433,-28.21066 -0.34897,-37.80806 -1.39597,-11.4587 -2.03583,-15.8213 -2.67566,-18.6132 -0.63983,-3.0246 -1.62867,-9.2484 -2.32663,-14.2507 -0.23267,-1.9195 -0.75617,-4.3043 -1.04697,-5.23496 -0.349,-0.98889 -0.75619,-4.76964 -0.98887,-8.43408 -0.17449,-3.66456 -0.58169,-7.85242 -0.87252,-9.30666 -0.2908,-1.45414 -0.52347,-8.2014 -0.58163,-14.9487 v -12.3894 l -1.45414,-0.349 c -0.8143,-0.1745 -1.45416,-0.5817 -1.45416,-0.8725 0,-0.9888 -1.33786,-0.5235 -2.61749,0.8725 -0.75613,0.8143 -2.26846,1.62865 -3.43182,1.8032 -1.1633,0.2327 -2.09394,0.6398 -2.09394,0.9307 0,0.29074 -0.93069,0.5234 -2.03586,0.5234 -1.10516,0 -2.03579,0.2327 -2.03579,0.5235 0,0.29084 -2.094,0.69794 -4.65329,0.9307 -2.55936,0.23264 -4.65329,0.58164 -4.65329,0.87247 0,0.23266 -2.67569,0.58166 -5.99118,0.81433 -3.25727,0.1745 -6.04926,0.63983 -6.10742,0.93066 -0.29084,0.75611 -19.89283,0.75611 -19.89283,0.0581 0,-0.2908 -1.51239,-0.75613 -3.37365,-0.9888 -1.8031,-0.23267 -3.48999,-0.698 -3.72266,-1.047 -0.63983,-0.9889 -7.96881,-0.8143 -8.60858,0.23267 -0.81433,1.27966 -16.461,1.047 -17.79889,-0.23267 -0.46533,-0.5235 -1.396,-0.93066 -2.03577,-0.93066 -0.58166,0 -1.10516,-0.2909 -1.10516,-0.58164 0,-0.349 -0.29083,-0.5817 -0.63983,-0.5817 -0.34906,0 -0.9889,-0.40716 -1.45417,-0.8724 -0.52349,-0.46536 -1.91949,-0.8726 -3.19909,-0.8726 -1.22156,0 -2.26856,-0.23265 -2.26856,-0.5235 0,-0.2908 -3.43182,-0.6398 -7.67798,-0.698 -5.46759,-0.1745 -7.73602,-0.4653 -7.91052,-0.9888 -0.11633,-0.349 -0.81439,-0.698 -1.62872,-0.698 -1.86127,0 -8.95758,-7.15443 -8.95758,-9.01576 0,-0.46534 -0.349,-2.21034 -0.81433,-3.89714 -0.58161,-2.26845 -0.63977,-4.188 -0.23267,-7.44527 0.63983,-5.70033 1.62866,-23.67373 2.094,-40.13463 l 0.40722,-13.0874 2.5011,-5.23506 c 1.33777,-2.90824 2.85016,-5.99109 3.31549,-6.86358 0.63983,-1.16336 0.8725,-3.54816 0.8725,-7.91066 0,-5.9329 1.1051,-12.0985 2.32666,-12.85466 0.698,-0.40714 2.90826,-6.45649 2.90826,-7.91059 0,-0.698 0.5235,-1.91955 1.2215,-2.79205 1.04706,-1.3378 1.57049,-1.5123 5.00232,-1.5123 2.73377,0 4.18793,0.29086 4.88599,0.9307 1.91943,1.745 9.71374,-0.98884 9.83008,-3.4319 0,-0.29076 0.63983,-1.33776 1.4541,-2.38476 0.81433,-1.04699 1.45416,-2.15214 1.45416,-2.44299 0,-0.29085 0.75622,-1.27965 1.74499,-2.1521 0.93067,-0.93075 1.745,-1.97775 1.745,-2.38489 0,-0.40716 0.5235,-1.39596 1.22143,-2.1521 0.6399,-0.75616 2.15222,-3.08282 3.25733,-5.17681 1.16333,-2.094 2.90839,-5.06045 3.83899,-6.63095 1.62866,-2.5593 1.74499,-2.96647 1.16333,-5.1768 -0.40717,-1.4541 -0.46533,-2.8501 -0.11633,-3.72265 0.63983,-1.74495 0.69799,-6.57275 0.0582,-6.57275 -0.23266,0 -0.93066,0.93066 -1.51226,2.03576 -0.8725,1.57054 -1.45417,2.03589 -2.79206,2.03589 -1.8031,0 -1.8031,0.1745 -1.6286,-6.68915 0.0582,-2.6175 0.40716,-4.42065 0.9306,-5.0023 0.46533,-0.4653 0.81433,-1.4541 0.81433,-2.1521 0,-0.63985 0.23267,-1.3379 0.5235,-1.5706 0.34906,-0.1744 1.39606,-1.8031 2.44299,-3.60623 1.047,-1.80317 2.32673,-3.66447 2.96656,-4.18797 0.5816,-0.4653 1.04693,-1.1051 1.04693,-1.396 0,-0.63985 1.33783,-1.8031 7.61981,-6.5728 l 5.06049,-3.83896 0.98877,-4.12974 c 0.5235,-2.3267 1.74493,-5.6422 2.67566,-7.44534 0.93066,-1.80316 1.68683,-3.95526 1.68683,-4.71142 0,-0.75624 0.23266,-1.62864 0.52349,-1.9195 0.29078,-0.34899 0.81428,-1.74499 1.16328,-3.19914 0.52349,-2.2103 6.28204,-19.951 7.61981,-23.5573 0.8725,-2.2686 2.90832,-9.36477 3.43182,-11.92416 0.29083,-1.4541 0.98883,-4.47876 1.4541,-6.68909 0.5235,-2.26849 0.93067,-4.59509 0.93067,-5.17675 0,-0.6399 0.349,-2.443 0.81433,-4.07166 1.27972,-4.59509 2.67566,-10.99334 2.67566,-12.09857 0,-1.16333 3.83899,-9.30664 6.39825,-13.55274 0.93073,-1.62866 1.97769,-3.43183 2.32669,-4.07159 0.349,-0.63989 1.10514,-1.97766 1.74497,-2.90839 4.24612,-6.63092 6.28201,-11.1679 6.57281,-14.83239 0.1745,-2.09394 0.5235,-4.24616 0.698,-4.82776 0.29083,-0.698 -0.11633,-1.51233 -1.33786,-2.55927 -1.745,-1.62866 -8.37589,-5.40948 -9.42285,-5.40948 -0.34909,0 -1.62872,-0.63989 -2.90836,-1.45423 -1.91952,-1.22142 -2.32669,-1.8031 -2.32669,-3.37352 0,-1.047 0.23267,-2.15223 0.5235,-2.44306 0.93073,-1.04694 10.99344,-20.47454 12.79657,-24.72071 0.349,-0.81427 0.87253,-1.86126 1.16336,-2.3266 0.8725,-1.45416 3.31543,-6.92169 5.58395,-12.50573 2.61744,-6.39826 3.72263,-8.84125 8.72495,-19.02033 4.65329,-9.36475 6.45642,-11.34241 13.9599,-15.29779 2.85014,-1.51228 6.16559,-3.31543 7.27074,-4.01338 1.1052,-0.6981 3.72264,-2.0358 5.81666,-3.08287 6.45642,-3.14099 11.98218,-5.81659 13.14554,-6.45648 0.5817,-0.29071 2.0358,-0.98871 3.14096,-1.45405 2.79199,-1.27972 16.92639,-7.91064 18.26419,-8.66686 0.5817,-0.29071 2.55933,-1.04694 4.36245,-1.62861 1.8032,-0.58166 3.19917,-1.27966 3.141,-1.57049 -0.0582,-0.23274 -0.40713,-1.27966 -0.69797,-2.21034 -0.29083,-0.98882 -0.87253,-5.81658 -1.22153,-10.76073 -1.51232,-20.24187 -1.51232,-20.12555 -3.0828,-22.21947 -0.87246,-1.2215 -1.57048,-3.08284 -1.80315,-5.11867 -0.23265,-1.74499 -0.58167,-4.18793 -0.75615,-5.40948 -0.40718,-2.8501 0.58168,-3.95525 4.71144,-5.3512 l 3.14099,-1.04699 0.23267,-4.18806 c 0.23266,-3.43182 0.69797,-4.94408 2.32666,-7.91064 1.62866,-2.96643 2.09396,-4.59509 2.3848,-8.08502 0.34899,-4.18799 0.46534,-4.42065 2.85018,-6.74731 2.61744,-2.5011 11.57502,-8.66675 14.94866,-10.29541 2.15217,-1.047 4.88597,-1.22144 6.7473,-0.40711 z m -96.84674,271.92706 c 0,0.46533 -0.29084,0.8725 -0.58167,0.8725 -0.34899,0 -0.58166,0.40717 -0.58166,0.93061 0,1.33789 -4.53696,11.57512 -7.32895,16.51928 -2.0358,3.54814 -5.58396,10.58618 -7.50339,14.83234 -3.48999,7.6198 -9.772,20.4163 -11.1098,22.45215 -0.9888,1.57049 -1.39597,3.25735 -1.57047,6.16565 -0.23266,3.89715 -0.87246,5.64215 -2.85016,8.027 -0.52349,0.63974 -1.33779,2.9664 -1.80316,5.2349 -0.46527,2.2103 -1.51233,5.3513 -2.32666,6.98 -0.75616,1.5704 -2.26843,5.2349 -3.37359,8.1432 -1.04706,2.8502 -2.094,5.35135 -2.2685,5.5258 -0.87249,0.698 -2.44293,9.9464 -2.21026,12.4476 0.34893,2.8501 3.6062,8.7831 8.02685,14.5997 1.22156,1.5705 2.85016,4.1298 3.66449,5.584 1.22147,2.3848 4.12979,6.63095 5.06046,7.50345 0.17447,0.17445 0.9888,1.22145 1.74502,2.3266 0.75614,1.10515 1.57047,2.15215 1.74497,2.32665 0.8143,0.698 5.99109,7.9688 6.57278,9.1321 0.349,0.75615 0.81436,1.3378 1.047,1.3378 0.23266,0 1.27963,1.396 2.32663,3.0247 0.98883,1.68675 2.32669,3.43174 2.90832,3.83897 0.63984,0.40716 1.10514,1.16333 1.10514,1.6286 0,0.46533 0.23266,0.81433 0.58166,0.81433 0.29083,0 0.58164,0.349 0.58164,0.8143 0,0.46536 0.23272,0.93076 0.52353,1.0471 0.58166,0.23265 7.03811,10.35357 7.03811,11.0515 0,0.29083 0.93064,1.97766 2.03583,3.72266 1.10516,1.74499 2.03583,3.54814 2.03583,4.01349 0,0.46535 0.23263,0.87249 0.52347,0.87249 0.29083,0 0.69799,0.46536 0.87249,0.98876 1.047,2.9084 7.44529,9.48115 8.14329,8.376 0.1745,-0.29084 0.11633,-2.9665 -0.23267,-5.9911 -0.75613,-6.9218 -1.04697,-11.74963 -1.45413,-21.1144 -0.17454,-5.2349 -0.63987,-8.78306 -1.51236,-11.6332 -0.63984,-2.2685 -1.3378,-4.88594 -1.5123,-5.81667 -0.11634,-0.98877 -0.63984,-2.55926 -1.10514,-3.60623 -0.46533,-0.98886 -0.81436,-2.21036 -0.81436,-2.6757 0,-0.5235 -0.23266,-1.10515 -0.58166,-1.27965 -1.27967,-0.81435 -2.9083,-8.02692 -2.9083,-13.02915 0,-2.7921 -0.40716,-6.5729 -0.87253,-8.376 -0.4653,-1.86133 -0.87246,-4.0135 -0.87246,-4.76966 0,-0.7561 -0.4072,-2.90834 -0.87253,-4.76959 -0.4653,-1.91955 -1.04697,-8.37595 -1.27963,-15.0069 -0.46531,-10.81895 -0.58164,-11.80775 -1.80317,-13.32005 -1.27966,-1.68684 -1.27966,-1.745 -1.27966,-24.72066 0,-14.3089 0.23267,-23.90631 0.63986,-25.36047 0.349,-1.27972 0.8143,-3.78082 1.10517,-5.52577 0.29083,-1.74504 1.10516,-4.65337 1.80313,-6.3983 1.10513,-2.6756 1.39596,-4.4788 1.57049,-10.93524 0.11634,-5.11872 0,-7.67798 -0.40719,-7.67798 -0.349,0 -0.6398,0.40716 -0.6398,0.87249 z"
           id="path2"
           inkscape:connector-curvature="0" />
      </g>
    </g>
  </g>
</svg>
