<?xml version="1.0" encoding="UTF-8" standalone="no"?>
<svg
   xmlns:dc="http://purl.org/dc/elements/1.1/"
   xmlns:cc="http://creativecommons.org/ns#"
   xmlns:rdf="http://www.w3.org/1999/02/22-rdf-syntax-ns#"
   xmlns:svg="http://www.w3.org/2000/svg"
   xmlns="http://www.w3.org/2000/svg"
   xmlns:sodipodi="http://sodipodi.sourceforge.net/DTD/sodipodi-0.dtd"
   xmlns:inkscape="http://www.inkscape.org/namespaces/inkscape"
   width="182.88806"
   height="284.24332"
   enable-background="new 0 0 841.89 447.053"
   version="1.1"
   viewBox="0 0 182.88806 284.24523"
   xml:space="preserve"
   id="svg10"
   sodipodi:docname="man skateboarding frontal.svg"
   inkscape:version="0.92.4 (5da689c313, 2019-01-14)"><metadata
   id="metadata16"><rdf:RDF><cc:Work
       rdf:about=""><dc:format>image/svg+xml</dc:format><dc:type
         rdf:resource="http://purl.org/dc/dcmitype/StillImage" /><dc:title></dc:title></cc:Work></rdf:RDF></metadata><defs
   id="defs14" /><sodipodi:namedview
   pagecolor="#ffffff"
   bordercolor="#666666"
   borderopacity="1"
   objecttolerance="10"
   gridtolerance="10"
   guidetolerance="10"
   inkscape:pageopacity="0"
   inkscape:pageshadow="2"
   inkscape:window-width="1920"
   inkscape:window-height="1048"
   id="namedview12"
   showgrid="false"
   fit-margin-top="0"
   fit-margin-left="0"
   fit-margin-right="0"
   fit-margin-bottom="0"
   inkscape:zoom="1.4931413"
   inkscape:cx="270.87993"
   inkscape:cy="96.000665"
   inkscape:window-x="0"
   inkscape:window-y="0"
   inkscape:window-maximized="1"
   inkscape:current-layer="svg10" />
		
		
		

<path
   inkscape:connector-curvature="0"
   style="clip-rule:evenodd;fill-rule:evenodd;stroke-width:1"
   d="m 182.83325,82.628784 c -1.475,-1.354 -3.128,-3.129 -4.787,-4.213001 0.192,-1.505999 1.12999,-2.605999 1.531,-4.020999 0.74999,-2.634 0.637,-5.462001 1.14999,-8.425001 -0.52099,-0.549999 -0.69099,-1.284999 -1.14999,-1.915999 -1.77401,-2.444 -5.05801,-4.522 -7.65901,-6.127 -2.60499,-1.608001 -6.072,-1.946 -8.80899,-3.447 -1.69901,-0.932 -3.12501,-2.794 -4.78801,-3.829 -1.468,-0.638 -2.937,-1.276 -4.404,-1.915 -0.50899,-0.511 -1.02099,-1.021001 -1.531,-1.532 h -1.34 c -0.67499,-0.32 -1.481,-1.466 -2.10599,-1.915 -2.27801,-1.632 -5.29301,-2.263 -7.47,-4.022 -1.18201,-0.955 -0.97501,-3.42 -2.104,-4.404 -0.816,-0.71 -1.93501,-0.948 -2.874,-1.532 -1.77401,-1.105 -3.775,-2.608001 -5.744,-3.447 -1.329,-0.567 -2.939,-0.54 -4.021,-1.34 -0.589,-0.304 -0.421,-0.652 -0.765,-1.149 -1.149,-0.751 -3.26501,-0.227 -4.78801,-0.575 -4.327,-0.988 -9.40499,-1.107 -14.17099,-1.149 v -1.34 c -0.43401,-0.439001 -0.65101,-1.163 -1.148,-1.532 -0.421,-0.311 -1.04301,-0.352 -1.342,-0.766 -1.06701,-1.486 -1.33101,-3.418 -2.296,-4.978 -0.58601,-0.945 -1.487,-1.941 -2.107,-2.873 -0.312004,-0.471 -0.380004,-1.133 -0.766004,-1.532 -2.678,-2.776 -6.118,-4.477 -7.66,-8.426 -1.603,-0.006 -3.673,-0.273 -4.979,0.192 -0.895,0.3180004 -1.852,1.2330004 -2.872,1.5320004 -1.328,0.388 -2.83,-0.217 -3.83,0.19 -1.263,0.516 -5.312,4.9279996 -6.128,6.1279996 -1.188,1.75 -1.652,4.037 -3.063,5.553 0.228,1.394 0.445,1.951 0.383,3.639 -0.521,0.508999 -0.763,1.269 -1.341,1.724 -0.266,0.225 -2.628,-1.013 -3.255,-1.341 -3.062,-1.6 -6.078,-3.485 -9,-5.17 -1.735,-1 -3.616,-1.448 -5.553,-2.298 -3.111,-1.365 -6.552,-2.912 -9.959,-4.021 -3.935,-1.282 -8.267,-1.046 -11.872,-2.6809996 -2.508,-1.138 -4.391,-3.5250004 -6.702,-4.9790004 -2.302,-1.446 -5.285,-3.77099999 -7.851,-4.59499999 -1.061,-0.341 -1.947,0.308 -2.49,0.574 -0.196,0.71599999 -0.476,1.07699999 -0.574,1.91499999 -1.204,-0.052 -3.0049998,-0.372 -3.8299998,-0.957 -3.323,-0.105 -2.795,0.817 -4.022,2.681 -0.615,0.5 -1.055,0.323 -1.53,-0.192 -1.465,0.226 -1.9,1.072 -2.87200003,1.724 0.005,0.522 0.008,0.8770004 0.19,1.1490004 0.438,1.16 1.33900003,0.737 2.30000003,1.34 0.573,0.574 1.148,1.149 1.723,1.7239996 -0.021,0.545 -0.078,0.818 -0.191,1.147999 -0.19,0.064 -0.383,0.127001 -0.575,0.191001 -0.54,-0.578 -1.324,-0.81 -1.916,-1.34 -0.96900003,0.155 -1.08900003,0.536 -1.72200003,0.957 -0.713,3 1.10600003,6.737 3.63800003,7.468 1.808,0.523 3.643,0.006 5.361,0.575 1.1809998,0.39 2.0979998,1.542 3.4469998,1.915 2.626,0.727 8.498,-0.728 9.767,-1.915 1.579,0.135 2.534,1.350999 3.83,1.915 3.128,1.361 6.18,2.72 9.19,4.021 4.683,2.023 9.394,3.862 13.979,5.745 1.404,0.382 2.811,0.766 4.214,1.148 2.095,1.188 2.674,4.484 4.597,5.936 5.71,4.311 10.468,9.969 14.744,15.703 0.782,1.049 2.2,1.533 3.064,2.488999 0.191,0.574001 0.382,1.149001 0.572,1.724001 0.508,1.148 1.413,2.488 1.916,3.638 0.523,1.192 0.683,2.352999 1.341,3.446 1.504,2.5 2.766,5.38 4.405,7.852 1.444,2.18 3.6,4.399 4.786,6.702 0.48,0.931 0.354,1.903 0.767,2.872 0.46,1.082999 1.355,2.198 1.723,3.446999 0.405,1.374001 0.077,2.634001 0.767,3.638001 0.656,0.956999 2.205,1.318 2.872,2.297999 0.935,1.374001 1,2.628001 2.489,3.447001 -0.119,1.578998 -0.859,2.151998 -1.34,3.254998 -0.715,1.641 -1.181,3.685008 -1.149,5.936998 -2.977,0.185 -5.855,1.85101 -8.617,2.29801 -1.576,0.25599 -1.766,-1.31801 -3.447,-0.76601 -0.352,0.116 -3.069,1.277 -3.446,1.532 -0.681,0.45901 -0.7,1.741 -1.532,2.10501 -1.085,0.25599 -2.17,0.51099 -3.254,0.76699 -1.366,0.70301 -2.391,2.23001 -3.64,3.064 -2.573,1.716 -5.24,2.946 -7.851,4.595 -3.314,2.09501 -6.628,4.59501 -9.767,6.895 -3.657,2.67901 -10.186,7.175 -11.49,11.872 -0.396,1.426 0.605,2.35901 0.384,3.446 -0.149,0.738 -0.777,1.603 -0.957,2.298 -0.463,1.783 1.021,2.966 1.341,4.21301 v 2.29899 c 0.756,3.26901 0.728,6.66801 1.722,9.766 1.001,3.114 1.859,6.043 3.064,9.192 0.887,2.31501 2.66,4.537 3.446,6.89301 l 0.193,3.064 c 0.826,3.62499 0.729,7.81999 2.488,10.53199 1.306,2.012 3.748,3.691 5.938,4.788 0.7,0.191 1.403,0.384 2.105,0.57301 1.197,0.79299 1.521,2.77799 2.488,3.82999 -0.179,2.15401 -1.545,2.11501 -2.297,3.446 -0.336,0.59601 -0.197,1.241 -0.575,1.72401 -0.148,3.279 1.305,3.99199 4.021,4.21299 -0.266,1.21 -1.312,1.263 -2.105,1.91401 -0.39,0.31899 -0.238,0.96899 -0.575,1.341 -0.373,0.41499 -1.055,0.43399 -1.531,0.76799 -0.64,0.70001 -1.276,1.403 -1.915,2.10401 h -1.724 c -0.682,0.263 -0.721,1.20299 -1.148,1.724 10e-4,0.91499 0.106,1.213 0.384,1.72499 1.278,-0.13899 1.357,-0.752 2.488,-0.957 -0.044,0.44301 -0.037,0.53801 -0.192,0.76501 0.009,2.52199 -0.961,2.985 -1.915,4.406 -10.108,-0.79001 -13.785,8.16399 -15.893,16.275 -1.264,4.86199 -0.616,11.42499 1.532,15.12799 2.09,3.606 5.317,5.069 8.808,7.27601 4.721,2.985 9.878,5.854 14.745,8.809 1.405,0.57399 2.81,1.14999 4.213,1.72399 2.641,0.034 2.272,-2.281 2.872,-4.214 0.894,-3 1.787,-5.998 2.682,-8.999 0.708,-0.052 0.576,0.017 1.341,0.192 0.103,-0.298 0.213,-1.086 0.382,-1.34 0.191,-0.192 0.383,-0.384 0.574,-0.57599 1.857,-0.027 2.257,0.30499 3.256,0.95599 0.202,2.791 0.142,6.985 -1.148,8.811 v 0.38401 c -0.485,-0.021 -0.71,-0.023 -0.958,-0.192 -3.504,-0.10801 -1.966,1.796 -3.256,3.63899 0.774,1.11201 2.163,0.93101 3.256,1.723 0.208,0.299 0.317,1.133 0.383,1.531 1.623,-0.086 0.919,-0.422 1.532,-0.76599 1.295,-0.72601 2.611,0.58299 3.638,-0.19 0.463,-0.38901 0.582,-1.062 0.958,-1.53101 -0.106,-2.286 -1.553,-1.696 -2.298,-3.064 -0.19,-0.453 0.834,-4.858 1.148,-5.937 1.074,-3.682 1.852,-7.849 2.872,-11.48999 0.448,-1.592 0.633,-5.13401 1.341,-6.31801 0,0 3.655,-1.13099 4.021,-1.34099 0.06,-1.173 0.455,-2.35301 -0.191,-3.06301 -0.367,-0.864 -1.452,-0.788 -2.105,-1.34199 -0.161,-0.29301 -0.031,-0.65601 0,-1.341 l -0.191,-0.191 c -0.589,0.016 -5.66,0.89599 -5.745,0.95999 -2.349,1.624 -0.401,4.403 1.724,4.786 -0.257,1.326 -0.617,4.098 -1.34,5.17 -0.645,0.95201 -1.562,1.30801 -1.916,2.68101 -1.35,-0.019 -2.288,-0.25301 -3.446,-0.38201 -0.063,-0.32 -0.128,-0.639 -0.191,-0.95799 h -0.575 c 0.775,-3.56801 2.67,-9.75201 2.49,-13.02101 -1.312,-0.68799 -1.987,-1.70799 -3.447,-2.298 0.003,-1.15999 0.191,-1.453 0.575,-2.106 1.379,0.059 2.106,0.502 3.254,0.76501 2.363,0.54099 4.434,-0.51601 5.745,-1.148 0.612,-1.582 1.546,-10.262 0.384,-12.064 -0.02,-2.15601 -1.109,-2.665 -1.916,-4.02101 h -1.53 c -0.253,-1.72699 -0.774,-4.154 -1.342,-5.937 3.564,-2.01999 6.69,-2.95 6.704,-8.617 -1.842,-1.798 -2.509,-4.552 -4.788,-5.935 0.3,-1.077 0.727,-2.14999 0.956,-3.44799 -2.233,-2.59101 -5.038,-5.51801 -8.233,-7.08501 -0.396,-1.92699 -0.719,-3.927 -1.149,-5.554 -0.128,-1.213 -0.256,-2.42599 -0.384,-3.63799 -0.77,-2.64601 -2.136,-5.58601 -2.871,-8.23401 v -5.938 c -0.22,-0.68799 -0.896,-1.939 -1.148,-2.68 v -1.14799 c -0.319,-0.192 -0.639,-0.38401 -0.958,-0.57501 -0.521,-0.73999 -0.495,-2.709 0,-3.446 0.021,-0.48499 0.024,-0.70999 0.191,-0.956 1.379,-0.88799 6.572,-0.83899 8.618,-1.342 5.327,-1.30899 11.797,-1.28599 17.042,-2.48999 2.616004,0.063 5.234004,0.128 7.853004,0.19099 1.426,-0.33599 2.69799,-1.165 3.82899,-1.53099 1.587,-0.513 4.07501,0.57199 5.36101,-0.19 h 1.532 c 0.42799,1.84899 1.175,3.51799 1.724,5.16999 0.77599,2.33701 1.066,4.404 1.91399,6.70101 0.40701,1.10399 1.732,4.72899 1.341,6.31899 -0.39699,1.615 -2.32399,3.557 -3.44599,4.597 0.082,2.685 1.09,5.12101 2.681,6.319 1.506,1.133 3.074,1.53 3.63799,3.63801 0.215,0.45799 -0.67199,2.20799 -1.148,2.681 0.147,1.99999 1.78901,2.54399 2.29701,4.02099 v 10.72301 c 0.255,1.14899 0.51099,2.29899 0.76699,3.44799 -0.146,0.896 -1.03599,2.137 -1.34,3.064 -0.90499,2.75501 -1.559,5.59501 -2.29899,8.233 -0.255,1.78601 -0.51,3.574 -0.76501,5.362 -1.32199,5.18201 -1.793,11.03201 -3.064,16.276 -0.67499,2.783 -0.096,5.682 -0.76599,8.616 -0.78601,3.439 -1.323,8.56701 0.95699,10.915 -0.191,1.18 -1.18799,2.689 -1.915,3.44601 0.043,1.11999 0.367,2.78099 0.95801,3.44799 -0.185,0.891 -0.82901,1.33701 -0.76701,1.914 0.125,1.405 1.246,1.681 2.29801,2.10701 0.099,0.47899 0.50899,3.99699 0.191,4.97699 -0.18,0.555 -0.94601,1.23801 -1.14901,1.725 -0.60099,1.442 0.45001,2.60401 0,4.214 -0.34299,1.23101 -0.96599,2.48001 -0.76599,4.02101 0.211,1.616 -1.394,2.66399 -0.191,4.21399 0.063,0.12801 0.128,0.25401 0.191,0.38201 5.59399,0.48299 10.789,0.89799 15.51199,2.10599 1.20101,0.308 4.563,0.95201 5.74401,0.191 0.63799,-0.001 1.139,-0.055 1.531,-0.191 1.034,-4.581 -0.601,-5.467 -2.48901,-8.618 -0.46299,-0.77099 -0.422,-1.979 -0.95699,-2.68099 0.019,-1.54701 0.498,-1.326 1.149,-2.10501 0.192,-0.46899 -0.33601,-1.117 0,-1.723 0.178,-0.094 4.818,-1.109 5.55299,-1.15 -0.107,-0.60599 -0.168,-0.55599 -0.38399,-0.95599 -1.13501,0.042 -1.467,0.308 -2.48801,0.382 0.179,-0.90501 0.73901,-1.17701 0.95601,-1.914 0.54199,-1.83501 -0.233,-3.43601 0,-4.78801 0.68099,-3.93099 0.67699,-8.75 1.532,-12.446 v -6.31799 c 0.795,-3.164 2.01199,-6.33401 2.872,-9.38401 0.59599,-2.104 0.41199,-4.10399 1.149,-6.128 0.457,-1.256 1.18,-2.51 1.533,-4.021 v -4.40399 c 1.258,-5.689 -0.212,-12.57001 3.063,-16.085 -0.007,-3.46501 -1.785,-4.391 -3.44501,-6.129 -0.217,-0.25201 0.72501,-2.20501 0.38201,-3.44501 -0.072,-0.257 -0.50301,-0.89499 -0.57401,-1.148 -0.128,-1.08699 -0.256,-2.171 -0.385,-3.257 -0.48099,-0.90299 -1.67299,-1.16 -2.29599,-1.915 -0.15501,-0.19799 -0.072,-0.046 -0.19101,-0.38199 1.145,-1.17901 2.527,-3.74201 2.872,-5.55401 0.23101,-1.225 -1.24699,-2.02099 -0.76799,-3.44699 0.179,-0.52301 0.92599,-1.02201 1.149,-1.532 0.128,-0.76601 0.256,-1.532 0.384,-2.29701 0.31,-0.955 1.145,-1.79099 1.531,-2.681 1.012,-2.32799 1.85199,-4.84 2.681,-7.086 0.448,-1.979 0.89499,-3.95699 1.341,-5.937 0.414,-1.06799 1.524,-2.008 1.916,-3.064 -0.538,-2.293 0.88499,-3.97099 1.531,-5.74399 0.127,-0.70201 0.25499,-1.403 0.38299,-2.10501 0.73601,-1.86599 5.03901,-4.252 4.21201,-7.278 -0.118,-0.438 -0.648,-1.326 -0.765,-1.723 -0.45501,-1.55 0.623,-2.714 0.95699,-3.63899 0.383,-2.04201 0.76701,-4.085 1.14701,-6.12701 0.38199,-1.12399 1.78199,-3.329 1.341,-4.979 -0.25,-0.94 -1.05001,-1.607 -1.341,-2.489 -0.464,-1.415 0.071,-3.554 -0.191,-4.596 -0.201,-0.80599 -1.108,-1.825 -1.34,-2.48899 v -2.29801 c -0.219,-0.83899 -0.366,-2.25499 -0.76501,-3.256 -0.125,-0.30899 -0.64399,-0.648 -0.76699,-0.957 -1.337,-3.351 -1.718,-6.723998 -2.872,-10.148996 -2.025,-6.01 -4.18801,-12.035001 -5.745,-18.383 0.064,-3.191 0.12799,-6.384 0.19199,-9.575 2.59701,0.182 5.20601,1.61 7.659,2.298 1.78101,0.5 3.88601,0.358 5.16901,1.341 0.80799,0.479 0.41199,1.354 0.76799,2.298 0.64401,1.709 1.231,2.121999 0.76501,4.212 -0.234,1.057 0.074,1.768999 -0.382,2.49 -0.58401,0.922 -1.87201,1.854 -2.299,2.872 -0.347,0.828 0.048,1.831 -0.384,2.489999 -0.441,0.930001 -1.348,0.406001 -1.722,1.531001 -0.43501,0.943 1.03599,1.987 1.532,2.681 2.65899,-0.02 2.36999,-1.052 3.82899,-1.723 0.45101,-0.208 1.02601,0.013 1.34,-0.191 2.916,0.348 2.13801,5.836 3.064,8.426 0.383,0.509998 0.76701,1.020998 1.14901,1.531998 0.972,-0.104 0.94,-0.373 1.531,-0.768 0.37799,1.046 0.66299,1.703 1.149,2.49 2.42699,-0.092 2.708,-2.189 2.48799,-4.786999 -0.063,-0.383999 -0.127,-0.766999 -0.19,-1.147999 0.37801,-1.295 1.92501,-1.763 2.681,-2.682 1.699,-2.075 2.79801,-4.924001 2.48501,-8.43 z M 138.79024,267.79878 c -0.39399,0.076 -0.36899,0.048 -0.57399,0.19201 h -2.10701 c 0.128,-0.70401 0.25501,-1.404 0.38301,-2.10701 1.16499,0.162 1.534,0.65701 2.29899,1.147 v 0.768 z"
   id="path6" /></svg>