<?xml version="1.0" encoding="UTF-8" standalone="no"?>
<svg
   xmlns:dc="http://purl.org/dc/elements/1.1/"
   xmlns:cc="http://creativecommons.org/ns#"
   xmlns:rdf="http://www.w3.org/1999/02/22-rdf-syntax-ns#"
   xmlns:svg="http://www.w3.org/2000/svg"
   xmlns="http://www.w3.org/2000/svg"
   xmlns:sodipodi="http://sodipodi.sourceforge.net/DTD/sodipodi-0.dtd"
   xmlns:inkscape="http://www.inkscape.org/namespaces/inkscape"
   version="1.1"
   width="149.9371"
   height="228.42731"
   viewBox="0 0 149.9371 228.42731"
   id="svg13"
   sodipodi:docname="guy cycling.svg"
   inkscape:version="0.92.4 (5da689c313, 2019-01-14)">
  <metadata
     id="metadata19">
    <rdf:RDF>
      <cc:Work
         rdf:about="">
        <dc:format>image/svg+xml</dc:format>
        <dc:type
           rdf:resource="http://purl.org/dc/dcmitype/StillImage" />
        <dc:title></dc:title>
      </cc:Work>
    </rdf:RDF>
  </metadata>
  <defs
     id="defs17" />
  <sodipodi:namedview
     pagecolor="#ffffff"
     bordercolor="#666666"
     borderopacity="1"
     objecttolerance="10"
     gridtolerance="10"
     guidetolerance="10"
     inkscape:pageopacity="0"
     inkscape:pageshadow="2"
     inkscape:window-width="933"
     inkscape:window-height="512"
     id="namedview15"
     showgrid="false"
     fit-margin-top="0"
     fit-margin-left="0"
     fit-margin-right="0"
     fit-margin-bottom="0"
     inkscape:zoom="0.96721311"
     inkscape:cx="91.681982"
     inkscape:cy="138.4953"
     inkscape:window-x="0"
     inkscape:window-y="0"
     inkscape:window-maximized="0"
     inkscape:current-layer="svg13" />
  <g
     id="layer1"
     transform="translate(-225.0117,-373.76255)">
    <g
       id="g10">
      <g
         style="fill:#000000;fill-opacity:1;stroke-linejoin:miter"
         id="g4">
        <path
           d="m 293.84424,373.96973 c -0.22204,0.11105 -0.51354,0.30537 -0.63846,0.41641 -0.11105,0.11106 -0.31924,0.1943 -0.44418,0.1943 -0.12488,0 -0.24982,0.0556 -0.30536,0.13883 -0.0416,0.0694 -0.24982,0.12491 -0.45801,0.11103 -1.16589,-0.0278 -1.66559,0.1249 -2.26245,0.72176 -0.52741,0.52744 -0.63843,0.56906 -1.08258,0.49967 -0.3748,-0.0555 -0.4442,-0.0417 -0.2915,0.0694 0.12493,0.0833 0.15267,0.16658 0.0694,0.20818 -0.73567,0.30537 -1.388,0.7634 -1.34635,0.94386 0.0694,0.36087 -0.23595,0.81891 -0.44419,0.65234 -0.20819,-0.16656 -0.49963,0.0555 -0.49963,0.40253 0,0.11103 -0.0972,0.3331 -0.20819,0.47193 -0.11108,0.15268 -0.20822,0.38861 -0.20822,0.51354 0,0.1388 -0.13882,0.29148 -0.30536,0.3331 -0.18046,0.0556 -0.48581,0.27762 -0.694,0.4997 -0.24982,0.2637 -0.51356,0.4025 -0.77728,0.4025 -0.44416,0 -1.19368,0.4997 -1.05488,0.70788 0.0416,0.0694 0.18046,0.0139 0.30536,-0.13878 0.31924,-0.36088 1.41578,-0.54133 1.41578,-0.23597 0,0.12491 -0.18044,0.23597 -0.47194,0.30537 -0.55516,0.0971 -0.98546,0.51354 -1.1104,1.06874 -0.0555,0.23596 -0.22205,0.43026 -0.43024,0.51356 -0.19433,0.0694 -0.34704,0.22207 -0.34704,0.34698 0,0.11105 -0.20819,0.54132 -0.4719,0.94384 -0.49966,0.7634 -0.70785,1.80438 -0.49966,2.38733 0.0694,0.19435 0,0.41642 -0.22211,0.70789 -0.40249,0.52743 -0.43025,0.74951 -0.0555,0.40253 0.26367,-0.24985 0.27759,-0.23597 0.27759,0.0277 0,0.29148 -0.40253,0.73566 -0.66626,0.73566 -0.11102,0 -0.16657,0.31922 -0.16657,0.98548 0,0.61068 0.0555,0.94381 0.1388,0.8883 0.0833,-0.0416 0.13882,-0.18044 0.13882,-0.29147 0,-0.24985 0.29148,-0.24985 0.61072,-0.0139 0.19431,0.1388 0.22208,0.26372 0.13879,0.52744 -0.0555,0.18042 -0.0971,0.4025 -0.0833,0.49966 0.0278,0.0972 0.0972,0.55522 0.16657,1.04099 0.3609,2.45676 0.76339,4.37219 0.97162,4.63589 0.0832,0.0833 0.19427,0.73564 0.27758,1.4574 0.0694,0.72174 0.22205,1.61004 0.34699,1.99869 0.29146,0.97159 0.27759,1.04101 -0.23596,1.04101 -0.24982,0.0139 -1.01325,0.1388 -1.70722,0.29148 -2.66498,0.59683 -2.62329,0.59683 -3.06744,0.36086 -1.1937,-0.65234 -1.17982,-0.65234 -2.63722,-0.44414 -0.7634,0.11102 -1.7766,0.30534 -2.2763,0.43026 -0.97158,0.23596 -4.15008,1.5268 -5.08,2.06812 -0.33314,0.1943 -1.7489,1.61004 -3.2618,3.27563 -3.30343,3.59491 -3.63653,3.99743 -4.88573,5.74628 -1.62394,2.29019 -2.42897,2.78985 -4.60813,2.94255 -0.61072,0.0278 -1.3047,0.15266 -1.55454,0.26372 -0.59683,0.2637 -0.66622,0.2637 -1.5823,-0.29148 -0.44415,-0.27761 -1.20755,-0.68011 -1.70724,-0.90219 -0.59684,-0.27762 -0.95771,-0.54132 -1.08261,-0.77728 -0.18045,-0.34697 -0.8328,-0.694 -1.65172,-0.84667 -0.19433,-0.0416 -0.59683,0.0417 -0.90219,0.16656 -0.72176,0.31924 -2.88701,0.6246 -4.41381,0.6246 -2.44287,0 -3.70593,0.4025 -5.51031,1.74887 -0.49968,0.37477 -1.63783,1.20755 -2.52616,1.85989 -0.8883,0.65235 -1.6517,1.29084 -1.70721,1.42963 -0.0416,0.13879 0.0833,0.55521 0.29147,0.9577 0.30536,0.56909 0.36088,0.84668 0.31925,1.37412 -0.0416,0.36087 -0.0139,0.74951 0.0555,0.87445 0.0694,0.11102 0.48579,0.27758 0.95772,0.37475 1.12426,0.22208 1.55455,0.59683 1.84602,1.62393 0.12491,0.44416 0.22208,0.91608 0.22208,1.041 0,0.12493 -0.31925,0.5552 -0.70787,0.95772 -0.87444,0.88831 -1.92931,2.29018 -1.92931,2.5539 0,0.0972 -0.49968,0.7634 -1.12427,1.47125 -2.54002,2.92868 -2.90091,3.67819 -2.90091,6.20433 0,1.29082 0.0694,1.8599 0.29148,2.59554 0.19433,0.6246 0.30536,1.41574 0.33313,2.33181 0.0416,1.41575 0.20819,2.2902 0.58295,3.09522 0.16656,0.34701 0.16656,0.49969 0.0278,0.7634 -0.30536,0.58293 -1.34636,1.85989 -1.84603,2.2763 -0.27759,0.22208 -0.72174,0.58295 -0.99935,0.80503 -0.2776,0.22207 -0.68011,0.73565 -0.90219,1.13815 -0.23596,0.40253 -0.51356,0.80505 -0.61072,0.8883 -0.11104,0.0972 -0.2082,0.27762 -0.2082,0.40253 0,0.12494 -0.31923,0.6246 -0.72174,1.11038 -0.63849,0.80506 -0.72176,0.97162 -0.72176,1.58234 -0.0139,0.6107 0.0278,0.72174 0.45803,1.0826 0.6246,0.51356 1.54067,0.81892 2.52615,0.81892 0.92995,0 0.99934,0.0972 0.87442,1.19368 -0.0972,0.72176 -0.0833,0.76338 0.38864,1.20756 0.26372,0.24982 0.94383,0.73564 1.51291,1.06874 0.56908,0.33312 1.06875,0.6801 1.12426,0.7634 0.0555,0.0694 0.11106,0.37474 0.11106,0.66625 0,0.29147 0.0833,0.73562 0.1943,0.98545 0.27761,0.65236 1.33248,1.48516 2.02648,1.56844 l 0.55519,0.0833 v 0.66623 c 0,0.58295 0.0416,0.68012 0.2776,0.68012 0.15268,0 0.27759,0.0416 0.27759,0.0972 0,0.83276 0.44417,5.67686 0.54132,5.84341 0.0694,0.12495 0.19432,0.74951 0.2776,1.388 0.15268,1.13815 0.52744,2.26242 0.8328,2.44285 0.0833,0.0555 0.15268,0.2221 0.15268,0.37478 0,0.45802 0.5413,1.37408 1.22142,2.04034 0.36088,0.34698 0.76339,0.80503 0.88832,0.99933 0.47191,0.68012 1.85989,1.97095 2.55389,2.35959 1.388,0.80502 3.08133,2.76211 3.40057,3.91412 0.0972,0.40254 0.24985,0.59687 0.61072,0.7634 0.26372,0.12491 0.49968,0.36087 0.54133,0.54132 0.0555,0.18045 0.27758,0.47192 0.51355,0.63846 0.23596,0.18046 0.49967,0.51358 0.59683,0.73566 0.19432,0.45803 2.15139,3.234 3.23401,4.58035 0.36088,0.45805 1.11041,1.42962 1.65171,2.1514 0.54131,0.72175 1.16591,1.47125 1.3741,1.66558 0.20821,0.19431 0.52744,0.63847 0.70789,0.99933 0.31924,0.63849 0.97159,1.24921 1.51291,1.41577 0.26373,0.0833 3.85861,4.60813 4.45545,5.62134 l 0.30535,0.4997 -0.51355,1.31857 c -0.2915,0.72176 -0.61072,1.54068 -0.73565,1.80441 -0.12491,0.26371 -0.48578,1.1659 -0.81891,2.01258 -0.3331,0.83279 -0.63846,1.5823 -0.69397,1.63781 -0.0417,0.0694 -0.92997,-0.29147 -1.94321,-0.79114 -2.1375,-1.041 -3.4422,-1.48516 -5.67688,-1.97094 -2.16525,-0.47193 -5.12168,-0.59686 -6.93994,-0.27762 -4.0668,0.694 -7.1759,2.23468 -9.67429,4.77469 -4.35827,4.41382 -7.50902,12.18652 -8.23077,20.29242 -0.15268,1.6933 0.0278,9.45221 0.26372,11.31205 0.55519,4.27505 1.13815,6.93996 2.35959,10.5904 1.76274,5.2883 3.91412,9.3828 7.73109,14.8099 0.95772,1.3463 3.19238,4.02514 4.49709,5.3992 1.09651,1.13814 2.29017,2.2208 4.23336,3.8031 1.44351,1.1937 4.80245,2.9842 6.88443,3.6782 2.37346,0.80504 4.38605,1.1104 6.78724,1.0271 2.2347,-0.0833 3.40058,-0.29146 5.5381,-1.0132 2.5539,-0.87445 4.6359,-2.1514 6.32922,-3.8725 0.84668,-0.86053 1.08264,-1.02716 1.73498,-1.1798 1.1382,-0.2776 2.05426,-0.7773 2.3596,-1.29084 0.30535,-0.48576 0.36086,-1.388 0.13882,-1.97096 -0.12494,-0.3192 -0.0417,-0.58293 0.63846,-1.90154 0.41642,-0.84666 0.8189,-1.63782 0.8883,-1.76276 0.24985,-0.4303 0.8328,-1.83215 0.8328,-1.957 0,-0.236 0.33312,-0.15274 0.87445,0.222 1.388,0.94387 3.26177,1.58236 4.63587,1.58236 0.79116,0 2.05425,-0.3609 2.67882,-0.77726 1.83216,-1.22146 3.22016,-3.52554 3.76148,-6.2321 0.29144,-1.4574 0.3192,-2.3873 0.11102,-4.1362 l -0.15272,-1.277 1.22145,-1.24914 c 0.68011,-0.69396 1.55455,-1.49902 1.92932,-1.80436 0.38861,-0.3054 2.22076,-2.0543 4.09453,-3.9003 2.69276,-2.65105 3.63655,-3.46996 4.511,-3.99736 l 1.1104,-0.66624 1.0965,0.0694 c 0.59684,0.0416 1.13813,0.1249 1.20756,0.19425 0.0555,0.0556 0.0555,0.54138 -0.0139,1.08265 -0.34697,2.6511 -0.0555,8.6056 0.58295,12.1449 0.15271,0.87444 0.33313,1.9016 0.40253,2.27636 0.12493,0.73559 0.99935,3.9696 1.30471,4.87184 0.11106,0.30534 0.41642,1.2075 0.694,2.01256 0.69397,1.97094 1.1659,3.19238 2.15137,5.48254 0.48577,1.12427 2.06812,4.3583 2.55389,5.20496 0.33313,0.56909 0.77728,1.34637 0.98548,1.73498 0.54132,0.97162 2.47064,3.84473 3.3034,4.92736 4.59427,5.91285 9.9519,10.2573 16.54486,13.4635 3.96964,1.9154 6.16266,2.5817 9.92414,2.9842 2.97027,0.3192 5.48254,0.23596 8.46673,-0.2915 7.18977,-1.29083 13.14423,-4.969 17.43311,-10.7985 0.97162,-1.29086 2.26246,-3.4839 2.88702,-4.87185 0.27759,-0.61072 0.5691,-1.22145 0.63849,-1.34635 0.16657,-0.2915 1.13815,-2.9703 1.42963,-3.92806 1.23529,-4.03904 1.76276,-7.62004 1.85992,-12.42249 0.0694,-3.69202 -0.0555,-6.2876 -0.44418,-8.81375 -0.36087,-2.44284 -0.48582,-3.19235 -0.61069,-3.60874 -0.0694,-0.23596 -0.19433,-0.79116 -0.2915,-1.2492 -0.43027,-2.1236 -1.87378,-6.71786 -2.65106,-8.49451 -0.15265,-0.31921 -0.26371,-0.61072 -0.26371,-0.65235 0,-0.0416 -0.15268,-0.4025 -0.33313,-0.805 -0.18045,-0.4026 -0.47189,-1.0826 -0.65233,-1.499 -1.42967,-3.28956 -4.37217,-8.1614 -6.74565,-11.2011 -2.33181,-2.9842 -4.99675,-5.6214 -8.02258,-7.9532 -4.15007,-3.20624 -7.39797,-5.16334 -11.2427,-6.7595 -4.2056,-1.74887 -8.09197,-2.54007 -11.65909,-2.3596 -0.91608,0.0555 -1.79053,0.11104 -1.94321,0.12495 -0.20819,0.0277 -0.27762,-0.0695 -0.34702,-0.47195 -0.11102,-0.59683 -0.31921,-0.9022 -0.73559,-1.0271 -0.16656,-0.0555 -0.48581,-0.23593 -0.70789,-0.43027 -0.58294,-0.48583 -1.49902,-0.86059 -2.42897,-0.98547 -0.6524,-0.0972 -0.88835,-0.19434 -1.1798,-0.52744 -0.37475,-0.43026 -0.9022,-1.9432 -1.6795,-4.84408 -0.0971,-0.38864 -0.27758,-1.06876 -0.41638,-1.5268 -0.12492,-0.45804 -0.43026,-1.6517 -0.69397,-2.63717 -0.26373,-0.99937 -0.73565,-2.80374 -1.06878,-4.02517 -0.31922,-1.22145 -0.58295,-2.44288 -0.58295,-2.70658 0,-0.81892 0.97162,-2.58167 1.99872,-3.62265 1.17978,-1.20755 2.15136,-1.80439 4.1362,-2.56777 0.88833,-0.34703 1.81826,-0.7079 2.04034,-0.80504 0.23596,-0.11106 0.98548,-0.43029 1.66559,-0.72176 0.694,-0.2776 1.56845,-0.72175 1.94321,-0.9716 0.38862,-0.23596 0.83276,-0.48577 1.01322,-0.54132 0.16653,-0.0416 0.30535,-0.13878 0.30535,-0.20818 0,-0.29148 0.44415,-0.22208 0.80502,0.1388 0.52743,0.52742 1.27698,0.97157 1.62397,0.97157 0.37476,-0.0139 1.69336,-0.45803 2.40121,-0.8189 0.30535,-0.15267 0.92995,-0.62461 1.38797,-1.05487 0.94385,-0.86057 1.98486,-1.38797 3.03973,-1.5268 0.59681,-0.0833 0.84665,-0.0416 1.36023,0.20822 0.805,0.38861 1.17975,0.27758 1.17975,-0.33312 0,-0.58295 -0.40249,-0.94386 -1.38797,-1.26307 -0.41641,-0.13883 -0.79116,-0.26373 -0.80502,-0.2915 -0.0278,-0.0139 0.29146,-0.4025 0.70788,-0.84665 1.12428,-1.17981 2.17914,-2.54004 2.4151,-3.09522 0.27758,-0.65236 0.15265,-1.23532 -0.41642,-1.99872 -0.2776,-0.34698 -0.5413,-0.77728 -0.59682,-0.94381 -0.23596,-0.7634 -1.34638,-2.082 -2.27631,-2.69273 -0.3609,-0.24984 -0.70787,-0.70785 -1.19367,-1.62392 -0.37475,-0.694 -0.694,-1.31861 -0.72173,-1.37412 -0.0278,-0.0555 0.20819,-0.23596 0.5274,-0.41641 0.694,-0.38861 0.79117,-0.72175 0.47193,-1.66559 -0.4997,-1.52676 -2.6927,-3.15072 -3.70594,-2.76208 -0.26373,0.0972 -0.38861,0.0972 -0.47192,-0.0278 -0.0555,-0.0971 -1.15204,-2.23464 -2.4151,-4.7469 -2.59552,-5.16334 -4.5387,-8.95253 -4.70526,-9.16075 -0.20818,-0.2637 -1.76276,-3.05355 -2.082,-3.74755 -1.19368,-2.58167 -2.19302,-4.05292 -4.02518,-5.89896 -0.62457,-0.62461 -2.2763,-2.58167 -2.70657,-3.19239 l -0.41638,-0.59683 0.31925,-0.20819 c 0.4719,-0.30536 0.4025,-0.98547 -0.26374,-2.29019 -0.54132,-1.08261 -1.33246,-2.44284 -1.51291,-2.59552 -0.0555,-0.0417 -0.2637,-0.38864 -0.47189,-0.77728 -0.20823,-0.38864 -0.62464,-0.88831 -0.93,-1.12427 -0.29144,-0.23597 -0.6662,-0.56909 -0.80502,-0.7634 -0.49966,-0.63849 -1.22141,-2.24853 -1.88766,-4.2056 -0.97158,-2.91479 -1.29084,-3.48385 -2.63718,-4.87185 -0.694,-0.70789 -1.17978,-1.33246 -1.17978,-1.48514 0,-0.45804 -0.54132,-1.87381 -1.17982,-3.08136 -0.37475,-0.72174 -0.6107,-1.37408 -0.66622,-1.84602 -0.11105,-0.97158 -0.43028,-1.48513 -1.34634,-2.22078 -1.70722,-1.34635 -2.16529,-1.81827 -2.58167,-2.60942 l -0.43027,-0.8189 0.16654,-1.388 c 0.0833,-0.7634 0.23596,-1.54068 0.34701,-1.73498 0.38865,-0.70789 0.41642,-1.26306 0.11105,-1.97095 -0.1527,-0.37477 -0.26373,-0.694 -0.23595,-0.70789 0.0278,-0.0138 0.30535,-0.16653 0.61071,-0.31921 0.84668,-0.45804 0.92994,-0.86057 0.37476,-1.90155 -0.4303,-0.83279 -0.45807,-0.91608 -0.44415,-2.45676 v -1.61004 l 0.49966,-0.51358 c 0.27762,-0.27759 0.63847,-0.55518 0.80502,-0.59684 0.16657,-0.0416 0.37475,-0.1943 0.47193,-0.34698 0.13879,-0.22208 0.0972,-0.41642 -0.30536,-1.20755 -0.33312,-0.68012 -0.48578,-1.20755 -0.55518,-1.97095 -0.11104,-1.05487 -0.38867,-2.51227 -0.56909,-2.95642 -0.0555,-0.1388 -0.0416,-0.23596 0.0555,-0.23596 0.0833,0 0.15268,0.0694 0.15268,0.15268 0,0.0694 0.0555,0.11105 0.12494,0.0694 0.0694,-0.0555 0.0694,-0.31922 -0.0278,-0.65235 -0.13878,-0.54132 -0.12493,-0.58294 0.33314,-1.0271 0.86053,-0.83279 1.0965,-1.27697 1.0965,-2.02649 0,-0.51355 0.0833,-0.49966 0.65234,0.0417 0.4997,0.47192 0.58295,0.34698 0.23596,-0.31924 -0.31921,-0.6385 -0.18042,-0.8189 0.63849,-0.8189 0.51355,0 0.69397,-0.0555 0.69397,-0.2082 0,-0.31925 -0.7495,-0.6246 -1.51288,-0.6246 -0.5552,0 -0.70788,-0.0555 -0.77728,-0.26374 -0.11102,-0.34699 0.24982,-1.19366 0.59683,-1.41574 0.2637,-0.16657 0.2637,-0.16657 0.0139,-0.41638 -0.34699,-0.34702 -0.33313,-0.59687 0.0278,-0.4997 0.1943,0.0555 0.0555,-0.16656 -0.47193,-0.72174 -0.4858,-0.51355 -0.79116,-0.95773 -0.84667,-1.2631 -0.18043,-0.90218 -0.4997,-1.499 -0.77729,-1.42962 -0.54132,0.13882 -1.80438,-0.90218 -1.80438,-1.49902 0,-0.13879 -0.0833,-0.2637 -0.19434,-0.2637 -0.11102,0 -0.31922,-0.15268 -0.47189,-0.34702 -0.22208,-0.29147 -0.37479,-0.3331 -0.92996,-0.31921 -0.54132,0.0277 -0.69397,-0.0278 -0.88831,-0.29151 -0.23596,-0.30536 -0.2915,-0.31922 -0.70788,-0.18042 -0.23598,0.0971 -0.83278,0.2082 -1.30468,0.24982 -0.81892,0.0833 -0.88832,0.0694 -1.15205,-0.2637 -0.2915,-0.37476 -0.45805,-0.36087 -0.45805,0.0555 0,0.12494 -0.0971,0.27762 -0.22206,0.31924 -0.38864,0.15268 -0.74952,0.0833 -0.74952,-0.1249 0,-0.12494 -0.0972,-0.24985 -0.20819,-0.30537 -0.19433,-0.0694 -0.19433,-0.11105 0.0139,-0.33312 0.27758,-0.31925 0.0833,-0.34698 -0.30537,-0.0555 -0.41638,0.30535 -1.95703,0.27758 -2.62329,-0.0694 -0.65234,-0.33313 -0.84668,-0.34702 -1.388,-0.0555 z m 0.84668,0.40252 c -0.30536,0.23597 -0.72174,0.27759 -0.83277,0.0833 -0.12493,-0.19431 0.0694,-0.29148 0.59681,-0.29148 0.47192,0.0139 0.48581,0.0278 0.23596,0.20819 z m -44.70712,42.37531 c -0.0833,0.0694 -0.6385,0.2915 -1.2492,0.51358 -1.54066,0.54129 -3.87248,1.74884 -5.05229,2.65103 -0.55517,0.41641 -1.05487,0.74953 -1.12427,0.74953 -0.13879,0 -0.27758,-0.347 -0.27758,-0.694 0,-0.13878 0.24983,-0.56908 0.55519,-0.95772 0.72175,-0.91605 2.09587,-1.59616 3.98353,-1.95706 2.01258,-0.38864 3.40058,-0.51355 3.16462,-0.30536 z m -10.96512,2.22079 c 0,0.91608 0.0555,1.16593 0.37475,1.7211 0.22208,0.37475 0.55521,0.72177 0.80504,0.8328 0.59683,0.26373 0.55519,0.694 -0.0972,1.09652 -0.29147,0.18043 -0.66623,0.4025 -0.8189,0.49967 -0.27761,0.18046 -0.31923,0.15268 -0.59684,-0.45804 -0.40251,-0.84668 -1.47126,-1.97095 -2.12362,-2.23465 -0.29148,-0.11105 -0.52744,-0.26373 -0.52744,-0.33313 0,-0.12492 2.72046,-2.20692 2.88701,-2.20692 0.0555,0 0.0972,0.48582 0.0972,1.08265 z m 59.47534,9.77145 c 0.66623,0.9716 2.92865,3.27564 3.98352,4.02515 0.47192,0.34702 1.4574,0.95775 2.17914,1.37412 l 1.33246,0.74951 -0.0694,0.55522 c -0.0694,0.45802 0.0139,0.76338 0.47192,1.74886 0.31924,0.66624 0.66626,1.56842 0.77729,2.01257 0.2915,1.15204 1.01325,2.98419 1.29083,3.30341 0.26372,0.2915 1.17982,0.77728 1.44352,0.77728 0.13878,0 1.4435,-0.59682 2.3457,-1.06876 0.0417,-0.0277 0.43026,0.37476 0.84664,0.88834 0.54132,0.6801 0.92999,1.36023 1.34638,2.4012 0.33313,0.80504 0.77728,1.84602 0.99933,2.33183 0.2221,0.47193 0.40252,0.90219 0.40252,0.97159 0,0.0555 0.40253,0.56908 0.90223,1.13815 0.99932,1.15203 1.67944,2.09586 2.16522,3.05359 1.49905,2.97028 2.06811,3.69204 4.99676,6.45414 3.30344,3.0952 4.70532,4.622 7.14816,7.77273 1.55454,1.99872 2.02646,2.72047 2.34571,3.53937 0.22207,0.5691 0.47189,1.16592 0.56905,1.3186 0.0833,0.15268 0.2082,0.51355 0.24986,0.80502 0.0972,0.4997 0.0555,0.5691 -0.56906,1.15204 -0.3609,0.36087 -0.94385,0.77728 -1.29084,0.9577 -0.34698,0.18046 -0.84668,0.55521 -1.11041,0.8328 l -0.48578,0.49969 -0.0416,1.76273 c -0.0416,2.23468 -0.0833,2.38736 -0.51358,2.38736 -0.24984,0 -0.47189,0.16656 -0.76339,0.58296 -0.36087,0.49968 -0.41637,0.66622 -0.34699,1.11037 0.0833,0.47193 0.0555,0.52746 -0.44415,0.86056 -0.2915,0.19431 -0.90223,0.43027 -1.33246,0.51355 -0.66627,0.13882 -0.91607,0.12494 -1.49905,-0.0694 -0.55522,-0.16655 -0.99936,-0.2082 -2.05422,-0.1388 -0.8467,0.0555 -1.70723,0.0278 -2.31795,-0.0833 -0.52743,-0.0833 -1.59619,-0.2498 -2.38732,-0.34698 -0.77729,-0.11105 -1.48517,-0.23596 -1.56843,-0.27762 -0.0694,-0.0555 -0.0972,-0.2637 -0.0555,-0.48577 0.11104,-0.48581 -0.16656,-1.59619 -0.47192,-1.84603 -0.12491,-0.11103 -0.81891,-0.347 -1.54064,-0.51356 -0.72175,-0.18044 -1.67948,-0.49967 -2.10975,-0.70789 -0.4303,-0.22207 -1.0271,-0.458 -1.3186,-0.52743 -0.29148,-0.0832 -0.87442,-0.23592 -1.31861,-0.3331 -1.31857,-0.34702 -2.65106,-0.81892 -3.16461,-1.13815 -0.63846,-0.40253 -1.31857,-1.22144 -3.84473,-4.59424 -1.15203,-1.5268 -2.44287,-3.1785 -2.8731,-3.65043 -1.15204,-1.3047 -3.13688,-4.4138 -4.60816,-7.20367 -0.36084,-0.70785 -1.11038,-1.87378 -1.63782,-2.56778 -0.58294,-0.76339 -1.33245,-2.01257 -1.85992,-3.08133 -1.17975,-2.38732 -2.10974,-3.76144 -3.5671,-5.24658 -1.5268,-1.55456 -1.5962,-1.74887 -0.99937,-2.48454 l 0.44417,-0.55516 v -1.69336 c 0,-1.27695 -0.0555,-1.83216 -0.24983,-2.31793 l -0.23597,-0.63849 1.2492,-1.30469 c 0.69398,-0.72177 1.55452,-1.67947 1.91542,-2.12363 0.36088,-0.45804 0.94385,-1.13814 1.29083,-1.52679 0.34699,-0.38865 0.86055,-1.05487 1.13812,-1.47128 0.27763,-0.41639 1.04103,-1.41575 1.69336,-2.22077 1.30472,-1.61008 1.22144,-1.3186 0.97162,-3.33118 -0.0694,-0.56909 -0.0139,-0.73562 0.63845,-1.88766 0.4025,-0.70789 0.79118,-1.24921 0.87443,-1.22144 0.0833,0.0278 0.37477,0.37476 0.63849,0.77728 z M 336.9552,483.26 c 1.33246,0.47193 1.88766,0.51356 2.80374,0.19435 0.36086,-0.12495 0.72176,-0.19435 0.80502,-0.16657 0.0833,0.0278 -0.15266,0.36087 -0.52743,0.74952 -0.49966,0.49966 -0.90219,0.7495 -1.45737,0.92992 -0.91606,0.29151 -0.92999,0.29151 -1.8183,0.0278 -0.68011,-0.1943 -2.17913,-1.31858 -2.17913,-1.62394 0,-0.0555 0.13879,-0.33313 0.30537,-0.59683 0.31923,-0.47193 0.31923,-0.47193 0.6107,-0.19433 0.15268,0.1388 0.80506,0.45803 1.4574,0.6801 z m -51.3001,0.0416 c 2.19304,0.65236 4.7608,2.15139 5.28826,3.10913 0.22208,0.38861 0.22208,0.54129 0.0694,1.56843 -0.0972,0.62456 -0.26374,1.4296 -0.3609,1.7766 -0.11103,0.3609 -0.23596,0.8328 -0.27759,1.041 l -0.0833,0.38862 -1.55457,-0.0833 c -0.86053,-0.0416 -2.10975,-0.13879 -2.80371,-0.22207 -0.68012,-0.0694 -2.3457,-0.19431 -3.67822,-0.26371 -1.33246,-0.0833 -2.52612,-0.18046 -2.63715,-0.20822 -0.11102,-0.0277 -1.63782,-0.15264 -3.40057,-0.27759 -1.74887,-0.11102 -3.52552,-0.24981 -3.91413,-0.29147 -0.80505,-0.0972 -0.59687,0.18045 -2.12362,-2.6094 l -0.44419,-0.81891 1.388,-1.40189 c 0.7634,-0.7634 1.49904,-1.54068 1.63782,-1.7211 0.33312,-0.40253 0.52747,-0.38864 1.08264,0.11102 0.80506,0.73566 1.92932,1.5268 2.72046,1.91544 0.61072,0.30536 0.99936,0.38864 1.95709,0.41641 1.63783,0.0694 1.83213,-0.0278 4.87183,-2.35959 0.7079,-0.54132 0.62457,-0.54132 2.2624,-0.0694 z m 46.01186,1.62396 c 0.20819,0.11105 0.2637,0.29147 0.24984,0.7634 -0.0139,1.11038 -0.77727,1.5962 -4.8441,3.15072 -1.24918,0.48581 -2.6788,1.09653 -3.17847,1.36023 -1.15203,0.59685 -2.9842,2.42899 -3.46997,3.42835 -0.19434,0.40252 -0.41642,0.73562 -0.4997,0.73562 -0.24982,0 -0.38861,-1.05487 -0.40253,-2.94252 0,-1.47127 -0.0416,-1.81828 -0.23593,-2.05424 -0.13882,-0.15268 -0.33313,-0.27759 -0.43027,-0.27759 -0.11105,0 -0.26373,-0.15267 -0.34701,-0.34702 -0.13879,-0.29145 -0.12492,-0.37475 0.0277,-0.43025 0.37476,-0.1527 2.78989,0.0416 3.34509,0.24983 0.49967,0.20819 0.5968,0.20819 1.04095,0.0139 0.5136,-0.22208 0.65238,-0.26372 1.6795,-0.38864 0.52742,-0.0694 0.77726,-0.20818 1.34633,-0.74951 0.56909,-0.55521 0.90222,-0.73567 1.72113,-0.98547 1.62396,-0.47193 2.98419,-1.12427 3.234,-1.5268 0.11104,-0.18042 0.4303,-0.18042 0.7634,0 z m -25.8027,3.27566 c 0.30536,0.37476 1.48511,0.86054 2.31794,0.95771 0.43026,0.0555 1.15203,0.24983 1.61004,0.44415 0.77728,0.33313 0.81891,0.34701 1.3186,0.11105 0.40253,-0.16657 0.59683,-0.19433 0.90219,-0.0833 0.65237,0.24984 0.94382,0.18044 1.49902,-0.41642 0.30535,-0.31922 0.56907,-0.54132 0.61072,-0.49968 0.0417,0.0417 0.11106,0.41643 0.15268,0.8467 0.0694,0.694 0.0416,0.8189 -0.22207,1.06875 -0.15268,0.15265 -0.29148,0.3331 -0.29148,0.4025 0,0.33313 0.30536,0.84668 0.77728,1.29083 l 0.52742,0.48582 -0.81892,0.0972 c -0.5274,0.0694 -1.62393,0.0277 -2.98416,-0.12494 -1.17978,-0.12492 -2.95642,-0.29148 -3.95578,-0.36087 -0.98547,-0.0833 -1.99872,-0.18045 -2.24854,-0.22208 l -0.4303,-0.0833 0.0139,-1.98485 0.0278,-1.99868 0.34698,-0.0555 c 0.1943,-0.0278 0.41638,-0.0694 0.49966,-0.0833 0.0833,0 0.24986,0.0833 0.34702,0.20822 z m -29.43926,5.19107 c 2.08196,0.16657 5.55193,0.45804 9.0219,0.7634 1.26306,0.11105 2.67883,0.22207 3.1646,0.2637 0.48585,0.0278 0.9161,0.0972 0.95774,0.13883 0.0417,0.0416 -0.0277,0.47189 -0.16654,0.94382 -0.12493,0.4858 -0.30535,1.27694 -0.40252,1.77664 -0.0972,0.49966 -0.2221,1.0271 -0.27758,1.19366 -0.19434,0.62462 -0.33313,4.31665 -0.2221,5.94058 0.0972,1.29084 0.23595,2.04034 0.6107,3.20627 0.68012,2.16527 0.74952,2.42899 1.05488,4.33054 0.24982,1.45733 0.26372,1.90153 0.13879,3.19233 -0.0694,0.81896 -0.19434,2.3457 -0.27759,3.37285 -0.19433,2.4845 -0.65234,7.49515 -0.86053,9.23011 -0.12495,1.05484 -0.24988,1.55454 -0.55525,2.09588 -0.97155,1.74886 -1.4851,4.2334 -1.52675,7.43956 l -0.0277,2.1931 0.36085,0.3609 c 0.51355,0.5274 1.56842,0.7495 3.90025,0.84665 1.12428,0.0417 2.04036,0.11105 2.04036,0.1388 0,0.19435 -7.28693,9.75755 -7.42572,9.75755 -0.11108,0 -0.22211,-0.1249 -0.27764,-0.2637 -0.0416,-0.15267 -0.68012,-0.8467 -1.41572,-1.5546 -1.42963,-1.3602 -1.388,-1.2908 -1.91544,-3.4561 -0.11104,-0.4164 -0.44418,-1.735 -0.76339,-2.91473 -0.31922,-1.17981 -0.66625,-2.49837 -0.7634,-2.91477 -0.0971,-0.4164 -0.29147,-1.13815 -0.41641,-1.5962 -0.38861,-1.45736 -0.98548,-3.66427 -1.87378,-7.07875 -1.26306,-4.83021 -1.6517,-6.32925 -3.12296,-11.86731 -0.5552,-2.08197 -0.5691,-2.56784 -0.0694,-3.84474 0.70786,-1.8183 0.8328,-2.10973 1.31858,-2.97027 1.01324,-1.77663 1.19366,-2.67883 1.55456,-7.41189 0.0694,-1.0271 -0.11104,-2.20688 -0.54132,-3.33114 -0.5552,-1.48518 -2.69268,-5.56587 -3.88638,-7.41187 -0.20819,-0.34703 -0.38864,-0.66626 -0.38864,-0.73566 0,-0.0694 0.26373,-0.0972 0.59686,-0.0555 0.31922,0.0416 1.42964,0.13879 2.45674,0.22207 z m 36.6429,2.76209 c 2.12363,0.15271 2.63718,0.24985 2.81763,0.48581 0.11105,0.18045 0.52743,1.54067 0.92997,3.06747 0.16653,0.61072 0.34698,1.29084 0.41637,1.52677 0.0694,0.22207 0.37476,1.34633 0.68013,2.49838 0.30535,1.13815 0.62456,2.30408 0.694,2.56778 0.2637,0.87445 0.1943,1.26309 -0.34703,1.7905 -0.27759,0.27761 -1.61004,1.99871 -2.98417,3.83087 -2.49837,3.35894 -6.0655,8.0642 -8.8276,11.64526 -0.83282,1.06874 -1.61007,2.09584 -1.73498,2.29014 -0.61072,0.9022 -2.69269,3.5394 -2.81762,3.581 -0.0833,0.0278 -0.23597,-0.1943 -0.33314,-0.4719 -0.30536,-0.8467 -1.54066,-2.4012 -1.9154,-2.4012 -0.26374,0 -0.22211,0.22205 0.13879,0.5968 0.47192,0.5275 1.19367,1.79054 1.29083,2.2902 0.12492,0.6246 -0.13878,0.56906 -1.01324,-0.2221 -0.70789,-0.6246 -0.73564,-0.69395 -0.97159,-1.8321 -0.2637,-1.3325 -0.27762,-3.8725 -0.0555,-6.3154 0.20819,-2.1652 0.55516,-3.81695 1.61006,-7.7727 0.33312,-1.22144 0.8328,-3.09522 1.1104,-4.164 0.2776,-1.06873 0.5968,-2.29017 0.70788,-2.70655 0.77726,-2.94255 1.29084,-5.69075 1.63782,-8.79985 0.11102,-0.9855 0.26373,-1.83217 0.33313,-1.8738 0.1388,-0.0833 5.10779,0.1388 8.63327,0.38862 z m -50.8004,9.77145 c 0.4025,0.74951 0.43028,0.86057 0.347,1.73499 -0.12494,1.3186 -0.1388,1.33249 -0.86056,1.52679 -0.37476,0.11105 -0.91608,0.27759 -1.20754,0.38865 -0.30537,0.0972 -0.56907,0.16656 -0.61073,0.1388 -0.0694,-0.0833 0.80505,-2.45674 0.97159,-2.65107 0.0555,-0.0694 0.11104,-0.2082 0.11104,-0.30536 0,-0.22207 0.68013,-1.76277 0.74952,-1.69337 0.0278,0.0278 0.24985,0.41642 0.49968,0.86057 z m -0.45805,5.88507 c -0.0971,0.38866 -0.20819,0.74956 -0.2637,0.80503 -0.0972,0.0972 -1.58231,-1.0271 -1.54068,-1.1659 0.0417,-0.12491 1.76275,-0.52743 1.87378,-0.44415 0.0417,0.0555 0.0139,0.40253 -0.0694,0.80502 z m 57.78198,1.08261 c -0.2637,0.4997 -0.0694,1.01325 0.48584,1.23535 l 0.48578,0.2082 v 0.9299 c 0,0.8467 -0.0555,1.04104 -0.56909,1.9432 -0.52741,0.91614 -0.66623,1.041 -1.55454,1.52686 -1.47128,0.80499 -3.06747,2.02644 -4.48318,3.44214 -1.83216,1.83215 -2.9148,3.26184 -4.87186,6.3987 -0.0972,0.1526 -0.58298,1.0826 -1.09653,2.08195 -0.49965,0.98545 -0.92993,1.83215 -0.9577,1.85995 -0.0416,0.0277 -0.27759,-0.1388 -0.54132,-0.3748 -0.26373,-0.23594 -0.70789,-0.4997 -0.97159,-0.59684 -0.27762,-0.0972 -0.49966,-0.24982 -0.49966,-0.33316 0,-0.13877 1.79049,-2.4983 3.67816,-4.85794 0.23596,-0.3053 1.95706,-2.52613 3.83084,-4.92736 1.85989,-2.4012 3.45609,-4.4693 3.55325,-4.58033 0.0833,-0.11107 0.4303,-0.55517 0.7634,-0.97162 0.3331,-0.41639 1.09653,-1.41571 1.70725,-2.20685 0.5968,-0.80506 1.12426,-1.37415 1.152,-1.277 0.0278,0.0972 -0.0139,0.31923 -0.11105,0.49965 z m -70.62088,1.17981 c 1.92932,0.22214 4.84409,1.31861 6.20432,2.34571 l 0.33313,0.24988 -0.52744,1.37405 c -0.29147,0.74954 -0.61072,1.55453 -0.70789,1.7905 -0.0971,0.2221 -0.87442,2.2208 -1.7211,4.4416 -0.84667,2.2069 -1.59619,4.1501 -1.66558,4.3028 -0.0694,0.1526 -0.63848,1.58226 -1.24919,3.19236 -0.61072,1.5962 -1.1798,3.03968 -1.2492,3.19239 -0.0694,0.15265 -0.7634,1.92925 -1.54066,3.94189 -0.92995,2.4845 -1.5268,3.83081 -1.79051,4.13616 -0.22208,0.2498 -0.47193,0.72175 -0.56906,1.04097 -0.0833,0.31927 -0.24985,0.65243 -0.36089,0.73563 -0.29149,0.2082 -0.58296,1.70724 -0.4164,2.1931 0.0833,0.2498 0.37476,0.4996 0.91608,0.7911 0.44415,0.236 0.92994,0.61073 1.0965,0.8189 0.34701,0.4858 1.87379,1.624 3.70593,2.776 0.7634,0.4858 1.40188,0.9022 1.42963,0.9161 0.0278,0.0139 -0.1388,0.3331 -0.34699,0.7079 -0.22208,0.37474 -0.51355,0.9576 -0.66623,1.3047 -0.13881,0.34696 -0.45804,0.9022 -0.694,1.2491 -0.59683,0.83284 -0.95772,1.8461 -0.95772,2.6234 0,0.77725 0.55519,1.6794 1.91542,3.1646 0.47193,0.51353 1.24921,1.41575 1.73499,1.9848 0.48581,0.5691 1.01324,1.19365 1.17981,1.388 0.15268,0.1804 0.6107,0.7217 0.98547,1.1798 2.30405,2.8176 2.98416,3.7059 2.98416,3.87243 0,0.0972 -0.0971,0.26373 -0.20819,0.3609 -0.2637,0.22211 -0.2637,0.40253 0.0139,0.70787 0.20819,0.236 0.1943,0.29146 -0.20819,0.7495 -0.23596,0.2776 -0.4303,0.5552 -0.4303,0.6246 0,0.0555 -0.0416,0.20825 -0.0833,0.3193 -0.0416,0.111 0.0278,0.30534 0.15268,0.4302 0.22206,0.20827 0.27758,0.20827 0.86056,-0.12486 0.7634,-0.41639 0.9577,-0.4303 1.152,-0.0833 0.11106,0.2221 0.0833,0.3193 -0.22204,0.5275 -1.27696,0.90215 -1.72113,1.31853 -1.83216,1.7488 -0.13878,0.4997 -0.19433,0.4997 -1.55456,0.236 -2.66491,-0.5413 -4.01127,-0.9577 -5.70462,-1.8044 -2.33182,-1.1659 -3.58102,-2.0681 -5.66299,-4.0807 -3.34506,-3.24784 -6.27371,-7.73106 -8.67494,-13.26914 -0.29148,-0.65236 -0.58295,-1.30476 -0.65236,-1.4574 -0.59683,-1.30466 -2.47061,-7.07876 -2.6788,-8.30016 l -0.0972,-0.51356 h 0.91608 c 0.97158,0 1.45738,-0.16654 1.45738,-0.47194 0,-0.3609 -1.01323,-0.48577 -1.90154,-0.23595 -0.43028,0.12495 -0.45804,0.11105 -0.59685,-0.37475 -0.0694,-0.2776 -0.13879,-0.9161 -0.13879,-1.4157 0,-0.4997 -0.0694,-1.7767 -0.15268,-2.8454 -0.37476,-5.2189 -0.0833,-8.7166 1.06876,-12.42256 0.62458,-2.04028 0.68011,-2.19299 0.79115,-2.30408 0.0555,-0.0555 0.0971,-0.20813 0.0971,-0.34692 0,-0.33314 1.76274,-3.76147 2.55391,-4.98294 0.94382,-1.4296 3.37281,-3.83084 4.60813,-4.5665 2.69268,-1.5823 5.77403,-2.193 9.10519,-1.81824 z m 8.3002,3.59494 c 0,0.0416 0.22205,0.23594 0.48578,0.41636 0.26373,0.18048 0.48577,0.40254 0.48577,0.49969 0,0.0972 -0.1804,0.54135 -0.4025,0.98545 -0.22206,0.45803 -0.63845,1.49905 -0.91606,2.3457 -0.44416,1.29086 -0.54132,1.7627 -0.59684,3.0675 -0.0278,0.8744 0,1.846 0.0972,2.2485 0.0972,0.4858 0.11103,1.0688 0.0277,1.79053 -0.1943,1.56842 -0.43025,5.4964 -0.55516,8.86921 -0.0555,1.59616 -0.15268,2.9981 -0.20821,3.08136 -0.15268,0.2637 -0.68011,0.19433 -1.49904,-0.1804 -1.48514,-0.69406 -2.44285,-0.3609 -3.16461,1.0965 -0.19431,0.4025 -0.26372,0.4303 -0.97159,0.41635 -0.41639,0 -1.27694,-0.0555 -1.90155,-0.12485 -0.92994,-0.0833 -1.15202,-0.15273 -1.15202,-0.33315 0,-0.12495 0.74951,-2.09589 1.67946,-4.38605 0.91607,-2.2902 2.51227,-6.2598 3.53936,-8.8137 1.02713,-2.5539 1.92933,-4.77474 1.99872,-4.9274 0.0694,-0.15264 0.31924,-0.7495 0.54132,-1.3186 0.79114,-2.0681 1.8599,-4.6497 1.98482,-4.81634 0.12493,-0.15266 0.52745,-0.0972 0.52745,0.0833 z m 15.87857,5.38535 c 0.22208,0.90225 0.55521,2.19305 0.73563,2.88705 0.18045,0.6801 0.4303,1.62394 0.54132,2.082 0.12493,0.458 0.26373,1.0271 0.34703,1.26307 0.0694,0.22203 0.18044,0.69397 0.24983,1.04093 0.0694,0.33315 0.38861,1.61007 0.70787,2.8315 0.31923,1.22144 0.66622,2.5678 0.7634,2.9842 0.111,0.41644 0.36086,1.3602 0.56908,2.08197 0.1943,0.7218 0.41638,1.54063 0.48578,1.80443 0.0555,0.2637 0.19434,0.8328 0.31924,1.24915 0.77725,2.97035 1.19366,4.63585 1.16592,4.71918 -0.0278,0.0555 -0.18048,0.0555 -0.34702,-0.0138 -0.22207,-0.0833 -0.31924,-0.236 -0.31924,-0.4581 0,-0.9993 -1.56842,-7.8838 -2.08196,-9.1746 -0.0694,-0.15266 -0.30537,-0.9022 -0.54133,-1.6656 -0.24984,-0.76337 -0.48577,-1.5129 -0.5552,-1.6656 -0.0694,-0.15264 -0.3331,-0.8467 -0.58295,-1.5267 -0.51355,-1.4158 -1.17978,-2.8871 -2.35959,-5.2328 l -0.83279,-1.6378 0.44418,-1.27695 c 0.63846,-1.85995 0.6662,-1.91545 0.79114,-1.91545 0.0694,0 0.29147,0.73564 0.49966,1.62395 z m 62.54282,0.52745 c 5.38536,0.72176 10.36828,3.0397 15.36506,7.13423 1.7072,1.38807 4.52483,4.23337 5.9128,5.9823 0.94382,1.17977 3.02582,4.20557 3.7476,5.44092 1.48513,2.56775 3.52547,7.23138 4.3305,9.89635 0.19433,0.68007 0.4303,1.40187 0.4997,1.5962 0.2498,0.694 1.0826,4.41376 1.38796,6.1765 0.2637,1.5546 0.30536,2.31795 0.31924,5.55196 0,3.85864 -0.1388,5.14947 -0.8328,8.25854 -0.84667,3.7198 -2.52614,7.73114 -4.5526,10.82636 -1.34635,2.04028 -2.7482,3.67814 -4.33054,5.05224 -1.33246,1.1382 -1.37408,1.1798 -2.48449,1.9154 -4.71915,3.10914 -9.93799,3.7615 -16.37827,2.0543 -1.81827,-0.4858 -4.26114,-1.4713 -5.32986,-2.13754 -0.30536,-0.19436 -0.61072,-0.36086 -0.68012,-0.36086 -0.19432,0 -2.73434,-1.735 -4.01129,-2.73436 -1.98483,-1.56844 -4.24725,-3.58099 -7.09265,-6.32924 l -1.56842,-1.5129 0.66626,-0.79116 c 0.36088,-0.4303 0.69398,-0.80504 0.73562,-0.84668 0.29148,-0.26366 0.694,-0.91606 0.694,-1.12426 0,-0.51356 -0.49969,-0.2637 -1.52679,0.7773 -0.56909,0.56907 -1.11041,1.0271 -1.20755,1.04093 -0.0833,0 -0.6246,-0.76336 -1.20755,-1.70713 -2.85925,-4.6637 -4.96899,-9.32735 -6.31537,-13.90774 -0.15265,-0.54126 -0.37476,-1.3186 -0.49966,-1.73496 -0.24985,-0.8744 -0.66622,-2.98415 -0.92997,-4.7886 -0.37475,-2.5538 -0.15265,-11.77014 0.31925,-12.9499 0.0833,-0.1943 0.23596,-0.30534 0.45804,-0.30534 0.19433,0 0.51356,-0.0694 0.73566,-0.16656 0.20818,-0.0972 0.8883,-0.1666 1.49902,-0.1805 2.0542,-0.0277 2.69268,-0.55517 2.81758,-2.31786 l 0.0694,-0.92999 0.61073,0.0833 c 0.90219,0.12488 0.7634,-0.20826 -0.44415,-1.0271 -1.37412,-0.94386 -1.37412,-1.40192 0,-1.13816 1.37412,0.2498 1.5823,-0.19436 0.38864,-0.79116 -0.44416,-0.22211 -0.81892,-0.40254 -0.8328,-0.41638 -0.0277,0 0.0139,-0.19436 0.0833,-0.4303 0.1943,-0.66626 0.0139,-1.15206 -0.694,-1.8877 -0.37475,-0.38861 -0.6801,-0.74951 -0.6801,-0.80506 0,-0.1388 1.4435,-2.27624 1.90154,-2.8176 1.54068,-1.84597 3.13686,-3.33113 4.42766,-4.15004 l 0.583,-0.3609 0.1388,0.37474 c 0.1943,0.4997 1.67943,5.08 2.31792,7.1759 0.27758,0.9161 0.55518,1.79054 0.6246,1.9432 0.0694,0.1527 0.27758,0.83276 0.48581,1.5268 0.20819,0.6801 0.45801,1.499 0.55517,1.80437 0.11103,0.30533 0.51356,1.58227 0.9022,2.8454 0.38864,1.26303 0.8328,2.66493 0.97158,3.12298 0.15268,0.45801 0.4997,1.55455 0.7634,2.42895 0.27762,0.87446 0.77728,2.4429 1.11038,3.47 0.33314,1.0271 0.76344,2.42893 0.97162,3.12296 0.19432,0.68014 0.43027,1.37409 0.52742,1.5268 0.11104,0.18044 0.13878,0.94384 0.12493,2.33179 -0.0416,1.98485 -0.0416,2.06811 0.33313,2.78991 0.5968,1.19361 1.69334,2.44284 2.48449,2.84534 0.87442,0.4303 2.04035,0.5413 2.73432,0.2499 0.56909,-0.236 1.11041,-0.9578 1.48517,-1.9849 0.26373,-0.76335 0.37476,-0.7911 1.40186,-0.4025 0.34698,0.13884 0.99935,0.2498 1.47124,0.2498 1.4574,0.0139 2.34571,-0.805 2.76212,-2.56774 0.29147,-1.27696 0.2637,-1.81826 -0.22208,-2.95643 -0.33313,-0.80503 -0.62458,-1.22143 -1.388,-1.9848 -0.77725,-0.77728 -1.0271,-1.13813 -1.31858,-1.91546 -0.31924,-0.84667 -1.15203,-3.02577 -1.81826,-4.70527 -0.11102,-0.30535 -0.29147,-0.7773 -0.38864,-1.04095 -0.49966,-1.33255 -1.3741,-3.56715 -1.47128,-3.81702 -0.18042,-0.41638 -1.11035,-2.85923 -1.23529,-3.26173 -0.0694,-0.1943 -0.24983,-0.694 -0.41639,-1.1104 -0.16656,-0.41644 -0.45806,-1.2076 -0.65237,-1.73504 -0.1943,-0.54126 -0.47189,-1.23526 -0.61072,-1.55451 -0.15268,-0.31925 -0.2637,-0.65235 -0.2637,-0.73565 0,-0.0694 -0.0555,-0.2498 -0.13879,-0.3886 -0.0694,-0.12496 -0.27762,-0.6385 -0.47193,-1.13814 -0.58293,-1.58236 -2.30407,-6.02392 -3.16461,-8.23086 -0.23596,-0.5968 -0.37476,-1.12424 -0.33312,-1.1797 0.1804,-0.1805 1.80437,-0.41647 2.99804,-0.4303 0.65234,0 1.90156,0.0833 2.776,0.1943 z m -8.38349,1.13814 c 0.11105,0.2915 0.26375,0.65236 0.33313,0.80506 0.0694,0.1527 0.69402,1.6517 1.38802,3.33117 1.19365,2.85923 1.6378,3.91413 1.94316,4.58033 0.0694,0.1527 0.694,1.624 1.40186,3.26183 0.69403,1.63782 1.34638,3.16457 1.44354,3.40051 0.11102,0.22211 0.44414,1.04102 0.76337,1.80446 0.31924,0.76335 0.66627,1.56835 0.77727,1.8043 0.0972,0.2221 0.74952,1.7628 1.4574,3.40064 0.69398,1.63782 1.5823,3.69202 1.94318,4.55262 0.37476,0.86054 0.68012,1.6239 0.68012,1.70724 0,0.0694 -0.22208,0.1249 -0.48578,0.1249 -0.98548,0 -1.97095,0.916 -2.30408,2.1514 -0.20819,0.7772 -0.23596,0.80497 -0.6246,0.4996 -0.79117,-0.62456 -1.98484,-0.8189 -3.03971,-0.4996 -0.24981,0.0694 -0.30535,0 -0.458,-0.65237 -0.19433,-0.83283 -0.33313,-1.36023 -0.63849,-2.47063 -0.52744,-1.9293 -0.9577,-3.5394 -1.388,-5.20497 -0.2637,-0.99933 -0.61072,-2.30407 -0.77729,-2.91479 -0.38861,-1.4574 -0.9577,-3.63654 -1.85989,-7.21754 -0.41641,-1.61004 -0.8883,-3.3867 -1.05486,-3.95574 -0.16654,-0.56909 -0.45805,-1.61011 -0.6246,-2.29022 -0.24983,-0.98547 -1.05488,-3.84474 -1.55455,-5.51034 -0.0694,-0.23594 0.54132,-0.62455 1.61008,-1.0132 0.74951,-0.2776 0.84667,-0.24984 1.06872,0.30534 z m -57.76809,9.591 c 1.12427,2.9148 3.12298,10.36826 2.84537,10.63202 -0.0416,0.0416 -0.4719,0.0139 -0.95771,-0.0556 -0.49966,-0.0694 -1.77662,-0.222 -2.84536,-0.34697 -3.83086,-0.44413 -4.30276,-0.49969 -4.42771,-0.62457 -0.30535,-0.30536 0.90222,-3.46996 3.76148,-9.85476 0.63845,-1.41575 0.72174,-1.55454 0.87442,-1.4574 0.0694,0.0417 0.40252,0.8051 0.74951,1.70724 z m 29.36984,6.50971 c 0,0.0417 -0.11102,0.20819 -0.23596,0.34698 -0.16657,0.18042 -0.24982,0.54132 -0.2637,1.09647 -0.0139,0.4997 -0.12491,0.97165 -0.26371,1.17984 -0.2915,0.45801 -2.24853,2.37341 -2.7066,2.67886 -0.49966,0.3192 -3.52548,2.69266 -3.63653,2.8453 -0.0555,0.0833 -0.1249,0.1111 -0.18043,0.0694 -0.0416,-0.0416 0.47193,-0.805 1.13813,-1.67944 4.56653,-5.98226 4.96902,-6.48186 5.31604,-6.53741 0.5968,-0.0971 0.83276,-0.0971 0.83276,0 z m -45.24844,0.79115 c 0,0.37474 -0.30536,0.55516 -0.52744,0.3331 -0.11102,-0.1111 -0.11102,-0.23595 -0.0139,-0.41637 0.19432,-0.3609 0.54131,-0.31927 0.54131,0.0833 z m -1.52678,0.5691 c -0.0972,0.12485 -0.20821,0.1804 -0.24983,0.1388 -0.0417,-0.0278 0.0139,-0.15274 0.11102,-0.2776 0.0972,-0.12496 0.2082,-0.18044 0.24985,-0.1388 0.0416,0.0277 -0.0139,0.15264 -0.11104,0.2776 z m 14.99028,3.31724 c 0.87442,0.12496 2.42898,0.27756 3.42834,0.37476 1.05487,0.0833 1.90152,0.23595 1.97092,0.3192 0.16656,0.19434 0.48581,2.15143 0.37478,2.26246 -0.0417,0.0416 -0.24984,0.0139 -0.45803,-0.0694 -1.11042,-0.41636 -6.81504,-2.76206 -7.051,-2.91476 -0.37475,-0.2221 -0.1943,-0.2082 1.73499,0.0277 z m -14.15749,0.65236 c 0,0.27757 -0.2082,0.3609 -0.347,0.1249 -0.12491,-0.2082 0.0416,-0.59684 0.20819,-0.48576 0.0694,0.0416 0.13881,0.20819 0.13881,0.36086 z m 1.24919,0.694 c 0,0.1666 -0.0972,0.26374 -0.2776,0.26374 -0.30536,0 -0.36089,-0.27758 -0.11104,-0.52744 0.20819,-0.2082 0.38864,-0.0833 0.38864,0.2637 z m 13.78272,2.2763 c 4.62202,2.3318 4.77469,2.429 4.39992,3.1091 -0.0833,0.16655 -0.24984,0.2915 -0.36086,0.2915 -0.12491,0 -1.51291,-0.4303 -3.08134,-0.9577 -1.5823,-0.5275 -3.51162,-1.15205 -4.2889,-1.388 l -1.42963,-0.44417 v -1.36023 c 0,-1.2492 0.0694,-1.6101 0.26373,-1.51293 0.0416,0.0278 2.06812,1.04103 4.49708,2.26243 z m -16.00351,-0.4025 c 0.49969,0.1249 1.06875,0.2498 1.29083,0.29143 0.2082,0.0417 0.41641,0.12497 0.45804,0.19434 0.15268,0.24988 -0.11104,0.66623 -0.49967,0.80503 -0.23596,0.0694 -0.56909,0.3054 -0.74951,0.5275 -0.31924,0.37474 -0.33313,0.37474 -0.92996,0.1804 -0.77728,-0.23595 -1.9293,-0.80505 -1.9293,-0.94384 0,-0.13879 1.15202,-1.23536 1.31858,-1.24921 0.0833,-0.0138 0.54132,0.0833 1.04099,0.19435 z m 13.18591,4.38604 c 0.72174,0.23596 1.44352,0.47192 1.59619,0.54132 0.15268,0.0555 1.34635,0.44414 2.63718,0.86054 1.55453,0.48583 2.35955,0.8189 2.37345,0.94384 0,0.11102 0.0972,0.36086 0.19433,0.56909 0.13879,0.30527 0.15267,0.47193 0.0277,0.73557 -0.13879,0.29153 -0.12491,0.4164 0.0278,0.6663 0.27759,0.4164 0.29146,1.8182 0.0139,2.7343 -0.12491,0.41644 -0.27763,0.94385 -0.34703,1.1798 -0.2637,1.01326 -0.37475,1.15205 -0.97158,1.2492 -0.40249,0.0694 -0.63846,0.0416 -0.80502,-0.0972 -0.12494,-0.11108 -1.01325,-0.69395 -1.95706,-1.29085 -1.70724,-1.0826 -1.7211,-1.0965 -1.29084,-1.20756 0.23597,-0.0694 0.47193,-0.18044 0.52744,-0.27759 0.16656,-0.24982 -0.38864,-0.55515 -0.91608,-0.48575 -0.65234,0.0694 -1.23529,-0.4164 -1.55453,-1.31863 -0.12493,-0.38861 -0.34703,-0.86054 -0.48581,-1.06873 -0.56909,-0.83284 -1.01325,-2.47064 -1.01325,-3.7337 0,-0.69397 -0.22204,-0.69397 1.94321,0 z m 21.56937,5.7185 c 0.15265,1.17981 -0.1388,2.31796 -0.74951,2.97036 -0.30536,0.3192 -0.30536,0.3192 -0.61072,0.0555 -0.15272,-0.13879 -0.81892,-0.72176 -1.47132,-1.27692 -0.65234,-0.56909 -1.17974,-1.08264 -1.17974,-1.15209 0,-0.0693 0.69397,-0.34695 1.52679,-0.61065 0.84665,-0.26374 1.67945,-0.5275 1.87378,-0.5969 0.19427,-0.0555 0.38861,-0.12485 0.43024,-0.12485 0.0555,-0.0139 0.13879,0.31921 0.18048,0.73559 z m -4.38605,3.48386 c 2.60938,1.8738 2.47058,1.735 2.2624,2.41507 -0.2637,0.88837 -0.61073,1.42969 -1.12428,1.77667 -0.58294,0.40253 -1.13812,0.40253 -2.01257,-0.0138 -1.3186,-0.62465 -1.24921,-0.4442 -1.26305,-3.12306 0,-2.23464 0.0138,-2.37344 0.2498,-2.29014 0.1388,0.0416 0.98548,0.59684 1.8877,1.2353 z"
           id="path2"
           inkscape:connector-curvature="0" />
      </g>
      <g
         style="fill:#000000;fill-opacity:1;stroke-linejoin:miter"
         id="g8">
        <path
           d="m 280.72775,390.52844 c 0,0.13883 0.26371,0.34702 0.34702,0.27762 0.0138,-0.0278 -0.0417,-0.13879 -0.15271,-0.23596 -0.11102,-0.0972 -0.19431,-0.11105 -0.19431,-0.0417 z"
           id="path6"
           inkscape:connector-curvature="0" />
      </g>
    </g>
  </g>
</svg>
