<?xml version="1.0" encoding="UTF-8" standalone="no"?>
<svg
   xmlns:dc="http://purl.org/dc/elements/1.1/"
   xmlns:cc="http://creativecommons.org/ns#"
   xmlns:rdf="http://www.w3.org/1999/02/22-rdf-syntax-ns#"
   xmlns:svg="http://www.w3.org/2000/svg"
   xmlns="http://www.w3.org/2000/svg"
   xmlns:sodipodi="http://sodipodi.sourceforge.net/DTD/sodipodi-0.dtd"
   xmlns:inkscape="http://www.inkscape.org/namespaces/inkscape"
   version="1.1"
   width="92.373672"
   height="72.134697"
   viewBox="0 0 92.373672 72.134697"
   id="svg7"
   sodipodi:docname="man jumping with skateboard.svg"
   inkscape:version="0.92.4 (5da689c313, 2019-01-14)">
  <metadata
     id="metadata13">
    <rdf:RDF>
      <cc:Work
         rdf:about="">
        <dc:format>image/svg+xml</dc:format>
        <dc:type
           rdf:resource="http://purl.org/dc/dcmitype/StillImage" />
        <dc:title></dc:title>
      </cc:Work>
    </rdf:RDF>
  </metadata>
  <defs
     id="defs11" />
  <sodipodi:namedview
     pagecolor="#ffffff"
     bordercolor="#666666"
     borderopacity="1"
     objecttolerance="10"
     gridtolerance="10"
     guidetolerance="10"
     inkscape:pageopacity="0"
     inkscape:pageshadow="2"
     inkscape:window-width="1920"
     inkscape:window-height="1048"
     id="namedview9"
     showgrid="false"
     fit-margin-top="0"
     fit-margin-left="0"
     fit-margin-right="0"
     fit-margin-bottom="0"
     inkscape:zoom="5.4713836"
     inkscape:cx="31.026341"
     inkscape:cy="52.78352"
     inkscape:window-x="0"
     inkscape:window-y="0"
     inkscape:window-maximized="1"
     inkscape:current-layer="svg7" />
  <g
     id="layer1"
     transform="translate(-199.63087,-449.6316)">
    <g
       style="fill:#000000;fill-opacity:1;stroke-linejoin:miter"
       id="g4">
      <path
         d="m 236.30295,483.5639 c 0.0416,3.4e-4 0.15051,0.048 0.23334,0.10587 0.088,0.058 0.37785,0.2684 0.64688,0.47343 1.0141,0.7677 1.51608,1.13588 1.74907,1.28862 0.13989,0.0844 0.32621,0.21592 0.42451,0.28955 0.24838,0.18409 1.34618,0.89518 1.38263,0.89545 0.0156,1.2e-4 0.0881,0.0475 0.16577,0.10016 0.0776,0.0579 0.29022,0.1532 0.47189,0.2171 0.18692,0.0587 0.38411,0.13309 0.44114,0.15955 0.0571,0.0264 0.22325,0.0694 0.36352,0.10167 0.14545,0.0324 0.36887,0.081 0.50394,0.1132 0.1351,0.0271 0.63968,0.057 1.11847,0.0607 0.47877,0.004 0.95733,0.0335 1.05597,0.0655 0.0986,0.032 0.32208,0.0753 0.49365,0.0975 0.3483,0.0496 1.00818,0.19 1.40283,0.30233 0.14545,0.0376 0.38956,0.1019 0.54544,0.13437 0.31168,0.07 0.46233,0.10767 0.8569,0.23041 0.14539,0.0428 0.49338,0.13397 0.77912,0.19862 0.28572,0.0647 0.60266,0.13475 0.70135,0.16155 0.31165,0.0753 0.92508,0.16333 1.15924,0.16515 0.003,4e-5 0.006,4e-5 0.009,4e-5 0.46173,0 1.42989,-0.26199 2.30643,-0.62744 0.22164,-0.0893 0.43516,-0.13446 0.61524,-0.13446 0.18046,0 0.32732,0.0454 0.41517,0.13724 0.0724,0.0682 0.12889,0.16235 0.12853,0.20922 -7.8e-4,0.0989 -0.15713,0.79505 -0.19965,0.90918 -0.207,0.51882 -0.20705,0.52405 -0.23784,2.48066 -0.0692,4.23059 -0.13139,6.20256 -0.19437,6.26971 -0.0367,0.031 -0.0689,0.16083 -0.0699,0.28565 -0.002,0.1978 -0.0662,0.48358 -0.20494,0.9248 -0.0427,0.13504 -0.27498,0.55997 -0.433,0.80334 -0.14221,0.21746 -0.43359,0.88141 -0.47683,1.08924 -0.027,0.12988 -0.0753,0.31689 -0.1125,0.41549 -0.096,0.29587 -0.20959,0.85183 -0.29235,1.45493 -0.022,0.15598 -0.0759,0.38977 -0.11322,0.50912 -0.0586,0.17648 -0.0649,0.31698 -0.0311,0.6503 0.0731,0.64594 0.0686,1.90012 -0.006,2.15461 -0.0482,0.17654 -0.0488,0.25457 0.0174,0.44247 0.0407,0.1252 0.0751,0.38052 0.0737,0.5679 -0.002,0.30695 0.0179,0.36957 0.1519,0.5424 0.20092,0.2618 0.2363,0.40255 0.1307,0.59426 -0.0475,0.0881 -0.12149,0.22809 -0.169,0.31616 -0.0634,0.12442 -0.0862,0.38448 -0.1037,1.29518 -0.0256,1.31444 -0.0466,1.40718 -0.40319,1.40718 -0.006,0 -0.0125,-3e-5 -0.0189,-8e-5 -0.23416,-0.002 -0.36926,-0.0342 -0.81543,-0.21455 -0.15567,-0.0584 -0.41513,-0.15408 -0.5708,-0.21258 -0.15573,-0.0533 -0.35291,-0.12763 -0.44111,-0.16474 -0.14526,-0.0584 -0.47738,-0.18073 -1.24541,-0.46763 -0.17127,-0.0638 -0.35285,-0.13802 -0.39945,-0.16445 -0.0518,-0.0317 -0.11931,-0.053 -0.15054,-0.0532 -0.0312,-2.3e-4 -0.12982,-0.0374 -0.21796,-0.0798 -0.0934,-0.0423 -0.34241,-0.13794 -0.55524,-0.20728 -0.36853,-0.1278 -1.21957,-0.45188 -1.79026,-0.68008 -0.14006,-0.0584 -0.31654,-0.11698 -0.38932,-0.13315 -0.0728,-0.0109 -0.17657,-0.043 -0.23362,-0.0694 -0.0571,-0.0213 -0.3736,-0.1434 -0.70053,-0.26572 -1.07422,-0.39862 -1.16245,-0.43052 -1.52549,-0.58945 -0.19714,-0.0848 -0.38916,-0.15393 -0.42558,-0.15423 -0.0625,-4.6e-4 -0.39445,-0.13837 -0.65364,-0.2705 -0.0519,-0.0264 -0.11934,-0.0477 -0.15057,-0.048 -0.0676,-4.8e-4 -0.95989,-0.377 -1.21383,-0.51427 -0.0829,-0.0422 -0.32678,-0.13785 -0.52923,-0.20709 -0.20767,-0.0692 -0.4204,-0.14896 -0.46706,-0.17536 -0.0518,-0.0264 -0.30092,-0.11678 -0.56044,-0.2073 -0.97066,-0.33023 -2.02412,-0.71823 -2.07063,-0.76028 -0.031,-0.0263 -0.11414,-0.0477 -0.18698,-0.0483 -0.0729,-5.4e-4 -0.15595,-0.022 -0.18697,-0.0483 -0.0258,-0.0262 -0.24375,-0.11117 -0.48778,-0.18594 -0.244,-0.08 -0.48788,-0.17036 -0.54492,-0.19676 -0.057,-0.0265 -0.24386,-0.0956 -0.4152,-0.149 -0.17132,-0.0585 -0.40484,-0.14362 -0.51897,-0.19135 -0.11406,-0.053 -0.60188,-0.23365 -1.08455,-0.40393 -0.92384,-0.32977 -1.01713,-0.37738 -1.01601,-0.52312 5.5e-4,-0.0728 0.0528,-0.0985 0.25069,-0.1126 0.10541,-0.008 0.25658,-0.0117 0.43156,-0.0117 0.54258,0 1.31409,0.0354 1.66001,0.0853 0.24437,0.033 0.71756,0.0836 1.05557,0.11742 0.18584,0.0169 0.33245,0.0267 0.45088,0.0267 0.31912,0 0.43386,-0.0709 0.5606,-0.26346 0.0842,-0.12423 0.0905,-0.25952 0.0821,-1.18596 -0.003,-0.9212 0.003,-1.06684 0.0877,-1.23793 0.0687,-0.14001 0.14208,-0.20709 0.24111,-0.22717 0.21892,-0.0399 0.29276,-0.16424 0.34812,-0.59057 0.0277,-0.21839 0.0815,-0.44173 0.11316,-0.50397 0.0317,-0.057 0.0593,-0.25974 0.0607,-0.4419 0.001,-0.18731 0.0347,-0.45251 0.0774,-0.58749 0.0428,-0.14014 0.10719,-0.39467 0.13971,-0.56613 0.0704,-0.3534 0.14017,-0.62348 0.25207,-0.96088 0.0427,-0.12979 0.0803,-0.28561 0.0808,-0.34806 0.007,-0.1977 -0.2192,-0.5898 -0.52368,-0.92522 -0.38186,-0.41416 -0.42801,-0.50815 -0.47143,-0.94568 -0.0336,-0.35935 -0.0928,-0.7814 -0.17725,-1.3025 -0.0197,-0.14584 -0.0653,-0.3075 -0.0961,-0.36498 -0.0307,-0.0575 -0.10214,-0.24542 -0.16846,-0.41767 -0.0611,-0.17227 -0.14267,-0.39145 -0.18359,-0.48545 -0.0357,-0.094 -0.0812,-0.26604 -0.10104,-0.39104 -0.0295,-0.21886 -0.10001,-0.52646 -0.22666,-0.97504 -0.086,-0.31292 -0.0835,-1.30694 0.013,-1.67052 0.0591,-0.2389 0.0602,-0.3742 0.016,-0.71803 -0.0346,-0.22927 -0.076,-0.94259 -0.0971,-1.5777 -0.0513,-1.44201 -0.0653,-1.64505 -0.13673,-1.82775 -0.0306,-0.0835 -0.0537,-0.45844 -0.0508,-0.83832 0.005,-0.6349 0.0158,-0.69724 0.12628,-0.84735 0.15776,-0.21213 0.35681,-0.37195 0.45572,-0.37635 z m 52.58267,-33.9323 c -0.0653,0 -0.13538,0.0276 -0.16699,0.0631 -0.0368,0.0413 -0.13605,0.0926 -0.21945,0.10764 -0.0834,0.0201 -0.15128,0.0508 -0.15148,0.0769 -2.3e-4,0.026 -0.0526,0.062 -0.11516,0.0824 -0.0678,0.0203 -0.26134,0.14366 -0.43408,0.27244 -0.46072,0.35553 -1.0726,0.73593 -1.30218,0.81219 -0.11481,0.0408 -0.43286,0.11634 -0.70392,0.17147 -0.27631,0.0551 -0.60468,0.1254 -0.73499,0.15046 -0.13031,0.025 -0.39607,0.0698 -0.59924,0.0995 -0.35953,0.0492 -0.48978,0.0691 -1.19873,0.21445 -0.42218,0.0852 -1.0949,0.26217 -1.16812,0.30843 -0.0261,0.0154 -0.15128,0.0457 -0.27638,0.0707 -0.22933,0.0451 -1.61156,0.44025 -2.1281,0.60797 -0.15653,0.0508 -0.41736,0.13205 -0.57385,0.18288 -0.30785,0.0965 -0.3862,0.1376 -1.17575,0.61546 -0.79487,0.48306 -1.46885,0.82129 -1.93314,0.9686 -0.22958,0.0763 -0.46446,0.15774 -0.52191,0.18329 -0.10962,0.046 -0.86103,0.30038 -1.56549,0.53955 -0.22956,0.0763 -0.78266,0.2593 -1.2262,0.41198 -0.44354,0.15274 -1.12706,0.37642 -1.51316,0.50354 -1.48187,0.48808 -3.06323,1.05868 -3.54894,1.28394 -0.15668,0.0716 -0.48603,0.25641 -0.73188,0.41586 -0.39221,0.24678 -1.18168,0.70902 -2.66635,1.56143 -0.55929,0.3183 -0.84106,0.41505 -1.46118,0.51429 -0.70865,0.10904 -2.38608,0.31979 -2.99539,0.37231 -0.28644,0.029 -0.61462,0.0681 -0.72931,0.0932 -0.34109,0.0814 -3.95807,0.21243 -5.3606,0.21243 -0.24835,0 -0.42725,-0.004 -0.50627,-0.0133 -0.15081,-0.0168 -0.7333,-0.0629 -1.28996,-0.0933 -1.09241,-0.0657 -1.28467,-0.10368 -2.00052,-0.40584 l -0.4617,-0.19096 -1.43628,-0.0164 c -0.38159,-0.004 -0.6625,-0.008 -0.87457,-0.008 -0.54565,0 -0.63559,0.0213 -0.81235,0.0987 -0.15693,0.0707 -0.28636,0.10623 -0.40973,0.10623 -0.1353,0 -0.26332,-0.0427 -0.41238,-0.12823 -0.18139,-0.10025 -0.25359,-0.18413 -0.31992,-0.35636 -0.0459,-0.12005 -0.0812,-0.26605 -0.0808,-0.31292 4.1e-4,-0.0521 -0.0399,-0.22405 -0.0958,-0.39102 -0.0508,-0.16178 -0.14194,-0.48513 -0.20261,-0.71457 -0.17215,-0.62066 -0.26392,-0.86596 -0.4234,-1.10663 -0.24176,-0.36621 -1.01257,-0.96546 -1.54166,-1.19333 -0.12964,-0.0583 -0.26959,-0.13223 -0.31097,-0.1638 -0.11374,-0.0945 -0.57622,-0.1866 -1.26788,-0.25438 -0.23354,-0.0227 -0.39618,-0.0344 -0.54006,-0.0344 -0.17973,0 -0.3302,0.0184 -0.55305,0.0571 -1.55823,0.27936 -2.81409,1.15436 -3.33329,2.33692 -0.29661,0.66386 -0.4653,1.61492 -0.48446,2.73892 -2.2e-4,0.0279 -8.4e-4,0.0556 -0.002,0.0828 v 0 q -0.0414,-8.8e-4 -0.0852,-0.002 h -0.0106 q 0.006,-0.004 -0.0223,-0.004 -0.12464,0 -0.91794,0.0717 -0.11334,0.003 -0.95634,0.16904 l -0.71851,0.0688 q -0.0634,0.002 -0.20111,0.044 h -0.002 l -0.19248,0.022 -0.87869,0.13926 -0.76813,0.0901 q -0.32905,0.0486 -0.52238,0.0925 -0.34087,0.083 -0.6671,0.23108 v 0 q -0.11421,-0.0191 -0.20354,-0.0391 -0.1311,-0.0281 -0.23556,-0.0774 -0.0811,-0.0346 -0.25789,-0.15783 -0.0546,-0.0307 -0.11713,-0.0531 -0.0454,-0.016 -0.0928,-0.0231 -0.14773,-0.003 -0.27797,-0.0287 l -0.004,-2e-5 q -0.009,-0.001 -0.0173,-0.001 -0.11532,0 -0.11607,0.1955 -0.006,0.0772 -0.007,0.17029 h -0.002 c -0.20451,0.0263 -0.42374,0.0563 -0.56497,0.0769 -0.19803,0.0297 -0.45847,0.0589 -0.573,0.0684 -0.11456,0.004 -0.44273,0.0434 -0.72934,0.088 -0.28658,0.0446 -0.71901,0.10376 -0.96378,0.12787 -0.66143,0.0625 -1.66168,0.19006 -1.92752,0.24523 -0.64642,0.1355 -4.35322,0.30973 -7.49704,0.35292 -1.15028,0.0171 -2.04052,0.057 -2.47293,0.1109 -2.66192,0.32284 -2.56811,0.30798 -3.23063,0.51104 -0.22957,0.071 -0.43833,0.1475 -0.46972,0.16809 -0.0262,0.0258 -0.39178,0.18427 -0.80946,0.35798 -0.41771,0.17377 -0.83018,0.34747 -0.92418,0.38837 -0.49597,0.21987 -3.00044,1.194 -3.06936,1.194 -4e-5,0 -5e-5,0 -7e-5,0 -1e-5,0 -3e-5,0 -3e-5,0 -0.0371,0 -1.1275,0.4129 -1.69644,0.6478 -0.44372,0.1787 -0.87231,0.41478 -1.07144,0.5902 -0.0576,0.0516 -0.37709,0.30414 -0.70699,0.567 -1.18348,0.93797 -1.36155,1.08232 -1.36189,1.12398 -1.5e-4,0.0208 -0.0996,0.1033 -0.21997,0.18042 -0.12552,0.0823 -0.40323,0.32474 -0.62872,0.5416 l -0.39861,0.3976 -0.0496,0.35877 c -0.0223,0.19757 -0.0475,0.75421 -0.0513,1.24341 -0.007,0.87427 -0.007,0.88986 0.14183,1.17209 0.31784,0.62179 0.57611,0.87356 1.14152,1.11221 0.28661,0.12137 0.56064,0.18146 0.81606,0.18146 0.44725,0 0.83748,-0.18424 1.13841,-0.54626 0.12612,-0.15513 0.26788,-0.31538 0.31506,-0.36188 0.40924,-0.42353 1.64292,-1.79834 1.88999,-2.11386 l 0.18393,-0.2276 0.006,-0.79624 c 0.004,-0.5152 0.0271,-0.81164 0.0638,-0.84778 0.0577,-0.0568 0.86078,-0.26916 2.31019,-0.60138 0.38064,-0.0907 1.01645,-0.2055 1.40718,-0.25451 0.39068,-0.049 1.08354,-0.13733 1.54199,-0.1962 0.4845,-0.0639 1.33325,-0.125 2.03084,-0.1456 1.1764,-0.0325 1.4889,-0.0613 2.1614,-0.20703 0.18766,-0.0402 0.50564,-0.10535 0.70374,-0.15067 0.71336,-0.14816 2.31981,-0.31967 3.03981,-0.31967 0.0113,0 0.0224,4e-5 0.0333,1.4e-4 0.50479,0.004 1.24831,0.0929 1.63789,0.18962 0.15579,0.0428 0.57669,0.12938 0.93527,0.19461 0.35859,0.0653 0.73276,0.13581 0.83145,0.16257 0.31684,0.0805 1.39832,0.20862 2.3398,0.27838 0.49936,0.0351 1.0766,0.0916 1.27414,0.11917 0.40548,0.0604 0.88904,0.11618 2.49594,0.27438 1.24294,0.11897 1.8928,0.20725 2.16288,0.27704 0.10385,0.032 0.31166,0.0804 0.46759,0.1077 0.34814,0.0703 1.04786,0.43491 2.10965,1.09366 1.93197,1.19637 1.82849,1.11752 4.21975,3.48321 1.68366,1.66809 1.76621,1.76239 1.93564,2.06036 0.19324,0.34333 0.22145,0.44163 0.038,0.44163 -0.0456,0 -0.1042,-0.006 -0.17662,-0.016 -0.1664,-0.0221 -0.36377,-0.0705 -0.44153,-0.11274 -0.0777,-0.0422 -0.16075,-0.0741 -0.18676,-0.0743 -0.026,-2.2e-4 -0.26981,-0.10621 -0.5342,-0.23836 -0.45109,-0.2169 -0.60658,-0.30135 -1.2386,-0.67577 -0.75116,-0.44818 -0.9017,-0.49621 -1.86899,-0.59216 -0.56613,-0.0559 -0.87887,-0.0843 -1.135,-0.0843 -0.26145,0 -0.4639,0.0296 -0.81666,0.09 -1.14125,0.19414 -1.45431,0.29582 -1.75827,0.56926 -0.18344,0.16514 -0.99917,1.32977 -1.2578,1.79614 -0.39586,0.70993 -0.37987,0.66324 -0.41137,1.3708 -0.0188,0.40575 -0.006,0.75457 0.0295,0.90056 0.0657,0.25554 0.008,0.93684 -0.13779,1.65912 -0.184,0.90932 -0.21308,1.30462 -0.15658,2.07012 0.0615,0.7967 0.15523,1.4584 0.30559,2.19862 0.1053,0.51605 0.24681,1.72978 0.24366,2.13568 0.004,0.14572 0.0233,0.35404 0.0484,0.46875 0.02,0.11469 0.10048,0.46395 0.16569,0.78192 0.17081,0.78717 0.28812,1.76653 0.33225,2.78693 0.0172,0.4737 0.0686,1.22354 0.10678,1.6662 0.0382,0.4427 0.0695,1.10388 0.0719,1.4682 l -0.005,0.6557 0.28334,0.3769 c 0.21628,0.29314 0.29317,0.4447 0.33304,0.6739 0.0299,0.16163 0.0856,0.37028 0.12649,0.46418 0.0409,0.0941 0.076,0.27127 0.0751,0.39096 -0.002,0.19773 -0.028,0.24958 -0.2324,0.44056 -0.29886,0.2787 -0.33664,0.45538 -0.17296,0.82092 0.11263,0.24548 0.14875,0.28218 0.35134,0.33584 0.12466,0.0322 0.25446,0.0696 0.2908,0.0804 0.0363,0.0158 0.1135,0.13092 0.16976,0.25625 0.12269,0.28723 0.10145,0.33908 -0.33011,0.96023 -0.34743,0.5022 -0.87714,1.02888 -1.19062,1.1878 -0.11493,0.0564 -0.35469,0.10133 -0.58378,0.1152 -0.2135,0.0139 -0.57831,0.0788 -0.80777,0.13942 -0.22949,0.0659 -0.5737,0.16211 -0.77194,0.21781 -0.2399,0.0658 -0.46981,0.18367 -0.7367,0.37423 -0.21445,0.15427 -0.41301,0.27756 -0.43925,0.27756 -2e-5,0 -5e-5,0 -6e-5,0 -0.026,-1.8e-4 -0.30605,-0.13245 -0.6119,-0.29095 -0.62719,-0.3223 -0.8713,-0.38672 -1.714,-0.44001 -0.12967,-0.008 -0.25163,-0.0125 -0.36601,-0.0125 -0.78043,0 -1.20815,0.19475 -1.32476,0.59785 -0.0696,0.25445 -0.0759,1.0559 -0.006,1.44677 0.0997,0.56805 0.30011,0.89749 1.1409,1.86683 1.20708,1.3885 1.86285,2.05452 2.35985,2.3915 0.93707,0.63693 2.54373,1.49774 3.07864,1.64236 0.88806,0.24114 0.99668,0.33042 0.93097,0.75154 -0.0492,0.29625 -0.0858,0.33236 -0.42444,0.3714 -0.39071,0.0438 -0.90196,0.20635 -1.00174,0.3201 -0.30444,0.3307 -0.5317,0.7817 -0.53384,1.0575 -0.002,0.2342 0.15521,0.78706 0.28874,1.02235 0.22597,0.38685 0.31413,0.42915 0.95421,0.43415 0.0185,10e-5 0.0367,2.4e-4 0.0546,2.4e-4 0.61105,0 0.86942,-0.0848 1.12447,-0.37104 0.17848,-0.19634 0.35946,-0.7154 0.4151,-1.17816 0.0722,-0.58236 0.16644,-0.65966 0.81189,-0.67022 0.007,6e-5 0.0134,6e-5 0.0202,6e-5 0.18334,0 0.39981,-0.0184 0.49533,-0.0377 0.18246,-0.0402 0.19296,-0.0506 0.34129,-0.38767 0.0575,-0.12918 0.12512,-0.19246 0.21912,-0.19246 0.0532,0 0.11482,0.0202 0.18785,0.0603 0.0622,0.0317 0.33197,0.14312 0.60702,0.24413 0.27503,0.10099 0.72136,0.26577 0.99113,0.37201 0.26986,0.10098 0.70574,0.26569 0.96,0.3613 0.2595,0.0957 0.69017,0.26038 0.95998,0.36658 0.26979,0.10614 0.66938,0.25503 0.88217,0.32953 0.2128,0.0745 0.43595,0.15429 0.49296,0.18591 0.0571,0.0265 0.48775,0.19116 0.95998,0.36658 0.47223,0.17541 0.90289,0.34526 0.95993,0.37176 0.057,0.0317 0.17638,0.0742 0.25943,0.1009 0.0883,0.0267 0.28546,0.10107 0.44107,0.1648 0.15564,0.0636 0.37878,0.1486 0.49298,0.1859 0.11417,0.0425 0.33734,0.1223 0.49298,0.186 0.15564,0.0636 0.34247,0.1327 0.4151,0.15934 0.0727,0.0214 0.29584,0.10636 0.49298,0.18596 0.2024,0.0744 0.55005,0.2073 0.77839,0.2923 0.22836,0.0798 0.58125,0.2128 0.77842,0.2923 0.32686,0.1327 0.59668,0.23365 1.47887,0.5632 0.15568,0.0584 0.35812,0.1276 0.44118,0.15434 0.0883,0.0215 0.52943,0.18103 0.98611,0.34596 0.45671,0.16484 1.00691,0.3564 1.21968,0.43095 0.21283,0.0745 0.50865,0.18091 0.64874,0.23405 0.14527,0.0583 0.59676,0.2232 1.01195,0.37215 0.75252,0.27645 0.89263,0.3244 1.71251,0.63785 0.84579,0.324 0.99614,0.39804 1.12506,0.54996 0.10825,0.13624 0.12348,0.18834 0.0908,0.37024 -0.0217,0.1144 -0.0384,0.2547 -0.0389,0.31195 -7.9e-4,0.10405 0.21482,0.48565 0.49298,0.85735 0.16477,0.22505 0.16892,0.3604 0.0164,0.5726 -0.0683,0.0879 -0.21041,0.2898 -0.32088,0.43986 -0.51556,0.71424 -0.30454,1.68909 0.44223,2.03314 0.11411,0.0477 0.26443,0.12177 0.33188,0.1535 0.063,0.0346 0.23079,0.0608 0.38429,0.0608 0.0106,0 0.0212,-10e-5 0.0316,-4e-4 0.6818,-0.005 1.23276,-0.5889 1.30144,-1.3898 0.0229,-0.26526 0.008,-0.34345 -0.11023,-0.5473 -0.0719,-0.1307 -0.17952,-0.3397 -0.2358,-0.465 -0.092,-0.2193 -0.097,-0.24533 -0.0172,-0.4737 0.0799,-0.2438 0.40474,-0.6205 0.52483,-0.6205 1.5e-4,0 3e-4,0 4.5e-4,0 0.0364,2.4e-4 0.37362,0.1382 0.75738,0.31286 0.3838,0.16954 0.96488,0.40307 1.2919,0.51489 l 0.5969,0.20765 2.68006,0.0208 c 0.59799,0.005 1.07504,0.009 1.46384,0.009 1.62103,0 1.70803,-0.0744 2.63067,-0.50804 0.87233,-0.41476 1.1311,-0.89676 0.88715,-1.65332 -0.17792,-0.5426 -0.46752,-0.77904 -1.42225,-1.1507 -1.5722,-0.61077 -2.80797,-0.97949 -3.67617,-1.09544 -0.62387,-0.0881 -1.66263,-0.35646 -3.10593,-0.80995 -0.0882,-0.032 -0.22299,-0.10059 -0.30067,-0.15855 -0.27926,-0.2259 -0.28405,-0.278 -0.27077,-1.9901 0.0109,-1.3999 0.0228,-1.59238 0.0958,-1.61783 0.0192,-0.007 0.0391,-0.0103 0.0593,-0.0103 0.0844,0 0.17398,0.059 0.23608,0.16874 0.19522,0.33458 0.38054,0.59625 0.4376,0.61746 0.005,0.002 0.009,0.003 0.0136,0.003 0.0363,0 0.0495,-0.0844 0.0511,-0.29424 0.002,-0.25502 -0.0334,-0.3906 -0.1716,-0.6883 -0.29708,-0.62174 -0.32202,-0.76243 -0.18432,-1.06846 0.0583,-0.13998 0.1119,-0.3374 0.1127,-0.43624 7e-4,-0.0937 0.0284,-0.30683 0.0609,-0.47312 0.0489,-0.26508 0.0441,-0.32233 -0.0482,-0.50518 -0.16914,-0.3292 -0.1478,-0.3915 0.33452,-0.85093 0.582,-0.55753 0.57672,-0.54717 0.30353,-1.55893 -0.19733,-0.72494 -0.20715,-0.8031 -0.14375,-0.92749 0.037,-0.0622 0.28367,-0.33612 0.546,-0.60468 0.4301,-0.43907 0.49322,-0.52185 0.54718,-0.76602 0.0756,-0.34817 0.0785,-0.728 0.007,-0.93675 -0.0306,-0.0835 -0.19559,-0.28255 -0.37134,-0.4348 -0.4187,-0.3676 -0.7077,-0.68213 -0.70706,-0.76532 6.1e-4,-0.0781 0.1124,-0.3999 0.40473,-1.18348 0.29757,-0.79394 0.31881,-0.84582 0.55209,-1.40087 0.3128,-0.73663 0.5628,-1.43207 0.71271,-1.97211 0.11245,-0.40509 0.13493,-0.6235 0.16363,-1.63812 0.0206,-0.6452 0.0695,-1.5816 0.0994,-2.081 0.0351,-0.49932 0.0884,-1.3368 0.12369,-1.857 0.0534,-0.8479 0.0754,-0.99346 0.22451,-1.42943 0.23951,-0.68512 0.237,-1.03382 -0.012,-1.806 -0.11185,-0.33914 -0.17722,-0.63632 -0.16108,-0.70383 0.0162,-0.0675 0.12675,-0.2384 0.24235,-0.37804 0.24173,-0.3 0.25268,-0.36756 0.10515,-0.8059 -0.11687,-0.3652 -0.1299,-0.69832 -0.0388,-1.03072 0.10704,-0.37908 0.0227,-0.92102 -0.2825,-1.82373 -0.17798,-0.53745 -0.73202,-1.57217 -0.98993,-1.87085 -0.44373,-0.4978 -1.92889,-1.58667 -2.17868,-1.58862 -0.0312,-2.5e-4 -0.13505,-0.0375 -0.22835,-0.085 -0.1452,-0.0688 -0.18635,-0.13156 -0.28273,-0.45499 -0.15231,-0.49039 -0.28112,-0.65793 -0.66462,-0.86387 -0.33167,-0.1847 -0.61043,-0.47832 -0.65561,-0.69207 -0.0151,-0.0729 -0.076,-0.27118 -0.13707,-0.44343 -0.10181,-0.29223 -0.10619,-0.40154 -0.081,-1.64 0.0128,-0.9783 9.9e-4,-1.4676 -0.0531,-1.87397 -0.10347,-0.75023 -0.21563,-1.71911 -0.24844,-2.18773 -0.0192,-0.21357 -0.0535,-0.48963 -0.0786,-0.60954 -0.0653,-0.30759 -0.1565,-1.96326 -0.11371,-2.11386 0.0537,-0.20776 1.4048,-1.29538 1.8487,-1.48968 0.17095,-0.0779 0.2751,-0.10206 0.6386,-0.10206 0.1141,0 0.25376,0.002 0.42905,0.006 l 0.81699,0.0116 0.11032,-0.13446 c 0.0578,-0.0724 0.11596,-0.1865 0.13202,-0.24363 0.12952,-0.59747 0.21518,-0.90387 0.27816,-0.97103 0.084,-0.0982 0.65833,-0.33317 1.26868,-0.521 0.21396,-0.0712 0.44876,-0.14744 0.52182,-0.1781 0.12012,-0.0511 1.29389,-0.41154 1.72156,-0.52789 0.0991,-0.0305 0.3026,-0.0966 0.44348,-0.14747 0.14566,-0.0507 0.29126,-0.0963 0.32832,-0.0963 10e-5,0 2.3e-4,0 3.5e-4,0 7e-5,0 1.3e-4,0 1.9e-4,0 0.0319,0 0.26616,-0.0658 0.51614,-0.14691 0.25562,-0.0761 0.63645,-0.19283 0.85028,-0.25366 0.2139,-0.066 0.52167,-0.15729 0.67819,-0.2081 0.20875,-0.0712 0.52125,-0.10004 1.14595,-0.12119 1.60326,-0.0448 1.73354,-0.0698 2.6321,-0.50522 0.4335,-0.20483 0.96124,-0.47134 1.17554,-0.58936 0.21432,-0.11803 0.52783,-0.28216 0.6951,-0.3745 0.17246,-0.0872 0.34491,-0.1847 0.39196,-0.2104 1.13977,-0.6729 1.53214,-0.93526 2.19187,-1.4454 0.91633,-0.71627 1.80615,-1.37555 4.42309,-3.28085 1.073,-0.78271 1.24042,-0.89593 1.50681,-1.02399 0.2446,-0.12246 0.62853,-0.24389 0.75503,-0.24389 5e-4,0 10e-4,0 0.002,0 0.13013,10e-4 0.5712,0.17096 0.83023,0.31869 0.49225,0.27967 0.67413,0.31748 1.59522,0.32462 0.15087,0.002 0.28173,0.003 0.39709,0.003 0.68848,0 0.82669,-0.0475 1.39032,-0.30164 0.61111,-0.28152 0.73108,-0.317 1.1842,-0.36034 0.51564,-0.048 0.69828,-0.11946 0.89789,-0.35212 0.22065,-0.2637 0.19007,-0.35238 -0.3363,-0.92894 -0.31475,-0.34596 -0.3555,-0.46598 -0.20361,-0.5897 0.0891,-0.0773 0.76202,-0.40473 0.82531,-0.40473 5e-5,0 9e-5,0 1.5e-4,0 4e-5,0 7e-5,0 10e-5,0 0.0211,0 0.13058,-0.046 0.2505,-0.097 0.12004,-0.0563 0.5218,-0.18333 0.8921,-0.2845 0.91263,-0.24273 1.67985,-0.52307 2.24943,-0.81524 1.03982,-0.54366 1.50552,-0.8627 1.5646,-1.09644 0.0162,-0.0779 0.10627,-0.28542 0.19617,-0.46682 l 0.16385,-0.32667 L 291.891,449.99 c -0.0671,-0.0734 -0.17585,-0.14192 -0.24342,-0.15806 -0.0104,-0.003 -0.0231,-0.004 -0.0381,-0.004 -0.19594,0 -0.77936,0.22403 -1.51209,0.59049 -0.56967,0.2839 -1.24765,0.52267 -1.4556,0.52267 -0.0285,0 -0.0482,-0.005 -0.0576,-0.014 -0.0413,-0.042 -0.0201,-0.099 0.0588,-0.21289 0.0632,-0.0828 0.11582,-0.16568 0.1159,-0.17605 1.3e-4,-0.0157 0.074,-0.14521 0.1636,-0.29018 0.2055,-0.32628 0.20232,-0.58656 -0.006,-0.61415 -0.0102,-0.002 -0.0206,-0.002 -0.0312,-0.002 z"
         id="path2"
         inkscape:connector-curvature="0" />
    </g>
  </g>
</svg>
