<?xml version="1.0" encoding="UTF-8" standalone="no"?>
<svg
   xmlns:dc="http://purl.org/dc/elements/1.1/"
   xmlns:cc="http://creativecommons.org/ns#"
   xmlns:rdf="http://www.w3.org/1999/02/22-rdf-syntax-ns#"
   xmlns:svg="http://www.w3.org/2000/svg"
   xmlns="http://www.w3.org/2000/svg"
   xmlns:sodipodi="http://sodipodi.sourceforge.net/DTD/sodipodi-0.dtd"
   xmlns:inkscape="http://www.inkscape.org/namespaces/inkscape"
   version="1.1"
   width="253.96805"
   height="406.4483"
   viewBox="0 0 253.96805 406.4483"
   id="svg11"
   sodipodi:docname="businessman walking suitcase.svg"
   inkscape:version="0.92.4 (5da689c313, 2019-01-14)">
  <metadata
     id="metadata17">
    <rdf:RDF>
      <cc:Work
         rdf:about="">
        <dc:format>image/svg+xml</dc:format>
        <dc:type
           rdf:resource="http://purl.org/dc/dcmitype/StillImage" />
        <dc:title></dc:title>
      </cc:Work>
    </rdf:RDF>
  </metadata>
  <defs
     id="defs15" />
  <sodipodi:namedview
     pagecolor="#ffffff"
     bordercolor="#666666"
     borderopacity="1"
     objecttolerance="10"
     gridtolerance="10"
     guidetolerance="10"
     inkscape:pageopacity="0"
     inkscape:pageshadow="2"
     inkscape:window-width="933"
     inkscape:window-height="512"
     id="namedview13"
     showgrid="false"
     fit-margin-top="0"
     fit-margin-left="0"
     fit-margin-right="0"
     fit-margin-bottom="0"
     inkscape:zoom="0.24180328"
     inkscape:cx="150.96005"
     inkscape:cy="208.3624"
     inkscape:window-x="0"
     inkscape:window-y="0"
     inkscape:window-maximized="0"
     inkscape:current-layer="svg11" />
  <g
     id="layer1"
     transform="translate(-149.03995,-289.9141)">
    <g
       style="fill:#000000;fill-opacity:1;stroke-linejoin:miter"
       id="g4">
      <path
         d="m 369.06442,663.8704 q -0.80649,0.19674 -0.35968,0.88015 1.60089,0.98071 3.92886,1.96332 6.766,2.82753 11.24747,3.42163 1.96909,0.2689 3.91858,-0.0178 0.95923,-0.14008 2.05455,-0.44704 4.98998,-1.70464 6.02825,-1.80296 2.51295,-0.47144 4.09033,-0.075 3.21197,1.0467 1.36746,4.71444 -3.76932,5.69076 -15.12668,11.2558 -3.28259,1.48536 -6.84626,2.51966 -1.91475,0.6205 -10.8384,2.6665 -1.27765,0.3228 -2.0678,0.5842 -2.3222,0.7304 -3.52552,1.8952 l -11.71973,3.80026 q -0.80835,-2.23476 -1.5899,-3.70336 -3.65995,-5.6641 -3.66245,-6.2237 -0.93268,-2.0952 -1.06015,-7.34595 -0.2421,-0.50345 -0.72397,-0.29889 -0.51755,3.62329 0.70066,7.62904 0.35186,1.00603 1.04684,2.2174 l 2.87714,4.62555 q 0.71112,1.33551 1.65875,3.96515 0.0693,0.20104 0.43417,0.2684 l 12.44101,-4.00394 q 1.41278,-1.26923 3.42175,-1.86226 0.794,-0.2625 2.0673,-0.5825 8.71307,-1.99286 10.83908,-2.6681 3.66616,-1.0656 7.03202,-2.5954 11.5818,-5.6664 15.5172,-11.6421 2.26627,-4.69664 -1.94665,-6.17936 -1.65793,-0.41314 -3.87702,-0.0702 -1.2373,0.19106 -2.38283,0.51546 -5.01545,1.6891 -5.58515,1.70964 -1.89465,0.4029 -3.88163,0.21143 -6.74087,-0.86767 -15.40106,-5.31507"
         id="path2"
         inkscape:connector-curvature="0" />
    </g>
    <g
       style="fill:#000000;fill-opacity:1;stroke-linejoin:miter"
       id="g8">
      <path
         d="m 335.75302,298.62018 v 0 q 0,0 0,0 h -0.003 l -0.52661,0.30337 0.52661,-0.30337 z m -29.46634,36.78384 -0.47766,0.40198 v 0 0 z m -3.50763,8.91516 0.14109,0.11359 -0.14109,-0.11359 z m 27.05738,3.53602 0.11044,0.0227 h -3e-5 z m 22.1791,20.06814 2.70297,1.17616 h -2e-5 z m -4.48663,68.30626 0.1704,5.39097 v 0 z m 16.66266,33.129 -0.18433,0.10737 v 0 z m -21.81706,29.98982 0.0837,0.0132 v 0 z m -60.23198,0.0678 1.9627,0.24994 v 0 l -1.96276,-0.24994 z m 59.97028,0.90726 0.3259,0.0515 h -7e-5 z m 7.22283,-6.93979 0.22447,7.09993 v 0 l -3.81483,-0.60265 v 0 l 3.81483,0.60265 v 0 z m -133.61616,-1.91111 v 0 0 l -3.81578,9.96509 z M 212.2906,503.37 q 0.0744,0 0.15544,0.0205 -0.0811,-0.0205 -0.15544,-0.0205 -0.0744,0 -0.1421,0.0205 h -3e-5 q 0.0677,-0.0205 0.14213,-0.0205 z m 19.05039,6.4978 q -0.002,0 -0.004,0 -0.002,0 -0.004,0 z m -19.08493,-5.1808 q 2.29997,3.20906 4.18957,4.4959 1.85408,1.35982 6.01018,2.70925 l -1.86261,3.1518 -10.081,-8.35445 -9.7e-4,-8e-4 z m 8.47774,11.6342 q -0.002,0 -0.004,0 -0.002,0 -0.004,0 z m 1.32395,-0.67526 1.32828,1.2055 h -1e-5 z m 1.62438,2.77691 20.31149,18.58965 -20.31151,-18.58965 z m 58.90042,-17.93307 1.28757,0.16287 v 0 l -1.28757,-0.16287 v 0 l 14.07742,37.00292 z m 7.57587,160.68307 -2.17482,0.56975 h -1e-4 z m -16.90995,8.54335 q 4.6e-4,0 9.3e-4,0 h 8.7e-4 q -1.2e-4,0 -2.4e-4,0 z m 71.18937,7.8815 q 0.29336,0 0.46551,0.35805 0.001,0.0542 0.003,0.10791 v 0 l -0.0625,-0.11616 q -0.37927,0.3329 -0.75769,0.51826 v 0 q 0.0361,-0.4068 0.0935,-0.8089 0.13922,-0.0592 0.25846,-0.0592 z M 329.27377,289.9141 q -0.10974,0 -0.21997,0.004 -4.79706,0.69812 -5.4961,0.69812 -0.0208,0 -0.038,-6.1e-4 -9.33233,0.19673 -10.5317,0.41553 l -0.006,5.8e-4 q -6.59091,0.5112 -10.47225,4.82252 -4.92237,5.24013 -6.3461,13.21907 -1.05408,6.06555 1.31765,12.63227 2.57333,7.24252 7.32819,13.38894 h -0.003 q -6.6e-4,0.004 -10e-4,0.009 -0.004,0.0403 -0.003,0.0602 l -0.01,5.30911 -2.2539,2.82663 -7.81818,7.05747 q -10.1618,1.79985 -20.30234,3.48373 l -4.09176,1.0206 q -5.04117,1.6358 -7.62876,6.28352 -1.71231,2.923 -3.1672,7.64223 -1.13358,3.24427 -3.64215,15.95197 l -3.93659,9.1648 -1.75955,8.19005 q -0.27197,0.71103 -0.69948,1.2454 -2.50029,2.37481 -2.64209,3.234 -0.2595,0.0392 -0.65001,5.37495 -0.20954,1.11596 -0.67361,2.00195 l -4.88469,6.47601 -0.39574,1.3035 q -0.12725,4.21066 -0.69136,5.31286 -5.80098,11.02652 -9.46847,20.9567 -4.79453,12.56692 -13.25612,38.04223 h -0.002 q -0.11416,0.0773 -0.19755,0.2327 l -5.01085,13.08533 v 0 q -0.0632,-0.007 -0.11533,-0.007 -0.19211,0 -0.2352,0.0919 l -3.5148,3.9657 -12.52768,-9.88767 L 184.8123,490.09 149.078,546.17535 q -0.12759,0.13235 0.17263,0.55579 l 47.45837,46.20111 10.75725,2.9646 q 0.085,0.006 0.15669,0.006 0.33301,0 0.3773,-0.13205 l 37.07956,-58.5895 q 0.25928,-0.4192 -0.10373,-0.7353 l -20.82229,-18.8979 h -0.002 q 0.80993,-1.507 1.25985,-2.38444 1.62627,-3.14886 2.099,-4.80542 0.54358,-1.8692 0.11464,-3.18414 -0.50351,-1.4406 -1.89711,-2.2686 l 2.64391,-4.10396 h 0.002 q -0.46524,4.70996 -0.0638,6.58366 0.27255,1.58873 1.11253,2.52986 0.87673,0.957 1.97045,0.957 0.0203,0 0.0408,-3.3e-4 1.36684,-0.0977 1.68368,-1.52753 0.10333,-0.51944 0.0532,-1.33356 0.0136,-0.13531 -0.2738,-2.65951 -0.0563,-0.60587 -0.0716,-1.06061 -0.0303,-0.86802 0.0532,-1.55127 0.12087,-1.00931 0.48134,-2.14673 0.16182,-0.51627 0.39165,-1.13046 l 1.07092,-2.7767 q 0.27326,-0.77768 0.4088,-1.44786 0.37341,-1.74233 0.0396,-4.01116 l 1.467,-0.30924 h 0.002 q 0.0631,0.0331 0.14414,0.0536 0.0506,0.005 0.0974,0.005 0.34503,0 0.47998,-0.29 h -0.002 q 0.16304,-0.1692 0.1631,-0.3613 h -0.002 l 30.25516,-68.35 q 1.54617,11.7357 0.44734,22.39147 -0.54085,5.9689 -1.74657,13.66419 -0.61883,4.23971 -3.18149,17.75857 l -0.77346,4.89514 q -0.86771,6.27646 -1.58152,16.75745 0.0547,0.2728 0.40677,0.37438 l 20.00754,2.53102 h -0.003 q 14.05759,36.48178 15.83161,41.88192 1.91168,5.37826 1.63146,6.87276 l -1.76855,5.4809 q -0.39515,1.3006 -0.69685,2.98564 -0.24785,1.45782 -0.36183,3.19616 l -0.4361,8.40235 q -0.23224,2.22149 -0.72201,3.58002 -6.65376,12.37223 -13.45966,30.41533 -2.62415,6.8257 -4.115,11.2809 -0.82192,2.284 -4.26028,13.7745 -0.79064,2.49026 -1.63046,4.754 -2.18994,5.9302 -6.60049,15.4991 h -0.003 q -0.0839,0.0383 -0.1501,0.1103 l -1.4247,2.0191 q -1.6737,2.4345 -2.38454,4.112 -1.03708,2.2819 -1.1365,6.1757 l -1.79261,3.9832 q -0.0698,0.20686 0.0347,0.40846 0.0729,0.13501 0.22681,0.21484 l 11.26468,6.47095 0.2735,-0.003 3.37506,-1.1408 9.59964,10.3324 q 1.76904,1.74575 3.5505,2.14174 1.03586,0.24746 2.6753,0.24946 6.43432,-0.0761 7.64756,-0.1776 3.9168,-0.20833 5.89504,-0.99105 4.00986,-1.86725 1.68192,-6.1618 l -0.0343,-0.0538 q -0.78705,-1.23305 -2.31839,-2.22054 -0.66491,-0.43066 -1.5541,-0.87576 -4.28684,-1.9653 -4.68534,-2.2565 -1.50198,-0.8324 -2.68686,-1.90076 -2.13302,-1.90544 -4.49273,-6.32014 h -0.003 l 2.22754,-0.49615 q 0.18133,-0.0291 0.32736,-0.25215 3.47217,-8.9117 5.61841,-13.9229 8.68066,-19.42047 9.052,-20.55554 4.02249,-9.49696 9.06116,-25.51146 l 0.68477,-2.21 h 0.003 q 1.39029,4.8731 2.35883,8.0419 0.68756,2.6153 8.65375,26.5808 1.55703,4.8315 2.58712,8.37043 0.87245,2.99024 1.72568,6.33947 l 3.28637,13.36836 q 1.14,4.24564 2.3817,7.8327 3.09594,9.49811 6.51388,9.49811 0.46572,0 0.93744,-0.17633 l 1.45518,-0.70494 -0.3867,-0.7185 v 0 l 0.3867,0.7185 -0.36336,0.176 h 0.003 q 0.1867,4.4491 1.027,6.3368 0.002,0.5596 3.66245,6.2237 0.78155,1.4686 1.5899,3.70336 l 11.71973,-3.80026 q 1.20332,-1.1648 3.52552,-1.8952 0.79015,-0.2614 2.0678,-0.5842 8.92365,-2.046 10.8384,-2.6665 3.56367,-1.0343 6.84626,-2.51966 11.35736,-5.56504 15.12668,-11.2558 1.84451,-3.66774 -1.36746,-4.71444 -0.72052,-0.18107 -1.63626,-0.18107 -1.08899,0 -2.45407,0.25611 -1.03827,0.0983 -6.02825,1.80296 -1.09532,0.30696 -2.05455,0.44704 -1.00592,0.14796 -2.01703,0.14796 -0.94848,0 -1.90155,-0.1302 -4.48147,-0.5941 -11.24747,-3.42163 -2.32797,-0.98261 -3.92886,-1.96332 -0.2727,-0.41711 -0.0785,-0.65295 h 0.004 q 0.0559,0.16986 0.11195,0.34014 0.17951,0.32336 0.4592,0.32336 0.0582,0 0.12075,-0.014 0.4908,-0.0967 0.328,-0.77228 L 358.42773,630.4509 q -3.43263,-10.10153 -5.78036,-16.5823 -1.9165,-5.3694 -5.56482,-14.30213 -0.6734,-1.80397 -0.96121,-3.01497 -0.51746,-2.00707 -0.90864,-5.6702 l -1.46398,-18.88496 q -0.51972,-5.44141 -1.52866,-12.11134 -1.30871,-8.6722 -4.42328,-25.6964 h -0.003 q 1.4457,-4.7945 2.20575,-7.64636 1.57312,-5.84994 2.27243,-10.64978 0.93676,-6.34269 1.16787,-15.35876 h 0.003 l 6.1531,0.9726 q 0.19242,0.0326 0.22968,0.0326 0.007,0 0.008,-0.001 0.24518,-0.0158 0.37625,-0.16932 h -0.004 q 0.369,-0.10128 0.3728,-0.541 l -1.79506,-56.78315 h 0.004 q 7.38839,10.65215 8.76443,13.28751 0.6113,1.11371 0.91464,1.94189 0.11606,0.17395 0.69128,2.55383 0.2005,0.64124 0.6244,1.55014 0.56817,1.22181 1.56045,3.01731 l 1.64885,2.87777 h -0.004 q 0.18289,2.50303 0.19812,3.97843 l -0.0574,6.19305 q 0.0783,2.70099 0.79307,4.08014 0.83178,1.70365 2.96075,2.4979 2.37985,0.82348 4.98038,0.82348 0.41824,0 0.84222,-0.0213 5.25848,-0.29422 7.12671,-4.82406 2.29844,-5.45038 1.70814,-14.41159 h -0.004 q 0.23771,-4.19553 -0.0599,-7.47825 -0.57028,-6.72326 -2.72315,-15.4131 -1.3428,-5.28254 -2.91675,-8.93187 -1.08502,-2.78613 -5.11862,-9.54113 -0.65161,-1.28565 -1.20672,-3.12702 l -7.04834,-23.08304 q 0.0169,-2.06254 -0.14872,-3.35257 l -1.70703,-15.55209 q -0.46997,-4.12808 -1.09507,-6.48685 -1.0615,-4.14468 -3.8929,-6.1094 h -0.004 q -0.0686,-0.0991 -0.18553,-0.20323 -0.19722,-0.0846 -0.39226,-0.16848 h -0.004 q -0.0201,-0.0117 -0.0404,-0.0233 l -0.0405,-0.0266 -0.007,0.0106 v 0 q -6.09284,-2.62302 -10.03187,-4.58962 -4.0119,-1.96733 -13.263,-6.96367 l -1.50188,-5.27978 h -0.003 q 0.021,-0.0361 0.0392,-0.0772 0.0128,-0.0373 0.0185,-0.067 l 0.53488,-2.64802 h 0.003 q 1.25463,0.28663 2.95138,0.28663 0.87717,0 1.8725,-0.0766 2.07067,-0.27761 2.9591,-1.67517 0.54892,-0.81126 0.95655,-2.41606 l 1.1452,-5.0151 2.07034,-7.82137 q 0.48725,-2.03806 0.68814,-3.61383 0.24878,-1.83783 -0.0141,-3.46045 -0.0952,-0.96167 -1.12837,-3.70755 -0.13747,-0.48422 -0.14782,-0.80804 -0.0102,-0.39554 0.058,-0.72146 l 0.58062,-2.31568 q 0.15888,-0.74488 0.20816,-1.46992 0.11124,-1.60824 -0.32333,-3.3748 -0.99448,-4.09336 -5.73485,-12.487 h -0.003 q -0.37343,-7.73878 -5.43509,-9.48155 -1.06192,-0.40505 -2.17197,-0.40505 z"
         id="path6"
         inkscape:connector-curvature="0" />
    </g>
  </g>
</svg>
