<?xml version="1.0" encoding="UTF-8" standalone="no"?>
<svg
   xmlns:dc="http://purl.org/dc/elements/1.1/"
   xmlns:cc="http://creativecommons.org/ns#"
   xmlns:rdf="http://www.w3.org/1999/02/22-rdf-syntax-ns#"
   xmlns:svg="http://www.w3.org/2000/svg"
   xmlns="http://www.w3.org/2000/svg"
   xmlns:sodipodi="http://sodipodi.sourceforge.net/DTD/sodipodi-0.dtd"
   xmlns:inkscape="http://www.inkscape.org/namespaces/inkscape"
   version="1.1"
   width="102.94378"
   height="317.52948"
   viewBox="0 0 102.94378 317.52948"
   id="svg7"
   sodipodi:docname="man walking.svg"
   inkscape:version="0.92.4 (5da689c313, 2019-01-14)">
  <metadata
     id="metadata13">
    <rdf:RDF>
      <cc:Work
         rdf:about="">
        <dc:format>image/svg+xml</dc:format>
        <dc:type
           rdf:resource="http://purl.org/dc/dcmitype/StillImage" />
        <dc:title></dc:title>
      </cc:Work>
    </rdf:RDF>
  </metadata>
  <defs
     id="defs11" />
  <sodipodi:namedview
     pagecolor="#ffffff"
     bordercolor="#666666"
     borderopacity="1"
     objecttolerance="10"
     gridtolerance="10"
     guidetolerance="10"
     inkscape:pageopacity="0"
     inkscape:pageshadow="2"
     inkscape:window-width="1920"
     inkscape:window-height="1048"
     id="namedview9"
     showgrid="false"
     fit-margin-top="0"
     fit-margin-left="0"
     fit-margin-right="0"
     fit-margin-bottom="0"
     inkscape:zoom="1.9344262"
     inkscape:cx="58.392242"
     inkscape:cy="138.66477"
     inkscape:window-x="0"
     inkscape:window-y="0"
     inkscape:window-maximized="1"
     inkscape:current-layer="svg7" />
  <g
     id="layer1"
     transform="translate(-149.63298,-297.45123)">
    <g
       style="fill:#000000;fill-opacity:1;stroke-linejoin:miter"
       id="g4">
      <path
         d="m 230.97104,398.42746 c 0.0546,0 0.13147,0.0827 0.25877,0.25406 0.74359,0.99945 1.96161,2.20538 3.51624,3.50732 1.02798,0.84741 1.09085,0.92139 1.09564,1.39374 0.003,0.27338 0.0951,0.79456 0.21066,1.16638 0.29611,1.00397 -0.072,1.48004 -1.27621,1.64142 -0.85669,0.10802 -1.21387,0.43494 -1.564,1.45782 -0.36264,1.02308 -0.37249,1.27173 -0.0504,2.38733 0.29608,1.00391 0.57254,1.2995 1.54522,1.60041 1.37186,0.43366 1.38553,0.55786 0.32111,3.47754 -0.15744,0.4118 -0.3111,1.1965 -0.35529,1.74392 -0.0984,1.33118 -0.35525,2.97467 -0.58377,3.73536 -0.20452,0.67327 -0.16348,1.04584 0.23078,1.92444 0.50855,1.11376 0.60245,1.79644 0.52465,3.93548 l -0.0666,2.01446 -0.69782,1.06379 c -1.24869,1.90217 -1.40417,2.51287 -0.88321,3.6264 0.60996,1.31157 0.66245,1.58453 0.3703,2.19667 -0.26767,0.5745 -1.00443,1.47698 -1.20331,1.479 h -3.8e-4 c -0.0746,0 -0.20102,-0.2347 -0.27849,-0.5317 -0.15405,-0.48326 -1.32516,-3.1939 -1.51474,-3.50273 -0.0505,-0.0741 -0.18921,-0.27161 -0.30288,-0.44447 -0.12589,-0.16033 -0.254,-0.53197 -0.29428,-0.8299 -0.0403,-0.29796 -0.15583,-0.65727 -0.25669,-0.79308 -0.30258,-0.41962 -0.23602,-1.21588 0.15357,-2.02782 0.56042,-1.12446 1.04495,-2.3849 1.34527,-3.4198 0.14402,-0.51106 0.48233,-1.47175 0.74927,-2.12086 0.81305,-1.95996 1.05298,-2.82019 1.19998,-4.26367 0.12455,-1.20709 0.10962,-1.45557 -0.0843,-2.18707 -0.12893,-0.45856 -0.38473,-1.1646 -0.58776,-1.57273 -0.53284,-1.06372 -0.73691,-1.57135 -1.24833,-2.97087 -0.39654,-1.10243 -0.46216,-1.44984 -0.56592,-3.1022 -0.0726,-1.03093 -0.19488,-2.06157 -0.27191,-2.29704 -0.15402,-0.48328 -0.2146,-2.78236 -0.0677,-3.00763 0.0489,-0.0875 0.0906,-0.88355 0.0815,-1.77851 -0.002,-1.42956 0.19442,-2.89842 0.47253,-3.67199 0.0224,-0.0552 0.0467,-0.0835 0.0786,-0.0835 z m -25.2751,93.85419 c 0.12309,0 0.32144,0.38748 0.52258,1.05618 0.12821,0.38409 0.33374,1.04083 0.46219,1.44977 0.12848,0.40887 0.30929,1.07843 0.38803,1.4878 0.0787,0.40948 0.40308,1.74877 0.72641,2.98864 0.31073,1.22754 0.64966,2.77801 0.75571,3.43579 0.10617,0.65784 0.22391,1.24084 0.26184,1.30267 0.0379,0.0618 0.13074,0.6327 0.22412,1.2657 0.0812,0.64562 0.19968,1.30327 0.26346,1.46422 0.0638,0.16101 0.18246,0.83106 0.25125,1.4892 0.0811,0.64563 0.25177,1.539 0.393,1.98505 0.32084,0.99127 0.32437,1.33929 0.0343,2.16273 -0.43503,1.2351 -0.42331,2.39104 0.0745,4.9096 0.11847,0.6452 0.27124,1.0042 0.49735,1.238 0.37707,0.4065 0.73168,1.04935 0.73471,1.3476 0.001,0.12435 -0.11957,0.47366 -0.26557,0.7859 -0.55988,1.1867 -0.39761,2.47786 0.54035,4.2585 0.4689,0.89026 0.49466,0.97705 0.4671,1.93457 -0.0174,0.73373 -0.12378,1.28167 -0.40134,2.10498 -0.53161,1.52205 -0.68274,2.55535 -0.8262,5.57755 -0.11349,2.3009 -0.0963,2.77316 0.0902,4.002 0.13196,0.75693 0.23013,1.8624 0.23617,2.45896 0.0129,1.2804 0.34546,2.1969 0.89527,2.47724 0.19989,0.0975 0.43783,0.2691 0.55084,0.3798 0.18832,0.1846 0.16409,0.24696 -0.32708,0.84865 -0.2948,0.35105 -0.68738,0.86468 -0.85865,1.13989 -0.47714,0.76316 -0.93399,2.29686 -0.92529,3.15456 0.004,0.41014 -0.075,1.1941 -0.1814,1.7297 -0.4129,2.19216 -0.56066,3.56105 -0.57883,5.4508 -0.0371,4.9356 -0.38757,8.3826 -0.87976,8.8848 -0.0616,0.0629 -0.11605,0.0979 -0.19897,0.0979 -0.13251,0 -0.33762,-0.0897 -0.76029,-0.2995 -0.52391,-0.25535 -0.8708,-0.37705 -1.10777,-0.37705 -0.13597,0 -0.23574,0.0401 -0.31203,0.1179 -0.0415,0.0424 -0.081,0.0626 -0.12034,0.0626 -0.054,0 -0.10777,-0.0381 -0.16603,-0.10936 -0.11325,-0.13564 -0.10413,-0.45894 0.0225,-1.4547 0.10474,-0.7097 0.22812,-2.02865 0.29373,-2.9119 0.0656,-0.8957 0.19962,-2.38885 0.30198,-3.33465 0.19265,-1.8418 0.11486,-5.84385 -0.18415,-9.59509 -0.085,-1.03096 -0.20291,-2.85716 -0.26483,-4.06236 -0.0923,-1.75185 -0.15939,-2.236 -0.32288,-2.42086 -0.20111,-0.22174 -0.47082,-1.07674 -0.82177,-2.58978 -0.0913,-0.42176 -0.163,-1.36586 -0.17057,-2.1117 0.0106,-1.41726 -0.23706,-2.54589 -0.83459,-3.85766 -0.31793,-0.7053 -0.35123,-1.5379 -0.0852,-2.27405 0.10871,-0.31189 0.25174,-0.92245 0.32175,-1.37065 0.0701,-0.4482 0.23602,-1.24556 0.36737,-1.7814 0.42935,-1.79454 0.39752,-4.9393 -0.18045,-15.37578 -0.38171,-7.00732 -0.48032,-9.38074 -0.4831,-12.1156 l -0.0178,-2.98334 0.40136,-0.87421 c 0.23129,-0.48717 0.55848,-1.32342 0.72696,-1.87207 0.18091,-0.54882 0.34955,-1.08508 0.38583,-1.18487 0.0211,-0.0625 0.0495,-0.0927 0.0838,-0.0927 z m -5.78836,-194.83042 c -1.72406,0 -2.57465,0.20147 -3.54555,0.67835 -1.79383,0.8634 -2.65924,1.33215 -3.06631,1.64702 -0.40717,0.3025 -1.9796,0.9275 -2.38982,0.93165 -0.11185,10e-4 -0.70593,0.2558 -1.29959,0.56018 -0.60608,0.30445 -1.28668,0.60974 -1.50955,0.69897 -0.49558,0.16657 -1.8779,1.1502 -2.13544,1.50092 -0.0981,0.13776 -0.50321,0.63916 -0.92105,1.11566 -0.68805,0.80262 -0.78543,1.00252 -1.2432,2.44916 -0.45776,1.44666 -0.505,1.6958 -0.49316,2.8642 0.008,0.83276 -0.0591,1.5296 -0.17901,1.966 -0.24024,0.82282 -0.25461,1.86726 -0.0487,2.56128 0.0898,0.27252 0.39398,0.85376 0.67169,1.27362 0.59308,0.8642 0.73456,1.33516 0.75866,2.49103 0.005,0.4599 0.0979,1.06813 0.2002,1.35291 0.26856,0.74322 0.25702,0.83038 -0.2865,1.17144 -1.14859,0.74512 -1.27511,1.7533 -0.4728,3.64722 0.28027,0.6684 0.51007,1.26282 0.51068,1.32501 0.002,0.22375 0.82705,1.88117 1.20559,2.43671 0.2269,0.30854 0.51859,0.87738 0.68393,1.24859 0.34133,0.82288 1.02182,1.32407 1.82141,1.32407 0.006,0 0.0129,-2e-5 0.0194,-9e-5 0.006,-6e-5 0.0113,-9e-5 0.017,-9e-5 0.28014,0 0.55701,0.0703 0.63086,0.14273 0.27698,0.34527 0.65405,3.2131 0.78183,6.00883 l 0.10974,2.24895 -0.70306,0.54169 c -1.04854,0.80621 -1.76934,2.05664 -1.95497,3.36383 -0.11625,0.79681 -0.8711,2.37079 -1.20545,2.49841 -0.1485,0.0637 -0.60666,0.24237 -1.01535,0.39569 -0.40869,0.15326 -1.44852,0.58649 -2.31485,0.96813 -0.8663,0.3818 -1.64639,0.688 -1.73343,0.68892 -0.087,8.5e-4 -0.91629,0.3573 -1.83197,0.77685 -0.91556,0.43189 -2.14071,0.97883 -2.72253,1.22089 -0.56938,0.242 -1.52211,0.6867 -2.10329,0.9909 -1.10057,0.57059 -3.45097,1.71324 -3.55043,1.71421 -0.0249,3e-4 -0.91552,0.43188 -1.96695,0.95227 -1.05139,0.52026 -1.9545,0.95216 -1.97934,0.95239 -0.0373,3.7e-4 -0.29669,0.16461 -0.58069,0.35394 -0.2839,0.20178 -0.82718,0.56775 -1.21011,0.80773 -0.71616,0.4797 -1.83496,1.7093 -2.32376,2.5472 -0.65955,1.1627 -1.6723,4.26836 -2.65283,8.1071 -0.11957,0.47364 -0.27509,1.07197 -0.34732,1.30885 -0.14399,0.51117 -1.11469,5.31945 -1.43232,7.10028 -0.11773,0.64764 -0.2958,1.48242 -0.4039,1.85637 -0.10806,0.3741 -0.18994,0.88447 -0.18743,1.13313 0.002,0.23614 -0.0794,0.7467 -0.17511,1.12067 -0.0957,0.3739 -0.35578,1.6942 -0.59196,2.9273 -0.22369,1.2329 -0.51928,2.74008 -0.64968,3.363 -0.13062,0.61042 -0.31952,1.59437 -0.42548,2.17976 -0.0935,0.5852 -0.26028,1.30792 -0.34414,1.6195 -0.0963,0.31184 -0.21494,0.87244 -0.27329,1.24591 -0.37512,2.24146 -0.51624,3.0384 -0.73044,3.98543 -0.1308,0.58562 -0.26053,1.28307 -0.29501,1.55693 -0.0345,0.27381 -0.14023,0.88404 -0.2348,1.36982 -1.02768,5.31855 -1.03901,5.43055 -1.03254,8.52587 0.004,2.8219 -0.10955,3.91694 -0.42859,4.33038 -0.0736,0.10017 -0.39474,0.30244 -0.72857,0.4798 -0.6431,0.32972 -0.8392,0.60523 -0.83368,1.1521 0.005,0.47236 0.39499,0.9532 1.0198,1.27015 0.66218,0.32891 0.85267,0.72479 0.5846,1.26202 -0.10971,0.21246 -0.31766,0.55017 -0.46506,0.72571 -0.14725,0.18792 -0.4747,0.99939 -0.73999,1.81006 -0.61481,1.89581 -0.69061,3.00299 -0.61883,8.86969 0.0558,4.28833 0.0569,4.40014 -0.20081,4.72601 -0.13498,0.17536 -0.36749,0.53821 -0.51392,0.81323 -0.30496,0.57489 -0.29049,0.77368 0.28333,3.42816 0.22198,1.05439 0.4607,2.53131 0.53052,3.28894 0.0697,0.74518 0.17694,1.51483 0.25326,1.68805 0.0764,0.17328 0.19477,0.81855 0.27552,1.42682 0.0808,0.62079 0.23819,1.42719 0.36627,1.79883 0.30813,0.96655 0.31466,2.84363 0.0251,3.70435 -0.19299,0.58612 -0.21457,0.9096 -0.12152,2.73602 0.0487,1.1308 0.0505,2.53546 0.007,3.12018 -0.12214,1.4433 0.0437,3.09498 0.44012,4.18488 0.28125,0.76794 0.32068,0.97887 0.21396,1.48962 -0.16483,0.90918 -0.28125,6.60388 -0.17563,8.44268 0.10336,1.61493 0.10336,1.61493 0.60877,2.4179 0.80819,1.24736 1.12585,1.9279 1.57476,3.2907 0.60346,1.89605 1.61298,3.37756 2.83942,4.1856 0.41305,0.28174 1.36154,0.64508 2.8082,1.10284 1.197,0.36078 2.68147,0.86792 3.29295,1.09796 0.65604,0.25077 1.12161,0.3852 1.47429,0.3852 0.53291,0 0.80804,-0.30692 1.09294,-0.98303 0.18216,-0.4245 0.34226,-0.57532 0.7753,-0.77857 0.87875,-0.38183 1.04672,-0.98022 0.49176,-1.77026 -0.17651,-0.24684 -0.31604,-0.51886 -0.31665,-0.58106 -0.002,-0.19808 -1.19167,-0.74191 -1.61867,-0.74191 -0.002,0 -0.003,0 -0.005,3e-5 -0.007,6e-5 -0.0135,1e-4 -0.0202,1e-4 -0.52279,0 -0.85212,-0.2067 -0.85535,-0.52586 -0.001,-0.14917 -0.0532,-0.34754 -0.11636,-0.44628 -0.18937,-0.284 -0.0175,-0.49714 0.51553,-0.65168 0.64459,-0.18054 1.052,-0.45818 1.25928,-0.85803 0.3533,-0.71222 0.1427,-4.32755 -0.33081,-5.66531 -0.17905,-0.49549 -0.23444,-1.05432 -0.25205,-2.79456 -0.0209,-2.06335 -0.0348,-2.2124 -0.35333,-2.97986 -0.19098,-0.44562 -0.43341,-1.06476 -0.54847,-1.37432 -0.28115,-0.7555 -1.12801,-2.13923 -1.74401,-2.81672 -0.51557,-0.5791 -0.55448,-0.74028 -0.34729,-1.15265 0.17059,-0.33728 0.66958,-5.07867 0.66946,-6.32183 -0.008,-0.82038 0.0515,-1.05713 0.42862,-1.86902 0.36512,-0.77442 0.46066,-1.16078 0.53732,-2.18091 0.0677,-0.68439 0.17103,-1.53082 0.24219,-1.86713 0.0711,-0.34887 0.16056,-1.33178 0.18918,-2.18982 l 0.0587,-1.56695 0.76223,-0.84057 c 0.92221,-1.00385 1.2125,-1.80238 1.06455,-2.90736 -0.14841,-1.15454 -0.11426,-2.69634 0.0887,-3.51892 0.10761,-0.42376 0.49201,-1.7453 0.85303,-2.92999 0.37271,-1.24683 0.6947,-2.59271 0.76331,-3.19013 0.0688,-0.5725 0.20736,-1.61822 0.3121,-2.32775 0.17535,-1.09577 0.17285,-1.34435 0.0314,-1.80285 -0.10257,-0.30976 -0.21234,-1.328 -0.24902,-2.49617 l -0.0697,-1.97595 0.57904,-0.51556 c 1.15811,-1.03107 1.56338,-1.51996 1.9407,-2.31934 0.64444,-1.4237 0.4606,-2.39154 -0.8403,-4.41711 -0.66922,-1.02497 -0.72272,-1.3974 -0.39935,-2.60651 0.35959,-1.32136 0.42059,-1.43384 1.06192,-1.93762 0.30838,-0.23926 0.86319,-0.69238 1.24554,-0.99457 0.37317,-0.3085 0.56739,-0.43427 0.67981,-0.43427 0.0436,0 0.0748,0.0189 0.0995,0.0534 0.0632,0.0989 0.11429,0.23511 0.11514,0.32215 7.7e-4,0.0745 0.14115,0.43365 0.31891,0.80474 0.17767,0.35871 0.31918,0.82972 0.32132,1.04102 0.004,0.435 0.37381,1.3139 1.47798,3.55276 l 0.46973,0.96491 -0.19849,1.26997 c -0.11725,0.6973 -0.25638,1.6933 -0.31335,2.20354 -0.21805,1.7923 -0.59178,4.17044 -0.74709,4.79361 -0.21509,0.85992 -0.30203,3.32215 -0.14383,4.21565 0.0662,0.39708 0.23331,0.94243 0.3851,1.202 0.36753,0.6924 1.96439,2.47883 2.42664,2.71028 0.61237,0.31708 0.80173,0.60102 0.89639,1.3584 0.0941,0.69525 0.0941,0.69525 -0.47091,1.37219 -0.30701,0.37603 -0.5885,0.81397 -0.62403,0.98833 -0.0355,0.17445 -0.1553,0.62318 -0.27569,1.00978 -0.22864,0.74822 -0.18378,1.49365 0.16162,2.45978 0.16641,0.4707 0.2023,2.79492 0.0397,3.92784 -0.0689,0.56013 -0.11801,0.6228 -0.41592,0.6631 -0.5463,0.0677 -0.80268,0.5302 -0.89133,1.60028 -0.0445,0.51007 -0.1254,1.11999 -0.18543,1.33202 -0.0723,0.22444 -0.21517,0.84748 -0.34634,1.3957 -0.1188,0.54822 -0.38293,1.47077 -0.58832,2.0572 -0.6408,1.7841 -1.09796,3.29296 -1.09466,3.61614 0.002,0.17401 -0.1051,0.6723 -0.23734,1.12122 -1.46701,4.90034 -1.58529,5.49824 -1.55902,8.09607 0.023,2.27472 0.2591,3.4906 1.10263,5.76941 l 0.40909,1.11468 -0.006,3.10785 c 0.006,1.83978 0.0597,3.44283 0.1391,3.91446 0.0915,0.44659 0.22002,2.0863 0.29811,3.66424 0.16593,2.88239 0.19257,3.05623 0.98273,6.20575 0.11603,0.409 0.24646,1.01685 0.31216,1.3642 0.0656,0.33502 0.3111,1.26495 0.5304,2.0459 0.38609,1.30128 0.56764,2.04528 1.30949,5.33215 0.13019,0.58289 0.29822,1.21527 0.37464,1.40088 0.0765,0.18573 0.19516,0.85578 0.27615,1.48902 0.20352,1.68853 0.49411,3.37628 1.00277,5.73309 0.26032,1.15344 0.5496,2.71686 0.65675,3.47412 0.20013,1.35297 0.38421,2.34564 0.76305,4.15674 0.53513,2.51813 0.7328,3.62248 0.73667,4.00781 0.002,0.23621 0.11981,0.78204 0.24851,1.21582 0.14114,0.43365 0.35046,1.46335 0.47061,2.28259 0.62951,4.46886 1.70788,9.07001 3.00191,12.87336 0.56378,1.6601 0.58978,1.7717 0.5516,2.91577 -0.0489,1.30578 0.25336,5.38018 0.46329,6.47203 0.0659,0.3723 0.13641,1.192 0.14282,1.82594 0.007,0.67126 0.15607,1.91286 0.34067,2.9552 0.19735,1.07946 0.33389,2.284 0.34131,3.01736 0.007,0.67124 0.13098,1.8882 0.276,2.70725 0.14501,0.81895 0.36001,2.40795 0.47091,3.53809 0.11087,1.13016 0.25916,2.27236 0.33652,2.54506 0.0649,0.2728 0.18683,1.2661 0.25855,2.2102 0.14086,1.6395 0.35409,3.0544 1.01284,6.72746 0.17127,0.95551 0.35712,2.12214 0.41175,2.60639 0.0545,0.47185 0.17264,1.09225 0.26229,1.35241 0.10209,0.26004 0.24625,0.99194 0.31467,1.6128 0.0809,0.62084 0.22589,1.43984 0.32926,1.82409 0.10336,0.38435 0.19577,0.91795 0.19839,1.17895 0.003,0.2735 0.12018,0.81934 0.24863,1.2282 0.12845,0.40895 0.28491,1.1284 0.33954,1.6127 0.0545,0.4718 0.23733,1.34014 0.41723,1.9226 0.30875,1.0286 0.47153,2.36957 0.85413,7.0151 0.0711,0.8818 0.21799,1.8873 0.3334,2.23417 0.10288,0.33463 0.19388,0.73153 0.19525,0.86823 0.001,0.1367 0.31946,0.8545 0.69965,1.5717 0.41821,0.7913 0.81314,1.7321 0.9686,2.3521 0.14245,0.57045 0.42422,1.3881 0.62765,1.8335 0.19098,0.44563 0.4328,1.0026 0.52219,1.2379 0.0894,0.23526 0.40445,0.65475 0.70553,0.9252 0.5145,0.4796 0.52747,0.5292 0.41977,0.9405 -0.0722,0.2369 -0.25048,1.0468 -0.40442,1.80663 -0.16622,0.77247 -0.47882,1.81983 -0.72201,2.35681 -0.24323,0.53706 -0.49643,1.31031 -0.55432,1.73356 -0.2341,1.432 -0.31787,1.756 -0.62235,2.38064 -0.17062,0.3374 -0.46179,1.04896 -0.64306,1.56043 -0.19373,0.51173 -0.41181,1.07323 -0.50949,1.24829 -0.0852,0.17494 -0.15772,0.38694 -0.15683,0.474 8.8e-4,0.087 -0.0851,0.18737 -0.18418,0.22558 -0.32193,0.12763 -0.53595,1.08696 -0.59356,2.76581 -0.0281,0.90775 -0.11862,1.79135 -0.19159,1.95365 -0.0729,0.1624 -0.0951,0.4236 -0.0562,0.58486 0.32321,1.22744 2.81479,2.97984 5.34622,3.76234 0.97869,0.2994 2.33732,0.447 3.78301,0.447 1.57529,0 3.25395,-0.1752 4.65712,-0.52 1.59955,-0.4016 2.30481,-0.73194 2.42499,-1.1433 0.0484,-0.1373 0.12179,-0.2499 0.18393,-0.25057 0.0622,-6.3e-4 0.28326,-0.26383 0.50369,-0.58943 0.35523,-0.5256 0.367,-0.5879 0.19162,-0.7229 -0.30045,-0.20824 -0.26581,-0.4697 0.0913,-0.8089 0.15991,-0.16325 0.39246,-0.5261 0.50134,-0.82554 0.18142,-0.49906 0.18094,-0.54876 -0.0341,-0.90716 -0.21506,-0.37074 -0.21545,-0.4081 0.11838,-1.8162 0.33374,-1.4205 0.33334,-1.45786 0.12793,-2.10214 -0.32068,-0.97883 -0.29761,-1.15306 0.21039,-1.31983 0.68136,-0.23073 0.85165,-0.60533 0.74212,-1.59873 -0.19314,-1.8876 -0.32714,-2.84347 -0.4671,-3.1653 -0.15307,-0.3838 -0.19992,-1.32813 -0.0818,-1.9384 0.0482,-0.24776 0.12358,-0.3697 0.28376,-0.3697 0.15388,0 0.38607,0.1126 0.74774,0.33434 0.31286,0.20816 0.90024,0.51306 1.31232,0.69536 0.47378,0.20796 0.70535,0.2807 1.10493,0.2807 0.1375,0 0.29488,-0.009 0.48888,-0.0233 0.70788,-0.0693 0.95568,-0.1464 1.39993,-0.4741 0.29617,-0.2144 0.63003,-0.3918 0.74191,-0.39297 0.11185,-10e-4 0.47009,-0.22853 0.80277,-0.51783 1.42968,-1.2202 3.8963,-5.621 5.0924,-9.0393 0.35016,-1.0229 0.63923,-1.94574 0.6381,-2.0576 -0.001,-0.11183 0.0712,-0.3364 0.1564,-0.51124 0.54852,-1.07471 1.19384,-3.64206 1.45801,-5.79529 0.0917,-0.75937 0.24313,-1.76777 0.35019,-2.24127 0.26052,-1.2831 0.21478,-3.3462 -0.10276,-4.0143 -0.33035,-0.7052 -0.3572,-0.90386 -0.54947,-3.93517 -0.11834,-1.86353 -0.22631,-2.70773 -0.36581,-2.97973 -0.26632,-0.51954 -0.16943,-3.2305 0.14712,-3.8925 0.2071,-0.4123 1.18079,-1.24264 2.81022,-2.378 1.45669,-1.0092 2.15704,-1.82435 2.15039,-2.48317 -0.002,-0.1864 -0.0809,-0.62073 -0.18384,-0.96773 -0.27072,-0.9545 -0.54974,-3.96 -0.39118,-4.26 0.1951,-0.3749 0.72031,-2.5308 0.7996,-3.28997 0.0678,-0.67199 0.66793,-2.79138 0.91186,-3.25378 0.15845,-0.31235 1.55365,-4.93845 1.55151,-5.14978 -0.002,-0.16162 0.34641,-1.39581 0.67145,-2.44337 1.02451,-3.18035 1.62485,-6.50554 1.83649,-10.16247 0.11584,-2.06483 0.11484,-2.16423 -0.15424,-2.95713 -0.34588,-1.0158 -0.34652,-1.078 -0.0206,-2.0385 l 0.26566,-0.7734 -0.28201,-0.8425 c -0.15393,-0.4708 -0.28302,-0.94193 -0.28428,-1.0662 -0.001,-0.1243 0.36701,-0.588 0.82255,-1.0277 l 0.81231,-0.80384 -0.0883,-1.35406 c -0.10271,-1.5529 -0.59671,-3.6861 -1.10498,-4.7749 l -0.34332,-0.7549 -0.0247,-3.66692 c -0.0212,-3.33143 -7.9e-4,-3.76673 0.23752,-4.78846 0.61942,-2.66656 0.6474,-3.58672 0.49039,-15.41972 -0.10233,-7.6567 -0.10388,-11.49788 -0.005,-12.80428 0.13028,-1.86596 0.11761,-6.80112 -0.009,-7.01112 -0.13873,-0.19746 -0.13037,-3.05678 0.003,-3.3689 0.19434,-0.44953 0.47159,-2.54078 0.60172,-4.4192 0.108,-1.6172 0.108,-1.6172 0.70633,-2.67987 0.31732,-0.58753 0.86645,-1.59998 1.19553,-2.24976 0.32907,-0.64977 0.82922,-1.58717 1.11038,-2.06237 0.26855,-0.4876 0.74453,-1.36255 1.04925,-1.96235 0.92606,-1.84918 1.67386,-2.88861 2.26784,-3.15565 0.28464,-0.12718 0.69205,-0.40477 0.90113,-0.6306 0.45525,-0.4646 1.32015,-2.21375 2.21685,-4.5102 0.35141,-0.8986 0.88535,-2.18444 1.17679,-2.8711 0.30383,-0.68682 0.64279,-1.58525 0.75049,-1.99663 0.12017,-0.41137 0.33825,-0.97307 0.48465,-1.24799 0.15881,-0.27514 0.60904,-1.23681 0.99792,-2.12341 0.38867,-0.89899 1.14499,-2.32385 1.68326,-3.18707 1.25992,-2.02655 1.73535,-2.95124 2.15735,-4.24835 0.49463,-1.48445 0.46292,-2.16779 -0.1196,-3.21857 l -0.4559,-0.82831 0.36947,-1.57013 c 0.48841,-2.10577 0.75519,-3.99798 0.76407,-5.57681 7.7e-4,-1.15619 0.0478,-1.41767 0.39935,-2.30383 l 0.40015,-0.9986 -0.0239,-2.3617 c -0.01,-2.20025 5.8e-4,-2.39923 0.25631,-2.92395 0.5116,-1.03692 0.54502,-1.42272 0.3978,-3.68371 -0.14603,-2.14904 -0.31644,-3.01758 -0.85181,-4.32984 -0.48456,-1.20098 -0.79339,-2.242 -1.22174,-4.02777 -0.20822,-0.91783 -0.50488,-1.98393 -0.64566,-2.38031 -0.14074,-0.39642 -0.25674,-0.80548 -0.25775,-0.9049 -0.001,-0.0994 -0.14267,-0.58277 -0.30926,-1.07837 -0.16663,-0.49555 -0.46183,-1.41255 -0.65445,-2.01978 -0.19272,-0.61957 -0.47486,-1.47442 -0.641,-1.92029 -0.38332,-1.02795 -0.87374,-2.81305 -1.23852,-4.46276 -0.14404,-0.71949 -0.39065,-1.74884 -0.5329,-2.29438 -0.1423,-0.54554 -0.32422,-1.3269 -0.39056,-1.73644 -0.0663,-0.40955 -0.23642,-1.25312 -0.36688,-1.8609 -0.13062,-0.6203 -0.36753,-1.92316 -0.52674,-2.9161 -0.39892,-2.56926 -0.47693,-2.9041 -0.9881,-4.2788 -0.42211,-1.1767 -1.48663,-4.41052 -1.70599,-5.20385 -0.15484,-0.55785 -1.40317,-3.52875 -1.68155,-4.0108 -0.13894,-0.22229 -0.39422,-0.87861 -0.5616,-1.44867 -0.41156,-1.36328 -0.58874,-1.67238 -1.27816,-2.23718 -0.31339,-0.25794 -0.86512,-0.72468 -1.2287,-1.0318 -1.35456,-1.17975 -2.21775,-1.71796 -4.3909,-2.7154 -1.23645,-0.57165 -2.41053,-1.11917 -2.62299,-1.22885 -0.19916,-0.10941 -0.43504,-0.19379 -0.51068,-0.19379 h -0.002 c -0.1647,0 -1.34814,-0.4967 -2.17143,-0.91034 -0.31244,-0.1585 -1.47278,-0.58184 -2.58298,-0.95599 -1.11001,-0.36169 -2.1582,-0.7489 -2.30823,-0.83441 -0.16259,-0.0978 -0.51214,-0.24342 -0.78646,-0.3277 -0.64847,-0.20472 -6.21481,-2.37359 -6.68954,-2.60498 -0.46235,-0.23151 -1.29893,-1.82672 -1.71113,-3.25214 -0.46396,-1.62384 -1.19497,-2.61096 -2.53367,-3.4552 -0.56296,-0.35473 -0.58847,-0.41668 -0.75113,-1.74523 -0.0827,-0.80713 -0.0827,-0.80713 0.66043,-2.30647 0.75506,-1.54906 1.237,-3.05813 1.46927,-4.67648 0.1163,-0.79682 0.18899,-0.98407 0.60693,-1.44824 0.43042,-0.46428 0.49075,-0.63904 0.58258,-1.39818 0.0572,-0.48542 0.16403,-0.98378 0.23715,-1.13368 0.0731,-0.13752 0.1308,-0.58557 0.12677,-0.98334 -0.005,-0.50964 0.0901,-0.92078 0.309,-1.40788 0.23089,-0.5245 0.33773,-1.02272 0.41366,-2.1175 0.0542,-0.7837 0.13394,-1.5055 0.15778,-1.60523 0.0364,-0.0874 -0.055,-0.52155 -0.19623,-0.96765 -0.30829,-0.97894 -0.22641,-1.4895 0.35174,-2.09198 0.97177,-1.01679 0.75391,-2.89174 -0.92633,-8.00884 -0.12848,-0.409 -0.20883,-0.97987 -0.20089,-1.4275 0.0564,-1.79077 -1.03595,-4.09192 -2.69306,-5.69123 -3.15087,-3.02612 -3.52652,-3.29597 -5.51031,-4.00927 -0.78614,-0.2904 -1.3216,-0.3844 -2.5531,-0.459 -1.38396,-0.0883 -2.44022,-0.13677 -3.28618,-0.13677 z"
         id="path2"
         inkscape:connector-curvature="0" />
    </g>
  </g>
</svg>
