<?xml version="1.0" encoding="UTF-8" standalone="no"?>
<svg
   xmlns:dc="http://purl.org/dc/elements/1.1/"
   xmlns:cc="http://creativecommons.org/ns#"
   xmlns:rdf="http://www.w3.org/1999/02/22-rdf-syntax-ns#"
   xmlns:svg="http://www.w3.org/2000/svg"
   xmlns="http://www.w3.org/2000/svg"
   xmlns:sodipodi="http://sodipodi.sourceforge.net/DTD/sodipodi-0.dtd"
   xmlns:inkscape="http://www.inkscape.org/namespaces/inkscape"
   version="1.1"
   id="Layer_1"
   x="0px"
   y="0px"
   viewBox="0 0 1698.495 1599.9983"
   enable-background="new 0 0 1762.849 1660.642"
   sodipodi:docname="cyclist.svg"
   width="1698.495"
   height="1599.9983"
   inkscape:version="0.92.4 (5da689c313, 2019-01-14)">
  <metadata
     id="metadata9">
    <rdf:RDF>
      <cc:Work
         rdf:about="">
        <dc:format>image/svg+xml</dc:format>
        <dc:type
           rdf:resource="http://purl.org/dc/dcmitype/StillImage" />
        <dc:title></dc:title>
      </cc:Work>
    </rdf:RDF>
  </metadata>
  <defs
     id="defs7" />
  <sodipodi:namedview
     pagecolor="#ffffff"
     bordercolor="#666666"
     borderopacity="1"
     objecttolerance="10"
     gridtolerance="10"
     guidetolerance="10"
     inkscape:pageopacity="0"
     inkscape:pageshadow="2"
     inkscape:window-width="640"
     inkscape:window-height="512"
     id="namedview5"
     showgrid="false"
     fit-margin-top="0"
     fit-margin-left="0"
     fit-margin-right="0"
     fit-margin-bottom="0"
     inkscape:zoom="0.14211372"
     inkscape:cx="849.32884"
     inkscape:cy="799.96025"
     inkscape:window-x="0"
     inkscape:window-y="0"
     inkscape:window-maximized="0"
     inkscape:current-layer="Layer_1" />
  <path
     d="m 1598.7363,1004.5341 c -115.991,-119.10801 -301.76,-141.06901 -443.731,-46.42801 -4.498,-1.789 -7.654,2.889 -12.85,-2.655 -3.478,-3.713 -1.688,-1.893 -24.519,-3.284 -3.722,-9.556 -6.147,-19.263 -6.909,-32.241 -0.415,-7.06 -1.359,-3.913 5.958,-46.501 1.8,-9.833 3.522,-20.081 6.119,-29.938 0.588,-2.146 1.201,-6.159 -1.276,-8.922 -3.113,-4.034 -10.909,-0.629 -12.011,-3.077 7.44,-26.149 45.762,-162.953 46.179,-164.442 1.547,-5.215 9.458,-13.479 16.119,-15.325 2.984,-0.482 6.118,0.343 9.178,-0.462 l 0.143,-0.037 c 1.701,-6.737 -2.406,-13.246 0.635,-19.323 8.412,-0.993 14.199,-1.899 31.253,-36.424 l 0.037,-0.075 c 31.913,-2.821 37.352,-0.579 40.013,16.641 0.308,1.996 0.628,4.061 1.16,6.013 0.648,1.71 2.471,3.202 4.436,3.202 2.078,0 2.913,-1.374 3.707,-3.228 3.476,-9.436 20.865,-43.987 8.843,-45.884 -33.692,-4.962 -54.588,-7.142 -89.563,-6.961 -6.371,0.045 -13.11,-0.368 -19.627,0.549 -24.371,3.103 -56.585,8.313 -78.023,6.935 6.637,-5.93 12.864,-13.307 19.725,-24.196 33.866,-54.202 8.762,-120.475 -33.748,-168.21 -1.413,-1.761 -3.813,-2.572 -6.594,-2.251 -0.727,-0.915 -1.705,-2.354 -2.94,-4.175 -35.88,-52.884 -39.411,-17.895 -78.59196,-61.858 -5.573,-6.292 -48.124,-34.427 -64.278,-37.319 -16.786,-3.007 -43.982,-29.149 -63.874,-34.411 -12.469,-3.471 -39.804,-12.586 -54.007,-22.246 -18.409,-12.312 -51.037,-36.639 -59.028,-39.042 l 0.01,-0.031 c -0.18,-0.031 -0.494,-0.094 -0.495,-0.093 -4.91,-1.046 -36.071,-12.147 -76.354,-14.947 -7.441,-1.147 -36.694,-1.454 -50.284,0.184 -5.272,0.057 -10.445,1.187 -15.673,1.633 -25.523,3.907 -34.124,6.956 -48.374,12.008 l -2.764,0.985 c -4.233,-0.514 -8.293,0.833 -12.217,2.141 -4.304,1.43 -6.107,1.928 -7.141,3.706 -2.342,3.574 -4.7,7.51 -7.041,11.743 -3.368,-0.733 -6.357,-2.105 -9.724,-2.216 -1.089,-4.263 -0.203,-8.691 0.698,-12.068 0.399,-1.494 1.109,-3.286 2.577,-3.59 8.47,-2.467 10.245,-7.379 11.592,-9.966 3.557,-6.818 3.868,-8.897 3.3,-12.795 -0.395,-2.709 -0.475,-2.871 0.975,-4.787 1.471,-1.945 2.131,-3.225 0.105,-6.731 -1.199,-2.075 -1.866,-3.07 -0.315,-9.962 0.993,-4.41 1.18,-4.79 -0.936,-7.423 -5.315,-6.619 4.827,-4.303 4.579,-25.99 0.535,0.681 0.27,0.361 0.891,1.108 1.137,-4.599997 -0.112,-8.110997 -3.57,-17.326997 -4.763,-12.696 -2.728,-7.346 -7.381,-22.21 -1.02,-5.426 -5.382,-13.167 -4.816,-12.167 -9.495,-16.779 -17.976,-14.964 -21.095,-22.657 -1.956,-6.956 2.918,-14.521 -4.872,-16.648 -0.747,-0.1 -2.346,0.335 -3.061,0.531 -3.191,0.872 -5.296,1.566 -11.686,-6.2539999 -3.029,-3.704 -3.642,-4.018 -3.642,-4.018 -2.657,-0.85700003 -5.527,-0.62300003 -7.988,-0.28000003 -1.718,0.26500003 -3.171,1.18200003 -4.576,2.07000003 -4.065,2.567 -5.021,2.721 -9.732,-0.229 -7.33,-4.586 -10.328,-1.85900003 -24.722,-2.01700003 -9.913,-0.105 -17.734,1.09900003 -25.181,8.12900003 -3.758,3.5469999 -4.997,4.0709999 -9.745,5.0939999 -4.654,1.003 -5.851,1.889 -5.851,1.889 -13.615,7.448 -14.1,8.304 -21.434,13.599 -9.55,6.891 -7.385,6.729 -14.464,8.194 -5.23,1.082 -12.391,2.563 -21.187,11.176 -2.328,2.487 -3.964,5.519 -5.547,8.451 -2.381,4.414 -3.044,4.967 -4.612,12.809 -1.924,9.635 -2.582,11.411 -16.221,23.77 -10.528,9.539997 -16.047,14.683997 -20.358,28.856997 -0.302,0.992 -0.563,1.849 -0.837,2.596 -2.57,6.728 -2.193,50.99 -0.034,60.577 0.629,2.675 2.642,4.625 4.22,6.677 1.652,2.115 1.783,5.097 3.526,7.28 7.063,8.893 11.598,4.122 14.765,8.028 0.322,0.927 0.414,1.942 0.503,2.924 0.868,9.568 7.266,3.149 19.231,-0.076 2.324,4.12 5.624,10.27 6.989,21.732 0.592,4.974 1.467,9.407 1.44,9.242 -1.043,21.626 -2.089,32.382 3.287,33.211 6.818,1.019 13.237,-2.355 19.621,-3.816 4.778,-1.065 5.431,2.022 6.146,5.506 0.782,3.807 1.49,4.501 1.49,4.501 3.472,1.695 6.768,-0.705 9.947,-1.83 2.642,1.755 5.473,3.895 6.04,7.018 0.108,5.175 -1.959,10.851 0.66,15.857 l 0.064,0.123 c 1.323,0.098 2.403,0.061 3.826,0.006 6.78,-0.262 6.732,0.337 6.842,4.902 -0.399,5.06 2.668,11.324 7.291,14.892 6.457,4.984 10.172,1.7 17.965,-2.192 3.677,-1.828 6.454,-4.991 10.039,-6.855 3.409,-1.831 7.04,-3.952 10.848,-5.542 -0.102,1.029 -0.135,1.573 -0.165,2.245 5.008,0.642 10.135,1.13 15.183,0.27 1.647,-0.205 1.895,-1.868 2.605,-3.579 l -0.067,0.007 c 0.57,-2.385 1.064,-5.829 1.49,-9.91 5.452,-3.396 3.229,-3.829 15.861,-0.74 5.03,1.229 10.579,2.584 14.821,3.069 l 1.231,0.611 c -0.44,4.116 -0.767,8.352 -0.922,12.489 15.116,5.469 13.653,-0.238 17.835,-1.292 5.112,-1.462 12.069,-0.128 14.883,5.226 1.958,3.88 3.73,7.866 5.697,11.799 1.434,9.459 16.766,67.253 43.917,86.151 2.389,1.757 10.957,6.772 23.756,9.447 4.536,99.715 6.746,68.684 0.943,87.836 -11.778,33.938 -26.17,81.787 -34.834,102.253 -6.304,13.56 -17.483,45.696 -29.3,76.91 -6.39,-0.998 -13.181,-2.063 -19.896,-3.167 -14.833,-11.689 -19.823,-12.152 -26.726,-12.791 -10.043,-0.931 -16.476,-3.525 -44.417,-0.026 -3.807,0.52 -7.86,0.768 -11.374,2.644 -5.089,2.724 -6.337,1.997 -20.72,2.588 -42.986,1.767 -47.973,0.435 -62.822,-22.51 -2.961,-4.575 -5.102,-7.883 -7.419,-8.058 -16.476,-2.457 -24.773,1.655 -34.114,16.906 -6.483,3.55 -5.066,7.658 -4.027,10.661 0.434,1.252 0.598,1.98 0.598,1.98 0.238,0.908 0.587,1.804 1.357,2.438 16.558,15.5 17.254,17.296 17.34,20.208 1.283,17.895 1.479,35.155 5.155,42.007 7.065,12.906 7.06,39.267 7.058,50.524 -0.01,19.255 -3.478,22.327 -4.989,26.57 0.745,2.864 4.279,4.044 6.528,2.552 3.404,-2.103 5.184,-5.855 7.382,-8.981 5.467,-8.627 11.593,-17.3 15.394,-27 1.9,13.351 3.378,26.794 4.396,39.948 -0.047,2.062 0.666,4.506 -0.825,6.125 -2.26,2.676 -4.903,5.35 -6.307,8.736 -1.779,4.2 2.37,6.356 6.93,2.694 13.871,-11.138 21.598,-21.731 21.284,-39.763 -0.35,-13.502 1.455,-15.128 -10.182,-24.02 -2.185,-1.67 -4.444,-3.396 -6.291,-5.393 -3.24,-5.431 -4.889,-16.613 -2.173,-24.626 0.498,-2.131 12.442,-6.34 23.166,-4.647 1.55,0.661 1.828,2.309 2.095,3.906 1.531,9.135 5.772,17.904 13.912,22.149 -6.205,5.528 -10.792,9.923 -13.561,12.817 -5.66,6.053 -7.338,6.819 -3.616,12.522 5.021,6.883 9.586,9.301 15.608,11.319 4.437,1.493 4.893,2.135 3.497,10.924 -2.008,12.622 0.64,9.375 11.486,11.197 -0.808,45.55 19.551,71.292 27.224,80.992 0.422,0.533 0.8,1.012 1.143,1.452 -98.545,-27.636 -210.051,-8.339 -295.669,53.408 -146.681998,105.53801 -188.164998,304.56301 -98.487998,459.23401 62.563998,107.907 177.178998,174.26 301.645998,174.237 166.237,0 305.662,-116.032 340.852,-272.217 30.254,-134.277 -20.404,-278.824 -140.328,-363.67501 1.071,-1.69 1.508,-3.002 1.716,-4.341 -2.562,-1.457 -4.759,-2.351 -7.752,-3.555 -2.666,-1.072 -3.904,-1.91 -6.907,-0.948 l -0.159,0.051 c -2.341,-1.47 -4.577,-2.832 -6.407,-3.898 3.281,-3.909 6.658,-7.436 9.866,-11.219 1.109,-1.334 2.476,-2.554 4.053,-3.64 46.695,52.909 233.25,267.38101 296.462,341.35601 -0.585,1.133 -1.19,2.36 -1.799,3.659 -2.821,0.286 -5.438,0.359 -8.411,0.749 -0.169,0.876 -0.236,1.22 -0.378,2.136 2.194,1.602 6.008,3.983 5.859,3.888 -0.593,1.967 -1.254,3.862 -1.834,5.479 -2.944,0.465 -5.66,-0.062 -8.597,1.428 1.132,3.273 4.346,3.786 6.616,5.659 -0.317,1.723 -0.66,3.279 -1.046,4.748 -2.17,0.629 -4.467,1.083 -6.533,1.951 -1.164,0.327 -1.105,2.083 -0.066,2.603 1.758,0.922 3.698,1.521 5.547,2.276 -0.101,1.815 -0.273,3.748 -0.536,6.053 -1.765,0.633 -4.179,1.531 -5.414,1.997 -0.086,0.567 -0.238,1.473 -0.336,2.066 1.702,0.746 3.446,1.417 5.501,2.074 0.165,2.549 0.218,4.834 0.162,6.972 -6.936,2.158 -5.228,1.711 -6.052,3.97 1.52,0.724 3.126,1.394 6.587,2.423 0.525,2.171 0.844,4.423 1.148,6.608 -1.471,0.884 -2.132,1.256 -5.206,3.07 0.105,0.848 0.173,1.273 0.328,2.162 2.089,0.395 6.303,1.092 6.227,1.079 0.599,1.837 1.136,3.729 1.599,5.627 -1.724,0.986 -3.071,1.785 -4.366,2.573 -0.113,0.627 -0.223,1.283 -0.329,1.926 2.286,0.979 4.279,1.115 6.726,1.459 0.792,1.539 1.425,3.138 1.883,4.754 -1.287,1.17 -2.619,2.487 -3.864,3.755 0.16,0.59 0.362,1.338 0.511,1.928 2.815,0.014 6.239,-0.233 6.113,-0.225 1.28,2.386 2.708,4.663 3.824,7.108 -1.554,1.602 -3.474,2.577 -3.537,5.173 2.514,0.599 4.373,0 6.713,-0.053 1.859,1.26 2.943,3.513 4.358,5.347 -1.078,1.255 -2.009,2.372 -2.988,3.627 l 0.517,1.949 c 2.202,-0.156 3.948,-0.445 6.506,-0.922 1.269,1.171 2.587,2.495 4.024,4.042 -0.832,2.246 -2.369,3.906 -1.707,6.6 2.488,-0.259 4.062,-1.347 6.205,-2.4 1.205,0.865 2.482,1.858 3.894,3.027 -0.828,2.315 -1.911,3.985 -1.714,6.6 2.874,0.14 4.575,-1.605 6.82,-2.757 0.301,0.15 0.57,0.305 0.852,0.458 -4.2,3.005 -39.634,32.829 -67.023,36.138 -5.411,0.681 -9.836,4.014 -11.278,8.501 -2.636,6.333 2.294,16.81 7.717,21.765 5.675,5.267 10.007,6.068 25.205,7.67 32.209,3.395 40.771,2.024 50.011,0.73 -0.797,3.965 5.722,9.127 12.827,11.977 3.771,1.532 8.447,1.64 12.847,0.15 6.573,-2.217 7.197,-7.647 7.284,-13.408 19.136,3.662 19.546,-1.238 20.223,-11.704 l 0.044,-0.666 c 2.495,-1.3 5.096,-2.483 7.614,-3.626 7.751,-3.518 13.881,-7.154 25.506,-9.659 38.63096,-7.122 38.11096,-4.94 57.35996,-6.445 9.581,-0.889 18.059,-4.686 23.855,-10.675 0.81,-0.687 1.184,-1.729 1.155,-3.17 1.677,-2.549 2.907,-4.262 4.017,-5.985 1.114,2.283 2.499,4.449 3.85,6.544 134.944,209.622 431.475,213.718 574.84,19.815 102.268,-137.822 88.578,-331.15 -31.246,-453.917 z M 596.53234,421.85409 c 0.007,0.095 0.014,0.189 0.022,0.284 -0.028,-0.139 -0.03,-0.123 -0.022,-0.284 z m -253.894,328.618 c -3.866,0.329 -7.295,-3.183 -7.801,-6.625 -0.785,-4.662 -0.764,-9.487 -0.743,-14.154 0.048,-10.288 0.292,-8.243 1.645,-18.821 1.416,0.426 3.006,0.861 4.742,1.307 -1.709,3.199 -4.157,6.889 -2.152,10.436 2.448,5.021 3.28,11.775 4.133,18.077 0.437,3.223 0.889,6.554 0.176,9.78 z m 136.523,-20.202 c 2.039,1.082 4.559,1.379 7.695,0.891 7.63,-1.129 13.542,-2.968 18.595,-5.776 1.072,3.888 2.056,7.609 5.29,10.01 -2.845,6.212 -5.569,11.639 -8.097,15.948 -7.739,-0.061 -13.241,0.447 -17.264,0.816 -2.334,0.214 -4.109,0.375 -5.451,0.344 -3.09,-7.496 -3.365,-15.571 -0.768,-22.233 z m -2.12,-2.467 c -3.152,7.014 -3.357,15.699 -0.564,23.852 l -0.186,0.689 c -3.41,0.64 -5.362,0.443 -27.164,1.645 5.504,-8.536 11.706,-16.664 17.518,-25.076 3.34,-0.358 6.754,-0.595 9.133,-3.123 0.398,0.692 0.816,1.368 1.263,2.013 z m -8.6,-23.718 c 1.05,3.525 2.01,7.882 3.43,12.382 -0.695,1.052 -1.195,1.839 -1.444,2.247 -6.37,-0.014 -20.452,0.738 -26.051,-0.239 2.441,-5.279 -0.5,-7.209 -7.194,-11.714 9.03,-3.488 19.929,-3.391 31.259,-2.676 z m -35.609,38.921 c 1.925,-5.612 7.845,-8.63 12.112,-10.405 4.21,-1.378 7.3,-1.746 17.557,-3.128 -5.489,8.493 -11.622,16.383 -17.228,24.732 -4.01,0.227 -8.591,0.496 -13.882,0.819 -0.729,-3 -0.782,-5.613 1.441,-12.018 z m -13.317,95.018 c 2.555,2.111 3.168,2.035 5.145,2.198 4.828,0.4 9.82,0.814 14.727,0.152 2.61,0.731 4.647,3.245 7.499,3.74 3.162,1.143 6.318,-0.338 9.32,-0.642 3.773,0.242 6.585,3.454 10.795,3.329 0.473,-0.744 0.988,-1.516 1.483,-2.237 4.892,9.349 11.462,16.55 21.875,14.579 8.935,-1.882 11.766,-16.449 12.242,-19.348 0.531,-3.075 -0.392,-6.102 -0.733,-9.058 l 0.731,-0.232 c 3.875,0.599 7.823,1.005 11.664,1.896 -3.636,9.74 -27.479,56.018 -26.515,64.736 0.217,3.411 1.86,6.794 4.898,10.091 -4.463,6.239 -8.576,12.835 -12.633,19.126 -9.471,-3.872 -21.52,-7.956 -25.621,-9.301 -7.38,-8.009 -32.965,-31.326 -34.877,-79.029 z m 42.514,250.55601 c 1.666,-3.436 3.833,-6.688 6.058,-10.13 32.484,-49.056 28.03,-44.86 32.271,-45.665 l -0.002,-0.015 c 2.116,-0.193 9.936,-1.835 11.232,-2.039 -4.627,6.905 -56.053,77.286 -64.994,88.989 4.833,-10.506 10.409,-20.751 15.435,-31.14 z m -69.562,54.848 c 8.762,-27.676 51.129,-154.79401 53.21,-161.03701 2.451,0.701 4.855,1.622 7.153,2.743 -2.202,5.902 -49.789,131.37201 -60.363,158.29401 z m 100.449,-111.126 0.003,0.01 c 0.235,1.967 -0.511,2.231 -7.477,13.01 -2.493,3.857 -4.397,6.804 -5.852,8.556 0.473,-1.463 19.793,-40.39 21.821,-43.57 l 1.035,0.964 c -5.818,9.778 -9.897,17.014 -9.53,21.034 z m -50.831,-51.23901 c -3.868,12.528 -78.833,238.83001 -84.757,254.85401 -1.001,-0.013 -2.467,0 -5.552,-0.375 -0.194,-9.275 3.82,-260.08901 4.325,-270.16001 5.418,-0.336 44.362,0.798 85.984,15.681 z m -9.751,541.96801 c -21.308,6.942 -45.095,11.115 -70.712,12.405 -0.654,-9.603 -9.119,-246.53 -9.154,-256.203 1.437,-0.081 2.827,-0.035 4.144,0.141 27.01,87.073 71.736,230.432 75.722,243.657 z m -79.976,-557.57601 c -0.36,10.727 -2.798,174.77701 -3.547,211.84601 -1.72,-42.524 -5.499,-153.624 -7.611,-211.87101 4.316,-0.279 7.876,-0.272 11.158,0.025 z m -21.516,0.378 c 2.171,-0.13 4.412,-0.265 6.618,-0.471 0.349,9.355 9.065,248.42701 9.52,270.13501 -6.844,-20.554 -77.745,-249.24301 -80.345,-257.66101 6.314,-2.462 34.133,-10.199 64.207,-12.003 z m -136.253,46.18101 c 31.161,-20.80301 62.508,-31.80201 68.363,-32.95501 2.672,8.315 78.813,251.64101 80.543,259.34901 -0.988,0.501 -1.792,0.927 -2.807,1.411 -4.535,-5.221 -151.54,-213.729 -156.155,-220.552 3.032,-2.786 6.716,-4.852 10.056,-7.253 z m -13.334,9.473 c 5.393,7.493 148.705,209.762 155.964,221.135 -2.091,-0.604 -215.686,-157.81 -216.697,-158.567 16.635,-23.68 37.066,-44.729 60.733,-62.568 z m -62.932,65.843 c 6.638,4.629 187.175,136.922 216.438,158.414 -0.498,0.949 -1.043,2.024 -1.533,3.008 -4.091,-0.883 7.405,2.528 -252.464998,-84.34 3.373,-14.661 24.113998,-61.134 37.559998,-77.082 z m -38.807998,80.738 c 7.134,1.913 164.209998,54.588 192.586998,64.521 -29.303,-7.714 -188.753998,-52.422 -195.158998,-54.26 0.266,-3.522 1.631,-6.916 2.572,-10.261 z m -11.685,73.737 c 0.391,-27.459 6.241,-54.094 8,-59.775 8.744,2.402 246.541998,68.3 255.766998,71.319 -0.034,0.061 -0.042,0.076 -0.082,0.15 -34.904,-0.01 -255.815998,-1.026 -264.022998,-1.239 -0.176,-3.48 0.163,-6.998 0.338,-10.455 z m 0.057,14.562 c 14.379,-0.291 170.128998,0.349 206.120998,0.789 -36.516,1.786 -198.152998,9.641 -205.970998,9.684 -0.126,-3.564 -0.273,-7.052 -0.15,-10.473 z m 0.738,14.451 c 8.267,-0.717 254.478998,-12.269 262.384998,-12.564 0.082,0.26 0.279,0.867 0.37,1.15 h 0.014 c 0.026,0.345 0.082,0.606 0.138,0.953 -44.019,14.089 -242.058998,77.414 -249.613998,79.595 -10.135,-30.124 -13.629,-61.708 -13.293,-69.132 z m 14.568,72.874 c 8.585,-2.899 241.401998,-77.333 249.015998,-79.613 0.377,0.66 0.523,0.893 0.818,1.542 -6.162,5.046 -203.538,147.667 -210.994,153.052 -19.51,-26.547 -32.833998,-56.075 -38.839998,-74.981 z m 41.395998,78.252 c 0.103,-1.13 208.778,-151.596 210.523,-152.776 0.398,0.574 0.799,1.155 1.206,1.751 -25.624,35.161 -146.487,200.7 -153.167,209.397 -23.986,-15.292 -58.744,-56.43 -58.562,-58.372 z m 70.142,66.883 c -0.091,-0.154 -0.126,-0.243 -0.279,-0.362 -2.835,-1.686 -5.546,-3.661 -8.299,-5.71 1.833,-2.557 121.283,-166.293 123.905,-169.444 -0.805,1.381 -113.906,174.754 -115.327,175.516 z m 3.719,1.968 c 4.548,-6.973 136.908,-209.843 141.743,-216.313 1.629,1.062 2.387,1.523 2.892,1.77 l -0.012,0.025 c 0.227,0.146 0.637,0.409 0.924,0.591 -2.101,7.339 -78.326,236.48 -81.15,244.841 -23.506,-6.609 -59.582,-26.127 -64.397,-30.914 z m 68.118,32.133 c 0.532,-2.08 78.789,-238.538 80.454,-242.74 -0.059,18.876 -3.612,240.163 -4.114,255.386 -30.869,-0.684 -59.61,-6.96 -76.34,-12.646 z m 83.574,-199.869 c 1.581,36.1 6.575,187.501 7.669,212.434 -3.713,0.232 -7.476,0.237 -11.194,0.018 0.597,-21.891 2.83,-177.153 3.525,-212.452 z m 4.803,276.567 c 32.664,-0.59 65.129,-5.759 96.375,-15.331 -31.123,9.578 -63.565,14.786 -96.375,15.331 z m 149.059,-110.535 c -32.65,21.706 -63.711,31.768 -67.966,32.736 -3.077,-8.599 -73.445,-235.18 -75.658,-243.605 0.612,-0.153 1.299,-0.311 1.921,-0.455 5.806,7.796 138.688,196.054 146.723,207.64 -1.44,1.491 -3.293,2.534 -5.02,3.684 z m 8.259,-5.855 c -5.645,-7.484 -141.162,-199.686 -146.272,-206.977 1.525,-1.092 3.084,-2.322 4.735,-3.275 1,-0.61 203.07,148.219 203.886,149.112 -25.41,34.469 -55.716,57.054 -62.349,61.14 z m 64.701,-64.451 c -7.788,-5.357 -197.15,-144.483 -203.349,-149.041 0.285,-0.941 0.676,-1.889 1.165,-2.821 9.954,3.057 230.767,77.026 239.876,80.352 -13.003,37.417 -33.702,66.689 -37.692,71.51 z m 38.972,-75.215 c -6.823,-2.207 -166.397,-55.397 -194.073,-65.086 28.721,7.427 190.891,53.031 197.245,54.937 -0.628,3.422 -1.853,6.756 -3.172,10.149 z m 10.153,-37.656 c -0.207,0.834 -0.389,1.379 -1.002,1.379 l -0.016,0.072 c -2.463,-0.728 -6.101,-0.955 -10.959,-1.911 0.079,1.038 0.147,1.889 0.248,2.956 3.001,0.457 4.321,0.918 10.09,2.227 0.119,0.086 0.455,0.33 0.567,0.412 -1.406,6.35 -2.73,12.649 -4.776,18.602 -87.675,-24.22 -234.149,-65.252 -243.532,-67.651 0,-10e-4 0.334,-2.458 0.643,-4.331 8.411,-0.432 240.563,0.649 253.65,0.712 0.675,14.271 -3.738,42.76 -4.913,47.533 z m 5.033,-51.237 c -10.017,0.08 -203.292,-0.709 -210.931,-0.737 11.054,-0.593 187.006,-8.982 210.832,-10.05 0.445,4.241 0.477,7.682 0.099,10.787 z m -0.143,-14.475 c -85.37,4.035 -168.33,8.022 -250.638,11.923 0.584,-1.583 1.022,-3.401 2.393,-4.329 1.174,-0.376 236.05,-75.573 237.573,-75.97 4.355,10.875 11.678,54.952 10.672,68.376 z m -11.652,-72.07 c -17.177,5.71 -220.746,70.717 -234.348,74.959 0.23,-1.102 0.538,-2.184 0.911,-3.226 4.496,-2.285 12.422,-6.55 16.279,-9.435 3.025,-2.258 4.412,-3.299 2.61,-11.391 0.166,-0.241 0.53,-0.78 0.678,-0.993 89.004,-64.393 171.927,-124.56 176.959,-127.988 14.82,20.875 29.281,51.463 36.911,78.074 z m -39.06,-81.16 c -175.589,127.085 -177.238,129.186 -181.031,129.624 -0.421,-0.064 -0.431,-0.167 -1.015,-0.222 3.985,-8.527 31.866,-63.823 33.915,-68.188 4,-8.514 2.772,-5.907 88.81,-123.694 6.051,3.487 38.102,30.616 59.321,62.48 z m 269.497,-340.05301 c 0.231,11.178 -0.519,13.533 -0.642,42.581 -5.148,-4.44 -11.654,-9.591 -17.07,-13.79 -35.83,-26.781 -59.212,-33.669 -70.445,-37.691 32.595,-4.676 66.789,-18.787 88.352,-29.248 -1.19,12.081 -1.087,25.692 -1.272,33.038 -0.045,1.78 -0.086,3.617 1.077,5.11 z m -194.514,-140.194 c 1.505,-6.145 1.984,-7.42 5.845,-14.419 5.064,-9.18 10.803,-19.584 5.275,-38.424 0.862,-6.101 8.525,-30.389 10.051,-70.044 0.053,-1 0.362,-10.899 0.88,-19.588 3.802,0.579 7.698,0.492 11.467,0.407 17.755,-0.406 15.032,-5.295 33.032,-1.195 15.189,3.442 22.608,8.069 36.531,17.58 18.632,12.725 21.434,14.618 44.749,14.533 4.996,-0.019 5.21,0.126 11.434,-0.769 9.116,-1.311 9.351,-0.899 11.831,0.672 6.695,4.248 8.239,5.069 10.529,6.974 -45.752,26.894 -91.729,58.701 -96.954,63.028 -39.258,32.522 -87.006,86.891 -119.546,125.844 -6.598,7.745 -11.119,16.142 -13.55,25.086 -2.176,-2.037 -4.522,-3.825 -6.983,-5.322 13.496,-13.04 50.983,-86.293 55.409,-104.363 z m -33.15,172.467 0.047,0.005 c 0.159,-1.014 0.252,-1.998 0.381,-3.065 7.721,8.098 14.282,15.911 36.374,29.623 -6.478,0.048 -34.135,-2.653 -39.944,-3.469 1.949,-12.148 2.985,-18.958 3.142,-23.094 z m -5.838,21.342 c -2.066,-0.924 -4.087,-2.085 -6.163,-3.538 5.01,-25.632 3.637,-25.423 4.564,-31.611 1.79,2.287 3.194,4.719 5.015,7.133 -0.648,9.729 -1.796,19.152 -3.416,28.016 z m -45.76,-22.711 c 0.56,-9.611 3.884,-19.338 11.177,-25.675 11.973,-4.949 18.958,-18.553 23.069,-20.729 0.841,15.824 3.462,19.982 7.048,29.108 -0.301,10.727 -1.617,21.745 -3.916,32.763 -0.47,2.883 -3.112,4.591 -5.058,6.789 -18.761,-5.252 -23.272,-15.439 -32.32,-22.256 z m 175.048,268.40301 c -0.899,-1.862 -2.202,-4.922 -4.903,-10.868 0.957,-0.988 2.058,-2.009 3.424,-3.182 6.406,5.179 3.293,6.967 1.479,14.05 z m 176.587,178.128 c -1.939,0.129 -3.938,0.258 -5.91,0.209 -1.158,-2.447 -2.23,-4.49 -3.386,-6.526 -1.042,-0.031 -1.291,-0.036 -2.022,-0.066 -0.885,2.668 -1.116,4.977 -1.586,7.69 -2.296,0.596 -4.377,1.044 -6.35,1.368 -1.291,-1.802 -2.609,-3.504 -3.461,-4.612 -0.856,0.051 -1.391,0.099 -2.111,0.173 -0.256,2.173 -0.329,3.916 -0.41,6.216 -1.695,0.621 -3.363,1.377 -5.103,1.773 -3.135,-1.572 0.376,2.163 -72.64,-82.287 4.869,-0.923 9.754,0.987 14.72,0.358 4.409,-0.599 8.793,-11.493 10.211,-15.71 16.361,-13.803 14.708,-12.889 25.124,-22.353 6.739,-6.122 9.008,-8.185 8.82,-11.932 0.058,-15.652 -8.889,-19.543 -20.643,-33.564 l 0.004,-0.01 c -0.191,-0.212 -0.091,-0.096 -0.337,-0.39 l -0.007,0.01 c -12.581,-13.914 -33.971,-37.655 -47.766,-52.697 -0.477,0.375 -0.804,0.635 -1.57,1.283 0.466,-0.471 0.997,-0.988 1.476,-1.449 -17.498,-22.19301 -20.475,1.876 -29.347,-14.77901 -3.155,-6.064 -2.878,-7.394 -2.099,-11.308 2.256,-11.314 -4.467,-9.195 -8.134,-9.794 -0.802,-2.368 -1.269,-5.158 -3.432,-6.826 -3.995,-3.186 -10.039,-3.304 -13.76,-0.271 -6.596,5.138 -9.226,7.25 -10.979,8.78 -0.791,-2.409 -2.341,-4.268 -4.413,-5.258 -0.386,-2.907 -0.499,-11.928 -4.657,-11.411 -1.098,0.332 -4.125,3.035 -4.975,3.806 -3.058,-1.402 -3.181,-1.945 -8.227,2.743 -5.715,5.308 -4.495,4.241 -4.033,8.407 -1.138,1.188 -4.384,3.164 -3.374,5.334 2.341,3.239 6.665,3.184 10.151,4.112 0.987,0.169 1.082,1.439 1.707,2.205 0.726,1.453 2.207,2.032 3.643,2.858 -2.45,2.236 -3.548,3.508 -8.198,8.062 -1.369,1.337 -2.785,2.71901 -3.606,4.52001 -1.61,3.687 -1.433,7.864 0.465,10.907 1.498,2.281 4.135,3.247 6.42,4.452 0.053,0.637 0.043,1.326 0.033,2.052 -0.09,6.517 1.858,7.28 8.811,6.926 3.855,-0.196 6.497,-0.46 11.936,4.032 -2.037,0.314 -7.72,0.669 -8.613,3.562 -0.167,2.651 1.37,5.016 2.255,7.376 2.775,6.851 6.94,9.347 8.685,20.585 -74.239,-86.11001 -149.702,-174.03101 -150.799,-176.57501 -3.066,-7.037 -8.944,-24.615 2.684,-35.861 1.922,-2.207 -5.565,-1.19 138.528,1.687 32.83,22.461 71.212,49.631 103.975,69.81 -0.05,5.82 0.956,11.042 1.637,16.75 2.422,16.459 1.376,21.675 26.687,78.03101 2.218,5.218 5.485,9.919 7.836,15.035 15.355,32.173 17.176,71.665 22.184,92.728 1.157,4.459 2.262,9.014 3.33,13.419 1.43,5.897 2.909,11.994 4.536,17.951 -13.85,12.332 -4.147,24.972 7.281,29.558 2.707,13.291 6.274,25.375 9.031,38.227 z m 688.73996,-82.183 c 5.555,11.509 17.221,48.69 19.53,83.966 -101.259,10.408 -182.347,18.208 -192.519,19.673 -1.126,-8.136 -3.736,-15.895 -7.83,-23.192 1.275,-1.355 179.039,-79.931 180.819,-80.447 z m -184.601,148.277 c -6.141,-2.206 -11.918,-5.427 -17.72,-8.022 -4.389,-2.282 -7.926,-3.348 -12.267,-6.065 2.991,0.462 0.123,0.017 2.782,0.434 0.159,-2.195 -1.345,-2.931 -2.312,-4.348 0.361,-0.726 0.723,-1.444 1.094,-2.151 1,-0.126 2.1,-0.225 3.25,-0.498 l 0.017,0.032 c 0.229,-0.089 0.142,-0.061 0.487,-0.15 l -0.01,-0.014 c 2.905,-0.972 3.244,-0.013 22.623,3.95 5.129,1.048 6.229,1.275 7.674,2.307 -1.404,5.143 -3.301,10.05 -5.62,14.525 z m 1.469,5.135 c 0.439,0.206 172.666,81.447 172.863,81.89 0.275,0.616 -0.383,1.761 -0.67,2.375 -3.047,5.593 -5.958,11.369 -9.423,16.705 -1,-0.533 -164.377,-96.102 -164.747,-97.361 0.01,-0.014 1.302,-2.328 1.977,-3.609 z m -43.964,-5.681 c 1.69,1.125 2.35,1.386 3.35,1.743 -0.07,-1.67 -0.361,-3.142 -1.339,-4.679 0.714,-0.681 1.407,-1.276 2.113,-1.811 1.826,0.96 2.957,1.367 3.957,1.715 -0.214,-1.09 -0.239,-1.227 -0.605,-2.967 3.033,1.101 4.085,2.043 7.269,3.939 6.208,3.741 18.564,10.611 21.813,13.275 -1.11,1.784 -2.273,3.521 -3.277,4.79 -0.589,-1.138 -0.925,-3.137 -2.662,-3.071 -6.201,-0.08 -7.551,5.82 -10.572,10.236 -20.542,-23.594 -18.005,-18.548 -20.047,-23.17 z m 17.274,25.67 c -3.43,0.973 -7.531,-0.824 -9.295,-4.14 -1.63,-3.093 -2.524,-7.339 -2.402,-8.921 3.58,3.665 7.221,7.731 11.697,13.061 z m 0.072,-77.945 c -0.148,-0.771 -0.312,-1.583 -0.377,-2.361 0.303,-0.614 1.164,-0.789 1.803,-1.066 8.419,-3.309 15.798,-6.985 23.996,-10.466 4.1,6.571 6.551,14.171 7.592,22.117 -2.439,0.364 -25.231,2.99 -29.037,2.545 -1,-0.397 -1.804,-0.757 -2.732,-1.127 -0.175,-1.882 -0.344,-3.88 -0.38,-5.884 1,-0.694 0.602,-0.403 3.016,-2.09 -1.238,-1.381 -2.354,-1.256 -3.881,-1.668 z m -1.27,-11.476 c -0.661,0.353 -1.37,0.493 -2.089,0.415 -0.682,-0.519 -0.919,-1.51 -1.341,-2.269 0.761,-1.203 1.162,-1.776 2.103,-3.279 -2.046,-0.602 -3.797,0.645 -4.572,-0.895 -1.106,-1.363 0.597,-2.883 8.764,-10.082 1.793,-1.581 3.645,-3.214 5.425,-4.873 3.934,2.807 7.745,6.117 11.379,9.91 -6.862,3.836 -13.303,7.167 -19.669,11.073 z m -8.769,-10.341 c -0.516,-0.488 -0.611,-0.574 -1.282,-1.212 0.702,-2.049 0.927,-2.991 1.162,-3.991 -1,0.255 -1.931,0.5 -3.66,1.187 -0.816,-0.671 -1.778,-1.323 -2.314,-2.228 -0.097,-0.654 -0.144,-1.644 -0.237,-2.426 h 0.01 c -0.346,-2.396 -0.334,-1.957 0.922,-4.229 1.305,-2.362 2.663,-4.792 4.532,-6.781 4.934,1.523 9.807,3.784 14.53,6.758 -4.077,4.827 -9.162,8.006 -13.661,12.925 z m 4.152,65.709 0.233,-0.988 c 7.532,2.915 19.448,9.276 28.954,13.317 -0.361,0.789 -1.093,2.172 -2.012,3.785 -8.995,-5.338 -18.263,-10.541 -27.175,-16.114 z m 5.105,-17.206 c 2.494,-0.63 3.11,-0.895 4.177,-1.362 -1.381,-1.173 -1.946,-1.568 -3.407,-2.646 l 0.235,-1.466 c 1.67,-0.604 2.128,-0.735 3.857,-1.406 -1,-0.818 -1.771,-1.42 -3.022,-2.235 -0.108,-0.5 -0.229,-0.958 -0.285,-1.468 2.397,-1.55 3.685,-1.121 17.869,-2.619 4.836,-0.51 9.832,-1.036 14.765,-1.376 0.537,7.307 -0.051,14.801 -1.599,21.969 -1.044,-0.21 -30.07,-6.188 -32.59,-7.391 z m 200.094,-145.468 c 3.197,6.516 6.464,13.05 8.978,19.747 -186.556,82.664 -179.665,79.973 -181.711,80.284 -0.544,-0.762 -1.143,-1.558 -1.81,-2.387 -0.01,-1.51 -6.003,2.721 110.391,-62.275 36.745,-20.518 61.369,-34.268 64.152,-35.369 z m -2.135,-3.559 c -8.878,5.264 -165.934,92.607 -175.328,97.831 -3.16,-3.424 -7.167,-7.085 -11.887,-10.46 6.989,-6.294 147.742,-132.824 153.597,-137.456 18.23,21.211 31.862,45.605 33.618,50.085 z m -36.263,-53.023 c -101.432,91.291 -148.94,133.146 -153.933,138.357 -4.832,-3.119 -10.306,-5.854 -16.292,-7.737 0.197,-0.992 -2.802,4.447 107.701,-184.536 29.157,17.338 59.061,48.299 62.524,53.916 z m -65.701,-56.01 c -6.43,11.754 -96.782,165.279 -108.244,185.592 -6.963,-1.702 -14.545,-2.193 -22.58,-0.785 2.047,-10.363 48.091,-210.29401 49.846,-217.90701 5.245,0.445 43.851,10.307 80.978,33.10001 z m -84.677,-34.19601 c -1.79,8.206 -48.436,214.59501 -50.958,220.01501 -0.222,0.058 -0.445,0.116 -0.664,0.176 0.596,-10.017 28.893,-216.07701 29.989,-223.89101 4.055,0.03 17.611,2.803 21.633,3.7 z m -72.285,-6.497 c 9.113,-0.852 28.777,0.358 31.567,0.441 0.099,6.811 0.309,7.554 0.296,11.937 0.868,-0.284 1.541,-0.496 2.819,-0.854 -0.059,-3.849 0.274,-4.604 0.306,-10.576 4.26,0.064 8.259,0.491 11.889,1.279 -1.658,14.389 -29.433,216.25301 -30.386,225.77501 -3.936,1.386 -7.086,2.884 -8.705,3.601 l -0.29,0.042 c -1.382,-12.03 -20.292,-217.14401 -21.523,-230.59201 4.609,-0.772 9.357,-0.623 14.027,-1.053 z m 2.274,361.77601 c -0.233,-3.473 0.623,-6.936 1.018,-10.271 0.787,-5.301 1.256,-10.784 2.416,-16.061 0.646,-0.836 1.431,-1.823 2.355,-3.008 0.729,0.045 1.466,0.109 2.164,0.174 0.626,1.869 0.84,2.638 1.643,4.767 0.644,-0.944 0.65,-0.951 1.242,-1.8 0.152,0.455 0.308,0.913 0.478,1.381 -1.239,0.813 -2.079,1.439 -3.24,2.33 6.683,10.673 -0.298,12.141 -8.076,22.488 z m -4.347,73.326 c 0.07,0.614 0.159,1.373 0.242,1.988 -2.587,3.595 -0.651,8.234 -1.813,12.089 -1.302,0.614 -2.495,1.377 -3.932,1.908 -1.165,-0.01 -1.535,-0.027 -2.509,-0.037 0.463,-4.638 7.057,-54.362 8.648,-62.785 2.687,8.768 4.453,9.269 6.449,10.181 1.254,0.572 2.439,1.113 3.009,2.393 1.578,3.318 2.082,7.413 1.581,12.901 -0.05,1.481 -1.28,2.396 -2.378,3.288 -2.553,1.686 -1.881,5.062 -2.91,7.485 -0.546,1.79 -3.683,1.539 -4.254,3.088 -0.404,2.827 0.927,6.008 -2.133,7.501 z m -23.398,-173.487 c -0.874,0.699 -2.306,0.899 -3.856,1.504 0.686,0.793 1.147,1.321 2.158,2.438 -0.073,0.338 -0.178,0.838 -0.258,1.226 -3.237,-1.602 -22.292,-12.821 -26.82,-15.709 6.64,-2.083 7.194,-4.421 12.875,-2.514 4.083,1.374 7.821,0.953 10.27,-2.538 2.807,3.05 5.95,6.323 8.63,9.853 -0.261,0.419 -0.505,0.823 -0.725,1.215 -0.986,-0.042 -1.606,-0.048 -2.431,-0.048 0.242,1.935 0.988,3.35 0.157,4.573 z m -240.164,-33.23 c 3.936,-19.799 9.982,-39.017 17.973,-57.13 7.263,3.07 147.738,69.582 155.196,73.477 -3.674,3.033 -5.569,2.457 -6.569,2.676 -2.563,0.595 -4.251,-2.261 -6.911,-2.268 -2.176,0.01 -4.542,-0.074 -6.194,1.432 -1.237,0.988 -2.354,2.412 -4.037,2.345 -0.04,-10e-4 -0.025,0 -0.063,0.01 -2.811,0.594 -4.886,-2.275 -7.755,-2.099 -2.734,-0.074 -4.859,0.611 -6.297,2.043 -1.543,1.591 -4.208,1.898 -6.338,0.725 -3.152,-1.789 -7.345,-1.495 -10.192,0.722 -2.953,2.226 -6.845,1.03 -8.378,0.414 -2.252,-0.94 -4.643,-0.377 -6.904,-0.152 -2.733,-0.031 -98.177,-20.981 -103.531,-22.191 z m 87.406,22.915 c -1.587,0.221 -2.921,0.696 -4.03,1.458 -2.211,1.53 -5.305,1.713 -7.884,0.46 -3.349,-1.563 -7.145,-1.315 -9.676,0.634 -1.854,1.497 -4.554,1.727 -6.566,0.557 -2.326,-1.388 -5.258,-1.674 -8.069,-0.773 -0.688,0.295 -1.333,0.715 -1.954,1.121 -6.051,3.95 -8.101,-1.249 -12.26,-0.63 -2.047,-0.118 -4.068,0.571 -5.682,1.95 -1.408,1.228 -3.362,1.176 -5.22,1.19 -1.208,0.12 -1.823,-0.392 -2.605,-1.04 -1.298,-1.075 -2.916,-2.412 -7.85,-1.508 -2.661,0.414 -3.682,3.778 -6.311,3.486 -1,-0.081 -1.1,0.492 -3.326,-1.079 -1.827,-1.293 -4.104,-2.887 -10.339,-0.538 0.849,-8.495 2.551,-20.256 3.723,-24.419 6.384,1.266 77.376,16.445 88.049,19.131 z m -67.692,-83.641 c 2.36,-6.675 6.154,-12.866 9.223,-19.224 7.039,3.401 153.11,89.756 161.354,94.635 -1.154,1.077 -2.708,2.284 -4.661,2.443 -3.792,-0.261 -159.763,-74.784 -165.916,-77.854 z m 124.322,88.811 c 6.781,-1.923 10.006,-0.329 18.69,-1.869 12.124,-2.149 10.949,0.794 17.166,-1.01 4.288,-1.249 7.961,-2.377 11.888,-0.365 16.904,8.161 40.147,18.818 43.935,21.035 -1.22,0.642 -1.424,0.763 -2.363,1.315 1.028,0.904 1.381,1.202 2.473,2.136 -0.023,0.575 -0.03,1.151 -0.034,1.711 -5.588,-1.186 -91.949,-19.558 -102.925,-22.544 3.769,-0.262 7.495,0.644 11.17,-0.409 z m 95.46,-10.841 c 2.074,0.057 5.472,-0.81 7.288,5.24 -0.504,0.48 -0.597,0.552 -1.363,1.388 -0.228,-0.033 -0.57,-0.082 -0.919,-0.132 -1.498,-2.364 -3.638,-4.163 -5.006,-6.496 z m 10.715,-18.143 c -1.254,-1.453 -2.511,-2.917 -3.741,-4.384 -9.644,-12.25 -6.051,-7.609 3.741,4.384 z m -1.108,90.825 c 0.469,0.479 0.963,0.977 1.46,1.481 -0.481,1.973 -0.609,2.59 -0.808,3.567 1.689,-0.479 1.947,-0.568 3.614,-1.078 1.49,1.032 0.422,3.01 1.34,4.649 -1.47,4.825 -63.055,108.049 -71.682,123.893 -2.164,-1.377 -4.175,-2.465 -6.554,-2.16 -3.219,-0.443 -5.356,2.689 -8.44,2.259 -2.933,0.229 -5.311,-2.415 -8.366,-2.25 -3.496,-0.322 -6.28,2.272 -9.703,1.786 -3.219,0.319 -5.616,-2.78 -8.912,-2.537 -3.364,-0.418 -5.875,2.415 -9.112,1.96 -2.249,0.158 -3.856,-1.714 -6.016,-2.371 -6.989,-1.562 -7.616,2.978 -12.415,1.566 -1.622,-0.675 -2.966,-2.099 -4.785,-2.426 -0.528,-0.12 -4.102,-0.399 -4.656,-0.447 3.324,-3.792 138.835,-123.58 141.723,-127.672 1.094,-0.089 2.176,-0.171 3.312,-0.22 z m 10.048,9.584 c 0.316,1.398 0.606,2.532 0.693,2.99 1.651,-1.153 2.733,-2.416 4.192,-1.768 -4.233,18.847 -25.207,110.419 -28.076,122.341 -8.864,-4.87 -10.465,0.135 -14.326,0.232 -1.734,0.014 -3.703,0.281 -5.021,-0.942 -2.938,-2.814 -8.198,-2.896 -11.26,-0.171 -1.436,1.329 -3.618,1.069 -5.15,0.746 -1.907,-1.053 -3.722,-2.952 -6.264,-2.649 -2.557,-0.446 -4.621,0.85 -6.757,2.16 10.771,-18.613 65.981,-113.109 71.969,-122.939 z m 7.526,5.25 c 0.237,-0.579 0.503,-1.168 0.735,-1.678 0.522,4.179 -0.763,7.616 -4.551,37.912 l 0.028,0.01 c -1.582,3.102 -2.348,6.328 -1.239,9.995 -1.434,7.123 -8.605,64.224 -10.092,71.083 -5.163,-2.664 -8.641,0.095 -11.638,1.089 2.482,-12.497 26.089,-112.865 26.757,-118.411 z m -18.829,-331.56801 c 1.292,11.746 12.385,132.95201 21.659,231.88401 -0.399,0.198 -0.474,0.259 -0.644,0.403 -0.242,0.204 -0.742,0.625 -3.306,2.201 -4.178,-2.077 -0.59,1.165 -18.379,-20.776 -8.554,-10.554 -4.659,-5.745 -11.092,-19.631 -72.02,-167.48101 -71.955,-167.30101 -73.241,-170.53601 l -0.259,-0.647 c 37.434,-17.008 76.466,-22.992 85.262,-22.898 z m -129.702,47.97501 c 3.401,1.384 7.043,2.646 9.677,5.245 2.23,2.364 1.257,5.936 1.641,8.96 0.657,2.014 4.277,1.291 5.279,1.186 2.576,-0.216 3.786,-2.869 4.059,-5.276 0.862,-6.754 -1.368,-13.277 -3.524,-19.585 l -0.256,-0.748 c 3.199,-3.134 20.478,-12.00701 24.206,-13.05701 2.71,6.196 66.819,154.79301 72.659,169.61801 -8.365,-9.39 -99.233,-123.651 -116.175,-144.499 0.771,-0.613 1.579,-1.226 2.434,-1.844 z m -24.254,18.858 c 4.56,5.197 116.242,137.71 143.054,169.698 -1.23,0.267 -2.327,0.499 -3.342,0.682 -3.878,-3.369 -141.831,-158.183 -146.96,-164.099 2.24,-2.241 4.557,-4.556 7.248,-6.281 z m -26.766,-72.17201 c 2.513,-0.471 5.009,0.227 7.373,1.05 -0.652,0.393 -1.358,0.838 -2.194,1.415 -10.051,-4.124 -15.769,-0.19 -21.939,1.754 -0.904,-1.353 -1.685,-2.799 -2.356,-4.296 6.511,0.127 12.799,1.188 19.116,0.077 z m 9.246,88.36101 c 2.376,-2.463 4.831,-5.008 7.49,-7.246 5.76,6.105 137.668,153.948 144.05,161.448 -1.424,0.435 -1.419,0.391 -3.651,1.183 -9.603,3.401 -8.96,0.145 -14.024,0.719 -3.171,0.105 -5.322,2.812 -8.38,2.999 -4.181,-0.39 0.651,2.459 -66.87,-37.422 -109.695,-64.792 -102.822,-60.392 -103.704,-61.394 0.701,-2.413 15.81,-29.939 45.089,-60.287 z m -16.089,-417.95801 c 4.929,0.169 10.285,0.339 16.124,0.518 -2.65,5.524 -0.137,5.025 -16.124,-0.518 z m 65.893,-35.346 c -2.368,5.948 -8.898,22.997 -14.305,25.616 -4.363,0.638 -8.927,-0.763 -12.627,-1.927 0.015,-2.485 0.844,-5.107 0.011,-7.608 -0.907,-2.117 -3.399,-2.086 -5.572,-1.15 0.193,2.913 0.478,5.635 0.244,8.338 -11.608,-0.817 -23.299,-2.183 -34.895,-3.217 -0.156,-3.658 0.035,-7.396 -0.214,-11.078 29.644,-9.828 43.531,-6.19 67.358,-8.974 z m -106.585,19.325 c 5.646,4.35 13.215,2.74 17.85,-0.592 2.471,-1.658 5.78,-3.47 9.787,-5.277 0.341,2.153 0.406,4.421 0.178,6.755 -17.308,7.193 -29.363,0.924 -32.922,-3.557 2.724,0.941 3.328,1.269 5.107,2.671 z m -31.642,-2.084 c 15.297,13.253 12.119,15.731 61.235,17.697 -2.951,6.191 -4.305,12.286 -4.006,18.126 1.454,19.499 -43.396,157.64 -50.742,182.077 -4.875,-0.555 -42.688,-0.969 -75.55996,-1.593 23.88896,-64.423 24.76196,-49.284 69.07296,-216.307 z m -61.298,644.25401 c -0.341,0.189 -0.66896,0.396 -0.97496,0.63 -1.393,-1.452 -2.433,-2.728 -3.254,-3.992 0.974,-2.797 3.1,-4.764 3.031,-8.133 -0.876,-0.018 -1.619,-0.01 -2.586,0.076 -0.781,-5.887 -0.389,-10.029 -1.079,-19.308 -0.155,-2.111 -0.317,-4.292 -0.246,-6.433 l -0.043,-0.01 c 3.915,-14.265 8.60196,-31.196 12.31996,-45.227 -8.17496,42.265 -8.10696,73.31 -7.168,82.393 z m 40.088,-296.92401 c -21.938,-13.012 -68.72396,-45.815 -76.54596,-56.546 0.428,-1.002 15.209,-39.655 17.91,-47.247 1.646,-0.042 2.942,-0.121 3.814,-0.247 17.00396,9.3 55.64996,49.22 65.00696,60.403 -8.821,39.522 -8.286,41.049 -10.185,43.637 z m 13.411,-60.765 c -0.835,3.971 -1.171,8.183 -2.704,12.01 -9.779,-11.021 -39.894,-41.841 -57.73896,-54.671 6.56096,-0.195 32.30096,0.646 43.85496,1.934 8.422,0.718 15.927,7.501 17.849,16.14 2.167,8.118 0.082,16.56 -1.261,24.587 z m 14.507,330.58401 c 30.752,-1.075 32.549,-2.473 38.899,-1.623 7.682,1.042 8.281,-2.694 18.439,-0.893 3.771,0.741 7.203,-1.366 10.848,-1.403 3.567,-0.317 7.257,1.4 10.914,0.179 9.782,-3.468 12.409,1.241 18.44,-1.322 4.529,-1.859 9.072,-1.25 12.091,-0.409 2.423,0.6 4.662,-0.187 6.829,-0.947 4.831,-1.696 0.307,-3.246 78.769,14.018 46.826,10.304 44.248,9.043 45.744,10.458 0.101,0.944 0.09,1.979 0.122,2.94 -3.09,2.06 4.004,0.833 -63.125,9.709 -154.811,20.474 -91.896,11.548 -176.756,20.816 -3.017,-24.252 -1.303,-42.179 -1.214,-51.523 z m 8.349,89.639 c 5.821,-1.169 209.816,-40.273 212.217,-40.427 -15.219,7.272 -189.353,84.24 -195.702,86.953 -3.281,-4.635 -14.892,-36.457 -16.515,-46.526 z m 27.997,69.272 c -1.911,-2.504 -8.418,-14.946 -9.927,-19.308 224.72,-99.509 209.895,-93.555 213.328,-93.947 -16.193,9.305 -196.657,109.796 -203.401,113.255 z m 13.787,22.229 c -6.132,-8.761 -10.828,-16.32 -11.812,-18.832 6.927,-3.918 197.8,-110.495 209.296,-116.44 -0.217,0.659 -0.305,0.978 -0.454,1.521 1.554,0.22 2.832,0.159 3.866,0.907 -7.014,6.675 -81.562,73.235 -149.766,134.448 -7.283,-5.07 -10.021,-1.763 -13.361,-0.568 -9.366,1.068 -3.782,-4.192 -13.78,-3.508 -2.132,0.031 -3.436,1.876 -5.074,2.734 -2.276,0.385 -3.81,0.038 -4.704,-1.054 -1.501,-1.737 -3.638,-2.623 -5.778,-2.442 -3.353,-0.546 -5.686,2.077 -8.433,3.234 z m 21.802,27.52 c -5.459,-5.742 -11.583,-13.448 -17.105,-20.968 5.52,0.775 10.93,0.101 16.294,0.724 7.099,0.87 14.417,-0.323 21.416,1.559 -0.758,1.455 -2.045,2.532 -3.298,3.571 -3.844,3.188 -14.35,13.312 -17.307,15.114 z m 2.653,2.927 c 19.608,-17.877 20.823,-18.31 23.698,-21.667 8.98,-1.387 10.905,1.772 15.513,0.985 3.618,-0.599 6.873,-1.022 10.062,-0.146 2.5,0.708 5.179,1.274 7.826,0.635 4.061,-1.002 7.992,-0.827 11.369,0.502 4.151,1.601 8.196,-0.999 12.357,-0.561 2.428,-0.156 4.738,1.013 7.113,1.653 3.582,0.896 6.831,-1.419 10.286,-1.189 3.436,-0.116 6.81,1.539 10.469,1.304 -3.268,6.479 -39.106,67.224 -41.971,72.05 -10.472,-4.968 -49.825,-32.651 -66.722,-53.566 z m 43.19,116.753 c 10.012,5.275 20.241,10.022 30.641,14.258 -10.462,-4.251 -20.687,-9.004 -30.641,-14.258 z m 98.194,-33.444 c -12.383,-1.632 -53.47,-16.429 -71.195,-27.775 2.147,-4.957 38.656,-65.962 43.3,-74.786 5.485,-0.604 6.724,1.288 14.245,0.455 3.958,-0.438 5.986,-0.339 9.721,-0.011 8.745,0.763 12.584,-0.903 20.098,0.676 1.96,0.415 3.177,0.663 7.683,-0.353 -23.292,98.68 -22.384,100.278 -23.852,101.794 z m 15.825,3.496 c -3.942,-0.843 -7.961,-1.253 -11.746,-2.483 0.888,-5.011 12.568,-55.237 23.436,-102.9 5.877,-0.887 4.245,1.451 12.4,0.516 -4.594,35.378 -9.621,71.22 -14.307,106.086 -3.284,0.293 -6.566,-0.757 -9.783,-1.219 z m 13.514,2.205 c 0.026,-1.012 14.041,-107.633 14.868,-108.205 3.539,-0.2 6.867,1.394 10.419,2.071 2.231,2.477 0.01,2.018 3.094,4.925 2.227,2.099 0.771,1.395 3.291,3.725 0.86,0.795 1.51,1.394 1.981,2.449 0.731,0.098 1.464,0.191 2.182,0.313 0.26,0.567 0.572,1.207 0.848,1.779 0.64,-0.125 1.168,-0.223 1.851,-0.313 0.327,0.329 1.058,1.073 1.439,1.459 0.7,-0.031 1.32,-0.053 2.038,-0.038 0.339,0.67 0.682,1.323 1.028,1.975 0.582,-0.482 1.254,-1.068 1.897,-1.433 1.017,-0.11 0.886,1.226 1.806,2.518 0.58,-0.753 1.21,-1.583 1.816,-2.299 1.202,1.019 1.673,1.472 2.348,2.141 0.379,-0.783 0.717,-1.477 1.134,-2.257 0.026,0.028 0.182,0.2 0.253,0.277 0.062,8.382 7.672,82.266 8.021,91.791 -3.888,0.895 -29.677,2.585 -60.314,-0.878 z m 64.301,0.625 c -0.854,-5.972 -8.096,-84.668 -8.471,-91.944 0.411,0.313 1.235,0.94 1.648,1.251 0.245,-0.947 0.464,-1.783 0.761,-2.745 1.039,0.248 2.017,0.906 2.931,1.471 0.087,-1 0.168,-1.895 0.315,-2.958 0.96,0.324 1.817,0.652 2.733,1.011 0.064,-0.925 0.133,-1.905 0.235,-2.827 0.937,0.29 1.798,0.598 2.713,0.927 -0.1,-1.055 -0.218,-2.181 0.01,-3.286 0.724,0.053 1.666,0.158 2.401,0.236 -0.01,-1 0,-1.931 0.068,-3.031 0.805,0.186 1.625,0.404 2.419,0.619 -0.179,-1 -0.36,-1.993 -0.529,-3.094 0.887,-0.109 1.53,-0.165 2.327,-0.224 -0.349,-1.086 -0.622,-1.83 -0.734,-2.568 0.176,-0.713 1.32,-0.756 2.32,-1.336 -0.352,-0.812 -0.621,-1.42 -0.962,-2.291 0.319,-0.208 2.163,-1.338 2.356,-1.504 -0.583,-0.655 -0.852,-0.949 -1.492,-1.675 0.537,-0.468 1.098,-0.909 1.661,-1.336 -0.422,-0.887 -0.804,-1.754 -1.197,-2.659 0.438,-0.844 0.849,-1.53 1.317,-2.334 -1.522,-1.778 -1.376,-3.452 -0.577,-5.52 -0.376,-0.518 -0.94,-1.3 -1.329,-1.851 0.361,-0.739 0.664,-1.276 1.051,-1.951 -0.648,-0.372 -1.176,-0.661 -1.847,-1.026 0.151,-0.749 0.269,-1.214 0.435,-1.87 -1.363,-0.744 -2.025,-1.746 -2.09,-3.355 -0.484,-0.35 -0.749,-0.544 -1.294,-0.929 0.214,-3.697 -7.322,-8.831 -10.943,-15.646 -2.136,-3.327 -3.578,-7.539 -7.152,-9.795 -2.385,-1.681 -4.95,-3.509 -5.189,-6.411 -0.163,-1.811 -0.474,-3.743 0.132,-5.462 1.358,-1.155 3.98,-1.159 6.753,-1.162 11.615,-0.017 8.35,-1.938 11.067,-8.808 1.98,-5.02 1.451,-5.727 -0.706,-10.025 -1.938,-3.857 -3.929,-7.84 -2.612,-11.979 5.093,10.444 77.41,179.517 80.143,186.248 -25.714,10.64 -52.179,17.314 -78.669,19.839 z m 82.042,-21.653 c -6.257,-14.624 -74.815,-174.379 -80.991,-188.064 2.033,-2.196 2.946,-5.449 5.697,-6.49 1.157,3.082 3.111,13.137 7.253,13.136 2.041,0 3.599,-1.783 12.182,-5.453 1.103,-0.472 2.212,-0.952 3.307,-1.45 17.102,19.528 120.598,134.898 126.332,141.821 -25.684,24.095 -67.78,45.607 -73.78,46.5 z m 76.984,-49.288 c -1.255,-0.129 2.555,3.301 -126.131,-140.525 l 0.172,-0.141 -0.075,-0.114 c 2.621,-1.448 4.974,-3.164 6.637,-5.477 0.713,-0.969 0.851,-2.118 0.985,-3.229 0.404,-3.359 1.054,-2.906 4.99,-9.277 9.391,5.209 158.841,93.301 164.854,97.167 -21.85,35.744 -49.184,60.101 -51.432,61.596 z m 65.582,-87.534 c -6.8,-2.882 -166.964,-78.655 -173.12,-81.901 2.528,-5.26 4.548,-10.587 6.031,-15.89 5.182,0.819 69.582,15.014 187.683,40.489 -5.958,26.47 -17.903,52.902 -20.594,57.302 z m 21.451,-61.005 c -6.277,-1.107 -106.146,-22.879 -187.224,-40.339 l -0.123,-1.014 h -0.047 c 2.817,-12.718 1.385,-18.918 1.94,-22.384 9.966,-1.027 183.373,-18.695 192.053,-19.257 2.664,20.732 -1.565,66.141 -6.599,82.996 z"
     id="path2"
     inkscape:connector-curvature="0" />
</svg>
