<?xml version="1.0" encoding="UTF-8"?>
<svg enable-background="new 330.9398 684.6877 1726.9725 3103.4753" version="1.1" viewBox="330.9398 684.6877 1726.9725 3103.4753" xmlns="http://www.w3.org/2000/svg">
 <path d="m1397 767.82c17.57-9.1 37.42-12.58 57.01-13.58 14.54-0.72 29.13-0.22 43.61 1.27 10.94 1.29 20.79 6.56 31.3 9.44 6.87 1.67 11.66-4.94 17.93-6.21 5.42-0.97 11.74-0.56 15.93 3.44 4.36 4.89 5.2999 12.21 10.69 16.33 5.5901 3.9 11.72 6.94 17.56 10.45 14.15 8.32 28.33 17.39 38.85 30.21 9.72 11.68 17.82 24.62 24.96 38 10.45 19.71 18.55 40.81 22.35 62.85 3.46 19.47 1.8999 39.34 0.0199 58.89-2.63 24.87-8.45 49.35-16.49 73.01-4.84 13.93-9.96 27.84-16.92 40.87-10.07 19.03-22.44 36.7-34.28 54.64-7.87 12.1-15.95 24.26-21.12 37.81-5.11 12.99-9.7001 26.2-13.31 39.69-2.1899 8.86-4.6499 17.92-4.0699 27.12 0.28 5.21 4.9299 8.59 9.33 10.46 7.48 3.28 15.8 6.39 20.39 13.63 8.67 13.23 15.49 27.55 22.21 41.83 9.01 19.76 17.12 39.97 23.35 60.8 9.95 33.45 14.28 68.36 15.03 103.19 0.39 20.66 0.6801 41.33 0.13 61.99-2.01 36.77-6.24 73.36-10.08 109.97-4.1801 38.71-8.62 77.39-12.52 116.13-1.48 14.94-2.9199 29.89-3.83 44.89-0.27 5.5-0.64 11.03-0.1 16.54 4.9399-2.6899 8.63-7.0599 12.39-11.14 6.4199-7.25 12.35-14.9 18.58-22.31 2.7-3 5.09-6.53 8.71-8.5 5.23-1.98 10.98-1.01 16.35-0.17 5.1001-26.97 10.61-53.86 16.57-80.65 6.7-29.83 13.83-59.61 23.52-88.62 9.9099-30.1 21.71-59.48 32.88-89.1 6.71-17.52 11.41-35.72 15.62-53.97 3.2999-14.51 6.4199-29.06 8.9299-43.72 1.23-7.2201 0.8201-14.62 2.25-21.8 1.55-4.72 4.9601-8.84 9.12-11.52 4.98-11.61 12.96-21.52 21-31.12 3.42-3.96 9.12-3.38 13.81-2.92 0.9199-6.86 8.22-9.74 14.24-10.52 5.25-0.4501 10.96-0.53 15.74 2.0299 2.87 1.6001 3.1899 5.4301 1.9301 8.2001-2.0701 4.5499-5.14 8.86-9.4 11.58-3.3301 2.28-6.9701 4.0601-10.24 6.42 3.6-0.6801 7.2899-1.89 10.99-1.17 5.72 2.3301 9.2799 11.73 3.58 15.91-3.54 2.3099-7.58 3.72-11.5 5.22 4.9401-0.37 10.12-0.88 14.92 0.6 2.97 1.25 2.2799 5.1901 0.6 7.26-4.53 6.02-10.98 10.99-18.45 12.64 4.6899 1.37 10.05 1.7001 14.02 4.8 2.3401 2.99-1.26 5.9399-3.62 7.4199-4.73 2.7001-9.5299 6.25-15.2 6.1801 4.64 2.26 9.98 3.01 14.32 5.9399 2.26 1.66 0.8401 5-1.51 5.75-5.09 2.1801-10.54 3.8301-16.08 4.1801 3.58 1.79 7.35 3.6 10.16 6.54 1.48 1.7999 0.0399 4.45-2.09 4.83-5.55 1.4399-11.47 1.03-17.01-0.14 1.97 3.28 4.5399 6.4501 5.1699 10.35 0.3101 2.17-1.28 4.37-3.48 4.61-4.36 0.62-8.77-0.2-12.99-1.1799-2.35-0.72-5.24-1.29-6.49-3.63-1.55-3.25-0.54-6.92 0.23-10.21-5.5699-5.14-10.86-10.56-16.31-15.81-1.9801 7.09-5.4901 13.88-5.55 21.38-0.02 3.2-3.14 4.95-3.89 7.86-10.95 34.64-21.87 69.28-32.46 104.03-7.52 25.52-15.67 50.9-20.98 77.01-6.24 32.91-11.32 66.04-16.26 99.16 41.71-63.52 83.04-127.3 125.08-190.61-2.54-2.8899-2.71-6.9099-3.01-10.53-0.4399-7.67-0.04-15.43 1.8-22.9-5.2101 5.04-10.63 9.9-16.49 14.17-2.29 1.48-5.2101 3.6399-7.9801 2.1399-2.83-2.1899-2.6399-6.25-2.73-9.46 0.39-8.52 1.7101-17.22 5.38-24.97 3.5701-6.62 11.97-7.88 18.79-7.6-2.17-2.41-4.12-5.76-2.45-8.9801 4.8899-11.64 15.08-19.89 25.18-26.9 12.93-9.04 28.88-12.28 44.36-13.26 5.72-0.11 11.94-0.3401 17.05 2.6799 6.11 4.13 9.23 11.42 10.28 18.52 5.58-2.64 11.49-5.46 17.82-5.21 4.35 0.23 7.0699 4.2 8.92 7.71 2.47 5.02 4.61 10.4 5.01 16.04-0.55 5.21-6.65 6.95-11.05 7.29-5.13-0.3701-10.14-1.63-15.09-2.91 3.71 2.58 8.13 4.0599 11.47 7.21 3.2 3.05 7.14 5.91 8.53 10.3 0.85 2.6699-1.54 4.96-3.89 5.6799-6.17 1.9601-13.06 2.02-19.14-0.2899 3.03 3.83 6.85 7.21 8.9 11.72 0.99 4.34 0 10.61-4.77 12.28-4.95 0.49-9.5701-2.0801-13.68-4.52-3.58-2.0601-5.85-5.5801-8.1-8.89 0.72 8.4299 1.39 17.15-0.8199 25.43-0.55 2.8201-4.02 4.75-6.38 2.66-4.8201-4.29-7.49-10.36-10.69-15.82-1.1899 6.73-2.62 13.48-5.1 19.89-0.88 1.8999-1.8099 4.51-4.24 4.7699-3.01 0.01-3.51-3.5299-3.95-5.7699-0.8301-5.88-1.8501-11.84-1.4501-17.78-2.47 4.45-3.5699 9.6799-6.08 14.19-1.8301 3.27-3.46 7.63-7.4501 8.6801-4.6799-0.17-5.2699-5.97-6.46-9.41-17.85 20.51-33.07 43.14-48.17 65.71-34.81 54.24-69.32 108.66-103.67 163.19 5.47 4 10.99 8.01 15.89 12.72 2.72 2.63 5.3199 5.77 5.87 9.66 0.9399 5.33-1.49 10.52-1.04 15.86 0.7 6.46 7.54 10.39 7.6901 17.06 0.36 8.4099-8.54 13.68-8.54 22.04 0.23 6 3.84 11.19 4.6899 17.09 0.7201 4.0699-0.11 8.3799-2.24 11.94-4.45 7.65-11.45 13.29-16.86 20.19-3.37 4.16-3.96 9.6201-5.6 14.54-1.41 4.16-4.61 8.1801-9.2 8.85-1.8201 0.55-4.0601 0.15-5.5901 1.25-4.35 21.52-7.77 43.26-9.84 65.13-1.74 17.93-1.2 35.98 0.1801 53.9 0.72 0 2.1699-0.01 2.8899-0.01 4.62 8.0498 8.64 16.47 13.86 24.19 4.0399 6.4399 9.5699 11.72 14.9 17.1 6.9801 7.01 14.28 13.73 20.95 21.06 1.8199 2.1899 4.28 4.5801 3.75 7.74-0.74 4.54-3.3 9.26-7.6 11.29-2.88 1.1301-5.0601-1.6399-6.9401-3.3201-13.21-13.61-25.06-28.44-37.48-42.73 4.27 35.78 11.02 71.18 17.96 106.52 2.24 12.05 4.76 24.07 6.36 36.23 0.9501 5.7-2.25 11.02-5.48 15.44-1.6 1.9399-4.11 4.47-6.8199 3.1499-2.28-2.22-2.52-5.6599-3.4601-8.53-5.7699-23.44-10.04-47.21-14.11-70.99-5.73-33.08-9.2999-66.51-11.26-100.02-0.71 0.1401-2.1399 0.4399-2.86 0.5801-1.08-0.9399-1.71-2.1501-1.1599-3.52 1.08-3.1899-0.38-6.28-1.2001-9.3101-4.3099-14.62-8.53-29.28-11.81-44.17-1.99-9.39-3.9501-18.94-3.27-28.59 0.9-16.19 5.28-31.89 9.34-47.48-12.67 4.39-22.63 14.45-29.75 25.53-6.9299 11.84-11.79 26.15-8.28 39.89 5.0601 22.5 14.51 43.7 20.6 65.92 2.7999 9.8298 4.7799 19.95 4.96 30.21 1.0699 25.16-8.0801 49.89-4.09 75.05 2.7 21.29 17.68 39.19 17.89 60.98 0.5601 10.58-3.6799 20.53-7.9199 29.98-15.45 33.16-35.73 63.73-53.68 95.54-0.84 2.0698-2.9 4.1199-2.39 6.45 2.9401 3.71 8.4501 4.6099 10.82 8.95 1.71 2.8401 0.2 6.1599-1.03 8.8899-5.6801 11.7-13.14 22.45-18.58 34.28-0.92 2.29-2.3401 4.98-0.91 7.4102 2.85 5.02 9.01 7.53 10.86 13.25 1.46 4.28-0.98 8.53-3.45 11.9-4.12 5.5701-9.01 10.64-12.23 16.85-3.1201 5.6499-3.2001 12.29-4.3201 18.52-6.39 47.5-11.16 95.21-15.33 142.95-2.1 24.95-3.98 49.93-4.9501 74.96-0.37 12.02-0.85 24.1 0.3401 36.11 0.87 9.24 6.72 17.14 13.35 23.26 10.74 10.03 24.58 16.67 33.48 28.65 6.11 8.21 7.8199 18.98 6.51 28.98-1.8101 14.25-8.72 27.15-11.81 41.09-3.61 18.22-0.01 36.81 2.76 54.9 4.4301 28.62 2.9 57.91 8.9 86.34 3.61 15.8 9.05 31.11 13.53 46.68 6.24 21.19 11.42 42.86 12.91 64.97 1.58 24.09-2.0601 48.08-4.5801 71.98-2.5 22.89-3.73 46.05-1.35 69 2.2 18.61 5.87 37 9.53 55.37 9.62 47.29 20.74 94.25 30.84 141.43 3.34 16.02 6.86 32.03 9.0699 48.26 0.3101 3.8 1.1901 7.79 0.0601 11.58-1.51 3.1499-5.3 4.2898-8.54 4.5-9.48 0.46-18.57-3.1702-28-3.23-2.11-0.03-5.1699 0.45-5.38 3.1099-0.12 3.72 1.41 7.28 2.74 10.73 6.7101 15.89 15.68 31.08 18.93 48.22 4.01 22.87 8.63 45.79 9.02 69.08 0 9.4399-0.48 19.2-4.16 28.04-2.64 6.3499-8.04 11.19-14.15 14.15-8.71 4.23-18.49 5.49-28.04 6.1301-14.3 0.77-28.61-0.3101-42.91 0.1799-12.89 0.27-25.49-2.79-38.15-4.71-9.5699-1.52-19.31-1.6899-28.94-0.6899-50.3 4.3398-100.46 10.36-150.86 13.51-16.87 0.9199-33.81 2.0398-50.68 0.6899-4.48-0.6602-9.87-0.8701-12.84-4.8101-5.12-6.6599-6.15-15.43-6.3-23.56 0.08-12.9 2.51-25.94 7.95-37.67 3.0801-6.8601 8.5701-12.65 15.52-15.59 10.9-4.7 23-4.97 34.31-8.1899 7.1799-2.29 14.45-4.3301 21.87-5.6799 20.08-3.8801 40.83-7.6101 58.53-18.45 15.65-9.8401 31.15-20.63 42.73-35.25 9.09-11.63 15.66-25.42 18.12-40.01 2.02-12.68 0.08-25.54-2.49-37.97-2.41-11.66-5.11-23.26-6.65-35.06-3.4-26.28-9.5699-52.07-15-77.96-9.0699-41.72-14.46-84.1-21.27-126.21-4.17-26.05-8.3199-52.12-13.95-77.89-3.5-16.55-9.04-32.6-15.88-48.05-7.66-17.54-17.04-34.31-23.56-52.33-7.89-21.66-8.45-44.98-9.7899-67.72-0.4901-5.8098-0.42-11.78-2.29-17.34-2.91-6.6501-10.71-8.5801-15.21-13.8-3.87-4.21-4.8501-10.21-4.5601-15.71 0.4-7.6899 1.9301-15.33 1.4-23.04-0.78-12.96-1.55-25.94-3.41-38.79-0.95-5.97-1.9299-12.21-5.48-17.25-3.25-4.76-7.6801-8.6799-10.25-13.9-3.23-6.1602-3.29-13.29-3.86-20.05-1.38-23.7-1.4501-47.5-4.26-71.1-3.0701-27.02-7.98-53.76-12.24-80.6-6.7001-42.98-12.18-86.14-18.32-129.21-6.8099-48.69-13.67-97.37-20.92-146-4.35-28.4-8.47-56.84-13.92-85.06-1-4.02-1.34-8.3401-3.2999-12.01-6.28-6.9299-16.03-8.48-24.44-11.53-4.05-0.97-7.05-4.4099-7.63-8.48-1.77-11.24-1.58-22.66-2.21-33.98-1.4301-30.4-2.4301-60.88-6.2101-91.1-4.3999-30.39-11.34-60.37-15.27-90.84-3-22.58-4.78-45.38-4.13-68.16 1.1599-32.37 5.22-64.54 9.34-96.64 5.14-39.78 11.42-79.42 15.91-119.29 2.49-21.23 2.88-42.65 1.97-63.99-0.96-22.32-2.4301-44.75-0.04-67.04 1.86-19.11 6.3-37.91 12.65-56.01 6.88-20.11 15.87-39.39 24.01-59 4.08-10 8.04-20.23 9.14-31.06 2.08-15.62-1.2101-31.32 0.14-46.97 0.5499-7.6799 2.39-15.19 4.26-22.63 4.73-18.34 11.48-36.56 22.98-51.8 8.9199-11.68 21.9-19.02 33.53-27.61 8.4399-6.0701 11.02-17.28 19.66-23.14 11.95-7.88 28.05-7.3 38.79-17.34 7.87-6.48 12.63-15.94 15.09-25.69 1.89-7.73 3.34-15.7 2.88-23.68-0.22-2.13-0.45-5.2999-3.15-5.58-9.87-1.53-19.58 5.46-29.29 1.75-6.75-4.2-11.82-10.59-16.74-16.72-9.91-13.88-18.58-28.94-23.51-45.35-2.67-9.4501-5.64-18.97-6.26-28.81-2.78-4.74-6.52-8.85-9.62-13.37-4.17-5.96-9.9301-11.01-12.4-18.01-1.53-4.29 0.66-8.78-0.24-13.1-1.78-4.03-6.51-5.21-10-7.26-4.62-2.0699-8-6.03-10.52-10.29-2.1-3.59-2.74-8.4199-0.21-11.96 3.5-5.41 8.75-9.98 10.07-16.56 2.15-10.47 2.76-21.23 2.16-31.88-0.34-10.18-7.84-18.04-14.69-24.74-8.97-0.8199-18.04-0.5099-27.05-0.96-23.41-0.9199-46.9-2.38-69.94-6.8199-9.37-2-18.98-4.2001-27.2-9.3101-10.55-6.92-19.19-16.36-26.58-26.5-6.9901-9.79-13.04-20.35-17.11-31.69-2.2-6.31-4.0699-13.24-2.1399-19.87 2.37-8.74 8.9199-15.57 15.9-20.98 5.64-4.25 11.64-8.06 17.97-11.19 6.2899-2.51 13.09-3.28 19.74-4.28 25.77-3.33 51.81-4.67 77.36-9.64 8.3199-1.74 16.75-3.66 24.37-7.57 9.5699-5.23 16.35-14.37 20.81-24.13 6.6901-14.92 11.41-31.17 22.36-43.73 20.36-23.12 42.63-45.64 70.42-59.7m316.17 1018.5c-1.52 2.96 3.32-0.03 0 0m-35.99 163.83c0.2799 0.45 0.8199 1.35 1.09 1.8101-3.73 14.16-7.21 28.48-8.36 43.12-0.8201 9.1899 0.98 18.31 2.7 27.3 0.9601-10.62-0.16-21.37 1.7101-31.92 1.99-13.98 6.5-27.4 9.9099-41.04-2.37 0.1899-4.72 0.4298-7.05 0.7299z"/>
 <path d="m802.92 918.21c21.74-6.14 44.78-6.84 67.03-3.22 19.15 2.92 37.07 10.86 53.85 20.25 12.01 6.85 24.61 12.83 35.52 21.44 10 7.55 19.12 16.17 28.71 24.22 5.11 4.11 10.27 8.5099 16.59 10.63 7.04 2.03 14.06-1.38 20.1-4.7401 7.41-4.08 15.2-9.58 24.13-8.13 11.03 2.08 20.88 8.13 29.85 14.63 2.25 1.2 1.1001 5.2-1.61 4.26-5.38-2.55-10.88-6.68-17.17-5.36-9.41 1.79-18.7 4.25-27.87 7.02 5.5199-0.26 11.63 0.9 15.24 5.47 10.61 12.04 18.89 25.88 27.91 39.09 5.04 7.5699 9.77 15.35 14.17 23.32-0.42 1.75-2.53 3.4401-4.02 1.7101-7.88-12.04-14.31-25.28-24.39-35.74-4.97-5.4401-12.42-7.3301-19.42-8.4301-7.02-1.07-14.16-1.14-21.22-0.59 6.43 15.5 12.02 31.36 17.21 47.33 4.12 13.31 8.2 26.79 9.6 40.71 1.11 10.72-2 21.32-6.22 31.06-3.62 8.75-8.42 17.3-9.3101 26.9-0.7 6.9299 2.14 13.66 6.17 19.17 8.0499 11.18 19.26 19.43 29.78 28.12 6.2799 4.88 8.26 15.73 2.3999 21.67-5.7999 6.49-12.29 12.33-17.92 18.97-2.01 2.42-4.05 4.92-5.2101 7.89-3.1399 8.3101 0.9501 17.72-3.1899 25.82-2.7 6.2899-9.48 9.47-12.45 15.55-3.0601 6.66 0.63 13.87-0.28 20.78-1.0601 9.25-4.9 17.86-6.77 26.93-3.5 13.2 1.83 27.04-2.05 40.2-1.91 6.6799-7.74 11.58-14.17 13.75-8.94 3.03-18.53 2.41-27.82 2.89-10.5 0.84-20.33-3.55-30.17-6.47-7.89-2.3301-16.32-4.91-24.55-2.78-6.01 1.6-9.76 7.03-12.81 12.05-6.46 11.09-10.64 23.32-14.23 35.59-1.61 6.49-3.93 13.02-3.88 19.77 1.76 5.29 7.71 7.5801 10.28 12.44 6.46 11.34 10.88 23.85 18.36 34.62 3.05 4.5 8.75 1.0601 12.97 0.73 5.54-1.14 10.23 2.96 13.09 7.24 9.12 13.69 14.48 29.36 20.33 44.61 8.68 23.05 17.11 46.2 25.24 69.46 12.81 36.01 24.49 73.34 24.17 111.96-0.79 21.48-7.08 42.44-6.71 64.02-0.02 14.46 3.14 28.8 8.57 42.17 6.9301 16.94 14.52 34.21 15.11 52.81 0.79 23.66 0.39 47.34 0.2001 71.02-1.1001 105.32-4.05 210.63-4.15 315.96 0.1699 17.04-0.0801 34.12 1.39 51.12 2.0399 12.66 7.5299 24.54 14.14 35.45 5.53 9.1099 11.47 18 16.36 27.49 9.8999 20.16 21.2 39.59 31.83 59.37 18.16 33.63 36.36 67.34 51.4 102.53 4.4199 10.75 8.78 21.63 11.14 33.06 0.9299 5.03 1.6699 10.59-0.8201 15.33-3.4299 6.75-10.09 11.07-16.69 14.32-12.9 6.1001-26.92 9.2002-40.68 12.74-8.52 2.3-17.36 4.0701-25.18 8.3201-4.8301 2.3401-5.76 8.4102-5.0801 13.22 1.36 8.6301 5.8401 16.3 9.03 24.32 4.45 10.12 5.92 21.14 8.55 31.8 12.19 54.57 24.59 109.14 34.23 164.24 1.72 10.86 3.6699 21.75 4 32.78-0.4301 8.98-3.48 17.73-7.8401 25.55-4.59 8.1899-10.5 15.53-15.66 23.36-19.8 31.98-42.93 61.72-63.81 92.99-34.88 51.61-69.99 103.08-104.03 155.25-8.76 13.81-18.34 27.28-24.48 42.55-8.2 19.01-12.05 39.63-13.21 60.23-1.99 27.99-3.05 56.03-4.89 84.03-2.97 49.48-10.07 98.59-13.61 148.02-0.1 4.8899-0.91 9.9399 0.24 14.77 2.53 4 7.68 4.5898 11.75 6.2 7.25 2.3599 12.79 7.8599 18.88 12.2 17.23 13.36 34.47 26.72 51.17 40.75 3.87 2.8501 4.1 7.95 5.81 12.07 4.86 10.34 9.91 20.76 12.3 32.02 1.04 5.3899 1.73 11.66-1.65 16.41-3.96 4.77-9.96 7.1401-15.54 9.45-16.97 6.3101-34.93 9.55-52.89 11.41-15.65 1.3599-31.62 1.9299-47.09-1.3101-17.76-3.6799-33.44-13.18-49.11-21.85-13.83-7.71-28.62-14.12-44.36-16.58-25.95-4.25-52.32-2.27-78.47-2.1401-5.73-0.29-11.83 0.1799-17.14-2.3101-5.21-3.46-6.38-10.31-6.25-16.1 0.44-2.47-1.44-4.21-2.73-5.99-8.69-11.46-17.35-23.03-27.45-33.3-2.8-2.5901-6.23-6.6201-10.46-4.54-6.82 3.03-12.01 9.9399-20.02 10.05-8.38-0.3201-16.37-3.28-24.23-5.96-6.43-2.3901-12.8-5.01-18.75-8.4299-3.02-1.79-6.1-3.9502-7.49-7.29-2.69-5.9102-1.23-12.54-0.02-18.6 2.72-16.99 11.19-32.2 17.43-48.02 8.07-19.7 16.68-39.24 27.41-57.65 7.27-12.93 16.67-24.48 26.48-35.55 11.69-13.17 23.05-26.79 31.8-42.14 20.39-35.25 36.84-72.65 51.2-110.71 13.58-35.83 23.75-72.84 33.14-109.95 5.62-22.44 10.83-44.97 15.54-67.61 5.11-24.36 8.99-48.96 12.8-73.55 3.85-25.07 4.68-50.59 2.32-75.85-2.6-22.91-7.31-45.51-11.86-68.09-8.89-42.2-18.53-84.27-30.07-125.83-2.25-7.8201-4.49-15.65-7.37-23.25-0.95-2.26-1.76-5.01-4.29-5.9001-5.79-2.3599-12.14-0.8999-18.15-0.6599-4.7 0.23-10.24 0.3301-13.71-3.3899-4.25-4.5-3.77-11.11-4.85-16.76-0.54-2.6501-1.51-6.04-4.5-6.72-8.44-2.0601-17.11-2.9001-25.7-4.05-38.66-4.6799-77.48-7.9202-116.11-12.91-7.02-1.0698-14.16-1.7798-20.98-3.8298-3.6-1.01-4.72-5.27-4.58-8.55 0.38-6.1201 3.21-11.67 5.05-17.41 2.09-6.9001 5.23-13.4 8.1-19.98 14.08-31.77 28.71-63.31 41.67-95.56 3.24-8.6201 7.01-17.15 8.62-26.25-4.85 1.1899-8.87 4.3101-12.95 7.03-8.43 5.9099-16.48 12.37-25.09 18.02-4.21 2.5-8.61 5.7798-13.76 5.3799-9.65-1.01-17.47-7.9399-22.74-15.66-5.45-7.5701-7.47-16.93-8.62-26.02-0.85-8.0901-1.01-16.35 0.62-24.35 2.75-11.71 10.67-21.1 16.25-31.47-4.15-2.49-9.21-2.6799-13.89-3.28-12.94-0.5701-25.92-0.4399-38.8-1.9099-4.44-0.5701-9.06-1.1899-12.93-3.6201-6.25-3.8799-11.78-9.1299-15.48-15.51-4.29-7.04 1.46-15.94 8.29-18.69 4.14-1.1799 8.06 1.49 11.75 3.01 6.73 3.28 13.26 7 20.05 10.19 1.61-2.95 1.47-7.0698-0.94-9.53-2-2.1599-4.55-3.71-7.2-4.8999-5.84-3.1299-12.36 2.24-18.28-0.6699-5.25-2.8801-9.01-7.8501-12.19-12.8-2.13-3.6699-4.42-8.3-2.39-12.47 2.28-4.3601 7.41-5.75 11.7-7.28 5.7-1.6799 10.94-4.55 16.53-6.52 7.59-2.9399 15.39-5.45 22.6-9.27 6.65-3.5601 11.25-9.8601 14.66-16.42 6.14-9.76 3.73-22.75 11.07-31.95 3.91-5.2102 10.81-6.3401 16.9-6.5801 4.58-0.3801 10.09-0.3401 13.21-4.29 2.86-4.1699 3.36-9.3899 4.12-14.24 1.58-13.36 1.9-26.87 4.69-40.06 16.2-83.02 32.64-166.01 49.75-248.85 4.03-18.73 7.61-37.58 12.51-56.11 5.34-19.71 13.41-38.51 19.86-57.85-0.36-0.55-0.72-1.0701-1.08-1.5601 0.81 2.42-2.42 2.88-3.67 1.89-1.04-0.84-1.28-2.27-1.74-3.4-3.21-10.66-4.72-21.8-8.42-32.31-2.14 9.66-2.35 19.61-3.57 29.41-2.02 14.92-1.08 30.11-3.84 44.96-7.13 41.12-14.98 82.13-23.46 123.01-2.68 12.68-5.41 25.35-8.55 37.93-1.65 6.0798-2.93 12.35-5.65 18.09-0.94 2.53-4.5 2.8701-6.04 0.7102-2.98-3.9802-3.72-9.0801-4.89-13.77-4.09-20.21-6.15-40.75-9.6201-61.06-3.43-24.57-5.55-49.29-8.2-73.95-1.73-17.75-3.96-35.45-6.05-53.14-0.99 3.5901-0.64 7.3501-0.83 11.05-0.5 30.34-0.42 60.68-0.56 91.03-0.35 19.98-0.1 40.02-1.89 59.95-0.56 2.79-0.28 6.6201-3.11 8.3-4.23 1.3599-8.26-1.5801-11.48-3.97-7.88-6.4302-14.29-14.55-19.34-23.33-5.54-9.5-6.73-20.7-7.46-31.46-0.75-13.47-0.49-26.97-0.71-40.44 0.14-36.78 7.45-73.24 5.73-110.06-0.56-14.45-0.51-29.03-3.26-43.27-3.01 5.45-4.07 11.75-6.03 17.64-7.77 27.25-14.46 54.8-22.17 82.07-1.72 5.4301-2.92 11.11-5.53 16.22-1.08 2.2-4.76 1.97-5.01-0.6901-0.45-7.0699 1.16-14.1 1.98-21.1 7.88-51.6 17.53-102.96 23.22-154.87 5.57-49.64 10.89-99.3 15.2-149.06 1.07-13.72 2.36-27.43 2.6-41.19-6.07 18.39-10.23 37.35-14.69 56.18-5.91 26.24-11.4 52.6-15.55 79.18-6.02 36.64-3.65 73.92-1.95 110.81 0.26 8.6801 1.23 17.41 0.48 26.09 0.16 2.78-3.5 4.49-5.36 2.26-4.52-5.48-6.5-12.53-8.98-19.07-5.58-17.14-10.43-35.21-8.22-53.39 2.09-20.26 6.19-40.23 10.04-60.21 4.9-24.82 9.99-49.6 14.4-74.51 9.19-49.41 20.51-98.39 29.48-147.84 7.89-42.42 13.94-85.18 18.24-128.11 3.17-30.06 5.64-60.19 8.87-90.24 2.14-22.17 6.41-44.03 9.74-66.03 3.35-20.48 6.63-41.21 14.15-60.66 8.8701-22.43 24.56-41.45 41.72-58.08 6.64-5.85 13.24-12.99 22.4-14.45 6.83-1.38 13.86-0.2 20.69-1.48-0.16-3.1699-1.14-6.1899-1.53-9.3099-0.39-2.5801 1.53-5.53 4.34-5.36 6.15 0.51 11.66 4.34 17.94 4.11 3.55-0.05 4.58-4.14 6.08-6.65 8.03-17.67 14.56-36.19 25.44-52.41 6.86-10.56 16.33-19.08 26.05-26.94 29.19-23.02 63.74-38.45 99.38-48.45m-180.59 194.16c-3.27 1.91-4.06 5.91-4.95 9.28-2.28 10.3-2.89 20.89-3.48 31.4-0.64 12.63-0.79 25.29 0.03 37.92 1.66 28.24 4.11 56.45 7.82 84.5 1.36 8.72 2.17 17.71 5.79 25.86 3.98 9.2201 11.14 16.6 15.34 25.7 3.01 6.1799 4.33 13.05 4.16 19.91-0.22 25.09-2.31 50.12-4.16 75.14-2.25 28.63-4.82 57.23-7.58 85.82-2.43 24.08-4.38 48.26-9.14 72.03-4.55 22.81-9.14 45.74-9.9 69.05-0.54 20.7 0.26 41.4 0.78 62.09 0.96 31.32 2.21 62.63 3.46 93.94 0.77 24.1 2.28 48.19 2.17 72.3 0.35-0.13 1.06-0.39 1.41-0.53 0.08-1.24 0.28-2.4501 0.62-3.61 5.76-19.95 7.77-40.7 9.8-61.28 2.73-29.56 4.52-59.19 5.88-88.83 0.32-9.3301 0.96-18.67 0.3-27.99-0.63-11.07-2.64-22.02-2.77-33.11-0.3-14.73 2.82-29.36 7.83-43.15 5.92-15.83 14.11-30.66 20.77-46.17 17.88-36.83 37.24-72.92 55.72-109.44 9.41-18.68 19.1-37.23 27.51-56.38 4.46-9.47 3.56-20.39 1.49-30.35-2.78-12.59-4.66-25.5-9.66-37.46-2.84-6.8201-7.19-13-12.77-17.84-4.75-4.38-9.72-8.55-15.4-11.67-9.64-5.67-19.38-11.5-27.19-19.63-11.96-12.32-22.86-25.75-31.85-40.4-9.13-14.84-13.94-32.1-14.48-49.48-2.32-25.28 4.63-50.05 7.14-75.03 1-4.6799-2.71-8.2899-5.77-11.21-1.72-1.8101-4.45-2.98-4.88-5.67-4.83 0.7601-9.81 1.7001-14.04 4.2901m294.81 1685.4c-0.85 6.3601-0.44 12.8-0.25 19.21 1.68 37.42 6.14 74.66 7.57 112.09 0.27 26.79-4.57 53.26-6.96 79.87 7.2-13.83 12.01-28.84 20.21-42.16 5.25-9.03 10.71-17.93 16.27-26.76 1.34-1.9099 3.98-3.22 3.27-5.97-1.1-17.33-3.76-34.64-8.96-51.23-6.68-22.11-13.85-44.1-22.16-65.66-2.69-6.5999-5.21-13.33-8.99-19.39z"/>
 <path d="m1713.2 1786.3c3.32-0.03-1.52 2.96 0 0z" fill="#fff"/>
 <path d="m1677.2 1950.1c2.33-0.3 4.6799-0.54 7.0499-0.73-3.4099 13.64-7.9199 27.06-9.9099 41.04-1.8701 10.55-0.75 21.3-1.7101 31.92-1.72-8.99-3.52-18.11-2.7-27.3 1.15-14.64 4.63-28.96 8.36-43.12-0.2699-0.46-0.8099-1.3601-1.0899-1.81z" fill="#fff"/>
</svg>
