<?xml version="1.0" encoding="UTF-8" standalone="no"?>
<svg
   xmlns:dc="http://purl.org/dc/elements/1.1/"
   xmlns:cc="http://creativecommons.org/ns#"
   xmlns:rdf="http://www.w3.org/1999/02/22-rdf-syntax-ns#"
   xmlns:svg="http://www.w3.org/2000/svg"
   xmlns="http://www.w3.org/2000/svg"
   xmlns:sodipodi="http://sodipodi.sourceforge.net/DTD/sodipodi-0.dtd"
   xmlns:inkscape="http://www.inkscape.org/namespaces/inkscape"
   version="1.1"
   width="602.50134"
   height="1103.4855"
   viewBox="0 0 602.50134 1103.4855"
   id="svg7"
   sodipodi:docname="together_static_mixed14.svg"
   inkscape:version="1.0.2 (e86c870879, 2021-01-15)">
  <metadata
     id="metadata13">
    <rdf:RDF>
      <cc:Work
         rdf:about="">
        <dc:format>image/svg+xml</dc:format>
        <dc:type
           rdf:resource="http://purl.org/dc/dcmitype/StillImage" />
        <dc:title></dc:title>
      </cc:Work>
    </rdf:RDF>
  </metadata>
  <defs
     id="defs11" />
  <sodipodi:namedview
     pagecolor="#ffffff"
     bordercolor="#666666"
     borderopacity="1"
     objecttolerance="10"
     gridtolerance="10"
     guidetolerance="10"
     inkscape:pageopacity="0"
     inkscape:pageshadow="2"
     inkscape:window-width="1920"
     inkscape:window-height="997"
     id="namedview9"
     showgrid="false"
     fit-margin-top="0"
     fit-margin-left="0"
     fit-margin-right="0"
     fit-margin-bottom="0"
     inkscape:zoom="0.68392295"
     inkscape:cx="-125.56231"
     inkscape:cy="556.20009"
     inkscape:window-x="0"
     inkscape:window-y="0"
     inkscape:window-maximized="1"
     inkscape:current-layer="svg7"
     inkscape:document-rotation="0" />
  <rect
     style="fill:#ffffff;stroke-width:5.66929;stroke-linecap:square;stroke-linejoin:round;stroke-dasharray:11.3386, 11.3386"
     id="rect832"
     width="602.50134"
     height="1103.4855"
     x="0"
     y="0" />
  <g
     id="layer1"
     transform="matrix(1.3718566,0,0,1.3718566,-110.21525,-117.14244)">
    <g
       style="fill:#000000;fill-opacity:1;stroke-linejoin:miter"
       id="g4">
      <path
         d="m 193.76901,108.15511 c 0.29132,0 0.58191,0.002 0.87128,0.006 v 0 c -0.28937,-0.004 -0.57993,-0.006 -0.87125,-0.006 -2.24591,0 -4.53698,0.11707 -6.67077,0.33496 h -3e-5 c 2.13376,-0.21789 4.42483,-0.33496 6.67077,-0.33496 z m 242.54102,40.30256 c 0.001,0 0.002,0 0.004,0 h -0.007 c 10e-4,0 0.002,0 0.004,0 z m -28.65448,5.12738 c 0.59482,0 1.29831,0.0174 2.09095,0.0513 h -5.3e-4 c -0.79245,-0.0339 -1.49577,-0.0513 -2.09042,-0.0513 -0.58371,0 -1.06285,0.0168 -1.41883,0.0513 v 0 c 0.35598,-0.0345 0.83508,-0.0513 1.41883,-0.0513 z m 11.84518,0.78452 v 0 c -0.002,0 -0.004,0 -0.006,0 -0.002,0 -0.004,0 -0.006,0 z m -23.98959,17.69369 c 10e-4,0 0.002,0 0.003,0 h -0.007 c 0.001,0 0.002,0 0.004,0 z m -4.11829,4.04257 c -1.5e-4,0 -3.3e-4,0 -4.5e-4,0 -1.6e-4,0 -2.8e-4,0 -4.6e-4,0 z m 12.05925,64.66465 c 0.28414,0 0.5532,0.009 0.8102,0.0286 v 0 c -0.257,-0.0194 -0.52606,-0.0286 -0.8102,-0.0286 -0.29207,0 -0.60005,0.01 -0.927,0.0286 h -1.4e-4 c 0.32706,-0.0188 0.63504,-0.0286 0.92714,-0.0286 z m -8.30964,0.7092 v 0 c -0.0106,6e-5 -0.0213,6e-5 -0.0319,6e-5 -0.0106,0 -0.0213,0 -0.0318,-6e-5 z m 18.12964,3.58529 c 0.002,0 0.003,0 0.005,3e-5 h -0.009 c 10e-4,-3e-5 0.003,-3e-5 0.005,-3e-5 z m -0.5024,1.23212 v 0 c -10e-4,3e-5 -0.003,3e-5 -0.004,3e-5 -10e-4,0 -0.003,0 -0.004,-3e-5 z m 66.06572,14.33661 v 0 c 4.3e-4,0 8.5e-4,0 10e-4,0 h -0.008 c 1.2e-4,0 2.4e-4,0 4.4e-4,0 z m 9.40155,0.97616 c 0.27136,0 0.50043,0.0546 0.7027,0.16196 v 0 c -0.20227,-0.10739 -0.43127,-0.16196 -0.70264,-0.16196 -0.26855,0 -0.57855,0.0534 -0.94489,0.16196 h -1.2e-4 c 0.3664,-0.10852 0.67638,-0.16196 0.94495,-0.16196 z m -87.15955,21.58834 c 0.0649,0 0.12625,0.002 0.18433,0.006 h -2.8e-4 c -0.058,-0.004 -0.11923,-0.006 -0.18405,-0.006 -0.0675,0 -0.13892,0.002 -0.21457,0.006 v 0 c 0.0756,-0.004 0.14705,-0.006 0.21457,-0.006 z m 15.70238,3.89985 c 0.002,0 0.003,0 0.005,0 h -0.009 c 0.002,0 0.003,0 0.005,0 z m -33.52397,1.5878 c 0.26233,0 0.53085,0.0312 0.80247,0.0951 h -2.3e-4 c -0.27154,-0.0639 -0.54,-0.0951 -0.8023,-0.0951 -0.26657,0 -0.5268,0.0322 -0.77741,0.0951 h -9e-5 c 0.2507,-0.0629 0.51096,-0.0951 0.77756,-0.0951 z m 29.2446,2.46605 c -10e-4,2e-5 -0.002,2e-5 -0.003,2e-5 -0.001,0 -0.002,0 -0.003,-2e-5 z m -17.33817,1.52583 c -9.6e-4,3e-5 -0.002,3e-5 -0.003,3e-5 -0.001,0 -0.002,0 -0.003,-3e-5 z m -19.00176,0.92182 c 0.0941,0 0.1959,0.009 0.30828,0.0271 v 0 c -0.11238,-0.0179 -0.21411,-0.0271 -0.30826,-0.0271 -0.28822,0 -0.50516,0.0871 -0.73636,0.28232 v 0 c 0.2312,-0.19519 0.44814,-0.28232 0.73634,-0.28232 z m 2.63052,0.58801 c -0.002,0 -0.005,6e-5 -0.007,6e-5 -0.002,0 -0.005,-6e-5 -0.007,-6e-5 z m -93.34464,31.03412 c 0.77372,0 1.23152,0.0165 1.26832,0.0533 -0.0368,-0.0368 -0.49458,-0.0533 -1.26826,-0.0533 -0.83749,0 -2.0451,0.0194 -3.4895,0.0533 h -3.1e-4 c 1.44449,-0.034 2.6522,-0.0533 3.48975,-0.0533 z m -1.31988,8.32372 c 0.12735,0 0.26666,0.0104 0.41546,0.03 h -3e-5 c -0.14877,-0.0196 -0.28805,-0.03 -0.41537,-0.03 -0.12306,0 -0.23486,0.01 -0.33326,0.03 0.0984,-0.0204 0.2102,-0.03 0.3332,-0.03 z m -0.98435,0.0971 c -0.005,2e-5 -0.009,2e-5 -0.0138,2e-5 -0.005,0 -0.009,0 -0.0137,-2e-5 z m 80.03945,11.92793 c 0.16542,0 0.3154,0.005 0.45176,0.0152 h -3e-4 c -0.13633,-0.0104 -0.28623,-0.0151 -0.45151,-0.0151 -0.17695,0 -0.37149,0.005 -0.58588,0.0151 h -3.3e-4 c 0.21454,-0.01 0.40924,-0.0152 0.58626,-0.0152 z m 13.9468,16.33963 v 0 c -10e-4,4e-5 -0.003,4e-5 -0.004,4e-5 -10e-4,0 -0.003,0 -0.004,-4e-5 z m -114.89445,5.17667 c 0.62539,0 1.45865,0.0491 2.4852,0.14932 h -1.9e-4 c -1.02639,-0.10022 -1.85958,-0.14932 -2.48492,-0.14932 -0.63444,0 -1.05512,0.0505 -1.24646,0.14932 v 0 c 0.19138,-0.0988 0.61192,-0.14932 1.24637,-0.14932 z m 11.87625,0.95737 c -0.0136,3e-5 -0.0273,3e-5 -0.0411,3e-5 -0.0137,0 -0.0274,0 -0.0412,-3e-5 z m -22.6171,4.82736 c 0.059,1.4e-4 0.1279,0.0105 0.20682,0.028 v 0 c -0.0786,-0.0174 -0.14734,-0.0278 -0.20618,-0.028 h -0.004 c -0.089,3.3e-4 -0.15515,0.0243 -0.19848,0.0826 v 0 c 0.0434,-0.0584 0.10977,-0.0824 0.19906,-0.0827 z m 3.82486,0.48822 v 0 c -0.0158,2e-5 -0.0316,2e-5 -0.0474,2e-5 -0.0158,0 -0.0315,0 -0.0473,-2e-5 z m 125.65684,12.19608 c 10e-4,0 0.003,0 0.004,0 h -0.008 c 10e-4,0 0.003,0 0.004,0 z m -1.1382,0.1094 c -0.009,4e-5 -0.0184,6e-5 -0.0277,6e-5 -0.009,0 -0.0186,-2e-5 -0.0281,-6e-5 z m 79.94795,13.22154 c 6.5e-4,0 10e-4,0 0.002,0 h -0.004 c 6.8e-4,0 10e-4,0 0.002,0 z m -221.24198,28.14116 c 0.0865,9.2e-4 0.19053,0.0598 0.3122,0.17674 h -3e-5 c -0.12198,-0.11717 -0.22623,-0.17607 -0.31281,-0.1767 h -0.003 c -0.0862,6.3e-4 -0.1547,0.0595 -0.20551,0.1767 v 0 c 0.0507,-0.11692 0.11899,-0.17582 0.20489,-0.17674 z m -115.78888,1.76447 c 0.0888,0 0.16511,0.008 0.22692,0.025 h -6e-5 c -0.0618,-0.0167 -0.13806,-0.025 -0.22686,-0.025 -0.0898,0 -0.19239,0.008 -0.30585,0.025 v 0 c 0.11346,-0.0166 0.21606,-0.025 0.30585,-0.025 z m -2.38826,0.38547 c -0.004,0 -0.008,0 -0.0118,0 -0.004,0 -0.008,0 -0.0118,0 z m 132.79717,0.4391 c 2.7e-4,0 5.2e-4,0 8.2e-4,0 h -0.005 c 2.8e-4,0 5.2e-4,0 8.2e-4,0 z m -6.35184,5.64744 v 0 c -0.002,0 -0.005,0 -0.007,0 -0.002,0 -0.005,0 -0.007,0 z m -8.6394,21.31858 c 5.2e-4,0 0.001,0 0.002,0 h -0.003 c 5.2e-4,0 0.001,0 0.001,0 z m -0.15421,0.0465 v 0 c -8.5e-4,0 -0.002,0 -0.003,0 -8.6e-4,0 -0.002,0 -0.003,0 z m -106.9339,46.41375 c 0.0229,0 0.0453,0.001 0.0673,0.005 h -2.1e-4 c -0.022,-0.003 -0.0443,-0.005 -0.0671,-0.005 -0.0256,0 -0.0518,0.002 -0.0787,0.005 v 0 c 0.027,-0.003 0.0532,-0.005 0.0788,-0.005 z m -0.28378,0.0232 c 0.009,3.6e-4 0.0174,5.5e-4 0.026,5.5e-4 0.008,0 0.016,-1.9e-4 0.0239,-4.3e-4 h 0.002 c -0.009,3e-4 -0.0171,5e-4 -0.0256,5e-4 -0.009,0 -0.0186,-2e-4 -0.0279,-6.2e-4 z m 135.86093,78.95816 c 4e-4,0 8e-4,0 0.001,0 h -0.002 c 4e-4,0 7.9e-4,0 10e-4,0 z m -0.42532,3.58532 c -5.5e-4,0 -10e-4,0 -0.002,0 -5.4e-4,0 -10e-4,0 -0.002,0 z m 220.41986,74.75394 c 0.23529,0 0.7406,1.6828 1.26416,4.5334 0.7884,4.59065 0.7884,5.6573 0,5.6573 -0.6491,0 -0.8346,-0.9738 -1.34473,-8.3004 -0.1037,-1.2962 -0.0592,-1.8903 0.0806,-1.8903 z M 419.413,672.41925 c 0.18032,0 0.33224,0.0121 0.45648,0.0364 h -1.3e-4 c -0.12425,-0.0244 -0.27615,-0.0364 -0.45642,-0.0364 -0.18136,0 -0.39143,0.0122 -0.63101,0.0364 h -2.2e-4 c 0.2397,-0.0242 0.44987,-0.0364 0.6313,-0.0364 z m -17.59968,2.49249 v 0 c -0.0112,6e-5 -0.0223,6e-5 -0.0334,6e-5 -0.011,0 -0.022,0 -0.0329,-6e-5 z M 476.3669,784.0045 c 7.5e-4,0 0.001,0 0.002,0 h -0.004 c 7.2e-4,0 0.001,0 0.002,0 z m -0.58367,1.2247 c -3.6e-4,0 -7.3e-4,0 -10e-4,0 -4.4e-4,0 -7.4e-4,0 -0.001,0 z m -255.31836,38.4817 c 0.0142,0 0.0294,9e-4 0.0456,0.003 h -5.2e-4 c -0.016,-0.002 -0.031,-0.003 -0.0451,-0.003 -0.0139,0 -0.0268,8.6e-4 -0.0387,0.003 v 0 c 0.0119,-0.002 0.0247,-0.003 0.0386,-0.003 z m -0.0877,0.009 v 0 c -0.002,6e-5 -0.004,6e-5 -0.005,6e-5 -0.002,0 -0.004,0 -0.005,-6e-5 z m -74.73706,3.40486 c 0.0809,0 0.12884,0.0905 0.15252,0.25645 -0.0237,-0.16585 -0.0716,-0.25641 -0.15249,-0.25641 -0.0766,0 -0.18274,0.0812 -0.32587,0.25641 v 0 c 0.1431,-0.17525 0.24924,-0.25645 0.32584,-0.25645 z m 0.70446,1.5139 c -4.2e-4,0 -8.8e-4,0 -0.001,0 -4.2e-4,0 -8.8e-4,0 -0.001,0 z m 104.49979,3.1232 c 0.058,0 0.11481,4.6e-4 0.17051,0.001 v 0 c -0.0557,-9.4e-4 -0.11253,-0.001 -0.17051,-0.001 -0.10022,0 -0.20376,0.001 -0.31039,0.004 v 0 c 0.10663,-0.003 0.21017,-0.004 0.31039,-0.004 z m 143.90251,12.0992 c -0.56584,0.004 -1.17988,0.0137 -1.84227,0.0281 0.66065,-0.0145 1.27323,-0.024 1.83787,-0.0281 z m 0.6832,-0.003 c 0.74315,0 1.3897,0.0103 1.9398,0.0309 h -8.8e-4 c -0.55012,-0.0205 -1.19678,-0.0308 -1.93988,-0.0308 h -0.004 c -0.10553,0 -0.21304,2e-4 -0.32248,6.4e-4 v 0 c 0.1094,-4.9e-4 0.21683,-6.8e-4 0.32233,-6.8e-4 z m -5.0171,0.0675 c -0.0236,0 -0.0471,0 -0.0706,0 -0.0235,0 -0.0469,0 -0.0702,0 z m -135.12531,4.683 c 6.1e-4,0 0.001,0 0.002,0 h -0.002 c 3.7e-4,0 6.7e-4,0 0.001,0 h -0.003 c 6.7e-4,0 0.001,0 0.002,0 z m -5.76822,1.86055 v 0 c -0.003,5e-5 -0.006,5e-5 -0.008,5e-5 -0.003,0 -0.006,0 -0.008,-5e-5 z m 229.50203,4.12865 c -0.006,10e-5 -0.0121,10e-5 -0.0182,10e-5 -0.006,0 -0.0123,0 -0.0184,-10e-5 z m -48.008,1.4069 c -0.0222,0 -0.0444,0 -0.0667,0 -0.0222,0 -0.0445,0 -0.0668,0 z m 6.05132,-708.94 c -0.19568,0 -0.40106,0.002 -0.61762,0.005 -1.85488,0 -4.4053,0.37091 -5.8428,0.83466 -1.39108,0.46371 -4.127,1.57648 -6.02823,2.45755 -3.84375,1.78353 -5.3833,2.42511 -7.09317,2.42511 -0.8686,0 -1.78122,-0.16559 -3.06216,-0.43112 -2.02872,-0.42957 -3.8486,-0.63806 -5.44064,-0.63806 -1.50114,0 -2.79978,0.18536 -3.87995,0.54543 -1.25201,0.41737 -1.90125,1.06657 -2.78225,2.87488 -1.62302,3.33884 -3.246,5.33264 -4.869,6.02826 -4.21975,1.80857 -7.09475,5.42545 -6.49194,8.16141 0.41734,1.94748 -1.25201,6.63107 -4.49798,12.5665 -3.33872,6.16739 -3.5243,8.02224 -1.11295,10.85092 1.94763,2.2721 1.8085,2.73584 -2.27219,6.67743 -3.19954,3.15317 -4.86894,5.70355 -4.86894,7.51211 0,1.62299 1.62297,3.94159 3.3387,4.82254 2.73593,1.39115 2.82868,2.27219 0.69556,4.68357 -0.88104,0.97369 -1.71573,2.13302 -1.85483,2.5968 -0.37097,0.97366 0.60287,3.52417 1.6694,4.45154 0.5564,0.41732 0.7883,1.34481 0.7883,2.78225 0,2.04038 0.0926,2.22586 1.57657,2.96781 1.57666,0.74188 1.57666,0.74188 1.9013,4.82257 0.3709,5.00812 0.83463,6.35293 2.73585,7.51205 1.76215,1.11295 3.56545,1.62824 6.02829,1.62824 1.23138,0 2.62768,-0.12881 4.26611,-0.37616 1.6077,-0.25245 2.88797,-0.39447 3.96305,-0.39447 2.6769,0 4.08135,0.88067 6.0995,3.1304 5.47178,6.1673 6.12098,8.30035 5.75,18.08475 -0.37096,8.53219 -1.15926,14.4678 -3.06047,22.11895 -1.94763,7.79038 -2.96775,9.7844 -6.81653,13.12312 -3.5839,3.14678 -6.34384,5.26376 -6.84348,5.26376 -0.0305,0 -0.0525,-0.008 -0.0659,-0.0239 -0.13916,-0.0927 0.32456,-1.43741 0.92744,-2.96766 0.74188,-1.76214 1.15927,-3.66335 1.15927,-5.33275 0,-2.36493 0.18548,-2.92142 1.85483,-5.10085 1.57662,-2.13304 1.85485,-2.8286 1.85485,-4.8225 0,-3.01422 -0.92743,-4.4053 -2.9678,-4.4053 -2.17938,0 -4.49799,1.71573 -5.79633,4.3125 -0.68002,1.36002 -0.94532,1.87177 -1.26465,1.87177 -0.18152,0 -0.38049,-0.16535 -0.68297,-0.43421 -0.7512,-0.66778 -2.62083,-1.05176 -4.1666,-1.05176 -1.0306,0 -1.9173,0.1707 -2.2326,0.5417 -0.30262,0.4034 -0.77595,0.5875 -1.61442,0.5875 -0.31784,0 -0.68811,-0.0265 -1.12146,-0.0774 -0.29902,-0.0349 -0.59,-0.0521 -0.87232,-0.0521 -2.34408,0 -4.08642,1.18723 -4.83142,3.29791 -0.51004,1.48398 -0.78828,1.66947 -2.13302,1.66947 -2.875,0 -5.00806,4.03435 -4.12702,7.69763 0.23182,0.88104 0,1.53024 -0.78836,2.50397 -2.59678,3.01412 -1.94758,11.22183 1.99396,26.94165 1.80856,7.0484 2.78232,14.83877 2.78232,21.93353 v 5.47183 l -2.68952,-2.4577 c -1.48388,-1.39108 -3.47784,-3.01413 -4.4053,-3.66326 -1.39108,-0.92747 -1.8548,-1.66948 -2.45767,-3.8488 -0.41733,-1.48397 -0.92737,-2.736 -1.06653,-2.82867 -0.0348,-0.0232 -0.20578,-0.0348 -0.48404,-0.0348 -0.8347,0 -2.6345,0.10434 -4.61682,0.31296 l -4.8689,0.41732 -4.45166,-2.08662 c -5.05444,-2.36497 -10.38714,-3.5243 -16.36902,-3.5243 h -3.75604 l -2.22586,2.3186 c -1.94757,1.9939 -2.2258,2.5505 -2.2258,4.26623 0,2.08664 0.60282,2.78227 9.22788,10.52622 2.78225,2.45761 3.70962,3.61688 3.5242,4.17335 -1.57663,3.80245 0.1391,7.69762 4.77624,11.08266 1.62298,1.20569 4.54438,3.47787 6.44553,5.05454 5.88915,4.82263 13.67953,8.02218 24.80862,10.1553 l 4.54441,0.88095 v 10.85085 c 0,7.14118 -0.23191,12.3348 -0.69556,15.30244 -1.20566,8.02228 -1.71572,19.56866 -1.15932,26.94168 0.27822,3.70972 0.60277,7.04846 0.69554,7.41943 0.0928,0.37091 0.74201,5.61085 1.43756,11.59272 1.15928,10.29443 1.25193,12.19561 1.29834,34.08283 0.0928,19.476 0.27823,25.0868 1.11296,35.0102 0.55645,6.492 1.20565,15.85896 1.48382,20.8207 0.27822,4.9153 0.97378,12.10284 1.57666,15.99804 0.69552,4.35882 1.25202,10.15521 1.4375,15.34876 0.83468,25.1332 2.04037,35.70587 5.84274,51.28643 1.85488,7.79047 2.9678,13.35507 3.24603,16.83277 0.27823,2.8287 0.64915,7.2339 0.88098,9.78436 0.23187,2.55044 0.41737,6.7702 0.41737,9.41334 0.0464,5.6572 0.74196,7.79033 2.6895,8.254 0.2919,0.0751 0.78486,0.10964 1.4229,0.10964 2.9096,0 8.83745,-0.71884 12.48854,-1.59344 1.52976,-0.3825 2.87026,-0.6388 3.34513,-0.6388 0.10093,0 0.16275,0.0116 0.17901,0.036 0.0928,0.0927 0.0464,2.875 -0.1391,6.21375 -0.37098,6.86285 -0.18548,21.5161 0.46372,32.4597 0.27826,4.0807 0.69555,11.45374 0.97378,16.369 0.97379,16.09085 -0.69552,29.2139 -7.00208,55.04257 -2.41128,9.83083 -4.59072,16.04449 -7.83663,22.25813 -4.35897,8.3468 -8.53232,13.67955 -13.12314,16.83275 -4.26608,2.92139 -11.91736,5.05445 -24.57669,6.86292 -4.91531,0.69563 -7.83674,1.85493 -8.996,3.66333 -0.69554,1.0665 -0.69554,1.252 0,2.3186 1.06653,1.57654 3.98794,3.1995 9.08874,4.8225 4.40532,1.48396 15.44165,3.8488 20.4961,4.4516 l 2.68952,0.2783 -0.69554,1.3448 c -1.48391,2.87495 -0.60286,4.5907 2.78217,5.51814 3.15332,0.8346 14.42147,2.82866 17.20374,3.06046 1.48391,0.0927 3.19963,0.3247 3.84883,0.4173 0.6492,0.1392 4.86897,0.5565 9.32063,0.9276 2.98764,0.24796 5.76962,0.3726 8.36142,0.3726 8.06851,0 14.29325,-1.20825 19.13663,-3.66504 3.1069,-1.53026 11.40732,-9.87706 14.46782,-14.51416 1.29844,-1.90125 3.1068,-4.35895 4.12706,-5.5181 2.0473,-2.4235 5.03576,-4.7715 5.8786,-4.7715 0.0926,0 0.15924,0.0283 0.19598,0.088 0.1391,0.2318 0.1391,0.69556 0,0.92737 -0.18549,0.2782 -0.0927,0.74193 0.1391,1.06653 0.2782,0.32464 0.55646,5.14715 0.64916,11.6855 0.0928,7.74394 0.32466,11.45366 0.69557,12.1493 0.50903,0.86826 2.12005,1.4273 3.40991,1.4273 0.70776,0 1.31892,-0.16835 1.5982,-0.5463 0.37098,-0.5101 0.64922,-4.9153 0.88105,-13.58665 0.18554,-7.09485 0.55645,-13.72595 0.78827,-14.7461 0.3711,-1.43745 1.39123,-2.7359 4.59082,-5.79645 5.05444,-4.8225 6.02825,-6.6774 5.98193,-11.5927 0,-1.9012 -0.27825,-4.2661 -0.64923,-5.28626 -0.83472,-2.36499 -4.31256,-7.37314 -7.83672,-11.26819 -1.57667,-1.76215 -3.61696,-4.63721 -4.5444,-6.44565 -2.6895,-5.1009 -3.2924,-8.3469 -3.33873,-18.0384 0,-7.92946 0.0463,-8.6714 1.53027,-14.83877 0.83472,-3.57053 2.59674,-9.9234 3.89521,-14.14313 3.89515,-12.89117 5.70355,-21.8408 7.09478,-35.70574 0.97382,-9.78431 0.69557,-22.49012 -0.60283,-28.14736 l -0.9275,-3.8024 0.9738,-0.1392 c 0.88112,-0.139 0.97383,-0.41727 0.88112,-3.8487 -0.0464,-2.22586 -0.83472,-7.4658 -1.99396,-13.2158 -1.39116,-6.9093 -2.0404,-11.40733 -2.31854,-16.46166 -0.23187,-3.84894 -0.64922,-9.78444 -0.92742,-13.21588 -0.27827,-3.43146 -0.69557,-12.28833 -0.92744,-19.66136 -0.46376,-12.2884 -1.57666,-29.16743 -2.08673,-31.53236 -0.13916,-0.55644 -0.83473,-7.46574 -1.62299,-15.34874 -0.78834,-7.9295 -1.57666,-15.7199 -1.85492,-17.4356 -0.97375,-6.6311 -1.39105,-13.6795 -0.92736,-17.3892 0.46374,-4.26616 2.4577,-11.59276 3.84881,-14.23598 1.20569,-2.36492 2.5968,-11.77826 2.64319,-17.94562 0,-10.01617 -2.13306,-21.84076 -6.58472,-36.4013 -1.94764,-6.30658 -4.72992,-13.26215 -6.86291,-17.15735 -0.97383,-1.80853 -2.64319,-5.8428 -3.66333,-9.04235 -2.04035,-6.30656 -5.00818,-18.87306 -5.42548,-23.13923 l -0.32458,-2.68942 3.19964,-0.37107 c 6.1673,-0.6492 8.57868,-2.7359 12.28832,-10.61895 3.94154,-8.486 4.72987,-14.32873 4.82258,-36.44767 0.0464,-14.6997 0.18549,-17.25006 0.83472,-19.24411 2.31854,-6.67743 3.70972,-20.72793 3.75604,-38.02425 0.0464,-11.96378 -0.0463,-12.75214 -2.31854,-25.13316 -0.69556,-3.61697 -1.1129,-6.86294 -0.97375,-7.28024 0.32452,-0.78836 4.49798,-3.06058 5.65722,-3.06058 0.55646,0 0.69556,0.60282 0.69556,2.875 0,2.27222 -0.32459,3.57062 -1.39111,5.8891 -1.11652,2.37616 -1.34925,3.51518 -0.64386,3.51518 0.43724,0 1.23492,-0.43757 2.406,-1.28926 2.68952,-1.99404 4.40528,-4.45156 5.93544,-8.48599 1.53032,-4.08065 1.43755,-5.00802 -0.78828,-7.97585 -2.41132,-3.19956 -4.59076,-7.88303 -4.91535,-10.7581 -0.13903,-1.34469 0.0928,-4.12695 0.55646,-6.77005 1.02014,-5.75015 0.74187,-8.90329 -1.11291,-12.65948 -1.53022,-3.10675 -5.33272,-8.30032 -6.35285,-8.71762 -0.88104,-0.32474 -0.83465,-1.57669 0.32453,-5.61093 1.15936,-4.17349 0.97387,-5.42548 -1.43738,-10.01627 -1.20569,-2.27209 -1.99396,-4.49798 -2.31862,-6.58462 -1.53026,-9.78437 -8.39317,-23.04642 -16.36897,-31.5788 -1.57666,-1.66934 -4.72989,-4.5444 -7.04841,-6.39917 -2.27222,-1.8548 -5.37912,-4.63699 -6.863,-6.21368 -1.48392,-1.57669 -2.875,-2.82868 -3.10684,-2.82868 -0.18548,0 -1.57663,-0.6492 -3.01413,-1.39123 -2.05542,-1.07041 -3.00365,-1.35007 -5.36423,-1.35007 z M 233.1254,867.43713 c 1.0465,0 2.11508,0.0192 3.12158,0.053 h -2.5e-4 c -1.00637,-0.0337 -2.07476,-0.0528 -3.12109,-0.0528 -0.96957,0 -1.92026,0.0163 -2.78516,0.0528 v 0 c 0.86484,-0.0365 1.8154,-0.053 2.78492,-0.053 z m -5.03128,0.0941 c -0.007,0 -0.0137,0 -0.0205,0 -0.007,0 -0.0136,0 -0.0205,0 z m 14.77121,0.3526 v 0 c -0.005,0 -0.0103,0 -0.0155,0 -0.005,0 -0.0103,0 -0.0155,0 z M 196.33725,106.26421 c -0.32455,0.0464 -3.01413,0.23186 -5.93545,0.41732 -9.22788,0.60279 -12.33481,1.57669 -17.85297,5.47186 -6.49198,4.59064 -10.20163,10.15532 -12.19559,18.27019 -1.11291,4.45157 -1.85483,5.84281 -5.75,11.22181 -3.80249,5.1936 -4.72986,7.79037 -4.72986,13.26208 0,3.6633 0.23182,4.91528 1.25199,7.60492 1.5766,4.03421 1.5766,5.28629 -0.18546,12.33475 -2.55044,10.1553 -1.9476,14.42138 2.55042,17.66739 2.04031,1.43744 2.08667,1.48385 1.43747,2.78225 -0.5101,0.92749 -0.69556,2.92139 -0.69556,7.04834 v 5.79639 l -2.04031,2.78232 c -1.11295,1.48385 -5.28632,6.12097 -9.18153,10.20163 -9.64517,9.96982 -15.48798,17.85284 -19.98595,26.75616 -4.72986,9.50611 -8.2077,19.10492 -9.08877,25.27231 -1.71573,11.9173 -4.96173,41.59487 -5.84275,53.5585 -0.37095,5.10102 -1.11293,12.28837 -1.57663,15.99814 -2.64315,19.61493 -2.9214,22.90738 -2.64315,35.05658 0.3246,13.16937 0.64918,15.34875 3.66331,23.00012 2.04033,5.23987 3.3851,10.66523 4.49803,18.4556 0.92745,6.16739 1.99396,8.62506 4.54434,10.24811 1.15931,0.74188 2.50406,1.34475 2.96776,1.34475 1.1593,0 1.06658,0.41733 -1.02017,4.26617 -2.36491,4.4052 -3.94156,8.67143 -5.47175,14.7459 -1.06655,4.2199 -1.20569,5.8429 -1.20569,12.28844 0,6.9093 0.0927,7.69763 1.2984,11.31458 0.69557,2.13298 2.2722,6.02818 3.52423,8.625 2.22577,4.82258 3.15321,6.44561 8.43953,15.117 4.4516,7.28021 6.26014,11.96375 7.60489,19.66135 0.6492,3.57053 1.34476,7.23388 1.5766,8.16137 0.69559,2.59676 3.15323,19.05842 4.1734,27.91541 1.80851,16.09075 1.99396,19.52222 1.57663,31.39319 -0.51013,13.77226 -0.32458,21.19156 0.5101,24.57672 0.60282,2.4577 1.11289,10.94354 2.08667,35.474 0.27827,6.35278 0.74195,13.67944 1.11289,16.2298 0.32461,2.64324 0.41736,4.72984 0.18555,4.9154 -0.23187,0.13904 -0.0928,1.66937 0.27823,3.47774 0.37097,1.7621 1.02014,7.0485 1.4375,11.7783 0.88107,9.22785 0.7883,24.3449 -0.18552,36.4014 -0.46368,5.8891 -1.5766,57.1291 -1.25198,57.6856 0.0927,0.13914 0.55642,10.61894 0.97378,23.23203 l 0.78827,22.95357 -2.04028,4.6835 c -1.15931,2.55056 -3.33872,6.8166 -4.91538,9.4134 -3.5242,5.7964 -4.72986,9.1815 -4.72986,13.2622 0,5.4254 2.04035,8.5786 6.95569,10.6189 2.04032,0.8347 7.8367,1.8549 17.38916,3.06056 4.08066,0.51007 9.83072,1.34479 12.75205,1.85484 5.5646,0.9274 15.76623,2.08675 22.95373,2.5504 2.31857,0.13913 5.51822,0.4637 7.18759,0.7419 7.40827,1.0737 28.13016,2.0369 39.31265,2.0369 3.30652,0 5.779,-0.0842 6.82667,-0.27474 3.6633,-0.64916 8.0686,-3.06056 11.03628,-6.02826 3.29239,-3.2924 4.45165,-5.7963 4.49805,-9.36706 0,-2.45754 -0.13907,-2.87484 -1.5303,-4.26604 -1.5302,-1.53035 -4.0806,-2.5504 -6.44556,-2.5504 h -1.25202 l 1.15928,-2.0404 c 2.3186,-4.12705 1.9012,-10.6653 -0.78827,-13.4012 l -1.39118,-1.39113 -4.0343,0.4173 c -2.19061,0.21093 -3.97809,0.32537 -5.5611,0.32537 -2.9407,0 -5.17584,-0.39484 -7.97925,-1.29914 -7.55856,-2.41124 -13.9114,-6.4456 -13.9114,-8.81054 0,-1.15916 1.39114,-5.42536 2.50406,-7.51216 1.90118,-3.75596 5.23993,-18.4557 5.65728,-25.1795 0.18546,-2.82866 0.83469,-5.6572 2.27222,-10.20165 1.11289,-3.43139 2.96771,-9.9234 4.17337,-14.37505 1.1593,-4.45155 2.55045,-9.36695 3.01413,-10.8971 1.06659,-3.2924 3.52423,-11.8247 6.07468,-20.86707 1.02014,-3.57053 2.78226,-9.32053 3.94153,-12.75207 1.11294,-3.47786 1.99395,-6.81659 1.94757,-7.41946 -0.0464,-1.02006 5.00811,-15.998 7.97586,-23.55643 1.29834,-3.38514 3.38513,-7.51221 5.9818,-11.82471 1.15934,-1.94756 2.92143,-4.86886 3.84886,-6.49201 3.06048,-5.1007 6.7702,-12.10275 7.74394,-14.60681 0.5565,-1.39117 1.2057,-4.31254 1.4376,-6.492 0.23182,-2.22577 0.83463,-6.44554 1.3911,-9.36694 1.57665,-9.04236 1.25206,-11.7783 -3.01408,-25.04035 -3.01416,-9.32062 -5.00812,-17.29651 -7.69762,-30.79055 -1.25203,-6.35276 -2.5041,-11.9173 -2.73594,-12.3346 -0.23182,-0.4174 -0.74196,-4.91544 -1.15928,-10.01627 -2.27218,-28.75 -4.59072,-39.13723 -12.52023,-56.99008 -5.56455,-12.42749 -5.42538,-11.87103 -5.51813,-21.09895 l -0.0928,-8.11486 -1.76212,-4.63708 c -3.89517,-10.06256 -5.05441,-13.86506 -5.00808,-16.22992 0.13913,-9.87708 0.83465,-18.31664 1.4375,-18.31664 0.13915,0.0464 0.78836,0.32464 1.43753,0.6956 0.81082,0.46686 1.88532,0.67658 3.05264,0.67658 3.23892,0 7.19296,-1.61432 8.21555,-3.82986 1.39117,-2.92132 1.8085,-7.23382 2.04037,-21.65522 0.23176,-15.58074 -0.13913,-22.861 -1.71579,-31.16156 -0.51007,-2.64309 -0.92737,-4.77612 -0.92737,-4.82247 0,-0.0464 1.2056,-0.18555 2.73584,-0.32465 4.08068,-0.37097 6.63111,-1.66932 7.60488,-3.89517 l 0.8347,-1.80841 h 7.51214 c 1.01139,0.006 1.88856,0.0111 2.65522,0.0111 4.75192,0 5.25888,-0.17862 7.17547,-1.21685 1.29834,-0.6492 2.96775,-1.90117 3.75601,-2.78227 3.75611,-3.98776 4.82264,-7.28021 3.01416,-8.90323 -0.88104,-0.78836 -0.88104,-0.83475 0.51008,-2.82864 1.85485,-2.6431 2.31852,-6.21372 0.97375,-7.46579 -0.51003,-0.51007 -1.29833,-1.1128 -1.80841,-1.39102 -0.83469,-0.46375 -0.78827,-0.60288 0.60281,-2.17948 1.85483,-2.13302 2.73594,-4.8226 2.13307,-6.6311 -0.3246,-0.97377 -1.20564,-1.76207 -3.10685,-2.78223 -1.76205,-0.9274 -2.50409,-1.5766 -2.13312,-1.8085 0.8811,-0.55646 2.31854,-4.03434 2.31854,-5.65732 0,-1.20552 -0.23181,-1.57657 -1.15917,-1.80842 -0.2958,-0.0701 -1.29835,-0.10088 -2.76868,-0.10088 -7.2894,0 -26.07587,0.75854 -27.23349,1.2601 -1.48392,0.55646 -1.62299,1.34482 -0.55646,3.38513 0.69556,1.29835 0.69556,1.62305 0,4.03435 -0.41733,1.4839 -0.74194,3.10674 -0.74194,3.66335 0,1.20553 -0.83472,1.71572 -4.40534,2.41119 -1.53018,0.27823 -3.10684,0.60286 -3.47778,0.74196 -0.0425,0.01 -0.0832,0.015 -0.12222,0.015 -0.51447,0 -0.74519,-0.903 -1.17619,-4.04926 -0.32458,-2.3186 -1.71569,-8.625 -3.06048,-14.00409 -1.39111,-5.42541 -3.47784,-14.65323 -4.6835,-20.49603 -1.20566,-5.88916 -2.36496,-11.03635 -2.5968,-11.45364 -0.23184,-0.41733 -0.41733,-1.43758 -0.41733,-2.22586 0,-1.76209 -1.48389,-6.02832 -2.68955,-7.74396 -1.20562,-1.71576 -2.27221,-5.3327 -2.64315,-8.71784 -1.2984,-12.24194 -6.02826,-35.14917 -7.41938,-36.21585 -0.41732,-0.27813 -1.53027,-1.80837 -2.55041,-3.3851 -1.02017,-1.62292 -3.33875,-4.3125 -5.10083,-6.07458 -2.96777,-2.87491 -3.19962,-3.24597 -2.96777,-4.59067 0.32461,-1.57669 4.5444,-5.84277 6.53836,-6.58481 0.6492,-0.23178 3.06048,-0.41733 5.42544,-0.41733 10.24802,0 13.1694,-1.90118 13.67948,-8.71768 0.27822,-3.47784 0.37094,-3.70972 2.04037,-5.28638 1.90118,-1.80847 2.13305,-3.01412 0.92737,-5.05435 l -0.83466,-1.39123 1.71573,-1.48386 c 1.62299,-1.43744 1.71573,-1.62298 1.99396,-5.33261 0.32461,-3.75613 0.37097,-3.80249 1.57663,-3.80249 1.66934,0 4.40521,-1.9476 5.10083,-3.61698 0.74188,-1.71572 0.0927,-3.29229 -3.19959,-8.2077 -4.49802,-6.67746 -5.05453,-8.94955 -2.73596,-11.54635 2.5968,-2.96769 2.5968,-4.72983 0.18555,-13.95765 -0.64923,-2.55056 -1.85489,-6.77023 -2.64319,-9.36703 l -1.4375,-4.77624 1.20563,-0.97373 c 3.8952,-3.01411 -1.62299,-11.82459 -10.15531,-16.27634 -3.98791,-2.08664 -6.81652,-2.96772 -11.54635,-3.61692 -2.04035,-0.2783 -8.16135,-1.25198 -13.54041,-2.13305 -5.42544,-0.88106 -10.1553,-1.53028 -10.43353,-1.53028 z"
         id="path2"
         inkscape:connector-curvature="0" />
    </g>
  </g>
</svg>
