<?xml version="1.0" encoding="UTF-8" standalone="no"?>
<svg
   xmlns:dc="http://purl.org/dc/elements/1.1/"
   xmlns:cc="http://creativecommons.org/ns#"
   xmlns:rdf="http://www.w3.org/1999/02/22-rdf-syntax-ns#"
   xmlns:svg="http://www.w3.org/2000/svg"
   xmlns="http://www.w3.org/2000/svg"
   xmlns:sodipodi="http://sodipodi.sourceforge.net/DTD/sodipodi-0.dtd"
   xmlns:inkscape="http://www.inkscape.org/namespaces/inkscape"
   version="1.0"
   width="1227.0802pt"
   height="1466.3416pt"
   viewBox="0 0 1227.0802 1466.3415"
   preserveAspectRatio="xMidYMid meet"
   id="svg8"
   sodipodi:docname="together_static_mixed12.svg"
   inkscape:version="1.0.2 (e86c870879, 2021-01-15)">
  <defs
     id="defs12" />
  <sodipodi:namedview
     pagecolor="#ffffff"
     bordercolor="#666666"
     borderopacity="1"
     objecttolerance="10"
     gridtolerance="10"
     guidetolerance="10"
     inkscape:pageopacity="0"
     inkscape:pageshadow="2"
     inkscape:window-width="1920"
     inkscape:window-height="997"
     id="namedview10"
     showgrid="false"
     fit-margin-top="0"
     fit-margin-left="0"
     fit-margin-right="0"
     fit-margin-bottom="0"
     inkscape:zoom="0.24994467"
     inkscape:cx="629.42188"
     inkscape:cy="1244.3794"
     inkscape:window-x="0"
     inkscape:window-y="0"
     inkscape:window-maximized="1"
     inkscape:current-layer="svg8"
     inkscape:document-rotation="0" />
  <metadata
     id="metadata2"> Created by potrace 1.13, written by Peter Selinger 2001-2015 <rdf:RDF>
  <cc:Work
     rdf:about="">
    <dc:format>image/svg+xml</dc:format>
    <dc:type
       rdf:resource="http://purl.org/dc/dcmitype/StillImage" />
    <dc:title></dc:title>
  </cc:Work>
</rdf:RDF>
</metadata>
  <rect
     style="fill:#ffffff;stroke-width:4.25197;stroke-linecap:square;stroke-linejoin:round;stroke-dasharray:8.50395, 8.50395"
     id="rect831"
     width="1227.0802"
     height="1466.3416"
     x="0"
     y="1.4210855e-14" />
  <g
     transform="matrix(0.1,0,0,-0.1,-41.735997,1497.6559)"
     id="g6"
     style="fill:#000000;stroke:none">
    <path
       d="m 6012,14226 c -107,-35 -268,-154 -533,-394 -172,-155 -224,-210 -278,-292 -33,-51 -36,-61 -36,-130 0,-64 4,-81 26,-115 15,-22 38,-51 53,-64 l 26,-24 -6,-126 c -11,-205 29,-346 113,-406 29,-21 44,-40 49,-63 6,-33 -1,-248 -12,-333 -5,-40 -3,-47 18,-61 12,-8 58,-18 100,-22 l 77,-8 -5,-41 c -5,-38 -3,-43 23,-59 24,-14 29,-23 26,-45 -3,-23 4,-33 39,-59 39,-28 44,-37 55,-94 23,-124 71,-144 320,-139 l 166,4 19,-85 c 45,-210 91,-280 211,-320 133,-43 171,-110 257,-458 60,-238 81,-297 124,-343 20,-21 27,-47 40,-133 9,-58 27,-158 41,-222 14,-65 24,-119 22,-120 -8,-8 -178,18 -282,43 -120,28 -375,113 -595,197 -144,56 -168,70 -383,232 -80,60 -149,84 -243,84 -110,0 -189,-27 -284,-95 l -45,-32 -185,-11 c -102,-7 -253,-14 -336,-17 -220,-8 -264,-24 -264,-100 0,-41 3,-47 38,-69 52,-35 166,-46 411,-39 l 201,6 v -39 c 0,-35 7,-46 51,-89 28,-28 61,-74 74,-102 19,-43 32,-57 67,-74 31,-15 54,-37 79,-75 37,-58 81,-84 143,-84 18,0 125,19 237,41 112,23 216,41 231,41 15,-1 107,-48 205,-105 179,-105 459,-260 565,-313 l 58,-29 -143,-1 c -153,0 -223,-14 -487,-100 -137,-44 -150,-53 -150,-108 0,-43 0,-44 -40,-50 -27,-4 -78,-32 -153,-83 -167,-113 -192,-123 -355,-134 -75,-5 -175,-14 -222,-20 -89,-11 -199,-8 -660,17 -569,31 -669,52 -1011,214 -218,103 -323,142 -459,170 -103,21 -156,52 -144,85 12,30 68,52 148,59 101,9 148,28 179,74 38,57 41,95 12,152 -30,60 -32,104 -5,148 24,39 25,65 5,82 -12,10 -14,24 -9,61 6,43 3,53 -20,84 l -27,36 30,28 c 35,33 48,73 33,106 -6,13 -34,41 -62,62 -51,37 -145,164 -156,210 -4,13 -1,37 5,54 29,84 6,175 -62,241 l -48,48 25,10 c 40,15 31,41 -25,79 -28,19 -77,66 -109,105 -149,184 -252,236 -459,236 -222,0 -430,-69 -676,-225 -49,-32 -99,-62 -110,-69 -11,-6 -38,-24 -60,-41 -248,-184 -346,-358 -346,-617 0,-239 68,-432 266,-744 124,-195 145,-236 152,-293 l 6,-50 -73,-78 c -286,-306 -358,-578 -380,-1438 -5,-198 -9,-593 -10,-879 0,-285 -2,-521 -5,-525 -2,-4 -5,-189 -6,-410 -2,-455 -5,-435 74,-436 23,0 53,3 66,5 23,5 28,-3 73,-115 135,-332 166,-454 177,-698 8,-170 10,-188 41,-272 176,-486 196,-594 145,-780 -35,-126 -58,-278 -105,-673 -56,-472 -61,-553 -50,-784 l 9,-196 -34,-37 c -40,-42 -43,-63 -14,-121 l 20,-43 -20,-23 c -29,-31 -29,-116 1,-177 21,-44 21,-45 4,-145 -39,-227 -33,-300 29,-355 55,-48 116,-60 324,-66 102,-3 225,-7 274,-10 48,-3 286,-7 530,-11 437,-6 443,-6 499,15 81,31 92,53 84,158 -14,187 -86,255 -347,327 -378,105 -378,105 -379,256 v 86 l 248,12 c 136,7 274,17 307,23 83,14 154,55 182,104 45,80 19,243 -48,299 -39,33 -81,43 -209,52 -119,7 -208,28 -328,74 -76,29 -82,34 -92,68 -5,20 -27,67 -49,104 -37,63 -41,78 -65,245 -42,286 -35,341 53,411 61,49 73,73 82,169 7,70 16,98 44,148 67,120 76,212 53,496 -9,108 -9,204 -2,362 10,216 10,216 36,237 42,33 62,109 52,194 -5,39 -9,145 -9,236 1,152 3,175 33,296 l 33,131 87,5 c 105,6 164,32 234,105 l 47,48 6,500 c 12,1026 34,1358 126,1910 22,132 42,242 45,244 2,2 57,-8 123,-23 334,-74 647,-54 1431,90 324,60 469,91 485,104 11,9 13,28 8,73 l -5,62 153,-2 c 152,-1 156,-2 283,-43 134,-44 161,-45 196,-10 14,14 18,28 14,49 l -6,29 63,-23 c 207,-75 468,-51 630,57 35,23 114,93 176,156 62,62 116,111 121,108 5,-3 184,-1 398,4 547,13 783,39 1109,120 102,25 157,35 172,29 36,-14 172,-39 312,-59 73,-11 136,-22 139,-25 3,-3 -4,-33 -16,-68 -39,-109 -258,-1002 -311,-1262 -70,-349 -84,-464 -101,-880 -21,-486 -77,-861 -265,-1764 -150,-724 -341,-1592 -360,-1638 -7,-17 -45,-85 -83,-150 -79,-133 -170,-310 -202,-393 -91,-233 -192,-318 -520,-441 -183,-68 -281,-114 -329,-155 -73,-62 -11,-113 176,-144 198,-33 665,-82 743,-78 137,8 213,58 358,236 78,97 350,342 379,342 20,0 40,-54 88,-240 55,-214 55,-215 114,-210 18,1 5,-13 -54,-62 -92,-74 -113,-101 -121,-150 -6,-32 -2,-41 22,-66 l 29,-28 295,-24 c 315,-26 485,-29 564,-11 157,37 276,153 420,414 21,37 39,67 41,67 1,0 8,-44 14,-97 14,-114 27,-153 51,-153 25,0 81,30 87,47 3,8 -2,79 -11,157 -9,77 -16,152 -16,166 0,19 24,51 86,115 98,102 156,184 178,253 31,97 30,114 -9,231 l -37,111 115,307 c 445,1189 555,1711 627,2963 13,228 35,452 56,562 17,95 29,136 129,458 40,129 119,384 175,565 56,182 190,580 296,887 215,615 242,716 266,1000 25,299 -36,561 -216,933 -123,254 -222,404 -351,530 -40,39 -75,81 -78,95 -26,106 -253,301 -788,680 -558,395 -933,637 -1169,755 -197,99 -452,193 -635,233 -49,11 -141,38 -203,61 -282,102 -480,107 -811,20 -62,-16 -118,-28 -123,-27 -5,2 -20,35 -33,73 -17,49 -34,78 -57,98 -32,26 -36,27 -134,25 -99,-3 -103,-2 -145,27 -41,29 -120,127 -279,346 -102,141 -230,269 -302,304 -32,15 -101,38 -155,51 -54,14 -125,39 -158,56 -161,86 -177,92 -255,95 -44,2 -93,-3 -118,-11 z M 9949,6455 c 7,-38 27,-128 46,-200 47,-181 59,-282 52,-455 -16,-384 -146,-1127 -313,-1795 -125,-498 -260,-892 -461,-1339 -84,-188 -168,-295 -328,-419 l -70,-55 -33,132 c -42,165 -52,275 -28,310 9,14 49,44 90,66 154,84 218,172 218,300 1,75 -22,137 -87,234 l -35,54 114,413 c 550,1987 613,2239 672,2702 29,231 40,283 97,467 l 42,135 6,-240 c 4,-132 12,-271 18,-310 z"
       id="path4"
       inkscape:connector-curvature="0" />
  </g>
</svg>
