<?xml version="1.0" encoding="UTF-8" standalone="no"?>
<svg
   xmlns:dc="http://purl.org/dc/elements/1.1/"
   xmlns:cc="http://creativecommons.org/ns#"
   xmlns:rdf="http://www.w3.org/1999/02/22-rdf-syntax-ns#"
   xmlns:svg="http://www.w3.org/2000/svg"
   xmlns="http://www.w3.org/2000/svg"
   xmlns:sodipodi="http://sodipodi.sourceforge.net/DTD/sodipodi-0.dtd"
   xmlns:inkscape="http://www.inkscape.org/namespaces/inkscape"
   enable-background="new 738.137 68.135 712.429 1693.978"
   version="1.1"
   viewBox="738.137 68.135 747.8643 1798.3513"
   id="svg4"
   sodipodi:docname="together_static_mixed5.svg"
   width="747.86432"
   height="1798.3513"
   inkscape:version="1.0.2 (e86c870879, 2021-01-15)">
  <metadata
     id="metadata10">
    <rdf:RDF>
      <cc:Work
         rdf:about="">
        <dc:format>image/svg+xml</dc:format>
        <dc:type
           rdf:resource="http://purl.org/dc/dcmitype/StillImage" />
        <dc:title></dc:title>
      </cc:Work>
    </rdf:RDF>
  </metadata>
  <defs
     id="defs8" />
  <sodipodi:namedview
     pagecolor="#ffffff"
     bordercolor="#666666"
     borderopacity="1"
     objecttolerance="10"
     gridtolerance="10"
     guidetolerance="10"
     inkscape:pageopacity="0"
     inkscape:pageshadow="2"
     inkscape:window-width="1920"
     inkscape:window-height="997"
     id="namedview6"
     showgrid="false"
     fit-margin-top="0"
     fit-margin-left="0"
     fit-margin-right="0"
     fit-margin-bottom="0"
     inkscape:zoom="0.13931704"
     inkscape:cx="347.83027"
     inkscape:cy="876.76402"
     inkscape:window-x="0"
     inkscape:window-y="0"
     inkscape:window-maximized="1"
     inkscape:current-layer="svg4"
     inkscape:document-rotation="0" />
  <rect
     style="fill:#ffffff;stroke-width:5.66929;stroke-linecap:square;stroke-linejoin:round;stroke-dasharray:11.3386, 11.3386"
     id="rect830"
     width="747.86432"
     height="1798.3513"
     x="738.13702"
     y="68.135002" />
  <path
     d="m 1369.6157,1694.8765 c -2.022,-3.854 -4.567,-7.612 -5.209,-11.977 -0.928,-15.783 1.463,-31.566 0.155,-47.313 -0.583,-12.917 -1.273,-25.916 -3.533,-38.654 -0.38,-3.972 -3.925,-6.149 -6.03,-9.123 -0.523,-8.266 1.035,-16.508 0.809,-24.774 0.381,-17.769 -0.595,-35.514 -1.035,-53.272 -0.63,-6.018 -1.154,-12.036 -1.392,-18.078 -4.876,-45.945 -10.847,-91.783 -17.305,-137.54 -3.901,-25.417 -6.351,-51.285 -14.677,-75.75 -1.717,-6.118 -3.935,-12.079 -5.815,-18.147 -1.164,-3.756 -2.07,-7.585 -2.903,-11.426 -0.808,-3.728 -1.734,-7.421 -1.877,-11.246 -0.288,-7.684 1.424,-15.284 3.842,-22.533 1.044,-3.13 2.224,-6.212 3.458,-9.271 2.391,-6.767 6.089,-13.583 5.257,-20.98 -0.999,-8.908 -10.229,-14.534 -10.181,-23.728 0.345,-9.765 3.437,-19.137 5.281,-28.676 2.962,-12.976 3.521,-26.321 4.591,-39.5459 2.605,-36.335 4.805,-72.694 7.386,-109.03004 1.558,-16.282 1.998,-32.803 6.173,-48.692 2.64,-10.419 9.503,-19.232 11.668,-29.806 2.736,-12.405 -0.143,-25.072 -2.129,-37.358 -3.639,-18.459 -6.03,-37.132 -9.824,-55.555 -4.698,-23.538 -8.278,-47.325 -9.693,-71.302 -2.605,-35.943 -3.854,-71.968 -5.316,-107.98 -1.487,-27.427 0.166,-54.853 1.201,-82.268 0.583,-16.96 0.262,-34.111 -3.152,-50.798 -6.934,-31.72 -22.348,-60.967 -41.211,-87.157 -11.263,-16.687 -27.272,-29.223 -42.722,-41.794 -3.449,-2.926 -7.648,-5.876 -8.361,-10.693 -1.201,-7.386 -0.464,-14.915 0.321,-22.301 1.95,-14.748 3.651,-29.615 7.969,-43.899 3.116,-11.323 7.303,-22.788 6.185,-34.717 -0.619,-9.313 -4.21,-17.995 -6.791,-26.856 -2.379,-8.016 -2.153,-16.627 -5.304,-24.43 -3.544,-8.813 -7.303,-18.162 -14.927,-24.275 -6.351,-4.995 -14.023,-7.885 -21.551,-10.585 -12.381,-4.246 -25.417,-7.112 -38.559,-6.922 -11.132,0.012 -21.73,3.937 -32.089,7.564 -18.958,7.124 -37.429,15.688 -54.96,25.833 -5.1139,3.318 -11.5129,6.304 -13.4639,12.572 -2.462,8.123 1.154,16.342 1.32,24.513 0.166,11.12 0.392,22.253 0.274,33.373 0.143,5.673 -3.152,10.811 -2.7,16.496 0.274,4.532 0.916,9.039 0.856,13.594 -3.497,-1.082 -7.445,-2.283 -9.467,-5.59 -1.606,-4.472 -1.403,-9.325 -1.915,-13.987 -0.511,-6.03 -1.51,-12.024 -3.188,-17.84 -2.105,-7.814 -3.425,-16.056 -7.802,-23.002 -3.616,-5.876 -9.206,-10.217 -15.141,-13.559 -17.79303,-9.812 -38.82103,-13.416 -58.88503,-10.324 -19.934,2.985 -40.367,7.981 -56.875,20.1 -13.345,9.682 -22.063,24.632 -26.225,40.403 -5.305,18.388 -8.278,37.358 -10.585,56.34 -3.33,29.437 3.39,58.957 0.452,88.417 -3.033,22.681 -7.255,45.695 -17.924,66.188 -8.456,17.591 -24.429,29.556 -38.167,42.781 -2.474,2.664 -6.125,5.554 -5.638,9.61 0.607,3.116 4.508,3.164 6.898,2.283 8.231,-2.759 15.7,-7.338 23.621,-10.847 6.09,-2.676 12.381,-6.101 19.256,-5.317 0.892,5.15 0.535,10.419 -0.452,15.533 -2.403,12.774 -6.22,25.226 -10.193,37.596 -2.617,7.814 -4.912,15.83 -9.111,22.99 -2.307,4.377 -5.495,8.361 -6.993,13.131 -0.202,1.974 1.285,3.223 3.104,3.556 3.342,-1.736 5.84,-4.65 8.516,-7.219 11.703,-11.537 22.503,-24.001 34.456,-35.288 -4.139,32.803 -9.455,65.475 -12.369,98.42 -1.261,11.204 -0.143,22.515 1.118,33.659 1.415,9.658 6.316,21.254 16.984,23.3 13.357,2.474 27.07,1.094 40.51,2.771 7.136,1.035 15.176,2.32 20.124,8.1 4.21,5.697 4.567,13.166 4.686,19.993 -0.333,17.936 -4.484,35.503 -8.754,52.844 -2.617,9.61 -4.888,19.339 -8.076,28.794 -6.851,19.708 -23.324,34.777 -27.796,55.484 -3.152,14.225 -1.974,29.092 1.534,43.138 2.736,11.216 6.208,22.277 8.088,33.695 3.068,17.71 10.228,34.53904 11.846,52.52204 1.546,12.25 0.036,24.584 -0.44,36.87 -1.891,28.033 -4.508,56.0189 -7.422,83.9689 -2.521,24.182 -5.304,48.369 -8.855,72.424 -0.642,4.352 -1.314,8.7 -2.021,13.043 -0.353,2.171 -0.715,4.341 -1.086,6.509 -1.315,7.686 -2.776,15.189 -4.792,22.728 -2.066,7.727 -4.332,15.401 -6.786,23.014 -1.5,4.653 -3.07,9.284 -4.708,13.891 -10.05,27.022 -16.592,55.496 -18.031,84.338 -0.25,13.464 -0.107,26.939 0.024,40.426 0.107,9.931 1.986,19.767 1.784,29.722 0.024,9.134 1.463,18.197 1.261,27.355 1.332,28.557 3.842,57.054 4.936,85.634 -0.297,9.146 1.106,18.221 1.142,27.367 0.785,21.373 -3.794,42.425 -8.92,63.036 -3.687,14.011 -7.683,27.986 -9.729,42.353 -1.237,12.132 -1.261,25.619 6.506,35.8 7.362,9.848 20.517,11.572 31.78,13.701 29.187,3.735 58.743,3.354 88.072,1.606 12.833,-0.714 25.70203,-1.177 38.48803,-2.7 17.376,-1.784 34.824,-3.033 52.0699,-5.887 7.672,-1.082 13.654,-7.552 15.664,-14.796 0.702,-3.794 -0.69,-7.505 -1.475,-11.144 3.497,-0.143 7.433,0.286 10.335,-2.093 7.124,-5.626 13.523,-13.963 12.655,-23.526 -0.5,-4.21 -2.141,-9.372 -6.589,-10.823 -5.352,-1.665 -11.025,-1.427 -16.556,-1.594 -13.047,-0.107 -26.3089,-2.105 -38.2139,-7.624 -11.37,-4.9 -22.729,-10.692 -31.387,-19.743 -6.518,-6.946 -11.822,-15.153 -14.903,-24.192 -3.97203,-11.941 -4.49603,-24.762 -3.25903,-37.191 0.416,-11.275 3.85403,-22.122 7.49303,-32.707 9.027,-25.429 19.874,-50.144 29.425,-75.37 9.955,-23.728 21.254,-46.849 32.0889,-70.172 20.386,-43.935 41.021,-87.918 56.4,-133.92 2.053,-5.958 3.694,-12.048 5.19,-18.167 1.485,-6.076 3.101,-12.18 3.974,-18.379 2.22,-15.766 3.28,-31.809 3.51,-47.752 0.203,-14.135 -0.21,-28.271 -0.781,-42.393 -0.916,-22.967 -3.568,-45.802 -4.639,-68.7449 5.911,2.819 11.763,7.671 12.667,14.5699 0.511,3.899 1.679,7.82 2.483,11.673 0.829,3.974 1.643,7.951 2.447,11.93 1.608,7.96 3.172,15.928 4.726,23.898 3.106,15.942 6.166,31.893 9.428,47.803 1.631,7.953 3.312,15.897 5.075,23.822 1.286,5.782 2.842,11.5 4.153,17.276 1.686,7.431 3.531,14.76 5.479,22.124 1.349,5.101 3.058,10.12 4.626,15.156 7.35,22.432 19.863,42.579 30.269,63.631 9.657,18.935 16.413,39.523 18.233,60.777 2.188,29.663 1.082,59.432 1.154,89.155 0.333,13.511 -1.356,26.963 -1.07,40.498 -1.82,28.83 -2.878,57.755 -6.161,86.49 -0.083,2.747 -2.652,4.222 -4.424,5.923 -5.816,4.817 -10.49,10.895 -16.592,15.367 -6.006,4.353 -13.392,5.947 -20.338,8.147 -14.843,4.246 -29.877,8.135 -44.042,14.403 -4.769,1.986 -8.516,6.863 -8.04,12.191 0.832,9.027 3.628,17.722 6.101,26.404 -4.353,0.202 -8.813,-0.143 -13.035,1.106 -6.304,2.093 -11.299,6.982 -14.784,12.524 -4.091,6.375 -7.279,13.939 -5.875,21.682 1.653,7.993 7.1,14.51 12.702,20.172 6.744,6.898 14.986,12.298 23.99,15.783 h 30.9 c 52.796,-8.611 105.63,-17.4 157.73,-29.556 10.431,-2.795 21.23,-4.817 30.995,-9.574 5.78,-2.724 7.065,-9.765 7.243,-15.509 0.295,-5.662 -2.893,-12.453 2.079,-16.901 z m -341.6299,-411.53 c -7.41,21.302 -25.976,36.133 -34.49203,56.899 -9.931,24.905 -17.151,50.774 -24.691,76.488 -3.533,11.275 -6.53,22.717 -9.741,34.099 -2.414,9.075 -5.507,18.007 -6.886,27.332 -1.082,8.135 -5.245,15.521 -10.098,22.003 -0.94,-21.456 0.012,-42.936 0.25,-64.392 1.665,-13.107 1.237,-26.416 3.295,-39.475 2.593,-25.94 11.977,-50.631 22.848,-74.133 5.459,-10.573 9.979,-21.777 17.377,-31.197 5.162,-7.112 11.846,-13.071 16.14003,-20.802 5.25,-9.453 8.734,-19.782 11.191,-30.285 0.431,-1.841 0.81,-3.694 1.158,-5.552 0.699,-3.723 1.271,-7.468 1.882,-11.206 0.61,-3.73 1.255,-7.457 2.102,-11.141 0.422,-1.837 0.893,-3.664 1.433,-5.47 0.26,-0.868 0.535,-1.732 0.827,-2.589 0.18,-0.528 1.06,-2.055 0.936,-2.561 3.797,15.542 6.838,31.102 8.715,46.994 0.694,5.879 1.279,11.582 0.938,17.514 -0.343,5.925 -1.37,11.819 -3.184,17.474 z m 102.6699,-858.52994 c -5.483,32.327 -12.31,64.416 -18.637,96.576 -1.189,5.863 -0.868,11.87 -1.201,17.817 -8.468,-5.84 -15.985,-12.928 -23.799,-19.589 -12.25,-10.752 -24.3099,-21.718 -36.3949,-32.648 -6.47,-5.828 -12.714,-11.953 -19.945,-16.865 -4.306,-3.164 -9.372,-6.03 -11.679,-11.097 -2.284,-5.721 0.19,-11.799 0.333,-17.662 0.321,-12.048 -0.238,-24.156 1.058,-36.157 0.333,-2.759 1.094,-5.911 3.949,-7.065 4.995,-2.188 10.383,-3.437 15.2,-6.078 9.848,-5.055 21.099,-8.421 28.5799,-17.044 0.19,0.797 0.583,2.367 0.773,3.152 5.614,2.605 11.418,5.352 17.721,5.614 9.349,-0.547 18.031,-4.96 27.379,-5.376 6.863,0.511 10.8,7.16 13.63,12.678 4.579,10.54 5.221,22.54 3.033,33.744 z"
     id="path2"
     inkscape:connector-curvature="0" />
</svg>
