<?xml version="1.0" encoding="UTF-8" standalone="no"?>
<svg
   xmlns:dc="http://purl.org/dc/elements/1.1/"
   xmlns:cc="http://creativecommons.org/ns#"
   xmlns:rdf="http://www.w3.org/1999/02/22-rdf-syntax-ns#"
   xmlns:svg="http://www.w3.org/2000/svg"
   xmlns="http://www.w3.org/2000/svg"
   xmlns:sodipodi="http://sodipodi.sourceforge.net/DTD/sodipodi-0.dtd"
   xmlns:inkscape="http://www.inkscape.org/namespaces/inkscape"
   version="1.1"
   id="Layer_1"
   x="0px"
   y="0px"
   viewBox="0 0 1174.5936 1162.6946"
   enable-background="new 0 0 4014.554 4000"
   xml:space="preserve"
   sodipodi:docname="together_static_mixed6.svg"
   width="1174.5936"
   height="1162.6946"
   inkscape:version="1.0.2 (e86c870879, 2021-01-15)"><metadata
   id="metadata9"><rdf:RDF><cc:Work
       rdf:about=""><dc:format>image/svg+xml</dc:format><dc:type
         rdf:resource="http://purl.org/dc/dcmitype/StillImage" /><dc:title></dc:title></cc:Work></rdf:RDF></metadata><defs
   id="defs7" /><sodipodi:namedview
   pagecolor="#ffffff"
   bordercolor="#666666"
   borderopacity="1"
   objecttolerance="10"
   gridtolerance="10"
   guidetolerance="10"
   inkscape:pageopacity="0"
   inkscape:pageshadow="2"
   inkscape:window-width="1920"
   inkscape:window-height="997"
   id="namedview5"
   showgrid="false"
   fit-margin-top="0"
   fit-margin-left="0"
   fit-margin-right="0"
   fit-margin-bottom="0"
   inkscape:zoom="0.17875"
   inkscape:cx="-905.76965"
   inkscape:cy="328.65827"
   inkscape:window-x="0"
   inkscape:window-y="0"
   inkscape:window-maximized="1"
   inkscape:current-layer="Layer_1" />
<rect
   style="fill:#ffffff;stroke-width:5.66929;stroke-linecap:square;stroke-linejoin:round;stroke-dasharray:11.3386, 11.3386"
   id="rect834"
   width="1174.5936"
   height="1162.6946"
   x="0"
   y="0" /><path
   d="m 1097.7485,350.52176 c 8.0195,-35.1275 4.3957,-97.8414 -22.525,-130.1029 -4.4901,-5.0259 -4.3509,-12.1092 -6.3867,-18.1744 -1.3928,-2.0315 -11.5879,-5.6388 -10.3625,-11.9375 2.3468,-4.683 5.4761,-8.9264 7.8976,-13.5665 1.629,-4.3937 2.8611,-8.9586 5.3366,-12.9879 0.9859,-5.6473 4.4364,-10.7268 3.8684,-16.5991 -0.2678,-4.1578 1.6502,-7.9298 2.7111,-11.8305 -1.5217,-7.6297 -5.1545,-14.6809 -7.2226,-22.1716 -0.9214,-2.9361 -0.3751,-6.6974 -3.4613,-8.4333 -5.7331,-4.147 -6.5154,-11.744696 -10.8554,-16.952596 -2.7328,-4.0505 -7.3513,-6.1724 -10.4911,-9.8586 -3.9327,-2.3576 -8.1549,-4.297 -12.1734,-6.5476 -1.4681,1.3716 -2.9148,2.7541 -4.3615,4.115 -0.6108,-1.2753 -1.2002,-2.5611 -1.7682,-3.8471 -1.4895,0.1609 -2.9576,0.3215 -4.4256,0.4607 -1.2539,-2.0038 -1.9075,-4.8008 -3.8471,-6.1296 -2.6897,1.0179 -5.0365,2.7219 -7.5547,4.0293 -2.5076,-0.1822 -4.4473,-2.7863 -7.0725,-2.0574 -3.1827,0.7822 -6.18303,2.4432 -8.47643,4.7685 -1.318,2.4326 -2.2612,5.0901 -3.9435,7.2976 -1.6824,0.8573 -3.4828,1.4145 -5.2402,2.0467 -0.5814,-5.1968 -2.5117,-3.1577 7.094,-8.7979 -6.5368,-0.3752 -12.2377,3.4399 -18.0244,5.8831 -10.2405,2.7846 -11.3682,4.3738 -11.0374,16.4704 -0.086,3.3541 4.9508,4.693796 3.6328,8.272796 -0.5038,1.4469 -14.5014,27.153 -16.4276,35.5235 1.8002,2.1861 3.8471,4.2436 5.1437,6.794 -1.5217,9.1087 -11.9912,13.5235 -13.5665,22.5895 -0.5035,4.9187 4.5221,7.7262 8.8621,7.6297 -0.7051,2.4561 0.3798,7.3291 0.47,7.588 0.4201,1.2022 1.0783,1.0774 1.7618,1.9623 1.5771,2.0405 -1.1878,2.9493 -1.5921,3.6083 -1.4678,2.3945 0.988,7.4699 1.5042,9.7076 0.9875,4.28 -0.036,10.5965 4.6912,14.3536 8.7252,6.9349 25.5452,1.8951 30.8207,6.544 2.6041,3.9329 3.3649,8.8621 6.4403,12.5591 -4.0185,8.0371 -11.1552,14.4558 -13.0735,23.5002 -0.6858,2.1967 -0.6108,5.4544 -3.3541,6.151 -3.1504,0.1287 -5.9796,-1.8001 -9.13,-1.8218 -2.7325,-0.6002 -4.5865,1.9288 -6.4189,3.4933 -2.1648,1.811 -2.5291,4.7364 -3.3755,7.2654 2.3895,2.0147 5.2293,3.8685 6.6759,6.7188 -0.1928,1.9288 -1.6073,3.4077 -2.4645,5.0581 1.9288,1.0501 4.0399,2.0467 4.9722,4.2006 -1.5645,0.011 -3.1185,-0.032 -4.6616,-0.075 -1.4361,3.8579 1.3823,6.7941 4.0722,9.1195 -12.3748,26.3491 3.6813,-22.2371 -45.3608,101.2126 -2.4003,5.3151 -1.4361,11.3053 -2.5932,16.8883 -7.482,24.7504 15.0224,14.224 -47.1826,58.6166 -5.4544,3.4505 -9.8052,8.3477 -15.4525,11.509 -0.5038,-2.5933 -0.8464,-5.2079 -1.243,-7.812 -2.4004,-1.5109 -4.7257,-3.1398 -6.9975,-4.8222 0.9646,-3.5147 1.168,-7.1584 1.136,-10.7695 -2.6791,-3.2471 -6.1296,1.243 -9.055,-0.5036 -3.3004,-4.1363 -4.3828,-9.6338 -8.0907,-13.5237 -3.2362,-3.697 3.0112,-7.3404 1.2111,-11.4659 -3.0221,-0.1715 -6.0438,-0.3215 -9.023,-0.7609 -0.525,-3.6756 -0.6536,-9.2692 -5.2938,-9.9981 -2.5182,-0.8359 -3.8471,1.9183 -5.401,3.3005 -1.243,-1.0929 -2.4646,-2.2075 -3.6648,-3.3113 1.0501,-1.1143 2.1217,-2.2075 3.1932,-3.3113 -2.9684,-1.3825 -5.3043,-3.7293 -8.1227,-5.3366 -4.0291,-1.4253 -8.3049,0.3324 -12.409,-0.6536 -1.7038,1.2325 -1.5109,3.6971 -2.2398,5.508 -1.7788,-0.793 -3.4614,-1.8001 -5.3474,-2.2717 -3.772,0.5786 -7.1048,2.7111 -10.8232,3.4719 -2.2503,-0.5143 -4.2756,-1.6823 -6.4725,-2.3039 -3.5684,0.4715 -7.0298,1.5003 -10.5125,2.3467 -1.3503,-1.0393 -2.5719,-2.6468 -4.4151,-2.636 -2.3362,0.4179 -4.5221,1.8538 -6.9547,1.243 -4.0077,-0.8037 -8.069,1.5431 -10.5125,4.5757 -1.6504,5.2293 -4.3078,10.1159 -5.7009,15.4203 0.075,3.7398 1.1574,7.4582 3.0649,10.6839 -2.4327,4.5757 -2.7005,10.2766 -6.3867,14.1451 -4.0936,3.6434 -4.1686,9.7408 -7.9621,13.6521 4.0186,5.0258 8.5943,9.9014 10.0301,16.3953 2.4326,-0.6644 4.5221,-2.1002 6.4403,-3.7184 1.6718,2.1648 3.5364,4.4471 2.829,7.4049 -11.9971,1.2463 -18.7376,-3.92 -47.3113,-20.8641 -4.6507,-2.3148 -8.3369,-5.926 -11.8411,-9.6658 -11.0696,-8.1977 -22.1821,-16.342 -33.1876,-24.6361 -3.3218,-2.7433 -5.2507,-6.9547 -9.1728,-8.9908 -6.2046,-3.2791 -10.8017,-9.0764 -17.5636,-11.4017 -5.4683,-1.5994 -15.9818,-11.4699 -17.692,-12.3127 -11.5595,-5.9108 -10.5952,-5.2729 -18.935,-15.6026 1.5,-2.4112 2.4646,-5.1865 1.8432,-8.037 -0.7503,-3.4611 1.2966,-8.1121 -2.4754,-10.1588 -1.2858,1.061 -2.5824,2.1217 -3.9113,3.129 -0.8787,-1.8215 -2.4004,-3.5255 -2.3039,-5.6472 0.021,-2.7969 2.604,-4.6935 3.0542,-7.3621 0.2251,-2.3898 0.1929,-4.7794 0.3001,-7.1689 2.0144,-1.2325 4.5329,-2.1645 5.0259,-4.79 -2.9148,-0.3857 -5.508,0.9965 -8.1229,2.0039 5.1504,-6.7348 9.4262,-5.2159 9.3551,-9.6016 -3.4075,0.5894 -6.3867,2.8183 -9.9123,2.7005 -0.2785,-4.6079 3.4077,-7.8548 5.1868,-11.7661 -2.9576,-2.3898 -5.4547,-5.2721 -7.6834,-8.3371 2.3146,-0.2251 4.9292,0.086 6.8475,-1.5004 2.6469,-5.9153 1.7896,-12.5055 1.5431,-18.7743 -0.5144,-0.1073 -1.5323,-0.3107 -2.0467,-0.4072 -0.7822,3.0326 -1.6717,6.0438 -2.2611,9.13 -4.6185,-3.59 -8.6799,-7.8119 -12.6342,-12.0984 -1.6181,-1.6931 -1.6501,-4.1149 -1.7574,-6.2902 2.6469,-0.9323 5.6689,-1.7682 7.3299,-4.2436 0.4071,-3.1399 -0.954,-6.1511 -1.136,-9.2479 0.3751,-2.3148 1.6609,-4.34 2.2611,-6.5904 -0.086,-2.1433 -0.8892,-4.1791 -1.3608,-6.258 9.6307,-4.8423 6.8446,-7.7122 5.6795,-14.8737 2.0276,-1.1236 11.8844,-3.7831 4.94,-11.4126 -3.5578,-3.6328 -7.3404,-7.1903 -9.9553,-11.584 -0.9429,-3.4505 1.4361,-6.8474 0.9537,-10.3516 -0.5358,-5.3152 -2.6147,-10.3196 -3.9435,-15.4739 -1.093,-4.5971 -4.3826,-8.1763 -6.0438,-12.5163 -0.7289,-3.3005 0.043,-6.7297 0.032,-10.0838 -7.8334,-1.7682 -15.3883,-4.4256 -22.7073,-7.6725 -0.3107,-4.2114 -3.1718,-7.6619 -7.2117,-8.8621 -5.0151,-2.2184 -9.5052,2.1967 -13.0736,5.1651 -4.1791,0.4394 -8.5192,0.418 -12.5483,-0.9215 -3.0754,-1.3394 -6.0543,2.0359 -9.13,0.8145 -2.0894,-1.6717 -3.9004,-3.6542 -5.8723,-5.4652 -27.1626,12.537 -7.7452,-3.7073 -43.7963,29.4261 -18.2032,11.4012 -16.54,14.233 -31.8264,42.2531 -20.5385,26.2559 -21.6701,44.1356 -30.0264,63.0103 -0.1498,0.2578 -25.4743,39.1488 -34.4842,56.7197 -9.9744,14.4294 -19.8542,38.124 -25.011,44.3428 -9.937,15.8993 -27.8456,68.6485 -33.241,79.5663 -2.0894,4.8544 -4.8972,9.5907 -5.1865,15.0023 -0.3857,8.1977 -4.9936,15.4847 -5.4438,23.6716 -0.182,4.0722 -2.0789,7.7906 -3.9541,11.3161 4.1792,3.7613 0.8681,9.4302 1.3503,14.1665 0.5788,5.2401 -0.021,10.5339 0.8787,15.7418 0.6964,4.7471 1.5431,9.4837 2.0252,14.2631 0.8895,0.5144 1.7788,1.061 2.6575,1.6073 1.1251,-1.0715 2.379,-2.2395 4.0721,-1.811 0.1715,4.0614 -1.5108,8.4228 0.5894,12.2377 3.472,4.8864 5.7973,10.448 9.1942,15.3883 0.9752,4.1897 -1.5431,8.3583 -1.7359,12.5805 -5.9056,47.0859 -7.424,36.2565 -4.79,43.2069 -1.5537,0.5466 -4.4151,0.1928 -3.6862,2.6682 3.7826,1.6396 7.9726,1.5646 12.0126,1.8752 0.568,2.9042 1.1146,5.8187 1.7145,8.7229 -8.0693,9.4193 -13.0198,22.0321 -24.2824,28.3332 -9.7836,5.4008 -14.3059,16.449 -23.168,22.9216 -17.4974,14.0896 -20.4188,29.9059 -24.0254,34.9663 -4.5006,6.5045 -9.6121,12.5592 -14.038,19.1281 -5.5617,6.9225 -7.6728,16.0311 -13.8772,22.5037 -0.6518,0.716 -39.9858,53.0652 -48.7899,61.5527 -9.8094,9.5477 -1.7483,7.9811 -16.7919,12.9663 -4.3187,1.4038 -9.205,0.4393 -13.2236,2.7969 -4.9614,2.5074 -7.6191,7.6511 -11.3803,11.509 -3.2041,3.0754 -0.5894,7.9726 -2.5291,11.616 -2.299,5.8852 -11.8993,10.8714 -10.9946,14.038 0.9109,4.2651 3.3755,8.6265 1.5325,13.0522 -2.5718,8.562 -13.191301,10.2229 -17.006401,17.8634 -1.1144,3.9113 -0.2999,8.0907 -0.2893,12.1093 -13.7119,11.8122 -19.848,53.05644 -19.6639,57.78064 -0.054,8.23 3.9221,15.7527 8.1013,22.6001 0.5466,1.0715 1.5967,2.411 0.7072,3.6434 -3.4719,6.4081 -9.623,12.8484 -8.0048,20.6926 1.393,6.3976 8.4655,7.6191 13.395,10.2874 3.4719,2.0681 7.5546,2.2612 11.4876,2.3468 0.6214,0.9429 1.243,1.9074 1.8752,2.872 2.6683,0.021 5.3257,0.054 7.994001,0.075 0.7905,30.1266 28.1934,3.3904 36.981,0.043 4.9723,0.086 8.9477,4.2328 14.0058,4.4045 37.0169,1.9309 54.054,-3.0744 71.7543,-4.3078 4.0982,0.073 18.3915,11.6516 53.3442,7.8548 32.3646,-1.8827 32.2321,-5.8747 36.0699,-3.5687 18.8061,9.0413 36.347,0.5608 55.2196,-0.225 4.4471,-0.6859 6.8369,4.1685 10.8982,5.0364 15.9182,5.2974 49.4224,-7.3476 68.304,-4.2114 5.7867,1.8646 11.1339,5.2724 17.3171,5.7973 10.1157,1.4575 18.9781,-5.1115 28.9226,-5.5294 4.5007,-0.8359 8.3691,2.2184 12.752,2.3684 61.2655,2.7534 73.6851,-0.1598 100.8591,1.2324 37.7076,3.0117 41.2566,-3.1896 61.0275,-3.3649 25.5765,5.1623 37.4116,-4.6902 50.3116,-2.9362 7.812,1.018 15.7204,0.418 23.586,0.5572 13.995,-0.2893 28.3652,3.7398 42.0603,-0.7072 9.3123,-2.6791 18.9995,-3.0006 28.6116,-2.6361 8.3073,0.634 0.9083,4.1341 30.1014,4.3401 8.8301,-0.1287 16.9097,4.265 25.6754,4.6935 6.4404,0.3324 11.8305,4.6402 18.26,5.0901 6.0547,0.7931 12.0448,-4.9509 11.3162,-11.0697 0.1928,-3.6542 -2.6041,-6.3439 -4.2328,-9.3123 -3.5042,-5.7008 -2.8397,-12.8162 -5.9902,-18.6457 -2.8611,-5.4758 -3.9007,-11.6054 -4.5651,-17.6706 -2.4112,-0.9215 -4.5865,-2.7219 -7.2545,-2.6469 -3.0221,-0.2037 -6.0438,0.643 -9.0336,0.1609 -3.8793,-0.9965 -7.5977,1.211 -11.4126,1.6823 -0.8787,-3.4185 -2.0147,-6.7404 -3.2685,-10.0195 -1.4681,-4.1041 1.0073,-9.3443 -2.6041,-12.6447 -4.7461,-5.0112 -1.0958,-7.9683 -15.7095,-12.0662 -2.9684,2.2075 -6.4618,3.5364 -10.2124,2.9362 -1.2538,-5.5723 -3.2471,-11.10174 -2.3898,-16.90984 2.1861,-1.5859 4.372,-3.1721 6.4939,-4.8544 0.2357,-3.3005 -1.0929,-6.2689 -2.8397,-8.9586 -1.8752,-3.1076 3.1504,-4.8758 2.7969,-7.9834 0.4822,-5.2938 -2.947,-9.4943 -5.7223,-13.5771 -2.0894,-4.8866 -1.7573,-10.5339 -3.8256,-15.4097 -1.8861,-2.4968 -2.0359,-5.6475 -2.336,-8.6264 -11.3574,-1.3021 -11.2831,-13.2806 -17.3493,-20.9606 -1.1788,-1.0609 -2.797,-1.3824 -4.19,-1.9824 4.6177,-9.8187 4.1436,-6.4708 0.8036,-12.0876 -1.9288,-0.086 -3.847,-0.1823 -5.7545,-0.2679 -0.5038,-3.5361 -1.393,-7.0083 -2.7541,-10.2979 -1.2644,-2.4218 0.2037,-5.0473 0.086,-7.5655 -1.4466,-2.904 -4.3292,-5.2938 -3.9971,-8.8302 0.4608,-5.2724 -4.1149,-8.9908 -4.6829,-14.038 -0.4716,-4.0186 -3.4612,-6.9653 -5.0579,-10.5125 -2.4432,-4.4257 -2.8825,-9.6016 -5.3043,-14.0167 -3.0326,-5.8509 -7.0298,-11.2411 -8.9263,-17.6278 -0.8573,0.064 -1.7146,0.1392 -2.5505,0.2142 -0.6536,-0.8681 -1.2858,-1.7359 -1.8966,-2.604 -0.9109,0.1072 -1.811,0.2142 -2.7005,0.3429 -0.032,-2.304 -0.075,-4.608 -0.1073,-6.9119 -1.4144,-0.1501 -2.8183,-0.2893 -4.2113,-0.418 -3.3681,-22.9612 -18.8807,-35.2442 -25.2898,-51.651 -6.183,-13.2878 -16.2134,-24.2824 -22.4928,-37.5168 -3.6328,-5.2721 -5.7973,-11.2947 -8.6798,-16.9528 -18.1933,-26.2514 -63.1103,-98.2004 -63.2459,-98.4587 -3.3853,-4.2454 -26.202,-28.1561 -28.0653,-37.4096 -2.5399,-0.9965 -4.265,-2.9684 -5.1759,-5.508 -18.4877,-6.1417 -4.3862,-7.3987 -18.5279,-14.038 0.3537,-1.6824 0.7503,-3.3541 1.1468,-5.0259 -2.6469,-2.2181 -5.8832,-3.4719 -8.7871,-5.2293 -1.8432,-5.4008 0.6216,-10.8232 1.0932,-16.1489 -1.8752,-7.0297 2.0575,-13.92 0.8679,-20.9605 -0.1179,-5.9152 0.5466,-11.8411 1.3608,-17.7029 -0.8037,-5.0581 -1.6182,-10.1696 -0.6858,-15.2919 0,0 18.7532,10.9044 25.5468,14.0487 2.1111,5.6044 7.962,7.7583 12.2592,11.3375 9.6338,9.0658 22.3214,13.5665 33.734,19.8245 12.5679,10.4256 16.2332,4.0812 23.0822,8.0049 31.8548,16.566 30.715,13.1346 31.3549,15.8918 -0.6964,3.7293 -2.3254,7.2976 -2.0147,11.1661 6.1725,2.6469 11.2948,7.169 17.3494,10.0087 3.9971,1.1252 5.0686,-5.926 9.2372,-4.3078 4.2328,2.1647 8.9586,3.7398 12.2913,7.2976 2.4326,2.636 5.9046,4.0291 9.3979,4.5437 3.1396,0.4394 3.1504,-4.9614 6.3759,-4.3186 6.0651,0.3857 10.1587,6.001 16.3312,5.8831 -0.5358,2.0575 -1.3395,4.04 -2.1862,6.001 4.1248,7.3428 3.6615,5.7545 10.2124,6.419 -3.571,6.2717 -2.4829,11.412 4.5115,11.766 3.4183,-1.136 6.2044,-3.6434 9.6338,-4.7899 -0.4179,3.1718 -2.4218,6.6226 -0.7181,9.7299 1.3395,2.4541 4.7258,1.5537 7.0189,1.3289 3.0968,-1.3931 4.9723,-4.4687 7.7478,-6.3439 4.7044,-3.1613 9.4943,-6.2153 14.2846,-9.2693 6.2152,-3.7612 9.5371,-10.598 15.1201,-15.0881 13.1978,-1.7951 17.5392,-7.3936 20.4034,-2.9684 4.9294,6.2583 11.0377,11.4448 17.7028,15.774 2.9898,-2.5182 6.1616,-4.8008 9.5371,-6.7724 9.482,25.2624 22.3639,17.2031 38.5025,29.3938 0.6322,8.0157 -0.2787,16.1061 0.3643,24.1324 0.4288,3.9757 2.6469,7.3726 3.9541,11.0696 0.8779,20.0538 -2.932,59.6018 11.1555,120.6623 1.1466,3.9757 0.1179,8.0904 0.6536,12.1306 0.3752,5.7331 3.5256,10.8018 4.1686,16.4813 2.2519,19.5695 6.956,19.7332 6.9333,32.4909 0.4822,2.0038 1.5754,3.7934 2.197,5.7759 0.9001,3.2363 0.5572,6.6654 1.4358,9.9123 9.2193,27.12 16.9957,42.9711 16.9957,42.9711 15.024,35.6267 23.6695,89.7743 24.0253,90.7968 1.5323,3.7079 -0.3965,7.5655 -1.3608,11.1661 -0.3499,0.9138 -7.2948,26.01144 -8.0693,46.33614 0.3295,3.5656 2.6696,6.3958 4.7041,9.2108 -0.045,0.072 -0.087,0.1291 -0.1248,0.1637 -3e-4,0 -1.4057,0.5806 -1.4059,0.5806 -6.1539,-0.7232 -6.1841,2.2947 -9.0715,4.1214 -1.4341,0.4265 -1.3095,0.9749 -2.5193,0.4909 -3.5526,-1.2734 -4.0966,1.1221 -6.827,1.7829 -1.4792,0.3633 -1.899,-0.5028 -3.3647,0.061 -2.1887,0.8178 -1.4372,0.9671 -2.0173,0.8134 -3.886,0.3471 -4.174,2.1305 -4.174,2.1305 -0.8996,0.1964 0.1155,0.3052 -0.987,0.9135 -2.4223,1.3451 -0.5876,2.1082 -7.4417,3.1403 -8.167,1.0025 -3.983,1.3585 -12.3874,2.6534 -0.3778,0.057 -17.006,0.5731 -17.0083,0.5729 -0.224,0.044 -0.2508,0.014 -1.6016,-0.2628 -3.8963,-1.0385 -6.141,0.5072 -7.2468,0.5595 -1.06,-2.3764 -11.0725,5.7282 -9.9448,17.1186 0.1877,2.9558 0.5203,9.1483 4.1325,12.4491 2.1106,1.8963 3.7612,3.261 5.1881,2.9895 0.049,1.5725 8.8079,5.3054 9.6487,5.2391 0.5425,-0.012 0.9094,-0.5087 1.0667,-0.5626 0.1784,0.3161 0.1874,0.6905 0.3166,1.0233 1.122,1.1574 8.3526,3.581 8.8827,3.6097 0.231,-0.2055 0.2478,-0.5595 0.419,-0.8073 0.182,0.022 0.4282,-0.03 0.5548,0.1238 0.01,0.3233 0.059,0.644 0.072,0.9673 1.1216,0.7238 10.0234,3.1889 11.2032,2.525 0.2579,-0.1846 1.1386,-0.4907 1.7953,0.018 1.9443,2.477 25.9629,3.1314 27.1765,2.4901 1.6383,0.2622 33.91013,2.8552 35.89563,-3.311 0.3697,-0.059 1.8316,0.1609 2.3277,-0.913 0.1735,-0.4852 8.2944,-2.808 16.8244,-1.0372 4.4311,0.3988 2.7436,1.5815 6.8361,3.2592 0.2578,0.1124 8.1198,2.3885 11.2698,1.1765 1.5116,0.98 7.706,1.2909 9.2052,0.6038 0.4747,-0.2253 6.8006,1.0458 8.8147,-0.2643 -0.078,-0.036 -0.1139,-0.1098 -0.1505,-0.1805 0.1098,-0.035 0.2555,-0.1289 0.34,0 0.4621,-0.068 0.3365,0.133 0.7843,0.1198 0.028,0.1761 0.163,0.3234 0.3298,0.3775 8.3387,0.2751 8.9676,-0.6474 8.9704,-1.7169 0.05,0 0.097,0.01 0.1418,0.027 0.1333,0.2578 0.1893,0.6278 0.7913,0.8635 0.2602,-8e-4 5.12,-1.0762 11.674,-4.1016 9.8192,-5.1514 10.9333,-19.3424 7.6055,-22.3659 -0.196,-2.4108 -0.4399,-4.8215 -2.0639,-6.5384 -0.7109,-2.6221 0.041,-8.1131 -1.3959,-10.6279 -0.659,-3.9923 0.5442,-3.488 0.074,-5.6037 -0.1635,-3.6027 -0.4873,-4.4223 -0.4873,-4.4223 0.01,-0.088 0.4035,-3.209 0.3756,-3.2935 -0.018,-0.4115 0.9058,0.082 -0.081,-2.8277 -0.05,0 -0.1,-0.01 -0.1495,-0.013 -0.05,-0.08 -0.1091,-0.1539 -0.1936,-0.199 -0.059,-1.1881 -0.3543,-1.4287 -0.6923,-2.7129 -0.2764,-0.8655 -0.019,-0.8586 -1.2265,-1.5385 0.058,-0.4396 -0.2107,-2.2514 0.062,-3.3433 -0.2493,-0.4357 -0.5621,-1.3242 -0.7137,-1.8233 -0.1519,0.1129 -0.2475,0.198 -0.2924,0.4277 -0.061,-0.7356 -0.1647,-1.467 -0.2978,-2.181 0.055,-0.044 0.1264,-0.1008 0.1552,-0.165 -0.09,-0.5865 -0.143,-1.1775 -0.1593,-1.7726 -0.01,0.015 -0.2338,0.294 -0.3238,0.4301 -1.078,-4.3447 -9.5472,-12.0427 -10.5625,-21.19364 -1.4895,-24.2038 -3.7107,-151.8393 -12.7306,-176.0211 -2.7111,-7.6833 -1.3931,-15.8491 -2.1217,-23.7575 -5.8571,-14.6426 -2.1918,-47.1158 -5.5617,-53.2155 -1.5003,-1.7682 -3.4827,-3.1076 -4.6721,-5.1223 -0.5466,-2.5396 -0.4502,-5.2293 0.3001,-7.7156 1.1417,-3.5163 7.3832,-30.0797 7.3832,-30.0797 2.1434,-3.9329 4.5543,-7.7264 6.5476,-11.7446 5.7024,-9.9159 2.5868,-25.7508 5.6153,-40.3671 1.1252,-7.3299 2.3359,-14.6809 2.5182,-22.1071 4.4901,-1.736 8.4334,-4.5435 11.7233,-8.0477 -0.5572,-3.0648 -1.1252,-6.1296 -1.1038,-9.2478 -0.021,-8.3372 -3.5256,-16.267 -3.2577,-24.6253 0.054,-7.1584 0.032,-14.3165 0,-21.4749 -0.1606,-5.0365 1.4681,-9.9231 1.136,-14.9701 0.7467,-25.4259 -8.1482,-70.1333 -10.9304,-77.0052 -0.6536,-1.8647 -1.7146,-3.6326 -1.9394,-5.6153 0.568,-7.4477 1.9824,-14.8523 4.7258,-21.8284 3.4662,-21.3305 -2.6423,-12.8281 3.5683,-23.2751 3.1497,-4.2784 21.3793,-68.7807 22.4606,-72.9547 z M 972.88567,94.023564 c -0.7072,-1.1252 -1.5859,-2.2076 -1.886,-3.515 0.5249,-1.4359 1.3074,-2.7542 2.0252,-4.0936 0.3966,0.1929 1.1897,0.5894 1.5859,0.7931 -1.1357,2.1111 -1.5645,4.4473 -1.7251,6.8155 z m -508.978,394.070196 c -1.7574,6.6332 -1.2002,13.963 -5.0473,19.9104 -1.9505,0.2571 -3.8899,0.5249 -5.8295,0.8465 -1.4898,-9.0228 0.7394,-18.2387 -1.3075,-27.2508 -1.9824,-0.4071 -3.954,-1.4039 -6.001,-1.0396 -3.5041,1.211 -6.5367,3.9757 -10.3944,3.9649 -3.2906,-11.5325 9.3247,-19.5479 2.4969,-27.7757 -0.418,1.4252 -0.8145,2.8503 -1.2002,4.2864 -0.7395,0.054 -2.2184,0.1606 -2.9576,0.2037 -0.5144,-8.2728 1.7896,-16.299 3.5364,-24.2933 1.6932,-0.1608 3.3861,-0.3109 5.0901,-0.4607 0.8892,-3.3647 0.8678,-6.8474 1.3288,-10.266 1.0716,-1.7146 3.3005,-1.2752 5.0042,-1.6395 -0.6832,14.4944 -4.9302,14.2278 -4.522,21.8072 3.204,-1.1146 4.083,-4.4687 5.1545,-7.2976 0.5572,-0.054 1.6823,-0.1501 2.2395,-0.2037 0.7823,3.4291 0.9751,7.0939 2.8292,10.1801 1.6073,2.8289 2.5718,6.0547 2.3359,9.3337 -0.5358,6.1616 4.2756,11.1339 4.0936,17.2741 0.9001,0.011 1.8001,0.021 2.711,0.043 0.3963,4.1147 1.6716,8.2724 0.4394,12.3768 z m 115.379,-97.9657 c 2.1325,1.5003 3.9221,3.4397 4.6722,6.001 -3.0862,-0.4072 -5.1757,-2.8612 -4.6722,-6.001 z M 1006.5768,74.070364 c 0.1606,-0.3966 0.4716,-1.1894 0.6216,-1.5968 3.6648,-1.7145 1.2644,4.9937 -0.6216,1.5968 z"
   id="path2"
   style="stroke-width:0.25783" />
</svg>
