<?xml version="1.0" encoding="UTF-8" standalone="no"?>
<svg
   xmlns:dc="http://purl.org/dc/elements/1.1/"
   xmlns:cc="http://creativecommons.org/ns#"
   xmlns:rdf="http://www.w3.org/1999/02/22-rdf-syntax-ns#"
   xmlns:svg="http://www.w3.org/2000/svg"
   xmlns="http://www.w3.org/2000/svg"
   xmlns:sodipodi="http://sodipodi.sourceforge.net/DTD/sodipodi-0.dtd"
   xmlns:inkscape="http://www.inkscape.org/namespaces/inkscape"
   enable-background="new 0 0 595.28 841.89"
   viewBox="0 0 947.39404 2485.4965"
   version="1.1"
   id="svg4"
   sodipodi:docname="alone_moving_male23.svg"
   width="947.3941"
   height="2485.4966"
   inkscape:version="1.0.2 (e86c870879, 2021-01-15)">
  <metadata
     id="metadata10">
    <rdf:RDF>
      <cc:Work
         rdf:about="">
        <dc:format>image/svg+xml</dc:format>
        <dc:type
           rdf:resource="http://purl.org/dc/dcmitype/StillImage" />
        <dc:title></dc:title>
      </cc:Work>
    </rdf:RDF>
  </metadata>
  <defs
     id="defs8" />
  <sodipodi:namedview
     pagecolor="#ffffff"
     bordercolor="#666666"
     borderopacity="1"
     objecttolerance="10"
     gridtolerance="10"
     guidetolerance="10"
     inkscape:pageopacity="0"
     inkscape:pageshadow="2"
     inkscape:window-width="1920"
     inkscape:window-height="997"
     id="namedview6"
     showgrid="false"
     fit-margin-top="0"
     fit-margin-left="0"
     fit-margin-right="0"
     fit-margin-bottom="0"
     inkscape:zoom="0.28032165"
     inkscape:cx="295.72525"
     inkscape:cy="1248.1254"
     inkscape:window-x="0"
     inkscape:window-y="0"
     inkscape:window-maximized="1"
     inkscape:current-layer="svg4"
     inkscape:document-rotation="0" />
  <rect
     style="fill:#ffffff;stroke-width:5.66929;stroke-linecap:square;stroke-linejoin:round;stroke-dasharray:11.3386, 11.3386"
     id="rect830"
     width="947.3941"
     height="2485.4966"
     x="0"
     y="0" />
  <path
     d="m 561.48916,299.49197 c -3.3502,26.76617 -13.7376,51.86314 -14.67708,83.566 21.80291,13.43036 37.72376,36.0723 58.72013,49.73899 16.61513,10.82465 67.72492,27.0232 88.07431,33.91268 26.71299,8.92797 74.77097,10.83056 88.1186,31.55219 3.85835,6.22474 1.84646,11.45981 4.851,18.18976 17.18825,37.64103 29.91548,88.98127 41.59688,131.01539 1.66624,15.81154 3.33543,31.63194 4.98394,47.39325 17.33597,65.85483 22.2756,141.8164 39.05912,212.38337 7.67238,32.20214 0.12413,68.22125 7.32966,99.3598 6.09478,25.7233 -1.87303,58.6551 -2.37822,81.4743 -1.62783,70.5552 -2.92774,132.2681 -2.54072,198.8113 -9.41544,3.1906 -13.04925,2.0857 -14.60617,13.4776 6.60881,8.6148 19.94167,70.4694 12.19545,90.4791 -2.24234,5.8998 -11.56618,8.538 -14.64458,13.4806 -17.33598,27.4368 -44.06375,66.8326 -85.59563,70.0263 1.06356,-15.6963 8.7448,-21.1087 12.26044,-33.8595 5.61618,-21.3539 -1.58942,-51.9518 -7.47148,-65.5889 -2.393,-0.6825 -4.78896,-1.3768 -7.31786,-2.2099 v 2.2099 c -14.1453,22.8221 1.06651,55.6299 -34.18448,58.7762 -0.54359,-29.6141 1.59239,-85.696 9.71381,-110.6689 3.3443,-10.2693 10.05358,-19.8176 12.26636,-31.5729 h -4.86281 c -4.5467,-2.8214 -13.93851,-2.4639 -22.06585,-2.3428 -6.32521,8.3105 -7.78465,15.4452 -7.40944,31.6852 -26.5121,30.976 -20.52074,120.2882 -17.0494,176.2135 0.73857,11.2707 8.6798,23.2033 4.93372,36.1905 -2.00599,6.5793 -10.40217,14.355 -12.2634,20.2607 0.79767,25.6525 1.57465,51.1837 2.47276,76.91 0.13005,15.4688 10.9901,28.7632 4.85987,45.2011 -1.33536,3.3886 -8.26324,6.2158 -9.82017,8.9044 -4.56444,8.3193 -1.06356,20.6388 -2.4314,27.1087 -4.83033,23.3895 10.65033,37.1684 2.4314,61.0955 -16.52944,48.4154 -28.56831,101.4514 -46.44787,151.3175 -4.11833,11.3328 -13.72284,22.896 -17.16758,33.9955 -10.74783,34.468 8.52027,70.6555 -2.41368,101.67 -7.47149,21.2799 -26.40574,21.6581 -26.91684,51.9311 33.18,40.8878 -9.20567,120.7609 -24.39681,153.6248 -8.35187,17.5989 -7.47148,31.2627 -34.35287,31.6586 -6.71223,-4.7034 -17.39506,-4.7034 -29.37485,-4.5704 -4.99871,9.117 -9.61336,24.3555 -12.26044,29.301 l -7.27354,4.792 c -3.52746,9.2262 7.92941,29.6554 2.44323,42.7224 -1.1256,2.7061 -8.7832,8.0002 -9.77586,11.3151 0.85971,3.8022 1.52739,7.6309 2.34278,11.318 -0.4136,2.712 -3.87903,9.4804 -4.73874,13.5367 -32.26712,18.4763 -146.03516,38.415 -149.37945,-15.7259 8.47891,-7.6576 8.66798,-16.7569 14.74208,-27.2212 13.67259,-23.6257 25.52239,-26.3614 17.11143,-60.9211 0.83017,-13.5544 1.69282,-27.1089 2.41368,-40.6249 -4.59987,-13.4214 -18.80722,-19.4512 -22.00675,-36.2169 3.92334,-3.046 2.80956,-1.4684 4.94258,-6.8778 -25.99214,-16.7569 -16.34036,-49.4701 -26.93752,-81.232 -10.12152,-30.5359 -11.33278,-72.0117 -19.60194,-106.2434 -0.78289,-17.9741 -1.58352,-36.1846 -2.46095,-54.1587 -7.13469,-29.1769 -4.93076,-66.4604 -12.18363,-97.2387 -0.81834,-16.5116 -1.66623,-33.1297 -2.40187,-49.7418 -9.99743,-31.5286 -23.05848,-53.748 -31.88306,-90.3226 -0.77994,-33.1535 -1.58055,-66.2831 -2.44913,-99.3332 0.86562,-3.9971 4.55556,-15.135 2.44913,-22.6449 -11.70798,-42.9528 -18.8988,-102.3377 -31.76784,-146.8476 -7.69305,-26.4708 0.46679,-61.3495 -7.40943,-88.1984 -7.06085,-24.5061 -18.05093,-45.6118 -29.32167,-65.4264 -7.72851,-13.7701 -8.93387,-36.1698 -29.32757,-38.5185 -8.06235,4.4847 -26.79572,-1.3619 -39.19206,-2.1478 0.14476,-86.2574 -31.191748,-146.7442 -48.929498,-219.261 -1.65443,-30.0839 -3.32953,-60.29183 -4.93077,-90.32549 -10.39036,-44.32667 -1.06651,-85.25292 9.8763,-126.54549 13.57512,-51.59431 15.31817,-104.13104 29.241898,-153.63074 1.69578,-13.65192 3.2793,-27.08228 4.94258,-40.67513 11.00781,-38.59823 24.39385,-101.62873 46.58968,-131.04788 19.73193,-26.33188 69.30548,-26.01872 102.64797,-40.73421 21.2091,-9.29725 47.37258,-15.76428 68.51077,-27.02615 17.94752,-9.59269 37.94533,-38.20532 53.92526,-52.06996 0.46678,-42.03707 -10.19241,-66.23593 -12.32248,-101.61101 h -19.52807 c -2.41368,-3.97947 -3.06068,-3.81995 -4.94259,-9.03432 -11.64595,-13.49239 -7.0047,-45.18342 -2.46095,-61.00087 10.9369,-3.00456 15.73767,-0.3752 17.1203,-13.59285 -8.4405,-12.08318 -1.38558,-46.78171 2.54073,-56.44235 14.85137,-37.17425 52.79375,-69.50637 102.71296,-72.31593 62.25351,-3.49792 109.32474,39.21274 119.96622,85.85264 -2.50823,19.5724 -4.93077,39.20092 -7.30901,58.89445 15.12319,4.55852 22.18403,8.07712 24.39681,24.80744 -14.13348,20.00373 -4.54965,49.79217 -41.59983,49.61492 z m 137.03925,503.81557 c -31.97169,66.2773 -5.69298,205.44066 9.73745,268.95276 v 29.363 c 6.86881,28.3733 9.05796,58.1618 19.58421,81.3266 2.46687,0.842 4.93963,1.5274 7.4124,2.2394 v -2.2394 c 1.9469,-2.6618 1.79623,-3.8288 2.37824,-8.9457 -10.39332,-16.296 2.5998,-49.4849 -2.37824,-70.1622 -2.26597,-9.0373 -5.01939,-26.1398 -7.4124,-36.1934 v -65.3644 c -9.20567,-39.26002 -8.01212,-83.70191 -17.0553,-122.04311 -5.61322,-23.45438 5.99136,-58.41585 -7.33855,-74.65576 -2.54958,-1.79919 -0.73562,-0.90993 -4.92781,-2.27779 z m -457.63948,24.79859 c -5.46255,15.46294 -2.13302,33.23023 -7.26173,49.85717 -2.47277,7.69011 -10.41399,19.20311 -12.20135,27.02025 -3.61018,15.33293 10.20718,32.12827 4.86872,52.06404 -6.33997,23.26825 -15.39793,78.90411 -4.86872,108.44731 h 4.86872 v -4.5615 c 13.65489,-18.7658 12.99606,-48.4332 19.52513,-74.57893 12.67109,-50.58982 25.86805,-69.17843 7.32968,-124.25589 -4.13902,-12.52042 -0.2659,-23.04668 -7.32968,-31.54036 -2.48459,-1.8819 -0.66177,-0.92765 -4.93077,-2.45209 z M 466.03497,1521.935 c -3.20249,4.2482 -3.20249,1.8316 -4.85101,8.9958 -21.81768,29.8978 8.19235,75.941 0,108.4887 -11.43027,45.0446 1.31469,85.5099 12.19545,128.7641 -0.80061,17.9712 -1.61896,36.161 -2.41959,54.2445 9.13182,41.3752 1.99122,101.8266 12.29294,149.0781 h 7.19083 c 23.32733,-37.5347 11.19392,-120.5099 24.52383,-167.1616 1.57466,-5.5216 7.71375,-55.6684 7.37696,-56.5842 -0.97197,-2.2747 -8.7123,-2.9661 -9.78473,-4.3724 -3.86721,-5.8938 1.13742,-15.516 -2.46095,-20.4823 -3.46247,-4.8273 -12.99902,-4.7623 -17.13212,-8.9456 -6.92788,-7.0787 -14.67708,-31.7709 -17.08189,-40.7963 -7.20265,-25.9183 17.34778,-43.3931 21.98902,-58.7172 2.95728,-9.6518 -21.17068,-76.6913 -24.49724,-90.2929 -2.41665,-0.8066 -4.87759,-1.498 -7.3415,-2.2187 z"
     id="path2"
     inkscape:connector-curvature="0"
     style="fill:#010202;fill-rule:evenodd;stroke-width:2.95432" />
</svg>
