<?xml version="1.0" encoding="UTF-8" standalone="no"?>
<svg
   xmlns:dc="http://purl.org/dc/elements/1.1/"
   xmlns:cc="http://creativecommons.org/ns#"
   xmlns:rdf="http://www.w3.org/1999/02/22-rdf-syntax-ns#"
   xmlns:svg="http://www.w3.org/2000/svg"
   xmlns="http://www.w3.org/2000/svg"
   xmlns:sodipodi="http://sodipodi.sourceforge.net/DTD/sodipodi-0.dtd"
   xmlns:inkscape="http://www.inkscape.org/namespaces/inkscape"
   version="1.1"
   id="Layer_1"
   x="0px"
   y="0px"
   viewBox="0 0 945.36876 1559.627"
   xml:space="preserve"
   sodipodi:docname="alone_moving_male3.svg"
   width="945.36877"
   height="1559.627"
   inkscape:export-filename="/home/alarith/Projekte/AIPS/01_LaufendeAktivitäten/Silhouetten/silhouettes/alone_moving_male/alone_moving_male3.svg.png"
   inkscape:export-xdpi="300"
   inkscape:export-ydpi="300"
   inkscape:version="1.0.2 (e86c870879, 2021-01-15)"><metadata
   id="metadata9"><rdf:RDF><cc:Work
       rdf:about=""><dc:format>image/svg+xml</dc:format><dc:type
         rdf:resource="http://purl.org/dc/dcmitype/StillImage" /><dc:title></dc:title></cc:Work></rdf:RDF></metadata><defs
   id="defs7" /><sodipodi:namedview
   pagecolor="#ffffff"
   bordercolor="#666666"
   borderopacity="1"
   objecttolerance="10"
   gridtolerance="10"
   guidetolerance="10"
   inkscape:pageopacity="0"
   inkscape:pageshadow="2"
   inkscape:window-width="1920"
   inkscape:window-height="997"
   id="namedview5"
   showgrid="false"
   fit-margin-top="0"
   fit-margin-left="0"
   fit-margin-right="0"
   fit-margin-bottom="0"
   inkscape:zoom="0.4155446"
   inkscape:cx="937.28013"
   inkscape:cy="759.49477"
   inkscape:window-x="0"
   inkscape:window-y="0"
   inkscape:window-maximized="1"
   inkscape:current-layer="Layer_1"
   inkscape:document-rotation="0" />
<rect
   style="fill:#ffffff;stroke-width:5.66929;stroke-linecap:square;stroke-linejoin:round;stroke-dasharray:11.3386, 11.3386"
   id="rect830"
   width="945.36877"
   height="1559.627"
   x="0"
   y="0" /><path
   d="m 447.08874,66.657664 c 2.48218,-1.03888 5.31073,-1.58745 7.99497,-1.03888 2.19358,0.37515 3.00173,3.0592 5.25302,3.37691 3.60783,1.32773 36.25156,-6.58067 57.7543,31.085026 2.74195,3.11719 3.49236,7.33124 5.28188,10.99673 2.56878,5.22408 2.10697,11.6316 5.97457,16.24966 3.40579,8.2547 2.22243,17.40426 2.82855,26.14953 1.24108,1.29888 3.52125,1.58745 3.98303,3.55033 0.37524,1.99146 0.11544,4.0695 0.72159,6.06096 2.3956,9.29384 -7.15797,26.6981 -6.55184,32.70161 0.17314,1.27001 -0.23087,2.5109 -0.89476,3.57891 -1.61631,1.50088 -4.18509,1.55859 -5.62822,3.29033 -1.3854,1.27002 -0.66384,3.3192 -1.24108,4.90665 -0.72158,2.0783 -1.47202,4.15634 -1.87608,6.3498 2.22243,0.98144 4.70461,0.75058 7.07136,1.12573 10.10194,0.89487 19.77097,4.1852 29.29565,7.50439 8.88973,1.0966 39.22443,3.43463 99.20116,30.62331 5.13756,2.5109 3.0883,2.07803 7.18682,7.35983 29.20908,35.50136 41.76435,106.53241 52.70331,127.40014 1.06793,2.04918 1.5586,4.32949 1.73177,6.60953 0.72158,8.34127 9.87106,18.38569 9.52471,23.92721 -5.71483,6.98467 -12.32438,9.46699 -11.63168,12.32446 0.92361,3.75206 9.20722,40.14801 10.39058,44.4775 2.16469,6.98468 10.62147,26.84211 8.05269,42.91863 -0.20201,2.39575 0.57726,4.76236 0.51954,7.18696 0.37521,6.20552 -5.77256,45.2278 -6.3498,50.76959 -0.75044,4.90665 -2.56878,9.55357 -3.34808,14.46021 -7.38885,42.42806 -7.38885,28.86271 -11.31419,44.07322 -0.83701,3.29034 -2.36675,6.32095 -3.29034,9.61129 -0.202,0.63514 -3.05944,13.27704 -4.53146,16.74052 -0.46181,0.92345 -0.51952,1.9626 -0.25972,3.00176 0.86587,3.86749 -0.20201,18.21227 5.36845,24.90837 3.52125,5.54178 3.14604,0.83714 3.11719,23.78291 0.17314,4.99322 3.26147,9.467 2.65535,14.54679 -0.72155,5.88808 -0.34635,11.92045 1.41428,17.60625 0.92361,2.4246 -0.63498,4.90665 -0.11543,7.36011 0.31749,1.87602 0.72158,3.80977 0.63498,5.74352 -0.6061,4.96435 0.80815,9.89986 0.63498,14.86449 -0.57724,2.68405 -0.11543,5.36837 0.23086,8.05269 0.0289,4.84893 0.11543,9.69785 -0.0577,14.51792 -0.80815,3.98293 -0.2886,23.52293 -0.54838,31.34475 -0.98132,5.77265 -0.98132,37.89684 -1.12564,40.78316 -1.61631,9.12043 0.89476,6.86925 0.6927,18.50085 -0.0577,2.74204 0.80815,5.48408 0.25972,8.22584 -0.37521,1.93402 -0.31749,17.83739 -3.52126,26.61153 -1.50085,4.30063 -1.76062,8.88983 -2.91512,13.27676 -3.20376,13.01733 0.0866,5.1955 -1.24111,20.08858 -0.3752,1.90488 -1.09678,3.75206 -1.67402,5.62809 1.64517,2.85746 5.31073,3.69461 6.81158,6.69637 2.04926,4.35807 1.50085,9.32243 1.67406,13.99821 -0.17315,3.17491 0.63498,6.63866 -1.09679,9.52471 -1.09679,2.25145 -3.66557,3.83891 -3.66557,6.55181 1.1545,4.47378 6.20549,4.50268 5.25302,16.82708 -0.40409,2.7132 -2.74198,4.5315 -3.80988,6.927 -0.25972,2.3957 1.81834,4.3006 2.04925,6.6672 0.25972,3.4638 0.43293,6.9561 0.83702,10.4196 0.72155,2.3666 3.20376,3.6943 3.89645,6.1189 1.38542,3.781 -0.77929,7.7064 0.17315,11.5451 0.83704,5.1086 0.46181,10.275 0.28863,15.4128 1.35657,5.224 -0.11543,10.6213 0.86587,15.8745 0.69273,3.6366 -0.31746,7.2444 -0.49066,10.8521 -0.92359,4.5027 0.11543,9.1496 -0.83701,13.6234 -0.95247,4.8201 -0.43295,9.8133 -1.67403,14.6045 -1.35656,4.9066 -0.14429,10.0441 -1.1545,15.0085 -0.0577,3.9832 -1.96269,7.6775 -1.78951,11.6607 0,2.0492 0.0577,4.1272 0.0289,6.2055 0.0577,2.5398 -1.47202,4.7621 -1.6452,7.2733 -0.23086,3.4635 0.34635,7.0135 -0.80815,10.3907 -0.95247,3.0881 -4.32941,63.9598 -4.32941,65.1141 -0.25972,6.5518 -3.11716,15.5282 -1.67402,16.7117 1.18336,1.2697 3.03058,1.8183 4.12734,3.2037 1.24111,3.5789 0.72158,16.9134 -7.30225,21.5604 -6.46526,3.6077 -9.38039,10.3041 -17.43308,10.1018 -0.0289,0.9815 -0.0289,1.9918 -0.0289,3.0306 6.86933,5.6861 5.59937,2.6555 10.4483,12.1225 4.64689,0.9526 9.92877,0.2586 13.01707,5.9746 1.78951,2.1647 3.86763,4.387 4.41601,7.2444 0.11543,3.2615 0.31749,6.6961 2.25129,9.4959 -3.80988,6.2344 2.25129,12.3822 4.18509,15.9899 6.55184,10.4773 0.54841,5.8304 14.51795,19.0495 0.28864,0.2314 20.17504,15.2396 23.49426,22.3397 1.41428,3.2038 -1.2411,6.8693 0.51952,9.9865 4.24281,-0.03 8.48564,0.3174 12.72847,0.2314 1.67403,-0.087 3.37694,0.1742 4.90665,0.8948 2.25129,-1.27 4.01191,-3.6366 6.81161,-3.7232 2.33786,-0.3177 3.72328,1.9626 5.74368,2.5975 3.4058,0.2314 6.81159,-0.2314 10.21741,0 5.16642,0.3174 10.44829,-1.2412 15.557,0.057 2.10697,1.3277 4.3294,-0.2886 6.55184,-0.404 2.77081,-0.1144 5.57048,-0.4329 8.34132,-0.4617 3.11716,-0.7795 4.06963,-5.2821 9.64014,-1.1546 3.1749,0.2314 6.58069,-0.606 9.52471,0.9814 2.77081,0.4329 5.68594,-0.2613 8.48564,0.3463 4.56029,0.5195 9.00516,1.7318 13.59434,2.1358 10.36169,1.8471 10.0442,12.1224 6.84044,13.2767 -9.49582,2.9729 -14.89316,2.7421 -35.61658,4.6181 -2.79969,1.674 -5.39733,3.7235 -8.08157,5.5995 1.12564,2.5977 2.39561,5.2818 2.33789,8.197 0.17315,2.6843 -1.09679,19.8863 -7.15796,27.4772 1.96266,7.389 2.65538,9.5247 1.12564,11.7762 -1.32767,0.6637 -2.77081,1.1543 -4.12737,1.7895 0.92361,7.0423 1.2411,15.0373 -2.48218,21.3871 -6.09003,10.3328 -19.22257,16.596 -31.05628,14.72 -20.2905,-3.2038 -30.73879,-27.3907 -24.82193,-45.7473 2.91512,-9.063 4.56029,-10.737 10.36169,-18.0394 -1.01019,-3.8098 -0.86587,-7.793 -0.72155,-11.6893 0.0289,-1.9337 1.99151,-3.2615 1.78948,-5.2241 -1.06793,-0.3463 -2.19357,-0.5485 -3.0883,-1.2411 -0.98133,-2.2224 -1.21225,-4.6758 -2.04926,-6.927 -185.99134,-0.8949 -386.84701,-4.1563 -585.85542,-16.3654 2.22242,0.1443 1.76062,13.3059 1.50086,14.8934 -2.82855,18.6451 -28.54523,40.8117 -53.07854,24.3601 0.0289,3.6943 0.43294,7.5621 -0.37521,11.1698 -2.0204,8.9476 -4.47373,15.4705 -11.28533,21.8203 -6.37866,5.9456 -15.03747,9.4379 -23.75401,9.4379 -37.319502,0.03 -51.058152,-55.7625 5.91685,-67.1344 -2.10697,-5.6284 -4.04078,-11.3145 -6.23434,-16.8848 -1.73176,0.4328 -2.19357,2.2223 -2.857412,3.6655 -1.18337,-0.3463 -2.59765,-0.5195 -3.29035,-1.6741 -1.15451,-1.7606 -1.7029,-3.8097 -2.74196,-5.6281 -0.37521,0 -19.42461,-1.5008 -19.7421,-1.5585 -2.82854,-0.462 -5.74368,0.087 -8.57222,-0.3463 -3.11718,-0.9526 -6.26321,-3.1172 -7.01365,-6.4364 -0.6927,-2.3092 0.43295,-4.6469 1.41428,-6.6675 1.90494,-4.4447 8.08156,-3.6367 44.304272,-7.6484 1.78949,-1.1546 3.49239,-3.0018 5.83027,-2.5978 2.13584,-0.1443 3.46352,1.8183 5.25301,2.6555 39.28216,3.0015 39.33989,4.0983 42.57251,1.5874 2.04925,-1.5297 4.70462,-0.664 6.43639,0.8658 1.38541,0.8083 1.96266,2.7131 3.69442,2.944 4.27169,0.8949 8.65882,0 12.95936,0.606 5.1087,0.866 10.33286,-0.1443 15.41269,0.7506 6.29208,1.1546 13.62321,-0.5486 19.88642,-1.2412 40.69643,-4.416 82.08556,-5.8592 123.38811,-2.5111 4.73347,0.3754 9.87103,1.5586 14.60453,1.0968 1.64517,-2.1357 3.40579,-4.1849 4.84893,-6.4652 3.98306,-6.321 11.14102,-9.3804 16.71153,-14.0274 3.46351,-2.8571 4.04077,-7.5618 6.00343,-11.343 0.95247,-1.7894 4.56032,-9.6401 6.55184,-18.068 0.43294,-1.9626 -0.25972,-3.8963 -0.51953,-5.8015 -0.89475,-0.6637 -1.78948,-1.3274 -2.62652,-1.9914 0.43295,-4.2141 -2.25129,-4.7335 4.7335,-9.1207 2.10697,-1.2409 4.67575,-0.4906 6.86933,-1.472 1.03904,-1.9627 1.18336,-4.7044 3.49239,-5.6281 0.80815,0.5483 1.58745,1.1834 2.30901,1.876 1.93379,-3.5789 5.9746,-7.6775 6.03231,-15.4994 -11.40077,-6.2918 -9.89991,-4.3869 -14.80659,-6.0898 -4.87778,-2.8575 -5.22413,-14.6336 -2.59763,-20.002 4.30054,-8.1392 2.53992,3.1461 2.88627,-23.8983 0.5484,-3.5212 0.72158,-7.1001 0.43295,-10.6502 -0.31749,-5.0223 1.01018,-10.0444 0.0866,-15.0088 -2.04923,-18.8762 1.67405,-39.5131 0.202,-47.739 -0.40409,-2.3954 0.54838,-4.7335 0.6061,-7.1001 0.14429,-3.0306 -0.98133,-5.9458 -0.66384,-8.9764 0.46181,-4.5026 -1.18336,-8.9184 -0.54838,-13.421 1.73177,-12.2091 -1.06793,-18.6743 -0.0577,-25.7167 0.60609,-5.0221 -0.66387,-10.0441 0.0577,-15.0376 0.83701,-6.8693 -0.11543,-13.8828 0.98133,-20.7235 0.7793,-2.9437 0.34635,-5.9744 0.54838,-8.9761 0.11543,-4.0409 1.73177,-7.793 2.25132,-11.7759 0.14429,-1.732 1.52971,-3.0018 2.02037,-4.6181 1.21225,-3.3769 -0.202,-7.0426 0.83701,-10.4484 1.41428,-4.5892 1.01022,-9.6113 3.20376,-13.9696 2.48221,-4.5892 5.07985,-4.4735 0.25972,-14.1137 -0.89475,-1.5297 -0.31749,-3.3194 -0.14428,-4.9646 0.60612,-4.9644 0.98132,-10.21731 3.83874,-14.48908 1.47199,-2.25118 0.34634,-4.90665 -0.6927,-7.07125 -1.29882,-2.48232 -0.31749,-5.25294 0.54838,-7.67754 2.16472,-6.00351 -0.83701,-18.06798 6.95593,-23.86949 2.45332,-1.84717 1.32768,-5.16636 1.44313,-7.73525 0.75042,-7.21554 -5.85914,-16.30739 -6.37866,-18.73171 -1.52974,-4.12749 -0.34635,-8.45698 0.11543,-12.6419 0,0 3.26148,-52.61677 2.6265,-81.07547 -0.23086,-3.40576 0.89475,-33.85592 0.92361,-34.1445 0,-0.40401 3.8676,-37.55054 4.50258,-41.99519 0.0577,-3.40603 -0.28863,-6.84066 -1.12564,-10.13099 0.14429,-2.56862 3.03058,-4.3872 2.65535,-7.10011 -0.75041,-3.89662 -31.114,-35.96309 -35.12591,-40.0903 -11.16988,-10.93901 -45.42992,-57.69655 -63.67115,-95.6511 -0.54839,-1.18345 -4.67576,-19.136 -5.65709,-27.96812 -2.53992,-11.60274 -2.944,-17.17312 -2.56878,-40.40773 0.43294,-3.03062 -0.46181,-6.06123 0.31749,-9.06272 0.20203,-2.30916 1.50086,-10.10213 -4.84894,-11.57415 -4.58917,-1.21203 -8.71654,-3.69435 -13.1614,-5.33951 -5.3396,-2.13575 -14.6334,-3.34805 -13.56548,-7.93726 1.61632,-7.76411 8.13929,-52.32819 10.01537,-60.87146 3.95419,-24.82207 5.42619,-48.69129 16.68265,-90.10932 0.6927,-5.08006 1.76062,-10.13099 3.55011,-14.97993 0.54839,-2.22233 0.17318,-4.79121 1.73176,-6.66724 10.36172,-12.87276 57.84089,-54.57937 58.1295,-54.83909 9.89991,-8.02383 4.5026,-4.64693 25.51465,-18.64541 4.44487,-2.94404 7.93723,-7.10011 12.49756,-9.92872 1.50085,-1.15459 3.49239,-2.48232 3.46353,-4.58921 -1.61631,-4.67578 -3.92534,-9.09184 -5.02213,-13.94077 -1.70288,-5.22408 -1.52971,-10.79445 -2.91513,-16.07652 -0.34634,-1.52974 -1.84722,-2.22232 -3.03058,-3.03061 -2.10698,-1.41404 -4.87779,-1.03889 -6.89819,-2.62634 -3.03059,-2.54003 -6.9559,1.7606 -10.01537,-6.17666 -1.32768,-3.46348 0.37523,-7.30238 -1.12565,-10.70815 -5.48391,-13.27677 -9.64014,-16.50939 -8.28358,-20.7523 2.13584,-5.59923 6.23435,-5.19522 9.40923,-5.33951 2.82855,-8.42784 2.51106,-6.75382 2.74198,-11.4296 0.0866,-3.75233 1.24108,-7.41782 1.03904,-11.16987 -0.31749,-4.35835 0.20201,-8.74555 1.32768,-12.95934 2.30903,-6.03237 3.05945,-20.52144 10.67921,-30.652156 2.16472,-2.74204 3.72329,-5.88808 5.97458,-8.60126 6.23434,-7.59096 19.10713,-14.8065 23.58085,-16.22081 4.41598,-1.06801 8.77427,-2.45318 13.30571,-2.79975 0.98133,-1.26974 1.78948,-2.82834 3.34808,-3.37691 M 385.06261,504.15892 c -5.68594,17.60626 -8.1104,12.32419 -10.9101,17.3754 -0.31749,3.49234 -0.98133,6.95582 -1.01019,10.47701 -0.51955,11.31417 -4.87781,7.1581 -1.15453,30.94075 0.20201,3.49261 1.81837,6.66751 2.28018,10.13099 0.49066,3.31919 2.48218,6.09009 3.80988,9.09157 1.03904,2.16488 1.73174,4.50264 2.85739,6.63866 1.84722,4.24264 13.10367,20.2903 17.05787,27.79469 0.51952,0.0572 1.01019,0.14429 1.52974,0.23141 0.98133,-2.42433 0.95247,-4.96436 0.14429,-7.41782 -0.31749,-3.37691 -0.28861,-30.4213 -1.3854,-35.87624 -0.40409,-4.09863 -2.59763,-8.02383 -1.41427,-12.20903 1.58745,-4.53122 4.01191,-8.83185 4.82007,-13.62306 1.09678,-5.80151 5.33959,-9.78443 0.92361,-14.66222 -1.81834,-1.99173 -2.22243,-4.7335 -3.57897,-7.01381 -1.55859,-2.42432 -2.07811,-5.33951 -3.60785,-7.76411 -8.86084,-15.1528 -6.52298,-13.30562 -10.36172,-14.11364 m 162.61254,269.69308 c -1.78949,3.69461 -1.87606,7.96611 -3.17488,11.86273 -0.92361,4.9355 -2.25129,3.26148 4.32941,10.93874 2.10697,2.71318 6.00343,3.60805 7.18682,7.07153 -1.18339,3.29033 -4.7335,5.05093 -8.08158,4.82007 -4.09851,0.0871 -7.50431,-2.9729 -11.63168,-2.54003 -2.02037,5.88808 -3.98303,11.83388 -6.60955,17.49082 -0.57727,1.35659 -1.472,2.71318 -1.44314,4.24292 2.39561,7.21554 15.38382,18.96284 15.38382,25.71666 -0.4618,2.71318 -2.79967,5.39722 -5.71479,5.28179 -1.93383,-0.51944 -3.92535,-1.27001 -5.36848,-2.68405 -1.99152,-2.13602 -4.24283,-3.98319 -6.03232,-6.26323 -1.61631,-1.67402 -2.53992,-4.56035 -5.31073,-4.3872 -1.472,1.32773 -1.78949,3.69434 -1.50085,5.59923 3.49239,5.83037 16.62492,13.19047 6.29206,19.74228 -4.44486,1.03888 -7.0425,-4.84893 -11.45851,-4.04091 -1.26996,3.55005 -0.92358,7.41782 -2.16469,10.96787 -0.63498,1.73174 -0.83701,3.57892 -0.8659,5.42609 -0.63498,5.10892 -3.26147,10.07328 -2.25129,15.32622 0.51955,3.08833 -0.202,6.20551 -0.31749,9.29384 -0.43292,5.4838 -2.2224,10.73701 -4.18509,15.87452 -1.5297,4.96436 0.57727,10.33273 -1.76062,15.12394 -0.11543,2.51117 -0.60612,19.97314 0.0289,22.36861 0.7793,2.91518 -0.6061,5.74379 -0.63498,8.65898 -0.66384,2.39547 -1.99152,4.50236 -2.94399,6.78267 -0.86587,2.02032 -2.59764,3.49234 -3.66557,5.39723 -0.43294,1.50087 -0.0866,3.11718 -0.202,4.67578 -0.0577,4.15634 -2.0204,7.96611 -1.9338,12.15131 -4.99324,9.46704 -0.40409,7.07124 -4.12737,20.34804 -0.4041,5.8592 -3.23262,11.1121 -5.59937,16.3654 -2.0204,2.6263 -4.27169,5.0797 -6.34981,7.6484 -1.52971,1.5874 -0.23086,3.8389 -0.49066,5.7438 -1.15451,10.0152 1.81837,10.9101 2.79969,14.9507 0.25973,2.1649 0.0577,18.0972 0.0866,18.4146 0.17315,2.742 -1.06789,5.3395 -0.95246,8.0815 0.0577,2.3089 -0.83702,4.5027 -1.01019,6.7827 -0.49066,5.6861 0.49066,25.2838 -4.15623,53.4251 -0.37521,6.8692 0.14429,13.7962 -0.86587,20.6077 -0.0289,0.2889 -5.07985,52.7611 -4.56032,57.408 -1.87609,4.7912 -1.41428,10.0156 -2.22244,15.0376 -0.31749,4.0695 -1.76062,7.8796 -2.25129,11.9202 4.90667,5.5707 1.90494,9.5536 2.97287,16.2497 0.60613,4.3872 -2.0204,8.2549 -3.5501,12.1801 -0.4041,1.1835 -1.47203,1.8472 -2.56879,2.3378 -1.55859,0.664 -2.71309,1.934 -4.01194,2.944 0.31749,11.7473 5.28188,18.328 2.19358,27.6507 -1.64517,4.3292 2.36674,7.7639 4.53143,17.1443 0.46181,3.7812 -1.58742,7.2447 -1.99151,10.8813 1.35656,3.6655 3.29036,7.5332 2.33789,11.545 -0.23086,1.9917 -1.2411,4.0698 -0.40409,6.0612 1.70291,4.5027 0.31749,14.1428 -1.70291,19.2515 -0.66384,1.876 -2.6265,2.742 -3.98303,4.0409 14.92202,0.6637 167.31715,4.2426 176.52437,1.0389 -0.34635,-1.1255 -0.80816,-2.1935 -1.26997,-3.2615 -0.98132,-1.9915 -0.83701,-4.2715 -1.38542,-6.3787 -0.75041,-3.2615 0.14429,-6.5518 0.0289,-9.8133 -0.0866,-3.4635 0.37524,-6.8692 1.21225,-10.2173 1.47199,-5.7726 -5.97457,-8.659 0.49066,-19.6845 4.18509,-16.0766 5.31074,-8.8607 4.53144,-16.3651 -1.52971,-7.4464 0.98133,-15.1817 5.28188,-21.3006 2.19357,-3.3192 1.38542,-7.5044 0.37523,-11.1122 -1.50088,-0.606 -3.75217,-0.7217 -4.18509,-2.5977 -0.57726,-4.0407 -1.61633,-8.0527 -1.41427,-12.1511 0.23086,-3.4058 -1.12565,-6.6672 -1.18339,-10.0444 -0.11543,-2.1646 1.90494,-3.4346 2.82855,-5.1664 1.06793,-1.8183 -0.0577,-3.8386 -0.0866,-5.7724 -0.95247,-11.1121 -3.40579,-79.084 -2.82852,-84.4523 0.4618,-5.8881 -0.43295,-11.7473 -0.98133,-17.5774 0.60609,-18.8474 -1.26996,-32.3551 0.63498,-46.3824 1.0679,-7.4467 -1.78951,-5.9169 1.96265,-23.8118 0.63499,-2.4823 -1.6163,-4.5026 -1.44313,-6.9269 0.40406,-2.5978 2.36675,-4.6758 2.74195,-7.3024 -0.40414,-2.2224 -1.18341,-4.3873 -1.15455,-6.6384 -0.40409,-3.0595 0.28863,-6.2344 -0.7793,-9.2073 -4.47372,-17.3177 1.87608,-14.6334 -0.0577,-26.8136 -0.4618,-2.4531 -3.08833,-3.2326 -4.35829,-5.1086 -4.84892,-6.3498 -4.61804,-6.4652 -8.31246,-27.56383 -1.26996,-5.13751 3.55014,-7.24467 -1.41425,-16.91367 -1.70291,-3.60777 -1.6452,-7.67727 -2.42449,-11.51617 -0.57724,-4.87779 2.107,-9.38042 1.87608,-14.22935 -0.23086,-17.83712 -0.25972,-16.13424 0.23086,-19.85744 0.77927,-5.91694 -2.68423,-26.46724 -3.00172,-37.17511 0,-0.28858 -0.25973,-19.82886 -0.37524,-20.43487 -0.3752,-2.13575 -0.83701,-4.24292 -0.95247,-6.37867 -0.202,-2.85747 -1.41425,-5.51266 -1.61631,-8.34127 -5.83026,-19.25142 0.23086,-11.42959 -8.9763,-36.28052 -1.32768,-3.08833 -1.52971,-6.49409 -2.7131,-9.61128 -1.58745,-6.55181 -4.06963,-12.8439 -5.8014,-19.36686 -1.90494,-4.99321 -2.04925,-10.39071 -3.43465,-15.52822 -0.63498,-2.68405 -3.60785,-3.46348 -5.51279,-5.05093 -4.58918,-3.11719 -8.13929,-7.67754 -10.15966,-12.81505 -0.43295,-0.95258 -0.72159,-2.1646 -1.78951,-2.56889 -10.10195,-6.98467 -22.88814,8.68784 -31.2006,18.76085 z"
   id="path2"
   inkscape:connector-curvature="0"
   style="stroke-width:0.288627" />
</svg>
