<?xml version="1.0" encoding="UTF-8" standalone="no"?>
<svg
   xmlns:dc="http://purl.org/dc/elements/1.1/"
   xmlns:cc="http://creativecommons.org/ns#"
   xmlns:rdf="http://www.w3.org/1999/02/22-rdf-syntax-ns#"
   xmlns:svg="http://www.w3.org/2000/svg"
   xmlns="http://www.w3.org/2000/svg"
   xmlns:sodipodi="http://sodipodi.sourceforge.net/DTD/sodipodi-0.dtd"
   xmlns:inkscape="http://www.inkscape.org/namespaces/inkscape"
   width="1303.652mm"
   height="3700.7515mm"
   viewBox="0 0 1303.652 3700.7515"
   version="1.1"
   id="svg1423"
   inkscape:version="1.0.2 (e86c870879, 2021-01-15)"
   sodipodi:docname="alone_moving_male24.svg">
  <defs
     id="defs1417" />
  <sodipodi:namedview
     id="base"
     pagecolor="#ffffff"
     bordercolor="#666666"
     borderopacity="1.0"
     inkscape:pageopacity="0.0"
     inkscape:pageshadow="2"
     inkscape:zoom="0.029945494"
     inkscape:cx="5504.4488"
     inkscape:cy="10013.314"
     inkscape:document-units="mm"
     inkscape:current-layer="layer1"
     showgrid="false"
     fit-margin-top="0"
     fit-margin-left="0"
     fit-margin-right="0"
     fit-margin-bottom="0"
     inkscape:window-width="1920"
     inkscape:window-height="997"
     inkscape:window-x="0"
     inkscape:window-y="0"
     inkscape:window-maximized="1"
     inkscape:document-rotation="0" />
  <metadata
     id="metadata1420">
    <rdf:RDF>
      <cc:Work
         rdf:about="">
        <dc:format>image/svg+xml</dc:format>
        <dc:type
           rdf:resource="http://purl.org/dc/dcmitype/StillImage" />
        <dc:title></dc:title>
      </cc:Work>
    </rdf:RDF>
  </metadata>
  <g
     inkscape:label="Ebene 1"
     inkscape:groupmode="layer"
     id="layer1"
     transform="translate(1023.655,3316.4006)">
    <rect
       style="fill:#ffffff;stroke-width:1.5;stroke-linecap:square;stroke-linejoin:round;stroke-dasharray:3, 3"
       id="rect831"
       width="1303.652"
       height="3700.7515"
       x="-1023.655"
       y="-3316.4006" />
    <path
       inkscape:connector-curvature="0"
       style="clip-rule:evenodd;fill-rule:evenodd;stroke-width:10.494"
       d="m 133.6288,-215.67183 c 10.10564,-41.68229 -6.06579,-60.40341 -15.98246,-94.1525 l -1.76124,-31.98551 c -4.43924,-13.57922 -13.22242,-28.25002 -19.550585,-42.6373 -19.203954,-43.63401 -44.756969,-87.79283 -63.96067,-131.46888 -7.723592,-17.56655 -11.763943,-33.61207 -19.539984,-51.52524 -4.0614956,-9.36095 -28.575245,-57.21329 -28.428248,-63.97147 0.07747,-3.62114 6.0027437,-6.3596 3.557833,-12.43549 -2.371571,-1.78441 -4.732793,-3.54571 -7.104808,-5.33088 -9.906068,-15.20557 -12.949443,-32.9828 -23.097055,-47.96823 -11.301935,-16.69593 -30.610724,-26.03529 -37.306354,-47.96793 -9.864095,-32.30041 -6.054748,-71.11776 -14.208536,-104.82435 -20.904233,-86.35528 -21.313663,-181.53569 -42.637053,-266.50589 -8.24859,-32.8252 -8.43733,-66.8361 -15.99326,-97.7198 -2.85562,-11.6905 0.0514,-23.3911 -5.33066,-31.986 v -1.7845 c 9.05635,3.0539 14.77557,11.5855 23.09729,14.2091 9.63367,3.0539 12.39321,-4.3236 15.98247,-5.3312 5.99189,-1.6582 18.20717,4.1872 23.107852,5.3312 5.04736,-5.688 8.667738,-12.3518 12.434922,-19.5397 5.310049,-0.8291 10.704296,0.206 14.209045,-1.7613 8.605256,-3.9345 12.320118,-16.2134 15.992755,-24.8817 4.523187,-0.4197 8.447909,0.7982 12.435493,-1.7716 8.069845,-4.1032 9.507747,-13.7368 14.208791,-21.3239 9.035515,-14.5657 17.3469043,-27.5991 21.3239484,-47.9679 1.6273795,-8.3426 -1.9956021,-26.2558 -3.5578331,-33.7592 v -24.8709 c -6.1914583,-28.638 -8.1537883,-70.593 1.7715826,-94.1728 10.6723561,-4.3238 28.7117021,-3.8712 44.4214481,-3.546 4.438481,-37.7786 5.047423,-71.3276 12.435493,-104.8248 5.834285,-26.4342 -8.038476,-62.072 -3.557833,-83.5005 3.295969,-15.7617 7.219676,-37.159 8.888455,-53.2991 -1.766375,-13.0333 -3.545958,-26.0566 -5.33113,-39.0903 1.205058,-9.8638 3.180785,-25.794 5.33113,-35.5324 0.597513,-18.3538 1.184484,-36.7186 1.771583,-55.0831 3.002356,-12.498 11.984089,-33.0667 8.888455,-47.9679 -11.039817,-53.0159 -17.92397,-108.0673 -30.202053,-161.6707 -0.600053,-15.9928 -1.187088,-31.9855 -1.771583,-47.968 -4.397017,-17.6507 -6.925872,-37.3378 -12.435493,-56.8564 -6.621719,-23.4433 -13.589499,-49.0909 -23.096992,-71.0655 -4.4180983,-10.2104 -12.771523,-22.8141 -15.992755,-33.7485 -1.187024,-12.4458 -2.358681,-24.8812 -3.545959,-37.3167 -18.007914,-74.6125 -9.497206,-166.1305 -46.194555,-220.3111 -23.349394,-34.4729 -60.225497,-64.8634 -95.946737,-87.0477 -11.73223,-7.2935 -23.83217,-10.4416 -35.52218,-17.7663 -18.89961,-11.8373 -34.4729,-30.8734 -53.30942,-42.6371 -23.92642,-14.9437 -66.89922,-29.2153 -83.50094,-49.7521 -5.42542,1.7664 -6.60063,3.8197 -12.43546,5.3307 -10.53592,-14.9432 -26.66513,-25.3218 -31.98549,-46.1941 -3.36726,-13.212 10.87143,-44.7364 14.20882,-55.083 8.29031,-25.6475 13.02306,-53.0685 19.53974,-78.1806 0.59999,-13.6106 1.18705,-27.2424 1.77156,-40.8637 4.68023,-13.4322 14.6288,-24.3144 10.66209,-44.4106 1.18705,-1.1871 2.37153,-2.3715 3.54596,-3.5578 8.2164,0.1543 10.70381,0.7648 14.20883,5.3311 h 5.33091 c -1.75354,-4.7749 -5.84513,-5.7297 -7.10428,-8.8884 -2.3844,-5.9922 2.71683,-31.0938 3.5457,-39.0903 0.70296,-6.7894 -5.66643,-8.4579 -5.33091,-12.4355 1.18705,-1.1845 2.37152,-2.3715 3.5457,-3.5577 -2.71682,-12.8133 -16.62206,-13.6105 -23.09703,-26.6441 -0.15449,-2.423 -0.44029,-2.4977 3.55781,-5.3312 -2.97072,-1.5424 -5.31006,0.3169 -8.88847,-1.7716 -8.7731,-5.0479 -11.90038,-23.7899 -5.32036,-30.2018 -1.31322,-9.3501 -10.21069,-16.182 -15.99325,-21.3239 -0.0773,-0.077 -38.87993,13.8625 -44.42096,17.7666 -5.84487,-3.5894 -3.18881,-9.9066 -1.77156,-15.9932 -10.2107,-4.5124 -67.10908,-30.7787 -78.16978,-24.8704 0,0 -6.97862,-0.4096 -3.5578,-1.7716 l 1.77414,-1.7741 c -10.50451,1.5939 -20.22184,-6.3282 -30.20183,-5.3309 -2.78043,0.2781 -11.16549,4.9637 -12.43546,5.3309 -8.04877,2.3715 -21.32392,-5.4674 -28.4282,-7.1048 -10.38889,-2.4024 -22.40463,3.0104 -30.20157,1.7741 -15.60471,-2.4745 -37.05429,-0.8806 -53.30967,-5.3312 -6.38022,-1.7535 -17.24134,-7.1462 -23.09704,-8.8776 -11.33363,-3.3596 -3.27224,5.9185 -14.20882,0 -5.43623,9.801 -1.23855,16.1606 -5.33092,23.097 v 3.546 c -7.5979,-1.4368 -11.78502,-5.9605 -15.993,-10.6621 h -3.55755 c 3.02222,5.1105 5.19444,7.8598 10.66209,10.6621 v 5.3309 c -9.69674,-2.0986 -23.24432,0.2318 -23.09755,7.1046 -6.86275,-0.2058 -9.02493,-0.402 -12.43545,-3.5579 h -5.34148 c 5.2892,6.7688 12.92882,5.2156 19.55056,10.6621 1.43682,1.1871 7.03115,12.6662 10.66183,15.9928 -1.30035,17.1262 -10.65153,24.3147 -12.43546,37.3064 -1.13297,8.2583 3.64098,10.8191 5.33092,15.9927 -0.59996,5.3309 -1.17418,10.6621 -1.77157,15.9824 8.15384,-1.4908 12.40379,-6.6114 15.98219,-12.4354 h 1.77157 c -2.18098,27.0746 -67.00402,78.4741 -30.20183,113.7025 -1.53209,21.8798 -19.33014,31.6186 -28.41765,46.1946 -5.02681,8.0593 -6.20202,16.5806 -12.43545,23.097 -0.59997,21.7542 5.48824,19.1517 15.98219,28.4282 12.2256,-0.6515 16.91638,-0.2781 19.55055,8.8885 5.06827,7.2724 2.25566,15.804 1.77157,26.6548 11.33363,1.4806 21.70166,8.0385 24.87091,17.7666 h 1.77156 c -2.53117,4.4704 -13.485,9.8747 -17.76637,12.4353 0.63859,12.0996 7.53456,18.8473 14.20857,24.8709 -2.4874,11.4173 -15.12165,25.9516 -5.33066,39.09 10.51506,21.3028 53.72913,10.2107 78.18033,17.7664 12.90719,3.9875 35.5536,16.2865 42.63677,26.6548 6.20202,9.0772 5.27864,22.3941 12.43545,30.2016 -2.4153,10.2421 -7.05201,7.4611 -14.20882,12.446 -6.6323,4.6068 -9.8121,14.7336 -15.99275,19.54 -7.46117,5.8132 -16.82214,7.3664 -24.87065,12.4352 -22.96107,14.4606 -39.54168,35.8054 -60.4034,51.5255 -19.86547,14.9643 -45.13499,30.7158 -53.29912,56.8564 -3.5578,26.6548 -7.10428,53.2989 -10.66209,79.9537 1.563,11.6696 6.21232,35.6378 3.54571,47.9788 -8.81483,40.8005 -4.75336,93.5645 -14.20857,136.7995 -4.19768,19.1936 0.206,39.7724 -3.54596,56.8461 0.58708,47.9679 1.17418,95.9467 1.77414,143.9146 -4.10318,18.6061 -1.88744,39.9192 -1.77414,58.6301 -0.58709,5.9185 -1.18448,11.8476 -1.77157,17.7663 0.80854,5.2996 3.90285,18.5953 1.77157,26.6546 -5.58275,21.0827 -8.50016,40.4548 -5.33092,63.9612 3.14917,23.4014 -14.09346,47.0549 -8.88846,71.065 5.8768,27.0854 3.5578,52.617 3.5578,83.501 v 33.7593 c -2.26595,10.3155 1.33125,28.4805 -1.77414,40.874 -2.67717,10.6932 -9.31873,26.2034 -10.66208,33.7591 v 46.1843 c -2.90712,12.2781 -8.14302,31.5029 -7.09347,42.637 1.65826,17.7347 -6.93666,37.0334 -10.66209,49.7416 -1.18705,14.2088 -2.37153,28.4282 -3.54596,42.637 -11.34394,35.6901 -35.10222,67.0148 -51.53605,99.4937 -5.23616,10.3364 -0.12878,24.9021 -3.54571,39.0903 -1.74066,7.2199 -5.42567,17.6405 -7.10479,24.8704 -1.14329,4.9637 0.23176,11.8373 1.78444,14.2091 2.07798,14.8592 19.55055,19.4769 26.64427,30.2015 3.55755,10.6724 7.1048,21.324 10.66209,31.9861 7.8917,19.1617 16.98977,41.2519 24.87092,60.4137 21.17663,51.4101 36.74966,100.5955 58.63003,151.0297 6.39076,14.71248 12.44576,35.33344 21.3131,49.73101 2.89528,4.70108 8.60523,8.37424 10.66209,14.20908 6.31713,17.97623 0.63087,38.68062 5.33066,58.62952 8.48987,36.06808 14.65996,70.71941 23.09755,106.59823 v 23.10785 c 0,52.18646 -27.75666,65.67125 -47.96846,95.93591 -9.27677,13.88381 -12.3304,28.51264 -17.76611,46.19506 -3.07372,10.00062 -9.31874,28.53277 -5.33092,44.41015 7.85977,31.28278 22.08971,58.43073 33.74856,85.28512 10.55678,24.29335 17.74526,46.73994 28.42846,71.05469 6.55865,14.95399 19.81269,30.75797 24.88121,46.19455 0.5871,49.75213 1.18448,99.49347 1.77157,149.2458 0.0514,22.92942 4.47037,42.89915 8.88846,62.18737 5.62498,24.60824 0.12878,53.120681 5.33092,76.396101 1.18705,28.428249 2.36123,56.8564337 3.54596,85.274332 6.16005,18.920756 22.72985,33.738298 33.75912,47.978773 7.47173,0 12.0263,-0.396225 15.99275,-3.557833 4.09288,0.574018 4.40729,0.816262 7.10454,1.771583 -0.63859,5.792376 -5.96049,18.920755 -8.88847,23.087022 -2.86359,1.856479 -11.32281,1.784409 -14.20882,3.557516 -9.41298,8.006786 -10.34717,26.623136 -23.09754,33.769666 -5.91826,1.18709 -11.8476,2.37157 -17.76586,3.55783 -8.77311,4.48065 -15.32146,15.56218 -23.09755,21.31309 -13.34827,9.86435 -28.63806,15.25809 -42.63702,24.88147 -4.99515,3.41902 -8.41648,9.02497 -14.20883,12.43549 -1.09177,13.55813 -4.55431,23.84195 -3.55755,35.53249 9.79099,3.43083 22.3418,2.20412 33.75912,5.33113 41.94437,11.45928 113.18831,19.59205 163.45439,7.11458 14.99598,-3.72439 29.69817,-13.76799 42.63729,-17.76611 13.62147,0.60005 27.24243,1.18708 40.86366,1.78447 -0.20599,6.54781 -0.77764,15.70949 1.77156,19.52893 v 3.55777 c 99.47283,21.46015 212.4299,-27.67269 250.51288,-85.27376 11.75309,-17.76668 16.22346,-40.6121 24.87065,-60.41426 7.81806,-17.871144 23.26492,-33.433893 28.42821,-53.309653 35.42794,2.875425 83.846764,8.584111 111.929141,21.323949 3.010357,8.395333 3.863193,20.022248 8.888455,26.644538 4.648849,6.925806 11.280853,7.461156 17.755829,12.445716 25.2903885,0.1543 35.7423445,-15.226974 42.64758,-33.748584 8.290307,1.184484 16.580615,2.371572 24.88121,3.537768 C 67.297833,71.145729 77.875768,36.914119 90.993289,11.749392 92.703089,8.4771708 98.905596,2.2838707 99.881744,-0.68603825 99.281692,-6.614871 98.707611,-12.533671 98.110225,-18.452154 111.86787,-61.719025 151.26253,-89.822039 124.75426,-151.70526 c 37.13846,-22.04801 2.39208,-37.12767 8.86756,-63.96067 z M -752.92522,-1045.38 c -16.182,-39.2476 -33.3291,-81.2654 -49.75212,-120.8071 -6.78988,-16.3705 -8.79397,-37.1274 -19.53974,-49.7521 v -3.5575 c 6.30682,2.9787 14.6391,6.0552 19.53974,10.6724 11.18635,-0.6 40.89507,-12.7084 46.19432,-19.5398 9.63365,14.5132 2.61383,52.2916 7.1048,72.8386 5.65613,25.8574 0.98878,55.4294 7.10428,83.501 5.25727,24.1362 7.26187,55.6289 7.10428,81.73758 -10.81916,-13.54758 -10.79805,-38.20868 -17.75556,-55.09338 z m 655.601952,307.37984 c -12.425142,-6.3385 -25.542662,-13.89417 -40.863892,-17.76637 -10.13706,-2.56208 -25.71008,-0.0102 -33.75886,-1.77157 -13.03362,-2.84403 -34.89287,1.19735 -46.19457,3.55755 h -51.52576 c -3.94636,0 -15.18498,2.01361 -15.98244,1.77414 -2.95887,-3.55781 -5.91852,-7.1151 -8.88847,-10.67265 -8.51046,-4.81644 -47.84177,-9.00382 -53.29911,-3.5457 -3.65283,-0.70296 -3.43061,-0.44029 -5.34122,-1.77414 -4.37612,-5.66721 -2.26595,-15.61527 -5.32036,-23.10785 -4.09288,-9.99028 -12.40404,-18.15493 -17.76663,-26.64427 -0.59738,-0.59999 -1.18448,-1.18706 -1.77156,-1.78445 4.14515,-2.95887 8.2903,-5.90822 12.43545,-8.87816 0.23177,-16.74824 4.11374,-42.16504 0,-49.75212 1.59389,-18.62667 18.75284,-22.90829 26.64428,-35.5222 18.83678,-30.13874 29.41493,-66.2802 49.75238,-94.17285 16.72713,0.206 75.30463,4.5227 85.27406,-1.7844 h 67.51824 c -1.53209,1.1664 -5.57219,2.4024 -7.10454,3.5578 -1.10208,1.8256 8.21692,52.10228 10.65153,62.18733 11.50129,47.35922 11.36477,102.47368 23.10782,147.47219 4.86925,18.71061 2.82399,40.99988 12.435493,55.07274 z"
       id="path4" />
  </g>
</svg>
