<?xml version="1.0" encoding="UTF-8" standalone="no"?>
<svg
   xmlns:dc="http://purl.org/dc/elements/1.1/"
   xmlns:cc="http://creativecommons.org/ns#"
   xmlns:rdf="http://www.w3.org/1999/02/22-rdf-syntax-ns#"
   xmlns:svg="http://www.w3.org/2000/svg"
   xmlns="http://www.w3.org/2000/svg"
   xmlns:sodipodi="http://sodipodi.sourceforge.net/DTD/sodipodi-0.dtd"
   xmlns:inkscape="http://www.inkscape.org/namespaces/inkscape"
   version="1.1"
   width="908.59137"
   height="1034.3335"
   viewBox="0 0 908.59137 1034.3335"
   id="svg7"
   sodipodi:docname="alone_moving_male15.svg"
   inkscape:version="1.0.2 (e86c870879, 2021-01-15)">
  <metadata
     id="metadata13">
    <rdf:RDF>
      <cc:Work
         rdf:about="">
        <dc:format>image/svg+xml</dc:format>
        <dc:type
           rdf:resource="http://purl.org/dc/dcmitype/StillImage" />
        <dc:title></dc:title>
      </cc:Work>
    </rdf:RDF>
  </metadata>
  <defs
     id="defs11" />
  <sodipodi:namedview
     pagecolor="#ffffff"
     bordercolor="#666666"
     borderopacity="1"
     objecttolerance="10"
     gridtolerance="10"
     guidetolerance="10"
     inkscape:pageopacity="0"
     inkscape:pageshadow="2"
     inkscape:window-width="1920"
     inkscape:window-height="997"
     id="namedview9"
     showgrid="false"
     fit-margin-top="0"
     fit-margin-left="0"
     fit-margin-right="0"
     fit-margin-bottom="0"
     inkscape:zoom="0.24180328"
     inkscape:cx="425.31963"
     inkscape:cy="481.96073"
     inkscape:window-x="0"
     inkscape:window-y="0"
     inkscape:window-maximized="1"
     inkscape:current-layer="svg7"
     inkscape:document-rotation="0" />
  <rect
     style="fill:#ffffff;stroke-width:5.66929;stroke-linecap:square;stroke-linejoin:round;stroke-dasharray:11.3386, 11.3386"
     id="rect832"
     width="908.59137"
     height="1034.3335"
     x="0"
     y="0" />
  <g
     id="layer1"
     transform="translate(125.31963,50.497263)">
    <g
       style="fill:#000000;fill-opacity:1;stroke-linejoin:miter"
       id="g4">
      <path
         d="m 204.99817,345.225 c 0.41064,0 0.71599,0.84357 1.03423,2.5994 0.56005,2.91052 6.62165,14.17432 10.99134,20.4684 l 2.58216,3.72496 -1.33509,1.89978 c -0.76422,0.98376 -1.46466,1.90161 -1.52765,2.03211 -0.0118,0.0246 -0.0857,0.0363 -0.21249,0.0363 -0.54805,0 -2.08527,-0.21869 -3.88089,-0.5618 -1.39943,-0.23393 -2.93562,-0.38323 -4.08565,-0.38323 -0.61297,0 -1.11624,0.0424 -1.4306,0.13702 -2.13251,0.54918 -3.58246,3.48816 -3.52918,7.24902 0.0386,2.72354 0.23774,3.04496 1.99677,3.60366 1.10779,0.37354 1.96094,1.07472 1.96735,1.5287 0.008,0.5836 1.37555,0.95336 3.90889,1.24182 3.50714,0.33935 4.02948,0.59143 4.96209,2.32922 2.85266,5.30096 7.52384,8.55261 11.93146,8.55261 0.9442,0 1.8763,-0.14923 2.77583,-0.45947 1.12387,-0.4147 1.87619,-0.61984 2.57088,-0.61984 0.66124,0 1.27028,0.18586 2.09782,0.55368 1.17359,0.43738 4.29346,0.91186 6.95386,1.0039 1.1561,0.0452 2.03757,0.0797 2.72492,0.0797 2.20618,0 2.41259,-0.35532 3.28157,-1.85108 0.65907,-1.18078 1.04675,-1.63778 1.57232,-1.63778 0.23098,0 0.48858,0.0883 0.80756,0.24215 0.71173,0.36673 1.45528,0.56197 2.37004,0.56197 1.6042,0 3.73499,-0.60042 7.14436,-1.92916 6.77265,-2.62536 8.5763,-3.49414 8.24286,-4.13794 -0.19823,-0.25646 0.76617,-0.85388 2.05744,-1.26135 1.35533,-0.47325 2.83753,-1.1427 3.3508,-1.5393 0.65487,-0.58411 3.54413,-0.89841 8.42173,-0.89841 2.2772,0 4.9878,0.0685 8.10677,0.21006 l 7.00757,0.2251 4.40881,4.4774 c 4.67377,4.8628 14.87645,20.0243 18.61795,27.7539 1.26746,2.57356 2.5284,4.69404 2.85425,4.69404 h 0.001 c 8.2e-4,0 0.002,-4e-5 0.002,-4e-5 0.25748,0 0.3295,0.58137 0.14569,1.2951 -0.18375,0.71318 -0.112,1.29405 0.20902,1.29405 0.001,0 0.003,0 0.004,-3e-5 9e-4,0 0.002,-2e-5 0.003,-2e-5 0.32522,0 0.98324,0.8322 1.45153,1.92507 0.46763,1.02893 0.99808,1.92786 1.258,1.92786 h 0.002 c 0.19546,0 0.9263,1.2857 1.59683,2.89587 0.73529,1.60855 1.53057,2.8932 1.79107,2.8932 h 0.001 c 10e-4,-4e-5 0.003,-4e-5 0.004,-4e-5 0.32193,0 0.52298,0.57916 0.46851,1.29044 -0.0548,0.71423 -0.50043,1.3042 -0.95429,1.31067 -0.5188,0.007 -5.95734,0.66821 -12.04237,1.46777 -17.09096,2.18799 -48.88195,5.94616 -63.19377,7.44604 -3.75635,0.37769 -9.26058,0.97449 -12.30273,1.40682 -3.08453,0.40355 -5.07204,0.71553 -6.4729,0.71553 -2.89152,0 -3.28349,-1.32929 -5.66418,-5.92673 -6.4662,-12.3606 -16.57322,-29.92306 -20.34564,-35.2524 -8.20856,-11.75245 -16.34106,-18.1227 -28.66438,-22.74745 -5.542,-2.06165 -5.54102,-1.99682 -2.49982,-11.63858 2.79578,-8.6654 4.32434,-10.63281 15.60713,-19.9375 4.87201,-4.02527 9.16132,-7.97729 9.66815,-8.82777 0.49358,-0.96522 0.87134,-1.4634 1.18691,-1.4634 z m 134.26388,107.7733 c 1.74299,0 1.88849,0.5454 2.5373,1.72997 0.59645,1.02597 1.31995,1.92143 1.70987,1.92143 10e-4,0 0.002,0 0.004,-4e-5 0.002,-3e-5 0.004,-3e-5 0.006,-3e-5 0.3851,0 0.58417,0.51364 0.46347,1.09601 -0.24292,1.17089 0.15442,1.74902 2.32825,4.11766 0.59283,0.64015 1.12442,1.54066 1.129,1.86488 0.009,0.64844 1.86987,3.80005 2.65802,4.5022 0.19726,0.19177 0.93084,1.60815 1.66711,3.21924 0.73627,1.61096 1.46973,3.02734 1.73187,3.21826 0.19733,0.19177 0.7937,1.09132 1.3263,2.05652 0.93255,1.73803 5.71704,9.84204 12.35937,20.9031 1.92633,3.21533 3.52491,6.17627 3.5304,6.5653 0.005,0.38673 0.26666,0.70597 0.52453,0.70597 10e-4,0 0.003,0 0.004,-3e-5 h 0.002 c 0.58593,0 2.78613,4.50138 2.80356,5.7323 0.005,0.36789 -0.22013,0.57602 -0.53798,0.57602 -0.13036,0 -0.2763,-0.035 -0.42827,-0.10836 -0.18953,-0.068 -0.37003,-0.1019 -0.52277,-0.1019 -0.26756,0 -0.45004,0.1039 -0.44708,0.31027 0.005,0.32409 -0.83008,0.91968 -1.92603,1.38928 -1.03105,0.46865 -1.92955,1.12988 -1.92498,1.4541 0.003,0.20758 -0.23493,0.31225 -0.5944,0.31225 -0.2019,0 -0.44219,-0.033 -0.69973,-0.0994 -0.25754,-0.0663 -0.49784,-0.0993 -0.69974,-0.0993 -0.35947,0 -0.59732,0.10465 -0.5944,0.31223 0.005,0.32422 -0.8291,0.98462 -1.92492,1.45423 -1.03118,0.46838 -1.92981,1.12988 -1.92523,1.4541 0.004,0.29779 -0.29758,0.44787 -0.73105,0.44787 -0.1328,0 -0.278,-0.0141 -0.43057,-0.0423 -0.1229,-0.035 -0.25476,-0.0513 -0.39127,-0.0513 -0.58679,0 -1.25952,0.30235 -1.67446,0.72918 -0.24518,0.27327 -0.43885,0.43292 -0.63264,0.43292 -0.4118,0 -0.82418,-0.721 -1.73296,-2.60455 -0.86774,-1.73877 -1.54188,-3.54516 -1.61317,-3.99817 -0.005,-0.38723 -0.20367,-0.77151 -0.4613,-0.77151 -0.001,0 -0.002,0 -0.004,3e-5 -9.7e-4,0 -0.002,3e-5 -0.003,3e-5 -0.71613,0 -2.83867,-3.72305 -2.85519,-4.88858 -0.007,-0.51578 -0.26926,-0.8997 -0.59086,-0.8997 -0.002,0 -0.004,0 -0.006,4e-5 -0.001,0 -0.002,3e-5 -0.003,3e-5 -0.71579,0 -2.70703,-3.59547 -2.72629,-4.95523 -0.006,-0.45184 -0.26887,-0.83572 -0.52697,-0.83572 -0.001,0 -0.002,0 -0.004,3e-5 h -0.002 c -0.5863,0 -2.78058,-4.11243 -2.79616,-5.21363 -0.005,-0.32409 -0.602,-1.2886 -1.32625,-2.05667 -0.78912,-0.76697 -1.5866,-2.1178 -1.79309,-2.95788 -0.20739,-0.90503 -1.0039,-2.19092 -1.66236,-2.89502 -0.65954,-0.76892 -1.45513,-1.98987 -1.66253,-2.8949 -0.20642,-0.84021 -0.93713,-2.06213 -1.59472,-2.70129 -0.65765,-0.63941 -1.45508,-1.98999 -1.66339,-2.95984 -0.27406,-1.03382 -0.67596,-1.93616 -0.8733,-2.12782 -0.9179,-0.70043 -2.71368,-3.85302 -2.72746,-4.82555 -0.007,-0.5167 -0.271,-0.96535 -0.52946,-0.96535 -0.001,0 -0.002,2e-5 -0.003,2e-5 h -0.002 c -0.32541,0 -1.11743,-1.08945 -1.84838,-2.43824 -0.66694,-1.28772 -1.46247,-2.50878 -1.65974,-2.70056 -0.26208,-0.19079 -0.59741,-0.96435 -0.86866,-1.80347 -0.26952,-0.77175 -0.7946,-1.41105 -1.11904,-1.41105 -10e-4,0 -0.002,0 -0.004,4e-5 -0.001,0 -0.002,3e-5 -0.003,3e-5 -0.32291,0 -0.59064,-0.70797 -0.60349,-1.61294 -0.0128,-0.9054 -0.28103,-1.61365 -0.53978,-1.61365 h -0.004 c -0.5212,0 -2.37805,-3.20938 -1.99395,-3.53885 0.12865,-0.0665 3.68768,-0.63598 7.96002,-1.21545 5.04608,-0.7258 7.66888,-1.11718 9.14538,-1.11718 z m -33.21853,6.18035 c 2.12408,0 2.39413,0.31088 3.15692,1.7839 0.53339,1.03015 2.19956,4.18445 3.66562,6.95252 1.53088,2.76709 4.66028,8.49487 6.92554,12.74341 2.3302,4.24732 4.3919,7.8501 4.5891,8.04175 0.2621,0.19091 0.9947,1.54247 1.66425,3.02477 0.73371,1.54255 1.52738,2.76166 1.91735,2.76166 9e-4,0 0.002,-3e-5 0.003,-3e-5 10e-4,-3e-5 0.003,-3e-5 0.004,-3e-5 0.32152,0 0.45764,0.5799 0.27399,1.29312 -0.18372,0.71323 -0.11197,1.29422 0.20903,1.29422 0.001,0 0.003,0 0.004,-4e-5 h 0.002 c 0.2601,0 0.85413,0.83333 1.32269,1.92677 0.46768,1.02915 1.06264,1.927 1.32281,1.927 h 0.003 c 0.25974,0 0.72697,1.02951 0.93857,2.2566 0.27784,1.29321 1.07526,2.64393 1.73004,3.08863 0.71882,0.3789 1.31256,1.08385 1.31896,1.5377 0.0174,1.23093 2.21165,5.3435 2.79787,5.3435 h 0.005 c 0.25845,0 0.52202,0.4486 0.52939,0.96535 0.0183,1.29541 2.1484,5.4729 2.79941,5.4729 h 0.005 c 0.25832,0 0.52196,0.4486 0.5293,0.96535 0.008,0.5835 0.48152,1.9388 1.08076,3.03294 0.99829,1.80186 0.93628,1.99731 -0.27923,3.18186 -0.7092,0.681 -1.3526,1.0069 -2.1391,1.0069 -0.2779,0 -0.57367,-0.0407 -0.89655,-0.1208 -0.42738,-0.0942 -0.76694,-0.1412 -1.00741,-0.1412 -0.3819,0 -0.51404,0.1186 -0.35147,0.3551 0.2649,0.3854 -0.3105,0.9773 -1.14795,1.3783 -0.90125,0.46667 -1.60541,1.12524 -1.59985,1.5143 0.004,0.31473 -0.4174,0.5082 -1.02613,0.5082 -0.14362,0 -0.29764,-0.0108 -0.45892,-0.0332 -0.13047,-0.0182 -0.26545,-0.0269 -0.40207,-0.0269 -0.74802,0 -1.54548,0.26456 -1.92295,0.7085 -0.37646,0.38724 -1.12183,0.64206 -1.77473,0.64206 -0.1233,0 -0.2433,-0.009 -0.35692,-0.0281 -0.34928,-0.09 -0.62073,-0.1348 -0.7843,-0.1348 -0.17172,0 -0.22452,0.0494 -0.12348,0.1476 0.46778,0.5115 -1.04418,1.91943 -1.89337,1.91943 -0.1076,0 -0.20459,-0.0226 -0.28553,-0.0725 -0.12014,-0.0697 -0.2398,-0.1045 -0.34285,-0.1045 -0.17743,0 -0.30573,0.10306 -0.30283,0.30814 0.005,0.32436 -0.50775,0.78566 -1.0885,0.98826 -0.64667,0.13894 -1.6138,0.5418 -2.19376,0.8093 -0.15539,0.0623 -0.30008,0.0955 -0.43863,0.0955 -0.60879,0 -1.09933,-0.6409 -1.86209,-2.2679 -0.66818,-1.47917 -1.39644,-2.6346 -1.72171,-2.6346 h -0.002 c -0.002,0 -0.004,4e-5 -0.005,4e-5 -0.25758,0 -0.5169,-0.25444 -0.52144,-0.57634 -0.012,-0.8429 -1.68176,-4.2567 -4.94183,-10.0475 -1.59663,-2.83093 -3.99523,-7.3369 -5.39471,-9.9762 -1.39942,-2.63928 -2.72932,-4.9552 -2.92658,-5.14697 -1.04944,-0.82825 -6.79776,-12.87485 -6.48184,-13.46298 0.2514,-0.38883 0.0587,-0.70785 -0.3857,-0.70785 -0.004,0 -0.009,2e-5 -0.0134,8e-5 -0.002,2e-5 -0.003,2e-5 -0.005,2e-5 -0.91116,0 -3.15603,-3.3954 -3.17718,-4.88405 -0.007,-0.51615 -0.26972,-0.9003 -0.52783,-0.9003 -0.001,0 -0.003,0 -0.004,3e-5 h -0.002 c -0.65098,0 -2.78103,-4.17761 -2.79847,-5.4082 -0.007,-0.5188 -0.40374,-1.03211 -0.92529,-1.21936 -0.52147,-0.18714 -1.11981,-1.21632 -1.39477,-2.31494 -0.2751,-1.09864 -0.81214,-2.38818 -1.20765,-2.83643 -1.44671,-1.40637 -3.10827,-4.23657 -3.12298,-5.27392 -0.007,-0.51615 -0.27042,-0.96439 -0.59244,-0.96439 -0.002,0 -0.003,0 -0.005,3e-5 h -10e-4 c -0.52137,0 -2.71223,-3.85387 -2.7251,-4.76087 -0.003,-0.19457 1.16168,-0.4055 2.52337,-0.4248 1.42657,-0.0203 2.65491,-0.297 2.78088,-0.55835 0.12513,-0.32593 3.22748,-1.08349 6.98095,-1.65552 3.7536,-0.57203 8.54463,-1.15869 10.74836,-1.25488 0.68787,-0.0216 1.25644,-0.0372 1.73206,-0.0372 z m -39.24997,6.98972 1.00207,2.06127 c 1.86982,3.79993 9.45858,17.57166 9.85228,17.89039 0.2622,0.19067 0.99468,1.54247 1.66436,3.02453 0.73388,1.54321 1.52786,2.76244 1.85318,2.76244 h 0.002 c 0.002,-2e-5 0.004,-2e-5 0.006,-2e-5 0.32087,0 0.51783,0.38402 0.39454,0.77262 -0.18064,0.97424 2.20551,5.0175 2.92206,5.0175 9.2e-4,0 0.002,-2e-5 0.003,-2e-5 10e-4,0 0.002,-3e-5 0.003,-3e-5 0.25833,0 0.52203,0.44867 0.52933,0.96525 0.0183,1.29546 2.14837,5.47308 2.79941,5.47308 h 0.002 c 0.001,-3e-5 0.002,-3e-5 0.003,-3e-5 0.25833,0 0.52194,0.44873 0.52929,0.96525 0.0165,1.16612 2.14945,5.47484 2.67044,5.47484 h 0.003 c 0.26014,0 0.8591,1.15762 1.33338,2.64026 0.53998,1.484 1.33649,2.7698 1.79297,2.9579 0.45673,0.1881 0.85505,0.83104 0.8642,1.47935 0.0101,0.71338 0.34442,1.42215 0.67138,1.61205 0.39173,0.189 0.66224,0.9634 0.67231,1.6768 0.01,0.70743 0.46402,1.21726 1.04101,1.21726 0.005,0 0.009,-6e-5 0.014,-1.2e-4 0.005,-4e-5 0.0104,-1.4e-4 0.0156,-1.4e-4 0.57389,0 0.89815,0.447 0.84295,1.09047 -0.12047,0.65027 0.48524,2.19836 1.2807,3.41919 0.7956,1.22104 1.66243,2.89504 1.868,3.67041 0.27053,0.83683 0.6673,1.47853 0.9267,1.47853 h 0.006 c 0.3241,0 0.78457,0.64024 0.9894,1.4127 0.26954,0.7096 1.3354,2.7051 2.33204,4.3772 3.38598,5.52966 3.51104,5.2036 -3.88617,9.5239 -3.66559,2.1924 -6.88202,4.05386 -7.26923,4.1891 -0.32234,0.1343 -0.83471,0.5956 -1.08941,0.9235 -0.0578,0.0894 -0.12308,0.1318 -0.19257,0.1318 -0.23563,0 -0.52023,-0.4878 -0.73186,-1.2861 -0.27406,-1.03384 -1.07246,-2.44936 -1.7309,-3.1536 -0.6595,-0.76866 -1.39015,-1.9907 -1.66157,-2.82994 -0.20648,-0.84036 -1.06963,-2.25476 -1.92548,-3.15066 -0.85577,-0.896 -1.58752,-2.1826 -1.59667,-2.83103 -0.0101,-0.71077 -0.27491,-1.22473 -0.53338,-1.22473 h -0.005 c -0.32532,0 -1.11928,-1.21924 -1.8533,-2.76244 -0.66956,-1.4823 -1.40204,-2.83376 -1.59943,-3.0255 -0.91975,-0.8301 -2.64978,-3.9187 -2.66265,-4.82657 -0.007,-0.51613 -0.2705,-0.96443 -0.59254,-0.96443 -0.002,0 -0.003,10e-5 -0.005,10e-5 h -10e-4 c -0.65298,0 -5.02653,-6.9346 -5.70569,-9.1287 -0.27051,-0.7744 -0.87054,-1.9332 -1.26704,-2.44664 -1.05583,-1.28196 -7.23137,-11.44176 -11.82222,-19.61334 -1.99585,-3.53872 -5.45044,-9.32682 -7.64075,-12.86295 -2.12555,-3.53697 -4.11865,-6.88122 -4.38531,-7.39624 -0.33161,-0.51416 -1.19942,-2.2528 -2.06539,-3.86206 -0.8659,-1.60901 -1.46966,-3.02747 -1.34179,-3.15893 0.12774,-0.13147 2.06848,-0.48328 4.26942,-0.77394 2.26587,-0.2915 7.31988,-0.62267 11.20954,-0.74254 z m -75.58692,-52.43464 2.10897,2.36963 c 1.1856,1.28028 3.90478,5.52249 6.034,9.31876 2.12918,3.7962 4.52336,7.97784 5.31895,9.19878 3.31653,5.20643 14.28943,24.3781 14.29865,25.0264 0.005,0.38633 0.26586,0.70503 0.58691,0.70503 0.002,0 0.005,-3e-5 0.007,-7e-5 9.8e-4,0 0.002,-3e-5 0.003,-3e-5 0.3248,0 0.9171,0.76807 1.31873,1.73233 0.40375,1.03211 1.53546,3.09144 2.59692,4.7627 5.44216,8.74316 22.72598,38.46158 22.73514,39.11014 0.005,0.3862 0.26575,0.70514 0.58687,0.70514 0.002,0 0.005,-4e-5 0.007,-6e-5 10e-4,-3e-5 0.003,-3e-5 0.004,-3e-5 0.32459,0 0.84812,0.57452 1.05194,1.28201 0.2696,0.70959 2.53113,4.69874 5.05396,8.81374 2.52289,4.11497 4.5863,7.84727 4.59369,8.36607 0.006,0.45068 0.26758,0.8338 0.65213,0.8338 0.003,0 0.005,0 0.008,-7e-5 h 0.003 c 0.32404,0 0.78604,0.70527 1.0574,1.60645 0.20686,0.90271 0.66901,1.60815 0.92878,1.60815 h 0.006 c 0.324,0 0.78346,0.5754 0.98726,1.2831 0.40472,1.0969 5.25769,9.45946 9.37256,16.08117 0.53161,0.90053 1.52918,2.63733 2.13012,3.86123 0.60102,1.2237 1.33094,2.3807 1.5282,2.5726 0.39362,0.3186 2.12183,3.27765 3.19242,5.59723 0.39934,0.83387 0.9888,1.47211 1.37794,1.47211 0.002,0 0.003,-4e-5 0.005,-4e-5 0.003,-10e-5 0.006,-10e-5 0.008,-10e-5 0.44795,0 0.64653,0.5134 0.5259,1.0952 -0.1205,0.6501 0.2824,1.6173 0.8103,2.2583 1.8441,1.98447 2.30895,2.7561 3.6472,5.65573 0.73628,1.61087 1.66792,3.28394 2.12825,3.73147 0.46045,0.4475 0.86145,1.28477 0.86785,1.7386 0.007,0.5188 0.53705,1.2897 1.19196,1.7344 0.65484,0.4447 1.44952,1.60083 1.72364,2.6345 0.20837,0.97 1.00567,2.3207 1.72912,3.0237 0.72328,0.7034 1.25305,1.4741 1.19281,1.7992 -0.12421,0.39087 1.93567,3.864 2.78961,4.6301 0.19726,0.1918 0.92986,1.54336 1.59943,3.02554 0.73419,1.54382 1.46386,2.76426 1.72423,2.76426 h 0.002 c 0.26012,0 0.85912,1.15755 1.33233,2.57546 0.47424,1.42014 1.2735,2.90039 1.79773,3.2821 0.45941,0.38269 0.85669,0.9607 0.86034,1.2201 0.005,0.32424 1.86622,3.54064 4.05848,7.2063 2.25602,3.59994 4.5159,7.45929 5.05026,8.55424 0.46851,1.031 1.20111,2.3826 1.53272,2.89687 2.3858,3.59813 8.42981,13.62988 9.5653,15.94848 2.43448,4.82575 2.66314,5.2688 3.47696,5.2688 0.0116,0 0.0233,-5e-5 0.0351,-2.5e-4 0.002,0 0.004,-5e-5 0.006,-5e-5 0.45144,0 0.84708,0.7052 0.85898,1.54435 0.0129,0.90786 0.48242,2.0038 1.00952,2.58 0.526,0.51145 0.98999,1.21836 0.99548,1.6074 0.005,0.38574 0.32886,0.7032 0.71356,0.7032 0.003,0 0.007,0 0.01,-1e-4 0.003,-4e-5 0.005,-4e-5 0.008,-4e-5 0.38373,0 0.58005,0.38354 0.45673,0.77179 -0.1881,0.45665 0.0166,1.16712 0.411,1.55065 2.10633,2.1753 3.10005,3.65284 2.85,4.30494 -0.12434,0.39086 0.27672,1.22826 0.80376,1.80456 2.30536,2.4967 2.76928,3.2035 2.38854,3.79273 -0.18734,0.38827 -0.1216,0.64567 0.19517,0.64567 0.003,0 0.006,0 0.009,-4e-5 h 0.003 c 0.32528,0 0.9832,0.83214 1.4515,1.92494 0.46757,1.02904 0.99802,1.92784 1.25794,1.92784 h 0.002 c 0.19543,0 0.92624,1.28576 1.59704,2.896 0.73517,1.6087 1.46582,2.89406 1.72614,2.89406 h 0.002 c 0.26015,0 0.8571,1.0277 1.3276,2.25096 0.4698,1.22137 1.25866,2.24484 1.77743,2.24484 0.002,0 0.004,-10e-5 0.006,-10e-5 0.003,-5e-5 0.006,-5e-5 0.009,-5e-5 0.51442,0 0.9083,0.64045 0.9202,1.47855 0.0202,1.42666 1.61604,4.1928 2.85993,5.01834 0.32801,0.25466 0.46583,0.83642 0.34272,1.29211 -0.12342,0.45581 0.2138,1.35915 0.74072,1.9353 2.37109,2.56055 2.57025,2.88208 3.25171,5.20715 0.13837,0.6437 0.5318,1.15534 0.85519,1.15534 10e-4,0 0.003,-4e-5 0.004,-4e-5 0.002,0 0.003,-10e-5 0.005,-10e-5 0.32202,0 0.58517,0.4483 0.59247,0.96444 0.007,0.51566 0.33413,0.96256 0.72012,0.96256 0.002,0 0.005,0 0.007,-4e-5 0.003,-6e-5 0.005,-6e-5 0.008,-6e-5 0.38367,0 0.57962,0.38446 0.39374,0.9024 -0.18714,0.52137 -0.17975,1.04017 0.14618,1.1653 0.39178,0.18895 13.54318,22.0537 15.8743,26.36595 0.46752,1.02845 1.12505,1.79625 1.38558,1.79625 h 0.005 c 0.3237,0 0.72196,0.77083 0.9296,1.73793 0.20936,1.03487 0.94202,2.38642 1.60046,3.09052 0.65845,0.7041 1.71985,2.37525 2.3219,3.66382 0.66602,1.34903 1.45737,2.43823 1.8476,2.43823 h 0.003 c 0.002,0 0.004,-6e-5 0.006,-6e-5 0.32235,0 0.64816,0.38256 0.6546,0.8338 0.0192,1.35993 2.0105,4.9552 2.72623,4.9552 h 0.003 c 0.002,0 0.003,-4e-5 0.005,-4e-5 0.32202,0 0.58529,0.4484 0.59259,0.9645 0.0148,1.0375 1.8208,4.9032 2.60705,5.47585 0.19727,0.19175 0.99292,1.41272 1.65967,2.70045 0.73068,1.3481 1.52231,2.43724 1.91242,2.43724 h 0.003 c 0.002,0 0.003,-4e-5 0.005,-4e-5 0.32065,0 0.45428,0.4501 0.20358,0.97 -0.1864,0.5863 0.15149,1.55446 0.81015,2.25844 1.90979,2.04822 2.4397,2.81906 3.71118,5.58986 0.73456,1.5444 1.46444,2.76524 1.65988,2.76524 h 10e-4 c 0.19552,0 0.92637,1.28571 1.59701,2.89586 0.73493,1.60817 1.59464,2.8913 1.92016,2.8913 h 0.002 c 0.003,-5e-5 0.006,-5e-5 0.008,-5e-5 0.38263,0 0.51449,0.3855 0.32858,0.90325 -0.18726,0.5216 -0.0499,1.03846 0.40649,1.2266 0.78186,0.24826 1.67115,8.0832 1.9231,16.70554 0.12463,4.21376 0.0615,4.34446 -1.93469,5.34556 l -2.12513,1.0679 -4.07812,-4.0281 c -2.23682,-2.23827 -4.53491,-4.2163 -5.12122,-4.4026 -0.52233,-0.25205 -0.98559,-0.8939 -0.99292,-1.4127 -0.006,-0.4511 -0.20367,-0.7057 -0.47134,-0.7057 -0.0786,0 -0.16333,0.022 -0.25107,0.0674 -0.0852,0.0585 -0.19613,0.0857 -0.3258,0.0857 -0.4571,0 -1.14683,-0.338 -1.76026,-0.8345 -0.78807,-0.7021 -1.90149,-1.4647 -2.42382,-1.71665 -0.52152,-0.18715 -1.82963,-0.94705 -2.94205,-1.64465 -5.16944,-3.2344 -15.66242,-6.8473 -23.78797,-8.15894 -2.71328,-0.44593 -6.72531,-0.66056 -10.8702,-0.66056 -5.28919,0 -10.79477,0.3496 -14.09423,1.01444 -10.41215,2.09326 -18.28068,5.18811 -25.9262,10.29026 -2.27166,1.54116 -4.43673,2.68764 -5.0942,2.68764 -0.049,0 -0.0896,-0.006 -0.1213,-0.0194 -0.0558,-0.0177 -0.11146,-0.0262 -0.16587,-0.0262 -0.32681,0 -0.60843,0.30579 -0.60213,0.75045 0.0162,1.1413 -4.0519,4.6215 -5.2262,4.6215 -0.0935,0 -0.1687,-0.0221 -0.222,-0.0691 -0.11398,-0.0885 -0.18813,-0.13062 -0.22796,-0.13165 h -0.003 c -0.0706,0.002 -0.024,0.1442 0.10477,0.3929 0.26593,0.4502 -0.87647,2.2175 -2.60235,3.99314 -1.66114,1.77456 -3.70307,4.13843 -4.52937,5.31751 -0.80253,1.00311 -1.60876,1.74375 -1.95346,1.74375 -0.0385,0 -0.0713,-0.009 -0.0976,-0.0284 -0.0293,-0.0141 -0.056,-0.021 -0.08,-0.021 -0.19104,0 -0.21674,0.42926 -0.0351,1.06026 0.24827,0.8724 -0.12216,1.3161 -0.7023,1.3161 -0.53662,0 -1.2527,-0.37965 -1.8246,-1.1507 -0.46315,-0.64186 -1.64503,-1.6627 -2.56294,-2.3633 -0.91786,-0.7003 -4.20136,-3.57226 -7.28949,-6.3822 l -5.64997,-5.1084 0.38276,-9.6041 c 0.60809,-12.007 -0.23529,-16.5999 -4.57694,-25.48824 -3.67474,-7.60096 -4.00732,-8.18006 -10.24493,-18.14426 l -4.91052,-7.8428 0.62829,-10.58044 c 0.37116,-5.84226 0.48481,-11.55116 0.27283,-12.78052 -0.27679,-1.22839 -0.77344,-8.80934 -1.21344,-16.97498 -0.78485,-14.19236 -0.73108,-14.97131 0.60449,-21.41106 2.24927,-10.6034 3.08393,-43.2378 1.47721,-55.9268 -2.25464,-17.21975 -5.55086,-30.1442 -11.3351,-44.71963 -1.00665,-2.38537 -1.91028,-6.65297 -2.42572,-10.99127 -1.48071,-12.9501 -3.51929,-24.07654 -5.89722,-31.6958 -1.29162,-4.1973 -2.8548,-9.2339 -3.46594,-11.1709 -0.61109,-1.93714 -1.49005,-4.45398 -1.9585,-5.485 -1.2707,-2.70592 -2.83381,-7.74254 -3.80134,-11.94445 -0.96662,-4.13711 -2.31213,-7.55532 -6.91779,-16.76455 -1.80408,-3.73596 -4.21551,-9.14978 -5.22955,-12.05384 -2.70129,-7.54992 -7.74879,-15.90966 -13.55159,-22.63723 -3.23145,-3.78063 -6.30066,-9.83373 -6.3374,-12.42749 -0.0294,-2.07489 0.94795,-10.90914 1.55043,-14.1605 z m 25.0595,-396.889784 c -0.0561,0 -0.10222,0.0022 -0.13791,0.0067 -1.74988,0.08997 -17.58766,3.751715 -21.91377,5.110235 -5.748,1.702761 -11.48592,4.118902 -18.63114,7.917002 -5.21356,2.79773 -7.39624,4.38526 -11.55035,8.72474 -5.56044,5.786138 -6.12752,6.961557 -8.50099,17.95571 -1.5246,6.83167 -1.44051,17.337164 0.10307,30.15676 0.65442,4.98462 1.32068,10.81214 1.61133,13.01307 l 0.44421,3.885257 -2.64752,0.81567 c -1.48492,0.4751 -3.54426,1.60694 -4.63368,2.53016 -2.5625,2.24158 -6.8197,8.46326 -10.16449,14.99635 -1.51569,2.87501 -2.77863,5.29249 -2.90649,5.4242 -0.25385,0.3927 -12.92074,3.55554 -35.15776,8.73488 -2.650336,0.62122 -8.337165,2.06396 -12.60298,3.09729 -4.264954,1.09827 -11.24495,2.81847 -15.51083,3.85179 -7.95002,1.92859 -13.947274,4.34839 -25.342606,10.28211 -13.004528,6.79982 -13.261181,6.99794 -44.355629,37.01297 -10.4926847,10.1366 -26.296528,25.34216 -32.887171,31.66198 -4.544069,4.27992 -8.864264,10.63222 -13.726634,19.91078 -1.450926,2.87403 -2.905516,5.48916 -3.224246,5.88259 -0.25476,0.328 -3.154784,6.20617 -6.431034,12.99768 -4.91437,10.18713 -5.916935,12.66589 -5.44379,14.02112 0.272278,0.90405 1.234314,4.71707 2.00092,8.4678 2.424804,10.92627 2.625793,11.37755 5.643436,13.79932 1.508911,1.21069 5.772404,4.58763 9.445864,7.51893 4.32929,3.4409 9.130807,8.17235 13.811841,13.55382 17.606275,20.43936 37.029934,40.98294 41.613067,44.03092 l 1.506959,1.0812 -2.799807,3.80126 c -16.4187119,22.15416 -23.4973905,44.37034 -23.158706,72.8374 0.139709,9.8561 0.281311,10.69728 2.2490245,16.8307 2.9817525,9.03748 5.4411654,17.82312 6.6947062,23.90186 5.1476473,24.57217 7.3501633,51.84549 5.9638707,73.00809 C 5.3652377,558.0782 4.73511,568.5288 4.2700214,576.9018 l -0.8214724,15.2529 -5.3678004,5.6536 c -2.8654556,3.0122 -5.308393,5.4019 -5.5515089,5.4019 -0.00628,0 -0.011098,-0.002 -0.014412,-0.005 -0.021868,-0.0197 -0.045391,-0.0294 -0.070476,-0.0294 -1.029906,0 -4.6928657,16.29074 -4.6291707,20.7851 0.01775,1.25354 -0.188172,2.23529 -0.47605,2.23529 -0.02486,0 -0.05033,-0.007 -0.07632,-0.0224 -0.04492,-0.0349 -0.09202,-0.0515 -0.140479,-0.0515 -0.305266,0 -0.664712,0.65912 -0.875879,1.55776 -0.179809,1.04026 -0.810791,2.28135 -1.32306,2.7425 -0.513244,0.39664 -0.894043,0.98575 -0.889465,1.30984 0.0046,0.32422 -1.449036,3.00391 -3.159426,5.88186 -1.775085,2.87876 -3.165832,5.42796 -3.16217,5.68724 0.0028,0.19456 -1.194275,2.67602 -2.580447,5.54931 -2.459838,4.89915 -3.522705,7.70301 -8.133607,20.9989 -3.922364,11.53515 -6.0481,26.28775 -5.834843,41.33115 l 0.105713,7.45694 -5.73474,7.21536 c -3.55089,4.42484 -6.0129,6.975 -6.729253,6.975 -0.01649,0 -0.03206,-0.001 -0.04669,-0.004 -0.125805,-0.0233 -0.234448,-0.0347 -0.325939,-0.0347 -0.381406,0 -0.464666,0.1985 -0.250233,0.5616 0.264831,0.3855 -0.09851,2.2065 -0.785095,4.09714 -1.686402,4.56372 -4.392458,14.97926 -5.348145,20.76489 -0.596003,3.70527 -1.661556,6.31452 -4.822873,12.06657 -3.54199,6.34133 -4.23047,8.1021 -5.1889,13.6934 -1.74347,9.6882 -1.50025,13.1222 0.88281,16.52586 2.381225,3.27381 6.302124,5.3584 11.957218,6.2511 l 4.030334,0.65624 0.117248,3.6951 c 0.0285,2.0101 0.35962,7.0642 0.677796,11.21055 0.556824,7.25598 0.628052,7.70899 2.470337,9.5636 5.133117,5.24548 10.993839,6.91355 33.213204,9.64675 5.2738557,0.67735 11.9100373,1 18.0507899,1 7.6283711,0 14.4921971,-0.49795 17.0300931,-1.43215 3.677675,-1.34935 5.726076,-3.25925 6.338564,-5.79725 0.427306,-1.88696 -1.781922,-11.3246 -4.214602,-18.2297 -1.35022,-3.74246 -2.278137,-5.15616 -5.828371,-8.54324 -2.366517,-2.23636 -5.929628,-6.53113 -7.9829133,-9.55029 l -3.7741713,-5.45937 1.3989257,-1.96556 c 0.6985479,-1.04761 3.0609766,-3.67517 5.2371239,-5.71654 2.110414,-2.10524 4.983279,-5.324 6.320254,-7.094 1.271059,-1.834 4.517336,-6.16053 7.191105,-9.7007 3.880981,-5.3083 4.892763,-7.1387 5.434087,-10.1297 0.4245,-2.0813 1.413268,-5.5327 2.22406,-7.8142 0.876528,-2.2174 2.18396,-6.0625 3.057738,-8.4746 0.808966,-2.411 4.105963,-12.3159 7.34174,-21.96046 3.29975,-9.71034 8.79542,-24.64034 12.305307,-33.25094 6.957645,-17.0262 9.075933,-23.15256 15.275273,-43.3458 2.23054,-7.3605 4.78791,-14.53076 5.61066,-15.96936 0.88764,-1.43934 1.897526,-3.39944 2.271854,-4.44224 0.375246,-0.9783 0.947816,-1.76467 1.272036,-1.7692 0.324156,-0.005 0.57806,-0.3973 0.57068,-0.916 -0.0073,-0.5188 0.36975,-1.3673 0.81726,-1.82764 0.38171,-0.52426 1.39532,-2.22496 2.216184,-3.79321 0.820006,-1.63295 3.405896,-6.79305 5.804706,-11.43185 4.92077,-9.7334 7.30115,-15.6689 7.7602,-19.8911 0.41162,-2.98925 3.6792,-14.969 7.46277,-27.1508 1.92364,-6.1238 3.08581,-11.06934 6.857,-28.6986 0.54773,-2.5371 1.16577,-4.6863 1.36035,-4.689 h 5.9e-4 c 0.39216,0 4.03231,5.39156 4.63497,6.74416 0.13428,0.32239 0.46484,0.77174 0.66211,0.9635 0.26221,0.1908 2.1145,2.75879 4.16791,5.77784 1.98841,3.02014 6.35993,9.4437 9.73682,14.32495 3.31195,4.8822 6.03119,9.12402 6.03674,9.51305 0.005,0.32136 0.19925,0.57636 0.5183,0.57636 0.003,0 0.006,0 0.009,-6e-5 h 6.7e-4 c 0.26141,0 1.78195,2.1173 3.43739,4.6209 1.59302,2.5718 3.11664,4.8201 3.37873,5.011 0.19726,0.19165 1.18921,1.5397 2.11816,3.01806 1.72357,2.63474 2.34113,5.02564 6.4007,26.04624 2.51548,12.74093 3.00157,15.004 5.39787,23.92026 2.5307,9.2384 7.50259,30.57049 8.76816,37.49214 0.35174,1.9408 1.01434,7.50895 1.40759,12.3677 0.39319,4.85854 1.69904,14.6332 2.90161,21.68544 4.2591,25.94703 5.67548,34.35816 6.65949,39.7273 0.77124,4.07496 0.87469,6.79746 0.53619,10.36926 -1.25838,11.88654 -0.16316,34.2463 2.411,51.1373 0.64154,4.0766 1.44073,14.70175 1.76117,23.5825 l 0.6828,16.13945 3.85876,2.28015 3.85968,2.345 21.14076,-0.17007 c 3.15271,-0.027 6.26737,-0.0392 9.1698,-0.0392 7.78376,0 14.04122,0.0874 15.41291,0.20959 6.36372,0.55846 21.58107,3.45581 30.75892,5.79026 l 4.94733,1.2919 0.51452,4.2732 c 1.0266,8.4099 7.29758,25.94 9.31287,25.94 0.002,0 0.003,-7e-5 0.005,-7e-5 10e-4,0 0.003,-3e-5 0.004,-3e-5 0.32173,0 0.5218,0.5147 0.5319,1.22476 0.009,0.64844 0.7409,1.93518 1.66242,2.89478 0.92158,0.95986 1.64948,1.98716 1.6532,2.24656 0.004,0.2594 0.73168,1.28676 1.65341,2.2466 0.92145,0.95984 1.64942,1.9872 1.65314,2.2466 0.004,0.2594 0.79559,1.2208 1.84686,2.1788 0.98554,0.89406 2.1045,2.04555 2.49987,2.49404 0.98738,1.02366 6.17427,5.49011 9.9774,8.41931 3.8698,3.05835 13.27246,7.5299 20.5022,9.69738 6.53692,1.99872 13.5009,2.96057 20.48477,2.96057 16.19018,0 32.48706,-5.1692 43.81735,-14.5731 1.47504,-1.18837 2.82281,-2.1803 3.01738,-2.183 0.58363,-0.008 10.68165,-10.52844 10.6725,-11.1769 -0.005,-0.3242 0.69763,-1.1123 1.53137,-1.7727 0.83373,-0.6604 1.66016,-1.8396 1.90955,-2.5564 0.18445,-0.71617 0.88098,-1.8934 1.51928,-2.61595 0.6393,-0.65745 1.5249,-2.22665 1.9624,-3.40015 0.50123,-1.2395 1.19617,-2.5464 1.57972,-2.94103 1.08581,-1.18287 4.73682,-13.55717 5.75464,-19.53837 0.47741,-2.9253 0.85229,-8.5082 0.86291,-12.33486 0.0166,-7.97744 -0.23717,-7.58484 5.84046,-8.9032 2.13342,-0.48438 4.91247,-1.17214 6.20483,-1.51477 1.54324,-0.40917 3.10844,-0.6275 4.21851,-0.6275 0.93478,0 1.54683,0.15478 1.55143,0.48077 0.004,0.25952 0.666,1.2229 1.52074,2.05386 0.79114,0.8968 2.04896,2.6949 2.71656,4.04746 0.73013,1.28387 1.52203,2.37344 1.84753,2.37344 h 0.002 c 0.004,-10e-5 0.009,-1.5e-4 0.0128,-1.5e-4 h 0.004 c 1.2713,0.003 0.33293,2.33325 -1.27086,3.06615 -1.73962,0.80287 -1.73779,0.9326 -1.35754,4.8833 0.37484,3.6193 1.7148,6.9664 2.687,6.9664 0.002,0 0.004,-1e-4 0.006,-1e-4 h 7.5e-4 c 0.19547,0 0.92258,1.02627 1.58762,2.2476 0.72913,1.2192 1.51996,2.24375 1.84553,2.24375 h 0.006 c 0.25823,0 0.52065,0.38415 0.52806,0.90052 0.006,0.45383 0.73621,1.61093 1.65772,2.57053 0.92162,0.95986 1.6488,1.9224 1.65332,2.2466 0.004,0.2594 0.99463,1.5425 2.18115,2.8877 1.90991,2.0482 2.69335,2.4263 5.74561,2.70734 0.66589,0.0588 1.32238,0.0897 1.98352,0.0897 4.36776,0 8.93594,-1.34827 17.72937,-4.90906 4.96521,-2.01599 11.6712,-4.77004 14.95981,-6.11374 3.28869,-1.3438 6.51159,-2.7515 7.09057,-3.084 0.57897,-0.3324 2.57897,-1.07423 4.32141,-1.6826 5.55164,-1.82986 7.67224,-3.22183 8.35606,-5.3069 0.74404,-2.4102 3.1759,-4.7146 5.375,-5.1349 0.906,-0.1426 6.64675,-2.36426 12.64394,-4.78406 6.06126,-2.4856 16.6366,-6.78624 23.53711,-9.54324 13.86515,-5.57944 22.63495,-9.1412 27.08245,-11.08506 3.2876,-1.40854 37.72535,-15.19234 45.4003,-18.21954 4.64463,-1.7522 8.0575,-3.4868 18.09403,-9.2068 1.80182,-0.99803 7.01457,-3.8608 11.58442,-6.3253 4.63475,-2.46534 8.49305,-4.7899 8.55335,-5.1151 0.1261,-0.2611 0.57616,-0.5271 0.9652,-0.5326 0.5836,-0.008 11.4612,-5.86964 32.5058,-17.38825 12.1625,-6.7229 14.41455,-7.98685 21.0437,-11.58325 3.9261,-2.13087 7.4648,-4.1266 7.8483,-4.5211 0.642,-0.4633 0.16885,-1.8185 -1.9593,-5.54995 -4.45486,-7.71965 -7.1176,-12.54595 -7.6509,-13.57625 -0.2019,-0.516 -1.0659,-1.99547 -1.8617,-3.2163 -0.7955,-1.22106 -2.3911,-3.9873 -3.65356,-6.1096 -6.98401,-12.28846 -8.97984,-15.8274 -14.82849,-25.79713 -3.52395,-6.11121 -6.45435,-11.5177 -6.46265,-12.10132 -0.007,-0.51945 -0.17816,-0.82845 -0.41113,-0.82845 -0.0579,0 -0.11951,0.0191 -0.18347,0.0587 -0.0425,0.0263 -0.0897,0.0391 -0.1405,0.0391 -0.334,0 -0.82606,-0.55176 -1.1765,-1.4473 -0.40285,-0.96707 -1.40114,-2.76895 -2.13186,-3.99075 -1.72544,-2.76459 -12.81434,-20.96149 -18.65764,-30.5423 -2.32545,-3.92322 -4.4519,-7.52505 -4.71864,-8.04005 -0.2666,-0.515 -0.99746,-1.73705 -1.65966,-2.7004 -0.59656,-0.89956 -3.05176,-4.82095 -5.4403,-8.6137 -5.5745,-8.9359 -5.77455,-9.3221 -6.63966,-10.8664 -0.39917,-0.7078 -1.19654,-2.0585 -1.85874,-3.022 -0.928,-1.4136 -5.9052,-9.3853 -8.428,-13.5003 -5.5106,-9.0017 -11.3483,-18.19337 -12.00586,-18.83265 -0.46034,-0.44739 -1.05957,-1.54135 -1.33289,-2.5105 -0.18175,-0.79355 -0.56012,-1.38495 -0.82361,-1.38495 -0.037,0 -0.0718,0.0117 -0.10339,0.0361 -0.0461,0.0356 -0.0965,0.0524 -0.14978,0.0524 -0.2442,0 -0.5495,-0.35327 -0.76987,-0.8824 -0.2028,-0.5809 -0.9346,-1.86765 -1.5319,-2.832 -0.6622,-0.9634 -3.38146,-5.20545 -6.03576,-9.44825 -2.65444,-4.24295 -5.1737,-8.09851 -5.69874,-8.54505 -0.4613,-0.5123 -1.1245,-1.54065 -1.3298,-2.31604 -0.2697,-0.7716 -0.79476,-1.41086 -1.11934,-1.41086 h -0.003 c -0.002,0 -0.004,4e-5 -0.006,4e-5 -0.32159,0 -0.58337,-0.38349 -0.58978,-0.83464 -0.006,-0.454 -0.60462,-1.4832 -1.32896,-2.2511 -0.7244,-0.7681 -1.319,-1.53804 -1.32265,-1.79744 -0.004,-0.25926 -1.66321,-2.95972 -3.65271,-6.04466 -1.98951,-3.08486 -3.65184,-5.97976 -3.65734,-6.3688 -0.005,-0.33276 -0.147,-0.52417 -0.3492,-0.52417 -0.0736,0 -0.15515,0.0254 -0.2409,0.0785 -0.0642,0.0398 -0.134,0.059 -0.206,0.059 -0.28845,0 -0.6146,-0.3067 -0.77764,-0.8234 -0.47132,-1.22544 -0.86966,-1.8684 -4.57972,-7.3934 -1.32554,-1.99183 -2.45629,-3.98634 -2.46179,-4.3754 -0.004,-0.2662 -0.12732,-0.4093 -0.30798,-0.4093 -0.0833,0 -0.17877,0.0305 -0.28027,0.0933 -0.0643,0.0398 -0.13404,0.059 -0.2061,0.059 -0.2885,0 -0.61446,-0.3067 -0.7774,-0.8232 -0.47146,-1.22556 -0.80386,-1.80454 -4.6465,-7.52232 -1.3922,-2.12048 -2.7156,-3.98254 -2.9779,-4.17334 -0.45937,-0.38269 -1.91615,-2.50232 -2.51906,-3.85584 -0.93628,-1.99706 -17.55554,-26.01772 -18.14184,-26.204 -0.3262,-0.125 -0.5929,-0.64014 -0.6002,-1.15894 -0.007,-0.51623 -0.26974,-0.90042 -0.52785,-0.90042 -10e-4,0 -0.002,0 -0.004,3e-5 -7.5e-4,0 -10e-4,3e-5 -0.002,3e-5 -0.32545,0 -1.0515,-1.02548 -1.65126,-2.2465 -0.59949,-1.2206 -1.38944,-2.24477 -1.77974,-2.24477 -10e-4,0 -0.002,3e-5 -0.003,3e-5 -0.001,4e-5 -0.003,4e-5 -0.004,4e-5 -0.32283,0 -0.65167,-0.51267 -0.66163,-1.22294 -0.009,-0.64831 -0.7407,-1.93506 -1.66234,-2.8949 -0.92176,-0.95974 -2.11182,-2.56436 -2.64612,-3.65921 -0.59674,-1.02642 -1.31958,-1.85757 -1.64514,-1.85757 -8.6e-4,0 -0.002,2e-5 -0.003,2e-5 -0.003,4e-5 -0.005,7e-5 -0.008,7e-5 -0.38458,0 -0.64583,-0.38315 -0.65223,-0.8338 -0.007,-0.5188 -0.6056,-1.54797 -1.3308,-2.38087 -0.4848,-0.55672 -0.90784,-0.85354 -1.13324,-0.85354 -0.11176,0 -0.17486,0.073 -0.17276,0.22354 0.005,0.37214 -0.3612,0.5649 -1.3348,0.5649 -0.5534,0 -1.3029,-0.0623 -2.2919,-0.18928 -0.88566,-0.0831 -1.5945,-0.12455 -2.1233,-0.12455 -0.9059,0 -1.2834,0.12177 -1.11606,0.36503 0.3982,0.64294 -0.44104,0.91418 -5.55078,1.89465 -1.35886,0.21385 -2.45386,0.74829 -2.44836,1.13733 0.004,0.26288 -0.5567,0.41528 -1.5418,0.41528 -0.47285,0 -1.0435,-0.0351 -1.6966,-0.10999 -0.6147,-0.0571 -1.1697,-0.0853 -1.6274,-0.0853 -0.89635,0 -1.41966,0.1084 -1.2879,0.32115 0.1981,0.25673 -1.67296,0.93178 -4.1954,1.42152 -2.45767,0.48888 -4.5243,1.10193 -4.5188,1.49085 0.004,0.25253 -0.7021,0.39693 -1.6889,0.39693 -0.28067,0 -0.584,-0.0116 -0.90023,-0.0358 -0.41382,-0.0317 -0.80564,-0.0474 -1.15342,-0.0474 -0.85247,0 -1.44012,0.0944 -1.43753,0.27862 0.003,0.19458 -2.1936,0.80945 -4.84582,1.30095 -2.6521,0.4917 -4.84754,1.17137 -4.84204,1.5604 0.004,0.26222 -0.52481,0.38462 -1.40671,0.38462 -0.42658,0 -0.93582,-0.0286 -1.50748,-0.084 -0.66137,-0.0962 -1.26819,-0.13947 -1.75509,-0.13947 -0.70935,0 -1.1641,0.0919 -1.16193,0.24567 0.005,0.32423 -1.80285,0.9336 -4.00195,1.35388 -2.1991,0.42029 -4.1991,1.16211 -4.45288,1.55481 -0.19812,0.327 -0.75327,0.48182 -1.77612,0.48182 -0.61375,0 -1.39585,-0.0557 -2.37025,-0.16346 -0.8601,-0.0833 -1.57043,-0.12482 -2.11155,-0.12482 -0.9298,0 -1.3601,0.12256 -1.19265,0.36616 0.19898,0.32141 -1.34802,0.99194 -3.48132,1.47607 -2.13343,0.48437 -3.875,1.15747 -3.86951,1.54651 0.004,0.26373 -0.5607,0.38653 -1.55182,0.38653 -0.47094,0 -1.0382,-0.0277 -1.68658,-0.0812 -0.64395,-0.0598 -1.22238,-0.0879 -1.69502,-0.0879 -0.86193,0 -1.372,0.0936 -1.2858,0.25988 0.19896,0.32154 -1.80278,0.9336 -4.45402,1.48999 -2.6521,0.49158 -4.84766,1.17128 -4.84302,1.49548 0.003,0.19965 -0.56126,0.30894 -1.41983,0.30894 -0.5358,0 -1.18631,-0.0426 -1.88535,-0.1323 -0.89578,-0.11508 -1.58951,-0.1726 -2.08111,-0.1726 -0.75641,0 -1.03447,0.1362 -0.83417,0.40844 0.266,0.4502 -0.5067,0.85034 -1.9944,1.13074 -1.35887,0.21388 -3.04015,0.56201 -3.75072,0.76672 -0.71155,0.13976 -3.94348,0.89881 -7.17541,1.65821 -3.23304,0.69433 -8.33084,2.5177 -11.42215,4.05335 -2.78708,1.32543 -5.4206,2.33266 -6.20078,2.33266 -0.0854,0 -0.14864,-0.0121 -0.18741,-0.0371 -0.16067,-0.10385 -0.28803,-0.15387 -0.36435,-0.15478 h -0.004 c -0.10608,0.001 -0.10778,0.10223 0.0462,0.28918 0.19909,0.32141 -2.30665,1.9784 -5.52503,3.71008 -11.26666,5.86716 -23.63372,11.87937 -24.47662,11.89133 -0.002,3e-5 -0.004,3e-5 -0.006,3e-5 -0.5198,0 -1.43841,-1.02212 -2.1683,-2.36892 -0.66663,-1.2876 -1.92265,-2.95606 -2.71268,-3.78797 -0.85497,-0.83105 -1.51904,-1.92407 -1.52551,-2.37807 -0.007,-0.5187 -0.46961,-1.09596 -0.99196,-1.3479 -0.52135,-0.18727 -1.37816,-1.14784 -1.8458,-2.11415 -0.40284,-0.96705 -1.33094,-2.38085 -1.9895,-3.08495 -0.65858,-0.70386 -1.39113,-2.05555 -1.60035,-3.09034 -0.20777,-0.96744 -0.60651,-1.73876 -0.86585,-1.73876 h -0.003 c -0.26043,0 -0.98992,-1.2206 -1.7243,-2.7643 -0.6696,-1.4823 -1.7976,-3.28222 -2.39044,-3.92248 -0.65856,-0.7041 -1.19006,-1.60449 -1.19653,-2.05847 -0.006,-0.45373 -0.40663,-1.22632 -0.80206,-1.6748 -0.46033,-0.44739 -1.8551,-2.76245 -3.05622,-5.14502 -1.20123,-2.38269 -2.46362,-4.50513 -2.79058,-4.69495 -0.32691,-0.18994 -0.73072,-1.22204 -1.00483,-2.25586 -0.23587,-0.94262 -0.61102,-1.5968 -0.91519,-1.5968 -0.0503,0 -0.0987,0.0179 -0.14425,0.0554 -0.074,0.0458 -0.1448,0.0675 -0.21018,0.0675 -0.21884,0 -0.37604,-0.24355 -0.38168,-0.64295 -0.007,-0.5187 -1.34374,-3.2886 -3.00624,-6.1835 -1.66246,-2.89502 -2.99687,-5.53528 -3.00145,-5.85938 -0.006,-0.38902 -0.60108,-1.22375 -1.32459,-1.92688 -0.72339,-0.70312 -1.52076,-2.05394 -1.72816,-2.95898 -0.27312,-0.96886 -1.0047,-2.25574 -1.6624,-2.89476 -0.6576,-0.6393 -1.45502,-1.99013 -1.66336,-2.95998 -0.27319,-0.96899 -1.07062,-2.31958 -1.73004,-3.0885 -0.72345,-0.70312 -1.456,-2.05482 -1.66523,-3.08947 -0.20782,-0.96755 -0.6065,-1.7389 -0.8659,-1.7389 h -0.003 c -0.26047,0 -0.98801,-1.09072 -1.71946,-2.44003 -0.66681,-1.28772 -1.39752,-2.50952 -1.59477,-2.70129 -0.98555,-0.89405 -2.64992,-3.9187 -2.6628,-4.82653 -0.007,-0.51658 -0.27087,-0.96525 -0.52932,-0.96525 -10e-4,0 -0.002,3e-5 -0.003,3e-5 h -0.002 c -0.32542,0 -1.11742,-1.08945 -1.84756,-2.37354 -0.66779,-1.35254 -1.59576,-2.76611 -2.05622,-3.21362 -0.39544,-0.44836 -1.1289,-1.86487 -1.60022,-3.09032 -0.47079,-1.22404 -1.06802,-2.2521 -1.26342,-2.2521 h -0.002 c -0.19559,0 -0.92349,-1.0911 -1.65527,-2.44103 -0.73175,-1.28674 -1.4624,-2.50867 -1.65967,-2.70059 -0.98553,-0.89392 -2.64978,-3.91858 -2.66266,-4.82641 -0.007,-0.5167 -0.271,-0.96525 -0.52939,-0.96525 -10e-4,0 -0.002,4e-5 -0.003,4e-5 h -0.001 c -0.32688,0 -1.90778,-1.85656 -3.49518,-4.16616 -2.44983,-3.53236 -4.3551,-5.25648 -11.8873,-10.46794 l -8.97357,-6.22864 -16.7359,-0.21679 -16.736,-0.21668 -4.25506,-2.79333 c -2.35651,-1.5232 -5.83454,-4.39234 -7.80731,-6.31006 -3.4206,-3.38892 -3.61884,-3.64563 -3.46656,-6.63111 0.0819,-3.37362 -1.16696,-9.12815 -3.81358,-17.3923 -1.56122,-4.90677 -1.56677,-5.29581 -0.62256,-7.31973 2.33112,-4.83252 2.73366,-8.47022 1.96472,-16.95532 -0.38757,-4.4696 -1.09344,-13.08548 -1.56799,-19.1104 -1.75281,-22.9989 -4.60522,-45.78786 -6.22674,-50.36966 -0.94538,-2.64563 -0.83142,-3.74976 1.41662,-19.02284 4.73258,-32.17078 4.67502,-31.65113 3.51389,-35.78542 -1.37036,-5.16919 -5.63977,-13.54005 -8.93991,-17.57901 l -2.7063,-3.33423 0.18213,-5.45045 c 0.0753,-3.81789 -0.0764,-5.43863 -0.65638,-5.43863 -0.001,0 -0.003,1e-5 -0.004,3e-5 -8.1e-4,1e-5 -0.002,1e-5 -0.002,1e-5 -1.30748,0 -11.74955,-14.68594 -10.98293,-15.47451 0.31965,-0.32886 6.66955,-0.74304 14.18953,-0.97949 l 13.55034,-0.32177 2.30865,-1.84875 c 1.98896,-1.51978 2.36701,-2.30322 2.71473,-5.22681 0.81402,-6.62684 2.27746,-13.19826 4.21484,-18.34927 1.12592,-2.93445 1.91919,-6.44763 1.961,-8.06983 -0.0367,-2.59388 0.0893,-2.85498 2.15416,-3.59778 3.6786,-1.2843 3.79536,-2.19385 0.9811,-8.57472 -1.6059,-3.4795 -2.35407,-5.93323 -2.0373,-6.45679 4.1358,-5.63624 4.3869,-6.22352 4.3106,-11.605486 -0.0414,-2.917844 -0.35125,-6.480474 -0.6328,-8.032964 l -0.62305,-2.78003 6.75009,0.35815 c 5.58106,0.24524 13.3158,1.43262 19.69336,2.96375 0.0731,0.02134 0.1619,0.03185 0.26587,0.03185 1.10123,0 3.9025,-1.1779 7.66757,-3.1278 5.8584,-3.066536 6.56433,-3.59522 6.5423,-5.151252 -0.0358,-2.528928 -3.50334,-9.224978 -6.33474,-12.233162 -3.63783,-3.955146 -10.9934,-5.58461 -25.48048,-5.58461 -0.98972,0 -2.01269,0.0076 -3.07004,0.02259 l -9.20785,0.130614 -1.26221,-2.122313 c -2.25892,-3.794441 -9.04706,-11.416275 -12.45668,-14.026997 -8.06561,-6.241462 -14.7238,-9.260267 -24.02482,-11.138809 -3.29749,-0.684019 -6.47814,-1.198065 -7.33739,-1.198065 z"
         id="path2"
         inkscape:connector-curvature="0" />
    </g>
  </g>
</svg>
