<?xml version="1.0" encoding="UTF-8" standalone="no"?>
<svg
   xmlns:dc="http://purl.org/dc/elements/1.1/"
   xmlns:cc="http://creativecommons.org/ns#"
   xmlns:rdf="http://www.w3.org/1999/02/22-rdf-syntax-ns#"
   xmlns:svg="http://www.w3.org/2000/svg"
   xmlns="http://www.w3.org/2000/svg"
   xmlns:sodipodi="http://sodipodi.sourceforge.net/DTD/sodipodi-0.dtd"
   xmlns:inkscape="http://www.inkscape.org/namespaces/inkscape"
   width="883.48499"
   height="1303.0413"
   enable-background="new 0 0 841.89 447.053"
   version="1.1"
   viewBox="0 0 883.48498 1303.05"
   xml:space="preserve"
   id="svg10"
   sodipodi:docname="alone_moving_male19.svg"
   inkscape:version="1.0.2 (e86c870879, 2021-01-15)"><metadata
   id="metadata16"><rdf:RDF><cc:Work
       rdf:about=""><dc:format>image/svg+xml</dc:format><dc:type
         rdf:resource="http://purl.org/dc/dcmitype/StillImage" /><dc:title></dc:title></cc:Work></rdf:RDF></metadata><defs
   id="defs14" /><sodipodi:namedview
   pagecolor="#ffffff"
   bordercolor="#666666"
   borderopacity="1"
   objecttolerance="10"
   gridtolerance="10"
   guidetolerance="10"
   inkscape:pageopacity="0"
   inkscape:pageshadow="2"
   inkscape:window-width="1920"
   inkscape:window-height="997"
   id="namedview12"
   showgrid="false"
   fit-margin-top="0"
   fit-margin-left="0"
   fit-margin-right="0"
   fit-margin-bottom="0"
   inkscape:zoom="0.24165455"
   inkscape:cx="729.27855"
   inkscape:cy="469.14873"
   inkscape:window-x="0"
   inkscape:window-y="0"
   inkscape:window-maximized="1"
   inkscape:current-layer="svg10"
   inkscape:document-rotation="0" />
		
		
		

<rect
   style="fill:#ffffff;stroke-width:5.66933;stroke-linecap:square;stroke-linejoin:round;stroke-dasharray:11.3387, 11.3387"
   id="rect830"
   width="883.49091"
   height="1303.05"
   x="-0.00061630621"
   y="1.4210855e-14" /><path
   inkscape:connector-curvature="0"
   style="clip-rule:evenodd;fill-rule:evenodd;stroke-width:4.08157"
   d="m 809.09924,406.91277 c -6.02032,-5.52644 -12.76715,-12.77123 -19.53848,-17.19566 0.78366,-6.14684 4.61214,-10.63657 6.24889,-16.41199 3.06113,-10.75086 2.59996,-22.29355 4.69376,-34.38724 -2.12646,-2.24486 -2.82032,-5.24482 -4.69376,-7.82029 -7.24075,-9.97536 -20.64463,-18.45686 -31.2608,-25.00778 -10.63245,-6.56317 -24.7833,-7.94274 -35.95451,-14.06918 -6.93463,-3.80402 -12.75495,-11.40391 -19.54261,-15.62833 -5.99174,-2.60404 -11.98757,-5.20809 -17.97523,-7.81621 -2.07748,-2.08568 -4.16725,-4.16729 -6.24889,-6.25297 h -5.4693 c -2.75502,-1.3061 -6.04481,-5.98358 -8.59575,-7.81621 -9.29786,-6.66112 -21.6038,-9.23659 -30.48934,-16.41607 -4.82445,-3.8979 -3.97957,-13.95898 -8.58762,-17.97524 -3.33056,-2.89792 -7.89788,-3.86933 -11.73044,-6.25297 -7.24075,-4.51013 -15.40793,-10.64474 -23.44454,-14.06917 -5.42441,-2.31425 -11.99574,-2.20405 -16.412,-5.46931 -2.40404,-1.2408 -1.71834,-2.66118 -3.1224,-4.68972 -4.68972,-3.06526 -13.32637,-0.92652 -19.5426,-2.34691 -17.66096,-4.03259 -38.38714,-4.5183 -57.8399,-4.68972 v -5.46931 c -1.77145,-1.79181 -2.65715,-4.74686 -4.68565,-6.25296 -1.71834,-1.26937 -4.25712,-1.43672 -5.47746,-3.12649 -4.35508,-6.06521 -5.43262,-13.95081 -9.37129,-20.31806 -2.39184,-3.85708 -6.0693,-7.92233 -8.59987,-11.72635 -1.27347,-1.92242 -1.55101,-4.62442 -3.1265,-6.25297 -10.93045,-11.33044 -24.97105,-18.27319 -31.26483,-34.391312 -6.54276,-0.02449 -14.99161,-1.114269 -20.32215,0.783661 -3.653,1.297942 -7.55906,5.032581 -11.72227,6.252971 -5.42032,1.58365 -11.55084,-0.8857 -15.63241,0.7755 -5.15503,2.10609 -21.68131,20.11398 -25.01187,25.01186 -4.84891,7.14275 -6.74276,16.4773 -12.50185,22.66496 0.9306,5.68971 1.8163,7.96315 1.56324,14.85284 -2.1265,2.07752 -3.11424,5.17951 -5.47339,7.03663 -1.0857,0.91835 -10.72637,-4.13463 -13.28551,-5.47339 -12.49777,-6.53051 -24.80779,-14.22427 -36.73414,-21.10172 -7.08152,-4.08157 -14.75896,-5.91011 -22.66496,-9.37945 -12.69777,-5.57134 -26.74246,-11.88553 -40.64837,-16.412 -16.06098,-5.23257 -33.74234,-4.26932 -48.45641,-10.94269 -10.23658,-4.64482 -17.92218,-14.387535 -27.35469,-20.322139 -9.39577,-5.901951 -21.5711,-15.391604 -32.04441,-18.754818 -4.33055,-1.391816 -7.94682,1.257123 -10.16311,2.342821 -0.79999,2.922405 -1.94283,4.395852 -2.34282,7.816209 -4.91421,-0.212242 -12.26512,-1.518345 -15.632419,-3.906064 -13.563061,-0.428565 -11.407991,3.334644 -16.416079,10.942692 -2.510166,2.040786 -4.306057,1.318347 -6.244803,-0.783662 -5.979502,0.922435 -7.754985,4.375444 -11.722272,7.036629 0.02041,2.13058 0.03265,3.579539 0.775499,4.689726 1.787728,4.734626 5.465223,3.008116 9.387613,5.469306 2.33874,2.34282 4.685643,4.68972 7.032546,7.03663 -0.08571,2.22445 -0.318362,3.33872 -0.77958,4.68563 -0.775498,0.26123 -1.563241,0.51837 -2.346903,0.77959 -2.204048,-2.35915 -5.404,-3.30607 -7.82029,-5.46931 -3.955042,0.63265 -4.444831,2.18773 -7.028465,3.90607 -2.91016,12.24471 4.514218,27.49754 14.848755,30.48117 7.37948,2.13466 14.869163,0.0245 21.881298,2.3469 4.82034,1.59182 8.56314,6.29378 14.06918,7.81621 10.7182,2.9673 34.68519,-2.97138 39.8647,-7.81621 6.4448,0.55101 10.3427,5.5142 15.63242,7.81621 12.76715,5.55502 25.22411,11.10187 37.50964,16.412 19.11399,8.25701 38.34227,15.76302 57.05628,23.44862 5.73052,1.55916 11.47329,3.12648 17.19974,4.68564 8.55089,4.84891 10.91412,18.30177 18.76298,24.22821 23.30577,17.59565 42.72588,40.68918 60.17868,64.09291 3.19179,4.28157 8.97946,6.25705 12.50593,10.15902 0.77958,2.34283 1.55916,4.68973 2.33466,7.03664 2.07344,4.68564 5.76726,10.15494 7.82029,14.84875 2.13466,4.86523 2.78771,9.60393 5.47339,14.06509 6.13868,10.20393 11.28962,21.95886 17.97932,32.0485 5.89379,8.89782 14.69365,17.95483 19.5344,27.35469 1.95915,3.79994 1.44487,7.76723 3.13056,11.72227 1.87752,4.42034 5.53053,8.97129 7.03255,14.06917 1.65303,5.60808 0.31428,10.75086 3.13056,14.84876 2.67751,3.90606 8.99987,5.37951 11.72227,9.37945 3.81627,5.60808 4.08158,10.72637 10.15903,14.06917 -0.4857,6.4448 -3.50607,8.78354 -5.4693,13.28551 -2.91832,6.69786 -4.82034,15.04062 -4.68973,24.23228 -12.15083,0.75509 -23.89759,7.55503 -35.17089,9.37949 -6.43256,1.04484 -7.20806,-5.37955 -14.06918,-3.12653 -1.43671,0.47347 -12.52634,5.21217 -14.06509,6.25297 -2.77955,1.87348 -2.8571,7.10602 -6.25297,8.59175 -4.4285,1.04484 -8.85701,2.08564 -13.28143,3.13052 -5.57543,2.86939 -9.75904,9.10195 -14.85692,12.50594 -10.50188,7.00397 -21.38743,12.0243 -32.04441,18.75482 -13.52633,8.55093 -27.05265,18.75485 -39.8647,28.14243 -14.92631,10.93457 -41.57489,29.28527 -46.89725,48.45641 -1.61631,5.82032 2.46935,9.62846 1.56732,14.06509 -0.60816,3.0122 -3.17138,6.54276 -3.90606,9.37945 -1.88977,7.27744 4.16728,12.10594 5.47338,17.1957 v 9.38349 c 3.08567,13.3427 2.97139,27.21596 7.02847,39.86062 4.08565,12.71001 7.58764,24.66493 12.50593,37.5178 3.62035,9.44888 10.85698,18.51809 14.06509,28.13431 l 0.78775,12.50593 c 3.37137,14.79566 2.97546,31.91785 10.15495,42.98707 5.33053,8.21212 15.29772,15.06508 24.23636,19.54256 2.8571,0.77958 5.72645,1.56732 8.59171,2.33878 4.88564,3.23665 6.20807,11.33856 10.15495,15.63238 -0.7306,8.79174 -6.30603,8.63256 -9.37537,14.06509 -1.37141,2.43266 -0.80407,5.06523 -2.3469,7.03667 -0.60407,13.38347 5.32645,16.29359 16.41199,17.19562 -1.08569,4.9387 -5.35502,5.15502 -8.5917,7.81216 -1.59182,1.30198 -0.97142,3.95501 -2.34691,5.47339 -1.52242,1.69381 -4.30605,1.77136 -6.24888,3.13461 -2.61221,2.85714 -5.20809,5.72644 -7.81621,8.58766 h -7.03663 c -2.78363,1.07346 -2.94281,4.91009 -4.68564,7.03663 0.004,3.7346 0.43265,4.95095 1.56732,7.04067 5.21625,-0.5673 5.53869,-3.06934 10.15495,-3.90606 -0.17959,1.80817 -0.15102,2.19592 -0.78366,3.12244 0.0367,10.29368 -3.92239,12.18349 -7.81621,17.9834 -41.25652,-3.22448 -56.26445,33.32195 -64.86841,66.42755 -5.1591,19.8446 -2.51424,46.6319 6.25297,61.746 8.53048,14.7181 21.70171,20.6894 35.95048,29.6975 19.26909,12.1835 40.31776,23.8935 60.18276,35.9546 5.73461,2.3427 11.46922,4.6937 17.19566,7.0365 10.77943,0.1388 9.27333,-9.31 11.72227,-17.1997 3.64893,-12.2447 7.29377,-24.4813 10.94677,-36.73 2.88976,-0.2123 2.35099,0.069 5.47339,0.7836 0.4204,-1.2163 0.86938,-4.4326 1.55916,-5.4693 0.77958,-0.7837 1.56324,-1.5673 2.34282,-2.3509 7.57948,-0.1102 9.21211,1.2448 13.2896,3.9019 0.82447,11.3917 0.57958,28.5098 -4.68565,35.9627 v 1.5674 c -1.97956,-0.086 -2.89791,-0.094 -3.91014,-0.7837 -14.30183,-0.4408 -8.02437,7.3305 -13.2896,14.8528 3.15914,4.5388 8.82844,3.8 13.2896,7.0326 0.84897,1.2204 1.29386,4.6244 1.56324,6.2489 6.62439,-0.3511 3.75096,-1.7225 6.25297,-3.1265 5.28563,-2.9632 10.65698,2.3795 14.84875,-0.7755 1.88977,-1.5878 2.37548,-4.3346 3.91015,-6.2489 -0.43265,-9.3305 -6.33868,-6.9224 -9.37945,-12.5059 -0.7755,-1.849 3.40403,-19.8283 4.68564,-24.2323 4.38361,-15.0284 7.55907,-32.0363 11.72227,-46.8972 1.82855,-6.4979 2.58364,-20.9548 5.47339,-25.7874 0,0 14.91814,-4.6162 16.412,-5.4734 0.24489,-4.7876 1.85711,-9.6039 -0.77958,-12.5018 -1.49794,-3.5265 -5.92645,-3.2163 -8.59171,-5.4775 -0.65713,-1.1959 -0.12653,-2.6775 0,-5.4734 l -0.77958,-0.7795 c -2.40405,0.065 -23.10169,3.657 -23.44863,3.9182 -9.58761,6.6285 -1.63671,17.9712 7.03663,19.5344 -1.04896,5.4122 -2.51833,16.7263 -5.4693,21.1017 -2.63262,3.8857 -6.37542,5.3387 -7.82029,10.9427 -5.51012,-0.077 -9.33864,-1.0326 -14.0651,-1.5592 -0.25714,-1.3061 -0.52244,-2.6081 -0.77958,-3.9101 h -2.3469 c 3.16322,-14.563 10.89779,-39.8034 10.16311,-53.1461 -5.35502,-2.8081 -8.11008,-6.9713 -14.06917,-9.3795 0.0122,-4.7345 0.77958,-5.9305 2.3469,-8.5957 5.62849,0.2408 8.59579,2.0489 13.28143,3.1224 9.64475,2.2081 18.09769,-2.1061 23.44863,-4.6856 2.49792,-6.4571 6.31011,-41.88513 1.56732,-49.24012 -0.0816,-8.79991 -4.52646,-10.87739 -7.82029,-16.41204 h -6.2448 c -1.03264,-7.04883 -3.15914,-16.95484 -5.47747,-24.23228 14.54672,-8.24474 27.30571,-12.04064 27.36285,-35.1709 -7.51825,-7.33866 -10.24066,-18.57931 -19.54256,-24.22412 1.22447,-4.39586 2.9673,-8.77534 3.90198,-14.07322 -9.11415,-10.57539 -20.56295,-22.52215 -33.60357,-28.91797 -1.6163,-7.86515 -2.93465,-16.02833 -4.68973,-22.66905 -0.52244,-4.95094 -1.04488,-9.90185 -1.56732,-14.84871 -3.14281,-10.79988 -8.71824,-22.7997 -11.71819,-33.6077 v -24.23636 c -0.89795,-2.80808 -3.65709,-7.91417 -4.68564,-10.93861 v -4.68561 c -1.30203,-0.78366 -2.60813,-1.56736 -3.91015,-2.34694 -2.1265,-3.02032 -2.02038,-11.05698 0,-14.06509 0.0857,-1.97952 0.098,-2.89788 0.77958,-3.90199 5.62849,-3.62439 26.82408,-3.42439 35.17498,-5.47746 21.74253,-5.34274 48.15029,-5.24886 69.55813,-10.16307 10.67741,0.25713 21.36296,0.52244 32.05259,0.77953 5.82032,-1.37136 11.01204,-4.75503 15.6283,-6.24884 6.47745,-2.09385 16.63244,2.33462 21.88134,-0.7755 h 6.25297 c 1.74687,7.54679 4.79584,14.35893 7.03663,21.10168 3.16725,9.53867 4.35095,17.97524 7.81208,27.35065 1.66124,4.50601 7.06928,19.30171 5.47339,25.79141 -1.62035,6.59173 -9.48553,14.51814 -14.06505,18.76298 0.33468,10.95902 4.44891,20.90176 10.94269,25.79144 6.14684,4.62442 12.54675,6.24481 14.84871,14.8488 0.87754,1.86932 -2.74277,9.01207 -4.68564,10.94269 0.59999,8.1631 7.30197,10.38348 9.37541,16.41196 v 43.76672 c 1.0408,4.68969 2.08564,9.38349 3.13052,14.07322 -0.59591,3.65709 -4.22847,8.72232 -5.4693,12.50593 -3.69379,11.24477 -6.36317,22.83643 -9.38349,33.60358 -1.04081,7.28972 -2.08161,14.58753 -3.12245,21.88538 -5.39579,21.15074 -7.31825,45.02793 -12.50593,66.43161 -2.75502,11.3591 -0.39183,23.1915 -3.12644,35.1669 -3.20816,14.0365 -5.39992,34.9668 3.90602,44.5503 -0.77958,4.8162 -4.84887,10.9753 -7.81621,14.0651 0.17551,4.5713 1.49794,11.3508 3.91019,14.0732 -0.75509,3.6367 -3.38367,5.4571 -3.13061,7.8121 0.5102,5.7347 5.08564,6.8612 9.37949,8.6 0.40408,1.955 2.07748,16.314 0.77958,20.3139 -0.73468,2.2653 -3.86121,5.053 -4.68976,7.0407 -2.45299,5.8856 1.83674,10.6285 0,17.1997 -1.39994,5.0245 -3.94276,10.1224 -3.12645,16.4121 0.86121,6.5958 -5.68971,10.8732 -0.77958,17.1997 0.25714,0.5225 0.52244,1.0367 0.77958,1.5592 22.83227,1.9713 44.03607,3.6652 63.31329,8.5957 4.90201,1.2572 18.62421,3.8857 23.44459,0.7796 2.604,0 4.6489,-0.2245 6.24888,-0.7796 4.22034,-18.6976 -2.45302,-22.3139 -10.15907,-35.1749 -1.88973,-3.1469 -1.72242,-8.0775 -3.90602,-10.9427 0.0776,-6.3142 2.03262,-5.4122 4.68972,-8.5917 0.78366,-1.9143 -1.37145,-4.5592 0,-7.0326 0.72652,-0.3837 19.66501,-4.5265 22.66492,-4.6938 -0.43672,-2.4734 -0.6857,-2.2693 -1.56728,-3.9019 -4.63262,0.1714 -5.98766,1.2571 -10.15499,1.5591 0.7306,-3.6938 3.01632,-4.804 3.90203,-7.8121 2.21217,-7.4897 -0.95101,-14.0243 0,-19.5426 2.7795,-16.0446 2.76318,-35.7138 6.25296,-50.7992 v -25.7873 c 3.24485,-12.9141 8.21208,-25.8527 11.72227,-38.3015 2.43258,-8.5877 1.68157,-16.75076 4.68973,-25.01191 1.86528,-5.12645 4.81625,-10.24474 6.25705,-16.41199 v -17.9752 c 5.13461,-23.22006 -0.8653,-51.30539 12.50185,-65.65207 -0.0286,-14.14268 -7.28561,-17.92218 -14.06105,-25.01595 -0.8857,-1.02859 2.95918,-8.9999 1.5592,-14.06105 -0.29388,-1.04896 -2.05307,-3.65296 -2.34287,-4.68564 -0.52244,-4.43663 -1.04488,-8.86109 -1.5714,-13.29368 -1.9632,-3.68562 -6.82843,-4.73462 -9.37125,-7.81621 -0.63268,-0.80811 -0.29387,-0.18775 -0.77962,-1.55912 4.6734,-4.81221 10.31413,-15.27328 11.72227,-22.66908 0.94289,-4.99993 -5.08967,-8.24882 -3.1346,-14.06914 0.7306,-2.1347 3.77949,-4.1714 4.68972,-6.25296 0.52244,-3.12653 1.04489,-6.25297 1.56733,-9.37541 1.26528,-3.8979 4.6734,-7.31005 6.24888,-10.94269 4.13055,-9.50186 7.55903,-19.75481 10.94269,-28.92202 1.82855,-8.07742 3.65297,-16.15073 5.47339,-24.23228 1.68977,-4.35908 6.22031,-8.1958 7.82029,-12.50594 -2.19588,-9.35904 3.61215,-16.20787 6.24889,-23.4445 0.51835,-2.8653 1.04076,-5.72644 1.5632,-8.59175 3.00407,-7.61617 20.56707,-17.35484 17.19161,-29.70567 -0.48162,-1.78773 -2.64485,-5.41216 -3.1224,-7.03255 -1.85715,-6.32643 2.54282,-11.07738 3.90602,-14.85279 1.56325,-8.33461 3.13061,-16.67322 4.68161,-25.00783 1.55912,-4.58764 7.27332,-13.58755 5.47338,-20.32214 -1.02039,-3.83668 -4.28569,-6.55908 -5.47338,-10.15903 -1.89385,-5.77542 0.28979,-14.5059 -0.77958,-18.7589 -0.8204,-3.2897 -4.52238,-7.44887 -5.46931,-10.15899 v -9.37949 c -0.89386,-3.4244 -1.49385,-9.2039 -3.12244,-13.28959 -0.5102,-1.26117 -2.62849,-2.64486 -3.13052,-3.90607 -5.45706,-13.67734 -7.01214,-27.44447 -11.72228,-41.42384 -8.26518,-24.53025 -17.09366,-49.12171 -23.44862,-75.03152 0.26122,-13.0243 0.5224,-26.05675 0.78362,-39.08104 10.59988,0.74284 21.2487,6.57132 31.26075,9.37945 7.26932,2.04078 15.86103,1.4612 21.09768,5.47338 3.29787,1.95507 1.68157,5.52645 3.13461,9.37945 2.62857,6.97541 5.02441,8.66109 3.12244,17.19158 -0.95509,4.31422 0.30204,7.22029 -1.55916,10.16311 -2.38368,3.76321 -7.64074,7.56723 -9.38353,11.72227 -1.41631,3.37954 0.19591,7.47336 -1.56732,10.16311 -1.79998,3.79586 -5.50196,1.65712 -7.02847,6.24889 -1.77552,3.84892 4.22847,8.11008 6.25297,10.94269 10.85285,-0.0816 9.67328,-4.29381 15.62829,-7.03255 1.84083,-0.84896 4.18773,0.0531 5.46931,-0.77958 11.90186,1.42039 8.72644,23.82005 12.50593,34.39132 1.56324,2.08159 3.13061,4.16728 4.68977,6.25296 3.96728,-0.42448 3.83667,-1.52243 6.24888,-3.13465 1.54279,4.26933 2.70604,6.95092 4.68973,10.16311 9.90593,-0.3755 11.05289,-8.93455 10.1549,-19.53847 -0.25714,-1.56732 -0.51836,-3.13056 -0.7755,-4.68564 1.54288,-5.28564 7.85707,-7.19581 10.9427,-10.94677 6.93459,-8.46926 11.42027,-20.09766 10.14274,-34.40765 z M 629.33457,1162.6972 c -1.6081,0.3102 -1.50606,0.1959 -2.34278,0.7837 h -8.59991 c 0.52244,-2.8734 1.04084,-5.7305 1.56328,-8.5999 4.75499,0.6612 6.26113,2.6816 9.38349,4.6816 v 3.1346 z"
   id="path6" /></svg>
