<?xml version="1.0" encoding="UTF-8" standalone="no"?>
<svg
   xmlns:dc="http://purl.org/dc/elements/1.1/"
   xmlns:cc="http://creativecommons.org/ns#"
   xmlns:rdf="http://www.w3.org/1999/02/22-rdf-syntax-ns#"
   xmlns:svg="http://www.w3.org/2000/svg"
   xmlns="http://www.w3.org/2000/svg"
   xmlns:sodipodi="http://sodipodi.sourceforge.net/DTD/sodipodi-0.dtd"
   xmlns:inkscape="http://www.inkscape.org/namespaces/inkscape"
   version="1.1"
   width="424.37289"
   height="577.854"
   viewBox="0 0 424.37289 577.854"
   id="svg19"
   sodipodi:docname="alone_moving_male27.svg"
   inkscape:version="1.0.2 (e86c870879, 2021-01-15)">
  <metadata
     id="metadata25">
    <rdf:RDF>
      <cc:Work
         rdf:about="">
        <dc:format>image/svg+xml</dc:format>
        <dc:type
           rdf:resource="http://purl.org/dc/dcmitype/StillImage" />
        <dc:title></dc:title>
      </cc:Work>
    </rdf:RDF>
  </metadata>
  <defs
     id="defs23" />
  <sodipodi:namedview
     pagecolor="#ffffff"
     bordercolor="#666666"
     borderopacity="1"
     objecttolerance="10"
     gridtolerance="10"
     guidetolerance="10"
     inkscape:pageopacity="0"
     inkscape:pageshadow="2"
     inkscape:window-width="1920"
     inkscape:window-height="997"
     id="namedview21"
     showgrid="false"
     fit-margin-top="0"
     fit-margin-left="0"
     fit-margin-right="0"
     fit-margin-bottom="0"
     inkscape:zoom="0.73258197"
     inkscape:cx="73.940079"
     inkscape:cy="177.81731"
     inkscape:window-x="0"
     inkscape:window-y="0"
     inkscape:window-maximized="1"
     inkscape:current-layer="svg19" />
  <rect
     style="fill:#ffffff;stroke-width:5.66929;stroke-linecap:square;stroke-linejoin:round;stroke-dasharray:11.3386, 11.3386"
     id="rect850"
     width="424.37289"
     height="577.854"
     x="0"
     y="0" />
  <g
     id="layer1"
     transform="matrix(8.4267845,0,0,8.4267845,-2087.5029,-3835.0641)">
    <g
       style="fill:#000000;fill-opacity:1;stroke-linejoin:miter"
       id="g4">
      <path
         d="m 260.8671,458.3568 c -0.1917,0.10173 -0.24253,0.16822 -0.35202,0.442 -0.0587,0.14474 -0.17994,0.40286 -0.27381,0.57498 -0.0899,0.17206 -0.25812,0.48889 -0.37155,0.70402 -0.11342,0.2151 -0.25815,0.4889 -0.32465,0.60622 -0.0626,0.11738 -0.20337,0.3833 -0.31289,0.58668 -0.10558,0.20342 -0.20731,0.38723 -0.22293,0.4107 -0.0274,0.0391 -0.21903,0.39895 -0.52411,0.9778 -0.16428,0.309 -0.41068,0.77445 -0.61798,1.15382 -0.0782,0.14081 -0.21903,0.40286 -0.3129,0.5867 -0.57496,1.08731 -0.59451,1.11468 -0.78226,1.02866 -0.0939,-0.043 -0.42633,0.0313 -0.53192,0.11342 -0.12124,0.1017 -0.47326,0.661 -0.50064,0.7979 -0.0156,0.0821 -0.0821,0.26205 -0.15254,0.40285 -0.0704,0.14081 -0.1369,0.32465 -0.15254,0.40677 -0.0156,0.0821 -0.0626,0.20731 -0.10561,0.27768 -0.0939,0.16037 -0.0548,0.28552 0.12517,0.39115 0.16035,0.0938 0.18382,0.22683 0.0626,0.40675 -0.0782,0.12126 -0.59842,1.0052 -0.88004,1.49803 -0.29726,0.52017 -0.36766,0.64927 -0.39894,0.7001 -0.0196,0.0313 -0.22685,0.39112 -0.45762,0.79401 -0.23077,0.40674 -0.44979,0.78613 -0.485,0.84088 -0.0352,0.0587 -0.16427,0.28162 -0.28944,0.49678 -0.12515,0.21508 -0.34417,0.59447 -0.48889,0.84087 -0.14863,0.24643 -0.31682,0.53979 -0.37939,0.64929 -0.13298,0.23859 -1.05605,1.84224 -1.16556,2.026 -0.2777,0.47327 -0.33246,0.57889 -0.33246,0.66101 0,0.21515 0.22685,0.25033 0.34419,0.0548 0.0391,-0.0665 0.485,-0.80179 0.98565,-1.63098 0.50064,-0.82916 0.93868,-1.54884 0.96606,-1.60358 0.0313,-0.0548 0.10562,-0.17602 0.1682,-0.2738 0.0626,-0.0978 0.17601,-0.28943 0.25813,-0.42633 0.0782,-0.1369 0.19557,-0.32855 0.26598,-0.43023 0.0665,-0.0978 0.14862,-0.22688 0.17991,-0.28553 0.14862,-0.26597 0.44588,-0.7666 1.14208,-1.90869 0.41069,-0.67664 0.77052,-1.27508 0.79789,-1.32984 0.0704,-0.13687 0.20339,-0.2738 0.26595,-0.2738 0.0274,0 0.13692,0.0978 0.24254,0.21906 0.10559,0.12124 0.21902,0.2503 0.2503,0.28942 0.2464,0.27771 0.38721,0.64536 0.4498,1.16163 0.0821,0.68841 0.14472,0.927 0.44586,1.72488 0.32074,0.84091 1.0717,2.39761 1.90088,3.93863 0.25424,0.47717 0.30118,0.53974 0.61017,0.86047 0.32852,0.34027 0.39893,0.41457 1.24768,1.31417 0.86047,0.91136 1.27507,1.3416 1.67792,1.74052 l 0.36375,0.35983 -0.0156,0.16818 c -0.0118,0.0939 -0.0665,0.39897 -0.12518,0.68055 -0.12515,0.59454 -0.24248,1.25162 -0.3168,1.79919 -0.0313,0.21509 -0.0743,0.47717 -0.0939,0.58667 -0.0235,0.10559 -0.0587,0.46936 -0.0821,0.80182 -0.0352,0.48108 -0.0665,0.67664 -0.15646,0.95824 -0.0626,0.19166 -0.14082,0.56715 -0.176,0.8253 -0.0352,0.26205 -0.0782,0.53192 -0.0978,0.60232 -0.0391,0.14081 -0.004,0.25031 0.10169,0.28943 0.0391,0.0156 0.21512,-0.0508 0.4498,-0.16818 0.46937,-0.23859 0.77051,-0.32852 0.9035,-0.26205 0.0704,0.0352 0.10169,0.10168 0.14081,0.29724 0.043,0.21904 0.043,0.28552 -0.0117,0.48108 -0.11735,0.41461 -0.0626,1.00521 0.12908,1.4198 0.0704,0.16036 0.39892,0.75096 0.73138,1.32592 0.0508,0.086 0.12124,0.20728 0.15254,0.27378 0.0352,0.0626 0.1056,0.18774 0.15645,0.2738 0.10953,0.1799 0.76661,1.49016 0.86048,1.71311 0.0391,0.10168 0.0743,0.39111 0.10167,0.91915 0.0235,0.4224 0.0704,1.2086 0.10954,1.74833 0.0352,0.53582 0.0665,1.14599 0.0704,1.3533 0.004,0.33243 0.0157,0.39111 0.11344,0.54367 0.0939,0.14862 0.10168,0.19165 0.0782,0.34808 -0.0157,0.0978 -0.0274,0.30118 -0.0235,0.45372 0.0196,1.01692 0.0156,1.57622 -0.0274,3.59834 -0.0313,1.39631 -0.0704,2.45626 -0.10562,2.75746 -0.0313,0.26986 -0.0587,0.704 -0.0587,0.96996 0,0.26596 -0.0196,0.60234 -0.043,0.75098 -0.0509,0.32852 -0.0117,0.43024 0.37939,1.02862 0.59451,0.91134 1.17336,1.51758 1.77963,1.85784 0.23465,0.133 0.60233,0.24254 0.8096,0.24254 0.10563,0 0.25815,0.086 0.70013,0.3833 0.3129,0.20726 0.59452,0.39502 0.6297,0.41848 0.0391,0.0196 0.12125,0.0783 0.19166,0.12518 0.0665,0.0509 0.14081,0.0899 0.16037,0.0899 0.0235,0 0.0469,0.0157 0.0547,0.0313 0.008,0.0157 0.29336,0.21906 0.63754,0.4498 1.50973,1.00518 2.75745,1.85391 3.01166,2.04558 0.3872,0.2934 1.23596,1.13817 1.40805,1.39635 0.0587,0.0899 0.0665,0.16425 0.0508,0.45365 -0.0235,0.3638 -0.004,0.43416 0.15256,0.57894 0.0782,0.0782 0.0899,0.12122 0.0899,0.41066 0,0.1799 0.0196,0.3872 0.0391,0.46153 0.0626,0.21117 0.16817,0.82917 0.16036,0.93867 0,0.0547 -0.0391,0.19555 -0.0861,0.3129 -0.2777,0.751 -0.32465,0.91915 -0.32465,1.2321 0,0.2659 0.0156,0.34025 0.0978,0.48887 0.13296,0.23468 0.28549,0.25813 0.49674,0.0782 0.34027,-0.2934 0.7079,-0.7823 1.11077,-1.4863 0.34809,-0.5984 0.42243,-0.7744 0.50063,-1.17726 0.0391,-0.21514 0.1369,-0.5398 0.21904,-0.72754 0.0782,-0.19165 0.17602,-0.43414 0.21902,-0.54364 0.10562,-0.2699 0.19559,-0.30896 0.41068,-0.18386 0.09,0.0548 0.18384,0.0861 0.2034,0.0744 0.0587,-0.0391 0.74704,-1.46676 0.74704,-1.54886 0,-0.0431 -0.11341,-0.15255 -0.28162,-0.28164 -0.46152,-0.34416 -0.46933,-0.34416 -0.91522,-0.3833 -0.22294,-0.0196 -0.42244,-0.0469 -0.44196,-0.0548 -0.0196,-0.0117 -0.19948,-0.0469 -0.4068,-0.0821 -0.63751,-0.10167 -0.95434,-0.2933 -0.99343,-0.60234 -0.0156,-0.12126 0,-0.19166 0.0782,-0.32856 0.35202,-0.5984 0.56714,-1.1538 0.60236,-1.5371 0.0195,-0.26596 0.0195,-0.28162 -0.09,-0.39502 -0.19165,-0.2034 -1.16555,-0.55542 -1.70923,-0.61801 -0.19946,-0.0235 -0.25422,-0.0509 -0.46542,-0.22684 -0.49673,-0.42243 -1.05606,-0.86438 -1.3572,-1.07559 -0.87614,-0.61408 -1.29856,-0.86048 -1.54496,-0.89176 -0.0978,-0.0156 -0.22684,-0.0587 -0.28944,-0.0978 -0.0978,-0.0587 -0.12124,-0.10168 -0.1408,-0.27768 -0.0156,-0.11344 -0.0508,-0.40287 -0.0821,-0.63755 -0.0313,-0.23858 -0.11343,-0.85263 -0.17993,-1.36502 -0.10559,-0.82135 -0.14081,-1.00128 -0.29335,-1.45498 -0.19164,-0.57105 -0.19164,-0.60233 0.0235,-0.86832 0.23859,-0.30115 0.57105,-1.13033 0.78616,-1.96343 0.043,-0.18385 0.11341,-0.36375 0.14863,-0.40675 0.0547,-0.0665 0.98173,-0.53195 1.05603,-0.53195 0.0469,0 0.16037,-0.13687 0.16037,-0.1956 0,-0.0273 -0.14867,-0.35198 -0.33247,-0.72356 -0.18383,-0.36764 -0.33245,-0.69617 -0.33245,-0.73138 0,-0.0313 0.0235,-0.0822 0.0548,-0.1056 0.0391,-0.0313 0.09,-0.0157 0.22293,0.086 0.0939,0.0665 0.3403,0.23858 0.54761,0.3794 0.21118,0.14077 0.59841,0.41066 0.86436,0.60622 0.26598,0.19165 0.51237,0.36768 0.5476,0.39111 0.0352,0.0196 0.19946,0.133 0.36373,0.24253 0.16427,0.11344 0.30899,0.2073 0.3168,0.2073 0.0118,0 0.13691,0.0743 0.28162,0.16814 0.50065,0.32075 0.61408,0.39116 0.84875,0.5163 0.0665,0.0313 0.20728,0.10954 0.3129,0.17213 0.43024,0.25421 1.43152,0.77832 2.07294,1.09512 0.28162,0.133 0.54366,0.26595 0.5867,0.28945 0.0978,0.0509 1.18903,0.11732 1.42761,0.086 0.77832,-0.10562 2.64011,-0.81744 4.1655,-1.59579 l 0.39111,-0.19947 0.84091,-0.004 c 0.63755,-0.004 0.92698,-0.0196 1.20075,-0.0743 0.4537,-0.09 0.69228,-0.0704 1.08731,0.09 0.34421,0.1369 0.4107,0.1408 1.0365,0.0235 0.22687,-0.043 0.43023,-0.0548 0.64927,-0.0391 0.17208,0.0117 0.38723,0.0117 0.47716,-0.004 0.32854,-0.0508 0.56324,-0.4107 0.47327,-0.72751 -0.0587,-0.21902 -0.46543,-0.5202 -1.1499,-0.85263 -0.68448,-0.32855 -0.65317,-0.32463 -1.87741,-0.35205 -0.97779,-0.0273 -1.12252,-0.0391 -1.36892,-0.11731 -0.14866,-0.0469 -0.33247,-0.11737 -0.40287,-0.16037 -0.16819,-0.0978 -0.58277,-0.15646 -0.77833,-0.11343 -0.0861,0.0196 -0.23467,0.0822 -0.33636,0.1369 -0.34421,0.19556 -0.86832,0.16818 -1.1734,-0.0587 -0.13296,-0.0978 -0.28159,-0.25816 -0.48889,-0.528 -0.0156,-0.0235 -0.0939,-0.1408 -0.17603,-0.2621 -0.16424,-0.2503 -0.27377,-0.34416 -0.40672,-0.34416 -0.1291,0 -0.30904,0.3872 -0.38332,0.81744 -0.0352,0.19556 -0.0822,0.35592 -0.11738,0.3794 -0.043,0.0313 -0.16033,0.0156 -0.47716,-0.0665 -0.23468,-0.0587 -0.47327,-0.12908 -0.53974,-0.15255 -0.1369,-0.0509 -0.61016,-0.0548 -0.8018,-0.004 -0.26597,0.0704 -0.52803,0.15257 -0.6297,0.1917 -0.0822,0.0352 -0.1369,0.0274 -0.26207,-0.0352 -0.14471,-0.0704 -0.43808,-0.39113 -0.43808,-0.47326 0,-0.0391 -0.46151,-0.26599 -0.53582,-0.26599 -0.0235,0 -0.10169,-0.10168 -0.17209,-0.22685 -0.18384,-0.32073 -0.59061,-0.8331 -0.96219,-1.20467 -0.1799,-0.17599 -0.32462,-0.34027 -0.32462,-0.36373 0,-0.0235 -0.0547,-0.176 -0.12515,-0.34028 -0.11734,-0.28552 -0.12908,-0.29727 -0.35983,-0.41458 -0.12909,-0.0665 -0.30509,-0.18384 -0.38725,-0.26208 -0.17208,-0.16426 -0.24248,-0.19166 -0.52407,-0.19556 -0.24253,-0.004 -0.32855,-0.09 -0.40286,-0.39893 -0.0391,-0.16427 -0.0391,-0.2073 0.004,-0.25033 0.0469,-0.0469 0.10168,-0.0391 0.34808,0.043 0.34811,0.11733 0.84094,0.21121 1.12256,0.21121 0.19555,0 0.7666,0.0782 1.16553,0.16034 0.10562,0.0196 0.37548,0.0626 0.59451,0.0939 0.22294,0.0313 0.53192,0.0939 0.69229,0.1408 0.42242,0.12128 0.44199,0.10953 0.66492,-0.36374 0.2503,-0.53586 0.50845,-1.07559 0.69229,-1.4628 0.0861,-0.17602 0.15254,-0.36376 0.15254,-0.42242 0,-0.25812 -0.18382,-0.73139 -0.38332,-0.98172 -0.0156,-0.0235 -0.0704,-0.10169 -0.11734,-0.18384 -0.0469,-0.0782 -0.26596,-0.28943 -0.48498,-0.46933 -0.22293,-0.17603 -0.4928,-0.4068 -0.61016,-0.50458 -0.32463,-0.28943 -0.72358,-0.37939 -1.0482,-0.2464 -0.0861,0.0352 -0.309,0.1369 -0.50454,0.23078 -0.19166,0.09 -0.42243,0.19555 -0.50849,0.23468 -0.23857,0.10167 -0.51627,0.22683 -0.85267,0.3872 -0.16423,0.0782 -0.31286,0.14081 -0.33245,0.14081 -0.0156,0 -0.0704,0.0235 -0.12515,0.0508 -0.46933,0.2464 -1.10297,0.50455 -1.18118,0.48108 -0.0626,-0.0156 -0.12909,-0.10559 -0.20732,-0.26596 -0.0626,-0.13296 -0.2073,-0.37545 -0.3129,-0.53586 -0.2151,-0.31677 -0.395,-0.44194 -0.7001,-0.48889 -0.4576,-0.0704 -0.661,-0.21121 -0.78225,-0.53973 -0.10168,-0.27772 -0.18383,-1.04822 -0.22293,-2.10425 -0.0274,-0.80963 -0.0235,-1.0365 0.0196,-1.21252 0.0313,-0.11731 0.0665,-0.31287 0.0821,-0.43025 0.0274,-0.21508 0.12125,-0.40673 0.35593,-0.74703 0.0665,-0.0978 0.13691,-0.21902 0.15253,-0.27377 0.0157,-0.0508 0.0626,-0.15253 0.10168,-0.22687 0.0391,-0.0743 0.0822,-0.25421 0.0978,-0.40283 0.0274,-0.2621 0.086,-0.3833 0.18772,-0.3833 0.0274,0 0.1369,0.0782 0.24249,0.17596 0.22296,0.19949 0.31684,0.24644 0.89569,0.41461 0.48499,0.14081 0.71185,0.2425 1.06778,0.48889 0.17209,0.11737 0.39897,0.21906 0.73532,0.32856 l 0.48499,0.15646 0.51629,-0.0391 c 0.65317,-0.0509 1.52537,-0.0509 1.73267,0 0.58276,0.1408 1.05603,0.23077 1.31027,0.24644 0.16428,0.0117 0.37155,0.0547 0.46933,0.0978 0.1369,0.0626 0.3325,0.0861 0.8996,0.12124 1.05997,0.0626 1.98694,0.14863 2.3155,0.21513 0.15642,0.0352 0.61013,0.0861 1.00908,0.11731 1.10297,0.09 1.58405,0.2034 1.90869,0.44592 0.0821,0.0587 0.15253,0.1134 0.16425,0.12512 0.0118,0.0118 0.0626,0.0509 0.11734,0.0861 0.0548,0.0391 0.16818,0.11734 0.25424,0.17993 0.19947,0.14081 0.5515,0.26987 0.80963,0.30506 0.41852,0.0548 0.81745,0.25424 1.26334,0.63363 0.25815,0.21904 0.37546,0.23074 0.47327,0.0391 0.13686,-0.26593 0.0117,-0.47324 -0.62192,-1.02863 -0.18382,-0.16037 -0.22292,-0.21905 -0.22292,-0.32073 0,-0.1252 0.0391,-0.1721 0.352,-0.40287 0.0704,-0.0548 0.15644,-0.12515 0.19166,-0.16037 0.1095,-0.10559 0.837,-0.56714 1.0404,-0.66098 0.1095,-0.0469 0.28554,-0.12906 0.39894,-0.17993 0.10952,-0.0508 0.2151,-0.0938 0.23467,-0.0938 0.0547,0 0.31293,-0.25817 0.42243,-0.42242 0.0587,-0.09 0.12124,-0.1643 0.1369,-0.1643 0.043,0 0.0821,-0.27768 0.0547,-0.38328 -0.0235,-0.0821 -0.12908,-0.11733 -0.18774,-0.0587 -0.0469,0.0508 -0.3911,0.16818 -0.48108,0.16818 -0.0508,0 -0.09,-0.0196 -0.09,-0.0391 0,-0.0235 0.0196,-0.0391 0.0391,-0.0391 0.0235,0 0.0391,-0.0235 0.0391,-0.0509 0,-0.0274 0.0509,-0.09 0.11343,-0.13299 0.0861,-0.0665 0.1056,-0.10559 0.09,-0.18775 -0.0235,-0.13296 -0.09,-0.15643 -0.2503,-0.086 -0.0704,0.0313 -0.22687,0.10168 -0.34421,0.15646 -0.18381,0.0821 -0.54758,0.18381 -0.66492,0.18381 -0.09,0 -0.0274,-0.13688 0.1369,-0.29728 0.18381,-0.1799 0.20731,-0.23465 0.12906,-0.33633 -0.0469,-0.0587 -0.12515,-0.0274 -0.74313,0.27376 -0.3794,0.18776 -0.72357,0.3677 -0.7627,0.40285 -0.11343,0.10171 -0.44195,0.32075 -0.67663,0.45373 -0.3794,0.21512 -0.68057,0.29724 -1.11862,0.30115 -0.37159,0.004 -0.39896,0 -0.53582,-0.10559 -0.0743,-0.0587 -0.15257,-0.10559 -0.16822,-0.10559 -0.0117,0 -0.11341,-0.0625 -0.21508,-0.13691 -0.15648,-0.11344 -0.25425,-0.14862 -0.55543,-0.19554 -0.19557,-0.0313 -0.4928,-0.0978 -0.65317,-0.14082 -0.35202,-0.10168 -0.85657,-0.24248 -1.23596,-0.34418 -0.15647,-0.0391 -0.30118,-0.0861 -0.32852,-0.1017 -0.0274,-0.0156 -0.18775,-0.043 -0.35596,-0.0626 -0.23859,-0.0235 -0.36766,-0.0626 -0.57106,-0.16819 -0.1838,-0.0978 -0.31288,-0.1408 -0.43413,-0.1408 -0.0939,0 -0.35593,-0.0626 -0.58667,-0.14472 -0.23077,-0.0782 -0.50455,-0.16822 -0.60626,-0.2034 -0.10169,-0.0352 -0.25031,-0.12906 -0.33246,-0.2034 -0.22684,-0.22292 -0.28552,-0.24249 -0.55538,-0.18774 -0.35984,0.0704 -0.57887,0.0313 -0.88786,-0.15253 -0.40677,-0.24249 -0.57494,-0.26593 -1.3572,-0.18381 -0.37156,0.0352 -0.73924,0.0547 -0.85657,0.0391 -0.20727,-0.0274 -0.25424,-0.0508 -0.89957,-0.50846 -0.266,-0.18774 -0.32855,-0.21511 -0.48892,-0.21511 -0.2034,0 -0.23858,-0.0196 -0.67664,-0.36767 -0.39114,-0.3168 -0.4537,-0.38722 -0.63364,-0.7275 -0.21117,-0.395 -0.3794,-0.5906 -0.62188,-0.72356 -0.176,-0.0978 -0.26205,-0.11734 -0.56322,-0.12909 -0.30116,-0.0156 -0.39503,-0.004 -0.58668,0.0704 -0.39892,0.14865 -0.41852,0.14865 -0.85266,-0.0743 -0.36766,-0.18774 -0.4224,-0.20727 -0.77832,-0.23468 -0.44199,-0.0352 -0.48108,-0.0587 -0.63364,-0.40286 -0.1056,-0.23465 -0.1056,-0.23465 -0.0313,-0.34024 0.043,-0.0548 0.1369,-0.12128 0.21121,-0.14084 0.16817,-0.0508 0.39502,-0.27377 0.63754,-0.64145 0.19556,-0.29333 0.22293,-0.40283 0.16033,-0.63751 -0.0235,-0.0861 0.008,-0.15256 0.17994,-0.39506 0.16034,-0.22292 0.27378,-0.33245 0.50456,-0.48107 0.5906,-0.3833 0.92696,-0.68838 1.0873,-0.98953 0.17603,-0.33246 -0.0782,-0.70795 -0.59842,-0.87616 -0.33636,-0.1095 -0.48498,-0.17987 -0.52801,-0.25812 -0.12125,-0.23077 0.0782,-1.2829 0.35593,-1.86957 0.17602,-0.36375 0.133,-0.62188 -0.14472,-0.86828 -0.53192,-0.46937 -1.38068,-0.68842 -2.63618,-0.68451 -0.528,0 -0.70012,0.0156 -0.94262,0.0821 -0.37938,0.1056 -0.68444,0.27382 -0.8331,0.45765 -0.12124,0.14472 -0.12124,0.15253 -0.10168,0.50452 0.0313,0.53976 0.0235,1.27118 -0.0118,1.52148 -0.043,0.30118 -0.1134,0.3794 -0.41458,0.4459 -0.98172,0.22683 -1.27115,0.99735 -0.68447,1.81482 0.09,0.12515 0.0978,0.15646 0.0743,0.41458 -0.0235,0.23468 -0.0156,0.30115 0.0548,0.43808 0.0469,0.0899 0.15642,0.21121 0.25422,0.27767 0.0939,0.0665 0.17992,0.14472 0.19164,0.17994 0.0235,0.0548 -0.0391,1.12646 -0.0743,1.29852 -0.0274,0.14472 -0.59454,0.67664 -0.71969,0.67664 -0.0352,0 -0.13297,-0.0587 -0.21903,-0.12903 -0.29334,-0.25037 -0.32464,-0.26209 -0.65317,-0.26209 -0.29337,0 -0.3168,0.008 -0.53585,0.15644 -0.12516,0.0861 -0.25812,0.15648 -0.28942,0.15648 -0.0313,0 -0.12907,-0.0704 -0.21904,-0.15255 -0.10168,-0.0939 -0.23468,-0.17208 -0.34421,-0.2034 -0.20335,-0.0509 -0.46151,-0.17205 -0.48498,-0.21902 -0.004,-0.0196 -0.13297,-0.13687 -0.28552,-0.26596 -0.14862,-0.12909 -0.28159,-0.24249 -0.29335,-0.25421 -0.0117,-0.0118 -0.13298,-0.11736 -0.26986,-0.23078 -0.13299,-0.11734 -0.32854,-0.33636 -0.42634,-0.48501 -0.1369,-0.21121 -0.23857,-0.3129 -0.43807,-0.44197 -0.14077,-0.09 -0.27768,-0.2073 -0.30113,-0.25814 -0.0235,-0.0508 -0.1056,-0.16816 -0.18385,-0.26596 -0.0782,-0.0978 -0.15643,-0.19558 -0.17209,-0.2151 -0.0196,-0.0235 -0.12516,-0.19948 -0.24249,-0.39113 -0.11344,-0.19557 -0.23467,-0.39505 -0.26987,-0.4498 -0.0352,-0.0548 -0.11737,-0.2034 -0.17993,-0.33249 -0.0626,-0.12902 -0.16427,-0.30505 -0.22293,-0.39111 -0.44199,-0.63361 -1.00914,-1.55667 -1.00914,-1.6427 0,-0.0196 -0.0234,-0.0626 -0.0547,-0.0939 -0.0587,-0.0665 -0.33246,-0.60236 -0.61406,-1.19684 -0.12516,-0.2738 -0.1682,-0.41071 -0.18382,-0.61798 -0.0235,-0.32855 -0.11343,-0.43808 -0.40286,-0.50064 l -0.19556,-0.043 -0.17212,-0.35982 c -0.26596,-0.56324 -0.33636,-0.75878 -0.39111,-1.13818 -0.10559,-0.70405 -0.23468,-1.22425 -0.41458,-1.67793 -0.10172,-0.26205 -0.0939,-0.34417 0.0587,-0.62187 0.0704,-0.133 0.2425,-0.45372 0.3794,-0.71187 0.1369,-0.25811 0.28552,-0.53973 0.33246,-0.62579 0.0508,-0.0861 0.16037,-0.29727 0.2503,-0.46936 0.0861,-0.17212 0.1995,-0.3833 0.24644,-0.46936 0.1134,-0.19946 0.57104,-1.05994 0.64535,-1.21246 0.0313,-0.0665 0.12515,-0.23078 0.20337,-0.37159 0.0822,-0.1408 0.22686,-0.40287 0.32464,-0.5867 0.0939,-0.1838 0.28162,-0.52801 0.40677,-0.76267 0.12907,-0.23858 0.3168,-0.5906 0.42243,-0.78225 0.22684,-0.42242 0.27768,-0.50065 0.48498,-0.71969 0.18776,-0.19556 0.20728,-0.33636 0.0743,-0.4889 -0.11343,-0.12908 -0.28943,-0.16036 -0.44195,-0.0822 z"
         id="path2" />
    </g>
    <g
       style="fill:#000000;fill-opacity:1;stroke-linejoin:miter"
       id="g8">
      <path
         d="m 329.6073,515.61755 c 0,0.0312 0.0274,0.0586 0.0626,0.0586 0.0548,0 0.0548,-0.0117 0.0157,-0.0586 -0.0274,-0.0313 -0.0548,-0.0587 -0.0626,-0.0587 -0.008,0 -0.0156,0.0274 -0.0156,0.0587 z"
         id="path6" />
    </g>
    <g
       style="fill:#000000;fill-opacity:1;stroke-linejoin:miter"
       id="g12">
      <path
         d="m 329.1927,515.641 c 0.10167,0.0235 0.16817,0.0235 0.19554,-0.004 0.0274,-0.0274 -0.0235,-0.0391 -0.15252,-0.0352 l -0.19556,0.004 z"
         id="path10" />
    </g>
    <g
       style="fill:#000000;fill-opacity:1;stroke-linejoin:miter"
       id="g16">
      <path
         d="m 329.4704,515.6762 c 0.0156,0.0235 0.043,0.0313 0.0626,0.0195 0.0548,-0.0352 0.043,-0.0586 -0.0274,-0.0586 -0.0313,0 -0.047,0.0195 -0.0352,0.0391 z"
         id="path14" />
    </g>
  </g>
</svg>
