<?xml version="1.0" encoding="UTF-8" standalone="no"?>
<svg
   xmlns:dc="http://purl.org/dc/elements/1.1/"
   xmlns:cc="http://creativecommons.org/ns#"
   xmlns:rdf="http://www.w3.org/1999/02/22-rdf-syntax-ns#"
   xmlns:svg="http://www.w3.org/2000/svg"
   xmlns="http://www.w3.org/2000/svg"
   xmlns:sodipodi="http://sodipodi.sourceforge.net/DTD/sodipodi-0.dtd"
   xmlns:inkscape="http://www.inkscape.org/namespaces/inkscape"
   version="1.1"
   width="722.79877"
   height="1960.6692"
   viewBox="0 0 722.79878 1960.6692"
   id="svg35"
   sodipodi:docname="alone_moving_male22.svg"
   inkscape:version="1.0.2 (e86c870879, 2021-01-15)">
  <metadata
     id="metadata41">
    <rdf:RDF>
      <cc:Work
         rdf:about="">
        <dc:format>image/svg+xml</dc:format>
        <dc:type
           rdf:resource="http://purl.org/dc/dcmitype/StillImage" />
        <dc:title></dc:title>
      </cc:Work>
    </rdf:RDF>
  </metadata>
  <defs
     id="defs39" />
  <sodipodi:namedview
     pagecolor="#ffffff"
     bordercolor="#666666"
     borderopacity="1"
     objecttolerance="10"
     gridtolerance="10"
     guidetolerance="10"
     inkscape:pageopacity="0"
     inkscape:pageshadow="2"
     inkscape:window-width="1920"
     inkscape:window-height="997"
     id="namedview37"
     showgrid="false"
     fit-margin-top="0"
     fit-margin-left="0"
     fit-margin-right="0"
     fit-margin-bottom="0"
     inkscape:zoom="0.30115437"
     inkscape:cx="-323.91178"
     inkscape:cy="853.43834"
     inkscape:window-x="0"
     inkscape:window-y="0"
     inkscape:window-maximized="1"
     inkscape:current-layer="svg35"
     inkscape:document-rotation="0" />
  <rect
     style="fill:#ffffff;stroke-width:5.66929;stroke-linecap:square;stroke-linejoin:round;stroke-dasharray:11.3386, 11.3386"
     id="rect846"
     width="722.79877"
     height="1960.6692"
     x="0"
     y="0" />
  <g
     id="layer1"
     transform="matrix(3.7151554,0,0,3.7151554,-828.92746,-1141.4989)">
    <g
       style="fill:#000000;fill-opacity:1;stroke-linejoin:miter"
       id="g4">
      <path
         d="m 333.88818,785.8559 1.55555,5.2194 1.98497,10.58376 0.007,10.67261 -3.94895,2.44396 -37.2311,5.37897 -15.20548,2.9601 -9.47034,-3.628 -1.0975,-4.0144 13.13942,-9.97975 5.14695,-4.46455 5.47205,-2.37224 q 1.68622,-0.88346 3.11408,-2.05966 1.8189,-1.1559 13.00039,-13.4328 l 23.53311,2.6926"
         id="path2"
         inkscape:connector-curvature="0" />
    </g>
    <g
       style="fill:#000000;fill-opacity:1;stroke-linejoin:miter"
       id="g8">
      <path
         d="m 392.4322,740.7467 1.995,1.3511 5.6853,5.2593 c 0.11437,0.12807 0.22527,0.2593 0.34313,0.3842 0.1188,0.1258 0.24277,0.2468 0.36664,0.3677 l 0.37841,0.3595 0.37842,0.3595 c 0.12387,0.1209 0.2478,0.2419 0.36664,0.3678 0.11786,0.1249 0.23419,0.25147 0.34314,0.38416 0.10825,0.13184 0.21304,0.26704 0.30786,0.40884 0.095,0.14206 0.1843,0.2887 0.26083,0.44156 0.0781,0.15594 0.14683,0.3172 0.202,0.48264 0.0576,0.17275 0.10093,0.3504 0.13538,0.5292 0.0363,0.18835 0.0593,0.3793 0.0766,0.5703 0.0181,0.20045 0.0257,0.40187 0.0296,0.6031 0.004,0.20917 0,0.4185 -0.006,0.6277 -0.006,0.2148 -0.0176,0.42955 -0.0292,0.64415 -0.0118,0.21759 -0.0273,0.43495 -0.041,0.65241 -0.0137,0.21744 -0.0292,0.43484 -0.041,0.6524 -0.0116,0.2146 -0.0233,0.4292 -0.0292,0.64404 -0.006,0.20923 -0.004,0.4185 -0.006,0.6278 l -0.81166,2.90504 -0.99626,2.4566 -1.52689,16.76203 -3.90942,16.36643 -5.56663,9.0137 -6.2937,5.8841 -4.99737,3.10015 -5.3211,1.9693 c -0.21143,-0.0965 -0.41793,-0.20455 -0.63431,-0.28931 -0.2179,-0.0854 -0.44248,-0.15294 -0.66657,-0.2204 l -0.6828,-0.18594 -0.68275,-0.1859 c -0.22408,-0.0674 -0.44872,-0.13493 -0.6666,-0.2203 -0.21638,-0.0848 -0.43144,-0.17605 -0.6343,-0.28945 -0.20522,-0.11475 -0.40532,-0.24219 -0.58587,-0.39285 -0.19039,-0.15885 -0.3688,-0.3352 -0.52121,-0.53073 -0.17002,-0.2182 -0.31817,-0.45517 -0.44042,-0.70327 -0.14203,-0.2882 -0.25287,-0.59196 -0.3489,-0.8986 -0.11003,-0.35126 -0.1936,-0.71075 -0.26814,-1.07117 -0.0828,-0.40023 -0.14603,-0.80443 -0.20356,-1.20903 -0.062,-0.4362 -0.10982,-0.87434 -0.15502,-1.3126 -0.0474,-0.4599 -0.085,-0.92075 -0.12274,-1.3815 -0.0387,-0.47175 -0.0711,-0.94404 -0.10664,-1.416 -0.0355,-0.47207 -0.0679,-0.94436 -0.10656,-1.41616 -0.0378,-0.46069 -0.0754,-0.92151 -0.1228,-1.38134 -0.0452,-0.43824 -0.10336,-0.87507 -0.15504,-1.3126 l 1.15537,-13.17856 1.15311,-13.08824 1.97192,-10.1094 -0.64898,-5.2755 z"
         id="path6"
         inkscape:connector-curvature="0" />
    </g>
    <g
       style="fill:#000000;fill-opacity:1;stroke-linejoin:miter"
       id="g12">
      <path
         d="m 273.18124,341.30646 -1.03027,-1.43433 -2.40759,-4.82248 -0.57526,-3.27847 1.30191,-3.56656 2.28513,-2.03642 1.91946,-1.09926 q 0.83938,0.11406 5.98816,-0.54174 3.04044,-0.36094 9.80158,0.009 l 2.58688,-0.3369 q 2.63751,-1.38906 5.34634,-2.06176 2.37232,2.1152 2.59104,2.02054 0.3298,0.25712 0.78658,-1.06366 0.10374,-0.11335 0.26627,-0.0289 l 1.36469,1.9064 q 0.29108,0.36113 0.61744,0.48247 0.32305,0.0869 0.58858,0.019 1.89812,-0.77365 2.46256,-0.59814 1.79703,0.30081 3.69992,1.44882 0.47308,0.31409 0.90644,0.88696 l 1.97594,2.9943 3.5723,4.59375 q 1.771,2.38163 4.49539,8.1019 0.64874,1.55163 0.67713,4.73931 0.0758,3.53376 -0.17966,5.68692 -0.77637,3.18024 -2.073,15.45404 -0.0673,0.73819 -1.56436,3.86109 -1.2262,2.7366 -2.19736,3.50183 -0.21243,0.39234 -0.25195,0.83574 -0.43973,0.52296 2.25885,8.4649 l -2.52912,-1.83287 -42.68402,-42.30517"
         id="path10"
         inkscape:connector-curvature="0" />
    </g>
    <g
       style="fill:#000000;fill-opacity:1;stroke-linejoin:miter"
       id="g16">
      <path
         d="m 293.89856,419.28082 -0.30516,-1.98002 q -2.6426,-16.03453 -2.25054,-18.83174 -0.0566,-0.59729 -0.56446,-1.57436 -0.2348,-0.5897 -2.80834,-4.2382 l -0.68776,-1.50208 q -0.1885,-0.28067 -0.497,-0.43085 0.007,-0.63641 -9.1593,-0.22784 -1.3327,-0.21277 -2.07705,-1.20103 -1.41577,-2.0269 -2.02032,-4.8823 -0.11918,-0.8016 0.009,-1.95732 l 0.65904,-1.9975 q 0.10787,-0.4335 0.0113,-0.78693 0.2041,-0.17625 -1.87395,-2.12635 -0.28856,-0.3877 -0.4639,-1.22417 l -0.7132,-5.25213 q -0.0132,-0.29075 0.0509,-0.52393 l 0.40427,-1.15367 q -0.0953,-0.23183 -0.55234,-0.34023 l -2.86594,-0.5498 q -0.36328,-0.10303 -0.49402,-0.53791 -0.7269,-1.84656 2.91467,-7.86419 0.0735,-0.26499 -0.22662,-0.69227 -1.51797,-1.54766 -2.07953,-2.45315 -0.31256,-0.96597 -0.27182,-2.8945 -0.33542,-1.21103 3.28095,-11.18738 1.36001,-3.96063 4.75465,-4.51364 l 8.5425,-1.01343 q 1.30908,-0.16934 6.36224,2.02313 l 1.87293,-0.40543 q 0.4165,0.1689 0.569,0.87254 0.44519,4.55806 0.84698,5.02932 0.19641,1.07517 4.43781,4.75422 l 2.07022,7.30084 2.05615,1.27243 q 1.49914,-3.49881 2.5708,-3.74325 1.96397,-1.08155 6.16009,-1.449 5.17963,1.72054 5.79364,5.37926 0.49939,5.32748 0.0682,10.9064 -0.10164,1.05494 -0.30099,1.64298 l -1.12217,2.66458 q -0.18408,0.60254 -0.38208,3.81012 l 0.29084,4.4068 q 0.0482,0.40556 1.33728,1.54553 0.19788,0.24373 0.28168,0.67987 0.11703,0.84399 -0.37476,2.05156 -0.75452,2.1591 -5.17114,8.47285 -0.022,0.25153 -18.08234,24.72217"
         id="path14"
         inkscape:connector-curvature="0" />
    </g>
    <g
       style="fill:#000000;fill-opacity:1;stroke-linejoin:miter"
       id="g20">
      <path
         d="m 276.22897,550.91046 -1.22237,1.26044 -8.19746,8.3958 q -0.49244,0.5061 -0.76959,1.17427 -0.22875,0.52929 -0.2529,1.16058 0.11368,2.59915 0.0285,2.89725 -0.0641,0.6217 -0.35635,1.3264 0.0873,0.1154 -2.51355,4.5853 l -2.61984,5.707 q -0.45383,0.95427 -1.80866,2.9937 l 3.96428,1.00585 q 0.90883,0.31708 1.0591,0.61055 0.48022,0.8817 -2.1381,2.97686 -1.45742,1.52734 -5.65934,1.70634 -0.78781,0.3207 -6.66037,-0.73155 -1.03311,-0.0785 -5.75941,-5.60665 -0.76438,-0.8678 -0.58382,-3.82023 0.22246,-2.97003 1.03447,-5.37857 1.86584,-4.80545 3.38231,-7.3719 2.89711,-5.07107 4.01216,-6.4552 l 5.72147,-6.6986 q 3.22015,-4.0054 3.82193,-5.19034 1.50045,-2.44732 3.19894,-5.65746 10.29626,-19.8556 10.49203,-19.9887 2.24018,-4.078 3.34089,-5.16347 0.52218,-0.52603 0.8883,-0.56633 1.34177,0.54015 1.63297,0.1379 l -4.03556,36.69076"
         id="path18"
         inkscape:connector-curvature="0" />
    </g>
    <g
       style="fill:#000000;fill-opacity:1;stroke-linejoin:miter"
       id="g24">
      <path
         d="m 355.08368,485.8159 -0.42493,3.4198 q -1.69937,14.0324 -5.60785,44.312 -0.6494,5.3844 -1.90274,12.207 l -0.73129,12.00604 q -0.16284,2.40506 -0.37473,3.88666 -0.20617,1.51996 -0.59091,2.4408 l -1.84693,3.5352 q -0.60833,1.904 -0.9787,4.60145 -0.2494,1.94375 -0.2508,3.31945 l -4.7e-4,8.1568 q 0.38751,1.8788 2.14404,3.61055 0.46835,0.53405 1.99983,-0.46195 1.04326,4.38767 0.979,4.7047 0.16915,0.6093 0.49914,0.85637 -0.0295,0.48733 6.04136,1.45459 l 4.2303,-1.65992 4.18137,-2.73669 2.57753,-3.71039 2.6825,-5.23416 0.37602,-4.69034 0.0875,-8.67006 -0.90374,-8.172 -1.18802,-6.65037 -0.78528,-8.79153 7.36227,-28.38114 q 2.76083,-13.85592 5.9606,-28.61596 l -23.53509,-0.7369"
         id="path22"
         inkscape:connector-curvature="0" />
    </g>
    <g
       style="fill:#000000;fill-opacity:1;stroke-linejoin:miter"
       id="g28">
      <path
         d="m 341.11362,561.4054 0.35768,-0.186 q 4.07982,-3.8217 4.09605,1.1542 0.15875,2.5064 -0.1586,5.1153 l -2.1463,12.23363 q -0.21713,1.90917 0.22605,3.00483 -0.15586,0.45257 2.684,2.74084 1.01924,4.7931 2.3968,6.8187 0.37293,0.94925 5.4906,1.3478 -2.284,5.42615 -3.69567,10.3077 l -2.94168,19.91405 q -6.76845,23.62249 -6.31055,23.15225 -2.74713,11.82345 -1.0684,15.6159 0.72273,2.7661 3.95286,7.2399 16.70584,18.51233 18.69022,22.6262 l 3.06817,4.73354 q 2.55039,6.29242 9.48712,19.11626 l 12.41816,16.1406 q 2.20025,3.9136 5.25323,8.16056 l -1.97452,8.80341 q -1.44922,4.23956 -4.72271,6.74927 l -3.64118,2.03846 q -4.22465,1.0805 -11.21698,4.0236 l 5.53711,16.89356 Q 361.4566,753.9225 360.30203,751.4021 l -2.95355,-6.4975 q -7.311,-13.8588 -10.42868,-18.37396 -2.57303,-4.84998 -19.34366,-21.77794 3.7829,18.07665 4.02616,21.04137 l 4.6458,40.68193 q 1.42005,9.81306 0.0111,19.56447 -2.0026,7.02307 -12.89258,6.33868 -1.52121,0.0324 -3.1145,-0.64875 -5.04642,-3.38934 -6.44583,-3.6495 l -7.63294,-0.98355 q -0.9805,-0.39125 -1.21725,-2.2456 -1.58899,-10.2887 -1.00019,-12.20771 l 0.75394,-4.79794 q 3.1826,-8.92105 2.5955,-9.5119 l -3.2056,-7.83054 q -3.89988,-21.74389 -4.34986,-23.14536 l -5.21018,-19.47176 -0.59566,-9.66104 -2.90705,-21.01487 -0.39887,-7.16153 q -0.74575,-4.1927 -2.22378,-10.0066 l -2.07828,-5.8275 q 0.49301,0.9071 -3.67377,-14.55985 l -1.72223,-14.94342 q -3.59164,-13.26573 -4.9425,-24.22953 -0.70114,-4.75655 -0.64386,-7.6317 l 0.8464,-12.7299 64.91346,-18.7152"
         id="path26"
         inkscape:connector-curvature="0" />
    </g>
    <g
       style="fill:#000000;fill-opacity:1;stroke-linejoin:miter"
       id="g32">
      <path
         d="m 273.09753,581.78033 1.71393,0.15357 q 14.9834,2.0991 19.88126,0.9215 9.67538,-1.47137 36.88003,-13.67 2.46235,-1.2201 13.31382,1.12637 5.9486,-36.31452 8.56671,-48.07487 0.66104,-5.8429 0.61926,-7.77145 -0.41592,-15.46835 -0.1951,-16.61495 0.16141,-3.90516 0.97852,-5.91977 1.68674,-4.95263 11.80487,-4.10843 3.40942,0.0927 11.50152,5.8068 l 2.98175,-10.973 q 0.68552,-3.2601 0.18686,-4.83 l -5.72143,-10.91695 q -0.38343,-0.1492 -1.04816,-8.88611 -0.43507,-2.5108 -1.50925,-6.4396 -3.73802,-14.12476 -9.96066,-27.9538 -0.36609,-1.22266 -0.41386,-2.30614 0.24366,-5.54982 -0.0882,-6.2987 -0.64356,-2.67623 -2.69785,-5.7725 -5.64017,-8.59074 -14.70819,-17.40138 -1.50504,-1.00222 -3.31088,-1.20477 -4.9902,0.41105 -16.24265,-1.84525 l -2.46872,0.26444 q -0.73858,-0.27716 -1.62553,-1.33417 l -4.45586,-5.91949 q -0.53641,-0.64933 -1.15298,-0.7649 -0.34646,-0.0577 -0.70026,0.49922 -0.53073,2.50347 -2.81265,5.5438 l -5.39197,7.09062 -4.54996,11.31938 -5.98702,10.9144 q -1.711,1.1999 -2.49637,-1.15028 -0.21103,-8.29599 -2.5896,-17.89312 -5.93726,17.33757 -6.8447,16.4518 l -0.2276,3.36746 -8.93131,9.15674 q -1.78756,1.68247 -2.13452,3.91532 -1.48974,9.09295 -1.43463,13.49178 0.57157,6.06382 2.59638,10.31812 0.80267,18.94338 1.39605,23.888 0.89783,8.78228 3.0572,17.53836 0.34628,3.13437 0.37237,6.25955 0.0741,5.04621 -0.49045,6.43557 l -1.12079,3.1285 -3.50803,7.6296 q 0.0226,0.5004 0.82618,0.5064 l 4.94519,-0.3923 q -1.5734,6.35166 -1.26507,9.17466 l -3.11878,10.17999 q -0.67908,2.45675 -0.88992,4.4176 l -0.008,14.63819 q -0.053,2.82281 -1.52117,24.30419"
         id="path30"
         inkscape:connector-curvature="0" />
    </g>
  </g>
</svg>
