<?xml version="1.0" encoding="UTF-8" standalone="no"?>
<svg
   xmlns:dc="http://purl.org/dc/elements/1.1/"
   xmlns:cc="http://creativecommons.org/ns#"
   xmlns:rdf="http://www.w3.org/1999/02/22-rdf-syntax-ns#"
   xmlns:svg="http://www.w3.org/2000/svg"
   xmlns="http://www.w3.org/2000/svg"
   xmlns:xlink="http://www.w3.org/1999/xlink"
   xmlns:sodipodi="http://sodipodi.sourceforge.net/DTD/sodipodi-0.dtd"
   xmlns:inkscape="http://www.inkscape.org/namespaces/inkscape"
   viewBox="0 0 1243.4118 2224.4238"
   version="1.1"
   id="svg16"
   sodipodi:docname="alone_moving_male4.svg"
   width="1243.4117"
   height="2224.4238"
   inkscape:version="1.0.2 (e86c870879, 2021-01-15)">
  <metadata
     id="metadata20">
    <rdf:RDF>
      <cc:Work
         rdf:about="">
        <dc:format>image/svg+xml</dc:format>
        <dc:type
           rdf:resource="http://purl.org/dc/dcmitype/StillImage" />
        <dc:title></dc:title>
      </cc:Work>
    </rdf:RDF>
  </metadata>
  <sodipodi:namedview
     pagecolor="#ffffff"
     bordercolor="#666666"
     borderopacity="1"
     objecttolerance="10"
     gridtolerance="10"
     guidetolerance="10"
     inkscape:pageopacity="0"
     inkscape:pageshadow="2"
     inkscape:window-width="1920"
     inkscape:window-height="997"
     id="namedview18"
     showgrid="false"
     fit-margin-top="0"
     fit-margin-left="0"
     fit-margin-right="0"
     fit-margin-bottom="0"
     inkscape:zoom="0.1543801"
     inkscape:cx="1689.2428"
     inkscape:cy="2174.2536"
     inkscape:window-x="0"
     inkscape:window-y="0"
     inkscape:window-maximized="1"
     inkscape:current-layer="svg16"
     inkscape:document-rotation="0" />
  <defs
     id="defs6">
    <clipPath
       id="b">
      <use
         xlink:href="#a"
         id="use2"
         x="0"
         y="0"
         width="100%"
         height="100%" />
    </clipPath>
    <path
       id="a"
       d="m 25.944,7.285 1.585,-3.616 c 0,0 0.382,-0.423 0.783,-0.127 l 2.114,1.988 c 0,0 0.339,0.253 0,1.015 l -1.304,2.579 c 0,0 -1.311,0.79 -1.621,0.845 0,0 -0.227,0.127 -0.367,-0.14 L 26.12,7.715 c 9.99e-4,0 -0.196,-0.324 -0.176,-0.43 z"
       inkscape:connector-curvature="0" />
  </defs>
  <rect
     style="fill:#ffffff;stroke-width:5.66929;stroke-linecap:square;stroke-linejoin:round;stroke-dasharray:11.3386, 11.3386"
     id="rect836"
     width="1243.4117"
     height="2224.4238"
     x="0"
     y="0" />
  <path
     d="m 85.701502,1895.5813 c 9.61594,-3.3636 31.842298,9.2345 31.842298,9.2345 l 91.09462,28.6389 c 14.08201,-0.8359 48.14989,-20.2005 48.14989,-20.2005 0,0 4.44896,8.3985 -2.22439,-6.7267 -6.65567,-15.1652 3.71317,-34.5099 3.71317,-34.5099 l 128.89125,-214.6007 c 31.08917,-41.2366 42.92937,-100.1444 42.92937,-100.1444 -5.9201,-16.8566 11.8753,-54.7288 11.8753,-54.7288 7.39124,-13.4539 9.63349,-17.6729 6.67322,-29.4547 -2.97756,-11.7819 5.16698,-36.1816 5.16698,-36.1816 19.26653,-32.8381 65.19171,-238.1863 65.19171,-238.1863 -0.73561,-7.5826 -15.55313,-15.9811 -15.55313,-15.9811 -10.38662,-9.2543 -5.20209,-11.7818 -5.20209,-11.7818 7.42635,-20.2005 20.75522,-93.4383 24.45106,-110.2563 3.69566,-16.8171 2.97756,-58.073 2.97756,-73.21887 0,-15.14543 13.31133,-125.38018 13.31133,-125.38018 3.69561,-44.62127 -10.36906,-187.67528 -10.36906,-187.67528 l -52.57821,56.38334 c -35.55525,48.79943 -72.60007,40.38077 -72.60007,40.38077 -28.14647,-14.30935 -28.86448,-64.80112 -29.6176,-66.47326 -15.81604,-35.96298 28.86447,-132.14779 28.86447,-132.14779 14.09957,-32.8183 58.51631,-120.3462 61.47878,-130.4361 2.97756,-10.0904 -0.71811,-99.3105 -0.71811,-99.3105 0.71811,-32.8184 24.43352,-71.5468 24.43352,-71.5468 23.71506,-13.4535 40.73976,-37.0176 40.73976,-37.0176 0,0 0,-15.1454 -2.22439,-29.4547 -2.22439,-14.3094 4.44896,-37.8533 4.44896,-37.8533 25.18664,-76.602701 125.91562,-64.8187 125.91562,-64.8187 61.47877,17.673 64.43685,111.1121 64.43685,111.1121 -0.75313,44.5993 -30.37117,98.4547 -30.37117,98.4547 -5.18452,19.3644 16.30628,56.3833 16.30628,56.3833 17.77784,21.0362 97.01515,94.2546 97.01515,94.2546 39.26865,41.2366 49.6377,150.6555 49.6377,150.6555 -7.40879,28.61913 -2.22435,126.236 -2.22435,126.236 9.63305,28.59895 8.14436,77.43657 8.14436,77.43657 -6.67322,35.3459 -17.04228,148.96577 -17.04228,159.89396 0,10.94619 35.55526,177.58534 35.55526,177.58534 15.55314,40.401 -24.45107,38.7095 -24.45107,38.7095 -24.45107,13.4535 -15.5707,49.6553 -15.5707,49.6553 -0.75321,25.2555 26.67533,210.4006 26.67533,210.4006 5.92009,42.9083 91.81438,235.6584 91.81438,235.6584 48.14994,78.2529 91.11214,324.0012 91.11214,324.0012 4.449,26.0912 6.6557,42.0727 6.6557,42.0727 l -51.0904,16.0012 c -12.61088,4.1994 -21.50836,1.6718 -21.50836,1.6718 l -11.05196,-15.9815 -37.77995,22.7281 c -49.62014,18.5287 -148.14067,10.0903 -148.14067,10.0903 -21.47324,-4.1993 -31.08918,-10.9264 -31.08918,-10.9264 0,-10.1101 3.69567,-16.0013 8.14436,-16.8369 4.44852,-0.8359 82.94895,-25.2555 82.94895,-25.2555 21.4908,-10.9462 59.25363,-85.003 59.25363,-85.003 -0.73565,-13.4737 -82.19845,-180.0913 -82.19845,-180.0913 -17.79497,-30.2909 -21.4908,-69.0188 -27.39334,-88.3648 -5.9201,-19.3644 -25.18664,-68.163 -25.18664,-68.163 -5.18453,-4.1993 -15.55314,-13.4539 -15.55314,-13.4539 -12.59332,-19.3846 -85.92897,-150.6599 -89.62437,-152.3496 -3.69566,-1.6518 -127.38587,257.5499 -127.38587,257.5499 -15.57071,47.9656 -135.53154,230.6024 -144.42771,253.3103 -8.89748,22.728 -54.80336,105.2222 -54.80336,105.2222 -11.84019,20.1808 -25.9222,31.1068 -25.9222,31.1068 l -56.29117,-40.3808 c -7.40879,-7.5628 -2.22444,-20.2005 -2.22444,-20.2005 -22.96193,2.5076 -77.74818,-35.3459 -77.74818,-35.3459 -32.59542,-16.8369 -95.562448,-93.4207 -95.562448,-93.4207 -7.4439,-10.1299 5.88499,-10.9659 5.88499,-10.9659 z M 579.35743,390.38713 c 0,0 -19.63432,-26.1114 -22.96194,-21.8722 0,0 -7.40878,55.9664 -21.49079,67.3072 l -6.28789,7.1647 14.06446,18.9269 -4.04607,34.092 44.06828,-81.2198 c 0,0 6.67322,-9.2543 -3.34535,-24.3997 z"
     id="path10"
     inkscape:connector-curvature="0"
     style="stroke-width:4.38883" />
  <use
     transform="matrix(3.9908,0,0,4.5347,831.8653,1641.4646)"
     xlink:href="#a"
     id="use12"
     x="0"
     y="0"
     width="100%"
     height="100%" />
  <path
     d="M 104.22,38.502 110.3539,22.2 c 0,0 1.1813,-1.9816 2.8135,-0.4444 l 6.6886,6.8383 c 0,0 1.0735,1.2153 0.0639,3.7048 l -8.8356,18.152 -6.8642,-11.949 z"
     clip-path="url(#b)"
     id="path14"
     inkscape:connector-curvature="0"
     transform="translate(830.98302,1639.4852)" />
</svg>
