<?xml version="1.0" encoding="UTF-8" standalone="no"?>
<svg
   xmlns:dc="http://purl.org/dc/elements/1.1/"
   xmlns:cc="http://creativecommons.org/ns#"
   xmlns:rdf="http://www.w3.org/1999/02/22-rdf-syntax-ns#"
   xmlns:svg="http://www.w3.org/2000/svg"
   xmlns="http://www.w3.org/2000/svg"
   xmlns:sodipodi="http://sodipodi.sourceforge.net/DTD/sodipodi-0.dtd"
   xmlns:inkscape="http://www.inkscape.org/namespaces/inkscape"
   width="896.25873mm"
   height="999.29834mm"
   viewBox="0 0 896.25873 999.29833"
   version="1.1"
   id="svg829"
   inkscape:version="1.0.2 (e86c870879, 2021-01-15)"
   sodipodi:docname="alone_moving_male16.svg">
  <defs
     id="defs823" />
  <sodipodi:namedview
     id="base"
     pagecolor="#ffffff"
     bordercolor="#666666"
     borderopacity="1.0"
     inkscape:pageopacity="0.0"
     inkscape:pageshadow="2"
     inkscape:zoom="0.10865841"
     inkscape:cx="1189.9632"
     inkscape:cy="1810.9253"
     inkscape:document-units="mm"
     inkscape:current-layer="layer1"
     showgrid="false"
     fit-margin-top="0"
     fit-margin-left="0"
     fit-margin-right="0"
     fit-margin-bottom="0"
     inkscape:window-width="1920"
     inkscape:window-height="997"
     inkscape:window-x="0"
     inkscape:window-y="0"
     inkscape:window-maximized="1"
     inkscape:document-rotation="0" />
  <metadata
     id="metadata826">
    <rdf:RDF>
      <cc:Work
         rdf:about="">
        <dc:format>image/svg+xml</dc:format>
        <dc:type
           rdf:resource="http://purl.org/dc/dcmitype/StillImage" />
        <dc:title></dc:title>
      </cc:Work>
    </rdf:RDF>
  </metadata>
  <g
     inkscape:label="Ebene 1"
     inkscape:groupmode="layer"
     id="layer1"
     transform="translate(186.2262,200.20486)">
    <rect
       style="fill:#ffffff;stroke-width:1.5;stroke-linecap:square;stroke-linejoin:round;stroke-dasharray:3, 3"
       id="rect831"
       width="896.25873"
       height="999.29834"
       x="-186.2262"
       y="-200.20486" />
    <path
       inkscape:connector-curvature="0"
       style="clip-rule:evenodd;fill-rule:evenodd;stroke-width:3.11836"
       d="m 659.4413,468.28699 h 1.00064 c -0.4455,-3.22123 -1.99571,-2.99364 -4.00395,-4.50602 -1.60596,-1.20052 -3.00613,-3.73887 -5.00185,-4.49671 -6.48619,-2.47282 -11.31656,1.67455 -16.02213,-1.00417 -3.09973,-1.76495 -5.84384,-6.64518 -8.00798,-9.5047 -2.50088,-2.51348 -5.00188,-5.01129 -7.50592,-7.51216 -5.79694,-7.68058 -13.31842,-13.97337 -19.02191,-21.52607 -18.2736,-24.19842 -41.29024,-44.3836 -59.56997,-68.57884 -6.77625,-8.96844 -15.65735,-16.44312 -22.52706,-25.52695 -1.73384,-2.29509 -4.37826,-4.00712 -6.00284,-6.51117 -1.00064,-1.52169 1.90532,-6.55479 1.49682,-9.01205 -0.18739,-1.1291 1.02656,-4.49659 1.50307,-6.50481 1.53736,-6.47382 0.54569,-15.39535 -2.00197,-19.5241 -4.44368,-7.20961 -11.90905,-13.87978 -18.51993,-19.02201 -0.16855,-0.50209 -0.33355,-1.00064 -0.50209,-1.50295 -2.95628,-2.19845 -7.80221,-2.38561 -10.00996,-5.50701 -7.32819,-10.34682 -12.17094,-22.26199 -19.02201,-33.03911 -2.91564,-4.58086 -7.49028,-8.51302 -10.5151,-13.01598 -2.58823,-3.8512 -3.50503,-7.98608 -6.00906,-12.01819 -1.76812,-2.84703 -5.20142,-4.82413 -7.00385,-7.5058 -2.90007,-4.29399 -5.11722,-11.46931 -7.01317,-16.51489 4.82098,-3.19318 10.10657,-6.98509 15.01798,-10.0161 -0.25576,-6.92592 -3.11834,-11.05468 -5.00496,-16.01906 -0.97599,-2.57571 -0.54569,-4.41869 -1.50303,-7.00689 -2.03318,-5.50713 -5.39788,-11.70951 -7.00696,-17.51895 -0.16843,-2.50724 -0.33367,-5.00504 -0.50209,-7.5091 -1.00099,-0.83916 -2.00197,-1.67137 -3.00297,-2.50711 -1.14135,-1.58722 -2.28576,-4.26276 -3.00296,-6.00591 -1.20682,-2.9313 -3.43333,-7.96439 -2.50406,-12.011939 0.50209,-1.500006 1.00099,-3.002957 1.50306,-4.50296 -0.12469,-0.549229 -1.73694,-2.694281 -2.00512,-3.501856 -1.23485,-3.770105 -0.40225,-7.655597 -1.99884,-11.513036 -0.62372,-1.50307 -2.43546,-3.607931 -3.003,-5.50701 -0.58942,-1.95208 0.46153,-3.835566 0,-5.004948 -0.58942,-1.481216 -3.57364,-3.414604 -4.50604,-5.00496 -1.98637,-3.380307 -2.49467,-6.769961 -4.50603,-10.009932 -2.2982,-3.710846 -5.75645,-7.275134 -8.00481,-11.01404 -0.33684,-1.169406 -0.66732,-2.338768 -1.00098,-3.50815 -1.23173,-1.269176 -4.05387,-1.484341 -5.50704,-2.50093 -3.73578,-2.603823 -7.47469,-6.897805 -11.51295,-9.008936 -3.73267,-1.94897 -7.69611,-3.766971 -11.513,-5.00496 l -8.00793,-1.000986 c -0.16843,-0.502085 -0.3306,-1.000984 -0.50208,-1.503044 -1.80863,-1.175653 -9.89769,-4.690014 -12.01503,-5.004972 0.21202,-1.450031 -0.10253,-3.470729 -1.49994,-4.5060244 0.32435,-3.0746963 1.59349,-2.7566287 2.99989,-4.5029117 15.14272,-0.8014485 24.37929,-4.08816378 34.54515,-9.0120459 1.42822,-3.3553572 2.50093,-10.193912 0,-13.514973 0.47085,-2.53211 2.66306,-4.362584 4.5029,-5.506998 0.003,-2.72235 -0.29618,-4.262807 -1.00098,-6.00598 1.20993,-0.623714 1.92404,-1.331538 2.99988,-2.001973 -0.10609,-4.746148 -1.57166,-7.873872 -2.99988,-11.512994 5.05804,-2.76603 9.08383,-3.009266 10.51205,-9.51102 -5.34487,-5.603706 -8.73452,-16.268473 -15.01802,-20.521917 0.66733,-3.006106 1.33778,-6.012211 2.00512,-9.012055 8.85613,1.044591 19.86083,1.481212 26.52786,-2.50404 4.56528,-2.72545 6.98202,-8.974636 11.513,-12.015029 0.16524,-1.668336 0.33366,-3.336642 0.50208,-5.00185 -1.03222,0.19658 -0.96668,0.12463 -1.50306,0.49888 h -0.50209 c 0.16843,-0.33364 0.33673,-0.67038 0.50209,-1.00097 -5.79082,-0.20892 -11.99325,-1.66208 -17.02001,-2.99985 -11.02342,-2.94063 -17.90876,-1.46252 -26.03207,-7.50901 -1.95832,-1.45629 -10.61491,-11.8529 -10.512,-13.01604 -0.9292,-0.8388 -2.49156,-0.76715 -3.50502,-1.50303 -5.88124,-4.27217 -10.87994,-10.55878 -20.52503,-11.01406 v -2.00197 c -2.40738,1.11331 -8.31979,2.64748 -12.51711,1.50303 -0.57998,-0.15894 -4.50291,-2.00197 -4.50291,-2.00197 -0.75147,0.3492 -1.97078,1.70886 -3.00296,2.00197 -5.78768,1.63092 -11.34772,-1.23484 -15.0149,2.00511 -1.52486,-0.62372 -3.05598,-1.71199 -4.50603,-2.50404 -1.35338,1.6652 -3.28051,1.18499 -5.00496,2.50404 -1.32529,1.00723 -1.48744,3.58614 -2.99986,4.50291 -5.0798,3.06848 -13.92346,9.69185 -17.01998,14.51907 h -2.50718 c -0.21521,10.03488 -8.45075,11.09512 -9.00894,20.02298 -0.0566,0.907409 1.76189,1.886616 2.002,2.504039 1.73691,4.462392 -1.05402,10.85189 -1.49994,13.514966 -0.83881,4.964429 3.86677,12.623121 2.50091,17.020008 -0.45836,1.478082 -2.52897,2.644352 -3.00297,4.000845 -1.28789,3.689034 0.5457,6.367704 -2.00511,8.510019 -0.18716,4.27837 -0.11551,6.037137 2.50405,7.508987 -0.2495,6.841683 -2.05813,11.369551 0.99792,15.51694 -0.32435,2.893849 -1.65274,2.606963 -2.50094,4.506042 -0.50208,1.833605 -1.00417,3.67341 -1.50302,5.507017 -1.55607,2.373074 -4.66195,2.304468 -7.50903,3.505038 -4.5185,1.905314 -9.60143,4.980022 -14.51596,6.5080068 -3.33663,0.3336612 -6.6764,0.6673223 -10.01302,1.0009835 -8.05787,2.04876 -15.67912,6.6233903 -22.52393,9.5109963 -6.82608,2.8813566 -14.2166,2.9593216 -20.02296,6.5080156 -11.19804,6.8385548 -18.04905,16.3994418 -25.53002,27.0299178 -2.62876,3.738921 -6.56412,7.035017 -9.01205,11.01404 -3.87612,6.317804 -5.15465,15.024251 -9.51099,21.023975 -2.33253,3.215033 -9.87583,11.17618 -13.0129,13.514994 -2.03629,1.515443 -4.53097,2.482133 -6.00595,4.506024 -5.32305,7.284454 -7.99236,18.463716 -15.01802,24.023756 3.346,5.15472 9.89143,16.50865 11.51298,22.53024 1.45003,5.37288 -4.40312,15.046 -6.5049,17.52201 -0.66426,0.77905 -2.3107,0.75194 -2.99986,1.49364 -1.90532,2.05818 -2.94061,6.93841 -4.50603,9.51413 -2.67555,4.40938 -6.64834,9.66381 -8.51,14.51905 -5.12658,13.37157 -5.06733,29.82094 -8.51,45.04786 -0.33366,5.33859 -0.66732,10.68036 -0.997916,16.02213 -0.748412,3.20249 -2.123603,6.04339 -2.504042,9.51094 -6.161873,2.96253 -14.151108,5.5538 -19.021992,10.00997 -3.452014,4.41869 -5.560021,15.11154 -3.505026,23.02596 0.782709,3.00613 3.29922,11.73437 1.000986,15.52004 v 0.99827 c -1.621543,-0.40897 -2.631886,-0.86391 -3.505029,-2.00197 -0.776459,1.13146 -0.745344,3.39897 -1.499934,4.50602 -1.428203,2.08624 -3.520619,-0.13082 -5.50702,1.00064 -2.488448,1.42198 -8.435157,3.82314 -10.511979,5.507 -1.091385,0.88513 -1.715099,2.20163 -3.006103,3.00296 -1.749396,7.59643 -4.365697,16.41507 0,21.52607 -0.283816,6.32401 -10.773922,11.8903 -15.018016,15.01489 -2.906309,2.13916 -5.444649,5.5756 -8.506873,7.50591 -1.83672,0.66709 -3.673425,1.33772 -5.50702,2.00504 -4.17861,2.58514 -7.537077,6.73263 -11.512978,9.51106 -2.5040458,1.33465 -5.0080851,2.6693 -7.5090237,4.00394 -1.8959486,1.3627 -3.48941715,3.74831 -5.507014,5.00493 -2.5040392,0.99474 -5.0049477,2.00515 -7.5058864,3.00307 -6.7917709,4.19417 -11.3601579,10.86434 -17.5220439,15.52004 -5.291864,3.99145 -10.178324,7.99233 -15.52007,12.015 -2.834576,2.83454 -5.672282,5.67225 -8.509989,8.50691 -2.684901,1.97391 -5.787669,3.031 -8.510018,5.01117 -2.167242,2.16108 -4.337614,4.33453 -6.504885,6.50493 -2.750376,1.98641 -6.242954,3.88855 -9.012055,5.507 -2.226515,1.30342 -4.789798,1.18803 -7.006951,2.50406 -3.018568,1.793 -5.927981,4.73361 -9.012055,6.50799 -3.389654,1.95836 -8.004822,0.68948 -10.511987,2.50405 -1.69014,1.22233 -7.42792,6.83541 -8.50999,8.50997 v 2.50405 c -0.82324,1.76495 -3.45203,5.79082 -5.00498,7.01008 -5.87497,4.59642 -13.61786,7.06617 -19.52402,11.50985 -6.50801,6.508 -13.01603,13.0161 -19.52404,19.52092 -0.16858,0.50208 -0.33367,1.00416 -0.49891,1.5 2.50404,1.50295 5.00495,3.0092 7.50902,4.50909 1.8367,0.50208 3.67341,0.99827 5.50701,1.49989 2.82521,1.82423 8.17009,9.03397 10.00993,12.01512 0.63927,1.02655 0.19326,2.98727 1.00097,4.00394 0.86686,1.08784 4.30645,1.87409 5.50704,3.5081 3.00921,4.09127 5.50078,8.02355 8.50999,12.00887 3.04663,4.03517 7.65869,7.22517 10.51509,11.51292 3.1901,4.79608 4.29087,10.62119 7.509021,15.52004 1.275395,1.9428 3.660947,3.63292 5.001847,5.50713 4.534099,6.31776 8.575464,13.97961 11.516094,21.52288 9.960044,2.0768 21.837862,3.33037 29.031906,8.00788 5.550694,3.61113 9.938219,9.20851 16.517972,12.01193 8.887306,3.79193 18.161291,4.55282 27.5350695,8.01108 7.96740313,2.94367 16.8547392,7.25958 24.5290155,10.5151 10.084775,4.2815 20.400293,5.20766 30.534971,9.51096 4.09752,1.73691 8.354068,4.49048 13.016022,6.00604 3.333526,0.49854 6.676403,1.00416 10.009932,1.49987 2.712972,1.37519 4.571505,4.73056 7.509002,6.00908 6.629637,2.88452 19.199736,3.63919 27.531988,2.50407 0.16524,-0.16858 0.33366,-0.3312 0.50208,-0.50209 -0.75465,-15.48269 -3.91665,-29.84582 -7.01006,-44.04675 -1.939623,-8.92166 3.00298,-16.64585 2.005104,-24.52903 -2.597598,-20.46273 1.284766,-44.8264 -3.002978,-64.57502 -0.168429,-4.50602 -0.333661,-9.00886 -0.502084,-13.51489 -2.304468,-9.93513 -2.659958,-21.47621 -5.008082,-31.5391 -0.165238,-2.50099 -0.333664,-5.00186 -0.498902,-7.50285 -1.22552,-5.2793 -3.607944,-14.61876 -2.001982,-21.52288 1.808645,-7.79904 5.201421,-14.84966 7.509002,-22.02497 1.153849,-3.58601 0.629961,-17.3068 2.001994,-19.52398 0.165238,-0.50209 0.333661,-1.00064 0.498899,-1.50001 3.511259,0.0471 7.284479,-1.73372 10.009919,-1.00417 4.26592,1.13853 17.51583,9.48302 22.02497,6.0091 2.12048,-1.2723 5.21389,-15.73526 2.99986,-17.52201 0.61428,-1.12557 0.86686,-0.99828 2.0051,-1.50001 2.292,-9.35195 6.48307,-34.74784 -2.0051,-40.04588 0.0154,-6.0309 -0.48641,-11.20743 -1.49681,-15.52016 v -5.00174 c -0.66732,-1.50625 -3.35536,-2.79717 -4.00709,-4.50921 -0.16524,-1.66831 -0.33366,-3.33355 -0.50208,-5.00186 -1.13193,-3.51435 -5.09852,-6.66698 -8.00794,-8.50996 0.0566,-7.39678 0.0471,-14.26024 -3.50504,-18.01785 0.10608,-7.44981 5.46337,-7.30319 8.51,-11.50985 1.5623,-2.16108 2.82523,-5.69417 3.50504,-8.51008 0.98542,-4.08503 -2.45103,-6.28029 -1.49994,-10.01304 1.25046,-4.91759 5.0954,-9.57647 7.50902,-13.51488 4.2659,-6.96341 7.23146,-14.07013 11.50985,-21.02092 3.42707,-5.56936 7.79277,-11.35393 10.51511,-17.52201 4.40936,-10.00997 7.98611,-24.03944 16.01898,-30.53812 v -0.99474 c 0.75466,1.21302 -0.0247,3.23691 0.49891,5.00186 0.41168,1.39075 2.04877,2.31383 2.50405,3.50198 2.56328,6.67948 2.28886,13.17191 9.01206,15.52004 1.1133,0.81323 3.13393,1.00417 5.00496,1.00417 0.16524,6.0059 0.33366,12.01818 0.50208,18.01478 -0.44905,2.04876 -1.92092,6.14934 -1.00098,9.01511 0.39919,1.24107 2.07681,3.13083 3.00609,4.00406 -0.76091,7.74281 -6.83231,10.59302 -9.511,16.022 -1.52174,3.07792 -0.10961,6.59227 -1.00098,10.50887 -2.57264,11.2574 -4.64013,31.28653 -2.00197,43.55104 v 6.50799 c -0.30868,1.30353 2.42294,16.92647 1.00098,18.01785 3.24932,5.37607 5.83131,10.81448 7.50899,18.02103 v 12.51402 c 1.6621,7.56826 0.4428,17.68419 2.00512,24.52902 v 9.51095 c 0.89491,3.9634 1.00098,9.35821 2.50403,13.01599 1.70264,4.15999 4.35323,8.26376 5.50703,13.01917 2.0581,8.46011 -5.35735,12.00875 -9.51099,14.51293 -0.0872,12.22385 -3.43019,18.85347 -6.00598,28.02769 -0.33366,3.17456 -0.66732,6.34276 -1.00098,9.51107 -1.61841,6.4612 -3.4489,13.80494 -5.00497,20.52496 -0.33048,7.01008 -0.66732,14.02016 -1.00099,21.02399 -0.33991,1.51863 -1.6465,6.3833 -1.49994,7.50591 0.64552,5.05172 1.99265,16.38078 0.50208,22.53012 -1.03528,4.2597 -2.11114,10.29378 -3.50502,15.51698 -1.08832,4.08502 0.54569,8.08272 -1.00099,11.5161 -0.42724,0.95702 -2.10491,2.39173 -2.50094,3.50185 -0.16524,1.83367 -0.33685,3.6704 -0.4989,5.50701 -0.66732,0.67063 -1.33467,1.33783 -2.00512,2.00209 -0.90434,2.59752 0.10961,8.13882 0.50208,10.02234 0.71718,3.40215 -0.4646,7.12854 -1.00098,9.50163 -2.60382,11.51916 8.07342,16.38386 4.5029,28.53616 -0.64552,2.2015 -3.18071,4.5527 -4.00397,6.50798 -0.25575,0.60816 -2.50403,15.51381 -2.50403,15.51381 0.91059,4.15986 3.48321,7.2346 4.50604,11.01096 v 7.51215 c 0.0566,4.41549 0.52071,9.38308 2.00196,13.01904 l 4.50604,8.00801 c 1.36584,1.35644 2.16726,0.31823 2.99984,2.50088 1.06333,1.9178 -0.36478,2.98738 -0.4989,4.50294 0.94488,1.74941 3.36159,6.30846 5.00186,7.50899 2.69424,1.96766 6.45809,1.83978 10.01302,2.99671 9.97251,3.26494 21.93454,6.24928 34.53894,6.01534 -0.57999,2.5321 -2.28576,2.59764 -3.00296,4.50602 -2.22029,5.93424 -1.5935,12.76659 -4.00401,18.51687 -1.10069,2.62873 -3.69836,4.48422 -4.50291,7.51203 -1.05084,3.92297 -0.14648,11.7438 1.49995,13.51195 3.20566,7.6431 22.47711,8.01106 34.04,8.01106 h 12.51709 c 0.78271,-0.25227 1.87103,-1.7026 2.50091,-2.00821 2.50094,-0.33002 5.00496,-0.67064 7.50902,-1.00064 0.16524,-0.49619 0.3306,-0.99829 0.49891,-1.49683 2.55704,-1.61539 12.4017,-3.22442 16.01898,-4.00392 h 35.53996 c 17.74344,-4.11003 34.93495,-6.91345 39.547,-24.02708 1.00098,-2.2108 -2.52898,-7.71793 -3.50503,-10.01302 -2.38868,-5.60991 -7.57451,-13.10957 -13.51496,-15.01491 h -13.01291 c -1.68392,-0.29351 -8.48196,0.15925 -10.5151,1.49684 -5.99974,-0.0942 -9.86026,-4.10058 -14.01703,-6.50492 -0.32117,-0.86394 -0.0967,-0.49267 -0.4989,-0.99829 0.0342,-8.20435 4.78045,-11.95889 6.5049,-18.52617 0.33366,-9.83837 0.66733,-19.68616 1.00099,-29.53076 -0.33366,-2.83773 -0.66733,-5.66918 -1.00099,-8.50998 1.10694,-3.44267 5.29183,-6.86357 7.01006,-10.01315 0.80451,-1.46863 -0.421,-1.14442 0,-2.50404 0.68912,-2.23275 2.2047,-5.38844 3.50502,-7.5058 2.34815,-3.83244 5.69414,-7.22836 8.01109,-11.01095 1.91466,-3.13402 3.76697,-7.19101 5.00182,-10.50887 0.16843,-1.33466 0.33685,-2.67246 0.4989,-4.0102 0.96363,-2.00195 3.24623,-3.82619 4.00709,-6.50492 v -5.51019 c 1.46564,-4.45923 3.67345,-10.21563 5.00497,-15.52004 0.16524,-2.99989 0.33366,-6.00591 0.49891,-9.01205 0.62053,-2.18901 2.39803,-4.89272 3.003,-7.00064 0.51764,-1.79937 -0.61747,-4.52795 -0.4989,-5.51326 0.15274,-1.26605 2.04874,-4.12251 2.50403,-5.50088 0.16523,-1.66831 0.33366,-3.34286 0.4989,-5.00799 1.60285,-5.34495 4.85841,-11.60662 6.50803,-17.01698 2.07681,-6.82598 1.47496,-13.20621 3.50191,-20.02288 5.06733,-17.03254 7.79276,-37.01181 12.51396,-56.56702 1.07889,-4.45924 -0.0908,-7.6338 1.00405,-12.01819 2.73168,-10.96723 3.9572,-21.89403 4.00398,-35.53679 0.16524,-4.17236 0.33366,-8.34791 0.4989,-12.51709 -0.93546,-3.99781 -1.41262,-10.00678 -1.49993,-14.01697 -0.0684,-3.1247 -0.49584,-5.40412 -0.99781,-7.50592 -0.16843,-5.17346 -0.33366,-10.34681 -0.50208,-15.52004 -0.28689,-0.66119 -1.74006,-1.51556 -2.00512,-2.50417 -0.54887,-2.03933 0.71718,-4.12239 1.50306,-5.00492 0.57068,-0.38069 10.0879,-3.65472 12.51396,-2.00197 0.4989,0.165 1.00099,0.33354 1.49682,0.49855 0.91684,4.81788 -1.03846,8.03604 -1.99888,12.01818 v 21.5197 c 0.93239,3.47393 3.33663,7.34693 4.5029,10.51512 0.33366,2.16414 0.67051,4.33772 1.00417,6.50493 0.817,1.793 2.72855,4.60585 4.00397,6.51117 2.1548,3.22442 5.83445,5.69724 8.00793,9.00887 1.88662,0.40897 5.09228,1.94587 8.00798,1.00063 2.93123,-0.95466 4.44054,-4.73986 8.00792,-2.50712 1.61844,-3.43338 6.93522,-15.17082 5.00497,-21.02092 -2.13609,-6.47982 -7.81771,-11.2416 -10.51511,-17.01993 -1.71511,-3.67345 -1.86787,-7.33749 -3.5019,-11.00788 -0.7734,-1.73997 -2.6288,-3.42702 -3.50503,-5.00799 1.5498,-2.99365 -1.56231,-7.76167 -3.50194,-10.51205 -3.59859,-5.10476 -9.16798,-8.62229 -11.51297,-15.01489 -3.31792,-9.0526 2.05499,-26.05072 -3.00609,-33.53789 -1.86166,-4.92078 -8.42894,-4.43119 -11.50986,-8.01107 h -0.4989 c 2.51965,-5.30122 9.73241,-7.75848 13.01602,-12.51402 1.44693,-2.70052 0.36171,-6.68572 -0.50208,-10.01303 2.35749,-1.0631 6.43942,-1.45628 8.51003,-3.00613 6.09637,0.75783 15.56682,12.39238 20.52189,16.01905 5.38229,3.94466 11.48182,6.57035 17.01999,10.51512 3.7483,2.66623 6.72319,6.97884 10.512,9.51095 4.29086,2.86576 10.72092,3.72331 13.51496,8.01106 1.73694,2.65998 1.88662,5.8501 3.50505,8.51008 3.14953,5.17335 7.21901,11.33519 11.51606,15.51686 -0.0235,1.5468 -0.17797,2.56958 -0.50208,3.50504 -1.95212,0.0707 -4.85218,0.27108 -6.00909,-0.50209 h -2.00197 c -0.83563,5.34495 -1.67142,10.68672 -2.50403,16.01906 2.00194,2.00504 4.00403,4.00713 6.006,6.01216 5.99035,3.00307 25.51752,-1.77426 28.53297,-4.00712 4.03199,1.45015 6.21793,6.19307 9.01204,9.01216 8.22003,8.29169 15.7758,17.26626 24.02694,25.53001 9.25838,9.27712 19.57395,18.00842 27.53198,28.53603 2.50405,2.33257 5.00492,4.6682 7.50898,7.00077 2.00515,2.6568 5.4977,5.26999 7.00701,8.01106 1.14796,2.07987 0.78023,3.19318 2.50405,4.50602 7.79585,5.93425 13.61472,14.92756 21.02399,20.5219 7.60562,5.74709 14.2758,13.42449 20.02605,21.02399 2.83454,2.83771 5.66921,5.67531 8.50999,8.50996 0.97234,1.50931 1.25354,4.08503 1.9989,5.51326 0.62937,0.2746 1.51237,0.59872 2.00501,0.99827 1.36589,-0.0117 2.29205,-0.0235 2.99991,-0.49855 1.69329,-2.74107 -0.17099,-3.47699 2.50087,-6.51117 3.77634,0.17797 7.40619,5.08919 9.01206,7.50284 1.30351,-0.0943 1.69645,-0.21569 2.50416,-0.49265 -0.27093,-4.93951 -5.20776,-9.90389 -8.51008,-12.01819 0.0942,-1.30341 0.21795,-1.69953 0.49854,-2.50405 4.35011,-0.0354 14.33508,0.9417 16.51491,2.97491 z M 401.14458,349.15328 h 2.00197 c -0.33367,0.32765 -0.66733,0.66473 -1.00405,0.99828 v 0.99827 c 0.66732,-0.33001 1.33774,-0.66709 2.0082,-0.99827 4.36881,7.41846 8.86861,14.99297 13.51184,22.02178 1.48435,2.2483 2.17664,4.66196 4.00397,6.51118 -0.69537,6.00284 -1.91153,12.68233 -6.50488,15.01171 -0.16843,0.1709 -0.33366,0.33354 -0.50208,0.49855 -5.99038,-8.89973 -11.13255,-20.0791 -14.0139,-32.03176 -0.80451,-3.3273 -0.39295,-10.49637 0.4989,-13.00974 z m 89.1008,-7.51216 h -14.51281 c -1.24425,-0.67298 -2.00515,-4.88341 -3.00614,-6.00909 v -0.49855 c 3.3398,0.77906 8.90916,2.74107 14.01709,1.49989 2.48532,-0.60227 4.9051,-1.7494 8.00788,-2.00504 v 1.50307 c 1.20064,0.47026 2.51655,0.98178 3.50198,1.49989 0.16855,0.83563 0.33354,1.66831 0.50208,2.50405 -2.44477,0.15558 -6.75125,0.34651 -8.50996,1.50613 z m 11.5161,-5.50394 c -0.32411,0.86037 -0.0943,0.48912 -0.49855,1.00063 -0.44315,-1.0631 -0.78848,-2.22649 -1.50295,-3.00296 0.81677,-1.6122 2.41672,-1.69954 3.50504,-3.0092 h 1.00417 c -0.48323,1.84604 -1.34408,3.80122 -2.50724,5.01117 z m 130.64994,136.15375 c -0.3206,0.86038 -0.0942,0.48677 -0.50209,1.00064 -1.32841,-3.66722 -5.33871,-5.63489 -7.50899,-8.50997 -4.71499,-6.24611 -10.33113,-11.32281 -15.01807,-17.51576 -2.83771,-2.67554 -5.67224,-5.34177 -8.50996,-8.01106 -3.46143,-4.58087 -7.47786,-8.97775 -11.51303,-13.01611 -1.66513,-1.49682 -3.33662,-3.00295 -5.00493,-4.50602 -14.65624,-19.39929 -34.88503,-34.1616 -49.55695,-53.56089 -2.83771,-2.66623 -5.67224,-5.3387 -8.50996,-8.008 -3.45825,-4.58086 -7.4748,-8.97456 -11.51304,-13.01598 -2.98739,-2.9874 -7.587,-6.13697 -9.00898,-10.51194 1.81811,-1.71203 3.37728,-4.1225 5.00504,-6.00909 3.31788,1.35021 5.92482,6.25224 8.00788,9.01511 5.92801,7.85514 13.5057,14.55654 19.5241,22.52706 2.82841,3.74205 7.18781,6.76681 10.00997,10.50568 13.08764,17.35995 28.95396,32.20643 42.04785,49.5632 2.82522,3.74205 7.18475,6.77306 10.01621,10.51511 6.01216,7.97052 13.59915,14.66261 19.52093,22.52387 2.05182,2.72245 4.33758,6.96647 7.00689,9.01205 1.74007,1.32852 4.6028,2.09873 6.50811,3.00307 -0.003,2.11111 -0.11801,3.80747 -1.00064,4.99868 z"
       id="path2" />
  </g>
</svg>
