<?xml version="1.0" encoding="UTF-8"?>
<svg width="574pt" height="1664pt" version="1.1" viewBox="0 0 574 1664" xmlns="http://www.w3.org/2000/svg">
 <path transform="scale(.8)" d="m431.8 0c-27.288 2.525-55.262 18.363-65.938 44.488-31.512 36.675-45.589 84.262-55.764 130.6-6.1125 32.025-12.55 64.925-5.8125 97.412-6.4375 23.8 2.4258 46.551 13.238 67.301-22.688 14.962-52 9.6738-74.85 24.111-17.05 7.7125-23.35 25.9-35.463 38.525-11.062 36.112-20.675 72.75-32.225 108.79-12.988 37.3 6.3863 74.088 11.736 110.86 13.65 36.662-3.6992 73.8-3.0742 111.78 0.275 56.7 8.1238 112.99 11.736 169.5-0.4625 46.338 13.4 90.937 21.463 136.16-0.45 32.612-1.2238 65.312-2.8613 97.938 2.15-0.2375 4.2867-0.6125 6.4492-0.8125-6.0625 47.138-10.638 94.449-15.838 141.67-8.2375 43.862-19.712 87.251-34.387 129.39-14.912 36.138-38.876 67.736-53.451 104.05-23.038 58.288-27.537 121.48-38.6 182.65-9.8875 51.275-12.725 106.08-40.662 151.74-7.4 10.225-1.4621 23.161-6.1621 34.049-14.95 46.275-15.713 96.651-31.338 142.18v23.051c1.4125 17.088 17.625 26.224 30.525 34.574h10.088c22.562-7.0125 60.024-7.1 62.049-37.438 3.5625-82.975-10.4-171.9 28.588-248.82 29.862-58.788 51.988-121.59 87.65-177.34 27.3-47.625 22.463-107.04 53.65-152.59 34.85-54.188 43.425-119.71 69.6-177.91 20-57.525 58.462-107.15 75.637-165.61 7.375-16.562 14.212-33.374 21.438-49.986 17.45 1.6375 34.851 4.4484 52.488 3.3359-1.7375 34.288 9.7246 67.151 15.287 100.58 15.8 72.238 7.0008 147.22 19.051 219.72 23 52.8-0.31328 110.86 14.762 165.26 12.175 40.688 15.912 83.088 22.662 124.84 4.9 38.6 14.325 77.6 7.0371 116.56-1.5625 59.475 6.5137 118.8 6.3887 178.51-0.3125 29.5 36.124 30.474 57.387 35.549 32.35 0.7125 52.212-39.775 33.938-65.787-6.9875-40.762-17.175-81.062-28.963-120.75 0.35-11.188 3.2141-22.588 0.16406-33.688-9.625-41.725 2.4738-84 6.9238-125.59 6.7375-62.775 23.337-125.54 15.037-188.99-5.7875-40.938-23.574-80.188-20.236-122.28-2.3-83.6 23.536-163.76 35.736-245.65 7.15-26.375 23.2-49.862 29.938-76.438 1.8625-22.1 9.5383-42.787 10.676-64.912v-24.625c-21.038-71.312-27.3-146-43.85-218.33-6.65-28.775-30.301-57.124-18.988-86.762 1.6125-34.162 17.188-66.724 14.463-101.14-5.8625-35.575-24.9-67.064-34.9-101.45-9.9875-39.838-43.711-75.113-86.611-77.15 3.2125-20.875-2.4012-41.936-0.51367-62.799 5.725 12.712 1.1621 34.886 11.162 41.174 2.35-13.338 11.614-25.373 19.727-36.711 0.5-50.425-2.3012-103.43-21.326-150.35 4.05-11.3 2.3887-25.399-8.2988-32.424-4.4125-13.288-0.78828-28.337-5.1758-41.937-5.2375-22.912-25.187-37.3-38.1-55.65-17.988-12.988-40.025-19.462-61.875-22.438h-11.412zm116.95 578.65c5.65 19.45 11.001 39.75 16.676 59.475-0.1625 15.338 3.2492 31.037 11.137 44.262 5.25 22.312 4.95 45.551 10.938 67.738 0.625 2.5875-2.5258-0.33789-2.6758-1.3379-6.5-20.688-26.45-33.612-33.188-54.262-11.325-37.812-1.2992-80.538-2.8867-115.88zm-279.71 81.637c12.325 39.388 33.326 77.912 28.301 120.6-5.6875 37.638-4.0883 76.1-16.113 112.65-15.45 14.525-24.287 37.212-32.1 53.812-11.925-79.175 20.913-158.24 15.301-238.05-2.525-16.55 1.2738-32.914 4.6113-49.014z"/>
</svg>
