<?xml version="1.0" encoding="UTF-8" standalone="no"?>
<svg
   xmlns:dc="http://purl.org/dc/elements/1.1/"
   xmlns:cc="http://creativecommons.org/ns#"
   xmlns:rdf="http://www.w3.org/1999/02/22-rdf-syntax-ns#"
   xmlns:svg="http://www.w3.org/2000/svg"
   xmlns="http://www.w3.org/2000/svg"
   xmlns:sodipodi="http://sodipodi.sourceforge.net/DTD/sodipodi-0.dtd"
   xmlns:inkscape="http://www.inkscape.org/namespaces/inkscape"
   version="1.1"
   id="Layer_1"
   x="0px"
   y="0px"
   viewBox="0 0 744.11641 1599.7426"
   enable-background="new 0 0 855.363 1692.053"
   sodipodi:docname="woman in dress standing arm up.svg"
   width="744.11639"
   height="1599.7426"
   inkscape:version="0.92.4 (5da689c313, 2019-01-14)">
  <metadata
     id="metadata9">
    <rdf:RDF>
      <cc:Work
         rdf:about="">
        <dc:format>image/svg+xml</dc:format>
        <dc:type
           rdf:resource="http://purl.org/dc/dcmitype/StillImage" />
        <dc:title></dc:title>
      </cc:Work>
    </rdf:RDF>
  </metadata>
  <defs
     id="defs7" />
  <sodipodi:namedview
     pagecolor="#ffffff"
     bordercolor="#666666"
     borderopacity="1"
     objecttolerance="10"
     gridtolerance="10"
     guidetolerance="10"
     inkscape:pageopacity="0"
     inkscape:pageshadow="2"
     inkscape:window-width="1920"
     inkscape:window-height="1048"
     id="namedview5"
     showgrid="false"
     fit-margin-top="0"
     fit-margin-left="0"
     fit-margin-right="0"
     fit-margin-bottom="0"
     inkscape:zoom="0.27895108"
     inkscape:cx="-723.72825"
     inkscape:cy="907.00852"
     inkscape:window-x="0"
     inkscape:window-y="0"
     inkscape:window-maximized="1"
     inkscape:current-layer="Layer_1" />
  <path
     d="m 418.108,0.04449203 c 0.66,-0.206 10.099,0.369 10.455,0.39 7.683,0.58699997 15.137,6.40299997 16.495,6.96199997 8.385,6.717 4.056,4.08 7.655,7.89 1.543,2.299 4.187,3.952 4.698,6.841 0.842,0.635 1.802,1.08 2.71,1.615 0.501,0.598 2.782,5.85 2.92,7.062 0.421,0.286 0.853,0.573 1.284,0.863 3.257,0.526 10.089,4.153 12.888,5.705 5.37,2.521 10.574,10.021 13.868,15.128 0.732,1.001 3.847,3.37 6.406,9.499 1.954,4.447 6.534,20.053 6.534,20.053 -0.039,1 2.803,17.566 0.062,26.914998 -1.255,5.587 -2.471,8.727 -2.92,18.197 0.359,0.549 0.697,1.118 1.049,1.684 0.633,4.2 -0.726,3.215 -1.073,5.837 -1.772,9.848 -3.48,9.207 -2.44,11.463 -0.387,1.553 0.052,3.303 -0.963,4.663 -4.02,22.82 -8.166,44.429 -22.953,64.161 -6.194,8.125 -11.557,11.435 -12.225,14.124 -0.718,3.831 -2.068,7.79 -1.142,11.704 0.884,0.387 1.308,1.225 1.491,2.137 2.762,3.933 5.833,6.882 10.362,9.233 0.897,1.001 9.02,4.788 10.455,6.327 2.364,0.266 3.359,2.227 5.529,2.102 0.815,-0.963 1.788,-1.784 2.823,-2.499 6.502,-0.701 6.432,1.486 8.335,1.805 2.923,0.67 5.957,0.732 8.853,1.55 13.914,3.683 9.27,1.269 19.122,2.761 3.248,0.28 6.361,1.36 9.592,1.74 1.318,-0.207 2.713,-1.142 4,-0.276 1.608,0.711 1.077,2.768 1.519,4.118 0.063,0.033 8.398,2.036 12.301,3.886 0.155,0.035 0.469,0.104 0.625,0.138 2.409,1.36 5.094,2.268 7.276,4.014 0.159,0.031 0.476,0.097 0.635,0.128 6.968,4.318 27.166,22.271 28.976,23.988 0.11,0.045 0.328,0.131 0.438,0.176 0.67,0.699 6.814,6.439 7.756,7 0.014,0.079 0.045,0.235 0.059,0.314 0,0 18.755,16.839 18.763,16.844 0.003,0.003 13.275,13.202 13.275,13.202 0.031,0.079 0.09,0.238 0.121,0.318 5.717,5.973 21.241,23.936 25.12,25.907 0.01,0.072 0.028,0.217 0.038,0.29 16.438,14.174 28.207,25.536 35.848,33.228 1.001,0.457 39.156,36.428 45.367,53.578 0.11,0.155 0.331,0.462 0.442,0.618 0.193,1.087 8.319,17.381 -0.573,35.427 -6.958,11.3 -45.609,56.551 -46.906,57.772 -0.031,0.169 -0.097,0.507 -0.131,0.677 -0.569,0.342 -0.994,0.852 -1.36,1.398 0.003,0.169 0.007,0.514 0.007,0.687 -16.97,21.24 -56.048,71.663 -80.68,81.163 -0.117,0.135 -0.352,0.4 -0.469,0.535 -10.969,2.73 -12.138,-2.194 -24.14,-4.532 -2.973,5.28 37.666,109.542 45.957,137.32 2.677,8.704 44.691,154.64 44.691,154.64 -4.539,10.134 -93.989,22.22 -97.347,24.903 0.461,10.178 2.194,11.614 -0.217,12.381 -7.648,2.778 -20.666,4.017 -24.088,6.016 -0.037,3.461 -0.246,1.672 -0.421,4.197 -0.207,0.342 -0.404,0.697 -0.597,1.063 -0.241,2.995 -0.33,1.799 -0.787,4.449 -0.197,0.345 -0.387,0.701 -0.57,1.067 -0.305,3.26 -4.164,17.35 -4.242,19.705 -0.145,0.145 -0.428,0.442 -0.573,0.587 0,0 -5.344,23.29101 -12.881,68.81001 -0.846,1.522 -0.704,3.272 -0.611,4.953 3.246,30.969 -1.53,25.271 2.254,77.729 10.479,76.54 17.328,38.591 18.231,142.452 -3.058,69.767 6.951,105.356 7.3,109.683 l 0.207,-0.131 c 0.138,0.825 0.311,1.66 0.48,2.506 l 0.176,-0.024 c 0.353,1.663 0.292,0.79 0.425,2.061 l 0.4,-0.066 c -0.017,0.273 -0.052,0.822 -0.069,1.098 0.11,0 0.335,0.014 0.445,0.021 -0.017,0.255 -0.055,0.766 -0.073,1.022 0.228,0.242 0.463,0.5 0.704,0.777 0.034,0.949 0.119,1.664 1.222,3.099 0.121,0.68 0.393,1.332 0.535,2.036 h 0.366 c -0.031,0.169 -0.09,0.507 -0.121,0.673 l 0.525,-0.021 c -0.052,0.173 -0.155,0.518 -0.204,0.69 l 0.549,0.028 c -0.052,0.166 -0.152,0.5 -0.2,0.666 l 0.494,0.066 c -0.031,0.155 -0.093,0.466 -0.124,0.618 l 0.449,0.052 c -0.028,0.166 -0.086,0.497 -0.114,0.663 l 0.5,0.031 c -0.034,0.162 -0.107,0.487 -0.142,0.649 l 0.525,0.059 c -0.066,0.166 -0.193,0.5 -0.259,0.666 l 0.566,-0.062 c -0.045,0.179 -0.135,0.542 -0.183,0.725 h 0.507 c -0.041,0.183 -0.117,0.549 -0.159,0.732 l 0.587,-0.079 c -0.062,0.176 -0.183,0.531 -0.245,0.707 l 0.5,0.076 c -0.034,0.162 -0.104,0.487 -0.138,0.649 h 0.297 c 0.601,1.122 1.291,2.219 1.595,3.483 l 0.211,-0.069 c 6.113,18.14 2.715,12.57 4.667,21.852 1.82,10.765 4.766,15.514 9.416,32.866 13.38,58.201 25.915,70.943 26.304,71.954 1.073,-0.104 1.281,1.07 1.439,1.881 5.177,37.584 9.192,23.941 1.63,49.208 -2.592,8.661 -74.525,-12.048 -81.326,-20.852 -3.621,-4.688 -4.158,-11.883 -4.073,-34.917 0.144,-19.247 -8.489,-53.538 -13.326,-67.412 -9.783,-27.615 -2.191,-36.371 -0.345,-41.595 0.39,-13.924 -4.082,-19.934 -14.293,-51.059 -0.139,-0.425 -14.312,-47.802 -19.525,-63.509 -0.438,-0.024 -0.87,-0.021 -1.294,0 -7.369,25.148 -21.197,63.145 -24.088,72.282 -4.498,15.97 -0.802,26.449 -3.928,36.479 -0.328,1.087 -0.846,2.167 -0.725,3.348 2.433,26.542 -5.104,63.207 -5.854,70.046 0.262,31.116 0.969,40.535 -12.069,47.224 -19.861,10.19 -47.143,14.673 -60.224,-2.981 -12.114,-16.349 -1.696,-29.922 7.297,-65.315 0.183,-1.001 13.868,-54.853 15.839,-59.201 l 0.276,0.104 c 0,-0.235 -0.003,-0.701 -0.003,-0.932 4.687,-10.892 1.063,-12.925 6.627,-28.102 h 0.297 c 0,-0.176 -0.003,-0.521 -0.007,-0.694 0.1,-0.242 0.3,-0.728 0.4,-0.974 l 0.142,-0.079 c 6.017,-14.321 8.218,-26.542 11.86,-65.1 8.446,-44.878 -1.789,-98.853 3.31,-120.739 3.938,-36.259 17.502,-60.633 17.862,-90.12 2.274,-14.411 -3.888,-21.64 -4.711,-30.591 l -0.207,0.097 c -2.382,-14.42 -16.208,-48.567 -16.405,-49.568 -1.147,-2.297 -6.273,-15.681 -7.262,-16.999 -0.487,-1.515 -1.063,-3.006 -1.829,-4.394 -0.017,-0.218 -0.048,-0.649 -0.066,-0.866 -0.128,-0.159 -0.38,-0.48 -0.507,-0.639 -0.663,-1.719 -11.102,-27.31601 -15.504,-36.44101 -9.54,-1.458 -16.554,-1.601 -25.78,-7.134 -1.964,-1.412 -24.53,0.159 -27.064,0.594 -0.739,1.419 -1.077,3.124 -2.295,4.245 -3.888,3.668 -56.244,-2.777 -57.893,-2.14 -9.626,-2.02 -28.293,-4.236 -35.879,-6.765 -0.166,-1.864 0.79,-3.507 1.239,-5.25 9.699,-30.391 76.298,-390.248 76.096,-391.492 -7.497,-2.837 -5.357,-22.341 -2.872,-27.067 -2.292,-15.318 -7.169,-30.146 -8.96,-45.55 -1.447,-8.033 -0.887,-11.454 -4.142,-17.047 -2.283,-3.869 -5.673,-32.571 -10.524,-51.28 -0.576,-1.546 -0.173,-3.2 -0.286,-4.798 0.06,-3.063 -4.519,-17.731 -4.832,-18.742 -0.738,-3.205 -1.686,-2.62 -5.471,-11.145 -0.925,0.859 -0.939,2.185 -1.27,3.324 -15.348,60.818 -29.91,78.284 -47.379,95.245 -0.107,0.021 -0.324,0.066 -0.431,0.086 -0.021,0.121 -0.055,0.356 -0.076,0.473 -1,0.604 -24.499,23.687 -47.096,5.084 -7.611,-5.572 -17.197,-32.907 -19.515,-37.418 -16.073,-41.774 -19.775,-101.322 -31.654,-136.747 -3.247,-11.883 -7.945,-27.322 -7.945,-27.322 l -0.173,-0.003 c -0.179,-1 -4.542,-18 -10.828,-20.768 -0.176,-0.01 -0.528,-0.028 -0.704,-0.038 -0.148,-0.169 -0.442,-0.504 -0.59,-0.673 -0.204,-0.024 -0.607,-0.076 -0.811,-0.1 -0.138,-0.121 -0.411,-0.356 -0.549,-0.476 -1.816,-0.397 -3.469,-1.281 -5.226,-1.843 -0.349,-0.231 -0.697,-0.462 -1.042,-0.687 -0.587,-0.152 -1.17,-0.311 -1.753,-0.459 -0.152,-0.128 -0.459,-0.383 -0.614,-0.511 -1.847,-0.559 -3.424,-1.74 -5.274,-2.285 -0.155,-0.104 -0.466,-0.307 -0.625,-0.411 -3.977,-1.234 -13.061,-2.91 -18.704,-6.023 -0.183,-0.014 -0.552,-0.035 -0.735,-0.045 -0.142,-0.155 -0.421,-0.462 -0.559,-0.614 -3.365,-0.526 -6.213,-1.779 -8.66,-3.441 -6.622,-2.59 -29.732,-5.434 -33.929,-7.88 -6.234,-3.172 -29.454,-6.955 -36.065,-9.316 0.252,0.035 0.752,0.104 1.004,0.138 0.204,-0.859 0.456,-1.753 0.269,-2.637 -0.911,-0.569 -1.891,-1.011 -2.816,-1.553 0.176,-0.117 0.525,-0.352 0.697,-0.469 2.382,-8.581 13.659,-4.515 22.307,-2.368 1.8,-0.04 27.817,3.469 28.855,3.593 0.104,-0.221 0.314,-0.663 0.418,-0.884 0.041,0.228 0.121,0.687 0.159,0.915 1.871,-0.366 3.866,-0.135 5.719,0.224 1.636,-0.052 3.244,-0.469 4.891,-0.328 2.23,-0.069 4.425,0.459 6.661,0.335 -0.031,0.262 -0.093,0.787 -0.121,1.049 1.788,0.142 3.548,-0.252 5.326,-0.352 6.158,-4.433 11.08,-1.941 17.158,-2.019 -0.148,-3.264 -1.694,-4.781 1.75,-9.927 0.652,-0.431 1.253,-0.942 1.822,-1.484 2.661,-0.915 5.44,0.041 8.139,0.231 7.076,0.362 11.906,7.363 19.149,4.874 3.885,-1.526 4.448,-1.051 8.315,-0.159 0.152,0.117 0.459,0.345 0.611,0.459 0.78,0.107 1.512,0.393 2.195,0.783 0.328,0.017 0.656,0.035 0.991,0.059 0.159,0.166 0.476,0.497 0.639,0.663 0.345,0.007 0.697,0.021 1.049,0.034 1.866,1.317 0.237,0.513 3.162,2.023 0.39,0.007 0.787,0.017 1.184,0.031 0.01,0.162 0.031,0.49 0.041,0.652 0.718,0.007 1.436,0.017 2.154,0.038 0.356,0.217 0.714,0.442 1.073,0.666 0.176,0.007 0.532,0.021 0.708,0.028 0.152,0.152 0.456,0.459 0.607,0.614 0.594,0.052 1.277,0.035 1.498,0.728 0.145,0.014 0.438,0.034 0.583,0.045 1.049,0.815 2.168,1.546 3.327,2.195 0,0.138 0.003,0.414 0.007,0.552 0.145,-0.003 0.431,-0.01 0.576,-0.014 0.511,1.405 1.681,2.426 2.23,3.817 1.436,2.755 0.038,4.878 1.474,9.143 0.338,0.673 0.604,1.384 0.701,2.14 0.152,0.155 0.452,0.459 0.601,0.611 0.021,0.173 0.059,0.514 0.076,0.687 6.013,8.994 7.813,21.911 8.981,26.038 2.242,12.971 10.627,43.156 23.971,74.056 l 0.076,0.09 c 1.17,2.827 2.737,5.464 4.045,8.228 l 0.093,0.048 c 0.472,1 12.583,26.106 15.011,29.286 0.428,0.114 0.873,0.169 1.318,0.249 0,-10e-4 9.733,-23.394 9.733,-23.395 2.799,-11.013 3,-26.651 5.391,-33.183 1.327,-6.202 4.461,-14.972 5.098,-18.286 0.138,-0.145 0.418,-0.431 0.559,-0.576 0.325,-2.013 4.619,-13.304 5.895,-15.58 0.031,-0.166 0.09,-0.49 0.117,-0.656 0.428,-0.815 0.839,-1.639 1.267,-2.454 0.028,-0.166 0.086,-0.494 0.114,-0.659 0.331,-0.452 0.652,-0.915 0.973,-1.374 0.007,-0.176 0.021,-0.528 0.028,-0.704 2.113,-3.673 6.746,-12.276 13.382,-19.791 0.024,-0.11 0.069,-0.338 0.09,-0.449 0.162,-0.003 0.487,-0.014 0.645,-0.017 0.024,-0.121 0.066,-0.366 0.086,-0.487 1.453,-1.526 3.22,-2.72 4.646,-4.28 0.162,-0.028 0.487,-0.079 0.652,-0.104 0.935,-0.68 1.898,-1.319 2.834,-1.998 0.142,-0.021 0.418,-0.059 0.559,-0.079 0.32,-0.542 0.693,-0.587 2.195,-1.274 0.173,-0.024 0.514,-0.069 0.687,-0.09 0.155,-0.145 0.463,-0.435 0.618,-0.576 1.165,-0.142 5.851,-2.095 7.586,-2.25 0.708,-0.444 5.976,-1.331 7.97,-1.312 0.414,-0.242 0.835,-0.483 1.256,-0.721 -0.041,-0.217 -0.131,-0.652 -0.176,-0.87 0.956,-1.639 2.851,-3.244 4.856,-2.399 2.631,1.337 20.176,4.894 31.319,0.466 3.526,-1.19 4.941,-3.302 9.878,-3.483 1.539,-0.097 2.823,1.011 4.363,0.991 1.239,0.318 2.564,0.211 3.762,0.708 0.873,0.349 1.771,0.625 2.689,0.859 0.342,-0.352 0.69,-0.697 1.046,-1.039 0.173,-0.01 0.521,-0.028 0.697,-0.038 6.771,-3.624 10.106,-4.818 11.815,-6.133 0.162,-0.021 0.48,-0.055 0.642,-0.076 0.9,-0.491 3.424,-1.914 4.535,-2.689 0.19,-0.014 0.573,-0.034 0.766,-0.045 0.007,-0.169 0.021,-0.504 0.031,-0.673 0.217,-0.014 0.656,-0.041 0.873,-0.059 13.042,-11.313 6.366,-5.809 12.512,-13.872 0.014,-0.169 0.045,-0.5 0.059,-0.67 2.376,-3.249 6.185,-13.815 7.293,-17.675 0.245,-0.366 0.58,-0.666 0.801,-1.049 0.252,-0.252 0.535,-0.462 0.853,-0.639 0.889,-5.849 -0.186,-13.953 0.09,-21.234 1.716,6.264 1.292,4.924 1.843,6.189 0.407,0.003 0.818,0.014 1.239,0.024 -0.017,-0.418 -0.028,-0.832 -0.034,-1.246 0.179,-0.155 0.535,-0.473 0.711,-0.632 -0.024,-0.342 -0.041,-0.68 -0.052,-1.018 -0.563,-1.056 -1.084,-2.133 -1.639,-3.189 -0.045,-0.314 -0.086,-0.625 -0.124,-0.928 -0.485,-0.796 -1.283,-5.51 -1.391,-6.289 -0.19,-0.356 -0.376,-0.708 -0.563,-1.053 0.064,-2.406 -2.267,-18.331 -3.379,-20.447 -2.866,-2.146 -8.567,-1.992 -16.067,-15.832 -3.427,-6.038 -1.33,-11.768 -3.527,-19.139 -1.825,-6.471 3.479,-17.516 11.469,-16.578 -0.055,-1.688 0.418,-3.372 0.086,-5.05 -0.228,-1.971 -0.628,-3.973 -0.145,-5.939998 -0.409,-16.737 3.984,-20.851 6.296,-31.671 -0.261,-1.875 -0.798,-2.011 -3.617,-7.673 -0.221,0.017 -0.659,0.048 -0.877,0.062 0.416,-6.663 -3.629,-10.926 0.525,-21.779 l -0.666,0.266 c 1.961,-1.493 6.159,-10.282 7.276,-13.264 0.442,-1.294 1.747,-1.943 2.554,-2.965 0.828,-1.549 2.186,-8.101 8.139,-7.666 0.808,-0.708 1.546,-1.505 2.016,-2.485 0.552,-1.205 2.219,-1.27 2.675,-2.575 0.299,0.896 2.635,0.908 3.624,-0.773 -0.835,-0.093 -1.664,-0.138 -2.489,-0.249 1.426,-0.756 2.944,-0.376 4.363,0.148 1,-0.742 6.267,-4.507 8.37,-4.38 7.028,-5.52499997 3.581,-2.436 10.18,-4.79099997 M 554.641,378.37949 c -2.033,0.863 -3.993,1.898 -6.068,2.668 -0.349,0.466 -0.839,0.894 -0.925,1.498 0.19,0.859 0.801,1.564 0.987,2.433 0.311,2.099 -0.345,4.245 -1.519,5.982 -1.86,2.703 -4.411,4.867 -6.147,7.666 -1.467,2.268 -1.698,5.025 -2.471,7.559 -0.4,1.184 0.107,2.395 0.11,3.596 -0.003,1.912 -0.062,3.835 0.255,5.733 0.297,2.005 0.369,4.287 -0.939,5.978 -1.301,1.698 -2.551,3.434 -3.707,5.236 -1.087,1.574 -1.36,3.514 -1.978,5.288 -0.97,3.559 -1.719,7.193 -2.105,10.865 -0.255,3.769 -0.994,7.49 -1.764,11.186 -0.425,1.888 -0.345,3.842 -0.714,5.74 -0.411,2.095 -0.193,4.252 -0.583,6.351 -0.242,1.298 0.007,2.685 -0.556,3.921 -0.949,2.223 -0.825,4.698 -1.457,7.01 -0.704,2.578 0.124,5.188 0.262,7.783 0.784,6.827 1.432,13.668 2.002,20.519 0.393,2.827 1.022,5.623 1.25,8.477 0.376,1.981 1.004,3.911 1.615,5.833 0.176,0.355 0.228,1.135 0.818,1.008 1.346,-0.245 2.747,-0.18 3.962,0.518 -0.028,0.87 -0.832,1.961 0.031,2.647 1.671,1.912 3.883,3.424 4.97,5.788 0.794,1.564 2.161,2.772 2.785,4.439 0.839,2.25 2.102,4.411 2.209,6.872 0.393,2.223 0.345,4.632 -0.666,6.693 -0.511,1.139 -1.947,1.222 -2.734,2.057 -0.407,0.487 0.19,0.987 0.411,1.419 2.734,4.007 5.288,8.139 7.611,12.398 0.549,0.718 -0.135,1.784 0.525,2.413 1.353,0.694 2.851,1.046 4.318,1.436 2.74,0.269 5.674,-0.355 8.208,1.042 2.423,1.249 4.622,2.913 6.406,4.988 1.636,1.957 4.135,2.74 6.216,4.094 1.287,0.752 2.437,1.715 3.669,2.565 0.925,0.59 1.298,1.684 2.05,2.457 1.205,1.653 3.096,2.482 4.58,3.835 0.131,0.028 0.4,0.09 0.535,0.121 0.352,0.217 0.711,0.438 1.08,0.67 0.307,0.003 0.625,0.014 0.953,0.038 1.508,0.97 3.072,1.919 4.715,2.651 1.95,0.152 3.838,-0.721 5.799,-0.79 1.28,-1.488 3.151,-2.388 4.166,-4.114 1.122,-1.267 2.523,-2.254 3.552,-3.607 1.36,-0.915 2.375,-2.212 3.42,-3.448 0.435,-0.159 0.68,-0.601 1.132,-0.749 0.031,-0.135 0.097,-0.4 0.131,-0.531 0.732,-0.69 1.436,-1.415 2.047,-2.212 1.143,-1.532 2.803,-2.654 3.621,-4.428 0.311,-0.242 0.632,-0.473 0.956,-0.697 2.841,-3.71 5.719,-7.407 8.967,-10.772 2.313,-2.547 4.118,-5.498 6.341,-8.118 2.806,-3.779 5.35,-7.745 7.963,-11.656 0.915,-1.612 1.805,-3.241 2.779,-4.815 0.549,-1.07 1.066,-2.161 1.757,-3.148 0.045,-0.18 0.131,-0.542 0.173,-0.725 0.211,-0.311 0.425,-0.614 0.646,-0.915 0.852,-1.698 1.878,-3.3 2.941,-4.87 1.256,-2.078 2.344,-4.266 3.776,-6.233 0.735,-1.146 1.18,-2.478 2.157,-3.465 0.031,-0.169 0.09,-0.507 0.117,-0.677 0.663,-0.894 1.239,-1.85 1.836,-2.789 0.714,-1.135 1.401,-2.285 2.13,-3.414 0.376,-0.742 0.846,-1.432 1.363,-2.081 0.815,-1.74 1.995,-3.282 3.134,-4.815 1.515,-2.589 3.203,-5.07 4.825,-7.59 1.57,-2.768 3.417,-5.367 5.143,-8.039 1.957,-2.889 3.41,-6.133 4.235,-9.523 0.045,-1.118 -0.604,-2.143 -0.77,-3.231 -1.022,-1.122 -1.978,-2.299 -2.861,-3.524 -1.812,-1.281 -3.365,-2.872 -5.119,-4.207 -0.887,-0.866 -1.771,-1.729 -2.727,-2.509 -1.26,-1.146 -2.437,-2.413 -3.852,-3.362 -2.081,-1.933 -3.924,-4.128 -6.151,-5.895 -1.719,-1.705 -3.71,-3.096 -5.346,-4.877 -0.269,-0.276 -0.642,-0.387 -0.897,-0.649 -0.366,-0.528 -0.832,-0.97 -1.281,-1.405 -1.522,-1.105 -2.64,-2.658 -4.166,-3.748 -1.06,-0.794 -1.871,-1.864 -2.937,-2.637 -2.112,-1.546 -3.924,-3.455 -6.075,-4.943 -1.76,-1.633 -3.835,-2.882 -5.643,-4.453 -1.798,-1.505 -3.835,-2.689 -5.609,-4.214 -0.452,-0.19 -0.856,-0.438 -1.243,-0.701 -2.716,-2.147 -5.75,-3.838 -8.498,-5.933 -0.528,-0.3 -1.025,-0.628 -1.474,-1.018 -4.408,-3.044 -8.567,-6.454 -13.14,-9.26 -0.352,-0.19 -0.666,-0.425 -0.956,-0.666 -1.595,-1.046 -3.096,-2.223 -4.597,-3.389 -1.898,-1.505 -4.1,-2.602 -5.857,-4.283 -2.872,-2.019 -5.695,-4.114 -8.356,-6.403 -3.572,-2.699 -7.131,-5.429 -10.983,-7.718 -2.302,-1.319 -4.563,-2.73 -6.599,-4.432 -1.249,-1.008 -2.271,-2.264 -3.562,-3.217 -1.491,-0.383 -3.069,-0.939 -4.608,-0.576 z"
     id="path2"
     inkscape:connector-curvature="0" />
</svg>
