<?xml version="1.0" encoding="UTF-8" standalone="no"?>
<svg
   xmlns:dc="http://purl.org/dc/elements/1.1/"
   xmlns:cc="http://creativecommons.org/ns#"
   xmlns:rdf="http://www.w3.org/1999/02/22-rdf-syntax-ns#"
   xmlns:svg="http://www.w3.org/2000/svg"
   xmlns="http://www.w3.org/2000/svg"
   xmlns:sodipodi="http://sodipodi.sourceforge.net/DTD/sodipodi-0.dtd"
   xmlns:inkscape="http://www.inkscape.org/namespaces/inkscape"
   enable-background="new 0 0 595.28 841.89"
   viewBox="0 0 266.75725 778.38439"
   version="1.1"
   id="svg4"
   sodipodi:docname="woman standing classy.svg"
   width="266.75726"
   height="778.3844"
   inkscape:version="0.92.4 (5da689c313, 2019-01-14)">
  <metadata
     id="metadata10">
    <rdf:RDF>
      <cc:Work
         rdf:about="">
        <dc:format>image/svg+xml</dc:format>
        <dc:type
           rdf:resource="http://purl.org/dc/dcmitype/StillImage" />
        <dc:title></dc:title>
      </cc:Work>
    </rdf:RDF>
  </metadata>
  <defs
     id="defs8" />
  <sodipodi:namedview
     pagecolor="#ffffff"
     bordercolor="#666666"
     borderopacity="1"
     objecttolerance="10"
     gridtolerance="10"
     guidetolerance="10"
     inkscape:pageopacity="0"
     inkscape:pageshadow="2"
     inkscape:window-width="640"
     inkscape:window-height="512"
     id="namedview6"
     showgrid="false"
     fit-margin-top="0"
     fit-margin-left="0"
     fit-margin-right="0"
     fit-margin-bottom="0"
     inkscape:zoom="0.28032165"
     inkscape:cx="132.10061"
     inkscape:cy="384.63537"
     inkscape:window-x="0"
     inkscape:window-y="0"
     inkscape:window-maximized="0"
     inkscape:current-layer="svg4" />
  <path
     d="m 6.0395919,280.372 c 3.022,1.677 13.1310001,12.747 15.1600001,17.191 2.019,4.433 6.107,9.977 11.122,12.732 5.05,2.825 30.308,34.393 37.358,38.835 7.087,4.455 7.59,0.565 7.59,0.565 1.005,11.623 2.52,13.858 2.52,13.858 l 5.069,25.49 c -5.54,6.1 -13.626,94.25 -15.632,110.337 -2.083,16.09 -11.649,41.035 -13.686,58.757 -1.983,17.724 -19.222,75.959 -28.234,95.916 -9.129,19.998 -11.628,89.258 -11.628,89.258 1.474,8.877 10.577,9.957 10.577,9.957 8.585,28.302 19.193,24.998 19.193,24.998 8.567,-1.681 10.093,-19.944 10.093,-19.944 5.055,-1.155 14.139,5.032 23.777,2.744 9.588,-2.298 8.063,-23.832 13.127,-50.486 5.014,-26.571 9.084998,-55.393 14.597998,-62.651 5.59,-7.212 18.235,-86.456 19.743,-102.547 1.521,-16.06 20.732,-108.703 22.707,-124.16 2.048,-15.557 11.149,-10.568 12.111,-5.013 1.021,5.556 12.168,65.402 9.133,73.792 -3.023,8.258 1.023,51.502 1.023,63.14 0,11.63 6.559,65.456 4.536,81.534 -2.047,16.064 12.108,105.89 12.108,111.966 0,6.092 6.081,8.302 6.081,8.302 3.551,12.749 21.719,14.967 21.719,14.967 13.672,-2.742 9.085,-21.044 9.085,-21.044 2.539,-0.553 22.208,-4.985 22.208,-4.985 5.573,0 2.562,-6.646 2.562,-6.646 -2.061,-7.214 -4.06,-22.181 -2.061,-40.48 2.061,-18.279 3.038,-34.42 0.518,-43.79 -2.517,-9.447 -7.558,-54.355 -7.558,-67.08 0,-12.743 -7.475,-60 -7.475,-60 -4.922,-16.6 -4.612,-49.391 -4.612,-69.979 0,-20.642 -8.014,-89.958 -8.014,-89.958 2.177,-2.688 3.378,-8.452 2.795,-12.2 -0.618,-3.679 -0.322,-12.83 -0.322,-12.83 11.719,-3.379 11.719,-9.479 11.719,-9.479 0,0 3.994,-8.777 9.245,-19.257 5.23,-10.525 16.621,-38.212 20.622,-57.484 4.002,-19.249 0.634,-21.941 -2.133,-27.069 -2.793,-5.033 -25.886,-32.103 -27.734,-34.445 -1.86,-2.386 -14.191,-21.332 -19.411,-26.079 -5.25,-4.729 -6.773,-12.823 -12.627,-23.638 -5.865,-10.852 -11.699,-13.89 -15.703,-14.556 -2.405,-0.406 -8.353,-2.911 -12.899,-4.9 l 0.707,-1.461 2.889,0.197 -2.802,-0.518 1.118,-2.997 1.044,-0.244 -0.94,-0.184 c 0.938,-3.158 1.578,-6.973 1.737,-11.592 l 2.079,-4.421 c -0.337,5.935 -1.149,11.458 -1.149,11.458 0.956,-2.013 1.178,-6.815 1.178,-11.481 l 2.427,-4.582 0.229,-0.534 c -0.844,7.731 -2.083,13.068 -2.083,13.068 3.56,-6.706 4.996,-13.638 5.203,-20.063 0.746,-2.377 1.218,-4.5 1.442,-6.623 0.619,8.189 -0.648,16.315 -0.648,16.315 1.807,-4.834 1.61,-11.232 0.746,-17.056 0.384,-4.271 0.021,-8.38 0.021,-13.206 l -0.021,-2.298 c 1.927,5.295 2.474,10.35 2.474,10.35 0.208,-4.063 -1.071,-8.682 -2.571,-12.616 l -0.334,-4.182 c 0.319,-2.975 0.153,-5.719 -0.412,-8.126 0.297,2.495 0.297,4.955 0.182,6.958 -0.409,-2.427 -1.134,-4.073 -2.109,-6.306 -1.854,-4.414 -2.454,-7.441 -2.454,-7.441 l -0.199,-3.029 c 1.994,2.662 3.719,5.906 4.581,9.818 -0.472,-4.436 -1.752,-9.225 -4.764,-12.939 0.07,-3.13 -0.485,-6.453 -2.797,-8.535 -1.656,-4.922 -4.661,-9.431 -9.727,-11.826 3.635,0.064 3.848,-1.7 3.848,-1.7 l -4.141,1.49 -0.656,-1.49 c -3.407,-6.077 -7.177,-9.639 -10.769,-11.656 1.655,0.184 3.46,0.652 4.791,1.535 -1.169,-0.915 -3.085,-2.003 -5.897,-2.164 l -4.325,-1.55 0.119,-1.589 -0.766,1.448 -2.616,-0.313 C 147.33159,2.68 147.65659,0 147.65659,0 c -0.744,2.33 0.182,3.401 1.023,3.855 h -1.251 c -0.774,-1.415 -3.364,-4.858 -9.832,-0.523 h -0.521 c -2.292,-1.417 -4.431,-1.831 -6.09,-1.831 1.707,0.222 3.588,1.049 5.2,1.844 -3.723,0.207 -7.424,1.47 -10.787,3.324 -15.151,1.829 -19.236,11.545 -19.236,11.545 4.247,-7.855 12.942,-10.544 18.94,-11.458 -5.25,2.936 -9.929,7.131 -13.427,11.173 -3.788,2.265 -8.376,5.73 -12.396998,10.916 2.513998,-3.148 6.380998,-6.885 11.815998,-10.175 -2.845,3.368 -4.846,6.447 -5.527,8.369 -0.589,1.503 -1.316,3.571 -2.178,5.924 -1.611,1.899 -3.226,4.165 -4.499998,6.559 -8.014,5.969 -8.014,15.369 -7.493,19.695 -6.263,10.345 -12.351,22.254 -12.629,29.898 0,0 1.162,-5.584 5.455,-10.674 -1.234,3.77 -2.155,7.81 -2.595,12.213 0,0 1.026,-5.818 3.316,-13.016 l 0.417,-0.451 c -0.798,3.337 -1.138,6.495 -0.502,9.151 0,0 1.933,-6.798 5.314,-12.897 l 1.546,-0.828 c -0.572,2.377 -1.157,4.794 -1.614,7.083 -1.117,2.708 -2.301,5.225 -3.499,7.087 0.839,-1.172 1.911,-2.752 3.022,-4.67 l -0.522,3.049 c -2.342,3.037 -4.842,7.289 -6.588,13.039 -4.678,2.344 -7.606,3.562 -4.702,3.671 l 3.888,-0.459 c -0.729,3.434 -1.21,7.309 -1.21,11.67 -2.314,-0.459 -4.492,-2.042 -6.244,-5.677 0,0 0.5,6.186 4.061,8.016 l -3.399,2.05 c -2.064,-0.74 -3.979,-1.982 -5.685,-3.966 0,0 1.506,2.678 4.501,4.729 -1.865,1.173 -3.771,2.547 -5.772,4.04 l -0.015,0.079 c -3.393,-1.375 -6.292,-3.901 -7.836,-8.324 0,0 1.429,5.471 5.315,9.303 l -2.5,1.187 c -4.888,-0.622 -8.091,0.363 -9.797,1.254 1.784,-0.601 4.569,-0.469 7.619,-0.036 -6.907,3.998 -12.403,9.951 -13.291,18.816 0,0 3.725,-11.526 15.809,-18.412 l 0.137,0.022 c -7.542,6.904 -14.107,16.266 -13.966,27.692 -3.363,7.547 -7.229,16.446 -10.541,20.095 -4.571,4.946 -5.564,13.848 -10.605,21.072 -5.064,7.179 -25.7880001,53.748 -27.77400014,61.492 -2.04499996,7.768 2.51400004,22.181 5.52900004,23.857 z M 179.72359,33.433 c 1.2,1.578 2.14,3.714 2.21,6.822 l -0.732,-0.906 -0.549,-1.549 z m 6.697,228.642 c 2.505,-14.424 2.505,-28.847 2.505,-34.359 0,-5.534 10.106,-14.967 9.6,-19.967 0,0 16.66,16.11 20.72,18.321 4.02,2.222 14.177,12.756 15.147,18.268 0.993,5.557 0,6.667 -2.548,14.399 -2.536,7.812 -9.082,13.333 -10.6,24.958 -1.525,11.676 1.518,7.754 -3.523,14.979 -5.068,7.211 -10.129,16.054 -10.129,19.436 0,3.289 -11.628,-32.16 -17.144,-36.646 -5.595,-4.412 -6.634,-4.97 -4.028,-19.389 z m -9.579,-231.016 z m -2.593,88.388 h 0.159 l -0.081,0.295 z m -0.02,-1.273 0.225,-3.282 2.389,-4.826 c -0.369,2.918 -1.003,5.764 -1.996,8.347 z m -0.177,-90.697 -3.416,-4.927 c 1.98,1.765 4.028,4.27 5.79,7.695 l -0.265,-0.121 z m -5.253,93.983 2.961,-2.68 1.2,0.461 0.746,1.677 -1.343,2.178 c -2.112,-0.928 -3.564,-1.636 -3.564,-1.636 z M 138.65959,3.38 c 2.431,-0.805 5.858,-1.462 7.571,0.588 -1.662,0.166 -2.687,0.511 -2.687,0.511 -1.611,-0.622 -3.267,-0.966 -4.884,-1.099 z m -36.881,34.356 -2.096998,1.189 c 0.912998,-1.557 2.096998,-3.368 3.430998,-5.262 z m -10.176998,21.11 c -0.319,-9.495 3.108,-15.235 6.883,-18.568 -0.931,1.884 -1.661,3.93 -2.019,5.999 0,0 0.744,-2.79 2.907,-6.752 l 2.273998,-1.59 c -1.184,3.466 -2.368998,7.179 -3.461998,10.677 -2.064,3.023 -4.333,6.534 -6.583,10.234 z m -26.116,67.734 2.814,0.634 c -4.016,3.874 -7.705,7.381 -7.705,7.381 0,0 -3.54,3.862 -7.56,11.639 l -2.342,4.834 c 1.78,-5.519 5.892,-15.098 14.793,-24.488 z m 3.903,-0.436 -2.681,-0.837 0.435,-0.459 z m 6.807,-6.6 -0.285,0.308 -4.639,1.292 3.136,-2.505 z m -2.673,2.684 -1.337,1.237 -1.934,-0.369 z m 5.859,-6.398 -1.107,1.535 -0.713,0.781 -1.881,-0.421 3.071,-2.079 z m 4.519,-15.121 1.933,-0.915 c -1.271,4.205 -2.858,8.309 -4.287,11.623 0.471,-3.179 1.197,-6.902 2.354,-10.708 z m 4.361,-10.052 -1.289,5.226 -1.657,0.873 c 0.812,-2.068 1.817,-4.15 2.946,-6.099 z m -49.374,170.892 c 3.539,-6.112 20.731,-33.833 28.776,-51.022 0,0 31.818,65.444 21.732,110.357 0,0 -12.629,-14.422 -16.186,-22.21 -3.531,-7.736 -11.59,-7.226 -16.626,-11.632 -5.074,-4.425 -12.651,-15.537 -12.651,-15.537 0,0 -8.595,-3.879 -5.045,-9.956 z m 12.622,-134.73 1.612,-1.043 z M 128.07359,1.867 c 0,0 1.186,-0.381 2.91,-0.364 z m 34.454,6.228 1.074,1.057 z m 1.281,1.329 -0.206,-0.272 z M 94.558592,36.352 c 1.386,-2.863 3.01,-5.293 4.72,-7.505 -3.448,4.251 -4.72,7.505 -4.72,7.505 z m -7.953,50.434 -1.747,2.21 z"
     id="path2"
     inkscape:connector-curvature="0"
     style="fill:#010202" />
</svg>
