<?xml version="1.0" encoding="UTF-8" standalone="no"?>
<svg
   xmlns:dc="http://purl.org/dc/elements/1.1/"
   xmlns:cc="http://creativecommons.org/ns#"
   xmlns:rdf="http://www.w3.org/1999/02/22-rdf-syntax-ns#"
   xmlns:svg="http://www.w3.org/2000/svg"
   xmlns="http://www.w3.org/2000/svg"
   xmlns:sodipodi="http://sodipodi.sourceforge.net/DTD/sodipodi-0.dtd"
   xmlns:inkscape="http://www.inkscape.org/namespaces/inkscape"
   version="1.1"
   id="Layer_1"
   x="0px"
   y="0px"
   viewBox="0 0 1044.5739 1126.7645"
   enable-background="new 0 0 3658.378 4000"
   sodipodi:docname="together_dynamic_mixed15.svg"
   width="1044.5739"
   height="1126.7645"
   inkscape:version="1.0.2 (e86c870879, 2021-01-15)">
  <metadata
     id="metadata13">
    <rdf:RDF>
      <cc:Work
         rdf:about="">
        <dc:format>image/svg+xml</dc:format>
        <dc:type
           rdf:resource="http://purl.org/dc/dcmitype/StillImage" />
        <dc:title></dc:title>
      </cc:Work>
    </rdf:RDF>
  </metadata>
  <defs
     id="defs11" />
  <sodipodi:namedview
     pagecolor="#ffffff"
     bordercolor="#666666"
     borderopacity="1"
     objecttolerance="10"
     gridtolerance="10"
     guidetolerance="10"
     inkscape:pageopacity="0"
     inkscape:pageshadow="2"
     inkscape:window-width="1920"
     inkscape:window-height="997"
     id="namedview9"
     showgrid="false"
     fit-margin-top="0"
     fit-margin-left="0"
     fit-margin-right="0"
     fit-margin-bottom="0"
     inkscape:zoom="0.31980776"
     inkscape:cx="-551.36326"
     inkscape:cy="21.447244"
     inkscape:window-x="0"
     inkscape:window-y="0"
     inkscape:window-maximized="1"
     inkscape:current-layer="Layer_1" />
  <rect
     style="fill:#ffffff;stroke-width:5.66929;stroke-linecap:square;stroke-linejoin:round;stroke-dasharray:11.3386, 11.3386"
     id="rect838"
     width="1044.5739"
     height="1126.7645"
     x="0"
     y="0" />
  <g
     id="g6"
     transform="matrix(0.2515871,0,0,0.2515871,70.296736,59.009489)">
    <path
       d="m 1794.541,3257.772 c -8.445,-23.693 -17.05,-42.751 -21.694,-50.877 0.94,-2.653 1.962,-5.279 3.068,-7.793 0.382,-15.686 -1.288,-9.614 -2.902,-24.457 -10.238,-16.576 -14.515,-21.955 -13.541,-28.851 1.409,-15.034 -9.396,-27.111 -21.417,-34.379 -0.359,-1.382 -1.105,-4.145 -1.465,-5.527 -19.801,-30.498 -23.397,-41.244 -85.587,-174.601 -39.101,-74.777 -38.482,-54.948 -46.87,-82.907 -5.527,-10.198 -13.624,-18.654 -19.013,-28.879 -5.057,-9.507 -11.662,-18.101 -18.599,-26.281 -0.304,-1.271 -0.94,-3.786 -1.244,-5.057 -2.183,-3.455 -4.283,-6.909 -6.273,-10.391 4.56,0.94 9.037,2.432 13.735,2.957 3.952,-2.321 7.102,-5.693 10.308,-8.899 -0.193,-1.465 -0.58,-4.394 -0.774,-5.859 -4.753,-6.19 -9.009,-12.74 -12.769,-19.569 -5.318,-9.646 -15.149,-15.559 -18.188,-26.618 -12.014,-43.718 -8.366,-35.394 -18.095,-53.937 -1.958,-9.35 -2.629,-6.836 -6.495,-19.345 -10.087,-14.647 -20.865,-29.073 -33.245,-41.813 -2.039,-1.655 -60.512,-46.229 -73.87,-77.186 -0.912,-16.25 2.791,-33.55 -4.781,-48.694 -7.931,-19.621 -25.673,-32.112 -38.854,-47.869 6.86,-24.349 -10.765,-43.91 -16.472,-66.266 -5.693,-22.302 -14.122,-44.189 -14.481,-67.486 -0.032,-31.497 -25.369,-137.492 -25.369,-144.506 -0.525,-0.967 -1.63,-2.929 -2.156,-3.896 -0.193,-6.467 -0.276,-12.933 -1.244,-19.29 -2.929,-16.664 -0.47,-33.743 -3.98,-50.324 -1.109,-39.56 -14.873,-102.999 -14.536,-144.036 -1.023,-12.298 -4.726,-24.181 -5.803,-36.451 -0.497,-0.967 -1.492,-2.929 -1.962,-3.897 -0.58,-14.205 -3.869,-28.078 -5.472,-42.146 -0.865,-15.887 -0.68,-31.869 -4.833,-47.353 -3.906,-14.565 -10.773,-28.818 -11.887,-44.036 -5.023,-68.651 -44.828,-143.634 -47.616,-158.628 -39.918,-75.726 -25.066,-120.905 -82.547,-207.681 0.055,-1.63 0.166,-4.892 0.221,-6.522 3.924,-0.276 7.876,-0.525 11.828,-0.801 5.61,-2.128 11.358,-3.952 17.134,-5.638 22.506,-6.568 44.47,-26.166 65.979,-36.192 22.363,-10.424 42.066,-28.134 62.879,-41.643 55.306,-35.896 110.669,-61.655 166.538,-89.415 45.808,-20.996 60.489,-48.021 71.493,-60.826 7.49,-8.433 21.549,-5.715 39.547,-29.515 6.522,-11.165 10.198,-23.683 14.122,-35.926 8.828,-27.657 30.342,-56.432 34.766,-63.838 5.583,-11.662 11.275,-23.518 20.312,-32.969 4.264,-12.212 23.49,-39.573 32.002,-74.395 25.968,-68.678 76.207,-308.199 75.915,-307.197 31.48,-108.039 32.302,-119.984 31.117,-138.73 10.391,-6.798 20.312,-14.813 24.623,-26.917 5.223,-19.898 8.097,-40.762 4.477,-61.185 -3.732,-20.421 2.433,-46.311 -7.738,-96.116 -5.886,-23.739 -8.097,-48.224 -13.458,-72.073 -2.929,-3.676 -6.715,-7.268 -6.743,-12.325 -3.382,-36.155 4.273,-101.333 -12.685,-134.723 -2.404,-6.467 -9.479,-8.429 -14.757,-11.883 -3.04,-0.028 -6.108,-0.055 -9.12,-0.083 -1.796,-7.103 -3.316,-14.232 -5.251,-21.279 -4.292,-24.68 -38.48,-43.448 -47.145,-30.57 -4.572,6.795 -0.946,26.354 0.772,33.831 4.376,17.455 -3.809,8.531 11.828,44.521 2.708,10.115 3.371,20.561 4.173,30.952 4.477,21.196 0.11,43.001 2.846,64.336 5.672,38.382 7.045,45.561 -1.575,72.654 -4.726,10.612 -4.974,22.385 -8.401,33.384 -6.439,23.794 -5.306,49.274 -15.117,72.212 -3.82,15.627 -14.384,42.416 -17.742,68.785 -15.2,9.672 -24.264,25.867 -32.14,41.509 -5.776,16.36 0.608,34.959 -9.534,49.965 -3.482,6.992 -5.969,14.426 -8.152,21.915 -27.805,54.54 -40.032,55.622 -55.52,85.781 -23.628,49.136 -32.851,64.617 -44.123,82.407 -41.818,65.997 -55.313,93.8 -80.071,117.259 -13.956,16.415 -23.131,37.308 -41.039,50.048 -6.356,7.544 -9.452,17.631 -16.968,24.402 -7.434,6.909 -14.674,14.37 -18.184,24.153 -2.96,10.984 -6.677,25.942 -15.531,33.246 -6.715,5.389 -11.026,13.072 -17.493,18.737 -7.102,6.218 -14.647,11.938 -21.362,18.599 -5.582,0 -11.137,-0.028 -16.692,-0.055 -11.109,3.62 -13.486,17.604 -24.678,20.367 -152.835,69.982 -95.495,47.26 -135.331,70.609 -16.72,-2.045 -28.548,11.828 -43.968,15.393 -10.723,3.897 -21.362,-2.377 -32.223,-1.52 -6.494,-0.193 -12.657,2.46 -19.096,2.405 -14.813,-3.371 -30.261,-0.885 -44.825,-5.693 -14.426,-4.836 -28.962,2.183 -43.443,3.123 -24.07,1.216 -48.197,-0.442 -72.239,0.774 -11.911,1.216 -23.766,3.04 -35.788,2.321 -1,-0.06 -1.944,-20.59 9.222,-47.667 2.796,-6.781 15.414,-21.982 18.073,-26.479 5.953,-10.068 -7.384,-2.338 19.629,-25.286 10.185,-8.652 10.573,-20.104 9.047,-32.367 -1.974,-15.855 -20.762,-21.88 -28.143,-35.699 0.055,-11.911 -1.52,-23.767 -4.477,-35.263 -2.211,-6.992 -9.7,-9.783 -15.2,-13.707 0.028,-1.492 0.028,-4.477 0.028,-5.969 -3.505,-4.609 -6.983,-9.274 -10.654,-13.746 -2.441,-2.974 7.905,-13.324 9.173,-15.968 5.029,-10.487 -9.093,-16.729 -16.123,-23.07 1.078,-3.095 1.99,-6.411 5.057,-8.153 16.944,-9.62 25.428,-31.944 6.836,-44.174 -2.679,-1.763 -5.556,-1.687 -8.268,-2.949 -0.591,-0.275 -51.379,-35.82 -65.667,-46.837 -7.686,-19.571 2.734,-18.758 -19.041,-45.903 -12.329,-15.069 -46.26,-21.582 -63.341,-33.992 -11.524,-8.07 -24.126,-14.73 -34.351,-24.541 0.055,-1.52 0.166,-4.56 0.194,-6.052 -2.266,-2.266 -4.505,-4.505 -6.743,-6.743 -1.714,-0.166 -5.113,-0.498 -6.799,-0.663 -0.083,-1.907 -0.193,-5.721 -0.249,-7.627 -4.035,-0.083 -8.042,-0.166 -12.049,-0.249 -1.852,-0.912 -5.527,-2.736 -7.351,-3.62 0,-2.957 0.028,-5.886 0.055,-8.788 -3.731,-5.527 -7.931,-10.695 -12.298,-15.724 -0.829,0.885 -2.515,2.681 -3.344,3.565 -4.394,-0.111 -8.733,-0.166 -13.072,-0.249 -3.924,-3.15 -7.931,-6.163 -12.021,-9.065 -2.266,-3.289 -4.56,-6.577 -6.854,-9.81 -7.627,1.271 -13.348,-2.791 -15.255,-10.142 -23.408,-32.246 -30.2,-20.975 -52.01,-42.503 -1.271,-0.111 -3.841,-0.36 -5.14,-0.47 -7.22,-3.876 -2.457,-1.124 -14.233,-7.903 -11.165,-0.083 -22.523,-1.078 -33.466,1.685 -37.843,7.445 -28.52,4.292 -71.023,-11.551 -24.454,-3.815 -11.784,2.922 -58.283,-7.185 -2.791,-1.575 -5.582,-3.15 -8.374,-4.726 -10.446,-2.266 -21.114,-3.371 -31.809,-3.344 -9.286,0.166 -15.918,-7.406 -24.098,-10.502 -4.339,-0.497 -8.678,-0.47 -13.044,-0.553 -2.736,1.879 -5.499,3.759 -8.235,5.638 5.278,0.055 10.584,0.083 15.89,0.194 6.439,4.947 13.624,8.788 20.256,13.486 8.346,0.083 16.858,-0.414 24.983,1.879 64.389,22.462 41.497,4.807 87.163,18.212 -0.802,4.062 -1.63,8.097 -2.542,12.132 0.719,0.884 2.155,2.626 2.846,3.51 -5.665,3.399 -12.27,3.316 -18.654,3.592 -6.356,2.57 -12.878,6.246 -20.008,5.03 -1.879,-2.625 -3.62,-5.333 -5.195,-8.152 -4.256,1.188 -8.539,2.266 -12.933,2.736 -8.954,-5.61 -19.29,0.884 -28.769,1.547 -17.477,6.922 -0.534,0.26 -23.269,7.462 0.083,1.465 0.194,4.394 0.277,5.858 2.211,2.322 4.421,4.698 6.605,7.075 10.17,-5.881 16.931,-10.824 32.444,-11.027 -0.912,6.633 -2.459,13.127 -3.813,19.704 1.99,-2.681 3.979,-5.334 5.997,-7.959 4.836,-0.719 9.672,-1.603 14.398,-2.957 3.123,1.631 6.218,3.261 9.313,4.947 23.126,1.43 25.863,-3.342 55.243,4.671 13.044,1.188 21.721,11.469 30.067,20.34 1.437,0 4.339,0 5.776,0 4.062,4.145 8.18,8.263 12.325,12.325 0,1.852 -0.028,5.582 -0.028,7.434 -24.366,-3.732 -33.489,6.274 -48.721,0.553 -7.241,-1.464 -14.426,-3.095 -21.694,-4.256 -4.726,-2.515 -9.451,-4.975 -14.122,-7.572 -7.158,-0.166 -14.288,-0.249 -21.445,-0.47 -26.792,-12.537 -22.929,-6.874 -37.584,-12.27 -6.356,-4.587 -13.762,-7.268 -21.611,-7.351 -0.414,5.886 -1.077,11.828 -3.537,17.272 6.992,-4.864 14.979,-0.774 22.413,0.304 3.648,2.93 7.296,5.831 10.944,8.761 0.028,1.769 0.028,5.251 0.028,6.992 -13.79,5.444 -28.99,0.884 -42.835,6.025 -3.758,-2.543 -7.489,-5.113 -11.165,-7.766 -10.557,0.028 -18.488,-7.461 -27.636,-11.551 -1.326,-0.083 -3.979,-0.249 -5.333,-0.332 -1.465,-0.912 -4.45,-2.681 -5.942,-3.592 -20.645,-22.751 -13.582,-18.299 -28.492,-44.77 -0.138,-1.271 -0.387,-3.869 -0.525,-5.168 -4.226,-7.795 -22.296,-45.322 -39.436,-62.374 -4.477,-0.028 -8.954,-0.055 -13.431,-0.111 4.875,7.875 3.966,5.949 6.937,13.956 3.399,0 6.826,0 10.225,0.028 0.028,5.941 0.055,11.911 0.111,17.852 3.593,5.61 7.213,11.193 10.861,16.747 0.055,1.382 0.138,4.118 0.194,5.472 1.16,1.326 3.537,3.979 4.698,5.333 9.689,30.201 5.585,13.218 12.547,33.439 7.13,7.959 12.215,17.41 19.096,25.563 10.253,-0.885 11.276,13.458 21.667,12.602 -0.055,1.879 -0.138,5.693 -0.194,7.6 -14.263,-1.331 -19.671,-2.791 -56.376,6.052 -2.1,4.615 -6.937,4.781 -11.303,5.306 -8.594,6.19 -21.307,8.954 -24.678,20.174 -2.294,4.505 -8.733,4.145 -12.519,7.157 -0.885,3.257 0.211,26.755 23.131,-8.539 1.437,-0.055 4.339,-0.138 5.776,-0.166 2.764,-1.768 5.555,-3.51 8.374,-5.223 8.505,-1.449 3.77,-0.91 16.72,-3.593 2.764,-1.492 5.527,-2.985 8.318,-4.477 13.327,-2.028 29.34,-7.004 51.651,0.083 -1.05,4.09 0.774,10.751 -4.615,12.27 -27.523,5.808 -15.34,8.594 -41.951,9.617 -1.271,1.327 -3.814,3.952 -5.085,5.251 -2.708,0.028 -5.416,0.083 -8.125,0.166 -2.93,2.211 -5.859,4.394 -8.871,6.522 -1.935,2.819 -3.952,5.582 -5.969,8.346 0.94,2.681 1.879,5.417 2.791,8.125 -8.622,8.954 -19.897,16.001 -24.872,27.829 -0.249,5.251 -3.593,9.009 -8.235,11.137 -1.354,2.985 -2.708,5.997 -4.035,9.037 1.768,-1.409 5.306,-4.201 7.102,-5.582 2.929,-0.221 5.859,-0.414 8.816,-0.608 3.095,-4.422 6.135,-8.899 9.092,-13.458 3.62,-1.105 7.24,-2.211 10.888,-3.233 3.15,1.658 6.411,3.178 9.728,4.56 10.971,-13.514 29.045,-16.36 43.056,-25.563 11.469,-7.517 25.397,-10.032 38.772,-6.964 0.028,2.018 0.055,6.025 0.055,8.042 -5.14,0.691 -10.308,1.216 -15.503,1.548 -15.89,4.118 -23.048,21.915 -39.187,25.065 -22.855,7.102 -44.797,16.692 -67.431,24.374 -5.721,0.967 -7.489,6.19 -8.705,11.137 5.306,1.299 10.612,2.681 15.945,3.924 2.045,-5.112 5.831,-8.926 11.413,-9.645 13.095,-6.154 32.425,-10.294 40.984,-10.695 0.221,6.826 -3.814,12.049 -10.751,12.574 -11.855,9.921 -26.032,16.858 -35.594,29.46 -1.437,0 -4.367,0 -5.831,0 -3.178,3.206 -6.356,6.384 -9.589,9.589 0.083,1.52 0.194,4.56 0.249,6.08 -6.163,5.555 -12.934,10.363 -19.566,15.31 1.99,3.399 3.924,6.881 5.804,10.363 -3.593,6.605 -7.6,14.039 -16.029,14.647 -12.547,11.994 -22.578,26.337 -33.992,39.408 0.055,1.465 0.194,4.422 0.249,5.886 -3.344,2.626 -6.716,5.223 -10.17,7.738 -1.465,4.726 -4.118,8.843 -8.622,11.137 -3.344,4.256 -6.66,8.54 -10.032,12.768 -1.437,-0.193 -4.311,-0.58 -5.748,-0.774 -2.432,2.293 -4.864,4.587 -7.324,6.909 0.664,1.907 2.018,5.693 2.681,7.572 -3.869,1.326 -7.765,2.598 -11.662,3.841 1.078,1.631 3.289,4.892 4.367,6.522 -2.909,7.371 -7.44,14.999 -16.339,15.551 1.685,5.334 3.427,10.999 8.539,14.039 2.405,-5.776 4.754,-11.524 7.241,-17.272 21.02,-8.498 11.895,-3.075 25.977,-21.639 7.324,-10.225 21.445,-10.17 32.721,-12.408 2.156,1.133 6.522,3.454 8.677,4.615 -5.361,7.406 -12.906,12.961 -18.073,20.45 2.626,4.007 5.748,7.627 8.65,11.441 0,-2.874 -0.055,-8.65 -0.083,-11.524 1.824,0.028 5.444,0.055 7.268,0.083 5.278,-9.009 13.735,-15.144 21.666,-21.583 12.906,-2.764 25.563,-6.66 38.524,-9.175 14.011,-9.728 30.15,-15.697 44.88,-24.126 15.253,-3.384 13.339,-3.625 30.841,-14.26 1.299,2.321 2.625,4.643 3.952,6.964 -8.816,9.7 -19.87,17.604 -24.706,30.344 -5.527,8.235 -12.325,15.697 -16.581,24.734 -2.681,8.429 -9.921,14.398 -12.574,22.855 -5.057,16.526 -10.446,33.854 -5.997,51.209 -0.194,13.016 1.658,25.95 1.243,39.021 -1.603,0.138 -4.809,0.415 -6.412,0.58 2.239,0.304 6.688,0.967 8.926,1.299 1.078,9.313 1.354,18.737 -0.857,27.939 1.769,1.078 5.306,3.234 7.047,4.311 -0.58,3.454 -1.188,6.937 -1.824,10.391 3.815,16.479 -1.757,47.202 -9.341,58.422 -0.193,2.626 -0.359,5.278 -0.498,7.931 -5.085,4.919 -9.755,10.253 -13.596,16.222 1.242,4.252 2.375,8.532 3.45,12.863 -0.302,-1.215 -5.212,-0.482 -5.875,-0.067 -1.96,1.229 -2.155,6.204 0.073,7.401 2.026,1.088 8.559,-4.522 10.375,-5.674 1.345,29.825 3.188,16.383 -46.409,68.494 -0.304,6.522 -1.686,12.933 -3.731,19.152 -2.46,-1.189 -4.947,-2.377 -7.379,-3.593 -4.228,5.14 -7.075,11.137 -9.534,17.3 8.484,-2.045 17.604,-5.887 25.95,-1.161 7.295,-6.909 6.163,-17.024 5.886,-26.143 8.125,-12.602 21.086,-21.804 34.932,-27.221 2.515,-3.068 5.002,-6.163 7.489,-9.258 6.273,0.442 12.574,0.774 18.875,0.802 -7.765,14.509 -17.466,28.078 -27.967,40.707 -8.429,10.916 -24.402,11.662 -31.726,23.711 -1.934,0.11 -5.831,0.359 -7.793,0.497 0.028,3.786 0.055,7.6 0.111,11.441 11.917,-2.26 9.662,-2.432 20.727,-3.703 3.068,-2.598 6.024,-5.389 9.534,-7.351 14.15,-6.937 23.269,-20.367 34.627,-30.814 2.045,0.083 6.107,0.194 8.152,0.276 -4.173,8.816 -10.336,16.637 -13.21,26.088 -9.285,5.527 -15.503,14.398 -22.274,22.55 -15.366,3.987 -19.413,10.914 -26.558,25.204 1.243,0.663 3.731,1.962 4.975,2.625 6.467,-2.183 13.127,-4.587 17.825,-9.755 5.969,-6.218 13.901,-10.253 19.317,-17.023 6.826,-9.811 19.511,-14.592 23.518,-26.53 4.532,-7.185 10.889,-12.933 16.941,-18.792 10.722,-35.442 4.348,-14.729 9.479,-30.758 2.377,-3.537 4.67,-7.103 6.909,-10.695 4.753,1.409 7.6,4.118 3.924,8.733 2.432,3.565 4.947,7.047 7.627,10.474 0.083,6.246 0.138,12.464 0.194,18.737 2.294,2.791 4.615,5.665 6.854,8.567 1.382,1.05 4.145,3.123 5.555,4.173 1.934,-0.028 5.803,-0.055 7.738,-0.083 0.083,-6.301 -4.035,-10.474 -9.479,-12.961 2.736,-5.141 8.235,-10.695 3.758,-16.609 -0.442,-13.625 -4.753,-26.889 -3.482,-40.597 3.731,-5.444 7.351,-10.999 10.502,-16.775 1.022,-8.014 4.477,-15.366 8.346,-22.33 1.103,-15.086 1.118,-8.714 3.979,-25.729 1.741,-0.111 5.223,-0.332 6.964,-0.442 2.088,21.215 13.139,45.493 17.714,53.392 7.6,-1.188 15.117,-2.902 22.689,-4.311 -0.691,-3.123 -1.465,-6.19 -2.377,-9.203 -5.223,-2.018 -11.359,1.078 -16.388,-1.133 -1.051,-1.686 -3.151,-5.03 -4.201,-6.715 -0.221,-4.477 -0.443,-8.954 -1.299,-13.321 -2.957,-11.69 -0.055,-24.126 -4.505,-35.512 1.824,0.221 5.499,0.691 7.323,0.912 0.829,3.068 1.686,6.135 2.57,9.203 2.128,2.819 4.339,5.582 6.577,8.374 0.055,1.326 0.194,3.952 0.277,5.25 1.768,2.764 3.565,5.555 5.361,8.374 0.083,1.326 0.249,3.979 0.304,5.306 0.857,1.631 2.542,4.836 3.371,6.439 7.351,1.879 12.961,6.632 16.332,13.403 -0.829,2.708 -1.686,5.417 -2.57,8.125 4.615,19.676 7.13,39.85 8.069,60.052 3.814,9.092 2.432,19.207 0.415,28.547 -1.299,6.494 1.327,13.072 0,19.621 1.409,2.598 2.847,5.196 4.311,7.821 1.639,9.412 -0.266,0.323 3.565,14.536 6.107,4.477 12.187,9.037 18.626,13.072 0.083,1.022 0.221,3.068 0.277,4.09 2.045,0 6.08,0 8.097,0 0.083,-5.417 0.138,-10.805 0.249,-16.167 -4.09,-2.598 -8.235,-5.057 -12.519,-7.268 -4.035,-6.19 -8.54,-13.127 -6.854,-20.92 2.847,-14.204 5.61,-30.122 -2.543,-43.167 -0.083,-1.824 -0.249,-5.5 -0.332,-7.323 3.593,0.885 7.959,0.885 9.755,4.836 6.494,10.419 17.217,16.609 26.171,24.568 -0.166,8.208 -0.525,16.581 1.271,24.678 2.515,10.888 0.442,22.219 2.681,33.163 1.769,8.429 1.686,17.078 1.631,25.646 -2.045,2.929 -4.118,5.859 -6.163,8.816 0.884,2.681 1.851,5.361 2.847,8.07 0.193,2.625 0.414,5.278 0.608,7.959 2.376,3.758 4.753,7.544 7.296,11.22 5.334,-8.318 3.371,-18.35 3.676,-27.636 1.796,-2.902 3.593,-5.748 5.416,-8.595 -1.548,-15.614 2.57,-30.841 2.57,-46.317 -2.1,-4.201 -3.178,-8.843 -2.598,-13.514 2.902,-1.658 6.246,-2.239 9.451,-3.095 3.62,4.007 7.351,7.959 11.082,11.939 1.492,-0.055 4.505,-0.111 5.997,-0.166 7.461,4.781 13.486,11.276 19.4,17.77 7.185,-0.912 10.695,-6.522 9.921,-13.486 -4.587,-7.461 -11.165,-13.238 -18.46,-17.908 -1.354,-0.055 -4.062,-0.194 -5.389,-0.249 -12.187,-4.035 -20.285,-14.26 -28.852,-23.131 -0.327,-9.341 -5.16,-43.539 -9.396,-59.555 1.603,-0.608 4.836,-1.852 6.467,-2.46 5.61,6.301 11.192,12.74 14.592,20.588 6.356,8.844 17.659,12.989 22.412,23.02 5.251,2.294 10.889,3.151 16.609,3.04 -17.385,-30.962 -28.855,-26.065 -33.743,-39.906 -2.128,-7.904 -7.213,-14.481 -12.436,-20.561 1.105,-3.012 1.713,-6.356 3.897,-8.816 11.793,0.789 25.207,7.307 33.771,8.982 13.493,7.52 25.293,9.592 33.218,11.082 1.99,-5.748 4.339,-11.358 6.964,-16.83 l -2.736,-1.52 c -6.045,7.247 -15.532,2.972 -22.993,0.719 -20.191,-14.137 -37.568,-18.023 -47.229,-34.158 -8.954,-7.213 -17.245,-15.282 -22.025,-26.005 1.962,0 5.914,0.028 7.904,0.055 28.146,14.326 18.522,21.443 59.72,44.686 2.321,-4.56 3.648,-9.672 2.819,-14.785 -2.045,-4.035 -6.522,-2.791 -10.115,-2.874 -7.6,-4.339 -13.293,-11.745 -21.943,-14.122 -27.4,-15.716 -36.625,-34.214 -47.699,-44.687 -3.328,-20.12 -5.89,-28.614 -6.771,-32.251 0.885,-1.05 2.681,-3.178 3.565,-4.228 -0.055,-6.771 -0.055,-13.514 -0.055,-20.257 1.962,-0.083 5.914,-0.249 7.904,-0.332 1.879,4.256 3.675,8.595 5.582,12.878 0.11,1.327 0.332,3.98 0.442,5.279 6.494,10.446 17.355,16.664 25.452,25.646 7.213,8.374 17.521,12.74 26.779,18.35 0.083,-3.703 0.166,-7.378 0.221,-11.054 -1.299,-1.188 -3.897,-3.592 -5.223,-4.781 -1.133,-4.891 -2.432,-9.755 -3.482,-14.647 -6.577,-10.391 -17.051,-19.483 -16.913,-32.776 31.922,16.35 28.86,23.854 45.295,33.798 9.866,6.024 17.825,14.453 25.729,22.799 1.409,0 4.228,0 5.638,0 11.165,12.547 25.839,22.357 33.881,37.391 12.408,19.649 32.472,33.494 41.785,55.243 6.274,43.912 1.8,30.578 3.012,57.592 -4.836,4.974 -8.291,10.971 -10.778,17.41 1.768,3.731 3.537,7.462 5.472,11.165 0.413,32.075 -29.934,43.347 -41.923,129.113 -8.178,14.492 -9.357,27.288 -7.019,37.059 3.73,14.481 0.083,29.598 3.178,44.134 6.771,26.641 3.703,54.359 3.897,81.497 -1.824,3.786 -3.62,7.627 -4.864,11.69 -1.464,6.743 4.035,13.735 -0.221,20.146 0.948,43.736 20.589,55.464 24.955,134.585 1.962,3.04 3.952,6.107 5.997,9.175 -1.299,4.809 -3.288,9.368 -5.969,13.624 -0.249,6.19 -0.774,12.436 0.138,18.626 11.054,7.904 18.847,19.124 26.336,30.261 7.548,22.317 15.28,27.649 23.739,66.491 21.395,43.218 19.092,28.833 29.045,46.925 32.175,45.573 11.891,23.463 40.154,69.199 8.12,16.242 13.028,24.975 16.471,35.981 8.014,13.486 15.31,27.387 21.998,41.619 11.331,19.069 25.149,36.589 36.534,55.63 12.743,34.012 7.543,49.485 14.675,65.994 0.249,1.299 0.746,3.896 0.995,5.195 5.776,11.801 14.039,22.385 23.932,30.979 0.802,1.244 1.575,2.542 2.404,3.869 -9.717,47.95 -2.161,67.389 3.178,82.299 -3.755,15.437 -2.008,13.518 -6.052,23.407 -2.681,9.7 -1.078,19.842 -2.349,29.736 -2.183,15.476 -2.46,31.283 0.304,46.704 2.153,11.121 -10.665,43.532 -14.426,56.293 -9.037,30.454 -8.899,62.483 -13.68,93.683 -1.922,12.545 -6.917,25.308 -6.523,38.537 0.528,17.737 12.939,22.745 25.389,30.727 12.499,8.014 -0.303,6.794 21.482,77.648 15.263,41.871 37.239,79.103 64.805,115.24 96.779,99.284 277.819,273.69 278.843,274.642 0.995,2.376 2.017,4.808 3.04,7.268 -73.554,-23.185 -204.707,-39.552 -353.182,-97.305 2.1,-6.771 3.786,-13.652 5.499,-20.505 -14.702,-17.355 -38.385,-24.513 -60.218,-27.608 -27.713,-5.978 -41.965,-49.946 -86.361,-66.243 -3.482,-11.469 -14.951,-17.078 -21.224,-26.64 -7.422,-10.802 -16.596,-30.069 -49.108,-21.804 -19.277,20.962 -15.169,6.34 -63.285,48.417 -8.595,5.582 -15.061,13.569 -20.423,22.191 -0.193,1.299 -0.608,3.869 -0.802,5.168 -3.758,5.002 -7.379,10.115 -11.275,15.034 -5.914,1.105 -11.745,2.432 -17.687,3.372 -5.444,3.261 -10.308,7.323 -14.979,11.635 0,1.824 -0.028,5.472 -0.055,7.268 -1.879,-0.028 -5.61,-0.083 -7.489,-0.11 -2.681,3.648 -5.306,7.351 -7.766,11.22 -1.437,0 -4.338,-0.055 -5.775,-0.083 -3.593,4.118 -7.158,8.291 -10.502,12.657 -10.141,6.235 -17.617,22.426 -31.615,38.8 -0.138,1.271 -0.387,3.814 -0.498,5.113 -2.791,3.593 -5.417,7.351 -8.042,11.137 -0.028,1.382 -0.055,4.173 -0.055,5.555 -2.681,2.764 -5.361,5.583 -8.014,8.429 -0.194,2.764 -0.387,5.555 -0.581,8.401 -4.864,5.5 -7.379,12.491 -8.595,19.677 -1.16,1.188 -3.454,3.565 -4.615,4.781 -0.028,7.047 0.276,14.674 -5.555,19.814 -0.111,3.621 -0.194,7.268 -0.277,10.972 -1.382,1.299 -4.145,3.896 -5.527,5.196 0.055,3.648 0.111,7.323 0.138,11.054 -1.796,2.791 -3.593,5.61 -5.361,8.484 -1.87,15.624 -2.761,7.362 -3.261,25.204 -1.188,1.188 -3.51,3.565 -4.698,4.753 0.829,9.562 -9.258,18.157 -3.427,27.166 -1.271,-0.138 -3.869,-0.415 -5.168,-0.553 -0.249,1.603 -0.719,4.836 -0.967,6.467 -4.781,5.444 2.017,9.479 4.505,13.873 -2.791,-1.465 -5.555,-2.874 -8.346,-4.256 -1.299,4.062 -2.653,8.18 -4.062,12.27 0.857,0.885 2.598,2.653 3.454,3.537 -5.444,1.658 -8.622,6.135 -11.082,10.999 2.156,2.543 4.311,5.168 6.439,7.848 -2.128,-0.939 -6.411,-2.846 -8.539,-3.814 -1.52,4.146 -3.04,8.318 -4.505,12.519 -7.541,10.881 -2.903,5.558 -10.446,14.122 0.885,1.188 2.653,3.565 3.51,4.753 -4.09,2.542 -8.069,5.306 -12.021,8.125 0.138,1.603 0.415,4.753 0.581,6.356 -2.874,2.57 -5.721,5.25 -8.567,7.931 0.028,3.233 0.028,6.522 0.028,9.838 -1.133,0.028 -3.427,0.083 -4.587,0.111 -0.829,1.769 -2.515,5.333 -3.344,7.13 -0.138,1.299 -0.442,3.869 -0.581,5.168 -6.267,5.466 -9.858,12.891 -12.468,20.676 -1.509,4.5 -8.523,7.964 -10.936,12.553 -8.522,16.208 -11.807,38.531 -15.908,56.354 -21.216,92.21 -5.268,183.079 4.16,198.048 13.644,21.663 58.632,58.011 108.33,26.014 20.805,-13.395 12.957,-22.886 56.378,-94.965 2.892,-6.663 5.349,-12.281 6.273,-19.51 9.893,-12.353 19.29,-25.425 31.228,-35.788 1.63,-0.608 4.864,-1.796 6.494,-2.404 1.051,-3.427 2.156,-6.826 3.316,-10.142 18.888,8.477 8.673,-2.474 31.975,-15.587 4.394,-2.653 8.07,-6.246 10.502,-10.75 2.625,-8.733 11.358,-12.325 18.543,-16.553 0,-2.957 0,-5.859 0,-8.733 3.676,-3.123 7.378,-6.218 11.054,-9.286 3.288,-0.028 6.577,0 9.866,0.083 9.589,-3.676 10.722,-15.199 18.875,-20.285 10.971,-1.05 8.622,-17.106 20.118,-16.471 4.477,-4.256 8.844,-8.622 13.155,-13.016 1.409,-0.083 4.256,-0.221 5.693,-0.304 1.326,-1.326 4.035,-3.952 5.389,-5.278 2.819,-0.055 5.638,-0.055 8.457,0 3.731,-2.625 7.434,-5.196 11.11,-7.848 15.421,-4.201 31.698,-1.879 47.063,-6.356 4.118,-2.515 8.235,-5.03 12.353,-7.517 -0.028,-1.935 -0.083,-5.776 -0.111,-7.71 43.432,-21.378 255.012,30.941 346.909,84.399 1.299,0.193 3.841,0.552 5.14,0.719 36.076,20.178 143.308,69.109 146.911,71.106 1.299,0.193 3.896,0.58 5.196,0.774 5.866,3.275 24.993,12.125 33.163,13.9 16.728,8.694 81.226,31.247 80.226,30.869 73.566,27.825 108.191,28.818 164.579,53.334 23.51,10.221 18.147,12.333 75.795,29.656 31.57,7.527 57.158,13.255 81.774,12.906 38.586,4.539 65.644,7.008 114.604,-18.433 19.732,-11.193 34.185,-29.211 43.664,-49.551 14.236,-30.548 26.917,-23.528 42.041,-77.942 19.727,-70.961 21.519,-99.104 -7.742,-184.311 z M 85.836,885.537 c -6.301,0.055 -12.602,0.083 -18.903,0 3.979,-11.855 17.686,-16.775 29.211,-16.415 -3.317,5.527 -6.881,10.943 -10.308,16.415 z m 209.201,-79.535 c -5.859,2.1 -11.911,3.648 -18.101,4.394 1.465,-8.788 10.17,-11.552 17.189,-14.702 0.221,2.57 0.691,7.738 0.912,10.308 z M 269.64,734.813 c 0.498,-2.708 0.995,-5.417 1.492,-8.125 5.859,-0.359 11.717,-0.774 17.577,-1.188 -0.249,1.603 -0.719,4.781 -0.967,6.384 -5.97,1.326 -12.023,2.238 -18.102,2.929 z M 248.222,622.502 c 0.027,-1.907 0.11,-5.748 0.138,-7.655 6.578,-2.874 13.514,-4.698 20.671,-5.223 7.02,-2.543 17.935,-4.118 21.528,4.283 -6.771,1.935 -13.735,3.178 -20.782,3.012 -6.798,3.179 -14.01,5.252 -21.555,5.583 z m 20.368,107.972 c -4.56,10.778 -17.494,13.928 -27.663,17.106 2.597,-12.878 15.42,-18.985 27.663,-17.106 z m -3.096,26.06 c -2.819,12.574 -16.83,15.559 -26.834,20.423 -11.468,2.681 -23.435,1.935 -34.986,4.311 0.746,-1.575 2.211,-4.726 2.957,-6.301 19.676,-5.858 38.855,-13.513 58.863,-18.433 z M 187.7,753.191 c 10.585,-7.268 22.882,-11.69 35.76,-12.243 -0.884,3.233 -1.796,6.439 -2.708,9.672 -15.061,7.02 -29.708,17.493 -46.98,17.328 -1.741,1.63 -3.482,3.261 -5.195,4.947 -2.709,0.055 -8.07,0.221 -10.778,0.277 5.693,-11.497 19.953,-13.459 29.901,-19.981 z m -42.945,122.674 c -10.916,6.19 -23.711,7.075 -35.567,10.474 0.663,-4.366 0.884,-8.843 2.376,-12.989 6.135,-9.755 20.202,-11.054 25.204,-21.721 46.237,-41.929 62.771,-38.973 112.449,-52.535 -7.24,13.679 -20.893,24.568 -21.804,41.011 -17.486,-0.538 -68.541,27.919 -82.658,35.76 z m 111.509,-10.612 c -2.874,8.014 -5.141,16.249 -7.075,24.54 -3.979,12.243 -11.883,22.882 -14.73,35.567 -7.019,-8.65 -9.423,-21.086 -4.753,-31.394 4.422,-11.22 6.495,-23.131 8.042,-35.042 2.543,-2.46 5.113,-4.919 7.655,-7.379 5.693,2.736 8.374,8.263 10.861,13.708 z m -38.994,83.956 c 0.194,-10.114 9.203,-15.78 17.825,-18.46 -0.249,7.793 -3.233,14.978 -7.268,21.528 -3.869,3.233 -7.406,6.854 -11.303,10.059 -4.256,-0.193 -5.555,-4.56 -7.738,-7.378 2.819,-1.935 5.665,-3.842 8.484,-5.749 z m -37.114,11.221 c 2.349,-9.286 3.648,-22.938 15.752,-23.849 0.802,2.46 2.377,7.379 3.178,9.838 -2.456,20.328 8.42,25.804 3.814,34.434 -6.356,13.459 -12.657,27.304 -22.468,38.662 -2.183,-19.733 1.161,-39.409 -0.276,-59.085 z m 18.709,209.505 c -1.631,9.396 -5.555,21.362 -16.498,22.882 0.359,-6.716 0.11,-13.458 0.912,-20.091 3.814,-6.854 8.622,-13.099 12.132,-20.118 7.6,2.652 4.338,11.495 3.454,17.327 z m 5.831,-81.912 c -1.327,0.774 -3.952,2.294 -5.278,3.04 -1.105,-15.283 3.565,-30.482 13.735,-42.034 1.712,12.397 7.992,-0.057 -8.457,38.994 z m 4.836,-41.481 c 1.299,-10.639 2.736,-24.706 15.476,-27.359 -0.912,6.881 1.299,15.338 -4.118,20.837 -2.708,3.73 -7.323,4.836 -11.358,6.522 z m 19.014,111.288 c -9.286,-10.17 -6.964,-24.347 -1.243,-35.622 4.532,-2.929 8.982,-5.969 13.513,-8.871 1.105,3.869 2.239,7.793 3.371,11.69 -3.62,11.496 -5.112,25.203 -15.641,32.803 z m 12.602,-155.422 c -0.194,-5.333 -0.249,-10.64 -0.277,-15.946 5.969,-6.384 11.662,-13.016 17.935,-19.151 0.58,1.437 1.741,4.284 2.294,5.721 -5.942,8.401 -9.479,18.129 -14.592,26.972 -1.353,0.608 -4.034,1.796 -5.36,2.404 z m 3.924,56.266 c 1.078,-0.968 3.178,-2.957 4.256,-3.952 0.276,-4.394 0.608,-8.788 0.994,-13.155 14.509,6.273 8.899,26.558 -3.482,32.03 -0.718,-4.975 -1.271,-9.949 -1.768,-14.923 z m 10.28,48.279 c -2.764,-8.346 -2.791,-17.217 -4.228,-25.812 2.957,-5.113 6.605,-9.893 12.105,-12.464 1.713,6.688 2.902,13.486 3.454,20.395 -4.063,5.749 -3.814,15.339 -11.331,17.881 z m 11.497,-202.845 c -1.078,4.836 -5.61,7.13 -9.451,9.479 1.465,-15.752 8.374,-31.588 21.528,-40.956 -2.46,11.027 -8.264,20.893 -12.077,31.477 z m 8.318,-51.236 c -4.781,3.62 -10.17,6.246 -16.25,6.881 1.713,-3.952 4.035,-7.517 6.937,-10.64 0.221,-1.465 0.636,-4.394 0.829,-5.859 4.504,-1.409 8.982,-2.819 13.513,-4.145 -1.713,4.56 -3.454,9.12 -5.029,13.763 z m 11.247,-16.913 c -4.781,0.359 -9.562,0.497 -14.37,0.415 1.133,-9.562 11.027,-7.572 18.129,-7.931 -1.161,2.569 -2.405,5.056 -3.759,7.516 z m 19.014,189.607 c -1.99,5.914 -7.765,9.175 -12.353,12.934 -1.216,-6.025 -3.427,-12.851 1.244,-18.046 -4.726,-7.296 -4.477,-21.169 5.941,-23.186 0.553,5.306 1.161,10.64 2.017,15.918 -1.907,2.073 -3.813,4.145 -5.72,6.218 3.758,-0.636 11.69,0.58 8.871,6.162 z M 291.472,883.133 c 1.354,-4.505 2.819,-8.926 4.339,-13.348 3.758,-0.608 7.544,-1.216 11.358,-1.796 3.399,10.363 -8.429,12.601 -15.697,15.144 z m 25.701,51.623 c 3.206,0.58 6.384,1.216 9.59,1.907 2.404,-0.663 4.809,-1.299 7.212,-1.907 -1.851,9.783 -2.459,19.787 -4.311,29.57 -4.09,5.058 -11.027,6.301 -16.664,8.926 -4.394,-12.795 -0.194,-26.309 4.173,-38.496 z m 16.083,39.823 c -4.532,8.539 -10.142,16.498 -16.471,23.794 -1.52,-5.886 -2.847,-11.828 -4.062,-17.769 6.55,-2.902 13.017,-7.297 20.533,-6.025 z m -16.801,62.456 c 1.547,-7.793 -1.216,-20.257 8.567,-23.186 -0.94,7.738 -2.156,15.476 -2.957,23.269 -1.41,-0.028 -4.201,-0.055 -5.61,-0.083 z m 13.541,58.892 c -1.354,0.912 -4.062,2.736 -5.416,3.648 -3.178,-15.697 -0.94,-32.195 3.648,-47.367 1.382,-0.636 4.201,-1.934 5.61,-2.598 1.16,15.53 -1.051,31.089 -3.842,46.317 z M 315.404,658.152 c 2.377,-3.233 3.565,-8.125 7.932,-9.313 11.192,-4.173 23.297,-5.969 35.235,-5.582 4.339,-0.58 7.378,2.349 9.562,5.721 -16.996,6.604 -35.567,3.205 -52.729,9.174 z M 363.794,979 c -2.211,2.791 -4.449,5.582 -6.66,8.374 -1.575,-0.111 -4.671,-0.359 -6.246,-0.498 0.829,-4.919 1.796,-9.81 3.122,-14.591 3.262,2.183 6.551,4.449 9.784,6.715 z m 16.471,226.501 c 1.244,4.118 2.405,8.235 3.454,12.436 -8.899,-2.156 -12.408,-11.109 -17.769,-17.466 -3.593,-3.952 -4.726,-9.175 -5.582,-14.26 -1.851,-1.63 -3.675,-3.233 -5.499,-4.836 -2.239,-9.866 -6.135,-19.234 -11.027,-28.078 -1.824,-14.177 -5.748,-28.271 -3.593,-42.669 -0.497,-13.182 -0.802,-26.419 2.957,-39.215 24.545,20.525 2.906,19.317 32.444,91.391 2.708,14.012 6.466,28.327 4.615,42.697 z M 363.38,1003.956 c -0.194,-3.151 -0.387,-6.273 -0.553,-9.369 1.824,-1.769 3.648,-3.482 5.472,-5.223 1.409,-0.276 4.256,-0.829 5.693,-1.105 0.94,0.967 2.819,2.93 3.759,3.924 -3.207,5.637 -8.264,9.672 -14.371,11.773 z m 62.124,42.586 c -13.417,-4.025 -20.643,-6.611 -34.683,-49.108 9.203,0.995 14.813,8.844 18.212,16.664 4.809,11.22 14.841,19.87 16.471,32.444 z m 62.263,-478.537 c -33.917,17.057 -42.769,-11.683 -57.427,-17.411 -8.678,-5.803 -21.694,-7.102 -26.226,-17.493 13.541,1.63 27.221,3.206 39.795,8.816 16.526,1.326 28.465,13.9 44.134,18.156 -0.055,1.963 -0.193,5.942 -0.276,7.932 z m 12.85,-10.419 c -9.506,-7.655 -20.727,-12.712 -30.233,-20.285 -21.114,-12.823 -48.722,-5.057 -69.448,-18.902 -0.331,-1.244 -1.022,-3.703 -1.354,-4.919 16.471,-6.08 34.047,-2.266 50.767,0.58 10.502,1.741 19.041,8.595 28.713,12.602 10.087,4.035 17.77,12.049 27.525,16.692 7.296,3.758 14.371,8.456 18.322,15.946 -7.959,1.354 -17.631,4.836 -24.292,-1.714 z m 26.061,31.588 c -1.216,-6.024 -1.796,-12.187 -0.193,-18.156 1.99,0.138 5.997,0.47 8.014,0.636 1.437,4.56 2.93,9.12 4.118,13.763 -2.847,3.536 -8.042,2.513 -11.939,3.757 z m -2.266,-41.343 c -7.821,-7.544 -18.958,-10.308 -26.447,-18.267 -10.668,-10.308 -24.43,-16.333 -38.33,-20.809 0.718,-1.133 2.211,-3.427 2.957,-4.56 46.137,-4.759 109.156,53.337 83.874,53.337 -8.845,2.238 -15.753,-4.754 -22.054,-9.701 z m 37.722,37.943 c -5.278,-0.912 -10.64,-0.912 -15.946,-1.188 0.663,-4.422 1.382,-8.816 2.1,-13.238 5.831,0.525 11.69,1.078 17.549,1.658 7.822,11.362 7.728,10.326 13.707,21.196 -6.273,-1.878 -11.579,-5.664 -17.41,-8.428 z"
       id="path2" />
    <path
       d="m 3652.146,3415.184 c -8.014,-11.801 -17.936,-22.247 -29.57,-30.482 -1.519,-31.899 3.076,-28.347 -18.93,-74.616 -10.432,-21.933 -32.269,-36.281 -52.121,-49.081 -33.721,-19.439 -26.132,-19.432 -53.917,-24.43 -19.096,-3.841 -36.368,-17.327 -56.708,-12.906 -15.641,-2.377 -31.504,-2.598 -47.035,-5.113 -16.802,-4.836 -35.401,-6.218 -52.121,-0.442 -7.793,6.246 -18.405,5.362 -27.663,4.146 -45.071,-12.588 -26.219,0.266 -80.254,-19.427 -13.679,-5.886 -28.63,-7.406 -43.222,-9.424 -9.396,0.525 -18.737,2.349 -28.188,1.99 -5.638,-3.62 -11.276,-8.346 -18.295,-8.401 -95.701,-4.813 -70.097,-4.376 -105.789,5.693 -11.22,3.234 -22.081,7.71 -31.725,14.343 -8.263,5.666 -19.539,7.627 -25.287,16.443 -3.538,12.851 4.062,25.452 8.539,37.17 19.316,37.302 0.013,97.113 -1.686,105.236 -1.078,1.188 -3.261,3.62 -4.339,4.809 -1.907,11.607 -3.316,23.435 0.414,34.876 -143.004,46.115 -219.031,21.584 -327.813,69.558 -2.543,-2.68 -5.057,-5.306 -7.545,-7.904 -1.833,-1.914 11.731,-32.111 12.766,-36.335 5.39,-22.002 12.262,-44.292 19.181,-65.833 5.09,-15.885 24.491,-97.246 32.472,-113.637 14.283,-31.819 36.775,-44.748 90.064,-134.696 71.996,-107.347 77.795,-207.432 48.912,-314.066 -8.799,-32.484 -53.976,-96.678 -53.748,-119.923 1.824,-1.05 5.444,-3.095 7.24,-4.145 7.406,-0.276 14.757,0.691 22.025,2.045 9.811,-8.898 20.782,-18.156 25.784,-30.675 -3.534,-4.362 -7.591,-8.199 -10.906,-12.67 -11.986,-16.168 7.616,-37.018 20.91,-45.392 17.991,-12.243 34.627,-26.337 52.59,-38.635 8.346,-6.494 14.923,-14.923 23.297,-21.417 13.542,-10.198 24.485,-23.297 36.783,-34.848 13.845,-13.044 31.338,-21.694 44.051,-35.981 18.322,-18.516 41.122,-32.555 56.736,-53.724 14.205,-15.31 29.929,-29.156 43.913,-44.687 75.03,-91.94 37.151,-34.672 85.178,-109.695 5.343,-8.346 9.333,-18.523 15.341,-26.289 5.937,-7.674 13.929,-13.06 19.035,-21.626 10.878,-18.275 -3.696,-34.847 -12.743,-64.027 -35.501,-115.675 -153.418,-240.579 -165.343,-259.194 -8.097,-11.22 -15.338,-23.49 -26.337,-32.195 -9.103,-7.574 -33.28,-40.108 -43.277,-62.069 -18.504,-35.977 -41.914,-57.811 -70.25,-86.583 -19.33,-19.859 -47.328,-27.529 -59.803,-54.248 -7.358,-15.759 -22.45,-28.093 -33.672,-41.096 -35.775,-41.449 -55.131,-21.526 -60.62,-51.4 10.358,-61.396 12.574,-51.839 17.079,-66.795 2.736,-1.492 5.72,-2.211 8.871,-1.548 4.173,-0.525 8.291,-0.055 12.325,1.299 -0.11,2.238 -0.304,6.716 -0.415,8.954 6.08,-0.138 12.188,-0.221 18.323,-0.249 10.17,10.529 22.661,18.378 34.518,26.914 0.578,13.51 23.724,7.783 16.056,-0.575 -2.313,-2.521 -15.046,-2.532 -12.907,-8.762 1.271,-3.703 2.459,-7.462 3.676,-11.165 21.605,-4.321 34.192,-7.053 68.836,-38.788 35.432,-32.457 84.662,-99.012 75.698,-146.425 -2.57,-13.431 -5.499,-28.741 4.035,-40.21 7.987,3.344 18.488,2.764 24.982,8.512 9.479,28.437 -3.316,57.537 -8.125,85.615 -12.477,117.982 2.646,84.746 1.216,139.421 -59.349,28.231 -46.333,12.732 -64.631,18.549 0.423,0.381 5.871,3.846 5.823,4.029 -1.52,5.748 -5.472,9.894 -10.612,12.657 -1.382,0.083 -4.118,0.304 -5.472,0.414 -2.846,1.078 -5.665,2.156 -8.456,3.206 -11.939,13.155 -32.085,10.391 -48.169,13.016 12.685,7.406 27.663,1.437 41.232,0.58 6.577,0.967 13.182,2.321 19.925,1.907 4.726,-3.233 10.28,-3.206 15.172,-0.166 5.969,0.304 11.994,0.304 18.019,-0.055 8.123,-3.592 17.241,-2.764 25.889,-2.045 3.684,0.306 3.997,8.191 4.488,10.641 -2.456,0.011 -5.884,-0.606 -8.243,0.033 -4.521,1.225 -1.039,6.53 0.168,9.749 -22.582,17.021 -15.029,12.213 -26.856,12.508 -18.731,0.466 -25.052,-4.639 -31.006,2.058 3.602,3.171 9.162,3.465 13.424,5.442 7.428,3.446 -0.394,11.597 -3.454,14.224 1.256,0.287 14.579,1.4 14.84,0.754 -1.631,4.035 -3.427,8.014 -5.361,11.939 0.774,3.869 1.437,7.766 2.128,11.717 3.482,1.603 6.964,3.316 10.529,5.03 -0.055,3.204 -0.055,6.435 -0.028,9.664 -0.01,-0.732 -9.701,-0.036 -10.32,-0.01 1.013,4.545 6.79,12.342 -4.36,16.441 -3.623,1.332 -9.017,3.899 -6.802,8.183 4.651,0.108 9.302,0.215 13.954,0.323 0.562,0.242 -3.655,10.87 -2.479,12.535 2.703,3.825 19.087,-1.761 41.735,1.228 15.415,2.034 27.117,13.363 40.847,19.956 31.132,14.95 17.584,26.117 52.207,34.545 21.767,5.298 13.238,12.595 25.473,15.358 43.965,11.062 49.715,-0.661 69.365,-4.007 35.646,-19.844 34.666,-28.483 52.812,-34.959 20.202,-2.045 37.999,-13.265 53.116,-26.115 11.745,-10.059 18.709,-24.071 26.585,-37.087 2.349,-4.394 7.074,-6.384 11.331,-8.429 9.534,-5.831 15.724,-15.531 24.761,-21.998 10.142,-7.075 13.873,-19.483 19.4,-29.985 7.323,-14.232 7.462,-30.537 6.937,-46.151 -0.719,-0.995 -2.128,-2.957 -2.846,-3.924 0,-6.19 0.028,-12.353 0.166,-18.516 6.273,-0.083 10.391,4.063 12.408,9.728 17.41,22.613 22.611,43.603 18.446,71.276 2.51,0.399 4.977,0.073 7.559,-0.143 2.902,19.317 -3.288,38.358 -2.487,57.703 0,0 10.563,-23.163 12.664,-56.022 1.645,-25.721 -6.542,-49.301 -7.303,-74.362 -5.531,-10.661 -3.706,-7.121 -7.848,-17.576 -0.194,-3.399 -0.332,-6.798 -0.387,-10.17 7.406,1.52 12.657,6.992 17.825,12.104 -38.949,-51.007 -20.698,-24.977 -45.294,-51.043 -0.166,-3.399 -0.304,-6.798 -0.415,-10.142 6.301,-1.824 12.685,-0.442 18.543,2.211 5.941,0.939 11.717,2.819 16.829,6.162 1.536,1.005 5.9,0.609 7.916,1.403 1.002,0.395 27.682,13.533 51.778,16.92 0.359,-1.244 1.05,-3.676 1.409,-4.892 -12.621,-0.916 -34.942,-8.955 -42.376,-20.371 -7.259,-11.148 -6.937,-6.725 -10.261,-8.743 -1.292,-0.785 -1.722,-2.438 -1.911,-3.938 -0.995,-7.905 -6.62,-4.482 -25.097,-7.986 0,-1.962 0,-5.914 0,-7.904 36.44,-1.752 87.785,8.891 93.657,10.916 7.655,2.819 14.84,9.811 23.518,6.135 -32.413,-14.525 -11.989,-10.23 -59.129,-23.155 -0.672,-0.184 0.997,-6.571 -3.551,-7.658 -22.838,-5.459 -44.747,-11.929 -66.708,-20.184 -3.594,-1.351 -7.735,-3.348 -8.294,-7.144 -1.256,-8.541 9.796,-6.087 61.988,-5.945 9.783,-0.387 18.599,4.892 28.354,5.168 -10.446,-8.871 -24.126,-11.469 -37.446,-11.192 -3.454,-1.133 -6.881,-2.183 -10.28,-3.178 0,-1.686 0,-5.085 0,-6.771 9.645,-2.1 20.036,-5.831 29.597,-1.244 17.952,1.889 7.848,-0.046 22.855,4.311 l -0.083,-2.238 c -3.344,-2.1 -6.604,-4.256 -9.783,-6.467 -3.75,-1.047 -11.478,-3.366 -32.361,-6.992 -9.368,-3.068 -19.594,-0.221 -28.741,-4.007 -29.904,-3.424 -44.663,5.566 -87.467,8.374 -7.107,0.466 -25.759,6.882 -31.565,0.723 -0.943,-1 -4.331,-7.753 -7.324,-4.659 3.543,-3.663 4.958,-7.71 9.192,-11.19 1.617,-1.329 4.028,-1.972 5.349,-3.608 3.022,-3.744 2.711,-6.557 7.46,-8.736 4.757,-2.183 11.288,-1.251 16.385,-2.346 8.849,-1.901 17.693,-3.841 26.399,-6.33 19.137,-5.472 41.171,-2.156 59.606,-8.811 -6.238,-5.263 -20.265,-3.687 -27.951,-3.424 -38.874,1.332 -78.73,18.372 -114.983,31.224 -18.668,6.623 -30.526,-11.855 -45.012,-21.477 -25.084,-14.872 -70.336,-61.101 -89.539,-69.807 -14.923,-7.378 -27.884,-18.129 -43.333,-24.402 -16.056,-3.233 -32.831,-2.625 -48.086,-9.258 -1.326,-2.598 -2.625,-5.223 -3.869,-7.793 -3.178,0.028 -6.328,0.111 -9.423,0.194 -27.822,-37.51 26.148,-62.257 -46.704,-159.126 -36.449,-33.308 -73.061,-77.878 -132.513,-91.391 -24.224,-6.935 -28.991,-15.428 -42.393,-14.895 -32.917,0.547 -30.029,-10.227 -79.342,5.969 -12.021,7.103 -22.523,16.36 -32.03,26.53 -4.422,5.389 -11.496,6.329 -17.797,8.014 -14.094,4.008 -26.286,10.057 -46.677,15.255 -26.818,13.849 -60.48,50.939 -71.751,57.565 -8.203,0 -7.927,0.305 -4.744,11.082 -4.007,9.617 -8.567,19.068 -10.999,29.266 -2.929,3.012 -5.859,5.997 -8.733,8.982 -17.383,3.04 -34.849,6.798 -50.076,16.084 -26.561,16.481 -31.348,18.391 -42.061,26.503 -6.25,4.732 -9.113,15.598 -5.567,22.745 3.227,6.502 24.232,15.136 24.11,21.83 -0.055,3.04 -0.055,6.08 -0.055,9.147 -1.409,0.719 -4.256,2.183 -5.693,2.902 -0.193,6.605 -0.94,13.597 2.681,19.566 -1.437,5.803 -2.073,11.938 -4.698,17.355 -4.394,6.743 -12.795,9.064 -18.101,14.868 -2.598,3.482 -4.643,7.296 -6.881,11.027 -1.357,7.779 -1.874,25.015 -13.748,23.677 -12.858,-1.454 -10.626,-36.698 -44.093,-100.863 -7.102,-13.21 -10.75,-27.802 -16.416,-41.592 -31.806,-77.904 -26.056,-82.475 -31.781,-99.433 -8.836,-17.765 -8.776,-36.137 -27.912,-102.113 -33.521,-115.572 -55.707,-116.48 -77.297,-174.38 -4.947,-7.793 -9.064,-16.084 -12.215,-24.761 -4.015,-7.237 -23.149,-39.791 -25.204,-44.024 -12.709,-30.159 -19.16,-54.657 -29.369,-77.987 -5.854,-13.379 -11.496,-14.449 -25.598,-77.518 -1.53,-6.259 -0.731,-3.728 -5.5,-13.265 -28.788,-45.298 -35.007,-25.854 -49.771,-58.145 -5.496,-6.786 -82.762,-110.635 -94.209,-132.374 -4.143,-9.978 -5.061,-12.882 -8.539,-20.229 -1.188,-11.69 3.04,-29.736 -10.75,-35.125 -9.298,-18.781 -16.863,-40.154 -17.742,-44.024 -18.462,-28.145 -3.246,-49.544 -20.719,-49.479 -16.838,0.063 -15.878,5.907 -22.807,19.135 -0.166,7.876 -0.166,15.78 -0.359,23.656 -3.012,2.708 -5.721,5.693 -8.318,8.733 -0.387,15.531 -1.327,32.554 10.308,44.659 2.045,9.562 8.291,17.355 11.69,26.392 -3.705,21.42 -1.566,24.515 13.597,48.03 0.442,9.562 6.08,17.438 11.248,25.066 1.313,26.388 6.247,15.453 6.163,43.747 5.14,7.572 9.59,15.669 15.835,22.44 7.983,33.23 5.202,22.438 9.451,35.982 32.127,64.254 48.697,67.454 60.964,94.099 23.182,48.827 24.034,143.32 34.24,182.864 39.74,153.954 44.874,304.641 80.088,335.993 6.108,6.991 15.973,9.34 21.445,17.023 5.333,6.301 6.522,14.758 9.064,22.357 47.035,162.423 139.446,363.438 216.331,450.514 -0.166,8.622 1.188,17.77 -2.708,25.839 -4.713,10.244 -12.908,27.574 -14.288,46.041 -9.973,16.736 -39.091,46.382 -48.638,63.313 -48.33,63.986 -56.243,83.153 -77.463,116.346 -0.249,1.326 -0.801,3.952 -1.078,5.251 -1.105,1.244 -3.372,3.758 -4.477,5.002 -5.452,25.266 -32.949,50.023 -22.302,143.622 0.47,1.05 1.437,3.178 1.935,4.228 3.493,47.513 31.174,68.33 37.225,125.769 3.048,13.329 8.055,86.197 2.211,117.893 -1.133,9.866 1.271,20.202 -2.404,29.708 -5.681,63.155 -4.718,29.771 -6.632,62.318 -11.11,18.046 -0.885,40.072 -7.351,59.223 -0.442,6.246 -0.553,12.519 -0.608,18.82 -7.213,6.439 -13.901,14.205 -15.946,23.96 -1.769,16.084 -0.885,32.444 2.625,48.279 3.676,3.648 7.379,7.323 11.137,10.971 -2.898,22.772 -13.062,34.638 -5.5,69.006 -1.465,1.133 -4.366,3.427 -5.831,4.56 -7.701,24.406 4.113,3.908 5.859,72.018 2.322,6.163 2.322,12.823 2.985,19.345 7.471,52.89 28.888,67.248 8.982,116.29 -2.767,6.818 -2.055,17.719 -2.704,25.387 -0.765,9.046 -5.54,17.295 5.219,18.111 3.759,1.548 7.572,2.985 11.414,4.505 3.924,0.912 9.451,-0.028 11.496,4.532 3.454,18.93 4.339,38.192 8.263,57.067 10.227,80.342 11.855,54.968 -19.262,183.583 -88.899,193.162 -149.102,593.524 -78.489,837.461 10.377,37.149 110.527,93.729 186.046,71.223 26.118,-5.516 19.725,-6.932 33.796,-11.339 31.334,-9.813 12.862,1.261 67.985,-24.442 11.126,-5.188 22.973,-9.682 33.108,-16.726 7.158,-4.974 14.26,-10.087 22.192,-13.79 68.005,-45.456 28.964,-40.171 141.079,-95.592 44.043,-25.148 -3.509,8.219 82.796,-49.744 12.692,-7.69 8.418,-7.42 46.704,-28.796 22.661,-12.187 42.393,-29.073 63.949,-43.029 25.756,-17.493 46.814,-41.84 75.721,-54.552 22.33,-9.838 43.802,-21.804 66.989,-29.625 147.94,-51.786 103.712,-29.89 174.242,-59.803 -3.109,21.265 -2.733,5.534 -3.676,27.498 3.427,3.924 6.052,11.8 12.74,9.258 11.883,-4.587 20.975,-14.067 28.575,-24.015 7.157,-0.801 14.205,-2.376 21.252,-3.924 1.326,-1.244 3.979,-3.731 5.306,-4.974 10.766,-0.109 29.322,3.115 42.503,-19.428 8.438,-2.259 28.452,-5.005 40.818,-16.139 19.124,-1.41 38.11,-4.532 57.455,-3.206 17.281,-14.837 11.624,-11.11 19.455,-17.051 3.358,-2.547 13.783,3.221 18.048,1.875 5.772,-1.823 12.359,-6.536 17.062,-10.293 1.698,-1.357 1.494,-3.567 3.56,-4.544 2.89,-1.366 9.157,-0.171 12.372,-0.205 15.794,-0.165 34.909,-3 50.381,0.455 11.386,2.543 23.186,1.327 34.6,3.841 54.544,12.017 67.038,-0.411 94.883,-26.777 17.839,-16.896 10.839,-40.964 5.183,-64.617 z m -935.49,-1080.467 c 10.336,-9.921 -1.796,-25.287 5.555,-36.368 4.781,-3.233 10.806,-3.841 15.89,-6.577 1.078,-11.552 -5.831,-23.048 -1.769,-34.489 2.902,-10.805 9.866,-19.704 15.476,-29.156 -4.698,-12.823 5.168,-23.518 9.23,-34.959 2.155,-6.881 10.778,-7.406 14.84,-12.629 2.054,-24.155 -1.613,-35.195 32.665,-83.736 4.56,-7.13 3.371,-16.913 9.838,-22.993 27.71,-30.021 12.257,-31.073 37.363,-88.572 0.94,-0.111 2.819,-0.276 3.759,-0.387 7.999,9.426 80.401,108.632 140.886,152.824 -1.216,11.303 -9.147,19.925 -13.928,29.791 -122.048,251.86 -112.696,196.813 -215.06,326.679 -9.12,10.501 -17.438,21.943 -21.97,35.263 -12.464,-0.276 -23.297,-7.793 -32.665,-15.31 -4.118,-23.463 -10.612,-46.649 -11.054,-70.609 -0.193,-9.838 -3.675,-19.124 -7.766,-27.912 5.279,-3.869 10.198,-8.346 13.044,-14.343 -11.241,-16.809 -27.73,-27.097 5.666,-66.517 z"
       id="path4" />
  </g>
</svg>
