<?xml version="1.0" encoding="UTF-8" standalone="no"?>
<svg
   xmlns:dc="http://purl.org/dc/elements/1.1/"
   xmlns:cc="http://creativecommons.org/ns#"
   xmlns:rdf="http://www.w3.org/1999/02/22-rdf-syntax-ns#"
   xmlns:svg="http://www.w3.org/2000/svg"
   xmlns="http://www.w3.org/2000/svg"
   xmlns:sodipodi="http://sodipodi.sourceforge.net/DTD/sodipodi-0.dtd"
   xmlns:inkscape="http://www.inkscape.org/namespaces/inkscape"
   version="1.1"
   width="619.90826"
   height="903.46326"
   viewBox="0 0 619.90826 903.46326"
   id="svg9"
   sodipodi:docname="together_dynamic_mixed13.svg"
   inkscape:version="1.0.2 (e86c870879, 2021-01-15)">
  <metadata
     id="metadata15">
    <rdf:RDF>
      <cc:Work
         rdf:about="">
        <dc:format>image/svg+xml</dc:format>
        <dc:type
           rdf:resource="http://purl.org/dc/dcmitype/StillImage" />
        <dc:title></dc:title>
      </cc:Work>
    </rdf:RDF>
  </metadata>
  <defs
     id="defs13" />
  <sodipodi:namedview
     pagecolor="#ffffff"
     bordercolor="#666666"
     borderopacity="1"
     objecttolerance="10"
     gridtolerance="10"
     guidetolerance="10"
     inkscape:pageopacity="0"
     inkscape:pageshadow="2"
     inkscape:window-width="1920"
     inkscape:window-height="997"
     id="namedview11"
     showgrid="false"
     fit-margin-top="0"
     fit-margin-left="0"
     fit-margin-right="0"
     fit-margin-bottom="0"
     inkscape:zoom="0.73258197"
     inkscape:cx="373.69376"
     inkscape:cy="460.46389"
     inkscape:window-x="0"
     inkscape:window-y="0"
     inkscape:window-maximized="1"
     inkscape:current-layer="svg9" />
  <rect
     style="fill:#ffffff;stroke-width:5.66929;stroke-linecap:square;stroke-linejoin:round;stroke-dasharray:11.3386, 11.3386"
     id="rect840"
     width="619.90826"
     height="903.46326"
     x="0"
     y="0" />
  <g
     id="layer1"
     transform="matrix(1.2890987,0,0,1.2890987,-75.625676,-285.26333)">
    <g
       id="g6">
      <g
         style="fill:#000000;fill-opacity:1;stroke-linejoin:miter"
         id="g4">
        <path
           d="m 439.59937,244.27875 c 0.38705,0.44238 0.71887,1.05065 0.71887,1.38245 0,0.33178 0.33178,0.71893 0.77416,0.88476 0.44242,0.16595 0.9954,0.99548 1.1613,1.88013 0.1659,0.88482 0.71886,1.88018 1.16125,2.26733 0.44241,0.33178 0.7742,0.88471 0.7742,1.16119 0,0.27662 0.55298,1.05072 1.21655,1.7143 0.71887,0.66357 1.65897,1.88019 2.10135,2.70965 0.44238,0.82941 2.54373,4.09204 4.70038,7.29938 5.25339,7.79718 5.80637,8.12891 14.43295,7.68653 7.96302,-0.38709 10.72794,0 10.72794,1.4931 0,0.55298 0.22118,1.21655 0.55298,1.38243 0.9401,0.60835 0.6083,1.60365 -1.106,3.48378 -0.94006,0.99542 -1.65893,2.04602 -1.65893,2.26727 0,0.22119 -1.16127,1.10595 -2.54373,1.99079 -1.38248,0.88476 -3.42854,2.43304 -4.53448,3.42852 -1.10599,0.9953 -2.15666,1.82484 -2.32256,1.82484 -0.6083,0 -2.21196,3.26257 -2.21196,4.53442 0,0.77423 0.7189,2.04608 1.65896,2.9309 2.65433,2.54371 3.31794,4.25794 2.37787,6.02758 -0.38711,0.77412 -1.10597,1.4377 -1.5484,1.4377 -0.44235,0 -0.82947,0.38714 -0.82947,0.82946 0,0.44239 -0.33178,0.82954 -0.77416,0.82954 -0.82947,0 -0.60828,2.5437 0.27649,3.0966 0.66357,0.38722 0.60827,3.92628 -0.0553,4.36872 -0.33179,0.16584 -0.55298,2.32245 -0.55298,4.70038 0,2.3778 0.22119,4.5345 0.55298,4.70032 0.27649,0.16588 0.55297,1.05072 0.55297,1.93555 0,1.82483 -3.2626,5.52973 -4.86627,5.52973 -0.55297,0 -1.43777,0.3319 -2.04605,0.77422 -0.60828,0.38708 -2.48843,1.32715 -4.1474,1.99072 -1.65893,0.71894 -3.53912,1.82496 -4.14738,2.43316 -1.5484,1.54835 -2.59905,3.7604 -2.04607,4.1474 0.27652,0.1659 0.9401,1.32716 1.43777,2.54377 0.553,1.21656 1.21656,2.59906 1.43778,3.09673 0.27649,0.4977 0.33179,1.49306 0.1659,2.15663 -0.22123,0.94007 0.33178,1.88025 2.65432,4.2027 1.60367,1.65899 3.37323,2.9862 3.8709,2.9862 0.4977,0 1.21657,0.38703 1.60368,0.82941 0.38709,0.44246 0.99536,0.82946 1.38245,0.82946 0.33177,0 1.38247,0.6083 2.26724,1.38246 0.8848,0.77424 2.54373,1.54846 3.64973,1.71429 1.16127,0.22113 2.37783,0.71887 2.7096,1.10602 0.3318,0.44233 1.05067,0.77417 1.5484,0.77417 0.49767,0 1.38246,0.38702 1.93544,0.82946 0.60831,0.4424 1.54836,0.8294 2.10136,0.8294 0.55297,0 0.99535,0.27662 0.99535,0.6083 0,0.27654 0.8295,0.8848 1.82489,1.32714 0.99536,0.3872 2.26721,1.27196 2.82019,1.88026 0.60827,0.66356 1.4931,1.1613 1.99077,1.1613 0.553,0 1.27187,0.38703 1.65895,0.8294 0.38709,0.44245 0.99535,0.82948 1.32718,0.82948 1.82487,0.0553 2.26724,1.10602 2.65433,7.02302 0.16589,3.26262 0.66357,7.5205 1.05066,9.45604 0.55298,2.76483 0.55298,3.98146 0,6.35932 -0.38709,1.54834 -0.88477,5.86164 -1.16126,9.51134 -0.22119,3.64973 -0.60828,7.1889 -0.82946,7.90766 -0.3318,0.94007 -0.0553,1.6037 0.88476,2.65436 1.27184,1.38251 1.32714,1.76958 1.49304,11.44678 0.1659,6.24884 0.44238,10.34094 0.82947,10.78326 0.49771,0.60828 0.88483,5.6405 0.94013,11.94452 0,0.55298 1.38244,2.32252 3.04138,3.92622 1.65899,1.6037 3.04144,3.31786 3.04144,3.7603 0,0.44245 0.38708,1.10602 0.8295,1.49305 0.44235,0.38715 0.82946,1.10595 0.82946,1.65899 0,0.55298 0.33182,1.27186 0.77417,1.60358 0.44242,0.38721 0.9401,1.5484 1.16129,2.70965 0.22119,1.10603 0.66356,2.37793 0.99536,2.82026 0.3871,0.44232 0.7189,3.26263 0.77417,6.85711 0.11063,4.92146 0.38709,6.63581 1.32721,8.62659 1.82482,3.87085 2.70959,8.01819 2.70959,12.44214 v 4.0368 l 3.98151,3.81555 c 4.42392,4.25806 3.92622,2.82032 5.47452,15.31778 0.55307,4.70035 0.4978,5.6958 -0.2764,7.74173 -0.4977,1.32717 -0.8848,3.09681 -0.8848,3.98151 0,2.15666 -2.3226,5.41931 -5.52987,7.74186 -2.37783,1.71426 -3.04143,1.9355 -6.13815,1.9355 -6.02756,0 -9.1243,0.6083 -10.72794,1.99073 -0.88477,0.71893 -1.60364,1.32717 -1.71426,1.32717 -0.0553,0 -1.43778,-0.60824 -3.09671,-1.38247 -3.48383,-1.60373 -4.92157,-1.71429 -6.13819,-0.44243 -0.71888,0.82946 -0.94006,3.2626 -1.21655,13.71404 -0.38709,14.15649 -0.94006,22.06416 -2.48843,34.22986 -0.88477,6.63586 -1.32718,8.4607 -2.15665,9.29016 -0.60828,0.55304 -1.38245,0.99544 -1.71425,0.99544 -0.33177,0 -0.99538,0.2212 -1.5484,0.49766 -0.49767,0.27649 -1.38243,0.66358 -1.8801,0.82944 -1.1613,0.3318 -1.65898,2.212 -3.48384,13.327 -2.48843,15.04125 -7.18881,33.1239 -13.43756,51.4277 -1.32718,3.92624 -1.49307,5.1428 -1.38245,10.5068 0.11057,3.31794 0.44235,7.74176 0.77417,9.7878 0.33178,1.99077 0.82948,6.96764 1.05066,11.05974 0.71892,10.34086 1.49308,17.03206 2.15665,18.85681 0.44237,1.05075 0.44237,3.1521 0.0553,6.80182 -0.33179,2.93078 -0.44238,5.47449 -0.27649,5.69573 0.33179,0.6083 1.16126,9.2902 2.76492,29.64 2.70964,33.4004 3.59442,46.61684 4.3133,61.4368 0.71887,14.59887 0.7742,14.98595 2.15664,16.8661 1.9355,2.59904 6.19345,10.6726 7.57593,14.32237 0.6636,1.65893 1.16127,3.92613 1.16127,5.03216 0,2.59907 1.21657,4.0921 6.19344,7.74177 2.21194,1.60375 5.91699,4.58984 8.1842,6.58056 2.26724,2.04604 5.64044,4.70038 7.46533,5.91699 5.03217,3.37315 6.6358,5.0874 7.96298,8.73718 3.09671,8.18421 2.15665,10.50672 -4.75567,11.94447 -6.24875,1.32714 -21.28998,1.05065 -25.65858,-0.4977 -1.65896,-0.60826 -4.1474,-1.27184 -5.52984,-1.493 -2.87556,-0.4977 -19.02273,-6.9677 -21.95358,-8.7925 -2.32254,-1.49305 -4.36858,-3.6497 -13.49286,-14.3777 -1.21655,-1.43774 -1.71422,-1.60363 -4.1474,-1.54834 -3.09672,0.1106 -3.81558,-0.27646 -12.3869,-7.07826 l -4.47919,-3.59434 0.44241,-20.46051 c 0.49769,-23.99965 0.33179,-47.94391 -0.38711,-52.25721 -0.27649,-1.65899 -0.88477,-4.64508 -1.32718,-6.6358 -1.93542,-8.84778 -2.37781,-11.00444 -2.98611,-14.1012 -0.38709,-1.82484 -0.99537,-5.19804 -1.43774,-7.46524 -0.44242,-2.2673 -1.106,-8.4054 -1.43778,-13.54824 -0.71887,-12.33161 -0.60832,-11.88916 -3.5391,-11.88916 -1.5484,0 -2.48846,-0.2765 -2.65435,-0.77424 -0.49767,-1.32716 -7.68653,-1.10589 -9.29017,0.22124 -0.7189,0.6083 -2.04605,1.65895 -2.87554,2.3225 -0.88476,0.7189 -2.10132,1.76956 -2.76493,2.37783 -0.66357,0.66367 -1.65893,1.32721 -2.21193,1.54841 -0.4977,0.16583 -0.94008,0.60826 -0.94008,0.94006 0,0.2765 -0.38712,0.553 -0.82946,0.553 -0.49771,0 -0.9954,0.38706 -1.16129,0.8295 -0.22119,0.4423 -0.60827,0.8294 -0.88479,0.8294 -0.33178,0 -1.16126,0.60835 -1.88013,1.3825 -0.7189,0.7742 -1.49307,1.38247 -1.76955,1.38247 -0.2765,0 -0.9954,0.60827 -1.54838,1.38253 -0.55298,0.77414 -1.38245,1.3824 -1.76957,1.3824 -0.38708,0 -0.82945,0.3871 -0.99535,0.8295 -0.2212,0.4424 -0.7189,0.8295 -1.106,0.8295 -0.44238,0 -0.94006,0.38704 -1.10595,0.8294 -0.22119,0.44247 -0.55298,0.82955 -0.8295,0.82955 -0.60831,0 -1.32715,0.55298 -3.87091,2.93085 -0.88474,0.82947 -1.76954,1.49304 -1.93544,1.49304 -0.16588,0 -0.60826,0.33176 -0.99538,0.66356 -0.44242,0.3871 -1.32715,1.106 -1.99075,1.5484 -0.7189,0.44234 -1.54831,1.1612 -1.88013,1.5483 -0.33178,0.38714 -2.48846,2.65435 -4.811,5.0875 l -4.20267,4.36855 -0.38711,4.42395 c -0.22116,2.7096 -0.11063,5.41925 0.27648,7.07825 0.33179,1.43775 0.66358,4.92151 0.71891,7.63125 0,4.2579 -0.16593,5.25327 -1.16129,6.96756 -2.04602,3.26264 -4.70036,3.98151 -9.29016,2.43311 -2.43314,-0.82947 -7.46533,-5.08747 -7.46533,-6.30402 0,-0.33178 -0.33179,-0.60825 -0.7189,-0.60825 -0.44237,0 -1.10597,-0.60836 -1.49302,-1.3825 -0.38708,-0.77414 -0.94009,-1.3824 -1.21661,-1.3824 -0.22116,0 -0.44234,-0.27657 -0.44234,-0.55306 0,-0.33178 -0.60832,-1.21664 -1.3825,-1.99078 -0.7742,-0.77416 -1.38246,-1.65896 -1.38246,-2.04602 0,-0.38709 -0.49769,-1.10594 -1.10599,-1.65894 -0.60828,-0.4977 -1.10593,-1.3272 -1.10593,-1.7695 0,-0.4425 -0.27652,-0.82956 -0.55304,-0.82956 -0.33178,0 -0.55295,-0.27654 -0.55295,-0.60834 0,-0.3318 -0.33181,-0.94006 -0.77423,-1.38244 -0.44232,-0.44232 -0.99536,-2.15662 -1.21652,-3.87086 -0.38712,-3.4838 0.11062,-11.7786 0.94006,-13.87993 0.66358,-1.76957 0.60828,-5.41931 -0.11059,-10.28557 -0.82947,-5.41927 -1.38245,-6.47 -3.4838,-6.47 -2.76498,0 -4.58978,-3.48375 -5.36398,-10.009 -1.10597,-9.73256 -1.21655,-11.3915 -0.55297,-11.7786 0.33178,-0.2212 0.60827,-1.6037 0.60827,-3.152 0,-1.8802 0.44238,-3.59444 1.4378,-5.4193 1.54831,-2.9861 2.10129,-3.3732 4.97687,-3.3732 1.05063,0 1.88013,-0.2212 1.88013,-0.4977 0,-0.27653 0.55295,-0.71886 1.21655,-0.9401 0.66358,-0.16584 1.76956,-0.9401 2.48846,-1.65894 0.77417,-0.77416 1.99076,-1.32721 2.93082,-1.32721 0.82947,0 1.65897,-0.27645 1.7696,-0.55295 0.11053,-0.33176 1.99075,-0.7189 4.20266,-0.94004 2.15664,-0.16596 3.98151,-0.55306 3.98151,-0.77423 0,-0.27649 0.88473,-0.49763 1.93543,-0.49763 1.05068,0 1.93542,-0.22124 1.93542,-0.553 0,-0.2765 0.60833,-0.66366 1.3825,-0.8848 0.7742,-0.1659 1.38248,-0.55297 1.38248,-0.7742 0,-0.2765 0.71887,-0.6083 1.65894,-0.8294 0.88476,-0.2213 1.65896,-0.6083 1.65896,-0.88486 0,-0.27648 0.49768,-0.49768 1.0507,-0.49768 0.55294,0 1.16122,-0.38706 1.38247,-0.82946 0.16586,-0.4424 0.77413,-0.8295 1.38243,-0.8295 0.55302,0 1.16127,-0.3871 1.38246,-0.82944 0.16594,-0.44236 0.60831,-0.82953 0.99536,-0.82953 0.38712,0 1.21665,-0.60827 1.76958,-1.38243 0.55296,-0.7742 1.21654,-1.3825 1.4378,-1.3825 0.22118,0 1.4377,-0.9401 2.65435,-2.04604 1.21652,-1.16126 2.98611,-2.7096 3.92618,-3.48383 0.94007,-0.77417 2.15661,-1.82483 2.65432,-2.37783 0.55298,-0.49766 1.27185,-0.94004 1.65897,-0.94004 0.38711,0 1.27185,-0.55296 1.99075,-1.27186 1.93543,-1.7696 3.87088,-3.1521 4.42386,-3.1521 0.27652,0 0.99539,-0.60827 1.60367,-1.38244 0.60828,-0.77416 1.32718,-1.38236 1.60367,-1.38236 0.33178,0 0.94006,-0.33187 1.32715,-0.71895 1.82486,-1.60365 2.48846,-2.04609 2.98614,-2.04609 0.27649,0 0.60828,-0.38706 0.82947,-0.82946 0.16589,-0.4424 0.66357,-0.8295 1.10599,-0.8295 0.38708,0 0.88476,-0.38706 1.10598,-0.82944 0.1659,-0.44236 0.60825,-0.82946 0.99536,-0.82946 0.38709,0 1.21656,-0.6083 1.76954,-1.3825 0.553,-0.7742 1.3825,-1.38246 1.76956,-1.38246 0.44241,0 0.7742,-0.33184 0.7742,-0.71887 0,-0.38707 0.71887,-1.27191 1.65896,-2.04602 1.32715,-1.10605 1.65898,-1.82489 1.65898,-3.59445 0,-2.21195 -1.3272,-8.95835 -2.21198,-11.0597 -0.27649,-0.6083 -0.99537,-3.59445 -1.65897,-6.63583 -0.60825,-3.04147 -1.38245,-6.41467 -1.65895,-7.46537 -1.49306,-5.4193 -3.4838,-15.1518 -4.42388,-21.01345 -1.21658,-7.96301 -1.71426,-9.56665 -3.48382,-11.44685 -0.94006,-0.99535 -2.04605,-1.8248 -2.37784,-1.8248 -0.38708,0 -0.77416,-0.3871 -0.99539,-0.82955 -0.16589,-0.44235 -0.55297,-0.82945 -0.88477,-0.82945 -0.33178,0 -1.27188,-0.6083 -2.10135,-1.38246 -0.82945,-0.77417 -1.76953,-1.38244 -2.15665,-1.38244 -0.33178,0 -1.43774,-0.7189 -2.43313,-1.60365 -0.99539,-0.94015 -2.54373,-1.93548 -3.4285,-2.32255 -0.88479,-0.3871 -2.21197,-1.21657 -2.93087,-1.88014 -0.71884,-0.66366 -2.21192,-1.659 -3.37317,-2.26726 -1.16129,-0.553 -2.37783,-1.3272 -2.65436,-1.659 -0.8848,-0.8848 -5.14277,-3.5391 -5.80634,-3.5391 -0.27648,0 -0.55297,-0.22117 -0.55297,-0.553 0,-0.27644 -1.27189,-1.76955 -2.76496,-3.2626 -1.54834,-1.5484 -2.76495,-2.82024 -2.76495,-2.93084 0,-0.11059 0.38711,-1.43776 0.88483,-2.93086 0.44235,-1.54826 1.21655,-5.03215 1.65896,-7.74174 1.65896,-10.67266 1.93543,-11.94452 5.25336,-26.26691 0.88473,-3.81555 1.88013,-7.90771 2.1566,-9.12425 0.3318,-1.2165 0.60832,-3.81557 0.6636,-5.751 l 0.1659,-3.5392 -4.70037,-2.76493 c -23.889,-13.99054 -25.54797,-15.20709 -29.91659,-21.677 -0.99536,-1.5484 -2.10132,-3.04145 -2.48837,-3.31794 -1.16132,-0.99543 -2.32254,-3.81561 -3.15207,-7.74183 -0.49765,-2.1566 -1.32718,-5.91692 -1.82486,-8.46068 -0.55301,-2.4884 -1.21659,-4.53449 -1.49308,-4.53449 -0.49768,0 0.0553,5.64045 0.77424,7.63123 0.27645,0.66357 0.33178,3.15204 0.16583,5.52984 -0.44238,5.14277 -1.71423,7.2441 -5.47453,8.7372 l -2.54375,1.05065 0.22122,3.59442 c 0.1106,1.99078 0.66357,4.81103 1.21655,6.35937 3.59438,9.84321 4.47918,13.93526 5.86168,27.09636 1.05062,10.2302 0.66356,17.8614 -1.4931,26.8198 -0.4424,1.99077 -1.43776,6.0828 -2.15663,9.12425 -0.7189,3.04145 -1.82487,8.01831 -2.48844,11.05975 -1.27185,5.80634 -4.0368,14.9859 -5.30865,17.52967 -0.44244,0.77417 -0.77423,1.82483 -0.77423,2.32257 0,0.49766 -0.22115,1.32716 -0.49765,1.88012 -0.3318,0.49768 -1.38248,3.64964 -2.48847,7.02289 -1.05066,3.31795 -3.2626,9.7879 -4.97686,14.37769 -1.71424,4.53446 -3.09671,8.62656 -3.09671,9.01366 0,0.4424 -0.38709,1.65895 -0.8848,2.70967 -0.82944,1.71423 -0.88476,3.87093 -0.55298,20.51583 0.22119,10.2302 0.49772,20.018 0.66362,21.677 0.22115,2.8755 1.05068,13.7694 1.65892,23.5019 0.16593,2.43313 0.60828,4.7557 0.94008,5.1428 0.3871,0.4977 0.3871,0.88476 0.0553,1.106 -0.33177,0.22114 -0.99538,1.2165 -1.49306,2.2672 -1.16124,2.3225 -1.32714,9.95375 -0.27652,11.0045 0.55301,0.5529 0.55301,0.8294 0.0553,1.1059 -0.7189,0.4424 -0.55298,1.9907 1.49305,13.1058 0.6636,3.6497 1.43777,8.12885 1.65896,9.95374 0.77417,5.19806 2.21197,14.43292 3.09671,19.90756 0.7742,4.9768 1.82489,13.4928 2.98611,23.7783 0.33182,3.0415 0.7189,5.917 0.8848,6.35937 0.16589,0.44243 0.6636,2.87553 1.10596,5.36403 2.04608,12.05504 2.43316,13.87987 3.20733,16.20244 1.10596,3.31793 2.21198,6.24871 2.59906,6.91226 2.26724,3.5945 5.47455,10.45157 5.69574,12.1658 1.05069,6.58057 1.71427,8.9031 2.76493,9.73254 0.99536,0.82946 1.1613,1.82486 1.4931,8.57129 0.49765,10.00904 1.16122,13.32703 4.20266,22.34067 1.71427,5.14273 3.04144,7.7418 5.69578,11.3362 1.10601,1.49305 2.48843,3.92616 2.98614,5.36397 0.49768,1.43783 1.54832,3.42853 2.26722,4.42388 0.7742,0.99535 1.76958,2.37785 2.26723,3.09668 2.59907,3.53917 0.22127,8.51597 -5.25335,11.11512 -2.59903,1.21655 -3.87088,1.43775 -8.07361,1.43775 -5.75104,0 -11.50211,-1.10597 -13.65875,-2.59907 -0.8295,-0.55298 -2.82025,-1.6037 -4.42389,-2.32257 -3.04145,-1.38246 -9.29016,-7.24406 -9.29016,-8.79246 0,-0.4424 -0.66357,-2.7649 -1.43781,-5.1428 -0.77416,-2.3778 -1.71423,-5.4745 -2.10132,-6.857 -2.70962,-9.23484 -4.9769,-16.0366 -5.97226,-17.69553 -0.60828,-1.05067 -1.76953,-3.04147 -2.54376,-4.42397 -0.71884,-1.3824 -1.65892,-2.8755 -2.04602,-3.31785 -1.65894,-2.10135 -2.48843,-5.03225 -2.48843,-8.95835 0,-5.30874 1.10595,-9.5114 4.1474,-15.70486 1.38243,-2.82024 2.48843,-5.58521 2.48843,-6.24878 0,-3.53906 -2.87555,-11.94446 -7.6312,-22.28526 -0.9954,-2.0461 -2.37786,-5.30874 -3.15203,-7.18886 -0.82947,-1.93549 -1.82487,-4.25804 -2.26727,-5.25344 -0.44236,-0.94004 -0.77418,-2.046 -0.77418,-2.4884 0,-0.44237 -0.22119,-0.99535 -0.49768,-1.32713 -0.22116,-0.27647 -0.88474,-1.76953 -1.43774,-3.26264 -0.553,-1.5484 -1.2719,-3.53913 -1.65897,-4.42389 -2.04605,-4.70037 -7.35473,-19.0227 -7.63119,-20.46051 -1.99076,-10.50673 -3.20734,-17.25317 -3.76032,-20.46053 -0.33178,-2.1566 -0.7742,-10.3961 -0.88476,-18.3038 l -0.27656,-14.4882 -1.65893,-0.3318 c -0.94006,-0.1659 -2.4884,-0.3318 -3.48379,-0.3318 -1.05066,0 -1.93546,-0.2212 -2.04605,-0.553 -0.11063,-0.2765 -0.99537,-0.60826 -1.99076,-0.66356 -1.65897,-0.16594 -1.93542,0.0553 -3.3179,2.599 -0.8295,1.49306 -1.65897,2.87556 -1.88019,3.04146 -0.22119,0.2212 -2.599,3.81554 -5.19808,8.0183 -2.65433,4.258 -4.97687,7.8524 -5.25336,7.9077 -0.27646,0.11055 -0.49768,0.553 -0.49768,0.9401 0,0.44236 -0.33179,1.10593 -0.71891,1.493 -0.33178,0.3871 -1.16125,1.65895 -1.76953,2.765 -0.60827,1.1612 -1.27185,2.10135 -1.49307,2.10135 -0.27646,0 -0.44235,0.33179 -0.44235,0.77411 0,0.38708 -0.60834,1.38244 -1.38248,2.21197 -0.77417,0.82947 -1.38248,1.88013 -1.38248,2.32257 0,0.387 -0.22119,0.7741 -0.44238,0.7741 -0.27649,0 -0.94006,0.94014 -1.5484,2.0461 -0.55292,1.1613 -1.38245,2.43316 -1.76953,2.82025 -0.33179,0.38708 -0.66358,1.10595 -0.66358,1.54835 0,0.4424 -0.27649,0.7742 -0.55297,0.7742 -0.33185,0 -0.55298,0.3318 -0.55298,0.7742 0,0.4423 -0.33179,1.16124 -0.71888,1.5483 -0.33184,0.3871 -0.99542,1.3825 -1.4378,2.2673 -0.44238,0.82947 -0.99536,1.49304 -1.27185,1.49304 -0.22119,0 -0.44238,0.33176 -0.44238,0.77416 0,0.4424 -0.33179,1.16127 -0.71894,1.54835 -0.66357,0.71885 -1.27185,1.93545 -3.64965,7.07825 -1.71424,3.7603 -2.93085,10.1749 -2.26728,11.94446 0.38715,0.94004 0.38715,2.10144 0.0553,3.31799 -0.60828,2.15662 0.16595,12.38685 1.05066,13.99045 0.27655,0.6083 0.55304,1.49313 0.55304,1.9355 0,0.44246 0.99536,2.3779 2.15661,4.2027 5.30866,8.2395 6.19349,17.5297 1.93543,20.62635 -3.70496,2.70975 -22.06415,-0.55295 -23.17011,-4.14735 -0.22119,-0.49767 -0.88476,-1.4377 -1.60363,-1.9355 -0.88477,-0.7188 -1.6037,-2.4331 -2.43317,-5.6957 -0.66357,-2.599 -1.21655,-5.2534 -1.21655,-5.917 0,-0.6636 -0.38709,-1.27185 -0.94007,-1.38245 -0.88476,-0.16589 -0.99542,-1.05065 -0.99542,-8.1842 0,-7.85245 -0.60827,-11.72325 -2.15661,-14.10105 -0.38709,-0.6083 -1.38245,-2.9309 -2.26722,-5.19815 -1.5484,-4.0921 -1.5484,-4.0921 -0.60828,-7.02289 0.49769,-1.65899 1.16126,-2.98616 1.43775,-2.98616 0.27649,0 1.05066,-0.99534 1.71423,-2.2119 0.71888,-1.2166 1.43775,-2.21203 1.659,-2.21203 0.22113,0 0.55292,-0.60827 0.71882,-1.38247 0.27654,-0.99534 0.82952,-1.493 1.99078,-1.7695 0.94012,-0.1659 1.65893,-0.4977 1.65893,-0.7742 0,-0.27647 0.38715,-0.49766 0.88483,-0.49766 0.99536,0 2.4331,-1.27194 2.4331,-2.15668 0,-0.33176 0.2212,-0.60826 0.49768,-0.60826 0.2212,0 0.99537,-1.93544 1.7143,-4.258 0.71887,-2.3778 1.43774,-4.7004 1.65893,-5.14277 0.2212,-0.44243 0.82947,-2.21193 1.27185,-3.87093 0.49769,-1.6589 1.27192,-4.3133 1.7143,-5.8064 0.94006,-2.93076 1.65894,-6.2487 2.54376,-11.61265 1.60364,-9.45605 5.198,-22.39595 6.19342,-22.39595 0.22119,0 0.44239,-0.33177 0.44239,-0.77415 0,-0.44245 0.33178,-1.16132 0.77416,-1.54835 0.38709,-0.44244 0.94007,-1.3825 1.16126,-2.1014 0.22125,-0.7189 0.60828,-1.5483 0.88483,-1.8801 1.93542,-2.43316 4.36853,-5.9723 4.36853,-6.3594 0,-0.27646 0.22125,-0.60825 0.44244,-0.71885 0.22119,-0.11065 0.99536,-1.10601 1.71423,-2.26725 0.66358,-1.106 1.49305,-2.04604 1.7696,-2.04604 0.27648,0 0.49768,-0.38716 0.49768,-0.82946 0,-0.4424 0.71887,-1.5484 1.60363,-2.4332 1.49305,-1.4931 1.60364,-2.046 2.21198,-8.73716 0.33179,-3.87091 1.05066,-9.56664 1.49304,-12.60809 0.44238,-3.04145 0.99539,-10.17495 1.10596,-15.81535 l 0.33179,-10.2303 -1.65894,-3.5944 c -0.94006,-1.9355 -2.82025,-6.41464 -4.258,-9.89846 -1.38244,-3.48384 -3.15203,-7.68654 -3.9262,-9.29024 -0.77417,-1.54826 -1.60364,-3.92613 -1.88013,-5.25334 -0.82947,-3.70502 -3.64972,-13.76936 -4.31329,-15.48356 -0.38715,-0.8848 -0.66358,-1.8249 -0.66358,-2.1014 0,-0.7742 -1.65899,-6.1381 -2.21197,-7.1888 -0.27649,-0.4977 -0.66358,-1.8249 -0.82947,-2.93083 -0.22125,-1.10597 -0.66358,-2.15662 -0.94006,-2.32251 -0.27656,-0.16596 -2.43317,0.33179 -4.81098,1.16124 -4.25806,1.49306 -4.36865,1.49306 -7.85242,0.6636 -5.80639,-1.43776 -7.85247,-1.65895 -8.95843,-0.8295 -0.82947,0.6083 -0.88477,0.9954 -0.44233,2.2673 0.77418,1.9354 0.77418,5.52984 0.11054,6.1934 -0.66357,0.6636 -1.76953,6.5805 -2.10132,11.33626 l -0.22119,3.59434 12.16571,9.2902 c 6.9123,5.25333 12.05506,9.5666 11.94452,9.9538 -0.16589,0.33176 -4.75574,15.98124 -10.23028,34.6722 -17.41907,59.059 -15.53894,53.1972 -16.81079,52.86543 C 169.24429,698.6123 92.48978,662.2258 92.047394,661.8387 91.8815,661.6728 112.34201,570.70654 112.5632,570.43005 c 0.1106,-0.0553 7.74182,2.04605 17.03198,4.75565 l 16.81073,4.86636 0.1659,-3.09676 c 0.11066,-1.9907 0.44244,-3.2626 0.99542,-3.5391 0.44238,-0.2212 0.77417,-1.05066 0.77417,-1.76953 0,-0.71894 0.27649,-1.38251 0.60827,-1.49311 0.2765,-0.11059 0.71894,-1.32716 0.88483,-2.65436 0.1659,-1.38244 0.66358,-2.7096 1.0506,-2.9308 0.44245,-0.2212 0.77423,-0.88475 0.77423,-1.3825 0,-0.4976 0.38709,-1.43773 0.82947,-1.9907 0.44238,-0.6083 0.82947,-1.659 0.82947,-2.3226 0,-0.66355 0.38708,-1.9354 0.82953,-2.7649 0.44238,-0.8848 0.82947,-2.15665 0.82947,-2.8202 0,-0.6636 0.22113,-1.3272 0.49768,-1.49307 0.22119,-0.16589 0.60827,-1.93543 0.71887,-3.92623 0.22119,-2.21195 0.66357,-4.0368 1.21655,-4.64506 0.49768,-0.55297 0.88483,-1.32714 0.88483,-1.76959 0,-0.44238 0.38702,-1.27179 0.82947,-1.82485 0.44238,-0.60825 0.82946,-1.76957 0.82946,-2.5437 0,-0.7742 0.22119,-1.659 0.49768,-1.99076 0.27649,-0.27649 0.60828,-6.13804 0.71888,-12.99518 0.11059,-8.2395 0.38708,-12.77406 0.77417,-13.27166 0.38708,-0.44233 0.71887,-3.64973 0.88476,-7.5207 0.11065,-3.6496 0.49768,-7.02283 0.82947,-7.46527 0.33178,-0.38708 0.77423,-2.04596 0.99542,-3.59436 0.22119,-1.60364 0.55298,-3.04144 0.82947,-3.20734 0.22119,-0.16589 0.60828,-1.60369 0.82947,-3.31787 0.16589,-1.65906 0.55298,-3.1521 0.82946,-3.31793 0.22126,-0.11066 0.60834,-1.60376 0.77424,-3.26263 0.22112,-1.659 0.77417,-3.31787 1.21655,-3.70508 0.44238,-0.33172 0.77417,-1.43768 0.77417,-2.48842 0,-0.99535 0.22119,-1.9354 0.49768,-2.10136 0.27649,-0.16584 0.66363,-1.27184 0.88476,-2.37774 0.2212,-1.16133 0.55304,-2.37788 0.82947,-2.65437 0.94013,-1.21655 4.97693,-17.52973 4.97693,-20.12873 0,-1.49303 0.22119,-2.82018 0.55298,-2.93084 0.99536,-0.33179 2.82025,-8.95836 3.87091,-18.69086 0.60827,-5.30865 1.10596,-9.9538 1.10596,-10.23034 0,-0.33166 -1.49305,-2.599 -3.37323,-4.97676 -4.58979,-6.02758 -4.64508,-6.13823 -3.42853,-7.90776 0.55304,-0.82947 1.27191,-2.04604 1.659,-2.7649 1.05065,-1.93542 9.62194,-12.16577 12.82928,-15.31774 1.54834,-1.4931 2.82025,-3.15204 2.82025,-3.6498 0,-0.49767 0.38703,-1.21654 0.82947,-1.60356 0.44238,-0.38721 0.82947,-1.10602 0.82947,-1.6037 0.0553,-1.32721 3.20727,-4.1474 6.63586,-5.91699 1.65894,-0.82947 5.03211,-2.7096 7.46527,-4.1474 5.36396,-3.15198 14.76474,-6.24865 27.37284,-8.95832 5.03219,-1.10603 9.62197,-2.04608 10.23025,-2.15667 0.94006,-0.16596 1.05069,-0.55298 0.88477,-3.20728 -0.11057,-1.88013 -0.49769,-3.42858 -1.05069,-4.09216 -0.71884,-0.77417 -0.77414,-1.1059 -0.27646,-1.27185 0.38706,-0.16597 0.71884,-0.77417 0.71884,-1.43781 0,-1.71416 0.49774,-2.26721 3.59445,-4.0921 1.71424,-0.9953 3.15201,-2.32246 3.70499,-3.48376 0.99536,-1.9908 1.32715,-5.8617 0.55298,-6.96766 -0.55298,-0.88482 -7.24411,-3.87084 -9.62195,-4.31329 -1.10596,-0.16583 -2.59903,-0.94005 -3.31793,-1.60365 -1.21659,-1.106 -1.43775,-1.9907 -1.76953,-6.24877 -0.55301,-6.5252 -0.55301,-9.34539 -0.0553,-10.56207 0.22119,-0.55292 0.49768,-1.38246 0.60824,-1.88013 0.27652,-1.27185 2.76499,-5.58513 4.09214,-7.02283 0.60827,-0.66357 0.99539,-1.2166 0.77417,-1.2166 -0.22123,0 0.11059,-0.55305 0.77416,-1.27186 0.60831,-0.66357 1.106,-1.49304 1.106,-1.76959 0,-0.33179 0.4977,-0.77423 1.16128,-1.10595 0.60827,-0.27656 1.16125,-0.71888 1.16125,-0.99543 0,-0.22119 0.55298,-0.9953 1.27188,-1.65887 0.71888,-0.66358 1.49305,-1.60376 1.71427,-2.0461 1.76953,-3.7603 4.20267,-7.41002 5.36398,-8.0183 0.71884,-0.38708 2.43311,-1.21655 3.81554,-1.88012 1.3825,-0.66358 4.09215,-2.21198 5.97227,-3.42853 3.53913,-2.21205 3.53913,-2.21205 11.6127,-2.76495 7.63123,-0.55298 12.77405,-0.44233 17.19791,0.38708 1.88016,0.38709 10.56204,5.58514 12.22098,7.35474 2.21197,2.32258 5.19809,6.41468 6.41464,8.68182 1.16132,2.15668 1.32715,3.2074 1.32715,8.40552 0,3.26257 -0.38705,7.79706 -0.82945,10.11957 -0.60823,3.31793 -0.66356,5.30865 -0.22118,9.12432 0.77418,6.91225 -0.0553,15.76008 -1.88016,19.96271 -0.77416,1.76959 -1.54834,3.92634 -1.71429,4.75574 -0.22117,0.82947 -1.16123,3.20727 -2.10132,5.25336 -1.43775,3.04144 -1.76955,4.58978 -1.99075,8.68188 -0.1106,3.04144 0.0553,6.24872 0.553,8.2948 0.77415,3.48389 0.27646,8.57129 -0.8295,8.57129 -0.77416,0 1.82487,2.76495 3.20734,3.37323 1.54834,0.77424 3.37323,1.82484 4.20266,2.5437 0.44242,0.33191 2.87556,1.43781 5.47462,2.48847 4.64508,1.88012 11.22562,6.08282 11.88918,7.57592 0.16587,0.44232 0.0553,0.94007 -0.27648,1.1612 -0.38708,0.22125 -0.38708,0.77423 -0.0553,1.71435 0.55295,1.3272 0.55295,1.3272 0.55295,0.0552 0.0553,-1.21654 1.16133,-1.82489 1.16133,-0.60828 0,0.82947 1.65895,2.10132 2.76488,2.15662 0.71887,0 0.8295,-1.88013 0.8295,-13.49286 0,-12.05499 0.1106,-13.60345 0.94006,-14.54352 0.55298,-0.60827 0.99539,-1.32715 0.99539,-1.65893 0,-0.94007 2.43317,-2.82027 4.1474,-3.20727 0.8848,-0.22126 2.15665,-0.553 2.76493,-0.82954 1.32714,-0.55298 5.25334,-2.26721 8.01831,-3.48388 4.36859,-1.93543 6.5805,-2.599 11.17029,-3.37323 3.20736,-0.55292 6.02758,-1.43769 8.57132,-2.76485 2.04605,-1.0507 5.36395,-2.32256 7.3547,-2.82018 6.63584,-1.60376 8.01832,-2.04608 12.05512,-4.0368 4.3686,-2.10138 7.74182,-4.97699 10.34082,-8.9032 0.88478,-1.32715 1.99075,-2.5437 2.48846,-2.70965 1.71426,-0.66357 2.32254,-1.71417 1.93546,-3.5943 -0.66361,-2.87555 -1.10599,-3.26257 -3.87091,-3.53913 -1.43778,-0.11064 -3.15201,-0.49768 -3.81563,-0.82954 -1.54836,-0.77416 -4.2027,-3.26262 -4.2027,-3.9815 0,-1.16125 -2.9861,-3.64965 -4.42387,-3.64965 -0.77417,0 -1.65893,-0.22125 -1.99076,-0.49775 -0.27649,-0.33178 -1.76957,-0.7188 -3.2626,-0.8847 -1.54837,-0.22125 -3.15204,-0.71893 -3.64972,-1.16125 -0.44238,-0.44251 -1.21655,-0.77417 -1.71425,-0.77417 -1.16127,0 -2.65434,-1.76958 -2.65434,-3.1521 0,-1.43768 1.16128,-4.75562 1.49307,-4.36858 0.55297,0.55297 8.40537,-7.90773 8.79247,-9.45607 0.1659,-0.8294 0.71888,-2.59906 1.1613,-3.81561 0.66357,-1.93542 0.71887,-2.5437 0.11056,-3.59442 -1.99076,-3.59436 -3.53909,-14.26703 -2.21194,-15.1518 0.27652,-0.16583 0.71888,-1.05066 0.88476,-2.04608 0.49772,-2.10125 0.60832,-2.26722 6.08289,-7.85242 2.76493,-2.8202 5.64043,-5.0874 7.68649,-6.13812 1.76956,-0.94006 4.47919,-2.32251 6.08286,-3.15204 1.54834,-0.82946 3.09674,-1.49304 3.42852,-1.54827 0.27646,0 1.05066,-0.44251 1.65894,-1.05079 1.76959,-1.60351 16.20252,-5.0321 21.23468,-5.0321 2.87552,0.0554 4.36859,0.27649 4.81101,0.82947 z M 199.49268,468.5147 c -0.49768,1.9908 -1.27185,4.97682 -1.659,6.63587 -1.99072,8.07355 -2.4884,9.95373 -3.48377,12.77393 -1.71423,4.7556 -2.93084,8.68188 -4.25799,14.04578 -1.16132,4.53454 -2.43317,9.12432 -3.31793,12.22107 -0.22119,0.66365 -0.16589,1.3272 0.11059,1.49315 0.60828,0.387 11.99982,-5.25347 16.09186,-7.90777 2.04608,-1.32721 3.48383,-2.87555 4.70044,-4.97693 4.53448,-7.85235 5.91693,-11.77856 5.91693,-16.92138 0,-3.87085 -0.11059,-4.14734 -1.38245,-4.75562 -0.77423,-0.33185 -1.38244,-0.82953 -1.38244,-1.05078 0,-0.22107 -0.55304,-1.10589 -1.27192,-1.99072 -1.54833,-1.88013 -2.65429,-4.86615 -4.25799,-11.44678 -0.66357,-2.70952 -1.71423,-6.08276 -2.37781,-7.46527 l -1.10601,-2.5437 -0.71882,4.14735 c -0.33184,2.2672 -1.10601,5.7511 -1.60369,7.7418 z"
           id="path2" />
      </g>
    </g>
  </g>
</svg>
