<?xml version="1.0" encoding="UTF-8"?>
<!DOCTYPE svg  PUBLIC '-//W3C//DTD SVG 1.1//EN'  'http://www.w3.org/Graphics/SVG/1.1/DTD/svg11.dtd'>
<svg enable-background="new 0 0 1074.6833 1968.5201" version="1.1" viewBox="0 0 1074.6833 1968.5201" xml:space="preserve" xmlns="http://www.w3.org/2000/svg">
	<path d="m856.12 1768.1c4.2246-4.8701 5.6445-10.045 5.5717-16.9-0.0751-7.0455-1.2184-14.228-0.0659-21.319 0.2921-1.7976-1.0021-3.099-1.6681-4.5665-16.798-37.019-40.11-70.199-61.628-104.43-14.851-23.628-33.83-44.141-50.315-66.516-16.376-22.227-35.672-41.79-53.932-62.307-5.0033-5.6215-11.271-9.851-17.244-14.374-19.297-14.613-29.677-33.485-29.074-58.231 0.5889-24.162 3.1238-48.185 4.2658-72.308 1.5436-32.607 3.6825-65.198 6.2635-97.74 2.5933-32.696 7.6065-65.128 12.389-97.565 0.6017-4.0809-0.3019-5.3247-4.1861-5.5278-5.3271-0.2789-10.544-1.3958-15.679-2.8831-2.0927-0.606-3.08-1.2501-2.1108-3.8126 13.185-34.859 19.365-71.569 28.286-107.56 4.3259-17.45 9.9561-34.519 15.136-51.72 3.0004-9.9626 3.8754-20.216 3.787-30.586-0.0496-5.8275-0.1006-11.665 0.9565-17.441 1.0296-5.6245-1.2106-10.854-2.1122-16.232-0.7692-4.5875-2.0021-9.0958-2.969-13.652-0.491-2.3131-1.0731-4.4307-3.3482-5.7927-3.1992-1.915-2.8906-5.4176-3.2823-8.4693-2.5399-19.788-4.7358-39.623-7.5453-59.372-3.1339-22.029-10.966-42.833-17.554-63.95-5.5019-17.635-11.267-35.176-18.037-52.378-2.4272-6.1674-5.6381-11.696-11.198-15.538-11.926-8.2433-19.668-18.957-21.304-33.818-1.366-12.409-3.6964-24.693 0.6748-37.026 2.9979-8.4583 7.6694-15.829 13.193-22.771 11.216-14.097 23.51-27.247 35.853-40.332 2.9059-3.0806 3.6724-5.7397 2.619-9.6459-2.9807-11.053-2.6011-22.036 1.1367-32.919 1.2024-3.5009 2.8566-6.7064 4.7408-9.8627 4.8265-8.0854 11.614-14.558 17.669-21.624 3.8799-4.5276 8.9602-7.3839 14.75-8.9222 6.3502-1.687 12.204-4.3727 17.305-8.593 0.7573-0.6264 1.6655-1.4669 2.5333-1.5031 10.993-0.4576 16.278-10.264 24.667-14.952 1.3158-0.7354 1.3243-1.6989 0.2126-2.7605-6.069-5.7954-13.133-9.7405-21.515-10.674-2.5605-0.2852-5.0774 1.1991-7.3243 2.7968-8.1544 5.7983-16.749 10.9-25.722 15.31-11.839 5.8194-21.335 2.4312-26.404-9.6781-1.7836-4.2612-4.2139-6.7689-8.7283-7.8691-3.6696-0.8944-5.9811-3.7665-6.1716-7.6179-0.1238-2.5056-0.6643-3.8648-3.3469-4.5065-4.3878-1.0496-6.6819-3.9649-6.6253-8.7017 0.0543-4.5431-2.2511-6.7595-6.9384-6.2075-1.1529 0.1358-2.3334 0.1301-3.4959 0.0757-7.4396-0.3478-10.64-4.2623-9.1466-11.523 1.6429-7.9885 3.2689-15.97 4.27-24.073 0.713-5.7714 0.6844-11.49-3.0665-16.244-11.261-14.271-13.979-31.366-16.493-48.564-0.1663-1.1372-0.2875-2.2833-0.5179-3.4071-0.0518-0.2532-0.4727-0.4308-1.2804-1.1143 0.4099 6.5838-3.1981 8.8827-8.8107 9.3585-2.6548 0.225-4.4157 1.9611-5.4211 4.5552-1.5781 4.0723-3.9269 7.7243-6.9164 10.908-4.076 4.3404-9.243 5.8358-15.012 5.0756-2.8221-0.3719-3.9254 0.3415-3.808 3.3257 0.1035 2.6323-0.149 5.2892-1.033 7.8716-1.5352 4.4847-3.1524 5.1875-7.1353 2.4399-2.0408-1.408-3.8726-3.1721-5.6027-4.9647-2.5203-2.6112-3.4228-1.3083-3.9622 1.4001-0.9879 4.9599 1.2805 9.0438 3.6381 13.038 0.9182 1.5555 2.2949 2.8503 3.5183 4.2139 2.9415 3.2786 4.3545 6.7088 0.862 10.45-2.3765 2.5456-0.4716 4.6116 0.5858 6.7448 11.011 22.214 23.396 43.748 32.98 66.667 0.8934 2.1366 1.8522 4.3274 2.2263 6.5849 1.2714 7.6718 3.4933 14.406 10.691 19.048 5.362 3.4576 5.079 9.8255 4.493 15.457-0.6522 6.2667-2.035 12.521-2.699 18.727-0.5403 5.05-1.2378 10.097-1.9698 15.121-1.2079 8.2888-2.8745 9.0745-10.43 5.3755-4.243 9.7689-3.0616 20.283-4.0862 30.462-1.3632 13.542-3.6558 26.961-4.9688 40.516-0.4794 4.9496 1.7393 8.9888 1.9324 13.566 0.1567 3.7131 0.9833 7.1149-0.3793 11.104-1.2569 3.6799 0.5864 8.2209 2.1803 12.052 1.838 4.4174 2.005 8.6055 0.0308 12.943-2.2348 4.9102-1.8401 9.9514-1.0575 15.154 2.2559 14.998 1.188 30.293 3.8304 45.278 0.2482 1.4072-0.2806 2.9537-0.4619 4.434-0.4973 4.0605-1.8058 7.6587 1.1655 12.02 2.4885 3.6524 2.8268 9.195-0.0027 13.767-1.1136 1.7994-0.3433 3.5684-0.1823 5.3368 0.8603 9.4489 1.8121 18.89 2.6591 28.34 0.2686 2.9965-0.0455 5.9736-0.6028 8.9467-0.5952 3.1762-0.8216 5.8181 1.798 8.9944 3.0715 3.7243 2.0366 9.0152-0.5524 13.146-1.1953 1.9072-1.531 3.3279-1.0414 5.4388 2.0861 8.9925 3.0743 17.965-0.3429 26.966-0.9807 2.5833-0.7076 5.5031-0.5814 8.3757 0.7324 16.656 0.2921 33.2-4.7946 49.349-2.6739 8.4885-1.3176 17.156 0.3052 25.696 2.8036 14.754 2.3574 29.856 4.8301 44.652 0.368 2.2018-0.402 4.6182-0.7873 6.9116-0.2046 1.2176 0.0311 2.916-1.7936 3.1356-1.6555 0.1993-2.1817-1.2391-2.8248-2.394-3.3031-5.9309-5.8354-12.305-10.779-18.627-1.0787 12.134-4.4083 23.042-3.9877 34.534 0.1391 3.8019 2.2293 9.666-1.5048 10.954-3.0088 1.0375-7.7394-2.5097-11.54-4.3624-1.7135-0.8353-3.1957-2.3216-4.5544-4.1658 0.2299 6.7314-2.0288 12.915-3.4236 19.274-0.991 4.5179-0.2099 8.9963 1.5741 13.194 1.3051 3.071 1.0081 6.0237 0.7554 9.2261-0.9968 12.636-2.5961 25.11-1.7561 38.019 0.9152 14.066 0.7678 28.535-2.5919 42.551-0.7525 3.1393-0.5431 6.2877-0.7399 9.4369-0.9114 14.582-1.3078 29.245-6.9232 43.083-0.4808 1.1848-0.5884 2.6177-0.5167 3.9158 1.2211 22.104-2.7739 43.784-5.1413 65.606-1.3428 12.378-7.1394 23.199-11.742 34.337-9.301 22.509-17.158 45.321-21.038 69.46-1.649 10.26-6.0683 19.716-11.098 28.76-9.1077 16.378-12.611 34.327-14.333 52.594-1.0533 11.171-3.8474 21.942-5.7281 32.906-2.6299 15.331-2.559 30.868-4.5685 46.22-1.6405 12.533-4.153 24.997-5.0109 37.578-1.2685 18.603-1.0063 37.308-2.1382 55.925-1.4669 24.126 2.5902 48.214 0.0166 72.316-0.4125 3.8632 1.5368 7.1886 3.1503 10.377 2.963 5.8547 3.35 11.807 1.5873 17.882-2.108 7.2665 0.1779 13.575 4.0878 19.321 4.6346 6.8108 6.6777 14.417 8.1534 22.286 0.5873 3.1315-0.8884 5.0825-4.0013 5.8461-4.4277 1.0858-8.1995 3.6151-12.238 5.5713-3.2612 1.5798-2.888 3.3492-0.4449 5.0104 2.5962 1.7657 4.373 3.811 5.2224 6.9299 0.6235 2.2892 2.814 3.8561 4.6996 4.9858 8.2549 4.9465 16.654 9.6405 24.22 15.657 0.7095 0.5641 1.8499 0.6018 2.8004 0.844 1.4505 0.3696 3.487 0.2114 4.2739 1.1324 6.1018 7.1409 16.112 5.7904 23.114 10.913 3.7362 2.7334 7.5283 6.099 12.483 5.5616 4.2283-0.4585 8.2763 0.249 12.401 0.4575 10.815 0.5469 21.646 0.9121 32.433 1.8113 11.41 0.9514 22.29 3.9066 31.812 10.655 9.8195 6.9597 12.863 17.292 8.3651 28.57-0.8447 2.1177-1.5327 3.712 0.8644 5.4767 1.1382 0.838 1.5838 2.8921 1.9272 4.485 1.2626 5.856 2.144 11.801 3.5833 17.61 0.8492 3.4277-0.0679 5.9785-2.6024 7.9681-6.0571 4.7555-12.544 8.4957-20.376 9.8811-4.0878 0.723-7.0671 4.8467-11.754 4.7484-1.618-0.0338-3.2471 0.6619-4.8777 0.9915-4.6431 0.9386-6.0574 0.3607-9.3743-4.5638 1.5251 10.206-5.9384 7.338-10.457 8.8013-6.4066 2.0746-9.745-1.7078-12.338-6.7205-0.512 0.47-0.9231 0.6646-0.9413 0.8907-0.6046 7.4893-0.5983 7.5021-8.1376 7.9983-1.9944 0.1311-4.0031 0.0779-5.9918 0.2574-2.9288 0.2646-4.7937-0.4871-5.0302-3.8789-0.0936-1.3422-0.5693-3.4376-2.3541-3.3389-2.3638 0.1306-1.4149 2.3252-1.2258 3.5651 0.6162 4.0424-0.7429 5.9398-5.0184 5.7213-1.967-0.1005-3.9721 0.3774-5.9489 0.6675-4.6539 0.6833-8.899 0.8199-8.9064-5.7358-0.0013-1.2407-0.3741-2.397-2.0331-2.0997-1.3607 0.2435-1.117 1.4004-1.2426 2.3502-0.9051 6.8462-0.9101 6.8854-7.8302 6.6843-5.0524-0.1467-10.426 0.5419-12.529-6.1238-0.4623-1.4653-2.7162-2.0974-4.7617-1.9821-3.1547 0.1779-6.3295-0.0251-9.4956-0.0193-2.097 0.0039-4.7336-0.3949-5.3472-2.0709-1.5832-4.324-4.9405-3.6282-8.0915-3.6833-5.3316-0.0931-10.674 0.1464-15.996-0.098-3.0102-0.1384-4.0592 1.141-4.6154 3.8411-2.1505 10.439-2.1821 10.718-12.842 11.724-5.2892 0.4994-10.847 2.7289-16.06-0.6525-0.2919-0.1893-0.532-0.61-1.1505-0.0389-5.5588 5.132-11.958 3.3271-18.133 1.7506-1.9556-0.4994-2.9582-0.0448-4.731 0.626-6.1627 2.3319-12.678 2.5067-18.87-0.2175-1.2629-0.5555-2.6046-1.4542-3.6614-0.8975-8.2693 4.3558-16.658 0.4469-24.963 0.4467-3.9445-1e-4 -7.9031-1.0544-11.828-1.778-2.5426-0.4688-4.918-1.318-4.9686-4.5942-0.0349-2.2551-1.4711-2.3191-3.1006-1.8577-5.184 1.4688-8.4525-0.1608-9.4349-5.6743-0.2502-1.4043-0.9734-2.6991-2.5423-2.5021-1.3646 0.1713-1.3704 1.7434-1.6043 2.796-1.5732 7.0804-1.5452 7.0869-8.8619 7.0404-1.6666-0.0106-3.3385-0.1143-4.9987-0.0172-4.2612 0.2485-7.185-0.8486-7.1537-5.9324 0.0087-1.424 0.0306-3.7944-2.3484-3.6932-2.7835 0.1187-2.3313 2.6438-2.0542 4.2174 0.9097 5.165-1.3844 6.4994-6.0513 5.8916-2.7981-0.3645-5.6656-0.4969-8.4821-0.3507-4.3339 0.2251-6.6553-1.366-6.5633-5.9446 0.0284-1.4119 0.308-3.4445-1.6804-3.6497-2.5676-0.2648-2.2393 2.1635-2.2645 3.6033-0.0858 4.8857-2.6186 5.8666-6.847 4.894-2.4274-0.5582-4.9619-0.6528-7.3866-1.2196-2.6512-0.6198-4.9865-1.6011-5.3921-4.9862-0.3083-2.5737-2.3076-3.7701-4.8401-3.998-3.483-0.3136-6.9871-0.4839-10.442-0.9906-2.5103-0.3683-5.4833-0.1892-6.3033-3.7144-0.4474-1.9235-2.3666-1.6583-3.7181-1.7834-5.3053-0.491-10.649-0.6116-15.938-1.2192-3.1684-0.3641-4.3343 1.0215-5.3289 3.7433-3.6859 10.086-3.7733 10.155-14.746 10.251-4.8748 0.043-10.003 2.0151-14.548-1.4448-0.6229-0.4742-0.9643-0.1942-1.6244 0.1857-6.5218 3.7537-12.964 2.7473-19.182-0.7831-1.0606-0.6023-1.7149-1.3689-3.0037-0.5811-5.5401 3.3867-16.393 2.8287-20.911-1.2893-1.3244-1.2074-3.1059-1.8684-3.9245-1.0472-3.0492 3.0585-6.2742 1.4071-9.3866 0.7979-9.4771-1.8553-18.836-4.1805-27.969-7.3884-3.8538-1.3536-5.389-3.6296-5.1762-7.8602 0.6947-13.812 0.9681-27.644 1.5616-41.462 0.1153-2.6851-1.013-6.2938 3.7554-6.8352 0.8471-0.0962 2.3813-2.969 2.0044-3.5856-2.4449-4.0011-0.6096-10.19-6.546-12.439-3.1987-1.2119-4.5752-3.8512-4.7065-7.4572-0.6611-18.159-0.0967-36.313-0.0072-54.469 0.0095-1.9281 0.7838-3.5526 1.6277-5.1749 13.919-26.76 22.908-55.259 29.726-84.512 0.8439-3.6215 2.2844-6.8812 4.0787-10.118 7.8937-14.239 16.863-27.947 22.009-43.572 2.5078-7.6154 3.9629-15.437 4.7504-23.423 1.5784-16.004 7.6336-30.982 10.922-46.602 5.998-28.492 16.444-55.5 28.143-82.018 3.2674-7.4055 7.9771-14.217 12.403-21.057 4.7992-7.4174 9.9807-14.656 13.356-22.817 4.6609-11.271 13.577-19.212 20.929-28.388 5.1162-6.3861 9.245-13.089 11.884-21.103 2.5152-7.6385 7.598-14.376 12.82-20.68 1.4952-1.8052 2.3287-3.4503 1.6164-5.8571-1.0653-3.5994-0.2279-6.912 2.152-9.8275 4.0255-4.9318 2.5197-11.214 3.8069-16.798 1.252-5.4314 3.0265-10.536 5.4156-15.43 4.8361-9.9059 8.3868-20.294 12.081-30.634 1.3487-3.7754 2.7115-7.6771 1.9592-11.701-2.1391-11.443 2.0214-21.909 6.2836-31.726 8.9798-20.684 12.647-42.628 17.838-64.262 4.5356-18.906 8.0541-38.133 15.629-56.195 2.5389-6.054 2.6021-12.324 2.278-18.668-0.2146-4.2007-0.3694-8.5562 1.496-12.282 5.7478-11.481 2.1599-23.229 1.4564-34.88-0.1118-1.8522-1.3326-3.7708-2.4182-5.4084-6.0541-9.1326-12.746-17.924-14.393-30.014-5.2448 3.9523-10.136 7.1221-14.412 10.975-7.3112 6.5892-16.954 6.3076-25.476 9.2748-1.677 0.5839-4.0265-0.5638-4.8067-2.0495-1.963-3.7378-3.6378-2.4304-6.3661-0.7902-6.5473 3.9362-14.204 5.4417-20.996 9.02-3.0747 1.6202-15.776-5.0467-17.157-8.3293-1.1621-2.7639-0.5738-6.1246 2.2065-11.838-3.6956 0.8919-7.3265 1.0217-9.0108-2.7182-2.0185-4.4819-0.1148-8.8483 2.8442-11.933 4.1794-4.3567 7.8118-9.0763 11.009-14.079 4.6458-7.2691 7.9131-14.827 8.471-23.983 0.9867-16.196 0.3405-32.561 3.6304-48.58 1.9619-9.5531 6.5556-17.812 13.488-24.604 2.5184-2.4672 2.8068-4.7675 2.127-7.978-5.237-24.733-15.553-47.719-24.198-71.288-9.5637-26.074-21-51.491-27.725-78.57-4.8975-19.721-7.3443-39.92-11.738-59.738-1.0436-4.7073-1.9925-9.4363-2.938-14.165-2.313-11.567 0.72-22.098 6.3368-32.095 6.4754-11.525 10.638-24.02 15.301-36.305 0.6313-1.663 1.3616-3.3819-0.9155-4.7404-4.5679-2.725-4.5125-6.921-3.2557-11.406 2.6424-9.4308 4.573-19.054 8.4029-28.155 3.5343-8.3988 4.1101-17.703 7.7788-26.15 1.3745-3.1647 2.1569-6.6008 4.2661-9.4382 1.2381-1.6656 1.9479-3.3986 1.7574-5.5424-0.5816-6.5428 1.3838-12.391 4.5519-18.085 7.5864-13.637 13.857-27.953 22.835-40.893 4.08-5.8804 5.8564-13.357 8.6972-20.101 0.6447-1.5306 1.1524-3.181 2.0936-4.515 8.2526-11.697 12.315-25.371 18.1-38.225 5.7566-12.792 11.785-25.52 21.169-36.026 10.103-11.312 21.101-21.765 36.002-26.873 3.631-1.2448 7.2102-3.0229 11.025-2.9741 10.551 0.1348 17.054-6.4878 23.262-13.497 4.6328-5.2301 8.7477-10.916 13.245-16.271 1.5029-1.7897 1.2813-2.951-0.0922-4.6829-3.5919-4.5296-3.8294-8.0702 0.0625-12.38 9.8282-10.883 16.306-23.817 23.579-36.332 3.2911-5.6635 6.5186-11.942 13.832-14.307 6.4089-2.0723 11.356-0.4062 15.802 4.1621 3.5872 3.6857 6.0679 8.3374 10.425 11.39 1.9488 1.3654 3.0296 1.4233 4.366-0.5257 1.7845-2.6027 3.4312-5.3948 5.6508-7.5848 4.96-4.8937 1.2338-9.8126 0.5079-14.742-0.7917 0.1732-1.5834 0.3465-2.8087 0.6147 1.7502-3.4054 3.2114-6.5355 4.926-9.5199 2.8212-4.9103 0.3553-10.515 2.3436-15.704 0.991-2.5867 1.157-5.9341 2.2669-8.5487 3.7598-8.857 2.7187-18.828 6.8713-27.547 5.1968-10.912 9.9933-21.908 18.844-30.74 5.1091-5.0977 8.7281-11.735 14.354-16.442 12.579-10.525 25.629-19.903 42.279-23.672 9.0537-2.0495 17.875-4.9187 27.09-6.8095 13.522-2.7745 24.438 0.6101 35.805 6.8273 8.0736 4.4158 17.015 7.2271 25.493 10.93 3.7321 1.6301 7.3412 3.5982 11.024 7.4875-6.0687-0.3215-9.7874-3.2858-14.007-6.1912 0.5704 2.4725 2.3289 3.0604 3.8062 3.9351 6.4198 3.8008 12.689 7.8353 19.665 10.66 9.6722 3.9163 14.973 12.903 21.942 19.88 2.6684 2.6718 6.3469 4.4145 7.9542 8.4875 0.7347 1.8619 1.8534 3.669 2.1978 5.7417 1.3864 8.3433 7.3565 14.733 9.5845 22.775 1.7283 6.2383 4.1736 12.242 3.6379 18.921-0.3697 4.6107-1.8815 8.9153-3.0349 13.325-0.7988 3.0544-1.5943 6.1214-2.1414 9.2268-0.6408 3.6372-1.4806 7.158-4.6191 11.332 25.046-9.2414 48.228-8.4889 70.448 6.3644 0-2.9789-0.1147-5.2178 0.0186-7.4418 0.8562-14.284 12.216-21.22 25.371-15.45 2.684 1.1771 4.9982 3.1645 7.6577-0.3546 1.2368-1.6365 3.708-1.0686 5.6757-0.5047 4.673 1.3392 8.7975 3.7057 12.534 6.782l0.1008-0.1011c-2.1604 0.9838-4.2571-0.4735-6.3997-0.1682 0.4921-0.4102 1.0972-0.8113 0.485-1.5301-0.1415-0.1661-0.7373-0.2094-0.7443-0.1875-0.219 0.6834-0.0352 1.2529 0.574 1.6633 0.3273 3.2672 3.5182 3.3214 5.4637 4.556 7.1898 4.5627 14.602 8.8384 19.365 16.198 1.8831 2.9096 3.1558 6.2142 4.7064 9.3389l0.0341-0.1155c-0.1346 4.5801 3.1268 8.3754 3.0592 12.906-0.0959 6.4238 1.4948 11.694 8.1577 14.34 1.1931 0.4737 1.9926 2.1693 2.7534 3.4333 0.6841 1.1363-0.9515 2.3609-1.0387 2.2528-2.5311-3.1355-8.3606 1.6866-9.6488-4.5239-1.1376 3.8985-0.2216 7.4465-1.0178 10.918-1.7538 7.6478-7.2745 12.479-13.197 16.272-5.8971 3.7764-6.1561 8.939-4.2374 13.709 4.7462 11.799 3.126 23.561 1.2617 35.354-1.4415 9.1192-1.3439 18.627-6.3354 28.162 0.1941-2.2229 0.2955-3.3841 0.4131-4.7299-2.5685 1.2354-2.5792 2.868-1.8092 5.211 6.2676 19.072 16.883 35.394 31.391 49.118 10.409 9.8462 20.995 19.5 30.952 29.814 5.7081 5.913 11.966 10.787 19.906 13.744 12.275 4.5715 22.279 13.174 33.148 20.223 3.0992 2.0101 6.3585 3.3795 9.8475 4.6261 20.98 7.4966 33.879 22.618 38.704 44.061 3.4669 15.41 4.7385 31.236 5.6479 47.029 0.2466 4.2826-0.7239 8.4594-3.4388 11.737-2.5917 3.1292-2.8733 6.1746-2.2935 10.035 5.8335 38.836 10.995 77.781 17.342 116.53 4.5677 27.885 9.2571 55.778 15.267 83.418 3.4357 15.8-0.0952 31.092-3.9005 46.319-8.2266 32.917-19.685 64.606-36.135 94.368-1.5411 2.7882-1.3474 5.0082-0.11 7.8824 9.3395 21.696 20.679 42.544 28.357 64.932 9.1722 26.745 17.825 53.669 26.642 80.536 1.2925 3.9385-1.865 5.6909-4.4 7.3529-6.0321 3.9546-12.738 6.4772-19.633 8.4908-10.436 3.0482-20.246 7.5466-29.897 12.496-3.1929 1.6372-3.6847 3.3522-2.6792 6.6902 3.2257 10.709 3.0791 10.753-8.26 12.987-11.163 2.199-11.077 2.1998-11.178 13.579-0.37 41.511-3.3367 82.862-7.9639 124.1-3.0061 26.791-6.1573 53.565-9.3561 80.334-3.2358 27.079 3.9698 51.769 16.943 75.162 7.0209 12.66 14.976 24.822 20.911 38.06 9.6927 21.622 14.487 44.545 17.226 67.938 2.6737 22.845 1.3871 45.488-3.6531 67.963-4.1283 18.409-4.8995 37.288-7.0593 55.962-2.6383 22.811-4.5531 45.707-6.6705 68.576-0.7633 8.2432-2.5107 16.798 2.6516 24.245 2.8064 4.049 5.9279 7.8427 8.3613 12.192 8.4866 15.168 11.165 31.597 10.604 48.653-0.1285 3.9021 0.7136 7.5515 1.1205 11.302 0.423 3.9004-0.585 6.6339-4.5138 7.6405-3.1642 0.8108-3.6965 2.8947-3.323 5.6515 1.1187 8.2556-0.4635 16.236-2.3713 24.205-0.8328 3.4784-1.5939 6.8762-1.3596 10.648 0.3833 6.171-0.8922 7.0682-7.1818 7.4874-8.965 0.5975-17.953 0.9396-26.894 1.7842-10.137 0.9576-20.069 3.1945-29.691 6.5154-13.7 4.7281-27.79 6.7484-42.211 6.6285-22.978-0.1908-45.991 0.8057-68.9-1.9091-1.3226-0.1569-2.6569-0.2565-3.9631-0.5024-5.4704-1.0299-5.7836-1.6046-3.9975-6.8298 0.2628-0.7686 0.4297-1.5833 0.5342-2.3904 1.1077-8.5511 1.0867-8.4463-7.4371-9.653-10.54-1.4922-21.252-1.8403-31.601-4.608-2.0786-0.5562-4.1147-1.3213-6.1047-2.1482-3.865-1.6057-5.2529-4.3801-3.6782-8.4099 0.1812-0.4634 0.5031-0.9467 0.4776-1.4052-0.6437-11.589 6.8201-16.519 16.265-19.739 8.3305-2.8402 16.645-5.6285 25.232-7.7783 8.7843-2.1991 16.964-6.5258 25.271-10.275 6.1891-2.7937 12.094-5.6835 17.462-10.114 8.5691-7.0734 16.622-14.646 24.685-22.251 2.9102-2.7446 5.447-5.7207 7.819-8.8899 0.7484 1.1366 1.4214 0.7148 2.2169-0.0111 0.8496-0.776 1.1326-1.4081-0.0494-2.075zm-551.86-1183.5c-5.3989 5.755-7.9217 12.41-10.47 19.105-1.3284 3.4911-3.8055 5.9523-8.0809 4.5009-2.5635-0.8704-3.5627 0.6609-4.624 2.5131-3.8028 6.6368-7.7703 13.18-11.507 19.854-4.4919 8.0217-6.2461 16.282-2.7262 25.341 2.7028 6.9564 5.3629 14.06 6.8254 21.342 3.6393 18.122 6.4901 36.527 6.2922 54.967-0.3587 33.423 2.3123 66.477 8.1676 99.331 2.3113 12.969 4.9041 25.901 4.9099 39.877 7.1169-13.633 14.436-26.015 21.723-38.437 9.985-17.021 19.873-33.937 23.35-54.114 2.8696-16.653 5.3308-32.558-1.4266-48.892-2.9409-7.1093-3.7802-15.093-3.2896-23.063 0.2435-3.9559 1.5298-7.9453 0.4971-11.912-5.8586-22.502-9.5842-45.522-16.72-67.72-4.5155-14.046-8.5652-28.243-12.92-42.691zm-77.12 1173.1c0.7854 5.9917 3.6264 10.05 8.1692 13.289 3.0133 2.1489 7.3389 2.751 9.3092 5.2201 5.1763 6.4869 14.432 6.9558 19.049 13.911 0.4166 0.6276 1.8055 0.8187 2.7528 0.8446 2.4827 0.0674 4.4439 1.1709 6.3276 2.6309 3.9341 3.0494 8.3674 5.3748 11.899 9.0471 2.7741 2.8848 6.6967 0.6986 10.014 0.8407 1.9852 0.0848 1.2928-3.3474 1.4161-5.2391 0.8568-13.135 2.5757-26.157 4.4103-39.19 2.0836-14.802 3.5334-29.616 2.3059-44.723-0.7187-8.8445-0.4897-17.956-0.034-26.853 0.5069-9.8955 2.7256-19.768 4.904-29.492 1.5688-7.0031 1.848-13.79 0.3346-20.743-1.2777-5.8701-1.803-11.823-2.1376-17.828-1.2026-21.584-5.2354-42.98-4.2526-64.717 0.1218-2.6927-0.3754-5.4135-0.6898-9.4603-11.301 28.641-21.988 56.026-31.829 83.739-5.8433 16.454-8.6492 33.888-16.094 49.807-1.5346 3.2809-2.3856 6.5323-1.8979 10.111 1.0434 7.6567-0.2386 14.688-4.4281 21.402-3.3069 5.3005-3.557 11.629-1.5689 17.347 2.2197 6.384 2.2251 12.683 1.9169 19.191-0.2134 4.5051-2.4575 7.1312-6.6758 8.1128-4.499 1.0466-9.0446 1.8938-13.199 2.7517zm652.44-181.04c-6.9432-30.476-10.77-61.569-19.103-91.739-5.819-21.066-11.969-41.945-24.895-60.057-1.2422-1.7405-2.1051-3.7848-2.9515-5.7701-13.501-31.663-21.017-64.756-23.625-99.022-0.6965-9.1526-1.4733-18.299-2.3032-28.563-0.8914 1.6041-1.2849 2.1205-1.4867 2.7032-8.9341 25.802-19.871 50.815-30.056 76.122-5.106 12.686-9.4605 25.603-12.706 38.854-1.8946 7.736-0.7297 9.6094 6.0272 13.392 10.768 6.0289 20.724 13.308 30.964 20.139 5.5243 3.6855 10.677 7.9673 15.264 12.838 12.485 13.256 23.747 27.525 33.177 43.066 9.3177 15.356 18.067 31.063 21.582 49.09 1.9636 10.072 5.5001 19.706 10.112 28.946zm24.646-905.88c-5.5444 11.315-10.039 22.896-13.378 34.882-5.6655 20.335-13.896 39.914-18.151 60.646-3.3308 16.228-3.1431 32.755 3.3932 47.919 4.9379 11.456 12.517 21.898 19.775 32.188 5.4875 7.7799 11.895 14.954 17.732 23.656 3.9056-16.864 6.9404-32.714 11.324-48.181 5.183-18.29 7.5416-36.546 2.8687-55.145-8.0129-31.894-16.707-63.619-23.563-95.964zm-195.22-472.07c0.0068-0.1797 0.0136-0.3593 0.0204-0.539-0.9821 0.0554-1.9642 0.1108-2.9464 0.1662 0.0074 0.1243 0.0148 0.2485 0.0222 0.3728h2.9038zm-138.14-137.11c-1.0866-0.7167-2.0706-0.3805-3.1747 0.1057 1.1294 0.2317 2.1423 0.7163 3.1747-0.1057zm-48.229 11.744c-0.1173 0.0627-0.2346 0.1255-0.3519 0.1882 0.195 0.0913 0.3829 0.2162 0.5881 0.2596 0.0997 0.0211 0.2317-0.1099 0.3491-0.172-0.1951-0.0921-0.3901-0.1842-0.5853-0.2758zm-65.695 76.113c0.0487-0.1246 0.0974-0.2493 0.1461-0.3739-0.1844 0.0226-0.3688 0.0452-0.5532 0.0677l0.0585 0.3945c0.1162-0.0294 0.2324-0.0588 0.3486-0.0883z"/>
	<path d="m822.65 222.87c2.8859-2.4412-0.9626-3.8915-0.3654-6.2906 3.3109 5.8177 9.7711 9.3373 11.257 16.488 2e-4 5e-4 0.1454-0.0544 0.1454-0.0544-3.0066-0.776-3.9834-3.4429-5.5157-5.6874-1.3529-1.9816-3.1029-3.7155-5.472-4.5971-0.0154 0.0263-0.0494 0.1418-0.0494 0.1418z"/>
	<path d="m822.36 213.67c-2.6041-0.4899-3.6914-1.5747-4.5394-3.9718 1.6932 1.3809 3.4121 1.6053 4.5394 3.9718z"/>
	<path d="m833.68 233.01s-0.1451 0.0548-0.1454 0.0544c0.9296 0.1834 1.3884 0.7533 1.302 1.6939-0.0442 0.4791-0.3156 0.5415-0.6927 0.2449-0.694-0.5456-1.1399-1.135-0.4639-1.9932z"/>
	<path d="m799.09 193.1c0.9075-0.0509 1.6362 0.1945 1.8693 1.1859 0.0166 0.0709-0.2488 0.3079-0.317 0.2835-0.7483-0.2677-1.6959-0.3783-1.4525-1.5695 1e-3 -1e-3 -0.0998 0.1001-0.0998 0.1001z"/>
	<path d="m837.68 235.83c-0.1167-0.0574-0.2905-0.0866-0.3361-0.1791-0.0624-0.1265-0.0273-0.3011-0.0341-0.4552 0.1895 0.0782 0.3788 0.1564 0.5682 0.2346-0.066 0.1333-0.132 0.2665-0.198 0.3997z"/>
	<path d="m836.82 239.95c-0.0959-0.0124-0.2672-0.0079-0.2744-0.0401-0.0275-0.1227-0.0018-0.2573 4e-3 -0.3874 0.0977 0.0123 0.2728 0.0084 0.2795 0.0399 0.0258 0.1232-0.0016 0.2575-0.0091 0.3876z"/>
</svg>
