<?xml version="1.0" encoding="UTF-8" standalone="no"?>
<svg
   xmlns:dc="http://purl.org/dc/elements/1.1/"
   xmlns:cc="http://creativecommons.org/ns#"
   xmlns:rdf="http://www.w3.org/1999/02/22-rdf-syntax-ns#"
   xmlns:svg="http://www.w3.org/2000/svg"
   xmlns="http://www.w3.org/2000/svg"
   xmlns:sodipodi="http://sodipodi.sourceforge.net/DTD/sodipodi-0.dtd"
   xmlns:inkscape="http://www.inkscape.org/namespaces/inkscape"
   enable-background="new 0 0 1299 2241"
   version="1.1"
   viewBox="0 0 633.76291 1201.9216"
   xml:space="preserve"
   id="svg4"
   sodipodi:docname="together_dynamic_mixed17.svg"
   width="633.76288"
   height="1201.9216"
   inkscape:version="1.0.2 (e86c870879, 2021-01-15)"><metadata
   id="metadata10"><rdf:RDF><cc:Work
       rdf:about=""><dc:format>image/svg+xml</dc:format><dc:type
         rdf:resource="http://purl.org/dc/dcmitype/StillImage" /><dc:title></dc:title></cc:Work></rdf:RDF></metadata><defs
   id="defs8" /><sodipodi:namedview
   pagecolor="#ffffff"
   bordercolor="#666666"
   borderopacity="1"
   objecttolerance="10"
   gridtolerance="10"
   guidetolerance="10"
   inkscape:pageopacity="0"
   inkscape:pageshadow="2"
   inkscape:window-width="1920"
   inkscape:window-height="997"
   id="namedview6"
   showgrid="false"
   fit-margin-top="0"
   fit-margin-left="0"
   fit-margin-right="0"
   fit-margin-bottom="0"
   inkscape:zoom="0.39088729"
   inkscape:cx="-540.40816"
   inkscape:cy="757.38717"
   inkscape:window-x="0"
   inkscape:window-y="0"
   inkscape:window-maximized="1"
   inkscape:current-layer="svg4"
   inkscape:document-rotation="0" />
	<rect
   style="fill:#ffffff;stroke-width:5.66929;stroke-linecap:square;stroke-linejoin:round;stroke-dasharray:11.3386, 11.3386"
   id="rect830"
   width="633.76288"
   height="1201.9216"
   x="0"
   y="0" /><path
   d="m 105.95007,680.78334 c 2.85593,-7.8712 6.20138,-15.575 8.9465,-23.4951 1.15872,-3.3433 2.25074,-6.6958 3.50683,-10.017 2.17597,-5.7533 4.38906,-11.5018 6.28154,-17.375 2.69455,-8.3634 5.71347,-16.6234 8.80609,-24.8604 2.60256,-6.933 5.15563,-13.9133 8.2461,-20.6031 3.01301,-6.5226 3.91729,-13.5981 6.55051,-20.1572 1.70527,-4.2476 4.05554,-8.2052 6.87166,-11.8084 2.46431,-3.1528 6.5419,-5.6059 7.81897,-9.4371 1.72357,-5.1707 3.18408,-7.7458 7.15462,-11.5463 3.71771,-3.5591 7.89321,-6.692 10.48823,-11.2414 4.46814,-7.8335 8.93682,-15.667 13.4055,-23.501 4.99854,-8.7625 5.33045,-15.4083 1.25932,-24.585 -3.31049,-7.4629 -9.92286,-11.5765 -14.92195,-17.2959 -4.72635,-5.4068 -8.41394,-11.3672 -11.04662,-18.1598 -2.30024,-5.9346 -4.84631,-11.8148 -6.90555,-17.822 -2.64613,-7.7194 -7.34451,-15.0231 -5.65107,-23.8469 0.71439,-3.7215 2.1749,-7.1761 3.47456,-10.6604 1.09794,-2.9425 2.20502,-5.8797 2.71714,-8.9389 0.66328,-3.9604 2.63484,-7.0928 5.17284,-10.0127 4.20993,-4.8431 9.13801,-8.9589 13.63735,-13.5077 3.06787,-3.1013 4.87213,-6.2316 4.38852,-11.2419 -0.5955,-6.1751 -2.53532,-11.8573 -3.98668,-17.729 -2.55415,-10.3311 -2.56706,-20.7968 -1.12107,-31.2091 1.41371,-10.1817 3.74568,-20.2261 7.72483,-29.7563 2.35995,-5.6532 4.45684,-11.3769 7.95185,-16.6148 3.84843,-5.7683 7.86308,-11.2537 13.11769,-15.7385 3.32878,-2.8409 7.06801,-5.1562 11.01273,-7.0858 1.49386,-0.7305 2.76179,-1.361 2.73059,-3.4622 -0.0242,-1.6386 1.19584,-2.6402 2.90488,-3.0485 2.02319,-0.4836 3.89415,-1.375 5.28581,-3.0071 0.59711,-0.6999 1.028,-1.5444 0.61594,-2.4756 -0.41206,-0.9312 -1.31096,-0.766 -2.1125,-0.7144 -0.71331,0.046 -1.43684,0.052 -2.13616,0.1829 -1.72464,0.3233 -3.17816,3.1109 -5.30356,0.2055 -0.60734,-0.83 -2.57889,-0.5196 -1.6348,1.7004 0.57667,1.3557 -0.23293,1.5283 -1.37229,1.2255 -0.82789,-0.22 -1.39381,-0.7166 -1.92529,-1.3589 -2.57351,-3.1098 -2.76018,-6.0938 -0.56161,-9.4419 0.39108,-0.5955 0.91665,-1.1883 1.05006,-1.8489 0.26144,-1.2965 -0.21787,-2.1421 -1.75476,-1.7693 -0.34375,0.083 -0.6493,0.3265 -0.99304,0.4029 -1.00219,0.2222 -2.20825,1.0953 -2.97428,0.01 -0.79777,-1.1334 0.0893,-2.2776 0.91934,-3.0695 1.81663,-1.7332 2.68379,-4.1448 4.58487,-5.8705 1.7198,-1.5606 0.96238,-3.3148 -1.34216,-3.8807 -0.25983,-0.064 -0.56322,-0.1835 -0.79185,-0.1092 -4.24543,1.3803 -5.8883,-2.4972 -8.56779,-4.253 -0.49167,-0.3222 -1.03661,-0.893 -0.75634,-1.5756 0.30555,-0.7435 1.09686,-0.4492 1.66708,-0.4331 2.42988,0.068 3.1986,-0.9387 2.52079,-3.3191 -0.94516,-3.3207 -0.53471,-6.7597 -0.48361,-10.1428 0.0301,-1.9931 -0.52718,-3.4187 -2.18243,-4.5413 -2.88497,-1.9565 -3.46218,-4.5941 -2.67679,-7.9777 1.12591,-4.8517 2.65635,-9.6211 4.14268,-14.3168 1.1087,-3.5025 3.37558,-6.9308 6.53276,-9.6856 6.29821,-5.4956 13.4765,-10.3624 16.46584,-18.8199 0.4438,-1.2561 1.40456,-2.3976 1.28729,-3.7704 -0.27274,-3.1997 1.87472,-4.3234 4.27932,-5.2143 2.42665,-0.8989 3.821,-2.388998 5.11851,-4.839298 2.20341,-4.162 3.96032,-8.52366 6.17556,-12.63245 1.86235,-3.45412 3.81616,-7.40745 8.56994,-8.05513 0.78916,-0.10759 0.98927,-0.84833 1.04791,-1.39542 0.31254,-2.91779 2.43257,-4.72689 4.03133,-6.86305 0.20657,-0.27596 0.27166,-0.6111 0.69717,-0.70148 5.15025,-1.09255 8.91906,-4.64834 13.07573,-7.472 2.24376,-1.52398 4.49343,-2.93877 7.18474,-3.32931 5.10775,-0.74075 8.57478,-4.32182 12.50444,-7.08146 0.80799,-0.56753 1.53852,-1.21575 2.49336,-1.46965 4.48535,-1.19477 8.97393,-2.33574 13.66693,-1.11193 2.21847,0.57829 4.20562,-0.61755 6.26486,-1.05598 4.8022,-1.02262 9.51026,-0.84564 14.29579,0.0893 3.3277,0.65037 6.87703,0.43358 10.07671,1.41748 8.86311,2.72521 18.32281,4.50687 24.29019,12.79439 0.20872,0.28995 0.53148,0.54332 0.62293,0.86447 1.59338,5.59351 4.693,10.60766 6.12285,16.28401 0.97421,3.86726 2.02857,7.74635 4.8221,10.91213 2.20556,2.49878 4.89526,3.19058 7.96207,2.86028 2.03664,-0.219 3.31156,-1.3707 3.86349,-3.51334 0.50835,-1.97263 1.49171,-3.81884 2.21309,-5.7409 3.04528,-8.11484 6.29229,-16.14308 10.45488,-23.76247 7.11212,-13.0171 24.74045,-11.74863 37.89795,-11.35002 21.06254,0.638 46.83691,6.02871 63.25648,20.07219 4.20993,3.60098 5.63278,7.92549 5.32347,13.30167 -0.24046,4.18518 0.21679,8.40587 0.23938,12.61147 0.0457,8.508598 -0.77356,16.942498 -1.99307,25.367698 -0.75366,5.2067 -0.80799,10.5125 -1.24695,15.7681 -0.13986,1.6741 0.54279,2.6849 1.98016,3.4095 8.06589,4.0663 14.66804,9.8341 19.85003,17.2243 1.72571,2.4611 2.87906,5.0605 2.56544,8.2354 -0.26574,2.6902 -1.74616,3.7736 -4.17927,3.9248 -4.83931,0.3007 -9.35587,-1.2588 -13.88318,-2.6074 -3.67898,-1.0958 -7.28157,-2.4455 -10.92558,-3.6602 -1.29805,-0.4325 -2.51165,-0.6374 -3.66069,0.5681 -1.11085,1.1657 -2.66926,1.3239 -4.23736,1.2986 -1.28084,-0.021 -2.23515,0.5622 -2.7322,1.7838 -0.55408,1.3605 0.53955,1.9587 1.30881,2.6289 1.77789,1.5504 3.76827,2.296 6.19116,1.616 0.9102,-0.2555 2.17006,-0.4153 2.76609,0.3997 0.61272,0.8386 -0.0576,1.865 -0.52395,2.7462 -2.41105,4.5542 -5.48969,8.607 -9.39245,11.9611 -1.73486,1.4906 -2.44871,3.1674 -2.33843,5.3972 0.11028,2.2367 -0.0947,4.4643 -0.41475,6.6952 -0.72838,5.0722 -5.48431,7.4913 -9.87768,4.9307 -4.07759,-2.3766 -4.12116,-2.3572 -6.21698,1.9114 -0.58905,1.2001 -1.21037,2.3863 -1.86181,3.5536 -1.3298,2.3841 -3.2099,3.835 -6.10456,3.3541 -1.48203,-0.2464 -2.00383,0.1931 -2.07968,1.8058 -0.18667,3.9829 -1.25932,5.0239 -5.09645,5.5699 -4.15721,0.5912 -5.39179,1.8451 -6.65756,6.1169 -0.64607,2.1819 -0.28134,4.5574 -1.90108,6.5855 -3.48479,4.3621 -9.69155,4.4939 -13.75892,2.5923 -4.38476,-2.0501 -8.64364,-4.2567 -13.3092,-5.692 -2.20341,-0.6778 -3.67898,-2.779 -5.34767,-4.4089 -2.09905,-2.0506 -3.2723,-2.0033 -5.08301,0.2603 -2.73704,3.4224 -5.37295,6.926 -8.0831,10.3699 -1.23135,1.5644 -1.38574,3.0297 -0.43089,4.9001 1.33248,2.6096 2.97643,4.855 5.30033,6.6409 1.17594,0.9038 2.16575,0.9253 2.85378,-0.4244 1.4406,-2.8258 3.35567,-4.8565 6.65648,-5.6376 1.33033,-0.3147 2.39653,-1.7994 3.55041,-2.7903 1.01079,-0.8683 1.84729,-0.8059 2.76502,0.1931 5.34444,5.8216 6.0556,10.5474 1.9737,17.5503 -0.26789,0.4594 -0.75634,0.8822 -0.81067,1.3594 -0.5401,4.7177 -3.81992,7.6899 -6.85875,10.7889 -0.65199,0.6649 -0.82197,1.3078 -0.83489,2.1314 -0.10328,6.48 0.21626,12.8143 3.19,18.8521 3.8495,7.8147 5.59727,16.3835 8.16594,24.6565 2.43526,7.8432 5.36058,15.5164 8.18155,23.2267 2.98449,8.1573 3.19967,16.5352 1.84352,25.0632 -0.60249,3.786 -1.97424,7.1961 -3.70695,10.5442 -1.47773,2.8559 -2.85808,5.7533 -3.63326,8.9153 -0.72622,2.9624 -0.51373,5.8044 0.2835,8.734 1.87472,6.8921 4.64404,13.5706 5.71939,20.6403 2.05117,13.4829 3.05604,27.0482 1.3895,40.6721 -0.35074,2.8699 -0.36365,5.6597 0.1716,8.5253 1.0931,5.8522 0.64392,11.8035 0.5713,17.6998 -0.13395,10.8465 3.01139,21.8523 4.05769,32.787 1.02692,10.7303 -4.65104,22.5876 1.26631,32.1969 1.43361,2.3282 1.7596,5.098 0.0506,7.1094 -1.08126,1.2722 -0.21463,2.8984 -1.11246,3.9791 -2.70638,3.2578 -4.06791,7.9546 -9.1848,8.7098 -0.67028,0.099 -1.27546,0.6165 -1.91776,0.9253 -1.10708,0.5331 -1.54282,1.2507 -0.54655,2.254 4.42456,4.4557 10.3672,6.8786 15.06773,10.9826 4.20024,3.6666 9.33381,4.6537 11.95897,10.1525 2.62353,5.4962 5.09914,11.0865 7.18635,16.8021 0.77194,2.1141 0.68803,4.6317 1.04307,6.9642 1.11246,7.3079 3.09639,14.5319 6.48057,20.8898 2.80483,5.2692 5.17177,10.6749 7.50213,16.1076 1.50354,3.5052 2.22277,7.3418 3.37881,11.0025 1.47987,4.6849 2.80643,9.4398 4.64942,13.9816 1.51592,3.736 3.9614,7.0933 5.50314,10.8218 2.00598,4.8501 3.82422,9.9578 2.90864,15.2668 -0.34589,2.0043 -1.51807,4.6203 -4.54775,4.8635 -0.54709,0.044 -1.04145,0.6337 -1.57724,0.9414 -1.84084,1.0549 -3.48586,0.4588 -4.16905,-1.5536 -0.7359,-2.1674 -1.50408,-4.0184 -3.89899,-1.3239 -0.38947,0.4385 -1.01671,0.4766 -1.29375,-0.2065 -0.66866,-1.6483 -1.64664,-3.2777 -1.84568,-4.9905 -0.71115,-6.1175 -1.31472,-12.2586 -1.63265,-18.4073 -0.20872,-4.0372 -2.74619,-6.8781 -4.43102,-10.1628 -0.45402,-0.8849 -1.20391,-0.8526 -2.22922,-0.2162 -2.97536,1.8462 -6.01526,3.6526 -9.21547,5.0486 -2.04525,0.8924 -2.88175,2.0603 -3.01247,4.1905 -0.37656,6.125 0.0802,12.1973 1.4207,18.1502 0.94893,4.2142 0.31362,8.6414 1.85321,12.7196 4.80381,12.7244 4.26049,28.3016 5.52519,41.7087 1.8134,19.2276 2.53585,38.9518 5.34928,58.0008 0.63854,4.3234 1.03339,9.0578 -0.21517,13.5432 -0.27328,0.9817 -0.29963,1.9344 -0.0134,2.9 1.26309,4.2611 0.70739,8.5388 0.32223,12.8574 -0.18506,2.0743 -1.12591,3.7871 -2.41536,4.8909 -2.68809,2.3008 -3.44981,5.4876 -3.49231,8.3967 -0.0871,6.0266 -1.6574,11.9138 -1.50516,17.878 0.20764,8.1326 -2.26366,16.1656 -1.06459,24.2294 0.7316,4.9211 0.82036,9.9858 2.52833,14.7697 1.12483,3.1512 0.0377,6.6516 1.27868,9.811 4.61231,11.7416 4.18088,24.8679 3.16202,37.2185 -1.67784,20.3465 -4.21907,40.6118 -5.82536,60.96476 -1.5993,20.2654 -3.08832,40.9503 1.63803,60.9057 1.9963,8.4306 4.93023,16.4072 10.1262,23.436 3.76989,5.1002 9.06807,8.2999 14.30977,11.5727 8.21113,5.1271 17.34322,8.4166 25.85829,12.9472 6.56933,3.4955 12.7379,3.5391 19.93555,3.4239 6.21699,-0.1 12.44204,0.3664 18.57564,1.3842 4.9953,0.8289 9.9611,3.7462 14.4104,-0.021 1.9968,-1.6907 3.8667,-1.5223 5.8495,-0.2759 0.9925,0.624 1.8941,1.2862 3.1707,1.2485 2.2383,-0.067 4.7871,-0.3443 5.8318,2.2137 1.0124,2.4799 -0.8968,4.5725 -2.2217,6.1744 -1.8694,2.2589 -4.1922,4.5537 -7.7577,3.9055 -0.7439,-0.135 -1.3529,0.2792 -1.9694,0.6907 -4.6693,3.1185 -9.8792,5.0873 -15.11234,6.9889 -1.40187,0.5095 -2.40191,1.5638 -3.51383,2.4331 -3.17278,2.4821 -6.82916,1.5746 -10.28759,1.4928 -4.26641,-0.1011 -8.49086,-0.7165 -12.67819,-1.8015 -2.14746,-0.5563 -4.76885,-0.5385 -6.85229,0.1721 -5.46871,1.8661 -11.42641,1.4202 -17.10061,1.2147 -5.60104,-0.2028 -11.08965,0.3346 -16.66918,0.3184 -4.65319,-0.013 -9.30746,-0.02 -13.95957,-0.1237 -1.24211,-0.027 -1.38036,0.44 -1.50462,1.5477 -0.45671,4.077 -1.53582,4.5224 -5.38318,5.5849 -7.09974,1.9597 -13.86919,-0.4438 -20.78442,-0.8139 -6.87059,-0.368 -13.77398,-1.254 -20.48587,-2.2373 -11.46891,-1.6811 -22.68659,0.5847 -33.99196,0 -5.15079,-0.2679 -10.26607,-0.5772 -15.38242,-1.8032 -5.89638,-1.4126 -12.09991,-0.7962 -18.17058,-1.1523 -4.09319,-0.2399 -9.95029,0.1636 -11.53184,-4.6698 -0.55139,-1.6859 -0.48737,-3.5042 -0.37925,-5.2751 0.56645,-9.2526 3.48102,-18.1636 4.06899,-27.2994 0.61809,-9.598 -0.35504,-19.4939 -3.19376,-28.6927 -1.96671,-6.3703 -2.56544,-13.0505 -4.51009,-19.4627 -0.76926,-2.5364 -2.3422,-5.0502 -2.4896,-7.2924 -0.234,-3.5692 -1.84621,-6.4563 -2.73919,-9.6538 -1.56433,-5.5989 -3.65961,-11.0364 -5.24439,-16.6413 -0.63692,-2.2529 -2.08721,-4.2535 -2.8102,-6.5494 -1.56272,-4.963 -3.30834,-9.8685 -4.87482,-14.8305 -1.04415,-3.3072 -2.07753,-6.5924 -3.97808,-9.5452 -0.35988,-0.5589 -0.32868,-1.3642 -0.49975,-2.05056 -0.27972,-1.1249 -0.28457,-2.4547 -0.91503,-3.3326 -3.55633,-4.956 -4.60747,-10.9627 -7.10459,-16.3432 -8.74154,-18.8333 -11.41672,-40.1002 -10.59851,-60.6905 0.4169,-10.4877 1.7639,-20.942 3.95817,-31.2049 1.13666,-5.3164 2.53262,-18.5944 -5.60589,-18.3954 -1.96617,0.048 -3.9146,0.1097 -5.80707,0.8596 -0.78109,0.3094 -2.0006,0.4885 -2.60525,0.093 -2.18727,-1.4336 -3.47133,-0.1673 -4.77046,1.2555 -4.74679,5.2014 -9.92555,9.9519 -15.76974,13.8552 -2.37663,1.5875 -5.00339,2.9431 -7.60488,4.1841 -21.80597,10.4011 -37.523,27.1424 -54.34818,44.0622 -9.56082,9.6147 -19.05172,19.2992 -28.47107,29.0526 -4.91409,5.0884 -9.80935,10.1951 -14.68471,15.3206 -12.22955,12.8568 -24.15032,25.16326 -31.96392,41.28796 -10.15632,20.9598 -18.3142,47.5809 -13.49371,71.2073 0.57613,2.8242 1.56379,5.5747 2.98772,8.0196 3.72901,6.4026 4.41919,13.8359 7.2493,20.5553 1.05275,2.4993 1.64663,5.2535 3.01085,7.6936 1.6886,3.0195 4.65104,4.5133 7.40907,6.2337 1.28621,0.802 2.88928,1.1743 4.02057,2.1297 1.91399,1.617 4.05715,2.0512 6.43485,2.2593 3.67037,0.3217 5.29387,3.4364 3.76343,6.84 -0.94677,2.106 -10.88254,0.4825 -12.79385,0.4335 l -18.58479,-0.476 c -17.18237,-0.4406 -35.082362,0.5406 -52.150692,-1.4283 -1.94035,-0.2238 -3.92482,-0.047 -5.88723,-0.1038 -5.87646,-0.1711 -8.00348,-12.3603 -9.61946,-16.7757 -4.34333,-11.8664 -6.78881,-24.4053 -11.96112,-35.8672 -3.66069,-8.1498 -7.61886,-16.1662 -11.26771,-24.3214 -2.42988,-5.43 -2.27818,-11.456 0.4282,-16.2878 3.66338,-6.5403 8.58984,-12.2758 15.22642,-16.5815 23.92601,-15.5228 38.32077,-36.13186 45.49152,-63.48236 1.375522,-5.246 1.910772,-10.7975 3.919442,-15.7687 1.99684,-4.942 4.11902,-9.8803 5.90391,-14.8875 1.77574,-4.9818 3.89523,-9.791 6.03623,-14.5895 5.29926,-11.8761 12.3124,-22.5532 21.60694,-31.8283 4.98994,-4.9792 9.76524,-10.1763 15.14465,-14.745 4.69354,-3.9867 9.48606,-7.8577 14.28718,-11.7174 6.22721,-5.0061 12.55554,-10.0859 16.43625,-17.3777 3.26154,-6.1287 6.65326,-12.1967 9.66842,-18.4449 1.53313,-3.1771 2.57996,-6.5715 2.64936,-10.28 0.18182,-9.7734 -1.59392,-19.31 -3.02431,-28.8966 -0.10544,-0.7058 -0.15008,-1.4272 -0.14686,-2.141 0.0124,-3.1389 -0.16138,-6.2272 -0.81928,-9.3392 -0.60142,-2.8463 -1.02962,-5.7625 -0.41906,-8.7771 0.83381,-4.1179 -0.81121,-8.1197 -1.08287,-12.2064 -0.42067,-6.3283 0.40937,-12.6739 -0.40615,-18.9845 -0.0866,-0.6692 0.17268,-1.588 -0.71869,-1.8489 -0.85909,-0.2512 -1.47772,0.3809 -2.10819,0.9097 -1.50677,1.262 -1.99899,3.2825 -3.80916,4.4186 -4.5144,2.8334 -9.50165,2.8818 -14.49482,2.8673 -8.24933,-0.024 -16.45992,0.6261 -24.68719,1.05 -9.52317,0.4906 -18.88442,-0.8526 -28.06116,-3.4154 -2.35779,-0.6584 -4.75271,-0.9473 -7.16214,-0.7832 -2.07323,0.1415 -3.19591,-0.8042 -3.83337,-2.602 -0.50674,-1.4283 -0.92849,-2.8899 -1.49924,-4.2912 -0.32761,-0.8042 -0.0581,-1.3922 0.35719,-1.9893 2.1636,-3.1071 5.45096,-4.5999 8.88571,-5.4639 1.60253,-0.4029 2.79191,-1.0124 3.85435,-2.099 0.78485,-0.8026 1.25986,-1.503 -0.32599,-2.1405 -1.34163,-0.5395 -1.63804,-1.6165 -1.51969,-3.2518 0.21034,-2.8995 0.12803,-5.8824 -0.957,-8.7066 -0.79938,-2.0813 -1.88494,-3.7059 -4.19862,-4.4983 -7.18636,-2.4616 -9.269802,-5.0211 -7.5839,-12.4452 1.12914,-4.9674 2.67733,-9.7889 4.40466,-14.5497 z m 308.78891,417.82946 c 0.96883,-12.322 1.27385,-24.1374 1.21844,-35.9672 -0.0409,-8.79 -0.11458,-17.6004 -1.98931,-26.2177 -2.24644,-10.3252 -4.56174,-20.6413 -5.82375,-31.1295 -0.72461,-6.02176 -1.06405,-12.03696 -3.06626,-17.86346 -2.00383,-5.8302 -4.47567,-11.5764 -5.84473,-17.5363 -3.55095,-15.4577 -4.08943,-31.2743 -4.32774,-47.0817 -0.004,-0.2679 -0.0161,-0.5476 0.0473,-0.8036 1.67999,-6.7786 0.68103,-13.6896 0.86662,-20.5263 0.34267,-12.6249 -0.75795,-25.3268 0.79293,-37.8737 1.22005,-9.8712 -1.10547,-18.9845 -3.67306,-28.2032 -0.31039,-1.1151 -0.72461,-2.2195 -1.23996,-3.2545 -0.82466,-1.6558 -1.51,-3.7624 -3.92535,-3.3541 -8.38865,1.4186 -8.82331,11.4178 -9.28648,18.8059 -0.28618,4.5596 1.24964,9.1541 1.53851,13.7078 0.34536,5.4424 0.0334,10.9068 -0.27919,16.3427 -0.5686,9.8852 -3.34976,22.2002 -0.64391,31.8305 1.15818,4.1211 2.39921,7.7716 2.97427,12.0832 0.39324,2.9468 0.47285,6.0298 1.68699,8.7571 1.28836,2.8952 2.67087,4.4881 2.98019,7.9535 0.95215,10.6545 3.15126,21.1701 3.80539,31.8553 0.85748,14.009 3.23787,27.6227 4.54507,41.52086 1.42285,15.1339 3.21473,30.2415 5.7947,45.2253 1.94358,11.2887 4.06952,22.5591 8.44406,33.2388 1.21306,2.9641 2.55145,5.8776 5.40523,8.4903 z M 371.9759,78.192532 c -0.12158,-1.04952 -0.0656,-2.19695 -1.06351,-2.89305 -0.72784,-0.50781 -2.08452,-0.47823 -1.74347,0.41207 0.76872,2.00544 0.1985,3.76881 -0.0317,5.65645 -0.10006,0.81982 0.46155,1.62297 1.41048,1.62673 1.0549,0.004 1.35561,-0.73644 1.05437,-1.66923 -0.36204,-1.1173 0.52019,-2.05655 0.37387,-3.13297 z M 214.71959,163.00974 c -0.42443,0.03 -0.9769,0.2447 -1.00487,1.0414 -0.0177,0.5046 2.7322,3.3751 3.13351,3.2906 0.62777,-0.1313 0.93386,-0.6176 0.79776,-1.1706 -0.36203,-1.4707 -0.69448,-3.0291 -2.9264,-3.1614 z m 4.88666,-27.2575 c 1.0861,0.036 3.34492,-2.1469 3.28897,-3.3218 -0.0296,-0.6246 -0.33191,-0.9855 -0.98551,-0.9844 -0.53848,10e-4 -3.5063,2.8667 -3.4794,3.368 0.0344,0.6455 0.39808,0.9468 1.17594,0.9382 z m 6.93137,67.4685 c -0.73806,-0.024 -1.50785,0.1727 -1.4277,0.8747 0.17968,1.5687 1.77037,1.4078 2.8016,1.8699 0.48469,0.2174 1.14689,-0.1775 1.06028,-0.8074 -0.19204,-1.3906 -1.43899,-1.5816 -2.43418,-1.9372 z m 0.37226,17.0501 c 0.81767,-0.2862 1.99952,-0.2588 2.19964,-1.4863 0.13072,-0.8021 -0.53687,-1.1292 -1.22812,-0.9748 -0.9371,0.2098 -2.0657,0.3653 -2.18566,1.6128 -0.0613,0.6326 0.53041,0.8521 1.21414,0.8483 z"
   id="path2"
   inkscape:connector-curvature="0"
   style="stroke-width:0.537941" />
</svg>
