<?xml version="1.0" encoding="UTF-8"?>
<svg enable-background="new 665.9957 85.6458 1306.0043 1684.3114" version="1.1" viewBox="665.9957 85.6458 1306.0043 1684.3114" xmlns="http://www.w3.org/2000/svg">
 <path d="m1567.9 1701.3c-3.6288-2.0409-7.7706-2.9296-11.708-4.2811-9.7653-3.3521-18.257-9.5471-26.581-15.654-5.192-3.8085-10.476-7.7092-14.213-12.953-2.9497-4.1399-4.3571-8.7112-4.4524-13.755-0.0559-2.9515-2.2325-9.5712-1.5115-12.02 1.1501-3.9072-0.4233-9.3622-0.6265-13.385-0.1975-3.9131-0.3113-7.8313-0.3569-11.75-0.1139-9.792 0.1594-19.585 0.0084-29.376-0.235-28.386 1.6805-56.736 5.0774-84.887 0.2531-3.4873 1.3733-7.1914-0.3977-10.426 6.9928-3.1982 12.901-8.5465 20.418-10.624 4.4268-0.9216 2.5477-6.6132 2.1504-9.703-0.5966-6.884-8.7092-9.7209-9.6489-16.352-0.6504-8.98 0.8494-18.05-0.8492-26.94-5.6915-24.23-14.87-47.665-18.231-72.419-1.6624-14.491-4.5715-29.163-2.6382-43.744 4.5172-1.1744 13.678 1.7527 14.094-5.0592-3.433-9.1609-11.004-16.406-12.648-26.308-4.8245-23.526-8.3116-47.322-11.709-71.082-2.3671-17.996-4.9146-36.047-5.0593-54.206 9.161 6.5951 14.726 17.274 18.195 27.844 8.4742 26.326 15.449 53.14 21.99 80.008 5.24 21.375 7.5709 43.419 7.4083 65.427 0.3794 9.5402-1.5541 20.309 4.6074 28.53 1.7527 2.9631 5.3844 2.7645 8.4021 3.0175-1.7708 10.914-7.1733 21.068-7.4987 32.271 7.354 0.3794 12.124-6.7396 15.955-12.07 6.3242-13.443 10.823-28.024 12.088-42.877 1.2288-13.822-6.324-26.146-7.7334-39.607-5.0231-38.107-8.0947-76.575-16.768-114.12-3.5775-19.713-9.3413-39.227-10.209-59.32 3.379-9.4319 18.394-6.3602 21.321-16.298-0.5239-11.528-5.1315-22.369-7.896-33.463-9.5945-30.572-19.803-61-32.018-90.633-3.4331-7.0648-5.6737-15.684-12.847-19.966-9.1429-6.0892-20.743-6.4866-30.337-11.148 1.5358-5.4206 8.691-7.7694 11.42-12.937 0.1444-4.9327-6.1436-3.9389-9.3959-3.9028-10.95 1.2288-22.405 1.8973-32.777-2.4392-2.6924-0.7409-4.4088-3.3969-3.415-6.1254 2.2765-9.4861 3.9751-19.297 8.2574-28.151 1.7706-4.8967 7.6249-4.4991 11.6-6.4325 3.4148-1.3732 4.4087-5.3122 5.1315-8.5465 1.3551-8.438 2.1139-17.057 1.572-25.603-0.9036-2.7103-4.1741-3.0896-6.3602-4.1558-3.3428-18.304-1.3734-39.299-13.985-54.477-10.534-13.317-27.573-19.153-43.961-20.616-13.19-0.9575-27.591-3.4149-39.805 3.0898-12.088 6.8481-23.11 16.966-28.295 30.102-4.5353 14.925-1.807 30.699-1.3734 45.967 0.524 6.5408-8.474 9.9557-6.2698 16.786 2.4392 8.673 6.0891 17.057 10.95 24.646 3.0176 4.8969 11.383 0 13.552 6.1978 2.0598 5.6374 5.6917 10.986 5.8904 17.147-12.052-0.1446-24.013-2.1502-36.047-2.2948-4.7162-0.0361-3.2524 5.0413-1.1746 7.2636 6.4325 9.4139 17.653 13.407 26.615 19.894-3.3066 5.0229-9.8113 5.5289-14.943 7.5706-11.311 4.1919-23.381 6.9746-33.662 13.479-8.3478 6.9565-18.575 16.334-15.142 28.422-4.1198 1.4817-8.4021 1.0662-12.54 0.1627-2.2766-9.486-0.6685-19.37-0.2349-28.982 0.6866-4.6979 0.1805-9.8655 2.4393-14.148 3.2161-1.0299 9.0522-0.0361 9.5581-4.6798 1.7889-15.34 1.3009-30.825 1.3372-46.22-0.2529-6.6131-0.0181-13.407-1.7706-19.821-3.6138-7.4262-12.088-10.191-18.755-14.112-21.086-8.3297-38.667-23.128-58.814-33.246-7.9141-3.8125-11.799-12.702-11.094-21.195-0.9396-11.89 4.246-23.2 10.896-32.686 8.167-5.5832 11.51-15.322 17.563-22.766 2.9089 1.1202 6.4866 0.506 8.0044-2.5297 4.3184-7.6791 6.1614-16.551 7.6791-25.152 0.759-4.7341-5.0411-4.463-8.0043-5.4207 2.3127-8.944 1.7706-18.231 1.59-27.374-0.7045-9.1246-2.2946-18.647-7.9683-26.127-4.5713-7.2275-11.257-12.865-15.612-20.201 12.196 5.4387 22.351 14.907 34.764 19.641l0.9756-2.1863c-4.0654-5.4025-9.7388-9.2872-14.816-13.66-8.6008-6.6132-16.822-14.78-27.916-16.804-8.4562-1.6262-17.599-5.782-25.748-0.9215-1.572-3.0355-3.1259-6.6673-6.7938-7.4443-14.961-4.9147-32.777-7.9683-46.834 1.03-13.19 8.3478-17.852 23.977-25.639 36.607 0.1624 0.6686 0.5059 2.0057 0.6685 2.6741 10.932-10.444 18.936-24.591 33.156-31.15 5.4927-1.7708 12.124-1.5539 17.111 1.6442-8.9259 3.9752-18.755 6.7035-26.272 13.154-6.812 6.8661-11.654 15.449-16.081 23.959-2.3129 12.847 0.6864 26.182-1.7708 39.083-6.1976-1.4275-13.136 1.319-14.419 8.0586-1.8972 4.6617 3.0536 7.5167 5.1676 10.95 4.5894 9.1608 7.2997 19.261 12.72 28.043 2.4753 3.975 6.6853 0.0541 9.7208-1.0662 0.5962 0.8855 1.825 2.6562 2.4211 3.5416-14.076-0.5059-28.296 0.0904-42.154 2.638-12.305 2.2947-21.719 11.636-28.386 21.701-6.4868 10.028-13.714 19.876-17.184 31.458-3.6678 10.642-5.3483 21.791-6.5588 32.939-0.4879 2.6019 0.9216 4.9867 3.1259 6.3419 4.6075-6.7938 6.5588-14.889 9.9379-22.279 5.8362-15.34 17.021-27.934 29.416-38.378-7.8058 12.756-18.322 23.544-26.525 36.011-4.0654 5.6915-4.517 13.082-4.1558 19.839-0.1986 2.6741 1.4817 4.7701 3.2164 6.6131-4.1738 0.7772-5.2037 5.3663-2.4574 8.2393-4.2461 6.6855-10.372 12.955-10.642 21.339-1.1022 14.401-0.1989 28.892-0.8492 43.329-1.861 33.21-6.5769 66.276-7.8598 99.468-5.0593 26.236-8.2756 53.05-6.035 79.791 3.1259 33.77 4.5713 67.758 10.01 101.28 2.8007 19.388 10.697 37.456 19.785 54.64 8.2393 15.304 12.431 32.434 14.383 49.617 2.5659 25.332 8.8899 50.394 7.7335 76.033-1.2288 21.791-3.7584 43.528-7.5527 65.029-0.5602 3.397-5.2941 7.9863-0.9757 10.588 12.757 1.8248 26.76 0.3252 38.342 6.9564 8.149 6.1975 6.5952 17.942 6.559 26.977-0.0787 19.646-1.6862 39.006-0.766 58.742 1.0396 22.294 1.3799 44.786 3.4364 66.958 0.673 7.6271 1.8031 15.37 1.5024 23.035-0.217 5.5297-1.3199 10.975-2.7159 16.316-0.9285 3.5525-1.599 6.8053-2.1442 10.209-0.6346 0.6455-1.1813 1.4701-1.5894 2.5103-3.1151 7.9408-6.2322 18.049-0.7573 25.823 5.4969 7.8053 15.149 10.146 24.254 8.9794 16.349-2.0951 27.432-19.977 20.87-34.514 2.7167-3.1133 5.2311-6.3915 7.3755-9.9165 4.731-7.7766-1.4443-16.63-4.8273-23.476-0.2548-0.5155-0.547-0.979-0.8674-1.3971 0.5964-2.4944 1.1063-5.0106 1.4673-7.5787 1.1235-7.9969 1.1719-16.138 0.2097-24.154-0.4304-3.5861-1.2522-6.9443-1.056-10.529 0.23-4.2004 0.0061-8.465 0.0951-12.675 0.3544-16.754 1.8159-33.392 4.7317-49.898 4.0474-22.911 1.1202-46.238-1.4998-69.131 11.438 1.048 22.929 1.4816 34.403 2.2947 7.119 0.5601 14.021-1.5901 21.104-1.9335 3.2344-0.2528 7.0649 1.7168 6.8301 5.4568 1.3369 23.598-5.5472 47.178-1.7347 70.739 1.5359 11.528 4.6617 22.767 7.0829 34.132 0.7411 3.9033 1.3062 7.8273 1.7621 11.764 0.7113 6.1423-0.939 13.121-0.8929 19.368 0.0221 3.0138 0.2776 4.5854 1.3885 7.3835 1.7578 4.4269 2.1852 7.795-0.0381 12.256-1.7021 3.4152-4.0258 6.7869-3.9617 10.602 0.057 3.4091 2.0244 6.4528 3.0492 9.7046 0.5607 1.7784 0.8334 3.6177 0.9618 5.4784-1.5581 4.7035-2.6396 9.5381-3.2145 14.528-0.1041 0.9037-0.196 4.4047-0.1085 8.2926-4.9199 4.8763-6.4523 12.388-4.3401 19.103 2.3857 7.5847 11.286 12.381 18.956 11.46 5.8521 0.5278 11.85 0.6735 17.37-1.2755 5.9529-2.1019 11.256-7.1869 11.808-13.476 0.5388-6.1453-3.3823-11.824-3.9581-17.966-0.3887-4.1471 0.7643-8.386-0.085-12.464-0.2141-1.0278-0.5565-2.0195-0.9185-3.0062 2.5792-5.9967 4.1726-12.304 4.8218-18.787l0.521-0.027c-1e-4 -4.7417-2e-4 -9.4833-2e-4 -14.225-0.2595 0.5142-0.5189 1.0282-0.7917 1.5121 1.2092-3.0433-0.2736-8.8843-0.3037-11.899-0.0387-5.0082-0.0599-10.016-0.041-15.025 0.0367-9.8568 0.1166-19.714 0.2177-29.57 6e-3 -0.0439 0.0095-0.0879 0.0013-0.132 0.2805-27.32 0.7275-54.64 0.9087-81.954 0.0181-5.4928-1.9153-10.697-2.4934-16.099 0.1626-4.2825 5.0953-4.8427 8.3838-5.1317 8.5828-0.3613 17.165-0.6504 25.766-1.0299 3.5054 0.2167 6.5048-3.0719 5.7097-6.577-0.9758-16.461-5.0232-32.56-6.3422-48.984-1.1925-16.768-2.0056-33.572-3.0718-50.339-0.4155-19.279-2.8909-38.559-1.1383-57.82 0.1266-2.9271 3.7223-1.3191 5.5656-1.4453 2.8729 25.188 6.2336 50.339 9.9016 75.455 3.3428 26.416 13.57 51.225 23.29 75.816 3.1984 6.2878-0.9756 13.624 2.0781 19.839 3.1619 4.8784 9.775 2.6379 14.112 5.3844 1.825 8.9622-1.012 18.177-1.3191 27.211-1.2467 13.57 3.433 26.597 6.613 39.571 3.3246 13.081 2.8005 26.922 7.1914 39.769 1.1924 4.0112 2.8231 7.8824 4.3229 11.794 0.3749 0.9779 0.7416 1.9579 1.0929 2.9434 6.2742 19.705 0.8536 41.388 3.5308 63.228-0.433 0.9994-0.8241 2.0034-1.1737 3.0045-1.049 3.0033-1.724 5.9717-2.0563 8.8943-0.1477 1.299-0.2277 2.5889-0.2427 3.8688-3.27 15.243 3.5057 27.439 16.318 34.428 1.0952 0.6931 2.1838 1.2527 3.26 1.6772 1.076 0.4247 2.1396 0.7142 3.1885 0.8687 1.0488 0.1543 2.083 0.1735 3.1754 0.1019 16.863-2.8608 22.284-20.478 18.618-33.424-0.1215-1.1417-0.2842-2.2736-0.4852-3.4027-1.0057-5.6459-2.9951-11.273-5.1956-16.483-0.1616-1.3555-0.2574-2.6879-0.327-4.0188-0.5566-10.648 0.3181-21.374-1.1681-31.886-0.6434-4.5516-1.1483-9.1312-1.7178-13.706 0 0-0.1217 0.0223-0.3497 0.0647-0.6233-22.471 0.6527-44.993-0.01-67.47-0.2892-14.455 0.5963-28.892 0.1448-43.311-0.2169-7.86-2.4576-15.503-2.4576-23.345 3.3429 0.6144 8.5825 3.8849 10.48-0.6686 6.6312-18.972 8.131-39.625 4.7159-59.428-3.4691-27.555-8.8898-54.911-9.3776-82.755 8.438 11.636 16.605 23.778 21.592 37.366 6.6494 17.78 12.16 35.957 18.774 53.754 3.8304 10.877 11.329 19.821 17.219 29.615-1.4817 1.2649-2.9631 2.5477-4.4088 3.8668 2.4392 3.1981 6.1796 4.8785 9.4861 7.0468-6.1073 23.778-14.401 47.557-14.039 72.42 1.1388 18.279 7.7031 35.539 14.224 52.461 3.0071 7.8037 8.1672 17.04 8.5458 25.461 0.3834 8.5326 2.4976 16.876 3.3229 25.571 0.6149 6.4806-0.1351 13.356-2.3123 19.503-2.0872 5.8929-6.6252 10.763-4.9808 17.475 0.895 3.653 3.4258 6.7369 6.4231 9.0098 12.76 9.6758 28.692 16.034 43.603 21.616 15.778 5.9071 33.609 6.2886 49.579 0.8766 6.1525-2.0851 12.954-6.3976 12.785-12.892-0.0077-0.2935-0.0303-0.5837-0.0673-0.8706-0.4862-3.7851-3.4408-6.9867-6.8138-8.8837zm-524.68-512.41c-0.2773 8.8177-1.374 18.042 1.504 26.55 2.6923 2.5657 6.2515 4.0472 9.3958 6.0709v4e-4c-3.144-2.0237-6.7037-3.5054-9.3958-6.071-2.8783-8.5083-1.7815-17.733-1.504-26.55zm10.701 72.21c0-1e-4 0-2e-4 -2e-4 -2e-4 0.1628-7.0286 0.4518-14.093-0.0178-21.086-0.2889-0.3615-0.7228-0.8989-1.1565-1.4365-0.4336-0.5375-0.8672-1.075-1.1563-1.4364 0.2891 0.3613 0.7225 0.8989 1.1563 1.4364 0.4337 0.5376 0.8676 1.0751 1.1566 1.4365 0.4694 6.9925 0.1805 14.057 0.0179 21.086zm5.2039-236.84c-1.1563 13.497-0.5239 27.103-2.132 40.564-2.7285 11.329-2.6742 23.056-2.873 34.638h-2e-4c0.1989-11.582 0.1447-23.309 2.8729-34.638 1.6083-13.461 0.9757-27.067 2.1322-40.564 0.1725-1.7654 0.266-3.5486 0.3348-5.3384-0.0689 1.7898-0.1624 3.5731-0.3347 5.3386zm55.543-207.59c-4.933 6.035-10.986 11.293-17.978 14.816-2.7826-1.7889-5.3663-5.8906-9.1246-4.0475-3.7946 4.6618-4.0475 11.311-8.0767 15.864-4.2283 2.8909-9.5043 0.542-14.166 0.6505-4.6438 0.5237-5.5835 6.0168-8.9442 8.42-5.818 4.3001-11.961 8.1668-17.617 12.666 4.4631-11.492 7.625-24.447 17.31-32.849 17.527-15.937 36.842-29.741 55.399-44.412 3.3607 3.2162 7.4261 6.306 11.817 2.6922-0.9396 9.1606-2.7284 18.809-8.6188 26.199z"/>
 <path d="m1920.9 823.09c-5.8541-9.0886-12.684-17.545-18.105-26.886-3.8488-6.0168 0.3253-12.973-0.4155-19.424-1.048-4.2463-6.4685-5.276-8.0045-9.1608-0.7769-9.1067 1.4275-18.105 2.8369-27.031-1.066-15.196-6.4146-29.542-10.299-44.124-2.1683-17.111-1.0662-34.439-1.608-51.64-0.7047-55.399-0.8313-110.82-3.09-166.18-0.4879-20.237-5.2037-40.058-11.148-59.302-3.1981-9.1066-6.0891-18.539-11.636-26.543-5.2039-7.3179-13.1-11.871-19.568-17.888-6.1252-5.6555-7.4624-15.07-14.636-19.713-12.052-6.6132-27.338-5.5109-38.396-14.112-6.0171-7.3719-4.3546-17.671-6.252-26.416-1.5901-3.9391-6.6311-3.1078-9.9559-3.9751-2.5656-13.136-3.8486-26.489-4.5712-39.824-0.6326-6.1614 4.2461-12.214 1.3551-18.231-5.6917-13.642-12.757-26.868-21.773-38.613-10.715-13.425-27.23-19.803-42.986-25.098-11.961-3.7402-24.772-4.4449-37.149-2.9814-12.305 1.4094-23.905 5.9988-36.065 8.0947-6.9385 1.3191-14.238 3.5957-18.864 9.2512-5.5833 6.794-7.1913 15.774-8.4381 24.212-1.7889 15.864-2.2405 31.964-0.271 47.828 1.6079 12.973 8.0948 24.555 11.456 37.059-12.829-0.2529-22.875-8.98-32.524-16.334-10.624-7.86-21.375-15.846-33.644-20.924-13.624-5.9086-28.567-7.2998-42.696-11.564-21.321-6.5587-41.666-15.973-63.204-21.863-16.117-4.3546-33.192-4.3546-48.93-10.173-17.274-6.1614-34.005-13.75-50.375-21.953-8.1852-3.5235-15.63-9.4861-18.105-18.376-2.2587-8.0045-7.6071-17.707-1.7346-25.296 3.9569-5.9445 2.168-13.949-1.9696-19.333-5.1135-7.1913-13.154-11.528-20.888-15.358-6.8302-3.2163-15.214-5.0954-22.206-1.3373-8.8538 4.9147-13.064 14.744-20.436 21.322-8.7452 8.637-20.707 15.105-25.242 27.157-3.9209 10.733 5.4749 20.255 5.276 30.807-2.3129 13.335-14.184 21.701-23.634 30.121-28.585 20.869-58.236 40.293-85.664 62.716-20.201 16.424-36.517 36.878-54.766 55.308-5.7458 4.8423-12.937 10.48-20.924 8.7091-6.6311-4.0835-10.191-11.654-16.714-15.937-15.575-10.046-36.228-11.708-53.104-3.9389-8.655 2.7283-14.546 10.245-22.803 13.624-4.6257 1.6263-7.8962-3.1981-10.444-6.2337-4.6436-6.3602-11.636-10.245-18.123-14.365-8.0768-4.9508-17.852-8.7996-27.374-6.071-11.365 3.1259-21.754 9.7933-29.651 18.52-5.0229 5.4026-7.4621 13.425-4.535 20.472 3.939 11.383 9.0706 22.441 15.395 32.722 3.415 6.3784 11.943 6.0712 16.37 11.13 1.0841 6.1796-3.8126 11.582-4.2101 17.671 1.9515 3.6679 6.6853 3.5053 9.721 5.8542-2.1321 8.2755-8.2753 14.636-13.046 21.484-6.7938-5.8543-16.352-3.9571-24.573-3.9029-8.456 1.1563-17.834 2.114-24.592 7.7876-5.3663 4.5533-2.9271 12.341-5.3663 18.051-9.9919 6.1434-21.448 10.39-29.578 19.153-7.0106 7.7154-13.172 16.226-18.322 25.278-1.7526 3.3969-3.9209 7.0468-3.3427 11.04 4.1376 5.9265 12.504 5.4929 18.268 9.197-1.319 3.975-2.8007 7.896-4.7159 11.618-9.0344 17.364-18.81 34.584-24.104 53.538-3.7764 12.72-3.2523 26.164-2.8187 39.263 1.5358 32.686 5.7096 65.156 9.1246 97.679 0.7227 14.166-9.3054 25.513-13.931 38.125-3.3969 9.6667 6.2156 16.479 7.878 25.152-1.2106 6.2518-7.6249 10.028-8.673 16.37-0.4878 5.3303 4.3907 11.925-1.0479 16.027-19.803 18.159-42.19 35.27-53.736 60.277-15.376 29.705-19.297 65.39-9.7751 97.517 8.601 31.746 20.454 62.463 30.699 93.686 1.608 5.1315 3.4511 10.48 2.6199 15.955-1.0302 7.4263-4.9508 14.057-6.2337 21.448-2.0959 12.106-1.2648 24.447-1.7708 36.679-3.6498 64.921-5.7819 129.93-11.13 194.76-2.7103 28.422-6.0711 56.772-9.0885 85.176-0.3433 3.0536-0.2169 6.1434 0.0543 9.2512 11.22-3.4692 23.056-2.5657 34.62-3.4873 7.6973-0.6144 15.467-3.162 23.182-1.4635 6.0347 2.0234 3.9752 9.5042 2.9813 14.202-7.2638 25.133-6.4507 51.911-2.6924 77.569 2.4951 17.034 6.5236 33.784 9.777 50.679 3.2561 16.908 3.3243 34.166 6.2648 50.932 1.7698 9.6792 3.3907 19.387 5.0994 29.077 1.5189 8.6149-0.1458 17.528 2.626 25.965 4.238 12.898 5.9268 14.027 19.644 14.395 1.0485 0.0282 2.1002-0.0114 3.1464 0.0483 10.544 0.6013 20.885-1.2677 31.304-2.3826 27.284-2.9196 53.32 7.7738 80.525 2.7706 13.791-2.5361 27.059-7.3187 40.148-12.348 3.7103-1.4255 7.6512-3.0609 9.8225-6.3899 3.2081-4.9182 1.0794-11.979-3.4524-15.713-4.5319-3.7339-10.745-4.7354-16.615-4.59-5.8701 0.1453-11.692 1.2905-17.564 1.2494-14.81-0.1036-31.065-7.8369-43.331-15.669-12.022-7.6759-21.676-19.066-27.134-32.255-5.4699-13.218-6.6429-28.057-3.5898-42.011 2.9686-13.568 1.3099-28.395 2.2546-42.385 1.6624-25.982 2.4754-52.201 8.1671-77.695 1.1564-5.3121 3.0356-11.636 8.8538-13.479 12.576-4.1558 26.037 0.7227 38.812-2.0599 5.8723-1.4094 8.4922-7.9321 8.167-13.443-0.5601-9.9197-4.9869-19.081-5.9084-28.946-4.2281-52.869-7.6793-105.81-8.9441-158.84-2.3669-67.505-0.6685-135.12 3.0536-202.55 1.8612-34.565 6.9566-68.824 13.244-102.83 2.1862-14.383 8.5646-28.332 6.848-43.13-1.7707-14.256-6.1251-28.006-10.01-41.775 2.7824-1.7527 6.2699-3.4331 6.1071-7.2637-0.1987-4.5895 2.6923-7.7697 5.6194-10.877 0.9214-11.438 0.4877-22.983 1.5538-34.421 0.7227-4.9327 5.8181-7.6429 7.3179-12.287 7.8057-20.309 6.8661-42.371 9.233-63.656 0.4518-2.9271 0.4337-6.4143 2.9272-8.4742 6.6313-5.8 15.449-7.8418 23.29-11.437 10.371-4.7341 21.249-9.1067 29.904-16.714 8.1309-8.9621 9.9198-21.827 9.6489-33.481-0.0182-7.7877-3.4875-15.033-7.3902-21.574-13.588-20.508-28.765-39.95-41.865-60.783-4.2281-5.9807 3.6317-12.702 0.2349-18.9-2.2766-4.716-7.0287-7.3901-10.335-11.257-2.0959-2.909-1.0842-6.7035-1.048-9.9739 5.782 2.1863 10.552 7.8237 17.274 6.7216 6.8661-0.3614 7.3359-8.5826 10.39-13.154 2.9632 0.5601 6.6313 3.0175 9.4138 0.6324 2.6923-2.9814 3.668-7.0468 5.258-10.66 3.5776 0.3975 7.4444 1.3552 10.896-0.2711 3.7402-2.4754 2.9993-7.6069 4.1558-11.383 6.0891 1.4635 11.275 5.6375 17.599 6.2337 3.5773 0.1989 5.6553-3.0897 6.7214-6.0349 3.5234-9.992 3.9027-20.797 7.2274-30.861 2.6923-7.7695 11.727-10.48 15.268-17.671 2.2225-4.2823 3.668-9.1066 7.2819-12.522 35.577-37.24 72.04-73.648 107.35-111.14 11.419-11.727 18.412-26.868 29.38-38.956 13.967-15.611 28.982-30.229 43.654-45.19 4.3185-4.2461 6.5769-10.118 11.022-14.238 3.7402-1.2647 6.4326 3.0536 9.2878 4.8418 34.403 29.94 67.198 61.723 102.45 90.705 36.3 30.374 76.394 55.724 116.11 81.327 26.11 17.075 53.086 32.885 78.382 51.171 10.39 7.5889 6.1614 22.676 13.407 32.018 7.4082 5.5832 15.612-3.686 23.634-1.7346 7.2275 1.3733 17.129 2.8369 19.966 10.697 0.4155 12.829-2.3671 25.531-4.2279 38.179-6.9568 38.251-12.215 76.792-15.991 115.5-7.7875 68.553-14.455 137.23-22.712 205.73-2.7828 14.581-3.4875 29.976-9.9199 43.546-0.8312 2.4754 1.7889 3.8305 3.7402 4.3365 11.51 3.3428 23.797 4.4631 34.656 9.8475 9.2332 5.3303 11.311 16.75 17.237 24.826 0.8495 1.4636 2.837 0.9214 4.2283 1.3009 1.5358-9.3776-2.873-18.502-1.7524-27.952 6.8478-1.7346 13.624 1.6443 20.038 3.7764 9.5762 4.1196 21.122 8.8536 24.158 19.966 4.8241 21.393 3.1981 43.492 3.6499 65.264 0.3613 36.752-0.1809 73.702 4.5533 110.24 3.6136 26.489 13.352 51.55 22.315 76.575 5.5831 15.557 9.4137 31.675 13.479 47.684 5.8181 24.122 11.708 48.28 15.521 72.817 2.3309 13.028 1.8973 26.308 1.1021 39.462-2.0594 35.939 15.323 68.752 22.46 103.17 1.825 10.281-5.222 20.201-2.4937 30.392 3.3789 7.6793 13.19 4.4449 19.46 3.2163 6.8839-0.9938 16.334-5.5833 21.827 0.5421 2.3527 9.551 3.183 19.349 3.7169 29.176 0.0592 1.0919 0.1149 2.1841 0.1686 3.2764 5.8624 12.78 3.7725 25.557 2.4025 38.554-0.1248 1.1815-0.2432 2.3649-0.3375 3.5557-0.0029 1.0043-0.0056 2.01-0.0084 3.0179s-0.0057 2.0181-0.0095 3.0313c4.0593 12.826 2.7041 25.022-0.182 37.211 0.0045 1.2041 0.0071 2.4081 0.0081 3.6119 0.0054 6.0198-0.0322 12.039-0.1256 18.057-0.8451 0.4932-1.728 0.9333-2.5254 1.3523-13.024 6.8412-26.808 11.945-40.308 17.714-12.284 5.2498-24.64 9.015-37.93 7.4208-9.3472-1.1213-13.728 4.8687-17.484 11.104-2.1128 3.5074-1.9186 8.3605 1.1427 12.386 6.472 8.5116 15.418 13.379 24.696 18.119 13.1 6.6927 27.343 7.901 41.483 9.3354 4.7932 0.4863 9.9873-1.017 14.742-2.4564 22.119-6.6954 44.788-7.2129 67.593-6.6079 1.198 0.0317 2.4791 0.0752 3.5905-0.2882 8.6467-2.8276 18.797-4.5396 25.674-10.971 5.1227-4.7908 4.8364-10.991 3.7462-17.378-0.9113-5.3405-0.9753-10.868 0.6776-16.082 1.0625-3.3518 1.5212-7.2094 1.1998-10.846-0.3456-3.9084-2.0465-7.7318-1.5972-11.693 0.3954-3.4857 0.8256-6.9673 1.2767-10.446 0.9264-7.1418 1.9451-14.271 2.9401-21.403 0.25-1.7915 0.4984-3.5833 0.7441-5.3757l1.0813-21.682c1.2635-9.7722 2.3583-19.566 2.9838-29.402 0.9216-19.659-2.15-39.209-1.4635-58.85 5.9625 1.283 10.227 6.288 16.081 7.8237 3.5054 0.3254 4.8605-3.7943 4.9508-6.613 0.7588-13.244-1.2468-26.525 0.0541-39.751 3.1802-37.167 9.8475-74.57 4.8607-111.9-3.4332-22.893-8.4021-45.678-8.6007-68.914-2.5659-93.939 0.3612-188 8.0946-281.64 0.7771-7.2275 1.2108-14.509 2.3491-21.682 1.5358-10.606 6.7214-20.291 8.0586-30.934 2.8547-18.484 4.3546-37.185 4.6256-55.886 0.3428-21.972-6.0717-44.034-18.394-62.229zm-345.78-441.6c14.871 2.3308 26.886 11.781 38.938 20.056 1.6079 1.0299 2.5295 2.5115 2.7644 4.4628-14.852-6.2697-29.524-13.931-41.702-24.519z"/>
</svg>
