<?xml version="1.0" encoding="UTF-8" standalone="no"?>
<svg
   xmlns:dc="http://purl.org/dc/elements/1.1/"
   xmlns:cc="http://creativecommons.org/ns#"
   xmlns:rdf="http://www.w3.org/1999/02/22-rdf-syntax-ns#"
   xmlns:svg="http://www.w3.org/2000/svg"
   xmlns="http://www.w3.org/2000/svg"
   xmlns:sodipodi="http://sodipodi.sourceforge.net/DTD/sodipodi-0.dtd"
   xmlns:inkscape="http://www.inkscape.org/namespaces/inkscape"
   version="1.1"
   id="Layer_1"
   x="0px"
   y="0px"
   viewBox="0 0 984.83414 1233.4685"
   enable-background="new 0 0 3161.299 4000"
   sodipodi:docname="together_dynamic_mixed16.svg"
   width="984.83417"
   height="1233.4685"
   inkscape:version="1.0.2 (e86c870879, 2021-01-15)">
  <metadata
     id="metadata9">
    <rdf:RDF>
      <cc:Work
         rdf:about="">
        <dc:format>image/svg+xml</dc:format>
        <dc:type
           rdf:resource="http://purl.org/dc/dcmitype/StillImage" />
        <dc:title></dc:title>
      </cc:Work>
    </rdf:RDF>
  </metadata>
  <defs
     id="defs7" />
  <sodipodi:namedview
     pagecolor="#ffffff"
     bordercolor="#666666"
     borderopacity="1"
     objecttolerance="10"
     gridtolerance="10"
     guidetolerance="10"
     inkscape:pageopacity="0"
     inkscape:pageshadow="2"
     inkscape:window-width="1920"
     inkscape:window-height="997"
     id="namedview5"
     showgrid="false"
     fit-margin-top="0"
     fit-margin-left="0"
     fit-margin-right="0"
     fit-margin-bottom="0"
     inkscape:zoom="0.41204571"
     inkscape:cx="-44.762805"
     inkscape:cy="397.58694"
     inkscape:window-x="0"
     inkscape:window-y="0"
     inkscape:window-maximized="1"
     inkscape:current-layer="Layer_1" />
  <rect
     style="fill:#ffffff;stroke-width:5.66929;stroke-linecap:square;stroke-linejoin:round;stroke-dasharray:11.3386, 11.3386"
     id="rect834"
     width="984.83417"
     height="1233.4685"
     x="0"
     y="0" />
  <path
     d="m 935.22489,1044.2441 c -4.0714,-3.3228 -9.5777,-3.407 -14.0398,-5.9069 -11.3136,-5.7409 -13.1843,-8.3156 -22.3625,-17.9955 -1.4028,-1.1393 -1.2129,-3.5969 0.4327,-4.3988 -0.2743,-1.2868 -0.5802,-2.5421 -0.9494,-3.7659 -1.9724,-2.4999 -1.9197,-5.4745 -0.348,-8.1749 0.3059,-1.5297 1.3713,-3.0378 3.1118,-2.9219 l 0.907,-0.1159 c 10.8327,-8.38203 23.9048,-22.10283 27.7846,-34.59863 1.7616,-4.7256 5.7065,-8.3331 6.9935,-13.2909 1.8671,-5.3058 -0.211,-10.9069 0.6327,-16.276 1.5929,-2.5211 2.7846,-5.5696 1.5505,-8.5126 -1.8466,-3.838 -0.013,-5.6827 -0.7595,-11.7403 -0.2953,-1.4346 -0.074,-3.0063 1.0233,-4.0296 -0.5814,-1.5772 -2.146,-4.1107 -0.3164,-7.2573 0.7778,-1.778 1.2421,-14.5193 -0.6751,-19.4513 -2.443,-7.0423 0.6748,-11.5195 -2.099,-18.5125 -3.1856,-8.5968 -4.5569,-17.6897 -7.1095,-26.4657 -1.2553,-4.8101 -3.4176,-9.3249 -4.5887,-14.1558 -3.4336,-11.6539 3.1667,-10.8413 -5.4639,-28.6917 -2.3522,-4.9366 -6.9724,-8.5547 -8.4599,-13.9344 -1.1496,-4.1244 -1.9618,-8.3439 -3.3964,-12.3838 -1.3186,-3.2068 -2.9854,-6.2761 -3.9451,-9.6095 -0.9389,-2.7744 -1.4979,-5.8649 -3.6814,-7.9745 -10.1545,-10.3169 -3.132,-2.5922 -25.2422,-58.0477 -5.5009,-11.0615 -3.149,-14.9992 -20.7908,-44.5984 -25.4098,-48.519 -22.3929,-49.1396 -33.1746,-64.7881 -1.8883,-2.8797 -2.8271,-6.2764 -4.8522,-9.0717 -4.5675,-5.6855 -7.827,-12.3626 -12.9744,-17.6051 -8.882,-9.1018 -13.6322,-11.2835 -32.1619,-19.5779 -4.5254,-2.099 -5.7174,-7.4893 -9.4408,-10.4956 -4.9894,-4.9788 -12.542,-3.9873 -18.829,-5.7383 -4.3037,-1.1393 -9.5041,-0.6329 -12.637,-4.3882 0.4113,-0.8967 0.8334,-1.8037 1.2659,-2.6898 13.9696,-4.3098 11.2867,-10.1935 16.5292,-16.8563 8.9871,-10.4744 17.1412,-21.9827 22.0566,-34.9571 0.6857,-7.6477 2.3522,-15.4956 0.791,-23.1115 -0.9179,-1.6665 -1.0021,-3.6392 0.032,-5.2743 1.2447,-2.3943 -0.2322,-4.9893 -0.844,-7.3312 -1.8223,-4.6872 0.4442,-8.384 -1.7931,-13.7551 -0.2217,-3.9345 -5.3058,-5.4639 -6.7089,-9.0399 -3.9875,-9.1137 -10.0105,-17.2572 -17.3732,-23.9237 -2.7216,-2.3521 -3.6495,-6.0653 -6.2443,-8.502 -16.4444,-12.2094 -30.3905,-15.7602 -46.0121,-19.4933 -4.6729,1.6771 -9.5989,0.1792 -14.3878,0.6962 -2.8588,0.7068 -5.5169,2.0781 -8.4281,2.6053 -2.5681,1.8178 -5.4625,-0.4356 -8.3966,1.0128 -3.8091,2.1766 -4.9269,0.3929 -6.6665,-1.4028 -10.583,-1.4916 -15.8155,9.6547 -19.5885,14.0186 -0.5275,0.1899 -1.5929,0.559 -2.1202,0.7383 -1.9936,-0.4009 -3.5126,1.4346 -4.7573,2.7005 -4.7233,6.0888 -3.8713,8.7614 -3.8713,12.9005 -0.2532,5.8333 5.4006,9.3142 9.6622,12.1621 1.4664,0.7175 1.4558,2.9537 0.1793,3.8713 -2.8379,2.7271 -2.9814,3.3531 -5.3585,5.4009 -5.9505,5.7614 -1.7376,7.3996 -4.0505,10.5801 -2.7005,7.4893 -10.4533,10.7697 -16.1706,15.5376 -4.251,3.6075 -9.4935,6.1075 -12.985,10.559 -1.308,1.5084 -0.6435,3.6498 -0.8652,5.4745 3.1146,6.1143 10.8106,10.0783 7.9008,14.7045 -1.0021,3.1644 -1.076,6.5717 -2.1202,9.7467 -1.3185,3.4388 0.4534,6.9302 0.464,10.4005 -0.2005,5.0211 -6.1495,7.7743 -6.1813,12.7636 0.2156,4.3553 -1.4861,7.7142 6.0653,12.7212 4.9788,2.7744 9.7149,6.0233 14.968,8.3016 5.1056,2.3943 10.5589,4.4936 14.6834,8.4808 10.2942,9.9555 2.4283,21.9275 13.2278,29.0923 1.784,0.4969 2.5166,1.5357 2.9201,3.3044 1.1081,4.8591 7.5108,6.8063 -1.6648,14.4694 -2.2551,1.7319 -10.7591,8.7836 -11.2004,11.7086 -1.2608,8.3573 2.1144,4.7304 3.5,8.4493 1.6351,2.5844 5.7068,4.0823 5.0421,7.7531 -1.8316,5.3934 -6.033,4.5239 -13.5547,14.1136 -0.5484,2.0043 -2.0042,3.4597 -4.0296,3.9664 -2.5449,1.5671 -3.8466,4.1267 -14.1982,15.2635 -0.232,2.4155 -2.0357,4.1351 -4.1665,5.0421 -1.4735,1.3177 -3.9202,3.9924 -10.2857,9.1206 -8.4155,6.7799 -9.0754,2.7125 -21.9501,7.8622 l -1.0654,0.5908 c -1.4961,3.2131 -3.2578,2.4124 -6.3924,1.825 -5.697,-1.5752 -8.7973,-3.7748 -30.0592,-17.6321 -21.8404,-14.2346 -24.9636,-18.0955 -53.874,-47.4616 -4.1359,-4.5205 -4.8364,-9.0994 -6.1392,-12.6476 -0.285,-4.3458 -1.3501,-8.6392 -2.268,-12.9008 -1.2553,-5.8331 -5.8122,-9.9999 -9.1771,-14.6516 -2.6371,-4.1244 -4.641,-8.6285 -7.3945,-12.6791 -2.7319,-3.9663 -3.6495,-9.1452 -7.2676,-12.4471 -2.5212,-1.2447 -4.3988,-3.3122 -5.8966,-5.6329 -0.8332,-0.844 -1.8459,-1.4767 -2.7529,-2.1835 -3.9978,0.9282 -6.6456,4.4621 -10.5271,5.5696 -10.2425,-4.1665 -19.7678,-10.1053 -27.8267,-17.7003 -3.4388,-3.2594 -7.7213,-5.8542 -9.8942,-10.2212 -1.9833,-3.808 -3.5972,-7.9745 -6.8355,-10.9387 -5.1007,-4.9263 -13.6563,-4.0333 -14.8732,-7.2467 -2.7062,-4.0588 -5.2202,-4.7325 -6.1326,-7.6394 -1.245,0.1879 -2.2901,-0.8781 -3.0883,-1.8518 -6.6344,-8.0942 -6.1779,-7.8846 -7.5463,-10.6707 -0.8849,-1.802 -4.1905,-5.646 -7.8318,-10.7344 2.9728,-10.5254 1.0955,-20.0201 -0.6644,-22.2042 -0.8335,-0.844 -1.1605,-1.8249 -0.9495,-2.9536 -0.9282,-8.2382 -6.5928,-15.3269 -12.5737,-20.8014 -2.1096,-4.3143 -0.8122,-9.3775 -0.1793,-13.9238 1.2974,-8.2067 2.8268,-16.4658 5.9915,-24.1874 6.1538,-18.963 4.7642,-9.9148 4.9048,-31.4869 -1.5508,-20.0476 -22.1454,-24.4008 -47.9636,-59.0498 -1.8249,-6.4133 0.728,-13.0904 -0.3165,-19.6306 l -0.4642,-0.6435 c -0.4746,-0.2532 -1.424,-0.7595 -1.8986,-1.0127 0.4537,1.4346 0.8332,2.9006 1.1496,4.3882 -3.0905,-2.9536 -4.6516,-7.0251 -6.8248,-10.6116 -0.3488,-1.9504 1.6284,-4.9487 1.4767,-4.6623 -1.5595,-2.8895 -5.0006,-8.0189 -2.4473,-14.4723 1.0757,-3.2068 3.2065,-6.4133 1.751,-9.8627 1.6772,-1.1707 3.4809,-2.1096 5.3376,-2.943 0.5591,-0.074 1.6772,-0.2216 2.2468,-0.2953 2.6899,-2.0675 4.9999,-4.6307 7.8797,-6.445 4.3988,-0.6751 7.0989,4.4196 11.561,3.4808 7.9367,1.0442 7.676,-13.9871 12.0886,-27.0883 2.2256,-5.7595 8.9871,-6.4134 13.2275,-10.0211 4.3249,-2.9851 5.8016,-8.3224 8.4073,-12.6158 2.542,-3.9979 5.5589,-7.8058 6.6558,-12.5208 1.7405,-6.118 8.7761,-7.8796 11.793,-13.1643 3.2025,-6.291 3.9896,-4.6533 3.6602,-11.888 -1.3114,-6.2189 -0.9354,-19.3686 -1.1605,-23.5652 -0.2637,-0.4851 -0.8122,-1.4557 -1.076,-1.9515 l -0.021,-1.5084 c -0.4299,-0.573401 -1.2235,-1.689501 -1.192,-1.645701 -8e-4,0 -0.8755,-2.1938 -0.8755,-2.1938 -2.5569,-5.2305 -3.4462,-10.2441 -3.3755,-9.9577 -0.1984,-0.1982 -1.2727,-1.3407 -1.2026,-1.2659 -1.0651,-0.5697 -1.6347,-1.424 -1.7192,-2.5527 l -0.1475,-1.4346 c -1.2481,-1.9581 -0.6979,-0.5888 -2.0148,-3.6601 l -0.042,-1.424 c -0.05,-0.061 -1.3424,-1.5168 -1.2974,-1.4663 -2.1689,-1.0339 -1.6508,-3.3664 -1.6559,-3.08 -7.2937,-6.4534 -7.6337,-13.947 -12.985,-16.7614 -0.2249,-0.1183 -0.5273,-0.3382 -0.4958,-0.3162 -0.612,-0.3271 -1.8458,-0.9706 -2.4685,-1.2871 -1.1601,-0.1477 -1.9515,-0.7701 -2.3627,-1.8776 -1.4277,-2.6177 -16.0123,-10.1568 -26.1705,-8.8082 -0.4958,-0.2213 -1.4979,-0.675 -1.9936,-0.8964 -3.1879,-0.3508 -27.2276,-0.6882 -30.6326,0.58 -6.5084,2.384 -13.5652,2.8058 -19.8837,5.77 -3.692,1.7514 -7.827,1.54 -11.6982,2.3207 -1.2132,0.6751 -2.5842,1.1287 -3.9663,0.8122 -2.4158,-0.3903 -4.652,0.8438 -6.8355,1.6772 -15.1061,6.7882 -19.6051,13.6806 -26.1072,19.6727 -2.9854,3.5441 -7.6686,5.4324 -9.8418,9.6728 -2.4472,4.6201 -5.6434,8.9556 -6.8354,14.1348 -1.0989,4.615101 -3.0006,8.999201 -4.0216,13.634901 -0.468,2.1245 -0.3572,4.1885 -0.7028,6.2824 -0.425,2.5739 -0.9555,5.1348 -1.4326,7.6995 -0.8492,4.5635 0.7197,2.3327 -2.1972,10.5996 -5.3986,10.0142 -4.9579,9.8959 -16.7827,19.3565 -20.364,17.0659 -13.1794,8.3322 -24.1768,21.9512 -3.3317,4.9865 -6.5763,11.7724 -6.7089,17.8793 1.3172,5.4401 -2.7589,7.5537 -0.7804,13.428 0.675,1.2026 1.1602,2.5633 0.8543,3.9664 0.042,8.3436 5.3691,15.6009 9.7467,22.3731 1.1393,1.2026 0.9915,3.0802 -0.021,4.3037 -1.0021,1.5611 -1.9303,3.2701 -3.4809,4.367 -7.2542,4.719 -25.7672,13.8453 -19.5355,32.32 1.5718,3.3122 3.5336,6.4345 4.7892,9.8839 l 0.1372,0.3585 c -0.401,1.4873 -0.6015,3.1012 -1.4243,4.4515 -1.8458,1.8038 -4.5672,2.9534 -5.0632,5.7707 -1.3848,7.8541 -16.0781,5.8723 -19.9373,8.479 -0.7071,0.4778 -3.155799,4.5062 -3.901899,4.3473 0.6435,0.1372 1.9197,0.4115 2.5632,0.5484 -2.5947,3.5654 -7.0041,5.0633 -9.7784,8.4599 -9.0247,8.8867 -9.4033,10.2136 -12.4575,17.5737 -1.5073,8.1873 -1.4391,6.3618 -5.4957,11.329 -2.4281,3.2415 -2.9144,6.9758 -3.0369,11.0527 -0.1716,5.7033 -2.3244,11.5292 0.864,16.8583 3.6499,5.9493 10.0105,9.0716 15.8015,12.4892 0.7595,4.2192 -1.3607,8.4175 -4.3567,11.2866 -7.473,6.8914 -18.6219,8.3125 -20.3162,20.58 -15.0087,10.3983 -21.178,22.9797 -21.5397,34.9363 3.0043,11.7678 3.7486,11.3138 15.3795,20.7592 3.8292,4.0506 8.2174,7.711 13.5229,9.6413 7.6812,3.3752 19.0603,0.999 17.3732,12.5105 -3.3228,1.9515 -6.635,3.9663 -9.2722,6.8354 -1.1393,-1.4766 -2.2574,-2.943 -3.4282,-4.3776 0.042,2.5106 0.6542,4.9473 1.0654,7.4155 -1.8212,6.5101 -3.1457,4.0173 0.1054,12.7003 2.848,4.0084 7.8903,5.6643 10.77,9.6413 4.4899,6.0851 2.2027,16.8362 -9.4829,18.1433 -16.1926,1.6236 -15.0788,-3.4079 -19.5146,-8.9978 0.7596,4.4936 3.7238,9.1665 8.4599,10.1159 8.3649,2.384 20.0525,1.1287 24.0397,-7.7846 2.4685,-3.9557 1.2762,-8.6392 -0.063,-12.7424 1.9939,2.0781 4.1141,4.3355 4.4303,7.3521 -2.9367,18.8604 -25.7632,19.9596 -34.4193,13.0377 -4.3764,-3.3351 -8.6804,-13.3908 -5.8333,-26.6662 -3.6708,5.9072 -5.5169,12.7212 -7.5211,19.3247 -1.9198,-4.9788 0.4218,-10.2425 1.5084,-15.1476 -5.886,8.4281 -5.9178,21.0757 1.2235,28.8076 7.7425,7.7004 19.1242,10.8333 29.8412,9.4196 -1.5929,1.7617 -2.4787,4.7153 -5.1053,5.2425 -23.2017,-1.0568 -31.3448,-18.0399 -33.4596,-20.4955 1.7408,9.4936 9.4197,16.6349 17.1094,21.8035 l -0.4536,-0.7804 c -1.8564,-1.7932 -4.2298,-3.1435 -5.4324,-5.5275 7.0462,3.8397 14.5567,6.8355 22.6369,7.4472 -3.3411,8.4024 -2.2348,13.9593 2.5526,19.968 -1.1527,-6.2086 -4.8527,-9.1651 -0.3373,-19.9153 4.9472,-0.675 10.021,-1.9197 13.7445,-5.4745 6.519,-5.7806 12.679099,-12.9217 21.455499,-15.1264 9.6519,-3.1962 15.4744,-12.3838 19.5146,-21.1599 0.4957,13.7972 -6.5399,26.6453 -5.4639,40.4952 0.9282,2.215 2.6898,3.924 4.3776,5.5908 2.0887,0.8543 4.367,1.0442 6.5928,1.2341 1.0972,0.443 3.3755,1.4557 2.9749,-1.0548 l 1.3291,-0.8017 c 0.021,-0.4639 0.063,-1.403 0.084,-1.867 -8.7884,3.5396 -13.9103,-0.4934 -11.8881,-9.8312 2.0463,-6.1392 4.6414,-12.0885 6.6456,-18.2381 2.6581,-1.7195 5.0947,-3.8712 8.0378,-5.095 2.3101,-0.3059 4.6516,-0.116 6.9617,-0.4218 4.483,-1.6772 8.0169,-6.1287 8.0696,-11.002 0.5501,-5.8488 -2.4413,-10.6048 13.2487,-14.5674 -3.0275,2.5527 -7.0674,4.2195 -8.8608,7.9639 -2.3416,4.8101 1.2238,11.0338 -2.848,15.1791 -3.2804,3.7764 -8.734,3.2595 -13.2381,3.2277 -1.9619,1.8988 -3.5548,4.2616 -2.901,7.1625 1.0972,-1.2871 2.1626,-2.5844 3.228,-3.8818 3.9028,0.327 7.8373,0.5063 11.7403,0.011 -5.7437,11.3929 -9.8919,23.5238 -15.6069,34.9268 -14.7246,24.3031 -47.708499,89.1344 -60.090599,113.8744 -13.6116,27.1963 -7.9653,12.2546 -19.5962,42.7257 -0.2953,1.234 -1.3713,2.7849 -0.3589,3.9663 2.7005,4.1244 8.1538,4.4094 12.2785,6.403 25.5831,10.5686 48.487999,15.4643 53.607099,14.9832 10.0881,-0.9477 18.5506,-1.2754 26.2968,-8.4118 3.2171,-2.964 -0.095,-7.8058 3.0905,-10.7594 2.6792,0.021 5.1686,1.5187 7.8373,1.2447 1.3924,-0.3374 2.827,-0.042 4.0611,0.675 1.5188,0.791 3.3225,0.3483 4.9681,0.5064 3.3122,-3.1435 2.8165,-8.8079 7.152,-11.0759 1.6559,-1.8249 3.3648,0.4851 4.8206,1.3922 -0.2492,7.3163 0.5857,7.7069 -0.6856,10.654 -0.6012,1.5717 -0.4534,3.3122 -0.5064,4.9893 0.4247,20.289 -0.3614,38.7001 0.401,42.7102 0.907,2.2259 1.1393,4.6202 0.7701,7.0042 -0.5696,5.3797 1.2235,10.6328 0.9703,16.0019 -0.1687,6.35 0.074,12.7109 -0.1584,19.0609 -0.2551,6.9775 -4.5368,19.4232 -5.0474,33.3367 -0.155,4.2238 0.5659,8.2852 -0.9125,12.3802 -1.3604,7.5809 -3.1845,8.5888 -17.12,21.9933 -54.0699,65.9446 -49.7883,81.5896 -63.5749,115.35683 -28.000799,68.5803 -33.515999,85.0814 -46.307099,100.3573 -0.6118,0 -1.8461,0.011 -2.4685,0.011 l -0.6011,1.3818 c -0.9388,1.7829 -3.46,0.7175 -5.0421,0.6963 -4.926,1.1708 -0.7174,6.5505 -1.1708,9.7888 -1.0548,1.7825 -2.3312,3.4281 -3.4387,5.1898 2.2654,8.768 -2.3534,4.8842 -2.9007,13.0062 -0.2849,6.35 -0.3482,12.7106 0.1581,19.0718 -0.6412,9.9864 12.2358,5.6409 19.8944,8.6704 l 0.8546,0.232 c 4.8415,0.2322 9.694,0.4642 14.504,1.076 2.8462,0.362 12.8083,-0.078 19.8465,2.1926 10.043199,3.24 19.502299,3.8315 30.005099,3.3875 3.5651,-1.3606 7.2782,-2.5526 10.5271,-4.5568 1.8799,-1.1597 3.7346,-7.4381 3.4852,-9.6651 -0.3594,-3.2091 -4.7184,-7.3581 -7.1138,-9.4698 -3.7235,-3.3439 -7.0463,-7.4472 -11.8878,-9.1667 -3.1828,-1.027 -8.5576,-5.4149 -5.7595,-8.4599 1.6485,-3.1724 7.3593,-5.6778 7.3825,-9.2716 0.064,-9.7928 -11.657,-0.073 51.4877,-96.3388 0.5591,-1.466 3.228,-1.6032 3.576,0.063 6.716,23.9664 21.8304,92.1783 21.5351,117.2536 -0.031,2.5922 -0.667,5.5166 -0.3829,8.0716 0.25,2.2476 0.9987,3.9173 0.771,6.3282 -0.3491,3.6971 -1.8676,7.9158 0.7329,10.7786 10.0107,11.0206 34.6773,6.3423 63.1441,8.1036 7.3312,0.4537 14.6942,-0.011 22.004,0.844 8.5547,0.8123 17.2151,0.5697 25.7274,-0.5802 9.1959,-2.1574 9.5657,-4.1694 9.2194,-9.578 -0.3906,-4.0156 0.4356,-7.0823 -2.6858,-10.3768 -1.5119,-1.5955 -5.3625,-4.8521 -7.6351,-5.03 -1.4558,-0.114 -3.183,2.0627 -4.5732,0.2698 -0.3271,-0.4219 -0.9809,-1.2447 -1.308,-1.656 -0.8334,0.2847 -1.6668,0.5909 -2.4896,0.9071 -2.3628,-2.0357 -4.5675,-4.5148 -7.7213,-5.2637 -1.825,-0.4431 -2.9431,-2.0569 -4.2192,-3.2701 0.4218,-3.1538 0.5905,-6.4663 -0.8332,-9.3987 -2.9754,-6.757 -4.2132,-6.5147 -12.637,-5.9388 -1.2026,2.0148 -2.5,4.0717 -2.6266,6.5084 0.095,2.0463 -2.7743,3.0063 -3.9239,1.3292 -7.2046,-7.6371 -11.3814,-17.7003 -12.9005,-28.006 -7.9524,-36.8153 -8.3703,-119.65483 -6.1919,-135.39893 0.5304,-20.0029 -0.348,-43.568 -0.4895,-45.5347 -0.3058,-4.2556 -2.8771,-9.1862 -0.8712,-13.03 7.1897,-13.7774 27.0288,-27.0883 32.4784,-45.0203 3.8606,-9.2721 7.6898,-18.6391 9.4829,-28.5753 7.1519,-36.8454 24.4827,-70.6109 34.1346,-106.7285 3.0527,-11.6916 3.2996,-16.4269 7.31,-15.928 l 0.9704,-0.074 c 1.3185,-1.5718 2.9112,-3.1011 3.2807,-5.2004 0.7171,-5.3797 4.5671,-9.6516 5.3585,-15.021 0.1056,-1.2447 0.7804,-1.9198 2.0042,-2.0463 14.557,-3.2484 11.2775,-6.8366 17.5206,-11.0759 2.7638,-1.5297 7.0569,-2.1202 7.4999,-5.9388 -1.2366,-10.6623 0.1037,-15.8289 -0.9179,-21.8664 -0.8849,-5.2311 1.1027,-13.0867 -0.045,-20.755 -0.2002,-1.3378 -0.9661,-3.0209 -0.7149,-4.3401 -1.8401,-20.6347 -9.0799,-58.8805 -8.2803,-84.6927 -0.4047,-4.6208 -2.7022,-11.1744 -0.2847,-24.8519 0.3308,-1.6293 0.6117,-3.2804 0.6117,-3.2804 1.0972,-0.675 2.9113,-0.8543 3.5866,0.5063 3.9437,5.5713 1.1462,13.5189 7.5732,12.9787 0.1458,-1.403 -1.0173,-3.9941 2.5954,-6.238 10.8542,-0.4528 8.856,3.0951 9.8205,4.9155 0.3137,3.7873 -3.3488,6.6693 -1.0599,10.4893 1.4841,2.4767 4.9945,5.1013 4.9945,5.1013 0.1922,0.26 1.7788,2.1543 1.9724,2.384 1.2235,0.791 0.9915,2.3943 0.032,3.3016 -0.6307,1.7075 -0.531,4.1802 -0.1922,5.976 0.5175,2.7442 3.3162,4.2395 4.6437,6.3657 0.041,0.065 1.2667,1.9157 1.2341,1.867 0.258,9.2768 2.6752,6.6147 2.0675,13.9027 l -0.285,0.3164 c -3.7856,8.8231 6.4351,13.3825 12.0989,21.1706 3.9342,5.3665 16.2319,15.2807 16.5188,15.4534 14.3732,10.3963 16.0111,6.1012 26.9721,19.1981 6.4451,9.9999 8.6919,21.9513 13.829,32.5838 3.1012,6.3712 4.8207,13.2806 7.5315,19.8099 5.7173,11.9723 8.713,25.0944 15.1896,36.7293 3.5969,8.0484 8.7234,15.2636 12.7213,23.0906 2.31,4.5884 5.9281,8.3542 8.1013,13.0165 2.0515,4.4016 4.4114,8.6721 6.8767,12.8532 5.6624,9.6047 6.958,9.7917 6.8784,11.7584 -0.1959,4.8464 -4.7204,0.9955 -14.2847,7.1737 -4.261,2.7526 -6.4187,6.3222 -10.9151,9.265 -3.7897,2.4799 -6.7533,6.0601 -10.0108,9.2337 -18.2716,16.0334 -7.7665,38.2782 -6.6138,46.1596 1.9974,13.2895 25.0615,43.5998 36.2548,69.4504 4.0927,7.3945 8.8182,14.4301 13.1855,21.6769 5.4112,8.8605 9.5883,18.6284 16.8247,26.2443 5.116,5.4851 7.8164,12.6052 11.9723,18.74453 4.0085,6.0229 7.4366,12.4153 10.6116,18.9131 3.9724,8.6707 9.5279,12.8344 10.2743,29.7253 0.2532,4.7149 2.4261,9.0292 3.7025,13.5231 1.3501,5.443 6.635,9.6095 12.2891,9.4829 5.3794,0.3798 6.8352,6.7195 7.3627,11.118 3.2626,12.2853 -2.0967,17.866 -4.3355,23.6284 -3.7512,10.2562 -16.0208,10.0162 -24.0924,21.3395 -4.1983,2.5632 -7.6685,6.8775 -8.5441,11.7403 0.063,1.5717 0.095,3.175 0.084,4.7889 0.4325,3.4914 3.8292,6.3818 7.0887,7.4157 19.8774,2.3155 25.0025,-2.9457 35.7588,0.042 1.5537,0.144 49.3603,0.321 63.6908,1.7192 5.4218,0.4958 10.8227,-0.464 16.2551,-0.4325 4.019,-0.5484 7.711,-2.3942 11.5295,-3.6813 6.7175,-1.5045 9.6958,-11.7862 7.526,-16.9164 -0.9929,-2.3476 -4.2289,-2.2711 -3.8025,-5.6143 0.2635,-2.066 -2.8219,-3.8406 -3.7455,-5.3782 -1.7175,-2.86 -1.1407,-6.2876 -2.3175,-9.2197 -1.3137,-3.273 -2.8606,-6.4993 -4.654,-9.5265 -1.9621,-3.3122 -6.4136,-1.6877 -9.2827,-3.4809 0.8173,-3.7927 2.786,-5.8508 0.8761,-8.8084 -2.0896,-3.1344 -4.8001,-6.4921 -5.6332,-10.2422 -1.8355,-7.2888 -4.4621,-14.4934 -4.4515,-22.0987 0.1146,-5.6209 -2.9946,-3.938 -2.2468,-17.7739 -0.3325,-3.4465 -4.2158,-5.5137 -10.0313,-11.6664 -2.3577,-2.5157 -2.2635,-1.7757 -2.3734,-5.9915 9.6882,-1.171 27.8782,3.714 37.2251,6.3712 29.7923,7.339 45.403,8.1635 66.9189,16.1074 8.0377,3.0378 16.9616,2.6265 24.9046,5.9702 4.6728,3.8501 9.7573,8.4069 16.2024,8.3439 4.0187,-0.042 7.869,2.0569 10.2318,5.2743 1.3418,1.827 3.0095,3.3655 4.2777,5.2251 1.2905,1.8925 2.2562,3.6066 3.9992,5.113 2.8935,2.5011 2.9728,4.884 4.2335,7.6153 0.058,5.838 0.3692,7.8385 0.3692,16.3393 2.2734,4.2373 3.2263,8.4728 1.0348,14.1676 -0.8985,2.335 -0.2658,5.0729 -2.7016,6.3912 -2.8268,1.8038 -2.2995,5.6644 -3.4809,8.4493 -1.5506,3.8395 -0.9494,7.9642 -0.053,11.8775 4.1702,8.6281 9.6319,7.4103 34.1555,6.7298 25.4061,-1.9781 36.453,-20.8661 35.4638,-24.4509 -0.3376,-1.1499 -0.084,-2.1414 0.7596,-2.9854 3.175,-5.791 7.4787,-11.0653 13.2908,-14.3563 4.4724,-2.3207 8.3542,-5.8016 13.2909,-7.1834 8.0111,-2.0727 15.5863,-15.8851 19.4464,-23.3919 1.2687,-2.4673 0.2598,-1.098 4.4458,-15.2469 1.9618,-6.7404 -2.2362,-13.5123 -7.8588,-16.9829 z M 164.35059,527.58517 c 0.327,-2.3207 0.8755,-4.8522 3.1223,-6.0759 -0.6859,2.1835 -1.7513,4.2298 -3.1223,6.0759 z m 25.2422,-375.6063 c 0.1793,3.6496 0.9176,7.426 -0.1266,11.0126 -6.8394,18.2745 -17.0919,19.6108 -29.2082,31.624 -2.6584,2.4473 -4.7995,5.3691 -7.2468,7.9957 4.9206,-18.7456 14.3703,-23.3182 36.5816,-50.6323 z m -63.8071,107.3611 c 4.1419,-9.4319 19.0612,-14.5498 23.8077,-17.4997 2.3556,7.1969 4.1235,28.8786 -8.6813,31.1598 -2.201,0.3921 -4.7408,-1.2673 -6.2069,-2.7093 -1.7312,-1.7027 -1.7693,-4.748 -3.8311,-6.1215 0.7833,4.7659 2.4945,7.8739 6.4514,10.6766 1.5612,0.1899 3.1435,0.401 4.6941,0.7068 -3.6382,1.255 -6.7281,-0.5579 -9.7754,-2.245 1.2169,0.6741 1.9129,2.1714 2.9789,3.0667 6.8185,5.7277 22.5335,-3.057 22.0809,-15.5786 0.3589,0.2005 1.076,0.6117 1.4346,0.8122 2.8691,4.2931 1.9724,9.7046 4.5463,14.1031 -4.7685,15.3613 -14.8079,15.5205 -19.8256,17.8747 -1.6465,0.7724 -2.9754,1.4976 -4.8788,1.4042 2.5183,-2.3324 -4.886,-9.4623 -9.4935,-14.9013 -5.39,-5.2634 -6.3394,-14.0292 -3.3013,-20.7487 z m -5.9073,40.3372 c 1.9409,-3.0272 3.7132,-6.3291 7.3839,-7.5632 0.3165,0.7489 0.9283,2.2574 1.2341,3.0169 -1.4239,3.5654 -4.578,5.8228 -8.0377,7.1728 -1.2868,-0.443 -2.5739,-0.8967 -3.8398,-1.3503 0.8125,-0.3165 2.4367,-0.9597 3.2595,-1.2762 z m -14.1346,4.2616 c 3.3122,-0.9494 6.8355,-2.268 10.3058,-1.8459 -0.7965,1.2542 -4.2361,2.5968 -5.728,3.1539 -2.3313,0.7807 -4.7677,1.1602 -7.1834,1.519 0.8755,-0.9391 1.7407,-1.8779 2.6056,-2.827 z m -14.292899,15.6748 c 6.2062,-5.8488 21.893099,-14.0985 30.052299,-15.2318 11.091,-4.8544 9.2477,-9.7298 8.9871,-18.4806 2.8798,3.0272 5.2743,6.5293 6.5399,10.5483 -3.0169,1.4978 -3.7973,4.5042 -3.175,7.6477 -6.1532,1.6072 -3.3371,1.2796 -14.4407,1.6456 -16.221,4.2871 -16.368,11.8088 -11.5611,17.3414 -2.8757,3.5691 -6.2039,2.5507 -22.868799,11.2445 -1.1708,1.3398 -2.5845,2.5 -4.4094,2.7638 1.1184,-6.8252 4.2407,-14.4516 10.8757,-17.4789 z m 43.501199,-17.6896 c -0.2953,-1.5506 0.2532,-2.3207 1.6457,-2.2995 0.2846,1.5399 -0.2638,2.3101 -1.6457,2.2995 z m -64.186899,60.0622 c 1.9727,0.9915 2.711,3.1856 4.0296,4.81 3.5442,4.7468 7.5632,9.2825 9.7679,14.8627 -10.0683,-5.5195 -14.0501,-9.5122 -13.7975,-19.6727 z m 4.0356,-9.9251 c 0.3469,-26.3277 63.524199,-13.3158 85.941999,-34.3357 -1.8613,11.6438 -13.4581,13.717 -20.6221,15.4217 -11.6518,3.1933 -41.271599,9.7472 -49.896199,26.3136 -4.0202,7.7222 -0.2752,11.8394 1.2438,13.9253 0.7375,1.0127 1.3504,2.0832 2.5072,2.6618 2.4194,2.1832 6.798199,5.0102 5.9542,8.8187 -0.1134,0.5112 -0.3111,1.0084 -0.3377,1.5314 -0.065,1.2822 1.049699,2.3104 0.919599,3.7971 0.038,-0.4385 -5.192399,-2.7154 -5.851899,-3.1235 -2.2259,-1.3767 -4.4246,-2.8141 -6.8163,-3.8936 -3.2231,-11.1632 -13.2253,-17.2463 -13.0426,-31.1168 z m 18.7597,62.8148 c -6.9515,4.0399 -13.9344,8.386 -19.2191,14.5567 -1.3924,1.5612 -2.0884,3.924 -4.346,4.4724 -7.4146,-23.3798 20.0596,-20.1968 30.980799,-36.972 0.559,0.042 1.6665,0.1372 2.215,0.1899 0.274,2.5424 0.8225,5.3691 -0.7702,7.6265 -2.3418,3.8186 -4.788799,7.9218 -8.860499,10.1265 z m 21.085999,-6.4133 c -2.502,5.0288 -11.7873,10.8822 -17.162099,12.4471 5.189799,-4.8207 11.761499,-7.8376 17.162099,-12.4471 z m -29.197699,-12.3206 c 2.0887,-2.5106 2.616,-5.791 3.175,-8.8924 3.3755,1.7511 6.5084,3.924 9.7994,5.8228 -0.095,2.5845 -2.384,4.135 -4.0187,5.8333 -8.6392,7.2995 -20.7911,8.3543 -29.3667,15.77 0.6785,-7.2032 14.6816,-10.5887 20.411,-18.5337 z m -29.9575,27.953 c -1.3134,3.1238 -14.0959,17.2661 -4.2931,44.451 -18.733,-14.1641 -6.2678,-35.5091 4.2931,-44.451 z m 8.1644,53.0375 c -18.8783,-11.6241 -14.6367,-41.9946 -4.6517,-52.0036 0,4.0505 1.192,8.3333 4.5569,10.8754 6.405,4.3959 -2.2337,16.4115 -9.42,15.021 -0.4851,-0.8755 -0.9491,-1.751 -1.3818,-2.6478 0.084,1.54 0.9915,2.732 1.983,3.8186 5.3058,1.1075 8.9872,-2.9218 12.6264,-5.9599 -0.021,8.5759 4.536,16.9301 11.2658,22.1514 4.2825,3.3967 6.2234,8.7234 8.1643,13.6497 -7.6368,-2.1096 -16.3181,-0.1266 -23.1429,-4.9048 z m -17.0989,59.1658 c 2.3101,3.7022 3.2595,8.0271 4.9367,12.0146 -3.7478,-3.2609 -5.5364,-3.9457 -4.9367,-12.0146 z m 1.9937,13.3329 c 5.0663,2.6464 10.3492,7.7236 24.0817,8.2595 -4.7911,-3.3609 -7.5806,-0.8154 -19.8625,-8.407 0.4324,-0.074 1.2764,-0.2216 1.6983,-0.2952 -2.0251,-3.1329 -4.3143,-6.5823 -3.5863,-10.5063 1.1181,3.8819 2.6899,7.943 6.1287,10.3585 10.7576,7.9882 34.134,5.4378 38.0585,-12.9217 1.5612,-7.3521 -5.7171,-11.8987 -11.3078,-14.6939 -4.9261,-2.1729 -7.3945,-8.1117 -5.3903,-13.1222 15.2656,-1.2227 15.7679,-19.9674 11.0231,-33.4596 6.7086,4.6729 14.282399,11.0547 14.145199,19.9891 0.3798,3.1117 -1.35,5.7595 -2.7952,8.3334 -2.078099,0.1053 -4.029599,-0.517 -5.590799,-1.9095 -0.232,-1.5399 -0.5169,-3.0908 -1.3503,-4.4302 -0.9916,4.3037 1.6771,8.8711 5.8754,10.1897 5.094699,-1.0863 9.493499,-5.6435 9.187699,-11.0547 1.5207,-15.8352 -15.586399,-24.9123 -22.531499,-28.9448 -4.5463,-2.3945 -6.9303,-7.194 -9.6305,-11.329 -4.9816,-7.2164 4.2705,-22.2881 10.0947,-24.4615 8.3648,-3.6287 17.151499,-6.5823 24.545999,-12.0989 -5.0168,9.6321 -34.015499,24.9965 -23.522699,36.9298 8.3591,9.4961 27.200599,16.0604 30.368799,39.8202 2.595,14.1455 -3.1856,28.5124 -11.7403,39.588 -4.3985,1.0971 -4.9894,-5.6962 -8.628599,-6.6771 1.2129,3.787 3.132899,7.31 5.748799,10.3057 -8.090699,8.3439 -17.510299,15.2003 -25.948999,23.1536 -10.8015,0.053 -22.7105,-3.1962 -29.0711,-12.6159 z m 61.349199,-79.1443 c -1.2446,-0.6644 -2.3627,-1.5085 -3.3227,-2.5106 -5.1478,-5.1898 -11.908999,-8.5865 -16.624299,-14.2193 -5.6074,-6.2501 8.5541,-16.4854 17.046099,-25.2635 1.1075,-1.2129 2.4155,-2.1941 3.8292,-3.0063 -4.2147,9.3632 -7.54,32.0479 -0.9283,44.9997 z m -4.0084,78.0262 c -11.349599,3.2277 -13.338999,14.2045 -28.627999,18.4807 3.1819,-7.9415 19.7735,-15.4944 28.796999,-26.3497 6.4133,0.6223 11.9514,-2.9852 16.7402,-6.7828 -3.059,6.9306 -9.0822,13.4916 -16.9092,14.6518 z m 6.519,-15.8332 c 3.8844,-9.104 9.0499,-13.8201 9.1244,-32.5417 3.667,5.264 1.4637,22.9488 -9.1244,32.5417 z m 3.7974,-172.3497 c -2.9537,6.2129 -4.2193,13.5126 -1.8459,20.1476 1.4452,3.3543 4.1983,6.3291 4.7047,9.9683 -1.8882,8.5968 -9.0611,14.5989 -16.329,18.7972 1.7299,-2.9324 4.4618,-5.6856 3.9557,-9.3775 0.3483,-2.9325 -2.0569,-4.9158 -3.4281,-7.1729 0.1062,-7.6345 3.5258,-6.1953 3.4281,-9.5253 0.1372,-1.7931 -0.063,-3.576 -0.1792,-5.3479 -7.251399,-16.719 -2.1286,-18.3194 1.1813,-21.6663 4.9367,-4.2089 11.6877,-4.7785 17.8796,-5.3797 -3.1541,3.1641 -7.363,5.3688 -9.3672,9.5565 z m -0.8123,-15.7275 c -9.2615,1.8882 -17.615699,10.6643 -16.507899,20.5376 -0.4537,6.5717 5.305799,11.6137 4.693999,18.1642 -1.5505,-1.3819 -1.8776,-3.6075 -3.2489,-5.1265 -2.752799,-3.2807 -6.529299,-5.7489 -8.459899,-9.6834 -3.0573,-11.116 14.024599,-21.1001 24.830999,-25.3268 6.5528,-3.0968 25.3316,-8.0996 27.4996,-8.1855 -8.4496,5.9705 -18.9873,7.2785 -28.8079,9.6204 z m 30.6114,14.293 c -2.6372,9.578 -6.6456,18.755 -11.8036,27.2252 -1.8762,-7.9701 -10.0196,-20.5358 11.8036,-27.2252 z m -0.095,175.9677 c 1.2026,-2.0254 2.4579,-4.0296 3.6919,-6.0335 1.3395,0.5275 2.7638,1.0863 2.901,2.7531 -1.9727,1.5085 -4.0193,3.059 -6.5929,3.2804 z m 6.3291,-9.9681 c -1.3925,-0.2319 -1.5823,-0.9915 -0.5802,-2.2783 1.3921,0.2214 1.582,0.9704 0.5802,2.2783 z m 2.7846,-15.3583 c -1.4872,0.4745 -1.9936,-0.032 -1.5296,-1.5085 1.4664,-0.4852 1.9833,0.021 1.5296,1.5085 z m -2.8797,-9.3988 c -4.8324,-18.6427 -13.333,-27.1551 -18.1748,-54.7037 6.1564,2.4315 17.5949,13.9101 16.6979,20.9068 -1.4134,0.6329 -4.8101,1.5296 -2.5842,3.4282 4.6202,1.0233 7.4051,-4.3249 6.9726,-8.3016 1.308,2.6054 3.1644,5.1899 3.0591,8.2489 -0.865,1.5293 -3.8395,1.6877 -3.3225,3.8394 2.2361,1.5612 4.7361,-0.3059 6.2761,-1.9621 1.3186,-2.9851 0.3374,-6.2446 -0.2953,-9.2615 -9.7146,-13.5312 -10.0821,-12.5686 -26.698,-23.3014 -0.3692,-3.618 0.1687,-7.2152 0.9915,-10.7276 1.2026,0.7069 2.3628,1.4979 3.4176,2.4473 5.1792,4.6308 11.6558,8.0378 15.2636,14.2194 2.8267,4.926 5.5695,10.0946 6.8563,15.6433 1.3395,2.0887 1.8776,4.5148 2.0675,6.9727 3.5966,13.5775 1.6087,24.1241 -10.5274,32.5519 z m 1.8143,-186.4212 0.095,0.116 c -5.6537,3.9872 -13.4071,4.7467 -19.219,0.6435 -0.9213,-0.7521 -1.8787,-1.8017 -2.9364,-2.3032 0.018,0.01 -0.3236,3.0856 -0.2248,3.4259 0.8821,3.0412 8.5581,4.6119 11.728,4.7803 2.1265,0.1128 11.6257,-0.3666 13.3318,-1.3879 -8.0166,4.7994 -17.2042,7.4154 -26.4025,8.7234 -2.8926,0.4445 -29.6728,4.0711 -30.811799,4.0823 8.352199,-3.6344 11.218499,-3.6126 13.217299,-6.635 0.6962,-3.9557 -4.3458,-6.5611 -3.0696,-10.6116 5.0537,-10.7102 19.1683,-3.2767 27.5108,-9.3675 1.2825,-0.9374 2.833,-4.5815 2.6978,-5.9834 -0.085,-0.8824 -0.9368,-1.4383 0.092,-2.2254 0.8933,-0.6836 2.9768,-0.7294 4.094,-1.2595 12.3435,-5.8569 14.7361,-5.2978 20.3624,-16.7228 0.211,0 0.6329,0 0.8334,-0.011 4.0356,8.901 8e-4,26.0843 -11.2979,34.7355 z m 21.1073,-39.0501 c -0.3059,-4.2931 0.2005,-8.8818 3.5127,-11.9935 -0.8756,4.0823 -2.1518,8.059 -3.5127,11.9935 z m -7.1623,-21.3286 c -3.6739,-19.3453 -2.6614,-29.3134 9.7361,-39.9889 -2.4681,6.6665 -1.2552,14.1243 2.9113,19.8099 -0.7172,8.449 -7.3098,14.3138 -12.6474,20.179 z m 20.8541,-59.7145 c -4.7573,4.9578 -11.0759,9.4514 -11.6982,16.9195 -4.5251,4.2089 -9.3142,8.6813 -11.2761,14.7254 -4.403,13.4713 -0.4012,19.315 0.021,28.4806 -11.8978,-27.3865 -12.5617,-39.9371 11.8669,-57.4993 4.536,-3.0169 8.9239,-6.2973 12.658,-10.2848 -0.2638,2.5323 0.5802,5.7179 -1.5718,7.6586 z m 98.0014,68.6046 c -0.1338,-1.6371 -1.166,-2.8697 -0.3025,-4.4283 1.1602,-0.2953 1.7299,0.2214 1.6984,1.5505 1.2552,3.8292 1.751,7.8376 2.8058,11.7192 -3.7604,-1.3768 -3.8847,-4.9668 -4.2017,-8.8414 z m 434.166,588.2985 c -1.3667,0.2612 -2.9207,0.3528 -4.0087,-0.5147 -0.2154,-0.1718 -2.3668,0.2294 -2.8027,0.1962 -3.4817,-0.2655 -5.573,-2.2239 -8.4124,-3.8197 -4.6413,-0.5063 -9.1349,-2.1096 -13.0482,-4.6307 -4.5618,-2.9637 -14.0834,-3.1759 -19.9468,-10.1583 -3.8226,-2.7918 -4.7843,-5.0343 -6.1919,-6.2658 -2.7426,-0.9809 -4.9155,-3.0908 -5.8755,-5.8437 -0.4138,-1.1865 -7.2679,-4.7742 -8.5209,-5.1236 -1.552,-0.4331 -3.238,0.1529 -4.8321,0.2237 -2.0048,0.089 -4.0213,-0.076 -5.984,-0.4952 -11.1094,-2.3743 -9.3191,1.0977 -17.6776,3.2222 -1.1906,0.3028 -2.3322,0.3383 -3.4408,0.7762 -5.1428,2.0305 -25.3897,-4.8178 -26.9721,-5.2248 -2.4298,-0.6246 -5.0217,0.1197 -7.2894,-1.0748 -4.6852,-2.4679 -27.5323,-4.6712 -21.0995,-9.0471 0.8649,-0.5882 1.481,-1.7181 2.4367,-2.1422 6.94,-3.0779 18.7848,-2.3098 25.0996,-9.7736 1.1402,-1.3478 -1.0015,-4.8462 -0.9858,-6.3707 0.01,-0.9362 0.5654,-1.7859 0.7784,-2.6698 0.2781,-1.1524 0.1243,-2.1431 1.3576,-2.8333 1.1536,-0.6455 2.5469,-0.5135 3.6699,-1.2458 1.2358,-0.806 2.1614,-2.2007 3.3159,-3.1332 16.935,-13.6827 21.0583,-16.8812 28.3302,-22.9348 6.6636,-3.9892 12.033,-11.4934 16.8668,-14.7254 1.0886,-0.7277 4.9822,-4.0941 6.0717,-3.2893 7.1527,5.2829 9.999,19.2689 10.4787,20.2251 2.8047,5.5934 7.8172,13.4135 10.4747,20.2364 4.0608,9.8732 9.3457,19.1769 14.7148,28.396 2.2468,3.6287 2.8271,8.059 5.3164,11.5504 3.5605,3.5196 24.636,13.5412 30.0838,15.485 8.5737,2.7763 8.6856,9.5462 9.3822,12.106 0.5461,2.008 1.7619,3.9901 0.5286,5.9978 -2.1966,3.5774 -8.5028,2.268 -11.8176,2.9015 z"
     id="path2"
     style="stroke-width:0.286398" />
</svg>
