<?xml version="1.0" encoding="UTF-8" standalone="no"?>
<svg
   xmlns:dc="http://purl.org/dc/elements/1.1/"
   xmlns:cc="http://creativecommons.org/ns#"
   xmlns:rdf="http://www.w3.org/1999/02/22-rdf-syntax-ns#"
   xmlns:svg="http://www.w3.org/2000/svg"
   xmlns="http://www.w3.org/2000/svg"
   xmlns:sodipodi="http://sodipodi.sourceforge.net/DTD/sodipodi-0.dtd"
   xmlns:inkscape="http://www.inkscape.org/namespaces/inkscape"
   version="1.1"
   width="629.42444"
   height="518.2005"
   viewBox="0 0 629.42444 518.20051"
   id="svg7"
   sodipodi:docname="together_dynamic_mixed23.svg"
   inkscape:version="1.0.2 (e86c870879, 2021-01-15)">
  <metadata
     id="metadata13">
    <rdf:RDF>
      <cc:Work
         rdf:about="">
        <dc:format>image/svg+xml</dc:format>
        <dc:type
           rdf:resource="http://purl.org/dc/dcmitype/StillImage" />
        <dc:title></dc:title>
      </cc:Work>
    </rdf:RDF>
  </metadata>
  <defs
     id="defs11" />
  <sodipodi:namedview
     pagecolor="#ffffff"
     bordercolor="#666666"
     borderopacity="1"
     objecttolerance="10"
     gridtolerance="10"
     guidetolerance="10"
     inkscape:pageopacity="0"
     inkscape:pageshadow="2"
     inkscape:window-width="1920"
     inkscape:window-height="997"
     id="namedview9"
     showgrid="false"
     fit-margin-top="0"
     fit-margin-left="0"
     fit-margin-right="0"
     fit-margin-bottom="0"
     inkscape:zoom="0.61860089"
     inkscape:cx="296.14027"
     inkscape:cy="327.65547"
     inkscape:window-x="0"
     inkscape:window-y="0"
     inkscape:window-maximized="1"
     inkscape:current-layer="svg7"
     inkscape:document-rotation="0" />
  <rect
     style="fill:#ffffff;stroke-width:5.66929;stroke-linecap:square;stroke-linejoin:round;stroke-dasharray:11.3386, 11.3386"
     id="rect832"
     width="629.42444"
     height="518.2005"
     x="0"
     y="0" />
  <g
     id="layer1"
     transform="translate(99.483427,-173.03792)">
    <g
       style="fill:#000000;fill-opacity:1;stroke-linejoin:miter"
       id="g4">
      <path
         d="m -39.842426,265.88098 c 0.0766,0 0.204726,0.15852 0.427956,0.44657 0.710326,0.93823 0.709472,1.72535 -0.0015,1.72535 h -0.0017 c -0.375062,-7.5e-4 -0.561951,-0.3761 -0.560364,-1.23866 0.02266,-0.64574 0.03236,-0.93326 0.135521,-0.93326 z m 17.695394,-61.18223 c -1.432861,0 -2.776331,0.18515 -3.093595,0.55708 -0.333475,0.4061 -1.249461,0.556 -3.610287,0.556 -0.03428,0 -0.06887,-3e-5 -0.103767,-9e-5 -0.0302,-5e-5 -0.06021,-8e-5 -0.09003,-8e-5 -2.229393,0 -3.405258,0.14931 -3.924137,0.55551 -0.374995,0.29883 -1.086305,0.55982 -1.536495,0.55982 h -0.0044 c -0.449583,0 -0.973629,0.22381 -1.123897,0.48559 -0.150452,0.26221 -0.751282,0.67383 -1.31427,0.89771 -0.60059,0.26159 -1.051336,0.63574 -1.051701,0.86084 -3.65e-4,0.18725 -0.262562,0.37402 -0.562122,0.37402 h -0.0023 c -0.337133,0 -0.674488,0.2617 -0.787456,0.56116 -0.150364,0.29939 -0.525017,0.56103 -0.936875,0.56103 h -0.0029 c -0.374901,0 -0.862307,0.33638 -1.087833,0.74817 -0.225604,0.41169 -0.638317,0.74842 -0.938314,0.74842 h -0.0021 c -0.299438,0 -0.561401,0.14935 -0.561706,0.33654 -3.68e-4,0.1875 -0.601868,0.974 -1.315735,1.68531 -0.713933,0.7489 -1.315617,1.61047 -1.316105,1.91052 -6.11e-4,0.33752 -0.263733,0.67456 -0.564026,0.78662 -0.300292,0.14954 -0.563416,0.4491 -0.563842,0.71155 -4.9e-4,0.26257 -0.339173,0.89953 -0.752686,1.42395 -0.413514,0.52429 -0.752324,1.23633 -0.753056,1.64894 -6.71e-4,0.375 -0.264343,1.01208 -0.565063,1.38672 -0.300782,0.41198 -0.564635,1.12402 -0.56543,1.57409 -7.95e-4,0.45008 -0.227722,1.49988 -0.529205,2.32459 -0.301575,0.86194 -0.680787,3.18677 -0.834443,5.21179 -0.153657,2.0249 -0.381774,3.74989 -0.494477,3.86208 -0.488314,0.41174 -1.917483,2.62207 -1.918155,2.99707 -3.35e-4,0.18725 -0.187715,0.37439 -0.412361,0.37439 h -0.0011 c -0.262761,0 -1.01371,0.5986 -1.727394,1.30957 -0.713608,0.71114 -1.501919,1.30957 -1.802247,1.30957 h -9.3e-4 c -0.300096,0 -0.788132,0.48648 -1.126633,1.12304 -0.338543,0.59935 -0.751949,1.12366 -0.93951,1.12366 h -3.59e-4 c -0.18782,0 -0.825928,0.4487 -1.389236,0.97254 -0.563508,0.52417 -1.314788,1.1604 -1.615296,1.42248 -0.826176,0.59863 -1.879429,2.3219 -1.880772,3.07202 -0.0018,1.01271 -0.90607,3.29897 -1.394195,3.63564 -0.71344,0.44873 -0.698575,13.12573 0.01297,13.72705 0.262085,0.22558 0.597505,1.42639 0.745331,2.66431 0.147794,1.23803 0.483154,2.47633 0.782654,2.77688 0.411895,0.37585 0.56012,1.38867 0.55655,3.37647 -0.0034,1.87533 0.182257,2.96334 0.5192,3.30148 0.29944,0.338 0.559694,1.61377 0.669252,3.26428 0.07233,1.50025 0.295018,2.81336 0.519778,2.96375 0.224794,0.15051 0.560335,1.27624 0.745637,2.51427 0.296633,1.91334 0.258333,2.3633 -0.230255,2.92506 -0.337959,0.3367 -0.825698,0.63574 -1.050922,0.63574 h -8.77e-4 c -0.262268,0 -0.45031,0.41205 -0.451226,0.93677 -0.0022,1.23723 -0.754631,2.81053 -1.392093,2.81053 h -0.0015 c -0.262175,0 -0.48712,0.2244 -0.48761,0.4867 -4.56e-4,0.26258 -0.52701,1.08668 -1.128294,1.76075 -0.638886,0.71143 -1.27829,1.72302 -1.391756,2.2478 -0.11346,0.52491 -0.41443,1.04945 -0.60223,1.1991 -0.22525,0.11218 -0.48994,1.31189 -0.5673,2.62451 -0.11487,1.31238 -0.41736,2.69962 -0.680635,3.11174 -0.601655,0.86156 -0.720395,4.34947 -0.158815,4.91307 0.26209,0.26293 0.223696,0.75049 -0.190214,1.49976 -0.301176,0.63721 -0.566286,2.06189 -0.568696,3.41211 -0.0023,1.27514 -0.26843,3.30006 -0.57062,4.49976 -0.79315,3.07397 -0.819485,17.81374 -0.03467,19.3904 0.299045,0.56312 0.55896,2.02637 0.556885,3.18897 -0.0021,1.16273 0.2576,2.776 0.518585,3.63893 0.298585,0.8258 0.668945,3.45177 0.777235,5.8149 0.10828,2.36303 0.47684,6.0017 0.77307,8.14013 0.70322,5.25207 0.6836,16.24121 -0.06909,17.66517 -0.301115,0.5996 -0.64154,2.21166 -0.79413,3.6366 -0.15253,1.42492 -0.45508,2.81216 -0.68064,3.11184 -0.30072,0.37451 -0.46649,9.18811 -0.579985,30.71631 -0.121269,25.87875 -0.24163,30.26669 -0.692925,30.94101 -0.30084,0.44946 -0.565185,1.46167 -0.56662,2.24929 -0.0014,0.7876 -0.22836,1.875 -0.52942,2.43702 -0.26352,0.56213 -0.641325,2.09913 -0.7937,3.41163 -0.152434,1.34996 -0.529845,2.66185 -0.79294,2.96154 -0.4508,0.41174 -0.49032,1.53674 -0.31009,5.62524 0.107425,2.85072 0.40232,5.73912 0.588566,6.45215 0.447509,1.42602 1.682708,2.81592 2.882234,3.19311 0.44989,0.11341 1.31095,0.97742 1.98438,1.91626 0.63599,0.90137 1.38477,1.65283 1.6098,1.6532 0.22504,3.7e-4 0.93656,0.6018 1.57291,1.31555 1.122955,1.23963 1.272857,1.31507 3.67322,1.31935 1.35022,0.002 2.66257,0.19225 2.924775,0.38024 1.833653,1.54974 3.060139,2.15736 4.534722,2.15736 0.242,0 0.490683,-0.0164 0.749828,-0.0476 1.012848,-0.11072 2.026001,-0.37146 2.251435,-0.59608 0.187377,-0.18664 0.82245,-0.37255 1.34675,-0.37255 h 0.0082 c 0.524298,0 1.159603,-0.18622 1.421918,-0.44751 0.563598,-0.56164 0.60559,-3.07458 0.08234,-4.08801 -0.369919,-0.63153 -0.263672,-0.71146 0.682544,-0.71146 0.01034,0 0.02078,0 0.03132,3e-5 h 0.0075 c 1.531473,0 1.906855,-0.86496 1.91319,-4.38476 0.003,-1.68774 0.193116,-3.15014 0.41858,-3.37476 0.263,-0.26208 0.339416,-1.04956 0.191223,-2.0625 -0.148498,-0.86278 -0.40625,-3.56372 -0.627075,-5.927 -0.220036,-2.77588 -0.554508,-4.50183 -0.891361,-4.87732 -0.299437,-0.33813 -0.560547,-1.16382 -0.559387,-1.80139 0.0015,-0.82507 -0.185364,-1.20044 -0.560425,-1.20117 -0.412537,-7.4e-4 -0.561768,-0.45105 -0.559325,-1.83875 0.002,-1.12512 -0.221315,-2.06315 -0.55829,-2.4014 -0.261963,-0.30053 -0.635864,-0.97631 -0.747437,-1.50158 -0.148986,-0.56287 -0.485473,-1.16357 -0.785063,-1.42664 -0.299623,-0.22546 -0.523774,-0.71363 -0.523195,-1.05115 6.11e-4,-0.33752 -0.559848,-1.53868 -1.195438,-2.66491 l -1.196503,-2.06507 0.05039,-7.20092 c 0.01092,-6.11353 0.12551,-7.27594 0.651545,-7.80011 0.488435,-0.4867 0.602631,-1.42407 0.608002,-4.4246 0.04248,-2.77539 0.194703,-4.01269 0.570709,-4.53723 0.300781,-0.41198 0.565216,-1.46179 0.566804,-2.36181 0.0016,-0.90015 0.228667,-2.02491 0.52948,-2.47449 0.30084,-0.44959 0.678405,-1.83654 0.830566,-3.0365 0.114684,-1.19994 0.49237,-2.66199 0.755798,-3.18664 0.301029,-0.52442 0.52808,-1.6493 0.529546,-2.47437 0.0015,-0.8252 0.266417,-2.17481 0.56793,-2.99951 0.301698,-0.89966 0.530396,-2.96192 0.571656,-5.06226 0.0044,-2.47546 0.232727,-4.31274 0.760681,-5.92456 0.414978,-1.312 0.75586,-3.18667 0.757569,-4.1619 0.0018,-0.9751 0.228576,-1.9873 0.491514,-2.2119 0.30066,-0.33704 0.529726,-2.58692 0.72504,-6.93726 0.23584,-6.03809 0.655703,-10.12549 1.144106,-10.57471 0.0038,-0.004 0.0084,-0.006 0.01376,-0.006 0.154328,0 0.951405,1.53705 1.817848,3.45952 1.56903,3.49083 1.643433,3.82848 1.525696,6.7163 -0.04047,1.68762 -0.344421,3.86254 -0.646301,4.8745 -0.301819,1.0122 -0.567078,2.51197 -0.568482,3.29957 -0.0015,0.82519 -0.154419,2.43763 -0.381469,3.56253 -0.189574,1.16223 -0.568544,3.3744 -0.796326,4.91174 -0.265381,1.53723 -0.680664,3.07422 -0.981262,3.41126 -0.300721,0.3745 -0.490479,1.61193 -0.49408,3.6372 -0.0042,2.36292 -0.193666,3.41272 -0.758121,4.46192 -0.489197,0.89928 -0.753905,2.13648 -0.756348,3.48668 -0.03967,1.20008 -0.266785,2.36232 -0.567567,2.7743 -0.864623,1.12378 -0.885188,33.6412 -0.0617,34.50522 0.374453,0.33838 0.560366,1.27638 0.558047,2.58911 -0.0023,1.27515 0.183533,2.21302 0.520629,2.4762 0.262084,0.22547 0.597901,1.2388 0.746094,2.25174 0.110718,1.01283 0.483948,2.02623 0.78351,2.28931 0.29956,0.26292 0.56085,0.97607 0.55975,1.57617 -0.0011,0.60009 0.222963,1.16308 0.560366,1.27612 0.299744,0.15063 0.561524,0.56373 0.560852,0.93883 -6.72e-4,0.375 0.148742,0.71278 0.373779,0.71315 0.187561,3.5e-4 0.59906,0.60119 0.897831,1.31433 0.298767,0.71326 0.747742,1.31409 0.935242,1.31445 0.225036,3.7e-4 0.411743,0.48827 0.410644,1.12587 -0.0012,0.67516 0.185486,1.12547 0.485536,1.12596 0.262572,4.9e-4 0.674254,0.4513 0.93585,1.01441 0.971314,2.10205 1.382813,2.74035 1.832887,2.74121 0.262513,4.9e-4 0.486938,0.33838 0.486206,0.75097 -7.33e-4,0.4126 0.186222,0.75049 0.373722,0.75075 0.225035,4.8e-4 0.374573,0.2633 0.374025,0.56334 -4.9e-4,0.30006 0.37341,0.93823 0.860167,1.38928 0.861023,0.90162 1.459533,1.80286 2.094604,3.19165 0.224182,0.48803 0.523562,0.86365 0.711123,0.86403 0.150024,2.3e-4 0.486756,0.45092 0.74823,1.0139 0.747131,1.6891 1.457763,2.81556 2.468446,3.90503 0.52411,0.5636 0.9729,1.27687 0.97229,1.61451 -6.1e-4,0.33752 0.336121,0.7882 0.74823,1.05151 0.41205,0.26318 0.748782,0.75135 0.748171,1.08899 -6.11e-4,0.33752 0.261048,0.82556 0.560609,1.08874 0.29962,0.26306 0.56134,0.71362 0.56079,1.01368 -4.88e-4,0.26244 0.261475,0.60058 0.56134,0.7135 0.299807,0.15051 0.561648,0.52612 0.560855,0.93859 -6.11e-4,0.37513 0.298339,0.97583 0.710265,1.35157 0.37439,0.37573 0.823243,1.05163 0.934937,1.50183 0.14917,0.48791 0.448548,0.86352 0.636048,0.86389 0.187562,2.4e-4 0.336977,0.33813 0.336245,0.75073 -7.33e-4,0.4126 0.261169,0.75061 0.561217,0.7511 0.412598,7.3e-4 0.56189,0.41345 0.559937,1.50125 -0.0021,1.2002 0.147339,1.50048 0.672424,1.50148 0.450012,8.4e-4 1.011538,0.6018 1.534732,1.69054 0.448363,0.93836 1.009582,1.68946 1.197144,1.68982 0.1875,3.6e-4 0.337036,0.26318 0.336547,0.56311 -5.49e-4,0.30005 0.335877,0.90076 0.747742,1.31409 0.411805,0.41334 0.748353,1.01404 0.747806,1.31402 -5.5e-4,0.30005 0.223999,0.56287 0.486511,0.56336 0.525024,0.0386 1.758241,2.55358 1.756227,3.67883 -9.77e-4,0.52503 0.22351,0.82543 0.598571,0.82617 0.78766,10e-4 2.022829,1.42883 2.021181,2.32886 -6.71e-4,0.37512 0.5977787,1.31384 1.3089,2.14038 0.711243,0.78882 1.309754,1.65246 1.309388,1.87756 -4.273e-4,0.22498 0.149292,0.41284 0.3743286,0.41321 0.1875,3.7e-4 0.5989994,0.5636 0.8977664,1.27685 0.29889,0.67554 0.7102057,1.3889 0.9349985,1.50184 0.2247925,0.15051 0.4114992,0.60083 0.4107058,1.0509 -7.325e-4,0.4126 0.5225832,1.38866 1.1212775,2.17736 0.785828,0.9766 1.1218878,1.8397 1.1202399,2.77735 -0.00195,1.08775 0.14758305,1.35045 0.7101444,1.35155 0.52508577,8.7e-4 0.74951218,0.339 0.8603521,1.3142 0.14730016,1.158 0.0360806,1.31155 -0.70519005,1.31155 h -0.0139994 c -0.4855213,0 -0.85869355,0.14905 -0.85911955,0.37341 -0.00116,0.67474 -1.4642752,1.87124 -2.2896866,1.87124 h -0.00344 c -0.4493268,0 -0.8613985,0.29905 -0.9745798,0.74827 -0.1131585,0.41203 -0.525532,0.74853 -0.9002684,0.74853 h -0.00424 c -0.410983,0 -0.7098136,0.14923 -0.710118,0.3364 -9.76e-4,0.5249 -1.690958,2.28384 -2.216544,2.28384 h -0.00126 c -0.224672,0 -0.412018,0.1496 -0.412384,0.37426 -3.66e-4,0.18726 -0.225122,0.3743 -0.487197,0.3743 h -0.00187 c -0.3006095,0 -1.0503784,0.2609 -1.6504654,0.55955 -0.90094,0.44848 -1.201783,0.89805 -1.391359,2.06045 -0.151688,0.97415 -0.414916,1.49875 -0.78956,1.49875 h -0.0016 c -0.299701,0 -0.562213,0.2619 -0.562762,0.56155 -4.88e-4,0.29984 -0.188276,0.56186 -0.413104,0.56186 h -9.95e-4 c -0.563063,0 -2.215114,1.5716 -2.216152,2.13394 -4.27e-4,0.2622 -0.262653,0.4864 -0.562194,0.4864 h -0.0021 c -0.299699,0 -0.562273,0.2619 -0.562821,0.5617 -4.9e-4,0.2996 -0.33756,0.56125 -0.749314,0.56125 h -0.0036 c -0.449027,0 -0.748727,0.26172 -0.749338,0.59875 -5.49e-4,0.3375 -0.827942,1.57374 -1.880249,2.7721 -1.05231,1.19824 -1.879519,2.3595 -1.879946,2.5845 -3.66e-4,0.22476 -0.26256,0.4116 -0.56212,0.4116 h -0.0026 c -0.299439,0 -0.561401,0.1494 -0.561829,0.374 -9.15e-4,0.5251 -2.818004,3.36965 -3.306268,3.36965 h -7.33e-4 c -0.26226,0 -0.450083,0.2995 -0.450693,0.63685 -6.71e-4,0.375 -0.602478,1.3115 -1.316467,2.098 -0.714051,0.78626 -1.315552,1.57276 -1.315796,1.7228 -3.66e-4,0.1875 -0.263245,0.4122 -0.5636,0.56163 -0.300233,0.11197 -0.563355,0.44907 -0.563966,0.78662 -5.49e-4,0.29975 -0.263061,0.56165 -0.562761,0.56165 h -0.0019 c -0.299612,0 -0.562003,0.2617 -0.562552,0.5614 -5.49e-4,0.30005 -0.338867,0.71216 -0.75177,0.9364 -0.412964,0.22425 -0.751343,0.6737 -0.751892,0.97376 -6.1e-4,0.33754 -1.090575,1.64844 -2.44318,2.95864 -1.352478,1.27286 -2.442261,2.4711 -2.442445,2.58365 -3.04e-4,0.15005 -0.601622,0.82395 -1.315368,1.49781 -0.713928,0.7113 -1.315429,1.49794 -1.315917,1.7605 -0.0012,0.67468 -1.314465,1.83398 -2.064805,1.83398 h -0.002 c -0.299777,0 -0.562517,0.33686 -0.563312,0.78662 -7.33e-4,0.4126 -0.489745,1.19934 -1.128235,1.72339 -0.601013,0.48645 -1.12726,1.16055 -1.127743,1.42295 -4.87e-4,0.2626 -0.338562,0.56203 -0.751343,0.67385 -0.412719,0.1117 -0.863464,0.48609 -0.976744,0.89832 -0.452344,1.38647 -1.05393,2.36043 -1.42902,2.36043 h -9.7e-4 c -0.713352,0 -3.229225,2.3948 -3.230446,3.0697 -6.71e-4,0.3751 -0.339354,1.01207 -0.715088,1.38633 -0.638733,0.6366 -1.426544,0.74767 -6.490021,0.85107 -4.913395,0.0664 -5.888825,0.2146 -6.452335,0.73866 -0.375046,0.37384 -1.12362,0.67214 -1.72317,0.67214 h -0.0074 c -2.3604,0 -3.79059,3.67234 -3.839234,9.9321 -0.0073,4.05066 0.754154,18.7167 1.162174,21.2678 0.185055,1.3881 0.36508,5.58914 0.3583,9.3772 -0.0068,3.7881 0.174045,7.5391 0.39762,8.3645 0.18606,0.82546 0.59561,2.51406 0.85589,3.7521 0.297915,1.2008 0.70853,2.2892 0.93344,2.3645 0.22492,0.0754 0.41184,0.41333 0.41117,0.78833 -6.1e-4,0.33767 0.59741,1.50137 1.30801,2.62781 0.71063,1.08896 1.30893,2.10272 1.308656,2.25276 -0.0015,0.8626 7.822918,8.8653 8.984904,9.2424 0.37485,0.1132 0.749055,0.60146 0.823243,1.05165 0.158093,1.12095 1.24664,1.66955 3.52229,1.66955 0.389907,0 0.814662,-0.0161 1.275562,-0.0482 3.675968,-0.2185 4.126345,-0.4052 4.12891,-1.8304 0.0011,-0.6001 0.453491,-1.91204 0.980225,-2.8112 1.015625,-1.686 1.015747,-1.761 0.72332,-6.0371 -0.183167,-2.4007 -0.29004,-5.5888 -0.249817,-7.08907 0.04016,-1.50013 -0.06958,-3.03809 -0.256533,-3.37598 -0.22424,-0.45045 -0.18591,-0.90039 0.190065,-1.38745 0.300721,-0.3745 0.527039,-1.12414 0.527955,-1.6117 8.54e-4,-0.48754 0.264526,-1.12475 0.565128,-1.4243 0.300598,-0.33704 0.564209,-0.8992 0.564882,-1.2742 7.3e-4,-0.4126 0.22656,-0.8623 0.526915,-1.0117 0.300232,-0.14953 0.789185,-0.8988 1.12799,-1.6107 0.338868,-0.71205 1.053835,-2.0609 1.580628,-2.9977 0.677367,-1.2739 0.90393,-2.1361 0.831297,-3.4491 -0.109495,-1.72533 -0.0719,-1.7628 1.015993,-1.8734 1.125367,-0.1105 1.125427,-0.14795 1.129394,-2.36084 l 0.004,-2.21276 -1.687012,-0.41566 c -1.049743,-0.26441 -1.499329,-0.52784 -1.198913,-0.71474 0.22528,-0.14964 0.45111,-0.59935 0.451843,-1.0118 7.32e-4,-0.4126 0.226501,-0.82485 0.526794,-0.9368 0.300233,-0.11193 0.676393,-0.7113 0.789917,-1.3113 0.151026,-0.59934 0.48914,-1.08615 0.789046,-1.08615 h 0.0013 c 0.337056,0 0.52507,-0.41211 0.52629,-1.0868 0.0012,-0.67505 0.377746,-1.5371 0.979008,-2.17355 0.526062,-0.5617 1.127686,-1.42325 1.316162,-1.91055 0.285096,-0.74439 0.501896,-0.81785 3.760552,-0.81785 0.186975,0 0.383966,2e-4 0.59156,6e-4 0.130652,2.3e-4 0.258312,3.5e-4 0.383054,3.5e-4 4.673718,0 5.250913,-0.17545 5.545539,-1.48999 0.113586,-0.59996 0.489807,-1.27426 0.790344,-1.53636 0.300415,-0.2245 0.526367,-0.7117 0.527039,-1.0867 6.1e-4,-0.3751 0.414245,-0.9369 0.939941,-1.27367 0.600771,-0.3739 0.939333,-0.97338 0.940371,-1.53603 9.16e-4,-0.52476 0.18898,-0.93687 0.376459,-0.93687 h 6.62e-4 c 0.224807,0 0.375198,-0.29968 0.375869,-0.67443 6.72e-4,-0.3751 0.264344,-1.0122 0.565125,-1.4243 0.30072,-0.3744 0.564575,-1.08657 0.565429,-1.5741 9.75e-4,-0.5616 0.225667,-0.82375 0.748667,-0.82375 h 0.0063 c 0.597264,0 0.747224,-0.26305 0.74893,-1.23645 0.03972,-1.1997 1.092058,-2.88464 1.842122,-2.88464 h 0.0014 c 0.224828,0 0.412554,-0.2619 0.413042,-0.56176 5.49e-4,-0.29975 0.225655,-0.5618 0.487916,-0.5618 h 9.89e-4 c 0.525663,0 3.267384,-2.61967 3.268299,-3.14475 7.33e-4,-0.4126 1.615846,-1.68482 2.1784679,-1.72132 h 3.95e-4 c 0.262367,0 0.450534,-0.487 0.451632,-1.08679 0.00104,-0.6001 0.264832,-1.27478 0.565308,-1.53684 0.300476,-0.26186 0.563782,-0.6741 0.564209,-0.8991 4.273e-4,-0.22507 0.338684,-0.63706 0.7517095,-0.8988 0.4130249,-0.2618 0.7514045,-0.71134 0.7520145,-1.04886 0.00183,-1.01209 3.114849,-3.14224 4.5411939,-3.14224 h 0.00494 c 0.4859687,0 0.7107637,-0.2623 0.7118605,-0.8614 0.039104,-0.93704 0.82811565,-2.13516 1.46551948,-2.13516 h 0.001444 c 0.22482807,0 0.41255457,-0.26204 0.41310357,-0.56189 4.878e-4,-0.29962 0.26306085,-0.56155 0.56276175,-0.56155 h 0.00148 c 0.2625434,0 0.6751709,-0.29904 0.8631281,-0.63596 0.034136,-0.0534 0.066333,-0.0804 0.096671,-0.0804 0.2036805,0 0.32362,1.21539 0.3842861,3.79424 0.1074826,2.813 0.3294676,4.50123 0.6287842,4.91426 0.336853,0.4132 0.5581057,2.51394 0.7002566,6.90244 0.1421508,4.4259 0.3258668,6.564 0.6998908,7.12734 0.3740232,0.60071 0.521362,2.10132 0.515991,5.10166 -0.00561,3.15054 0.14209,4.42605 0.5536504,4.9893 0.2993776,0.3756 0.5599976,1.4637 0.5583496,2.40135 -0.00171,0.93765 0.2586064,2.17578 0.594971,2.81409 0.336548,0.60071 0.670899,2.36401 0.7807624,3.86436 0.1470946,1.65065 0.4447636,2.9639 0.7442016,3.3019 0.44928,0.4509 0.521484,2.02624 0.433899,9.07727 -0.045959,4.68813 0.021545,8.88893 0.170777,9.33923 0.186524,0.60034 0.5610965,0.86365 1.1986701,0.86475 1.200196,0.002 1.272706,1.39001 0.0722,1.57531 -0.7127071,0.0738 -0.9008181,0.37354 -0.9782711,1.72364 -0.076599,0.9 0.071716,1.8379 0.25885,2.1007 0.299377,0.3756 0.261108,0.7882 -0.152832,1.5751 -0.451661,0.8618 -0.567567,2.7369 -0.579409,9.3753 -0.015625,8.7388 0.058655,9.15153 1.7464001,9.1546 0.48761,8.4e-4 1.274719,0.26476 1.761842,0.56566 0.674194,0.45129 2.474244,0.60454 7.949832,0.76434 10.088566,0.28064 13.351078,0.54895 14.099918,1.2629 0.352215,0.3064 0.793247,0.43596 1.896302,0.43596 0.656078,0 1.546356,-0.0459 2.791446,-0.12756 2.25055,-0.146 9.977177,-0.3572 17.178471,-0.4568 18.978416,-0.22863 18.828386,-0.2289 19.166462,-0.5658 0.149554,-0.149 0.78157,-0.25994 1.415844,-0.25994 h 0.01618 c 1.497724,0 2.84587,-0.93406 2.8477,-1.98276 7.9e-4,-0.4501 0.527466,-1.3118 1.1286,-1.9108 1.01447,-1.0108 1.1275,-1.31066 1.13159,-3.5985 0.0043,-2.4004 -0.07049,-2.55054 -1.30609,-3.71546 -0.711424,-0.63884 -1.872984,-1.2785 -2.54791,-1.39224 -0.63739,-0.1137 -1.7995,-0.4158 -2.5116,-0.71713 -0.712095,-0.26387 -2.324156,-0.64173 -3.56152,-0.86902 -5.02418,-0.87158 -9.222238,-2.3418 -10.944772,-3.88255 -0.711488,-0.60146 -1.460698,-1.1278 -1.723208,-1.1283 -0.262514,-0.0381 0.22534,-0.18715 1.05066,-0.2981 1.42566,-0.22255 1.500795,-0.2974 1.615724,-1.6475 0.114686,-1.1999 0.0025,-1.38767 -0.635132,-1.38877 -0.637572,-10e-4 -0.78717,-0.22653 -0.785644,-1.08923 0.0012,-0.6376 -0.147828,-1.2379 -0.372618,-1.35083 -0.18738,-0.11277 -0.373968,-0.63831 -0.373114,-1.12587 9.16e-4,-0.48753 -0.110412,-1.1628 -0.222351,-1.5006 -0.298705,-0.7506 -2.09729,-1.6915 -3.297485,-1.6936 h -0.0014 c -0.902076,0 -4.127281,1.4932 -4.915866,2.27905 -0.205365,0.20459 -0.43243,0.31295 -0.700616,0.31295 -0.516918,0 -1.186611,-0.4024 -2.14814,-1.2932 -1.273134,-1.165 -1.722839,-1.31577 -3.44812,-1.3188 -0.02323,-10e-5 -0.04621,-10e-5 -0.06892,-10e-5 -1.700836,0 -1.965515,0.1223 -2.633534,1.1203 -0.487129,0.7174 -0.854656,1.0662 -1.216491,1.0662 -0.280579,0 -0.557735,-0.20973 -0.884583,-0.6199 -1.796387,-2.21593 -1.833496,-2.44115 -1.955566,-18.0813 -0.06049,-8.1388 -0.123046,-15.0775 -0.122559,-15.37755 5.5e-4,-0.30005 0.0791,-2.28775 0.157959,-4.42542 0.15448,-2.4751 0.04559,-4.50063 -0.252441,-5.62633 -0.335388,-1.2008 -0.549255,-7.4646 -0.714779,-19.7668 -0.132326,-9.9019 -0.230042,-18.1907 -0.267212,-18.3785 3.66e-4,-0.22495 0.07727,-1.275 0.191772,-2.3624 0.152161,-1.19995 0.07892,-2.1752 -0.145752,-2.40064 -0.262084,-0.26306 -0.111267,-0.71286 0.527588,-1.38686 0.713928,-0.74876 0.902528,-1.3486 0.905152,-2.84885 0.0019,-1.05015 -0.258544,-2.21315 -0.557924,-2.58885 -0.635848,-0.8258 -0.745577,-2.47536 -0.183734,-2.4757 h 9.96e-4 c 0.187768,0 0.713116,-0.33645 1.126158,-0.7481 0.939333,-0.9359 1.057558,-4.12375 0.196474,-4.9879 -0.486754,-0.4885 -0.486574,-0.60106 0.0014,-0.7876 0.375305,-0.1494 0.563902,-0.74913 0.565979,-1.91185 0.0016,-0.93765 0.266603,-2.24988 0.605163,-2.84935 0.639893,-1.27407 0.574524,-6.6375 -0.13263,-9.7144 -0.29773,-1.3131 -0.2594,-1.76304 0.11609,-1.9875 0.262756,-0.14956 0.601867,-0.97402 0.753418,-1.87392 0.15155,-0.86243 0.528507,-1.91188 0.791812,-2.32386 0.300782,-0.41212 0.528016,-1.64942 0.53009,-2.81212 0.03967,-1.20008 0.266786,-2.36232 0.567567,-2.7743 0.413573,-0.5619 0.565796,-1.79932 0.571171,-4.79975 0.0054,-3.00048 0.195495,-4.46275 0.685119,-5.62463 0.565247,-1.46179 0.643799,-3.44949 0.677063,-22.05228 0.03351,-18.75294 -8.54e-4,-20.51574 -0.59906,-21.56689 -0.486084,-0.82608 -0.67157,-1.95157 -0.667663,-4.16445 0.004,-2.25038 -0.144287,-3.18824 -0.556275,-3.5265 -0.374452,-0.33826 -0.560486,-1.16382 -0.557617,-2.7765 0.0024,-1.3502 -0.220335,-2.62584 -0.519655,-3.0388 -0.26184,-0.4131 -0.597532,-1.4264 -0.746092,-2.25172 -0.148621,-0.78796 -0.521608,-1.95128 -0.820678,-2.5144 -0.29901,-0.56311 -0.522587,-1.38868 -0.521855,-1.80115 0.0013,-0.71263 -0.970032,-2.85217 -1.494202,-3.37829 -0.112301,-0.11261 -0.410273,-1.27582 -0.670345,-2.62654 -0.260193,-1.3507 -0.707948,-2.6266 -0.970154,-2.81472 -0.337097,-0.26306 -0.559021,-1.98878 -0.703247,-5.25208 -0.145019,-2.81323 -0.4776,-5.55175 -0.813597,-6.4525 -0.335756,-0.97572 -0.593874,-3.45155 -0.70154,-6.18958 -0.07043,-2.55054 -0.32837,-5.10144 -0.552433,-5.66442 -0.223937,-0.6006 -0.408997,-2.026 -0.406799,-3.2262 0.0028,-1.5752 -0.183168,-2.43824 -0.707092,-3.0768 -1.272339,-1.6151 -1.826905,-6.07924 -1.442322,-11.40432 0.34552,-4.50012 0.308594,-4.80028 -0.439148,-6.11438 -0.897524,-1.50183 -1.863893,-6.41675 -1.821657,-9.0796 0.0014,-0.7919 0.08258,-1.2893 0.17531,-1.2893 0.01708,0 0.03455,0.0169 0.05198,0.0519 0.07452,0.2628 0.411682,0.4884 0.711731,0.489 0.300049,5e-4 0.524719,0.22595 0.52417,0.526 -4.89e-4,0.26257 0.37372,0.75073 0.860658,1.0891 0.449524,0.30092 1.722777,1.39076 2.771122,2.44288 1.085755,1.05212 2.321715,1.99195 2.73407,2.1427 0.412293,0.15076 1.31134,0.75244 1.94788,1.35364 0.674011,0.60132 1.535828,1.09046 1.910889,1.09118 0.375,6.2e-4 1.124511,0.3396 1.648866,0.75306 0.52435,0.41344 1.311403,0.75244 1.761477,0.75317 0.412536,8.7e-4 1.124633,0.26465 1.499145,0.56531 0.412108,0.30078 1.124208,0.5647 1.57428,0.56556 0.450073,7.2e-4 0.899784,0.18908 0.97443,0.41418 0.149292,0.41284 1.948181,1.20362 4.609745,1.95849 0.824585,0.26403 1.911133,0.90357 2.435303,1.42969 0.524048,0.56348 1.535766,1.09044 2.28565,1.24182 0.7873,0.15142 1.574347,0.49042 1.83637,0.79082 0.262025,0.30055 0.861573,0.56422 1.311646,0.56508 0.450074,7.2e-4 1.049684,0.26428 1.311771,0.56482 0.261963,0.30053 0.786561,0.56396 1.161623,0.5647 0.337523,6e-4 0.89978,0.22668 1.19928,0.52722 0.2995,0.30066 1.19897,0.67724 1.98633,0.82873 0.78729,0.15137 1.57453,0.41541 1.68665,0.60303 0.11224,0.18774 0.93683,0.45178 1.76178,0.56579 0.862426,0.11403 1.76196,0.45325 1.98657,0.71607 0.22449,0.30054 0.89911,0.52673 1.46173,0.52783 0.56256,9.8e-4 1.12482,0.22693 1.23676,0.52723 0.11206,0.2627 0.899046,0.60168 1.76142,0.7533 0.862426,0.15148 1.836974,0.4907 2.13641,0.79137 0.2995,0.30053 1.19916,0.5647 1.98682,0.56616 0.86261,0.002 1.49988,0.19019 1.61181,0.52805 0.112,0.26257 0.86151,0.60156 1.648985,0.71545 3.112065,0.53064 6.071905,2.26123 10.528025,6.20727 0.74896,0.63892 1.68543,1.3158 2.06031,1.42884 0.67442,0.22623 0.896986,1.65076 0.22288,1.65076 h -0.0011 c -0.22485,0 -0.33838,0.5998 -0.2648,1.3872 0.07294,1.16285 0.25995,1.46326 1.00989,1.53968 0.487485,0.0758 0.97436,0.45178 1.04864,0.86438 0.14917,0.48791 0.523806,0.71362 1.27393,0.71496 0.712581,0.001 1.087341,0.18946 1.086671,0.56458 -0.001,0.67505 1.16034,1.3147 2.39801,1.3169 0.52508,8.5e-4 1.04993,0.15185 1.16199,0.3772 0.11224,0.1876 1.12451,0.37694 2.21216,0.3789 1.31275,0.002 2.17505,0.19152 2.47443,0.567 0.26202,0.30055 0.78656,0.5641 1.16162,0.5647 0.52508,10e-4 0.71191,0.41383 0.89703,1.7644 0.11072,1.01283 0.25885,2.06325 0.29578,2.36342 0.037,0.30018 0.48657,0.60095 1.01153,0.67688 1.19983,0.1521 1.87336,1.05346 1.87091,2.40368 -0.002,0.93762 0.11073,1.05042 1.3484,1.05262 1.35022,0.002 2.5495,0.49206 3.448,1.39392 0.26208,0.26294 0.7868,0.48888 1.08685,0.48938 0.33753,6e-4 0.93708,0.30176 1.31153,0.64013 0.52567,0.46897 3.10992,0.71851 5.61785,0.71851 2.31567,0 4.56627,-0.21274 5.07124,-0.66199 0.37561,-0.29931 1.08887,-0.67321 1.61414,-0.78465 1.05065,-0.26076 3.60487,-2.4314 4.35731,-3.70534 1.20386,-2.06066 2.07056,-4.30946 2.29828,-5.8468 0.12579,-0.94281 0.21771,-1.32746 0.37389,-1.32746 0.0799,0 0.17652,0.1006 0.30311,0.2785 0.26196,0.33802 0.89905,0.6017 1.46167,0.60267 0.71259,10e-4 1.08722,0.26441 1.34851,0.94007 0.29865,0.78808 0.59839,0.93872 1.83613,0.94091 0.82507,10e-4 1.61248,0.15295 1.72454,0.37818 0.11224,0.18774 0.78699,0.37647 1.4621,0.37767 0.71258,10e-4 1.46228,0.26515 1.72424,0.5657 0.26202,0.30052 0.97412,0.5642 1.61176,0.56542 0.60003,9.8e-4 1.31226,0.26488 1.53674,0.5653 0.22442,0.33788 1.08642,0.67713 1.91133,0.82862 0.82489,0.11389 1.64948,0.453 1.79895,0.75329 0.18701,0.26282 0.93671,0.48927 1.76184,0.49073 1.23767,0.002 1.50006,0.11511 1.49896,0.7528 -10e-4,0.6001 0.26117,0.75061 1.42384,0.75269 0.75011,10e-4 1.72479,0.2655 2.0993,0.56628 0.41205,0.30077 1.27423,0.56494 1.94934,0.56604 0.71258,10e-4 1.27478,0.22743 1.42419,0.56519 0.11188,0.33777 0.67407,0.56372 1.27417,0.56482 0.6001,10e-4 1.31226,0.26489 1.57422,0.56542 0.26202,0.30054 0.74915,0.56397 1.08667,0.56458 0.33759,6.2e-4 1.12457,0.33948 1.72394,0.75318 0.63692,0.41381 1.57393,0.75294 2.09901,0.7539 0.52509,9.8e-4 1.27472,0.26477 1.68671,0.56554 0.37457,0.30067 1.16168,0.56474 1.7243,0.56572 0.56256,9.8e-4 1.08735,0.15198 1.19959,0.33972 0.11224,0.15016 0.86188,0.41406 1.68683,0.52808 0.82489,0.11401 1.79943,0.45338 2.09881,0.79138 0.33704,0.33813 1.04914,0.60193 1.53675,0.60278 0.52508,9.8e-4 1.1997,0.26477 1.49914,0.56532 0.3371,0.30065 1.08673,0.56444 1.68683,0.56554 0.63757,10e-4 1.3872,0.26502 1.6867,0.56566 0.33704,0.30067 0.86164,0.56422 1.2367,0.56483 0.33759,6.1e-4 1.27461,0.33985 2.09902,0.75391 0.8244,0.41394 1.94897,0.75354 2.51153,0.75464 0.7876,0.001 1.04987,0.18932 1.04883,0.75195 -0.001,0.6001 0.26117,0.75061 1.31134,0.75244 1.08765,0.002 1.31244,0.15235 1.31128,0.78993 -9.3e-4,0.51797 0.0703,0.6963 0.65797,0.6963 0.26339,0 0.63047,-0.0358 1.14128,-0.0929 0.3391,-0.0418 0.64525,-0.0627 0.92096,-0.0627 0.70037,0 1.20446,0.13483 1.55384,0.4046 0.41198,0.30078 1.34918,0.52747 2.13684,0.5288 0.90014,0.002 1.4624,0.19032 1.61175,0.56556 0.112,0.3003 0.63654,0.56372 1.16162,0.5647 0.52509,9.8e-4 1.04981,0.22681 1.16181,0.5271 0.11193,0.30029 0.82399,0.63904 1.57381,0.79041 0.74981,0.15136 1.68695,0.49073 2.09893,0.7915 0.41205,0.30078 1.12421,0.52698 1.53675,0.52771 0.41259,7.2e-4 1.08728,0.26452 1.46179,0.56532 0.41199,0.30077 1.27411,0.5648 1.94922,0.56603 0.67511,10e-4 1.27484,0.22729 1.38684,0.52757 0.11199,0.2627 0.78649,0.60146 1.49884,0.75282 0.7124,0.15125 1.49939,0.49024 1.76141,0.79065 0.26196,0.30053 0.93664,0.56433 1.53674,0.56543 0.82514,0.001 1.12476,0.22693 1.31098,0.93994 0.1861,0.82544 0.44842,0.93848 1.79864,0.9408 1.87526,0.0409 4.94924,0.83411 5.5483,1.4353 0.26202,0.26294 1.08685,0.45203 1.83698,0.45336 0.75012,10e-4 1.57476,0.26527 1.83672,0.5658 0.26203,0.30042 0.93671,0.56422 1.53681,0.5653 0.67505,10e-4 1.2746,0.30238 1.53637,0.75294 0.33668,0.48816 0.89881,0.75171 1.72394,0.75318 0.67505,10e-4 1.4997,0.26526 1.7992,0.56578 0.33709,0.30067 1.23676,0.5647 2.06183,0.56618 1.05018,0.002 1.46247,0.15272 1.46174,0.5653 -6.7e-4,0.375 0.37409,0.56324 1.27417,0.56495 0.75012,10e-4 1.34979,0.22729 1.46186,0.52757 0.11193,0.3003 0.78643,0.63893 1.46124,0.79017 0.67486,0.15125 1.57434,0.52796 1.98639,0.79113 0.41211,0.3008 1.38678,0.52772 2.17443,0.52906 0.90015,0.002 1.49994,0.19019 1.61176,0.56556 0.14942,0.33778 0.71154,0.56372 1.46167,0.56506 0.71265,10e-4 1.46222,0.30272 1.87397,0.75354 0.41174,0.45081 1.1613,0.7522 1.87396,0.75342 0.75012,10e-4 1.31231,0.22741 1.46174,0.56531 0.11186,0.33765 0.67406,0.56385 1.46166,0.56518 0.71264,10e-4 1.49981,0.26514 1.76178,0.56567 0.26202,0.30054 0.89911,0.5642 1.38672,0.56507 0.52508,9.7e-4 1.3496,0.33996 1.8739,0.75353 0.52434,0.41346 1.23639,0.75233 1.57391,0.75294 0.33759,6.1e-4 0.93726,0.26416 1.31171,0.56494 0.41205,0.30078 1.19919,0.5647 1.76182,0.56567 0.56255,9.8e-4 1.0872,0.26455 1.23668,0.56485 0.11194,0.3003 0.59906,0.56372 1.12415,0.56458 1.42523,0.003 2.09961,0.37878 2.09814,1.20398 -8.2e-4,0.47729 0.10393,0.66058 0.70758,0.66058 0.20267,0 0.46158,-0.0207 0.79163,-0.0578 0.19134,-0.0144 0.36679,-0.0216 0.52609,-0.0216 0.65253,0 1.03353,0.12075 1.12357,0.36203 0.11193,0.3003 0.86176,0.48913 1.91192,0.49096 1.42524,0.003 1.6875,0.1156 1.6864,0.75318 -0.001,0.63756 0.26124,0.75061 1.87397,0.75341 1.42523,0.003 1.875,0.15345 1.87427,0.56605 -6.8e-4,0.375 0.37408,0.5631 1.27422,0.5648 0.7876,10e-4 1.34974,0.22743 1.49915,0.56532 0.11188,0.37524 0.71167,0.56384 1.7243,0.56568 1.01263,0.002 1.61237,0.1903 1.72425,0.56567 0.11194,0.30017 0.7865,0.63903 1.49884,0.79028 0.67486,0.11365 1.42438,0.45265 1.6864,0.75318 0.22449,0.30041 0.97424,0.52673 1.64934,0.52795 0.67506,10e-4 1.4247,0.26514 1.68672,0.56567 0.26202,0.30042 1.08668,0.56458 1.87428,0.56592 0.86266,0.002 1.49986,0.19019 1.6118,0.52796 0.112,0.30017 0.93653,0.63917 1.79883,0.79077 0.8999,0.1516 1.83692,0.52844 2.13647,0.79138 0.26203,0.30054 0.97422,0.52698 1.57432,0.52795 0.60008,0.001 1.12468,0.26465 1.27418,0.56494 0.11192,0.37525 0.7116,0.56385 1.68675,0.56556 0.93769,0.002 1.53748,0.19017 1.68683,0.56567 0.11194,0.30017 0.89887,0.67664 1.72376,0.79065 0.86242,0.15149 1.64941,0.49048 1.76146,0.7533 0.112,0.30017 0.67414,0.52625 1.31178,0.52745 0.6001,10e-4 1.34972,0.2649 1.64922,0.56544 0.33705,0.30066 1.2367,0.56482 2.06184,0.56628 1.01263,0.002 1.46246,0.15271 1.46179,0.52771 -10e-4,0.6001 0.78583,0.97657 2.06104,0.97889 0.45007,7.3e-4 1.04973,0.2644 1.3117,0.56494 0.26203,0.30041 0.93665,0.56421 1.49921,0.56518 0.56262,9.8e-4 1.2373,0.2273 1.46179,0.52771 0.26203,0.30055 1.04901,0.63953 1.79889,0.7909 0.74982,0.15135 1.72444,0.4906 2.13641,0.79138 0.41205,0.30077 1.12421,0.52722 1.57428,0.52795 0.45008,8.6e-4 0.89972,0.26404 1.0492,0.56446 0.11181,0.37524 0.71155,0.56384 1.72425,0.56566 1.01263,0.002 1.61242,0.19032 1.72423,0.56568 0.14937,0.37525 0.74909,0.56385 1.87427,0.5658 1.16266,0.002 1.65003,0.15308 1.64935,0.5282 -9.7e-4,0.56262 0.78589,0.97644 1.87357,0.97839 0.33758,6.1e-4 0.86218,0.26416 1.12415,0.5647 0.26203,0.30041 1.08673,0.56457 1.87433,0.56593 0.8626,0.002 1.49987,0.19017 1.61175,0.52794 0.11212,0.2627 0.89911,0.60169 1.79901,0.71582 0.86244,0.11414 1.72444,0.4906 1.91138,0.79102 0.18696,0.33789 0.82409,0.60156 1.38666,0.60254 0.6001,10e-4 1.16223,0.26464 1.3117,0.56506 0.11182,0.37512 0.7116,0.56372 1.72425,0.56555 0.93768,0.002 1.61242,0.19043 1.7243,0.5282 0.11212,0.26282 1.0116,0.60193 2.02399,0.75377 1.04992,0.15187 1.87446,0.45338 2.02386,0.79115 0.11206,0.30029 0.59912,0.56372 1.0492,0.56458 0.4876,8.5e-4 1.1997,0.26452 1.5742,0.5653 0.41206,0.30079 1.38673,0.56507 2.1744,0.56653 1.01263,0.002 1.42492,0.15259 1.42413,0.56522 -4.9e-4,0.30005 0.29907,0.56299 0.67413,0.5636 0.33758,6.2e-4 1.2746,0.33996 2.06146,0.7539 0.74938,0.41394 1.61145,0.75292 1.9115,0.75354 0.30005,4.8e-4 0.59961,0.26355 0.74915,0.56398 0.11181,0.37523 0.71153,0.56383 1.72418,0.56566 1.0877,0.002 1.5,0.15271 1.49925,0.56519 -5.3e-4,0.30005 0.224,0.56299 0.48653,0.56347 0.30005,4.8e-4 0.89953,0.33912 1.38641,0.75258 0.48682,0.41344 1.34886,0.75255 1.94894,0.75365 0.6001,10e-4 1.16236,0.22717 1.27417,0.56488 0.14948,0.30029 0.67408,0.5636 1.23658,0.6023 0.86267,0.001 0.90007,0.0391 0.22442,0.33789 -0.41098,0.18591 -1.34235,0.33374 -2.09075,0.33374 h -0.0101 c -0.75018,0.0361 -2.02576,0.25904 -2.85144,0.55761 -0.73975,0.2674 -1.65985,0.41419 -2.22095,0.41419 -0.0652,0 -0.12547,-0.002 -0.18011,-0.006 -0.48749,-0.0759 -4.34998,-0.42028 -8.5874,-0.80298 -3.55042,-0.28855 -6.01001,-0.4277 -7.94266,-0.4277 -1.14978,0 -2.11307,0.0493 -3.0086,0.1456 -0.6999,0.068 -1.42814,0.10275 -2.19404,0.10275 -2.96966,0 -6.50598,-0.52305 -11.15521,-1.66422 -1.38718,-0.34021 -4.27395,-0.98291 -6.44858,-1.39941 -3.97424,-0.75722 -4.91144,-0.98389 -9.37287,-2.00452 -3.1852,-0.78 -9.327,-1.2578 -14.6513,-1.2578 -1.38092,0 -2.70688,0.0321 -3.912,0.0995 -2.89598,0.18063 -5.87486,0.26523 -8.4458,0.26523 -3.65617,0 -6.48723,-0.1711 -7.08125,-0.48044 -0.31061,-0.1755 -0.72211,-0.26056 -1.344,-0.26056 -0.57831,0 -1.33862,0.0736 -2.36902,0.21625 -10.46667,1.40662 -13.50561,1.96387 -15.68237,2.78505 -1.38708,0.52196 -2.92352,0.93138 -3.48773,0.93138 h -0.004 c -0.52605,0 -1.72525,0.41016 -2.62525,0.93287 -1.19375,0.70593 -2.16448,0.93075 -3.79543,0.93075 -0.0106,0 -0.0212,0 -0.0319,-3e-5 -0.008,0 -0.0163,-3e-5 -0.0245,-3e-5 -2.35677,0 -5.01291,0.59536 -8.07989,1.78592 -1.05103,0.44812 -3.22712,0.89429 -4.87763,1.04138 -1.61297,0.10974 -3.86401,0.48071 -4.98975,0.81629 -1.43273,0.3912 -4.29183,0.58343 -7.03196,0.58343 -3.00116,0 -5.85961,-0.23059 -6.54502,-0.6828 -0.71134,-0.47596 -1.66865,-0.61516 -4.86814,-0.61516 -0.33881,0 -0.70275,0.002 -1.0942,0.004 -0.26123,0.003 -0.51895,0.004 -0.77218,0.004 -2.61928,0 -4.75959,-0.14968 -5.34061,-0.3901 -0.63715,-0.22632 -2.39931,-0.56702 -3.93678,-0.7572 -2.17475,-0.30396 -3.03687,-0.60558 -3.78565,-1.31958 -0.52416,-0.52588 -1.16107,-0.9397 -1.34857,-0.93995 -0.22504,-4.8e-4 -1.46155,-0.67773 -2.73523,-1.50512 -1.27374,-0.8274 -2.43518,-1.50463 -2.5852,-1.50489 -0.15003,-2.4e-4 -1.08698,-0.41442 -2.13629,-0.90404 -1.01167,-0.52674 -3.22278,-1.506 -4.87177,-2.22144 -4.90938,-2.14661 -5.50893,-2.44776 -8.05653,-4.02762 -1.34876,-0.82752 -2.69776,-1.50514 -2.99775,-1.50562 -0.30004,-4.9e-4 -1.23681,-0.52722 -2.02331,-1.12878 -0.82404,-0.63904 -1.68573,-1.12804 -1.94831,-1.12854 -0.30004,-6e-4 -0.67462,-0.30127 -0.86132,-0.71424 -0.22431,-0.41296 -0.97376,-0.7893 -1.91113,-0.94104 -0.86243,-0.15148 -1.94947,-0.49096 -2.39899,-0.79187 -1.57336,-1.05297 -6.41048,-1.69935 -12.63643,-1.71045 -0.087,-1.5e-4 -0.17317,-2.4e-4 -0.2585,-2.4e-4 -5.9113,0 -7.85361,0.37844 -8.55827,1.59729 -0.18806,0.29968 -0.97644,0.74841 -1.80201,1.00952 l -1.4261,0.44751 0.14685,1.80054 c 0.11042,1.16284 0.67048,2.58911 1.6053,4.16592 1.64527,2.77846 2.24439,3.34206 3.44458,3.34424 1.23768,0.002 4.30781,2.97058 4.94227,4.77197 0.26105,0.78821 1.23388,2.10267 2.1325,2.96692 1.34796,1.24013 1.6471,1.76563 1.64515,2.8534 -0.005,2.62536 2.08892,6.37976 3.88824,6.90793 0.44989,0.1134 1.31152,0.6399 1.98578,1.1288 1.31097,1.0149 4.6465,2.4086 5.69661,2.41053 0.4126,7.4e-4 0.78717,0.26392 0.93664,0.56421 0.112,0.30029 0.67413,0.56386 1.2367,0.56496 1.80029,0.003 2.73718,0.41734 2.73578,1.20506 -0.002,0.9751 2.17199,1.87904 5.43438,2.22244 2.36243,0.22934 2.69971,0.38 3.74775,1.582 0.59881,0.7136 1.90985,1.65357 2.88421,2.0679 0.97437,0.4519 1.83589,1.0909 1.98506,1.54136 0.14911,0.52539 0.67365,0.82629 1.61103,1.0155 1.42468,0.26514 3.07281,1.46824 3.07141,2.25584 -0.001,0.56264 1.19854,0.90236 3.29889,0.90615 1.6502,0.003 2.81213,0.45505 3.78558,1.39441 0.27341,0.30481 0.79408,0.43719 1.52191,0.43719 0.16907,0 0.34931,-0.007 0.54023,-0.0209 0.1907,-0.0245 0.41435,-0.0362 0.65801,-0.0362 0.85875,0 1.96596,0.1447 2.7544,0.37984 1.04962,0.26456 2.51202,0.49206 3.26214,0.49341 0.75008,10e-4 1.49984,0.19019 1.61208,0.37805 0.13492,0.2031 0.84953,0.34626 1.70384,0.34626 0.093,0 0.18763,-0.002 0.28334,-0.005 0.12079,-0.004 0.25539,-0.007 0.40108,-0.007 1.03058,0 2.61641,0.10536 3.79912,0.23896 l 2.43738,0.26696 -0.14206,16.53974 c -0.0992,13.5395 -0.21765,16.8398 -0.6698,18.00176 -0.82868,2.02381 -0.68329,4.61194 0.36248,7.01414 l 0.85901,2.06435 -0.82715,1.12378 c -0.82708,1.08617 -2.40441,2.24607 -5.85857,4.30262 -1.38917,0.82275 -3.00587,2.99511 -3.00776,4.04528 -0.001,0.6001 -2.44586,4.45887 -3.72357,5.88187 -0.63892,0.749 -1.16547,1.5731 -1.16595,1.83566 -5.5e-4,0.30004 -0.2638,0.71204 -0.56434,0.97414 -0.30047,0.26195 -0.56488,1.27415 -0.64184,2.3617 -0.0778,1.57505 -0.26611,2.0249 -0.90424,2.28623 -1.31373,0.59777 -1.65437,2.32237 -1.66542,8.51087 -0.007,3.9755 -0.16133,6.3006 -0.53847,7.4626 -0.30169,0.9371 -0.75598,3.2992 -0.98455,5.2491 -0.26599,1.94986 -0.6463,4.91214 -0.87433,6.5619 -0.49402,3.59975 -0.49853,6.11257 -0.0556,10.1266 0.40625,3.52625 0.51843,3.714 2.95251,5.8186 1.04858,0.9021 1.98437,1.91645 2.13366,2.32923 0.17216,0.42011 0.42603,0.5802 2.73102,0.5802 1.19596,0 2.94408,-0.0431 5.51948,-0.11533 4.38836,-0.10476 8.28945,-0.36025 8.6274,-0.54714 1.72681,-0.89706 0.98994,-8.32453 -1.03143,-10.5036 -0.48666,-0.52596 -0.89822,-1.0893 -0.89797,-1.23932 3e-4,-0.15004 -0.7483,-1.01394 -1.60938,-1.87804 -0.93604,-0.9019 -1.72156,-2.06605 -1.83301,-2.70375 -0.11139,-0.60035 -0.14423,-3.22585 -0.0644,-5.88855 0.11895,-3.60034 0.34698,-5.25024 0.91204,-6.67444 1.16797,-2.92336 3.04947,-6.40802 4.25223,-7.83099 2.63111,-3.18337 4.2472,-5.05577 4.77307,-5.50501 0.30054,-0.26186 1.12696,-0.97302 1.8407,-1.60936 0.71321,-0.5984 1.53879,-1.12184 1.87674,-1.12184 h 10e-4 c 0.33819,0 1.57644,-0.67261 2.77755,-1.49536 1.91411,-1.27093 8.36377,-3.7329 9.83097,-3.7329 h 0.003 c 0.22534,0 0.78815,-0.374 1.23883,-0.86036 1.43274,-1.51514 4.63648,-2.79994 6.3754,-2.79994 0.49579,0 0.8725,0.10444 1.05514,0.3378 0.2245,0.3005 0.63532,1.27635 0.89624,2.17686 0.44764,1.38854 0.78449,1.76428 1.98389,2.21654 l 1.42413,0.60255 -0.23176,3.75015 c -0.15392,2.17515 -0.49504,4.1623 -0.79588,4.6119 -1.20362,1.91054 -0.46712,9.5255 1.10485,11.3662 0.26203,0.30056 0.71015,1.38894 0.97095,2.3645 0.26068,1.0132 0.78363,2.2144 1.15796,2.62747 1.38477,1.69043 4.30292,5.74623 4.7514,6.64709 0.26154,0.52564 0.71015,1.35154 0.97187,1.83948 0.74792,1.23901 5.16568,5.67273 5.69075,5.67371 0.26252,4.8e-4 0.97438,0.45175 1.61104,0.9779 0.93616,0.78931 1.16033,1.27725 1.15832,2.40245 -0.001,0.7876 0.18474,1.5756 0.37207,1.6885 0.22485,0.1129 0.37402,0.5632 0.37335,0.9382 -7e-4,0.3983 -0.18328,0.5949 2.33786,0.5949 2.46456,0 7.51279,-0.1879 17.84024,-0.55874 7.50165,-0.24916 8.43946,-0.35996 8.89069,-0.99683 1.09021,-1.42323 0.53265,-4.23703 -1.18939,-6.04043 -0.26203,-0.26303 -0.48638,-0.63864 -0.48608,-0.82614 10e-4,-0.6001 -1.15998,-1.50232 -1.94764,-1.50366 -0.41254,-7.4e-4 -1.38672,-0.5651 -2.17309,-1.2416 -1.27314,-1.1649 -1.61047,-1.27806 -4.72303,-1.5461 -2.51251,-0.19204 -3.56231,-0.419 -4.27386,-0.9828 -0.52435,-0.4136 -1.3111,-0.9025 -1.76074,-1.12843 -2.62342,-1.12977 -7.82604,-7.10242 -9.31984,-10.70567 -0.7468,-1.83913 -0.73186,-10.2029 0.0583,-11.6643 0.30115,-0.5995 0.56525,-1.4618 0.5661,-1.94937 0.002,-0.90013 0.86768,-2.81128 1.69464,-3.82253 0.263,-0.29954 0.56433,-1.0117 0.71533,-1.53636 0.11359,-0.59997 0.56453,-1.08664 1.05237,-1.23584 0.4878,-0.1117 1.38941,-0.9728 1.99121,-1.9093 0.63929,-0.9365 1.72901,-2.0973 2.44233,-2.50854 0.7135,-0.44886 1.3518,-0.86026 1.42688,-0.89746 0.0751,-0.0375 0.48931,-0.97437 0.9414,-2.09876 1.16767,-2.77344 3.42384,-6.03234 5.3772,-7.75404 0.90154,-0.7861 1.65332,-1.7224 1.65394,-2.0599 7.2e-4,-0.4109 0.33577,-0.5979 1.22744,-0.5979 h 0.0319 c 1.40902,0 1.8581,-0.2648 2.45736,-1.4208 0.21332,-0.3824 0.4531,-0.5664 0.68897,-0.5664 0.38812,0 0.76562,0.49847 0.99725,1.432 0.14905,0.56287 0.59827,1.0138 1.16059,1.1648 1.12469,0.26464 1.68573,1.16577 1.6831,2.6284 -0.001,0.70235 0.0373,0.89894 0.63346,0.89894 0.23162,0 0.54742,-0.0296 0.97781,-0.0709 0.26419,-0.0278 0.51413,-0.0414 0.7474,-0.0414 0.69419,0 1.24094,0.1205 1.57736,0.3456 0.37452,0.3008 1.2743,0.52736 1.9494,0.5286 1.05018,0.002 1.38728,0.2275 2.02302,1.2788 0.67303,1.1639 0.9353,1.3143 2.92268,1.5431 1.79998,0.19065 2.3996,0.4543 3.26055,1.3934 1.38513,1.4652 4.19479,3.3081 5.09495,3.3097 0.375,6e-4 1.3117,0.5648 2.06053,1.2788 0.78637,0.6765 1.94757,1.5038 2.5846,1.8424 0.63697,0.33864 1.64807,1.20315 2.24682,1.95437 2.2453,2.81689 2.73225,3.19287 3.85743,3.19493 0.90014,0.002 1.27472,0.2648 1.76056,1.20326 0.52331,1.01354 0.59661,1.95144 0.40222,5.81409 l -0.27082,4.61279 1.27521,0.002 h 0.005 c 0.67404,0 1.45914,-0.26044 1.72152,-0.55934 0.6284,-0.7653 3.29594,-2.2708 3.97318,-2.2708 0.052,0 0.0923,0.009 0.11899,0.0276 0.18733,0.11291 0.44757,1.42605 0.59491,2.92651 0.22002,2.776 -0.19751,5.55054 -1.55603,10.19884 -0.33972,1.2372 -0.68145,3.5994 -0.68457,5.3247 -0.0421,2.5502 0.0693,3.2256 0.74268,4.127 0.44909,0.5632 1.16076,1.0897 1.61071,1.1654 0.63739,0.11375 0.78693,0.37657 0.78503,1.42674 l -0.002,1.27516 2.36285,0.004 c 0.0239,4e-5 0.0477,4e-5 0.0712,4e-5 2.00397,0 2.537,-0.159 4.2443,-1.305 1.07058,-0.72605 1.5746,-1.0392 1.84713,-1.0392 0.17673,0 0.25607,0.13175 0.32944,0.36796 0.11183,0.37524 0.44783,1.27588 0.78406,1.98914 0.29877,0.7131 0.63354,2.25146 0.78155,3.37695 0.11029,1.27539 0.52069,2.47632 1.00702,3.1897 0.48645,0.60105 0.9345,1.72705 1.0832,2.47741 0.14867,0.75044 0.74664,1.95164 1.3455,2.62784 0.5989,0.71365 1.12227,1.65225 1.1215,2.0647 -8e-4,0.4501 0.3354,1.20083 0.7096,1.68905 0.7484,0.93905 0.52337,0.9386 11.2862,1.70801 2.02502,0.15364 3.41228,0.41864 3.82415,0.79444 0.33813,0.2908 0.73895,0.42584 1.64505,0.42584 0.49887,0 1.15088,-0.0409 2.02994,-0.11924 1.65056,-0.14706 3.07623,-0.40707 3.18902,-0.55685 0.11286,-0.18735 0.82604,-0.52362 1.6142,-0.78479 2.13904,-0.67126 2.70276,-1.3454 2.70612,-3.22066 0.003,-1.8377 -1.30414,-4.72795 -2.68964,-5.9682 -0.44934,-0.4133 -1.79779,-1.391 -2.92164,-2.14305 -1.7982,-1.16589 -2.43542,-1.39209 -5.06035,-1.6217 -3.4126,-0.26865 -4.49935,-0.79565 -4.79673,-2.29651 -0.11152,-0.56274 -0.63282,-2.66404 -1.19195,-4.61534 -1.11811,-3.9402 -1.26264,-7.0159 -0.35865,-9.1521 0.30128,-0.71205 0.56653,-2.2118 0.56848,-3.2996 0.002,-1.23765 0.2292,-2.3248 0.60523,-2.8868 0.33837,-0.48696 0.71607,-1.949 0.83112,-3.33657 0.11541,-1.65003 0.53075,-3.18703 1.28355,-4.64833 0.56462,-1.1617 1.05455,-2.4736 1.05534,-2.9237 7.4e-4,-0.41246 0.49066,-1.72435 1.0929,-2.92345 0.60229,-1.1991 1.20544,-2.96069 1.35724,-3.93565 0.26538,-1.5747 0.41589,-1.83705 1.54192,-2.3225 1.01338,-0.4109 1.2765,-0.74795 1.27796,-1.57315 0.001,-0.78772 0.002,-0.9845 0.95179,-0.9845 0.3164,0 0.73809,0.0218 1.30023,0.0509 l 2.25012,0.15404 -0.004,2.28785 c -0.002,1.27525 0.21943,3.15088 0.5176,4.20165 0.7822,3.00184 7.13787,14.3776 9.0473,16.25624 0.48675,0.4884 0.8983,1.05176 0.89794,1.23926 -3.7e-4,0.2251 0.67181,1.839 1.4939,3.5658 0.82196,1.76415 1.49396,3.5282 1.49322,3.9408 -7.9e-4,0.41246 0.18554,1.088 0.37244,1.46324 0.2243,0.37561 0.52112,2.1764 0.70538,4.01456 0.18422,1.838 0.55579,3.78903 0.81738,4.352 0.41089,0.9009 0.67328,1.01394 2.211,1.0166 0.0112,0 0.0222,10e-5 0.0333,10e-5 1.5094,0 1.85244,-0.1945 3.23257,-1.607 1.31513,-1.3478 1.57867,-1.9099 1.9577,-4.1221 0.26502,-1.3873 0.7555,-3.0366 1.13167,-3.6361 l 0.6771,-1.1239 0.74855,0.864 c 0.4118,0.4508 0.86047,1.2393 1.00958,1.76455 0.44672,1.8385 0.82135,2.06435 3.48419,2.10655 1.5752,0.0403 2.55011,0.19203 2.66211,0.4923 0.0745,0.22525 1.27301,1.2024 2.65912,2.1051 1.38605,0.9401 2.69672,2.06766 2.9209,2.5557 0.41095,0.9009 1.76025,1.39074 3.63559,1.39416 0.45006,7.4e-4 2.09886,0.82884 3.67218,1.88184 1.57348,1.0155 3.14715,1.881 3.52221,1.8816 1.9878,0.004 5.77271,1.81065 5.77094,2.78575 -7.7e-4,0.41602 0.0788,0.57665 0.73863,0.57665 0.35137,0 0.86736,-0.0455 1.62343,-0.12236 3.48877,-0.40634 11.89459,-2.90414 11.89581,-3.57929 2.6e-4,-0.15005 0.4137,-0.67431 0.93958,-1.16101 0.48852,-0.48684 0.93982,-1.12354 0.94018,-1.38611 5e-4,-0.22497 0.339,-0.78698 0.75232,-1.19873 0.48841,-0.4868 0.75232,-1.23645 0.75403,-2.21154 0.004,-2.1753 -0.29529,-2.62586 -1.98242,-3.07896 -0.82459,-0.2266 -1.724,-0.6408 -2.02356,-0.94143 -0.29944,-0.30042 -0.97424,-0.52673 -1.46173,-0.52757 -0.52509,-10e-4 -1.31232,-0.2273 -1.76184,-0.5282 -0.4496,-0.26344 -1.5741,-0.6405 -2.47406,-0.75453 -1.72479,-0.26563 -3.26081,-1.24367 -6.1438,-3.98667 -0.97351,-0.9395 -2.02222,-1.7664 -2.32196,-1.8794 -0.26238,-0.11306 -1.27308,-1.20254 -2.20856,-2.4419 -0.93542,-1.2393 -1.83342,-2.4412 -2.02057,-2.6289 -0.14965,-0.2255 -0.78535,-1.31423 -1.34588,-2.44033 -1.56964,-3.15332 -1.98097,-3.82922 -2.99167,-4.91867 -0.52405,-0.56345 -1.1225,-1.4647 -1.34662,-1.9902 -0.18658,-0.5254 -0.52332,-0.9761 -0.74835,-0.97645 -0.18756,-3.5e-4 -0.37458,-0.26315 -0.37409,-0.56325 4.9e-4,-0.26255 -0.22381,-0.6755 -0.48614,-0.8259 -0.2622,-0.1505 -0.89844,-0.90186 -1.38477,-1.61536 -0.48627,-0.7135 -1.08496,-1.5022 -1.30969,-1.69004 -0.59912,-0.5263 -2.80676,-3.4556 -4.11604,-5.4082 -0.59838,-0.9013 -1.4968,-1.87796 -1.94634,-2.17886 -0.487,-0.33838 -0.86102,-0.93924 -0.86011,-1.42674 8.5e-4,-0.4877 -0.41009,-1.38857 -0.89655,-1.9895 -1.0106,-1.16445 -2.84026,-5.70595 -2.838,-6.9811 8e-4,-0.4501 -0.26044,-1.1631 -0.55976,-1.5763 -0.29938,-0.3755 -0.56067,-1.0886 -0.55974,-1.57617 10e-4,-0.70666 0.18587,-0.82287 1.28603,-0.82287 h 0.0435 c 1.11257,0 1.414,-0.22821 2.2377,-1.49622 0.52654,-0.82409 0.94048,-1.61094 0.94072,-1.76098 3.8e-4,-0.1875 0.48902,-0.78676 1.09015,-1.34826 0.60108,-0.56153 1.31563,-1.64796 1.54206,-2.4352 0.26391,-0.7496 0.79137,-2.09887 1.20557,-2.9983 0.75292,-1.57384 1.16802,-2.9984 1.77306,-5.7727 0.18897,-0.78734 0.79126,-2.0239 1.35524,-2.77306 0.65572,-0.83148 1.0276,-1.14477 1.47118,-1.14477 0.11582,0 0.23654,0.0213 0.36847,0.0604 0.9895,0.3186 2.42877,0.4812 3.72732,0.4812 1.16108,0 2.20966,-0.13 2.72355,-0.39466 0.901,-0.48594 3.49316,-2.84424 5.71018,-5.16564 0.2631,-0.2996 0.8266,-0.8236 1.20232,-1.198 0.52588,-0.4491 0.75214,-1.12385 0.75421,-2.2866 0.003,-1.65024 0.86797,-2.9989 3.57325,-5.69455 0.26306,-0.29955 0.56378,-0.67405 0.63916,-0.89895 0.0438,-0.1521 0.2134,-0.21573 0.43226,-0.21573 0.53618,0 1.36775,0.38208 1.36705,0.78153 -7.9e-4,0.4501 2.09577,2.5166 3.5943,3.4944 0.37457,0.2633 1.72327,1.1284 2.95941,1.9557 1.23621,0.82726 2.54774,1.50475 2.92274,1.5055 0.33764,6e-4 0.86193,0.41405 1.08617,0.9396 0.30155,0.6628 0.95693,0.99215 1.62418,0.99215 0.65525,0 1.32193,-0.31765 1.67612,-0.94879 0.41406,-0.8244 0.75183,-0.93636 3.33983,-1.04426 0.75804,-0.0327 1.3865,-0.0502 1.9051,-0.0502 1.7653,0 2.25787,0.20236 2.25702,0.69531 -10e-4,0.67511 1.79663,2.06595 2.69666,2.06755 0.41259,7.5e-4 0.97472,0.2644 1.31176,0.5651 0.33744,0.3694 0.92716,0.5126 2.05806,0.5126 0.249,0 0.5243,-0.007 0.8289,-0.0199 2.25062,-0.10852 2.2882,-0.14599 2.40272,-1.23339 0.0761,-0.63746 0.30224,-1.27466 0.49011,-1.46192 0.45093,-0.48674 0.45495,-2.73714 -0.0321,-3.03804 -0.18725,-0.1128 -0.37317,-1.08836 -0.37122,-2.13853 0.003,-1.53772 -0.109,-1.91297 -0.74645,-2.06407 -0.41223,-0.1133 -0.74915,-0.45144 -0.74878,-0.714 6.1e-4,-0.30006 -0.41162,-0.52577 -1.0116,-0.56446 -0.6001,-10e-4 -0.78747,-0.11377 -0.48717,-0.22584 0.30016,-0.0745 0.90062,-0.29845 1.31347,-0.4852 0.41296,-0.1869 1.68847,-0.40957 2.81396,-0.52004 1.20032,-0.11046 2.25113,-0.44616 2.47672,-0.7832 0.22555,-0.2995 0.60067,-0.56116 0.86322,-0.56116 h 10e-4 c 0.22465,0 0.41223,-0.22455 0.41272,-0.4868 8.5e-4,-0.52486 1.61548,-2.1339 2.14111,-2.1339 h 7.2e-4 c 0.18763,0 0.60072,-0.4118 0.86403,-0.9362 0.26342,-0.52464 0.90222,-1.1985 1.39037,-1.49767 0.75098,-0.48623 0.86427,-0.89868 0.86762,-2.77386 0.005,-2.55042 -0.21887,-3.41347 -0.96899,-3.41477 -0.30005,-5e-4 -0.52466,-0.226 -0.52429,-0.48855 4.8e-4,-0.26255 -0.48584,-0.901 -1.04761,-1.38955 -1.53531,-1.3905 -2.32059,-2.6671 -2.31851,-3.8297 10e-4,-0.8252 -0.18567,-1.0505 -0.82325,-1.0516 -1.20019,-0.002 -3.29907,-0.8311 -3.29821,-1.3186 4.8e-4,-0.2626 -0.59826,-0.9762 -1.3097,-1.65274 -0.71142,-0.63879 -1.3103,-1.31506 -1.31006,-1.46506 2.5e-4,-0.15005 -0.5238,-0.7886 -1.12268,-1.4646 -1.2727,-1.35257 -1.53149,-3.4909 -0.55456,-4.4644 0.41334,-0.4117 0.56506,-1.3866 0.56874,-3.4493 0.005,-2.663 -0.10695,-3.15078 -1.56435,-6.04128 -0.9718,-1.91468 -2.43078,-4.01758 -3.66601,-5.3324 -2.05908,-2.14148 -6.81616,-5.60059 -7.71631,-5.60217 -0.26257,-4.9e-4 -1.12439,-0.41468 -1.87366,-0.94105 -0.74914,-0.5265 -1.98584,-1.0912 -2.73559,-1.31765 -0.74976,-0.18885 -2.21143,-0.75403 -3.26062,-1.28101 -1.69016,-0.82721 -3.00489,-1.21472 -4.67646,-1.21472 -1.21923,0 -2.6283,0.20618 -4.51138,0.59828 -2.13862,0.40856 -4.72766,1.04174 -5.77832,1.33983 -1.01324,0.29822 -4.12707,0.78027 -6.9406,1.11279 -3.67628,0.40604 -5.32722,0.77811 -6.07826,1.30192 -0.56262,0.3735 -1.34979,0.70936 -1.76269,0.70936 h -0.004 c -0.41318,0 -1.19926,0.18593 -1.79864,0.44676 -0.60059,0.2616 -2.8512,0.44507 -5.17664,0.47852 -6.75116,0.0254 -15.41653,0.87256 -19.01883,1.87866 -2.00395,0.55283 -3.08118,0.83218 -3.98895,0.83218 -0.92807,0 -1.67902,-0.29196 -3.06207,-0.88222 -1.23676,-0.52723 -2.73627,-0.9425 -3.33637,-0.9436 -0.6001,-10e-4 -1.16223,-0.22718 -1.31164,-0.56495 -0.11206,-0.3003 -0.52412,-0.5636 -0.93672,-0.56433 -0.9376,-0.002 -2.5103,-1.42969 -2.69604,-2.44266 -0.18603,-0.82544 -1.38556,-1.20276 -4.19836,-1.28272 -1.50012,-0.0402 -1.83746,-0.19079 -2.21112,-0.97912 -0.33618,-0.75062 -0.6734,-0.93884 -1.83606,-0.94092 -0.7876,-10e-4 -1.53745,-0.1903 -1.64962,-0.37793 -0.11213,-0.22534 -0.78693,-0.37659 -1.42457,-0.37769 -0.67505,-0.001 -1.53729,-0.26525 -1.9118,-0.56591 -0.41199,-0.30077 -1.46167,-0.56531 -2.32428,-0.56677 -1.27521,-0.002 -1.65003,-0.15296 -1.83649,-0.75342 -0.18646,-0.60048 -0.56122,-0.7511 -1.83643,-0.75342 -1.01263,-0.002 -1.79986,-0.22826 -2.0993,-0.56641 -0.26203,-0.30055 -1.08667,-0.56445 -1.87427,-0.56579 -0.90014,-0.002 -1.49994,-0.19031 -1.64929,-0.56568 -0.11194,-0.30018 -0.63653,-0.56372 -1.12414,-0.56458 -0.52509,-9.7e-4 -1.49963,-0.3402 -2.17395,-0.75402 -0.67438,-0.4137 -1.61152,-0.75293 -2.02405,-0.75378 -0.45008,-7.4e-4 -1.01215,-0.26417 -1.27417,-0.5647 -0.26196,-0.30054 -1.08666,-0.56458 -1.83679,-0.56592 -0.93763,-0.002 -1.49982,-0.22778 -1.83643,-0.75342 -0.26184,-0.41308 -0.82379,-0.75159 -1.31134,-0.75244 -0.45007,-8.5e-4 -1.31226,-0.26489 -1.9118,-0.56604 -0.56202,-0.30103 -1.27417,-0.56482 -1.53675,-0.56531 -0.26251,-4.9e-4 -0.97467,-0.26427 -1.53668,-0.56531 -0.59955,-0.30114 -1.61177,-0.56556 -2.24939,-0.56666 -0.67511,-10e-4 -1.27478,-0.22728 -1.38672,-0.52757 -0.11212,-0.2627 -0.89914,-0.60169 -1.79904,-0.71583 -0.86242,-0.11413 -1.72442,-0.4906 -1.91138,-0.791 -0.18684,-0.3755 -0.82409,-0.60157 -1.57422,-0.6029 -0.71258,-10e-4 -1.46222,-0.26515 -1.72418,-0.5657 -0.26208,-0.30053 -1.01172,-0.56432 -1.68684,-0.56554 -0.71257,-10e-4 -1.31224,-0.22742 -1.42418,-0.52771 -0.11212,-0.2627 -0.97406,-0.63928 -1.87402,-0.75342 -0.93732,-0.15173 -1.79938,-0.49083 -1.91132,-0.79101 -0.11188,-0.37537 -0.74915,-0.56397 -1.64928,-0.56556 -0.86262,-0.002 -1.68733,-0.22802 -1.94935,-0.56604 -0.26197,-0.30052 -1.08661,-0.56457 -1.87421,-0.56592 -0.90014,-0.002 -1.49994,-0.19018 -1.61188,-0.52807 -0.11194,-0.30029 -0.86139,-0.67663 -1.64868,-0.828 -0.78741,-0.15149 -1.76196,-0.49073 -2.17408,-0.75403 -0.41204,-0.30078 -1.1242,-0.5271 -1.61175,-0.52796 -0.48761,-8.4e-4 -1.12469,-0.26452 -1.42425,-0.56518 -0.33704,-0.30066 -1.12415,-0.56458 -1.83673,-0.5658 -0.71265,-10e-4 -1.31237,-0.22741 -1.42432,-0.52758 -0.112,-0.3003 -0.93645,-0.63941 -1.79889,-0.79102 -0.89984,-0.15161 -1.83679,-0.52832 -2.13641,-0.79138 -0.26195,-0.30054 -0.93665,-0.52674 -1.46173,-0.52758 -0.52509,-10e-4 -1.34964,-0.33998 -1.874,-0.75355 -0.52435,-0.41357 -1.42388,-0.75269 -1.98645,-0.75365 -0.71257,-10e-4 -1.08727,-0.22706 -1.23632,-0.75233 -0.14899,-0.60034 -0.52375,-0.7511 -1.72395,-0.75317 -0.8626,-0.002 -1.5374,-0.1903 -1.53704,-0.3778 3.7e-4,-0.2251 -0.78699,-0.37648 -1.72461,-0.3782 -1.20019,-0.002 -1.91248,-0.1909 -2.21173,-0.6416 -0.41156,-0.56334 -2.62299,-1.35485 -5.24744,-1.8845 -0.59991,-0.11366 -1.31195,-0.45252 -1.61151,-0.7156 -0.26197,-0.30052 -1.04919,-0.527 -1.7243,-0.5282 -0.71265,-0.001 -1.46234,-0.22768 -1.72431,-0.5282 -0.22448,-0.30043 -0.97412,-0.60182 -1.61151,-0.678 -0.93755,-0.0766 -1.23725,-0.30224 -1.31103,-0.9774 -0.0909,-0.64466 -0.23292,-0.81233 -1.10346,-0.81233 -0.19336,0 -0.4227,0.008 -0.69536,0.0214 -0.15333,0.0125 -0.30772,0.0185 -0.45967,0.0185 -0.74029,0 -1.42263,-0.1416 -1.64007,-0.35976 -0.26203,-0.26295 -0.82434,-0.45155 -1.27442,-0.45228 -0.45007,-8.6e-4 -1.01214,-0.26442 -1.27417,-0.56494 -0.26202,-0.30054 -1.01165,-0.56446 -1.64923,-0.56555 -0.63764,-10e-4 -1.64966,-0.34046 -2.2865,-0.75428 -0.59936,-0.41345 -1.49894,-0.7528 -1.98654,-0.75365 -0.48755,-8.6e-4 -1.12463,-0.2644 -1.42413,-0.56507 -0.3371,-0.30053 -1.12421,-0.56458 -1.83685,-0.5658 -0.67505,-10e-4 -1.31226,-0.22753 -1.42426,-0.52771 -0.11206,-0.26269 -0.86156,-0.60156 -1.68652,-0.71557 -0.82477,-0.15149 -1.68677,-0.5282 -1.9488,-0.82875 -0.26202,-0.3004 -1.08666,-0.56432 -1.87426,-0.5658 -0.90015,-0.002 -1.49994,-0.1903 -1.64928,-0.56554 -0.1119,-0.33776 -0.71156,-0.56396 -1.5367,-0.56543 -0.71258,-10e-4 -1.31237,-0.18983 -1.312,-0.37733 3.6e-4,-0.22508 -0.74915,-0.56395 -1.6863,-0.82823 -0.93718,-0.26404 -1.68657,-0.67797 -1.68614,-0.94057 5.4e-4,-0.30003 -0.52417,-0.4885 -1.4618,-0.49022 -0.93762,-0.002 -1.53741,-0.19018 -1.68676,-0.56555 -0.11188,-0.37525 -0.71161,-0.56383 -1.64924,-0.56555 -0.82513,-10e-4 -1.68737,-0.22803 -1.91186,-0.52858 -0.26202,-0.3004 -1.01148,-0.63927 -1.72394,-0.75316 -1.01228,-0.18934 -1.3119,-0.45239 -1.3108,-1.05249 9.1e-4,-0.50723 -0.0748,-0.67255 -0.6599,-0.67255 -0.23679,0 -0.55701,0.0271 -0.98934,0.0695 -0.4396,0.0541 -0.76651,0.086 -1.01181,0.086 -0.59199,0 -0.70871,-0.18534 -0.78738,-0.68937 -0.11127,-0.67517 -0.3736,-0.78821 -1.72382,-0.79065 -0.86267,-0.002 -1.57507,-0.11536 -1.57476,-0.26538 2.4e-4,-0.15003 -0.82447,-0.37647 -1.83685,-0.52832 -1.04993,-0.15186 -1.94953,-0.45348 -2.06147,-0.75378 -0.14941,-0.33778 -0.78674,-0.5265 -1.91193,-0.52845 -1.23767,-0.002 -1.68743,-0.15308 -1.6867,-0.56567 6.7e-4,-0.37513 -0.37409,-0.56324 -1.12421,-0.56458 -0.71259,-0.001 -1.23718,-0.26477 -1.49884,-0.7528 -0.29901,-0.56324 -0.78633,-0.7516 -2.024,-0.7538 -1.12518,-0.002 -1.72492,-0.19054 -1.87427,-0.5658 -0.11182,-0.37535 -0.71161,-0.56395 -1.72424,-0.56578 -1.0127,-0.002 -1.61243,-0.19032 -1.72424,-0.56568 -0.14948,-0.30029 -0.67414,-0.56384 -1.2367,-0.56482 -0.56262,-9.7e-4 -1.2746,-0.33984 -1.64893,-0.75305 -0.41174,-0.48827 -1.08636,-0.75195 -1.91143,-0.75342 -0.78766,-10e-4 -1.3498,-0.22753 -1.49921,-0.5653 -0.11194,-0.33777 -0.67413,-0.56385 -1.49927,-0.56531 -0.97516,-0.002 -1.34985,-0.18994 -1.53637,-0.75294 -0.18653,-0.56286 -0.56129,-0.7511 -1.49891,-0.7528 -0.67512,-10e-4 -1.31233,-0.18982 -1.38698,-0.41504 -0.0746,-0.22509 -0.93682,-0.48926 -1.91168,-0.60339 -1.16247,-0.1521 -1.76214,-0.3783 -1.76153,-0.71582 5.5e-4,-0.33752 -0.44916,-0.52588 -1.27423,-0.52735 -0.67511,-10e-4 -1.46228,-0.26513 -1.72431,-0.56567 -0.26202,-0.30053 -0.82409,-0.56409 -1.27417,-0.56483 -0.41253,-7.2e-4 -1.27459,-0.33983 -1.91143,-0.75353 -0.59937,-0.41369 -1.64893,-0.75317 -2.2865,-0.75427 -0.63764,-10e-4 -1.38721,-0.265 -1.6493,-0.56555 -0.26196,-0.30055 -1.01159,-0.56435 -1.72424,-0.56558 -0.67511,-10e-4 -1.34985,-0.19007 -1.46204,-0.37781 -0.11212,-0.2251 -0.78694,-0.37634 -1.49958,-0.37769 -0.67511,-0.001 -1.53729,-0.26527 -1.83673,-0.60339 -0.33698,-0.30066 -1.23646,-0.67738 -1.98639,-0.79114 -0.78736,-0.11389 -1.57441,-0.45288 -1.72394,-0.75317 -0.14953,-0.26282 -0.8617,-0.48927 -1.53681,-0.49037 -0.78759,-10e-4 -1.34985,-0.2274 -1.49926,-0.56517 -0.11194,-0.3003 -0.48651,-0.5636 -0.86158,-0.56421 -0.375,-0.0382 -1.34967,-0.33997 -2.17401,-0.75402 -0.8244,-0.41407 -1.87408,-0.71595 -2.32397,-0.75428 -0.56262,-9.8e-4 -0.86224,-0.26416 -0.93616,-0.86438 -0.1112,-0.71264 -0.33606,-0.82569 -1.7987,-0.86574 -0.9377,-0.002 -2.17494,-0.229 -2.7372,-0.45494 -0.59955,-0.26366 -1.27436,-0.4524 -1.53693,-0.45288 -0.30005,-4.8e-4 -0.7121,-0.2638 -0.97412,-0.56433 -0.26196,-0.30055 -1.01166,-0.56445 -1.68677,-0.56568 -0.67511,-0.001 -1.42474,-0.26501 -1.6867,-0.56543 -0.26197,-0.33814 -1.08667,-0.56457 -1.98682,-0.56616 -0.90015,-0.002 -1.64984,-0.22803 -1.91174,-0.56604 -0.22443,-0.33801 -1.08649,-0.677 -1.91138,-0.82861 -0.82495,-0.11403 -1.72443,-0.45313 -1.98645,-0.75367 -0.26203,-0.26294 -0.9743,-0.48926 -1.5744,-0.49036 -0.60004,-9.7e-4 -1.12465,-0.26452 -1.27413,-0.5648 -0.11187,-0.37526 -0.71167,-0.56398 -1.7243,-0.5658 -0.97516,-0.002 -1.61237,-0.1903 -1.72424,-0.56556 -0.112,-0.30029 -0.93653,-0.6394 -1.83637,-0.79101 -0.89996,-0.11403 -1.72449,-0.45313 -1.83642,-0.75343 -0.11207,-0.30016 -0.71174,-0.52624 -1.31183,-0.52734 -0.60004,-0.001 -1.1623,-0.18956 -1.23688,-0.45226 -0.0746,-0.2251 -0.89917,-0.52662 -1.79913,-0.64075 -1.61231,-0.22803 -1.68726,-0.26563 -1.9845,-1.84143 -0.1485,-0.86292 -0.44727,-1.57605 -0.6723,-1.57642 -0.1875,-3.7e-4 -0.33692,-0.33814 -0.33618,-0.75073 7.3e-4,-0.41247 -0.22352,-0.86304 -0.52338,-0.97607 -0.29981,-0.11304 -0.59888,-0.67615 -0.74774,-1.3141 -0.11133,-0.6378 -0.44813,-1.0885 -0.78565,-1.0891 -0.33758,-5e-4 -0.56201,-0.3385 -0.56097,-0.9386 9.7e-4,-0.52503 -0.26062,-1.05066 -0.56049,-1.1637 -0.29976,-0.1505 -0.56154,-0.56348 -0.56086,-0.9386 6.7e-4,-0.375 -0.2613,-0.71313 -0.56135,-0.71362 -0.30004,-6.1e-4 -0.56201,-0.33863 -0.56127,-0.7511 7.9e-4,-0.4126 -0.26124,-0.75061 -0.56128,-0.7511 -0.33753,-6.1e-4 -1.08667,-0.5271 -1.68572,-1.12828 -0.59894,-0.63853 -1.19818,-1.12718 -1.31067,-1.12743 -0.11255,-2.4e-4 -0.52447,-0.3385 -0.93634,-0.75183 -0.4118,-0.41334 -1.01129,-0.75184 -1.31134,-0.75244 -0.30005,-5e-4 -0.56213,-0.22607 -0.56164,-0.48852 0.002,-0.86268 -2.05835,-2.51661 -3.07105,-2.51844 -0.56256,-9.7e-4 -1.12481,-0.18957 -1.237,-0.37719 -0.11212,-0.22535 -0.86194,-0.37671 -1.6496,-0.37805 -1.12519,-0.002 -1.49994,-0.15272 -1.64887,-0.75318 -0.43654,-1.72787 -4.37066,-3.27805 -7.68759,-3.27805 -0.6445,0 -1.2657,0.0585 -1.83341,0.18563 -0.48805,0.1162 -0.90494,0.17158 -1.19254,0.17158 -0.26514,0 -0.4204,-0.0471 -0.42025,-0.13702 4.8e-4,-0.26716 -0.42093,-0.38216 -0.98758,-0.38216 -0.94502,0 -2.294,0.31993 -2.76377,0.78804 -0.41832,0.41686 -0.69272,0.59006 -1.08073,0.59006 -0.23927,0 -0.52174,-0.0659 -0.9078,-0.181 -0.67481,-0.18884 -2.47406,-0.71704 -4.01105,-1.1698 -1.536931,-0.45288 -3.073491,-1.09314 -3.410591,-1.35632 -0.337035,-0.30066 -1.61114,-0.90308 -2.81061,-1.31788 -1.1994,-0.41454 -2.5484,-1.09216 -2.96033,-1.4679 -0.41187,-0.37584 -1.460756,-1.0902 -2.32251,-1.57946 -6.10737,-3.42394 -7.90571,-4.47732 -8.57972,-5.11612 -0.411866,-0.41332 -1.34839,-1.01512 -2.060425,-1.35388 -1.42395,-0.67774 -2.547545,-1.57971 -5.580269,-4.51074 -1.123291,-1.0896 -2.77124,-2.36768 -3.632936,-2.8944 -0.86169,-0.48915 -1.76044,-1.27833 -1.94715,-1.76624 -0.22424,-0.45044 -0.86072,-1.05164 -1.42291,-1.31531 -0.56214,-0.22608 -2.360415,-1.35437 -4.00867,-2.44495 -1.610965,-1.0531 -3.22205,-1.95618 -3.522098,-1.95666 -0.337524,-6.1e-4 -0.937077,-0.30176 -1.349002,-0.67749 -0.44934,-0.37585 -2.06061,-1.24145 -3.59705,-1.95667 -1.53656,-0.67798 -3.222596,-1.61865 -3.74689,-2.06958 -0.524233,-0.48852 -1.310976,-0.97754 -1.760866,-1.09082 -0.449829,-0.15088 -1.310791,-1.05248 -1.90918,-2.02868 -0.598331,-0.97632 -1.982059,-3.19153 -3.066594,-4.9563 -1.122008,-1.76493 -2.393252,-3.9799 -2.87909,-4.95597 -0.448366,-0.93847 -1.159426,-1.83996 -1.534304,-1.953 -0.374756,-0.15063 -1.272646,-1.39013 -2.020266,-2.77918 -0.710206,-1.38891 -1.831483,-3.5288 -2.541932,-4.7677 -1.196232,-2.21508 -2.204228,-4.80468 -3.173588,-8.06945 -0.260805,-0.9381 -1.194887,-2.9651 -2.092228,-4.5044 -0.859924,-1.5393 -1.756226,-3.6787 -1.979494,-4.6919 -0.297608,-1.3507 -0.671508,-1.9889 -1.271118,-2.2526 -0.562134,-0.2634 -0.823916,-0.6765 -0.822573,-1.42662 0.0013,-0.75012 -0.260559,-1.12561 -0.935181,-1.38941 -0.487243,-0.18835 -1.011293,-0.75195 -1.160402,-1.27734 -0.22345,-0.90039 -2.73218,-3.23035 -3.482302,-3.23169 -0.225036,-3.7e-4 -0.41205,-0.26331 -0.411501,-0.56334 6.11e-4,-0.33754 -0.448852,-0.67592 -1.123718,-0.82716 -0.637451,-0.11364 -1.237001,-0.3772 -1.349306,-0.52734 -0.112122,-0.18787 -0.561951,-0.33875 -0.974549,-0.33948 -0.450073,-7.4e-4 -2.023745,-0.82862 -3.484744,-1.844 -1.498354,-1.01526 -3.297,-1.95618 -3.971806,-2.10742 -0.712342,-0.15125 -1.4619154,-0.45264 -1.724184,-0.64063 -0.262146,-0.18797 -1.5368666,-0.45287 -2.811892,-0.5675 -1.6125504,-0.11547 -3.63678333,-0.71924 -6.3351502,-1.84924 -2.2112448,-0.90418 -4.3477828,-1.65796 -4.7978558,-1.65883 -1.200136,-0.002 -1.460634,-1.16527 -1.226991,-5.9657 0.156249,-3.48763 0.34558,-4.49995 0.984985,-5.51143 0.4884836,-0.77283 0.779046,-1.04251 1.240065,-1.04251 0.142437,0 0.301145,0.0257 0.486988,0.0703 0.5248416,0.11353 2.2874168,0.22913 3.9376872,0.23218 0.018721,2e-5 0.037393,6e-5 0.056016,6e-5 5.2421107,0 6.630082,-1.32604 8.8103268,-8.38559 0.9053352,-2.88635 1.0196542,-3.93628 1.8986232,-13.04858 0.382629,-4.23757 0.385559,-5.85036 0.051025,-7.57619 -0.260377,-1.20068 -0.5552376,-4.08911 -0.7011117,-6.41479 -0.1083378,-2.36304 -0.4042973,-4.61391 -0.5911263,-5.02687 -0.2243043,-0.41285 -0.708802,-2.10157 -1.043458,-3.75232 -0.3345953,-1.65088 -0.8935557,-3.67737 -1.2671524,-4.50306 -0.3735966,-0.8258 -0.6714482,-2.02649 -0.7078866,-2.6267 -0.036377,-0.6377 -0.109497,-1.68789 -0.145813,-2.36318 -0.036072,-0.7876 -0.2603763,-1.20068 -0.6354378,-1.20129 -0.3000491,-4.9e-4 -0.5620732,-0.30103 -0.5613408,-0.7135 7.934e-4,-0.45007 -0.4859014,-0.9386 -1.3103652,-1.31519 -0.71197595,-0.33874 -1.31109765,-0.86499 -1.31067041,-1.12756 0.001221,-0.67505 -1.23462048,-1.72742 -1.98468229,-1.72876 -0.3375857,-6.1e-4 -0.6373298,-0.1886 -0.6369025,-0.4137 9.765e-4,-0.5625 -1.5712908,-2.21558 -2.0963767,-2.21655 -0.2625127,-4.9e-4 -0.5245977,-0.26355 -0.6740733,-0.56384 -0.1119995,-0.30017 -0.5990605,-0.56373 -1.086671,-0.56458 -0.5250858,-8.5e-4 -1.124818,-0.22693 -1.3493055,-0.52747 -0.2619635,-0.30041 -1.1239635,-0.63952 -1.9113795,-0.79101 -0.7872932,-0.15137 -1.5368662,-0.49036 -1.6488052,-0.79053 -0.112,-0.30017 -0.486634,-0.526 -0.861696,-0.52661 -0.375061,-7.3e-4 -1.012208,-0.2644 -1.386719,-0.56519 -0.41205,-0.30079 -1.499209,-0.5652 -2.436832,-0.56678 -0.937622,-0.0393 -2.137392,-0.26648 -2.661928,-0.56739 -0.660206,-0.37886 -2.204768,-0.56916 -3.65745,-0.56916 z"
         id="path2"
         inkscape:connector-curvature="0" />
    </g>
  </g>
</svg>
