<?xml version="1.0" encoding="UTF-8" standalone="no"?>
<svg
   xmlns:dc="http://purl.org/dc/elements/1.1/"
   xmlns:cc="http://creativecommons.org/ns#"
   xmlns:rdf="http://www.w3.org/1999/02/22-rdf-syntax-ns#"
   xmlns:svg="http://www.w3.org/2000/svg"
   xmlns="http://www.w3.org/2000/svg"
   xmlns:sodipodi="http://sodipodi.sourceforge.net/DTD/sodipodi-0.dtd"
   xmlns:inkscape="http://www.inkscape.org/namespaces/inkscape"
   enable-background="new 0 0 666.325 1667.328"
   version="1.1"
   viewBox="0 0 682.90697 1693.4559"
   id="svg4"
   sodipodi:docname="together_dynamic_mixed22.svg"
   width="682.90698"
   height="1693.4559"
   inkscape:version="1.0.2 (e86c870879, 2021-01-15)">
  <metadata
     id="metadata10">
    <rdf:RDF>
      <cc:Work
         rdf:about="">
        <dc:format>image/svg+xml</dc:format>
        <dc:type
           rdf:resource="http://purl.org/dc/dcmitype/StillImage" />
        <dc:title></dc:title>
      </cc:Work>
    </rdf:RDF>
  </metadata>
  <defs
     id="defs8" />
  <sodipodi:namedview
     pagecolor="#ffffff"
     bordercolor="#666666"
     borderopacity="1"
     objecttolerance="10"
     gridtolerance="10"
     guidetolerance="10"
     inkscape:pageopacity="0"
     inkscape:pageshadow="2"
     inkscape:window-width="1920"
     inkscape:window-height="997"
     id="namedview6"
     showgrid="false"
     fit-margin-top="0"
     fit-margin-left="0"
     fit-margin-right="0"
     fit-margin-bottom="0"
     inkscape:zoom="0.38685114"
     inkscape:cx="-152.37535"
     inkscape:cy="867.34669"
     inkscape:window-x="0"
     inkscape:window-y="0"
     inkscape:window-maximized="1"
     inkscape:current-layer="svg4"
     inkscape:document-rotation="0" />
  <rect
     style="fill:#ffffff;stroke-width:5.66929;stroke-linecap:square;stroke-linejoin:round;stroke-dasharray:11.3386, 11.3386"
     id="rect830"
     width="682.90698"
     height="1693.4559"
     x="0"
     y="0" />
  <path
     d="m 157.29889,610.83386 c -2.191,6.363 2.624,8.686 -0.996,10.998 -3.4,2.172 -9.23801,0.07 -10.54101,-8.436 -0.929,-6.065 -7.932,-7.127 -8.895,-16.619 -2.165,-21.349 -8.822,-28.412 -15.751,-45.847 -1.824,-4.589 3.688,-11.339 8.344,-11.828 11.266,-1.184 19.955,-30.038 18.324,-31.995 -1.03,-1.237 -2.103,-0.1 -2.97,0.313 -29.983,14.307 -52.817996,17.098 -56.430996,40.472 -2.153,13.927 -8.294,16.604 -7.259,27.094 0.502,5.086 -1.86,9.899 -1.319,14.99 0.537,5.06 -16.638,-0.691 -12.555,-9.549 0.461,-1 1.071,-6.639 -2.735,-3.763 -2.485,1.878 -5.84,2.005 -5.696,-0.271 0.266,-4.225 -4.44,-5.216 -5.73,-14.877 -1.733,-12.975 2.1,-44.415 2.453,-46.73 3.913,-25.66 19.377,-7.013 32.826,-19.829 23.196996,-22.106 37.447996,-39.312 69.727006,-38.121 1.824,0.067 3.539,-0.291 3.932,-2.41 0.891,-4.814 -24.84001,-6.337 -19.20401,-17.748 10.52001,-21.302 7.447,-50.708 14.69201,-64.401 3.429,-6.481 -1.106,-9.358 10.305,-27.524 4.657,-7.413 7.697,-15.58 10.204,-23.892 0.982,-3.255 0.789,-6.889 0.945,-10.36 0.369,-8.181 4.601,-8.554 1.748,-11.147 -1.434,-1.304 1.237,-4.677 3.156,-2.318 0.065,0.08 0.179,0.145 0.2,0.233 0.604,2.547 2.802,4.334 3.483,6.967 -1.633,-15.484 10.374,-28.259 10.543,-33.77 0.278,-9.063 6.277,-27.73 5.712,-33.331 -0.058,-0.572 0.199,-0.996 0.6,-1.342 3.513,-3.036 4.968,-7.428 7.347,-11.206 3.016,-4.789 -0.703,-11.651 0.305,-15.7 1.393,-5.593 7.176,-0.175 8.539,-4.77 1.745,-5.885 -0.968,-15.811 6.608,-16.535 4.197,-0.401 2.223,-10.793 1.819,-14.811 -2.055,-20.434 7.73,-21.149 23.144,-30.534 1.236,-0.753 7.399,0.913 6.506,-4.909 -1.064,-6.939 2.836,-1.213 -0.011,-13.597 -0.478,-2.079 -0.606,-4.052 0.05,-6.054 0.706,-2.155 -0.074,-4.335 0.037,-6.514 0.534,-10.414 5.406,-13.270004 0.539,-11.491004 0.084,-0.176 2.123,-4.322 1.964,-4.435 -3.305,-2.348 0.083,-4.02 0.79,-5.629 3.829,-8.717 1.038,-7.852 11.062,-19.896 1.965,-2.361 1.597,-4.447 4.862,-6.069 1.657,-0.823 3.844,-1.561 4.148,-4.111 0.192,-1.608 2.202,-0.842 2.955,-1.755 2.219,-2.693 5.886,-3.551 7.887,-6.813 2.163,-3.524 23.212,-7.72 24.212,-7.289 6.583,2.84 10.878,1.298 23.127,5.366 3.096,1.028 5.625,3.807 9.491,2.743 1.231,-0.339 3.216,0.491 4.291,1.431 4.119,3.606 9.556,5.061 13.656,8.568 2.182,1.865 3.211,4.782 5.959,6.376 2.664,1.545 -0.821,6.317 3.052,11.607 10.412,14.222 8.379,25.604004 7.418,32.766004 -1.777,13.245 3.166,15.153 -4.466,24.798 -5.508,6.962 0.794,15.705 -5.576,26.904 -6.765,11.894 -7.795,11.234 -19.121,22.926 -4.21,4.345 -10.777,16.645 -6.427,20.845 9.904,9.564 9.764,20.612 4.061,29.069 -12.857,19.066 -4.336,29.724 -8.974,43.666 -2.117,6.365 -3.364,13.159 -7.448,18.767 -0.621,0.853 -1.132,1.688 -1.085,2.808 0.37,8.652 -3.312,16.167 -7.72,23.031 -15.524,24.178 20.2,92.922 25.756,116.87 3.2,13.789 0.807,17.813 16.996,30.646 8.233,6.526 17.435,11.694 25.517,18.457 2.187,1.83 41.594,36.806 45.823,32.599 2.982,-2.966 -4.97,-11.969 -7.868,-15.163 -4.399,-4.846 -14.864,-12.236 -6.309,-21.025 3.104,-3.189 8.36,-7.641 8.25,-13.23 -0.231,-11.753 22.847,1.882 13.519,-14.826 -3.855,-6.906 0.487,-9.192 9.578,-18.196 3.882,-3.845 -2.365,-16.878 13.006,-17.032 35.525,-0.354 22.171,-7.545 34.021,-11.565 7.193,-2.44 13.863,-6.52 21.477,-7.535 4.606,-0.614 8.471,-3.535 13.284,-3.469 5.436,0.074 6.138,-6.499 12.184,-4.239 16.073,6.007 13.707,3.062 24.058,10.946 4.134,3.149 10.606,1.164 15.471,7.05 1.929,2.333 4.576,3.823 6.864,5.736 4.942,4.133 8.388,9.618 12.803,14.229 4.666,4.874 8.133,5.376 10.86,18.98 2.059,10.274 16.171,18.686 -4.197,88.313 -0.94,3.214 -3.063,5.56 -4.526,8.365 -2.956,5.665 -4.026,12.032 -6.961,17.734 -2.339,4.545 -3.955,9.469 -4.338,14.688 -0.076,1.041 -0.665,2.157 -1.7,2.432 -6.348,1.683 -8.333,7.431 -11.644,12.044 -4.718,6.573 -5.292,17.8 -7.685,18.377 -8.613,2.074 -11.471,16.995 -12.956,21.143 -1.347,3.761 -1.327,4.54 -2.196,4.562 -1,0.026 -1.972,-6.488 -4.763,-1.858 -2.18,3.618 -5.203,6.621 -7.096,10.459 -1.452,2.944 -3.616,5.34 -7.516,4.722 -2.949,-0.467 -10.743,6.179 -9.986,13.708 0.599,5.964 -8.154,10.829 -13.928,7.097 -9.861,-6.373 -13.096,-15.888 -16.003,-7.928 -0.519,1.42 -13.195,37.785 -19.084,48.741 -1.971,3.666 -8.584,8.512 -7.992,15.798 0.534,6.563 -1.675,11.789 -6.976,15.879 -2.884,2.225 -2.36,6.074 -2.811,9.163 -1.486,10.172 -4.667,19.374 -12.536,26.437 -1.81,1.625 -2.695,3.568 -2.482,6.038 1.672,19.39 -6.975,20.783 -4.39,37.894 7.266,48.099 12.049,33.262 11.569,112.7 -0.046,7.626 -0.653,15.581 -3.003,23.109 -0.313,1.002 -0.114,56.70604 -20.247,93.30504 -1.07,1.945 -23.695,43.303 -28.556,58.86 -2.275,7.28 -0.767,16.652 -7.613,17.015 -2.715,0.144 -5.363,1.38 -8.204,1.141 -0.817,-0.069 -1.307,0.375 -1.467,1.246 -10.087,55.137 -6.855,34.497 -7.513,74.274 -0.174,10.522 2.498,22.593 2.498,22.593 -1.175,20.834 6.001,25.504 17.342,75.422 1.894,8.338 7.233,35.565 6.12,44.055 -2.851,21.759 -2.17,43.549 -2.442,49.864 -2.961,68.808 -11.308,90.528 3.986,118.8 3.018,5.579 23.79,16.642 17.346,29.696 -14.998,30.381 -45.345,20.638 -58.15,73.226 -1.477,6.065 -8.395,7.83 -8.96,11.416 -1.471,9.332 -12.475,5.525 -19.314,8.228 -3.567,1.41 -0.103,-3.901 -5.648,-3.914 -8.204,-0.018 -7.957,-4.358 -11.356,-1.576 -5.098,4.173 -7.246,3.497 -9.513,1.69 -11.28,-8.989 -8.32,-16.266 -1.179,-18.257 9.464,-2.637 18.89,2.015 22.894,-10.367 7.732,-23.911 -2.487,-31.844 2.945,-47.804 5.123,-15.055 10.178,-36.321 7.581,-52.085 -0.988,-6 1.757,-6.42 -1.628,-22.081 -0.217,-1.002 -6.947,-48.056 -6.732,-50.267 0.164,-1.685 0.196,-4.395 -1.205,-4.611 -1.941,-0.3 -1.347,0.973 -6.323,15.921 -0.728,2.186 0.521,2.533 2.395,2.561 -4.299,1.24 -4.544,1.916 -8.503,26.306 -1.655,10.196 -2.391,20.353 2.099,30.142 0.219,0.477 0.393,0.82 0.829,1.157 3.551,2.744 -1.567,2.602 -1.474,3.721 0.081,0.973 0.969,0.751 1.434,0.62 2.543,-0.717 3.466,0.268 3.225,2.772 -0.028,0.29 0.563,0.943 0.689,0.9 4.261,-1.443 2.338,3.407 3.571,4.174 4.069,2.531 4.064,7.193 5.653,10.982 1.648,3.931 -0.631,7.643 -10.406,19.133 -1.996,2.347 -4.986,3.271 -7.755,4.325 -28.988,11.032 -35.492,33.971 -36.631,34.943 -10.471,8.934 -11.775,18.794 -18.243,18.602 -2.186,-0.065 -3.57,1.386 -4.97,2.782 -4.344,4.334 -9.971,6.31 -15.537,8.373 -10.701,3.967 0.275,3.513 -14.621,5.929 -2.53,0.411 -5.459,-0.781 -8.038,-1.732 -3.234,-1.194 -6.09,-6.666 -4.636,-9.489 2.05,-3.98 6.581,-1.528 12.335,-9.427 2.706,-3.715 5.169,-7.726 9.378,-10.048 0.765,-0.422 0.987,-1.012 0.94,-1.771 -0.531,-8.616 4.292,-15.036 3.78,-30.474 -0.276,-8.327 5.326,-14.341 9.625,-27.995 10.339,-32.837 22.063,-76.867 21.228,-114.16 -2.09,-93.372 12.61,-140.64 3.729,-158.42 -4.507,-9.023 -7.266,-18.549 -7.285,-28.664 -0.009,-4.58 -2.087,-8.455 -3.299,-12.614 -1.411,-4.843 0.88,-6.067 -1.692,-7.207 -0.494,-0.219 -0.792,-0.756 0.066,-1.004 1.076,-0.312 0.739,-1.045 0.566,-1.734 -2.231,-8.917 1.149,-13.944 2.186,-26.687 2.893,-35.521 1.716,-3.275 1.561,-37.55 -0.055,-12.186 1.473,-19.161 1.985,-35.61 0.34,-10.901 -11.565,-5.297 -11.436,-17.409 0.376,-35.334 -0.997,-57.547 2.124,-71.903 0,-10e-4 9.075,-118.48004 9.075,-118.48004 -0.756,-12.347 4.117,-22.836 3.716,-28.972 -0.612,-9.369 1.562,-18.383 3.426,-27.431 18.658,-90.58 14.533,-84.448 23.35,-113.27 6.137,-20.058 1.375,-48.634 1.132,-57.598 -0.553,-20.446 4.681,-16.716 6.11,-34.293 0.626,-7.704 4.95,-13.24 9.366,-18.912 29.999,-38.527 34.977,-40.014 28.049,-44.081 -46.336,-27.201 -88.398,-59.461 -106.62,-75.788 -31.688,-28.389 -22.027,-19.787 -34.873,-11.999 -13.454,8.156 -9.517,15.453 -43.746,54.736 -12.49,14.334 -6.592,26.311 -7.924,40.213 -1.055,11.012 12.035,13.253 6.011,28.054 -0.781,1.92 -3.182,2.443 -5.311,1.328 -2.519,-1.309 -2.842,-3.769 -3.495,-6.188 z m 145.53,-142.66 c -12.87,-49.233 -7.388,-53.62 -11.939,-54.082 -1.355,-0.138 -1.077,1.122 -2.031,5.389 -8.124,36.314 -22.671,38.335 10.609,51.127 2.566,0.986 2.937,-0.66 3.361,-2.434 z"
     id="path2"
     inkscape:connector-curvature="0" />
</svg>
