<?xml version="1.0" encoding="UTF-8" standalone="no"?>
<svg
   xmlns:dc="http://purl.org/dc/elements/1.1/"
   xmlns:cc="http://creativecommons.org/ns#"
   xmlns:rdf="http://www.w3.org/1999/02/22-rdf-syntax-ns#"
   xmlns:svg="http://www.w3.org/2000/svg"
   xmlns="http://www.w3.org/2000/svg"
   xmlns:sodipodi="http://sodipodi.sourceforge.net/DTD/sodipodi-0.dtd"
   xmlns:inkscape="http://www.inkscape.org/namespaces/inkscape"
   enable-background="new 0 0 1088.471 1688.921"
   version="1.1"
   viewBox="0 0 1168.9155 1718.0624"
   id="svg6"
   sodipodi:docname="together_dynamic_mixed19.svg"
   width="1168.9154"
   height="1718.0624"
   inkscape:version="1.0.2 (e86c870879, 2021-01-15)">
  <metadata
     id="metadata12">
    <rdf:RDF>
      <cc:Work
         rdf:about="">
        <dc:format>image/svg+xml</dc:format>
        <dc:type
           rdf:resource="http://purl.org/dc/dcmitype/StillImage" />
        <dc:title></dc:title>
      </cc:Work>
    </rdf:RDF>
  </metadata>
  <defs
     id="defs10" />
  <sodipodi:namedview
     pagecolor="#ffffff"
     bordercolor="#666666"
     borderopacity="1"
     objecttolerance="10"
     gridtolerance="10"
     guidetolerance="10"
     inkscape:pageopacity="0"
     inkscape:pageshadow="2"
     inkscape:window-width="1920"
     inkscape:window-height="997"
     id="namedview8"
     showgrid="false"
     fit-margin-top="0"
     fit-margin-left="0"
     fit-margin-right="0"
     fit-margin-bottom="0"
     inkscape:zoom="0.29856099"
     inkscape:cx="127.37772"
     inkscape:cy="721.09565"
     inkscape:window-x="0"
     inkscape:window-y="0"
     inkscape:window-maximized="1"
     inkscape:current-layer="svg6"
     inkscape:document-rotation="0" />
  <rect
     style="fill:#ffffff;stroke-width:5.66929;stroke-linecap:square;stroke-linejoin:round;stroke-dasharray:11.3386, 11.3386"
     id="rect831"
     width="1168.9154"
     height="1718.0624"
     x="0"
     y="0" />
  <path
     d="m 1085.7443,1163.371 c -2.363,-3.856 -7.031,-9.016 -12.852,-5.684 -5.953,3.407 -13.185,5.467 -17.481,10.882 -12.988,16.374 -30.556,-1.157 -41.188,-2.714 -2.592,-0.38 -4.728,-2.708 -6.351,-5.548 -8.05401,-14.092 -26.79501,-24.765 -34.94401,-28.569 -5.024,-2.346 -7.019,-8.693 -11.743,-11.043 -7.775,-3.869 -13.601,-10.579 -22.005,-13.623 -15.034,-5.444 -1.325,-1.779 -22.101,-4.513 -14.026,-1.846 2.605,-7.319 4.431,-21.588 1.082,-8.452 3.699,-16.132 10.57,-21.751 0.977,-0.799 1.205,-1.826 1.229,-3.006 0.109,-5.314 0.954,-10.654 -0.33,-15.913 0.256,-0.679 0.451,-1.195 0.708,-1.873 12.627,-9.013 -1.541,-39.26604 -1.471,-52.57904 0.095,-18.061 -10.506,-29.705 -22.899,-39.836 -33.018,-26.989 -60.944,-13.572 -75.052,-9.593 -9.631,2.716 -14.278,12.45 -20.57,19.34 -6.646,7.278 -8.497,18.132 -8.116,27.502 0.504,12.404 -5.44,24.64204 -0.603,37.02504 0.388,0.995 -1.036,2.588 -0.866,3.797 0.744,5.305 -3.381,10.803 0.89,15.991 7.534,9.153 3.933,14.238 12.542,31.245 0.707,1.398 3.62,1.878 2.291,4.096 -1.262,2.105 -3.709,0.818 -5.622,1.016 -2.435,0.251 -3.533,-1.84 -4.864,-3.264 -7.768,-8.311 -18.794,5.674 -33.748,-9.645 -4.132,-4.233 -12.102,0.372 -13.376,-9.676 -1.315,-10.382 -3.806,-20.599 -7.347,-30.513 -0.352,-0.985 -0.477,-2.773 0.087,-3.249 3.791,-3.207 -0.482,4.004 16.468,-69.16604 1.937,-8.363 -4.049,-2.302 -1.142,-8.345 3.904,-8.117 6.694,-17.843 1.714,-25.084 -7.23,-10.514 -12.992,-21.947 -20.793,-32.062 -5.617,-7.284 -10.56,-14.523 -10.509,-24.767 0.054,-10.871 -6.394,-20.987 -5.394,-32.343 0.188,-2.137 -1.697,-4.596 -2.972,-6.697 -12.864,-21.189 -10.272,-47.001 -10.44,-60.235 -0.113,-8.926 -10.159,-21.205 -8.05,-41.648 0.271,-2.624 -3.873,-7.355 -4.085,-11.909 -0.313,-6.768 -9.538,-47.861 -9.775,-49.226 -2.184,-12.559 0.554,-26.145 -7.591,-37.527 -0.578,-0.808 -0.545,-2.195 -0.483,-3.296 0.601,-10.711 -5.717,-9.919 -5.345,-16.197 0.801,-13.523 -14.193,-14.47 -8.938,-25.86 6.201,-13.443 -8.481,-15.189 -10.129,-30.932 -1.402,-13.389 -3.343,-26.518 -9.226,-38.827 -2.744,-5.741 1.241,-7.512 0.821,-19.438 -0.983,-27.957 2.645,-43.833 -9.505,-81.104 -33.973,-104.22 -32.187,-65.517 -49.671,-99.065 -0.165,-0.316 -0.766,-0.405 -1.165,-0.599 -9.853,-4.802 -33.539,-30.298 -54.484,-38.431 -8.905,-3.458 0.033,-9.814 1.551,-14.937 2.384,-8.047 4.427,-16.19 12.612,-20.786 1.426,-0.801 2.578,-2.558 2.465,-4.569 -0.715,-12.748 10.903,-40.968 10.914,-43.318 0.061,-13.567 1.887,-27.045 1.529,-40.66 -0.298,-11.351 -6.054,-21.564 -5.959,-32.916 0.027,-3.248 -22.639,-20.303001 -25.589,-22.958001 -11.477,-10.329 -26.288,-13.988 -40.966,-17.529 -25.553,-6.166 -27.996,7.81 -37.186,-3.754 -1.47,-1.85 -4.894,-3.377 -6.114,-0.12 -5.508,14.707 -18.596,15.186 -20.679,17.751 -13.732,16.918001 -13.144,6.384 -25.555,39.705001 -10.381,27.871 1.735,47.445 -12.929,61.675 -3.74,3.629 -3.412,6.475 0.272,9.402 7.424,5.899 -8.686,23.767 -28.446,24.972 -12.714,0.775 -25.746,-1.005 -37.66,4.811 -3.808,1.859 -7.418,2.325 -11.435,2.701 -13.417,1.257 -6.474,-0.392 -43.211,10.499 -37.534,11.127 -26.92,11.525 -42.137,18.454 -16.782,7.642 -31.7,17.081 -43.429,32.024 -9.723,12.386 -19.549,24.416 -25.861,38.979 -1.237,2.853 -4.716,5.255 -4.847,7.976 -0.772,15.994 -32.226,64.973 -44.007,102.6 -5.172,16.518 -6.718,4.802 -8.241,18.838 -3.982,36.7 -41.903995,95.484 -36.721995,143.29 0.384,3.543 1.425,8.618 -0.401,10.495 -7.951,8.176 1.018,12.032 1.799,20.393 3.33,35.63 10.012,46.38 9.329,74.648 -0.416,17.214 11.976,13.416 7.915,30.161 -0.858,3.538 -0.257,5.933 1.297,8.766 8.569995,15.628 -4.332,12.5 5.032,45.239 4.550995,15.911 17.319995,8.769 13.671995,16.545 -3.778,8.052 0.068,10.585 -3.739,28.406 -4.395,20.572 0.969,23.613 10.4,42.361 2.137,4.248 3.365,10.052 8.425,11.716 8.56,2.814 17.287,6.8 26.578,2.735 3.061,-1.339 5.535,0.657 6.346,2.183 4.058,7.638 10.943,5.907 17.344,6.003 1.747,0.026 3.338,-0.725 3.394,-2.53 0.09,-2.875 -7.13,0.278 -7.787,-6.536 -0.26,-2.697 8.058,-3.641 9.465,3.498 0.234,1.187 -0.193,3.233 2.006,2.274 1.236,-0.539 3.712,-0.382 3.338,-2.638 -1.951,-11.791 10.199,-10.316 6.33,-19.806 -9.229,-22.642 -5.662,-40.772 -9.27,-58.699 -0.81,-4.023 -5.341,-5.626 -4.945,-9.937 1.117,-12.149 -9.766,-11.653 -9.601,-19.808 0.236,-11.652 -11.166,-31.818 -5.803,-45.895 4.925,-12.927 -13.198,-7.193 -8.332,-19.237 12.549,-31.061 12.318,-33.701 9.645,-39.818 -11.602,-26.547 -0.643,-37.695 -0.241,-55.169 0.194,-8.439 5.85,-16.372 0.861,-25.488 -5.117,-9.351 10.733,-10.381 10.442,-18.553 -0.321,-9.006 1.69,-18.18 -1.256,-26.996 -2.172,-6.499 -1.398,-11.72 4.473,-15.934 4.922,-3.532 13.565,-28.005 25.894,-48.867 1.388,-2.349 3.392,-4.248 4.65,-6.535 1.312,-2.386 2.65,-0.411 3.903,-0.708 4.672,-1.108 -0.272,11.193 3.355,34.286 0.467,2.971 -1.948,5.511 -1.258,8.621 2.715,12.25 2.831,24.703 2.639,37.166 -0.902,58.404 16.435,66.897 8.601,86.73 -5.642,14.283 -7.369,29.026 -0.924,43.82 0.847,1.943 1.123,4.778 0.358,6.673 -3.831,9.489 -3.799,40.959 -0.146,50.12 5.706,14.307 -2.215,17.043 0.588,32.036 2.199,11.764 1.882,23.679 0.699,35.229 -8.498,82.951 6.818,195.43004 4.461,226.16004 -0.41,5.352 4.624,7.551 2.324,19.89 -1.327,7.117 9.038,81.026 8.897,92.84 -0.04,3.331 1.301,7.551 3.551,9.863 5.362,5.51 4.496,12.394 5.656,18.838 4.149,23.056 7.935,23.365 20.543,37.961 5.165,5.979 2.597,16.503 -4.143,16.604 -5.461,0.082 -5.726,2.448 -5.506,6.553 1.338,24.961 -1.722,28.879 14.424,44.712 10.402,10.2 -6.811,10.625 -1.786,22.799 5.077,12.302 6.463,25.015 6.205,38.097 -0.155,7.816 8.524,36.999 7.399,48.977 -0.119,1.263 1.011,3.201 2.141,3.925 4.338,2.78 4.468,6.949 4.421,11.322 -0.161,15.002 2.71,4.939 13.126,34.249 1.027,2.891 0.753,6.094 2.348,8.999 3.843,7 7.108,13.989 5.228,22.666 -4.07,18.786 2.204,15.224 -2.72,32.359 -0.357,1.244 -0.277,2.758 0.052,4.031 2.145,8.314 1.355,16.457 -1.097,24.556 -0.71,2.344 -2.396,5.212 -1.656,7.038 4.074,10.05 0.421,20.223 1.251,30.241 1.782,21.52 11.9,31.118 9.289,30.727 -1.067,-0.16 -1.96,0.791 -1.96,1.87 v 25.766 c 0,14.502 11.756,26.258 26.258,26.258 h 88.664 c 14.502,0 26.258,-11.756 26.258,-26.258 0,0 5.44,-6.767 5.455,-71.776 0,-1.592 -0.192,-3.085 -0.839,-4.619 -6.276,-14.88 -8.079,-31.002 -12.698,-46.354 -5.932,-19.718 -7.649,-4.501 -37.728,-122.01 -1.369,-5.349 -1.036,-11.35 -0.436,-16.939 1.034,-9.643 -1.809,-18.807 -3.623,-27.857 -18.489,-92.215 -12.864,-118.56 -12.866,-123.76 -10e-4,-6.416 -2.711,-20.309 -2.704,-20.375 1.776,-15.919 -3.905,-31.316 -2.926,-47.297 2.149,-35.085 -3.425,-89.342 0.663,-108.26 3.342,-15.464 0.099,-31.161 3.787,-46.231 8.824,-36.05504 9.226,-36.60004 7.688,-39.74804 -2.973,-6.081 1.02,-10.845 1.711,-16.187 0.955,-7.386 13.405,6.323 14.914,31.481 0.281,4.693 6.761,49.29304 12.941,73.66304 20.637,81.372 25.541,40.726 17.095,107.34 -2.856,22.526 17.494,34.878 17.848,57.337 0.538,34.04 23.76,31.57 8.456,50.666 -0.566,0.707 -1.227,1.231 -0.969,2.283 1.742,7.11 -0.741,13.883 -1.642,20.785 -0.11,0.841 0.004,1.696 0.324,2.481 5.894,14.445 -3.415,53.382 4.192,72.943 1.898,4.881 1.11,10.696 1.481,16.014 0.643,9.208 2.991,18.372 1.805,27.729 -1.82,19.404 -2.006,38.887 -5.081,58.311 -6.338,40.046 -1.924,49.846 -3.532,78.959 -0.835,15.115 15.357,17.255 15.565,25.721 0.172,6.979 11.179,4.273 6.379,17.28 -4.064,11.014 5.474,22.014 1.523,25.335 -0.403,0.339 -0.636,0.84 -0.636,1.366 v 21.719 c 0,14.502 11.756,26.258 26.258,26.258 h 85.936 c 14.502,0 26.258,-11.756 26.258,-26.258 v -21.373 c 0,-0.334 -0.099,-0.654 -0.269,-0.941 -0.423,-0.711 -0.796,-1.524 -1.073,-2.461 -10.018,-33.952 -32.954,-27.562 -22.261,-62.059 5.828,-18.804 8.64,-32.761 -4.807,-45.471 -5.396,-5.1 -18.129,-25.938 -8.759,-24.758 8.276,1.042 8.293,-5.382 8.288,-9.921 -0.013,-11.502 1.424,-23.044 -0.911,-34.564 -5.088,-25.093 6.251,-107.83 -1.392,-136.05 -1.396,-5.155 -0.721,-10.757 -1.101,-16.119 -1.522,-21.495 -8.872,-42.487 -5.863,-64.329 1.499,-10.884 -2.891,-20.214 -7.489,-29.343 -5.384,-10.69 -5.509,-22.131 -6.104,-33.551 -0.379,-7.273 23.984,-21.224 23.115,-33.026 -4.219,-57.296 -16.701,-135.11004 -20.753,-151.45004 -4.495,-18.114 -2.526,-36.369 -4.112,-54.485 -2.589,-29.557 -5.658,-46.139 -5.136,-56.973 0.703,-14.607 -9.509,-11.817 -6.71,-18.685 3.482,-8.543 1.228,-17.458 -0.758,-25.268 -2.061,-8.104 -1.163,-16.111 -1.486,-23.814 -1.568,-37.365 -9.625,-21.219 -9.091,-105.17 0.092,-14.493 -5.692,-29.892 -12.616,-41.216 -11.661,-19.069 2.065,-26.41 -7.309,-70.343 -3.881,-18.192 11.091,-33.229 10.702,-65.16 -0.018,-1.435 -0.79,-3.922 0.976,-4.101 2.84,-0.289 1.757,2.689 1.803,4.028 0.231,6.681 2.608,12.667 5.275,18.618 3.219,7.182 -0.688,32.451 19.091,61.61 10.03,14.787 -7.559,12.04 -0.363,24.286 3.47,5.906 3.931,13.198 7.233,19.351 5.292,9.862 7.588,20.85 11.492,31.237 5.286,14.064 -3.064,12.312 24.526,67.724 15.335,30.798 11.502,29.981 16.529,35.89 6.246,7.343 9.652,16.275 12.708,25.097 18.748,54.134 19.625,47.51 26.186,75.628 2.654,11.374 9.039,7.962 20.872,8.456 0.886,0.037 2.456,-0.804 2.603,0.987 0.083,1.018 -0.858,1.605 -1.823,1.596 -11.945,-0.111 -7.816,21.892 -6.104,33.924 2.49,17.498 11.868,17.927 14.378,47.35 0.354,4.152 0.708,8.254 -3.134,11.888 -1.683,1.592 -2.719,5.661 -1.192,8.765 1.513,3.076 4.567,2.291 7.12,2.161 25.669,-1.311 -17.332,66.22704 34.941,113.44004 8.16,7.37 -4.668,13.343 -1.918,54.293 0.798,11.889 20.609,-0.661 35.903,22.56 9.146,13.885 -2.358,98.927 -5.107,129.32 -2.478,27.392 0.817,32.828 -2.713,43.864 -2.344,7.329 2.896,17.281 12.914,18.059 1.871,0.145 3.413,0.969 5.121,1.329 4.907,1.033 4.825,3.909 1.927,6.516 -5.895,5.301 -2.298,11.916 -3.14,17.889 -0.413,2.934 10.751,-0.251 3.396,10.096 -3.797,5.343 -1.954,75.27 -1.916,76.634 0.18,6.486 1.555,19.607 7.132,22.912 4.829,2.862 5.687,10.636 1.463,14.556 -4.18,3.878 -6.293,7.383 -2.553,12.784 0.828,1.196 0.393,48.441 0.507,52.371 0.282,9.761 0.606,10.074 8.938,10.059 8.613,0.402 15.179,-3.256 22.406,-3.615 5.552,-0.275 3.75,1.549 4.186,4.233 0.145,0.895 0.539,1.885 1.537,2.925 1.12,1.911 1.12,4.639 -0.244,6.003 -2.728,1.364 -6.82,-1.364 -8.184,-1.364 -8.184,4.092 -10.913,15.005 -9.712,22.937 -0.064,1.258 -0.104,2.524 -0.135,3.792 -0.061,2.536 -0.082,5.078 -0.177,7.573 0.088,1.367 0.238,2.715 0.46,4.039 0.888,5.294 2.924,10.194 6.682,14.36 0.767,1.005 1.608,1.97 2.527,2.892 0.979,0.965 2.023,1.86 3.13,2.672 6.773,4.483 13.593,5.847 20.446,5.165 h 25.033 c 4.435,0 8.619,-1.079 12.302,-2.988 1.228,-0.636 2.4,-1.365 3.507,-2.177 8.627,-5.455 13.889,-13.776 14.037,-23.105 0.021,-1.333 -0.062,-2.686 -0.255,-4.055 -4.186,-13.371 -2.822,-25.647 -15.076,-33.654 -0.212,-1.698 0.339,-2.864 1.237,-3.766 0.898,-0.902 2.144,-1.54 3.321,-2.183 16.309,-8.904 6.129,-31.006 0.714,-35.702 -1.154,-1.001 -0.671,-1.479 0.476,-2.401 6.676,-5.369 -3.48,-18.748 5.648,-40.932 0.546,-1.328 2.371,-1.523 3.184,-0.34 8.012,11.648 8.764,17.921 15.149,25.69 3.862,4.698 1.973,11.146 2.648,16.7 1.972,16.218 11.472,23.812 0.572,26.576 -6.312,1.6 -3.803,7.775 -4.908,12.014 -0.257,0.985 0.05,2.422 0.64,3.275 3.95,5.703 1.958,9.474 -1.023,12.911 -1.013,1.167 -0.158,2.988 1.387,2.988 h 6.128 c 0.697,0 1.326,-0.394 1.631,-1.021 0.254,-0.523 0.551,-1.097 0.897,-1.731 0.882,-1.617 1.621,-0.431 2.36,0.466 1.25,1.516 2.448,2.152 3.608,2.287 h 0.64 v 0.029 c 1.922,-0.067 3.743,-1.368 5.526,-2.18 1.385,-0.631 2.906,0.592 2.533,2.068 -0.445,1.76 -0.063,3.952 -4.486,4.106 -0.327,0.011 -0.652,-0.093 -0.943,-0.243 -0.032,-0.016 -0.064,-0.033 -0.096,-0.048 -1.172,-0.572 -2.534,0.354 -2.534,1.657 0,1.205 -10e-4,2.84 -0.025,4.781 -0.066,1.166 -0.138,2.351 -0.206,3.549 -0.068,1.198 -0.131,2.407 -0.178,3.622 -3.001,15.398 6.547,31.767 21.436,33.196 0.925,0.202 1.868,0.357 2.826,0.46 0.958,0.104 1.931,0.157 2.917,0.157 h 33.506 c 10.16301,0 19.12201,-5.667 23.64301,-14.046 0.646,-1.197 1.202,-2.45 1.68,-3.768 2.383,-8.785 9.204,-21.062 2.383,-27.882 -6.82,-5.456 -17.733,1.364 -25.91701,-2.728 4.092,-2.728 10.91201,1.364 14.21201,-5.139 0.779,-0.64 1.843,-1.192 2.569,-1.869 0.726,-0.678 1.114,-1.481 0.543,-2.623 -2.753,-5.5 -12.77001,7.281 -13.27701,-3.59 -0.268,-5.748 2.272,-10.945 2.865,-16.504 0.116,-1.09 0.833,-1.378 1.78801,-1.624 11.283,-2.901 8.35,-14.724 13.781,-24.632 6.306,-11.504 -7.134,-4.827 -7.312,-11.71 -0.072,-2.786 -9.52001,-11.178 -8.60001,-19.287 0.977,-8.608 3.99701,-17.491 -0.866,-25.763 -3.144,-5.349 -4.246,-10.253 -0.409,-15.611 0.442,-0.617 -0.018,-1.81 0.183,-2.68 2.204,-9.554 0.259,-18.826 -2.877,-27.67 -8.537,-24.081 11.28001,-41.187 2.356,-56.719 -3.845,-6.693 8.14501,-8.129 3.65101,-16.958 -0.91001,-1.788 0.022,-3.524 0.23,-5.299 1.03,-8.792 10.281,-15.753 -6.28501,-42.97 -19.768,-32.475 -1.892,-2.365 -17.905,-64.466 -2.426,-9.41 -6.7,-42.272 7.509,-36.534 7.708,3.113 15.90401,4.741 23.07901,9.672 19.611,13.476 22.157,-18.687 45.154,-19.47 2.107,-0.072 17.059,-12.238 18.432,-13.37 16.268,-13.427 4.891,-1.024 22.414,-12.543 17.274,-11.356 -2.547,-26.555 -7.452,-34.56 z m -153.03001,-135.5 c 0.637,-1.383 2.99,-1.31 -0.083,11.17 -0.892,-3.742 -1.533,-7.663 0.083,-11.17 z m -530.97,-840.39004 c 0.133,0.008 0.306,-0.031 0.388,0.038 0.783,0.659 -1.174,1.298 -0.388,-0.038 z m 502.12,1290.00004 c -0.273,0.373 0.017,3.259 -2.189,0.784 -3.434,-3.855 -3.464,-16.1 0.483,-19.371 2.294,-1.901 2.416,0.479 3.471,5.27 0.086,0.39 0.024,0.798 -0.13,1.166 -1.643,3.919 1.079,8.441 -1.635,12.151 z"
     id="path2"
     inkscape:connector-curvature="0" />
  <polygon
     points="717.78,1048.4 717.82,1048 717.44,1048.2 "
     id="polygon4"
     transform="translate(40.344295,19.370959)" />
</svg>
