<?xml version="1.0" encoding="UTF-8" standalone="no"?>
<!-- Created with Inkscape (http://www.inkscape.org/) -->

<svg
   xmlns:dc="http://purl.org/dc/elements/1.1/"
   xmlns:cc="http://creativecommons.org/ns#"
   xmlns:rdf="http://www.w3.org/1999/02/22-rdf-syntax-ns#"
   xmlns:svg="http://www.w3.org/2000/svg"
   xmlns="http://www.w3.org/2000/svg"
   xmlns:sodipodi="http://sodipodi.sourceforge.net/DTD/sodipodi-0.dtd"
   xmlns:inkscape="http://www.inkscape.org/namespaces/inkscape"
   width="137.93346mm"
   height="153.57112mm"
   viewBox="0 0 137.93346 153.57112"
   version="1.1"
   id="svg905"
   inkscape:version="0.92.4 (5da689c313, 2019-01-14)"
   sodipodi:docname="man sitting on chair reading.svg">
  <defs
     id="defs899" />
  <sodipodi:namedview
     id="base"
     pagecolor="#ffffff"
     bordercolor="#666666"
     borderopacity="1.0"
     inkscape:pageopacity="0.0"
     inkscape:pageshadow="2"
     inkscape:zoom="0.7"
     inkscape:cx="164.75293"
     inkscape:cy="156.62306"
     inkscape:document-units="mm"
     inkscape:current-layer="layer1"
     showgrid="false"
     fit-margin-top="0"
     fit-margin-left="0"
     fit-margin-right="0"
     fit-margin-bottom="0"
     inkscape:window-width="1920"
     inkscape:window-height="1016"
     inkscape:window-x="1920"
     inkscape:window-y="32"
     inkscape:window-maximized="1" />
  <metadata
     id="metadata902">
    <rdf:RDF>
      <cc:Work
         rdf:about="">
        <dc:format>image/svg+xml</dc:format>
        <dc:type
           rdf:resource="http://purl.org/dc/dcmitype/StillImage" />
        <dc:title></dc:title>
      </cc:Work>
    </rdf:RDF>
  </metadata>
  <g
     inkscape:label="Ebene 1"
     inkscape:groupmode="layer"
     id="layer1"
     transform="translate(8.514608,-53.483394)">
    <path
       style="fill:#000000;stroke-width:0.08466667"
       d="m 10.480518,207.01954 c -2.1433098,-0.12226 -4.5879398,-0.73222 -5.2848598,-1.31864 -0.53702,-0.45187 -0.33875,-1.99397 0.40269,-3.13203 0.43701,-0.67079 0.53822,-0.74904 1.46241,-1.13067 0.43731,-0.18058 1.138,-0.48578 1.5571,-0.67823 0.4191,-0.19245 0.8382,-0.38478 0.93133,-0.4274 0.0931,-0.0426 0.42643,-0.19115 0.7406498,-0.33006 0.31422,-0.1389 0.73332,-0.36774 0.93133,-0.50853 0.19801,-0.14079 0.52467,-0.29219 0.72591,-0.33643 0.48992,-0.1077 0.66344,-0.28451 0.73274,-0.74665 0.0843,-0.56185 0.10148,-0.58587 0.53665,-0.74822 0.2182,-0.0814 0.45387,-0.19699 0.52372,-0.25683 0.0699,-0.0599 0.227,-0.13377 0.34921,-0.16426 0.20885,-0.0521 0.41279,-0.33956 0.41279,-0.58184 0,-0.0595 0.14288,-0.18316 0.3175,-0.27489 0.1949,-0.10237 0.32794,-0.23885 0.34454,-0.35344 0.0167,-0.11546 0.16828,-0.26943 0.39732,-0.40366 0.25875,-0.15163 0.39907,-0.30424 0.46587,-0.50665 0.0824,-0.24973 0.15567,-0.3075 0.53143,-0.41908 0.24771,-0.0736 0.56483,-0.25157 0.73474,-0.41243 0.16442,-0.15565 0.47039,-0.34912 0.67994,-0.42993 0.5065,-0.19532 0.59266,-0.27726 0.59266,-0.56358 0,-0.26319 0.20478,-0.43836 0.62764,-0.53692 0.13565,-0.0316 0.4214,-0.23617 0.635,-0.45458 0.2136,-0.2184 0.56452,-0.55786 0.77984,-0.75435 0.26964,-0.2461 0.42263,-0.47005 0.49163,-0.71967 0.0551,-0.19932 0.11848,-0.40481 0.14088,-0.45663 0.0237,-0.055 -0.0845,-0.11457 -0.25977,-0.143 -0.16527,-0.0268 -0.61438,-0.19894 -0.99803,-0.38247 -0.38364,-0.18353 -1.01433,-0.44064 -1.40153,-0.57136 -0.41121,-0.13881 -0.73825,-0.30164 -0.78634,-0.39149 -0.0568,-0.10608 -0.0419,-0.28993 0.0478,-0.59218 0.0716,-0.24109 0.13018,-0.57049 0.13018,-0.73202 0,-0.16153 0.0595,-0.58716 0.13215,-0.94586 0.0727,-0.35869 0.1203,-0.83874 0.10583,-1.06678 l -0.0263,-0.41461 -1.94733,-0.009 c -2.05992,-0.009 -2.40137,-0.0535 -4.02167,-0.51992 -0.39582,-0.11394 -0.96732,-0.23682 -1.27,-0.27306 -0.30268,-0.0362 -0.84896,-0.14589 -1.2139398,-0.24366 -0.58695,-0.15723 -0.76298,-0.16883 -1.524,-0.10041 -1.47295,0.13242 -3.87549,0.26302 -4.62806,0.25156 -0.39582,-0.006 -1.07604,-0.0679 -1.51161,-0.13741 -0.43557,-0.0695 -0.86638,-0.10699 -0.95735,-0.0832 -0.26136003,0.0684 -2.11684,-0.2787 -2.41453,-0.45162 -0.14804,-0.086 -0.45188,-0.17538 -0.67519,-0.19864 -0.22332,-0.0233 -0.41993,-0.084 -0.43691,-0.13492 -0.0738,-0.22139 -0.3033,-0.34358 -0.64537,-0.34358 -0.23534,0 -0.43946,-0.0597 -0.57881,-0.16933 -0.1184,-0.0931 -0.31593,-0.16933 -0.43896,-0.16933 -0.25896,0 -0.66252,-0.19178 -1.00493,-0.47758 -0.13163,-0.10986 -0.34633,-0.19976 -0.4771,-0.19976 -0.16019,0 -0.28302,-0.0691 -0.37646,-0.21166 -0.0879,-0.13413 -0.21773,-0.21167 -0.35447,-0.21167 -0.15713,0 -0.41405,-0.19561 -0.94523,-0.71967 -0.4012,-0.39581 -0.75964,-0.71966 -0.79654,-0.71966 -0.1334,0 -0.4247,-0.70891 -0.46944,-1.14243 -0.0574,-0.55625 0.0999,-1.48391 0.32886,-1.93924 0.44385,-0.88265 0.92214,-1.54687 1.24427,-1.72792 0.18177,-0.10216 0.40571,-0.18575 0.49765,-0.18575 0.0919,0 0.31535,-0.10103 0.49647,-0.22451 0.71044,-0.48434 1.12718,-0.62056 1.89565,-0.61962 0.39582,8.5e-4 0.96732,0.0427 1.27,0.0938 0.67309,0.11362 2.86710997,0.16023 2.92769997,0.0622 0.0822,-0.133 1.23594003,-0.84235 1.91738003,-1.17886 0.37388,-0.18462 0.86641,-0.47268 1.09453,-0.64013 0.37814,-0.27758 0.41043,-0.32798 0.36577,-0.57082 -0.0466,-0.25318 -0.0163,-0.28972 0.61165,-0.73865 0.36335,-0.25976 0.72494,-0.49579 0.80353,-0.52449 0.0786,-0.0287 0.18251,-0.19564 0.23092,-0.37098 0.0981,-0.35511 0.0465,-0.47254 -0.45278,-1.03104 -0.46382,-0.51884 -0.49994,-0.6375 -0.34698,-1.13969 0.0903,-0.29648 0.22238,-0.51014 0.40333,-0.6525 0.25308,-0.19908 0.34477,-0.21418 1.54284,-0.254 l 1.27378,-0.0423 0.0263,-0.3175 c 0.0225,-0.27221 0.0555,-0.3175 0.23122,-0.3175 0.14193,0 0.21963,0.0586 0.25272,0.1905 0.0466,0.18575 0.0762,0.1905 1.18689,0.1905 0.62651,0 1.1391398,-0.0267 1.1391698,-0.0594 8e-5,-0.096 0.7008,-0.54628 0.93138,-0.59846 0.11642,-0.0263 0.3766,-0.10901 0.57817,-0.18371 0.34424,-0.12757 0.9412,-0.20601 1.62473,-0.21347 0.27623,-0.003 0.32978,-0.051 0.73646,-0.65942 0.4356,-0.65173 0.4385,-0.66046 0.42812,-1.29117 -0.0183,-1.11099 0.0836,-1.61126 0.38752,-1.90307 0.55617,-0.53401 1.06501,-1.38734 1.06914,-1.79299 0.004,-0.34697 -0.39931,-1.3663 -0.6761,-1.71074 -0.27297,-0.33966 -0.27708,-0.35743 -0.23214,-1.00432 0.0252,-0.3622 0.12921,-0.88715 0.23121,-1.16655 0.102,-0.2794 0.27675,-0.9271 0.38834,-1.43933 0.11158,-0.51223 0.25647,-1.08373 0.32197,-1.27 0.0655,-0.18627 0.22515,-0.64347 0.35475,-1.016 0.45717,-1.31413 0.99333,-2.42301 1.34804,-2.78797 0.5172,-0.53217 1.10573,-1.34779 1.36386,-1.89017 0.25172,-0.52889 1.55915,-2.55498 1.75201,-2.71504 0.0843,-0.07 0.11993,-0.30501 0.12221,-0.806 0.002,-0.41206 0.049,-0.79218 0.11299,-0.91071 0.0984,-0.18243 0.39122,-1.45328 0.59151,-2.5673 0.0412,-0.22909 0.13015,-0.53389 0.1977,-0.67734 0.0676,-0.14344 0.14792,-0.39649 0.1786,-0.56234 0.0518,-0.28022 0.0329,-0.31675 -0.26816,-0.51695 -0.17815,-0.11847 -0.50976,-0.32061 -0.73689,-0.44919 l -0.41297,-0.23379 0.0449,-0.55873 c 0.039,-0.4854 0.0765,-0.58406 0.28597,-0.75169 0.13261,-0.10612 0.2958,-0.19313 0.36265,-0.19336 0.0669,0 0.20619,-0.0799 0.30964,-0.17713 l 0.1881,-0.17671 -0.24769,-0.73274 c -0.41809,-1.23687 -0.48376,-1.70727 -0.35746,-2.56042 0.0604,-0.40778 0.19156,-0.96379 0.29154,-1.23558 0.2291,-0.62281 0.92674,-2.05465 1.27208,-2.61084 0.24001,-0.38654 0.25867,-0.46749 0.21469,-0.93133 -0.0265,-0.2794 -0.0947,-0.70803 -0.15169,-0.9525 l -0.1035,-0.4445 -0.47229,-0.001 c -0.25976,-8.5e-4 -0.5626,-0.0253 -0.67298,-0.0549 -0.18979,-0.0508 -0.1977,-0.0795 -0.14586,-0.52802 0.0367,-0.3175 0.14831,-0.62823 0.33764,-0.93996 0.50109,-0.82503 0.50923,-0.84878 0.33287,-0.97231 -0.086,-0.0602 -0.34212,-0.37898 -0.56923,-0.70835 -0.36743,-0.53292 -0.40794,-0.63588 -0.36781,-0.93509 0.0642,-0.47871 -0.13771,-0.53046 -0.36112,-0.0926 -0.0938,0.18378 -0.27496,0.38818 -0.40267,0.45422 -0.12771,0.066 -0.30578,0.20139 -0.39572,0.30076 -0.0899,0.0994 -0.36857,0.29801 -0.6192,0.4414 -0.44278,0.25333 -0.48008,0.25972 -1.31794,0.22542 -0.77514,-0.0317 -0.9286,-0.0664 -1.51868,-0.34266 -0.83225,-0.38972 -1.38377,-0.94246 -1.81637,-1.82039 -0.31042,-0.63 -0.32091,-0.68047 -0.31187,-1.50102 0.008,-0.7479 0.0429,-0.93487 0.2904,-1.56876 0.15457,-0.39582 0.43611,-0.93498 0.62564,-1.19812 0.35755,-0.49643 1.20265,-1.14465 1.74161,-1.33587 0.18283,-0.0649 1.14716,-0.1326 2.51762,-0.17683 1.2217,-0.0394 2.259,-0.095 2.3051,-0.12349 0.0461,-0.0285 1.04678,-0.0863 2.22372,-0.12836 9.23869,-0.33052 10.40384,-0.41213 12.68089,-0.88822 0.53552,-0.11196 1.33562,-0.26201 1.778,-0.33343 1.276341,-0.20606 2.057493,-0.36195 2.286,-0.45619 0.116416,-0.048 0.630766,-0.15117 1.143,-0.22923 0.828912,-0.12632 2.16612,-0.39472 3.132666,-0.62877 0.186267,-0.0451 0.814917,-0.17805 1.397,-0.29544 0.582084,-0.11739 1.392471,-0.30697 1.800852,-0.42128 0.40839,-0.11432 1.104934,-0.26958 1.547893,-0.34504 0.442951,-0.0755 1.042272,-0.21289 1.331815,-0.3054 0.289543,-0.0925 0.793141,-0.20495 1.119107,-0.24985 0.325967,-0.0449 1.002242,-0.18187 1.502834,-0.30438 0.708812,-0.17347 0.910166,-0.2543 0.910166,-0.36539 0,-0.18434 -0.255854,-1.04944 -0.32672,-1.10471 -0.02985,-0.0233 -0.14953,-0.22869 -0.265946,-0.45645 -0.234434,-0.45862 -0.975453,-1.32153 -1.134889,-1.32153 -0.13766,0 -0.594733,-0.49062 -0.749317,-0.80433 -0.263974,-0.53569 -0.35527,-1.33952 -0.245652,-2.16288 0.100745,-0.75667 0.09845,-0.77978 -0.161239,-1.6213 -0.14489,-0.46953 -0.371154,-1.06748 -0.50281,-1.32876 -0.157963,-0.31351 -0.259021,-0.6766 -0.297163,-1.06773 -0.03179,-0.32597 -0.150106,-1.18322 -0.262924,-1.904997 l -0.205131,-1.31233 -0.358267,-0.31344 c -0.197067,-0.17241 -0.548789,-0.417042 -0.781622,-0.543638 -0.595376,-0.323719 -1.446505,-1.204672 -1.701038,-1.760655 -0.115901,-0.253162 -0.383532,-0.717991 -0.594742,-1.032951 -0.3334,-0.497188 -0.376986,-0.612365 -0.330767,-0.873997 0.08762,-0.495949 0.126077,-0.576364 0.343848,-0.719053 0.245492,-0.16085 0.26516,-0.27179 0.0602,-0.339472 -0.08149,-0.02691 -0.33401,-0.223472 -0.561153,-0.436806 l -0.412987,-0.387878 0.04303,-0.601318 c 0.04448,-0.621753 0.06846,-0.662979 0.604546,-1.039228 0.152645,-0.107129 0.147057,-0.123606 -0.11734,-0.346083 -0.479857,-0.403771 -0.649808,-1.119841 -0.386579,-1.628853 0.181627,-0.35124 0.666275,-0.686767 0.994173,-0.688281 0.508177,-0.0023 0.509617,-0.01651 0.150664,-1.482131 -0.182237,-0.744099 -0.356277,-1.524356 -0.386757,-1.733906 -0.03048,-0.20955 -0.102811,-0.47625 -0.160732,-0.592667 -0.111015,-0.223117 -0.58149,-2.229987 -0.674852,-2.878667 -0.03016,-0.20955 -0.09517,-0.485632 -0.144484,-0.613515 -0.08027,-0.208224 -0.05762,-0.267953 0.216831,-0.571744 0.205376,-0.22732 0.306477,-0.421122 0.306477,-0.587473 0,-0.413059 0.143451,-0.662175 0.552069,-0.95871 0.372186,-0.270094 1.101302,-0.554073 1.191361,-0.464015 0.02351,0.02351 0.0652,0.310674 0.09266,0.638149 0.02745,0.327476 0.07452,0.635208 0.104571,0.683849 0.03007,0.04864 0.358191,0.113588 0.729167,0.144327 0.631842,0.05235 0.706636,0.04021 1.182505,-0.192069 0.2794,-0.136377 0.889,-0.47833 1.354667,-0.759896 0.873591,-0.528217 2.716014,-1.416643 3.683,-1.775962 0.302683,-0.112473 0.664634,-0.259984 0.804334,-0.327803 0.1397,-0.06782 0.6731,-0.281439 1.185333,-0.474712 2.331331,-0.879643 3.771553,-1.452921 4.318,-1.71877 0.325967,-0.158584 1.297517,-0.581376 2.159,-0.939538 0.861484,-0.358162 1.794934,-0.765796 2.074334,-0.905854 0.2794,-0.140057 0.6985,-0.328898 0.931341,-0.419645 0.23283,-0.09075 0.69003,-0.292685 1.016,-0.448751 0.62635,-0.299889 2.71108,-1.145202 2.82431,-1.145202 0.11475,0 0.83616,1.46458 0.89664,1.820334 0.0597,0.351349 1.11897,2.827412 1.4288,3.339966 0.13512,0.223522 1.25284,2.587789 1.55541,3.290066 0.0283,0.06567 0.10351,0.08657 0.18493,0.05137 0.36047,-0.155844 1.55266,-0.369916 2.07013,-0.371718 0.41276,-0.0014 0.72774,0.05617 1.10067,0.20132 0.28735,0.111835 0.65751,0.226397 0.82259,0.254584 0.35006,0.05977 1.29095,0.450036 1.62313,0.673258 0.12647,0.08499 0.47012,0.184308 0.76364,0.220711 0.29352,0.0364 0.6848,0.14717 0.86946,0.246149 0.18468,0.09898 0.39083,0.179963 0.45812,0.179963 0.22154,0 0.92476,0.544588 1.09331,0.846666 0.0909,0.162984 0.26833,0.637446 0.39422,1.05436 0.24762,0.820002 0.66029,1.779599 1.5754,3.663273 0.3217,0.662181 0.5849,1.267284 0.5849,1.344673 0,0.07739 0.0776,0.266256 0.17244,0.419705 l 0.17243,0.278998 0.1874,-0.171871 c 0.10307,-0.09453 0.70175,-0.568655 1.3304,-1.053611 0.81782,-0.630884 1.42525,-1.019833 2.13509,-1.367132 0.54565,-0.266967 0.99333,-0.507011 0.99483,-0.533433 0.002,-0.02642 -0.19808,-0.111344 -0.44354,-0.188718 -0.5976,-0.188377 -1.12474,-0.725431 -1.18404,-1.206322 -0.0232,-0.188326 -0.1176,-0.493126 -0.20972,-0.677333 -0.0921,-0.184207 -0.47533,-0.944522 -0.85157,-1.689589 -0.647,-1.281263 -1.20305,-2.748257 -1.20305,-3.173934 0,-0.27161 -0.18604,-0.877889 -0.29221,-0.95227 -0.0488,-0.03421 -0.18934,-0.06279 -0.31224,-0.0635 -0.1229,-6.77e-4 -0.3134,-0.07423 -0.42333,-0.163378 -0.18217,-0.14772 -0.2002,-0.228373 -0.20338,-0.910167 -0.003,-0.633997 -0.0405,-0.832013 -0.24591,-1.298418 -0.16722,-0.379636 -0.255,-0.741682 -0.28301,-1.167252 -0.0329,-0.499671 -0.072,-0.633707 -0.20563,-0.705248 -0.12693,-0.06793 -0.20264,-0.0543 -0.32785,0.05901 -0.22115,0.200132 -0.30019,0.09008 -0.17801,-0.247816 0.13772,-0.380853 0.14242,-0.369406 -0.22988,-0.559341 -0.25392,-0.129539 -0.36522,-0.258919 -0.47897,-0.556757 -0.10199,-0.267068 -0.2298,-0.430016 -0.41005,-0.522797 -0.14402,-0.07414 -0.42415,-0.267407 -0.6225,-0.429488 -0.19835,-0.162082 -0.48047,-0.319201 -0.62692,-0.349155 -0.14645,-0.02995 -0.29451,-0.110792 -0.329,-0.179642 -0.15906,-0.31748 -0.27102,-1.464521 -0.30986,-3.174687 -0.0383,-1.687255 -0.0251,-1.943895 0.13967,-2.704206 0.2542,-1.17327 0.82393,-2.275589 1.69927,-3.287719 0.37097,-0.428947 0.75413,-0.94778 0.85147,-1.152964 0.27286,-0.575174 0.99013,-1.334382 1.65244,-1.749075 0.32988,-0.206542 0.638,-0.375531 0.68472,-0.375531 0.0467,0 0.30767,-0.161925 0.57989,-0.359833 0.78683,-0.572043 1.56389,-1.054377 2.14627,-1.332224 0.29663,-0.141514 0.64647,-0.347466 0.77744,-0.45767 0.37501,-0.315544 1.5014,-0.746801 2.06991,-0.792495 0.2794,-0.02246 0.65694,3.39e-4 0.83898,0.05059 0.29905,0.0826 0.38203,0.06602 0.85994,-0.171828 0.52455,-0.261061 0.53185,-0.262092 0.87723,-0.123898 0.48062,0.192306 0.64287,0.175798 0.88983,-0.09053 l 0.21315,-0.229887 0.545,0.14522 c 0.29975,0.07987 0.84354,0.146152 1.20843,0.147291 0.89485,0.0028 1.27167,0.102291 2.295779,0.606188 1.23235,0.606372 2.48222,1.763218 2.95607,2.736075 0.13609,0.2794 0.44525,0.895712 0.68701,1.369583 0.24178,0.47387 0.43959,0.961802 0.43959,1.084292 0,0.122491 0.13428,0.547115 0.29841,0.94361 l 0.29841,0.720898 -0.0399,3.063142 c -0.0253,1.942115 -0.0756,3.187085 -0.13755,3.401809 -0.0537,0.186266 -0.22722,0.5532 -0.38554,0.815408 -0.15833,0.262209 -0.28822,0.586059 -0.28865,0.719667 0,0.133608 -0.13342,0.719175 -0.29556,1.301258 -0.16213,0.582084 -0.29514,1.238156 -0.29556,1.457937 -8.5e-4,0.419054 -0.1912,1.891206 -0.34901,2.698451 -0.0802,0.410568 -0.0684,0.556627 0.0893,1.100667 0.16185,0.558309 0.26872,1.284802 0.5095,3.463612 0.0386,0.34925 0.12561,0.7874 0.19336,0.973667 0.12173,0.334639 0.12963,0.339472 0.66513,0.406394 0.29806,0.03725 0.66959,0.143 0.82561,0.234998 l 0.28368,0.167271 0.3304,-0.298498 c 0.31892,-0.288123 0.35349,-0.298498 0.99479,-0.298498 0.61186,0 0.69369,0.02123 1.03516,0.268593 0.41268,0.298938 0.61516,0.513094 0.79524,0.841085 0.0815,0.148382 0.24467,0.255256 0.49812,0.32622 0.2149,0.06017 0.49219,0.22443 0.645,0.382091 0.23958,0.247183 0.30656,0.272209 0.63076,0.235667 0.39241,-0.04423 0.67469,0.0626 0.80405,0.304311 0.0599,0.111956 0.0265,0.271926 -0.12497,0.59895 -0.1137,0.245407 -0.187,0.478129 -0.16287,0.517158 0.0241,0.03903 0.25878,0.151375 0.52146,0.249656 0.26268,0.09828 0.57628,0.246496 0.69689,0.329366 0.12061,0.08287 0.34952,0.202701 0.50869,0.266292 0.23264,0.09294 1.26815,0.88323 1.44626,1.103769 0.0233,0.02883 0.29932,0.195186 0.61341,0.36968 0.57784,0.321014 0.68584,0.439624 1.33144,1.462235 0.36612,0.579903 1.21019,2.579939 1.42117,3.367488 0.0781,0.291399 0.26738,0.679465 0.44772,0.917741 0.43452,0.574094 0.66445,1.064594 0.72655,1.549943 0.0292,0.227749 0.1701,0.680789 0.31323,1.006755 0.14417,0.328345 0.41587,1.290572 0.60922,2.157515 l 0.34899,1.564852 0.36713,0.0726 c 0.20192,0.0399 0.50401,0.16012 0.6713,0.26707 0.1673,0.10696 0.48527,0.21712 0.70661,0.2448 0.22135,0.0277 0.5532,0.12724 0.73747,0.22125 0.18426,0.094 0.44131,0.17151 0.57123,0.17224 0.51751,0.003 1.22548,0.23457 1.49249,0.488411 0.14724,0.13998 0.47726,0.388996 0.73338,0.553376 0.53831,0.3455 1.22806,1.0055 2.70017,2.58373 l 1.04916,1.12479 -0.18184,1.4556 c -0.10001,0.80057 -0.272,1.79838 -0.38218,2.21734 -0.1102,0.41897 -0.22499,0.9842 -0.25511,1.25606 -0.0301,0.27187 -0.12701,0.71002 -0.21529,0.97367 -0.15994,0.47765 -0.77154,3.45902 -1.1057,5.39003 -0.0967,0.5588 -0.27356,1.37795 -0.39301,1.82033 -0.22757,0.84278 -1.16793,5.34776 -1.29897,6.223 -0.0418,0.2794 -0.11916,0.90425 -0.17185,1.38855 -0.0541,0.49692 -0.20098,1.19778 -0.33721,1.60867 -0.2851,0.85989 -0.93287,4.0367 -0.93246,4.57301 0,0.20546 -0.0563,0.56741 -0.12548,0.80433 -0.25043,0.85776 -0.48527,1.82661 -0.97659,4.02911 -0.48449,2.17184 -0.89875,3.90847 -1.14111,4.78367 -0.47145,1.70246 -0.71331,3.04162 -0.75932,4.2044 -0.0506,1.27841 -0.20978,2.13197 -0.5896,3.1616 -0.17994,0.48779 -0.23401,0.83987 -0.30559,1.98966 -0.0478,0.76835 -0.12191,1.53035 -0.16462,1.69334 -0.11195,0.42722 -0.11986,5.07953 -0.0131,7.70466 0.0502,1.23402 0.11157,3.11997 0.13641,4.191 0.0249,1.07104 0.083,3.29384 0.12913,4.93957 0.0595,2.11896 0.0572,3.16485 -0.008,3.58371 -0.0505,0.32531 -0.0672,0.68952 -0.0371,0.80936 0.0301,0.11984 0.1291,1.25037 0.22006,2.51229 0.17315,2.40237 0.31772,8.40395 0.3622,15.03674 0.0179,2.66953 0.0537,3.76454 0.13019,3.97934 0.058,0.16298 0.1403,0.69638 0.18283,1.18533 l 0.0774,0.889 -0.3836,0.35476 c -0.29832,0.27589 -0.49083,0.37634 -0.86596,0.45188 -0.2653,0.0534 -0.63476,0.13518 -0.82103,0.18171 -0.78867,0.19702 -1.98028,0.42602 -2.413,0.46372 -0.41006,0.0357 -0.55163,8.4e-4 -1.18533,-0.29234 -0.48368,-0.22373 -0.98519,-0.37795 -1.52939,-0.47028 -0.79257,-0.13447 -1.07611,-0.21936 -2.36529,-0.70809 l -0.63499,-0.24075 -0.0571,-0.5053 c -0.0314,-0.27792 -0.0945,-0.73391 -0.14018,-1.01331 -0.0457,-0.2794 -0.12772,-0.9271 -0.18233,-1.43933 -0.0546,-0.51224 -0.13706,-1.07863 -0.18322,-1.25866 -0.0462,-0.18003 -0.11871,-2.04693 -0.1612,-4.14867 -0.0783,-3.87 -0.17548,-5.93569 -0.3325,-7.06455 -0.0475,-0.34176 -0.0882,-1.08535 -0.0904,-1.65242 -0.002,-0.56707 -0.0399,-1.52634 -0.0839,-2.13171 -0.044,-0.60536 -0.11804,-2.05316 -0.16463,-3.21733 -0.0466,-1.16417 -0.12562,-2.42147 -0.17565,-2.794 -0.05,-0.37253 -0.1122,-1.2613 -0.13819,-1.97505 -0.0462,-1.26995 -0.0511,-1.29678 -0.22728,-1.25397 -0.099,0.0241 -0.71342,0.14369 -1.36536,0.26584 -0.65193,0.12215 -1.37584,0.275 -1.60866,0.33967 -0.69721,0.19363 -1.59425,0.3803 -1.82643,0.38006 -0.11976,0 -0.38646,0.0532 -0.59266,0.11857 -0.2062,0.0653 -0.81306,0.18349 -1.34858,0.26258 -0.53552,0.0791 -1.60232,0.29554 -2.37067,0.48103 -0.887009,0.21413 -1.752449,0.3643 -2.370659,0.41135 -0.9188,0.0699 -1.2968,0.129 -2.20134,0.34405 -0.20955,0.0498 -0.72713,0.15726 -1.15018,0.23875 -0.42304,0.0815 -0.80525,0.17047 -0.84933,0.1977 -0.14661,0.0906 -5.4784,0.8126 -6.42482,0.87 -0.51224,0.0311 -0.96944,0.0865 -1.016,0.12324 -0.27427,0.21624 -3.42612,0.98797 -3.50731,0.85876 -0.0268,-0.0426 -0.0978,-0.0246 -0.15786,0.0401 -0.0894,0.0964 -0.0878,0.11762 0.009,0.11762 0.0966,0 0.11345,0.19862 0.0916,1.0795 -0.0147,0.59373 -0.0327,1.16085 -0.0399,1.26028 -0.007,0.0994 0.14273,0.44317 0.33327,0.76388 0.19053,0.32072 0.49659,1.00137 0.68013,1.51257 0.18353,0.51119 0.39389,1.07109 0.46747,1.24422 0.0736,0.17313 0.13397,0.53508 0.13424,0.80434 0,0.26925 0.0376,0.62338 0.0831,0.78696 0.21647,0.77919 0.23898,1.38043 0.0757,2.0233 -0.0876,0.34505 -0.15931,0.75194 -0.15931,0.90419 0,0.15226 -0.15673,0.67004 -0.34831,1.15063 -0.55449,1.39106 -0.56651,1.43251 -0.78526,2.70782 -0.11452,0.66769 -0.27186,1.38543 -0.34964,1.59498 -0.0778,0.20955 -0.1756,0.84691 -0.21734,1.41635 -0.0418,0.56944 -0.1127,1.19946 -0.15765,1.40005 -0.12263,0.5472 -0.21099,4.54618 -0.10629,4.8102 0.0476,0.12004 0.29001,0.48199 0.53869,0.80433 l 0.45213,0.58607 -0.002,0.67734 c -0.002,0.82264 -0.24683,2.84296 -0.37281,3.07833 -0.0501,0.0936 -0.0911,0.342 -0.0911,0.55198 0,0.33441 -0.0315,0.40039 -0.254,0.53182 -0.1397,0.0825 -0.254,0.17736 -0.254,0.21075 0,0.0334 -0.0857,0.0865 -0.1905,0.11808 -0.10478,0.0316 -0.3048,0.1641 -0.4445,0.29455 -0.23271,0.21728 -0.31787,0.23956 -1.016,0.26583 -0.95436,0.0359 -2.8195,-0.0873 -2.88324,-0.19041 -0.0263,-0.0425 -0.14198,-0.0773 -0.25714,-0.0773 -0.50814,0 -1.34206,-0.59583 -1.92963,-1.37868 -0.39577,-0.52733 -0.52179,-1.9039 -0.30785,-3.36265 0.0814,-0.55519 0.1805,-0.90028 0.31986,-1.11408 0.17834,-0.27361 0.19137,-0.3477 0.11159,-0.635 -0.0497,-0.17889 -0.0905,-0.48617 -0.0908,-0.68285 0,-0.19667 -0.15287,-1.012 -0.33914,-1.81183 -0.18626,-0.79983 -0.33866,-1.58358 -0.33866,-1.74167 0,-0.37101 -0.24825,-1.37034 -0.39835,-1.60359 -0.0639,-0.0994 -0.23,-0.61373 -0.369,-1.143 -0.3348,-1.27485 -0.46978,-1.6254 -0.85577,-2.2226 -0.17832,-0.2759 -0.32422,-0.55061 -0.32422,-0.61047 0,-0.0599 -0.21513,-0.52068 -0.47805,-1.02404 -0.45705,-0.87498 -0.62099,-1.18034 -1.19591,-2.22754 -0.31204,-0.56837 -0.39469,-1.40495 -0.28438,-2.87867 0.0401,-0.53551 0.057,-1.00181 0.0375,-1.03622 -0.0194,-0.0344 -0.12212,-0.006 -0.22816,0.0638 -0.10605,0.0695 -0.38628,0.18378 -0.62273,0.25401 -0.23647,0.0702 -0.53824,0.18415 -0.67061,0.2532 -0.13238,0.069 -0.2984,0.12576 -0.36894,0.12604 -0.0705,0 -0.27929,0.0815 -0.46389,0.18042 -0.29406,0.15761 -0.41975,0.17306 -1.01474,0.12473 l -0.679121,-0.0552 -0.677334,-0.67024 c -0.372533,-0.36863 -0.823357,-0.81528 -1.001843,-0.99256 -0.864134,-0.85834 -2.173157,-2.27912 -2.173157,-2.3587 0,-0.13705 -0.498009,-0.57183 -1.016,-0.88701 -0.366522,-0.22302 -0.582498,-0.29134 -1.014391,-0.32093 -0.558461,-0.0382 -1.970244,0.0981 -2.583942,0.24962 -0.186267,0.046 -0.643467,0.11403 -1.016,0.15123 l -0.677334,0.0676 -0.491871,-0.30542 c -0.829174,-0.51487 -0.974047,-0.67585 -1.113011,-1.23676 -0.108085,-0.43624 -0.183015,-0.55534 -0.530487,-0.84314 -0.222547,-0.18432 -0.690381,-0.63067 -1.039631,-0.99187 -0.389593,-0.40293 -0.782244,-0.72123 -1.016,-0.8236 -0.575437,-0.25203 -1.510013,-0.30773 -2.389894,-0.14245 -0.758351,0.14245 -2.10583,0.19655 -2.419088,0.0971 -0.170866,-0.0542 -0.318499,-0.37432 -0.372135,-0.80682 -0.01567,-0.1264 -0.142799,-0.28767 -0.322216,-0.40876 -0.255397,-0.17236 -0.358623,-0.19228 -0.747285,-0.14418 -0.706247,0.0874 -1.176477,-0.0659 -1.634135,-0.53297 -0.495825,-0.50598 -1.538164,-1.71735 -1.978914,-2.29982 -0.545245,-0.72057 -0.755658,-0.91379 -1.098135,-1.00835 -0.177529,-0.049 -0.407306,-0.16853 -0.510608,-0.26558 -0.157776,-0.14822 -0.221217,-0.16124 -0.396485,-0.0814 -0.203056,0.0925 -0.211413,0.133 -0.310896,1.50643 -0.05624,0.77625 -0.138024,1.65901 -0.181754,1.96169 -0.04373,0.30269 -0.100186,0.79799 -0.125468,1.10067 -0.02527,0.30268 -0.08335,0.83608 -0.129066,1.18533 -0.04571,0.34925 -0.122521,1.11125 -0.170688,1.69334 -0.04817,0.58208 -0.141901,1.28693 -0.208297,1.56633 -0.06639,0.2794 -0.119701,0.72829 -0.118448,0.99752 0.0013,0.26923 -0.07311,0.76453 -0.165244,1.10066 -0.199485,0.72778 -0.663195,2.7574 -0.739295,3.23582 -0.10654,0.66981 -0.1269,0.76505 -0.2081,0.97367 -0.0453,0.11641 -0.15585,0.68791 -0.24566,1.27 -0.17136,1.11073 -0.31878,1.62116 -0.59929,2.07503 -0.0929,0.15031 -0.16927,0.36405 -0.16973,0.47496 -10e-4,0.27866 -0.37032,1.04619 -0.62639,1.30226 -0.15952,0.15952 -0.30145,0.21207 -0.57543,0.21304 -0.74314,0.003 -0.769,0.22967 -0.11076,0.97237 0.2889,0.32597 0.56971,0.67673 0.624,0.77946 0.0557,0.10531 0.0935,0.49314 0.0868,0.889 -0.007,0.38622 0.0157,0.8409 0.0495,1.01042 0.0548,0.27459 0.0294,0.34384 -0.23241,0.635 -0.23821,0.26489 -0.28025,0.3632 -0.22192,0.51902 0.0755,0.20174 0.29356,1.70391 0.41452,2.85577 0.099,0.94276 0.32708,2.05981 0.48156,2.35854 0.14378,0.27802 0.16905,0.99506 0.10685,3.03174 -0.0372,1.21835 -0.0427,1.24846 -0.29456,1.60679 -0.21179,0.30133 -0.31976,0.37594 -0.61768,0.4268 -0.19857,0.0339 -0.57836,0.20045 -0.84396,0.37012 -1.55454,0.99302 -2.27731,1.28545 -3.82727,1.54852 -1.96488,0.3335 -3.10699,0.6058 -3.44184,0.82062 -0.1002,0.0643 -0.57645,0.29405 -1.05834,0.5106 -0.48188,0.21656 -1.18331,0.53897 -1.55873,0.71645 -0.37541,0.1775 -0.98176,0.38453 -1.34743,0.46006 -0.36568,0.0755 -0.68717,0.15068 -0.71443,0.16699 -0.0273,0.0163 -0.49225,0.0521 -1.03331,0.0795 -0.54106,0.0274 -1.03636,0.0682 -1.10067,0.0907 -0.96196,0.33627 -8.21015,0.70571 -10.86958,0.55402 z M 6.2885782,168.5586 c 0.1635,-0.0998 0.34226,-0.24011 0.39725,-0.3119 0.16558,-0.2162 -0.43304,-0.25673 -0.94584,-0.064 -0.58101,0.21832 -0.72249,0.46505 -0.36063,0.6289 0.21288,0.0964 0.44038,0.0331 0.90922,-0.25295 z m 20.9849998,-41.04107 0.2804,-0.51005 -0.49339,0.0483 c -1.06117,0.10387 -1.0438,0.0965 -1.04313,0.4454 0,0.17252 0.0256,0.57885 0.0562,0.90296 l 0.0556,0.58929 0.43192,-0.48292 c 0.23756,-0.26562 0.5581,-0.71245 0.71232,-0.99297 z m 0.76449,-1.22481 c 0.1922,-0.20851 0.34946,-0.41505 0.34946,-0.45899 0,-0.0439 0.24376,-0.34551 0.54168,-0.67016 0.43504,-0.47404 0.56863,-0.6879 0.67852,-1.08617 0.0753,-0.27274 0.25542,-0.7626 0.40035,-1.08857 0.31134,-0.70023 0.58078,-1.45767 0.58078,-1.63262 0,-0.0965 -0.0718,-0.1134 -0.3175,-0.0748 -0.17463,0.0275 -0.8509,0.0945 -1.50283,0.14907 -0.65194,0.0545 -1.1989,0.11085 -1.21547,0.12513 -0.0166,0.0143 0.0371,0.20188 0.11917,0.4169 0.1359,0.35586 0.13733,0.40292 0.0159,0.52435 -0.10362,0.10363 -0.11361,0.17688 -0.0447,0.32808 0.0739,0.16221 0.0359,0.29074 -0.22815,0.77108 -0.17427,0.31704 -0.4078,0.68452 -0.51896,0.81662 -0.11116,0.13211 -0.20211,0.26672 -0.20211,0.29913 0,0.0324 0.13681,0.26666 0.30401,0.52054 0.44025,0.66848 0.54266,0.89144 0.54266,1.18133 0,0.14202 0.0332,0.25821 0.0739,0.25821 0.0406,0 0.23114,-0.1706 0.42333,-0.37912 z m 27.485123,-5.62456 c 0.418033,-0.1467 0.423934,-0.15377 0.471373,-0.56494 0.02642,-0.22901 0.144814,-0.64771 0.263093,-0.93045 0.228626,-0.54648 0.452967,-1.37472 0.389543,-1.43815 -0.02094,-0.0209 -0.613859,0.0961 -1.317608,0.26017 -0.703749,0.16402 -1.65293,0.33386 -2.109301,0.3774 -0.45637,0.0435 -1.077417,0.15452 -1.3801,0.24661 -0.302684,0.0921 -1.121834,0.28746 -1.820334,0.43414 -0.6985,0.14669 -1.32715,0.28751 -1.397,0.31291 -0.06985,0.0254 0.410684,0.13123 1.067859,0.23514 0.730605,0.11552 1.322739,0.25716 1.524,0.36455 0.484894,0.25874 0.792598,0.33492 2.149475,0.53216 0.675216,0.0982 1.284816,0.21188 1.354666,0.25273 0.176446,0.10317 0.316789,0.0888 0.804334,-0.0823 z m 14.44087,-12.66795 c 0.68204,-0.34346 0.71832,-0.40488 0.88497,-1.49775 0.17351,-1.13797 0.64626,-1.84565 1.53373,-2.29595 0.24536,-0.12449 0.42477,-0.36823 0.33622,-0.45678 -0.0527,-0.0527 -1.04635,0.3926 -1.40394,0.62911 -0.16215,0.10725 -0.32482,0.19499 -0.36149,0.19499 -0.0953,0 -2.27743,1.06647 -2.45633,1.20049 -0.14151,0.10601 -0.13862,0.14057 0.0553,0.66218 0.11253,0.30268 0.30865,0.84561 0.4358,1.2065 0.12716,0.36089 0.26515,0.65617 0.30664,0.65617 0.0415,0 0.34258,-0.13453 0.66908,-0.29896 z"
       id="path1518"
       inkscape:connector-curvature="0" />
  </g>
</svg>
