<?xml version="1.0" encoding="UTF-8" standalone="no"?>
<!-- Created with Inkscape (http://www.inkscape.org/) -->

<svg
   xmlns:dc="http://purl.org/dc/elements/1.1/"
   xmlns:cc="http://creativecommons.org/ns#"
   xmlns:rdf="http://www.w3.org/1999/02/22-rdf-syntax-ns#"
   xmlns:svg="http://www.w3.org/2000/svg"
   xmlns="http://www.w3.org/2000/svg"
   xmlns:sodipodi="http://sodipodi.sourceforge.net/DTD/sodipodi-0.dtd"
   xmlns:inkscape="http://www.inkscape.org/namespaces/inkscape"
   width="95.7845mm"
   height="143.72856mm"
   viewBox="0 0 95.7845 143.72856"
   version="1.1"
   id="svg8"
   inkscape:version="0.92.4 (5da689c313, 2019-01-14)"
   sodipodi:docname="old man sitting on hydrant reading.svg">
  <defs
     id="defs2" />
  <sodipodi:namedview
     id="base"
     pagecolor="#ffffff"
     bordercolor="#666666"
     borderopacity="1.0"
     inkscape:pageopacity="0.0"
     inkscape:pageshadow="2"
     inkscape:zoom="0.35"
     inkscape:cx="-665.49311"
     inkscape:cy="212.65338"
     inkscape:document-units="mm"
     inkscape:current-layer="layer1"
     showgrid="false"
     fit-margin-top="0"
     fit-margin-left="0"
     fit-margin-right="0"
     fit-margin-bottom="0"
     inkscape:window-width="1920"
     inkscape:window-height="1016"
     inkscape:window-x="1920"
     inkscape:window-y="32"
     inkscape:window-maximized="1" />
  <metadata
     id="metadata5">
    <rdf:RDF>
      <cc:Work
         rdf:about="">
        <dc:format>image/svg+xml</dc:format>
        <dc:type
           rdf:resource="http://purl.org/dc/dcmitype/StillImage" />
        <dc:title></dc:title>
      </cc:Work>
    </rdf:RDF>
  </metadata>
  <g
     inkscape:label="Ebene 1"
     inkscape:groupmode="layer"
     id="layer1"
     transform="translate(-61.173624,-61.369307)">
    <path
       style="fill:#000000;stroke-width:0.08466666"
       d="m 89.014898,205.02576 c -0.1397,-0.0393 -0.74366,-0.11221 -1.34214,-0.16205 -0.59848,-0.0498 -1.12109,-0.11096 -1.16135,-0.13585 -0.0403,-0.0249 -0.81309,-0.082 -1.71739,-0.12701 -1.73399,-0.0862 -1.84761,-0.11017 -2.97578,-0.6271 -1.47279,-0.67483 -1.74389,-0.84005 -2.04012,-1.2433 -0.15852,-0.21579 -0.28822,-0.46684 -0.28822,-0.55789 0,-0.0911 0.14762,-0.30215 0.32804,-0.46907 0.22782,-0.21079 0.34507,-0.40249 0.38378,-0.62744 0.0307,-0.17816 0.0917,-0.49537 0.13566,-0.70492 0.0439,-0.20955 0.10088,-0.48696 0.12649,-0.61646 0.0734,-0.37098 0.47427,-0.56411 1.13788,-0.54819 0.30533,0.007 0.9933,-0.0503 1.52882,-0.12801 0.53552,-0.0777 1.41182,-0.18524 1.94733,-0.23893 0.75989,-0.0762 1.07592,-0.1486 1.43934,-0.32979 1.18647,-0.59156 1.67105,-0.76269 2.16501,-0.76453 0.18296,-8.5e-4 0.4159,-0.0483 0.51764,-0.10584 0.92927,-0.52539 1.58735,-0.97132 1.83035,-1.24029 0.15985,-0.17694 0.74335,-0.73648 1.29666,-1.24342 1.1042,-1.01168 1.78198,-1.63587 1.92761,-1.77518 0.27509,-0.26316 0.60431,-0.40586 0.89661,-0.38861 0.28961,0.0171 0.3599,-0.0271 0.80103,-0.50357 0.26596,-0.28727 0.58021,-0.67903 0.69832,-0.87058 0.11812,-0.19155 0.27591,-0.44352 0.35064,-0.55993 0.28457,-0.44331 0.67093,-1.54531 0.72425,-2.06577 0.0306,-0.29824 0.0898,-0.65079 0.13177,-0.78342 0.0419,-0.13263 0.0986,-0.60539 0.12607,-1.05058 l 0.0499,-0.80943 -0.33925,-0.45469 c -0.36533,-0.48965 -0.41269,-0.75586 -0.24867,-1.39778 0.32715,-1.28035 0.34306,-1.43366 0.29004,-2.794 -0.0563,-1.44493 -0.31439,-3.56325 -0.51058,-4.191 -0.0655,-0.20955 -0.14216,-0.6477 -0.17037,-0.97367 -0.049,-0.56674 -0.34122,-1.44787 -0.72144,-2.17577 -0.0899,-0.17221 -0.16356,-0.40448 -0.16356,-0.51616 0,-0.57937 -0.40544,-0.88217 -1.43933,-1.07496 -0.25612,-0.0477 -0.70739,-0.16438 -1.00282,-0.25917 l -0.53716,-0.17234 -0.81751,0.27184 c -1.24711,0.4147 -1.73456,0.60473 -1.89701,0.73953 -0.13535,0.11231 -0.14806,0.35068 -0.14692,2.75566 10e-4,2.122 0.0247,2.67377 0.12196,2.84437 0.53983,0.94665 0.74236,1.50947 0.9902,2.75167 0.0464,0.23283 0.13879,0.67644 0.20519,0.98578 0.19864,0.92534 0.13354,1.6349 -0.3018,3.28989 -0.0429,0.16298 -0.1019,0.44873 -0.13117,0.635 -0.0293,0.18626 -0.13784,0.45296 -0.24126,0.59266 -0.10343,0.1397 -0.28971,0.43052 -0.41396,0.64625 -0.12425,0.21574 -0.2936,0.4197 -0.37633,0.45325 -0.19254,0.0781 -1.98857,0.26862 -3.62174,0.38418 -0.6985,0.0494 -1.59385,0.14565 -1.98967,0.21382 -1.38997,0.23941 -1.524,0.18386 -1.524,-0.63177 0,-0.70085 -0.0709,-0.78247 -0.59295,-0.68269 -0.63927,0.1222 -2.28693,0.3326 -3.04771,0.38917 -0.39582,0.0294 -0.76156,0.0867 -0.81276,0.12728 -0.0512,0.0406 -0.56554,0.11154 -1.143,0.15773 -0.57745,0.0462 -1.32165,0.12699 -1.65377,0.17955 -0.38613,0.0611 -1.31724,0.0805 -2.58234,0.0537 -2.14097,-0.0454 -2.14598,-0.0462 -3.71413,-0.61818 -0.46794,-0.17067 -1.20055,-0.43112 -1.524,-0.5418 -1.05533,-0.3611 -1.49965,-0.52406 -1.62869,-0.59731 -0.0809,-0.0459 -0.19047,-0.0835 -0.24357,-0.0835 -0.0806,0 -0.71731,-0.33849 -1.47208,-0.78253 -0.32127,-0.18901 -1.10169,-0.6812 -1.46297,-0.92266 -0.19927,-0.13318 -0.37984,-0.24214 -0.40128,-0.24214 -0.0463,0 -0.85293,-0.56243 -1.15587,-0.80594 -0.32676,-0.26267 -0.41207,-0.49301 -0.43245,-1.16772 -0.0172,-0.5697 0.002,-0.65064 0.23524,-0.97723 0.1397,-0.19585 0.2921,-0.42165 0.33867,-0.50177 0.0466,-0.0801 0.21363,-0.36884 0.37124,-0.6416 0.2847,-0.49266 0.61522,-0.73174 1.01162,-0.73174 0.0883,0 0.26955,-0.0857 0.40266,-0.1905 0.2155,-0.16962 0.33508,-0.19004 1.09092,-0.18624 0.46689,0.002 1.51564,0.0611 2.33056,0.13051 1.96161,0.16713 3.04008,0.14462 3.54851,-0.0741 0.21367,-0.0919 0.65519,-0.23104 0.98115,-0.3092 0.60818,-0.1458 1.08814,-0.42249 1.69334,-0.97618 0.91399,-0.83619 1.74318,-1.33491 2.52673,-1.51971 1.10803,-0.26132 1.65742,-0.29458 2.26892,-0.13737 l 0.53835,0.13841 0.28944,-0.32166 c 0.1592,-0.17691 0.66455,-0.72422 1.12301,-1.21624 0.45847,-0.49202 0.90256,-1.02988 0.98687,-1.19526 0.14326,-0.28099 0.67243,-1.86832 0.98863,-2.96555 0.16326,-0.56651 0.1416,-0.65731 -0.34991,-1.4669 -0.20408,-0.33613 -0.37104,-0.64197 -0.37104,-0.67964 0,-0.0377 -0.0714,-0.14714 -0.15879,-0.24327 -0.0873,-0.0961 -0.2826,-0.4034 -0.43394,-0.6828 -0.15134,-0.2794 -0.40374,-0.72254 -0.56088,-0.98474 -0.17824,-0.2974 -0.28573,-0.58742 -0.28573,-0.77095 0,-0.29982 0.8111,-1.99967 1.21558,-2.54755 0.41046,-0.55597 0.60266,-1.0964 0.69782,-1.96209 0.0512,-0.46567 0.13613,-1.13242 0.18874,-1.48167 0.0526,-0.34925 0.15743,-1.1684 0.23291,-1.82033 0.0755,-0.65193 0.19057,-1.35405 0.25576,-1.56025 0.0652,-0.2062 0.11853,-0.61739 0.11853,-0.91374 0,-0.29635 0.0541,-0.81343 0.12025,-1.14908 0.0661,-0.33565 0.14481,-0.83886 0.17484,-1.11826 0.0931,-0.86636 0.31611,-2.02114 0.43657,-2.26063 0.0632,-0.12575 0.11554,-0.35435 0.11621,-0.508 6.7e-4,-0.15366 0.099,-0.66037 0.21845,-1.12604 0.11949,-0.46567 0.25078,-1.08447 0.29177,-1.37511 0.041,-0.29065 0.11412,-0.60247 0.16254,-0.69294 0.0484,-0.0905 0.088,-0.27522 0.088,-0.41057 0,-0.30859 0.31149,-1.85466 0.42855,-2.12708 0.048,-0.11166 0.12311,-0.45456 0.16695,-0.762 0.0438,-0.30743 0.15646,-0.88282 0.25028,-1.27863 0.0938,-0.39582 0.2126,-0.96732 0.26395,-1.27 0.0514,-0.30269 0.1288,-0.59393 0.17209,-0.6472 0.0433,-0.0533 0.10058,-0.30093 0.12733,-0.55034 0.0583,-0.54355 0.26132,-1.31982 0.40649,-1.55413 0.0577,-0.0931 0.13097,-0.27516 0.16283,-0.40449 0.0593,-0.24079 0.20327,-0.56886 0.9012,-2.05371 0.21962,-0.46724 0.42483,-0.92996 0.45603,-1.02825 0.0755,-0.23793 -0.1443,-0.45055 -0.4658,-0.45055 -0.13787,0 -0.3828,-0.0552 -0.54428,-0.12268 -0.45274,-0.18916 -0.39935,-0.4373 0.2077,-0.96529 0.27572,-0.23981 0.55999,-0.43603 0.6317,-0.43603 0.0717,0 0.19854,-0.0689 0.28185,-0.15313 0.19428,-0.1964 0.91723,-0.63679 1.2747,-0.77649 0.15211,-0.0594 0.40602,-0.0871 0.56425,-0.0614 0.217,0.0352 0.32391,0.007 0.43506,-0.11616 0.081,-0.0895 0.24036,-0.16283 0.35401,-0.16283 0.11366,0 0.30778,-0.0513 0.43138,-0.11404 0.57654,-0.29259 1.00804,-0.47413 1.24073,-0.52203 0.1397,-0.0288 0.49223,-0.1641 0.78339,-0.30077 0.29117,-0.13667 0.58357,-0.24849 0.64977,-0.24849 0.0662,0 0.40583,-0.1143 0.75471,-0.254 0.34889,-0.1397 0.72324,-0.25382 0.8319,-0.25359 0.10866,0 0.36901,-0.0562 0.57856,-0.12551 0.20955,-0.0693 0.81915,-0.26246 1.35467,-0.42932 0.53552,-0.16686 1.09878,-0.35803 1.25171,-0.42482 0.15292,-0.0668 0.33141,-0.12143 0.39665,-0.12143 0.0652,0 0.22587,-0.0436 0.35696,-0.097 0.61368,-0.24974 1.353862,-0.49497 1.494992,-0.4953 0.0858,0 0.24735,-0.0723 0.35902,-0.16008 0.11167,-0.0878 0.46058,-0.22443 0.77535,-0.30354 0.31478,-0.0791 0.64852,-0.1855 0.74165,-0.23642 0.0931,-0.0509 0.37889,-0.14579 0.635,-0.21081 0.25612,-0.065 0.61807,-0.15737 0.80434,-0.20522 0.18626,-0.0479 0.53582,-0.1055 0.7768,-0.12812 0.28405,-0.0267 0.48965,-0.098 0.58462,-0.20298 0.0959,-0.10591 0.25902,-0.16187 0.47203,-0.16187 0.17905,0 0.32555,-0.0378 0.32555,-0.084 0,-0.0462 0.14287,-0.15229 0.3175,-0.23575 0.4148,-0.19827 0.3848,-0.35803 -0.17584,-0.93651 -0.58892,-0.60765 -1.17893,-0.94326 -1.66011,-0.94427 -0.20649,-4.3e-4 -0.58749,-0.0564 -0.84667,-0.12428 -0.64136,-0.16806 -1.71874,-0.36818 -2.33388,-0.43351 -0.2794,-0.0297 -0.6985,-0.10277 -0.93134,-0.16243 -0.232832,-0.0597 -0.880532,-0.17449 -1.439332,-0.25518 -0.5588,-0.0807 -1.21236,-0.19921 -1.45236,-0.26339 -0.24,-0.0642 -0.60195,-0.11668 -0.80434,-0.11669 -0.46216,-2e-5 -1.42333,-0.18613 -2.35763,-0.45652 -1.29166,-0.3738 -1.38746,-0.40205 -2.24367,-0.66168 -0.46567,-0.1412 -1.09432,-0.32966 -1.397,-0.41879 -0.30268,-0.0891 -0.74083,-0.21826 -0.97367,-0.28694 -0.85719,-0.25286 -1.97745,-0.6366 -3.13187,-1.0728 -1.37117,-0.51811 -1.35837,-0.50397 -1.44039,-1.59059 l -0.0543,-0.71966 0.51602,-0.71967 c 0.28381,-0.39582 0.82024,-1.17687 1.19205,-1.73567 1.14325,-1.7182 1.75705,-2.61296 1.98271,-2.89028 0.11888,-0.1461 0.21614,-0.30254 0.21614,-0.34766 0,-0.0451 0.13027,-0.25266 0.2895,-0.46119 0.15923,-0.20853 0.59454,-0.83549 0.96736,-1.39324 0.72653,-1.08689 0.81906,-1.17537 3.52681,-3.37201 0.60536,-0.49109 1.34043,-1.09256 1.63349,-1.33659 0.29306,-0.24403 0.63596,-0.52683 0.762,-0.62844 0.12604,-0.1016 0.43872,-0.35988 0.69484,-0.57393 0.25611,-0.21406 0.84666,-0.69393 1.31233,-1.06638 1.2012,-0.96076 2.225682,-1.79236 2.407672,-1.95438 0.54152,-0.4821 1.06433,-0.8349 1.23723,-0.8349 0.15007,0 0.34072,0.17619 0.75582,0.6985 0.54869,0.6904 0.8139,1.02056 1.23311,1.53508 0.20026,0.2458 0.86361,1.11038 1.85909,2.42309 0.22954,0.30268 0.52348,0.67936 0.65321,0.83705 0.12973,0.1577 0.33112,0.4289 0.44754,0.60267 0.11641,0.17377 0.45825,0.6104 0.75963,0.97029 0.30138,0.35988 0.60618,0.74083 0.67734,0.84655 0.0712,0.10571 0.41511,0.56457 0.76436,1.01968 0.34925,0.45511 0.83426,1.09227 1.07779,1.41592 0.24353,0.32364 0.53957,0.66457 0.65786,0.75762 0.11829,0.0931 0.27243,0.28011 0.34255,0.4157 0.11658,0.22545 0.16529,0.2462 0.56981,0.2428 0.24328,-0.002 0.72807,-0.042 1.07732,-0.0888 1.55796,-0.20864 2.23634,-0.23223 3.21412,-0.11176 0.53375,0.0658 1.21955,0.12002 1.524,0.12057 0.63858,0.001 3.0363,0.29094 3.47399,0.41987 0.16268,0.0479 0.39128,0.0866 0.508,0.0859 0.11672,-6.7e-4 0.46743,0.0818 0.77934,0.18334 0.63038,0.20515 0.7666,0.16626 0.87072,-0.24861 0.0316,-0.12589 0.092,-0.27052 0.13423,-0.3214 0.0422,-0.0509 0.22788,-0.38626 0.41255,-0.74527 0.18467,-0.35901 0.45185,-0.79932 0.59374,-0.97847 0.14189,-0.17915 0.25798,-0.36787 0.25798,-0.41938 0,-0.0569 -0.20772,-0.0993 -0.52916,-0.10813 -1.06018,-0.029 -1.33731,-0.13382 -1.68321,-0.63656 l -0.26388,-0.38354 0.14084,-0.64687 c 0.0775,-0.35578 0.21268,-0.97073 0.30048,-1.36655 0.0878,-0.39581 0.20344,-1.00541 0.25697,-1.35466 0.0535,-0.34925 0.15803,-0.91432 0.23224,-1.25571 0.11956,-0.55007 0.12281,-0.82951 0.0286,-2.45534 -0.21905,-3.778308 -0.25157,-5.040818 -0.20159,-7.824778 0.0549,-3.05803 0.0576,-3.0366 -0.35059,-2.72781 -0.0904,0.0684 -0.30548,0.12431 -0.47797,0.12431 -0.17249,0 -0.59234,0.1186 -0.93299,0.26356 -0.58261,0.24793 -0.64969,0.25846 -1.1307,0.17752 -0.5934,-0.0999 -1.43121,-0.39939 -1.606,-0.57419 -0.0807,-0.0807 -0.31303,-0.12151 -0.69845,-0.12275 -0.39126,-10e-4 -0.6966,-0.0559 -0.94663,-0.16934 -0.20299,-0.0921 -0.41521,-0.16747 -0.47159,-0.16747 -0.0564,0 -0.2583,-0.13335 -0.44871,-0.29633 -0.42655,-0.36511 -0.64937,-0.37151 -1.11112,-0.0319 -0.29139,0.21428 -0.41448,0.25548 -0.64946,0.21735 -0.48096,-0.0781 -0.73825,-0.25138 -0.93888,-0.63247 -0.10492,-0.19931 -0.3027,-0.54429 -0.43951,-0.76664 -0.13681,-0.22234 -0.27409,-0.47837 -0.30507,-0.56895 -0.031,-0.0906 -0.21688,-0.37072 -0.41312,-0.62253 -0.32658,-0.41906 -0.42848,-0.48594 -1.20346,-0.78985 -0.46567,-0.18262 -0.99907,-0.40127 -1.18533,-0.4859 -0.18627,-0.0846 -0.42492,-0.1796 -0.53033,-0.21105 -0.10541,-0.0315 -0.4074,-0.34972 -0.67108,-0.70727 -0.26368,-0.35755 -0.65368,-0.85964 -0.86667,-1.11576 -0.59449,-0.71486 -2.22833,-2.286 -2.37724,-2.286 -0.1284,0 -1.07648,0.61844 -1.7052,1.11232 -0.39473,0.31007 -0.72642,0.3227 -0.79977,0.0305 -0.0983,-0.39173 0.1036,-1.14996 0.56637,-2.12683 0.13507,-0.28511 0.24558,-0.55649 0.24558,-0.60307 0,-0.0466 0.0797,-0.26487 0.17713,-0.48511 0.21711,-0.4908 0.18011,-0.7399 -0.22036,-1.48376 -0.16296,-0.30268 -0.37403,-0.72178 -0.46905,-0.93133 -0.095,-0.20955 -0.21545,-0.4572 -0.26761,-0.55034 -0.13195,-0.23559 -0.40133,-0.78675 -0.86899,-1.778 -0.52469,-1.11214 -0.72813,-1.51989 -1.553792,-3.11424 -0.56026,-1.08186 -0.69199,-1.40748 -0.69199,-1.71042 0,-0.45478 0.1832,-0.65388 1.405832,-1.52779 0.45414,-0.32462 1.08477,-0.82896 1.40139,-1.12076 0.31663,-0.2918 0.66225,-0.56799 0.76806,-0.61375 0.10581,-0.0458 0.42098,-0.27242 0.70038,-0.5037 0.45577,-0.37727 1.02355,-0.76873 2.79685,-1.92833 0.30194,-0.19744 0.76772,-0.47403 1.03507,-0.61464 0.26735,-0.14061 0.89251,-0.53152 1.38925,-0.86868 0.49674,-0.33716 1.2132,-0.80352 1.59215,-1.03635 0.37894,-0.23284 1.14684,-0.7208 1.70643,-1.08438 1.50997,-0.98102 1.53755,-0.99346 2.41377,-1.08867 0.75975,-0.0826 0.80343,-0.0779 1.25046,0.13358 0.25476,0.12052 0.51548,0.21913 0.57937,0.21913 0.12249,0 1.24343,1.12297 2.64104,2.64584 0.45941,0.50059 0.85949,0.91016 0.88906,0.91016 0.0296,0 0.31451,-0.23146 0.6332,-0.51435 0.71646,-0.63599 0.90362,-0.71447 1.38346,-0.58012 0.78921,0.22096 1.01001,0.92758 0.91068,2.91455 -0.0511,1.02205 -0.0874,1.25228 -0.22177,1.40723 -0.19999,0.23059 -0.20363,0.42016 -0.0125,0.65136 0.0815,0.0986 0.28151,0.37246 0.4445,0.60862 0.16298,0.23616 0.3821,0.53281 0.48695,0.65922 0.10483,0.1264 0.25111,0.35705 0.32506,0.51255 0.17632,0.37081 0.70682,0.89567 1.11656,1.10471 0.17981,0.0917 0.81957,0.49309 1.42168,0.8919 0.60211,0.39882 1.15504,0.72539 1.22874,0.72573 0.0737,3.4e-4 0.25647,-0.1518 0.40616,-0.33806 0.2337,-0.29081 0.31887,-0.33867 0.6027,-0.33867 0.31935,0 0.90891,0.13333 1.52414,0.3447 0.33751,0.11595 0.75058,0.24436 1.48167,0.46058 0.2794,0.0826 0.67945,0.21528 0.889,0.29477 0.20955,0.0795 0.6096,0.21263 0.889,0.29588 0.2794,0.0833 0.55925,0.19189 0.62188,0.24142 0.0626,0.0495 0.38339,0.15851 0.71278,0.24216 0.3294,0.0836 0.66215,0.20933 0.73945,0.27929 0.0773,0.07 0.29182,0.1272 0.47671,0.1272 0.36016,0 0.67217,0.17296 1.51829,0.84165 0.34096,0.26947 0.58752,0.3931 0.87032,0.4364 0.85335,0.13067 4.38209,1.55299 5.7709,2.32608 0.11642,0.0648 0.61473,0.30694 1.10738,0.53808 0.86276,0.40481 0.91031,0.44146 1.29305,0.99653 0.21854,0.31694 0.63462,0.84611 0.92463,1.17592 0.29,0.32982 0.67968,0.80171 0.86594,1.04866 0.18627,0.24694 0.52917,0.68261 0.762,0.96815 0.71016,0.87092 1.56634,2.08474 1.56634,2.22062 0,0.0343 0.0711,0.21735 0.1581,0.40668 0.087,0.18932 0.2255,0.49663 0.30787,0.68289 0.39486,0.893 1.06863,2.24023 1.14351,2.28651 0.0461,0.0285 0.0838,0.10898 0.0838,0.17885 0,0.0699 0.15691,0.45814 0.34869,0.86284 0.53866,1.13667 0.7495,1.70093 0.74952,2.0058 0,0.0931 0.0728,0.41699 0.16174,0.71967 0.21949,0.74689 0.60877,2.31803 0.70274,2.83633 0.0422,0.23284 0.12891,0.55868 0.19264,0.72409 0.0637,0.16541 0.15721,0.50831 0.20772,0.762 0.13656,0.68595 0.32137,1.51775 0.4223,1.90058 0.0491,0.18627 0.0902,0.54847 0.0913,0.804888 0.001,0.25643 0.0399,0.5982 0.0861,0.7595 0.0463,0.16129 0.14127,0.71349 0.21112,1.2271 0.25582,1.88086 0.31112,2.2109 0.43011,2.56664 0.0667,0.19953 0.12133,0.49403 0.12133,0.65444 0,0.16041 0.0545,0.58771 0.12107,0.94954 0.0666,0.36184 0.18306,1.05794 0.25883,1.54689 l 0.13776,0.889 -0.34773,1.016 c -0.19125,0.5588 -0.38275,1.18745 -0.42555,1.397 -0.18817,0.92124 -0.4134,2.66037 -0.46053,3.556 -0.0282,0.53552 -0.10471,1.14512 -0.17004,1.35467 -0.10915,0.34998 -0.15838,0.59229 -0.39572,1.94733 -0.0449,0.25612 -0.11769,0.50186 -0.16182,0.5461 -0.0442,0.0442 -0.0803,0.18128 -0.0803,0.30454 0,0.25281 -0.12568,0.41015 -0.68807,0.86133 -0.42813,0.34347 -1.13898,0.6587 -1.4854,0.6587 -0.12093,0 -0.36511,0.0435 -0.54262,0.0967 -0.31408,0.0941 -0.32411,0.10941 -0.37432,0.5715 -0.0284,0.26114 -0.0853,0.64625 -0.1264,0.8558 -0.0411,0.20955 -0.0984,0.71787 -0.12736,1.1296 -0.0289,0.41172 -0.0931,0.84987 -0.14263,0.97366 -0.0495,0.12379 -0.1227,1.00613 -0.16262,1.96074 -0.0887,2.12204 -0.26824,3.95153 -0.40068,4.08397 -0.0542,0.0542 -0.0986,0.18394 -0.0986,0.2883 0,0.10435 -0.0371,0.21265 -0.0824,0.24065 -0.0978,0.0605 -0.61317,1.13738 -1.05407,2.20274 -0.47419,1.1458 -0.55905,1.32369 -0.81405,1.70655 -0.12892,0.19354 -0.2597,0.43167 -0.29065,0.52917 -0.0309,0.0975 -0.0918,0.17728 -0.13523,0.17728 -0.0434,0 -0.079,0.0339 -0.079,0.0753 0,0.0414 -0.20955,0.39195 -0.46566,0.77901 -0.25612,0.38705 -0.46567,0.72701 -0.46567,0.75548 0,0.0928 0.5341,0.44943 1.04008,0.69453 0.29848,0.14459 0.65239,0.41325 0.8916,0.67683 0.21816,0.24039 0.70624,0.7363 1.08462,1.10202 0.59289,0.57304 0.70784,0.73177 0.83172,1.14841 0.0791,0.2659 0.21292,0.69301 0.29747,0.94913 0.0846,0.25612 0.21984,0.69427 0.30065,0.97367 0.0808,0.2794 0.18982,0.5842 0.24223,0.67733 0.0627,0.11147 0.10449,1.01582 0.1222,2.64663 l 0.0269,2.4773 0.24703,0.12774 c 0.32391,0.1675 0.36105,0.35414 0.3194,1.60518 -0.0394,1.18399 -0.075,1.2625 -0.70652,1.55935 -0.42904,0.20167 -0.49621,0.35885 -0.43122,1.00899 0.0264,0.26444 0.0682,2.51916 0.0928,5.01048 0.0246,2.49131 0.0639,5.44406 0.0873,6.56166 0.0748,3.57261 0.12578,5.87805 0.17239,7.78933 0.025,1.02447 0.0809,4.66302 0.12422,8.08567 0.0433,3.42265 0.11934,7.1755 0.16892,8.33967 0.0496,1.16416 0.1172,3.52208 0.15029,5.23981 l 0.0602,3.12315 0.84667,0.27641 c 0.46567,0.15201 1.26577,0.4091 1.778,0.57129 0.51223,0.16221 1.06953,0.37649 1.23845,0.47619 0.4406,0.26007 1.17497,1.24266 1.17294,1.56938 -0.002,0.39154 -0.45456,1.04984 -0.82773,1.20521 -0.17251,0.0718 -0.33271,0.15694 -0.35599,0.18914 -0.0233,0.0322 -0.21379,0.14948 -0.42334,0.26061 -1.13642,0.60265 -1.78819,0.88929 -2.24366,0.98676 -0.46503,0.0995 -1.27852,0.29533 -2.37067,0.57064 -0.23283,0.0587 -0.53059,0.15149 -0.66168,0.20622 -0.13109,0.0547 -0.378,0.0995 -0.5487,0.0995 -0.17069,0 -0.50158,0.0733 -0.73532,0.16279 -0.69917,0.26782 -1.26039,0.34119 -3.30363,0.43193 -1.07104,0.0476 -2.23309,0.12136 -2.58234,0.16399 -0.92992,0.11347 -2.22129,0.1005 -3.09033,-0.0311 -0.4191,-0.0634 -1.2192,-0.11996 -1.778,-0.12559 -1.26574,-0.0128 -2.80325,-0.15787 -3.47133,-0.32761 -0.2794,-0.071 -0.75565,-0.15532 -1.05834,-0.18741 -0.30268,-0.0321 -0.62653,-0.0976 -0.71966,-0.14562 -0.0931,-0.048 -0.35805,-0.11196 -0.5887,-0.14209 -0.23065,-0.0301 -0.53545,-0.0916 -0.67733,-0.13647 -0.14189,-0.0449 -0.4343,-0.10336 -0.64981,-0.12989 -0.4371,-0.0538 -1.31203,-0.58539 -1.90376,-1.15665 -0.28724,-0.2773 -0.38008,-0.45225 -0.52975,-0.99836 -0.10952,-0.39965 -0.15605,-0.73019 -0.11739,-0.83381 0.0922,-0.24699 0.69739,-0.68681 2.43667,-1.77082 0.0921,-0.0574 0.37695,-0.20868 0.63307,-0.33621 0.25611,-0.12753 0.5811,-0.31683 0.7222,-0.42067 0.14108,-0.10383 0.33158,-0.21991 0.42333,-0.25796 0.0917,-0.038 0.3501,-0.18279 0.57412,-0.32166 l 0.40733,-0.2525 -0.0506,-3.85233 c -0.0278,-2.11878 -0.0865,-5.45253 -0.13045,-7.40833 -0.0834,-3.71637 -0.13524,-7.24062 -0.21284,-14.478 -0.0255,-2.3749 -0.0623,-4.5847 -0.0818,-4.91067 -0.0968,-1.61792 -0.13807,-3.13451 -0.21757,-7.99747 l -0.0864,-5.28812 -1.00856,-0.97721 c -0.55471,-0.53746 -1.13865,-1.04721 -1.29765,-1.13278 -0.28622,-0.15403 -0.301,-0.15298 -1.4894,0.10583 -0.66017,0.14378 -1.32962,0.26142 -1.48765,0.26142 -0.15804,0 -0.3109,0.0381 -0.33968,0.0847 -0.0288,0.0466 -0.12779,0.0847 -0.22004,0.0847 -0.17106,0 -0.83829,0.30679 -0.83829,0.38544 0,0.0238 0.0528,0.16982 0.11744,0.32441 0.0646,0.15458 0.14509,0.44864 0.1789,0.65345 0.0338,0.2048 0.0917,0.41047 0.12874,0.45704 0.037,0.0466 0.1096,0.29421 0.16133,0.55033 0.1925,0.95308 0.32786,1.51256 0.39044,1.61381 0.0354,0.0573 0.11275,0.3368 0.17183,0.62104 0.156,0.75059 0.29162,1.24238 0.42622,1.54561 0.0651,0.14674 0.11843,0.38676 0.11843,0.53337 0,0.14662 0.0584,0.37951 0.12978,0.51754 0.0714,0.13802 0.16203,0.41235 0.20147,0.60962 0.14034,0.70208 0.27938,1.20874 0.39656,1.44503 0.0654,0.13184 0.11885,0.37949 0.11884,0.55034 -1e-5,0.17085 0.0746,0.53924 0.16572,0.81864 0.28943,0.88716 0.42696,1.41026 0.42696,1.62396 0,0.11413 0.0447,0.29072 0.0993,0.39243 0.0546,0.10172 0.14729,0.39449 0.20594,0.65061 0.19903,0.86922 0.29877,1.22729 0.387,1.3893 0.0484,0.0889 0.11859,0.3556 0.15595,0.59267 0.0374,0.23707 0.12722,0.60248 0.19965,0.81203 0.0724,0.20955 0.18516,0.59055 0.25048,0.84667 0.0653,0.25611 0.16384,0.63711 0.21891,0.84666 0.0551,0.20955 0.15433,0.8763 0.22056,1.48167 0.0662,0.60536 0.17834,1.46261 0.24911,1.905 0.0708,0.44238 0.1689,1.16628 0.21807,1.60866 0.0492,0.44239 0.14453,1.07104 0.21194,1.397 0.30425,1.47135 0.30528,2.63879 0.003,3.11702 -0.0644,0.10175 -0.14414,0.31833 -0.17728,0.48132 -0.0331,0.16298 -0.14504,0.48683 -0.24869,0.71966 -0.10365,0.23284 -0.23261,0.52976 -0.28659,0.65983 -0.054,0.13007 -0.39166,0.51107 -0.75042,0.84667 -0.35875,0.3356 -1.05414,0.99407 -1.54531,1.46326 -0.49117,0.46921 -1.0837,1.02765 -1.31675,1.241 -0.36893,0.33772 -0.44309,0.46305 -0.57345,0.96907 -0.0823,0.31966 -0.18504,0.86612 -0.22821,1.21435 -0.0432,0.34824 -0.13701,0.93796 -0.20855,1.31049 -0.0715,0.37253 -0.19125,1.02023 -0.26603,1.43933 -0.0748,0.4191 -0.16532,0.8001 -0.20119,0.84667 -0.0359,0.0466 -0.0881,0.28745 -0.11595,0.5353 -0.0473,0.42066 -0.12534,0.72535 -0.33627,1.31332 -0.0897,0.25011 -0.34724,0.39505 -0.70195,0.39505 -0.20417,0 -0.22171,-0.0241 -0.46113,-0.635 -0.14083,-0.35933 -0.35009,-1.03077 -0.42217,-1.35467 -0.0415,-0.18627 -0.17488,-0.62442 -0.29651,-0.97367 -0.12164,-0.34925 -0.25434,-0.76835 -0.29492,-0.93133 -0.0406,-0.16298 -0.15537,-0.56303 -0.25508,-0.889 -0.0997,-0.32597 -0.22616,-0.74507 -0.28098,-0.93133 -0.0548,-0.18627 -0.1283,-0.38314 -0.16327,-0.43748 -0.035,-0.0543 -0.0877,-0.28295 -0.11717,-0.508 -0.0295,-0.22506 -0.10389,-0.5092 -0.16537,-0.63143 -0.10098,-0.20072 -0.35433,-1.09699 -0.66715,-2.36009 -0.0634,-0.25612 -0.19823,-0.67522 -0.29956,-0.93134 -0.10133,-0.25611 -0.22006,-0.64505 -0.26383,-0.86431 -0.0438,-0.21926 -0.13507,-0.50501 -0.20288,-0.635 -0.0678,-0.12999 -0.12352,-0.29504 -0.1238,-0.36678 0,-0.0717 -0.11756,-0.49084 -0.26059,-0.93133 -0.14304,-0.4405 -0.29179,-0.95331 -0.33056,-1.13958 -0.0388,-0.18626 -0.11118,-0.45296 -0.16093,-0.59266 -0.0497,-0.1397 -0.16879,-0.53023 -0.26454,-0.86784 -0.0958,-0.3376 -0.21275,-0.61383 -0.25997,-0.61383 -0.0472,0 -0.28426,0.14811 -0.52673,0.32913 -0.62135,0.46388 -1.04642,0.65802 -1.58387,0.72339 -0.25612,0.0312 -0.78032,0.11604 -1.1649,0.18865 -0.63798,0.12045 -0.71733,0.12015 -0.9058,-0.003 -0.30478,-0.1997 -0.56376,-0.85125 -0.64345,-1.61883 -0.0387,-0.37253 -0.10939,-0.96308 -0.15714,-1.31233 -0.0477,-0.34925 -0.088,-1.07791 -0.0894,-1.61925 -10e-4,-0.54135 -0.0255,-1.09894 -0.0536,-1.2391 -0.0766,-0.38281 -0.0746,-0.38254 -5.1137,-0.70283 -0.72178,-0.0459 -1.51677,-0.12015 -1.76664,-0.16505 -0.24986,-0.0449 -0.48799,-0.0608 -0.52916,-0.0354 -0.0412,0.0254 -0.0749,0.36273 -0.0749,0.74952 0,0.59611 0.0286,0.74046 0.18758,0.9475 0.10317,0.13434 0.22239,0.26859 0.26493,0.29834 0.10057,0.0703 0.0862,0.74304 -0.0219,1.02746 -0.0463,0.12174 -0.12401,0.67115 -0.17272,1.22089 -0.10038,1.13293 -0.24312,1.68247 -0.5402,2.07962 -0.17353,0.232 -0.22269,0.44542 -0.31678,1.37528 -0.13163,1.3009 -0.13009,1.1717 -0.0434,3.64066 l 0.0684,1.94734 0.32942,0.6968 c 0.36319,0.76824 0.39349,1.01355 0.19676,1.593 -0.15086,0.44436 -0.1329,1.4911 0.045,2.62086 0.0884,0.56141 0.15726,0.73959 0.40235,1.04105 l 0.2957,0.36373 -0.0567,0.82161 c -0.0483,0.7003 -0.0309,0.90287 0.11812,1.37194 0.37737,1.18786 0.39978,1.22423 1.07053,1.73799 0.67079,0.51378 0.79745,0.67042 0.79808,0.98695 2.5e-4,0.10783 0.0942,0.42466 0.2089,0.70406 0.11468,0.2794 0.25415,0.71755 0.30993,0.97367 0.0558,0.25612 0.12949,0.50377 0.16379,0.55033 0.0343,0.0466 0.21852,0.54443 0.40935,1.10635 0.25256,0.74369 0.34697,1.15852 0.34697,1.52457 0,0.27657 0.0364,0.62993 0.081,0.78522 0.0875,0.30492 0.24876,1.94558 0.27095,2.75582 0.0102,0.37431 -0.0207,0.52442 -0.1237,0.59973 -0.19491,0.14252 -1.32493,0.29485 -2.85289,0.38455 -0.72179,0.0424 -1.59809,0.1132 -1.94734,0.15739 -1.04432,0.13211 -2.43767,0.26953 -4.03682,0.39813 -0.82986,0.0667 -1.73744,0.1559 -2.01684,0.19814 -0.279402,0.0422 -0.796282,0.08 -1.148622,0.084 -0.35234,0.004 -0.84764,0.0442 -1.10067,0.0896 -0.5952,0.10667 -2.64604,0.32893 -4.31238,0.46734 -1.42168,0.1181 -2.36191,0.23481 -3.44421,0.42755 -0.76894,0.13694 -0.80899,0.13819 -1.17012,0.0366 z"
       id="path880"
       inkscape:connector-curvature="0" />
  </g>
</svg>
