<?xml version="1.0" encoding="UTF-8" standalone="no"?>
<svg
   xmlns:dc="http://purl.org/dc/elements/1.1/"
   xmlns:cc="http://creativecommons.org/ns#"
   xmlns:rdf="http://www.w3.org/1999/02/22-rdf-syntax-ns#"
   xmlns:svg="http://www.w3.org/2000/svg"
   xmlns="http://www.w3.org/2000/svg"
   xmlns:sodipodi="http://sodipodi.sourceforge.net/DTD/sodipodi-0.dtd"
   xmlns:inkscape="http://www.inkscape.org/namespaces/inkscape"
   version="1.1"
   width="600px"
   height="976px"
   viewBox="0 0 600 976"
   id="svg9"
   sodipodi:docname="alone_sitting_male6.svg"
   inkscape:version="0.92.4 (5da689c313, 2019-01-14)">
  <metadata
     id="metadata15">
    <rdf:RDF>
      <cc:Work
         rdf:about="">
        <dc:format>image/svg+xml</dc:format>
        <dc:type
           rdf:resource="http://purl.org/dc/dcmitype/StillImage" />
      </cc:Work>
    </rdf:RDF>
  </metadata>
  <defs
     id="defs13" />
  <sodipodi:namedview
     pagecolor="#ffffff"
     bordercolor="#666666"
     borderopacity="1"
     objecttolerance="10"
     gridtolerance="10"
     guidetolerance="10"
     inkscape:pageopacity="0"
     inkscape:pageshadow="2"
     inkscape:window-width="1920"
     inkscape:window-height="1048"
     id="namedview11"
     showgrid="false"
     inkscape:zoom="1.9344262"
     inkscape:cx="371.97657"
     inkscape:cy="495.61981"
     inkscape:window-x="0"
     inkscape:window-y="0"
     inkscape:window-maximized="1"
     inkscape:current-layer="svg9" />
  <g
     id="g2"
     style="fill:#000000;fill-opacity:1;stroke-linejoin:miter" />
  <path
     style="fill:#000000;fill-opacity:1;stroke-linejoin:miter"
     d="m 492.48285,459.43695 c 0.001,0 0.003,3e-5 0.004,5e-5 0.12316,0.004 0.26129,0.1742 0.48889,0.5359 0.38544,0.68994 0.37987,0.80145 -0.0796,1.6176 -0.25944,0.42747 -0.42361,0.631 -0.55676,0.631 -0.001,0 -0.003,-3e-5 -0.004,-6e-5 -0.0682,-0.002 -0.12837,-0.0578 -0.18909,-0.16454 -0.12848,-0.23 -0.21258,-0.79323 -0.19068,-1.23946 0.0233,-0.47418 0.16084,-0.99854 0.3113,-1.21484 0.077,-0.10876 0.144,-0.16565 0.21575,-0.16565 z m -177.82559,-46.3855 11.28827,5.85907 h -0.003 c -0.24862,1.10637 -0.26269,2.25875 -0.0422,3.45716 0.50323,2.27781 1.6944,4.05343 3.57351,5.32684 1.454,0.92712 2.98703,1.39068 4.59909,1.39068 0.54822,0 1.10558,-0.0536 1.67208,-0.16082 0.75257,-0.16639 1.45073,-0.40915 2.09446,-0.7283 h 0.003 l 24.56564,12.30722 h -0.004 c -4.58734,9.3131 -8.62793,14.3671 -16.1781,20.33264 -2.14453,1.71563 -6.19531,4.95626 -9.00702,7.1961 -2.7641,2.23984 -6.95782,5.52811 -9.29297,7.29142 l -4.28907,3.19296 -0.85784,-2.28752 c -0.47656,-1.23906 -0.76248,-2.76406 -0.6195,-3.33593 0.33358,-1.38201 -0.5719,-3.28827 -2.00159,-4.19375 -0.81012,-0.5242 -1.09607,-1.19142 -1.09607,-2.43045 0,-1.28674 -0.4289,-2.14453 -2.04922,-3.90781 -3.19298,-3.52661 -5.38518,-7.24376 -6.00468,-10.15076 -1.09612,-5.19457 -5.62347,-9.91253 -9.5789,-9.9602 -0.90547,0 -2.23988,-0.2859 -2.95472,-0.66718 -0.66718,-0.38128 -2.19218,-0.81012 -3.33594,-1.00079 -1.81091,-0.28589 -5.14684,-1.85858 -5.14684,-2.43043 0,-0.143 0.42888,-1.57268 0.9531,-3.19298 0.76252,-2.33522 1.525,-3.57422 3.52656,-5.52814 2.33514,-2.33514 2.76407,-2.52582 5.57581,-2.90704 3.76483,-0.52417 9.2453,-2.00159 11.15155,-2.95471 2.76404,-1.42969 3.2406,-2.38283 3.33594,-6.67188 0,-0.96841 0.0465,-2.3461 0.11894,-3.8454 z M 377.563,458.1976 c 0.0466,0 0.0857,0.006 0.1167,0.0172 0.3812,0.0953 1.66796,0.42896 2.85936,0.71486 3.62189,0.9055 3.8125,1.00078 3.8125,1.85863 0,0.42883 -0.42889,2.43042 -0.95312,4.38434 -0.52424,1.95389 -0.95314,4.71796 -0.95314,6.14763 0,2.4305 -0.23827,2.90706 -2.76406,6.48127 -3.47891,4.95623 -13.24844,15.86951 -16.29844,18.20469 -2.52577,1.95388 -5.05156,3.66952 -10.48436,7.24374 -2.31726,1.54486 -4.44522,2.4507 -5.49988,2.4507 -0.44196,0 -0.69543,-0.15904 -0.69543,-0.49678 0,-0.23828 -0.47657,-0.61954 -1.04847,-0.76252 -0.6195,-0.1906 -1.52496,-0.71484 -2.04919,-1.1914 -0.52423,-0.47656 -1.57267,-0.95312 -2.33515,-1.04843 -1.09612,-0.0953 -1.38204,-0.38127 -1.52502,-1.47733 -0.0953,-1.09614 0.7625,-2.47814 4.52734,-7.14844 5.71876,-7.14843 10.05549,-13.43908 13.34376,-19.49142 1.382,-2.52578 3.43127,-5.48048 4.52734,-6.5289 1.90626,-1.90625 7.67266,-5.76642 8.62579,-5.76642 0.28595,0 1.76327,-0.85779 3.33594,-1.90626 1.44493,-0.9633 2.93013,-1.6852 3.45753,-1.6852 z m -66.64973,65.068 c 0.23828,0 0.76251,0.52426 1.19141,1.14376 0.38125,0.66718 1.1914,1.28674 1.71562,1.47734 0.81016,0.28597 0.95314,0.5719 0.6672,1.95394 -0.38124,2.09686 0.0953,2.66876 4.33672,5.0039 1.90625,1.0484 3.8125,2.28746 4.28906,2.81171 0.4289,0.47655 1.57262,1.14375 2.47812,1.47735 l 1.66797,0.52424 -1.33437,0.90546 c -1.8751,1.23473 -8.62175,3.34734 -10.72148,3.34734 -0.0883,0 -0.16832,-0.004 -0.23947,-0.0114 -0.0483,-0.003 -0.0992,-0.004 -0.1525,-0.004 -1.73361,0 -6.03418,1.4837 -8.85452,3.10194 -2.52579,1.47734 -12.67657,4.8609 -15.67889,5.28984 l -2.38282,0.28589 1.04841,-1.38203 c 2.95471,-3.8125 3.47894,-5.0039 5.33752,-12.34294 1.04843,-4.19373 2.09685,-7.76796 2.33515,-8.00623 0.0929,-0.0928 0.316,-0.13507 0.61865,-0.13507 0.47393,0 1.14288,0.10354 1.81183,0.27804 0.87396,0.2313 1.63702,0.3587 2.35272,0.3587 1.93805,0 3.5289,-0.9339 6.0348,-3.26577 1.66796,-1.52496 3.2406,-2.81173 3.47887,-2.81173 z m 199.0636,-77.07413 c -1.55185,0 -3.69391,0.98257 -4.88935,2.27153 -0.94317,0.98805 -1.31536,1.16548 -3.00659,1.44575 -0.69198,0.0986 -1.22063,0.1532 -1.75805,0.1532 -0.0785,0 -0.15726,-0.001 -0.2367,-0.004 -0.63768,-0.019 -1.32208,-0.11535 -2.33081,-0.30632 -1.05292,-0.20168 -1.68542,-0.30958 -2.15961,-0.32374 -0.0357,-10e-4 -0.0704,-0.002 -0.10443,-0.002 -0.44131,0 -0.75053,0.0894 -1.17181,0.26824 -0.54489,0.21375 -1.24146,0.3945 -1.61852,0.3945 -0.011,0 -0.0217,-1.4e-4 -0.0322,-4.5e-4 -0.006,-1.8e-4 -0.0121,-4.9e-4 -0.018,-7.3e-4 -0.008,-4.2e-4 -0.0164,-8e-4 -0.0246,-10e-4 -0.0129,-4e-4 -0.026,-5.8e-4 -0.039,-5.8e-4 -0.85572,0 -1.94673,0.82455 -2.5172,1.88767 -0.34246,0.7099 -0.43523,1.46026 -0.39172,3.41925 0.0888,2.7442 0.42852,3.79528 1.20935,3.83355 0.4184,0.0207 0.54279,0.33435 0.67499,1.62677 0.18573,1.91022 0.18708,1.88233 -0.55578,5.62 -0.8526,4.2633 -0.85218,4.82246 0.13726,5.73779 0.5788,0.54541 1.3963,0.83717 2.31708,0.86462 0.0477,0.001 0.0957,0.002 0.14392,0.002 0.78302,0 1.63413,-0.1873 2.47266,-0.56843 3.54462,-1.58704 10.61841,-6.71877 11.97344,-8.69302 0.3582,-0.53031 0.53404,-0.76392 0.67143,-0.76392 0.001,0 0.002,3e-5 0.004,7e-5 0.0923,0.003 0.16748,0.11156 0.26996,0.30712 0.17743,0.37213 0.18072,2.58081 -0.0351,6.40024 -0.2937,5.40914 -0.38782,6.18729 -1.38574,9.99624 -1.37878,5.2999 -3.48401,10.59208 -5.9917,14.96982 -5.65985,9.92598 -11.70752,14.66083 -24.68546,19.33488 -5.97735,2.16634 -10.93152,5.697 -16.60002,11.8205 -5.19917,5.6712 -6.73066,8.3915 -8.80607,15.9217 -2.4842,9.0197 -2.45459,19.22535 0.0507,28.5461 1.08696,4.0512 2.89128,8.86456 4.37444,11.67724 0.6662,1.23486 1.11616,2.3194 0.99902,2.42541 -0.023,0.0208 -0.2655,0.0309 -0.68164,0.0309 -0.49365,0 -1.23157,-0.0141 -2.1369,-0.0411 -1.24787,-0.0372 -2.81385,-0.0989 -4.49652,-0.1815 -6.21943,-0.3057 -7.69336,-0.46193 -11.0406,-1.18557 -8.98867,-1.97949 -16.69344,-6.18817 -20.00918,-10.96393 -4.04739,-5.81823 -4.32437,-14.9736 -0.83222,-27.4385 1.59733,-5.76425 3.03608,-9.4397 6.2682,-16.0464 2.5807,-5.2967 3.81643,-8.25527 3.86435,-9.23146 0.0398,-0.80878 -0.73845,-2.60828 -1.4321,-3.28534 -0.293,-0.29395 -0.9473,-0.6336 -1.47305,-0.7433 l -0.93857,-0.2418 0.71185,0.8736 c 1.37616,1.57726 0.79602,3.1423 -3.46796,9.6983 -3.32834,5.1481 -6.74609,11.54985 -8.59674,16.21154 -2.2305,5.56546 -2.56143,6.61166 -3.89348,12.6687 -1.00438,4.50756 -1.10127,5.34146 -1.13038,8.77876 -0.0131,4.2487 0.79398,8.8732 2.00244,11.5885 4.07806,9.1745 12.18899,15.3602 25.30258,19.3036 5.70361,1.72733 13.61939,2.8188 21.63989,3.0579 1.10584,0.033 2.21363,0.0498 3.31787,0.0498 0.94376,0 1.8849,-0.0123 2.82,-0.0371 0.72804,-0.0166 1.33287,-0.0255 1.8371,-0.0255 0.31538,0 0.5914,0.003 0.83363,0.0107 1.02301,0.0305 1.44267,0.12777 1.6759,0.31234 0.24139,0.20756 1.34235,1.12811 2.44337,2.04886 5.61492,4.63724 10.09426,6.7863 18.54616,8.8793 1.82282,0.45294 4.54914,0.7267 12.10304,1.18195 3.2734,0.19945 6.6222,0.3482 9.957,0.44765 3.409,0.1016 6.8033,0.15165 10.08733,0.15165 9.77997,0 18.58207,-0.44391 23.88157,-1.29211 7.8342,-1.26441 8.4002,-1.4043 10.9188,-2.59449 5.52245,-2.58015 7.4184,-4.7514 7.29656,-8.53161 -0.0962,-3.16388 -1.08411,-5.81224 -3.06616,-8.14618 -2.4063,-2.80206 -3.65363,-3.59026 -7.80866,-4.94066 -6.77034,-2.178 -16.73874,-3.56245 -31.65668,-4.3516 -3.09326,-0.1624 -6.05322,-0.2856 -8.87988,-0.36985 -3.06384,-0.0913 -5.9711,-0.1369 -8.72178,-0.1369 -8.41512,0 -15.36474,0.42645 -20.84844,1.27275 -1.18744,0.17744 -1.84918,0.27016 -2.26941,0.27016 -0.0263,0 -0.0515,-3.6e-4 -0.0759,-10e-4 -0.41942,-0.0125 -0.58166,-0.13226 -0.83679,-0.36956 -1.19891,-1.20515 -5.2453,-7.6102 -6.14783,-9.7233 -2.60577,-6.1388 -3.78058,-13.52116 -3.10364,-19.3308 0.36974,-2.9732 1.44349,-7.757 2.21436,-9.7879 0.67608,-1.8119 4.35778,-6.1879 7.95538,-9.4218 2.69324,-2.4675 3.24237,-2.8319 6.93183,-4.5237 7.52414,-3.4882 13.31027,-7.4533 17.70437,-12.10173 7.22217,-7.5846 12.12934,-16.98847 15.5182,-29.62604 1.33575,-4.99445 1.8003,-8.18655 2.0826,-13.93183 0.37686,-7.66952 -0.3776,-12.7947 -2.6048,-18.10406 -1.32473,-3.19629 -3.9852,-6.51398 -6.0568,-7.59427 -0.73516,-0.39967 -1.8635,-0.76263 -2.47716,-0.79277 -0.0215,-0.001 -0.043,-0.002 -0.0647,-0.003 -0.0349,-0.001 -0.0702,-0.002 -0.10577,-0.002 z M 287.38434,332.78442 c -3.05174,0 -5.83167,0.67235 -8.33978,2.01706 h -0.003 c -7.40778,0.85417 -17.19236,5.42472 -29.35375,13.71167 -10.24579,7.47817 -16.27656,14.73702 -18.09233,21.77655 -1.62719,6.86573 0.82433,14.01951 7.35456,21.46134 6.67134,6.96307 13.38091,11.36256 20.12872,13.19846 h -0.003 c 0.0738,0.33822 0.13361,0.65307 0.17755,0.9388 0.19062,1.38202 0.61954,2.71644 1.0008,3.05 0.95312,0.7625 0.81015,2.28753 -0.42892,4.47967 -1.04844,1.85863 -2.19218,2.47815 -4.76563,2.57349 -1.76327,0.0476 -5.28984,1.76324 -7.10077,3.47888 -1.45692,1.36584 -3.52277,1.86178 -7.4026,1.86178 -0.18134,0 -0.36662,-10e-4 -0.556,-0.003 -0.90548,0 -3.19298,0.52423 -5.14687,1.14374 -6.19531,2.09692 -9.67422,4.71801 -15.05938,11.38989 -8.00625,9.96008 -14.0586,20.20618 -18.7289,31.73901 -7.29141,18.06171 -7.81563,19.44376 -10.72266,30.73828 -1.42969,5.4328 -3.52657,19.44373 -3.09765,20.58753 0.14296,0.38123 -0.38126,3.28827 -1.19141,6.4812 -0.81017,3.19299 -2.09688,9.8172 -2.81172,14.72583 -1.14376,7.57733 -1.52499,9.2453 -2.76407,11.4375 -2.66875,4.7656 -4.47968,11.91406 -3.71718,14.8687 0.14296,0.6672 1.04843,1.95393 2.00156,2.8594 1.66797,1.6203 1.66797,1.6203 1.0961,3.8125 -0.81017,3.193 -0.28594,5.28984 2.19218,8.91173 2.28751,3.33594 3.09766,6.24297 3.09766,11.00861 0,2.76406 0.47656,4.00311 2.33516,6.00466 0.81015,0.8578 1.47734,1.7156 1.47734,1.9062 0,1.19143 1.57266,9.34066 2.14453,11.19924 0.81015,2.6211 7.625,11.4375 10.86563,14.0586 2.23984,1.7633 5.86171,2.95471 13.67734,4.3844 3.00235,0.5719 7.05313,1.33436 9.00702,1.71566 6.29483,1.2134 24.26694,2.33634 33.91626,2.33634 2.47735,0 4.40608,-0.074 5.44781,-0.2395 1.26169,-0.2074 2.48575,-0.31454 3.86313,-0.31454 2.42062,0 5.31482,0.33083 9.7189,1.0294 2.23984,0.3336 5.3375,0.7625 6.91016,0.9531 1.57263,0.14295 6.38592,1.14374 10.72266,2.14454 4.33672,1.04846 10.3414,2.09686 13.34375,2.43046 6.48127,0.6195 7.57733,0.8578 12.86717,2.7164 2.8594,1.0008 6.05235,1.66796 10.72267,2.1922 3.66953,0.4289 8.62579,1.0008 10.96093,1.3344 2.38282,0.33356 7.81562,0.6195 12.15235,0.6195 7.52965,0 7.95859,-0.0477 10.48438,-1.28674 1.42967,-0.66716 5.28985,-2.33516 8.53045,-3.66949 6.10002,-2.47817 7.29142,-3.19297 11.53284,-7.10077 3.76483,-3.47894 5.52811,-6.71954 5.90936,-10.818 0.28595,-3.09765 0.19062,-3.4789 -1.14374,-5.7664 -0.95312,-1.6203 -2.28754,-3.00233 -3.9555,-4.09846 -3.00232,-2.00154 -9.53124,-4.57494 -12.58124,-5.00391 -1.14374,-0.14293 -2.1922,-0.42889 -2.28748,-0.57183 -0.143,-0.1906 0.23828,-1.28675 0.71485,-2.4305 1.00076,-2.1922 3.09765,-3.9078 6.71951,-5.3851 1.00076,-0.429 2.85938,-1.811 4.19376,-3.14534 2.28746,-2.28756 2.38281,-2.47816 2.38281,-5.05156 0,-2.47817 -1.33438,-5.95705 -3.43127,-8.8641 -0.4289,-0.6195 -0.0476,-1.71563 1.90625,-5.71874 1.33441,-2.71636 2.90704,-6.48126 3.43127,-8.29216 0.57187,-1.8586 1.90625,-5.8141 3.00232,-8.8164 1.85861,-5.0516 2.00158,-5.8141 1.90625,-9.76956 -0.0476,-3.86014 -0.28592,-4.76564 -2.19217,-9.57894 -3.33594,-8.2445 -5.3375,-11.48514 -8.86404,-14.2492 -2.05402,-1.62004 -4.88074,-2.4674 -7.7872,-2.4674 -1.88141,0 -3.79626,0.35505 -5.55656,1.0854 -0.92346,0.38025 -1.56054,0.5902 -1.89803,0.5902 -0.84687,0 0.19271,-1.322 3.32773,-4.5933 3.76483,-3.90785 9.57888,-10.96095 15.34527,-18.58595 0.71483,-0.95313 1.76331,-2.28755 2.23987,-2.95471 0.52423,-0.66718 2.1922,-2.81171 3.71716,-4.76564 3.2883,-4.1937 6.10004,-6.76717 9.76953,-8.95934 1.47737,-0.90549 4.67035,-3.71722 7.14844,-6.24298 4.24143,-4.38438 4.57501,-4.81328 5.09923,-7.48202 0.0578,-0.30838 0.12538,-0.646 0.19954,-0.99826 h 0.004 l 5.1612,5.0651 2.1845,4.42486 c 0.9612,5.24076 1.82648,8.72863 2.59585,10.46362 0.80765,1.93725 1.73806,3.04496 2.79122,3.32312 0.21259,0.0707 0.43486,0.10602 0.66683,0.10602 2.86899,0 7.22148,-5.40558 13.05748,-16.21674 6.16697,-12.18593 8.34897,-19.68535 6.54599,-22.49826 -0.57477,-0.76265 -1.50214,-1.14398 -2.78211,-1.14398 -0.96657,0 -2.13422,0.21745 -3.50293,0.65236 -2.72097,0.77796 -7.58752,3.07421 -14.59967,6.88875 l -7.73318,-2.34903 h -0.004 c -0.16571,-0.75391 -0.43323,-1.49983 -0.80255,-2.23777 -0.28019,-0.59237 -0.59697,-1.18163 -0.95035,-1.76779 h -0.004 c 0.003,-0.0219 0.007,-0.0439 0.0102,-0.066 h 0.004 l -0.20668,-0.26022 h -0.004 c -1.79551,-2.86261 -4.46682,-5.65125 -8.01392,-8.36591 -3.10638,-2.35125 -6.07307,-3.68137 -8.90008,-3.99035 h -0.004 c -0.90289,-1.62105 -2.52186,-3.63337 -4.8569,-6.03696 h -0.004 c 0.002,-6.7e-4 0.004,-0.002 0.006,-0.003 h -0.005 c -0.17472,-0.17983 -0.35345,-0.36185 -0.53618,-0.54606 h -0.004 c 0.99577,-3.24783 0.28503,-6.77967 -2.1322,-10.5955 -2.93351,-4.54316 -6.23578,-6.85749 -9.9068,-6.943 l -0.0605,-10e-4 c -0.0315,-2.9e-4 -0.063,-4.4e-4 -0.0945,-4.4e-4 -2.39499,0 -5.05196,0.81651 -7.97092,2.44954 -3.22259,1.8962 -5.47351,3.88194 -6.75274,5.95723 -0.53969,0.90267 -0.89444,1.91208 -1.06424,3.02823 -0.0643,0.0954 -0.16343,1.32948 -0.29748,3.7023 L 342.3796,421.823 h -0.003 c 0.11467,-0.88457 0.0846,-1.79725 -0.0902,-2.73804 -0.48983,-2.24312 -1.67398,-4.01007 -3.55246,-5.30086 -1.45841,-0.93523 -2.99764,-1.40284 -4.61768,-1.40284 -0.54117,0 -1.09137,0.0522 -1.6506,0.15654 -1.58191,0.34553 -2.92447,1.02868 -4.0277,2.04945 l -13.44172,-6.97607 h -0.003 c 0.006,-0.0827 0.0127,-0.16458 0.019,-0.24558 0.28595,-4.52734 0.57188,-5.76636 1.28671,-6.38586 1.19141,-1.09614 1.0961,-2.95472 -0.28593,-5.00391 -0.61956,-0.90553 -1.42968,-2.62109 -1.71562,-3.8125 -0.28595,-1.1438 -0.95313,-2.81177 -1.47736,-3.66956 -1.23908,-2.14453 -1.14374,-2.90704 0.5719,-5.24217 1.38202,-1.90626 1.42968,-2.09694 0.95312,-4.3844 -0.28594,-1.33436 -0.90548,-3.193 -1.42968,-4.19374 -0.1121,-0.22418 -0.2453,-0.52221 -0.39151,-0.86986 h -0.003 c 1.32898,-1.55645 2.34012,-3.11689 3.03342,-4.68132 2.93369,-7.10645 1.45659,-14.70667 -4.43132,-22.80066 -6.67079,-8.32257 -14.33899,-12.83062 -23.00462,-13.52417 l -0.0506,-0.002 c -0.22908,-0.007 -0.45667,-0.0111 -0.68276,-0.0111 z"
     id="path4"
     inkscape:connector-curvature="0"
     sodipodi:nodetypes="scccsccccsscccccsccccccccccccscccccsccccccccccscscccsscscccccsccccccccccccscsccccccscsccccccscccscscccscccccccsccscccccccccccsccccccccccccccccccscsccccccscccccccscscccccccccccccccccccccccccccccscccccscccccccscsccccscscccccccscccccccccccscccccccscscccccccccccccsccscccccccccccccccccccccccsccccccccscccccccccccccccccccc" />
</svg>
