<?xml version="1.0" encoding="UTF-8" standalone="no"?>
<svg
   xmlns:dc="http://purl.org/dc/elements/1.1/"
   xmlns:cc="http://creativecommons.org/ns#"
   xmlns:rdf="http://www.w3.org/1999/02/22-rdf-syntax-ns#"
   xmlns:svg="http://www.w3.org/2000/svg"
   xmlns="http://www.w3.org/2000/svg"
   xmlns:sodipodi="http://sodipodi.sourceforge.net/DTD/sodipodi-0.dtd"
   xmlns:inkscape="http://www.inkscape.org/namespaces/inkscape"
   version="1.1"
   width="8.8842678"
   height="10.972132"
   viewBox="0 0 8.8842678 10.972132"
   id="svg11"
   sodipodi:docname="man sitting on floor reading.svg"
   inkscape:version="0.92.4 (5da689c313, 2019-01-14)">
  <metadata
     id="metadata17">
    <rdf:RDF>
      <cc:Work
         rdf:about="">
        <dc:format>image/svg+xml</dc:format>
        <dc:type
           rdf:resource="http://purl.org/dc/dcmitype/StillImage" />
        <dc:title></dc:title>
      </cc:Work>
    </rdf:RDF>
  </metadata>
  <defs
     id="defs15" />
  <sodipodi:namedview
     pagecolor="#ffffff"
     bordercolor="#666666"
     borderopacity="1"
     objecttolerance="10"
     gridtolerance="10"
     guidetolerance="10"
     inkscape:pageopacity="0"
     inkscape:pageshadow="2"
     inkscape:window-width="933"
     inkscape:window-height="512"
     id="namedview13"
     showgrid="false"
     fit-margin-top="0"
     fit-margin-left="0"
     fit-margin-right="0"
     fit-margin-bottom="0"
     inkscape:zoom="10.942767"
     inkscape:cx="1.0506657"
     inkscape:cy="7.947919"
     inkscape:window-x="0"
     inkscape:window-y="0"
     inkscape:window-maximized="0"
     inkscape:current-layer="svg11" />
  <g
     id="layer1"
     transform="translate(-294.73953,-482.06606)">
    <g
       style="fill:#000000;fill-opacity:1;stroke-linejoin:miter"
       id="g4">
      <path
         d="m 298.53247,482.07407 c 0.007,0.007 0.0391,0.009 0.11948,0.0102 0.13107,7e-4 0.12167,-7.3e-4 0.14267,0.0188 0.0145,0.0137 0.0275,0.0174 0.076,0.0188 0.0456,0.002 0.0623,0.007 0.0797,0.0188 0.0116,0.009 0.0405,0.0203 0.0637,0.0261 0.0297,0.006 0.0464,0.0152 0.0536,0.0268 0.0159,0.0239 0.0543,0.0456 0.0811,0.0456 0.0145,0 0.0253,0.005 0.0311,0.0145 0.005,0.008 0.013,0.0145 0.0174,0.0145 0.004,0 0.0166,0.0123 0.0268,0.0282 0.0268,0.0405 0.0521,0.0659 0.0659,0.0659 0.0181,0 0.0847,0.0507 0.0927,0.0717 0.0188,0.0478 0.029,0.11298 0.0319,0.19769 0.001,0.0775 0,0.0927 -0.009,0.0927 -0.007,0 -0.0101,0.009 -0.0101,0.0283 0,0.0405 0.0188,0.0869 0.0456,0.11367 0.0304,0.0297 0.0753,0.0898 0.089,0.12021 0.006,0.013 0.0159,0.0319 0.021,0.042 0.006,0.0101 0.0109,0.0239 0.0109,0.0311 0,0.008 0.004,0.0239 0.0101,0.0362 0.006,0.013 0.0159,0.0427 0.0232,0.0666 0.007,0.0239 0.0253,0.0695 0.0413,0.10137 0.0355,0.0695 0.0558,0.12815 0.0558,0.16364 0,0.0145 0.005,0.0304 0.0108,0.0355 0.021,0.0174 0.0131,0.0587 -0.0181,0.0999 -0.0159,0.021 -0.029,0.0406 -0.029,0.0435 0,0.004 -0.008,0.0138 -0.0173,0.0225 -0.0102,0.009 -0.0232,0.0275 -0.029,0.0398 -0.009,0.021 -0.009,0.0268 0,0.055 0.006,0.0181 0.0159,0.0355 0.0217,0.0384 0.006,0.003 0.0102,0.0101 0.0102,0.0152 0,0.006 0.004,0.0138 0.0101,0.0181 0.0123,0.0109 0.0377,0.0804 0.0471,0.13108 0.009,0.0521 0.0174,0.0731 0.0362,0.0898 0.008,0.008 0.0152,0.0181 0.0152,0.0239 0,0.005 0.003,0.009 0.007,0.009 0.004,0 0.0167,0.021 0.029,0.0471 0.0297,0.0644 0.0254,0.0919 -0.0239,0.14337 l -0.0355,0.0377 -0.002,0.14482 c -0.001,0.0797 -0.006,0.16291 -0.009,0.18464 -0.0174,0.0891 -0.0254,0.18682 -0.0167,0.21072 0.0196,0.0572 0.001,0.13687 -0.0413,0.18246 -0.0333,0.0355 -0.12238,0.0753 -0.20423,0.092 -0.0181,0.004 -0.0507,0.0116 -0.0724,0.0181 -0.0217,0.007 -0.0543,0.0152 -0.0724,0.0188 -0.0181,0.004 -0.0384,0.0101 -0.0449,0.0138 -0.007,0.004 -0.0318,0.007 -0.0543,0.007 -0.0232,0 -0.063,0.004 -0.0876,0.007 -0.042,0.006 -0.05,0.0101 -0.0905,0.0471 -0.0246,0.0224 -0.0471,0.0435 -0.0507,0.0456 -0.003,0.003 -0.0231,0.0239 -0.0449,0.0471 -0.0398,0.0427 -0.0572,0.0782 -0.0796,0.1651 -0.007,0.0254 -0.0167,0.055 -0.0232,0.0666 -0.0109,0.0217 -0.008,0.0558 0.005,0.0558 0.004,0 0.0203,0.0116 0.0362,0.0261 0.0311,0.0283 0.0456,0.0326 0.1535,0.0492 0.0377,0.006 0.0674,0.0138 0.0746,0.021 0.007,0.006 0.0159,0.0123 0.0217,0.0123 0.005,0 0.0109,0.004 0.0123,0.009 0.002,0.005 0.0312,0.0101 0.0826,0.013 0.0746,0.004 0.0826,0.007 0.12527,0.0311 0.0246,0.0152 0.0478,0.0268 0.0514,0.0268 0.007,0 0.0471,0.0405 0.0717,0.0731 0.0427,0.0558 0.0782,0.11658 0.0898,0.1528 0.0268,0.0876 0.0341,0.11728 0.0341,0.13611 0,0.0326 0.0145,0.0666 0.0463,0.10718 0.0159,0.0217 0.0406,0.0522 0.0529,0.0688 0.013,0.0167 0.0239,0.0355 0.0239,0.0427 0,0.0109 0.0833,0.0927 0.0942,0.0927 0.003,0 0.0159,0.0152 0.029,0.0341 0.0225,0.0311 0.0246,0.0391 0.0275,0.0985 l 0.004,0.0637 0.0261,0.0174 c 0.0275,0.0174 0.055,0.0456 0.0753,0.0761 0.013,0.0188 0.0152,0.0608 0.006,0.10207 -0.005,0.0217 -0.002,0.0333 0.0159,0.071 0.0116,0.0246 0.0232,0.0593 0.0254,0.0767 0.004,0.0413 0.0174,0.042 0.0572,0.005 0.0167,-0.0159 0.042,-0.034 0.0557,-0.0406 0.0145,-0.006 0.0261,-0.0152 0.0261,-0.0181 0,-0.003 0.007,-0.009 0.0167,-0.013 0.009,-0.004 0.0384,-0.0261 0.0645,-0.0485 0.0268,-0.0225 0.0514,-0.0406 0.0558,-0.0406 0.004,0 0.008,-0.003 0.008,-0.007 0,-0.003 0.0123,-0.0145 0.0268,-0.0239 0.0152,-0.0101 0.042,-0.0318 0.0601,-0.0478 0.0181,-0.0167 0.0355,-0.0304 0.0384,-0.0304 0.003,0 0.013,-0.007 0.0217,-0.0167 0.0138,-0.0145 0.0521,-0.0463 0.13974,-0.11731 0.0131,-0.0101 0.0261,-0.0181 0.0304,-0.0181 0.004,0 0.0123,-0.007 0.0181,-0.0145 0.0101,-0.0138 0.0318,-0.0312 0.12745,-0.0992 0.042,-0.0304 0.0927,-0.0724 0.22158,-0.18465 0.10572,-0.0927 0.24405,-0.25273 0.28964,-0.33528 0.0152,-0.0282 0.0369,-0.0644 0.0485,-0.0811 0.0109,-0.0167 0.0203,-0.0348 0.0203,-0.0406 0,-0.006 0.006,-0.0159 0.0145,-0.0232 0.008,-0.007 0.0159,-0.0196 0.0188,-0.0283 0.003,-0.008 0.0159,-0.0311 0.029,-0.05 0.0138,-0.0196 0.0246,-0.0413 0.0254,-0.0478 0,-0.007 0.009,-0.0282 0.021,-0.0478 0.0239,-0.0413 0.0275,-0.0493 0.0536,-0.10935 0.0101,-0.0246 0.0188,-0.0514 0.0188,-0.0601 0,-0.021 0.0333,-0.0861 0.0579,-0.11295 0.0195,-0.0217 0.0348,-0.0854 0.0651,-0.27154 0.004,-0.0261 0.0109,-0.0637 0.0145,-0.0833 0.0304,-0.16943 0.0435,-0.23968 0.0529,-0.28964 0.0152,-0.0775 0.0536,-0.28748 0.0674,-0.37294 0.007,-0.0377 0.0159,-0.0898 0.0217,-0.11586 0.005,-0.0261 0.0152,-0.0775 0.021,-0.11511 0.007,-0.0377 0.0152,-0.0753 0.0195,-0.0833 0.0116,-0.0217 0.0196,-0.0586 0.0275,-0.12671 0.004,-0.0333 0.0101,-0.0645 0.0145,-0.0688 0.004,-0.004 0.007,-0.0152 0.007,-0.0246 0,-0.0174 0.001,-0.0181 0.0398,-0.013 0.0217,0.002 0.047,0.007 0.0557,0.0108 0.009,0.004 0.0427,0.0123 0.0746,0.0196 0.0319,0.007 0.0608,0.0152 0.0652,0.0188 0.004,0.003 0.0167,0.006 0.0297,0.006 0.0203,0 0.0485,0.007 0.12311,0.0297 0.0123,0.004 0.0304,0.007 0.0413,0.007 0.0101,0 0.0275,0.004 0.0391,0.008 0.0109,0.004 0.0319,0.0109 0.0456,0.0145 0.0137,0.003 0.0449,0.0109 0.0688,0.0174 0.0239,0.007 0.0579,0.0145 0.076,0.0181 0.0637,0.0123 0.105,0.0225 0.1173,0.029 0.007,0.004 0.021,0.007 0.0312,0.007 0.0181,0 0.0956,0.0181 0.12308,0.029 0.0174,0.007 0.13254,0.0355 0.1738,0.0435 0.0159,0.003 0.0369,0.009 0.0471,0.0123 0.0261,0.0109 0.0644,0.0217 0.0941,0.0275 0.0138,0.002 0.0333,0.007 0.0435,0.0109 0.0101,0.003 0.0442,0.0116 0.076,0.0181 0.0319,0.007 0.0637,0.0152 0.0702,0.0188 0.007,0.004 0.0217,0.006 0.0319,0.006 0.0109,0 0.0377,0.005 0.0601,0.0116 0.0225,0.007 0.0536,0.0145 0.0695,0.0188 0.0674,0.0174 0.0999,0.0297 0.11804,0.0456 0.0181,0.0152 0.0181,0.0181 0.0101,0.0449 -0.005,0.0159 -0.009,0.0362 -0.009,0.0442 0,0.009 -0.004,0.0297 -0.009,0.0463 -0.006,0.0174 -0.0138,0.0471 -0.0181,0.0674 -0.004,0.0195 -0.013,0.0572 -0.0188,0.0833 -0.006,0.0261 -0.0167,0.0717 -0.0232,0.10138 -0.007,0.0297 -0.0152,0.0572 -0.0181,0.0616 -0.004,0.004 -0.007,0.0167 -0.007,0.0297 0,0.0123 -0.003,0.0319 -0.007,0.0435 -0.007,0.0188 -0.0362,0.1499 -0.0507,0.22377 -0.003,0.0159 -0.0116,0.0485 -0.0181,0.0724 -0.007,0.0239 -0.0152,0.0565 -0.0181,0.0724 -0.004,0.0159 -0.0116,0.0514 -0.0181,0.0796 -0.007,0.0275 -0.0145,0.0638 -0.0181,0.0797 -0.003,0.0159 -0.009,0.0405 -0.013,0.0543 -0.004,0.0138 -0.0109,0.0435 -0.0152,0.0652 -0.004,0.0217 -0.0152,0.0673 -0.0232,0.10138 -0.0196,0.0818 -0.0348,0.14917 -0.0398,0.1832 -0.003,0.0152 -0.008,0.029 -0.0109,0.0311 -0.004,0.002 -0.007,0.0145 -0.007,0.0268 -7.2e-4,0.013 -0.005,0.0442 -0.0108,0.0702 -0.006,0.026 -0.0131,0.0557 -0.0152,0.0666 -0.003,0.0137 -10e-4,0.0203 0.004,0.0203 0.0195,0 0.0738,0.0456 0.0919,0.0768 0.0188,0.0318 0.0196,0.0362 0.0145,0.10283 -0.0145,0.20347 -0.0159,0.21289 -0.0391,0.25415 l -0.0217,0.0398 0.0145,0.0391 c 0.013,0.0348 0.0138,0.0449 0.007,0.0768 -0.005,0.0203 -0.0109,0.055 -0.0131,0.0768 -0.003,0.0217 -0.0108,0.0492 -0.0188,0.0616 -0.0145,0.0246 -0.0232,0.0601 -0.0384,0.15566 -0.0116,0.0767 -0.0217,0.10284 -0.0514,0.14484 -0.029,0.0391 -0.0739,0.0912 -0.0927,0.10787 -0.0275,0.0232 -0.11514,0.10575 -0.1231,0.11588 -0.004,0.006 -0.0232,0.0253 -0.0427,0.0442 -0.0188,0.0181 -0.034,0.0362 -0.034,0.0406 -7.2e-4,0.008 -0.0463,0.0319 -0.0616,0.0319 -0.006,0 -0.0138,0.007 -0.0181,0.0145 -0.004,0.008 -0.0232,0.0217 -0.042,0.0311 -0.0188,0.009 -0.0485,0.0246 -0.0666,0.034 -0.0181,0.009 -0.0333,0.0188 -0.0348,0.021 -0.004,0.0116 -0.0572,0.0637 -0.0761,0.0753 -0.0108,0.007 -0.0195,0.0174 -0.0195,0.0231 0,0.006 -0.004,0.0109 -0.007,0.0109 -0.0138,0 -0.16658,0.16943 -0.16658,0.18538 0,0.003 -0.008,0.0137 -0.0174,0.0239 -0.0102,0.0109 -0.0225,0.0268 -0.0275,0.0369 -0.0268,0.0471 -0.0391,0.0652 -0.0471,0.0652 -0.0109,0 -0.0449,0.0442 -0.0739,0.0956 -0.013,0.0225 -0.0275,0.0427 -0.0326,0.0442 -0.0109,0.004 -0.0587,0.0644 -0.1651,0.20636 -0.0348,0.0471 -0.0695,0.0913 -0.0775,0.0992 -0.007,0.008 -0.0217,0.0268 -0.0319,0.042 -0.0102,0.0152 -0.0268,0.034 -0.0377,0.042 -0.0101,0.008 -0.0181,0.0188 -0.0181,0.0239 0,0.006 -0.0116,0.0225 -0.0254,0.0377 -0.0138,0.0159 -0.0355,0.0406 -0.0485,0.0558 -0.0499,0.0572 -0.26428,0.27301 -0.27154,0.27301 -0.004,0 -0.009,0.006 -0.0116,0.0145 -0.003,0.0102 0,0.0145 0.009,0.0145 0.0138,0 0.071,-0.0174 0.10574,-0.0326 0.0391,-0.0166 0.071,-0.0239 0.13758,-0.0326 0.1202,-0.0159 0.26938,0.0181 0.3186,0.0724 0.007,0.009 0.0348,0.0297 0.0594,0.0478 0.0282,0.0203 0.0471,0.0391 0.05,0.0507 0.003,0.0102 0.0167,0.0326 0.0312,0.05 0.0753,0.0905 0.10065,0.1376 0.15568,0.28603 0.0188,0.05 0.0449,0.11442 0.0587,0.14338 0.0137,0.029 0.0275,0.0616 0.0297,0.0724 0.003,0.0109 0.008,0.0232 0.0116,0.0282 0.009,0.0109 0.0268,0.1644 0.0275,0.22812 0,0.071 -0.0246,0.18175 -0.0557,0.25198 -0.0101,0.0217 -0.0297,0.0724 -0.0434,0.11224 -0.0145,0.0398 -0.0282,0.0753 -0.0311,0.0796 -0.003,0.004 -0.008,0.021 -0.0109,0.0377 -0.003,0.0174 -0.008,0.0326 -0.0116,0.0355 -0.004,0.002 -0.007,0.0116 -0.007,0.021 0,0.009 -0.003,0.0246 -0.007,0.034 -0.004,0.009 -0.0123,0.0377 -0.0188,0.0637 -0.0254,0.0956 -0.1144,0.29544 -0.1796,0.40405 -0.0159,0.0261 -0.0297,0.0587 -0.0319,0.0731 -0.003,0.0217 -7.5e-4,0.0275 0.013,0.0333 0.009,0.004 0.0239,0.0174 0.0319,0.0304 0.0449,0.0717 0.0536,0.0884 0.0608,0.11516 0.004,0.0166 0.0123,0.034 0.0181,0.0384 0.0181,0.0152 0.0282,0.071 0.0246,0.1383 -0.004,0.0558 -0.007,0.0674 -0.0232,0.0869 -0.0101,0.0123 -0.0188,0.0268 -0.0188,0.0311 0,0.0116 -0.1072,0.11224 -0.126,0.11804 -0.008,0.003 -0.0196,0.0109 -0.0246,0.0181 -0.005,0.008 -0.013,0.0138 -0.0174,0.0138 -0.009,0 -0.097,0.0376 -0.1325,0.0564 -0.0123,0.007 -0.0319,0.0224 -0.0442,0.0355 -0.0131,0.0137 -0.0297,0.0239 -0.0399,0.0239 -0.0137,0 -0.0217,0.008 -0.0369,0.0384 -0.0109,0.0203 -0.0246,0.0536 -0.0311,0.0738 -0.007,0.0196 -0.0174,0.042 -0.0232,0.0493 -0.007,0.008 -0.009,0.0152 -0.005,0.0195 0.006,0.006 0.0651,0.0174 0.13683,0.0261 0.0159,0.002 0.0355,0.007 0.0435,0.0102 0.0203,0.008 0.10497,0.0362 0.1267,0.0413 0.0102,0.002 0.021,0.009 0.0254,0.013 0.004,0.005 0.0239,0.013 0.0449,0.0181 0.021,0.004 0.0412,0.013 0.0464,0.0188 0.004,0.006 0.0159,0.0101 0.0253,0.0101 0.0101,0 0.0174,0.004 0.0174,0.0102 0,0.006 0.008,0.0123 0.0181,0.0145 0.0319,0.008 0.16148,0.10065 0.1622,0.11588 7.4e-4,0.004 0.0116,0.0195 0.0253,0.0362 0.0131,0.0167 0.0283,0.0427 0.034,0.0587 0.005,0.0159 0.0138,0.034 0.0196,0.0413 0.0196,0.0239 0.004,0.23604 -0.021,0.28093 -0.003,0.006 -0.0145,0.0268 -0.0253,0.0471 -0.0109,0.0196 -0.0268,0.0456 -0.0362,0.0565 -0.009,0.0116 -0.0174,0.0232 -0.0174,0.0261 0,0.0145 -0.24838,0.25418 -0.26358,0.25418 -0.006,0 -0.0196,0.008 -0.0312,0.0174 -0.0253,0.021 -0.0992,0.0551 -0.12022,0.0551 -0.008,0 -0.0217,0.006 -0.0297,0.013 -0.009,0.008 -0.0514,0.0261 -0.0949,0.0406 -0.0442,0.0152 -0.0847,0.0311 -0.0905,0.0362 -0.006,0.006 -0.034,0.0167 -0.0615,0.0246 -0.0282,0.009 -0.0768,0.0311 -0.10787,0.0492 -0.0311,0.0188 -0.0703,0.0369 -0.0869,0.0398 -0.0166,0.003 -0.0478,0.0109 -0.0695,0.0174 -0.0507,0.0152 -0.3896,0.0181 -0.48518,0.004 -0.034,-0.005 -0.0927,-0.0116 -0.13107,-0.0145 -0.0384,-0.004 -0.0738,-0.008 -0.0782,-0.0109 -0.009,-0.006 -0.20346,-0.0254 -0.29038,-0.029 -0.0297,-10e-4 -0.0688,-0.007 -0.0869,-0.0123 -0.0181,-0.005 -0.0456,-0.0101 -0.0616,-0.0109 -0.0927,-0.004 -0.1926,-0.0195 -0.24909,-0.0391 -0.11297,-0.0384 -0.22085,-0.0775 -0.24911,-0.0898 -0.0319,-0.0138 -0.10498,-0.0239 -0.21869,-0.0297 -0.0442,-0.002 -0.10935,-0.008 -0.14481,-0.0138 -0.0362,-0.006 -0.0912,-0.0145 -0.12312,-0.0188 -0.0318,-0.004 -0.076,-0.0123 -0.0977,-0.0181 -0.0217,-0.005 -0.0659,-0.0145 -0.0978,-0.0217 -0.0615,-0.0138 -0.0999,-0.0232 -0.18104,-0.0456 -0.0282,-0.008 -0.0768,-0.0203 -0.10861,-0.0268 -0.0319,-0.007 -0.0717,-0.0152 -0.0876,-0.0188 -0.0167,-0.004 -0.068,-0.009 -0.11441,-0.0138 -0.10428,-0.009 -0.21142,-0.0239 -0.30994,-0.0427 -0.0413,-0.008 -0.10571,-0.0166 -0.14338,-0.0188 -0.0376,-0.003 -0.0789,-0.008 -0.0905,-0.0123 -0.0224,-0.008 -0.0261,-0.007 -0.20276,0.0188 -0.0992,0.0145 -0.16001,0.0159 -0.30411,0.006 -0.16946,-0.0116 -0.42725,-0.0254 -0.4707,-0.0254 -0.0203,0 -0.10788,-0.003 -0.1955,-0.007 -0.1593,-0.007 -0.24983,-0.0181 -0.46343,-0.0601 -0.0478,-0.009 -0.13615,-0.0239 -0.19553,-0.0326 -0.0891,-0.0123 -0.36857,-0.0738 -0.45617,-0.10065 -0.0804,-0.0239 -0.2035,-0.12167 -0.26,-0.20639 -0.0145,-0.0217 -0.0297,-0.042 -0.034,-0.0442 -0.004,-0.003 -0.0543,-0.0637 -0.11224,-0.13544 -0.0854,-0.10644 -0.10428,-0.13467 -0.10428,-0.1535 0,-0.013 -0.003,-0.0261 -0.006,-0.0297 -0.003,-0.004 -0.009,-0.0203 -0.0138,-0.0362 -0.004,-0.0159 -0.0138,-0.0543 -0.0217,-0.0847 -0.009,-0.0304 -0.0188,-0.0891 -0.0232,-0.13034 -0.0159,-0.14917 -0.034,-0.20713 -0.0717,-0.22882 -0.0123,-0.007 -0.0348,-0.0319 -0.0507,-0.0565 -0.029,-0.0442 -0.029,-0.0442 -0.0369,-0.14485 -0.0217,-0.29181 -0.0283,-0.31935 -0.0891,-0.38305 -0.0152,-0.0159 -0.0333,-0.0406 -0.0391,-0.0543 -0.006,-0.0137 -0.0188,-0.0348 -0.029,-0.0463 -0.0391,-0.0464 -0.0456,-0.0702 -0.0456,-0.16147 0,-0.0818 0.0101,-0.13471 0.0268,-0.1463 0.0203,-0.013 0.0152,-0.0297 -0.0145,-0.0471 -0.0384,-0.0224 -0.0767,-0.063 -0.10138,-0.10718 -0.0181,-0.0304 -0.0195,-0.0405 -0.0195,-0.11004 0,-0.042 0.003,-0.0775 0.007,-0.0797 0.003,-0.002 0.008,-0.0225 0.0101,-0.0449 0.002,-0.0224 0.008,-0.0449 0.0116,-0.0485 0.004,-0.004 0.008,-0.0159 0.008,-0.0261 0,-0.0108 0.008,-0.0362 0.0181,-0.0572 0.0101,-0.0217 0.0181,-0.0442 0.0181,-0.0507 0,-0.007 0.005,-0.0217 0.0109,-0.0333 0.006,-0.0109 0.0109,-0.0239 0.0109,-0.029 0,-0.004 0.0167,-0.0355 0.0369,-0.0695 0.0551,-0.0905 0.0572,-0.0956 0.0681,-0.1571 0.005,-0.0311 0.0152,-0.0826 0.0217,-0.11445 0.007,-0.0319 0.0115,-0.0832 0.0109,-0.1144 -7.3e-4,-0.0413 0.002,-0.0615 0.0101,-0.0739 0.007,-0.0109 0.013,-0.0413 0.0159,-0.0738 0.004,-0.0659 0.029,-0.22013 0.0406,-0.252 0.004,-0.0123 0.0145,-0.0579 0.0239,-0.1021 0.009,-0.0442 0.0217,-0.0905 0.0282,-0.10285 0.007,-0.0123 0.0116,-0.0319 0.0116,-0.0434 0,-0.0116 0.006,-0.0398 0.0145,-0.0637 0.0159,-0.0485 0.0188,-0.0898 0.006,-0.10284 -0.008,-0.008 -0.007,-0.0239 0.0159,-0.17883 0.004,-0.0239 0.009,-0.0645 0.0108,-0.0905 0.002,-0.0261 0.007,-0.0702 0.0116,-0.0978 0.004,-0.0282 0.0108,-0.0738 0.0144,-0.10138 0.009,-0.0587 0.0261,-0.1441 0.0355,-0.17015 0.003,-0.0101 0.0116,-0.0442 0.0181,-0.076 0.007,-0.0319 0.0167,-0.071 0.0217,-0.0869 0.005,-0.0159 0.0152,-0.05 0.0224,-0.076 0.007,-0.0261 0.0152,-0.05 0.0188,-0.0536 0.003,-0.004 0.006,-0.0145 0.006,-0.0239 0,-0.009 0.003,-0.0231 0.007,-0.0326 0.003,-0.009 0.0116,-0.0348 0.0174,-0.0565 0.021,-0.0717 0.097,-0.29764 0.11298,-0.33673 0.004,-0.008 0.0116,-0.029 0.0188,-0.0471 0.006,-0.0181 0.0202,-0.0492 0.0297,-0.0702 0.009,-0.0203 0.0174,-0.0406 0.0174,-0.0449 0,-0.007 0.0246,-0.0623 0.0616,-0.14194 0.006,-0.0123 0.0203,-0.0463 0.0319,-0.076 0.0116,-0.0297 0.0304,-0.0753 0.042,-0.10137 0.0116,-0.0261 0.0254,-0.0587 0.0311,-0.0724 0.005,-0.0138 0.0123,-0.0282 0.016,-0.0326 0.003,-0.004 0.006,-0.0145 0.006,-0.0246 0,-0.0304 0.0159,-0.0667 0.0637,-0.14483 0.0254,-0.0413 0.0674,-0.1188 0.0927,-0.17234 0.0261,-0.0536 0.05,-0.10138 0.0543,-0.10576 0.004,-0.005 0.0181,-0.026 0.0304,-0.0478 0.013,-0.0217 0.0297,-0.0492 0.0377,-0.0623 0.008,-0.0123 0.021,-0.0333 0.029,-0.0464 0.008,-0.0123 0.0362,-0.0536 0.063,-0.0912 0.0275,-0.0377 0.0492,-0.0702 0.0492,-0.0731 0,-0.002 0.009,-0.0159 0.0217,-0.0297 0.0116,-0.013 0.0217,-0.029 0.0217,-0.0347 0,-0.006 0.007,-0.0145 0.0152,-0.0203 0.008,-0.006 0.0246,-0.0246 0.0376,-0.042 0.0123,-0.0174 0.0384,-0.05 0.0572,-0.0724 0.0188,-0.0225 0.0348,-0.0435 0.0348,-0.0464 0,-0.005 0.0463,-0.0623 0.0789,-0.0971 0.11588,-0.12306 0.13614,-0.1412 0.2426,-0.20925 0.0203,-0.0123 0.0391,-0.0232 0.0427,-0.0232 0.004,0 0.0159,-0.008 0.0283,-0.0181 0.0116,-0.0102 0.0268,-0.0181 0.034,-0.0181 0.007,0 0.0152,-0.003 0.0195,-0.007 0.004,-0.004 0.0355,-0.0167 0.0717,-0.029 0.0355,-0.0116 0.0746,-0.0246 0.0869,-0.029 0.055,-0.0181 0.10645,-0.0253 0.12091,-0.0159 0.0102,0.007 0.0203,0.007 0.037,10e-4 0.0384,-0.0123 0.15567,-0.0224 0.17523,-0.0152 0.0152,0.006 0.021,0.002 0.0543,-0.0362 0.0456,-0.0529 0.12238,-0.10138 0.20348,-0.13033 0.05,-0.0174 0.0724,-0.0217 0.12602,-0.0217 h 0.0651 l 0.0297,-0.0456 c 0.0159,-0.0246 0.034,-0.0565 0.0391,-0.0703 0.005,-0.0138 0.0145,-0.0319 0.0196,-0.0398 0.0174,-0.0268 0.0116,-0.0601 -0.0159,-0.0876 -0.0138,-0.0138 -0.0253,-0.0312 -0.0253,-0.0384 0,-0.007 -0.007,-0.0391 -0.0145,-0.0703 -0.008,-0.0319 -0.0145,-0.0673 -0.0145,-0.0804 0,-0.0123 -0.009,-0.0435 -0.0188,-0.0688 -0.0297,-0.0717 -0.0297,-0.0717 -0.0442,-0.11952 -0.007,-0.0253 -0.0152,-0.0456 -0.0188,-0.0456 -0.003,0 -0.0138,-0.0188 -0.0239,-0.042 -0.0101,-0.0224 -0.0232,-0.05 -0.029,-0.0608 -0.006,-0.0101 -0.0101,-0.0261 -0.0101,-0.0347 0,-0.009 -0.004,-0.0224 -0.009,-0.0311 -0.007,-0.0145 -0.0225,-0.071 -0.0435,-0.16726 -0.006,-0.0239 -0.0152,-0.042 -0.0297,-0.0551 -0.0188,-0.0166 -0.0225,-0.0261 -0.0283,-0.0804 -0.004,-0.0333 -0.007,-0.0724 -0.007,-0.0862 0,-0.0138 -0.007,-0.0934 -0.0145,-0.1767 -0.0181,-0.18536 -0.0152,-0.2889 0.0116,-0.4207 0.0181,-0.0912 0.021,-0.0992 0.10717,-0.26866 0.0797,-0.15714 0.0912,-0.17596 0.11585,-0.19044 0.0152,-0.009 0.0275,-0.0196 0.0275,-0.0254 0,-0.0115 0.0253,-0.0333 0.0579,-0.05 0.0138,-0.007 0.0413,-0.0319 0.0608,-0.0558 0.0195,-0.0239 0.0427,-0.0456 0.0507,-0.0478 0.0232,-0.007 0.0652,-0.0427 0.0847,-0.0717 0.0196,-0.0297 0.0768,-0.0645 0.1622,-0.0978 0.0319,-0.0123 0.063,-0.0275 0.0688,-0.0326 0.006,-0.005 0.0304,-0.0152 0.0543,-0.0225 0.0572,-0.0167 0.29183,-0.0232 0.3063,-0.009 z m 3.34546,4.2564 c -0.0616,0.0478 -0.13687,0.0898 -0.1738,0.0978 -0.013,0.003 -0.0406,0.0174 -0.0601,0.0326 -0.0471,0.0355 -0.12021,0.0797 -0.13324,0.0797 -0.0145,0 -0.0782,0.0594 -0.11297,0.10501 -0.0116,0.0159 -0.0261,0.0333 -0.0326,0.0398 -0.0246,0.0246 -0.0854,0.12528 -0.13393,0.22086 -0.0283,0.0557 -0.0565,0.10934 -0.063,0.11947 -0.0738,0.11585 -0.0941,0.14484 -0.0999,0.14484 -0.004,0 -0.0116,0.0108 -0.0174,0.0239 -0.009,0.0239 -0.0753,0.11514 -0.0855,0.1195 -0.003,0.001 -0.009,0.013 -0.013,0.0253 -0.004,0.013 -0.0181,0.0304 -0.0319,0.0391 -0.0152,0.0102 -0.0268,0.0239 -0.0297,0.0369 -0.002,0.0123 -0.0159,0.0319 -0.0297,0.0442 -0.0138,0.0123 -0.0326,0.0355 -0.0427,0.0514 -0.0101,0.0159 -0.0217,0.029 -0.0254,0.029 -0.004,0 -0.0123,0.0109 -0.0188,0.0232 -0.007,0.013 -0.0348,0.0485 -0.0623,0.0782 -0.0275,0.0297 -0.0514,0.0616 -0.0536,0.0702 -0.003,0.009 -0.009,0.0167 -0.0152,0.0167 -0.0283,0 -0.0521,0.0659 -0.0275,0.0753 0.006,0.002 0.0109,0.0101 0.0109,0.0174 0,0.008 -0.005,0.0181 -0.0109,0.0232 -0.021,0.0174 -0.0123,0.0275 0.0232,0.0268 0.0499,-0.001 0.11805,0.0275 0.11805,0.0507 0,0.013 0.004,0.0166 0.0188,0.0166 0.0275,0 0.084,0.0283 0.0876,0.0442 0.004,0.0152 0.004,0.0152 0.0601,0.0138 0.0297,-7.3e-4 0.0456,-0.006 0.063,-0.0188 0.0123,-0.009 0.0246,-0.0174 0.0268,-0.0174 0.009,0 0.0695,-0.0449 0.0695,-0.0514 0,-0.004 0.006,-0.007 0.0138,-0.007 0.007,0 0.0174,-0.005 0.0224,-0.0109 0.005,-0.006 0.013,-0.0109 0.0173,-0.0109 0.004,0 0.0225,-0.0116 0.0398,-0.0254 0.0174,-0.0137 0.0355,-0.0253 0.0398,-0.0253 0.004,0 0.0246,-0.0138 0.0442,-0.0297 0.0203,-0.0166 0.0449,-0.0333 0.0557,-0.0369 0.0109,-0.004 0.021,-0.0138 0.0232,-0.0246 0.003,-0.0109 0.0101,-0.0174 0.0181,-0.0174 0.007,0 0.0174,-0.005 0.0225,-0.0109 0.005,-0.006 0.0152,-0.0109 0.0224,-0.0109 0.007,0 0.0203,-0.009 0.029,-0.021 0.009,-0.0116 0.0231,-0.0232 0.0326,-0.0254 0.0159,-0.004 0.16948,-0.15276 0.2129,-0.20635 0.0102,-0.0123 0.037,-0.0427 0.0601,-0.0673 0.0232,-0.0253 0.0579,-0.0637 0.076,-0.0855 0.0181,-0.0217 0.0565,-0.0644 0.0847,-0.0941 0.0442,-0.0464 0.0659,-0.0739 0.12384,-0.1586 0.004,-0.007 0.0203,-0.0311 0.0355,-0.055 0.0152,-0.0239 0.0354,-0.0514 0.0442,-0.0615 0.0435,-0.0485 0.0702,-0.13614 0.0485,-0.15786 -0.005,-0.005 -0.009,-0.0166 -0.009,-0.0253 0,-0.0203 0.0355,-0.17886 0.0435,-0.19336 0.004,-0.006 0.009,-0.0275 0.013,-0.0471 0.004,-0.0203 0.0123,-0.055 0.0188,-0.0782 0.0174,-0.063 0.0159,-0.068 -0.0196,-0.0768 -0.0369,-0.009 -0.10644,-0.0261 -0.17523,-0.0442 -0.0775,-0.0195 -0.0804,-0.0188 -0.14264,0.029 z m -2.38745,2.36353 c -0.0768,0.084 -0.12454,0.12384 -0.17308,0.1434 -0.0492,0.0195 -0.1122,0.0268 -0.1209,0.013 -0.002,-0.004 -0.0167,-0.007 -0.0312,-0.007 -0.0152,0 -0.034,-0.004 -0.042,-0.0101 -0.0297,-0.021 -0.0753,-0.013 -0.0753,0.0138 0,0.005 -0.008,0.0268 -0.0174,0.0478 -0.009,0.0224 -0.0188,0.0623 -0.0217,0.092 -0.002,0.029 -0.0109,0.0666 -0.0181,0.0833 -0.008,0.0167 -0.0159,0.0435 -0.0181,0.0594 -0.002,0.0159 -0.0101,0.0485 -0.0188,0.0724 -0.008,0.0239 -0.0145,0.0536 -0.0145,0.0651 0,0.0304 -0.0405,0.14412 -0.0637,0.1803 -0.0109,0.0167 -0.0326,0.0442 -0.0485,0.0608 -0.0159,0.0174 -0.0319,0.0369 -0.0355,0.0434 -0.004,0.007 -0.0145,0.021 -0.0246,0.0319 -0.0101,0.0109 -0.0167,0.0217 -0.0145,0.0239 0.008,0.009 0.084,0.004 0.10862,-0.007 0.0152,-0.007 0.0384,-0.0116 0.0521,-0.0116 0.0138,0 0.055,-0.0116 0.0912,-0.0253 0.0362,-0.0138 0.0695,-0.0254 0.0731,-0.0254 0.004,0 0.021,-0.006 0.0377,-0.0138 0.0166,-0.008 0.0572,-0.021 0.0891,-0.029 0.0818,-0.021 0.12961,-0.0405 0.1803,-0.0739 0.11803,-0.0767 0.32803,-0.147 0.34759,-0.11515 0.006,0.009 0.0449,0.009 0.05,7.4e-4 0.005,-0.007 0.0796,-0.034 0.11294,-0.0398 0.0138,-0.002 0.0348,-0.009 0.0464,-0.0152 0.0109,-0.006 0.0282,-0.0109 0.0369,-0.0109 0.009,0 0.026,-0.005 0.0377,-0.0109 0.0109,-0.006 0.0384,-0.0188 0.0601,-0.029 0.0521,-0.0246 0.0673,-0.034 0.0818,-0.0478 0.0101,-0.0109 0.008,-0.0123 -0.0319,-0.0159 -0.0333,-0.003 -0.05,-0.009 -0.0768,-0.0283 -0.0195,-0.0138 -0.0384,-0.0326 -0.0427,-0.0412 -0.008,-0.0152 -0.0789,-0.0572 -0.11804,-0.0695 -0.0159,-0.005 -0.0804,-0.0456 -0.0876,-0.055 -0.002,-0.002 -0.0109,-0.007 -0.0203,-0.009 -0.009,-0.003 -0.0159,-0.009 -0.0159,-0.0123 0,-0.004 -0.004,-0.007 -0.009,-0.007 -0.0145,-7.4e-4 -0.0456,-0.0311 -0.055,-0.055 -0.007,-0.0181 -0.007,-0.0297 0,-0.0543 0.005,-0.0174 0.0123,-0.0362 0.0159,-0.0413 0.008,-0.0109 -0.0131,-0.0376 -0.029,-0.0376 -0.0152,0 -0.0666,-0.0377 -0.0709,-0.0514 -0.002,-0.007 -0.0123,-0.0203 -0.0224,-0.0304 l -0.0181,-0.0188 -0.0261,0.0152 c -0.0138,0.009 -0.0406,0.0319 -0.0594,0.0521 z"
         id="path2"
         inkscape:connector-curvature="0" />
    </g>
    <g
       style="fill:#000000;fill-opacity:1;stroke-linejoin:miter"
       id="g8">
      <path
         d="m 299.46948,492.80197 c -0.005,0.002 -0.0116,0.001 -0.0138,-7.3e-4 -0.003,-0.002 0.001,-0.004 0.009,-0.004 0.008,0 0.0101,0.002 0.004,0.004 z"
         id="path6"
         inkscape:connector-curvature="0" />
    </g>
  </g>
</svg>
