<?xml version='1.0' encoding='utf-8'?>
<svg xmlns="http://www.w3.org/2000/svg" version="1.1" width="600px" height="976px" viewBox="0 0 600 976"> <g id="layer1"> <g style="fill:rgb(0,0,0); fill-opacity:1.0; stroke-linejoin: miter"> </g> <g style="fill:rgb(0,0,0); fill-opacity:1.0; stroke-linejoin: miter"> <path d="M400.9641,351.3017C402.702,351.3017,403.86276,351.32626,403.91202,351.36935C404.03262,351.43866,403.98132,351.82864,403.89154,352.22122C403.6632,352.855,403.16544,352.92688,397.8387,353.0503C394.24448,353.13687,391.69333,353.1876,389.88632,353.1876C386.22128,353.1876,385.6177,352.97894,385.5816,352.43762C385.52255,351.55237,386.2923,351.501,396.8739,351.3363C398.3884,351.31262,399.8047,351.3017,400.9641,351.3017 Z M409.1793,342.05954C407.57236,342.05954,404.89648,342.09314,401.90515,342.1478C397.11725,342.23523,391.20807,342.3202,388.73462,342.33054L384.2546,342.39746L383.9442,343.53928C383.0027,346.81082,377.75885,364.4025,377.68958,364.52307C377.67667,364.53784,377.647,364.54495,377.60333,364.54495C377.404,364.54495,376.91275,364.3964,376.38867,364.146C375.0613,363.56635,373.5316,363.26535,372.14655,363.26535C371.28787,363.26535,370.4848,363.381,369.82004,363.6177C367.70325,364.33884,366.92328,365.396,367.0876,367.27933C367.40057,370.3151,370.8965,372.68243,374.98904,372.68243C375.19263,372.68243,375.39767,372.67657,375.60388,372.66464C379.3372,372.4156,379.69385,371.96658,381.96426,364.2766C383.04178,360.72546,384.07056,357.6027,384.2065,357.323C384.45026,356.92017,386.33615,356.79434,393.40253,356.67093C397.10645,356.599,400.3053,356.56085,401.68286,356.56085C402.12894,356.56085,402.38406,356.56485,402.4035,356.573C402.44458,356.60892,402.04437,358.1433,401.50818,359.9574C400.97205,361.77148,400.33835,363.86267,400.1126,364.53494C399.812,365.62894,399.6658,366.0782,399.1676,366.0782C398.84088,366.0782,398.36276,365.88498,397.5904,365.5537C396.50613,365.0815,395.37033,364.85895,394.28674,364.85895C391.90848,364.85895,389.78162,365.93103,389.00256,367.78897C387.73035,370.89734,392.7744,374.41397,397.21527,374.41397C398.11185,374.41397,398.98383,374.27063,399.7743,373.95166C401.6191,373.21002,402.0681,372.4069,403.4483,367.5984C405.49042,360.5422,406.05997,358.6486,406.88092,355.8877C409.98257,345.59085,410.9215,342.2808,410.75476,342.09863C410.72397,342.07166,410.1444,342.05954,409.1793,342.05954 Z M406.17575,387.44223C406.3619,387.44223,406.49283,387.73795,406.518,388.11487C406.54883,388.57672,404.51672,390.5679,400.89645,393.6702C396.99167,397.01892,395.63223,398.09146,395.0977,398.09146C394.97647,398.09146,394.89767,398.03632,394.84122,397.94003C394.53586,397.41916,395.51086,396.38766,400.15228,392.3668C403.2979,389.68274,406.0099,387.45288,406.16388,387.44263C406.16785,387.44235,406.1718,387.44223,406.17575,387.44223 Z M433.29483,405.9956C433.3148,405.9956,433.33063,405.998,433.34222,406.00284C433.50128,406.0695,433.63477,406.33124,433.64758,406.52368C433.66046,406.7161,433.29868,407.08817,432.8496,407.3114C427.94894,409.7646,422.85583,412.2306,422.6634,412.24344C422.66144,412.24356,422.65952,412.24362,422.65756,412.24362C422.54355,412.24362,422.4168,412.02335,422.3991,411.7585C422.36642,411.26855,432.35632,405.9956,433.29483,405.9956 Z M405.50513,377.8225C405.49796,377.8225,405.49075,377.82278,405.4835,377.82327C405.36804,377.83096,401.63486,380.97943,397.2115,384.79248C392.78815,388.60556,389.02417,391.87204,388.8805,392.03625C388.7368,392.2005,389.6016,394.73294,390.8359,397.58868C395.04178,407.3208,396.0169,409.76855,395.8476,410.1278C395.74493,410.3279,395.07013,410.64355,394.38507,410.80524C393.6615,410.9695,392.4402,411.7855,391.60376,412.5758C389.24585,414.89804,389.36395,417.24835,391.91193,418.3541C392.5242,418.6186,393.2039,418.74164,393.90915,418.74164C396.59683,418.74164,399.65588,416.95465,400.7716,414.39975C401.31042,413.204,401.41565,413.62222,398.06427,405.68878C397.28418,403.8465,396.62982,402.1505,396.60928,401.84262C396.5759,401.3423,407.1648,392.01492,407.81906,391.97128C407.81992,391.97122,407.82077,391.9712,407.82162,391.9712C408.2544,391.9712,411.22375,398.97433,410.98566,399.45316C410.88043,399.6148,410.24414,399.92786,409.6001,400.1255C406.71356,400.89792,404.46857,403.7538,405.14862,405.8347C405.34106,406.40173,406.04932,407.16635,406.7703,407.5435C407.40286,407.88785,408.1414,408.04218,408.9201,408.04218C412.19095,408.04218,416.17072,405.31952,415.98407,402.52173C415.94556,401.9444,414.39816,397.87244,412.51978,393.47467C410.64136,389.07684,408.49094,384.0787,407.7545,382.31085C406.01312,378.27493,405.80075,377.8225,405.50513,377.8225 Z M434.7105,398.29654C434.7017,398.29654,434.6928,398.29684,434.68384,398.29745C434.33997,398.35907,432.72357,399.04678,431.07632,399.85254C429.42908,400.65833,426.13715,402.3083,423.7766,403.43222C421.4186,404.5947,419.33008,405.73914,419.1479,405.90594C418.82465,406.27542,419.92834,415.28665,420.85995,419.97958L421.1628,421.6217L419.77728,421.7141C418.31473,421.81168,416.13892,422.80737,415.50006,423.66183C414.65338,424.87805,414.81506,426.14304,415.88507,427.11542C416.73828,427.84204,417.8463,428.21527,419.0299,428.21527C420.00702,428.21527,421.0356,427.9609,422.0149,427.44104C424.7039,426.02454,424.78082,425.43954,423.2871,416.95688L422.92267,414.97095L424.34412,414.25757C428.69455,412.06186,433.81784,409.6268,434.0414,409.6268C434.04462,409.6268,434.04684,409.6273,434.048,409.62833C434.0916,409.70273,434.38934,411.26788,434.6691,413.14352C435.04834,415.73337,435.08392,416.386,434.72525,416.386C434.68097,416.386,434.63068,416.37604,434.57428,416.35855C434.50775,416.33853,434.41098,416.32913,434.29117,416.32913C433.84265,416.32913,433.07108,416.4609,432.3523,416.66144C429.5863,417.5031,428.3548,419.32495,429.40173,421.11075C430.05557,422.18796,431.54132,422.765,433.1034,422.765C434.34296,422.765,435.6306,422.4016,436.58875,421.6364C438.57465,420.1122,438.59772,419.87872,437.7199,414.2544C437.26312,411.46274,436.52136,406.71854,436.0876,403.69345C435.44736,399.2182,435.19333,398.29654,434.7105,398.29654 Z M492.48285,459.43695C492.48422,459.43695,492.48557,459.43698,492.48694,459.437C492.6101,459.44067,492.74823,459.6112,492.97583,459.9729C493.36127,460.66284,493.3557,460.77435,492.89624,461.5905C492.6368,462.01797,492.47263,462.2215,492.33948,462.2215C492.33817,462.2215,492.33688,462.22147,492.33557,462.22144C492.2674,462.21942,492.2072,462.16364,492.14648,462.0569C492.018,461.8269,491.9339,461.26367,491.9558,460.81744C491.97906,460.34326,492.11664,459.8189,492.2671,459.6026C492.34412,459.49384,492.4111,459.43695,492.48285,459.43695 Z M314.65726,413.05145L325.94553,418.91052L325.9423,418.91052Q325.56937,420.57007,325.90012,422.36768Q326.65497,425.7844,329.47363,427.69452Q331.65463,429.0852,334.07272,429.0852Q334.89505,429.0852,335.7448,428.92438Q336.87366,428.6748,337.83926,428.19608L337.84262,428.19608L362.40826,440.5033L362.40466,440.5033C357.81732,449.8164,353.77673,454.8704,346.22656,460.83594C344.08203,462.55157,340.03125,465.7922,337.21954,468.03204C334.45544,470.27188,330.26172,473.56015,327.92657,475.32346L323.6375,478.51642L322.77966,476.2289C322.3031,474.98984,322.01718,473.46484,322.16016,472.89297C322.49374,471.51096,321.58826,469.6047,320.15857,468.69922C319.34845,468.17502,319.0625,467.5078,319.0625,466.26877C319.0625,464.98203,318.6336,464.12424,317.01328,462.36096C313.8203,458.83435,311.6281,455.1172,311.0086,452.2102C309.91248,447.01563,305.38513,442.29767,301.4297,442.25C300.52423,442.25,299.18982,441.9641,298.47498,441.58282C297.8078,441.20154,296.2828,440.7727,295.13904,440.58203C293.32813,440.29614,289.9922,438.72345,289.9922,438.1516C289.9922,438.0086,290.42108,436.57892,290.9453,434.95862C291.70782,432.6234,292.4703,431.3844,294.47186,429.43048C296.807,427.09534,297.23593,426.90466,300.04767,426.52344C303.8125,425.99927,309.29297,424.52185,311.19922,423.56873C313.96326,422.13904,314.43982,421.1859,314.53516,416.89685C314.53516,415.92844,314.58167,414.55075,314.6541,413.05145 Z M377.563,458.1976C377.60962,458.1976,377.64874,458.20325,377.6797,458.21484C378.0609,458.31018,379.34766,458.6438,380.53906,458.9297C384.16095,459.8352,384.35156,459.93048,384.35156,460.78833C384.35156,461.21716,383.92267,463.21875,383.39844,465.17267C382.8742,467.12656,382.4453,469.89063,382.4453,471.3203C382.4453,473.7508,382.20703,474.22736,379.68124,477.80157C376.20233,482.7578,366.4328,493.67108,363.3828,496.00626C360.85703,497.96014,358.33124,499.67578,352.89844,503.25C350.58118,504.79486,348.45322,505.7007,347.39856,505.7007C346.9566,505.7007,346.70313,505.54166,346.70313,505.20392C346.70313,504.96564,346.22656,504.58438,345.65466,504.4414C345.03516,504.2508,344.1297,503.72656,343.60547,503.25C343.08124,502.77344,342.0328,502.29688,341.27032,502.20157C340.1742,502.10626,339.88828,501.8203,339.7453,500.72424C339.65,499.6281,340.5078,498.2461,344.27264,493.5758C349.9914,486.42737,354.32813,480.13672,357.6164,474.08438C358.9984,471.5586,361.04767,468.6039,362.14374,467.55548C364.05,465.64923,369.8164,461.78906,370.76953,461.78906C371.05548,461.78906,372.5328,460.93127,374.10547,459.8828C375.5504,458.9195,377.0356,458.1976,377.563,458.1976 Z M310.91327,523.2656C311.15155,523.2656,311.67578,523.78986,312.10468,524.40936C312.48593,525.07654,313.29608,525.6961,313.8203,525.8867C314.63046,526.17267,314.77344,526.4586,314.4875,527.84064C314.10626,529.9375,314.58282,530.5094,318.82422,532.84454C320.73047,533.89294,322.63672,535.132,323.11328,535.65625C323.54218,536.1328,324.6859,536.8,325.5914,537.1336L327.25937,537.65784L325.925,538.5633C324.0499,539.79803,317.30325,541.91064,315.20352,541.91064C315.11526,541.91064,315.0352,541.9069,314.96405,541.89923C314.91574,541.89636,314.86487,541.89496,314.81155,541.89496C313.07794,541.89496,308.77737,543.37866,305.95703,544.9969C303.43124,546.47424,293.28046,549.8578,290.27814,550.28674L287.89532,550.57263L288.94373,549.1906C291.89844,545.3781,292.42267,544.1867,294.28125,536.84766C295.32968,532.65393,296.3781,529.0797,296.6164,528.84143C296.70926,528.7486,296.9324,528.70636,297.23505,528.70636C297.70898,528.70636,298.37793,528.8099,299.04688,528.9844C299.92084,529.2157,300.6839,529.3431,301.3996,529.3431C303.33765,529.3431,304.9285,528.4092,307.4344,526.07733C309.10236,524.55237,310.675,523.2656,310.91327,523.2656 Z M509.97687,446.19147C508.42502,446.19147,506.28296,447.17404,505.08752,448.463C504.14435,449.45105,503.77216,449.62848,502.08093,449.90875C501.38895,450.00732,500.8603,450.06195,500.32288,450.06195C500.24435,450.06195,500.16562,450.0608,500.08618,450.0584C499.4485,450.03937,498.7641,449.94305,497.75537,449.75208C496.70245,449.5504,496.06995,449.4425,495.59576,449.42834C495.5601,449.42728,495.52533,449.42676,495.49133,449.42676C495.05002,449.42676,494.7408,449.51614,494.31952,449.695C493.77463,449.90875,493.07806,450.0895,492.701,450.0895C492.69,450.0895,492.67926,450.08936,492.66882,450.08905C492.66272,450.08887,492.65674,450.08856,492.65082,450.08832C492.64264,450.0879,492.63446,450.08752,492.62622,450.08728C492.61328,450.08688,492.60025,450.0867,492.5872,450.0867C491.73148,450.0867,490.64047,450.91125,490.07,451.97437C489.72754,452.68427,489.63477,453.43463,489.67828,455.39362C489.76703,458.13782,490.1068,459.1889,490.88763,459.22717C491.30603,459.24786,491.43042,459.56152,491.56262,460.85394C491.74835,462.76416,491.7497,462.73627,491.00684,466.47394C490.15424,470.73724,490.15466,471.2964,491.1441,472.21173C491.7229,472.75714,492.5404,473.0489,493.46118,473.07635C493.50888,473.0778,493.5569,473.0785,493.6051,473.0785C494.38812,473.0785,495.23923,472.8912,496.07776,472.51007C499.62238,470.92303,506.69617,465.7913,508.0512,463.81705C508.4094,463.28674,508.58524,463.05313,508.72263,463.05313C508.72385,463.05313,508.72507,463.05316,508.72626,463.0532C508.81854,463.05594,508.89374,463.16476,508.99622,463.36032C509.17365,463.73245,509.17694,465.94113,508.96112,469.76056C508.66742,475.1697,508.5733,475.94785,507.57538,479.7568C506.1966,485.0567,504.09137,490.34888,501.58368,494.72662C495.92383,504.6526,489.87616,509.38745,476.89822,514.0615C470.92087,516.22784,465.9667,519.7585,460.2982,525.882C455.09903,531.5532,453.56754,534.2735,451.49213,541.8037C449.00793,550.8234,449.03754,561.02905,451.5428,570.3498C452.62976,574.401,454.43408,579.21436,455.91724,582.02704C456.58344,583.2619,457.0334,584.34644,456.91626,584.45245C456.8933,584.47327,456.65076,584.48334,456.23462,584.48334C455.74097,584.48334,455.00305,584.4692,454.09772,584.4422C452.84985,584.40497,451.28387,584.3433,449.6012,584.2607C443.38177,583.955,441.90784,583.79877,438.5606,583.07513C429.57193,581.09564,421.86716,576.88696,418.55142,572.1112C414.50403,566.29297,414.22705,557.1376,417.7192,544.6727C419.31653,538.90845,420.75528,535.233,423.9874,528.6263C426.5681,523.3296,427.80383,520.37103,427.85175,519.39484C427.8915,518.58606,427.1133,516.78656,426.41965,516.1095C426.12665,515.81555,425.47235,515.4759,424.9466,515.3662L424.00803,515.1244L424.71988,515.998C426.09604,517.57526,425.5159,519.1403,421.25192,525.6963C417.92358,530.8444,414.50583,537.24615,412.65518,541.90784C410.42468,547.4733,410.09375,548.5195,408.7617,554.57654C407.75732,559.0841,407.66043,559.918,407.63132,563.3553C407.61823,567.604,408.4253,572.2285,409.63376,574.9438C413.71182,584.1183,421.82275,590.304,434.93634,594.2474C440.63995,595.97473,448.55573,597.0662,456.57623,597.3053C457.68207,597.3383,458.78986,597.3551,459.8941,597.3551C460.83786,597.3551,461.779,597.34283,462.7141,597.318C463.44214,597.3014,464.04697,597.29254,464.5512,597.29254C464.86658,597.29254,465.1426,597.29596,465.38483,597.3032C466.40784,597.3337,466.8275,597.43097,467.06073,597.61554C467.30212,597.8231,468.40308,598.74365,469.5041,599.6644C475.11902,604.30164,479.59836,606.4507,488.05026,608.5437C489.87308,608.99664,492.5994,609.2704,500.1533,609.72565C503.4267,609.9251,506.7755,610.07385,510.1103,610.1733C513.5193,610.2749,516.9136,610.32495,520.19763,610.32495C529.9776,610.32495,538.7797,609.88104,544.0792,609.03284C551.9134,607.76843,552.4794,607.62854,554.998,606.43835C560.52045,603.8582,562.4164,601.68695,562.29456,597.90674C562.1984,594.74286,561.21045,592.0945,559.2284,589.76056C556.8221,586.9585,555.57477,586.1703,551.41974,584.8199C544.6494,582.6419,534.681,581.25745,519.76306,580.4683C516.6698,580.3059,513.70984,580.1827,510.88318,580.09845C507.81934,580.0071,504.91208,579.96155,502.1614,579.96155C493.74628,579.96155,486.79666,580.388,481.31296,581.2343C480.12552,581.41174,479.46378,581.50446,479.04355,581.50446C479.0173,581.50446,478.99203,581.5041,478.96762,581.50336C478.5482,581.49084,478.38596,581.3711,478.13083,581.1338C476.93192,579.92865,472.88553,573.5236,471.983,571.4105C469.37723,565.2717,468.20242,557.88934,468.87936,552.0797C469.2491,549.1065,470.32285,544.3227,471.09372,542.2918C471.7698,540.4799,475.4515,536.1039,479.0491,532.87C481.74234,530.4025,482.29147,530.0381,485.98093,528.3463C493.50507,524.8581,499.2912,520.893,503.6853,516.24457C510.90747,508.65997,515.81464,499.2561,519.2035,486.61853C520.53925,481.62408,521.0038,478.43198,521.2861,472.6867C521.66296,465.01718,520.9085,459.892,518.6813,454.58264C517.35657,451.38635,514.6961,448.06866,512.6245,446.98837C511.88934,446.5887,510.761,446.22574,510.14734,446.1956C510.12585,446.19455,510.10437,446.1937,510.08264,446.19302C510.0477,446.192,510.01245,446.19147,509.97687,446.19147 Z M287.38434,332.78442Q282.80673,332.78442,279.04456,334.80148L279.04175,334.80148Q267.93008,336.08273,249.688,348.51315Q234.31932,359.7304,231.59567,370.2897Q229.15488,380.5883,238.95023,391.75104Q248.95724,402.19565,259.07895,404.9495L259.07635,404.9495C259.15015,405.28772,259.20996,405.60257,259.2539,405.8883C259.44452,407.27032,259.87344,408.60474,260.2547,408.9383C261.20782,409.7008,261.06485,411.22583,259.82578,413.41797C258.77734,415.2766,257.6336,415.89612,255.06015,415.99146C253.29688,416.03906,249.77031,417.7547,247.95938,419.47034C246.50246,420.83618,244.43661,421.33212,240.55678,421.33212C240.37544,421.33212,240.19016,421.33105,240.00078,421.32892C239.0953,421.32892,236.8078,421.85315,234.85391,422.47266C228.6586,424.56958,225.17969,427.19067,219.79453,433.86255C211.78828,443.82263,205.73593,454.06873,201.06563,465.60156C193.77422,483.66327,193.25,485.04532,190.34297,496.33984C188.91328,501.77264,186.8164,515.78357,187.24532,516.92737C187.38828,517.3086,186.86406,520.21564,186.05391,523.40857C185.24374,526.60156,183.95703,533.22577,183.24219,538.1344C182.09843,545.71173,181.7172,547.3797,180.47812,549.5719C177.80937,554.3375,175.99844,561.48596,176.76094,564.4406C176.9039,565.1078,177.80937,566.39453,178.7625,567.3C180.43047,568.9203,180.43047,568.9203,179.8586,571.1125C179.04843,574.3055,179.57266,576.40234,182.05078,580.02423C184.33829,583.36017,185.14844,586.2672,185.14844,591.03284C185.14844,593.7969,185.625,595.03595,187.4836,597.0375C188.29375,597.8953,188.96094,598.7531,188.96094,598.9437C188.96094,600.13513,190.5336,608.28436,191.10547,610.14294C191.91562,612.76404,198.73047,621.58044,201.9711,624.20154C204.21094,625.96484,207.83281,627.15625,215.64844,628.58594C218.65079,629.15784,222.70157,629.9203,224.65546,630.3016C230.95029,631.515,248.9224,632.63794,258.57172,632.63794C261.04907,632.63794,262.9778,632.56396,264.01953,632.39844C265.28122,632.19104,266.50528,632.0839,267.88266,632.0839C270.30328,632.0839,273.19748,632.41473,277.60156,633.1133C279.8414,633.4469,282.93906,633.8758,284.51172,634.0664C286.08435,634.20935,290.89764,635.21014,295.23438,636.21094C299.5711,637.2594,305.57578,638.3078,308.57813,638.6414C315.0594,639.2609,316.15546,639.4992,321.4453,641.3578C324.3047,642.3586,327.49765,643.02576,332.16797,643.55C335.8375,643.9789,340.79376,644.5508,343.1289,644.8844C345.51172,645.21796,350.94452,645.5039,355.28125,645.5039C362.8109,645.5039,363.23984,645.45624,365.76563,644.21716C367.1953,643.55,371.05548,641.882,374.29608,640.54767C380.3961,638.0695,381.5875,637.3547,385.82892,633.4469C389.59375,629.96796,391.35703,626.72736,391.73828,622.6289C392.02423,619.53125,391.9289,619.15,390.59454,616.8625C389.64142,615.2422,388.307,613.86017,386.63904,612.76404C383.63672,610.7625,377.1078,608.1891,374.0578,607.76013C372.91406,607.6172,371.8656,607.33124,371.77032,607.1883C371.62732,606.9977,372.0086,605.90155,372.48517,604.7578C373.48593,602.5656,375.58282,600.85,379.20468,599.3727C380.20544,598.9437,382.06406,597.5617,383.39844,596.22736C385.6859,593.9398,385.78125,593.7492,385.78125,591.1758C385.78125,588.69763,384.44687,585.21875,382.34998,582.3117C381.92108,581.6922,382.30234,580.59607,384.25623,576.59296C385.59064,573.8766,387.16327,570.1117,387.6875,568.3008C388.25937,566.4422,389.59375,562.4867,390.68982,559.4844C392.54843,554.4328,392.6914,553.6703,392.59607,549.71484C392.54843,545.8547,392.31015,544.9492,390.4039,540.1359C387.06796,531.8914,385.0664,528.65076,381.53986,525.8867C379.48584,524.26666,376.65912,523.4193,373.75266,523.4193C371.87125,523.4193,369.9564,523.77435,368.1961,524.5047C367.27264,524.88495,366.63556,525.0949,366.29807,525.0949C365.4512,525.0949,366.49078,523.7729,369.6258,520.5016C373.39063,516.59375,379.20468,509.54065,384.97107,501.91565C385.6859,500.96252,386.73438,499.6281,387.21094,498.96094C387.73517,498.29376,389.40314,496.14923,390.9281,494.1953C394.2164,490.0016,397.02814,487.42813,400.69763,485.23596C402.175,484.33047,405.36798,481.51874,407.84607,478.99298C412.0875,474.6086,412.42108,474.1797,412.9453,471.51096C413.00314,471.20258,413.07068,470.86496,413.14484,470.5127L413.149,470.5127L418.3102,475.5778L420.4947,480.00266Q421.9365,487.8638,423.09055,490.46628Q424.30203,493.37216,425.88177,493.7894Q426.20065,493.89542,426.5486,493.89542Q430.85208,493.89542,439.60608,477.67868Q448.85654,459.39978,446.15207,455.18042Q445.28992,454.03644,443.36996,454.03644Q441.9201,454.03644,439.86703,454.6888Q435.78558,455.85574,425.26736,461.57755L417.53418,459.22852L417.53003,459.22852Q417.28146,458.09766,416.72748,456.99075Q416.3072,456.1022,415.77713,455.22296L415.77298,455.22296C415.7764,455.20102,415.77982,455.17902,415.7832,455.15698L415.78738,455.15698L415.5807,454.89676L415.57654,454.89676Q412.88327,450.60284,407.56262,446.53085Q402.90305,443.00397,398.66254,442.5405L398.65857,442.5405Q397.30423,440.10892,393.80167,436.50354L393.79773,436.50354Q393.80078,436.50217,393.80386,436.50076L393.79898,436.50076Q393.5369,436.23102,393.2628,435.9547L393.25885,435.9547Q394.7525,431.08295,391.12665,425.3592Q386.72638,418.54446,381.21985,418.4162L381.15936,418.4152Q381.11218,418.41476,381.06488,418.41476Q377.4724,418.41476,373.09396,420.8643Q368.26007,423.7086,366.34122,426.82153Q365.53168,428.17554,365.27698,429.84976Q365.18057,429.99283,364.9795,433.55206L342.3796,421.823L342.3762,421.823Q342.5482,420.49615,342.28604,419.08496Q341.5513,415.72028,338.73358,413.7841Q336.54596,412.38126,334.1159,412.38126Q333.30414,412.38126,332.4653,412.5378Q330.09244,413.0561,328.4376,414.58725L314.99588,407.61118L314.99274,407.61118C314.99905,407.52847,315.0054,407.4466,315.01172,407.3656C315.29767,402.83826,315.5836,401.59924,316.29843,400.97974C317.48984,399.8836,317.39453,398.02502,316.0125,395.97583C315.39294,395.0703,314.58282,393.35474,314.29688,392.16333C314.01093,391.01953,313.34375,389.35156,312.81952,388.49377C311.58044,386.34924,311.67578,385.58673,313.39142,383.2516C314.77344,381.34534,314.8211,381.15466,314.34454,378.8672C314.0586,377.53284,313.43906,375.6742,312.91486,374.67346C312.80276,374.44928,312.66956,374.15125,312.52335,373.8036L312.5202,373.8036Q314.51367,371.46893,315.55362,369.12228Q319.95416,358.4626,311.1223,346.32162Q301.11612,333.83777,288.11768,332.79745L288.0671,332.7955Q287.72348,332.78442,287.38434,332.78442 Z"/> </g> </g> </svg>