<?xml version="1.0" encoding="UTF-8" standalone="no"?>
<svg
   xmlns:dc="http://purl.org/dc/elements/1.1/"
   xmlns:cc="http://creativecommons.org/ns#"
   xmlns:rdf="http://www.w3.org/1999/02/22-rdf-syntax-ns#"
   xmlns:svg="http://www.w3.org/2000/svg"
   xmlns="http://www.w3.org/2000/svg"
   xmlns:sodipodi="http://sodipodi.sourceforge.net/DTD/sodipodi-0.dtd"
   xmlns:inkscape="http://www.inkscape.org/namespaces/inkscape"
   enable-background="new 0 0 595.28 841.89"
   viewBox="0 0 871.39144 2341.5432"
   version="1.1"
   id="svg4"
   sodipodi:docname="alone_standing_female8.svg"
   width="871.39148"
   height="2341.5432"
   inkscape:version="1.0.2 (e86c870879, 2021-01-15)">
  <metadata
     id="metadata10">
    <rdf:RDF>
      <cc:Work
         rdf:about="">
        <dc:format>image/svg+xml</dc:format>
        <dc:type
           rdf:resource="http://purl.org/dc/dcmitype/StillImage" />
        <dc:title></dc:title>
      </cc:Work>
    </rdf:RDF>
  </metadata>
  <defs
     id="defs8" />
  <sodipodi:namedview
     pagecolor="#ffffff"
     bordercolor="#666666"
     borderopacity="1"
     objecttolerance="10"
     gridtolerance="10"
     guidetolerance="10"
     inkscape:pageopacity="0"
     inkscape:pageshadow="2"
     inkscape:window-width="1920"
     inkscape:window-height="997"
     id="namedview6"
     showgrid="false"
     fit-margin-top="0"
     fit-margin-left="0"
     fit-margin-right="0"
     fit-margin-bottom="0"
     inkscape:zoom="0.28032165"
     inkscape:cx="178.24903"
     inkscape:cy="1036.4236"
     inkscape:window-x="0"
     inkscape:window-y="0"
     inkscape:window-maximized="1"
     inkscape:current-layer="svg4"
     inkscape:document-rotation="0" />
  <rect
     style="fill:#ffffff;stroke-width:5.66929;stroke-linecap:square;stroke-linejoin:round;stroke-dasharray:11.3386, 11.3386"
     id="rect830"
     width="871.39148"
     height="2341.5432"
     x="0"
     y="0" />
  <path
     d="m 63.403618,866.14505 c 8.633898,4.79122 37.515462,36.41837 43.312342,49.11494 5.76831,12.66514 17.44779,28.50443 31.77572,36.37551 14.42792,8.07107 86.59039,98.2613 106.73234,110.9522 20.24767,12.728 21.68475,1.6142 21.68475,1.6142 2.8713,33.2071 7.19968,39.5925 7.19968,39.5925 l 14.48221,72.8253 c -15.82786,17.4278 -38.92968,269.2736 -44.66086,315.2344 -5.95116,45.9694 -33.28136,117.2376 -39.1011,167.8696 -5.66546,50.6377 -54.91754,217.016 -80.66495,274.0334 -26.081688,57.1346 -33.221368,255.0114 -33.221368,255.0114 4.211241,25.3617 30.218648,28.4473 30.218648,28.4473 24.52747,80.8592 54.83468,71.4197 54.83468,71.4197 24.47604,-4.8027 28.83585,-56.9803 28.83585,-56.9803 14.4422,-3.2999 40.39532,14.3765 67.93124,7.8396 27.39305,-6.5654 23.03611,-68.0884 37.50402,-144.2392 14.32507,-75.9138 25.95597,-158.2586 41.7067,-178.9949 15.9707,-20.6047 52.09765,-247.006 56.40604,-292.9782 4.34551,-45.8836 59.23162,-310.5661 64.87423,-354.7269 5.85117,-44.4466 31.85285,-30.193 34.6013,-14.3222 2.91702,15.8735 34.76416,186.8544 26.09311,210.8248 -8.63674,23.5932 2.92273,147.1419 2.92273,180.3919 0,33.227 18.73917,187.0087 12.95942,232.9438 -5.84831,45.8951 34.59273,302.5293 34.59273,319.8885 0,17.4049 17.3735,23.7189 17.3735,23.7189 10.14526,36.4241 62.05151,42.761 62.05151,42.761 39.0611,-7.834 25.95597,-60.1231 25.95597,-60.1231 7.25397,-1.5799 63.44859,-14.2422 63.44859,-14.2422 15.92215,0 7.31967,-18.9877 7.31967,-18.9877 -5.88831,-20.6105 -11.59948,-63.3714 -5.88831,-115.6519 5.88831,-52.2234 8.67961,-98.3385 1.47993,-125.1087 -7.1911,-26.9902 -21.5933,-155.2931 -21.5933,-191.6486 0,-36.4069 -21.35619,-171.4208 -21.35619,-171.4208 -14.06224,-47.4264 -13.17656,-141.1108 -13.17656,-199.931 0,-58.9745 -22.89611,-257.0114 -22.89611,-257.0114 6.21972,-7.6796 9.651,-24.1474 7.98536,-34.8555 -1.76564,-10.511 -0.91996,-36.6555 -0.91996,-36.6555 33.48136,-9.6539 33.48136,-27.0817 33.48136,-27.0817 0,0 11.41091,-25.076 26.4131,-55.01751 14.94219,-30.07008 47.48643,-109.17224 58.91736,-164.23263 11.43377,-54.99467 1.81134,-62.68576 -6.09403,-77.33653 -7.97964,-14.37935 -73.95667,-91.71874 -79.23643,-98.40987 -5.31405,-6.81684 -40.5439,-60.94584 -55.45752,-74.50808 -14.99933,-13.51083 -19.35057,-36.6355 -36.07553,-67.53413 -16.75639,-31.00432 -33.42421,-39.68392 -44.86369,-41.5867 -6.87112,-1.15994 -23.86464,-8.31677 -36.85264,-13.99937 l 2.01991,-4.17409 8.25392,0.56282 -8.00535,-1.47993 3.19414,-8.56247 2.98272,-0.69712 -2.6856,-0.52569 c 2.67988,-9.02245 4.50837,-19.92195 4.96265,-33.1185 l 5.93973,-12.63086 c -0.96282,16.95638 -3.28271,32.73566 -3.28271,32.73566 2.7313,-5.75117 3.36555,-19.47055 3.36555,-32.80137 l 6.93398,-13.09085 0.65427,-1.52565 c -2.41133,22.08759 -5.95118,37.33548 -5.95118,37.33548 10.17098,-19.15915 14.27365,-38.96397 14.86505,-57.32029 2.13133,-6.79113 3.47985,-12.85657 4.11982,-18.92201 1.76849,23.39609 -1.85135,46.61219 -1.85135,46.61219 5.16262,-13.81081 4.5998,-32.08998 2.13134,-48.72924 1.09709,-12.2023 0.06,-23.94178 0.06,-37.72973 l -0.06,-6.56542 c 5.50547,15.12789 7.06825,29.5701 7.06825,29.5701 0.59426,-11.60806 -3.05987,-24.80459 -7.34538,-36.0441 l -0.95424,-11.94803 c 0.91138,-8.49963 0.43712,-16.33926 -1.17709,-23.21611 0.84853,7.12825 0.84853,14.15651 0.51997,19.87912 -1.16851,-6.93399 -3.23986,-11.63662 -6.02544,-18.01634 -5.29691,-12.61086 -7.01112,-21.25904 -7.01112,-21.25904 l -0.56854,-8.65389 c 5.69689,7.60536 10.62523,16.87351 13.08797,28.05015 -1.3485,-12.67371 -5.00548,-26.35596 -13.6108,-36.9669 0.19999,-8.94246 -1.38566,-18.43632 -7.99107,-24.38463 -4.73122,-14.06222 -13.31656,-26.9445 -27.79018,-33.78706 10.38524,0.18286 10.99379,-4.85691 10.99379,-4.85691 l -11.83091,4.25695 -1.87419,-4.25695 c -9.73385,-17.362076 -20.5048,-27.538776 -30.7672,-33.301356 4.72836,0.52569 9.88527,1.86276 13.68796,4.38551 -3.33985,-2.61418 -8.8139,-5.7226 -16.84782,-6.18258 l -12.35659,-4.42837 0.33999,-4.5398 -2.18848,4.13696 -7.47394,-0.89424 c -4.89406,-3.55985 -3.96554,-11.21665 -3.96554,-11.21665 -2.12562,6.65684 0.51997,9.7167 2.92273,11.0138 h -3.57413 c -2.21133,-4.04269 -9.611,-13.87938 -28.09016,-1.49422 h -1.4885 c -6.54828,-4.0484 -12.65944,-5.23119 -17.39923,-5.23119 4.87693,0.63425 10.25096,2.997 14.85649,5.26833 -10.63668,0.5914 -21.21048,4.19981 -30.81863,9.49671 -43.28663,5.22548 -54.95753,32.984236 -54.95753,32.984236 12.13374,-22.441846 36.97548,-30.124366 54.11185,-32.735676 -14.99933,8.3882 -28.36729,20.373376 -38.36114,31.921436 -10.82236,6.47112 -23.93035,16.37068 -35.4184,31.18715 7.18253,-8.99387 18.23061,-19.67054 33.75849,-29.07011 -8.12821,9.62242 -13.84509,18.41918 -15.79073,23.91036 -1.68278,4.29409 -3.75982,10.2024 -6.22258,16.92495 -4.60264,5.42547 -9.21672,11.89946 -12.85655,18.73915 -22.89612,17.05353 -22.89612,43.90946 -21.40762,56.2689 -17.89347,29.55583 -35.28699,63.58002 -36.08123,85.41903 0,0 3.31985,-15.95357 15.58502,-30.49577 -3.52557,10.77095 -6.15688,22.31328 -7.41396,34.89272 0,0 2.9313,-16.62211 9.47386,-37.18691 l 1.19138,-1.28851 c -2.27991,9.53386 -3.25128,18.55631 -1.43422,26.14454 0,0 5.5226,-19.42198 15.18216,-36.84692 l 4.41695,-2.36561 c -1.63421,6.79113 -3.30556,13.69653 -4.61121,20.23624 -3.1913,7.7368 -6.574,14.9279 -9.99671,20.24767 2.39705,-3.34843 5.45976,-7.86251 8.6339,-13.34226 l -1.49136,8.71104 c -6.69113,8.67675 -13.83367,20.82477 -18.82201,37.25262 -13.36511,6.69683 -21.73045,10.17668 -13.43368,10.48809 l 11.10808,-1.31137 c -2.08277,9.81099 -3.457,20.88192 -3.457,33.34137 -6.61113,-1.31139 -12.83371,-5.83403 -17.83919,-16.21929 0,0 1.4285,17.6735 11.60234,22.90183 l -9.711,5.85689 c -5.89688,-2.1142 -11.36806,-5.66261 -16.24213,-11.33092 0,0 4.30266,7.65108 12.85943,13.51081 -5.32834,3.35128 -10.77381,7.27682 -16.49069,11.54235 l -0.0428,0.22571 c -9.69386,-3.9284 -17.97634,-11.14522 -22.38757,-23.7818 0,0 4.08268,15.63073 15.18503,26.57881 l -7.14254,3.39128 c -13.96508,-1.77707 -23.1161,1.03709 -27.99017,3.58269 5.09692,-1.71707 13.05371,-1.33994 21.76759,-0.1028 -19.73339,11.42234 -35.43555,28.43015 -37.97257,53.75758 0,0 10.64237,-32.92995 45.16655,-52.60335 l 0.39141,0.0629 c -21.54761,19.72482 -40.30391,46.4722 -39.90108,79.11645 -9.60814,21.56188 -20.65335,46.98646 -30.11579,57.4117 -13.05945,14.13077 -15.89646,39.56392 -30.29867,60.20299 -14.46793,20.51052 -73.676698,153.55882 -79.350729,175.68355 -5.842595,22.19329 7.182535,63.37143 15.796433,68.15979 z M 559.62134,160.63671 c 3.42842,4.50837 6.114,10.61095 6.31401,19.49055 l -2.09134,-2.58845 -1.5685,-4.42551 z m 19.13343,653.23355 c 7.15683,-41.20958 7.15683,-82.4163 7.15683,-98.16416 0,-15.81073 28.87298,-42.76095 27.42733,-57.04601 0,0 47.59787,46.0265 59.19735,52.34335 11.48519,6.34829 40.5039,36.44408 43.27519,52.19194 2.83702,15.87644 0,19.04772 -7.27966,41.13815 -7.2454,22.319 -25.94742,38.09258 -30.28437,71.30538 -4.35694,33.3585 4.33695,22.15329 -10.06526,42.79522 -14.47935,20.60193 -28.9387,45.86652 -28.9387,55.52894 0,9.39672 -33.22136,-91.88159 -48.98066,-104.69816 -15.985,-12.60515 -18.95344,-14.19936 -11.50805,-55.39465 z m -27.36735,-660.0161 z m -7.40824,252.5258 h 0.45427 l -0.23142,0.84283 z m -0.0571,-3.63697 0.64283,-9.37673 6.82541,-13.78795 c -1.05424,8.33678 -2.86558,16.46783 -5.7026,23.84751 z m -0.50568,-259.12266 -9.75957,-14.0765 c 5.6569,5.04262 11.50807,12.19945 16.54211,21.98473 l -0.7571,-0.34571 z m -15.00791,268.5108 8.45963,-7.6568 3.42842,1.3171 2.13133,4.79122 -3.83697,6.22256 c -6.03402,-2.6513 -10.18241,-4.67408 -10.18241,-4.67408 z M 442.30085,74.774864 c 6.9454,-2.2999 16.73639,-4.17697 21.63045,1.67992 -4.74835,0.47427 -7.67679,1.45994 -7.67679,1.45994 -4.60265,-1.77707 -9.33386,-2.75988 -13.95366,-3.13986 z m -105.36955,98.155576 -5.99115,3.39699 c 2.60845,-4.44837 5.99115,-9.62241 9.8024,-15.03361 z m -29.07584,60.31159 c -0.91139,-27.12736 8.87961,-43.52662 19.66484,-53.04906 -2.65989,5.38262 -4.74551,11.22808 -5.76832,17.13923 0,0 2.12562,-7.97105 8.30534,-19.29056 l 6.49686,-4.54264 c -3.38272,9.9024 -6.76827,20.5105 -9.89099,30.50433 -5.89688,8.63677 -12.37944,18.66774 -18.80773,29.2387 z m -74.6138,193.51702 8.03965,1.81135 c -11.47377,11.06809 -22.0133,21.08763 -22.0133,21.08763 0,0 -10.11383,11.03378 -21.59903,33.25279 l -6.69113,13.81081 c 5.08549,-15.76786 16.83353,-43.13521 42.26381,-69.96258 z m 11.15094,-1.24565 -7.65966,-2.39132 1.2428,-1.31137 z m 19.4477,-18.8563 -0.81426,0.87996 -13.25368,3.69126 8.95959,-7.15682 z m -7.6368,7.66823 -3.81983,3.53412 -5.52546,-1.05424 z m 16.73925,-18.27919 -3.16272,4.38552 -2.03706,2.23133 -5.37404,-1.2028 8.77389,-5.93974 z m 12.91085,-43.20091 5.5226,-2.61418 c -3.63127,12.01376 -8.16534,23.73895 -12.24802,33.20709 1.34566,-9.08245 3.41985,-19.71912 6.72542,-30.59291 z m 12.45943,-28.71871 -3.68269,14.93075 -4.73407,2.49418 c 2.31989,-5.9083 5.19119,-11.8566 8.41676,-17.42493 z m -141.0622,488.24095 c 10.11098,-17.46209 59.22878,-96.66137 82.21345,-145.7706 0,0 90.9045,186.97446 62.08864,315.29156 0,0 -36.08123,-41.20387 -46.24363,-63.4543 -10.08811,-22.10186 -33.11279,-20.64479 -47.50073,-33.23279 -14.49649,-12.64229 -36.14409,-44.38944 -36.14409,-44.38944 0,0 -24.55604,-11.08235 -14.41364,-28.44443 z m 36.06124,-384.92558 4.60551,-2.97988 z M 412.05653,70.452184 c 0,0 3.38843,-1.08852 8.31391,-1.03995 z m 98.43559,17.7935 3.06843,3.01987 z m 3.65983,3.79696 -0.58854,-0.77709 z M 316.30369,168.97634 c 3.95982,-8.17963 8.59961,-15.12218 13.48511,-21.44189 -9.85099,12.14516 -13.48511,21.44189 -13.48511,21.44189 z m -22.72184,144.09068 -4.99119,6.314 z"
     id="path2"
     inkscape:connector-curvature="0"
     style="fill:#010202;stroke-width:2.85701" />
</svg>
