<?xml version="1.0" encoding="UTF-8" standalone="no"?>
<svg
   xmlns:dc="http://purl.org/dc/elements/1.1/"
   xmlns:cc="http://creativecommons.org/ns#"
   xmlns:rdf="http://www.w3.org/1999/02/22-rdf-syntax-ns#"
   xmlns:svg="http://www.w3.org/2000/svg"
   xmlns="http://www.w3.org/2000/svg"
   xmlns:sodipodi="http://sodipodi.sourceforge.net/DTD/sodipodi-0.dtd"
   xmlns:inkscape="http://www.inkscape.org/namespaces/inkscape"
   version="1.1"
   id="Layer_1"
   x="0px"
   y="0px"
   viewBox="0 0 2946.697 5304.8071"
   enable-background="new 0 0 2697.24 5000"
   xml:space="preserve"
   sodipodi:docname="alone_standing_female4.svg"
   width="2946.697"
   height="5304.8071"
   inkscape:version="1.0.2 (e86c870879, 2021-01-15)"><metadata
   id="metadata9"><rdf:RDF><cc:Work
       rdf:about=""><dc:format>image/svg+xml</dc:format><dc:type
         rdf:resource="http://purl.org/dc/dcmitype/StillImage" /><dc:title></dc:title></cc:Work></rdf:RDF></metadata><defs
   id="defs7" /><sodipodi:namedview
   pagecolor="#ffffff"
   bordercolor="#666666"
   borderopacity="1"
   objecttolerance="10"
   gridtolerance="10"
   guidetolerance="10"
   inkscape:pageopacity="0"
   inkscape:pageshadow="2"
   inkscape:window-width="1920"
   inkscape:window-height="997"
   id="namedview5"
   showgrid="false"
   fit-margin-top="0"
   fit-margin-left="0"
   fit-margin-right="0"
   fit-margin-bottom="0"
   inkscape:zoom="0.143"
   inkscape:cx="1457.8072"
   inkscape:cy="2654.1073"
   inkscape:window-x="0"
   inkscape:window-y="0"
   inkscape:window-maximized="1"
   inkscape:current-layer="Layer_1" />
<rect
   style="fill:#ffffff;stroke-width:5.66929;stroke-linecap:square;stroke-linejoin:round;stroke-dasharray:11.3386, 11.3386"
   id="rect834"
   width="2946.697"
   height="5304.8071"
   x="0"
   y="0" /><path
   d="m 2153.1542,181.51329 c 17.121,-5.737 35.639,-1.634 52.978,-6.427 49.037,2.797 116.901,5.718 192.177,62.945 31.618,25.267 54.933,48.951 77.198,82.553 8.206,14.652 18.301,28.196 25.654,43.355 18.519,34.677 27.469,73.276 43.301,109.097 60.175,170.911 38.56,143.125 45.806,181.192 0.769,4.844 0.059,44.461 5.955,59.314 2.996,7.716 0.472,16.304 3.395,24.038 4.648,12.455 8.097,25.291 12.909,37.691 2.705,13.036 12.146,23.62 14.216,36.765 -3.595,-1.543 -5.973,-4.593 -7.861,-7.861 2.796,5.646 2.959,11.946 3.286,18.101 6.629,29.947 12.414,34.03 16.776,45.008 2.396,4.503 0.926,9.75 1.725,14.597 1.398,3.123 3.613,5.792 5.192,8.842 1.344,4.321 1.217,9.096 3.413,13.181 5.307,8.419 13.128,6.83 24.601,38.926 6.688,21.314 24.583,42.582 20.043,61.16601 -1.035,-0.182 -3.104,-0.563 -4.139,-0.744 -1.071,-8.17001 -6.554,-14.54301 -9.768,-21.85901 -1.888,1.398 -3.795,2.778 -5.628,4.176 -3.54,-2.923 -6.844,-6.082 -10.385,-8.969 0.726,9.278 3.032,18.373 3.177,27.70501 0.291,11.547 5.011,22.549 4.848,34.169 -0.781,5.755 -1.453,11.547 -0.654,17.357 2.796,1.761 6.173,3.45 6.699,7.117 -6.768,3.187 -9.001,0.714 -1.598,26.525 1.797,6.954 7.081,12.201 10.149,18.555 2.015,5.955 2.415,12.418 5.265,18.156 2.905,6.028 1.198,12.927 2.615,19.299 8.49,38.206 -3.055,6.774 11.474,48.639 1.398,4.793 7.48,6.209 8.678,11.075 1.471,5.537 2.288,11.256 3.104,16.939 2.741,25.216 27.704,57.104 31.536,75.582 -2.106,-0.182 -4.194,-0.363 -6.245,-0.508 1.198,8.352 5.574,15.668 8.751,23.348 0.617,7.752 0.164,15.559 -0.908,23.257 -0.815,5.124 5.999,32.214 5.973,43.483 0.052,23.956 8.964,33.852 10.657,39.271 2.796,6.808 2.197,14.67 6.336,20.97 7.262,12.219 11.946,25.672 17.556,38.671 4.928,19.438 10.484,51.997 10.621,54.485 0.69,3.123 -1.725,5.646 -2.687,8.442 -4.303,10.058 1.761,21.024 -1.688,31.228 -4.217,14.884 1.745,10.634 -2.251,33.479 3.613,3.631 3.904,8.697 4.067,13.544 -1.852,-1.108 -3.595,-2.197 -5.32,-3.341 0.182,6.736 0.781,13.49 2.796,19.971 2.959,9.75 1.761,20.007 2.396,30.047 -2.088,-0.182 -4.121,-0.345 -6.136,-0.49 -0.381,-7.462 -0.272,-15.015 -1.779,-22.349 -2.978,-9.169 -6.863,-18.137 -8.079,-27.778 -0.617,-5.065 -1.634,-10.367 -5.338,-14.143 -1.492,18.415 19.219,162.131 23.875,184.043 1.615,6.5 -1.017,13.054 0.036,19.608 1.289,9.35 3.286,18.628 4.503,28.014 -1.997,0.454 -3.94,0.926 -5.865,1.398 -1.961,-10.458 -2.124,-23.729 -12.89,-29.285 -0.581,-15.251 -6.5,-29.503 -14.071,-42.52 -2.887,6.79 0.382,13.816 1.689,20.57 1.961,6.718 1.162,13.907 3.322,20.607 2.433,8.079 5.973,15.832 8.225,24.002 -5.047,-0.182 -7.644,-4.103 -10.258,-7.752 -2.959,-1.634 -6.173,-2.832 -8.66,-5.156 -3.613,0.581 -7.226,1.089 -10.802,1.652 0.454,-7.19 -4.466,-12.618 -7.662,-18.537 -3.195,-5.483 -9.277,-8.17 -14.125,-11.856 0.708,-10.53 2.088,-24.238 -7.099,-31.573 -0.835,15.142 7.117,29.594 4.793,44.826 -3.541,18.656 14.975,60.745 17.647,70.026 1.071,6.028 8.007,8.17 9.713,13.871 1.18,3.086 1.906,6.336 2.651,9.586 -5.265,0.127 -9.84,-2.397 -14.234,-4.902 0.454,6.282 2.378,12.309 5.265,17.883 -3.014,3.141 -6.1,6.209 -9.15,9.332 -1.725,-1.906 -3.413,-3.795 -5.084,-5.646 -0.962,5.646 0.672,14.379 -6.917,15.668 -0.436,3.849 -0.763,7.716 -1.126,11.601 -2.596,-2.052 -5.156,-4.067 -7.789,-5.991 0.218,3.123 0.563,6.282 0.853,9.459 -8.061,0.926 -11.238,9.459 -11.874,16.522 -2.814,-0.636 -5.519,-1.453 -8.097,-2.596 -1.416,0.69 -2.814,1.398 -4.158,2.124 -0.962,-2.633 -1.961,-5.229 -2.959,-7.789 -2.56,1.471 -4.975,3.086 -7.389,4.72 -2.251,-1.035 -4.448,-2.033 -6.645,-3.014 -4.357,3.087 -9.84,2.36 -14.851,2.651 -4.154,7.889 -1.307,15.636 -1.307,47.313 -1.58,31.682 -10.312,62.31 -16.431,93.283 -6.504,21.773 -4.447,61.959 -40.142,97.695 -23.067,16.126 -30.156,35.377 -65.923,75.818 -9.876,14.869 -14.579,32.553 -19.118,49.637 -3.159,23.838 -19.045,43.737 -21.46,67.72 -5.114,39.496 -23.049,59.49 -26.198,68.21 -0.2,5.283 7.553,6.173 8.57,11.093 1.434,8.424 4.321,16.576 5.592,25.037 -0.115,28.361 64.579,118.411 31.463,281.683 -0.163,7.426 -0.744,14.815 -3.431,21.841 -2.54,44.325 -48.761,151.333 -53.396,159.17 -13.008,27.368 -64.055,91.333 -69.245,96.025 -8.442,7.934 -17.883,17.193 -18.719,29.394 1.797,6.936 -0.145,14.288 -4.829,19.663 -3.468,3.286 -9.078,0.98 -12.763,3.577 -2.288,6.99 -3.758,14.343 -4.121,21.714 2.306,7.335 12.128,11.456 10.076,20.316 0.254,7.371 -7.607,9.423 -12.981,11.819 0.309,9.513 5.683,18.41 3.54,28.105 -4.739,21.06 2.179,42.339 -0.072,63.526 -2.742,13.653 -0.617,27.633 -2.433,41.395 -2.378,15.014 1.18,30.283 -1.779,45.243 -1.634,6.246 1.598,12.418 0.872,18.755 -3.395,18.627 -1.053,37.673 -1.816,56.518 -0.781,8.86 6.336,17.212 2.524,25.962 -2.741,6.718 -2.941,14.034 -2.451,21.206 2.451,19.681 2.868,39.579 6.118,59.187 1.126,6.209 4.085,11.892 5.538,18.047 1.416,4.375 -1.126,8.769 -0.636,13.254 26.61,122.275 15.558,154.938 18.392,197.769 5.465,12.4 5.084,27.869 -4.085,38.471 3.994,11.747 1.761,25.454 9.659,35.766 11.242,14.991 7.84,42.078 8.86,51.054 2.887,9.169 9.005,16.939 12.2,26.017 -0.454,5.737 -2.687,11.511 -1.18,17.321 2.179,7.153 8.043,12.909 8.588,20.643 0.635,8.351 -1.289,17.12 2.106,25.127 4.793,13.998 6.917,28.74 9.405,43.301 42.23,155.69 11.988,326.679 -12.927,485.407 0.091,15.486 -4.012,30.501 -7.044,45.588 -7.339,61.927 -13.344,103.087 -13.344,103.087 0,6.264 -3.268,12.655 -0.563,18.828 4.357,11.401 2.615,23.947 0.726,35.694 -0.708,15.432 0.817,30.937 -0.654,46.369 -0.708,3.486 1.616,6.5 2.76,9.677 18.773,0.69 37.873,2.415 55.302,9.949 7.026,6.481 11.384,15.287 16.794,23.094 1.942,2.886 5.428,5.138 5.428,9.023 0.781,8.605 4.049,16.685 5.755,25.127 2.632,15.759 12.509,29.321 14.833,45.189 -2.723,1.471 -5.429,2.995 -8.079,4.575 0.944,9.241 9.568,15.033 12.655,23.584 7.28,9.532 1.961,21.877 5.501,32.553 1.489,7.171 6.155,12.981 9.786,19.208 6.427,9.277 4.285,21.787 10.676,31.137 4.194,5.937 9.259,11.256 14.034,16.776 6.554,6.445 7.335,16.286 12.673,23.602 4.448,5.646 4.067,13.072 5.665,19.79 2.705,14.361 8.515,29.103 4.321,43.809 -9.219,47.017 -157.075,54.454 -196.97,64.343 -6.99,1.217 -14.143,-0.018 -21.133,0.98 -19.009,4.158 -37.509,-5.882 -56.609,-4.104 -30.613,-4.619 -52.052,10.861 -86.313,17.085 -40.993,7.974 -85.348,7.789 -126.911,11.361 -72.934,6.269 -151.305,6.962 -224.126,-1.067 -16.467,0.399 -32.353,-4.63 -48.624,-6.155 -38.361,-5.435 -76.959,-8.012 -114.978,-15.893 -11.614,-2.407 -24.125,-5.748 -31.276,-15.21 -9.211,-12.189 -5.594,-30.479 4.103,-42.285 15.861,-19.309 51.381,-38.229 75.123,-45.24 13.871,-4.557 25.944,-13.126 39.398,-18.664 20.169,-9.385 73.914,-21.037 90.905,-37.981 6.59,-9.06 15.705,-15.832 22.222,-24.91 3.813,-4.666 6.736,-10.493 12.618,-12.854 6.845,-3.232 11.837,-9.55 19.263,-11.583 25.946,-7.85 26.979,-21.869 41.848,-28.976 6.518,-3.777 14.034,-5.992 19.645,-11.202 22.891,-18.089 25.197,-15.813 26.035,-28.195 -1.979,-1.071 -3.903,-1.961 -5.846,-2.887 -0.291,-2.632 -0.381,-5.81 -3.105,-7.044 -5.085,-4.949 -26.517,11.305 -44.59,19.735 -8.134,3.686 -13.526,11.147 -21.151,15.632 -1.398,-2.088 -2.796,-4.121 -4.158,-6.064 15.88,-20.349 44.986,-25.455 69.209,-45.552 9.822,-5.937 20.879,-10.276 29.085,-18.573 1.906,-4.085 0.145,-8.279 -1.507,-12.019 -3.232,-6.827 -1.489,-14.579 -1.925,-21.805 -0.635,-13.017 3.54,-26.907 13.199,-35.93 8.878,-5.338 18.954,-8.406 28.958,-10.912 3.268,-0.635 5.301,-3.449 7.643,-5.501 -2.379,-3.159 -7.081,-5.828 -5.356,-10.331 3.232,-17.084 0.563,-37.818 15.069,-50.382 3.794,-2.796 1.707,-7.698 1.344,-11.438 -1.489,-6.917 0.853,-13.816 0.817,-20.715 0.254,-3.395 -0.617,-8.17 3.722,-9.132 2.741,-2.033 8.823,-0.726 8.951,-4.993 -4.757,-3.341 -10.657,-4.92 -14.833,-9.023 -4.739,-5.428 -2.233,-13.108 -4.194,-19.444 -1.489,-7.789 -6.681,-14.652 -6.191,-22.785 0,-17.235 -5.922,-15.003 -16.177,-18.482 -1.271,-4.502 -2.142,-9.078 -2.251,-13.689 2.905,-2.396 8.951,-3.286 9.132,-7.625 -9.806,-16.619 -36.787,-79.457 -40.251,-88.527 -18.243,-43.096 -41.431,-87.637 -41.431,-87.637 -4.811,-11.602 -9.041,-23.729 -17.266,-33.443 -6.246,-7.461 -5.755,-17.737 -10.53,-25.872 -12.727,-27.143 -27.941,-53.196 -38.653,-81.21 -2.596,-6.009 -8.896,-9.06 -14.724,-11.02 -2.977,-6.173 -1.58,-12.8 -0.89,-19.227 -8.964,-22.015 -62.605,-108.234 -76.253,-154.05 -7.625,-0.817 -16.921,1.815 -22.822,-4.466 -2.705,-8.66 3.304,-15.432 8.914,-21.078 5.43,-4.105 -14.854,-24.357 -24.129,-34.205 -4.739,-5.102 -7.244,-11.856 -12.146,-16.776 -6.373,-5.102 -13.943,-9.15 -18.228,-16.358 -4.684,-8.115 -11.002,-15.341 -14.089,-24.292 -2.033,-4.593 -2.959,-9.731 -5.991,-13.762 -2.378,-3.577 -7.008,-2.488 -10.548,-3.395 -4.848,-1.579 -8.497,-5.338 -12.2,-8.606 -3.758,-6.463 -4.067,-14.216 -7.771,-20.679 -45.93,-77.817 -59.002,-120.646 -47.749,-234.225 1.071,-12.927 -1.053,-26.017 1.398,-38.817 1.325,-8.352 -0.127,-16.939 2.161,-25.127 2.433,-8.787 2.324,-17.901 2.106,-26.907 -0.758,-18.401 32.83,-351.891 57.208,-447.534 1.804,-17.872 17.271,-79.554 17.466,-80.556 2.778,-17.284 12.382,-33.061 13.181,-50.654 -9.19,-30.444 -1.545,-134.226 -0.69,-160.223 0,-7.988 4.067,-15.378 3.667,-23.402 -0.799,-23.838 5.882,-47.222 5.465,-71.025 -0.054,-4.357 0.962,-8.588 1.543,-12.836 0.89,-6.609 -1.271,-13.072 -1.434,-19.626 -0.327,-4.957 0.272,-10.149 -1.888,-14.742 -2.746,-6.717 -12.117,-10.778 -17.266,-42.702 -28.702,-101.829 -15.183,-63.34 -25.563,-112.274 -26.396,-87.675 -22.402,-106.138 -22.604,-126.326 0.163,-10.802 -1.053,-21.823 2.088,-32.335 1.761,-5.755 0.599,-12.473 4.484,-17.447 3.867,-6.173 9.023,-12.709 7.698,-20.443 -5.193,-0.69 -10.349,-1.615 -15.323,-3.195 -0.853,-5.065 -1.216,-10.24 -2.742,-15.124 -1.888,-2.124 -4.993,-2.197 -7.426,-3.086 0.163,-5.864 4.739,-10.875 3.813,-16.758 -1.579,-2.215 -4.176,-3.232 -6.699,-2.143 -9.06,2.415 -18.482,1.507 -27.742,1.652 -12.273,0.563 -19.009,-13.344 -30.955,-14.289 -25.436,-0.568 -49.229,-29.145 -47.767,-62.019 0.762,-9.277 -0.327,-18.773 2.36,-27.832 1.126,-3.667 -0.091,-7.426 -0.763,-11.021 -3.922,-0.799 -7.807,-1.634 -11.62,-2.723 -7.171,6.282 -15.087,11.638 -22.64,17.411 -6.536,0.835 -12.963,-1.38 -19.445,-1.634 -2.33,-23.037 29.003,-30.174 33.043,-49.074 -4.194,0.526 -8.37,1.271 -12.6,1.198 11.28,-16.033 18.059,-33.59 38.635,-35.857 3.468,-5.628 9.477,-8.697 15.469,-10.948 4.176,-8.878 -5.483,-16.739 -2.524,-25.49 3.05,-10.675 -0.799,-22.15 3.867,-32.535 30.34,-67.067 23.474,-35.065 29.267,-61.384 2.106,-16.086 10.53,-30.392 13.544,-46.242 3.105,-1.543 7.498,-2.161 8.751,-5.901 5.247,-12.509 -2.233,-25.89 1.198,-38.617 0.763,-19.263 7.117,-37.673 10.948,-56.409 -0.073,-6.082 2.106,-11.583 4.884,-16.83 2.269,-11.747 6.3,-23.185 6.863,-35.203 2.451,-12.709 0.799,-25.672 1.634,-38.508 0.526,-6.718 -1.852,-13.181 -2.052,-19.844 -0.432,-16.513 -9.721,-24.193 -3.867,-65.378 0.932,-24.403 -1.251,-55.567 1.834,-65.451 2.106,-8.243 8.715,-14.779 9.35,-23.475 0.418,-3.504 1.471,-6.845 2.451,-10.185 3.831,-13.181 -3.032,-28.25 4.866,-40.342 2.905,-6.1 5.338,-12.527 9.477,-17.938 6.3,-8.079 8.769,-18.464 15.578,-26.198 3.631,-3.686 2.36,-8.932 1.017,-13.272 -2.306,-6.282 1.652,-12.527 0.799,-18.882 -2.145,-13.964 -0.795,-20.553 -8.932,-20.135 -6.59,-0.236 -13.29,0.091 -19.609,-2.125 -12.693,-4.314 -28.937,-4.01 -42.291,-5.884 -16.379,-2.299 -32.758,-4.598 -49.137,-6.896 -19.651,-2.758 -39.302,-5.516 -58.954,-8.274 -32.536,-4.566 -64.95,-9.959 -97.305,-15.661 -17.012,-2.998 -34.009,-6.087 -51.003,-9.185 -12.535,-2.285 -30.111,-8.166 -42.815,-6.605 -7.625,0.418 -15.269,0.236 -22.204,-3.286 -23.929,-1.162 -48.04,0.599 -71.951,-0.799 -10.004,-3.903 -20.679,-3.068 -31.173,-3.323 -8.751,-1.906 -17.448,-4.139 -26.108,-6.463 -7.081,-1.489 -14.579,0.49 -21.46,-2.161 -6.935,-2.778 -14.615,-1.471 -21.605,-3.903 -7.879,-2.596 -16.467,-1.144 -24.129,-4.594 -13.998,-1.997 -28.196,-3.25 -42.157,-5.447 -5.356,-2.705 -11.311,-2.814 -17.175,-2.868 -145.286,-30.666 -86.61,-47.679 -168.865,-46.987 -7.498,0.345 -14.179,-4.14 -21.696,-3.649 -6.899,0.526 -12.564,-3.904 -18.119,-7.299 -16.776,-11.22 -37.11,-16.086 -52.996,-28.722 -12.255,-7.099 -24.982,-15.686 -39.652,-15.704 -7.898,0.721 -68.989,2.417 -76.108,-1.017 -43.986,-16.588 -37.803,-27.643 -51.417,-55.665 -11.075,-2.106 -21.46,-6.718 -32.172,-10.058 -2.542,0.49 -4.938,1.471 -7.389,2.288 0.054,-5.193 3.141,-13.254 -3.704,-15.378 -6.227,0.399 -12.455,3.504 -18.664,1.162 -10.657,-3.667 -22.531,-1.797 -32.753,-6.954 -3.758,-3.322 -5.701,-8.824 -10.766,-10.476 -6.827,-2.342 -13.707,-5.719 -21.151,-4.721 -8.515,-0.036 -11.638,11.093 -19.989,11.111 -10.009,1.026 -16.877,-5.877 -38.145,-4.448 -5.683,0.98 -10.312,4.811 -15.705,6.645 -14.488,4.176 -29.629,0.236 -44.359,2.089 -7.537,0.938 -14.67,-4.219 -22.491,-3.678 -10.557,0.731 -21.63,5.136 -31.934,7.508 -4.666,-0.69 -8.188,-4.684 -11.601,-7.68 -2.197,-6.082 -2.814,-12.673 -1.271,-18.972 5.234,-23.424 -22.601,-18.963 -32.48,-29.212 -2.283,-19.559 19.522,-45.05 -0.516,-51.867 -11.642,-3.96 -62.185,15.293 -54.717,-12.91 2.207,-8.333 11.606,-17.47201 18.323,-22.62401 7.226,-5.755 16.975,-4.158 25.49,-5.429 9.441,-2.288 11.293,-14.307 9.06,-22.295 -3.431,-7.026 -7.226,-13.853 -9.949,-21.188 -8.224,-6.518 -18.791,-8.787 -28.087,-13.363 -14.742,-4.775 -28.159,-12.836 -43.011,-17.357 -10.984,-3.577 -22.622,-4.666 -33.66,-7.916 -13.471,-6.899 -27.887,-12.074 -42.847,-14.524 -5.574,-1.344 -12.055,-1.779 -16.322,-6.046 -2.07,-3.686 -5.084,-9.078 -1.344,-12.654 6.281,-9.968 15.205,-2.502 70.643,3.885 8.678,0.89 16.485,5.665 25.327,5.701 13.163,0.454 26.035,3.74 38.435,8.007 53.345,13.358 66.659,33.786 124.747,28.486 43.631,4.22 147.341,53.787 136.566,23.039 -1.38,-2.106 -3.341,-3.704 -5.102,-5.447 11.634,-8.854 9.245,-1.726 26.925,3.086 5.773,0.055 11.456,-2.324 17.248,-1.307 3.05,1.997 4.884,5.229 6.863,8.188 6.118,0.472 12.092,1.779 17.883,3.776 5.755,2.215 10.094,-4.194 15.832,-3.395 5.283,-0.672 9.913,2.142 14.851,3.431 11.425,1.682 15.366,-2.701 36.692,5.102 6.409,2.978 10.367,9.277 16.231,13.036 8.733,0.926 19.245,2.778 26.453,-3.468 2.269,-1.561 4.43,-3.758 7.462,-3.395 8.406,-0.073 16.867,-0.436 25.273,0.272 37.983,9.73 49.288,34.832 63.072,32.117 10.839,-7.643 21.75,-15.396 33.769,-21.097 9.586,-1.416 19.318,-0.291 28.777,1.434 15.686,-1.144 32.299,-4.757 47.513,0.962 23.384,2.923 41.05,19.953 61.947,29.10301 36.982,7.552 32.317,2.378 61.202,4.666 6.681,0.472 12.854,3.885 19.681,3.395 9.986,-0.254 20.334,1.235 29.884,-2.505 10.276,-3.595 18.337,5.428 26.87,9.459 11.093,1.561 22.985,-2.197 33.515,2.687 6.627,2.76 14.325,-0.545 20.806,2.796 7.771,4.031 16.83,0.926 25.145,2.36 9.75,2.487 19.445,5.247 28.831,9.023 11.329,2.887 23.167,4.412 33.715,9.84 9.859,5.737 22.313,0.054 32.244,5.81 7.88,3.159 13.235,10.004 20.171,14.597 8.606,1.489 18.083,-1.816 26.017,2.869 39.382,19.915 39.451,12.64 57.208,8.479 12.836,0.418 21.623,12.709 33.878,14.597 5.411,-4.503 9.532,-10.494 15.414,-14.452 30.216,-5.055 55.298,8.996 82.935,24.619 27.766,-16.174 72.334,-12.221 90.505,-14.307 9.227,-3.539 36.86,-25.29 58.025,-15.723 13.199,5.81 27.615,8.461 40.432,15.214 14.252,-7.19 28.559,-14.906 44.209,-18.519 8.805,-4.085 18.591,-5.864 26.852,-11.093 4.63,-3.504 10.73,-2.088 16.122,-2.342 9.495,-0.781 15.777,8.86 24.946,9.368 11.042,-6.765 0.405,-11.778 37.727,-17.23 5.374,-3.558 9.332,-8.842 14.652,-12.509 5.61,-3.577 7.553,-10.639 13.126,-14.306 33.345,-22.28601 13.955,-12.302 75.836,-36.58301 7.753,-1.688 15.941,-2.088 23.185,-5.773 14.408,-10.705 -2.461,-3.156 30.81,-16.485 8.025,-2.614 18.01,2.215 24.764,-4.248 -8.588,-7.262 -20.007,-8.134 -30.683,-9.114 -7.68,0.545 -14.288,5.719 -22.041,5.447 -32.614,-1.626 -40.872,-44.202 -34.623,-74.656 1.58,-6.935 -2.723,-12.981 -3.867,-19.554 -1.761,-6.391 -4.721,-13.145 -11.129,-16.031 -2.36,-1.834 -6.772,-2.723 -6.7,-6.336 -1.198,-9.096 5.174,-16.394 10.403,-23.003 -9.75,-3.631 -10.367,-14.978 -10.693,-23.802 -10.494,-1.67 -23.439,-4.684 -27.669,-15.741 -6.304,-11.356 23.441,-20.493 4.067,-46.097 -8.769,-0.309 -17.593,0.563 -26.308,-0.454 -59.395,-27.898 -7.65,-59.651 11.493,-87.383 35.524,-50.421 37.312,-58.763 24.201,-101.145 0.436,-11.71 -1.634,-23.221 -2.978,-34.804 -0.085,-7.872 7.228,-48.825 6.663,-57.662 -0.454,-8.533 1.561,-16.885 2.015,-25.363 0.944,-12.491 4.158,-25.127 11.638,-35.349 2.07,-8.007 5.356,-15.977 5.029,-24.365 -7.371,-0.399 -14.76,-0.327 -22.114,-0.581 -0.726,-2.106 -1.434,-4.194 -2.07,-6.282 6.137,-3.45 6.59,-11.184 9.023,-17.084 2.651,-5.138 -2.07,-9.84 -2.742,-14.851 -1.071,-4.285 1.816,-8.025 3.486,-11.729 9.441,-2.161 23.239,-5.792 22.622,-17.974 -4.121,-2.796 -8.823,-4.739 -13.853,-3.795 -0.254,-4.394 -0.69,-8.805 -0.581,-13.217 6.01,-10.784 17.284,-16.667 24.873,-26.108 6.082,-3.649 12.473,-6.845 18.01,-11.365 0.036,-5.029 -0.091,-10.058 1.761,-14.851 6.881,-0.617 13.816,-0.091 20.734,-0.617 5.864,-1.452 10.839,-5.247 16.667,-6.935 13.925,-4.612 29.375,2.106 42.865,-4.448 6.245,-3.268 13.798,-3.159 19.553,-7.571 5.483,-4.593 12.763,-1.126 19.154,-1.906 11.492,0.418 20.97,-7.262 32.135,-8.715 7.861,-2.596 16.413,-1.797 24.202,-4.72 7.632,-2.704 15.747,-3.521 23.536,-5.7"
   id="path2" />
</svg>
