<?xml version="1.0" encoding="UTF-8"?>
<svg enable-background="new 0 0 613 2066" version="1.1" viewBox="0 0 613 2066" xmlns="http://www.w3.org/2000/svg">
 <path d="m523.75 865.18c-2.9315-3.8214-2.6854-7.344-1.2094-11.445 1.0397-2.8882 0.9323-5.5404-2.0367-7.8583-2.4139-1.8845-3.4922-4.8605-3.7455-8.367-0.4611-6.3796-2.3257-16.67-3.825-22.888-2.2652-9.3937-4.8982-18.708-7.6355-27.978-5.4365-18.41-13.061-35.823-22.995-52.341-9.7036-16.135-22.392-29.92-33.555-44.897-8.0208-10.762-16.18-21.422-24.098-32.258-2.6538-3.6323-2.1366-7.054 1.3208-9.5223 6.2954-4.4948 11.32-10.059 15.456-16.552 8.6906-13.641 11.596-28.514 8.6503-44.266-2.2482-12.023-7.8121-22.668-15.623-32.19-2.5533-3.1124-4.835-6.4404-5.9177-10.724-1.1927-4.7188-3.593-9.2625-6.1376-13.478-3.4459-5.7086-8.4127-9.9714-14.058-13.698-8.6267-5.6947-15.546-13.553-23.289-20.334-15.012-13.148-29.915-26.436-43.876-40.695-6.2229-6.3557-13.847-12.378-18.974-19.964-3.7504-5.5496-4.0137-12.678-7.5439-18.351-1.652-2.6549-3.9718-4.8981-5.2535-7.7501-0.979-2.1785-1.1-4.7347-0.0089-6.8855 0.8279-1.6321 2.3611-2.5831 2.5328-4.5657 0.5558-6.4158 2.6821-12.462 4.149-18.662 0.8616-3.6415 1.6687-7.3386 1.8085-11.091 0.1212-3.2559-0.9305-5.9573-1.1968-9.0439-0.5532-6.415 2.6348-13.633 5.816-18.999 4.3423-7.3248 10.814-17.11 18.752-20.335 10.112-4.1096 20.166-8.3737 30.049-13.009 7.8015-3.6589 18.262-14.789 12.66-25.2-3.3828-6.288-1.6863-11.481 2.417-16.369 1.8931-2.2545 2.1477-4.4301 0.7041-6.7858-1.6206-2.6447-1.6191-5.2958-0.655-8.1131 1.1208-3.2759 0.7028-6.1925-2.0762-8.5786-0.9962-0.8552-1.8784-1.8679-2.6976-2.9-3.0736-3.8729-2.1456-7.9346 2.3099-10.043 1.6416-0.7769 3.4709-1.1986 5.0281-2.1035 2.6902-1.5637 4.5864-4.0175 4.8337-7.0986 0.2415-3.0073-1.955-4.7303-4.5343-5.9961-1.3132-0.6445-2.5208-1.4846-3.5637-2.5104-6.0221-5.9225-12.088-11.808-17.902-17.931-4.1189-4.3387-7.0625-9.3469-8.1863-15.464-0.7363-4.0082-1.2354-8.0634-2.7866-12.006-3.3865-8.6077-7.2802-16.964-11.343-25.247-3.6327-7.4056-7.4926-14.706-13.632-20.462 0.7372-0.4553 2.7422 0.0361 1.4828-1.8562-0.6171-0.9271-1.6113-1.8654-2.6346-2.218-7.2531-2.4989-8.0316-8.0413-6.8932-14.436 1.0237-5.7513-0.3784-11.17-2.0977-16.522-1.5746-4.9008-6.1393-7.6329-9.2021-11.413-4.5691-5.6394-11.355-8.7521-18.396-10.877-3.2861-0.9918-7.1548-0.5118-9.7175-3.3595-3.7917-4.2133-8.7437-6.5002-13.816-8.5313-6.0942-2.4402-12.589-3.8655-19.046-3.0288-11.479 1.4874-22.952 3.3735-33.356 9.0688-1.0215 0.5591-2.4441 0.5111-2.0798 2.0896 0.2458 1.0654 0.7529 2.4065 2.0356 2.5448 5.1947 0.5604 10.078 3.0236 15.563 1.9886 7.2753-1.3726 14.577-3.1587 22.085-1.5387 0.6187 0.1334 1.8296-0.1224 1.7269 0.4326-0.1534 0.8293-1.297 0.4266-2.0157 0.4413-4.4965 0.0918-9.2019-0.6858-13.449 0.3779-10.017 2.5088-19.948 1.875-29.972 0.8313-2.3683-0.2466-4.6763-0.478-5.441 2.7463-0.5325 2.2449-2.4281 2.2769-4.3882 2.2715-2.4327-0.0068-5.1265-1.0696-7.2627 0.5759-4.8503 3.7365-10.042 7.0382-14.522 11.252-1.6974 1.5968-3.5031 3.1606-3.8907 5.6079-0.7094 4.4766-3.6234 7.3062-7.043 9.8035-8.6875 6.3447-16.912 12.828-22.575 22.56-5.4287 9.3292-13.426 17.178-15.592 28.317-1.0588 5.4453-6.005 9.0488-6.8818 14.599-0.5912 3.7412-0.6772 7.7426-2.1434 11.127-2.9977 6.9199-2.9125 14.464-5.162 21.542-1.2725 4.0039-2.6379 8.0959-3.433 12.361-1.5985 8.5746-3.0612 17.191-5.3175 25.668-1.791 6.7281-4.9626 12.931-6.5061 19.718-2.848 12.524-2.9585 25.591-7.4309 37.77-1.1387 3.1011 0.4392 3.0814 2.5345 2.8345 4.9048-0.5781-0.077 11.003-1.4354 13.257-2.0291 3.3678-4.3787 6.7413-4.8484 10.645-0.7473 6.2107 1.6786 11.635-0.1246 17.909-1.8492 6.4342-2.6514 13.307-6.525 19.09-0.5325 0.7949-0.8013 1.8555-0.9114 2.8248-0.198 1.7432-1.1162 3.9205 0.5771 5.0886 1.5547 1.0726 3.0894-0.2305 4.3196-1.4901 1.3643-1.3969 1.8867-0.7727 1.8564 0.8906-0.0211 1.1617-0.1987 2.2686-0.4951 3.4182-1.6021 6.2139-2.9998 12.48-4.5668 18.704-2.1569 8.5664-2.2633 8.8521-0.2189 16.496 0.1304 0.4879 0.2607 1.3016 0.2832 1.8063 0.2 4.4893-0.05 8.8562-1.4152 13.454-1.6289 5.4863-2.6224 11.155-2.4855 16.876 0.4214 17.615-4.7256 34.261-8.1548 51.21-1.1731 5.7985-2.6196 11.494-5.6814 16.736-0.9734 1.6666-1.7582 5.0809 2.1428 5.099 3.8406 0.0178 3.781 2.2935 3.7329 4.9547-0.09 4.9887-0.1057 9.9784-0.157 14.968-0.0261 2.5314-0.2921 5.0867 3.4219 5.4038 1.1984 0.1023 1.761 1.4479 1.6729 2.7434-0.1301 1.9138 0.7888 3.5435 1.3936 5.2458 2.2556 6.3503 5.7305 12.147 7.7603 18.667 2.5736 8.2672 5.1875 16.787 12.596 22.517 1.2751 0.9861 2.1609 2.4973 3.1569 3.8184 2.1669 2.8738 3.1396 5.925 2.0314 9.6044-1.5142 5.0272-2.855 10.117-4.0219 15.237-2.744 12.038-5.2104 24.134-7.0659 36.349-1.5883 10.456-3.5841 20.861-4.83 31.356-1.231 10.37-1.7007 20.826-2.2886 31.264-0.2798 4.9674-0.6555 9.9596-1.1316 14.928-0.881 9.1936 0.147 23.584 7.3879 30.289 4.0883 3.7852 9.7751 4.9146 14.607 7.4089 4.922 2.5408 9.7074 5.6775 14.346 8.7 4.665 3.0398 9.246 6.2568 13.6 9.73 2.4659 1.9668 4.0112 4.323 6.8501 5.7653 3.7009 1.8802 8.3398 0.9728 10.986 5.9706 0.7384 1.3945 1.1014 2.9678 1.1281 4.5457 0.0779 4.6099-2.1611 8.6162-4.1781 12.596-5.2985 10.454-7.3508 21.735-11.857 32.319-2.5494 5.988-6.7291 10.749-9.6332 16.353-6.7815 13.088-11.03 27.152-18.632 40.066-7.5365 12.803-15.866 25.114-23.609 37.79-15.274 25.006-27.964 52.104-26.678 82.098 1.7914 41.797 26.297 85.276 55.617 114.23 6.4551 6.3739 14.248 13.157 16.891 22.18 2.6641 9.0952 3.2988 19.749 4.4771 29.194 0.7971 6.3901 1.271 12.835 2.3905 19.167 1.9677 11.13 2.9442 22.386 3.4662 33.607 0.8032 17.27-0.9875 34.669 1.3049 51.86 1.9822 14.866 1.8142 29.803 2.7283 44.695 1.3573 22.114-0.7908 44.147-2.7075 66.183-1.165 13.394-4.5244 26.424-5.4741 39.86-0.6951 9.832-1.4568 19.617 0.5383 29.259 1.2571 6.0754 3.2794 14.629 2.8718 20.788-0.5398 8.1566-4.5062 17.173-6.6445 25.065-12.074 44.567-24.24 89.804-23.961 135.98 0.1313 21.714 3.0226 43.305 5.9088 64.826 1.9374 14.446 3.8748 28.892 5.812 43.338 2.2119 16.492 6.1306 34.404 5.3251 50.698-0.9497 19.209 3.8688 40.338 5.7582 59.498 1.6185 16.414 3.24 32.881 3.0505 49.395-0.0917 7.9985 0.2402 17.38-1.9252 25.139-1.5186 5.4413-3.6232 10.707-4.9406 16.206-0.6008 2.5083-0.6133 3.7611-2.0514 5.8804-1.5101 2.2253-2.8401 4.4503-3.7335 7.0044-1.9458 5.5625-1.9482 11.589-1.9293 17.482l0.0162 5.0586c0.0706 21.875 17.823 39.57 39.698 39.57h315.6c20.293 0 36.946-31.553 12.838-40.209-6.2594-2.2474-11.524-2.6477-17.24-6.2648-6.5589-4.1508-13.583-8.2886-20.478-12.167-7.1183-4.004-14.616-7.4637-21.079-12.501-12.095-9.4261-21.761-21.986-27.684-36.136-2.8102-6.7124-4.4349-13.814-6.5313-20.733-3.449-11.384-4.9783-23.28-4.3967-35.16 0.7302-14.925 2.2583-29.811 4.572-44.574 1.6128-10.29 3.6074-20.521 5.9797-30.663 3.0031-12.839 7.9778-25.053 11.032-37.828 3.0002-12.547 5.0498-25.343 8.0544-37.908 6.0077-25.124 13.095-49.97 20.069-74.838 5.3435-19.053 10.633-38.122 15.327-57.342 4.5781-18.744 7.3931-37.988 13.191-56.395 3.2203-10.225 6.9648-20.284 11.218-30.124 2.3728-5.4893 4.5812-10.772 6.5961-16.273 2.2521-6.1479 6.6954-11.303 7.2516-18.076 0.9093-11.098 4.0262-21.719 6.5811-32.409 2.9033-12.149 3.5979-24.163 1.6614-36.407-1.5243-9.6384-5.0525-18.726-7.7968-28.031-2.8939-9.8125-6.7526-19.307-9.3503-29.22-3.3007-12.594-6.1151-25.38-10.428-37.63-6.1985-17.606-11.016-35.62-16.963-53.277-4.1494-12.322-7.4856-24.903-12.21-37.048-2.8396-7.2998-5.2712-14.751-7.4673-22.27-4.2231-14.458-8.219-29.019-13.647-43.054-5.3331-13.791-10.088-27.783-15.347-41.592-4.2903-11.266-9.4224-22.163-14.932-32.89-6.0431-11.765-12.813-23.118-19.443-34.548-1.5929-2.7466-1.938-4.9639-0.2117-7.8104 2.8132-4.6385 5.7625-9.2323 7.6577-14.386 0.3811-1.0363 1.2842-1.9044 2.0294-2.7794 6.4852-7.6158 15.728-11.176 23.933-16.27 8.157-5.0637 16.935-8.8239 25.679-12.701 2.8054-1.244 4.7361-1.3881 7.1172 0.8143 5.3188 4.9194 9.9125 4.1207 13.609-2.2716 1.5602-2.6982 3.1399-3.4303 5.9786-1.7811 7.3317 4.2593 11.358 2.5632 13.85-5.4231 0.8134-2.6067 2.1168-4.9367 5.6094-4.4946 6.3303 0.8012 8.9707-0.3125 11.013-6.2869 1.4468-4.2318 3.3914-7.2775 7.5938-8.9238 1.1521-0.4514 2.3054-1.5377 2.6288-2.8815 1.6078-6.6824 4.5016-13.476 1.7808-20.288-2.3483-5.879-1.8636-11.125 0.5436-16.685 3.41-7.8767 6.1012-16.091 7.4807-24.511 0.9302-5.6767 3.0283-9.9083 7.6357-13.17 3.7819-2.6769 5.1244-7.7002 2.4091-11.24zm-191.97-745.02c-0.4495-0.2051-0.6665-0.5735-0.7693-1.022 0.4966 0.1557 0.8396 0.4295 0.7693 1.022zm-53.344-60.29c0.1005 0.0796 0.1382 0.3003 0.1191 0.4451-0.0112 0.0865-0.1887 0.1511-0.2915 0.2257-0.1055-0.1157-0.2817-0.2194-0.3037-0.3492-0.0797-0.472 0.1195-0.6044 0.4761-0.3216zm-33.596-1.0817c-2.6948 0.6089-5.2778 0.3954-7.9177 0.3062-0.5016-0.017-1.4412 0.3153-1.4302-0.6788 0.0042-0.3821 0.4868-1.0457 0.823-1.0952 8.7181-1.2837 17.374-5.8606 26.25-1.5449 4.5791 2.2263 9.9812 3.3579 13.116 8.0444 0.2853 0.4265 2.1416 0.1616 0.6039 1.3152-2.2734 1.7056-9.9812 0.7583-12.581-1.4573-0.4749 0.0485-0.9492 0.101-1.4244 0.1443-0.4742 0.0435-0.9495 0.0776-1.4242 0.1157 0.0105-0.2251 0.0211-0.4502 0.0317-0.6755 0.4658 0.0756 0.9308 0.1578 1.3979 0.2246 0.4622 0.0659 0.9264 0.1161 1.3896 0.1732 0.6368 0.2817 1.5226 0.4402 1.824-0.0988 0.676-1.208-0.2778-1.657-1.266-2.1196-6.1978-2.9019-12.671-4.1724-19.393-2.6535zm103.27 1417.5c-1.9293 5.8672-3.7578 11.77-5.6362 17.653-1.8788 5.8848-3.7576 11.77-5.6364 17.654-1.5046 4.7129-5.2607 11.571-5.2607 16.477-8.5303 26.719-17.012 53.587-21.94 81.249-2.4312 13.647-3.9879 27.472-4.145 41.342-0.0809 7.1536 0.4441 14.209 0.9102 21.337 2.1158 32.35-0.5779 65.289-1.3772 97.675-0.8167 33.086-1.6233 66.173-2.498 99.258-0.3611 13.584-4.6873 26.844-5.9169 40.404-1.4323 15.795-6.0751 31.02-14.257 44.912-2.2136 3.7583-3.9524 4.7197-7.5696 2.2841-7.4879-5.042-15.534-8.6254-24.156-11.172-4.3029-1.2706-6.8949-5.0912-10.068-7.9672-4.4098-3.9976-9.3821-8.0751-10.9-13.848-2.3132-8.8-7.1914-16.626-8.8296-25.64-0.7034-3.87-2.0819-7.7102-3.7468-11.288-1.9183-4.1222-2.2499-8.2567-1.7961-12.633 1.0631-10.253 1.366-20.552 0.626-30.817-2.032-28.18 9.9307-52.958 13.113-80.347 1.5134-13.026 1.4023-26.421 2.6862-39.536 2.7589-28.185 7.144-56.178 11.411-84.164 3.1877-20.906 7.0603-41.722 8.8049-62.847 1.2673-15.345-1.4767-33.532 3.7122-47.901 2.9771-8.2472 6.5508-16.276 10.688-24.003 9.4824-17.712 17.513-35.896 24.614-54.779 3.6798-9.7866 3.9333-20.337 6.9429-30.287 4.3103-14.251 5.5444-29.107 8.1748-43.69 0.3306-1.8326 0.5773-4.2494 3.1493-4.5251 2.4487-0.2626 2.8236 2.1202 3.5385 3.6115 3.9606 8.262 9.9695 15.258 14.155 23.392 6.2687 12.183 13.041 24.147 17.303 37.219 2.7112 8.3162 4.2947 16.949 4.9424 25.426-1.2632 5.4163 0.8159 9.913-1.0378 15.55z"/>
 <path d="m459.52 1591.5c0.2875 0.0419 0.5751 0.0837 0.8626 0.1256-0.4253 0.8518-0.5549-0.2411-0.8673-0.1318l0.0047 0.0062z"/>
</svg>
