<?xml version="1.0" encoding="UTF-8" standalone="no"?>
<svg
   xmlns:dc="http://purl.org/dc/elements/1.1/"
   xmlns:cc="http://creativecommons.org/ns#"
   xmlns:rdf="http://www.w3.org/1999/02/22-rdf-syntax-ns#"
   xmlns:svg="http://www.w3.org/2000/svg"
   xmlns="http://www.w3.org/2000/svg"
   xmlns:sodipodi="http://sodipodi.sourceforge.net/DTD/sodipodi-0.dtd"
   xmlns:inkscape="http://www.inkscape.org/namespaces/inkscape"
   width="700.79395pt"
   height="1806.2246pt"
   version="1.1"
   viewBox="0 0 700.79395 1806.2246"
   id="svg4"
   sodipodi:docname="alone_standing_female3.svg"
   inkscape:version="1.0.2 (e86c870879, 2021-01-15)">
  <metadata
     id="metadata10">
    <rdf:RDF>
      <cc:Work
         rdf:about="">
        <dc:format>image/svg+xml</dc:format>
        <dc:type
           rdf:resource="http://purl.org/dc/dcmitype/StillImage" />
        <dc:title></dc:title>
      </cc:Work>
    </rdf:RDF>
  </metadata>
  <defs
     id="defs8" />
  <sodipodi:namedview
     pagecolor="#ffffff"
     bordercolor="#666666"
     borderopacity="1"
     objecttolerance="10"
     gridtolerance="10"
     guidetolerance="10"
     inkscape:pageopacity="0"
     inkscape:pageshadow="2"
     inkscape:window-width="1920"
     inkscape:window-height="997"
     id="namedview6"
     showgrid="false"
     fit-margin-top="0"
     fit-margin-left="0"
     fit-margin-right="0"
     fit-margin-bottom="0"
     inkscape:zoom="0.20549246"
     inkscape:cx="366.87169"
     inkscape:cy="1130.1411"
     inkscape:window-x="0"
     inkscape:window-y="0"
     inkscape:window-maximized="1"
     inkscape:current-layer="svg4" />
  <rect
     style="fill:#ffffff;stroke-width:4.25197;stroke-linecap:square;stroke-linejoin:round;stroke-dasharray:8.50395, 8.50395"
     id="rect835"
     width="700.79395"
     height="1806.2246"
     x="0"
     y="0" />
  <path
     d="m 400.6334,69.871552 c -21.8304,2.02 -44.2096,14.6904 -52.7504,35.590398 -25.2096,29.34 -36.4712,67.4096 -44.6112,104.48 -4.89,25.62 -10.04,51.94 -4.65,77.9296 -5.15,19.04 1.94064,37.2408 10.5904,53.8408 -18.1504,11.9696 -41.6,7.73904 -59.88,19.2888 -13.64,6.17 -18.68,20.72 -28.3704,30.82 -8.8496,28.8896 -16.54,58.2 -25.78,87.032 -10.3904,29.84 5.10904,59.2704 9.3888,88.688 10.92,29.3296 -2.95936,59.04 -2.45936,89.424 0.22,45.36 6.49904,90.392 9.3888,135.6 -0.37,37.0704 10.72,72.7496 17.1704,108.928 -0.36,26.0896 -0.97904,52.2496 -2.28904,78.3504 1.72,-0.19 3.42936,-0.49 5.15936,-0.65 -4.85,37.71045 -8.5104,75.55925 -12.6704,113.33605 -6.59,35.0896 -15.7696,69.8008 -27.5096,103.512 -11.9296,28.9104 -31.1008,54.1888 -42.7608,83.24 -18.4304,46.6304 -22.0296,97.184 -30.88,146.12 -7.91,41.02 -10.18,84.864 -32.529599,121.392 -5.92,8.18 -1.16968,18.5288 -4.92968,27.2392 -11.96,37.02 -12.5704,77.3208 -25.0704,113.744 v 18.4408 c 1.13,13.6704 14.1,20.9792 24.42,27.6592 h 8.0704 c 18.049599,-5.61 48.019199,-5.68 49.639199,-29.9504 2.85,-66.38 -8.32,-137.52 22.8704,-199.056 23.8896,-47.0304 41.5904,-97.272 70.12,-141.872 21.84,-38.1 17.9704,-85.632 42.92,-122.072 27.88,-43.3504 34.74,-95.768 55.68,-142.328 16,-46.02 46.7696,-85.72 60.5096,-132.48805 5.9,-13.2496 11.3696,-26.6992 17.1504,-39.9888 13.96,1.31 27.8808,3.55872 41.9904,2.66872 -1.39,27.4304 7.77968,53.7208 12.2296,80.46403 12.64,57.7904 5.60064,117.776 15.2408,175.776 18.4,42.24 -0.25062,88.688 11.8096,132.208 9.74,32.5504 12.7296,66.4704 18.1296,99.872 3.92,30.88 11.46,62.08 5.62968,93.248 -1.25,47.58 5.21096,95.04 5.11096,142.808 -0.25,23.6 28.8992,24.3792 45.9096,28.4392 25.88,0.57 41.7696,-31.82 27.1504,-52.6296 -5.59,-32.6096 -13.74,-64.8496 -23.1704,-96.6 0.28,-8.9504 2.57128,-18.0704 0.13125,-26.9504 -7.7,-33.38 1.97904,-67.2 5.53904,-100.472 5.39,-50.22 18.6696,-100.432 12.0296,-151.192 -4.63,-32.7504 -18.8592,-64.1504 -16.1888,-97.824 -1.84,-66.88 18.8288,-131.008 28.5888,-196.52003 5.72,-21.1 18.56,-39.8896 23.9504,-61.1504 1.49,-17.68 7.63064,-34.2296 8.5408,-51.9296 v -19.7 c -16.8304,-57.0496 -21.84,-116.8 -35.08,-174.664 -5.32,-23.02 -24.2408,-45.6992 -15.1904,-69.4096 1.29,-27.3296 13.7504,-53.3792 11.5704,-80.912 -4.69,-28.46 -19.92,-53.6512 -27.92,-81.16 -7.99,-31.8704 -34.9688,-60.0904 -69.2888,-61.72 2.57,-16.7 -1.92096,-33.5488 -0.41094,-50.2392 4.58,10.1696 0.92968,27.9088 8.9296,32.9392 1.88,-10.6704 9.2912,-20.2984 15.7816,-29.3688 0.4,-40.34 -1.84096,-82.744 -17.0608,-120.28 3.24,-9.04 1.91096,-20.3192 -6.63904,-25.9392 -3.53,-10.6304 -0.63062,-22.6696 -4.14064,-33.5496 -4.19,-18.3296 -20.1496,-29.84 -30.48,-44.519998 -14.3904,-10.3904 -32.02,-15.5696 -49.5,-17.9504 h -9.1296 z m 93.56,462.919998 c 4.52,15.56 8.8008,31.8 13.3408,47.58 -0.13,12.2704 2.59936,24.8296 8.9096,35.4096 4.2,17.8496 3.96,36.4408 8.7504,54.1904 0.5,2.07 -2.02064,-0.27031 -2.14064,-1.07032 -5.2,-16.5504 -21.16,-26.8896 -26.5504,-43.4096 -9.06,-30.2496 -1.03936,-64.4304 -2.30936,-92.704 z m -223.768,65.3096 c 9.86,31.5104 26.6608,62.3296 22.6408,96.48 -4.55,30.1104 -3.27064,60.88 -12.8904,90.12 -12.36,11.62 -19.4296,29.7696 -25.68,43.0496 -9.54,-63.34 16.7304,-126.592 12.2408,-190.44 -2.02,-13.24 1.01904,-26.3312 3.68904,-39.2112 z"
     id="path2"
     style="stroke-width:0.8" />
</svg>
