<?xml version="1.0" encoding="UTF-8" standalone="no"?>
<svg
   xmlns:dc="http://purl.org/dc/elements/1.1/"
   xmlns:cc="http://creativecommons.org/ns#"
   xmlns:rdf="http://www.w3.org/1999/02/22-rdf-syntax-ns#"
   xmlns:svg="http://www.w3.org/2000/svg"
   xmlns="http://www.w3.org/2000/svg"
   xmlns:sodipodi="http://sodipodi.sourceforge.net/DTD/sodipodi-0.dtd"
   xmlns:inkscape="http://www.inkscape.org/namespaces/inkscape"
   version="1.1"
   width="910.41614"
   height="2472.894"
   viewBox="0 0 910.41613 2472.894"
   id="svg17"
   sodipodi:docname="alone_standing_female9.svg"
   inkscape:version="1.0.2 (e86c870879, 2021-01-15)">
  <metadata
     id="metadata23">
    <rdf:RDF>
      <cc:Work
         rdf:about="">
        <dc:format>image/svg+xml</dc:format>
        <dc:type
           rdf:resource="http://purl.org/dc/dcmitype/StillImage" />
        <dc:title></dc:title>
      </cc:Work>
    </rdf:RDF>
  </metadata>
  <defs
     id="defs21" />
  <sodipodi:namedview
     pagecolor="#ffffff"
     bordercolor="#666666"
     borderopacity="1"
     objecttolerance="10"
     gridtolerance="10"
     guidetolerance="10"
     inkscape:pageopacity="0"
     inkscape:pageshadow="2"
     inkscape:window-width="1920"
     inkscape:window-height="997"
     id="namedview19"
     showgrid="false"
     fit-margin-top="0"
     fit-margin-left="0"
     fit-margin-right="0"
     fit-margin-bottom="0"
     inkscape:zoom="0.24180328"
     inkscape:cx="382.51625"
     inkscape:cy="1288.6194"
     inkscape:window-x="0"
     inkscape:window-y="0"
     inkscape:window-maximized="1"
     inkscape:current-layer="svg17"
     inkscape:document-rotation="0" />
  <rect
     style="fill:#ffffff;stroke-width:5.66929;stroke-linecap:square;stroke-linejoin:round;stroke-dasharray:11.3386, 11.3386"
     id="rect834"
     width="910.41614"
     height="2472.894"
     x="0"
     y="0" />
  <g
     id="g6"
     transform="matrix(4.4209536,0,0,4.4209536,-1236.3983,-1034.149)">
    <g
       id="g4"
       style="fill:#000000;fill-opacity:1;stroke-linejoin:miter">
      <path
         inkscape:connector-curvature="0"
         id="path2"
         d="m 427.1348,312.44232 c 0.54608,0.44895 1.03613,0.90656 1.27285,1.59228 0.23885,0.6918 0.22458,1.62434 0.176,2.61478 l -1.49759,-2.27395 0.0462,-1.93311 z m -6.61145,-3.41418 c 0.90325,1.70496 1.73385,3.38763 2.20883,5.00036 0.47582,1.61536 0.5957,3.1639 0.64892,4.71042 l -2.86026,-9.71078 z m -54.25657,3.62881 c 1.01242,1.99225 2.03449,3.99088 3.30408,5.79515 1.26441,1.79677 2.7724,3.3981 4.27824,4.98696 h -0.002 l -4.99497,3.721 c 0.28862,-1.29726 0.5137,-2.63684 -0.1879,-3.86566 -0.388,-0.67956 -1.057,-1.31848 -1.74383,-1.9762 -0.66555,-0.63735 -1.35483,-1.29806 -1.87302,-2.05322 -1.06033,-1.54528 -1.40298,-3.48434 -1.06439,-4.64752 0.31921,-1.09674 1.25238,-1.52948 2.28192,-1.96051 z m -4.59358,19.33245 -0.1198,0.0124 h -2e-5 z m -50.2234,9.45445 -3.3349,0.0402 3.33487,-0.0402 z m 113.1488,-8.25141 v 0 c 2.90894,2.68531 5.66507,5.29123 7.0147,7.21988 1.35096,1.93073 1.28105,3.16738 1.0891,4.36468 l -8.10633,-11.58456 z m -113.14877,8.25141 24.10562,7.16241 v 0 l -24.10565,-7.16241 z m -7.37186,91.90075 c -6.7e-4,0 -10e-4,0 -0.002,0 h -9.2e-4 c 4.9e-4,0 0.001,0 0.002,0 z m 96.58036,23.69867 0.0382,0.62326 v 1.3e-4 z m 17.21115,-64.27287 c 1.2109,1.2553 2.46667,2.59813 4.95379,6.3496 2.58029,3.89218 6.48233,10.37146 10.38986,16.86074 h -0.003 c -0.19269,1.30832 -0.38138,2.66562 0.50144,4.13163 0.86608,1.43833 2.76434,2.97567 4.64962,4.49179 h -0.003 c -0.44882,0.57736 -0.90035,1.18579 -1.12241,2.00034 -0.22434,0.82256 -0.212,1.84826 -0.19144,2.8572 h -0.003 c -2.22645,1.7393 -4.45825,3.48596 -6.71285,5.58957 -2.26646,2.11465 -4.55482,4.58887 -6.83882,7.05981 l -0.0304,0.0328 h 5e-5 c -0.0405,0.0439 -0.0485,0.10868 -0.0199,0.16108 l 0.48053,0.87768 -22.91888,15.4285 -0.001,-0.0466 h -0.002 c 0.0181,-0.0251 0.028,-0.0564 0.0259,-0.0898 l -0.0503,-0.82059 -0.004,-0.1376 c -2.4e-4,-0.01 -0.002,-0.0196 -0.004,-0.029 h -0.002 l -0.0878,-1.43411 c -0.002,-0.0369 -0.0191,-0.0713 -0.0469,-0.0958 l -6.36878,-5.61157 -4.68807,-9.19196 h -10e-4 c 1.62983,-0.93734 3.25643,-1.89514 4.13165,-6.78714 0.85916,-4.8022 1.00213,-13.43283 1.13574,-22.09445 h -0.002 c 0.006,-10e-4 0.0123,-0.003 0.0184,-0.006 2.87345,-1.0774 5.76044,-2.1599 9.5886,-5.43802 3.79208,-3.24731 8.50985,-8.65146 13.2239,-14.05858 z m -77.64975,249.89995 22.44803,0.67029 h -6.6e-4 l -22.4482,-0.67029 z m 116.75781,104.21685 -1.5445,0.83124 1.54444,-0.83124 z M 385.88815,250.3991 c -4.22851,0 -8.15505,1.16297 -12.05915,2.33361 -0.0127,-0.004 -0.0257,-0.005 -0.0386,-0.005 -0.0405,0 -0.0799,0.0177 -0.10657,0.0496 h -0.002 c -4.2e-4,1.5e-4 -8.8e-4,2.5e-4 -10e-4,3.8e-4 -0.0734,0.022 -0.1152,0.0995 -0.0931,0.17294 h 2.3e-4 c -0.80907,1.50626 -1.65886,2.98052 -4.171,4.1797 -0.351,0.16748 -0.73435,0.32965 -1.14637,0.50392 -2.66375,1.12658 -6.37343,2.69835 -8.97993,8.9937 -2.99275,7.22858 -4.53505,20.7067 -6.07274,34.15735 l -0.006,0.055 h -0.002 c -1.4375,5.30561 -2.87977,10.63196 -2.99243,15.58673 -0.1127,4.95856 1.10555,9.56214 3.2196,12.15345 1.8987,2.32748 4.5066,3.01358 7.14532,3.52235 h -0.002 l -7.13187,0.7374 c -0.0219,-0.0515 -0.0726,-0.0844 -0.12762,-0.0844 -0.0118,0 -0.0237,0.002 -0.0356,0.005 -4.3625,1.15274 -8.78324,2.3164 -11.73792,6.9609 -2.76248,4.34235 -4.23666,11.72504 -5.62805,19.2535 l -0.0866,-10.47328 c -5.3e-4,-0.0611 -0.0408,-0.11465 -0.0993,-0.13214 L 311.509,341.17218 c -0.0129,-0.004 -0.0264,-0.006 -0.0398,-0.006 h -10e-4 l -9.48514,0.1145 c -0.0768,9.2e-4 -0.13818,0.0638 -0.13727,0.14057 5.8e-4,0.05 0.0275,0.0935 0.0674,0.11749 h -10e-4 l 1.20208,62.1947 h -10e-4 c -0.87146,0.0511 -1.74509,0.10574 -2.51636,0.22763 -0.84613,0.13358 -1.59439,0.3512 -2.08252,0.75491 -0.94729,0.78332 -0.85245,2.21274 -0.76297,3.53742 h -10e-4 c -1.71503,2.04666 -3.4461,4.1149 -4.05943,5.4823 v 0 c -0.62877,1.40204 -0.1003,2.10083 0.41908,2.74252 h -0.001 l -0.0133,2.78718 h -0.001 c -0.60452,0.71084 -1.28506,1.5085 -1.11371,2.24615 v 0 c 0.16647,0.71631 1.13349,1.31905 2.02977,1.87207 h -10e-4 c -0.20478,1.09098 -0.40537,2.22188 -0.0629,3.25015 0.34915,1.04825 1.25809,1.97348 2.13626,2.86755 h -10e-4 c 0.64325,1.44345 1.31052,2.94181 2.49075,3.67521 0.89988,0.55907 2.0853,0.66547 3.31205,0.66547 0.34855,0 0.70041,-0.009 1.05001,-0.0178 h 10e-4 l -0.12064,7.44133 c -10e-4,0.0699 0.0499,0.12974 0.11911,0.1397 l 20.78325,2.9986 h -0.002 c -0.81018,0.9316 -1.61226,1.92678 -1.91606,4.12124 -0.3132,2.26229 -0.0973,5.81016 0.11686,9.33546 h -10e-4 c -1.15897,6.368 -2.32141,12.7577 -2.07105,17.72896 0.25013,4.96724 1.90982,8.51449 3.56398,12.03421 h -0.002 c -0.2239,0.87039 -0.44983,1.76849 -0.34689,2.7193 0.10336,0.95513 0.53803,1.95473 0.96383,2.92941 h -0.002 c -0.33388,2.85187 -0.66742,5.7142 -0.63095,8.63596 0.0365,2.92639 0.44403,5.90942 0.85117,8.88269 h -10e-4 c -0.52783,1.69957 -1.0646,3.42957 -1.07724,4.49657 -0.0132,1.1162 0.54284,1.5297 1.05936,1.9108 l 0.004,0.003 v 6e-5 c 0.007,0.005 0.0145,0.01 0.0221,0.0133 h -0.002 c 0.10112,5.099 0.24482,10.48033 2.65237,31.07336 2.45313,20.98322 7.25659,57.75873 12.06025,94.53644 0.009,0.0675 0.0655,0.11877 0.13363,0.12079 l 22.56595,0.67384 h -0.002 c 1.36458,19.2117 2.72142,38.3936 2.05113,52.4487 -0.67208,14.0923 -3.38247,23.0292 -6.50958,32.0799 -3.12865,9.0553 -6.67117,18.2153 -8.81505,22.9743 -2.03132,4.509 -2.7955,5.03835 -3.4663,5.3722 h -0.002 c -0.0219,0.005 -0.0429,0.0148 -0.061,0.0304 -10e-4,10e-4 -0.002,0.002 -0.004,0.003 h -0.002 c -0.0147,0.007 -0.0295,0.0144 -0.0441,0.0215 -0.0346,0.0169 -0.059,0.0462 -0.0705,0.0799 h -0.002 c -0.67516,0.57801 -1.41324,1.16277 -3.32803,1.90277 -2.0412,0.7889 -5.40985,1.7505 -8.78923,2.715 -0.0567,0.0161 -0.097,0.0663 -0.10054,0.12515 l -7e-4,0.0118 v 3e-5 c -0.0783,1.30357 -0.15671,2.62217 0.1188,4.25403 0.27539,1.6319 0.90442,3.57424 1.52869,5.50299 0.0128,0.0396 0.0426,0.0714 0.0813,0.0866 l 0.0308,0.012 -4e-5,5e-5 c 2.2435,0.88379 4.4963,1.76985 7.30338,2.54045 2.81937,0.7741 6.19895,1.4321 9.7005,1.6362 0.90305,0.0526 1.81409,0.0751 2.73078,0.0751 2.3439,0 4.725,-0.14656 7.10594,-0.30896 h 0.002 c 0.0256,0.0297 0.0634,0.0484 0.1052,0.0484 0.003,0 0.006,-2e-4 0.008,-3e-4 2.68997,-0.1572 5.47815,-0.31104 7.05423,-2.9366 0.20966,-0.3491 0.3967,-0.7402 0.56818,-1.1659 0.49846,-1.23735 0.8717,-2.7844 1.27914,-4.4718 0.49972,-2.06957 1.0528,-4.3596 1.95319,-6.59453 1.8418,-4.57187 5.14038,-8.92352 8.49051,-13.28727 h 0.002 l 0.40476,24.7426 c 5.8e-4,0.0369 0.0159,0.072 0.0425,0.0977 0.0259,0.025 0.0604,0.0388 0.0963,0.0388 h 0.003 l 2.58426,-0.0512 c 0.0713,-10e-4 0.12998,-0.0565 0.13578,-0.1276 0.70706,-8.72565 1.41387,-17.4466 2.03195,-22.6029 0.59051,-4.92616 1.09925,-6.5914 1.60355,-8.1145 h -0.002 c 0.0221,-0.012 0.0412,-0.03 0.0546,-0.0534 1.7313,-3.02754 3.5017,-6.11164 2.8814,-9.52324 -0.61746,-3.3961 -3.60443,-7.095 -6.55176,-10.7512 -0.004,-0.005 -0.008,-0.009 -0.0121,-0.0132 h -0.002 c -0.57846,-3.31514 -1.1142,-6.68764 -0.49048,-12.00453 0.64756,-5.52007 2.54474,-13.13567 3.79389,-17.89567 1.16995,-4.45846 1.76825,-6.4002 2.33075,-8.1842 h 0.002 c 5.42216,10.43357 10.82108,20.82736 14.34846,28.04697 3.56853,7.30389 5.2169,11.34993 6.21624,15.1944 0.38574,1.48413 0.67511,2.93953 0.96573,4.40087 0.46213,2.32446 0.92685,4.66291 1.78628,7.13172 0.14792,0.42494 0.30759,0.85388 0.4758,1.28334 0.79355,2.0273 1.78113,4.0824 2.65168,5.8937 0.69067,1.4372 1.306,2.718 1.6968,3.7163 0.93727,2.39426 0.57254,3.13187 0.17041,3.80246 h -0.002 c -0.0412,0.015 -0.0746,0.0492 -0.0868,0.0947 -0.46792,1.7443 -0.93062,3.46935 -2.92513,5.6648 -0.5087,0.56 -1.11767,1.1513 -1.75217,1.7672 -1.8451,1.79107 -3.94247,3.81713 -4.20355,5.8105 -0.35147,2.6827 2.61893,5.2331 5.47061,7.69883 h 4e-5 l 0.007,0.006 v 7e-5 c 0.0263,0.0226 0.0587,0.0338 0.0908,0.0338 0.0379,0 0.0756,-0.0154 0.10288,-0.0455 h -0.002 c 5.34672,-0.0486 10.72742,-0.0962 15.0214,-1.68464 4.29947,-1.59045 7.4993,-4.7212 10.67529,-7.8259 0.0549,-0.0537 0.0559,-0.1417 0.002,-0.19655 -0.004,-0.004 -0.009,-0.008 -0.0132,-0.0118 h -0.003 c -0.9445,-8.0651 -1.87923,-16.10034 -1.46895,-22.1397 0.40298,-5.9315 2.10403,-9.9387 3.84055,-13.9211 h 0.003 l 11.61371,21.02186 c 0.0253,0.0459 0.0727,0.0718 0.1217,0.0718 0.0227,0 0.0458,-0.006 0.067,-0.0173 0.0341,-0.0188 0.0571,-0.0497 0.0667,-0.0845 h -0.003 l 1.80242,-0.97003 c 0.0611,-0.033 0.0885,-0.1057 0.0644,-0.1707 -3.09875,-8.3509 -6.19473,-16.6947 -7.83868,-22.21504 -1.64182,-5.51312 -1.8338,-8.20546 -2.02652,-10.90196 -0.002,-0.0233 -0.009,-0.0457 -0.0218,-0.0654 -1.57303,-2.44585 -3.16497,-4.9254 -5.63153,-6.47795 -2.46294,-1.55042 -5.78764,-2.16955 -9.07547,-2.78375 -0.009,-10e-4 -0.0172,-0.002 -0.0257,-0.002 -0.0222,0 -0.0434,0.005 -0.0624,0.0149 -3.1141,-2.2463 -6.19802,-4.497 -8.57436,-8.50964 -1.73078,-2.92266 -3.08845,-6.78302 -4.86707,-11.84286 -0.69391,-1.97397 -1.45121,-4.12827 -2.31923,-6.47775 -3.09023,-8.3645 -7.58025,-19.19225 -10.62782,-26.3515 -3.02248,-7.1001 -4.62641,-10.59305 -6.21952,-14.05765 h -0.002 c 2.90866,-0.7907 5.78418,-1.5777 7.59912,-2.2138 1.89481,-0.6639 2.64011,-1.16544 3.38141,-1.665 0.0637,-0.0429 0.0804,-0.1292 0.0375,-0.1928 -0.0138,-0.0205 -0.032,-0.0361 -0.0526,-0.0465 h -0.002 l -5.92678,-112.50872 0.0798,-0.0349 h 0.002 c 0.007,0.001 0.0145,0.002 0.0219,0.002 0.0143,0 0.0288,-0.002 0.0431,-0.007 0.98332,-0.32123 1.94326,-0.67456 2.18344,-3.8113 0.23728,-3.0984 -0.21787,-8.97975 -0.67087,-14.8407 l -3.7e-4,-0.004 c -0.41043,-3.85116 -0.81998,-7.69482 -0.92746,-10.51152 -0.0365,-0.957 -0.0382,-1.79555 -0.0397,-2.55327 -0.001,-0.62005 -0.002,-1.18786 -0.0226,-1.71887 -0.0278,-0.72746 -0.0916,-1.39139 -0.24247,-2.03882 -0.21044,-0.90371 -0.5892,-1.76776 -0.98017,-2.66086 -0.34304,-0.7835 -0.69683,-1.59201 -0.96743,-2.4851 v -6e-5 c -0.58102,-1.91764 -0.78137,-4.23404 -0.98277,-6.57012 -0.005,-0.0543 -0.0401,-0.0987 -0.0876,-0.11738 h -0.002 l -0.0168,-0.1326 h -0.002 c 8.51252,-3.73676 17.01544,-7.47072 23.16388,-10.4224 6.13284,-2.94427 9.923,-5.1102 13.69144,-7.26825 h 0.003 l 2.3141,2.29871 h -0.003 c -0.003,0.0345 0.006,0.0705 0.0292,0.0999 0.0274,0.0347 0.068,0.0528 0.1091,0.0528 0.0163,0 0.0328,-0.003 0.0486,-0.009 h 0.003 c 0.005,5.7e-4 0.0107,8.7e-4 0.0161,8.7e-4 0.0357,0 0.0715,-0.0137 0.0986,-0.041 0.0204,-0.0205 0.0331,-0.0456 0.038,-0.072 h -0.003 c 2.46912,-1.95001 4.93671,-3.90482 6.43628,-5.52231 1.50218,-1.62024 2.03543,-2.90381 2.5448,-4.1673 h -0.003 c 1.34882,-0.20697 2.71466,-0.42277 4.31252,-1.03155 1.62355,-0.61872 3.49376,-1.64575 4.79618,-2.9382 1.28982,-1.28 2.01442,-2.81322 2.72248,-4.3245 h -0.003 c 1.16848,-0.4769 2.3563,-0.96762 3.52388,-1.96682 1.17792,-1.008 2.33124,-2.53077 3.47214,-4.036 0.034,-0.045 0.0366,-0.10396 0.0112,-0.15047 h -0.003 c 0.005,-0.0192 0.007,-0.0399 0.003,-0.0609 -1.27487,-7.17732 -2.55194,-14.37024 -5.94251,-22.25839 -2.28241,-5.31009 -5.52121,-10.93223 -9.04573,-16.78043 -0.84736,-1.40597 -1.71202,-2.82635 -2.5834,-4.25775 -0.887,-1.45709 -1.78127,-2.92609 -2.6739,-4.40723 -5.39893,-8.95834 -10.72556,-18.3403 -16.05335,-27.72622 l -0.0367,-0.0647 0.21766,-3.65228 h -0.003 c 0.0157,-0.0183 0.0269,-0.041 0.0314,-0.0665 0.73639,-4.19736 1.48028,-8.42742 0.30293,-12.96572 -1.16237,-4.48045 -4.19597,-9.2523 -7.2325,-14.00212 h -0.003 c 0.99026,-1.35726 1.98001,-2.73443 2.625,-4.28475 0.66713,-1.60358 0.96286,-3.38688 1.25598,-5.15061 0.007,-0.0409 -0.005,-0.0808 -0.0294,-0.11062 h -0.003 c 0.2494,-2.81833 0.48405,-5.67505 -0.4445,-7.64042 -0.14876,-0.31472 -0.32747,-0.60754 -0.54136,-0.87436 -0.44624,-0.5567 -1.04099,-0.99342 -1.70754,-1.48397 -0.9207,-0.67768 -2.0028,-1.47445 -3.11766,-2.86533 -0.70354,-0.87778 -1.4213,-1.99374 -2.11758,-3.46747 l -1.3e-4,-3e-4 -1.3e-4,-2.2e-4 v 0 c -0.2378,-0.50335 -0.47368,-1.04993 -0.70507,-1.64163 -1.04907,-2.683 -2.0158,-6.3175 -3.08583,-10.34125 -1.31624,-4.94975 -2.7873,-10.48193 -4.75584,-15.51638 -0.48239,-1.23371 -0.99472,-2.43769 -1.5423,-3.59667 -0.19076,-0.40388 -0.38589,-0.80226 -0.58546,-1.19444 -5.00893,-9.84418 -12.83052,-15.77667 -19.68898,-17.86475 -2.21992,-0.67584 -4.33738,-0.94831 -6.38407,-0.94831 z" />
    </g>
  </g>
  <g
     id="g14"
     style="fill:#000000;fill-opacity:1;stroke-linejoin:miter"
     transform="translate(82.516248,763.13581)">
    <path
       inkscape:connector-curvature="0"
       id="path12"
       d="m -94.18945,774.9995 c 0.02343,0 0.05029,0.005 0.07605,0.014 0.16821,0.0888 0.18103,0.29445 0.03967,0.42065 -0.0105,0.009 -0.02222,0.0187 -0.03625,0.0281 -0.02808,0.0187 -0.05726,0.0233 -0.08643,0.0281 h -0.0023 c -0.05847,-0.005 -0.11218,-0.0421 -0.1449,-0.11696 -0.05847,-0.1355 -0.02929,-0.26634 0.04431,-0.3318 0.0293,-0.0281 0.06665,-0.0421 0.10755,-0.0421 z" />
  </g>
</svg>
