<?xml version='1.0' encoding='utf-8'?>
<svg xmlns="http://www.w3.org/2000/svg" version="1.1" width="600px" height="976px" viewBox="0 0 600 976"> <g id="layer1"> <g style="fill:rgb(0,0,0); fill-opacity:1.0; stroke-linejoin: miter"> <path d="M279.02954,418.01007C278.36313,418.52658,277.39682,419.53455,276.8387,420.2759C276.15564,421.19226,275.42258,421.98364,275.09772,422.15857C274.97275,422.2252,274.58954,422.30017,274.25635,422.32513C273.67322,422.37512,273.6066,422.3668,273.06512,422.10022C272.62363,421.89197,272.34872,421.81702,271.88226,421.79202C271.11588,421.75037,270.86597,421.88367,270.86597,422.3335C270.86597,422.95825,271.41574,423.3831,272.64862,423.73297C273.0235,423.83295,273.57327,424.03284,273.8815,424.17444C274.33966,424.3827,274.47293,424.49103,274.61456,424.76587C274.7145,424.96582,274.99774,425.27405,275.2976,425.49896C276.19727,426.19867,276.66376,426.67352,276.8637,427.1067C277.0303,427.46487,277.04697,427.54822,276.947,427.72308C276.85538,427.9064,276.87204,427.9897,277.1469,428.5395C277.31354,428.87268,277.4468,429.1809,277.4468,429.2142C277.4468,429.29755,278.66302,431.1718,278.82962,431.33008C278.9879,431.4967,279.27945,432.07977,279.571,432.81287C279.69598,433.12943,279.82925,433.42932,279.86258,433.47928C279.89587,433.52094,280.0125,433.83746,280.1125,434.17902C280.21243,434.52057,280.34573,434.87875,280.40405,434.9704C280.47067,435.07037,280.60394,435.37024,280.70392,435.64514C280.8039,435.91168,281.0788,436.46982,281.312,436.8697C281.5453,437.26953,281.90347,437.8943,282.1034,438.24414C282.31165,438.60236,282.4949,438.91058,282.5199,438.93558C282.5699,438.97723,282.81146,439.40204,283.02805,439.81024C283.0947,439.95184,283.43622,440.47662,283.77777,440.9765C284.37753,441.8678,284.79404,442.50922,285.11893,443.08398C285.21057,443.23395,285.35217,443.45886,285.4355,443.5838C285.51877,443.70877,285.76868,444.10028,285.9936,444.4585C286.59338,445.40814,287.2348,446.38275,287.7596,447.1408C288.0095,447.49902,288.2844,447.92383,288.3677,448.0738C288.56763,448.43198,288.57596,448.84018,288.38437,448.89847C288.30106,448.92346,288.1678,448.98178,288.0928,449.02344C288.0095,449.0651,287.8679,449.0984,287.78458,449.0984C287.69296,449.0984,287.593,449.1317,287.568,449.1817C287.54303,449.22336,287.4014,449.265,287.2598,449.265C286.85992,449.265,286.04358,449.66486,286.01025,449.88144C285.9936,450.0147,285.8853,450.08136,285.5271,450.173C285.2772,450.23962,285.02728,450.34796,284.97733,450.4229C284.92734,450.48953,284.8107,450.5229,284.71906,450.4979C284.61078,450.46454,284.46918,450.5229,284.35254,450.63116C284.24426,450.72278,284.11096,450.8061,284.06097,450.8061C283.8694,450.8061,283.33627,451.32257,283.18634,451.65576C283.0947,451.84735,282.95306,452.0473,282.86145,452.0973C282.7698,452.14725,282.69482,452.23056,282.69482,452.28052C282.69482,452.33054,282.63654,452.41382,282.55322,452.4721C282.47827,452.53046,282.41162,452.6471,282.4033,452.73038C282.38663,452.88864,282.27832,453.1552,281.89514,453.9716C281.78683,454.2048,281.69522,454.47137,281.69522,454.57135C281.69522,454.67133,281.65356,454.7796,281.6119,454.8046C281.56195,454.83792,281.5453,454.89624,281.57858,454.93787C281.60358,454.97952,281.5453,455.23776,281.45364,455.51266C281.35367,455.78757,281.27872,456.08746,281.27872,456.17075C281.27872,456.26236,281.23706,456.36237,281.18707,456.39566C281.12042,456.429,281.10376,456.61224,281.1371,456.92044C281.18707,457.41193,281.15375,457.5369,280.93716,457.61188C280.84552,457.6452,280.78723,457.8118,280.7539,458.1117C280.6706,458.8364,280.56232,459.32788,280.46234,459.45282C280.32907,459.6111,280.2291,461.10223,280.2541,462.46838C280.26242,462.65164,280.26242,463.03482,280.2541,463.32635C280.2541,463.70123,280.2874,463.87616,280.37073,463.9345C280.46234,463.9928,280.46234,464.00946,280.34573,464.00946C280.16248,464.00946,280.1541,464.11774,280.32907,464.2677C280.41235,464.33435,280.43735,464.44263,280.40405,464.56757C280.37903,464.67587,280.4207,464.89246,280.49567,465.05072C280.60394,465.284,280.6123,465.36728,280.529,465.46722C280.3957,465.62552,280.479,465.8421,280.67892,465.8421C280.82886,465.8421,281.0288,465.99207,281.0288,466.10864C281.0288,466.142,280.9455,466.24194,280.84552,466.34192L280.66226,466.50854L280.84552,466.50854C280.98715,466.50854,281.0288,466.5585,281.0288,466.7251C281.0288,466.9167,281.15375,467.69974,281.35367,468.75766C281.39532,468.96594,281.5536,469.49072,281.7202,469.9239C281.87848,470.35706,282.1034,470.96515,282.22003,471.27338C282.3283,471.5733,282.50323,471.93982,282.59488,472.0731C282.69482,472.20636,282.81146,472.4896,282.86145,472.69788C282.9614,473.1477,283.91104,475.02197,284.34424,475.63007C284.5108,475.855,284.919,476.37982,285.26056,476.788C285.86865,477.52106,285.87695,477.5377,285.81033,477.8709C285.777,478.0625,285.74368,478.59564,285.73535,479.06213C285.72702,479.52863,285.70203,479.94513,285.6687,479.9701C285.6354,480.00345,285.6104,480.22833,285.6104,480.4699L285.6104,480.90308L284.51913,481.9777C283.91937,482.5608,283.2113,483.3022,282.9614,483.62708C282.7032,483.9436,282.41162,484.2935,282.31165,484.39343C282.21167,484.4934,281.92847,484.8683,281.6869,485.22647C281.4453,485.58466,281.17874,485.9512,281.10376,486.04282C281.0288,486.13446,280.76224,486.5843,280.529,487.04245C279.9209,488.20868,279.49603,488.95837,279.11285,489.5415C278.9296,489.8164,278.75464,490.09964,278.72134,490.16626C278.49643,490.66608,277.26355,492.02393,276.67212,492.41544C276.5055,492.53204,276.34723,492.682,276.32224,492.76532C276.29724,492.84027,276.15564,492.99023,276.00568,493.1068C275.85574,493.22345,275.65582,493.39008,275.55585,493.47336C275.28094,493.71497,274.1064,495.30603,273.7482,495.92245C273.57327,496.214,273.39835,496.5139,273.3567,496.58054C273.31503,496.64716,273.19843,496.87207,273.09845,497.08032C272.88187,497.5385,271.72397,499.10455,271.04922,499.84595C270.77432,500.15417,270.12457,500.7873,269.61642,501.2621C269.09998,501.73694,267.9254,502.8698,267.00073,503.78616C266.0844,504.70245,264.95984,505.76874,264.51,506.16028C264.06018,506.55176,263.4521,507.0766,263.16885,507.32648C262.53577,507.87628,261.01132,509.10083,260.13666,509.7672C259.77847,510.0338,259.4286,510.30035,259.35364,510.367C259.27866,510.42532,259.11206,510.5503,258.97876,510.63358C258.85382,510.71686,258.53726,510.93347,258.28735,511.12506C257.84586,511.44995,257.4127,511.70816,256.28812,512.2996C255.98822,512.4579,255.44676,512.80774,255.08023,513.07434C254.71371,513.34924,254.38882,513.57416,254.3555,513.57416C254.23889,513.57416,252.40625,514.82367,252.08136,515.11523C251.90643,515.28186,251.41495,515.68164,250.99011,515.9982C250.57361,516.30646,249.84055,516.9812,249.36572,517.47266C248.87424,517.98914,248.34944,518.464,248.14117,518.5639C247.77466,518.7555,246.83334,519.3303,246.20859,519.7635C245.70877,520.11334,245.25893,520.52985,245.12566,520.7714C245.06734,520.88806,244.93405,520.99634,244.82576,521.02136C244.7258,521.0463,244.52588,521.17126,244.38426,521.2879C243.85947,521.7294,244.16768,522.4208,244.93405,522.5374C245.45053,522.6124,247.00827,522.5374,247.14156,522.42914C247.19987,522.37915,247.47476,522.2709,247.74966,522.1959C248.46606,521.996,248.73264,521.8877,248.87424,521.73773C248.94087,521.6627,249.12415,521.55444,249.2741,521.5045C249.42404,521.45447,249.65729,521.3379,249.78223,521.2379C249.91553,521.1463,250.0488,521.0713,250.09045,521.0713C250.12378,521.0713,250.43198,520.9047,250.78186,520.7048C251.38995,520.34656,252.23131,520.0217,253.1976,519.7718C253.53915,519.6802,253.71408,519.6718,253.86403,519.73846C253.98898,519.78845,254.66373,519.8801,255.3718,519.9467C256.8962,520.0884,257.2711,520.14667,257.3377,520.2466C257.3627,520.28827,257.57098,520.3216,257.79587,520.3216C258.14575,520.3216,258.2957,520.2633,258.6872,519.9967C259.287,519.5885,259.39526,519.46356,259.66183,518.8805C259.86176,518.44727,260.02838,517.46436,260.0367,516.64795C260.0367,516.3814,260.38657,515.9149,261.10297,515.1819C261.6361,514.64874,262.20258,514.23224,263.20218,513.62415C263.677,513.3409,264.2601,512.9244,265.04315,512.3246C265.1681,512.233,265.5763,512.00806,265.95947,511.81647C266.34265,511.62488,267.0174,511.25,267.46722,510.9751C267.90875,510.70856,268.29193,510.49194,268.32526,510.49194C268.35025,510.49194,268.7751,510.26703,269.26657,510.0005C269.75806,509.73392,270.3245,509.41736,270.53275,509.30908C271.11588,509.00085,271.7323,508.5177,272.8652,507.48474C274.17303,506.28522,274.5146,505.94366,275.71414,504.61084C276.24725,504.0194,277.03864,503.1947,277.46347,502.7782C277.8883,502.3617,278.42145,501.82022,278.63803,501.5703C279.14618,501.00388,280.479,499.25452,280.63727,498.938C280.71225,498.81302,281.0371,498.46313,281.37033,498.16327C281.70355,497.8634,282.0534,497.5468,282.14505,497.4552C282.67816,496.94705,283.25296,496.58054,284.49417,495.94745C286.0852,495.1394,287.80957,494.0065,288.89252,493.05685C289.30902,492.6903,289.80048,492.29883,289.98376,492.1822C290.44193,491.89896,291.32492,491.1076,292.90765,489.58316C293.64072,488.8751,294.75696,487.8255,295.3984,487.2507C298.80542,484.16852,299.097,483.89362,299.98,482.86072C300.5881,482.15265,301.4211,480.8448,301.59607,480.3283C301.64603,480.1617,301.76266,479.95346,301.84595,479.86182C301.9376,479.7702,302.0209,479.62857,302.03757,479.53693C302.06256,479.37036,302.1875,479.29538,303.06216,478.91217C303.38705,478.7789,303.85355,478.554,304.10345,478.42072C304.35333,478.29575,304.80316,478.10413,305.09473,478.0042C305.69452,477.80426,305.90277,477.69598,307.2106,476.88794C308.24356,476.25482,309.86792,475.01367,310.47604,474.3889C311.22577,473.63083,311.2924,473.58087,314.36624,471.56494C315.6991,470.6986,316.50708,470.11548,317.09857,469.60736C317.39844,469.35745,318.18146,468.79102,318.8479,468.35785C319.5143,467.92465,320.32233,467.3915,320.64722,467.1666C320.9721,466.95,321.45526,466.6668,321.73016,466.55017C322.11334,466.38354,322.92136,465.7921,323.26288,465.4256C323.2879,465.40057,323.4878,465.234,323.72107,465.05072C324.3625,464.5426,325.3038,463.5763,326.27844,462.42673C326.7699,461.85193,327.27805,461.26883,327.403,461.1272C327.70288,460.80234,329.27728,459.5528,329.6105,459.37787C329.9104,459.2196,332.30115,457.58688,333.13416,456.97043C333.45905,456.72888,334.18378,456.22906,334.75858,455.8542C335.33337,455.48767,336.08307,454.97952,336.42462,454.7296C336.76614,454.47974,337.14935,454.2298,337.2826,454.1715C337.4076,454.11316,337.50754,454.0382,337.50754,453.99655C337.50754,453.96326,337.5492,453.92993,337.59918,453.92993C337.64917,453.92993,337.93237,453.75497,338.23224,453.54672C339.44012,452.6804,341.33942,451.8224,343.28033,451.25592C344.06342,451.02267,344.9464,450.72278,345.2296,450.5895C345.51285,450.45624,345.76276,450.34796,345.78775,450.34796C345.85437,450.34796,346.92065,449.6732,347.50378,449.265C347.80365,449.04846,348.5367,448.61526,349.12817,448.2904C351.30234,447.10748,351.319,447.09915,352.37695,446.3161C353.59314,445.41644,354.1596,444.80005,354.5178,443.992C354.5761,443.86707,354.65106,443.7671,354.6844,443.7671C354.7177,443.7671,354.75104,443.7171,354.75104,443.65878C354.75104,443.6088,354.92596,443.36725,355.13422,443.14233C355.9006,442.29263,356.00055,442.10104,356.00055,441.41797C356.00055,440.83484,355.9839,440.78488,355.7423,440.55164C355.49243,440.31836,355.47577,440.31006,354.69275,440.32672C353.943,440.34335,352.85175,440.58496,352.63516,440.78488C352.5852,440.81818,352.46857,440.8515,352.36026,440.8515C352.2603,440.8515,351.7105,441.09308,351.1524,441.38464C350.58594,441.66788,349.90286,442.00107,349.628,442.10938C349.3531,442.20932,349.06982,442.3426,349.0032,442.39258C348.93658,442.45093,348.52005,442.60083,348.08688,442.73413C347.25385,442.984,347.16223,442.99237,344.40494,442.91742C343.25537,442.8924,342.78055,443.06735,342.25574,443.7171C341.9975,444.05032,341.8809,444.36685,341.75592,445.05823C341.54767,446.24948,341.27277,446.88257,340.89792,447.09082C340.76465,447.1658,340.49805,447.32407,340.31482,447.4407C339.24023,448.0988,338.8487,448.2987,337.87408,448.69025C337.2826,448.93182,336.57452,449.20667,336.29965,449.30664C336.02475,449.40662,335.61658,449.58154,335.38333,449.68152C335.15842,449.7898,334.85852,449.90643,334.71692,449.93976C334.58362,449.98138,334.3004,450.04807,334.09216,450.10635C333.6673,450.21466,332.776,450.57288,331.55145,451.11432C331.09326,451.32257,330.5185,451.55585,330.28525,451.6308C328.93576,452.08063,328.30267,452.41382,326.72827,453.50507C326.17847,453.8966,325.3871,454.43805,324.97058,454.71295C324.5624,454.98785,324.07092,455.3294,323.88766,455.47937C323.7044,455.62927,323.24622,455.96246,322.8714,456.23737C321.9051,456.9288,320.3307,458.37823,319.09778,459.71942C318.50635,460.36084,317.8816,460.90228,317.43176,461.16052C316.01563,461.96857,315.88232,462.03522,315.2909,462.21848C315.04932,462.29346,314.83273,462.3934,314.80774,462.42673C314.78275,462.46838,314.50784,462.585,314.20798,462.67664C313.90808,462.76825,313.54156,462.9182,313.39996,463.00153C313.25833,463.0848,312.73352,463.31805,312.22537,463.50964C310.3011,464.2427,309.20154,464.6842,308.43515,465.0091C308.00198,465.20068,307.43552,465.43393,307.1856,465.52557C306.9357,465.6172,306.69415,465.72546,306.64417,465.7588C306.6025,465.7838,306.39426,465.85876,306.186,465.91705C305.97775,465.97537,305.62787,466.10034,305.39462,466.19196C304.96146,466.37524,303.9535,466.70844,303.437,466.85004C303.27875,466.89172,302.84558,466.9417,302.47906,466.95834C302.11255,466.98334,301.70435,467.025,301.5794,467.05C301.40448,467.09998,301.29617,467.06665,301.1629,466.9417C301.03793,466.82507,300.7547,466.74176,300.24655,466.6668C299.61346,466.56683,299.5135,466.5335,299.5468,466.40857C299.6218,466.142,299.4302,466.15033,299.18863,466.41687C299.02203,466.60016,298.86374,466.6751,298.67215,466.69177C298.2723,466.70844,298.25565,466.70844,297.95575,466.83337C297.7475,466.9167,297.65588,466.92502,297.5809,466.85004C297.5309,466.80008,297.281,466.75842,297.02277,466.75842C296.423,466.75842,295.69827,466.56683,295.11517,466.2586C294.6237,466.00037,293.8073,465.71716,293.6324,465.75046C293.57407,465.7588,293.5241,465.71716,293.5241,465.65884C293.5241,465.60886,293.42413,465.41727,293.3075,465.25067C293.1909,465.07574,293.07425,464.79248,293.0493,464.60922C293.00763,464.326,293.0326,464.2677,293.18256,464.2177C293.28253,464.19272,293.37415,464.06775,293.40747,463.9428C293.47412,463.62628,293.68237,462.9182,293.7657,462.71826C293.8073,462.62665,293.92395,462.26843,294.03223,461.9269C294.1322,461.5854,294.2655,461.22717,294.3238,461.13556C294.3821,461.04388,294.4904,460.81067,294.55704,460.61072C294.73196,460.12756,294.94022,459.67773,295.1235,459.4112C295.2068,459.29456,295.27344,459.1113,295.27344,459.01965C295.27344,458.91968,295.30676,458.7781,295.34842,458.69476C295.39008,458.6198,295.52335,458.2283,295.6483,457.82013C295.88986,457.02875,295.86487,457.02875,296.3064,457.63684C296.63126,458.07837,297.53925,458.93637,298.06406,459.30292C298.2973,459.46118,298.5722,459.6611,298.6888,459.75272C298.80542,459.8527,298.93872,459.92767,298.99704,459.92767C299.04703,459.92767,299.25528,460.0526,299.46353,460.21088C299.95502,460.58575,300.12994,460.67737,300.77136,460.88562L301.31284,461.0689L301.3628,461.64368C301.40448,462.21848,301.62103,462.77658,301.92093,463.1181C302.34576,463.59296,304.07843,463.97614,304.93646,463.7762C306.04437,463.51797,306.8191,462.43506,306.9024,461.01892C306.91907,460.67737,306.94403,460.39417,306.95236,460.3858C306.96906,460.36917,307.22726,460.2442,307.54382,460.1026C307.93533,459.9193,308.24356,459.6861,308.57675,459.34454C309.81796,458.02838,310.28445,456.84546,310.6343,454.12982C310.7093,453.58838,310.80927,453.00528,310.8509,452.847C310.90088,452.68872,310.9342,452.42218,310.9342,452.25555C310.9342,451.8307,310.5677,450.81442,310.2678,450.40625C310.0262,450.08136,310.01788,450.03137,310.01788,449.22336C310.01788,448.23206,309.95123,447.95715,309.60138,447.5157C309.39313,447.25745,309.2765,447.18243,309.0849,447.18243C308.84332,447.18243,308.22687,446.79092,307.82706,446.39108C307.61877,446.19116,306.78577,445.5414,306.31094,445.23322C306.08603,445.0749,305.6112,444.72504,305.26968,444.44183L304.65323,443.9337L304.07013,443.9337C303.52032,443.9337,303.47034,443.95035,303.10382,444.25854C302.89557,444.43347,302.58734,444.65842,302.42908,444.75836C301.75433,445.17487,301.9376,444.86667,303.03717,443.75043C303.6786,443.10065,304.3367,442.35925,304.49496,442.10104C305.12805,441.1264,305.79446,440.36002,306.46088,439.84357C306.83575,439.56036,307.33557,439.15216,307.5605,438.9439C309.15155,437.50278,309.95956,436.80304,310.30945,436.58646C310.4927,436.46982,310.69263,436.31155,310.75928,436.23657C310.81757,436.16162,310.9592,436.1033,311.05914,436.1033C311.16745,436.1033,311.26743,436.05334,311.2924,435.995C311.31738,435.92834,311.68393,435.61182,312.1171,435.28693C312.8085,434.75378,313.83313,433.74585,314.47455,432.93784C315.06598,432.1964,316.29053,431.04688,316.93195,430.6137C317.84827,430.00558,318.9062,429.18927,319.21442,428.86438C319.35602,428.72272,319.54764,428.60614,319.64758,428.60614C319.75586,428.60614,319.86417,428.56448,319.88916,428.52283C319.91415,428.47284,320.03076,428.4645,320.13907,428.4895C320.24738,428.5145,320.60556,428.44785,320.9721,428.32288C321.3303,428.2063,321.68018,428.10632,321.75513,428.10632C321.8301,428.10632,322.03003,428.03134,322.20496,427.9397C322.5215,427.77313,323.31287,427.45654,323.846,427.28992C324.3958,427.12335,325.637,426.94006,326.27844,426.94006C326.8532,426.94006,326.91986,426.92343,326.96985,426.76514C327.00314,426.65686,326.96985,426.54022,326.8782,426.43195C326.74493,426.2903,326.61163,426.27365,325.27048,426.27365C323.5628,426.27365,323.41284,426.14038,325.0539,426.08203C326.63663,426.02374,328.3943,425.89047,328.50256,425.82385C328.55255,425.79053,328.59424,425.6739,328.59424,425.5656C328.59424,425.1574,328.2027,425.11578,326.67828,425.35736C325.92023,425.4823,324.57904,425.41565,324.32916,425.24072C324.16254,425.12408,324.16254,425.11578,324.42914,424.98248C324.6457,424.8742,325.06223,424.84088,326.66162,424.79922C327.74454,424.77423,328.71918,424.71594,328.82745,424.6826C329.06073,424.59097,329.07736,424.25775,328.84412,424.0245C328.68585,423.86624,328.60254,423.8579,326.39505,423.9162C324.0376,423.9662,323.846,423.94952,323.846,423.64133C323.846,423.4914,324.22086,423.3081,324.67902,423.24146C325.3371,423.15817,326.86987,422.95825,327.36133,422.89993C327.6196,422.87494,327.8778,422.79166,327.9278,422.73334C328.07776,422.55008,327.99445,422.3335,327.71954,422.2002C327.5113,422.10022,327.37802,422.10022,326.88654,422.18353C326.0202,422.34183,325.31213,422.44177,324.3958,422.5251C323.94598,422.56674,323.55444,422.62506,323.53778,422.64172C323.51282,422.6667,323.41284,422.65002,323.30457,422.60837C323.16293,422.55838,322.99634,422.60837,322.58813,422.8333C322.0467,423.13318,321.0887,423.4414,320.64722,423.4414C320.4306,423.4414,320.41397,423.42474,320.45563,423.1665C320.4806,423.0249,320.5389,422.75,320.59723,422.56674C320.82214,421.79202,320.76385,421.11725,320.4306,420.81738C320.289,420.68408,320.27234,420.69244,320.15573,420.8757C320.0891,420.97565,319.94748,421.30887,319.84753,421.60876C319.73923,421.9003,319.56427,422.30847,319.456,422.50842C319.34772,422.7,319.1311,423.20816,318.98117,423.633C318.67297,424.49103,318.47302,424.90753,318.05652,425.5656C317.88992,425.82385,317.78995,426.0654,317.81494,426.14038C317.83994,426.21533,317.8233,426.27365,317.77332,426.27365C317.72333,426.27365,317.4984,426.41528,317.2735,426.5819C317.04025,426.7568,316.64038,427.0067,316.3738,427.14835C315.974,427.34827,314.71613,428.09796,314.18298,428.44785C314.11633,428.4895,313.94974,428.58948,313.81647,428.67276C313.6915,428.74774,313.34164,428.97266,313.05008,429.16425C312.75018,429.35583,312.37534,429.58075,312.20038,429.65573C312.03378,429.739,311.63394,430.01392,311.32574,430.26385C310.35107,431.0552,309.26816,431.7799,308.3935,432.21307C307.43552,432.69626,306.38593,433.42932,305.76117,434.04572C305.11975,434.68716,304.18677,435.78674,303.72858,436.44482C303.41205,436.88635,303.05383,437.33618,302.47906,438.01093C302.33746,438.17752,302.08752,438.47742,301.9376,438.68567C301.77933,438.89392,301.4211,439.29376,301.15454,439.58533C300.87967,439.86853,300.51312,440.30173,300.3382,440.54327C299.85504,441.1847,299.79672,441.2597,299.19696,441.89276C298.8971,442.21765,298.33063,442.85074,297.9391,443.3006C297.54758,443.75043,297.0478,444.29187,296.82285,444.50845C296.60626,444.7167,296.08145,445.21655,295.67328,445.6164C295.2651,446.02457,294.90692,446.34946,294.8736,446.34946C294.682,446.3411,294.14053,445.93292,294.00723,445.69968C293.92395,445.54974,293.75735,445.32483,293.64072,445.1999C293.5241,445.0749,293.2242,444.7084,292.98264,444.39185C292.61612,443.89203,292.43283,443.74207,291.83307,443.40054C291.43323,443.18396,291.02502,442.91742,290.92508,442.81744C290.58353,442.49255,290.17535,441.9844,290.04208,441.70117C289.9671,441.55957,289.8838,441.4346,289.84216,441.4346C289.80884,441.4346,289.7755,441.39297,289.7755,441.343C289.7755,441.29303,289.6089,440.99313,289.40063,440.67657C289.19238,440.36002,289.0258,440.07678,289.0258,440.05182C289.0258,440.02682,288.9508,439.89355,288.8592,439.76862C288.4177,439.14383,287.90955,437.9859,287.35974,436.3532C287.03485,435.37024,286.635,434.3456,286.47675,434.07904C286.31848,433.8125,286.19354,433.55426,286.19354,433.5126C286.19354,433.47095,285.802,433.05444,285.32718,432.57965C284.85236,432.11313,284.13596,431.33844,283.7361,430.85526C283.3446,430.37213,282.86978,429.814,282.68652,429.60574C282.22003,429.06427,281.362,427.78143,281.362,427.6148C281.362,427.53986,281.22873,427.2733,281.06213,427.02338C280.8955,426.7735,280.68726,426.42358,280.60394,426.25702C280.52066,426.0904,280.26242,425.7572,280.0375,425.51563C279.7876,425.24905,279.58768,424.94916,279.52936,424.7409C279.40442,424.29108,279.5377,421.07562,279.69598,420.78406C279.7626,420.65076,279.77927,420.41754,279.74594,420.09265C279.70428,419.64282,279.72095,419.5512,279.98752,419.0264C280.44568,418.11005,280.37073,417.77686,279.70428,417.77686C279.41275,417.77686,279.24615,417.8352,279.02954,418.01007 Z M283.69446,470.1738C283.69446,470.21545,283.6778,470.25708,283.66113,470.25708C283.63617,470.25708,283.5945,470.21545,283.56952,470.1738C283.54453,470.12384,283.5612,470.0905,283.60284,470.0905C283.6528,470.0905,283.69446,470.12384,283.69446,470.1738 Z"/> </g> <g style="fill:rgb(0,0,0); fill-opacity:1.0; stroke-linejoin: miter"> <path d="M287.3925,477.78287L282.96634,473.5955Q281.5465,471.79898,280.93527,470.3083Q280.6866,469.7235,280.47946,469.0236L280.2853,468.2877Q280.1028,467.51938,279.97742,466.59274Q279.85178,465.6588,279.79495,464.58145L279.7586,463.48288Q279.74112,462.35577,279.8121,461.17316Q279.8831,459.9905,280.05563,458.8109L280.25687,457.64676L280.51544,456.51343L280.83463,455.42557L281.21768,454.39786L281.66794,453.44492L282.1871,452.57776L282.77084,451.79254Q283.38687,451.04834,284.10858,450.4383Q284.421,450.07178,286.45273,448.8354Q287.6835,448.1085,290.8684,446.8098L290.39578,452.09155L287.3925,477.78287"/> </g> <g style="fill:rgb(0,0,0); fill-opacity:1.0; stroke-linejoin: miter"> <path d="M307.6036,467.33148L304.98993,467.94614Q303.3784,467.0712,301.87024,466.41046Q300.87122,465.98315,299.99478,465.8097Q299.5585,465.72693,299.16434,465.73145L298.78195,465.75943Q298.41107,465.81125,298.0772,465.9202Q298.0396,465.9106,296.8449,466.39413Q296.55814,466.50314,296.2815,466.55508Q296.00485,466.60706,295.72934,466.56387L295.45187,466.48743Q295.1727,466.37744,294.88638,466.14536L294.5986,465.8883Q294.30917,465.60352,294.01456,465.22995Q293.27927,464.3182,291.9156,461.99353Q291.94827,464.2263,292.31262,465.2854Q292.4503,465.7133,292.66888,466.09882L292.91278,466.47107Q293.1794,466.83142,293.55734,467.13348Q294.33722,467.72556,295.479,468.1251Q296.04218,468.32874,296.6494,468.50745L299.10022,469.19968L299.69077,469.3802L300.25693,469.57138Q300.8075,469.76965,301.29926,469.9946Q302.852,470.63425,305.335,472.6445L307.6036,467.33148"/> </g> </g> </svg>