<?xml version="1.0" encoding="UTF-8" standalone="no"?>
<!-- Created with Inkscape (http://www.inkscape.org/) -->

<svg
   xmlns:dc="http://purl.org/dc/elements/1.1/"
   xmlns:cc="http://creativecommons.org/ns#"
   xmlns:rdf="http://www.w3.org/1999/02/22-rdf-syntax-ns#"
   xmlns:svg="http://www.w3.org/2000/svg"
   xmlns="http://www.w3.org/2000/svg"
   xmlns:sodipodi="http://sodipodi.sourceforge.net/DTD/sodipodi-0.dtd"
   xmlns:inkscape="http://www.inkscape.org/namespaces/inkscape"
   width="24.78158mm"
   height="84.91214mm"
   viewBox="0 0 24.78158 84.91214"
   version="1.1"
   id="svg2008"
   inkscape:version="0.92.4 (5da689c313, 2019-01-14)"
   sodipodi:docname="woman walking frontal.svg">
  <defs
     id="defs2002" />
  <sodipodi:namedview
     id="base"
     pagecolor="#ffffff"
     bordercolor="#666666"
     borderopacity="1.0"
     inkscape:pageopacity="0.0"
     inkscape:pageshadow="2"
     inkscape:zoom="1.4"
     inkscape:cx="-99.682907"
     inkscape:cy="118.67323"
     inkscape:document-units="mm"
     inkscape:current-layer="layer1"
     showgrid="false"
     fit-margin-top="0"
     fit-margin-left="0"
     fit-margin-right="0"
     fit-margin-bottom="0"
     inkscape:window-width="1920"
     inkscape:window-height="1048"
     inkscape:window-x="0"
     inkscape:window-y="0"
     inkscape:window-maximized="1" />
  <metadata
     id="metadata2005">
    <rdf:RDF>
      <cc:Work
         rdf:about="">
        <dc:format>image/svg+xml</dc:format>
        <dc:type
           rdf:resource="http://purl.org/dc/dcmitype/StillImage" />
        <dc:title></dc:title>
      </cc:Work>
    </rdf:RDF>
  </metadata>
  <g
     inkscape:label="Ebene 1"
     inkscape:groupmode="layer"
     id="layer1"
     transform="translate(-17.091347,-54.972505)">
    <path
       inkscape:connector-curvature="0"
       style="clip-rule:evenodd;fill-rule:evenodd;stroke-width:0.26458156"
       d="m 37.156885,61.868235 c 0.103981,1.198555 -0.433384,1.655222 -0.57811,2.57967 0.234154,0.07726 0.765963,0.63526 0.888994,0.844809 h -0.0889 c -0.07408,-0.07673 -0.165363,-0.127264 -0.266698,-0.177799 v 0.04445 c 0.154516,0.116151 0.242357,0.336548 0.400312,0.444762 0.148695,0.102128 0.252146,0.07726 0.355598,0.222248 -0.106098,0.01852 -0.314323,0.0717 -0.400312,0.133349 0.119591,0.03969 0.115357,0.04577 0.178063,0.133614 -0.173301,-0.0013 -0.200023,-0.02223 -0.266963,0.0889 0.103981,0.103716 0.207697,0.207432 0.311677,0.311148 h -0.08916 c -0.102128,-0.11668 -0.341839,-0.157426 -0.489211,-0.222513 v 0.04445 c 0.212988,0.197907 0.660131,0.499001 0.800359,0.711724 H 37.734471 C 37.62758,66.930207 37.423852,66.86724 37.289974,66.804534 v 0.533661 c 0.0934,0.13573 0.144197,0.362212 0.222248,0.489211 -0.05953,0.01482 -0.119061,0.02963 -0.177799,0.04445 0.04524,0.03572 0.01191,0.01587 0.0889,0.04445 0.0844,0.112976 0.220661,0.12012 0.311148,0.222248 h 0.04445 l -0.04445,0.04445 c -0.283102,0.231509 -0.763847,-0.07038 -1.022872,-0.177799 v 0.0889 h 0.04445 c 0.246061,0.733421 1.43562,0.818616 2.179094,1.067322 0.839782,0.280986 1.669245,0.959373 2.046009,1.690147 0.175682,0.340252 0.188118,0.685531 0.311413,1.067587 0.561706,1.740947 0.578375,3.978513 0.578375,6.360011 2.64e-4,2.553741 0.05953,5.313326 -0.489212,7.382884 -0.118797,0.448201 -0.06853,0.856451 -0.222777,1.2901 -0.352423,0.991915 -1.079228,1.864506 -1.645433,2.668304 -0.465134,0.660131 -0.881321,1.426888 -1.556797,1.86821 0.179386,0.514612 0.42042,1.951289 0.311412,2.534957 -0.179122,0.07012 -0.21484,0.05609 -0.222249,0.311148 0.250295,0.362476 0.227276,1.834872 0.0889,2.357421 -0.04604,0.173831 -0.235478,0.383114 -0.178063,0.622824 0.170919,0.709345 -0.258761,1.53616 -0.444762,2.13491 -0.137847,0.443439 0.02514,1.03663 -0.0889,1.46763 -0.106361,0.40058 -0.381526,0.73422 -0.489475,1.11177 -0.01508,0.23707 -0.02937,0.4744 -0.04419,0.71147 -0.158748,0.68553 -0.155044,1.53219 -0.311412,2.2238 -0.02963,0.38523 -0.05953,0.77073 -0.08916,1.15596 -0.295273,1.27872 -0.194997,2.75932 -0.489476,4.09202 -0.11033,0.50032 -0.0336,1.01917 -0.133084,1.46763 -0.05927,0.75565 -0.118533,1.51262 -0.178328,2.268 -0.372796,1.47715 -0.743739,3.02152 -1.156222,4.40369 -0.20214,0.67627 -0.205315,1.43906 -0.356126,2.08967 -0.103981,1.20067 -0.207168,2.40266 -0.311148,3.6028 v 0.7112 c -0.162983,0.93424 -0.325965,1.86847 -0.489212,2.80245 -0.04471,0.45905 -0.0889,0.91889 -0.133613,1.379 -0.266963,1.12605 -0.284426,2.31376 -0.578111,3.46919 -0.311148,1.22078 -0.615417,2.61486 -0.667275,4.00259 h -0.622825 c -0.0016,0.64981 0.06112,1.24856 0.178064,1.77878 -0.02937,0.51884 -0.05953,1.03769 -0.08916,1.55653 -0.306915,0.18495 -0.920744,0.13415 -1.423185,0.13415 h -3.06889 c -0.759085,-1.31074 0.552711,-2.4114 0.311148,-3.78087 -0.36036,-0.0169 -0.67971,-0.10901 -0.977894,-0.17754 0.0013,-0.17409 0.02196,-0.20055 -0.08916,-0.26723 -0.159807,-0.10345 -0.435501,-0.0524 -0.533925,-0.22225 -0.21828,-0.35004 -0.06668,-1.30359 -0.177799,-1.77931 -0.0971,-0.41592 -0.352158,-1.14881 -0.267227,-1.64543 0.147901,-0.86042 0.358507,-1.67057 0.400576,-2.57967 -0.380468,0.0132 -0.526253,0.15637 -0.889259,0.0884 -0.351099,-0.80909 -0.483655,-1.937 -0.711459,-2.8461 -0.01482,-0.72655 -0.02963,-1.45256 -0.04472,-2.1791 -0.177005,-0.73236 -0.6006,-1.25517 -0.800094,-1.91266 -0.08837,-0.28971 -0.03545,-0.97366 0.04418,-1.20067 0.05265,-0.15054 0.2622,-0.41301 0.222513,-0.62282 -0.04736,-0.24606 -0.280986,-0.50244 -0.356127,-0.75591 -0.130968,-0.44476 -0.169861,-0.88503 -0.266698,-1.28957 v -0.57811 c -0.06376,-0.25824 -0.325171,-0.65193 -0.266698,-0.93371 0.06218,-0.30427 0.273842,-0.39952 0.311148,-0.71199 -0.08493,-0.10636 -0.25347,-0.38523 -0.222778,-0.57811 0.01058,-0.0648 0.173301,-0.25029 0.08916,-0.40058 h -0.08916 c -0.06456,-0.081 -0.184413,-0.31882 -0.133085,-0.48921 0.05503,-0.18282 0.347925,-0.28892 0.266963,-0.62282 -0.068,-0.27967 -0.39158,-0.56965 -0.445026,-0.75618 0.01508,-0.17753 0.02937,-0.35586 0.04445,-0.5334 -0.193674,-0.78792 -0.259025,-1.85048 -0.444762,-2.66909 -0.01508,-0.69691 -0.02963,-1.39329 -0.04445,-2.08967 -0.355332,-1.09698 -0.837665,-2.38391 -1.155956,-3.51394 -0.04498,-0.38523 -0.08943,-0.77046 -0.133614,-1.15648 -0.171184,-0.70961 -0.246855,-1.54913 -0.400576,-2.268 -0.227012,0.002 -0.32623,-0.17118 -0.533926,-0.26696 -0.251882,-0.0447 -0.503763,-0.0892 -0.755645,-0.13335 -0.296596,-0.10027 -0.64796,-0.28257 -0.934238,-0.40057 -0.265639,-0.10901 -0.594514,-0.10028 -0.800359,-0.26697 -0.143138,-0.22542 -0.04921,-1.490119 -0.04445,-1.86768 0.130174,-0.214839 -0.01746,-0.646107 0.04445,-0.934236 0.121443,-0.561972 0.0013,-1.212313 0.133879,-1.823497 0.111653,-0.517256 0.03572,-1.122355 0.08864,-1.73486 0.01535,-0.103452 0.02963,-0.207169 0.04418,-0.311148 -0.06403,-0.347659 -0.190764,-0.942175 -0.08864,-1.378735 0.212194,-0.908572 0.266962,-2.026431 0.266962,-3.202496 0,-0.334431 0.03413,-0.82523 0,-1.022606 v -0.845074 c -0.08572,-0.323319 -0.34766,-0.582872 -0.445026,-0.845074 -0.335489,-0.905132 0.264053,-2.071407 1.156222,-2.089928 0.05821,0.10001 0.310618,0.44767 0.400576,0.355333 0.13917,-0.241565 -0.0011,-0.683416 -0.04471,-0.978689 -0.0545,-0.37306 0.15531,-0.466987 0.222778,-0.667009 -0.01508,-0.13335 -0.0299,-0.266697 -0.04445,-0.400047 0.09684,-0.457462 0.361154,-1.019961 0.488947,-1.512349 0.136524,-0.524136 0.08678,-0.983979 0.222513,-1.512083 0.452963,-1.756822 0.548477,-3.776902 1.023136,-5.470488 0.133614,-0.859891 0.266699,-1.719781 0.399783,-2.579671 0.337077,-1.121032 0.927623,-2.163218 1.557327,-3.024431 0.535249,-0.732362 1.724808,-1.106216 2.935268,-1.022873 0.143139,-0.467251 0.388141,-0.77443 0.400312,-1.423184 h -0.0889 c -0.136524,0.206374 -0.417774,0.580492 -0.66701,0.66701 v -0.0889 c 0.441058,-0.336547 0.740829,-0.928416 0.75591,-1.690146 h -0.0889 c -0.173036,0.283896 -0.369091,0.631821 -0.57864,0.889523 -0.07779,-0.02778 -0.04286,-0.0085 -0.08864,-0.04445 -0.232566,-0.258231 0.22516,-1.390111 0.311149,-1.690147 h -0.04445 c -0.22754,0.286542 -0.637377,0.442381 -0.889523,0.711725 -0.07752,-0.02805 -0.04313,-0.0087 -0.08837,-0.04471 -0.07858,-0.02778 -0.04366,-0.0085 -0.08916,-0.04445 h 0.04445 c 0.47413,-0.474395 0.948789,-0.948789 1.423184,-1.42292 0.21484,-0.162453 0.567262,-0.358772 0.66701,-0.622824 h -0.08943 c -0.23389,-0.147637 -0.542128,0.105567 -0.711195,0.177798 -0.446349,0.190763 -1.16654,0.592398 -1.600719,0.667275 -0.05741,-0.09234 -0.09313,-0.102393 -0.133878,-0.222249 0.400577,-0.256644 0.732627,-0.635524 1.156222,-0.889523 0.219338,-0.131497 0.502969,-0.128851 0.756174,-0.222248 0.38523,-0.14261 0.791099,-0.33496 1.200671,-0.444762 0.133085,-0.557473 0.587371,-0.975777 0.800359,-1.467898 0.125677,-0.288394 0.245796,-0.984244 0.445026,-1.156486 0.168803,-0.14552 0.463547,-0.03704 0.622826,-0.266698 0.187852,-0.270932 0.22701,-0.608273 0.400311,-0.889524 0.589752,-0.954874 1.385878,-2.101835 2.446321,-2.57967 2.808533,-1.265229 4.747122,0.700348 5.737451,2.62412 0.240505,0.46778 0.89799,2.051036 0.489476,2.801919 0.22172,0.378616 0.147637,0.357185 0.04445,0.800359 -0.08916,0.07435 -0.178328,0.14843 -0.267228,0.222513 -0.206638,0.0164 -0.414334,0.03122 -0.621502,0.04604 z"
       id="path8" />
  </g>
</svg>
