<?xml version='1.0' encoding='utf-8'?>
<svg xmlns="http://www.w3.org/2000/svg" version="1.1" id="Layer_1" x="0px" y="0px" viewBox="0 0 1029.048 1687.676" enable-background="new 0 0 1029.048 1687.676"> <g> <path d="M985.606,853.495c-6.817-0.957-42.275-6.523-49.247-12.639c-4.337-3.805-6.421,2.248-16.186-2.487 c-23.815-11.548-36.287-1.352-63.52-16.478c-10.208-5.67-5.699-1.96-22.919-6.491c-9.181-2.415-16.816-8.935-26.732-9.532 c-1-0.06-295.96-96.492-262.151-114.881c6.912-3.76,9.474-10.517,13.322-16.336c44.347-67.054,42.264-48.258,59.287-72.342 c1.697-2.401,3.084-1.442,4.21,0.508c2.664,4.614,7.233,7.996,8.521,13.515c1.073,4.598,5.916,1.693,7.811,3.531 c3.826,3.711,8.875,6.065,11.83,10.702c2.749,4.314,6.824,0.006,5.9-2.128c-2.182-5.042,7.106-12.152,4.238-20.571 c-0.524-1.538,1.711-7.977,3.166-7.968c5.187,0.034,3.16,33.845,15.137-0.509c7.296,8.964,5.396-3.847,8.601-4.386 c4.053-0.682,8.778,15.79,10.551,19.463c3.691,7.65,11.306,3.547,10.443-2.288c-1.174-7.944,3.446-14.712,3.612-22.369 c4.259,0.624,3.385,12.521,10.443,7.239c5.706-4.27,2.53,3.299,7.155,4.005c3.001-4.354,2.84-12.266,11.483-10.491 c1,0.205,18.558-19.068,9.928-40.003c-20.282-49.202-23.12-0.519,49.09-71.683c35.958-35.437,50.011-33.322,56.167-65.36 c33.297-173.301-34.489-220.565-52.404-282.728c-2.206-7.655-12.332,3.623-6.374,13.764c1.387,2.361,3.618,2.953,2.083,6.06 c-4.464,9.029-20.349-9.95-26.187-11.451c-5.669-1.454-4.568,6.099-3.933,7.629c4.612,3.812,14.913,6.384,10.05,10.508 c-3.349,2.84-22.46-13.557-25.706-6.668c-1.501,3.189-0.054,5.63,3.365,7.498c32.561,17.792,29.425,18.08,35.009,18.603 c14.283,1.338,11.275,14.916,12.604,21.06c2.728,12.618-9.737,14.673-17.162,9.041c-11.206-8.5-23.703-4.955-24.538-1.991 c-1.721,6.113,6.7,2.021,25.195,20.799c21.967,22.303,38.382,10.675,35.841,22.87c-1.17,5.614-4.33,41.714-4.279,44.742 c0.297,17.658-12.618,76.692-13.691,90.315c-2.118,26.886-27.401,36.895-37.315,44.312c-1.957,1.464-39.22,27.538-39.154,23.87 c0.075-4.14-3.692-7.342-2.722-11.169c3.087-12.18-7.042-31.849-0.96-62.476c0.355-1.789,0.637-3.935-0.007-5.527 c-9.45-23.341-1.888-35.324-18.276-59.227c-21.286-31.05-27.663-18.165-52.43-36.754c-2.023-1.519-4.135-2.046-6.392-1.299 c-25.303,8.378-56.433,8.373-64.43,33.703c-3.109,9.847-9.533,7.277-12.279,14.266c-6.925,17.621-14.596,17.859-18.722,33.073 c-7.997,29.485-4.194,60.357-3.01,64.528c0.837,2.949-0.429,6.419-2.333,8.84c-3.626,4.613-3.718,12.015-10.871,13.941 c-0.504,0.136-0.587,1.837-0.987,3.238c-10.481-10.065-9.706-21.737-14.967-31.524c-31.243-58.108-42.533-47.129-42.533-140.058 c0.547-50.499,37.673-120.708,64.15-162.354c3.456-5.436,8.376-5.409,13.622-4.181c30.954,7.244,28.892,1,48.038,0.526 c19.06-0.473,9.946-12.788-0.335-12.16c-6.515,0.397-5.496-5.49-8.123-8.171c-1.249-1.275,6.422-10.423,8.669-10.568 c10.032-0.647,38.785,10.658,47.437,7.662c16.788-5.813-20.683-10.982-22.555-17.203c-1.06-3.523,10.639-7.314,11.641-7.849 c2.661-1.421,3.739-3.646,5.917-5.623c3.996-3.627,9.568,0.131,12.053-6c1.964-4.847-4.231-7.11-9.276-4.145 c-0.142,0.084-51.03,7.007-66.404,14.739c-40.419,20.328-45.273,8.669-79.026,56.042c-6.998,9.822-15.214-1.652-18.906,11.571 c-5.571,19.953-18.258,22.173-31.049,45.1c-0.001,0.002-26.393,47.338-26.393,47.338c-9.113,19.958-13.951,11.741-18.187,35.326 c-0.18,1.001,10.986,102.891,15.12,121.057c30.616,134.53,14.984,134.198,4.892,144.675 c-37.731,39.162,1.044,66.829-31.754,163.481c-3.471,10.227-12.744,15.257-21.569,20.755 c-129.853,80.909,13.089-1.047-301.4,119.182c-36.932,14.119-42.574,7.869-39.152,24.624 c9.173,44.914,26.696,95.944,54.843,133.369c76.155,101.258,46.365,50.128,88.426,26.018c14.793-8.478,17.314-19.828,29.122-14.357 c16.428,7.613,37.532,2.618,53.081-4.987c24.542-12.004,19.899,7.035,50.923,7.983c10.923,0.334,41.43,7.598,71.309,8.439 c20.239,0.57,20.621-10.21,28.653-15.318c22.221-14.131,23.176-24.576,32.656-24.682c29.717-0.331,36.178-10.464,40.118-4.498 c0,0,34.212,177.405,63.793,225.458c26.83,43.584,28.726,84.385,32.624,128.062c0.089,1.001,9.523,114.961,9.056,135.423 c-0.023,1-12.403,98.511-16.24,108.678c-1.911,5.063-5.834,9.066-7.81,14.066c-1.734,4.389-1.496,8.796-4.465,12.876 c-2.696,3.704-6.547,5.99-8.612,9.99c-5.59,10.824-7.843,28.421,3.135,37.012c19.698,15.411,45.867-0.145,61.645-13.833 c13.898-12.057,20.453-27.117,30.071-42.236c7.463-11.732,15.912-23.104,26.337-32.386c14.872-13.242,36.694-21.689,45.827-40.585 c9.048-18.721-10.786-30.974-25.514-37.839c-59.732-27.843,18.173-131.071-31.448-278.17c-4.358-12.919-11.313-24.932-13.659-38.55 c-1.535-8.911-2.795-17.899-6.332-26.286c-7.882-18.686,7.88-67.425-5.426-114.414c-4.423-15.616,38.184,5.88,41.941,6.316 c18.96,2.2,46.369,2.94,67.614,0.2c114.776-14.803,106.839-63.22,137.156-33.84c19.009,18.421,27.909-2.081,37.467,6.011 c2.713,2.297,4.125,7.487,8.794,6.415c16.012-3.677,61.45-43.652,63.334-107.533C994.804,860.696,993.266,854.57,985.606,853.495z"/> </g> </svg>