<?xml version="1.0" encoding="UTF-8" standalone="no"?>
<svg
   xmlns:dc="http://purl.org/dc/elements/1.1/"
   xmlns:cc="http://creativecommons.org/ns#"
   xmlns:rdf="http://www.w3.org/1999/02/22-rdf-syntax-ns#"
   xmlns:svg="http://www.w3.org/2000/svg"
   xmlns="http://www.w3.org/2000/svg"
   xmlns:sodipodi="http://sodipodi.sourceforge.net/DTD/sodipodi-0.dtd"
   xmlns:inkscape="http://www.inkscape.org/namespaces/inkscape"
   version="1.1"
   width="375.55551"
   height="851.1463"
   viewBox="0 0 375.55551 851.1463"
   id="svg9"
   sodipodi:docname="waitress serving food.svg"
   inkscape:version="0.92.4 (5da689c313, 2019-01-14)">
  <metadata
     id="metadata15">
    <rdf:RDF>
      <cc:Work
         rdf:about="">
        <dc:format>image/svg+xml</dc:format>
        <dc:type
           rdf:resource="http://purl.org/dc/dcmitype/StillImage" />
        <dc:title></dc:title>
      </cc:Work>
    </rdf:RDF>
  </metadata>
  <defs
     id="defs13" />
  <sodipodi:namedview
     pagecolor="#ffffff"
     bordercolor="#666666"
     borderopacity="1"
     objecttolerance="10"
     gridtolerance="10"
     guidetolerance="10"
     inkscape:pageopacity="0"
     inkscape:pageshadow="2"
     inkscape:window-width="933"
     inkscape:window-height="512"
     id="namedview11"
     showgrid="false"
     fit-margin-top="0"
     fit-margin-left="0"
     fit-margin-right="0"
     fit-margin-bottom="0"
     inkscape:zoom="0.24180328"
     inkscape:cx="149.23991"
     inkscape:cy="405.3135"
     inkscape:window-x="0"
     inkscape:window-y="0"
     inkscape:window-maximized="0"
     inkscape:current-layer="svg9" />
  <g
     id="layer1"
     transform="translate(-150.76009,-42.167226)">
    <g
       id="g6">
      <g
         style="fill:#000000;fill-opacity:1;stroke-linejoin:miter"
         id="g4">
        <path
           d="m 276.84274,42.2935 c -4.58874,0.31897 -13.78042,2.05017 -14.50464,2.755736 -0.2556,0.249144 -0.76248,0.410767 -1.1409,0.405884 -0.42053,-0.0055 -0.80123,0.157715 -0.88806,0.366943 -0.1748,0.502447 -6.35501,3.53455 -7.02679,3.441655 -0.29437,-0.0038 -0.46311,0.03613 -0.33859,0.163818 0.12451,0.127808 -0.47303,0.792974 -1.36484,1.454472 -0.84986,0.661865 -1.87002,1.489868 -2.21088,1.821899 -0.34024,0.289917 -1.27634,1.119019 -2.08412,1.781498 -0.76572,0.662965 -1.61877,1.57727 -1.91919,2.035889 -0.25836,0.459472 -1.5014,2.251836 -2.7865,4.043706 -2.01367,2.833987 -2.35391,3.124026 -2.89407,2.612307 -0.45603,-0.510742 -1.04422,-0.560303 -2.77225,-0.288452 -1.93939,0.353395 -2.23321,0.307495 -2.85361,-0.499755 -0.41397,-0.510137 -1.2081,-0.89893 -1.88092,-0.90772 -0.63081,-0.0082 -1.88588,-0.529296 -2.7613,-1.129516 -1.33368,-0.942627 -1.66907,-1.031128 -2.22123,-0.617676 -0.55267,0.455566 -1.09939,0.448486 -2.94375,-0.03833 -2.30579,-0.57666 -4.32764,-0.350586 -3.15943,0.379639 0.33371,0.214477 -0.42489,0.330933 -2.14962,0.350463 -1.47193,-0.01916 -3.23815,-0.04211 -3.95363,-0.0093 l -1.26212,0.02576 1.41999,0.77539 c 0.96064,0.517335 1.25068,0.857426 0.82794,1.02027 -0.42273,0.16284 -0.33973,0.247923 0.24852,0.297728 0.462,0.04809 -0.17206,0.292236 -1.39543,0.570678 -1.22287,0.236451 -2.27909,0.601319 -2.28238,0.853638 -0.0448,0.209596 -0.55707,0.79187 -1.15183,1.246826 -0.59424,0.41284 -1.23215,0.951294 -1.36102,1.160034 -0.12839,0.166506 -0.42435,0.288816 -0.63413,0.244141 -0.58706,-0.133911 -3.33752,1.134275 -3.97756,1.84095 -0.42765,0.54126 -0.4293,0.667355 0.11737,0.674435 1.05133,0.01367 0.40741,1.014774 -1.20151,1.83509 -2.3714,1.231076 -1.76303,2.963375 0.60784,1.77441 1.31184,-0.61377 1.56309,-0.52649 0.8372,0.3053 -2.09342,2.49646 -2.65046,3.28846 -2.7417,3.83399 -0.0464,0.335816 -0.56095,1.08618 -1.11524,1.66797 -1.10867,1.16321 -0.86621,1.92346 0.40576,1.14087 0.46643,-0.28833 0.84705,-0.45166 0.84595,-0.367555 -0.007,0.50476 -1.55432,3.092165 -2.10654,3.505615 -0.5101,0.41394 -0.55322,0.49756 -0.0911,0.545654 0.37845,0.005 0.41833,0.173706 0.16162,0.506836 -0.64175,0.83289 -1.04541,2.76246 -0.62814,3.02015 0.20813,0.17102 0.46206,0.04822 0.54998,-0.24512 0.13001,-0.29272 0.2081,0.1709 0.23975,0.97058 0.029,1.00977 -0.27692,1.88904 -0.83185,2.5127 -1.06663,1.16382 -1.67397,2.586066 -1.69038,3.84766 -0.0109,0.84107 0.0737,0.80005 0.84549,-0.32568 0.51451,-0.750245 0.73567,-1.588624 0.61604,-2.09486 -0.16217,-0.46484 -0.1174,-0.674436 0.0907,-0.50354 0.45661,0.46851 0.49866,3.70777 0.0399,3.40736 -0.16659,-0.1283 -0.33752,0.07983 -0.34244,0.45813 -0.005,0.37854 0.20316,0.54956 0.41508,0.426146 0.63571,-0.370236 0.49807,0.511234 -0.23487,1.889774 -0.64668,1.21118 -1.2366,4.52636 -1.81613,10.281 l -0.29056,2.94043 0.81433,-1.16687 c 0.59965,-0.83362 0.89676,-1.04004 1.05951,-0.61718 0.12232,0.29589 0.25068,0.12927 0.25779,-0.41749 0.0547,-0.96643 0.85861,-1.33459 0.93063,-0.40844 0.0704,1.05261 -0.16058,2.64782 -0.46045,3.06445 -0.17093,0.20813 -0.23541,1.93188 -0.17533,3.78333 0.0601,1.85144 0.11848,3.82898 0.11082,4.41773 0.006,2.77612 -0.82282,24.46865 -1.02002,26.69521 -0.14911,1.76465 -0.112,2.14356 0.10974,1.26318 0.35232,-1.21508 0.39383,-1.17248 0.41403,0.51014 -0.0126,0.96728 -0.15518,2.22729 -0.41513,2.81274 -0.21793,0.58606 -0.54617,3.18933 -0.70624,5.79518 -0.1601,2.60559 -0.4905,5.37732 -0.75217,6.08899 -0.26211,0.75366 -0.53414,2.26429 -0.59039,3.35706 -0.0988,1.1344 -0.45605,2.72815 -0.84659,3.64831 -0.43197,0.87757 -0.7406,1.96729 -0.74606,2.38782 -0.005,0.42053 -0.44458,1.84485 -0.96619,3.14186 -0.911,2.1333 -1.20916,2.42395 -3.53743,3.57129 -2.45553,1.22998 -5.71984,3.20642 -6.99569,4.28332 -0.34079,0.33216 -2.08359,1.73951 -3.82639,3.14686 -3.86835,3.14636 -11.7483,10.74097 -13.24693,12.7826 -0.59918,0.79127 -1.33267,2.2118 -1.63907,3.13306 -0.30637,0.92139 -1.04257,2.55225 -1.60352,3.63855 -1.59753,3.17578 -1.86895,4.64441 -1.49054,7.88796 0.22387,2.19003 0.10802,4.62802 -0.45292,8.95297 -0.42108,3.27528 -0.89084,10.2931 -1.04441,15.63283 -0.33657,9.7118 0.13794,18.50868 1.76313,32.61988 1.13205,9.98319 1.24731,7.58719 -1.12265,21.64676 -0.63953,3.90326 -1.555,9.61156 -2.05748,12.67554 -0.50199,3.02179 -1.00281,5.95947 -1.13608,6.50464 -0.26492,0.9638 -1.5321,11.08401 -2.81187,22.17132 -0.38013,3.35986 -0.99415,8.52533 -1.41193,11.54822 -0.37528,2.98151 -0.94382,7.8952 -1.23554,10.91974 -0.24908,2.9831 -0.96243,9.3249 -1.52883,14.07037 -1.36991,11.54889 -1.35355,13.52588 0.34125,48.16385 0.32702,7.1966 0.88082,13.13434 1.47167,16.2124 0.1966,1.05411 0.58652,3.41452 0.81476,5.2681 0.22826,1.85358 0.77877,4.80506 1.1769,6.53468 0.44012,1.73028 0.83114,4.00658 0.94421,5.01757 0.071,1.01031 0.33691,3.20093 0.52585,4.84369 0.23105,1.64337 0.56521,5.05468 0.78421,7.62317 0.21948,2.52647 0.62524,6.90612 0.96768,9.68652 0.30029,2.77991 0.63892,5.85475 0.75247,6.82365 0.11249,1.05297 0.64276,2.3217 1.2637,3.08678 0.95194,1.19006 1.03171,1.52765 0.75095,3.71112 -0.79254,5.96234 -0.79474,6.1305 0.055,8.7072 1.17585,3.3802 2.34293,7.43318 3.05942,10.55495 0.31836,1.39215 0.8454,2.9132 1.13379,3.37965 0.24627,0.4658 0.73615,1.60783 0.97641,2.5363 0.64444,2.19556 3.71265,5.6002 5.76398,6.3419 0.8793,0.30587 2.5505,1.1688 3.71876,1.899 1.1687,0.68824 2.50513,1.42054 3.00812,1.55335 0.7537,0.26209 0.83402,0.55755 0.59586,2.69959 -0.10108,1.30256 -0.41733,2.98089 -0.63633,3.651 -0.87768,2.8067 -1.29452,12.22276 -1.3117,29.71972 0.003,12.70234 -0.17996,20.31284 -0.57218,24.59794 -0.63577,6.8476 -1.45325,40.61166 -0.95846,41.37515 0.16443,0.29655 0.54181,0.38555 0.87933,0.30591 0.50736,-0.20376 1.02786,-1.41676 1.86511,-4.3501 0.13276,-0.50299 0.73349,-1.42056 1.32993,-2.00156 1.49042,-1.41073 8.00934,-4.6067 10.92084,-5.32596 1.26597,-0.32 2.65977,-0.76458 3.08302,-0.96944 0.42328,-0.20475 2.19498,-0.60233 3.923,-0.87425 1.72803,-0.27205 3.45771,-0.6701 3.83835,-0.83345 0.63458,-0.28605 10.78971,-1.71037 15.46423,-2.1543 l 1.76893,-0.18723 0.0606,1.80933 c 0.0289,1.00976 0.0873,2.98736 0.15341,4.3763 0.024,1.3883 0.11297,4.2496 0.17029,6.3113 0.0147,2.10316 0.24188,4.04097 0.40631,4.33754 0.2059,0.33911 0.0256,1.26206 -0.45005,2.26536 -0.73568,1.58877 -0.73788,1.757 -0.0804,2.9432 0.82248,1.44073 0.87048,4.2174 0.13864,5.5117 -0.25885,0.50136 -0.53525,2.3484 -0.64175,4.07155 -0.0645,1.72365 -0.35013,4.28565 -0.62052,5.67015 -1.93509,9.73286 -4.19546,41.24885 -3.91223,55.0483 0.12607,6.47906 1.69275,25.09014 2.18701,25.8957 0.0819,0.16936 0.4336,2.23485 0.78037,4.6789 0.34735,2.40196 0.8945,5.6056 1.21127,7.1239 0.31674,1.51835 0.82898,4.17485 1.14298,5.90336 1.81036,9.57129 2.20465,11.59534 3.15655,16.02404 0.5543,2.657 1.30907,6.07374 1.62581,7.59205 0.31674,1.51831 0.83667,3.586 1.15942,4.64178 0.28071,1.05512 1.20801,4.13757 2.01352,6.88202 0.84705,2.78695 1.73667,5.53241 2.06543,6.12555 0.32828,0.6352 0.57072,1.3954 0.5669,1.68976 -0.004,0.29444 0.36102,1.35059 0.7684,2.36544 0.45002,0.9731 1.01632,2.70506 1.29541,3.8864 0.27963,1.1392 0.72525,2.4489 1.01361,2.91534 1.11246,1.78096 2.26203,7.17966 2.13858,10.20642 -0.12942,3.48938 0.48166,5.01147 2.56354,6.63684 1.33258,1.02673 1.41342,1.28015 2.06546,6.1256 0.4249,2.9077 0.63562,6.10706 0.48926,7.6614 -0.29608,3.36107 0.18942,8.0781 1.0086,9.77116 0.32712,0.7193 0.48661,1.39429 0.3162,1.56034 -0.21192,0.12344 -1.01914,0.7438 -1.86838,1.3637 -3.14148,2.23044 -4.60196,7.8055 -3.31696,12.49094 0.56253,2.02616 0.59534,2.74166 0.15293,4.41836 -0.30912,1.13157 -0.7887,2.4292 -1.08908,2.888 -0.85965,1.41886 -2.46161,8.16984 -2.67572,11.7001 -0.3043,3.99183 0.0655,4.66957 3.23748,6.5615 2.379,1.4189 5.5188,2.55326 10.80005,3.9679 1.76019,0.4855 4.86011,1.4512 6.91199,2.1508 2.05135,0.7417 5.69739,1.75646 8.13049,2.2508 4.78153,1.0295 10.18894,2.4458 11.52698,3.05204 1.12943,0.4773 4.314,1.40196 10.89448,3.16993 4.98742,1.36873 5.99563,1.46593 11.96663,1.58569 l 6.51832,0.0847 2.75201,-1.3943 c 5.8848,-2.9519 10.26007,-9.49855 9.91009,-14.92884 -0.24188,-4.04096 -2.8421,-7.86026 -7.22325,-10.56702 l -2.54448,-1.63134 -5.34242,0.0567 c -5.1316,0.0174 -5.34132,-0.0274 -5.9601,-0.96076 -2.4352,-3.5647 -5.1883,-8.56364 -5.17682,-9.44678 0.004,-0.29431 -0.76782,-2.40746 -1.66348,-4.69036 -1.18185,-2.91755 -1.78308,-5.1966 -2.04687,-7.5554 -0.29493,-3.2004 -1.22053,-6.409 -3.0965,-10.93386 -1.63235,-3.84874 -1.79673,-7.38398 -0.71091,-13.25834 0.9498,-5.1191 1.47574,-6.7526 2.14862,-6.74386 0.21026,0.003 0.84763,-0.49364 1.48609,-1.07424 0.89517,-0.9137 1.1131,-1.49974 1.13443,-3.13975 0.0142,-1.09351 0.19986,-2.43701 0.41724,-2.98085 0.21734,-0.544 0.66577,-2.6832 0.9449,-4.7406 0.7838,-5.2894 1.92695,-9.10204 9.44602,-31.002 2.44848,-7.1605 4.986,-14.6985 5.64356,-16.75086 0.65814,-2.09444 1.57792,-4.90054 2.01652,-6.28284 2.278,-6.99456 2.80455,-8.6701 3.77837,-12.40075 0.57563,-2.2218 1.37418,-5.40802 1.77503,-7.12725 0.35897,-1.7198 1.16235,-5.2845 1.78558,-7.9262 0.58112,-2.6423 1.3873,-6.4172 1.74942,-8.38936 0.40417,-1.97164 0.98913,-4.9082 1.38836,-6.50134 1.02734,-4.6132 2.09571,-12.38056 3.39514,-24.9819 1.09955,-10.16434 2.3487,-18.8967 2.95222,-20.0244 0.3446,-0.6265 0.75048,-2.7243 0.90124,-4.615 0.20319,-2.6892 0.46864,-3.6953 1.23926,-4.7367 0.89844,-1.16605 0.98962,-1.71164 0.94268,-4.57236 -0.0486,-2.73464 0.0443,-3.40634 0.77125,-4.32221 0.72638,-0.8739 0.81811,-1.46153 0.64013,-3.94543 -0.17804,-2.4838 -0.0432,-3.1551 0.77558,-4.65857 0.51831,-1.04483 0.87164,-2.34403 0.84002,-3.14363 -0.0743,-0.75804 0.10706,-1.7651 0.36536,-2.22453 0.25836,-0.45923 0.57239,-1.96937 0.71661,-3.35541 0.18677,-1.42766 0.58887,-3.23106 0.93561,-4.0257 0.34734,-0.83673 0.78919,-2.47131 0.97327,-3.68866 l 0.32281,-2.1829 3.19281,0.2938 c 1.76398,0.19117 4.91419,0.52655 7.05622,0.7647 2.14197,0.2382 4.07428,0.43153 4.32653,0.4348 0.2524,0.003 0.39155,2.2343 0.38227,6.18783 -0.0448,3.44843 0.0687,7.65587 0.21448,9.38237 0.2622,2.485 0.16815,3.2408 -0.25721,3.6138 -0.38238,0.2895 -0.60687,1.3801 -0.62872,3.06224 -0.0388,2.98586 0.62538,3.66742 2.24243,2.21631 0.51068,-0.45599 1.14691,-0.86841 1.39929,-0.86511 0.71486,0.009 9.02301,-8.16864 10.22566,-10.08771 0.73022,-1.16823 4.42333,-3.77008 7.3861,-5.20367 4.61395,-2.2533 4.57074,-2.1698 4.26123,-10.71206 -0.15887,-3.9557 -0.47333,-8.88096 -0.6568,-10.94425 -0.22497,-2.1059 -0.68805,-8.54725 -1.0758,-14.31455 -0.87195,-13.8073 -1.33283,-20.4167 -1.98047,-28.8373 -0.28669,-3.8312 -0.79291,-10.189 -1.03644,-14.1037 -0.28504,-3.9574 -0.75794,-9.6417 -1.0976,-12.63245 -0.33912,-3.03275 -0.789,-10.48335 -1.04565,-16.62751 -0.98489,-24.53399 -1.73067,-41.57821 -1.95731,-43.55801 -0.1109,-1.1792 -0.55156,-6.10603 -0.90924,-10.94763 -0.94032,-11.7892 -2.08702,-23.8755 -2.59656,-26.74222 -0.19384,-1.26434 -0.65264,-4.80334 -0.99224,-7.79413 -0.29712,-3.03215 -0.75745,-6.44507 -0.95302,-7.58331 -0.19493,-1.18018 -0.505,-6.44177 -0.64696,-11.70124 -0.18347,-5.30193 -0.50128,-9.9748 -0.70604,-10.398 -0.24684,-0.42383 -0.5953,-2.7417 -0.81697,-5.09998 -0.17963,-2.35772 -0.57003,-4.67618 -0.77487,-5.09939 -0.49206,-0.97376 -1.73456,-5.70069 -2.72406,-10.4665 -0.39478,-1.98187 -0.95246,-4.38665 -1.2337,-5.39973 -0.2818,-0.97112 -0.43848,-1.85637 -0.31074,-1.98082 0.0858,-0.12512 1.05628,-0.36481 2.06824,-0.56195 6.03058,-1.22559 8.51996,-1.82416 12.9968,-3.23798 7.09558,-2.26315 9.55438,-3.74545 15.39166,-9.51595 2.72748,-2.7406 5.27972,-4.9366 5.74224,-4.9306 0.88374,-0.0306 2.24146,-0.93818 2.2491,-1.52693 0.003,-0.21027 1.31677,-0.99231 2.92407,-1.68652 3.0885,-1.38989 5.34466,-3.46355 6.81053,-6.22045 0.47462,-0.9192 1.15846,-1.75154 1.49647,-1.87336 0.6341,-0.24414 2.55878,-2.70069 5.68723,-7.16046 0.98523,-1.37525 2.57947,-4.29871 3.53308,-6.47351 0.99567,-2.17414 2.11639,-4.26267 2.54132,-4.59354 0.3828,-0.33153 1.49365,-1.66303 2.39325,-2.91327 1.84105,-2.49956 4.65649,-5.53346 7.29443,-7.85449 3.44622,-3.02557 8.13502,-7.8017 9.33484,-9.5105 0.857,-1.20862 1.33655,-2.50635 1.52606,-4.14429 0.23652,-2.01568 0.45276,-2.47558 1.34186,-2.92675 1.90503,-0.94257 10.31574,-4.07183 12.89032,-4.75348 1.39319,-0.40247 2.87161,-0.88795 3.2529,-1.09327 0.42322,-0.20483 0.97211,-0.36596 1.26648,-0.36206 0.29436,0.004 1.13928,-0.27978 1.81708,-0.64952 1.48278,-0.8219 3.54883,-1.2157 9.27844,-1.94032 4.08637,-0.49353 6.66034,-1.13318 7.63739,-1.87744 0.67945,-0.49597 7.9007,-2.71546 9.83893,-2.9845 1.3064,-0.19348 1.68872,-0.48291 2.08142,-1.57132 0.69635,-1.79956 0.69635,-1.79956 -0.54987,-2.9935 -0.62317,-0.59704 -0.8695,-1.06286 -0.57513,-1.05896 0.29437,0.004 0.88696,-0.28283 1.31244,-0.656 0.89349,-0.78748 8.302,-1.23792 19.32106,-1.17884 3.82747,0.008 8.58168,-0.0986 10.60188,-0.19862 3.28352,-0.2097 3.79038,-0.37132 5.02462,-1.49083 0.7241,-0.70569 1.57997,-1.8302 1.9258,-2.54077 0.6073,-1.42212 1.8744,-1.8263 5.78527,-1.7754 1.1355,0.0148 1.97923,-0.18468 1.98253,-0.437 0.004,-0.33643 -2.1399,-0.40625 -7.44066,-0.307 -4.12294,0.0726 -12.57846,0.17296 -18.84598,0.21764 l -11.35776,0.10474 2.9154,-1.01355 c 1.6056,-0.568 3.21354,-1.3042 3.55436,-1.63623 1.27747,-1.20325 0.18738,-1.46973 -5.99556,-1.46595 l -6.0989,0.005 0.0153,-1.17761 c 0.0202,-1.55603 -0.81813,-1.7771 -2.59803,-0.74878 l -1.48284,0.82202 -1.12396,-0.89795 c -1.54004,-1.23987 -5.49036,-1.50147 -5.50513,-0.36597 -0.0147,1.13538 -0.86353,1.71325 -1.7406,1.23925 -0.45984,-0.21642 -1.50464,-0.73473 -2.34131,-1.08202 -0.91974,-0.43262 -1.83454,-1.24353 -2.24408,-2.09008 -0.3692,-0.71986 -0.94648,-1.6106 -1.23651,-1.95094 -0.33257,-0.2987 -1.07752,-1.23376 -1.65637,-1.99829 -1.69477,-2.29333 -6.24143,-5.21252 -9.76133,-6.22572 -3.85473,-1.14368 -14.23529,-1.78345 -18.70172,-1.16846 -4.80389,0.69458 -9.99347,1.93103 -12.02515,2.91396 -2.91976,1.35009 -7.34243,5.07812 -9.61013,8.03491 -1.1131,1.49974 -2.05407,2.70727 -2.13812,2.70618 -0.0842,-10e-4 -0.58613,-0.2179 -1.17157,-0.47791 -0.83613,-0.38953 -1.34131,-0.354 -2.52594,0.17737 -0.84594,0.36767 -1.52539,0.86365 -1.52814,1.07385 -0.003,0.25232 -0.46802,0.41455 -1.05676,0.40685 -0.63086,-0.008 -1.0481,-0.2661 -1.04377,-0.6024 0.004,-0.29444 -0.4096,-0.84656 -0.90985,-1.18958 -1.16705,-0.81432 -2.85742,-0.20545 -2.87274,0.97218 -0.008,0.58873 -0.21954,0.71202 -1.01575,0.49132 -1.63519,-0.39954 -2.60901,0.0924 -2.71008,1.3949 -0.25615,3.52978 0.33691,3.20105 -6.44073,3.65978 -3.36762,0.20863 -6.2305,0.4236 -6.39872,0.4214 -0.21075,0.0394 -0.34027,0.29003 -0.34466,0.62646 -0.004,0.33644 1.24966,0.94164 3.17648,1.55554 1.71753,0.52698 3.0567,1.04932 2.9289,1.1736 -0.12775,0.12462 -4.63135,0.36046 -10.01639,0.45873 -5.38556,0.14025 -10.30908,0.32861 -10.94208,0.48864 -1.13873,0.23755 -1.18018,0.19507 -1.15825,-1.48707 0.0202,-1.55602 -0.3938,-5.30492 -1.5013,-13.94164 -0.57666,-4.17151 -3.2848,-19.0962 -4.7129,-25.71817 -1.38823,-6.45337 -3.07305,-12.74231 -5.25585,-19.54249 -2.22442,-6.84266 -3.32812,-9.29651 -4.86773,-10.57837 -0.70722,-0.59803 -1.61548,-1.91358 -2.02289,-2.92847 -0.93768,-2.28345 -3.26103,-4.75319 -5.55917,-5.91872 -0.9607,-0.51709 -2.08741,-1.20483 -2.46143,-1.54602 -1.45503,-1.32299 -6.50353,-4.45886 -9.51221,-5.97021 -5.93445,-2.93726 -19.33082,-7.78003 -24.48977,-8.89858 -1.38392,-0.3125 -3.56089,-1.09802 -4.85633,-1.74573 -1.25287,-0.6892 -3.21844,-1.55602 -4.39096,-1.9497 -2.05188,-0.69971 -2.09341,-0.74219 -2.56746,-3.10388 -0.27742,-1.30738 -0.59523,-2.74158 -0.71647,-3.12171 -0.28125,-1.01318 1.3692,-1.79089 2.53955,-1.22888 0.45935,0.25842 1.84322,0.57068 2.97712,0.71167 1.17528,0.1836 3.56627,0.67725 5.4106,1.16394 6.24527,1.67944 10.1666,0.93128 11.1732,-2.08386 0.2622,-0.75378 0.45717,-2.81212 0.39657,-4.62157 l -0.0414,-3.28125 2.00049,-1.82472 c 2.29933,-2.15723 2.86731,-3.79028 1.9242,-5.6532 -0.40907,-0.88855 -0.48389,-1.60437 -0.22339,-2.23218 0.2168,-0.5017 0.4812,-1.42358 0.61609,-2.09496 0.22229,-0.92237 0.51941,-1.12879 1.57073,-1.11512 1.30366,0.017 3.34302,-1.55481 3.35615,-2.56408 0.004,-0.29432 -0.28022,-1.0973 -0.60785,-1.77454 -1.31238,-2.58278 -0.6706,-3.41566 2.9077,-3.66359 2.90498,-0.21448 4.47407,-1.20349 5.34358,-3.3794 0.7395,-1.88318 0.25946,-3.7821 -1.6023,-6.16162 -0.61988,-0.84937 -1.68865,-2.75599 -2.3424,-4.23658 -3.88086,-8.84119 -3.80274,-8.37745 -1.93103,-9.99341 1.70129,-1.45008 2.60295,-2.86842 2.06067,-3.21192 -0.20862,-0.12891 -0.84272,0.11523 -1.4375,0.57019 -1.44458,1.11682 -1.98029,0.26867 -0.70124,-1.06067 0.55432,-0.58167 1.10596,-0.95301 1.23047,-0.8252 0.54285,0.30152 0.57782,-2.38989 0.2782,-14.92787 -0.19977,-7.27918 -0.13861,-8.750374 0.37365,-9.33253 0.38398,-0.41565 0.51832,-1.04492 0.3572,-1.59387 -0.1622,-0.4646 -0.0698,-1.09424 0.1442,-1.385986 0.21412,-0.291744 0.52052,-1.212898 0.7002,-2.093879 0.2256,-1.174805 0.18848,-1.553835 -0.27416,-1.559815 -0.42054,-0.0055 -0.66407,-0.68164 -0.77002,-2.23926 C 328.8118,63.074036 317.6503,51.320362 306.14465,46.628098 302.21188,45.0208 293.5713,43.184006 287.77338,42.688034 c -1.05024,-0.09778 -2.94046,-0.290654 -4.20048,-0.433109 -1.2599,-0.1427 -4.28884,-0.0979 -6.73016,0.03858 z m -39.58638,36.162265 c -0.0519,0.756469 -1.12018,2.046385 -1.41018,1.706055 -0.1666,-0.1283 -0.29496,0.03821 -0.29987,0.41675 -0.005,0.37854 -0.39051,0.920286 -0.85745,1.25061 -0.97596,0.6604 -1.93073,2.91932 -1.60626,3.84876 0.16326,0.38074 0.0355,0.50525 -0.34086,0.33203 -0.50238,-0.1748 -0.5914,0.20264 -0.40847,2.30811 0.26046,2.61108 -0.43157,4.07422 -0.86568,1.881345 -0.27747,-1.307375 0.0426,-6.518685 0.49817,-9.20472 0.31734,-1.762329 1.76466,-3.089599 2.68217,-2.488769 0.25071,0.129394 0.5456,0.09131 0.71707,-0.158936 0.38617,-0.58374 1.89902,-0.47998 1.89136,0.108765 z m -4.69543,14.996595 c -0.13278,0.503176 -0.34686,0.79468 -0.47135,0.666994 -0.20701,-0.255249 0.22995,-1.511354 0.52432,-1.507568 0.0841,0.0011 0.0792,0.379639 -0.053,0.840574 z m 8.36007,26.64893 c -0.003,0.21033 -0.2152,0.37574 -0.50955,0.37183 -0.25235,-0.003 0.20371,0.50745 1.07859,1.14978 1.49862,1.19714 1.49862,1.19714 1.21514,3.59083 -0.18951,1.63794 -0.11581,2.43799 0.17856,2.44177 0.25232,0.003 0.45987,0.21643 0.45658,0.46887 -0.003,0.21021 -0.17206,0.29212 -0.4227,0.1626 -0.20865,-0.12878 -0.42053,-0.005 -0.46643,0.28845 -0.004,0.29432 -0.2114,0.0812 -0.49808,-0.51135 -0.24469,-0.59204 -0.77496,-1.86072 -1.22446,-2.87597 -0.65423,-1.4386 -0.6903,-1.90175 -0.26321,-2.40089 0.46969,-0.54065 0.42822,-0.58325 -0.0786,-0.42163 -0.46479,0.16211 -0.83893,-0.17908 -1.20478,-1.15137 -0.28455,-0.76074 -0.56909,-1.52136 -0.65155,-1.64868 -0.0825,-0.1272 0.4227,-0.16284 1.13599,-0.0273 0.67178,0.0928 1.25723,0.3529 1.25451,0.5631 z m 3.37009,12.53566 c 0.86075,1.73572 1.41831,4.1405 1.03275,4.68226 -0.25836,0.45935 -1.44187,-2.33204 -2.24298,-5.41298 -0.36158,-1.30847 0.43142,-0.83557 1.21023,0.73072 z m -1.93283,3.08752 c -0.55984,1.00208 -0.48007,1.3396 0.19986,0.80176 0.42548,-0.37305 0.71658,-0.11694 1.24411,1.36195 0.97376,2.74671 0.77164,5.35181 -0.48996,5.33545 -0.33646,-0.004 -0.59201,0.24463 -0.5964,0.58106 -0.007,0.50464 -3.26657,2.14477 -3.64063,1.80334 -0.0825,-0.12732 1.29062,-5.45105 1.85806,-7.04199 0.21738,-0.54394 0.25943,-0.54334 0.58878,0.008 0.16379,0.33862 0.44397,1.43579 0.59909,2.44727 0.15564,0.96948 0.44067,1.6881 0.65313,1.52258 0.63575,-0.37012 0.43919,-1.42432 -0.62362,-3.79346 -0.69467,-1.56518 -0.9339,-2.57777 -0.75366,-3.50087 0.22284,-0.96448 0.39328,-1.13049 0.80887,-0.74646 0.33203,0.3407 0.41071,0.76233 0.15237,1.22168 z m 126.43428,139.09761 c 1.4997,1.11304 2.80176,1.25598 11.63843,0.95032 4.16547,-0.114 12.5805,-0.3412 18.72357,-0.51367 6.14313,-0.17249 12.37082,-0.38599 13.8859,-0.45033 l 2.73559,-0.1328 -1.69133,0.6931 c -0.93068,0.40846 -1.94325,0.64772 -2.23604,0.5177 -0.29326,-0.0879 -0.50464,-0.007 -0.42321,0.20485 0.0808,0.25342 -3.88483,4.40785 -8.82645,9.22281 -6.81708,6.72509 -9.53967,9.08709 -11.36,9.98877 -1.31297,0.69793 -2.8842,1.85522 -3.48284,2.60461 -0.94096,1.20746 -1.36426,1.41229 -3.00494,1.43304 -2.10376,0.0567 -5.19172,1.40455 -7.31732,3.1435 -1.44513,1.15892 -3.76898,1.96997 -4.09833,1.41882 -0.12397,-0.16986 -0.48224,-1.73065 -0.79675,-3.4173 -0.35614,-1.72906 -1.22992,-5.69415 -1.94642,-8.8159 -1.55535,-6.53963 -3.08386,-15.13988 -2.78295,-15.64073 0.12835,-0.1665 0.0476,-0.41992 -0.20258,-0.59143 -0.41729,-0.25781 -0.56964,-1.47949 -0.19117,-1.47461 0.12617,0.002 0.75202,0.38831 1.37684,0.85925 z M 208.1867,357.14963 c 1.16547,0.94043 3.4593,2.44244 5.13047,3.30537 2.50626,1.33647 3.00485,1.80553 2.99393,2.6466 -0.007,0.54675 -0.18567,1.34356 -0.4014,1.76135 -1.76578,3.1737 -3.20496,7.1087 -4.7124,13.06165 -0.35608,1.5095 -1.09507,3.35058 -1.568,4.1436 -1.15948,1.83558 -1.573,4.52207 -1.18799,7.26108 0.1944,1.22236 0.13163,2.81982 -0.0896,3.65815 -0.2212,0.83831 -1.10272,3.93933 -1.89905,6.95733 -2.56049,9.30408 -3.40653,12.91034 -3.69544,15.72467 -0.18903,1.59577 -0.98312,4.44557 -1.94055,6.91467 -0.91321,2.30158 -1.87775,5.31727 -2.1481,6.7018 -0.31241,1.3839 -0.71167,2.9771 -0.97165,3.56255 -0.2179,0.58595 -0.75534,3.10269 -1.20813,5.57835 l -0.81662,4.5739 -0.80707,-5.8568 c -0.46307,-3.20274 -1.03101,-8.04698 -1.28985,-10.78434 l -0.44013,-4.96881 1.83292,-5.10761 c 2.26822,-6.23754 3.98919,-12.44012 4.01599,-14.50074 -0.0185,-1.8089 -0.85303,-5.56304 -1.75031,-7.71978 -0.36697,-0.88806 -0.64276,-2.32172 -0.63073,-3.24682 0.0235,-1.80835 1.1077,-7.55655 2.03235,-10.74118 0.35177,-1.17304 0.80783,-3.90112 1.08855,-6.08454 0.38016,-3.36004 0.73191,-4.53314 2.24146,-7.41565 1.51014,-2.92463 1.81983,-4.09826 2.289,-7.83557 0.51346,-3.90496 0.64564,-4.36584 1.18628,-3.89624 0.3747,0.29932 1.62314,1.32501 2.74606,2.30701 z m -24.46154,134.5281 c 0.35937,1.47675 -0.15091,11.60682 -0.72543,13.74433 -0.26603,1.04804 -0.6254,2.81 -0.76633,3.94378 -0.18244,1.09119 -0.44455,1.84486 -0.61063,1.6745 -0.20752,-0.21307 -0.56198,-2.06834 -0.78747,-4.13226 -0.26758,-2.06438 -0.70172,-4.2572 -1.03055,-4.85028 -0.36805,-0.80395 -0.44068,-1.68817 -0.12335,-3.45062 0.2272,-1.30091 0.4588,-2.93823 0.55114,-3.56793 0.0928,-0.67182 0.44568,-1.92902 0.75147,-2.80835 0.73895,-1.841 2.38394,-2.1982 2.74115,-0.55317 z m 91.30292,123.75137 c -0.22888,4.6657 -0.55173,6.8487 -0.93616,7.30625 -0.76795,0.83125 -0.77835,1.63025 -0.041,3.15405 0.45,0.9732 0.48218,1.7308 0.1217,3.5767 -0.31896,1.88864 -0.28945,2.8564 0.1922,4.6292 0.6035,2.1109 0.6013,2.279 -0.20864,3.1098 -1.0661,1.1217 -1.07376,1.7105 -0.0721,2.31236 1.37845,0.73294 1.47888,2.71114 0.23585,4.50354 -1.3714,1.959 -1.4244,2.7995 -0.0962,4.1627 0.91315,0.9373 1.03328,1.4015 0.995,4.3452 -0.0235,1.8083 -0.26108,3.9082 -0.52377,4.70395 -1.00553,2.93115 -3.39605,8.87275 -5.1706,12.71912 -1.03878,2.25783 -3.03778,7.19503 -3.04162,7.48933 -10e-4,0.0841 -0.21955,0.7122 -0.48059,1.38176 -0.3053,0.83724 -0.51776,1.00274 -0.80667,0.57834 -0.41123,-0.7204 -0.005,-19.05344 0.46725,-19.7623 0.17203,-0.29224 0.31842,-1.84656 0.29718,-3.44507 -0.0115,-2.35563 0.21024,-3.23596 1.07098,-4.73893 1.24747,-2.1289 1.3938,-3.68325 0.43647,-4.4527 -1.33095,-1.15303 -1.40467,-1.95314 -0.4953,-3.9602 0.64993,-1.46365 0.78811,-2.3872 0.59863,-3.98794 -0.18842,-1.68486 -0.0535,-2.35616 0.63409,-3.48286 0.51618,-0.87645 0.95798,-2.5111 1.15296,-4.5695 0.19119,-1.7641 0.51237,-3.8209 0.77507,-4.6167 0.26274,-0.7957 0.62703,-2.936 0.86134,-4.7836 0.47409,-4.1158 1.7533,-11.92246 2.09628,-12.4227 0.12888,-0.2086 0.67778,-0.36976 1.26648,-0.3621 l 1.0514,0.0136 z"
           id="path2"
           inkscape:connector-curvature="0" />
      </g>
    </g>
  </g>
</svg>
