<?xml version="1.0" encoding="UTF-8" standalone="no"?>
<svg
   xmlns:dc="http://purl.org/dc/elements/1.1/"
   xmlns:cc="http://creativecommons.org/ns#"
   xmlns:rdf="http://www.w3.org/1999/02/22-rdf-syntax-ns#"
   xmlns:svg="http://www.w3.org/2000/svg"
   xmlns="http://www.w3.org/2000/svg"
   xmlns:sodipodi="http://sodipodi.sourceforge.net/DTD/sodipodi-0.dtd"
   xmlns:inkscape="http://www.inkscape.org/namespaces/inkscape"
   version="1.1"
   id="svg2"
   xml:space="preserve"
   width="5772.1514"
   height="2717.886"
   viewBox="0 0 5772.1513 2717.8859"
   sodipodi:docname="together_dynamic_child6.svg"
   inkscape:version="1.0.2 (e86c870879, 2021-01-15)"><metadata
     id="metadata8"><rdf:RDF><cc:Work
         rdf:about=""><dc:format>image/svg+xml</dc:format><dc:type
           rdf:resource="http://purl.org/dc/dcmitype/StillImage" /><dc:title></dc:title></cc:Work></rdf:RDF></metadata><defs
     id="defs6"><clipPath
       clipPathUnits="userSpaceOnUse"
       id="clipPath18"><path
         d="M 0,5400 H 4500 V 0 H 0 Z"
         id="path16"
         inkscape:connector-curvature="0" /></clipPath></defs><sodipodi:namedview
     pagecolor="#ffffff"
     bordercolor="#666666"
     borderopacity="1"
     objecttolerance="10"
     gridtolerance="10"
     guidetolerance="10"
     inkscape:pageopacity="0"
     inkscape:pageshadow="2"
     inkscape:window-width="1920"
     inkscape:window-height="997"
     id="namedview4"
     showgrid="false"
     fit-margin-top="0"
     fit-margin-left="0"
     fit-margin-right="0"
     fit-margin-bottom="0"
     inkscape:zoom="0.092709556"
     inkscape:cx="1825.501"
     inkscape:cy="1419.0672"
     inkscape:window-x="0"
     inkscape:window-y="0"
     inkscape:window-maximized="1"
     inkscape:current-layer="g10"
     inkscape:document-rotation="0" /><g
     id="g10"
     inkscape:groupmode="layer"
     inkscape:label="kids-3297107"
     transform="matrix(1.3333333,0,0,-1.3333333,45.530847,4837.744)"><rect
       style="fill:#ffffff;stroke-width:4.25197;stroke-linecap:square;stroke-linejoin:round;stroke-dasharray:8.50395, 8.50395"
       id="rect846"
       width="4329.1138"
       height="2038.4146"
       x="-34.148136"
       y="-3628.3081"
       transform="scale(1,-1)" /><g
       id="g12"><g
         id="g14"
         clip-path="url(#clipPath18)"><g
           id="g20"
           transform="translate(1844.8657,1884.1064)"><path
             d="m 0,0 c -16.324,9.665 -25.214,30.997 -20.048,42.54 1.412,3.153 4.294,6.518 6.112,13.69 0.797,3.143 1.127,5.983 1.712,11.002 0.514,4.411 0.59,6.789 0.733,11.247 0.208,6.459 -0.113,7.552 -0.733,8.557 -1.896,3.07 -4.715,2.291 -6.601,5.134 -0.491,0.74 -1.883,3.178 0,10.268 1.778,6.696 4.605,10.493 6.356,13.691 3.435,6.272 3.334,11.335 3.912,22.493 0.647,12.497 2.125,24.936 3.178,37.405 2.1,24.867 3.85,23.682 5.868,48.897 1.055,13.187 0.781,16.066 2.2,30.805 1.382,14.351 2.01,15.437 3.423,28.849 3.301,31.308 0.324,29.582 3.423,44.495 3.573,17.198 7.838,20.969 7.09,34.473 -0.485,8.757 -2.379,8.988 -3.423,20.536 -0.525,5.812 -1.525,17.946 1.956,32.027 1.537,6.222 2.295,6.127 10.268,25.671 5.486,13.448 5.903,15.393 9.78,24.938 2.766,6.809 5.839,13.91 16.624,36.428 0,0 12.766,26.653 28.849,76.767 0.854,2.661 2.319,7.445 0,11.002 -2.64,4.05 -7.808,2.857 -9.779,7.09 -1.464,3.142 -0.194,7.19 1.467,9.535 1.437,2.028 2.814,2.285 4.401,3.667 4.381,3.819 4.141,10.818 4.156,13.69 0.038,7.763 2.007,0.734 7.823,36.917 3.315,20.628 2.577,22.3 5.623,43.274 3.511,24.17 4.724,23.547 6.846,40.096 2.311,18.016 0.721,17.567 2.689,52.563 1.879,33.395 3.731,41.022 0.244,56.965 -2.968,13.573 -7.442,22.358 -9.534,26.16 -5.68,10.316 -11.596,16.206 -18.825,23.959 -10.761,11.539 -20.258,24.204 -30.805,35.939 -53.918,59.992 -93.141,112.938 -105.372,118.818 -0.923,0.443 -4.925,2.175 -5.644,5.519 -0.467,2.164 0.585,4.376 2.689,8.802 1.86,3.913 2.545,4.257 2.689,5.867 0.344,3.84 -3.085,7.053 -4.645,8.557 -13.856,13.365 -11.833,18.992 -24.693,27.382 -7.53,4.914 -8.748,3.327 -16.625,9.046 -5.718,4.153 -5.916,5.598 -13.446,11.002 -4.192,3.007 -8.165,5.454 -13.202,8.557 -4.113,2.533 -6.17,3.799 -9.046,5.378 -5.878,3.227 -7.4,3.547 -11.246,6.113 -4.019,2.679 -8.336,5.559 -7.824,8.312 0.289,1.551 2.054,2.769 3.668,3.178 2.281,0.579 4.027,-0.517 13.691,-5.867 2.444,-1.353 4.921,-2.68 7.579,-1.956 0.534,0.145 1.885,0.513 2.2,1.467 0.524,1.588 -2.297,3.575 -6.112,6.845 -4.133,3.543 -4.59,4.428 -6.103,5.936 -1.162,1.158 -2.147,1.936 -2.699,2.377 -6.136,4.903 -8.53,5.715 -9.534,8.557 -0.662,1.872 -0.696,4.557 0.733,5.867 1.77,1.623 5.112,0.519 7.334,-0.244 5.676,-1.952 7.677,-4.799 12.714,-8.313 5.457,-3.807 12.387,-6.937 13.201,-5.867 0.979,1.284 -6.44,9.166 -13.69,16.869 -6.331,6.726 -9.889,9.94 -9.29,14.18 0.323,2.297 1.881,4.994 4.155,5.623 2.327,0.642 4.689,-1.077 6.113,-2.2 10.095,-7.965 15.186,-19.195 24.937,-24.938 2.142,-1.261 3.953,-1.93 4.889,-1.222 1.619,1.223 -0.1,6.007 -0.489,7.09 -1.206,3.357 -2.885,5.536 -4.889,8.068 -7.16,9.045 -8.765,10.336 -9.779,13.935 -0.388,1.376 -1.673,5.934 0.488,7.824 2.072,1.812 6.138,0.146 7.091,-0.245 4.772,-1.955 6.156,-5.355 11.49,-12.957 8.921,-12.713 9.817,-9.994 13.936,-17.359 0.428,-0.765 2.468,-4.463 6.601,-7.089 1.435,-0.912 3.599,-2.252 5.134,-1.467 1.689,0.864 1.718,3.845 1.711,7.09 -0.011,5.472 -1.183,6.894 -1.467,12.957 -0.236,5.07 0.448,6.946 1.467,8.313 0.349,0.467 1.674,2.243 3.912,2.689 3.888,0.776 7.192,-3.127 7.824,-3.912 1.997,-2.486 2.207,-4.859 2.933,-9.29 1.489,-9.07 1.896,-6.942 2.934,-14.18 0.6,-4.186 0.347,-4.08 1.222,-19.314 0.941,-16.365 0.959,-11.708 1.223,-18.337 0.239,-6.006 0.1,-6.716 0.733,-8.556 2.225,-6.467 6.518,-5.209 11.735,-12.714 2.458,-3.533 5.501,-9.559 9.78,-13.446 0.577,-0.524 1.24,-1.069 2.2,-1.223 2.883,-0.462 4.447,3.233 8.068,4.157 2.495,0.636 4.707,-0.365 6.601,-1.222 13.559,-6.139 35.125,-39.832 44.007,-45.23 0.529,-0.322 2.371,-1.369 4.156,-3.423 2.23,-2.566 2.664,-4.742 3.912,-7.334 1.894,-3.931 3.578,-4.493 6.846,-8.557 3.812,-4.74 4.614,-7.821 7.089,-12.469 0.775,-1.453 11.876,-21.817 26.649,-25.915 0.87,-0.241 4.728,-1.252 9.779,-3.178 4.739,-1.808 7.133,-2.74 8.313,-4.156 1.521,-1.825 1.931,-5.887 2.689,-13.936 0.434,-4.599 0.407,-5.844 1.467,-7.579 0.809,-1.324 1.832,-2.248 7.334,-5.134 6.062,-3.179 10.133,-4.844 14.669,-6.112 4.416,-1.234 5.543,-1.05 6.357,-0.489 1.444,0.994 1.607,2.966 1.467,9.29 -0.2,9.033 -0.324,13.625 -1.467,17.359 -1.296,4.229 -2.989,7.203 -3.912,8.801 -1.07,1.854 -3.832,6.337 -8.801,11.002 -6.062,5.688 -7.926,4.626 -11.246,9.045 -3.092,4.117 -3.953,8.337 -4.646,11.736 -0.996,4.894 -1.037,9.821 0,16.38 1.577,9.965 4.737,18 8.313,25.671 2.663,5.712 5.966,12.097 15.402,27.382 12.29,19.906 18.585,29.99 25.916,36.428 9.531,8.37 18.613,12.499 22.003,13.935 12.077,5.116 21.627,5.575 37.895,6.357 12.891,0.62 29.764,1.43 45.229,-3.667 0,0 0.14,-0.046 15.892,-5.379 -0.707,1.744 -2.906,7.507 -0.978,9.046 1.831,1.462 6.525,-1.576 10.512,-4.156 4.582,-2.966 7.941,-6.008 10.513,-8.557 5.051,-5.006 4.031,-5.094 12.224,-14.425 5.341,-6.081 6.806,-7.218 8.313,-10.757 1.533,-3.602 1.221,-5.254 3.178,-7.824 2.799,-3.673 8.113,-6.428 10.513,-4.889 0.693,0.445 2.137,1.887 -0.245,14.669 -2,10.738 -3.078,16.52 -6.112,24.937 -2.078,5.766 -3.816,9.28 -2.2,11.002 2.022,2.154 6.906,-1.044 11.491,1.956 2.2,1.44 3.166,3.546 3.422,4.156 2.238,5.33 -0.871,12.822 -4.89,16.136 -0.631,0.521 -1.776,1.343 -2.689,2.934 -1.346,2.348 -1.239,4.725 -1.222,5.378 0.096,3.61 -1.24,8.763 -3.912,19.07 -0.733,2.831 -3.726,13.91 -12.224,23.715 -3.996,4.61 -6.665,6.004 -9.046,11.246 -2.097,4.617 -2.4,8.758 -2.689,12.713 -0.611,8.351 1.53,7.621 1.222,17.358 -0.093,2.962 -0.362,5.279 1.223,6.846 1.64,1.621 4.935,2.114 6.845,0.733 1.803,-1.302 1.96,-5.449 2.2,-13.691 0.106,-3.621 0.064,-6.14 1.712,-8.557 1.376,-2.019 3.256,-2.976 3.667,-3.178 1.08,-0.528 2.196,-1.073 3.179,-0.733 1.693,0.585 2.179,3.52 2.444,6.845 0.46,5.746 -0.076,8.387 -0.244,13.691 -0.246,7.731 0.779,5.674 0.733,14.914 -0.016,3.182 -0.143,4.683 0.978,5.867 2.294,2.422 8.504,2.136 11.246,-0.978 2.305,-2.616 1.863,-7.693 0.978,-17.847 -0.239,-2.755 -0.563,-5.352 0.978,-7.823 1.33,-2.133 3.999,-4.092 5.868,-3.423 1.028,0.367 1.797,1.525 2.689,6.845 1.241,7.398 0.559,9.961 1.711,15.647 0.917,4.52 1.496,7.166 3.912,8.802 2.555,1.729 6.482,1.867 9.046,0 2.66,-1.936 2.918,-5.348 3.179,-8.802 0.359,-4.749 -0.498,-11.01 -1.712,-15.647 -0.139,-0.533 -0.778,-2.934 0,-5.623 0.273,-0.943 0.729,-2.443 1.956,-2.934 1.552,-0.62 3.383,0.758 3.667,0.978 2.804,2.179 1.474,5.465 3.423,12.469 0.137,0.496 -0.013,-0.086 3.422,8.557 1.759,4.422 2.187,5.553 3.423,6.112 2.316,1.046 6.301,-0.444 8.068,-3.178 3.549,-5.489 -1.592,-16.363 -3.911,-21.27 -0.448,-0.947 -2.278,-4.74 -1.712,-9.291 0.155,-1.242 0.387,-2.939 1.467,-3.423 1.849,-0.825 5.193,2.345 7.09,4.89 3.525,4.729 2.023,7.256 5.379,12.224 1.331,1.971 4.111,6.086 7.579,5.868 3.56,-0.223 6.553,-4.933 6.845,-9.046 0.189,-2.652 -0.769,-4.708 -4.89,-11.002 -4.619,-7.055 -7.023,-10.521 -9.045,-12.957 -13.774,-16.585 -18.042,-16.885 -21.515,-25.182 -2.013,-4.809 -2.157,-8.829 -2.444,-16.869 -0.198,-5.522 0.308,-7.629 7.334,-34.228 0.223,-0.842 0.645,-2.356 1.956,-3.178 3.031,-1.9 6.721,2.462 9.535,1.711 5.871,-1.566 2.072,-23.837 6.356,-51.341 0.382,-2.451 1.803,-8.642 4.645,-21.026 7.074,-30.819 9.695,-38.457 11.247,-46.452 3.41,-17.578 -0.335,-33.07 -7.824,-64.054 -11.696,-48.391 -23.839,-58.811 -26.893,-91.437 -0.476,-5.084 -1.078,-14.415 -4.401,-26.893 -3.223,-12.104 -5.49,-13.963 -11.735,-32.027 -1.9,-5.496 -4.364,-13.85 -9.29,-30.561 -4.068,-13.794 -6.121,-20.781 -7.09,-25.181 -0.793,-3.597 -3.096,-14.545 -4.401,-32.516 -1.171,-16.131 -0.786,-27.575 -0.489,-39.606 1.58,-64.047 -1.13,-72.713 2.69,-88.747 2.859,-12.005 2.66,-24.976 7.823,-36.184 0.489,-1.062 1.152,-2.404 0.733,-3.912 -2.205,-7.944 -31.729,-10.667 -45.229,-9.534 -0.736,0.061 -2.06,0.187 -3.423,-0.49 -6.016,-2.989 -4.206,-17.373 -3.422,-28.115 1.337,-18.355 -2.543,4.354 -0.734,-43.029 1.422,-37.244 3.68,-47.63 4.645,-70.167 1.58,-36.871 -2.053,-65.398 -5.867,-95.348 -3.616,-28.394 -5.425,-42.593 -10.513,-61.365 0,0 -12.537,-46.249 -38.873,-95.104 -7.857,-14.576 -11.895,-31.106 -20.536,-45.229 -0.784,-1.28 -2.822,-4.508 -3.179,-9.046 -0.415,-5.279 1.857,-7.07 4.89,-15.647 3.778,-10.684 2.099,-13.131 6.357,-20.292 2.112,-3.553 2.891,-3.566 4.156,-6.601 0.927,-2.227 3.558,-9.539 0.489,-16.136 -2.082,-4.474 -4.379,-3.447 -6.357,-7.579 -3.035,-6.34 1.835,-9.881 -0.245,-17.114 -1.134,-3.948 -4.342,-7.032 -10.757,-13.202 -5.256,-5.055 -8.08,-6.438 -10.023,-11.001 -1.427,-3.351 -1.462,-6.262 -1.468,-8.802 -0.039,-18.301 0.661,-25.209 0,-33.25 -0.788,-9.611 -1.183,-14.416 -4.4,-18.58 -6.605,-8.549 -19.168,-8.679 -31.049,-8.802 -15.49,-0.16 -32.937,-0.341 -41.318,11.246 -4.884,6.752 -4.787,14.87 -4.645,26.894 0.124,10.504 1.954,9.796 3.423,24.936 1.88,19.386 2.821,29.08 -0.734,37.651 -0.94,2.266 -2.93,6.352 -2.445,11.735 0.307,3.405 1.497,6.153 3.423,10.513 2.59,5.861 3.729,6.872 5.134,10.024 3.457,7.754 0.48,10.428 2.445,25.915 0.786,6.197 1.227,5.49 2.201,12.957 1.34,10.291 0.587,12.284 1.466,18.826 0.651,4.839 1.243,5.09 7.335,23.47 5.557,16.765 6.05,19.528 6.356,21.759 0.975,7.096 0.582,12.529 0,20.537 -0.469,6.471 -0.938,12.916 -3.178,21.026 -2.46,8.901 -3.9,8.383 -5.868,15.891 -2.464,9.403 -2.088,17.4 -1.711,25.426 0.238,5.058 0.894,12.217 0.489,22.981 -0.192,5.107 -0.509,8.013 -1.711,8.313 -2.198,0.548 -6.059,-7.931 -7.579,-11.246 -8.11,-17.684 -32.439,-69.004 -42.54,-87.526 -0.959,-1.757 -3.733,-6.784 -6.357,-13.935 -2.096,-5.715 -4.67,-12.731 -5.134,-22.003 -0.437,-8.735 -0.655,-13.101 0.733,-17.114 0.534,-1.539 1.834,-4.774 0.734,-8.313 -0.632,-2.032 -1.344,-1.876 -2.445,-4.156 -1.524,-3.161 -0.715,-4.623 -1.467,-12.713 -0.331,-3.567 -0.535,-3.78 -0.489,-5.623 0.099,-3.916 1.113,-6.726 1.467,-7.823 2.957,-9.178 -0.858,-21.151 -2.689,-26.894 -1.631,-5.117 -2.495,-7.709 -4.89,-9.29 -3.112,-2.056 -6.691,-1.397 -8.801,-4.4 C 57.667,67.188 57.516,65.714 57.433,64.684 56.55,53.803 58.802,39.446 55.965,28.256 54.915,24.112 53.411,21.362 51.565,17.987 47.979,11.433 41.512,-0.389 29.072,-4.505 15.303,-9.062 2.453,-1.453 0,0"
             style="fill:#000000;fill-opacity:1;fill-rule:nonzero;stroke:none"
             id="path22"
             inkscape:connector-curvature="0" /></g><g
           id="g24"
           transform="translate(2164.3423,2875.7358)"><path
             d="m 0,0 c -0.59,-0.717 -1.459,-1.807 -2.445,-3.178 -5.423,-7.551 -6.642,-12.917 -10.024,-21.026 -5.023,-12.046 -6.457,-10.09 -9.29,-19.069 -1.848,-5.855 -3.912,-15.158 -3.912,-15.158 0,0 0,-7.335 2.934,-7.335 3.197,0 8.922,5.04 12.713,10.757 4.099,6.182 5.534,11.526 7.823,20.048 3.417,12.717 1.118,12.581 3.668,21.759 0.49,1.765 1.632,5.573 0.244,9.779 C 1.209,-1.9 0.514,-0.743 0,0"
             style="fill:#d6b9aa;fill-opacity:1;fill-rule:nonzero;stroke:none"
             id="path26"
             inkscape:connector-curvature="0" /></g><g
           id="g28"
           transform="translate(386.0928,1860.4248)"><path
             d="m 0,0 c 8.936,-5.285 21.827,-15.063 28.686,-31.294 2.602,-6.157 5.578,-13.199 2.526,-19.069 -5.644,-10.859 -27.395,-9.029 -33.005,-8.557 -14.325,1.205 -26.224,6.377 -39.117,14.18 -50.191,30.372 -70.756,73.538 -87.525,85.813 -0.603,0.442 -2.341,1.677 -3.178,3.912 -2.873,7.666 7.795,19.27 15.157,25.182 2.123,1.704 1.751,1.153 2.935,2.2 10.172,9.002 5.732,21.486 14.424,42.54 1.078,2.612 1.617,3.918 2.445,5.378 8.167,14.417 23.753,16.929 33.494,22.004 11.168,5.819 15.75,15.579 27.137,43.029 27.875,67.195 41.812,100.792 41.807,118.085 -0.005,17.191 -3.071,9.093 -12.957,70.411 -6.144,38.108 -9.208,57.623 -8.802,80.191 0.723,40.132 9.767,69.208 12.224,76.767 9.697,29.832 23.315,52.242 28.849,59.41 9.924,12.854 14.887,19.281 16.38,20.781 0.32,0.32 1.146,1.136 1.957,2.444 2.74,4.427 2.071,9.288 1.955,10.513 -1.252,13.239 18.954,57.635 28.849,68.7 0.726,0.812 3.078,3.324 4.401,7.334 1.427,4.325 0.883,8.052 0.733,9.291 -1.099,9.126 2.292,23.694 6.357,31.782 7.447,14.818 19.588,12.725 21.515,23.715 1.646,9.39 -7.073,11.732 -7.091,23.226 -0.023,15.107 15.026,18.534 14.425,32.027 -0.458,10.273 -9.251,9.883 -14.425,26.649 -0.805,2.611 -6.379,20.674 1.956,29.093 3.42,3.455 7.119,3.202 7.09,4.89 -0.082,4.783 -29.845,10.127 -44.495,16.87 -0.77,0.354 -1.771,0.838 -2.935,1.711 -7.302,5.481 -4.454,14.208 -8.067,16.38 -5.501,3.308 -18.901,-12.752 -44.578,-28.604 -12.013,-7.417 -13.71,-6.76 -14.407,-6.287 -8.961,6.075 18.384,68.886 29.453,81.603 0.464,0.532 1.66,1.852 2.15,3.896 1.877,7.851 -9.447,14.889 -15.158,22.737 -7.911,10.87 -5.727,24.212 -2.445,44.252 4.975,30.387 20.552,50.461 26.893,58.431 6.484,8.151 13.536,17.015 26.159,24.448 15.805,9.305 30.582,10.618 41.807,11.491 6.28,0.488 32.148,2.021 61.854,-10.513 22.266,-9.395 42.705,-25.012 47.43,-33.25 0.414,-0.723 1.447,-2.677 3.667,-4.156 6.705,-4.465 16.662,0.467 17.114,-0.733 0.495,-1.315 -11.519,-7.076 -11.002,-8.313 0.203,-0.484 2.115,0.226 4.89,-0.733 1.186,-0.41 3.038,-1.3 2.934,-1.956 -0.164,-1.027 -4.834,0.355 -7.579,-1.956 -2.984,-2.51 -2.521,-8.395 -1.222,-12.224 1.849,-5.453 4.532,-4.197 7.823,-10.268 5.042,-9.304 3.182,-20.451 2.713,-21.394 -0.003,-0.01 -0.028,-0.057 -0.024,-0.121 0.061,-0.922 5.895,-2.385 10.758,-0.244 0.809,0.356 1.76,0.785 2.689,1.711 2.789,2.781 2.464,7.143 2.444,8.068 -0.216,9.944 25.415,50.765 46.208,87.28 8.069,14.172 11.237,20.366 18.825,28.116 4.729,4.829 7.596,6.609 10.513,11.98 3.664,6.748 2.344,9.841 5.134,24.693 2.085,11.101 3.127,16.651 6.601,22.736 3.635,6.368 4.31,3.936 12.224,14.914 5.66,7.852 8.052,12.908 13.447,14.913 1.721,0.64 3.766,0.976 6.519,2.77 2.399,1.564 3.254,2.88 5.705,3.587 0.99,0.285 3.543,1.022 4.889,-0.164 1.096,-0.965 0.906,-2.774 -0.326,-8.638 -1.12,-5.33 -1.68,-7.996 -2.933,-12.55 -0.429,-1.555 -1.301,-4.667 -2.445,-8.801 -1.687,-6.096 -1.966,-7.335 -1.63,-7.497 0.72,-0.348 2.882,5.362 8.964,11.409 2.619,2.604 6.413,7.439 9.739,7.66 0.745,0.05 2.749,0.183 4.278,-1.222 1.994,-1.832 1.508,-4.742 1.461,-4.997 -0.283,-1.542 -1.088,-2.191 -2.928,-4.538 0,0 -1.895,-2.418 -3.667,-5.257 -1.511,-2.42 -2.551,-4.587 -4.319,-8.271 -0.63,-1.313 -0.918,-1.962 -1.002,-2.154 -0.892,-2.038 -1.549,-3.9 -2.258,-5.996 -1.675,-4.954 -3.736,-12.127 -4.645,-14.995 -2.663,-8.405 -3.994,-12.608 -6.112,-15.321 -4.571,-5.855 -10.431,-9.779 -10.431,-9.779 -1.642,-1.101 -4.162,-2.609 -5.949,-5.705 -1.225,-2.121 -1.672,-4.056 -1.712,-4.889 -0.435,-9.054 -2.322,-18.095 -1.711,-27.138 0.445,-6.597 -2.141,-15.082 -7.335,-31.783 -10.634,-34.192 -19.145,-61.557 -37.405,-95.103 -17.777,-32.657 -41.318,-64.788 -41.318,-64.788 -0.637,1.67 1.058,-3.515 2.2,-4.89 2.187,-2.635 7.55,-1.597 9.535,-1.222 21.401,4.041 20.599,0.959 31.294,5.134 4.607,1.798 10.468,5.543 22.003,12.957 18.262,11.74 20.233,14.029 28.849,18.826 13.347,7.43 13.387,4.591 29.094,12.224 24.471,11.891 31.245,22.119 46.451,24.204 15.35,2.104 16.87,2.2 16.87,2.2 6.518,0.412 8.834,0.045 12.468,1.711 5.734,2.628 8.852,7.611 10.024,9.535 2.71,4.45 1.788,5.817 4.401,11.491 0.766,1.663 1.384,2.717 8.557,12.468 6.494,8.831 8.646,11.583 11.246,14.669 5.328,6.326 7.263,7.798 8.801,8.802 3.14,2.048 5.761,2.832 11.002,4.401 4.908,1.468 6.583,1.364 7.823,0.488 1.753,-1.237 1.947,-3.526 1.956,-3.667 0.145,-2.088 -1.151,-3.636 -2.444,-5.134 -1.78,-2.06 -2.545,-1.969 -5.868,-4.645 -2.98,-2.399 -4.488,-3.639 -5.378,-5.623 -0.628,-1.396 -1.468,-4.156 -1.468,-4.156 0,-10e-4 -0.238,-2.172 0.489,-2.934 1.038,-1.089 4.286,0.439 4.89,0.733 2.658,1.293 3.033,2.483 6.601,5.379 3.691,2.995 5.08,3.174 5.868,3.178 0.271,10e-4 2.787,-0.021 3.912,-1.711 0.846,-1.271 0.412,-2.821 -0.49,-5.868 -0.86,-2.908 -1.527,-5.162 -3.422,-7.579 -0.863,-1.099 -2.205,-2.199 -4.89,-4.4 -1.165,-0.955 -1.61,-1.27 -5.379,-4.157 -2.833,-2.171 -4.253,-3.26 -4.4,-3.422 -2.289,-2.531 -1.587,-3.879 -4.156,-8.558 -1.322,-2.407 -1.583,-2.187 -3.668,-5.623 -1.973,-3.252 -3.131,-5.743 -3.667,-6.845 -3.359,-6.907 -6.556,-13.485 -12.224,-17.847 -5.505,-4.238 -9.417,-3.368 -16.38,-9.291 -1.468,-1.247 -2.729,-2.506 -3.912,-4.156 -2.652,-3.696 -2.966,-6.636 -4.157,-9.779 0,0 -1.439,-3.798 -7.578,-10.513 -26.102,-28.542 -96.082,-56.231 -96.082,-56.231 -20.781,-8.222 -38.132,-23.984 -59.165,-31.538 -0.789,-0.284 -3.82,-1.303 -4.889,-3.912 -0.984,-2.397 0.192,-4.91 0.978,-6.846 1.857,-4.578 2.006,-9.69 3.422,-14.424 2.309,-7.718 1.63,-19.487 -0.489,-42.051 -2.266,-24.14 -3.4,-36.211 -5.134,-44.496 -2.838,-13.56 -6.302,-24.19 -8.801,-31.783 -1.465,-4.451 -4.961,-14.767 -10.513,-27.871 -4.886,-11.529 -8.323,-18.041 -14.424,-30.316 -9.472,-19.055 -14.219,-28.607 -19.804,-41.317 -16.169,-36.799 -24.254,-55.198 -24.448,-57.209 -0.046,-0.479 -0.184,-2.41 -1.467,-3.179 -1.03,-0.616 -2.705,-0.425 -6.601,1.956 -7.304,4.465 -8.221,7.951 -12.468,8.557 -2.599,0.371 -4.706,-0.584 -6.113,-1.222 -4.442,-2.014 -5.523,-5.379 -9.534,-10.757 -5.35,-7.172 -6.618,-5.468 -10.758,-11.736 -2.432,-3.682 -5.283,-8.12 -5.134,-13.935 0.075,-2.919 0.875,-5.025 2.445,-9.046 2.635,-6.748 5.722,-11.39 6.112,-11.98 5.578,-8.425 16.554,-29.284 22.492,-47.184 0.734,-2.211 3.179,-13.781 8.069,-36.917 3.213,-15.209 4.82,-22.813 5.867,-28.117 5.948,-30.139 8.923,-45.209 9.29,-58.919 0.28,-10.411 -1.362,-25.277 -4.645,-55.009 -0.006,-0.058 -0.009,-0.089 -0.016,-0.148 -1.33,-12.207 0.422,-15.782 -1.312,-21.726 -0.587,-2.015 -0.526,-0.704 -3.032,-6.364 -0.449,-1.013 -5.9,-13.5 -8.842,-28.727 -0.046,-0.236 -0.078,-0.397 -0.119,-0.623 -0.356,-1.99 -0.953,-6.389 -0.818,-15.513 0.133,-9.09 -4.634,-15.07 -6.968,-17.846 -1.754,-2.086 -1.522,-3.145 -3.423,-4.768 -2.096,-1.79 -3.189,-1.196 -4.438,-2.802 -0.709,-0.91 -0.681,-1.517 -1.348,-5.633 -0.595,-3.673 -3.293,-9.17 -5.623,-11.41 -1.631,-1.566 -4.437,-6.356 -4.564,-7.008 -0.356,-1.831 -0.219,-3.374 0.349,-6.611 0.473,-2.694 0.708,-4.041 1.118,-5.612 2.24,-8.595 -3.197,-17.676 0.163,-21.923 4.062,-5.134 16.05,2.936 34.717,-1.955 4.636,-1.215 6.639,-2.397 8.068,-4.156 5.323,-6.558 1.836,-20.118 -5.868,-27.138 -2.507,-2.285 -3.44,-2.035 -12.469,-5.868 -16.789,-7.126 -18.196,-9.956 -31.049,-14.18 -4.975,-1.635 -4.137,-1.005 -11.979,-3.423 -12.237,-3.772 -15.874,-5.799 -22.737,-8.067 -5.057,-1.672 -19.822,-6.107 -38.14,-5.135 -9.282,0.493 -16.145,2.197 -20.781,3.668 -8.754,2.777 -15.57,4.939 -19.803,11.49 -3.573,5.531 -3.633,11.6 -3.667,15.158 -0.038,3.913 -0.087,8.96 2.934,13.691 2.443,3.826 4.319,3.414 7.334,8.068 2.577,3.978 3.458,7.754 3.912,9.78 0.431,1.922 0.532,5.193 0.733,11.735 0.258,8.347 -0.286,2.787 -0.244,10.513 0.016,2.953 0.101,4.676 -0.978,5.378 -1.629,1.061 -4.693,-1.004 -5.379,-1.467 -5.216,-3.516 -5.649,-8.756 -8.556,-14.913 C 50.987,111.48 48.152,112.458 38.302,99.505 34.459,94.449 31.684,90.083 29.99,87.28 28.546,84.691 26.734,80.781 25.833,75.79 25.021,71.286 25.564,69.305 25.589,62.832 25.63,52.407 25.65,47.193 23.389,43.273 20.955,39.053 19.326,40.567 11.409,32.517 8.488,29.545 5.191,26.176 2.852,21.759 1.214,18.666 -1.896,11.389 0,0"
             style="fill:#000000;fill-opacity:1;fill-rule:nonzero;stroke:none"
             id="path30"
             inkscape:connector-curvature="0" /></g><g
           id="g32"
           transform="translate(1129.2642,2185.1123)"><path
             d="m 0,0 c -22.8,-9.621 -56.718,-12.813 -65.848,1.305 -5.467,8.455 -2.154,23.29 4.564,31.945 0.848,1.093 2.284,2.773 13.691,10.432 15.074,10.119 17.154,10.262 26.73,16.95 13.703,9.569 11.861,10.963 22.819,17.603 11.405,6.911 15.49,6.667 18.254,11.735 3.919,7.185 -0.221,15.145 -4.563,27.383 0,0 -7.357,20.731 -11.084,49.548 -1.536,11.873 -3.641,28.157 1.305,46.941 6.829,25.937 18.157,22.667 22.165,46.288 1.863,10.975 1.375,23.216 9.129,40.422 1.93,4.286 2.376,4.446 3.911,7.823 8.995,19.781 5.404,39.942 4.563,46.289 -6.534,49.348 39.77,120.61 39.77,120.611 1.171,1.079 2.489,2.671 2.445,4.564 -0.101,4.399 -7.429,5.033 -11.247,10.268 -3.197,4.385 -1.318,8.414 1.467,28.36 1.064,7.616 1.524,12.575 2.445,22.492 1.769,19.047 1.049,21.637 -0.489,23.96 -5.191,7.837 -30.663,8.571 -28.849,11.735 4.315,7.524 2.224,16.207 1.467,20.048 -2.168,10.997 -2.586,30.15 -3.423,68.455 -0.863,39.509 4.968,91.902 12.714,105.616 0.593,1.052 2.186,3.63 1.655,6.697 -1.066,6.16 -9.296,6.177 -17.928,14.506 -3.913,3.775 -6.086,7.569 -10.432,15.158 -0.572,1 -2.446,5.067 -6.193,13.202 -2.58,5.602 -4.252,9.353 -2.612,11.395 0.086,0.107 0.81,0.982 1.947,1.12 4.713,0.574 9.801,-12.347 10.092,-12.203 0.433,0.214 -6.819,15.824 -6.819,15.824 -1.296,2.787 -3.535,7.588 -5.216,13.691 -0.539,1.956 -1.176,4.608 -1.063,8.027 0.08,2.443 0.515,4.449 0.9,5.827 1.661,0.551 2.671,1.363 3.26,1.956 0.63,0.635 1.073,1.346 1.956,2.77 1.172,1.888 1.134,2.159 1.665,2.69 0.652,0.65 1.813,1.346 4.039,1.385 0.74,-0.339 1.857,-0.768 3.26,-0.978 2.049,-0.305 3.153,0.032 4.238,0.119 3.589,0.286 6.803,-3.913 10.894,-9.26 2.524,-3.298 2.624,-4.028 5.131,-6.991 2.6,-3.07 3.869,-3.779 7.093,-9.145 1.673,-2.785 4.095,-7.194 8.801,-12.224 1.484,-1.586 3.68,-3.873 4.401,-3.422 0.992,0.617 -2.182,5.555 -3.234,13.378 -0.604,4.493 -1.368,10.179 1.956,12.876 2.024,1.643 5.489,2.119 7.661,0.653 2.99,-2.018 1.057,-6.045 2.608,-13.202 1.936,-8.94 6.942,-11.853 9.453,-20.7 1.093,-3.853 1.63,-7.66 1.63,-7.66 0.37,-2.631 0.217,-2.887 0.463,-4.415 0.237,-1.474 1.426,-8.754 6.356,-11.246 3.427,-1.733 7.333,-0.377 8.312,0 7.644,2.939 6.31,11.368 13.203,19.069 2.149,2.402 10.102,5.322 25.915,11.247 10.547,3.95 15.857,5.826 18.422,6.198 5.135,0.745 10.914,0.787 17.298,4.409 2.696,1.53 4.526,3.144 4.89,5.379 0.348,2.134 -0.73,4.286 -1.982,5.528 -2.061,2.044 -5.416,2.422 -9.415,2.894 -0.162,0.019 -0.285,0.032 -0.364,0.04 -8.815,0.906 -22.828,10.058 -50.853,28.36 -2.618,1.71 -6.324,4.197 -8.312,8.801 -2.323,5.378 -0.497,9.457 -0.489,14.669 0.011,7.268 -3.526,10.732 -12.224,23.959 -6.967,10.594 -13.224,20.108 -17.603,30.316 -3.657,8.527 -4.883,15.301 -7.334,28.849 -4.044,22.349 -6.368,36.078 -1.467,52.319 1.56,5.172 3.188,10.563 7.334,16.625 3.76,5.496 7.68,8.75 18.581,21.515 1.239,1.451 3.203,3.783 4.89,7.334 0.484,1.02 1.947,4.249 2.933,11.246 0.328,2.323 1.421,10.864 -0.488,22.004 -0.953,5.557 -1.977,6.917 -2.935,7.824 -1.844,1.746 -5.113,2.136 -11.575,2.843 -4.718,0.517 -7.145,0.765 -10.402,0.267 -2.762,-0.423 -5.109,-0.778 -7.497,-2.445 -2.381,-1.661 -2.062,-2.71 -5.46,-5.949 -2.216,-2.111 -2.587,-1.89 -5.379,-4.401 -1.964,-1.765 -3.745,-3.366 -5.134,-5.378 -2.526,-3.658 -2.92,-7.457 -3.178,-10.269 -0.827,-8.996 2.316,-15.197 1.711,-15.402 -0.67,-0.226 -4.396,5.96 -5.623,13.936 -0.776,5.041 -0.237,8.743 -0.734,8.801 -0.605,0.072 -2.119,-5.346 -2.689,-11.001 -1.369,-13.595 3.25,-23.289 2.689,-23.471 -0.588,-0.191 -6.524,10.18 -6.682,23.796 -0.045,3.834 -0.052,9.111 2.526,15.077 3.329,7.702 9.5,13.163 9.998,13.596 3.666,3.184 6.594,4.452 8.802,8.801 0.615,1.214 2.483,4.893 0.977,6.845 -1.122,1.456 -3.577,1.249 -6.356,0.978 -2.14,-0.208 -5.543,-0.788 -11.246,-3.423 -4.606,-2.127 -6.921,-3.197 -9.427,-5.527 -4.565,-4.245 -5.323,-8.543 -6.031,-8.313 -1.073,0.348 -1.229,10.824 5.189,17.263 2.292,2.3 5.756,3.677 12.713,6.357 3.783,1.457 7.065,2.701 11.736,3.422 3.468,0.536 6.167,0.953 9.779,0.49 4.513,-0.581 6.828,-2.072 7.823,-0.978 1.005,1.103 -0.212,4.025 -1.467,5.867 -4.149,6.094 -12.991,6.629 -15.131,6.697 -10.275,0.326 -16.846,-5.313 -17.277,-4.564 -0.511,0.888 8.124,9.906 18.718,9.602 4.29,-0.123 8.503,-1.797 10.268,-2.445 3.861,-1.417 6.528,-2.972 9.779,-4.889 1.84,-1.086 3.616,-2.215 11.735,-7.824 7.992,-5.521 8.539,-5.601 8.802,-5.378 0.813,0.69 -0.811,4.189 -2.419,6.533 -2.531,3.688 -5.352,4.995 -5.053,5.542 0.362,0.663 5.187,0.01 8.638,-2.771 0.995,-0.801 2.011,-1.888 3.75,-2.119 1.107,-0.147 1.472,0.193 2.933,0 1.527,-0.201 1.946,-0.68 3.26,-0.977 1.518,-0.345 2.734,-0.108 4.048,0.148 5.614,1.095 10.268,4.89 10.269,4.89 1.204,0.67 2.64,1.723 3.657,3.398 2.224,3.661 6.456,7.562 8.078,9.804 7.442,10.294 35.969,7.956 56.72,-3.912 21.504,-12.298 31.177,-32.84 30.179,-33.724 -0.755,-0.669 -8.259,9.348 -23.796,16.461 -8.532,3.907 -15.867,5.281 -16.162,4.55 -0.272,-0.672 5.589,-2.66 11.246,-8.801 3.242,-3.521 5.169,-7.115 4.889,-7.335 -0.364,-0.286 -3.971,5.569 -10.731,10.283 -6.68,4.658 -13.238,5.969 -16.135,6.519 -10.316,1.954 -22.446,0.49 -23.008,-2.622 -0.294,-1.625 2.56,-3.747 3.821,-4.516 2.602,-1.586 4.848,-6.297 6.148,-7.531 8.51,-8.082 9.128,-21.733 8.801,-21.841 -0.227,-0.074 -1.313,6.233 -6.682,11.736 -2.384,2.443 -5.177,4.28 -5.542,3.911 -0.508,-0.511 4.32,-4.608 7.66,-11.246 4.53,-9 3.897,-17.846 3.423,-17.928 -0.52,-0.09 -0.916,10.338 -6.683,18.092 -1.913,2.573 -3.742,3.942 -5.541,7.334 -1.182,2.227 -1.99,2.878 -3.26,4.401 -3.588,4.302 -5.68,5.217 -6.275,5.46 -1.133,0.461 -2.979,1.214 -4.915,0.506 -1.788,-0.653 -2.699,-2.204 -3.179,-3.047 -2.87,-5.041 -0.673,-11.42 -0.489,-12.224 1.576,-6.893 3.79,-7.337 3.423,-11.735 -0.226,-2.7 -1.191,-4.099 -0.49,-6.845 0.689,-2.696 2.396,-4.392 2.935,-4.89 2.568,-2.382 5.764,-2.779 7.334,-2.934 9.606,-0.944 17.133,1.444 24.448,0.978 4.081,-0.26 2.4,-1.045 23.959,-10.757 10.811,-4.87 13.921,-5.883 18.092,-9.78 1.362,-1.272 3.465,-3.438 9.291,-13.691 6.58,-11.581 9.955,-19.48 15.157,-31.782 1.522,-3.597 4.753,-11.306 4.89,-17.114 0.128,-5.414 0.192,-8.122 -0.136,-9.114 -0.257,-0.773 -0.761,-2.037 -0.164,-2.934 0.766,-1.15 2.706,-0.733 3.912,-0.978 3.615,-0.731 6.034,-8.501 6.194,-16.298 0.276,-13.468 -4.642,-13.696 -4.89,-28.034 -0.04,-2.328 0.004,-7.943 -2.934,-9.535 -0.884,-0.479 -4.231,-1.781 -5.626,-1.677 -0.179,0.013 -0.996,0.061 -1.86,-0.325 -0.111,-0.05 -0.22,-0.113 -0.337,-0.198 -3.5,-2.558 3.609,-11.677 2.907,-25.767 -0.18,-3.622 -0.553,-7.513 -0.611,-14.604 -0.016,-1.864 0.133,-4.039 0.611,-6.91 1.385,-8.323 3.738,-11.733 4.89,-13.202 3.875,-4.943 8.988,-6.842 11.735,-7.824 12.076,-4.313 18.018,1.194 34.228,-1.466 6.061,-0.996 9.935,-2.538 13.202,-4.89 2.636,-1.898 2.589,-2.675 4.89,-3.912 6.039,-3.247 9.637,0.35 13.691,-2.444 2.598,-1.792 3.525,-4.944 5.378,-11.247 1.601,-5.442 1.139,-7.301 2.445,-7.823 2.436,-0.973 5.453,4.922 14.18,12.713 6.351,5.67 7.307,4.826 12.713,10.268 1.328,1.336 3.999,4.495 9.29,10.757 6.35,7.517 6.892,8.306 8.802,9.78 1.441,1.112 3.016,2.116 12.224,5.867 9.17,3.736 13.755,5.604 17.114,6.357 5.681,1.273 5.589,0.351 15.647,1.955 2.758,0.441 2.575,0.48 12.713,2.445 12.5,2.424 5.127,0.881 16.136,2.934 10.59,1.975 13.306,2.637 14.669,0.978 1.426,-1.736 0.779,-5.296 -0.978,-7.334 -2.043,-2.37 -4.439,-1.355 -12.224,-3.423 -3.419,-0.908 -5.567,-1.797 -8.313,-2.934 -4.851,-2.007 -7.354,-3.071 -7.334,-4.4 0.031,-2.115 6.43,-3.59 7.823,-3.912 5.859,-1.352 9.433,-0.684 15.158,-0.489 3.839,0.131 14.207,0.417 24.448,-2.445 4.65,-1.3 5.341,-2.149 9.78,-2.934 3.566,-0.63 5.816,-0.558 7.823,-2.445 1.516,-1.425 0.984,-2.174 2.934,-4.4 2.318,-2.646 3.654,-2.255 4.889,-4.401 0.884,-1.533 1.55,-4.075 0.489,-5.867 -0.981,-1.661 -2.382,-0.883 -4.4,-2.935 -1.88,-1.909 -2.934,-4.889 -2.934,-4.889 0,0 -4.475,-0.186 -7.335,-2.445 -2.031,-1.605 -1.202,-2.64 -2.933,-3.912 -2.08,-1.527 -4.248,-0.747 -10.268,-0.488 0,0 -2.863,0.123 -6.846,0 -8.294,-0.256 -8.577,-1.639 -14.18,-1.468 -5.569,0.171 -7.516,1.605 -9.78,0 -2.083,-1.475 -1.806,-3.662 -2.933,-5.867 -0.573,-1.121 -3.085,-5.332 -21.515,-6.846 -9.295,-0.763 -18.559,-1.918 -27.871,-2.444 -1.567,-0.089 -4.812,-0.259 -6.356,-2.445 -1.235,-1.748 -0.451,-3.466 -1.956,-5.379 -1.326,-1.684 -2.858,-1.527 -4.401,-2.444 -3.966,-2.36 -3.966,-9.424 -3.911,-14.181 0.07,-6.14 1.055,-7.309 2.444,-16.625 2.022,-13.554 0.918,-17.655 0.489,-19.069 -0.898,-2.965 -2.391,-5.236 -5.378,-9.779 -7.189,-10.933 -9.627,-9.693 -12.714,-16.625 -2.193,-4.927 -2.09,-8.087 -5.867,-12.714 -2.355,-2.884 -2.856,-2.219 -4.401,-4.4 -3.522,-4.973 -1.388,-9.089 -2.934,-19.07 -0.941,-6.079 -1.411,-9.119 -3.423,-11.246 -3.724,-3.939 -7.745,-1.751 -16.624,-5.868 -2.937,-1.361 -6.732,-3.121 -9.779,-6.845 -1.589,-1.941 -3.742,-5.355 -4.89,-14.669 -1.199,-9.722 -0.342,-18.086 0.978,-25.915 1.764,-10.467 3.085,-12.446 4.89,-21.026 4.925,-23.429 -1.297,-25.95 3.911,-44.496 1.395,-4.966 1.736,-4.408 8.802,-25.426 2.805,-8.347 3.856,-11.717 4.4,-16.625 0.694,-6.249 2.071,-18.662 -4.4,-23.47 -2.129,-1.581 -7.152,-1.728 -17.114,-1.956 -10.376,-0.238 -11.821,0.366 -13.202,-0.978 -4.442,-4.317 3.129,-17.695 8.801,-31.293 0,0 9.344,-22.401 12.713,-47.919 4.372,-33.111 -5.278,-66.041 -6.845,-71.389 -3.389,-11.562 -3.889,-20.258 -4.89,-37.65 -0.14,-2.44 -0.277,-5.572 0.978,-9.291 2.84,-8.418 9.652,-10.492 19.07,-18.091 8.765,-7.074 16.922,-13.657 19.558,-23.96 0.773,-3.021 -0.137,-1.638 1.467,-22.982 0.316,-4.208 0.651,-8.237 2.445,-13.202 1.376,-3.806 2.397,-4.804 3.912,-8.801 2.013,-5.312 2.536,-9.686 2.934,-13.202 0.606,-5.368 0.228,-7.499 -0.49,-21.514 -0.715,-13.984 -0.586,-16.691 1.467,-19.559 1.435,-2.005 4.053,-3.618 9.291,-6.846 7.826,-4.822 9.209,-4.209 11.735,-6.845 3.124,-3.261 3.755,-7.597 4.89,-16.136 1.473,-11.087 -0.462,-11.958 1.467,-20.536 1.271,-5.657 2.463,-6.843 2.933,-12.225 0.304,-3.474 -0.141,-3.588 -0.489,-12.223 -0.023,-0.572 -0.268,-6.961 0,-15.159 0.207,-6.344 0.521,-7.595 0.978,-8.801 1.624,-4.275 3.826,-4.699 4.401,-8.313 0.571,-3.594 -1.396,-4.505 -0.978,-8.311 0.391,-3.569 2.39,-5.225 3.912,-7.825 2.838,-4.85 1.772,-9.155 1.467,-16.625 -0.77,-18.811 4.781,-21.064 1.466,-33.249 -0.396,-1.457 -1.936,-6.794 -5.867,-12.713 -1.343,-2.022 -5.847,-8.451 -14.18,-13.691 -5.989,-3.767 -11.002,-4.955 -21.026,-7.335 -12.747,-3.025 -19.266,-4.485 -26.404,-1.955 -1.03,0.364 -6.309,2.307 -11.246,7.334 -1.738,1.769 -7.213,7.345 -8.312,15.647 -0.535,4.042 1.103,9.433 4.4,20.047 3.001,9.659 3.38,9.023 4.401,13.692 2.008,9.188 -0.058,8.922 1.956,19.558 0,0 1.055,5.575 0.978,13.692 -0.019,2.04 -0.121,3.978 -1.467,5.378 -1.728,1.797 -3.931,1.074 -5.868,2.934 -1.418,1.363 -1.679,3.137 -1.955,4.89 -0.65,4.108 -1.78,11.255 -2.934,15.157 -0.855,2.888 -1.153,2.07 -5.868,10.758 -5.23,9.635 -4.648,10.242 -6.845,13.202 -3.931,5.293 -8.028,6.359 -16.137,10.757 -4.748,2.576 -14.716,7.982 -21.514,14.669 -10.173,10.007 -13.083,22.719 -15.158,31.783 -2.973,12.986 0.001,13.545 -2.934,31.293 -1.277,7.729 -3.069,18.163 -8.312,30.316 -4.595,10.653 -5.872,8.786 -13.202,23.959 -6.089,12.607 -6.208,15.963 -11.735,22.982 -2.741,3.48 -6.391,6.721 -13.691,13.202 -8.707,7.73 -10.995,8.635 -13.202,8.312 -3.805,-0.554 -6.132,-4.57 -9.291,-10.756 -6.621,-12.971 -9.932,-19.455 -11.735,-25.916 -8.388,-30.05 -36.928,-58.015 -38.628,-59.654 -11.42,-11.01 -28.519,-23.383 -28.36,-33.738 0.025,-1.585 0.524,-7.777 -2.934,-13.691 -1.228,-2.101 -1.981,-2.5 -2.702,-3.549 0,0 -0.387,-0.582 -0.721,-1.341 -1.131,-2.572 -1.165,-9.685 -4.048,-12.699 0,0 -2.607,-2.726 -4.264,-2.948 -0.249,-0.034 -7.495,-2.288 -7.797,-2.594 -1.015,-1.032 -2.074,-2.645 -2.608,-5.541 -0.941,-5.106 1.275,-7.314 1.604,-12.891 0.028,-0.484 0.256,-5.095 -1.604,-9.928 C 98.369,99.991 94.691,100.188 90.784,93.067 89.427,90.594 86.701,85.681 87.362,79.865 87.963,74.57 90.753,73.148 93.718,67.152 95.37,63.811 100.262,53.918 97.141,46.127 94.084,38.495 84.403,35.531 72.692,31.946 64.583,29.464 58.241,28.679 57.046,28.523 33.914,25.521 22.887,9.658 0,0"
             style="fill:#000000;fill-opacity:1;fill-rule:nonzero;stroke:none"
             id="path34"
             inkscape:connector-curvature="0" /></g><g
           id="g36"
           transform="translate(3488.9121,1873.499)"><path
             d="m 0,0 c -2.783,-14.421 -13.425,-27.733 -26.404,-33.25 -3.633,-1.544 -6.497,-2.008 -12.225,-2.934 -8.765,-1.418 -25.238,-3.876 -42.54,3.423 -8.239,3.475 -17.191,7.251 -19.559,15.647 -2.574,9.132 3.865,19.39 4.89,21.025 2.237,3.565 2.833,2.991 6.357,7.823 5.161,7.078 9.946,13.641 8.312,19.559 -0.743,2.69 -4.08,5.38 -10.757,10.758 -6.071,4.89 -8.242,5.573 -9.779,8.801 -2.095,4.395 -0.811,8.877 0,12.224 2.808,11.604 1.801,23.811 2.934,35.695 1.996,20.95 1.458,21.347 2.933,26.404 3.485,11.943 9.334,19.494 11.735,22.981 26.791,38.908 -1.488,115.281 8.802,147.668 0.521,1.638 2.063,6.071 0,9.78 -5.053,9.08 -26.113,3.737 -27.383,8.311 -0.96,3.464 10.831,7.539 24.938,20.048 1.029,0.913 9.707,8.672 15.647,17.114 8.732,12.408 9.274,23.058 12.713,44.007 3.823,23.296 3.554,12.566 13.691,64.543 6.658,34.135 6.938,39.603 6.357,46.452 -0.625,7.35 -1.85,11.667 0,18.58 3.183,11.897 11.02,14.841 17.113,27.383 2.996,6.165 4.182,11.793 5.379,22.981 2.839,26.539 1.345,43.282 1.956,66.989 1.111,43.06 1.665,64.591 3.422,73.834 0.973,5.111 3.518,17.45 -1.467,20.536 -3.684,2.281 -9.88,-1.486 -13.69,-3.912 -28.593,-18.21 -35.417,-32.718 -57.209,-45.963 -12.754,-7.751 -16.965,-6.763 -31.783,-17.113 -2.998,-2.095 -4.125,-3.042 -21.515,-17.115 -14.588,-11.803 -21.881,-17.705 -25.426,-20.536 -27.66,-22.084 -25.839,-19.049 -30.316,-23.959 -14.095,-15.464 -23.221,-35.772 -23.47,-36.183 -3.08,-1.467 -7.324,-2.872 -12.224,-2.446 -6.279,0.546 -9.878,4.241 -12.713,2.446 -1.622,-1.028 -1.823,-3.071 -2.375,-7.306 -1.282,-9.833 -1.924,-14.749 -2.446,-16.137 -2.291,-6.099 -5.752,-5.4 -15.227,-16.653 -1.858,-2.206 -3.976,-4.18 -5.867,-6.357 -2.784,-3.203 -3.468,-4.278 -4.89,-4.4 -2.483,-0.214 -5.404,3.009 -6.356,6.356 -2.11,7.415 5.866,14.048 4.015,15.999 -1.771,1.866 -10.145,-3.084 -12.503,-4.479 -2.56,-1.514 -4.277,-2.529 -6.356,-4.401 -3.774,-3.397 -4.511,-5.808 -7.854,-6.866 -0.751,-0.237 -3.32,-1.05 -5.104,0.265 -1.993,1.469 -1.776,4.685 -1.711,5.623 0.361,5.335 4.71,9.35 7.823,12.225 2.608,2.407 5.675,4.596 5.484,4.876 -0.064,0.093 -0.892,-0.18 -2.55,-0.72 -0.17,-0.056 -0.3,-0.099 -0.321,-0.106 -1.227,-0.422 -4.457,-1.752 -7.747,-5.517 -2.766,-3.166 -4.164,-6.433 -5.053,-8.558 -1.893,-4.52 -1.577,-6.188 -3.585,-7.986 -1.608,-1.439 -4.695,-2.956 -6.646,-1.896 -3.832,2.083 -2.495,14.039 1.593,23.084 2.978,6.591 6.883,11.039 6.601,11.247 -0.251,0.185 -3.454,-3.267 -6.357,-7.58 -3.549,-5.271 -5.323,-7.907 -6.356,-11.246 -0.66,-2.13 -1.138,-4.624 -3.178,-5.623 -0.138,-0.066 -1.469,-0.695 -2.934,-0.244 -2.638,0.812 -3.473,4.433 -3.754,5.645 -0.989,4.29 0.487,8.025 1.798,11.224 0.654,1.594 2.156,4.181 5.134,9.29 3.138,5.383 4.293,7.212 3.957,7.483 -0.425,0.343 -2.995,-1.488 -4.934,-4.06 -3.299,-4.374 -2.093,-7.341 -5.135,-10.267 -1.661,-1.599 -4.773,-3.363 -6.357,-2.385 -2.929,1.808 -0.6,12.994 4.646,21.21 4.454,6.973 10.238,10.64 12.469,11.979 7.052,4.236 14.016,5.727 21.514,7.334 5.1,1.094 7.108,1.097 11.98,2.69 5.724,1.872 11.187,3.735 12.887,8.039 1.33,3.368 -0.309,6.288 -0.977,8.802 -3.144,11.812 21.407,28.561 27.87,33.25 21.286,15.439 22.395,27.731 41.562,51.34 29.875,36.799 47.721,32.238 104.639,79.702 44.367,36.998 95,91.034 116.374,94.37 11.353,1.772 15.23,4.768 22.982,10.757 2.339,1.809 4.951,4.171 4.4,5.868 -0.602,1.855 -4.732,2.147 -8.356,2.403 -6.137,0.434 -9.454,-1.133 -9.736,-0.447 -0.415,1.009 5.773,6.509 14.18,7.823 8.119,1.27 12.125,-2.331 15.647,0.489 2.96,2.371 3.4,7.532 2.445,11.247 -2.178,8.473 -11.605,9.37 -19.07,16.624 -4.11,3.994 -7.442,9.739 -10.268,29.827 -2.043,14.53 -2.926,30.191 -0.488,69.922 0.59,9.644 2.437,36.772 12.223,50.364 2.514,3.49 6.666,9.258 13.202,10.268 4.419,0.684 6.686,-1.308 9.78,0.489 4.218,2.451 2.338,7.508 6.845,11.735 2.437,2.284 5.406,2.858 11.246,3.912 6.367,1.149 10.709,0.951 16.136,0.978 6.874,0.034 11.718,0.409 19.069,0.978 18.479,1.431 27.229,4.381 30.317,0 1.559,-2.213 0.296,-4.341 2.444,-6.356 2.151,-2.017 4.91,-1.291 11.247,-0.978 8.042,0.396 14.441,0.641 20.047,-2.445 2.381,-1.312 3.793,-2.768 5.379,-4.401 20.1,-20.695 18.987,-18.96 20.536,-21.026 6.249,-8.331 8.893,-16.637 14.181,-33.249 4.272,-13.424 4.127,-17.77 9.29,-28.849 2.059,-4.419 3.35,-6.446 4.4,-10.758 0.663,-2.718 2.764,-12.626 -1.466,-23.47 -0.915,-2.342 -2.904,-5.342 -6.846,-11.246 -8.256,-12.366 -10.293,-13.856 -15.647,-22.493 -1.065,-1.719 -4.529,-7.378 -8.312,-15.157 -2.736,-5.624 -4.105,-9.292 -6.846,-16.625 -3.999,-10.704 -4.182,-13.069 -2.933,-14.669 1.901,-2.436 5.335,-0.813 9.29,-4.401 1.583,-1.435 3.747,-4.157 2.934,-5.867 -0.702,-1.476 -3.587,-2.125 -4.6,-2.236 -0.271,-0.03 -0.505,-0.039 -0.505,-0.039 -1.714,-0.07 -2.405,0.523 -2.719,0.319 -0.716,-0.466 -0.064,-5.449 2.934,-7.335 3.942,-2.48 8.855,2.335 16.625,3.912 1.99,0.404 7.426,1.257 20.537,-3.423 28.358,-10.121 59.488,-34.295 66.009,-44.496 0.564,-0.881 2.519,-4.121 6.358,-5.867 3.574,-1.625 7.01,-1.148 8.311,-0.978 12.895,1.687 34.655,4.533 40.585,-3.423 2.445,-3.28 0.874,-6.615 3.911,-8.312 4.104,-2.293 11.042,1.525 12.713,2.444 4.123,2.27 4.165,3.731 6.358,3.912 4.487,0.37 5.946,-5.623 12.223,-9.29 5.698,-3.329 8.382,-0.661 18.581,-2.445 4.646,-0.813 9.618,-2.986 19.559,-7.334 13.451,-5.884 13.196,-6.906 22.003,-10.269 9.021,-3.444 7.767,-1.789 21.025,-6.356 8.831,-3.043 12.295,-4.778 19.071,-5.379 4.241,-0.376 8.411,-0.746 13.202,0.978 6.237,2.245 6.844,5.634 13.69,10.268 7.923,5.36 15.692,6.629 17.114,6.846 9.994,1.522 17.85,-1.47 22.982,-3.423 10.14,-3.86 14.855,-9.07 16.625,-11.246 1.416,-1.742 4.639,-5.706 3.423,-7.823 -0.392,-0.682 -1.532,-1.678 -11.736,-0.979 -8.288,0.567 -11.866,1.522 -12.713,0 -0.879,-1.58 2.45,-3.565 2.934,-8.801 0.166,-1.794 0.38,-4.103 -0.978,-5.868 -2.221,-2.886 -6.18,-1.095 -8.313,-3.911 -0.889,-1.174 -0.389,-1.733 -0.977,-6.356 -0.654,-5.13 -0.98,-7.696 -2.446,-8.802 -2.775,-2.099 -6.615,1.532 -9.29,-0.489 -2.463,-1.861 -0.192,-5.685 -2.444,-8.801 -1.963,-2.717 -5.69,-2.582 -14.669,-2.935 -11.835,-0.464 -17.788,-0.731 -19.559,-2.444 -5.174,-5.008 1.176,-14.016 -3.912,-19.069 -3.994,-3.968 -11.792,-2.279 -20.048,-0.49 -10.994,2.382 -12.206,5.397 -22.003,7.824 -9.95,2.463 -11.031,-0.069 -24.448,1.466 -6.943,0.795 -5.73,1.368 -27.871,6.846 -19.883,4.919 -22.906,4.963 -28.849,8.802 -7.354,4.748 -6.909,7.382 -13.203,9.779 -8.705,3.316 -12.937,-0.437 -23.469,1.467 -9.248,1.672 -8.02,4.933 -18.581,8.312 -15.44,4.94 -19.6,-1.54 -34.228,3.912 -6.039,2.25 -7.287,4.084 -16.625,7.334 -8.556,2.978 -13.746,4.711 -17.602,2.445 -4.241,-2.491 -4.347,-8.336 -5.379,-17.603 -0.813,-7.298 -2.987,-17.741 -7.334,-38.628 -3.767,-18.093 -5.585,-16.706 -8.313,-30.804 -1.651,-8.536 -2.57,-17.244 -2.445,-41.074 0.041,-7.656 0.189,-16.91 1.956,-55.742 2.407,-52.875 2.891,-52.423 1.956,-55.742 -1.066,-3.788 -3.924,-12.274 0,-19.559 2.316,-4.298 5.342,-5.111 7.335,-9.779 2.611,-6.117 0.27,-11.408 -0.489,-16.136 -2.748,-17.09 15.466,-24.91 27.871,-59.165 1.696,-4.685 2.868,-7.921 3.911,-12.713 4.389,-20.158 -1.328,-31.836 3.912,-54.275 0.787,-3.371 1.196,-5.083 1.956,-6.356 4.937,-8.281 16.485,-7.302 38.139,-15.159 7.567,-2.745 10.861,-4.571 11.247,-7.334 0.51,-3.659 -4.238,-7.845 -8.313,-9.779 -6.039,-2.865 -9.832,-0.419 -11.246,-2.445 -2.598,-3.724 9.216,-13.4 19.559,-32.272 5.196,-9.482 8.422,-15.562 7.823,-23.96 -0.144,-2.011 -1.137,-12.99 -9.291,-20.536 -4.826,-4.467 -7.265,-3.197 -8.801,-6.356 -3.491,-7.179 8.921,-14.098 12.224,-31.783 1.075,-5.752 -0.204,-5.204 0.978,-18.092 0.712,-7.764 1.281,-13.962 2.934,-20.536 3.745,-14.896 14.846,-38.819 28.849,-44.007 1.325,-0.491 4.628,-1.538 5.868,-4.401 1.635,-3.779 -2.273,-6.217 -2.934,-12.224 -0.798,-7.242 3.761,-13.895 8.312,-20.536 3.159,-4.611 3.851,-4.251 5.379,-7.335 3.661,-7.393 0.895,-11.91 1.956,-18.092 2.127,-12.406 16.161,-11.131 31.294,-30.315 2.405,-3.051 5.453,-7.396 11.246,-12.225 5.876,-4.899 7.602,-4.48 9.779,-7.334 5.599,-7.345 3.568,-22.441 -4.89,-30.805 -8.158,-8.067 -19.778,-7.382 -28.848,-6.845 -9.635,0.569 -16.855,3.475 -31.294,9.29 -19.689,7.927 -19.963,10.835 -31.783,13.202 -6.451,1.292 -10.714,1.297 -21.026,3.912 -9.504,2.41 -14.34,4.55 -16.136,5.378 -7.802,3.596 -12.931,5.962 -16.135,10.758 -3.592,5.376 -2.72,12.222 -0.979,25.915 1.927,15.134 5.195,22.309 1.468,32.271 -1.138,3.04 -2.502,5.201 -2.935,5.868 -4.818,7.427 -11.177,9.876 -20.047,14.669 -11.694,6.319 -17.542,9.478 -20.047,13.201 -5.741,8.531 -0.747,16.237 -0.979,30.317 -0.161,9.806 -5.813,21.503 -17.113,44.496 -5.708,11.614 -6.83,13.12 -24.938,46.451 -14.729,27.117 -18.673,34.746 -28.359,44.985 -12.558,13.274 -22.139,17.582 -24.449,18.58 -3.28,1.418 -18.239,7.546 -36.672,3.913 -6.41,-1.264 -16.895,-3.482 -23.959,-12.225 -1.283,-1.586 -2.014,-2.872 -3.423,-5.378 -8.123,-14.442 -6.635,-22.074 -12.225,-32.761 -1.862,-3.559 -6.199,-11.85 -15.158,-17.114 -11.699,-6.873 -19.819,-1.848 -26.403,-9.29 -5.163,-5.835 -2.29,-11.319 -8.802,-16.625 -4.695,-3.824 -7.076,-1.697 -11.735,-5.867 -3.092,-2.768 -4.874,-6.936 -8.313,-15.158 -2.142,-5.125 -3.214,-7.686 -3.911,-10.269 -2.699,-9.99 0.929,-16.912 4.89,-32.271 2.441,-9.469 0.518,-4.727 5.378,-28.361 C 11.027,77.949 12.427,74.552 11.246,66.988 10.171,60.108 7.307,51.994 5.867,47.918 3.506,41.229 2.208,38.995 0.978,35.694 -4.623,20.666 2.873,14.891 0,0"
             style="fill:#000000;fill-opacity:1;fill-rule:nonzero;stroke:none"
             id="path38"
             inkscape:connector-curvature="0" /></g><g
           id="g40"
           transform="translate(2663.0742,2038.3506)"><path
             d="m 0,0 c -10.671,9.172 -1.779,34.015 -0.979,36.184 4.348,11.767 8.316,10.651 15.648,26.404 6.442,13.842 10.208,21.933 7.823,31.293 -1.709,6.709 -5.73,10.745 -5.868,20.537 -0.038,2.722 -0.053,8.154 2.935,9.779 3.406,1.853 8.036,-2.707 9.779,-0.977 1.579,1.566 -0.342,7.182 -2.411,10.686 -1.058,1.791 -1.745,2.34 -1.501,3.004 1.003,2.724 14.662,-1.44 15.646,0.979 0.587,1.438 -19.04,19.948 -26.159,31.293 -8.74,13.928 -12.53,29.829 -17.358,41.236 -1.48,3.496 -1.493,2.878 -2.445,5.379 -1.04,2.736 -1.252,4.074 -2.445,4.726 -1.576,0.861 -3.636,-0.147 -4.4,-0.489 -8.036,-3.595 -26.026,-2.135 -31.294,5.868 -1.038,1.577 -1.325,3.179 0,15.647 2.144,20.176 3.415,20.873 2.933,26.404 -0.989,11.366 -6.732,12.754 -10.757,25.426 -3.062,9.641 -1.412,14.106 -0.978,31.294 0.891,35.286 -5.479,39.699 -0.978,59.654 0.933,4.135 2.226,8.466 11.736,28.36 17.004,35.573 35.469,51.374 30.315,58.675 -3.797,5.381 -16.263,0.573 -18.58,5.868 -1.809,4.132 4.501,9.987 9.779,16.625 6.006,7.554 13.179,19.268 17.603,37.162 2.198,8.523 6.337,21 14.669,34.227 12.11,19.228 20.45,19.987 26.404,36.184 4.569,12.428 3.931,23.603 2.934,41.073 -0.462,8.091 -1.254,21.962 -4.89,22.492 -3.217,0.469 -4.794,-10.063 -12.713,-22.492 -9.659,-15.16 -23.143,-24.335 -39.117,-35.206 -15.78,-10.738 -22.97,-12.722 -25.427,-21.515 -1.863,-6.667 1.463,-9.78 -0.977,-20.536 -1.532,-6.748 -3.04,-7.983 -6.113,-17.358 -1.968,-6.005 -2.952,-9.007 -2.689,-11.655 0.174,-1.751 0.677,-3.877 0,-6.844 -0.306,-1.338 -1.007,-4.409 -2.909,-4.888 -2.023,-0.51 -4.237,2.207 -4.425,2.442 -3.067,3.847 -0.413,7.588 -3.423,12.062 -0.387,0.575 -2.362,3.51 -4.51,3.265 -3.088,-0.354 -4.573,-7.059 -4.944,-9.785 -0.181,-1.326 -0.498,-3.854 0.327,-7.008 0.946,-3.615 2.861,-6.022 3.911,-7.171 2.338,-1.505 3.064,-4.378 1.956,-6.357 -1.111,-1.985 -3.897,-2.762 -5.379,-1.956 -1.163,0.634 -1.472,2.219 -1.838,2.115 -0.397,-0.111 0.296,-1.874 -0.525,-2.848 -0.927,-1.101 -3.495,-0.861 -5.298,0.081 -2.152,1.125 -3.323,3.353 -3.748,3.097 -0.179,-0.109 0.034,-0.503 -0.163,-0.815 -0.573,-0.902 -3.78,0.162 -4.237,0.326 -6.807,2.433 -13.202,22.166 -13.202,22.166 -3.465,10.69 -5.164,16.148 -3.499,21.653 0.502,1.662 2.464,4.963 6.386,11.569 3.665,6.169 5.538,9.294 7.544,11.274 3.815,3.766 5.537,3.318 11.735,7.987 0.565,0.425 5.851,4.433 8.802,7.986 6.985,8.412 5.839,20.252 5.704,23.471 -0.97,23.051 30.876,51.525 48.896,88.991 17.324,36.017 20.496,80.067 17.604,104.639 -0.765,6.488 -4.144,29.971 1.221,59.898 0.56,3.122 5.414,9.482 8.558,10.513 12.042,3.948 17.357,-0.899 29.338,-0.978 22.907,-0.151 44.007,22.493 44.007,22.492 -0.974,-5.165 3.037,10.504 1.956,15.647 -1.506,7.157 -9.014,11.058 -11.736,12.713 -18.92,11.507 -24.377,46.971 -27.382,66.5 -3.019,19.615 1.597,13.348 0.978,67.477 -0.254,22.187 -1.082,27.884 2.934,37.161 8.685,20.067 28.507,30.255 38.139,35.206 14.222,7.311 26.756,9.507 34.228,10.757 5.972,0.999 19.285,2.797 36.183,0.978 12.946,-1.394 36.457,-3.926 58.676,-20.536 6.969,-5.21 32.472,-24.277 31.294,-47.919 -0.149,-2.988 -0.48,-1.169 -5.868,-19.559 -8.5,-29.019 -8.788,-37.35 -4.89,-44.007 0.887,-1.513 0.507,-0.41 7.824,-7.823 10.857,-11.002 10.307,-12.029 22.493,-25.426 8.081,-8.886 10.153,-10.447 10.757,-14.669 0.843,-5.9 -1.761,-12.934 -6.846,-16.625 -5.416,-3.931 -12.4,-3.167 -23.47,-1.956 -5.956,0.651 -19.304,2.156 -20.292,1.711 -1.977,-0.887 -2.096,-4.646 -2.13,-6.295 -0.134,-6.455 2.43,-10.748 1.885,-11.063 -1,-0.579 -8.036,14.876 -12.713,13.935 -3.977,-0.8 -7.262,-13.667 -1.956,-22.736 2.55,-4.359 6.402,-6.677 8.802,-7.824 -2.858,2.691 8.992,-5.054 7.823,-8.801 -0.984,-3.156 -14.355,0.281 -15.646,-2.934 -1.211,-3.011 9.033,-9.74 16.624,-14.669 18.261,-11.856 27.391,-17.785 37.162,-16.624 5.59,0.663 9.135,2.924 14.669,0.977 5.358,-1.885 8.898,-6.42 10.757,-8.801 3.876,-4.965 6.845,-11.736 6.845,-11.736 0,0 -1.548,-15.707 -1.956,-25.425 -0.321,-7.658 0.155,-9.438 1.956,-33.25 1.184,-15.657 4.044,-31.241 3.911,-46.941 -0.049,-5.947 0.537,-13.352 3.912,-22.492 2.444,-6.617 5.351,-10.969 7.09,-13.691 7.143,-11.181 11.113,-20.758 18.826,-39.362 6.426,-15.503 11.005,-26.548 13.935,-42.296 0.802,-4.307 0.456,-17.035 3.773,-32.344 0.877,-4.051 1.473,-5.987 1.85,-7.139 0.848,-2.59 1.667,-4.95 2.2,-6.235 2.388,-5.753 6.596,-10.67 9.535,-13.691 2.183,-3.337 3.656,-6.349 4.646,-8.679 2.381,-5.601 3.374,-10.595 3.911,-13.202 0.145,-0.699 0.106,-0.56 1.467,-10.757 0,0 0.717,-5.366 0.611,-15.403 -0.012,-1.303 -0.067,-3.533 -1.589,-4.767 -0.913,-0.74 -2.402,-1.156 -3.333,-0.578 -1.304,0.81 -1.006,3.435 -1.148,3.431 -0.194,-0.005 0.81,-4.847 -1.522,-8.107 -1.468,-2.053 -4.273,-3.44 -5.813,-2.651 -1.576,0.808 -1.602,3.782 -1.793,3.749 -0.215,-0.037 1.059,-3.53 -0.326,-6.193 -1.451,-2.794 -5.631,-4.299 -7.399,-3.073 -1.447,1.004 -1.212,3.79 -1.525,3.765 -0.275,-0.024 0.155,-2.092 -0.855,-3.79 -1.244,-2.09 -4.489,-3.307 -6.357,-2.2 -0.864,0.511 -1.204,1.384 -1.711,2.689 -0.8,2.054 -0.888,3.886 -0.856,5.012 -0.625,5.524 -2.037,12.674 -5.256,19.804 -1.043,2.308 -2.003,4.011 -3.668,6.967 -2.947,5.236 -5.301,9.414 -6.491,9.039 -1.03,-0.324 -0.817,-3.932 -0.762,-5.616 0.136,-4.173 1.382,-5.429 0.489,-7.824 -0.146,-0.392 -0.959,-2.607 -2.77,-3.097 -2.461,-0.664 -5.044,2.324 -5.501,2.853 -0.831,0.961 -2.722,3.493 -2.934,12.713 -0.103,4.494 -0.203,8.799 1.222,14.435 1.946,7.704 4.374,8.439 4.767,12.702 0.709,7.68 -6.1,13.769 -10.756,18.581 -2.43,2.511 -8.955,13.735 -22.004,36.184 -17.413,29.956 -19.667,43.742 -23.959,43.028 -5.205,-0.864 -7.29,-22.039 -4.89,-40.094 2.543,-19.136 10.376,-34.188 16.625,-45.963 11.71,-22.066 17.882,-23.639 18.58,-36.184 0.29,-5.199 -1.11,-13.897 -3.911,-31.294 -2.039,-12.662 -2.793,-14.276 -1.956,-18.58 2.616,-13.456 13.963,-18.139 11.735,-24.448 -1.754,-4.966 -9.255,-3.405 -14.669,-10.758 -3.4,-4.616 -3.703,-9.66 -3.912,-12.713 -1.364,-19.933 -6.557,-39.685 -5.867,-59.654 0.909,-26.288 -5.588,-61.532 -18.581,-132.021 -2.652,-14.394 -4.507,-22.323 -10.757,-30.315 -7.456,-9.534 -15.753,-12.235 -20.537,-24.448 -2.909,-7.431 -2.939,-14.346 -2.934,-15.648 0.067,-14.092 7.4,-20.53 3.913,-25.425 -1.851,-2.598 -8.871,-4.064 -12.229,-3.234 -0.424,0.105 -1.81,0.501 -2.93,-0.189 -1.078,-0.665 -1.369,-2.002 -1.466,-2.446 -1.221,-5.559 -2.926,-11.017 -3.913,-16.624 -1.029,-5.856 -2.017,-7.161 -6.844,-20.537 -7.983,-22.117 -11.969,-33.352 -11.736,-42.051 0.15,-5.6 0.359,-13.392 4.89,-21.514 6.378,-11.438 17.333,-16.375 15.646,-21.515 -0.993,-3.028 -5.122,-2.305 -7.823,-6.846 -2.184,-3.67 -1.608,-7.708 -0.977,-11.734 1.646,-10.52 6.173,-12.603 6.844,-19.559 0.794,-8.216 -4.584,-15.005 -5.867,-16.625 -9.904,-12.502 -29.576,-10.788 -63.565,-7.824 -17.131,1.494 -21.221,3.365 -23.471,6.846 -5.132,7.938 0.423,22.512 4.89,34.227 1.867,4.899 4.093,9.6 5.868,17.604 2.197,9.907 1.33,14.17 0.977,15.646 -1.496,6.271 -4.409,7.069 -3.912,10.757 0.778,5.767 8.067,5.099 12.714,12.714 1.367,2.241 2.235,8.37 3.911,20.536 0.859,6.231 0.804,6.651 1.263,9.695 1.673,11.091 4.399,18.706 5.583,22.577 6.832,22.355 -1.034,36.429 -0.143,45.291 0.064,0.623 0.317,2.764 -0.834,3.605 -0.948,0.692 -2.399,0.178 -2.935,0 -3.422,-1.132 -10.628,-2.376 -12.713,-0.977 -6.835,4.584 6.837,24.454 -1.956,41.073 -3.871,7.318 -8.183,6.603 -12.713,15.646 -4.665,9.315 -4.234,18.341 -3.911,23.471 2.086,33.156 10.739,79.527 0.978,108.551 -0.939,2.791 -2.554,6.925 -5.868,7.823 -7.935,2.15 -20.549,-15.625 -26.404,-30.316 -2.482,-6.226 -7.785,-20.027 -4.89,-37.161 4.595,-27.193 25.784,-38.809 20.537,-48.897 -2.305,-4.43 -14.939,-8.426 -19.871,-8.712 -0.719,-0.042 -3.199,-0.106 -4.578,-1.801 -0.989,-1.215 -0.974,-2.734 -0.977,-3.178 -0.032,-4.833 -3.401,-9.14 -3.912,-21.515 -0.504,-12.185 -1.065,-25.756 4.889,-42.051 3.42,-9.359 5.071,-15.909 10.758,-20.536 1.295,-1.054 2.292,-1.647 3.178,-2.2 8.751,-5.466 14.51,-11.944 31.05,-30.071 11.814,-12.948 12.395,-13.494 12.713,-15.648 1.965,-13.374 -15.12,-27.356 -17.603,-29.338 -7.036,-5.612 -9.146,-4.468 -13.691,-9.779 C 95.158,61.949 96.357,57.936 90.947,46.94 89.379,43.754 85.374,35.76 78.234,28.36 73.238,23.183 67.664,19.948 56.72,13.691 43.286,6.011 36.569,2.171 28.359,0 17.966,-2.748 6.67,-5.734 0,0"
             style="fill:#000000;fill-opacity:1;fill-rule:nonzero;stroke:none"
             id="path42"
             inkscape:connector-curvature="0" /></g></g></g></g></svg>
