<?xml version="1.0" encoding="UTF-8" standalone="no"?>
<svg
   xmlns:dc="http://purl.org/dc/elements/1.1/"
   xmlns:cc="http://creativecommons.org/ns#"
   xmlns:rdf="http://www.w3.org/1999/02/22-rdf-syntax-ns#"
   xmlns:svg="http://www.w3.org/2000/svg"
   xmlns="http://www.w3.org/2000/svg"
   xmlns:sodipodi="http://sodipodi.sourceforge.net/DTD/sodipodi-0.dtd"
   xmlns:inkscape="http://www.inkscape.org/namespaces/inkscape"
   version="1.1"
   id="svg2"
   xml:space="preserve"
   width="718.04535"
   height="727.38531"
   viewBox="0 0 718.04535 727.38531"
   sodipodi:docname="together_dynamic_mixed21.svg"
   inkscape:version="1.0.2 (e86c870879, 2021-01-15)"><metadata
     id="metadata8"><rdf:RDF><cc:Work
         rdf:about=""><dc:format>image/svg+xml</dc:format><dc:type
           rdf:resource="http://purl.org/dc/dcmitype/StillImage" /><dc:title></dc:title></cc:Work></rdf:RDF></metadata><defs
     id="defs6"><clipPath
       clipPathUnits="userSpaceOnUse"
       id="clipPath18"><path
         d="M 0,545.539 H 538.534 V 0 H 0 Z"
         id="path16" /></clipPath></defs><sodipodi:namedview
     pagecolor="#ffffff"
     bordercolor="#666666"
     borderopacity="1"
     objecttolerance="10"
     gridtolerance="10"
     guidetolerance="10"
     inkscape:pageopacity="0"
     inkscape:pageshadow="2"
     inkscape:window-width="1920"
     inkscape:window-height="1043"
     id="namedview4"
     showgrid="false"
     inkscape:zoom="0.98297283"
     inkscape:cx="359.02267"
     inkscape:cy="363.69266"
     inkscape:window-x="0"
     inkscape:window-y="0"
     inkscape:window-maximized="1"
     inkscape:current-layer="g10" /><g
     id="g10"
     inkscape:groupmode="layer"
     inkscape:label="together_dynamic_mixed21"
     transform="matrix(1.3333333,0,0,-1.3333333,0,727.38533)"><g
       id="g12"><g
         id="g14"
         clip-path="url(#clipPath18)"><g
           id="g20"
           transform="translate(486.1741,334.1197)"><path
             d="m 0,0 c 0,-0.579 -0.032,-1.16 0.005,-1.737 0.179,-2.806 0.541,-5.588 1.133,-8.337 0.609,-2.83 1.236,-5.657 1.859,-8.485 0.153,-0.695 0.32,-1.387 0.484,-2.081 0.027,-0.113 0.233,-0.192 0.328,-0.129 0.146,0.098 0.302,0.186 0.432,0.303 1.229,1.106 2.387,2.277 3.423,3.567 3.936,4.904 7.69,9.942 11.154,15.191 1.99,3.014 3.876,6.09 5.552,9.291 1.116,2.134 2.151,4.303 2.958,6.575 0.163,0.461 0.309,0.929 0.449,1.398 0.084,0.279 0.01,0.518 -0.22,0.715 -1.77,1.509 -3.339,3.213 -4.781,5.035 -0.718,0.908 -1.432,1.823 -2.106,2.764 -1.479,2.067 -2.935,4.148 -4.392,6.23 -1.405,2.008 -2.817,4.012 -4.329,5.943 -1.402,1.792 -2.877,3.521 -4.524,5.096 -0.223,0.213 -0.477,0.393 -0.72,0.584 C 6.612,41.995 6.42,41.883 6.415,41.756 6.398,41.311 6.375,40.866 6.372,40.421 6.346,36.587 6.328,32.753 6.298,28.92 6.272,25.844 6.225,22.769 6.203,19.692 6.19,17.788 5.781,15.978 4.953,14.268 4.526,13.386 4.052,12.527 3.579,11.669 3.128,10.85 2.63,10.055 2.19,9.229 1.793,8.483 1.422,7.72 1.085,6.944 0.657,5.961 0.341,4.933 0.215,3.867 0.062,2.585 -0.091,1.298 0,0 m 34.967,-334.12 h -6.69 c -0.154,0.19 -0.377,0.216 -0.596,0.255 -2.073,0.37 -4.066,0.988 -5.968,1.893 -0.848,0.404 -1.658,0.87 -2.409,1.434 -0.574,0.43 -1.093,0.915 -1.517,1.498 -0.299,0.41 -0.443,0.853 -0.439,1.368 0.015,1.739 0.006,3.479 0.005,5.218 0,0.714 -0.001,1.427 -0.004,2.141 -0.001,0.269 -0.044,0.526 -0.178,0.77 -0.822,1.507 -1.246,3.139 -1.52,4.819 -0.228,1.408 -0.481,2.81 -0.705,4.218 -0.267,1.683 -0.743,3.3 -1.45,4.85 -0.296,0.648 -0.588,1.299 -0.887,1.946 -1.066,2.305 -2.145,4.604 -3.2,6.914 -0.888,1.945 -1.722,3.915 -2.415,5.941 -0.522,1.526 -0.807,3.098 -0.933,4.706 -0.196,2.494 -0.198,4.987 -0.089,7.485 0.136,3.163 0.189,6.329 0.096,9.495 -0.051,1.742 -0.288,3.46 -0.729,5.15 -1.417,5.431 -2.943,10.831 -4.502,16.223 -2.66,9.199 -5.48,18.351 -8.267,27.513 -0.674,2.218 -1.323,4.441 -1.716,6.727 -0.166,0.961 -0.251,0.943 -1.067,1.038 -0.531,0.062 -1.065,0.101 -1.599,0.146 -0.488,0.042 -0.977,0.077 -1.466,0.119 -1.554,0.135 -3.107,0.281 -4.663,0.405 -1.688,0.135 -3.378,0.264 -5.069,0.368 -2.447,0.15 -4.894,0.323 -7.344,0.397 -2.317,0.069 -4.638,0.064 -6.956,0.017 -1.826,-0.039 -3.654,-0.146 -5.474,-0.304 -2.799,-0.242 -5.584,-0.61 -8.352,-1.083 -3.646,-0.624 -7.28,-1.313 -10.922,-1.954 -1.887,-0.332 -3.779,-0.635 -5.673,-0.929 -1.673,-0.261 -3.351,-0.492 -5.027,-0.736 -0.044,-0.007 -0.088,-0.015 -0.133,-0.016 -0.408,-0.007 -0.625,-0.243 -0.806,-0.59 -1.316,-2.529 -2.652,-5.049 -3.97,-7.578 -0.907,-1.739 -1.708,-3.528 -2.455,-5.342 -1.408,-3.422 -2.601,-6.921 -3.732,-10.441 -1.159,-3.604 -2.31,-7.21 -3.462,-10.816 -1.235,-3.869 -2.655,-7.661 -4.567,-11.253 -0.063,-0.119 -0.123,-0.238 -0.179,-0.36 -0.869,-1.904 -1.756,-3.802 -2.598,-5.719 -0.646,-1.467 -1.192,-2.976 -1.619,-4.526 -0.274,-0.991 -0.483,-1.99 -0.466,-3.027 0.01,-0.539 0.064,-1.065 0.279,-1.569 0.332,-0.777 0.609,-1.582 0.983,-2.338 0.591,-1.199 1.243,-2.367 1.87,-3.547 0.606,-1.141 1.205,-2.286 1.82,-3.422 0.302,-0.558 0.462,-1.143 0.532,-1.775 0.104,-0.933 0.177,-1.866 0.142,-2.802 -0.05,-1.381 -0.137,-2.761 -0.202,-4.141 -0.014,-0.321 -0.115,-0.606 -0.265,-0.887 -0.466,-0.869 -0.773,-1.801 -1.012,-2.753 -0.293,-1.169 -0.493,-2.359 -0.575,-3.559 -0.104,-1.512 -0.179,-3.029 -0.182,-4.543 -0.004,-1.827 0.081,-3.655 0.125,-5.483 0.009,-0.401 0.018,-0.802 0.009,-1.203 -0.003,-0.129 -0.03,-0.283 -0.105,-0.379 -0.302,-0.39 -0.648,-0.747 -1.126,-0.915 -0.727,-0.255 -1.459,-0.359 -2.228,-0.129 -0.52,0.157 -1.003,0.37 -1.452,0.663 -0.768,0.501 -1.417,1.182 -2.062,2.161 v 1.267 c 0,2.542 0.002,5.084 -0.004,7.625 -0.001,0.309 -0.037,0.618 -0.079,0.925 -0.009,0.066 -0.104,0.161 -0.172,0.173 -0.217,0.038 -0.438,0.053 -0.658,0.058 -0.192,0.003 -0.354,-0.081 -0.389,-0.283 -0.047,-0.278 -0.177,-0.498 -0.389,-0.677 -1.284,-1.095 -2.136,-2.498 -2.843,-4.002 -0.511,-1.091 -0.933,-2.218 -1.316,-3.359 -0.455,-1.35 -0.891,-2.708 -1.344,-4.058 -0.454,-1.353 -0.948,-2.689 -1.579,-3.971 -0.454,-0.923 -0.976,-1.804 -1.626,-2.603 -1.134,-1.393 -2.543,-2.353 -4.322,-2.722 -0.484,-0.101 -0.934,-0.276 -1.36,-0.533 -0.807,-0.485 -1.684,-0.805 -2.59,-1.059 -1.64,-0.461 -3.317,-0.685 -5.012,-0.749 -1.918,-0.073 -3.831,-0.01 -5.742,0.214 -1.773,0.207 -3.528,0.486 -5.235,0.922 -0.118,0.112 -0.23,0.192 -0.309,0.298 -0.533,0.715 -1.038,1.452 -1.592,2.15 -0.475,0.599 -0.632,1.254 -0.549,1.998 0.129,1.155 0.35,2.291 0.685,3.402 0.077,0.253 0.208,0.492 0.333,0.728 0.406,0.761 0.977,1.388 1.667,1.891 0.574,0.42 1.175,0.811 1.793,1.162 0.736,0.418 1.509,0.768 2.256,1.166 0.826,0.44 1.653,0.877 2.457,1.355 1.422,0.845 2.449,2.031 3.129,3.553 0.694,1.554 1.213,3.159 1.549,4.823 0.371,1.834 0.708,3.674 1.055,5.513 0.464,2.464 1.2,4.84 2.272,7.109 0.533,1.128 1.068,2.255 1.604,3.381 0.554,1.168 1.081,2.348 1.499,3.572 0.258,0.755 0.583,1.498 0.53,2.326 -0.005,0.087 0.018,0.18 0.046,0.263 0.216,0.645 0.241,1.314 0.266,1.982 0.012,0.325 0.079,0.62 0.334,0.84 0.398,0.343 0.52,0.822 0.628,1.3 0.058,0.26 0.073,0.53 0.094,0.796 0.036,0.453 0.162,0.864 0.413,1.253 0.909,1.41 1.395,2.983 1.676,4.618 0.227,1.317 0.381,2.646 0.567,3.969 0.243,1.722 0.501,3.437 0.999,5.11 0.318,1.067 0.591,2.148 0.869,3.225 1.216,4.703 2.169,9.465 3.198,14.209 0.642,2.96 1.297,5.917 1.976,8.869 0.161,0.698 0.3,1.395 0.353,2.106 0.13,1.734 0.235,3.469 0.357,5.204 0.081,1.156 0.166,2.312 0.264,3.466 0.022,0.265 0.097,0.526 0.161,0.785 0.354,1.425 0.715,2.85 1.066,4.278 0.063,0.258 0.094,0.524 0.134,0.788 0.018,0.113 -0.095,0.287 -0.198,0.311 -0.173,0.04 -0.345,0.09 -0.52,0.11 -0.398,0.045 -0.799,0.07 -1.198,0.11 -0.168,0.017 -0.306,0.196 -0.296,0.381 0.017,0.312 0.028,0.624 0.068,0.933 0.197,1.502 0.403,3.004 0.606,4.505 0.239,1.766 0.48,3.533 0.719,5.299 0.209,1.546 0.416,3.092 0.625,4.638 0.234,1.723 0.471,3.444 0.704,5.167 0.215,1.59 0.425,3.181 0.642,4.771 0.222,1.633 0.453,3.266 0.673,4.9 0.22,1.635 0.429,3.27 0.648,4.904 0.237,1.767 0.481,3.533 0.72,5.3 0.209,1.546 0.413,3.092 0.624,4.638 0.224,1.633 0.457,3.265 0.677,4.9 0.221,1.634 0.424,3.271 0.646,4.904 0.312,2.297 0.64,4.591 0.951,6.888 0.31,2.297 0.597,4.596 0.912,6.893 0.308,2.252 0.636,4.501 0.959,6.751 0.303,2.117 0.583,4.238 0.922,6.35 0.473,2.947 0.983,5.89 1.492,8.831 0.585,3.382 1.281,6.741 2.039,10.088 1.064,4.694 2.284,9.349 3.48,14.01 1.483,5.783 2.925,11.577 4.009,17.453 0.615,3.333 1.075,6.689 1.427,10.058 0.292,2.793 0.544,5.59 0.792,8.387 0.214,2.398 0.487,4.788 0.801,7.175 0.401,3.051 0.914,6.082 1.488,9.103 0.923,4.859 1.975,9.692 3.039,14.522 0.306,1.39 0.697,2.767 0.814,4.196 0.015,0.174 0.085,0.345 0.132,0.517 0.127,0.473 0.283,0.94 0.378,1.418 0.646,3.279 1.285,6.56 1.912,9.842 0.142,0.743 0.281,1.493 0.334,2.246 0.115,1.645 0.212,3.294 0.247,4.942 0.046,2.14 0.06,4.282 0.028,6.421 -0.073,4.771 -0.183,9.54 -0.276,14.31 -0.007,0.358 -0.049,0.706 -0.145,1.054 -0.345,1.245 -0.668,2.496 -1.001,3.744 -0.046,0.173 -0.097,0.343 -0.158,0.51 -0.162,0.441 -0.425,0.785 -0.908,0.898 -0.272,0.063 -0.494,0.18 -0.626,0.446 -0.146,0.296 -0.443,0.428 -0.698,0.604 -3.413,2.349 -6.027,5.402 -7.952,9.054 -0.877,1.667 -1.484,3.432 -1.807,5.291 -0.07,0.409 -0.044,0.778 0.161,1.16 0.703,1.312 1.018,2.749 1.265,4.202 0.006,0.035 -0.026,0.097 -0.057,0.114 -0.07,0.036 -0.17,0.093 -0.226,0.069 -0.244,-0.106 -0.482,-0.23 -0.713,-0.363 -1.045,-0.598 -2.076,-1.221 -3.132,-1.798 -1.055,-0.576 -2.123,-1.133 -3.207,-1.654 -1.006,-0.484 -2.063,-0.843 -3.161,-1.06 -2.017,-0.398 -3.989,-0.288 -5.898,0.536 -1.029,0.445 -1.985,1.01 -2.886,1.672 -1.628,1.197 -3.039,2.617 -4.309,4.18 -1.156,1.422 -2.166,2.943 -3.079,4.531 -1.135,1.974 -2.105,4.027 -2.972,6.131 -1.224,2.97 -2.229,6.015 -3.194,9.075 -1.071,3.4 -2.108,6.811 -3.227,10.195 -1.707,5.164 -3.698,10.222 -5.894,15.2 -0.162,0.366 -0.334,0.728 -0.514,1.087 -0.032,0.066 -0.116,0.111 -0.183,0.156 -0.06,0.04 -0.215,-0.12 -0.256,-0.274 -0.044,-0.173 -0.061,-0.356 -0.125,-0.52 -0.129,-0.331 -0.257,-0.667 -0.431,-0.976 -0.595,-1.061 -1.522,-1.592 -2.732,-1.633 -0.582,-0.021 -1.153,0.035 -1.717,0.207 -1.802,0.551 -3.497,1.326 -5.058,2.385 -0.074,0.051 -0.145,0.105 -0.216,0.158 -1.369,1.018 -2.32,2.336 -2.782,3.981 -0.169,0.6 -0.315,1.213 -0.382,1.829 -0.146,1.33 -0.226,2.665 -0.178,4.006 0.103,2.899 0.327,5.785 0.905,8.635 0.166,0.823 0.101,0.918 -0.632,1.207 -0.29,0.114 -0.584,0.219 -0.876,0.329 -4,1.516 -8,3.03 -12,4.548 -0.374,0.142 -0.748,0.29 -1.114,0.452 -0.888,0.394 -1.605,0.969 -1.929,1.922 -0.097,0.284 -0.33,0.408 -0.526,0.582 v 0.803 c 0.267,0.089 0.445,0.262 0.569,0.522 0.274,0.573 0.779,0.829 1.376,0.944 0.447,0.086 0.886,0.042 1.328,-0.033 3.559,-0.6 7.12,-1.191 10.679,-1.795 3.47,-0.589 6.939,-1.185 10.407,-1.787 1.581,-0.274 3.148,-0.616 4.691,-1.06 2.593,-0.748 5.025,-1.822 7.161,-3.502 0.104,-0.082 0.217,-0.16 0.339,-0.208 0.073,-0.029 0.183,-0.02 0.252,0.017 0.115,0.063 0.214,0.158 0.314,0.246 1.067,0.936 2.255,0.958 3.501,0.449 0.585,-0.241 1.072,-0.632 1.508,-1.088 0.496,-0.518 0.929,-1.086 1.273,-1.713 0.45,-0.821 0.893,-1.646 1.296,-2.489 1.52,-3.176 3.082,-6.331 4.698,-9.459 3.252,-6.297 6.695,-12.492 10.119,-18.697 0.994,-1.801 2.175,-3.472 3.416,-5.107 0.053,-0.069 0.125,-0.125 0.187,-0.189 0.085,-0.088 0.26,-0.09 0.356,0.007 0.25,0.253 0.505,0.503 0.741,0.768 2.989,3.344 5.466,7.035 7.496,11.029 0.263,0.517 0.53,1.031 0.793,1.547 0.539,1.057 1.294,1.914 2.309,2.541 0.223,0.138 0.485,0.239 0.62,0.519 -0.055,0.37 -0.519,0.467 -0.605,0.86 0.144,0.454 0.512,0.797 0.767,1.209 0.128,0.206 0.147,0.404 0.01,0.62 -0.157,0.248 -0.125,0.502 0.008,0.759 0.142,0.273 0.378,0.511 0.367,0.844 -0.002,0.059 -0.106,0.163 -0.161,0.162 -0.129,-0.003 -0.262,-0.042 -0.382,-0.093 -0.369,-0.154 -0.728,-0.327 -1.099,-0.476 -0.037,-0.015 -0.152,0.074 -0.177,0.138 -0.03,0.075 -0.021,0.18 0.005,0.261 0.343,1.118 0.858,2.149 1.57,3.079 0.216,0.282 0.427,0.568 0.635,0.856 0.014,0.019 0.001,0.077 -0.019,0.098 -0.028,0.028 -0.079,0.06 -0.113,0.054 -0.447,-0.087 -0.816,-0.342 -1.201,-0.564 -0.264,-0.152 -0.466,-0.413 -0.791,-0.454 -0.146,0.16 -0.091,0.336 -0.029,0.501 0.394,1.053 0.97,2.002 1.66,2.886 0.662,0.845 1.414,1.605 2.173,2.36 0.696,0.692 1.413,1.362 2.077,2.083 0.573,0.622 1.11,1.281 1.613,1.96 0.586,0.792 1.028,1.668 1.302,2.621 0.094,0.329 0.057,0.503 -0.203,0.701 -0.992,0.757 -1.979,1.523 -2.988,2.256 -0.503,0.366 -1.041,0.689 -1.582,0.997 -0.627,0.359 -1.31,0.544 -2.035,0.598 -0.985,0.073 -1.96,-0.017 -2.933,-0.148 -0.663,-0.088 -1.325,-0.182 -1.983,-0.296 -0.987,-0.171 -1.964,-0.082 -2.918,0.163 -1.731,0.444 -2.896,1.51 -3.386,3.26 -0.144,0.517 -0.245,1.04 -0.279,1.578 -0.05,0.8 -0.118,1.6 -0.178,2.401 -0.027,0.355 -0.039,0.713 -0.082,1.066 -0.153,1.232 -0.548,2.344 -1.587,3.127 -0.071,0.054 -0.134,0.118 -0.199,0.179 -0.71,0.671 -0.937,1.495 -0.76,2.438 0.115,0.617 0.304,1.212 0.617,1.759 0.243,0.425 0.504,0.84 0.76,1.257 0.092,0.15 0.209,0.288 0.14,0.562 -0.16,0.176 -0.381,0.394 -0.573,0.635 -0.331,0.418 -0.701,0.82 -0.955,1.284 -0.681,1.243 -0.655,2.473 0.24,3.625 0.273,0.351 0.573,0.683 0.861,1.023 0.38,0.448 0.658,0.952 0.822,1.517 0.088,0.303 0.112,0.611 0.059,0.925 -0.043,0.262 -0.265,0.516 -0.513,0.545 -0.309,0.036 -0.622,0.052 -0.931,0.09 -0.624,0.077 -1.227,0.236 -1.789,0.52 -1.162,0.588 -1.804,1.565 -2.02,2.823 -0.135,0.779 0.051,1.518 0.509,2.158 0.335,0.47 0.713,0.914 1.11,1.333 1.718,1.812 3.458,3.603 5.173,5.417 0.52,0.549 1.018,1.125 1.472,1.729 0.685,0.912 1.046,1.955 1.107,3.102 0.059,1.117 -0.024,2.227 -0.149,3.335 -0.096,0.842 -0.195,1.684 -0.24,2.528 -0.159,2.984 0.331,5.867 1.455,8.632 1.109,2.729 2.706,5.115 5.036,6.966 0.102,0.081 0.188,0.185 0.272,0.286 0.024,0.03 0.031,0.093 0.017,0.128 -0.013,0.031 -0.07,0.065 -0.105,0.063 -1.09,-0.038 -2.074,-0.458 -3.063,-0.855 -0.37,-0.149 -0.724,-0.341 -1.085,-0.513 l 0.016,-0.039 c -0.018,0.126 -0.066,0.258 -0.045,0.378 0.022,0.125 0.104,0.243 0.171,0.357 0.566,0.972 1.292,1.802 2.2,2.471 0.174,0.127 0.383,0.237 0.386,0.548 -1.233,0.695 -2.608,0.66 -3.992,0.632 0.049,0.12 0.059,0.233 0.114,0.262 0.35,0.19 0.706,0.371 1.068,0.539 1.771,0.824 3.542,1.649 5.318,2.464 0.672,0.308 1.227,0.713 1.426,1.474 0.02,0.076 0.112,0.132 0.197,0.228 1.799,0.792 3.687,1.437 5.616,1.962 2.534,0.689 5.11,1.145 7.727,1.372 0.396,0.034 0.804,0.022 1.159,0.25 h 4.817 c 0.312,-0.21 0.675,-0.202 1.028,-0.242 1.018,-0.117 2.041,-0.199 3.053,-0.36 3.58,-0.566 7.045,-1.547 10.38,-2.973 5.079,-2.172 9.493,-5.267 13.116,-9.459 0.437,-0.506 0.883,-1.004 1.302,-1.525 1.286,-1.597 2.562,-3.203 3.839,-4.806 1.249,-1.571 2.504,-3.135 3.857,-4.618 0.993,-1.087 2.033,-2.126 3.165,-3.072 1.444,-1.207 2.997,-2.238 4.752,-2.946 0.165,-0.066 0.324,-0.149 0.475,-0.243 0.048,-0.029 0.061,-0.117 0.108,-0.216 -0.751,-0.044 -1.435,0.175 -2.115,0.362 -1.523,0.42 -2.89,1.16 -4.134,2.127 -0.282,0.219 -0.547,0.458 -0.83,0.674 -0.049,0.038 -0.191,0.039 -0.215,0.005 -0.042,-0.062 -0.056,-0.173 -0.03,-0.244 0.091,-0.251 0.199,-0.496 0.311,-0.738 1.586,-3.441 3.276,-6.83 5.114,-10.143 1.6,-2.885 3.294,-5.714 5.091,-8.481 0.168,-0.259 0.305,-0.539 0.45,-0.812 0.009,-0.018 -0.035,-0.089 -0.066,-0.098 -0.149,-0.042 -0.244,0.072 -0.346,0.146 -2.055,1.508 -3.935,3.212 -5.69,5.057 -0.276,0.291 -0.55,0.583 -0.826,0.875 -0.096,0.101 -0.207,0.155 -0.35,0.1 -0.15,-0.059 -0.165,-0.2 -0.184,-0.327 -0.046,-0.309 -0.074,-0.62 -0.118,-0.929 -0.38,-2.672 -0.292,-5.34 0.154,-7.99 0.566,-3.373 1.688,-6.551 3.538,-9.449 0.119,-0.186 0.257,-0.366 0.237,-0.63 -0.115,-0.033 -0.238,-0.098 -0.362,-0.099 -0.361,-0.003 -0.701,0.092 -1.028,0.252 -0.572,0.28 -1.05,0.672 -1.445,1.165 -0.166,0.209 -0.312,0.434 -0.464,0.654 -0.101,0.146 -0.194,0.297 -0.298,0.442 -0.02,0.028 -0.071,0.047 -0.109,0.049 -0.086,0.005 -0.135,-0.06 -0.129,-0.173 0.08,-1.561 0.338,-3.099 0.65,-4.627 0.17,-0.828 0.391,-1.647 0.59,-2.469 0.044,-0.178 0.049,-0.347 -0.079,-0.528 -0.613,0.144 -1.122,0.501 -1.621,0.874 -0.284,0.212 -0.552,0.446 -0.835,0.659 -0.086,0.065 -0.178,0.024 -0.225,-0.071 -0.018,-0.037 -0.036,-0.091 -0.021,-0.122 0.093,-0.198 0.171,-0.409 0.297,-0.585 0.886,-1.237 1.908,-2.353 3.025,-3.384 0.195,-0.181 0.388,-0.365 0.567,-0.562 0.045,-0.049 0.038,-0.154 0.035,-0.233 -0.001,-0.022 -0.071,-0.057 -0.112,-0.06 -0.221,-0.024 -0.444,-0.029 -0.662,-0.067 -0.045,-0.008 -0.117,-0.155 -0.096,-0.19 0.115,-0.188 0.243,-0.371 0.388,-0.536 1.03,-1.172 2.068,-2.337 3.097,-3.51 0.144,-0.163 0.253,-0.357 0.372,-0.541 0.012,-0.019 -0.02,-0.097 -0.039,-0.099 -0.081,-0.013 -0.175,-0.033 -0.245,-0.004 -0.613,0.263 -1.223,0.537 -1.835,0.805 -0.245,0.108 -0.478,0.108 -0.501,0.01 -0.044,-0.197 0.075,-0.337 0.169,-0.48 0.422,-0.637 0.946,-1.186 1.553,-1.646 0.496,-0.376 1.009,-0.735 1.545,-1.052 0.689,-0.408 1.406,-0.77 2.113,-1.148 0.786,-0.419 1.582,-0.822 2.359,-1.258 0.817,-0.459 1.594,-0.983 2.28,-1.628 0.189,-0.179 0.519,-0.351 0.44,-0.62 -0.098,-0.341 -0.499,-0.294 -0.792,-0.331 -0.443,-0.058 -0.884,-0.014 -1.329,0.059 -0.761,0.126 -1.44,0.453 -2.117,0.794 -0.029,0.016 -0.103,0.007 -0.111,-0.01 -0.031,-0.073 -0.085,-0.173 -0.058,-0.228 0.118,-0.238 0.254,-0.47 0.399,-0.694 1.823,-2.83 4.016,-5.337 6.572,-7.529 0.677,-0.58 1.352,-1.163 2.022,-1.75 1.51,-1.32 2.577,-2.942 3.262,-4.82 0.138,-0.377 0.27,-0.756 0.382,-1.141 0.338,-1.153 0.712,-2.3 0.977,-3.47 0.164,-0.724 0.467,-1.22 1.195,-1.434 0.226,-0.066 0.34,-0.254 0.357,-0.509 0.009,-0.116 0.092,-0.251 0.182,-0.334 0.161,-0.151 0.351,-0.271 0.531,-0.401 1.669,-1.202 3.199,-2.563 4.633,-4.035 1.151,-1.184 2.227,-2.434 3.251,-3.728 1.635,-2.062 3.132,-4.224 4.582,-6.418 1.523,-2.306 3.032,-4.62 4.552,-6.928 2.014,-3.056 4.226,-5.962 6.67,-8.69 1.041,-1.162 2.093,-2.313 3.149,-3.463 2.02,-2.2 4.061,-4.381 6.065,-6.596 2.065,-2.281 4.022,-4.653 5.818,-7.155 2.032,-2.832 3.835,-5.8 5.195,-9.015 1.271,-3.001 2.344,-6.065 2.603,-9.351 0.014,-0.183 0.08,-0.344 0.222,-0.468 V 10.797 C 52.081,10.512 51.808,10.22 51.522,9.941 48.3,6.789 45.271,3.456 42.369,0.01 c -3.101,-3.684 -6.161,-7.403 -9.235,-11.109 -2.933,-3.536 -5.905,-7.037 -9.04,-10.396 -2.894,-3.099 -5.928,-6.052 -9.179,-8.777 -1.306,-1.095 -2.715,-2.025 -4.243,-2.774 -0.441,-0.215 -0.889,-0.413 -1.33,-0.626 -0.523,-0.251 -1.048,-0.496 -1.56,-0.766 -0.353,-0.187 -0.689,-0.408 -1.028,-0.622 -0.171,-0.107 -0.183,-0.333 -0.025,-0.439 0.183,-0.124 0.375,-0.235 0.55,-0.345 0,-0.072 0.015,-0.123 -0.003,-0.154 -0.043,-0.071 -0.088,-0.157 -0.155,-0.195 -0.152,-0.086 -0.336,-0.125 -0.393,-0.411 0.213,-1.153 0.448,-2.377 0.668,-3.604 0.504,-2.807 1.013,-5.612 1.498,-8.423 0.408,-2.372 0.794,-4.747 1.172,-7.124 0.315,-1.98 0.606,-3.965 0.902,-5.948 0.321,-2.16 0.651,-4.318 0.948,-6.483 0.321,-2.339 0.618,-4.683 0.907,-7.027 0.355,-2.876 0.695,-5.753 1.035,-8.63 0.116,-0.973 0.213,-1.949 0.322,-2.924 0.133,-1.196 0.28,-2.391 0.4,-3.588 0.131,-1.287 0.236,-2.575 0.356,-3.862 0.111,-1.199 0.228,-2.396 0.337,-3.596 0.139,-1.508 0.283,-3.017 0.405,-4.528 0.133,-1.644 0.244,-3.29 0.364,-4.935 0.097,-1.334 0.195,-2.668 0.286,-4.002 0.145,-2.135 0.301,-4.27 0.42,-6.407 0.142,-2.537 0.26,-5.076 0.369,-7.615 0.149,-3.474 0.329,-6.949 0.408,-10.426 0.156,-6.82 0.308,-13.64 0.275,-20.464 -0.009,-1.783 0.026,-3.57 0.134,-5.348 0.156,-2.58 0.363,-5.157 0.656,-7.729 0.266,-2.347 0.574,-4.689 0.928,-7.025 0.534,-3.524 1.168,-7.033 1.867,-10.529 1.092,-5.462 2.312,-10.897 3.544,-16.328 0.837,-3.694 1.662,-7.391 2.488,-11.086 0.087,-0.391 0.145,-0.787 0.213,-1.181 0.017,-0.098 -0.137,-0.272 -0.237,-0.276 -0.088,-0.004 -0.178,-0.021 -0.266,-0.013 -2.221,0.19 -4.44,0.384 -6.661,0.576 -0.134,0.012 -0.267,0.026 -0.401,0.029 -0.36,0.01 -0.602,-0.03 -0.618,-0.494 -0.009,-0.267 -0.016,-0.535 -0.022,-0.802 -0.018,-0.803 -0.02,-1.606 -0.054,-2.408 -0.125,-2.942 -0.109,-5.884 0.052,-8.825 0.104,-1.917 0.319,-3.82 0.733,-5.695 0.579,-2.617 0.919,-5.27 1.112,-7.937 0.208,-2.89 0.355,-5.786 0.352,-8.686 -0.002,-1.471 0.08,-2.945 0.03,-4.413 -0.108,-3.164 -0.276,-6.326 -0.42,-9.489 -0.004,-0.088 -0.014,-0.177 -0.019,-0.266 -0.062,-1.202 -0.122,-2.405 -0.185,-3.607 -0.039,-0.76 0.019,-1.515 0.126,-2.267 0.037,-0.265 0.087,-0.529 0.114,-0.794 0.273,-2.795 0.629,-5.579 1.115,-8.346 0.44,-2.505 0.975,-4.984 1.977,-7.339 0.053,-0.122 0.101,-0.247 0.144,-0.374 0.731,-2.197 1.447,-4.4 2.196,-6.591 0.505,-1.474 1.026,-2.946 1.598,-4.395 0.606,-1.536 1.362,-3.001 2.32,-4.357 0.204,-0.289 0.369,-0.608 0.523,-0.928 0.557,-1.165 1.086,-2.345 1.657,-3.503 1.124,-2.278 2.283,-4.537 3.401,-6.819 1.236,-2.52 2.415,-5.067 3.444,-7.681 0.619,-1.576 1.184,-3.171 1.601,-4.816 0.252,-0.996 0.449,-1.999 0.463,-3.031 0.005,-0.371 -0.07,-0.702 -0.321,-0.988 -0.471,-0.536 -0.93,-1.083 -1.399,-1.619 -0.235,-0.269 -0.452,-0.568 -0.734,-0.775 -0.24,-0.176 -0.563,-0.24 -0.849,-0.359 -0.082,-0.033 -0.158,-0.082 -0.235,-0.127 -0.855,-0.492 -1.764,-0.848 -2.729,-1.061 -0.167,-0.036 -0.315,-0.15 -0.471,-0.228"
             style="fill:#231f20;fill-opacity:1;fill-rule:nonzero;stroke:none"
             id="path22" /></g><g
           id="g24"
           transform="translate(399.7034,505.6822)"><path
             d="M 0,0 H -0.097 C -0.06,0.064 -0.023,0.055 0.015,-0.035 0.016,-0.039 0,0 0,0"
             style="fill:#231f20;fill-opacity:1;fill-rule:nonzero;stroke:none"
             id="path26" /></g><g
           id="g28"
           transform="translate(211.9349,447.9947)"><path
             d="M 0,0 C 0.118,-0.096 0.232,-0.198 0.348,-0.299 0.343,-0.052 0.203,0.185 0,0"
             style="fill:#231f20;fill-opacity:1;fill-rule:nonzero;stroke:none"
             id="path30" /></g><g
           id="g32"
           transform="translate(52.9012,32.6871)"><path
             d="m 0,0 c -0.51,0.582 -0.797,1.099 -1.235,1.379 -3.95,2.531 -6.964,0.593 -8.774,4.943 -0.315,0.756 -0.908,1.397 -1.384,2.084 -1.112,1.61 -0.879,2.369 0.883,3.329 0.497,0.271 1.024,0.753 1.225,1.262 1.72,4.357 3.343,8.751 5.044,13.115 4.131,10.593 8.417,21.127 12.395,31.777 3.094,8.281 5.785,16.713 8.717,25.056 2.214,6.304 4.117,12.763 6.922,18.798 2.266,4.875 4.843,9.695 8.652,13.766 3.595,3.841 6.724,8.125 9.972,12.282 2.835,3.628 5.733,7.228 8.279,11.056 5.137,7.725 11.697,14.262 17.456,21.463 2.555,3.193 4.738,6.684 7.125,10.015 0.584,0.814 1.305,1.529 2.172,2.532 0.964,-1.324 1.841,-2.338 2.507,-3.475 2.495,-4.261 4.939,-8.553 7.37,-12.852 2.245,-3.968 4.385,-7.997 6.688,-11.931 2.85,-4.871 5.761,-9.71 8.771,-14.485 0.983,-1.558 2.248,-2.982 3.577,-4.269 2.742,-2.656 3.654,-5.627 2.157,-9.238 -1.841,-4.437 -2.362,-9.164 -3.186,-13.852 C 103.91,94.659 101.956,86.658 100.4,78.583 99.147,72.082 98.208,65.521 97.021,59.006 96.435,55.786 95.638,52.603 94.875,49.417 92.532,39.625 90.18,29.834 87.755,20.062 87.563,19.286 86.625,18.722 86.311,17.947 85.526,16.013 84.853,14.028 84.225,12.035 83.65,10.208 83.026,8.369 82.742,6.486 82.548,5.198 82.587,3.7 83.07,2.52 c 0.988,-2.412 0.561,-4.816 0.286,-7.177 -0.176,-1.52 0.243,-2.212 1.564,-2.525 1.222,-0.289 2.467,-0.48 3.685,-1.011 -0.112,-0.027 -0.225,-0.053 -0.337,-0.078 4.462,-0.07 8.998,-0.872 13.523,-0.498 l 39.641,-0.292 c 5.006,-0.173 10.096,-0.271 15.114,0.065 0.853,0.261 1.469,0.467 2.088,0.629 2.357,0.617 4.743,1.138 7.066,1.863 0.967,0.301 1.925,0.95 1.205,2.312 -0.303,0.574 -0.504,1.21 -0.852,1.753 -0.434,0.677 -0.856,1.663 -1.488,1.862 -2.113,0.663 -4.024,7.461 -6.219,7.68 -4.196,0.418 -8.429,-0.019 -12.625,1.027 -3.744,0.933 -7.093,-0.664 -9.905,2.477 -1.091,1.219 -1.672,1.762 -1.239,3.681 1.739,7.702 2.323,11.444 3.841,19.198 2.456,12.546 5.015,25.073 7.493,37.616 2.102,10.643 4.222,21.285 6.2,31.953 1.395,7.521 2.492,15.098 3.859,22.627 0.94,5.175 1.523,10.262 -0.233,15.419 -1.385,4.065 -2.496,8.228 -3.642,12.371 -1.763,6.369 -3.452,12.758 -5.173,19.139 l -2.267,9.76 c -2.031,9.949 -1.373,21.078 -3.421,31.025 -1.049,5.1 -2.708,10.183 -1.623,15.622 0.425,-0.019 0.88,-0.038 1.534,-0.067 -0.088,1.981 0.009,3.858 -0.284,5.671 -0.919,5.682 -1.146,11.307 -0.31,17.06 1.413,9.726 2.419,19.512 3.62,29.27 0.133,1.078 0.423,2.138 0.669,3.35 0.168,-0.274 0.335,-0.542 0.5,-0.809 0.012,0.501 0.026,1.002 0.045,1.502 0.32,8.853 1.607,17.641 3.11,26.366 1.497,-3.405 2.337,-6.948 1.797,-10.696 4.123,1.664 4.929,1.989 9.052,3.654 1.591,-4.454 3.301,-8.946 6.127,-12.738 2.827,-3.793 6.95,-6.858 11.651,-7.39 2.059,-0.232 4.143,0.025 6.179,0.41 7.937,1.5 15.233,6.093 17.941,13.703 l 12.652,35.543 c 1.194,3.354 2.391,6.715 3.923,9.93 1.669,3.502 3.725,6.81 5.387,10.317 3.974,8.388 5.728,17.971 11.484,25.254 5.213,6.594 13.502,11.024 16.312,18.948 0.82,2.311 1.102,4.776 1.301,7.221 0.198,2.441 0.309,4.965 -0.521,7.269 -0.83,2.304 -2.823,4.351 -5.265,4.525 -2.443,0.173 -4.953,-2.169 -4.372,-4.547 -0.498,0.979 -2.099,0.742 -2.744,-0.148 -0.645,-0.889 -0.64,-2.073 -0.699,-3.171 -0.301,-5.564 -3.02,-10.956 -7.315,-14.507 -4.296,-3.549 -10.747,-5.036 -16.269,-4.284 0.498,5.112 -2.084,9.96 -4.584,14.446 -1.32,2.369 -3.898,5.122 -6.213,3.709 -1.661,-1.014 -1.607,-3.402 -1.349,-5.33 0.993,-7.442 1.987,-14.883 2.98,-22.324 0.239,-1.788 0.477,-3.607 0.183,-5.385 -0.241,-1.458 -0.831,-2.83 -1.369,-4.205 -2.506,-6.4 -3.988,-13.156 -6.346,-19.611 -2.357,-6.456 -5.751,-12.785 -11.188,-16.989 0.662,5.977 -5.248,11.048 -5.103,17.06 0.074,3.07 1.7,6.364 0.183,9.033 1.342,-0.064 2.365,1.37 2.375,2.713 0.01,1.344 -0.69,2.579 -1.369,3.738 0.857,0.309 1.152,1.431 0.913,2.311 -0.237,0.879 -0.847,1.601 -1.326,2.376 -2.149,3.478 -1.659,7.995 -3.26,11.758 -1.472,3.462 -4.545,5.936 -6.854,8.905 -4.952,6.368 -7.299,16.856 -13.407,22.15 0.004,-0.207 -0.086,-0.422 -0.316,-0.404 -0.503,0.041 -0.687,0.694 -0.64,1.196 0.266,2.843 3.637,4.466 6.471,4.128 2.835,-0.338 5.311,-1.985 7.903,-3.181 4.366,-2.016 10.453,-2.341 13.125,1.657 1.012,1.514 1.349,3.426 2.495,4.84 1.301,1.605 3.719,2.951 3.214,4.955 -0.225,0.896 -1.009,1.517 -1.592,2.233 -1.751,2.15 -1.584,5.615 0.366,7.587 1.949,1.971 5.412,2.177 7.582,0.452 0.246,0.734 0.493,1.468 0.739,2.203 1.038,-0.523 1.931,1.012 1.883,2.173 -0.048,1.161 -0.253,2.618 0.745,3.213 1.416,-0.338 2.879,-0.678 4.315,-0.436 1.436,0.242 2.852,1.22 3.142,2.646 0.218,1.075 -0.221,2.162 -0.651,3.169 -1.325,3.106 -2.65,6.21 -3.975,9.315 -0.554,1.299 -1.121,2.677 -0.936,4.076 0.185,1.406 1.094,2.591 1.742,3.853 2.725,5.308 0.768,11.712 -1.224,17.336 0.865,-0.135 1.729,-0.271 2.595,-0.406 l -1.2,1.653 c 0.897,-0.36 1.794,-0.719 2.691,-1.08 -1.504,1.539 -2.751,3.327 -3.672,5.269 l 4.403,-2.048 c -5.28,9.829 -14.498,17.406 -25.066,20.985 -10.568,3.579 -22.374,3.192 -32.804,-0.773 -3.754,-1.427 -7.411,-3.356 -10.153,-6.292 -3.979,-4.262 -5.615,-10.141 -7.118,-15.773 -1.293,-4.843 -2.586,-9.686 -3.879,-14.529 1.43,-3.295 0.048,-7.09 0.319,-10.672 0.213,-2.821 1.464,-5.609 0.926,-8.385 -0.802,-4.132 -5.356,-6.572 -9.563,-6.719 -4.205,-0.147 -8.266,1.363 -12.383,2.233 -4.117,0.87 -8.781,0.986 -12.131,-1.561 -5.267,-4.003 -10.248,-8.464 -15.099,-13.128 -1.707,-0.941 -3.133,-1.942 -3.803,-2.917 -0.541,-0.786 -1.067,-1.586 -1.594,-2.387 -7.961,-7.969 -15.719,-16.236 -23.985,-23.636 -0.276,-0.046 -0.553,-0.095 -0.828,-0.151 0.043,-0.159 0.083,-0.319 0.122,-0.479 -1.125,-0.997 -2.259,-1.98 -3.406,-2.941 l 2.857,-5.231 c -3.132,-4.222 -6.234,-8.464 -9.333,-12.708 -1.92,-4.503 -4.415,-8.675 -8.538,-12.558 -6.322,-5.954 -13.793,-10.075 -17.377,-18.224 -0.249,-0.566 -0.468,-1.139 -0.694,-1.711 -0.194,-4.114 -0.39,-8.267 -0.14,-12.549 0.05,-0.85 -0.038,-1.625 -0.191,-2.36 0.174,-0.019 0.348,-0.038 0.522,-0.057 -0.206,-2.243 -0.566,-4.487 -0.589,-6.731 -0.086,-8.544 1.552,-18.244 1.592,-26.788 l 1.004,-7.481 c 0.664,-4.576 1.339,-10.046 1.402,-14.687 0.295,-1.919 -1.328,-3.469 -1.482,-6.54 -0.095,-1.246 -0.145,-2.305 -0.262,-3.358 -0.369,-3.323 -0.904,-6.637 -1.091,-9.967 -0.099,-1.779 0.307,-3.599 0.654,-5.368 0.093,-0.475 0.747,-1.107 1.239,-1.195 1.767,-0.32 2.201,-1.549 2.312,-2.931 0.082,-1.023 0.402,-1.868 0.985,-2.513 0.248,-10.73 2.356,-22.307 0.408,-32.035 l -2.454,-19.38 c -0.301,-1.245 -0.667,-2.487 -1.142,-3.677 -2.375,-5.948 -4.622,-11.956 -7.243,-17.795 -3.548,-7.904 -7.229,-15.758 -11.168,-23.472 -2.912,-5.701 -6.442,-11.083 -9.474,-16.728 -1.939,-3.609 -3.449,-7.449 -5.189,-11.167 -2.716,-5.802 -5.593,-11.533 -8.146,-17.405 -1.298,-2.986 -2.103,-6.196 -3.022,-9.337 -3.126,-10.683 -5.943,-21.421 -6.731,-32.604 -0.168,-2.384 -1.125,-4.734 -1.865,-7.052 -1.775,-5.564 -3.716,-11.074 -5.434,-16.653 -0.943,-3.062 -1.452,-6.256 -2.393,-9.318 -0.457,-1.487 -1.497,-2.787 -2.201,-4.208 -0.665,-1.342 -1.271,-2.716 -1.839,-4.101 -1.359,-3.31 -2.804,-6.593 -3.97,-9.97 -0.659,-1.909 -0.921,-3.973 -1.21,-5.988 -0.29,-2.027 -0.127,-4.15 -0.646,-6.102 -0.59,-2.222 0.204,-3.681 1.842,-4.799 2.063,-1.409 4.179,-2.795 6.436,-3.837 l 15.833,-8.611 c 1.661,-0.429 3.354,-0.788 5.197,-0.879 5.402,-0.268 10.89,-0.168 16.296,-0.087 5.96,0.089 11.945,0.613 17.885,0.483 0.682,0.18 1.335,0.351 1.985,0.514 0.622,0.156 1.29,0.171 1.886,0.388 0.652,0.237 1.333,0.538 1.827,0.999 0.264,0.245 0.35,1.202 0.191,1.298 -1.296,0.778 -0.052,8.605 -2.31,8.635 -0.348,0.004 -0.97,0.04 -1,0.169 -0.36,1.537 -1.701,1.475 -2.75,1.581 -3.315,0.334 -6.646,0.531 -9.973,0.737"
             style="fill:#231f20;fill-opacity:1;fill-rule:nonzero;stroke:none"
             id="path34" /></g></g></g></g></svg>
