<?xml version='1.0' encoding='utf-8'?>
<svg xmlns="http://www.w3.org/2000/svg" version="1.1" id="Layer_1" x="0px" y="0px" viewBox="0 0 3161.299 4000" enable-background="new 0 0 3161.299 4000"> <path d="M3132.148,3502.584c-14.216-11.602-33.442-11.896-49.022-20.625c-39.503-20.045-46.035-29.035-78.082-62.834 c-4.898-3.978-4.235-12.559,1.511-15.359c-0.958-4.493-2.026-8.876-3.315-13.149c-6.887-8.729-6.703-19.115-1.215-28.544 c1.068-5.341,4.788-10.607,10.865-10.202l3.167-0.405c37.824-29.267,83.467-77.175,97.014-120.806 c6.151-16.5,19.925-29.096,24.419-46.407c6.519-18.526-0.737-38.083,2.209-56.83c5.562-8.803,9.723-19.447,5.414-29.723 c-6.448-13.401-0.045-19.842-2.652-40.993c-1.031-5.009-0.258-10.497,3.573-14.07c-2.03-5.507-7.493-14.353-1.105-25.34 c2.716-6.208,4.337-50.696-2.357-67.917c-8.53-24.589,2.356-40.222-7.329-64.639c-11.123-30.017-15.911-61.766-24.824-92.409 c-4.383-16.795-11.933-32.559-16.022-49.427c-11.989-40.691,11.057-37.854-19.078-100.181c-8.213-17.237-24.345-29.87-29.539-48.654 c-4.014-14.401-6.85-29.134-11.859-43.24c-4.604-11.197-10.424-21.914-13.775-33.553c-3.278-9.687-5.23-20.478-12.854-27.844 c-35.456-36.023-10.936-9.051-88.137-202.682c-19.207-38.623-10.995-52.372-72.594-155.722 c-88.722-169.411-78.188-171.578-115.834-226.217c-6.593-10.055-9.871-21.915-16.942-31.675 c-15.948-19.852-27.329-43.166-45.302-61.471c-31.013-31.78-47.599-39.398-112.298-68.359c-15.801-7.329-19.963-26.15-32.964-36.647 c-17.421-17.384-43.792-13.922-65.744-20.036c-15.027-3.978-33.185-2.21-44.124-15.322c1.436-3.131,2.91-6.298,4.42-9.392 c48.777-15.048,39.409-35.592,57.714-58.856c31.38-36.573,59.851-76.756,77.014-122.058c2.394-26.703,8.213-54.105,2.762-80.697 c-3.205-5.819-3.499-12.707,0.111-18.416c4.346-8.36-0.811-17.421-2.947-25.598c-6.363-16.366,1.551-29.274-6.261-48.028 c-0.774-13.738-18.526-19.078-23.425-31.564c-13.923-31.822-34.953-60.256-60.661-83.533c-9.503-8.213-12.743-21.178-21.803-29.686 c-57.418-42.631-106.113-55.029-160.658-68.064c-16.316,5.856-33.516,0.626-50.237,2.431c-9.982,2.468-19.263,7.256-29.428,9.097 c-8.967,6.347-19.073-1.521-29.318,3.536c-13.3,7.6-17.203,1.372-23.277-4.898c-36.952-5.208-55.222,33.711-68.396,48.948 c-1.842,0.663-5.562,1.952-7.403,2.578c-6.961-1.4-12.265,5.009-16.611,9.429c-16.492,21.26-13.517,30.592-13.517,45.044 c-0.884,20.368,18.857,32.522,33.737,42.466c5.12,2.505,5.083,10.313,0.626,13.517c-9.909,9.522-10.41,11.708-18.71,18.858 c-20.777,20.117-6.067,25.837-14.143,36.942c-9.429,26.15-36.499,37.604-56.462,54.252c-14.843,12.596-33.148,21.325-45.339,36.868 c-4.567,5.267-2.247,12.744-3.021,19.115c10.875,21.349,37.747,35.19,27.587,51.343c-3.499,11.049-3.757,22.946-7.403,34.032 c-4.604,12.007,1.583,24.198,1.62,36.315c-0.7,17.532-21.472,27.145-21.583,44.566c0.753,15.207-5.189,26.935,21.178,44.418 c17.384,9.687,33.921,21.031,52.263,28.986c17.827,8.36,36.868,15.69,51.269,29.612c35.944,34.761,8.479,76.563,46.187,101.58 c6.229,1.735,8.787,5.362,10.196,11.538c3.869,16.966,26.225,23.765-5.813,50.522c-7.874,6.047-37.567,30.669-39.108,40.882 c-4.402,29.181,7.383,16.517,12.221,29.502c5.709,9.024,19.926,14.254,17.605,27.071c-6.395,18.832-21.065,15.796-47.328,49.28 c-1.915,6.998-6.998,12.08-14.07,13.849c-8.886,5.472-13.431,14.409-49.575,53.295c-0.81,8.434-7.108,14.438-14.548,17.605 c-5.145,4.601-13.688,13.94-35.914,31.846c-29.384,23.673-31.688,9.471-76.642,27.452l-3.72,2.063 c-5.224,11.219-11.375,8.423-22.32,6.372c-19.892-5.5-30.717-13.18-104.956-61.565c-76.259-49.702-87.164-63.183-188.109-165.719 c-14.441-15.784-16.887-31.772-21.436-44.161c-0.995-15.174-4.714-30.165-7.919-45.045c-4.383-20.367-20.294-34.916-32.043-51.158 c-9.208-14.401-16.205-30.128-25.819-44.271c-9.539-13.849-12.743-31.932-25.376-43.461c-8.803-4.346-15.359-11.565-20.589-19.668 c-2.909-2.947-6.445-5.156-9.612-7.624c-13.959,3.241-23.204,15.58-36.757,19.447c-35.763-14.548-69.022-35.284-97.161-61.803 c-12.007-11.381-26.96-20.441-34.547-35.689c-6.925-13.296-12.56-27.844-23.867-38.194c-17.81-17.201-47.683-14.083-51.932-25.303 c-9.449-14.172-18.227-16.524-21.413-26.674c-4.347,0.656-7.996-3.066-10.783-6.466c-23.165-28.262-21.571-27.53-26.349-37.258 c-3.09-6.292-14.632-19.714-27.346-37.481c10.38-36.751,3.825-69.903-2.32-77.529c-2.91-2.947-4.052-6.372-3.315-10.313 c-3.241-28.765-23.02-53.516-43.903-72.631c-7.366-15.064-2.836-32.743-0.626-48.617c4.53-28.655,9.87-57.493,20.92-84.454 c21.487-66.212,16.635-34.619,17.126-109.941c-5.415-69.999-77.324-85.199-167.472-206.181c-6.372-22.393,2.542-45.707-1.105-68.543 l-1.621-2.247c-1.657-0.884-4.972-2.652-6.629-3.536c1.584,5.009,2.909,10.128,4.014,15.322 c-10.791-10.313-16.242-24.529-23.83-37.052c-1.218-6.81,5.686-17.279,5.156-16.279c-5.445-10.089-17.46-27.999-8.545-50.532 c3.756-11.197,11.196-22.393,6.114-34.437c5.856-4.088,12.154-7.366,18.637-10.276c1.952-0.258,5.856-0.774,7.845-1.031 c9.392-7.219,17.458-16.169,27.513-22.504c15.359-2.357,24.787,15.432,40.367,12.154c27.712,3.646,26.802-48.838,42.209-94.583 c7.771-20.11,31.38-22.393,46.186-34.99c15.101-10.423,20.257-29.059,29.355-44.05c8.876-13.959,19.41-27.255,23.24-43.718 c6.077-21.362,30.643-27.513,41.177-45.965c11.182-21.966,13.93-16.248,12.78-41.509c-4.579-21.714-3.266-67.628-4.052-82.281 c-0.921-1.694-2.836-5.083-3.757-6.814l-0.073-5.267c-1.501-2.002-4.272-5.899-4.162-5.746c-0.003-0.007-3.057-7.66-3.057-7.66 c-8.928-18.263-12.033-35.769-11.786-34.769c-0.693-0.692-4.444-4.681-4.199-4.42c-3.719-1.989-5.708-4.972-6.003-8.913 l-0.515-5.009c-4.358-6.837-2.437-2.056-7.035-12.78l-0.147-4.972c-0.173-0.212-4.687-5.296-4.53-5.12 c-7.573-3.61-5.764-11.754-5.782-10.754c-25.467-22.533-26.654-48.698-45.339-58.525c-0.785-0.413-1.841-1.181-1.731-1.104 c-2.137-1.142-6.445-3.389-8.619-4.494c-4.051-0.516-6.814-2.689-8.25-6.556c-4.985-9.14-55.909-35.464-91.378-30.755 c-1.731-0.773-5.23-2.357-6.961-3.13c-11.131-1.225-95.069-2.403-106.958,2.025c-22.725,8.324-47.365,9.797-69.427,20.147 c-12.891,6.115-27.329,5.377-40.846,8.103c-4.236,2.357-9.023,3.941-13.849,2.836c-8.435-1.363-16.243,2.946-23.867,5.856 c-52.745,23.702-68.454,47.768-91.157,68.69c-10.424,12.375-26.776,18.968-34.364,33.774c-8.545,16.132-19.705,31.27-23.867,49.354 c-3.837,16.114-10.477,31.422-14.042,47.608c-1.634,7.418-1.247,14.625-2.454,21.936c-1.484,8.987-3.336,17.929-5.002,26.884 c-2.965,15.934,2.513,8.145-7.672,37.01c-18.85,34.966-17.311,34.553-58.599,67.586c-71.104,59.588-46.018,29.093-84.417,76.646 c-11.633,17.411-22.962,41.105-23.425,62.428c4.599,18.995-9.633,26.375-2.725,46.886c2.357,4.199,4.051,8.95,2.983,13.849 c0.148,29.133,18.747,54.473,34.032,78.119c3.978,4.199,3.462,10.755-0.074,15.027c-3.499,5.451-6.74,11.418-12.154,15.248 c-25.329,16.477-89.97,48.343-68.211,112.85c5.488,11.565,12.338,22.467,16.722,34.511l0.479,1.252 c-1.4,5.193-2.1,10.828-4.973,15.543c-6.445,6.298-15.947,10.312-17.679,20.149c-4.835,27.424-56.139,20.504-69.614,29.606 c-2.469,1.668-11.019,15.734-13.624,15.179c2.247,0.479,6.703,1.437,8.95,1.915c-9.06,12.449-24.456,17.679-34.143,29.539 c-31.511,31.029-32.833,35.662-43.497,61.361c-5.263,28.587-5.025,22.213-19.189,39.557c-8.478,11.318-10.176,24.357-10.604,38.592 c-0.599,19.914-8.116,40.256,3.017,58.863c12.744,20.773,34.953,31.675,55.173,43.608c2.652,14.732-4.751,29.391-15.212,39.409 c-26.093,24.062-65.021,29.024-70.937,71.858c-52.405,36.307-73.946,80.237-75.209,121.985c10.49,41.089,13.089,39.504,53.7,72.484 c13.37,14.143,28.692,26.924,47.217,33.664c26.82,11.785,66.552,3.488,60.661,43.682c-11.602,6.814-23.167,13.849-32.375,23.867 c-3.978-5.156-7.882-10.276-11.97-15.285c0.147,8.766,2.284,17.274,3.72,25.892c-6.359,22.731-10.984,14.027,0.368,44.345 c9.944,13.996,27.55,19.778,37.605,33.664c15.677,21.247,7.691,58.786-33.111,63.35c-56.539,5.669-52.65-11.899-68.138-31.417 c2.652,15.69,13.002,32.006,29.539,35.321c29.207,8.324,70.016,3.941,83.938-27.181c8.619-13.812,4.456-30.165-0.221-44.492 c6.962,7.256,14.365,15.138,15.469,25.671c-10.254,65.854-89.956,69.692-120.18,45.523c-15.281-11.645-30.309-46.756-20.368-93.109 c-12.817,20.626-19.263,44.418-26.261,67.475c-6.703-17.384,1.473-35.763,5.267-52.89c-20.552,29.428-20.663,73.589,4.272,100.586 c27.034,26.887,66.775,37.826,104.195,32.89c-5.562,6.151-8.655,16.464-17.826,18.305c-81.012-3.69-109.445-62.989-116.829-71.563 c6.078,33.148,32.89,58.083,59.74,76.13l-1.584-2.725c-6.482-6.261-14.769-10.976-18.968-19.3 c24.603,13.407,50.827,23.867,79.04,26.003c-11.666,29.338-7.803,48.741,8.913,69.721c-4.025-21.678-16.944-32.001-1.178-69.537 c17.274-2.357,34.99-6.703,47.991-19.115c22.762-20.184,44.271-45.118,74.915-52.816c33.701-11.16,54.031-43.24,68.138-73.883 c1.731,48.175-22.835,93.036-19.078,141.395c3.241,7.734,9.392,13.701,15.285,19.521c7.293,2.983,15.248,3.646,23.02,4.309 c3.831,1.547,11.786,5.083,10.387-3.683l4.641-2.799c0.074-1.62,0.221-4.899,0.294-6.519c-30.686,12.359-48.57-1.723-41.509-34.327 c7.145-21.436,16.206-42.209,23.204-63.681c9.281-6.004,17.789-13.517,28.065-17.79c8.066-1.068,16.242-0.405,24.308-1.473 c15.653-5.856,27.992-21.399,28.176-38.415c1.921-20.422-8.524-37.028,46.26-50.864c-10.571,8.913-24.677,14.733-30.939,27.807 c-8.176,16.795,4.273,38.526-9.944,53c-11.454,13.186-30.496,11.381-46.223,11.27c-6.85,6.63-12.412,14.88-10.129,25.009 c3.831-4.494,7.551-9.024,11.271-13.554c13.627,1.142,27.365,1.768,40.993,0.037c-20.055,39.78-34.539,82.137-54.494,121.952 c-51.413,84.858-166.581,311.226-209.815,397.609c-47.527,94.96-27.812,42.789-68.423,149.183 c-1.031,4.309-4.788,9.724-1.253,13.849c9.429,14.401,28.47,15.396,42.872,22.357c89.327,36.902,169.303,53.996,187.177,52.316 c35.224-3.309,64.772-4.453,91.819-29.371c11.233-10.349-0.332-27.255,10.791-37.568c9.355,0.074,18.047,5.303,27.365,4.346 c4.862-1.178,9.871-0.147,14.18,2.357c5.303,2.762,11.601,1.216,17.347,1.768c11.565-10.976,9.834-30.754,24.972-38.673 c5.782-6.372,11.749,1.694,16.832,4.861c-0.87,25.546,2.045,26.91-2.394,37.2c-2.099,5.488-1.583,11.565-1.768,17.421 c1.483,70.842-1.262,135.127,1.4,149.129c3.167,7.772,3.978,16.132,2.689,24.456c-1.989,18.784,4.272,37.126,3.388,55.873 c-0.589,22.172,0.258,44.382-0.553,66.554c-0.891,24.363-15.841,67.819-17.624,116.4c-0.541,14.748,1.976,28.929-3.186,43.227 c-4.75,26.47-11.119,29.989-59.777,76.793c-188.793,230.255-173.843,284.882-221.981,402.785 c-97.769,239.458-117.026,297.074-161.688,350.412c-2.136,0-6.446,0.037-8.619,0.037l-2.099,4.825 c-3.278,6.225-12.081,2.505-17.605,2.431c-17.2,4.088-2.505,22.872-4.088,34.179c-3.683,6.224-8.14,11.97-12.007,18.121 c7.91,30.615-8.217,17.054-10.128,45.413c-0.995,22.172-1.216,44.381,0.552,66.592c-2.239,34.869,42.723,19.696,69.464,30.274 l2.984,0.81c16.905,0.811,33.848,1.621,50.643,3.757c9.938,1.264,44.722-0.271,69.297,7.656 c35.067,11.313,68.095,13.378,104.767,11.828c12.448-4.751,25.413-8.913,36.757-15.911c6.564-4.049,13.04-25.971,12.169-33.747 c-1.255-11.205-16.475-25.692-24.839-33.065c-13.001-11.676-24.603-26.003-41.508-32.007c-11.113-3.586-29.88-18.907-20.11-29.539 c5.756-11.077,25.696-19.825,25.777-32.373c0.222-34.193-40.702-0.254,179.777-336.381c1.952-5.119,11.271-5.598,12.486,0.221 c23.45,83.682,76.224,321.854,75.193,409.408c-0.107,9.051-2.329,19.262-1.337,28.183c0.873,7.848,3.487,13.678,2.692,22.096 c-1.219,12.909-6.521,27.639,2.559,37.635c34.954,38.48,121.081,22.145,220.477,28.295c25.598,1.584,51.307-0.037,76.83,2.947 c29.87,2.836,60.109,1.989,89.831-2.026c32.109-7.533,33.4-14.558,32.191-33.443c-1.364-14.021,1.521-24.729-9.378-36.232 c-5.279-5.571-18.724-16.942-26.659-17.563c-5.083-0.398-11.114,7.202-15.968,0.942c-1.142-1.473-3.425-4.346-4.567-5.782 c-2.91,0.994-5.82,2.063-8.693,3.167c-8.25-7.108-15.948-15.764-26.96-18.379c-6.372-1.547-10.276-7.182-14.732-11.418 c1.473-11.012,2.062-22.578-2.909-32.817c-10.389-23.593-14.711-22.747-44.124-20.736c-4.199,7.035-8.729,14.217-9.171,22.725 c0.331,7.145-9.687,10.497-13.701,4.641c-25.156-26.666-39.74-61.803-45.044-97.787c-27.767-128.546-29.226-417.792-21.62-472.765 c1.852-69.843-1.215-152.124-1.709-158.991c-1.068-14.859-10.046-32.075-3.042-45.496c25.104-48.106,94.375-94.583,113.403-157.195 c13.48-32.375,26.85-65.081,33.111-99.775c24.972-128.651,85.485-246.548,119.186-372.658 c10.659-40.823,11.521-57.357,25.524-55.615l3.388-0.258c4.604-5.488,10.165-10.828,11.455-18.158 c2.504-18.784,15.947-33.7,18.71-52.448c0.369-4.346,2.725-6.703,6.998-7.145c50.828-11.342,39.377-23.871,61.176-38.673 c9.65-5.341,24.64-7.403,26.187-20.736c-4.318-37.229,0.362-55.269-3.205-76.35c-3.09-18.265,3.85-45.694-0.156-72.469 c-0.699-4.671-3.373-10.548-2.496-15.154c-6.425-72.049-31.704-205.59-28.912-295.717c-1.413-16.134-9.435-39.017-0.994-86.774 c1.155-5.689,2.136-11.454,2.136-11.454c3.831-2.357,10.165-2.983,12.523,1.768c13.77,19.453,4.002,47.203,26.443,45.317 c0.509-4.899-3.552-13.946,9.062-21.781c37.899-1.581,30.922,10.807,34.29,17.163c1.095,13.224-11.693,23.287-3.701,36.625 c5.182,8.648,17.439,17.812,17.439,17.812c0.671,0.908,6.211,7.522,6.887,8.324c4.272,2.762,3.462,8.36,0.111,11.528 c-2.202,5.962-1.854,14.596-0.671,20.866c1.807,9.582,11.579,14.803,16.214,22.227c0.143,0.228,4.423,6.689,4.309,6.519 c0.901,32.391,9.341,23.096,7.219,48.543l-0.995,1.105c-13.218,30.807,22.469,46.727,42.245,73.92 c13.737,18.738,56.676,53.355,57.678,53.958c50.186,36.3,55.905,21.303,94.177,67.033c22.504,34.916,30.349,76.646,48.286,113.771 c10.828,22.246,16.832,46.371,26.297,69.169c19.963,41.803,30.423,87.621,53.037,128.246c12.559,28.102,30.459,53.295,44.418,80.624 c8.066,16.021,20.699,29.17,28.287,45.449c7.163,15.369,15.403,30.28,24.011,44.879c19.771,33.536,24.295,34.189,24.017,41.056 c-0.684,16.922-16.482,3.476-49.877,25.048c-14.878,9.611-22.412,22.075-38.112,32.35c-13.232,8.659-23.58,21.16-34.954,32.241 c-63.798,55.983-27.118,133.654-23.093,161.173c6.974,46.402,87.506,152.235,126.589,242.496 c14.29,25.819,30.79,50.385,46.039,75.688c18.894,30.938,33.479,65.044,58.746,91.636c17.863,19.152,27.292,44.013,41.803,65.449 c13.996,21.03,25.966,43.35,37.052,66.038c13.87,30.275,33.268,44.813,35.874,103.79c0.884,16.463,8.471,31.527,12.928,47.218 c4.714,19.005,23.167,33.553,42.909,33.111c18.783,1.326,23.866,23.462,25.708,38.82c11.392,42.896-7.321,62.382-15.138,82.502 c-13.098,35.811-55.939,34.973-84.122,74.51c-14.659,8.95-26.776,24.014-29.833,40.993c0.221,5.488,0.331,11.086,0.294,16.721 c1.51,12.191,13.37,22.283,24.751,25.893c69.405,8.085,87.3-10.285,124.857,0.147c5.425,0.503,172.349,1.121,222.386,6.003 c18.931,1.731,37.789-1.62,56.757-1.51c14.033-1.915,26.924-8.36,40.257-12.854c23.455-5.253,33.854-41.153,26.278-59.066 c-3.467-8.197-14.766-7.93-13.277-19.603c0.92-7.214-9.853-13.41-13.078-18.779c-5.997-9.986-3.983-21.954-8.092-32.192 c-4.587-11.428-9.988-22.693-16.25-33.263c-6.851-11.565-22.394-5.893-32.412-12.154c2.854-13.243,9.728-20.429,3.059-30.756 c-7.296-10.944-16.76-22.668-19.669-35.762c-6.409-25.45-15.58-50.606-15.543-77.161c0.4-19.626-10.456-13.75-7.845-62.06 c-1.161-12.034-14.72-19.252-35.026-40.735c-8.232-8.784-7.903-6.2-8.287-20.92c33.828-4.089,97.341,12.968,129.977,22.246 c104.024,25.625,158.531,28.504,233.657,56.241c28.065,10.607,59.224,9.171,86.958,20.846 c16.316,13.443,34.069,29.354,56.573,29.134c14.032-0.147,27.476,7.182,35.726,18.416c4.685,6.379,10.508,11.751,14.936,18.244 c4.506,6.608,7.878,12.593,13.964,17.853c10.103,8.733,10.38,17.053,14.782,26.59c0.202,20.384,1.289,27.369,1.289,57.051 c7.938,14.795,11.265,29.584,3.613,49.468c-3.137,8.153-0.928,17.713-9.433,22.316c-9.87,6.298-8.029,19.778-12.154,29.502 c-5.414,13.406-3.315,27.808-0.184,41.472c14.561,30.126,33.631,25.874,119.259,23.498c88.709-6.907,127.281-72.857,123.827-85.374 c-1.179-4.015-0.295-7.477,2.652-10.424c11.086-20.22,26.113-38.636,46.407-50.127c15.616-8.103,29.17-20.257,46.407-25.082 c27.972-7.237,54.422-55.465,67.9-81.676c4.43-8.615,0.907-3.834,15.523-53.237 C3166.438,3538.347,3151.78,3514.702,3132.148,3502.584z M440.528,1698.594c1.142-8.103,3.057-16.942,10.902-21.215 C449.035,1685.003,445.315,1692.148,440.528,1698.594z M528.665,387.11c0.626,12.743,3.204,25.929-0.442,38.452 c-23.881,63.808-59.679,68.474-101.985,110.42c-9.282,8.545-16.758,18.747-25.303,27.918 C418.116,498.447,451.111,482.481,528.665,387.11z M305.873,761.977c14.462-32.933,66.555-50.803,83.128-61.103 c8.225,25.129,14.398,100.834-30.312,108.799c-7.685,1.369-16.553-4.425-21.672-9.46c-6.045-5.945-6.178-16.578-13.377-21.374 c2.735,16.641,8.71,27.493,22.526,37.279c5.451,0.663,10.976,1.4,16.39,2.468c-12.703,4.382-23.492-1.948-34.132-7.839 c4.249,2.354,6.679,7.582,10.401,10.708c23.808,19.999,78.679-10.674,77.099-54.395c1.253,0.7,3.757,2.136,5.009,2.836 c10.018,14.99,6.887,33.885,15.874,49.243c-16.65,53.636-51.704,54.192-69.224,62.412c-5.749,2.697-10.389,5.229-17.035,4.903 c8.793-8.144-17.06-33.039-33.148-52.03C298.58,816.046,295.265,785.439,305.873,761.977z M285.247,902.82 c6.777-10.57,12.965-22.099,25.782-26.408c1.105,2.615,3.241,7.882,4.309,10.534c-4.972,12.449-15.985,20.331-28.065,25.045 c-4.493-1.547-8.987-3.131-13.407-4.715C276.703,906.171,282.374,903.925,285.247,902.82z M235.894,917.7 c11.565-3.315,23.867-7.919,35.984-6.445c-2.781,4.379-14.791,9.067-20,11.012c-8.14,2.726-16.647,4.051-25.082,5.304 C229.853,924.292,232.874,921.014,235.894,917.7z M185.988,972.431c21.67-20.422,76.443-49.227,104.932-53.184 c38.726-16.95,32.29-33.973,31.38-64.528c10.055,10.57,18.416,22.798,22.835,36.831c-10.534,5.23-13.259,15.727-11.086,26.703 c-21.485,5.612-11.652,4.468-50.422,5.746c-56.638,14.969-57.151,41.232-40.367,60.55c-10.041,12.462-21.662,8.906-79.85,39.262 c-4.088,4.678-9.024,8.729-15.396,9.65C151.919,1009.63,162.821,983.001,185.988,972.431z M337.879,910.665 c-1.031-5.414,0.884-8.103,5.746-8.029C344.619,908.013,342.704,910.702,337.879,910.665z M113.761,1120.381 c6.888,3.462,9.466,11.123,14.07,16.795c12.375,16.574,26.408,32.411,34.106,51.895 C126.782,1169.799,112.879,1155.858,113.761,1120.381z M127.852,1085.726c1.211-91.927,221.804-46.494,300.079-119.888 c-6.499,40.656-46.991,47.895-72.005,53.847c-40.684,11.15-144.106,34.034-174.22,91.878c-14.037,26.963-0.961,41.339,4.343,48.622 c2.575,3.536,4.715,7.274,8.754,9.294c8.448,7.623,23.737,17.494,20.79,30.792c-0.396,1.785-1.086,3.521-1.179,5.347 c-0.228,4.477,3.665,8.067,3.211,13.258c0.132-1.531-18.13-9.481-20.433-10.906c-7.772-4.807-15.449-9.826-23.8-13.595 C162.138,1155.397,127.214,1134.157,127.852,1085.726z M193.354,1305.053c-24.272,14.106-48.654,29.281-67.106,50.827 c-4.862,5.451-7.292,13.701-15.175,15.616c-25.889-81.634,70.041-70.52,108.174-129.093c1.952,0.147,5.819,0.479,7.734,0.663 c0.957,8.877,2.872,18.747-2.689,26.629C216.115,1283.028,207.571,1297.355,193.354,1305.053z M266.979,1282.66 c-8.736,17.559-41.157,37.997-59.924,43.461C225.176,1309.289,248.122,1298.755,266.979,1282.66z M165.031,1239.641 c7.293-8.766,9.134-20.22,11.086-31.049c11.786,6.114,22.725,13.701,34.216,20.331c-0.331,9.024-8.324,14.438-14.032,20.368 c-30.165,25.487-72.595,29.17-102.538,55.063C96.132,1279.203,145.026,1267.382,165.031,1239.641z M60.43,1337.243 c-4.586,10.907-49.218,60.287-14.99,155.207C-19.969,1442.994,23.555,1368.465,60.43,1337.243z M88.937,1522.431 c-65.916-40.587-51.106-146.63-16.242-181.578c0,14.143,4.162,29.097,15.911,37.973c22.364,15.349-7.799,57.303-32.891,52.448 c-1.694-3.057-3.314-6.114-4.825-9.245c0.295,5.377,3.462,9.539,6.924,13.333c18.526,3.867,31.38-10.202,44.087-20.81 c-0.074,29.944,15.838,59.114,39.336,77.345c14.953,11.86,21.73,30.459,28.507,47.66 C143.079,1532.191,112.767,1539.115,88.937,1522.431z M29.234,1729.017c8.066,12.927,11.381,28.028,17.237,41.951 C33.385,1759.582,27.14,1757.191,29.234,1729.017z M36.195,1775.571c17.69,9.24,36.136,26.968,84.085,28.839 c-16.729-11.735-26.469-2.847-69.353-29.354c1.51-0.258,4.457-0.774,5.93-1.031c-7.071-10.939-15.064-22.983-12.522-36.684 c3.904,13.554,9.392,27.734,21.399,36.168c37.562,27.892,119.184,18.987,132.887-45.118c5.451-25.671-19.962-41.546-39.483-51.306 c-17.2-7.587-25.819-28.323-18.821-45.818c53.302-4.269,55.056-69.719,38.489-116.829c23.424,16.316,49.869,38.599,49.39,69.795 c1.326,10.865-4.714,20.11-9.76,29.097c-7.256,0.368-14.07-1.805-19.521-6.667c-0.81-5.377-1.805-10.792-4.715-15.469 c-3.462,15.027,5.856,30.975,20.515,35.579c17.789-3.793,33.148-19.705,32.08-38.599c5.31-55.291-54.422-86.985-78.672-101.065 c-15.874-8.361-24.198-25.119-33.626-39.557c-17.394-25.197,14.911-77.822,35.247-85.411c29.207-12.67,59.887-22.983,85.706-42.245 c-17.517,33.632-118.77,87.279-82.133,128.946c29.187,33.157,94.975,56.077,106.037,139.038 c9.061,49.391-11.123,99.555-40.993,138.227c-15.358,3.831-17.421-19.889-30.128-23.314c4.235,13.223,10.939,25.524,20.073,35.984 c-28.25,29.134-61.14,53.074-90.605,80.844C99.986,1819.805,58.404,1808.461,36.195,1775.571z M250.405,1499.227 c-4.346-2.32-8.25-5.267-11.602-8.766c-17.974-18.121-41.582-29.981-58.046-49.649c-19.579-21.823,29.868-57.561,59.519-88.211 c3.867-4.235,8.434-7.661,13.37-10.497C238.93,1374.797,227.319,1454.004,250.405,1499.227z M236.409,1771.667 c-39.629,11.27-46.575,49.597-99.959,64.528c11.11-27.729,69.042-54.101,100.549-92.004c22.393,2.173,41.73-10.423,58.451-23.683 C284.769,1744.707,263.738,1767.616,236.409,1771.667z M259.171,1716.383c13.563-31.788,31.599-48.255,31.859-113.624 C303.834,1621.139,296.141,1682.888,259.171,1716.383z M272.43,1114.599c-10.313,21.693-14.732,47.181-6.445,70.348 c5.046,11.712,14.659,22.099,16.427,34.806c-6.593,30.017-31.638,50.974-57.015,65.633c6.04-10.239,15.579-19.852,13.812-32.743 c1.216-10.239-7.182-17.164-11.97-25.045c0.371-26.657,12.311-21.632,11.97-33.259c0.479-6.261-0.221-12.486-0.626-18.673 c-25.319-58.377-7.432-63.965,4.125-75.651c17.237-14.696,40.809-16.685,62.429-18.784 C294.124,1092.279,279.428,1099.977,272.43,1114.599z M269.594,1059.684c-32.338,6.593-61.508,37.236-57.64,71.71 c-1.584,22.946,18.526,40.551,16.39,63.423c-5.414-4.825-6.556-12.596-11.344-17.9c-9.612-11.455-22.798-20.073-29.539-33.811 c-10.675-38.813,48.969-73.674,86.701-88.432c22.88-10.813,88.449-28.281,96.019-28.581 C340.678,1046.94,303.884,1051.507,269.594,1059.684z M376.478,1109.59c-9.208,33.443-23.204,65.486-41.214,95.061 C328.713,1176.822,300.279,1132.947,376.478,1109.59z M376.147,1724.007c4.199-7.072,8.582-14.07,12.891-21.067 c4.677,1.842,9.65,3.793,10.129,9.613C392.279,1717.82,385.133,1723.234,376.147,1724.007z M398.246,1689.202 c-4.862-0.81-5.525-3.462-2.026-7.955C401.081,1682.02,401.744,1684.635,398.246,1689.202z M407.969,1635.576 c-5.193,1.657-6.961-0.11-5.341-5.267C407.748,1628.615,409.553,1630.383,407.969,1635.576z M397.914,1602.759 c-16.873-65.094-46.554-94.816-63.46-191.006c21.496,8.49,61.435,48.569,58.303,72.999c-4.935,2.21-16.795,5.341-9.023,11.97 c16.132,3.573,25.856-15.101,24.346-28.986c4.567,9.097,11.049,18.121,10.681,28.802c-3.02,5.34-13.406,5.893-11.601,13.406 c7.808,5.451,16.537-1.068,21.914-6.851c4.604-10.423,1.178-21.804-1.031-32.338c-33.92-47.246-35.203-43.885-93.22-81.36 c-1.289-12.633,0.589-25.193,3.462-37.457c4.199,2.468,8.25,5.23,11.933,8.545c18.084,16.169,40.698,28.065,53.295,49.649 c9.87,17.2,19.447,35.247,23.94,54.621c4.677,7.293,6.556,15.764,7.219,24.346C447.23,1536.507,440.289,1573.332,397.914,1602.759z M404.249,951.842l0.331,0.405c-19.741,13.922-46.813,16.574-67.106,2.247c-3.217-2.626-6.56-6.291-10.253-8.042 c0.062,0.026-1.13,10.774-0.785,11.962c3.08,10.619,29.882,16.103,40.95,16.691c7.425,0.394,40.593-1.28,46.55-4.846 c-27.991,16.758-60.071,25.892-92.188,30.459c-10.1,1.552-103.607,14.215-107.584,14.254c29.163-12.69,39.171-12.614,46.15-23.167 c2.431-13.812-15.174-22.909-10.718-37.052c17.646-37.396,66.929-11.441,96.058-32.708c4.478-3.273,9.892-15.997,9.42-20.892 c-0.297-3.081-3.271-5.022,0.32-7.77c3.119-2.387,10.394-2.547,14.295-4.398c43.099-20.45,51.453-18.498,71.098-58.39 c0.737,0,2.21,0,2.91-0.037C457.788,861.637,443.7,921.635,404.249,951.842z M477.948,815.493 c-1.068-14.99,0.7-31.012,12.265-41.877C487.156,787.87,482.7,801.755,477.948,815.493z M452.94,741.021 c-12.828-67.547-9.293-102.352,33.995-139.627c-8.618,23.277-4.383,49.317,10.165,69.169 C494.596,700.064,471.577,720.542,452.94,741.021z M525.755,532.519c-16.611,17.311-38.673,33.001-40.846,59.077 c-15.8,14.696-32.522,30.312-39.372,51.416c-15.374,47.037-1.401,67.441,0.074,99.444c-41.543-95.624-43.861-139.446,41.435-200.767 c15.838-10.534,31.159-21.988,44.197-35.911C530.322,514.62,533.269,525.743,525.755,532.519z M867.941,772.062 c-0.467-5.716-4.071-10.02-1.056-15.462c4.051-1.031,6.04,0.773,5.93,5.414c4.383,13.37,6.114,27.366,9.797,40.919 C869.482,798.126,869.048,785.591,867.941,772.062z M2383.895,2826.192c-4.772,0.912-10.198,1.232-13.997-1.797 c-0.752-0.6-8.264,0.801-9.786,0.685c-12.157-0.927-19.459-7.765-29.373-13.337c-16.206-1.768-31.896-7.366-45.56-16.169 c-15.928-10.348-49.174-11.089-69.647-35.469c-13.347-9.748-16.705-17.578-21.62-21.878c-9.576-3.425-17.163-10.792-20.515-20.404 c-1.445-4.143-25.377-16.67-29.752-17.89c-5.419-1.512-11.306,0.534-16.872,0.781c-7,0.311-14.041-0.265-20.894-1.729 c-38.79-8.29-32.539,3.833-61.724,11.251c-4.157,1.057-8.143,1.181-12.014,2.71c-17.957,7.09-88.652-16.822-94.177-18.243 c-8.484-2.181-17.534,0.418-25.452-3.753c-16.359-8.617-96.133-16.31-73.672-31.589c3.02-2.054,5.171-5.999,8.508-7.48 c24.232-10.747,65.59-8.065,87.639-34.126c3.981-4.706-3.497-16.921-3.442-22.244c0.034-3.269,1.974-6.236,2.718-9.322 c0.971-4.024,0.434-7.483,4.74-9.893c4.028-2.254,8.893-1.793,12.814-4.35c4.315-2.814,7.547-7.684,11.578-10.94 c59.131-47.775,73.528-58.943,98.919-80.08c23.267-13.929,42.015-40.131,58.893-51.416c3.801-2.541,17.396-14.295,21.2-11.485 c24.975,18.446,34.913,67.28,36.588,70.619c9.793,19.53,27.295,46.835,36.574,70.658c14.179,34.474,32.632,66.959,51.379,99.149 c7.845,12.67,9.871,28.139,18.563,40.33c12.432,12.289,86.02,47.281,105.042,54.068c29.936,9.694,30.327,33.332,32.759,42.27 c1.907,7.011,6.152,13.932,1.846,20.942C2417.488,2828.552,2395.469,2823.98,2383.895,2826.192z"/> </svg>