<?xml version='1.0' encoding='utf-8'?>
<svg xmlns="http://www.w3.org/2000/svg" version="1.1" width="600px" height="976px" viewBox="0 0 600 976"> <g id="layer1"> <g> <g style="fill:rgb(0,0,0); fill-opacity:1.0; stroke-linejoin: miter"> <path d="M439.59937,244.27875C439.98642,244.72113,440.31824,245.3294,440.31824,245.6612C440.31824,245.99298,440.65002,246.38013,441.0924,246.54596C441.53482,246.71191,442.0878,247.54144,442.2537,248.42609C442.4196,249.31091,442.97256,250.30627,443.41495,250.69342C443.85736,251.0252,444.18915,251.57813,444.18915,251.85461C444.18915,252.13123,444.74213,252.90533,445.4057,253.56891C446.12457,254.23248,447.06467,255.4491,447.50705,256.27856C447.94943,257.10797,450.05078,260.3706,452.20743,263.57794C457.46082,271.37512,458.0138,271.70685,466.64038,271.26447C474.6034,270.87738,477.36832,271.26447,477.36832,272.75757C477.36832,273.31055,477.5895,273.97412,477.9213,274.14C478.8614,274.74835,478.5296,275.74365,476.8153,277.62378C475.87524,278.6192,475.15637,279.6698,475.15637,279.89105C475.15637,280.11224,473.9951,280.997,472.61264,281.88184C471.23016,282.7666,469.1841,284.31488,468.07816,285.31036C466.97217,286.30566,465.9215,287.1352,465.7556,287.1352C465.1473,287.1352,463.54364,290.39777,463.54364,291.66962C463.54364,292.44385,464.26254,293.7157,465.2026,294.60052C467.85693,297.14423,468.52054,298.85846,467.58047,300.6281C467.19336,301.40222,466.4745,302.0658,466.03207,302.0658C465.58972,302.0658,465.2026,302.45294,465.2026,302.89526C465.2026,303.33765,464.87082,303.7248,464.42844,303.7248C463.59897,303.7248,463.82016,306.2685,464.70493,306.8214C465.3685,307.20862,465.3132,310.74768,464.64963,311.19012C464.31784,311.35596,464.09665,313.51257,464.09665,315.8905C464.09665,318.2683,464.31784,320.425,464.64963,320.59082C464.92612,320.7567,465.2026,321.64154,465.2026,322.52637C465.2026,324.3512,461.94,328.0561,460.33633,328.0561C459.78336,328.0561,458.89856,328.388,458.29028,328.83032C457.682,329.2174,455.80185,330.15747,454.14288,330.82104C452.48395,331.53998,450.60376,332.646,449.9955,333.2542C448.4471,334.80255,447.39645,337.0146,447.94943,337.4016C448.22595,337.5675,448.88953,338.72876,449.3872,339.94537C449.9402,341.16193,450.60376,342.54443,450.82498,343.0421C451.10147,343.5398,451.15677,344.53516,450.99088,345.19873C450.76965,346.1388,451.32266,347.07898,453.6452,349.40143C455.24887,351.06042,457.01843,352.38763,457.5161,352.38763C458.0138,352.38763,458.73267,352.77466,459.11978,353.21704C459.50687,353.6595,460.11514,354.0465,460.50223,354.0465C460.834,354.0465,461.8847,354.6548,462.76947,355.42896C463.65427,356.2032,465.3132,356.97742,466.4192,357.14325C467.58047,357.36438,468.79703,357.86212,469.1288,358.24927C469.4606,358.6916,470.17947,359.02344,470.6772,359.02344C471.17487,359.02344,472.05966,359.41046,472.61264,359.8529C473.22095,360.2953,474.161,360.6823,474.714,360.6823C475.26697,360.6823,475.70935,360.95892,475.70935,361.2906C475.70935,361.56714,476.53885,362.1754,477.53424,362.61774C478.5296,363.00494,479.80145,363.8897,480.35443,364.498C480.9627,365.16156,481.84753,365.6593,482.3452,365.6593C482.8982,365.6593,483.61707,366.04633,484.00415,366.4887C484.39124,366.93115,484.9995,367.31818,485.33133,367.31818C487.1562,367.37347,487.59857,368.4242,487.98566,374.3412C488.15155,377.60382,488.64923,381.8617,489.03632,383.79724C489.5893,386.56207,489.5893,387.7787,489.03632,390.15656C488.64923,391.7049,488.15155,396.0182,487.87506,399.6679C487.65387,403.31763,487.26678,406.8568,487.0456,407.57556C486.7138,408.51563,486.9903,409.17926,487.93036,410.22992C489.2022,411.61243,489.2575,411.9995,489.4234,421.6767C489.5893,427.92554,489.86578,432.01764,490.25287,432.45996C490.75058,433.06824,491.1377,438.10046,491.193,444.40448C491.193,444.95746,492.57544,446.727,494.23438,448.3307C495.89337,449.9344,497.27582,451.64856,497.27582,452.091C497.27582,452.53345,497.6629,453.19702,498.10532,453.58405C498.54767,453.9712,498.93478,454.69,498.93478,455.24304C498.93478,455.79602,499.2666,456.5149,499.70895,456.84662C500.15137,457.23383,500.64905,458.39502,500.87024,459.55627C501.09143,460.6623,501.5338,461.9342,501.8656,462.37653C502.2527,462.81885,502.5845,465.63916,502.63977,469.23364C502.7504,474.1551,503.02686,475.86945,503.96698,477.86023C505.7918,481.73108,506.67657,485.87842,506.67657,490.30237L506.67657,494.33917L510.65808,498.15472C515.082,502.41278,514.5843,500.97504,516.1326,513.4725C516.68567,518.17285,516.6304,519.1683,515.8562,521.21423C515.3585,522.5414,514.9714,524.31104,514.9714,525.19574C514.9714,527.3524,512.6488,530.61505,509.44153,532.9376C507.0637,534.65186,506.4001,534.8731,503.30338,534.8731C497.27582,534.8731,494.17908,535.4814,492.57544,536.86383C491.69067,537.58276,490.9718,538.191,490.86118,538.191C490.8059,538.191,489.4234,537.58276,487.76447,536.80853C484.28064,535.2048,482.8429,535.09424,481.62628,536.3661C480.9074,537.19556,480.68622,539.6287,480.40973,550.08014C480.02264,564.23663,479.46967,572.1443,477.9213,584.31C477.03653,590.94586,476.59412,592.7707,475.76465,593.60016C475.15637,594.1532,474.3822,594.5956,474.0504,594.5956C473.71863,594.5956,473.05502,594.8168,472.502,595.09326C472.00433,595.36975,471.11957,595.75684,470.6219,595.9227C469.4606,596.2545,468.96292,598.1347,467.13806,609.2497C464.64963,624.29095,459.94925,642.3736,453.7005,660.6774C452.37332,664.60364,452.20743,665.8202,452.31805,671.1842C452.42862,674.50214,452.7604,678.92596,453.09222,680.972C453.424,682.96277,453.9217,687.93964,454.14288,692.03174C454.8618,702.3726,455.63596,709.0638,456.29953,710.88855C456.7419,711.9393,456.7419,714.04065,456.35483,717.69037C456.02304,720.62115,455.91245,723.16486,456.07834,723.3861C456.41013,723.9944,457.2396,732.6763,458.84326,753.0261C461.5529,786.4265,462.43768,799.64294,463.15656,814.4629C463.87543,829.06177,463.93076,829.44885,465.3132,831.329C467.2487,833.92804,471.50665,842.0016,472.88913,845.65137C473.55273,847.3103,474.0504,849.5775,474.0504,850.68353C474.0504,853.2826,475.26697,854.77563,480.24384,858.4253C482.45578,860.02905,486.16083,863.01514,488.42804,865.00586C490.69528,867.0519,494.06848,869.70624,495.89337,870.92285C500.92554,874.296,502.52917,876.01025,503.85635,879.66003C506.95306,887.84424,506.013,890.16675,499.10068,891.6045C492.85193,892.93164,477.8107,892.65515,473.4421,891.1068C471.78314,890.49854,469.2947,889.83496,467.91226,889.6138C465.0367,889.1161,448.88953,882.6461,445.95868,880.8213C443.63614,879.32825,441.5901,877.1716,432.46582,866.4436C431.24927,865.00586,430.7516,864.83997,428.31842,864.89526C425.2217,865.00586,424.50284,864.6188,415.93152,857.817L411.45233,854.22266L411.89474,833.76215C412.39243,809.7625,412.22653,785.81824,411.50763,781.50494C411.23114,779.84595,410.62286,776.85986,410.18045,774.86914C408.24503,766.02136,407.80264,763.8647,407.19434,760.76794C406.80725,758.9431,406.19897,755.5699,405.7566,753.3027C405.31418,751.0354,404.6506,744.8973,404.31882,739.75446C403.59995,727.42285,403.7105,727.8653,400.77972,727.8653C399.23132,727.8653,398.29126,727.5888,398.12537,727.09106C397.6277,725.7639,390.43884,725.98517,388.8352,727.3123C388.1163,727.9206,386.78915,728.97125,385.95966,729.6348C385.0749,730.3537,383.85834,731.40436,383.19473,732.01263C382.53116,732.6763,381.5358,733.33984,380.9828,733.56104C380.4851,733.72687,380.04272,734.1693,380.04272,734.5011C380.04272,734.7776,379.6556,735.0541,379.21326,735.0541C378.71555,735.0541,378.21786,735.44116,378.05197,735.8836C377.83078,736.3259,377.4437,736.713,377.16718,736.713C376.8354,736.713,376.00592,737.32135,375.28705,738.0955C374.56815,738.8697,373.79398,739.47797,373.5175,739.47797C373.241,739.47797,372.5221,740.08624,371.96912,740.8605C371.41614,741.63464,370.58667,742.2429,370.19955,742.2429C369.81247,742.2429,369.3701,742.63,369.2042,743.0724C368.983,743.5148,368.4853,743.9019,368.0982,743.9019C367.65582,743.9019,367.15814,744.28894,366.99225,744.7313C366.77106,745.17377,366.43927,745.56085,366.16275,745.56085C365.55444,745.56085,364.8356,746.11383,362.29184,748.4917C361.4071,749.32117,360.5223,749.98474,360.3564,749.98474C360.19052,749.98474,359.74814,750.3165,359.36102,750.6483C358.9186,751.0354,358.03387,751.7543,357.37027,752.1967C356.65137,752.63904,355.82196,753.3579,355.49014,753.745C355.15836,754.13214,353.00168,756.39935,350.67914,758.8325L346.47647,763.20105L346.08936,767.625C345.8682,770.3346,345.97873,773.04425,346.36584,774.70325C346.69763,776.141,347.02942,779.62476,347.08475,782.3345C347.08475,786.5924,346.91882,787.58777,345.92346,789.30206C343.87744,792.5647,341.2231,793.28357,336.6333,791.73517C334.20016,790.9057,329.16797,786.6477,329.16797,785.43115C329.16797,785.09937,328.83618,784.8229,328.44907,784.8229C328.0067,784.8229,327.3431,784.21454,326.95605,783.4404C326.56897,782.66626,326.01596,782.058,325.73944,782.058C325.51828,782.058,325.2971,781.78143,325.2971,781.50494C325.2971,781.17316,324.68878,780.2883,323.9146,779.51416C323.1404,778.74,322.53214,777.8552,322.53214,777.46814C322.53214,777.08105,322.03445,776.3622,321.42615,775.8092C320.81787,775.3115,320.32022,774.482,320.32022,774.0397C320.32022,773.5972,320.0437,773.21014,319.76718,773.21014C319.4354,773.21014,319.21423,772.9336,319.21423,772.6018C319.21423,772.27,318.88242,771.66174,318.44,771.21936C317.99768,770.77704,317.44464,769.06274,317.22348,767.3485C316.83636,763.8647,317.3341,755.5699,318.16354,753.46857C318.82712,751.699,318.77182,748.04926,318.05295,743.183C317.22348,737.76373,316.6705,736.713,314.56915,736.713C311.80417,736.713,309.97937,733.22925,309.20517,726.704C308.0992,716.97144,307.98862,715.3125,308.6522,714.9254C308.98398,714.7042,309.26047,713.3217,309.26047,711.7734C309.26047,709.8932,309.70285,708.17896,310.69827,706.3541C312.24658,703.368,312.79956,702.9809,315.67514,702.9809C316.72577,702.9809,317.55527,702.7597,317.55527,702.4832C317.55527,702.20667,318.10822,701.76434,318.77182,701.5431C319.4354,701.37726,320.54138,700.603,321.26028,699.88416C322.03445,699.11,323.25104,698.55695,324.1911,698.55695C325.02057,698.55695,325.85007,698.2805,325.9607,698.004C326.07123,697.67224,327.95145,697.2851,330.16336,697.06396C332.32,696.898,334.14487,696.5109,334.14487,696.28973C334.14487,696.01324,335.0296,695.7921,336.0803,695.7921C337.13098,695.7921,338.01572,695.57086,338.01572,695.2391C338.01572,694.9626,338.62405,694.57544,339.39822,694.3543C340.17242,694.1884,340.7807,693.80133,340.7807,693.5801C340.7807,693.3036,341.49957,692.9718,342.43964,692.7507C343.3244,692.5294,344.0986,692.1424,344.0986,691.86584C344.0986,691.58936,344.59628,691.36816,345.1493,691.36816C345.70224,691.36816,346.31052,690.9811,346.53177,690.5387C346.69763,690.0963,347.3059,689.7092,347.9142,689.7092C348.46722,689.7092,349.07547,689.3221,349.29666,688.87976C349.4626,688.4374,349.90497,688.05023,350.29202,688.05023C350.67914,688.05023,351.50867,687.44196,352.0616,686.6678C352.61456,685.8936,353.27814,685.2853,353.4994,685.2853C353.72058,685.2853,354.9371,684.3452,356.15375,683.23926C357.37027,682.078,359.13986,680.52966,360.07993,679.75543C361.02,678.98126,362.23654,677.9306,362.73425,677.3776C363.28723,676.87994,364.0061,676.43756,364.39322,676.43756C364.78033,676.43756,365.66507,675.8846,366.38397,675.1657C368.3194,673.3961,370.25485,672.0136,370.80783,672.0136C371.08435,672.0136,371.80322,671.40533,372.4115,670.63116C373.01978,669.857,373.73868,669.2488,374.01517,669.2488C374.34695,669.2488,374.95523,668.91693,375.34232,668.52985C377.16718,666.9262,377.83078,666.48376,378.32846,666.48376C378.60495,666.48376,378.93674,666.0967,379.15793,665.6543C379.32382,665.2119,379.8215,664.8248,380.26392,664.8248C380.651,664.8248,381.14868,664.43774,381.3699,663.99536C381.5358,663.553,381.97815,663.1659,382.36526,663.1659C382.75235,663.1659,383.58182,662.5576,384.1348,661.7834C384.6878,661.0092,385.5173,660.40094,385.90436,660.40094C386.34677,660.40094,386.67856,660.0691,386.67856,659.68207C386.67856,659.295,387.39743,658.41016,388.33752,657.63605C389.66467,656.53,389.9965,655.81116,389.9965,654.0416C389.9965,651.82965,388.6693,645.08325,387.78452,642.9819C387.50803,642.3736,386.78915,639.38745,386.12555,636.34607C385.5173,633.3046,384.7431,629.9314,384.4666,628.8807C382.97354,623.4614,380.9828,613.7289,380.04272,607.86725C378.82614,599.90424,378.32846,598.3006,376.5589,596.4204C375.61884,595.42505,374.51285,594.5956,374.18106,594.5956C373.79398,594.5956,373.4069,594.2085,373.18567,593.76605C373.01978,593.3237,372.6327,592.9366,372.3009,592.9366C371.96912,592.9366,371.02902,592.3283,370.19955,591.55414C369.3701,590.77997,368.43002,590.1717,368.0429,590.1717C367.71112,590.1717,366.60516,589.4528,365.60977,588.56805C364.61438,587.6279,363.06604,586.63257,362.18127,586.2455C361.29648,585.8584,359.9693,585.02893,359.2504,584.36536C358.53156,583.7017,357.03848,582.70636,355.87723,582.0981C354.71594,581.5451,353.4994,580.7709,353.22287,580.4391C352.33807,579.5543,348.0801,576.9,347.41653,576.9C347.14005,576.9,346.86356,576.67883,346.86356,576.347C346.86356,576.07056,345.59167,574.57745,344.0986,573.0844C342.55026,571.536,341.33365,570.26416,341.33365,570.15356C341.33365,570.04297,341.72076,568.7158,342.21848,567.2227C342.66083,565.67444,343.43503,562.19055,343.87744,559.48096C345.5364,548.8083,345.81287,547.53644,349.1308,533.21405C350.01553,529.3985,351.01093,525.30634,351.2874,524.0898C351.6192,522.8733,351.89572,520.27423,351.951,518.3388L352.1169,514.7996L347.41653,512.03467C323.52753,498.04413,321.86856,496.82758,317.49994,490.35767C316.50458,488.80927,315.39862,487.31622,315.01157,487.03973C313.85025,486.0443,312.68903,483.22412,311.8595,479.2979C311.36185,477.1413,310.53232,473.38098,310.03464,470.83722C309.48163,468.34882,308.81805,466.30273,308.54156,466.30273C308.04388,466.30273,308.5969,471.94318,309.3158,473.93396C309.59225,474.59753,309.64758,477.086,309.48163,479.4638C309.03925,484.60657,307.7674,486.7079,304.0071,488.201L301.46335,489.25165L301.68457,492.84607C301.79517,494.83685,302.34814,497.6571,302.90112,499.20544C306.4955,509.04865,307.3803,513.1407,308.7628,526.3018C309.81342,536.532,309.42636,544.1632,307.2697,553.1216C306.8273,555.11237,305.83194,559.2044,305.11307,562.24585C304.39417,565.2873,303.2882,570.26416,302.62463,573.3056C301.35278,579.11194,298.58783,588.2915,297.31598,590.83527C296.87354,591.60944,296.54175,592.6601,296.54175,593.15784C296.54175,593.6555,296.3206,594.485,296.0441,595.03796C295.7123,595.53564,294.66162,598.6876,293.55563,602.06085C292.50497,605.3788,290.29303,611.84875,288.57877,616.43854C286.86453,620.973,285.48206,625.0651,285.48206,625.4522C285.48206,625.8946,285.09497,627.11115,284.59726,628.16187C283.76782,629.8761,283.7125,632.0328,284.04428,648.6777C284.26547,658.9079,284.542,668.6957,284.7079,670.3547C284.92905,673.2302,285.75858,684.1241,286.36682,693.8566C286.53275,696.28973,286.9751,698.6123,287.3069,698.9994C287.694,699.4971,287.694,699.88416,287.3622,700.1054C287.03043,700.32654,286.36682,701.3219,285.86914,702.3726C284.7079,704.6951,284.542,712.32635,285.59262,713.3771C286.14563,713.93,286.14563,714.2065,285.64795,714.483C284.92905,714.9254,285.09497,716.4737,287.141,727.5888C287.8046,731.2385,288.57877,735.71765,288.79996,737.54254C289.57413,742.7406,291.01193,751.97546,291.89667,757.4501C292.67087,762.4269,293.72156,770.9429,294.88278,781.2284C295.2146,784.2699,295.60168,787.1454,295.76758,787.58777C295.93347,788.0302,296.43118,790.4633,296.87354,792.9518C298.91962,805.00684,299.3067,806.83167,300.08087,809.15424C301.18683,812.47217,302.29285,815.40295,302.67993,816.0665C304.94717,819.661,308.15448,826.51807,308.37567,828.2323C309.42636,834.81287,310.08994,837.1354,311.1406,837.96484C312.13596,838.7943,312.3019,839.7897,312.6337,846.53613C313.13135,856.54517,313.79492,859.86316,316.83636,868.8768C318.55063,874.01953,319.8778,876.6186,322.53214,880.213C323.63815,881.70605,325.02057,884.13916,325.51828,885.57697C326.01596,887.0148,327.0666,889.0055,327.7855,890.00085C328.5597,890.9962,329.55508,892.3787,330.05273,893.09753C332.6518,896.6367,330.274,901.6135,324.79938,904.21265C322.20035,905.4292,320.9285,905.6504,316.72577,905.6504C310.97473,905.6504,305.22366,904.54443,303.06702,903.05133C302.23752,902.49835,300.24677,901.44763,298.64313,900.72876C295.60168,899.3463,289.35297,893.4847,289.35297,891.9363C289.35297,891.4939,288.6894,889.1714,287.91516,886.7935C287.141,884.4157,286.20093,881.319,285.81384,879.9365C283.10422,870.70166,280.83694,863.8999,279.84158,862.24097C279.2333,861.1903,278.07205,859.1995,277.29782,857.817C276.57898,856.4346,275.6389,854.9415,275.2518,854.49915C273.59286,852.3978,272.76337,849.4669,272.76337,845.5408C272.76337,840.23206,273.86932,836.0294,276.91077,829.83594C278.2932,827.0157,279.3992,824.25073,279.3992,823.58716C279.3992,820.0481,276.52365,811.6427,271.768,801.3019C270.7726,799.2558,269.39014,795.99316,268.61597,794.11304C267.7865,792.17755,266.7911,789.855,266.3487,788.8596C265.90634,787.91956,265.57452,786.8136,265.57452,786.3712C265.57452,785.92883,265.35333,785.37585,265.07684,785.04407C264.85568,784.7676,264.1921,783.27454,263.6391,781.78143C263.0861,780.23303,262.3672,778.2423,261.98013,777.35754C259.93408,772.65717,254.6254,758.33484,254.34894,756.89703C252.35818,746.3903,251.1416,739.64386,250.58862,736.4365C250.25684,734.2799,249.81442,726.0404,249.70386,718.1327L249.4273,703.6445L247.76837,703.3127C246.82831,703.1468,245.27997,702.9809,244.28458,702.9809C243.23392,702.9809,242.34912,702.7597,242.23853,702.4279C242.1279,702.1514,241.24316,701.81964,240.24777,701.76434C238.5888,701.5984,238.31235,701.81964,236.92987,704.36334C236.10037,705.8564,235.2709,707.2389,235.04968,707.4048C234.82849,707.626,232.45068,711.22034,229.8516,715.4231C227.19727,719.6811,224.87473,723.2755,224.59824,723.3308C224.32178,723.44135,224.10056,723.8838,224.10056,724.2709C224.10056,724.71326,223.76877,725.37683,223.38165,725.7639C223.04987,726.151,222.2204,727.42285,221.61212,728.5289C221.00385,729.6901,220.34027,730.63025,220.11905,730.63025C219.84259,730.63025,219.6767,730.96204,219.6767,731.40436C219.6767,731.79144,219.06836,732.7868,218.29422,733.61633C217.52005,734.4458,216.91174,735.49646,216.91174,735.9389C216.91174,736.3259,216.69055,736.713,216.46936,736.713C216.19287,736.713,215.5293,737.65314,214.92096,738.7591C214.36804,739.9204,213.53851,741.19226,213.15143,741.57935C212.81964,741.96643,212.48785,742.6853,212.48785,743.1277C212.48785,743.5701,212.21136,743.9019,211.93488,743.9019C211.60303,743.9019,211.3819,744.2337,211.3819,744.6761C211.3819,745.1184,211.05011,745.83734,210.66302,746.2244C210.33118,746.6115,209.6676,747.6069,209.22522,748.4917C208.78284,749.32117,208.22986,749.98474,207.95337,749.98474C207.73218,749.98474,207.51099,750.3165,207.51099,750.7589C207.51099,751.2013,207.1792,751.92017,206.79205,752.30725C206.12848,753.0261,205.5202,754.2427,203.1424,759.3855C201.42816,763.1458,200.21155,769.5604,200.87512,771.32996C201.26227,772.27,201.26227,773.4314,200.93042,774.64795C200.32214,776.80457,201.09637,787.0348,201.98108,788.6384C202.25763,789.2467,202.53412,790.13153,202.53412,790.5739C202.53412,791.01636,203.52948,792.9518,204.69073,794.7766C209.99939,803.0161,210.88422,812.3063,206.62616,815.40295C202.9212,818.1127,184.56201,814.85,183.45605,811.2556C183.23486,810.75793,182.57129,809.8179,181.85242,809.3201C180.96765,808.6013,180.24872,806.887,179.41925,803.6244C178.75568,801.0254,178.2027,798.371,178.2027,797.7074C178.2027,797.0438,177.81561,796.43555,177.26263,796.32495C176.37787,796.15906,176.26721,795.2743,176.26721,788.14075C176.26721,780.2883,175.65894,776.4175,174.1106,774.0397C173.72351,773.4314,172.72815,771.1088,171.84338,768.84155C170.29498,764.74945,170.29498,764.74945,171.2351,761.81866C171.73279,760.15967,172.39636,758.8325,172.67285,758.8325C172.94934,758.8325,173.72351,757.83716,174.38708,756.6206C175.10596,755.404,175.82483,754.40857,176.04608,754.40857C176.26721,754.40857,176.599,753.8003,176.7649,753.0261C177.04144,752.03076,177.59442,751.5331,178.75568,751.2566C179.6958,751.0907,180.41461,750.7589,180.41461,750.4824C180.41461,750.20593,180.80176,749.98474,181.29944,749.98474C182.2948,749.98474,183.73254,748.7128,183.73254,747.82806C183.73254,747.4963,183.95374,747.2198,184.23022,747.2198C184.45142,747.2198,185.22559,745.28436,185.94452,742.9618C186.66339,740.584,187.38226,738.2614,187.60345,737.81903C187.82465,737.3766,188.43292,735.6071,188.8753,733.9481C189.37299,732.2892,190.14722,729.6348,190.5896,728.1417C191.52966,725.21094,192.24854,721.893,193.13336,716.52905C194.737,707.073,198.33136,694.1331,199.32678,694.1331C199.54797,694.1331,199.76917,693.80133,199.76917,693.35895C199.76917,692.9165,200.10095,692.19763,200.54333,691.8106C200.93042,691.36816,201.4834,690.4281,201.70459,689.7092C201.92584,688.9903,202.31287,688.1609,202.58942,687.8291C204.52484,685.39594,206.95795,681.8568,206.95795,681.4697C206.95795,681.19324,207.1792,680.86145,207.40039,680.75085C207.62158,680.6402,208.39575,679.64484,209.11462,678.4836C209.7782,677.3776,210.60767,676.43756,210.88422,676.43756C211.1607,676.43756,211.3819,676.0504,211.3819,675.6081C211.3819,675.1657,212.10077,674.0597,212.98553,673.1749C214.47858,671.6818,214.58917,671.1289,215.19751,664.43774C215.5293,660.56683,216.24817,654.8711,216.69055,651.82965C217.13293,648.7882,217.68594,641.6547,217.79651,636.0143L218.1283,625.784L216.46936,622.1896C215.5293,620.2541,213.64911,615.77496,212.21136,612.29114C210.82892,608.8073,209.05933,604.6046,208.28516,603.0009C207.51099,601.45264,206.68152,599.07477,206.40503,597.74756C205.57556,594.04254,202.75531,583.9782,202.09174,582.264C201.70459,581.3792,201.42816,580.4391,201.42816,580.1626C201.42816,579.3884,199.76917,574.0245,199.21619,572.9738C198.9397,572.4761,198.55261,571.1489,198.38672,570.04297C198.16547,568.937,197.72314,567.88635,197.44666,567.72046C197.1701,567.5545,195.01349,568.05225,192.63568,568.8817C188.37762,570.37476,188.26703,570.37476,184.78326,569.5453C178.97687,568.10754,176.93079,567.88635,175.82483,568.7158C174.99536,569.3241,174.94006,569.7112,175.3825,570.9831C176.15668,572.9185,176.15668,576.51294,175.49304,577.1765C174.82947,577.8401,173.72351,583.757,173.39172,588.51276L173.17053,592.1071L185.33624,601.3973C192.24854,606.65063,197.3913,610.9639,197.28076,611.3511C197.11487,611.68286,192.52502,627.33234,187.05048,646.0233C169.63141,705.0823,171.51154,699.2205,170.23969,698.88873C169.24432,698.6123,92.48981,662.2258,92.047424,661.8387C91.88153,661.6728,112.34204,570.70654,112.56323,570.43005C112.67383,570.37476,120.30505,572.4761,129.59521,575.1857L146.40594,580.05206L146.57184,576.9553C146.6825,574.9646,147.01428,573.6927,147.56726,573.4162C148.00964,573.195,148.34143,572.36554,148.34143,571.64667C148.34143,570.92773,148.61792,570.26416,148.9497,570.15356C149.2262,570.04297,149.66864,568.8264,149.83453,567.4992C150.00043,566.11676,150.49811,564.7896,150.88513,564.5684C151.32758,564.3472,151.65936,563.68365,151.65936,563.1859C151.65936,562.6883,152.04645,561.74817,152.48883,561.1952C152.93121,560.5869,153.3183,559.5362,153.3183,558.8726C153.3183,558.20905,153.70538,556.9372,154.14783,556.1077C154.59021,555.2229,154.9773,553.95105,154.9773,553.2875C154.9773,552.6239,155.19843,551.9603,155.47498,551.79443C155.69617,551.62854,156.08325,549.859,156.19385,547.8682C156.41504,545.65625,156.85742,543.8314,157.4104,543.22314C157.90808,542.67017,158.29523,541.896,158.29523,541.45355C158.29523,541.01117,158.68225,540.18176,159.1247,539.6287C159.56708,539.02045,159.95416,537.85913,159.95416,537.085C159.95416,536.3108,160.17535,535.426,160.45184,535.09424C160.72833,534.81775,161.06012,528.9562,161.17072,522.09906C161.28131,513.85956,161.5578,509.325,161.94489,508.8274C162.33197,508.38507,162.66376,505.17767,162.82965,501.3067C162.9403,497.6571,163.32733,494.28387,163.65912,493.84143C163.9909,493.45435,164.43335,491.79547,164.65454,490.24707C164.87573,488.64343,165.20752,487.20563,165.48401,487.03973C165.7052,486.87384,166.09229,485.43604,166.31348,483.72186C166.47937,482.0628,166.86646,480.56976,167.14294,480.40393C167.3642,480.29327,167.75128,478.80017,167.91718,477.1413C168.1383,475.4823,168.69135,473.82343,169.13373,473.43622C169.57611,473.1045,169.9079,471.99854,169.9079,470.9478C169.9079,469.95245,170.12909,469.0124,170.40558,468.84644C170.68207,468.6806,171.06921,467.5746,171.29034,466.4687C171.51154,465.30737,171.84338,464.09082,172.11981,463.81433C173.05994,462.59778,177.09674,446.2846,177.09674,443.6856C177.09674,442.19257,177.31793,440.86542,177.64972,440.75476C178.64508,440.42297,180.46997,431.7964,181.52063,422.0639C182.1289,416.75525,182.62659,412.1101,182.62659,411.83356C182.62659,411.5019,181.13354,409.23456,179.25336,406.8568C174.66357,400.82922,174.60828,400.71857,175.82483,398.94904C176.37787,398.11957,177.09674,396.903,177.48383,396.18414C178.53448,394.24872,187.10577,384.01837,190.31311,380.8664C191.86145,379.3733,193.13336,377.71436,193.13336,377.2166C193.13336,376.71893,193.52039,376.00006,193.96283,375.61304C194.40521,375.22583,194.7923,374.50702,194.7923,374.00934C194.8476,372.68213,197.99957,369.86194,201.42816,368.09235C203.0871,367.26288,206.46027,365.38275,208.89343,363.94495C214.25739,360.79297,223.65817,357.6963,236.26627,354.98663C241.29846,353.8806,245.88824,352.94055,246.49652,352.82996C247.43658,352.664,247.54721,352.27698,247.38129,349.62268C247.27072,347.74255,246.8836,346.1941,246.3306,345.53052C245.61176,344.75635,245.55646,344.42462,246.05414,344.25867C246.4412,344.0927,246.77298,343.4845,246.77298,342.82086C246.77298,341.1067,247.27072,340.55365,250.36743,338.72876C252.08167,337.73346,253.51944,336.4063,254.07242,335.245C255.06778,333.2542,255.39957,329.3833,254.6254,328.27734C254.07242,327.39252,247.38129,324.4065,245.00345,323.96405C243.89749,323.79822,242.40442,323.024,241.68552,322.3604C240.46893,321.2544,240.24777,320.3697,239.91599,316.11163C239.36298,309.58643,239.36298,306.76624,239.86069,305.54956C240.08188,304.99664,240.35837,304.1671,240.46893,303.66943C240.74545,302.39758,243.23392,298.0843,244.56107,296.6466C245.16934,295.98303,245.55646,295.43,245.33524,295.43C245.11401,295.43,245.44583,294.87695,246.1094,294.15814C246.71771,293.49457,247.2154,292.6651,247.2154,292.38855C247.2154,292.05676,247.7131,291.61432,248.37668,291.2826C248.98495,291.00604,249.53793,290.56372,249.53793,290.28717C249.53793,290.06598,250.09091,289.29187,250.80981,288.6283C251.52869,287.96472,252.30286,287.02454,252.52408,286.5822C254.29361,282.8219,256.72675,279.17218,257.88806,278.5639C258.6069,278.17682,260.32117,277.34735,261.7036,276.68378C263.0861,276.0202,265.79575,274.4718,267.67587,273.25525C271.215,271.0432,271.215,271.0432,279.28857,270.4903C286.9198,269.93732,292.06262,270.04797,296.48648,270.87738C298.36664,271.26447,307.04852,276.46252,308.70746,278.23212C310.91943,280.5547,313.90555,284.6468,315.1221,286.91394C316.28342,289.07062,316.44925,290.12134,316.44925,295.31946C316.44925,298.58203,316.0622,303.11652,315.6198,305.43903C315.01157,308.75696,314.95624,310.74768,315.39862,314.56335C316.1728,321.4756,315.34335,330.32343,313.51846,334.52606C312.7443,336.29565,311.97012,338.4524,311.80417,339.2818C311.583,340.11127,310.64294,342.48907,309.70285,344.53516C308.2651,347.5766,307.9333,349.12494,307.7121,353.21704C307.6015,356.25848,307.7674,359.46576,308.2651,361.51184C309.03925,364.99573,308.54156,370.08313,307.4356,370.08313C306.66144,370.08313,309.26047,372.84808,310.64294,373.45636C312.19128,374.2306,314.01617,375.2812,314.8456,376.00006C315.28802,376.33197,317.72116,377.43787,320.32022,378.48853C324.9653,380.36865,331.54584,384.57135,332.2094,386.06445C332.37527,386.50677,332.26474,387.00452,331.93292,387.22565C331.54584,387.4469,331.54584,387.99988,331.87762,388.94C332.43057,390.2672,332.43057,390.2672,332.43057,388.99524C332.4859,387.7787,333.5919,387.17035,333.5919,388.38696C333.5919,389.21643,335.25085,390.48828,336.35678,390.54358C337.07565,390.54358,337.18628,388.66345,337.18628,377.05072C337.18628,364.99573,337.29688,363.44727,338.12634,362.5072C338.67932,361.89893,339.12173,361.18005,339.12173,360.84827C339.12173,359.9082,341.5549,358.028,343.26913,357.641C344.15393,357.41974,345.42578,357.088,346.03406,356.81146C347.3612,356.25848,351.2874,354.54425,354.05237,353.32758C358.42096,351.39215,360.63287,350.72858,365.22266,349.95435C368.43002,349.40143,371.25024,348.51666,373.79398,347.1895C375.84003,346.1388,379.15793,344.86694,381.14868,344.36932C387.78452,342.76556,389.167,342.32324,393.2038,340.33252C397.5724,338.23114,400.94562,335.35553,403.54462,331.42932C404.4294,330.10217,405.53537,328.88562,406.03308,328.71967C407.74734,328.0561,408.35562,327.0055,407.96854,325.12537C407.30493,322.24982,406.86255,321.8628,404.09763,321.58624C402.65985,321.4756,400.94562,321.08856,400.282,320.7567C398.73364,319.98254,396.0793,317.49408,396.0793,316.7752C396.0793,315.61395,393.0932,313.12555,391.65543,313.12555C390.88126,313.12555,389.9965,312.9043,389.66467,312.6278C389.38818,312.29602,387.8951,311.909,386.40207,311.7431C384.8537,311.52185,383.25003,311.02417,382.75235,310.58185C382.30997,310.13934,381.5358,309.80768,381.0381,309.80768C379.87683,309.80768,378.38376,308.0381,378.38376,306.65558C378.38376,305.2179,379.54504,301.89996,379.87683,302.287C380.4298,302.83997,388.2822,294.37927,388.6693,292.83093C388.8352,292.00153,389.38818,290.23187,389.8306,289.01532C390.49417,287.0799,390.54947,286.47162,389.94116,285.4209C387.9504,281.82654,386.40207,271.15387,387.72922,270.2691C388.00574,270.10327,388.4481,269.21844,388.61398,268.22302C389.1117,266.12177,389.2223,265.9558,394.69687,260.3706C397.4618,257.5504,400.3373,255.2832,402.38336,254.23248C404.15292,253.29242,406.86255,251.90997,408.46622,251.08044C410.01456,250.25098,411.56296,249.5874,411.89474,249.53217C412.1712,249.53217,412.9454,249.08966,413.55368,248.48138C415.32327,246.87787,429.7562,243.44928,434.78836,243.44928C437.66388,243.50464,439.15695,243.72577,439.59937,244.27875 Z M199.49268,468.5147C198.995,470.5055,198.22083,473.49152,197.83368,475.15057C195.84296,483.22412,195.34528,485.1043,194.34991,487.9245C192.63568,492.6801,191.41907,496.60638,190.09192,501.97028C188.9306,506.50482,187.65875,511.0946,186.77399,514.19135C186.5528,514.855,186.6081,515.51855,186.88458,515.6845C187.49286,516.0715,198.8844,510.43103,202.97644,507.77673C205.02252,506.44952,206.46027,504.90118,207.67688,502.7998C212.21136,494.94745,213.59381,491.02124,213.59381,485.87842C213.59381,482.00757,213.48322,481.73108,212.21136,481.1228C211.43713,480.79095,210.82892,480.29327,210.82892,480.07202C210.82892,479.85095,210.27588,478.96613,209.557,478.0813C208.00867,476.20117,206.90271,473.21515,205.29901,466.63452C204.63544,463.925,203.58478,460.55176,202.9212,459.16925L201.81519,456.62555L201.09637,460.7729C200.76453,463.0401,199.99036,466.524,199.49268,468.5147 Z"/> </g> </g> </g> </svg>