<?xml version="1.0" encoding="UTF-8" standalone="no"?>
<svg
   xmlns:dc="http://purl.org/dc/elements/1.1/"
   xmlns:cc="http://creativecommons.org/ns#"
   xmlns:rdf="http://www.w3.org/1999/02/22-rdf-syntax-ns#"
   xmlns:svg="http://www.w3.org/2000/svg"
   xmlns="http://www.w3.org/2000/svg"
   xmlns:sodipodi="http://sodipodi.sourceforge.net/DTD/sodipodi-0.dtd"
   xmlns:inkscape="http://www.inkscape.org/namespaces/inkscape"
   version="1.1"
   width="416.63629"
   height="690.31525"
   viewBox="0 0 416.63629 690.31525"
   id="svg9"
   sodipodi:docname="couple walking relaxed.svg"
   inkscape:version="0.92.4 (5da689c313, 2019-01-14)">
  <metadata
     id="metadata15">
    <rdf:RDF>
      <cc:Work
         rdf:about="">
        <dc:format>image/svg+xml</dc:format>
        <dc:type
           rdf:resource="http://purl.org/dc/dcmitype/StillImage" />
        <dc:title></dc:title>
      </cc:Work>
    </rdf:RDF>
  </metadata>
  <defs
     id="defs13" />
  <sodipodi:namedview
     pagecolor="#ffffff"
     bordercolor="#666666"
     borderopacity="1"
     objecttolerance="10"
     gridtolerance="10"
     guidetolerance="10"
     inkscape:pageopacity="0"
     inkscape:pageshadow="2"
     inkscape:window-width="933"
     inkscape:window-height="512"
     id="namedview11"
     showgrid="false"
     fit-margin-top="0"
     fit-margin-left="0"
     fit-margin-right="0"
     fit-margin-bottom="0"
     inkscape:zoom="0.48360656"
     inkscape:cx="234.25895"
     inkscape:cy="121.24364"
     inkscape:window-x="0"
     inkscape:window-y="0"
     inkscape:window-maximized="0"
     inkscape:current-layer="svg9" />
  <g
     id="layer1"
     transform="translate(-96.005207,-257.48302)">
    <g
       id="g6">
      <g
         style="fill:#000000;fill-opacity:1;stroke-linejoin:miter"
         id="g4">
        <path
           d="m 204.8006,258.08264 c 0.5841,0.36511 2.70154,0.87622 4.74597,1.16821 8.54275,1.24122 17.52362,7.30165 21.17441,14.31098 1.60632,3.13971 3.28567,10.87921 4.38086,20.59027 0.29208,2.26355 0.87619,4.59998 1.3873,5.11114 1.38729,1.31421 2.11743,10.22199 1.16827,13.72676 -0.94925,3.4317 -0.51114,4.2349 1.46029,2.99364 1.97138,-1.16827 3.28568,-1.09514 4.45392,0.29199 0.87619,1.02222 0.73014,1.38727 -1.02221,2.7746 -2.33652,1.89844 -2.48251,2.6286 -0.58411,2.6286 1.5333,0 2.70151,1.24127 1.89835,2.04431 -0.21906,0.29212 -1.75235,0.43824 -3.35868,0.43824 -1.8984,-0.0731 -2.77459,0.21899 -2.62854,0.7301 0.21906,0.43799 -0.21902,1.38732 -0.80316,2.11742 -0.65713,0.73017 -1.09524,2.26338 -1.02218,3.50465 0.14599,2.19055 -1.02222,2.8476 -2.55558,1.31433 -1.38726,-1.38728 -3.28567,2.40942 -2.77453,5.40308 0.43805,2.33654 0.29202,2.6286 -1.16828,2.84759 -1.53329,0.21905 -1.31424,0.58417 2.26346,3.35871 2.19049,1.75238 4.67298,4.38098 5.47617,5.84124 1.16824,2.11744 2.48248,3.0666 6.20627,4.59998 2.6285,1.02222 5.91421,2.04437 7.37451,2.33642 1.46029,0.219 4.16186,1.09522 5.98724,1.89844 1.82538,0.87622 3.72379,1.53321 4.16187,1.53321 3.94278,0 19.12994,7.30157 20.66328,9.93011 0.29204,0.58411 0.94917,1.02222 1.46028,1.09528 1.16825,0 7.08246,7.44746 9.34592,11.60943 0.9492,1.82533 2.33646,3.72376 2.99362,4.2348 0.73013,0.51111 1.31428,1.38721 1.31428,1.89838 0,0.51111 0.58413,1.75238 1.3873,2.7016 0.73012,0.94922 1.53328,2.92059 1.82534,4.38085 0.21906,1.46028 1.09524,3.94282 1.8984,5.54914 0.80316,1.67946 1.75236,4.59998 2.19046,6.49842 0.43808,1.97137 2.11744,6.20629 3.72376,9.41894 1.60632,3.21265 3.86981,8.46973 5.03802,11.68237 1.09525,3.21271 2.62854,7.15553 3.28572,8.68879 1.02218,2.48254 1.0952,3.72381 0.36504,10.51422 -0.43811,4.23486 -1.09518,8.32367 -1.53329,8.98077 -0.94922,1.89845 -0.87619,2.0445 1.67935,2.7016 1.38727,0.36511 2.77457,1.31433 3.21264,2.26343 0.51108,0.87622 1.24128,2.04442 1.67936,2.48254 1.46032,1.46028 0.87616,3.35871 -1.09522,3.86981 -1.67938,0.43805 -1.82538,0.73017 -1.46033,2.7746 0.29209,1.24121 1.09525,3.5777 1.89841,5.18407 1.82538,3.7237 1.82538,4.81904 0,7.08247 -1.60632,2.04437 -1.89841,0.51099 4.08884,19.12988 l 2.77457,8.61579 1.24123,-3.5047 c 0.94926,-2.70148 1.3143,-6.13324 1.3143,-13.79987 0.073,-9.49187 0.21906,-10.80621 2.26347,-16.6474 1.53329,-4.38092 2.33645,-8.17773 2.55551,-12.3396 0.36512,-7.08247 1.46032,-12.33947 3.3587,-15.99029 0.80316,-1.46028 1.3873,-3.65064 1.3873,-4.74598 0,-3.21264 4.819,-16.35534 6.71738,-18.39977 1.97144,-2.04443 5.62216,-4.01587 10.58721,-5.69513 1.89835,-0.65723 5.47611,-2.1905 7.88559,-3.35877 2.40949,-1.16821 7.00947,-2.92059 10.14908,-3.79669 l 5.76822,-1.60638 0.073,-7.15558 c 0.073,-7.0824 0.073,-7.1554 2.4825,-9.27283 1.31424,-1.16827 2.84757,-2.11749 3.4317,-2.11749 2.19044,0 0.5841,-2.70154 -2.5555,-4.38086 -1.4603,-0.80316 -1.38734,-1.38727 0.51107,-5.6952 0.94919,-2.19048 0.94919,-2.8476 -0.073,-5.91424 -0.5841,-1.97136 -1.31424,-7.0824 -1.60632,-11.46326 -0.73012,-12.04754 1.75238,-22.12365 9.34595,-38.26007 2.40948,-5.1109 3.94278,-7.15539 8.54275,-11.53619 5.91422,-5.62224 9.19988,-7.59364 15.04108,-8.90802 1.97143,-0.51092 4.673,-1.16815 5.9142,-1.5332 6.27934,-1.82532 12.4126,-0.14606 16.93956,4.74603 1.4603,1.60632 3.13962,2.62842 4.16184,2.62842 1.0222,0 2.62856,0.94928 3.7968,2.26349 1.0952,1.24127 3.21265,3.4317 4.59992,4.96508 l 2.48252,2.62854 0.94921,12.4126 c 0.51108,6.79035 1.09522,13.72682 1.3873,15.40607 0.29203,1.9715 0,3.86981 -0.73019,5.76831 -0.80316,1.89831 -1.09519,3.86974 -0.80316,5.76807 0.29208,1.97143 0.073,3.94287 -0.73014,5.84124 -0.65713,1.53339 -1.16821,3.86988 -1.24124,5.11109 0,3.57776 -1.16824,6.64434 -3.35872,8.61572 -1.0952,1.02222 -3.06663,3.06665 -4.3079,4.52704 -1.31424,1.53326 -2.7015,2.55542 -3.06662,2.26343 -0.43805,-0.21912 -0.94918,0.80315 -1.16825,2.33655 -0.29203,1.5332 -0.65713,3.65063 -0.80316,4.6729 -0.29205,1.53327 0.36508,2.77454 3.50473,6.13325 5.47614,5.98718 10.5872,8.90783 20.66327,11.68237 1.97141,0.58418 7.44753,2.33648 12.04749,3.94288 4.59997,1.6063 9.12689,2.92058 10.00308,2.99352 2.55554,0 8.68878,6.64453 9.34592,9.93012 1.38729,7.66656 2.11744,16.13636 1.89837,23.65686 -0.073,5.03808 0.14603,9.346 0.65714,10.58728 0.43811,1.24122 1.3143,6.71728 1.89843,12.26648 0.51105,5.47619 1.38727,10.73314 1.89838,11.68237 1.09522,1.9715 1.09522,21.9046 0,41.76467 -0.58414,10.87925 -0.51111,13.3618 0.36505,14.676 0.51111,0.87616 1.31427,4.16187 1.67935,7.3015 0.36509,3.21266 0.94919,6.7174 1.3873,7.81264 0.43812,1.16826 0.80316,3.65082 0.80316,5.54919 0,3.50467 4.74598,23.14567 5.91426,24.60602 0.36504,0.43811 0.5111,1.38735 0.219,2.04445 -0.43807,1.16826 -1.0222,1.3873 -6.4983,2.48247 -2.92063,0.58416 -2.92063,0.58416 -3.1397,4.30793 -0.146,2.1174 0.2921,6.2063 0.8762,9.1269 1.4603,7.59355 1.02222,16.6474 -0.9492,19.349 -1.31425,1.75236 -1.60634,3.4317 -1.9714,10.8062 -0.36507,9.565 -1.31426,13.79986 -3.3587,16.1363 -1.46032,1.6064 -1.75237,3.57774 -0.58413,4.3079 0.80316,0.5111 1.02223,8.25074 0.29208,10.1491 -0.29208,0.6572 -1.31427,1.1682 -2.40951,1.1682 -3.13962,0 -6.13327,3.79684 -6.06027,7.73965 0.0731,2.62855 -0.29207,3.57775 -2.11744,5.40315 -1.75233,1.7523 -2.19043,2.62853 -1.82533,4.0888 0.65712,2.62854 -0.9492,3.7968 -5.40312,4.08886 l -3.86981,0.21904 -1.38727,5.47615 c -0.73016,2.99365 -1.75238,8.39675 -2.3365,12.04749 -0.58412,3.57776 -1.75237,10.51416 -2.55553,15.33319 -5.91424,35.63137 -5.84122,34.82813 -3.72375,53.66602 0.80316,7.00952 1.46026,15.04115 1.46026,17.88875 0,6.7173 -1.89834,22.4886 -3.21264,26.6505 -0.51108,1.8253 -1.60634,5.40307 -2.26349,8.0316 -0.73011,2.6286 -2.55548,8.25074 -4.08885,12.55866 -1.6063,4.38084 -2.84755,8.39674 -2.84755,9.05384 0,0.65716 -0.43811,2.0444 -1.02222,3.06665 -1.09525,2.04445 -7.73959,21.10132 -9.05389,26.06635 -1.60634,5.69524 -2.33646,10.7332 -2.33646,15.3332 0,2.99364 -0.58411,6.0602 -1.53333,8.68876 -1.53329,4.01587 -1.53329,4.16184 -0.29205,7.00944 0.73013,1.60635 1.67932,2.9207 2.04443,2.9207 0.43811,0 1.75235,0.8761 2.8476,1.9713 2.40947,2.26354 2.62854,5.1111 0.73013,8.46984 -0.65716,1.31421 -1.31426,2.40943 -1.31426,2.55542 -0.073,0.14604 -2.62858,0.87624 -5.6952,1.75238 -3.06665,0.80322 -5.5491,1.75236 -5.5491,2.04446 0,0.3651 -0.51114,1.16825 -1.16827,1.75236 -0.87616,0.87624 -2.62853,1.16821 -7.22849,1.16821 -5.98724,0 -6.20627,-0.073 -7.15546,-1.97137 -0.58416,-1.1683 -0.87618,-2.4095 -0.73018,-2.9206 0.14602,-0.4381 -0.5111,-1.3873 -1.5333,-2.04443 -0.94922,-0.65711 -2.26346,-2.48257 -2.9206,-4.08887 -1.75238,-4.45386 -1.46033,-7.9586 0.9492,-11.6824 2.92058,-4.45395 4.96502,-10.87925 5.54912,-17.81565 0.29208,-3.21265 1.3143,-7.81262 2.26346,-10.22215 3.35874,-8.7618 3.57776,-11.4634 3.35874,-39.06306 -0.14606,-21.90448 0.073,-28.69489 1.46028,-44.17414 2.04445,-23.14575 2.04445,-24.6061 -0.14605,-38.844 l -1.75235,-11.8285 1.24128,-12.9966 c 0.73012,-7.1555 1.75232,-16.42843 2.33645,-20.6633 0.58411,-4.23486 1.31427,-9.56494 1.53333,-11.9014 l 0.43811,-4.16195 h -6.93643 c -7.59357,0 -8.90787,0.58415 -9.71104,4.23485 -0.21905,1.09535 -0.65713,3.2857 -1.09524,4.89204 -1.82538,7.95866 -2.33646,14.89516 -2.48251,35.41236 -0.14603,20.22515 -0.29202,22.7807 -1.75235,28.1108 -3.72376,13.7269 -3.9428,15.6982 -4.08884,29.93613 -0.073,10.14911 -0.43808,15.11414 -1.3143,18.61887 -2.84756,11.3174 -3.43166,15.11416 -3.43166,22.8538 0,4.5269 -0.3651,9.49193 -0.73014,11.09826 -0.58414,2.48248 -0.43811,3.43164 1.09518,6.35229 1.02222,1.89835 1.82538,4.16185 1.82538,5.03809 0,0.87616 1.53333,4.01576 3.3587,6.9364 3.21265,5.18402 3.35871,5.69516 3.35871,10.58716 -0.073,5.0381 -1.75238,11.09826 -4.16187,14.749 -0.80316,1.31435 -1.09524,5.0381 -1.3143,16.93953 -0.21899,14.01892 -0.36506,15.62527 -1.82536,18.39987 -0.87615,1.6793 -1.6063,3.7237 -1.6063,4.59995 0,2.19045 -2.2635,3.79675 -8.98087,6.06018 -8.98083,3.06667 -10.95223,3.50477 -14.67603,2.77457 -4.74597,-0.87613 -6.7904,-2.48246 -8.98083,-7.2284 -1.67937,-3.5778 -1.89841,-4.9651 -1.75239,-10.2952 0.146,-5.038 0.51112,-6.8634 2.19042,-10.22216 1.1683,-2.26344 2.48253,-5.40308 2.99367,-7.0094 0.51107,-1.60634 1.38726,-3.57774 1.8984,-4.38084 2.33646,-3.6508 8.46973,-19.349 8.83478,-22.7078 0.36511,-3.2126 0.073,-4.45384 -1.67932,-8.0316 -1.75238,-3.57776 -2.19046,-5.6222 -2.62857,-11.9745 -0.21899,-4.23485 -1.02222,-9.4919 -1.60632,-11.6824 -0.65711,-2.1904 -1.67934,-5.98726 -2.19044,-8.3967 -0.58413,-2.40953 -2.19045,-8.9808 -3.57772,-14.603 -4.01584,-16.13637 -4.52695,-20.0061 -4.52695,-34.68227 0,-10.36803 0.29205,-14.74903 1.31427,-18.76483 0.65714,-2.9206 1.24124,-6.8634 1.24124,-8.7618 0,-6.3523 -2.99359,-26.5775 -8.17767,-55.3454 -1.24127,-6.6444 -1.89841,-8.9809 -2.99362,-9.78403 -0.80315,-0.58411 -1.97145,-1.60633 -2.62851,-2.40947 -0.58417,-0.7302 -1.53336,-1.31435 -2.04444,-1.31435 -0.51113,0 -1.0222,-0.43805 -1.0222,-0.94915 -0.073,-0.4381 -0.2921,-1.6793 -0.4381,-2.70155 -0.21905,-1.02221 -0.4381,-7.4475 -0.58413,-14.23791 l -0.21902,-12.4126 -2.11747,-0.21904 c -3.79681,-0.36506 -4.08883,-1.8254 -2.48251,-13.8729 0.80316,-5.9142 1.82538,-13.5078 2.26346,-16.9395 0.43811,-3.4317 1.4603,-10.51415 2.26347,-15.6982 0.80315,-5.2571 1.75234,-12.0475 2.11745,-15.18717 0.36508,-3.06659 1.16825,-7.52053 1.75235,-9.85699 0.5841,-2.26349 1.24124,-5.47614 1.4603,-7.08244 0.29205,-1.6064 1.09524,-5.40316 1.8984,-8.39675 0.80316,-2.99365 1.67932,-10.07611 2.04444,-15.6983 0.51106,-7.59365 1.31424,-12.4126 2.99359,-18.54575 2.70157,-9.85714 2.70157,-11.17135 0.80317,-18.1808 -0.80317,-2.8476 -1.4603,-5.91426 -1.4603,-6.64436 0,-0.80314 -0.3651,-2.33649 -0.80317,-3.50484 l -0.80316,-2.0443 -1.75235,4.0158 c -1.3143,2.77455 -2.04442,6.2794 -2.55554,11.6824 -1.02222,11.6094 -1.67935,14.38396 -5.25708,21.9046 -1.82538,3.79674 -3.50473,7.73955 -3.79682,8.7618 -0.29202,1.0222 -1.46028,3.43167 -2.7015,5.33005 -4.08884,6.8634 -5.25711,11.09835 -5.25711,19.8601 0,8.54279 1.02218,14.23792 3.28567,18.7649 1.16821,2.26345 1.82538,2.77455 3.57776,2.77455 1.89835,0 2.19043,0.29203 2.19043,1.9714 0,1.02223 -0.51108,2.4825 -1.09525,3.13967 -1.09518,1.16823 -2.55551,7.00939 -2.92056,11.39033 -0.36512,4.01585 -8.39672,13.28874 -13.72684,15.7713 -1.46028,0.7301 -2.70158,1.6063 -2.70158,2.0444 0,1.3873 -2.04442,0.7301 -2.40947,-0.7302 -0.43811,-1.7523 0.14603,-4.38086 1.02222,-4.38086 0.36505,0 0.6571,-0.43814 0.6571,-1.02224 0,-0.5841 0.65715,-1.5333 1.4603,-2.1174 1.3143,-0.94923 3.65075,-4.5999 3.65075,-5.8412 0,-1.5333 -1.75234,0 -4.89202,4.23486 -1.89835,2.55549 -3.94278,4.74598 -4.45388,4.74598 -0.5111,0 -1.09526,0.5111 -1.31425,1.09521 -0.65717,1.67935 -3.72379,1.38735 -4.1619,-0.43805 -0.43808,-1.6064 1.82538,-6.57135 4.01581,-9.0539 1.67938,-1.7524 1.3143,-2.8476 -1.02219,-3.13964 -1.09521,-0.14606 -2.19047,-0.94922 -2.62854,-2.04446 -0.51107,-0.94913 -1.16823,-1.7523 -1.53329,-1.7523 -0.36511,0 -1.24127,-1.6064 -1.89841,-3.5778 -0.65713,-1.9714 -1.82538,-4.1618 -2.55553,-4.819 -1.75236,-1.5333 -3.06666,-6.1332 -2.8476,-9.4189 0.14605,-1.24124 -0.21906,-4.1619 -0.80317,-6.4984 -0.80316,-3.4317 -0.80316,-4.74595 -0.14603,-6.5713 0.5111,-1.3143 1.24128,-7.30154 1.67936,-13.2887 0.51111,-7.0095 1.09521,-11.3174 1.75234,-12.04763 0.58412,-0.65697 0.80317,-2.04432 0.58412,-3.50467 -0.21902,-1.3143 0,-4.3809 0.51113,-6.7173 0.94919,-4.52706 0.43812,-6.7905 -4.45391,-20.0792 -0.73017,-2.0445 -3.79679,-10.7332 -6.79041,-19.349 -2.92059,-8.61576 -5.69516,-16.57438 -6.13327,-17.5966 -0.43808,-1.02228 -0.94922,-3.7968 -1.24124,-6.2063 -0.65714,-5.33014 -1.3143,-6.1333 -4.746,-6.1333 -3.5777,0 -4.52692,-1.31427 -4.96502,-6.4253 -0.29203,-4.45397 -1.8254,-9.34588 -3.9428,-12.92364 -0.73015,-1.24126 -1.3143,-2.7016 -1.3143,-3.3587 0,-1.60632 -3.35866,-9.12689 -4.30788,-9.784 -0.51108,-0.29211 -0.80316,0.87616 -0.80316,3.28559 0,2.04449 -0.51108,4.89209 -1.09526,6.27935 -0.73012,1.75238 -0.94915,3.86975 -0.65706,6.7173 0.29202,2.77465 0.14599,5.03814 -0.58417,6.71746 -1.24121,3.13971 -1.09521,26.57751 0.14606,35.04718 0.51107,2.99366 0.80317,6.7174 0.80317,8.25079 -0.073,1.75232 0.51107,3.86977 1.75234,5.84113 1.02222,1.75244 1.82538,3.79684 1.82538,4.45404 0,0.7301 0.65713,2.2634 1.53332,3.43164 1.31424,1.89846 1.4603,2.99366 1.31424,10.3681 -0.14598,4.45396 0,9.93006 0.36512,12.12056 0.51107,3.5047 0.36508,4.38084 -1.4603,8.03166 -1.09525,2.26344 -2.4095,4.59994 -2.92063,5.18408 -0.65713,0.87616 -0.36505,2.77456 1.60633,9.41896 1.38726,4.52685 2.70157,10.44115 2.92062,13.1426 0.21906,2.62857 1.24124,7.08255 2.26346,9.93014 5.69516,16.35536 5.54916,15.55216 5.03802,23.21876 -0.21905,3.9428 -0.94918,8.90783 -1.60632,11.0983 -1.16821,3.5778 -1.16821,5.4761 -0.36505,22.4157 1.16821,24.0219 1.89841,33.1488 2.92059,36.72653 0.51111,1.67932 1.02222,10.14907 1.16825,19.56797 0.21905,12.4126 0.51107,16.93954 1.24123,17.81576 0.6571,0.80314 0.9492,3.35864 0.9492,7.81264 0,5.6952 -0.2921,7.08244 -1.75235,9.711 -1.02219,1.75236 -2.04441,3.13957 -2.40949,3.13957 -0.29208,0 -0.58414,0.51113 -0.58414,1.09528 0,0.5841 -0.36508,1.09521 -0.73012,1.09521 -0.43812,0 -0.73014,0.65714 -0.73014,1.46034 0,0.87615 -0.43811,2.2634 -1.02222,3.13964 -0.51114,0.87616 -1.16827,3.28566 -1.38734,5.33006 -0.21904,2.04445 -1.09517,6.64436 -1.97136,10.2221 -1.46034,5.84127 -2.40949,7.8127 -11.0983,21.8315 -5.25708,8.39673 -9.85706,15.40625 -10.22211,15.55225 -0.29205,0.14599 -0.58413,0.73015 -0.58413,1.24121 0,0.58414 -0.43808,1.46034 -0.94916,1.97144 -0.51114,0.5111 -2.19049,3.50476 -3.79682,6.64434 -1.53329,3.06671 -3.13962,5.62226 -3.4317,5.62226 -0.29208,0 -0.5841,0.51104 -0.5841,1.0952 0,0.5841 -0.29209,1.09517 -0.65717,1.09517 -0.36505,0 -0.87619,0.80313 -1.09525,1.82537 -0.29202,1.02222 -0.80316,1.82536 -1.1682,1.82536 -0.43812,0 -0.73014,0.4381 -0.73014,1.0223 0,0.5841 -0.36511,1.1682 -0.73016,1.3142 -0.43811,0.146 -1.16825,2.40955 -1.60636,4.96504 -0.87619,5.25716 -0.80316,5.54913 7.30152,29.20596 4.45394,12.85074 5.54913,20.73636 5.11105,35.7775 -0.29205,11.75537 -0.87616,13.5078 -5.54911,18.4728 -3.28567,3.3587 -7.95867,4.892 -15.26019,4.892 -7.59356,0 -10.51419,-1.38727 -14.01886,-6.64435 -1.60638,-2.33655 -2.99362,-4.67295 -3.13967,-5.11105 -0.36506,-1.02225 -3.06659,-0.29214 -4.59998,1.24124 -0.5841,0.65716 -1.09515,2.40946 -1.09515,3.94281 0,4.96495 -0.73023,5.25708 -14.67609,4.96495 -14.09192,-0.219 -14.82202,-0.511 -18.03467,-6.7173 -2.77459,-5.33017 -2.6286,-10.0031 0.36505,-14.67605 1.31427,-2.04435 3.35865,-4.67292 4.52692,-5.91425 2.19049,-2.1904 2.19049,-2.3364 1.53332,-6.5713 -0.36505,-2.33654 -0.5841,-5.9873 -0.5841,-7.95867 0,-3.79683 -3.21265,-15.11407 -12.63159,-44.53918 -5.76819,-17.96175 -6.93647,-21.68549 -8.25074,-27.01555 -0.5841,-2.40956 -1.75232,-6.7174 -2.55554,-9.49196 -2.77453,-9.56504 -3.86981,-17.8158 -3.94281,-29.57114 -0.073,-7.1555 0.29205,-12.4856 0.87616,-14.53 1.02222,-3.57775 0.51111,-4.4539 -2.70154,-4.4539 -0.87616,0 -1.60632,-0.3651 -1.60632,-0.73024 0,-0.43806 -1.02222,-0.7301 -2.19043,-0.7301 -1.24127,0 -2.19049,-0.29206 -2.19049,-0.65716 0,-0.36506 -0.80316,-0.87617 -1.82538,-1.0952 -2.19043,-0.5841 -1.97143,1.5333 -2.19043,-29.279 -0.14606,-27.4537 -1.60632,-64.10725 -3.06665,-75.2056 -0.58411,-4.819 -1.46027,-11.90147 -1.89838,-15.6982 -0.5111,-3.79683 -1.09521,-7.30153 -1.31427,-7.6666 -0.29205,-0.4381 -1.09521,-3.1397 -1.75237,-6.0602 -1.16828,-4.673 -1.24122,-6.1333 -0.43806,-11.68246 1.24122,-8.98084 1.89838,-12.12048 3.72376,-18.76489 3.5777,-12.92365 4.30792,-16.6474 4.30792,-22.8537 -0.0731,-3.50475 -0.0731,-7.88565 -0.0731,-9.71095 0,-3.94286 3.57776,-17.1586 5.18409,-19.27605 1.09521,-1.31421 3.72375,-9.49195 3.72375,-11.46335 0,-1.02225 -0.5841,-2.9207 -1.31427,-4.3079 -1.67938,-3.2857 -1.46033,-14.89513 0.29205,-18.39977 1.60632,-2.99366 2.19049,-11.17133 1.16828,-15.2602 -0.43811,-1.75238 -0.94922,-4.16186 -1.16828,-5.40307 -0.21899,-1.24121 -0.94922,-3.35871 -1.53332,-4.74603 -1.16821,-2.48249 -1.16821,-2.48249 -0.7301,-0.29213 1.38726,6.49842 1.3142,6.71748 -0.58417,7.2286 -2.48249,0.58403 -3.06665,2.77452 -1.60633,5.62212 0.73017,1.38733 1.02222,3.06665 0.80317,4.23492 -0.29206,1.02216 -0.65711,2.7016 -0.80317,3.65076 -0.14599,0.9491 -0.5841,1.97137 -0.94916,2.19037 -1.31432,0.80323 -2.92065,6.2063 -5.25707,17.59663 -1.31433,6.2063 -2.92066,13.14275 -3.65082,15.3332 -0.73011,2.19047 -1.97138,6.27934 -2.8476,9.12693 -0.87616,2.77454 -2.55548,7.59363 -3.72375,10.58717 -3.79675,9.784 -8.61572,25.84734 -10.22211,34.31707 -1.53332,7.88563 -1.53332,8.32373 -0.29205,10.58723 0.87622,1.6793 1.09528,3.28563 0.80316,5.8412 -0.29205,2.92057 -0.073,4.0158 1.31433,6.1332 2.55548,3.9429 4.01581,10.9523 4.01581,19.276 0.073,4.0889 0.51105,9.56496 1.09521,12.1935 1.46027,6.71746 1.38727,8.54284 -0.43811,9.565 -1.24121,0.6571 -1.89837,0.5111 -3.5047,-0.5841 -2.19042,-1.60633 -5.11108,-9.2729 -5.18408,-13.5808 0,-3.13967 -0.87622,-3.4317 -3.21264,-0.8762 -1.16828,1.24123 -1.82538,3.1397 -2.19043,5.9142 -0.51117,4.527 -0.14606,5.6952 1.75231,5.1841 1.38727,-0.36506 3.65076,1.75237 3.65076,3.4317 0,1.38726 2.55554,4.08886 3.86981,4.08886 0.87616,0 1.09522,0.87614 0.94922,4.89194 -0.14605,2.7746 -0.29211,5.40316 -0.36511,5.8413 -0.14606,1.38724 -4.96503,1.24124 -5.47614,-0.1461 -0.21905,-0.5841 -0.73016,-1.0952 -1.09527,-1.0952 -0.43805,0 -1.53327,-0.73016 -2.55548,-1.6793 -2.8476,-2.55556 -3.72376,-3.21267 -5.33008,-3.72384 -0.87622,-0.29196 -1.75238,-0.94916 -1.97143,-1.53326 -0.219,-0.5841 -0.80317,-1.0953 -1.31427,-1.0953 -1.02222,0 -4.23487,-6.3523 -4.23487,-8.32365 0,-0.65715 -0.36505,-1.16825 -0.73016,-1.16825 -0.43811,0 -0.730165,-1.4603 -0.730165,-3.2857 0,-1.75235 -0.657105,-4.965 -1.533325,-7.0825 -1.606324,-4.0888 -1.606324,-5.6951 0,-19.2029 0.58417,-4.673 0.51117,-5.1841 -0.87616,-6.2793 -1.31427,-1.09524 -1.46027,-1.7524 -1.022156,-7.5936 0.365051,-5.038 0.803162,-6.7904 1.971376,-8.0316 0.80316,-0.8762 1.460265,-1.97144 1.460265,-2.40955 0,-0.51111 0.219055,-0.87615 0.584165,-0.87615 1.38727,0 3.6507,-20.3712 3.72376,-34.1711 0.073,-3.6507 0.36505,-6.7174 0.65716,-6.7174 0.58411,0 1.46027,-6.35223 3.21265,-22.6346 0.51105,-4.59996 1.09521,-8.54277 1.31427,-8.7618 0.6571,-0.5111 4.38086,-14.8221 4.38086,-16.72048 0,-0.80316 -0.58411,-2.62848 -1.24121,-4.08887 -1.09522,-2.33655 -1.16828,-3.3587 -0.21906,-11.53638 0.51111,-4.89203 1.02222,-9.78399 1.16828,-10.80621 0.0729,-1.02222 0.94915,-2.7016 1.97137,-3.72376 2.99359,-2.99365 3.35864,-7.66656 1.24127,-18.8379 -0.51117,-2.84758 -0.65716,-6.4984 -0.36511,-9.12688 0.29205,-2.40948 0.94922,-10.66022 1.46027,-18.25372 1.09527,-15.4793 3.50476,-26.86963 7.59356,-35.26642 1.24128,-2.48248 2.26349,-4.81898 2.26349,-5.11102 0,-0.36506 0.80316,-1.38721 1.82538,-2.33643 0.94922,-0.87623 1.60638,-1.9715 1.38733,-2.26343 -0.58417,-0.94934 4.23486,-5.4032 7.44751,-6.93652 1.53332,-0.7301 4.67298,-2.48242 6.86346,-3.94275 2.19043,-1.38733 5.33008,-3.21277 6.93641,-3.94287 1.60632,-0.6571 4.38085,-2.19043 6.20629,-3.35876 1.82538,-1.1681 5.98719,-3.50458 9.27289,-5.25696 5.62219,-2.99364 12.85065,-8.2508 16.79346,-12.26654 1.67938,-1.67945 1.67938,-1.82538 0.43811,-2.92072 -1.67938,-1.38721 -7.95868,-13.9458 -8.90784,-17.88855 -0.43811,-1.60633 -1.09521,-4.23493 -1.46032,-5.84125 -0.43805,-1.60632 -1.31428,-5.47613 -1.97144,-8.61584 -1.46027,-6.79041 -2.40949,-7.81262 -5.11102,-5.69519 -1.09522,0.87622 -2.9206,1.53339 -4.01581,1.53339 -1.75238,0 -2.11743,-0.29212 -2.11743,-1.82532 0,-3.06677 1.82532,-6.35236 5.40307,-9.93006 l 3.35871,-3.35876 v -6.35236 c 0,-9.19989 1.75238,-12.41254 9.85705,-18.47284 6.71735,-4.96496 12.41254,-8.0316 16.6474,-8.9807 2.26349,-0.51112 4.52698,-1.38734 4.96509,-1.97144 0.94916,-1.09534 1.97137,-1.16834 3.5777,-0.29212 z M 104.18585,602.5678 c 0.7301,0.146 2.04444,0.146 2.92053,0 0.94928,-0.14605 0.36512,-0.2921 -1.24121,-0.2921 -1.60632,-0.0729 -2.33648,0.073 -1.67932,0.2921 z m 98.78937,86.0848 c 0.73016,2.9936 1.38727,5.40306 1.60632,5.40306 0.51111,0 -0.36505,-8.83476 -1.46032,-14.23791 l -0.87616,-4.38095 -0.219,3.86984 c -0.14606,2.11746 0.29199,6.3523 0.94916,9.34596 z m 2.55554,71.2627 c -0.073,2.3365 -1.67932,4.2349 -3.57776,4.2349 -0.80316,0 -1.53326,0.292 -1.53326,0.7301 0,0.36506 -1.09528,0.7302 -2.40954,0.7302 -1.24128,0 -3.13966,0.219 -4.08887,0.5111 -1.60633,0.4381 -1.67933,0.5841 -1.16822,5.25706 0.73017,6.79041 2.99359,16.06334 5.54914,22.56164 2.7016,6.7174 2.77459,9.78407 1.09527,27.8918 -2.55554,27.74566 -0.94922,47.5328 4.45392,56.4406 2.33643,3.7969 4.30786,9.492 5.25702,15.11414 1.09528,6.71741 2.92065,12.55859 3.72382,12.04746 0.43811,-0.29197 0.7301,-1.3142 0.7301,-2.40946 0,-1.09527 0.51117,-4.30794 1.09527,-7.08244 0.58411,-2.84755 1.09522,-8.5428 1.16822,-12.7046 0,-6.6444 -0.29206,-8.3968 -2.19043,-13.8729 -5.91425,-16.9395 -6.2793,-22.2696 -2.1175,-27.23465 0.94928,-1.02215 2.48255,-2.92055 3.50476,-4.16185 1.02222,-1.2412 2.04444,-2.26344 2.33649,-2.26344 1.60633,0 9.34592,-9.78406 9.34592,-11.90149 0,-0.51111 0.29209,-1.24121 0.65713,-1.60633 1.3143,-1.46034 2.26349,-10.66014 2.26349,-21.75848 0,-7.66656 0.36505,-12.70466 1.09525,-15.62526 1.38727,-5.40306 4.59991,-14.2379 5.33011,-14.822 0.94915,-0.5841 3.13961,-6.64435 2.70151,-7.3746 -0.29203,-0.365 -1.24128,-0.6571 -2.19044,-0.6571 -0.87619,0 -1.82537,-0.5111 -2.11746,-1.0952 -0.29202,-0.87616 -2.19043,-1.0952 -10.66022,-1.0952 -6.35226,0 -10.2221,-0.2921 -10.2221,-0.73024 0,-0.43806 -1.82538,-0.7301 -4.01581,-0.7301 -3.65076,0 -4.01581,0.146 -4.01581,1.60634 z M 393.1795,863.4507 c 0,0.36503 0.29203,0.73015 0.73014,0.73015 0.36506,0 0.73016,-0.36512 0.73016,-0.73015 0,-0.4381 -0.3651,-0.7302 -0.73016,-0.7302 -0.43811,0 -0.73014,0.2921 -0.73014,0.7302 z m -13.14273,5.8412 c 0,0.3651 0.29209,0.7301 0.73013,0.7301 0.36512,0 0.73017,-0.365 0.73017,-0.7301 0,-0.43814 -0.36505,-0.73013 -0.73017,-0.73013 -0.43804,0 -0.73013,0.29199 -0.73013,0.73013 z"
           id="path2"
           inkscape:connector-curvature="0" />
      </g>
    </g>
  </g>
</svg>
