<?xml version="1.0" encoding="UTF-8" standalone="no"?>
<svg
   xmlns:dc="http://purl.org/dc/elements/1.1/"
   xmlns:cc="http://creativecommons.org/ns#"
   xmlns:rdf="http://www.w3.org/1999/02/22-rdf-syntax-ns#"
   xmlns:svg="http://www.w3.org/2000/svg"
   xmlns="http://www.w3.org/2000/svg"
   xmlns:sodipodi="http://sodipodi.sourceforge.net/DTD/sodipodi-0.dtd"
   xmlns:inkscape="http://www.inkscape.org/namespaces/inkscape"
   enable-background="new 0 0 1410.1473 1726.3877"
   version="1.1"
   viewBox="0 0 1306.8751 1599.9524"
   id="svg14"
   sodipodi:docname="person walking dog.svg"
   width="1306.8751"
   height="1599.9524"
   inkscape:version="0.92.4 (5da689c313, 2019-01-14)">
  <metadata
     id="metadata20">
    <rdf:RDF>
      <cc:Work
         rdf:about="">
        <dc:format>image/svg+xml</dc:format>
        <dc:type
           rdf:resource="http://purl.org/dc/dcmitype/StillImage" />
        <dc:title></dc:title>
      </cc:Work>
    </rdf:RDF>
  </metadata>
  <defs
     id="defs18" />
  <sodipodi:namedview
     pagecolor="#ffffff"
     bordercolor="#666666"
     borderopacity="1"
     objecttolerance="10"
     gridtolerance="10"
     guidetolerance="10"
     inkscape:pageopacity="0"
     inkscape:pageshadow="2"
     inkscape:window-width="933"
     inkscape:window-height="512"
     id="namedview16"
     showgrid="false"
     fit-margin-top="0"
     fit-margin-left="0"
     fit-margin-right="0"
     fit-margin-bottom="0"
     inkscape:zoom="0.13670162"
     inkscape:cx="653.4572"
     inkscape:cy="799.9582"
     inkscape:window-x="0"
     inkscape:window-y="0"
     inkscape:window-maximized="0"
     inkscape:current-layer="svg14" />
  <path
     d="m 501.38354,750.44039 c 1.479,-2.8142 3.1588,-5.5241 4.6047,-8.3543 4.1791,-8.1794 6.2816,-16.961 7.9882,-25.951 1.3936,-7.3416 2.0423,-14.381 -1.0104,-21.449 -2.1181,-4.9042 -0.8736,-10.344 -2.1177,-15.445 -1.2509,-5.1285 -2.3705,-10.276 -2.5101,-15.656 -0.0595,-2.2875 -0.1693,-5.3459 -3.2981,-6.724 -5.7482,-2.5318 -10.192,-6.9937 -15.191,-10.641 -2.1299,-1.554 -3.1128,-3.3016 -2.7352,-5.8358 0.4401,-2.9528 -0.7377,-4.8726 -3.1261,-6.7279 -3.3327,-2.5891 -6.7872,-5.3891 -8.8281,-9.0958 -4.0757,-7.4026 -10.979,-12.364 -15.72,-19.193 -3.9704,-5.7194 -10.473,-9.5243 -12.713,-16.655 -0.3422,-1.0895 -1.5302,-1.9096 -2.313,-2.8657 -1.3443,-1.642 -2.9993,-3.1302 -3.9358,-4.9807 -1.2202,-2.4113 -2.5452,-4.1728 -5.4995,-4.1581 -1.5389,0.008 -2.632,-0.7432 -3.1852,-2.3181 -2.2471,-6.3978 -6.7813,-11.265 -11.674,-15.54 -4.9157,-4.2953 -7.6921,-10.009 -11.418,-15.051 -4.075,-5.5148 -7.2389,-11.722 -10.579,-17.75 -1.1612,-2.0958 -2.5026,-3.3605 -4.9065,-3.3272 -2.6429,0.0364 -3.1074,-1.4402 -3.8967,-3.8245 -1.9647,-5.9357 -2.6594,-13.244 -11.087,-14.38 -1.3428,-0.1807 -2.4055,-0.8307 -1.3613,-2.5369 1.8675,-3.0516 0.9477,-5.8176 -1.1656,-8.2742 -3.6125,-4.1987 -5.8358,-9.1237 -7.7531,-14.23 -0.4971,-1.3236 -0.6347,-3.0302 -1.5592,-3.8987 -2.7799,-2.6116 -2.0252,-4.8187 0.0308,-7.345 4.679,-5.7492 6.3511,-12.362 6.1059,-19.774 -0.2681,-8.1072 -0.452,-16.217 -1.0062,-24.309 -0.7787,-11.375 0.9157,-22.685 0.7733,-34.033 -0.3409,-27.182 -0.1694,-54.366 -0.4429,-81.55 -0.1473,-14.656 0.8101,-29.341 0.5533,-44.027 -0.1065,-6.0916 -1.7133,-11.783 -3.4105,-17.597 -1.1427,-3.9146 -4.6074,-7.7689 -1.977,-12.485 0.575,-1.031 -0.3536,-2.4027 -1.0952,-3.4201 -3.5683,-4.8954 -0.1136,-11.956 -5.0593,-16.442 -0.1329,-0.1207 0.1152,-0.6633 0.1885,-1.0085 0.8442,-3.9771 -1.3768,-6.6847 -3.9081,-9.2021 -1.7956,-1.7855 -2.3688,-5.9064 -0.3502,-7.1237 3.3886,-2.0436 4.6921,-5.1894 5.8578,-8.5422 0.6871,-1.9762 1.5961,-2.0239 3.5855,-1.5203 9.8851,2.5022 13.474,-0.5374 12.804,-10.629 -0.1135,-1.7106 0.1631,-2.7499 1.9775,-3.0381 4.0983,-0.6512 6.8899,-3.2787 9.6019,-6.1626 2.5194,-2.679 4.9138,-5.5054 8.9409,-6.3015 1.5892,-0.3141 3.0525,-1.7723 4.3544,-2.9512 7.9634,-7.2113 8.6589,-17.395 10.882,-26.948 0.0386,-0.1656 0.0601,-0.4346 -0.033,-0.5173 -3.4007,-3.02 -1.2035,-6.8925 -1.4462,-10.336 -0.3629,-5.146 -0.6487,-10.222 -2.4718,-15.144 -0.5771,-1.5579 -1.7887,-3.4149 -0.801,-5.0976 3.081,-5.249401 1.2548,-10.578001 -0.2978,-15.440001 -3.2803,-10.272 -8.1044,-19.984 -13.129,-29.515 -5.1284,-9.7288 -11.495,-18.551 -19.838,-25.988 -2.9597,-2.6383 -6.0034,-4.9923 -9.4108,-6.6904 -8.3304,-4.1514 -16.342,-8.7628 -23.468,-14.754 -2.9297,-2.4632 -6.2686,-3.6627 -9.741,-5.0325 -4.4661,-1.7617 -9.0388,-1.4036 -13.548,-2.0669 -12.118,-1.7825 -23.478,0.545 -34.183,6.3433 -5.9319,3.213 -11.198,7.5535 -17.052,10.793 -14.689,8.1289 -20.385,21.75 -24.08,36.899 -2.2869,9.3767 -1.7821,18.999 -2.7883,28.487 -0.5004,4.7189 -0.8923,9.5096 -0.6489,14.232 0.356,6.905601 3.202,12.795001 8.1936,17.802001 2.5197,2.5274 4.0474,5.9486 1.9464,9.6874 -2.1594,3.8423 -3.9828,7.779 -9.6848,7.733 -1.7834,-0.0146 -6.9533,-1.0873 -5.3975,4.4436 0.256,0.9098 -0.7985,1.6006 -1.6448,1.8253 -3.8175,1.0133 -4.58,4.4091 -5.2016,7.3914 -0.6064,2.9097 -4.8731,5.1274 -1.7098,8.8874 0.8269,0.9829 -0.647,1.7779 -1.5779,2.2388 -3.4621,1.7138 -7.5834,2.7108 -10.269,5.2391 -4.4261,4.167 -8.7283,-2.0497 -12.806,0.6625 -0.0115,0.008 -0.6644,-1.1864 -1.1728,-1.6487 -2.7191,-2.4725 -4.8731,-2.4952 -7.7658,-0.006 -0.9636,0.8292 -2.0139,2.0736 -3.1581,1.224 -2.3362,-1.7345 -3.4606,-0.3209 -4.7857,1.248 -1.0507,1.2441 -2.1842,1.8129 -3.1233,-0.004 -1.4368,0.9906 -2.7623,2.2742 -4.3468,2.8755 -2.6486,1.0051 -6.0172,1.6964 -5.6007,5.0837 0.3505,2.8516 -2.4239,5.5898 -0.2603,8.1439 2.3915,2.8233 0.3359,4.3345 -1.5387,5.4665 -1.9291,1.1651 -3.7348,2.59 -6.0289,3.2514 -3.8214,1.1016 -6.8296,3.4889 -9.537,6.4578 -3.3596,3.6838 -5.6661,8.2725 -9.2031,11.633 -6.6784,6.3454 -11.414,13.899 -15.731,21.854 -1.0093,1.8595 -2.0121,3.8237 -3.8303,5.0464 -3.3401,2.2462 -5.5902,5.4256 -7.6183,8.7623 -5.6949,9.3694 -11.169,18.847 -16.141,28.647 -5.416905,10.676 -6.531805,21.406 -3.6005,32.941 2.619,10.307 2.6939,20.566 -1.649105,30.712 -2.5656,5.9933 -4.436,12.31 -5.9576,18.71 -3.2726,13.764 -6.3739,27.588 -10.264,41.181 -3.8716,13.53 -5.6392,27.405 -6.9862,41.247 -1.2598,12.947 -2.1607,26.129 0.9141,39.091 1.6283,6.8646 2.6794,14.031 5.856,20.284 10.682,21.027 21.589005,41.846 32.838005,62.611 7.1425,13.186 8.7987,24.435 9.2295,38.561 0.1079,3.5361 -0.5239,7.1857 0.1471,10.592 1.0824,5.4965 0.2251,10.517 -2.3146,15.261 -1.8302,3.4186 -2.8977,7.1418 -4.8726,10.532 -1.4231,2.4431 -2.9673,6.7007 -1.8344,8.392 3.3168,4.9518 -2.1274,8.3171 -1.1495,12.514 -4.9148,9.5966 -6.5101,20.124 -7.7623,30.575 -1.5114,12.615 -2.1752,25.343 -2.8716,38.04 -0.237,4.3212 -0.6,9.9 3.2498,12.19 3.9588,2.3548 4.1741,5.5986 5.2342,8.9191 0.4341,1.3597 1.1587,2.5603 1.6912,3.8308 0.9444,2.2532 2.7038,4.1685 2.8768,6.7524 0.2865,4.2804 2.6572,8.0791 3.1533,12.223 0.6974,5.8242 1.7477,11.514 3.3935,17.134 0.4359,1.4884 0.135,3.1776 0.3155,4.7583 1.4014,12.27 2.5794,24.556 2.7201,36.917 0.0787,6.9155 -0.1776,13.847 0.207,20.744 0.7352,13.184 -1.1759,27.289 -1.9005,40.554 -0.3148,5.7632 -0.633,11.553 -1.8156,17.202 -1.3849,6.6158 -3.9641,12.972 -7.5576,18.695 -3.1981,5.094 -4.6776,10.856 -8.0836,15.639 -14.790005,20.768 -28.745005,43.246 -38.796005,66.83701 -8.9593,21.03 -15.898,43.062 -23.273,64.718 -7.7653,22.803 -14.957,46.056 -17.643,70.086 -1.9201,17.182 -2.021,34.522 -4.2211,51.677 -1.1018,8.5916 -3.1846,16.726 -5.2451,25.105 -1.093,4.4443 -1.4075,9.4211 -3.2702,13.636 -1.4684,3.3226 -3.9856,5.8177 -5.6247999,9.0981 -3.3983,6.8008 -3.9474,14.714 -5.7245,22.006 -1.2977,5.3246 -3.26849999,10.58 -3.277899994812,16.061 C -0.02636489,1292.6928 14.844035,1290.4768 21.963035,1299.5108 c 3.0222,3.8358 5.0182,8.4216 8.2203,12.108 3.9721,4.5735 9.5042,7.4415 14.896,10.202 13.242,6.7797 28.637,19.577 43.795,15.472 11.360005,-3.0762 22.463005,-7.8608 32.322005,-14.317 6.0919,-3.9894 7.3062,-11.64 7.0116,-18.65 -0.1517,-3.6093 -1.7171,-7.3641 -4.8244,-9.2063 -2.5172,-1.4923 -5.612,-1.5323 -8.4038,-2.4093 -6.787,-2.1322 -11.004,-8.9022 -13.462,-15.578 -2.709805,-7.3596 -4.236905,-16.439 -9.012805,-22.803 -0.3524,-0.4695 -0.1833,-1.3887 -0.1335,-2.0897 1.0164,-14.304 -1.0372,-28.686 0.5754,-42.968 1.5353,-13.597 11.062005,-24.784 9.924705,-38.629 -0.198,-2.4103 -0.6411,-4.9053 0.1348,-7.1958 0.8911,-2.6304 3.2013,-4.465 5.136,-6.4574 4.4168,-4.5485 5.4987,-14.606 7.3268,-20.605 2.5326,-8.3109 4.801,-16.813 4.9417,-25.557 0.1443,-8.7268 5.4133,-12.188 7.3433,-19.203 3.1549,-11.467 6.9523,-22.67 11.663,-33.63 6.8869,-16.022 15.331,-31.344 24.795,-45.982 8.9414,-13.83101 19.147,-26.56601 25.24,-42.04701 1.4298,-3.6327 2.7286,-7.4294 5.2772,-10.387 2.5486,-2.9571 7.256,-9.9861 7.2864,-10.09 5.7601,-19.789 11.681,-39.531 17.762,-59.223 2.7655,-11.297 6.5613,-22.249 8.6184,-33.708 1.0418,-5.8032 4.1007,-10.911 4.9291,-16.868 0.8162,-5.8689 3.438,-11.462 4.8333,-17.28 3.2929,-13.732 7.4818,-27.194 11.729,-40.645 0.4742,-1.5014 1.3257,-2.4313 3.0033,-2.4975 2.0905,-0.0825 2.0346,1.3883 2.2765,2.8254 2.0361,12.095 9.4176,23.668 13.195,35.58 3.9662,12.507 7.2712,25.224 9.896,38.08 3.9829,19.508 3.7732,38.91 6.691,58.452 2.4555,16.445 6.0217,32.724 10.673,48.688 l 0.4894,1.325 c 1.3814,15.787 2.7567,31.574 4.1443,47.36001 0.9794,11.143 0.5705,20.896 0.104,31.849 -0.4838,11.362 2.8377,22.551 6.3414,33.229 8.1646,24.883 9.9807,50.457 16.244,75.829 1.7898,7.2504 2.1115,14.728 3.1853,22.094 1.0787,7.3988 4.5889,13.841 4.5678,21.217 -0.0211,7.401 2.5461,14.758 1.8474,22.156 -0.5719,6.0559 -3.3243,11.272 -4.6835,17.047 -1.4792,6.2848 -0.282,12.937 0.8819,19.168 0.5661,3.0313 1.1415,6.093 2.3776,8.9181 2.9846,6.8212 6.2786,6.2385 12.714,6.2279 17.404,-0.025 34.798,-0.013 52.193,-0.052 9.1857,-0.021 18.47,0.8452 27.274,-2.9005 0.7825,-0.333 1.7596,-0.1777 2.6259,-0.3508 6.7632,-1.3499 13.659,-2.2559 20.251,-4.1953 11.844,-3.4847 22.316,-9.5718 30.834,-18.67 2.4167,-2.5814 4.4739,-5.4962 6.8368,-8.1322 6.1356,-6.8448 6.1505,-17.53 1.3513,-25.131 -1.1362,-1.7994 -2.7267,-3.5513 -4.8331,-3.8538 -4.122,-0.592 -6.6232,4.2324 -9.8398,6.8768 -2.8437,2.3376 -6.7491,3.0596 -10.414,2.7183 -3.6653,-0.3416 -7.165,-1.6432 -10.595,-2.9805 -10.396,-4.0535 -20.784,-8.6448 -29.317,-15.835 -10.089,-8.5017 -14.549,-21.112 -16.948,-33.706 -2.5307,-13.285 -5.1578,-26.774 -6.694,-40.186 -0.7902,-6.8988 -0.1585,-14.423 -1.4167,-21.19 -1.1436,-6.1508 -4.5557,-11.691 -5.276,-18.174 -1.1765,-10.589 -0.7192,-21.762 -1.3643,-32.083 -1.583,-25.327 -4.6567,-50.059 -1.6922,-75.52701 0.7232,-6.2131 1.1092,-13.809 -4.0796,-17.302 6.2882,-10.687 5.956,-24.926 -0.8238,-35.308 1.4913,-3.9504 6.1705,-38.399 6.3751,-53.002 0.0298,-2.129 -0.0806,-4.2842 0.2118,-6.3799 1.67,-11.972 0.7542,-24.049 1.5771,-36.066 0.8312,-12.134 0.5952,-24.33 0.4521,-36.506 -0.0762,-6.4824 0.3593,-12.952 0.0402,-19.459 -0.464,-9.464 -3.4261,-18.899 -0.6347,-28.444 0.0675,-0.2307 -0.3925,-0.5724 -0.4705,-0.8952 -1.7758,-7.343 -2.2359,-14.85 -2.9939,-22.336 -2.4751,-24.441 -4.977,-48.892 -7.5015,-73.332 -0.2115,-2.0487 -0.2976,-4.4408 1.25,-5.7999 0.9384,-0.8243 2.2771,-1.0501 3.2606,-1.8203 2.947,-2.3078 0.5236,-5.304 0.7202,-8.0999 0.2334,-3.3165 2.1512,-6.1271 2.0278,-9.753 -0.0399,-1.1707 0.6712,-2.1151 1.6873,-2.4844 1.0846,-0.3944 1.7233,0.6622 2.578,1.148 2.8101,1.5972 4.2425,4.3948 6.4632,6.4582 5.9006,5.4826 13.058,9.3256 18.767,15.244 3.028,3.1395 6.9625,5.7387 9.698,9.2933 2.6445,3.4362 7.4888,5.1379 8.1019,10.238 0.0663,0.5518 1.4972,1.4641 2.1,1.3303 1.9422,-0.4311 2.2181,1.1251 3.2303,1.995 2.6862,2.3087 5.1979,4.7717 7.6714,7.295 0.8284,0.8452 1.6133,2.3306 2.9686,1.9443 3.314,-0.9448 4.3911,1.74 5.8891,3.4826 2.7997,3.2564 3.3748,7.6578 5.3886,11.344 0.6768,1.2387 -0.016,1.8282 -1.1051,2.4169 -3.9625,2.1417 -4.3576,3.6823 -1.6121,7.0461 1.7017,2.0851 3.2906,4.1503 3.8708,6.8436 0.232,1.0772 0.7676,2.2469 1.8442,2.4061 1.7751,0.2625 1.0435,-1.3666 1.1976,-2.192 0.3206,-1.7178 1.8861,-1.345 2.8896,-1.8713 4.4617,-2.3397 9.7095,-1.1651 14.261,-3.1339 0.9783,-0.4231 1.7049,0.0987 2.4475,0.5629 3.0956,1.9355 6.1358,1.651 8.8754,-0.5563 3.009,-2.4244 6.447,-2.5281 10.047,-2.6463 3.223,-0.1059 4.1943,1.8366 3.9581,4.2431 -0.4636,4.7247 -0.8376,9.7258 -3.5185,13.715 -4.3587,6.4857 -4.5996,13.899 -5.9495,21.118 -0.7499,4.011 -1.2474,8.0102 -1.0317,12.084 0.0797,1.5087 -0.2137,3.3703 -1.443,3.7417 -1.725,0.5208 -1.9551,-1.6054 -2.5942,-2.7584 -3.0236,-5.4544 -5.6079,-11.201 -9.0948,-16.337 -3.8856,-5.7235 -7.9583,-11.39 -12.816,-16.394 -0.6107,-0.629 -1.3477,-1.4727 -2.2452,-0.9474 -0.8266,0.4837 -0.7313,1.6746 -0.4309,2.4088 1.636,3.9997 -0.0338,9.2604 4.6595,12.125 0.7469,0.4559 0.4106,1.6583 0.6357,2.4874 0.9481,3.4912 1.4678,7.2578 3.1917,10.337 1.4656,2.6181 3.5082,4.8588 3.8913,7.7608 1.4284,2.7823 2.7621,5.629 4.155,8.4352 1.746,1.7691 3.1608,3.7278 4.3569,5.8079 0.9944,-0.3593 2.0067,-0.6227 3.0258,-0.7927 0.2397,0.3019 0.4733,0.6083 0.7152,0.9086 3.1597,3.9242 6.2432,5.1936 10.768,7.3031 8.923,4.1602 17.73,8.5879 26.27,13.49 2.1669,1.2438 4.3118,2.525 6.4391,3.8345 -11.424,-9.9221 -23.717,-18.653 -36.422,-26.791 -1.442,-4.3946 -0.8025,-8.7873 1.3786,-12.937 z"
     id="path2"
     inkscape:connector-curvature="0" />
  <path
     d="m 1304.2835,1320.0004 c -1.1987,-0.563 -1.8712,-1.5446 -2.7335,-2.4196 -4.0753,-4.1344 -7.7946,-8.7571 -14.195,-9.5576 -1.5045,-0.1881 -2.9277,-1.22 -4.3314,-1.97 -1.4395,-0.7694 -3.0527,-1.9725 -2.9597,-3.5004 0.3055,-5.0251 -1.2625,-9.5845 -2.4274,-14.332 -0.6075,-2.4757 -1.3572,-4.2079 -3.3823,-5.5499 -3.0977,-2.0522 -6.5244,-3.7816 -8.9033,-6.6664 -4.2406,-5.1421 -10.144,-7.1722 -16.165,-8.3812 -5.5474,-1.1141 -11.02,-2.5586 -16.583,-3.5837 -1.7869,-0.3292 -3.0111,-1.524 -4.3848,-2.7285 -4.509,-3.9535 -8.8618,-8.1338 -14.304,-10.924 -6.3838,-3.2726 -11.931,-2.4238 -16.076,2.8901 -1.8771,2.4061 -2.8026,5.2745 -3.2555,8.2877 -0.2366,1.5742 -0.5792,3.1373 -0.7268,4.7191 -0.2816,3.0161 -1.9432,2.9276 -4.0464,1.8872 -1.1403,-0.5642 -2.0996,-1.4543 -2.6052,-2.5758 -1.7286,-3.8329 -5.488,-5.7456 -8.8091,-6.2179 -11.545,-1.6417 -19.028,-10.942 -27.05,-18.175 -4.2783,-3.8574 -10.193,-6.4779 -15.871,-7.1467 -6.4199,-0.7557 -8.6007,1.21 -9.0087,7.8087 -0.285,4.614 1.6685,8.6156 2.8292,12.851 3.024,11.032 9.4579,20.366 15.086,30.074 3.1918,5.5052 2.9283,5.2034 -1.8154,6.974 -6.7252,2.5101 -14.097,3.7037 -19.496,9.1327 -1.3324,1.3395 -3.0713,0.5621 -4.5479,0.077 -2.9213,-0.9594 -5.9161,-0.9647 -8.7565,-0.4125 -12.651,-9.9739 -24.785,-20.56 -36.036,-32.15 7.9237,11.759 16.766,22.901 26.515,33.193 -5.2782,-0.7369 -10.234,-3.3832 -15.847,-3.8673 -8.224,-0.7094 -16.466,0.9261 -24.533,2.3146 -11.777,2.0269 -24.856,3.2723 -34.787,-3.3754 -3.481,-2.3302 -6.7,-5.6617 -10.881,-5.9114 -2.7074,-0.1617 -5.2896,1.0364 -7.9528,1.5504 -3.9425,0.761 -8.00176,0.012 -11.94696,-0.7369 -20.934,-3.972 -41.472,-8.3149 -62.911,-6.4716 -3.7083,0.3188 -7.4739,0.8345 -11.144,0.4984 -3.7968,-0.3481 -7.0977,1.469 -10.705,1.8888 -4.418,0.514 -9.2703,0.6382 -13.442,2.3478 -7.713,3.161 -15.855,4.4321 -23.835,6.4008 -5.0547,1.2472 -10.184,2.5653 -13.75,6.3861 -2.3663,2.536 -5.1515,4.2609 -7.8993,6.0483 -2.116,1.3763 -3.7354,2.9944 -5.4745,4.7689 -3.4357,3.5054 -6.4649,7.6868 -12.573,7.6189 -2.8745,-0.032 -6.6618,0.8331 -8.1551,4.7258 -1.4498,3.7802 -10.9,0.8219 -13.866,0.6636 -2.1447,-0.1145 -4.293,-0.1627 -6.4406,-0.1459 -3.9091,0.031 -7.8167,0.2775 -11.699,0.7339 -8.1173,0.9541 -13.153,5.2477 -19.747,9.6768 -1.1211,0.7529 -1.7442,2.2642 -1.924,3.7057 -0.772,6.2002 -4.5373,10.524 -8.9968,14.384 -5.9765,5.1731 -5.8276,5.0446 -2.0726,11.768 2.2683,4.0609 5.3634,6.0938 9.9335,6.4891 5.0941,0.4409 10.232,0.8972 15.203,2.0104 2.2628,0.507 3.9981,0.4012 6.0483,-0.3827 4.0345,-1.5424 6.1774,-0.021 6.1216,4.2416 -0.0257,1.9564 -0.3027,4.0176 -1.6569,5.5135 -0.9474,1.0469 -5.188,18.189 -7.2365,16.622 2.6043,1.9932 1.822,6.0422 0.7549,9.1434 -1.0668,3.1012 -1.937,7.1035 0.5925,9.1909 1.9207,1.5852 5.0663,1.2399 6.6722,3.1433 1.6255,1.9265 0.6725,4.7994 0.4156,7.307 -0.4244,4.1396 1.3211,8.1592 3.0276,11.954 2.9474,6.5548 5.8948,13.11 8.8422,19.664 4.7233,10.504 9.6473,28.921 24.536,25.24 3.9496,-0.9761 7.3334,-0.3256 10.399,2.2184 4.2219,3.5034 8.3904,7.0714 12.624,10.56 1.3104,1.0801 1.1869,1.9747 0.7112,3.6123 -0.8572,2.9502 -2.0099,6.5216 0.6505,8.984 2.1837,2.0211 3.8365,3.906 4.3131,6.9393 0.2728,1.7367 1.7628,3.0502 3.2125,4.1216 4.5336,3.3506 8.9902,6.59 14.377,8.8241 5.9896,2.4846 10.876,6.9453 10.684,14.553 -0.0117,0.4724 0.2646,1.3149 0.5425,1.3767 8.9119,1.9846 15.197,12.602 23.633,15.765 3.352,2.3192 6.9628,4.7266 11.038,4.8217 5.5669,0.13 10.094,0.8223 15.566,0.2789 8.574,-0.8502 10.332,-2.4249 11.699,-10.72 0.6661,-4.0422 0.7898,-4.0341 4.7031,-3.3486 3.3651,0.5894 6.4693,1.8535 9.5178,3.2638 2.9658,1.3722 6.0209,1.865 9.2696,1.9309 7.0342,0.1428 13.771,-0.5574 19.444,-5.3159 1.892,-1.587 6.65636,-6.8885 1.8413,-8.4468 -0.8722,-0.2821 -1.8024,-0.3204 -2.6964,-0.5201 -1.7252,-0.3851 -3.2573,-1.3547 -4.7074,-2.3657 -5.0967,-3.5533 -8.6608,-8.6179 -13.444,-12.326 -4.1467,-3.2147 -9.1335,-6.4999 -13.586,-9.3842 -2.6938,-1.7449 -6.8895,-3.8612 -7.6937,-7.2565 -0.6349,-2.6799 1.2503,-5.7675 1.3021,-8.3187 0.063,-3.0989 1.7798,-5.1527 4.1008,-7.0229 4.8432,-3.903 8.1893,-9.0052 9.5533,-14.997 1.0267,-4.5088 3.2799,-8.1617 5.7966,-11.8 2.7117,-3.9203 6.2551,-6.2142 11.246,-5.6572 1.4088,0.1571 2.938,0.5518 4.233,0.1926 7.1005,-1.9689 12.37796,0.8406 17.65596,5.3956 4.2843,3.6973 10.158,4.8491 15.326,7.1383 7.9106,3.5048 15.68,7.1334 24.517,7.479 1.2566,0.049 2.5198,0.3395 3.4969,1.1434 3.569,2.9366 7.781,3.9897 12.246,4.4673 2.934,0.3138 4.3224,1.959 4.2223,5.0239 -0.1725,5.2864 -1.494,10.374 -1.5518,15.623 -0.023,2.1362 -0.5037,4.5415 -2.3026,5.6938 -0.6694,0.4287 -1.4821,0.651 -2.0374,1.22 -0.9846,1.0092 -0.7794,2.6305 -0.6509,4.0347 0.6312,6.9054 -2.4526,13.971 -8.0277,18.109 -4.7234,3.5061 -7.3644,7.6393 -9.901,12.495 -1.4131,2.7054 -2.4336,6.1091 -5.5834,7.4758 -2.8751,1.2473 -4.6359,2.9178 -4.8324,6.2305 -0.079,1.327 -0.8345,2.7645 -1.6613,3.8677 -2.1666,2.8907 -1.6643,5.8854 -1.0421,9.0977 0.9183,4.7402 3.6351,8.7813 4.8259,13.398 1.0691,4.1448 2.4343,5.2582 6.5481,5.3779 3.0928,0.09 5.9265,-0.7487 8.5514,-2.4647 2.2206,-1.4519 4.4524,-3.04 6.9084,-3.9484 6.6095,-2.4446 10.173,-6.9868 11.138,-13.948 0.6779,-4.89 7.282,-11.487 8.0359,-12.867 2.1885,-4.0055 3.572,-8.4189 6.6702,-11.975 2.7817,-3.1925 5.3207,-6.6735 8.0963,-9.8109 4.2765,-4.8337 17.151,-18.643 17.434,-20.457 0.8149,-5.2118 1.2803,-10.588 3.2848,-15.45 2.329,-5.6494 6.4686,-8.8573 12.208,-7.8531 4.9819,0.8716 9.4526,2.6187 14.039,4.5978 5.7112,2.4648 9.0793,6.4717 10.869,12.194 1.0828,3.4606 3.0798,6.3997 5.7417,8.8247 4.3302,3.9452 8.1846,8.2312 11.108,13.367 1.8461,3.2427 4.7583,5.1219 8.605,5.5105 2.277,0.2301 4.834,0.2251 6.7212,1.2898 5.1539,2.9076 9.9618,1.4668 14.716,-0.5396 8.0096,-3.3804 2.7776,-14.997 -1.0258,-20.147 -3.4376,-4.6547 -7.8612,-8.5106 -11.31,-13.157 -2.8391,-3.8251 -4.975,-8.1287 -7.7405,-12.007 -1.4773,-2.0718 -3.1638,-4.0667 -5.16,-5.6593 -1.3483,-1.0757 -4.1722,-1.9312 -5.0869,-3.3567 -1.0323,-1.6088 -0.2397,-3.384 -0.6393,-5.1674 -0.4584,-2.045 -1.7073,-3.7186 -2.9858,-5.3291 -1.2583,-1.5848 -2,-3.3043 -2.3777,-5.2611 -1.13,-5.8599 0.9989,-8.4224 6.8154,-7.5792 2.5947,0.3761 4.438,-1.0592 6.6809,-2.0165 3.0282,-1.2925 2.8324,-1.0554 4.1219,-3.8184 2.4772,-5.3075 4.4802,-9.7759 8.4144,-14.31 4.1698,-4.8054 8.8228,-9.3219 11.768,-14.962 2.4695,-4.729 3.6196,-10.049 4.1219,-15.361 0.2126,-2.2482 0.3328,-4.5776 1.3472,-6.595 1.9631,-3.9042 6.8373,-3.1392 9.222,-7.1118 1.2062,-2.0094 3.1475,-3.9415 5.4897,-3.6943 3.0782,0.325 5.6876,-0.7267 7.9968,-2.1421 0.646,0.561 1.3059,1.1036 1.9473,1.6707 -0.3661,-0.725 -0.722,-1.4741 -1.0762,-2.2294 1.3544,-0.9045 2.6079,-1.8942 3.7925,-2.7483 4.7476,-3.4231 8.6405,-8.7687 10.642,-14.651 1.061,-3.1183 2.412,-3.019 4.5929,-1.8279 1.2382,0.676 2.3087,1.6516 3.515,2.3945 6.718,4.1371 13.932,6.1135 21.788,4.4115 3.3367,-0.7225 6.8553,-2.1487 7.6735,-5.7253 0.5486,-2.3981 1.7084,-2.9364 3.5193,-3.6672 1.7924,-0.7234 3.4457,-1.8165 5.1075,-2.8329 3.2445,-1.9847 3.9132,-4.8812 1.8745,-8.0061 -1.1969,-1.8346 -2.8507,-3.3167 -4.8606,-4.0006 -5.9701,-2.0319 -11.061,-5.074 -14.895,-10.297 -1.915,-2.6088 -2.3009,-4.5275 0.5204,-5.7122 4.4257,-1.8588 9.1719,-2.8118 13.898,-1.2329 8.1873,2.7349 14.479,0.046 17.622,-7.7444 1.3071,-3.2397 2.0281,-6.6411 4.016,-9.7195 1.3018,-2.0144 1.6217,-5.2812 -1.665,-6.8253 z"
     id="path4"
     inkscape:connector-curvature="0" />
  <path
     d="m 469.83354,713.35039 c 0.3026,-3.6537 -2.8011,-2.6691 -5.798,-3.9062 -0.0186,-0.005 -0.2629,0.9238 -0.2121,1.7374 0.1976,3.162 4.0643,0.5249 4.8954,2.9927 0.1271,0.377 1.0263,0.2446 1.1147,-0.8239 z"
     id="path6"
     inkscape:connector-curvature="0" />
  <path
     d="m 655.76354,912.75039 c -26.746,-30.548 -50.542,-64.527 -80.088,-92.488 -12,-11.356 -25.181,-21.435 -39.247,-30.093 0.3228,0.2802 0.6556,0.5463 0.9768,0.8285 17.112,15.03 31.472,32.448 45.471,50.329 28.313,36.165 56.169,75.412 93.409,103.06 12.689,9.4208 26.434,17.318 40.886,23.646 -23.043,-15.066 -42.86,-34.097 -61.409,-55.283 z"
     id="path8"
     inkscape:connector-curvature="0" />
  <path
     d="m 1040.7835,1213.3004 c -24.28,-38.462 -53.44996,-76.207 -87.27496,-106.79 -8.5056,-7.6891 -17.461,-14.596 -26.619,-21.255 22.518,23.739 42.218,50.608 62.273,76.114 25.33496,32.222 48.48496,66.586 75.60096,97.341 2.9377,3.3319 5.9669,6.5604 9.0459,9.7323 -1.0876,-1.614 -2.1826,-3.2235 -3.2358,-4.8599 -10.548,-16.39 -19.386,-33.805 -29.791,-50.287 z"
     id="path10"
     inkscape:connector-curvature="0" />
  <path
     d="m 908.93354,1067.7004 c -32.204,-30.221 -64.756,-60.136 -107.43,-74.54401 -22.042,-7.4418 -45.158,-10.961 -67.174,-18.454 -5.8148,-1.9788 -11.538,-4.2091 -17.157,-6.6692 9.2184,6.0273 18.938,11.439 29.322,16.071 18.333,8.1782 37.733,13.432 56.311,20.97301 17.972,7.5557 34.544,17.219 50.578,28.274 17.154,11.828 34.045,24.074 51.084,36.068 7.5178,5.2917 15.013,10.492 22.381,15.849 -5.771,-6.084 -11.718,-11.973 -17.913,-17.569 z"
     id="path12"
     inkscape:connector-curvature="0" />
</svg>
