<?xml version="1.0" encoding="UTF-8"?>
<!DOCTYPE svg  PUBLIC '-//W3C//DTD SVG 1.1//EN'  'http://www.w3.org/Graphics/SVG/1.1/DTD/svg11.dtd'>
<svg enable-background="new 40.4128 -5.7445 1313.5873 1968.8771" version="1.1" viewBox="40.4128 -5.7445 1313.5873 1968.8771" xml:space="preserve" xmlns="http://www.w3.org/2000/svg">
<path d="m1307.9 287.01c-0.16-1.21-0.3101-2.41-0.4401-3.62-0.59-0.6901-1.1599-1.38-1.71-2.0601l-0.11 0.01c-1.53-2.0599-3.86-3.0699-6.15-3.99 1.11-7.5699-3.6699-16.06-11.36-17.83-7.47-1.5901-15.22 1.6-20.76 6.53 0.29-6.67-0.2999-13.34 0.24-20.01 0.4701-4.8801-2.14-9.1801-3.6699-13.62-3.76-6.76-8.12-13.21-13.21-19.05-11.7-14.03-27.63-23.87-44.41-30.71-8.4601-3.49-17.16-6.6499-26.15-8.3599-12.43-2.97-26.77-5.75-38.38 1.23-2.1547 0.4226-4.342 0.8301-6.4941 0.6208-0.9509-0.2192-1.9003-0.4399-2.8359-0.6909 0.1201 0.67 0.3601 2 0.4801 2.66-3.02 1.4501-0.89-2.16-0.61-3.58-4.16-2.51-8.7301-4.17-13.65-4-1.11 1.1-3.15 1.85-3.24 3.6099-2.88 3-3.9801 7.1702-4.3 11.21-0.11-0.88-0.3199-2.64-0.4301-3.52-1.4399 3.4601-2.96 7.13-2.08 10.96-10.04 7.33-20.73 14.69-27.03 25.74-3.85 5.75-5.5699 13.6-12.25 16.89-9.1 4.29-18.93 6.6901-28.62 9.25-2.8099 0.76-6.1799 2.29-6.8199 5.42-1.88 0.6-1.67 5.09 0.25 5.5699 0.6 3.1901 3.16 5.6201 4.59 8.48-1.89 1.6702-4.1899 2.77-6.1899 4.28-2.87 2.72-3.13 6.8801-2.64 10.56-4.42 2.9299-7.29 8.5601-5.61 13.83 0.01 1.1599 1 2.6499 0.0299 3.6099-3.45 3.8701-7.0599 8.3101-7.37 13.69-1.84 0.5699-1.8699 5.0299-0.08 5.67-0.15 3.03 1.4 5.85 3.09 8.25 4.73 6.0699 11.66 9.74 17.85 14.08 6.6 5.14 13.86 10.3 17.11 18.35-2.76 1.66-5.4501 3.42-8.0801 5.27-8.01-4.61-15.17-10.47-22.92-15.47-12.39-7.9401-24.6-16.16-36.89-24.26-6.5-4.15-11.85-9.78-18.18-14.16 0.26-3.9301 5.63-0.63 7.8199-2.91 7.8501-0.8699 14.44-7.0499 16.43-14.59 1.66-4.74 0.67-9.7899 0.35-14.65 1.5601-5.4199 7.22-9.53 5.71-15.61 2.9202-3.38 4.55-7.6901 5.0901-12.09-0.48-3.72-2.98-7.9299-0.63-11.45 3.83-2.24 9.41-1.9601 12.14-5.8701 1.61 0.3601 2.29-0.28 2.03-1.8999l0.78-0.1001c1.8599-3.4099 1.45-7.51-0.6801-10.69-4.39-7.02-7.03-14.93-11.18-22.08 5.03-7.24 7.1901-16.12 7.45-24.84 0.1001-5.8901-2.46-11.34-3.3099-17.09-0.7-4.25-1.17-8.53-2.17-12.72 0.4401-1.67 0.6201-3.39 0.6801-5.1101 0.4801 0.1802 1.4501 0.54 1.9301 0.7201-0.9301-3.12-1.28-6.61-3.39-9.2101-0.1-0.45-0.29-1.3398-0.38-1.7899-0.3301-0.4501-0.99-1.37-1.3201-1.83l1.8 1.11c-1.3101-3.89-4.55-7.14-3.98-11.52 0.52-0.0499 1.5601-0.16 2.09-0.2101-0.7799-1.3899-1.63-2.74-2.22-4.21-0.34-1.4099-0.16-3.1799-1.9601-3.6499-1.02-1.0801-2-2.1801-3.01-3.25-2.4399-6.7001-8.8298-11.42-15.23-14.12-0.96-0.75-1.98-1.4199-3.03-1.98-2.1501-3.8198-5.7302-6.6698-9.7901-8.2098-5.67-2.55-11.22-6.05-17.63-6.13l-0.44-0.4401c-3.3201-0.3599-6.65-0.6799-9.9301-1.27-1.62-1.1699-3.3099-2.24-5.09-3.1299l0.1599 0.4399c-0.3599-0.23-1.08-0.7-1.4399-0.9299l-0.79-0.29-0.6799 0.04c-0.48-0.1901-1.4301-0.5701-1.91-0.76-4.75-2.03-10.06-1.67-15.04-0.95-1.5901 0.2799-3.3901 0.3298-4.4501 1.73-2.0399 0.1499-4.1 0.3099-6.11 0.6199-2.04-0.0599-4.0701 0.01-6.0801 0.17l-0.8799-0.61c2.78-0.4399 5.5499-1.01 8.24-1.9099-6.6301-1.7301-13.86-1.77-20.17 1.1099-6.99-0.1799-14.35 0.8601-19.84 5.5601l-0.22 0.0601c-2.48 0.1299-5.1801 0.1499-7.04 2.0399-3.5 3.2201-8.49 3.77-12.11 6.78-1.8099 0.4-3.49 1.22-5.23 1.7999-5.52 2.54-10.4 6.24-14.69 10.49l-1.14-0.3199c-0.84 0.9301-1.66 1.86-2.47 2.8 0.3199 0.5599 0.9501 1.67 1.2699 2.22-8.5299 6.36-14.05 15.71-18.31 25.26l0.1801 0.42c-0.67 0.8599-1.3 1.73-1.9399 2.6l2.3398-0.2101c-2.6599 4.01-5.27 8.0601-7.5999 12.26-2.8101 3.3-2.3 7.8701-4.1101 11.62-0.6599 1.8398-1.25 3.71-1.8 5.5898 0.6201 1.6602 1.3301 3.3801 1.01 5.2001-0.6899 7.1901-3.4399 14.54-1.1599 21.72 0.26 3.21 0.3101 6.98 2.9399 9.2599 1.3501 7.08 0.64 14.43 2.3 21.47 2 5.3899 4.6699 10.77 4.3301 16.69 0.1699 1.61-0.3401 6.01 2.4099 4.1599 0.27 1.4701-0.0701 3.3201 0.98 4.53 0.3601 2.3201 1.1899 4.53 2.01 6.72-0.12 0.6702-0.1899 1.3501-0.22 2.04l1.61-1.74c2.25 4.9 2.39 10.29 2.4501 15.57 1.71-1.4 0.6699-4.74 3.1699-5.16l0.04 0.58c-2.8601 2.05-2.0801 6.1801-2.05 9.24 2.41 1.41 2.66 4.1001 2.64 6.65-3.89-0.01-7.7899-0.1901-11.66 0.24-0.4399 0.15-1.3199 0.4301-1.76 0.5699-0.85-1.24-3.98-1.0999-3.76 0.7301-3.9399-0.6901-6.74 2.49-9.78 4.36-2.8398 1.99-6.8999 3.23-7.3599 7.21-0.3501 0.6201-1.0601 1.8701-1.41 2.5-3.37 0-6.89-0.51-10.06 0.8601l-0.7101 0.21c-1.5-1.0701-5.13-1.1201-5.5699 0.96-8.52 1.0601-15.24 7.35-20.11 14.01-7 9.27-16.21 16.42-24.27 24.67-2.77 2.7001-6.96 3.7101-9.02 7.1401-2.8599 1.33-6.0999 1.0699-9.0898 1.8599-9.4301 0.55-19.24 2.3801-27.17 7.8-2.33 1.3601-3.08 4.15-4.9 5.9301-6.38 1.9399-12.68 4.2599-18.46 7.62-15.64 7.84-27.94 20.86-38.15 34.82-4.41 5.14-6.86 11.53-10.39 17.23-7.38-0.1101-14.73-2.52-21.42-5.67-27.53-15.62-54.15-32.77-80.47-50.32-19.69-13.05-40.38-24.57-59.29-38.78-15-10.59-29.36-22.02-43.88-33.24-12.3-10.52-24-21.72-35.63-32.95-2.92-3.0199-2.03-7.16-1.26-10.84l-0.73 0.75c-2.76-4.47-6.88-7.8-10.3-11.73 1.43-0.39 2.83-0.9401 4.24-1.4401-0.07-0.87-0.2-2.61-0.26-3.48 0.09-0.38 0.26-1.13 0.34-1.51-1.66-3.84-4.91-6.66-8.12-9.2001-1.09 1.04-2.17 2.1001-3.2 3.2101-1.32 0.1-1.37 2.34-1.3 3.4-2.21-2.54-4.15-5.3101-6.49-7.73-5.03-9.1101-12.3-17.27-21.24-22.71-4.65-1.75-8.58-5.2001-10-10.07l-0.78 0.37c-0.07-1.37-0.79-2.13-2.15-2.2899-0.87-0.3801-1.74-0.76-2.61-1.1301-2.14-2.4199-4.06-5.08-6.72-6.96 0.31-1.47 0.14-4.5801-1.66-4.8301-0.93-2.25-3.55-3.1799-5.58-4.23-2.87-3.83-7.21-6.8999-8.27-11.79-1.14-2.92-4.88-3.2001-6.78-5.4601-3.08-3.53-6.99-6.78-8.16-11.52-0.76-3.4399-5.13-3.74-6.35-6.8298-4.17-8.0801-8.82-16.42-16.67-21.47-4.66-2.7999-8.92-6.2799-12.51-10.37-3.55-4.1899-8.39-6.95-12.4-10.65-8.23-6.2899-17.43-12.73-28.16-13.1-5.58-0.23-10.18 3.14-15.1 5.1799-3.03 1.6201-6 4.6301-5.72 8.3201-1.81-0.2-1.96 2.91-0.71 3.72-0.82 1.6001-0.52 3.45-0.01 5.0901-1.2 1.1399-1.21 4.6 0.76 4.74 0.06 4.26 1.77 8.26 2.95 12.3 2.7 7.7401 5.29 15.56 8.7 23.04 2.58 5.84 6.72 10.83 9.29 16.66 3.18 7.1099 2.7 15.13 5.5 22.34 7.22 21.29 13.56 42.92 17.86 64.99-1.27 1.38-1.43 5.17 0.7 5.58 0.06 0.5801 0.2 1.74 0.27 2.3201-1.4 0.8101-1.12 4.01 0.77 3.76l0.2 1.29c-1.33 0.8099-1.07 3.95 0.76 3.73 0.06 3.95 1.34 7.74 2.11 11.6 1.83 7.3 3.52 14.74 6.83 21.54 1.59 2.8601 3.62 5.96 6.79 7.1801-0.27 2.23 3.69 2.97 5.04 1.5299 0.34 0.0801 1 0.2401 1.34 0.3201 2.94 1.4299 6.28 0.79 9.41 0.6799 0.39 0.03 1.16 0.1001 1.55 0.1401-0.2599 1.85 2.91 2.1199 3.7 0.74 1.41 0.49 2.86 0.6799 4.35 0.5599 0.5 1.84 4.99 1.89 5.43-0.01 2.42-0.13 4.96-0.39 7.15-1.5099 1.45 1.0499 5.08 0.3398 5.1-1.6301 5.74-1.23 11.32-3.28 16.98-4.9099 2.63 1.1899 5.88 1.8799 7.38 4.6299 1.17 2.52 4.31 2.26 6.43 3.55 3.02 1.22 4.39 4.53 7.27 5.9399 1.44 0.1602 2.79-0.5999 4.16-0.9199 31.98 28.82 56.61 64.46 85.17 96.44 7.82 9.9401 14.76 20.65 23.46 29.86 3.41 4.3699 7.42 8.33 11.75 11.78 4.76 4.3099 9.75 8.4299 14.92 12.25 7.58 4.8599 14.8 10.4 23.14 13.97 13.41 7.1 28.11 11.16 42.32 16.3 10.15 3.64 20.16 7.6801 30.03 12.03-4.95 3-9.3199 6.7999-14.13 10-8.41 5.59-16.83 11.16-25.2 16.8-14.75 10.57-28.65 22.35-44.28 31.62-16.68 10.56-34.51 19.15-51.02 29.98-16.24 10.06-33.01 19.25-49.99 27.98-15.32 6.74-30.91 13-46.96 17.78-1.46-0.89-2.92-1.87-4.65-2.1001-0.17-2.1799-4.85-3.23-5.48-0.99-5.23 1.0901-10.28 2.8901-15.52 3.9001 1.75-2.04 3.69-3.8901 5.85-5.49-0.57-1.28-1.13-2.5601-1.67-3.8301-3.4 0.1699-6.7 1.1599-9.72 2.6899-3.68 1.3-2.04 5.9401-2.33 8.8901-3.56 1.0898-7.21 1.8699-10.93 2.1499-0.39-0.0601-1.16-0.1799-1.55-0.24-5.55 1.01-11.34 1.8201-16.21 4.89-2.34 1.34-4.54 2.91-6.67 4.5599-2.99 2.3201-6.77 3.1201-10.21 4.54-0.6-0.26-1.82-0.77-2.43-1.03-1.92 0.91-3.78 1.99-5.35 3.4401-4.06 1.0499-8.11 2.13-12.11 3.39-0.48-0.4301-1.46-1.3-1.95-1.73-1.59 0.7899-3.07 1.77-4.47 2.8699-2.49 0.6101-4.96 1.29-7.37 2.1901-1.95 0.33-3.86 0.83-5.78 1.3199-0.48-0.3799-1.43-1.1299-1.91-1.51-4.53 3.9701-10.46 4.9001-16.07 6.4601-1.22-1.17-4.95-2.74-5.56-0.4l-0.61 0.24c-7 1.71-14.5-0.09-21.3 2.74-6.31 1.13-11.04 6.17-17.38 7.15-6.31 1.08-11.96 4.23-17.94 6.36-10.19 4.26-20.96 9.89-26.1 20.22-1.04 2.28-1.6801 4.75-1.35 7.28 0.5 4.54-0.22 9.48 2.22 13.58 3.17 5.21 8.69 8.3599 14.29 10.36 6.54 2.1101 13.21 4.2201 20.06 4.9001-0.18 1.7999 2.91 2.1299 3.73 0.7999l1.3 0.17c0.04 2.05 3.64 2.0099 4.77 0.76 0.73 0.09 2.18 0.28 2.91 0.3699l-0.01 0.8401c5.15 0.15 10.3 0.37 15.45 0.03l0.18 0.03c3.44 1.76 7.29 2.42 11.05 3.12 6.05 1.83 12.43 2.62 18.71 2.97 0.15 1.9 3.5 1.84 4.64 0.75l1.05 0.47 1.28-0.21c0.15 1.9 3.52 1.86 4.62 0.71l1.24 0.17c-0.2 1.85 2.9901 2.09 3.86 0.8l1.37 0.16c-0.07 2.05 3.51 2.2 4.59 0.86l1.26 0.17c-0.25 1.85 2.93 2.14 3.76 0.8 3.5 1.0099 7.11 1.55 10.68 2.25 4.47 1.62 9.17 2.5 13.86 3.2 11.61 3.56 23.08 7.72 35.09 9.85 3.78 1.4 7.79 2.01 11.81 2.11 9.24 1.59 19.72 1.84 27.55-4.14 5.28-4.09 5.65-11.35 9.3-16.57 3.8-5.94 5.71-12.94 5.87-19.96 1.32-5.99 0.9301-12.29 0.48-18.37 0.63-0.3799 1.87-1.1199 2.49-1.49 1.28 1.1801 2.25 1.0801 2.92-0.3 1.31-1.3999 2.5-2.9299 4.01-4.1199 2.34-1.5 5.22-1.92 7.48-3.5701 1.42-1.36 1.9901-3.3101 2.77-5.0601 10.74-4.5697 22.11-7.3797 33.35-10.4 4.3701-0.66 8.75-1.4299 12.87-3.0801 20.2-4.45 40.45-8.6399 60.59-13.38 1.07 1.3599 4.59 1.28 4.66-0.77l1.36-0.1901c0.8 1.33 3.97 1.05 3.7-0.7899 6.5-0.5801 12.75-2.77 19.07-4.3501 14.92-4.6299 30.17-8.85 43.78-16.73 7.03-5.0601 13.66-10.65 19.93-16.61 3.44-1.27 6.28-4.1 7.55-7.5399 2.33-2.5 4.71-4.9501 7.14-7.3501 3.58-3.54 6.1-7.98 9.58-11.61 0.89 5.7001-4.38 9.9-3.9 15.61-1.92 0.05-1.82 4.4 0.06 4.46l0.02 1.5601c-1.83-0.3-1.93 3.8401-0.08 3.49-0.3 2 0.92 3.77 1.69 5.52-5.74 11.29-11.88 22.61-14.74 35.05-1.6 3.26-0.61 7.0599-0.33 10.52l0.23-1.01c0.44 5.7999 2.09 11.48 4.89 16.58 2.19 4.2899 5.78 7.63 8.12 11.83 3.42 6.21 7.15 12.25 10.4 18.57 3.22 6.1299 8.03 11.36 13.82 15.16 5.03 3.08 10.34 6.5001 16.33 7.0601 0.85 1.91 5.46 1.89 6.34 0.01 3.95-0.3101 7.37-2.83 10.94-4.4 10.78-6.4501 21.99-14.95 25.08-27.83 3.3301-9.66 4.0801-19.87 6.24-29.8 4.3101 5.5 8.01 11.44 11.89 17.25 12.88 21.35 28.94 40.58 45.3 59.33 0.59 1.11 1.2899 2.19 1.7001 3.42 0.75 10.53-0.8501 21.07-0.6001 31.59-0.03 0.2599-0.0801 0.78-0.11 1.03-1.38 4.08-0.6801 8.42-0.41 12.62 0.29 2.77 0.15 5.71 1.47 8.27l0.1901 0.66c-1.27 1.09-1.2001 4.51 0.7799 4.64-0.0399 3.86 1.53 7.48 2.3301 11.21 2.47 11.06 7.5901 21.32 13.64 30.85 2.49 4.52 5.99 8.76 6.67 14.05 1.0599 6.29 2.5599 12.51 4.3199 18.65 0.2101 7.86-0.7999 15.87 0.89 23.62 0.1599 3.02 0.1799 6.05 0.1799 9.09-1.77-0.25-2.1199 2.74-0.8499 3.59l-0.1301 1.43c-2.03 0-2.1699 3.54-0.8099 4.63l-0.16 1.3c-1.88-0.3-2.1899 2.89-0.84 3.75-0.11 0.68-0.34 2.04-0.4501 2.72-1.4299 6.52-0.71 13.31-0.72 19.94-0.03 0.69-0.08 2.07-0.1 2.76-2.26 0.68-1.8099 4.69-0.73 6.41l-0.3199 1.55c-1.7201 1.06-2.1501 5.81-0.05 6.61 0.01 0.69 0.01 2.08 0.02 2.78-0.8701 3.47-1.17 7.05-1.1401 10.64-2.8599 5.34-4.8599 11.13-6.23 17.03 0.04 5.92-2.6799 11.28-4.58 16.76-5.1901 7.7599-7.74 16.79-11.7 25.16-2.4901 5.5901-3.64 11.62-5.52 17.42-3.88 10.78-6.1 22.08-8.14 33.34l-0.14-1.0499c-0.95 3.87-0.87 7.9299 0.0599 11.8l0.02-0.97c0.9501 4.34 5.25 7.13 5.49 11.7-0.1899 2.9401-0.0399 5.9301 0.8601 8.77 0.09 3.28-0.54 6.64 0.3199 9.87-0.9401 1.72-1.39 5.5801 0.7401 6.4-0.9901 6.96-0.9901 13.97-1.1602 20.99-0.83 2.42-0.9299 4.98-0.8398 7.53 0.1299 3.47-0.4302 7.0599 0.8198 10.4 0.0601 0.49 0.1802 1.45 0.25 1.9299-0.0698 4.65-0.5499 9.4301 0.7301 13.97 1.5599 3.4901 2.9 7.0601 4.0199 10.73 1.28 4.22 4.9102 7.1599 6.4202 11.26-0.2101 6.6699-0.6702 13.35-0.1001 20.03 0 0.23-0.02 0.6901-0.03 0.92-0.33 3.02-0.24 6.13 0.92 9.01 0.16 1.61 0.62 3.1799 1.27 4.71-1.3099 0.75-1.12 3.8101 0.67 3.6801 0.02 5.87 2.6599 11.37 4.4399 16.88-0.53 8.39-0.98 16.85 0.15 25.22l0.42-0.03-0.03 0.63c-1.97 6.0801-1.15 12.6 0.02 18.76v1.4c-0.79 1.98-0.8 4.11-0.4401 6.21 0.53 3.24-0.12 6.48-0.47 9.7101-0.42 1.33-0.91 2.6399-1.28 4-3.02 5.47-0.7101 12.06-0.59 17.96-0.4 1.65-0.99 3.29-1.3201 4.99-1.33 3.12-0.96 6.5599-0.84 9.87l0.87 0.01c0.1699 2.02 0.6799 4.02 1.3201 5.96 1.0699 4.6801 1.1099 9.63 2.83 14.13l0.1901 0.73c-1.2001 1.38-1.3201 5.16 0.8999 5.4401l0.0801 0.8199c-1.0901 10.35 0.6099 20.73-0.0601 31.1-0.03 0.2301-0.0901 0.6901-0.12 0.92-1.7899 6.15-0.78 12.59-1.37 18.88-0.2 3.3-0.96 6.76 0.35 9.96l0.24 0.79c-1.25 1.1-1.17 4.63 0.88 4.6l0.1899 1.37c-1.4099 1.01-1.26 4.5801 0.8 4.5601l0.0601 0.7c-0.3401 3.01-0.45 6.17 0.85 9l0.22 0.8201c-1.13 1.3999-1.2899 5.13 0.8199 5.5199 0.03 0.41 0.0901 1.2201 0.1201 1.63-0.16 3.42-0.23 6.8501-0.1001 10.29-0.0499 0.49-0.1699 1.4501-0.22 1.9401-0.97 2.8899-1.04 5.98-0.73 9.01l-0.01 0.1699c-0.1499 6.28-0.5 12.7 0.7 18.89 0.1101 0.36 0.3201 1.08 0.4301 1.4401-1.1901 1.11-1.23 4.5699 0.76 4.6599 0.02 0.4401 0.0599 1.3101 0.08 1.75-0.29 3.62-0.3199 7.35 0.8101 10.88 0.02 0.34 0.0701 1.02 0.09 1.37 0.1801 8.77-0.0199 17.55 0.6 26.32 0.1801 11.03 0.6101 22.12 2.54 33.01l0.05 0.49c-0.64 4.46 0.59 8.88 0.6599 13.35 0.1101 4.48-0.29 9.09 1.2001 13.42 0.0299 0.24 0.08 0.73 0.11 0.98 0.34 10.47-0.4399 20.94-1.03 31.4-0.03 0.2201-0.11 0.66-0.1499 0.88-0.8501 1.63-1.03 3.4701-0.5 5.27 0.9299 3.64 1.45 7.4701 3.24 10.84 1.7899 8.6499 5.71 16.63 8.27 25.06 0.2 4.16-0.1401 8.34 0.1299 12.52-0.11 1.02-0.0699 2.0699 0.1101 3.13 0.0399 4.5599 0.8899 9.09 0.6299 13.66-0.01 3.5-0.8899 7.23 0.8701 10.49 0.7999 2.8999 1.6799 5.7999 2.5199 8.72-1.0199 1.66-1.5199 5.6799 0.77 6.29 0.98 7.88 3.87 15.47 6.6801 22.88-0.6301 0.6799-1.23 1.3999-1.8 2.1699-1.6899 2.23-4.37 4.13-4.8 7.0701 0.54 0.1699 1.6301 0.51 2.17 0.6899-5.35 6.74-10.03 14-15.14 20.93-1.8101 2.51-4.3999 4.4199-5.99 7.11-1.79-0.73-4.03 2.0599-2.95 3.6899-5.46 4.8-9.66 11.24-11.36 18.37-1.5999 2.79-2.1799 5.99-2.5599 9.17-0.0499 0.4-0.16 1.2-0.2101 1.61-1.8699-0.23-2.0399 2.9401-0.72 3.8-0.0999 0.3999-0.3099 1.21-0.4199 1.62-1.0801 3.26-0.29 6.96-1.99 10.04-3.27 1.17-1.3601 5.4401-1.74 8.0701 1.11 0.03 2.22 0.04 3.35 0.04 5.84 0.6399 11.62-0.8401 17.45-1.03 5.3899-0.86 10.96-0.4501 16.25-1.9401 0.2699-0.0299 0.7899-0.08 1.0499-0.11 3.08 0.29 6.24 0.3101 9.1901-0.78 0.6399-0.1499 1.9299-0.4299 2.5798-0.5699 1.1001 0.85 2.5701 2.09 3.9901 2.14 0.5299 0.89-0.4801 3.45 1.22 3.38 3.08 0.24 6.2101 0.11 9.1901-0.8101 0.5-0.0399 1.51-0.12 2.01-0.1699 4.7899 0.3999 9.51-0.75 14.28-0.9401 10.69-0.95 21.38-1.76 32.1-2.34 7.51-0.9301 15.13-0.27 22.59-1.59l-0.8-0.02c6.79-0.72 13.39-3 19.63-5.7101l0.67-0.0699c-0.1001-4.58 0.05-9.23-1.0701-13.69-0.02-0.29-0.08-0.8701-0.1-1.16 0.16-4.59 0.1901-9.23-0.86-13.71 0.11-2.0699-0.4199-4.4099-2.8301-4.59-2.5599-3.84-0.8398-8.8099-1.1299-13.12 5.51-6.72 6.33-15.83 8.1099-24.04 1.1301-6.0399 2.8601-12.2 1.5601-18.36 0.3301-2.8099-0.01-5.6-0.3799-8.36-0.52-3.88-0.1401-7.89-1.5-11.6-0.03-0.24-0.0801-0.71-0.1101-0.95 0.3101-4.9301-0.48-9.8201-0.61-14.72-0.34-5.5499 0.2999-11.12-0.47-16.63 0.0299-0.36 0.1-1.0699 0.13-1.4299 2.01-0.15 2.0601-3.6901 0.78-4.8101l0.1899-1.3999c2.1799-0.39 2.11-4.2101 0.8-5.5701 1.3599-4.73 0.3699-9.63-0.96-14.21 1.3799-1.09 1.22-4.6-0.8301-4.5801l-0.2-1.38c1.23-1.1399 1.25-4.62-0.7101-4.72 0.03-0.74 0.08-2.22 0.11-2.96 1.22-5.85 1.02-11.94 0.8101-17.87 0.12-1.23 0.22-2.4401 0.29-3.63l0.02 0.92c1.71-10.94 0.51-21.99 0.0999-32.96-0.4399-7.26 0.1001-14.54-0.4399-21.78-0.4199-5.48 0.3401-10.94 0.03-16.4 0.03-0.25 0.08-0.76 0.11-1.01 1.11-2.92 1.27-6.0701 0.8099-9.12 0.0901-1.2101 0.16-2.4 0.2001-3.5701l0.7001-0.01c-0.05-8.7799 1.0698-17.48 1.74-26.21 2.22-22.99 2.6399-46.13 1.8699-69.2-0.77-5.2001 0.6201-10.58-1.1-15.63-0.0399-0.3401-0.13-1.02-0.17-1.3501 0.17-3.3199-0.01-6.6699-1.1099-9.7999-0.0701-0.4501-0.2001-1.34-0.27-1.79 1.25-1.72 1.45-5.7-0.76-6.48l-0.22-1.48c1.27-1.4301 1.3398-5.17-0.76-5.64-0.0601-0.58-0.2001-1.72-0.26-2.3 1.27-1.1399 1.28-4.6599-0.72-4.7699-0.0601-0.5701-0.1901-1.7001-0.26-2.27 1.21-1.4601 1.3398-5.1901-0.7201-5.7001-0.0599-0.61-0.1901-1.8099-0.25-2.4199 1.08-1.73 1.4301-5.7101-0.73-6.4701-0.0299-0.4299-0.09-1.2799-0.12-1.7-0.1699-6.0599 0.25-12.12 0.0601-18.16 0.02-0.2 0.0699-0.6 0.09-0.7999 1.5099-3.54 1.4-7.4701 1.85-11.21 0.04-0.23 0.12-0.6899 0.1599-0.9299 1.4202-3.3 1.1201-6.9301 1.1901-10.42 3.25-5.6699 2.6801-12.85-1-18.17-2.58-3.2201-1.45-7.7001-3.1801-11.3 0.0601-3.64-0.0499-7.26-0.0699-10.88 1.0599-2.41 2.7301-4.65 3.04-7.3199 1.4401-2.75 0.98-5.92 0.9-8.88 0.86-2.16 2.21-4.0901 3.0699-6.24 0.9601-3.1001 2.08-6.8501 0.24-9.8-0.09-0.47-0.2799-1.41-0.38-1.88 0.1001-4.04 0.0601-8.08 0.16-12.11 2.88-6.9 5.4-13.99 6.98-21.32 1.15-6.1799 1.36-12.54 0.9301-18.8 0.0599-0.67 0.1599-2.02 0.22-2.6901l0.03 0.9601c0.8899-2.9601 0.9399-6.0701 0.85-9.12 2.96-9.0801 5.8199-18.33 6.96-27.82 1.83 0.24 2.08-2.9299 0.76-3.71l0.13-1.39c2.12-0.34 2.0801-4.16 0.88-5.54l0.24-1.45c2.1801-0.8 1.8099-4.7001 0.79-6.4301 0.97-3.21 1.7599-6.47 2.5599-9.71 1.73-3.72 2.5801-7.77 2.8301-11.84 1.1499-4.8401 4.6199-9.01 4.9399-14.01 2.13-0.86 1.64-4.74 0.5801-6.4401 1.84-7.77 4.2-15.4 6.33-23.09 2.87-9.99 7.64-19.48 9.0299-29.86 1.79-4.24 0.8401-8.83 0.76-13.24 0.42-4 1.6401-7.91 1.4102-11.96 2.74-5.2301 7.2699-9.41 9.0798-15.15 2.1301 9.22-0.23 18.82-0.5399 28.17-1 7.3 0.33 14.61 0.35 21.93 0.0901 4.13-0.45 8.4299 1.17 12.38 0.0299 0.24 0.08 0.73 0.11 0.97-0.1699 8.16 0.1499 16.32 0.63 24.46 0.22 2.8501-0.16 5.92 1.21 8.5701 0.03 0.22 0.09 0.65 0.12 0.87-0.26 3.0699-0.3 6.24 0.8701 9.17 0.0199 0.2599 0.0599 0.7899 0.0898 1.0599-0.3099 4.58-0.21 9.23 0.8501 13.73 0.01 1.0801 0.09 2.17 0.22 3.27-0.49 5.3-0.4199 10.69 0.6799 15.92 0.1101 0.4099 0.3301 1.23 0.4401 1.64-1.24 1.08-1.26 4.5599 0.74 4.6399 0.08 0.5901 0.2301 1.78 0.2999 2.38-1.1099 1.15-1.24 4.4301 0.6201 4.79l-0.22 1.1901 0.48 1.0199c-1.15 1.13-1.0701 4.53 0.9099 4.5801l0.0701 0.73c-0.23 3.65-0.14 7.3099-0.16 10.98-0.87 3.63-1.5499 7.3201-2.1801 11.01-1.51 2.63-0.8599 5.74-0.72 8.61 0.27 2.4501 0.14 5.1801 1.74 7.26 2.28 5.26 3.8301 10.8 5.3301 16.34-0.0901 3.02-0.14 6.04 0.03 9.0801-0.5 2.0699-1.5601 3.9399-2.47 5.86-1.6001 3.4-1.52 7.5599-0.01 10.99 0.47 1.23 1.0599 2.37 1.6299 3.6-1.1499 1.58-1.1399 4.13-0.02 5.76l-0.25 0.76c-1.21 2.76-1.8599 6.16-0.34 8.96 0.88 3.13 2.2201 6.15 2.65 9.41-0.9199 3.65-2.5 7.1899-2.3101 11.05 0.1501 3.87-0.28 7.73-1.21 11.51-1.6399 4.73-1.95 9.83-1.99 14.81-0.4199 1.9401-0.8301 3.89-1.03 5.89-0.77 1.13-1.0699 2.39-0.8999 3.78 0.34 8.02-0.79 16.14 0.8999 24.08 0.05 0.6 0.16 1.79 0.21 2.39-0.22 2.8099-0.2 5.66 0.1101 8.49 0.5601 4.1899-0.5601 8.38-0.14 12.59-0.02 0.4401-0.0499 1.3301-0.0599 1.77-2.2001 0.79-1.77 4.74-0.6501 6.48-0.0699 0.61-0.21 1.8401-0.2799 2.4601-2.02 0.01-2.0599 3.5399-0.7401 4.63l-0.1699 1.34c-2.0701-0.02-2.2 3.54-0.85 4.66l-0.16 1.38c-2.05-0.03-2.24 3.5099-0.84 4.58l-0.14 1.22c-2.03 0.0601-2.14 3.6-0.8401 4.76l-0.1799 1.35c-2.0601 0.01-2.21 3.5601-0.79 4.64l-0.2 1.39c-2.0801-0.02-2.1699 3.5-0.87 4.65l-0.1801 0.72c-1.5499 3.28-1.03 7.03-1.58 10.54-1.25 8.87-0.96 17.84-1.58 26.77-0.4399 12.74 0.84 25.45 1.2 38.17 0.92 5.05 0.1899 10.37 1.92 15.26 0.0299 0.24 0.09 0.74 0.12 0.99-0.3 3.03-0.3401 6.1801 0.79 9.09 0.03 1 0.0999 2.02 0.21 3.0701-0.55 5.37-0.0801 10.81 0.61 16.15l0.02-0.91c0.08 0.7 0.24 2.11 0.3199 2.8101-0.3199 3.3799-0.2 6.8199 0.71 10.13v-0.9099c-0.01 1.4299 0.1602 2.87 0.49 4.2999-1.0798 1.76-1.2999 5.66 0.75 6.61 0.02 0.4301 0.0801 1.29 0.1101 1.7201 0.09 8.38-0.71 16.78-0.0801 25.16-0.02 0.2401-0.08 0.7301-0.1 0.9701-1.49 6.38-1.14 12.99-1.12 19.49 0.12 4.14 0.03 8.34 1.05 12.4l0.26 0.73c-1.0601 1.1899-1.0601 4.5399 0.86 4.74 0.0199 0.41 0.0399 1.22 0.0499 1.63 0.01 6.01-0.0699 12.03 0.02 18.06-0.1699 1.01-0.28 2.05-0.3199 3.12-1.35 4.01-0.88 8.29-0.89 12.46l1.05-0.04c0.0599 2.42 0.0699 4.86 0 7.3099-1.17 2.89-1.1301 6.05-0.8601 9.1201-0.1199 0.98-0.1199 1.98-0.02 3.0099-0.3699 5.4701 0.3601 10.95 0.1501 16.44 0.22 7.99-0.51 15.98-0.3401 23.98 0.1001 5.09-0.54 10.34 1.0901 15.28l0.2799 0.85c-1.1901 1.0699-1.23 4.46 0.7101 4.62 0.08 0.85 0.24 2.55 0.3199 3.4-1.1 1.39-1.41 5.09 0.6901 5.5499-0.2201 3.26 1.0499 6.3701 2.0599 9.4301 1.96 5.76 4.91 11.47 9.71 15.38 0.0599 0.29 0.1801 0.85 0.2401 1.14-0.1602 2.98-0.2001 6.0499 0.8499 8.9299 0 0.5601 0.01 1.7001 0.01 2.27-1.2999 0.9501-3.29 1.48-3.73 3.24-0.3101 1.77-0.1699 3.61 0.05 5.4301-0.63 8.54-0.28 17.13 0.3101 25.68 3.8298 2.1901 8.0399 3.6101 12.27 4.8501 8.28 1.85 16.88-0.16 25.29 0.48 4.2699 0.52 8.5299-0.66 12.83-0.3201 16.3-0.22 32.58 0.3601 48.87 0.4801l0.01-0.5901 0.1-0.7799c0.37-0.63 1.1001-1.89 1.4601-2.52 8.95 0.1599 17.99 0.75 26.85-0.8 1.75-0.04 3.51-0.08 5.28-0.24 4.88 0.33 9.9299 0.73 14.69-0.7 1.15-1.8 1.22-4.1101 0.37-6 1.1801-1.4501 0.9501-2.39-0.6899-2.8401 0.4199-2.01-2.16-2.6499-3.3-3.76-1.41-8.3999-4.03-16.61-7.9299-24.19-2.5601-4.62-6.3501-8.38-9.92-12.2-0.6901-2.13-2.26-3.7101-4.0601-4.92-7.4299-7.96-12.29-17.95-19.76-25.91 0.6901 0.01 2.0601 0.02 2.75 0.03-1.62-2.24-3.4199-4.33-5.2899-6.34 1.4299-4.52 3.1799-8.9401 4.5599-13.47 1.51-2.6799 1.9-5.76 1.9401-8.7699 1.28-6.4901 3.22-12.8 5.12-19.11 1.5-3.62 0.9199-7.61 0.74-11.38 0.02-0.22 0.0699-0.6499 0.1-0.86 1.35-3.5199 1.33-7.35 0.88-11.02-0.04-0.3401-0.12-1.02-0.15-1.3601 1.39-0.83 1.04-4-0.8099-3.73l-0.24-1.28c1.14-1.6499 1.08-4.2599-0.04-5.86 1.6899-5.8199 3.9301-11.51 5.23-17.41 2.09-0.9801 2.0701-4.7001 1.05-6.53l0.4199-1.12-0.24-1.3c1.88-0.22 1.7201-3.5499 0.6801-4.6699 0.12-0.41 0.38-1.2301 0.5-1.64 1.26-2.9701 0.7999-6.23 0.87-9.3401 0.04-5.47-0.37-10.92-1.11-16.32-0.1-3.9399 0.02-7.87 0.16-11.78 0.5599-12.2-1.2301-24.39-0.0601-36.57 1.09-3.2101 1.05-6.63 0.89-9.9501 0.03-0.2699 0.09-0.8199 0.12-1.1 1.28-7.46 0.9299-15.15 0.86-22.69 0.47-8.61 0.09-17.24 0.23-25.86l0.03 0.84c0.85-3.65 0.95-7.41 0.7-11.12 0.02-0.29 0.0801-0.87 0.1001-1.16 1.09-3.48 1.1699-7.16 0.9099-10.75 0.01-0.47 0.04-1.41 0.05-1.87 2.0499-0.51 1.7999-4.26 0.7-5.6899 0.0701-0.6001 0.2201-1.79 0.29-2.39 2.16-0.8201 1.8199-4.75 0.71-6.4401 0.0601-0.62 0.1801-1.86 0.25-2.49 2.1-0.91 1.88-4.75 0.8-6.51l0.2-0.89c1.29-3.5299 1.25-7.36 0.85-11.03 0.03-0.42 0.0801-1.26 0.1101-1.6801 2.1699-0.3099 2.08-4.16 0.72-5.45 0.11-0.7201 0.3099-2.17 0.4199-2.89 0.88-2.66 0.79-5.5 0.9601-8.24 0.52-13.09-0.51-26.15 0.11-39.22 0.39-2.3999 0.83-4.7999 1.01-7.21 1.27-3.51 0.9-7.27 0.7999-10.91 0.2001-1.6899 0.27-3.38 0.15-5.0399 2-0.4301 1.75-4.11 0.72-5.5 1.15-4.0901 2.8201-8.12 3.16-12.37 1.97-0.0901 1.87-3.5801 0.73-4.6801 0.9701-2.9 2.01-5.79 2.51-8.8099l0.9701 0.1499c0.0399-2.9299-0.03-5.8999-1.13-8.6399-1.4901-3.3101-3.0801-6.5701-4.2301-10 0.8501-1.8 1.3501-5.64-0.7699-6.4401-0.4301-4.9399-0.05-9.79 0.8899-14.62 2-0.02 1.9701-3.52 0.8401-4.64l0.26-0.79c0.7999-1.2999 1.1899-2.7899 1.09-4.2899-0.0701-4.5-0.3201-8.99-0.16-13.48 0.76-5.42 4.35-9.7301 5.9301-14.86 3.59-9.4299 4.4099-19.59 6.88-29.32 1.9-6.8199 6.63-12.63 8.2-19.48 1.9501-0.15 1.8-3.64 0.73-4.79 0.11-0.59 0.3401-1.78 0.4501-2.37 1.89-0.88 1.8099-5.46 0.01-6.38l0.11-1.47-0.61-0.99c1.08-1.28 1.0299-3.5701-0.05-4.79 2.24-6.3099 4.53-12.67 5.25-19.35 3.3199-8.4 7.79-16.71 8.08-25.94 1.8 0.1899 2.04-2.9401 0.76-3.7401 1.4301-6.6499 4.1-13.01 5.3-19.69 1.21-7.37 1.59-14.92 0.5699-22.34-0.6-4.4701-0.47-8.99-0.59-13.48 0.01-0.4501 0.02-1.3601 0.03-1.8201 1.9299-0.15 1.9-3.55 0.75-4.65 0.76-2.34 1.4199-4.9 0.9399-7.35 1.05-1.72 1.41-5.62-0.72-6.39 0.05-0.6899 0.15-2.0499 0.2-2.74 3.02-0.5499 5.0801-3.1799 5.9901-5.97 2.0599-5.42 0.2999-11.25 0.11-16.82-0.64-5.0499 1.1899-10.17-0.26-15.13-0.02-0.2699-0.0801-0.7899-0.11-1.0599 0.26-3.38 0.2699-6.84-0.91-10.05-0.02-0.25-0.0701-0.76-0.09-1.01 0.1599-3.36 0.4199-6.87-0.91-10.04l-0.2001-0.65c1.2101-1.15 1.05-4.62-0.95-4.58l-0.16-1.3501c1.3-0.7799 1.1801-3.95-0.6499-3.6899 0.5499-5.6801-1.92-12.2-7.6101-14.3-1.63-0.83-3.4299-0.98-5.2-0.88-0.0599-2.4999-0.27-4.9899-0.9399-7.39 0.0099-1.35-0.16-2.66-0.52-3.93 0.87-1.76 1.34-5.55-0.6801-6.39 0.29-3.65-0.8199-7.21-1.27-10.8 0.4-4.21-0.08-8.42 0.0701-12.63-0.05-2.15 0.38-4.5-0.88-6.38l-0.22-0.67c1.2-1.15 1.09-4.62-0.92-4.59-2.38-11.64-6.5601-22.87-9.14-34.48 1.2-1.75 1.3-5.62-0.79-6.5-0.0399-0.5-0.12-1.48-0.1599-1.97 0.0399-0.89 0.12-2.68 0.1599-3.5699 2.51 0.12 4.99 1.91 7.4 0.33 1.66-1.11 2.02-3.09 1.51-4.92-2.77-12.52-5.8-24.98-9.47-37.27-5.8-18.97-11.67-38.03-20.09-56.03-3.3601-8.99-8.55-17.21-11.26-26.44 7.0199-7.22 13.29-15.15 20.96-21.71 1.55 1.36 4.22-1.15 2.91-2.77 6.73-6.97 13.5-13.94 20.38-20.79 17.13-19.26 34.93-38.05 49.85-59.13 8.26-11.35 16.23-23.03 22.2-35.78 7.26-15.92 12.62-32.61 18.4-49.09 2.12 0.8501 4.25 1.74 6.54 2.0701l-1.05 0.26c3.05 0.26 6.4501 1.0701 9.3101-0.51 1.75-0.3101 3.61-2.02 5.35-0.8101 9.37 5.4001 18.01 11.97 27.37 17.38 8.5499 3.9099 18.36 4.0699 27.57 3.26 3.38 0.1499 6.88-0.1702 9.91-1.8301 5.5601-1.87 11.42-4.4099 14.6-9.65 2.74-4.7799 5.0801-10.03 5.6901-15.53 2.0499-0.51 1.6899-4.23 0.7-5.7001 0.78-2.97 0.99-6.24-0.03-9.17 1.25-0.8199 1.11-3.97-0.71-3.74-1.0599-8.5599-3.87-16.84-5.36-25.34 1.42-1.02 1.35-4.64-0.75-4.5599l-0.21-1.3801c1.36-1.0898 1.2699-4.6399-0.76-4.7l-0.16-1.4199c1.48-1.52 0.67-5.6401-1.65-5.5601-1.0599-6.04-3.6899-11.9-8.04-16.28-6.58-5.4199-12.62-11.52-19.92-16.02-13.64-8.08-23.53-20.97-31.63-34.3-5.47-8.3699-12.74-15.64-16.99-24.75-1.29-10.55-3.4601-21.03-7.11-31.04-2.15-7.9401-5.9601-15.51-11.45-21.68-6.58-6.78-13.18-13.57-20.74-19.27 0.5-0.1399 1.51-0.4399 2.01-0.58 7.98-2.5099 15.53-6.2699 23.43-8.99 3.26-0.39 6.5-1.42 9-3.65 3.3199-2.96 7.9099-4.84 9.7799-9.1399 1.4801-1.3601 2.8401-2.8601 4.28-4.28l0.35 0.1499c2.0601-1.6699 4.1101-3.3499 6.17-5.0399 1.39 0.72 2.79 1.45 4.21 2.1801 0.8301 0.3899 1.65 0.8398 2.5601 1.1799 3.02 3.3 7.48 4.7 11.74 5.6 1.37 0.3199 2.75 0.6 4.15 0.91-0.3301 2.3201-0.6801 4.63-1.0701 6.9399-0.1799 0.3301-0.5399 0.99-0.72 1.3301l-0.74-0.21c-6.15 3.8899-10.53 10.12-13.32 16.74-1.66 2.4299-3.9701 4.4199-5.0901 7.22 0.5-0.0701 1.5-0.22 1.99-0.29 4.2101-5.8201 9.4501-10.9 15.14-15.27-2.8099 3.8201-8.11 7.0901-7.0499 12.49-0.52 0.3601-1.5601 1.0901-2.0901 1.45-2.25 0.4001-3.5399 2.4501-5.0599 3.9401-3.09 3.25-6.71 6.76-6.72 11.59 3.11-0.97 3.6899-4.5399 5.25-6.98 1.5499-3.28 4.25-5.8 7.4299-7.49-0.25 2.65-0.7999 6.3301 2.86 6.5801 0.6-3.16 1.04-6.3501 1.3-9.5601 5.78-3.65 12.97-5.2 17.65-10.46 0.38 3.05-0.78 5.95-1.41 8.8799 1.78-2.0499 3.53-4.1199 5.2-6.2699l-0.0499-0.61c2.2899-2.92 4.77-5.7 7.2-8.51l0.22-1.1001 1.04 0.9801c0.03 1.6 0.04 3.21 0.09 4.83 2.63-3.22 5.11-6.5601 7.66-9.85 1.86-2.49 3.97-4.9501 4.65-8.08 2.47-2.3601 3.86-5.6401 5.2999-8.6901 0.7301-1.0599 1.3-2.25 1.5901-3.5 3.37-4.47 5.12-9.86 6.11-15.3 0.84-2.8201 1.79-5.6101 2.6-8.4401 1.05-3.27 1.13-6.7899 1.9301-10.14 1.64-8.0605 0.9099-16.3 1.2099-24.46zm-959.48-70.07c1.31 1.3701 2.67 2.73 3.69 4.3501 0.05 1.8999-2.3 1.21-3.52 1.6599-0.04-2.01-0.11-4.01-0.17-6.01zm475.46-113.92c-0.35 1.63-1.35 3.3-3.23 3.25-1.25-2.1101 1.87-2.62 3.23-3.25zm419.92 275.96c1.7899-3.12 3.76-6.4199 6.9399-8.3101 0.78-0.4199 2.63-0.3899 1.67 0.9301-2.4199 2.91-5.7999 4.87-8.6099 7.38zm3.1599 7.56c0.8601-5.6901 5.5601-9.1101 9.38-12.86 2.3301-2.4199 5.8301-3.74 7.4301-6.83l0.35-0.64 0.8201-0.34c-0.6801 2.89-1.51 5.75-2.4701 8.5699-3.37 5.9901-9.37 9.5102-15.51 12.1zm27.52-20.74c-0.62-0.8801-1.51-1.8601-0.73-2.9501 1.63-3.4501 5.2001-5.25 8.4401-6.9 0.0299 0.78 0.0699 2.3301 0.1 3.1101-1.09 1.0599-2.23 2.0599-3.36 3.0399-1.5902 1.1001-3.1301 2.3-4.4501 3.7001z" enable-background="new    " fill="#161616"/>
</svg>
