<?xml version="1.0" encoding="UTF-8" standalone="no"?>
<svg
   xmlns:dc="http://purl.org/dc/elements/1.1/"
   xmlns:cc="http://creativecommons.org/ns#"
   xmlns:rdf="http://www.w3.org/1999/02/22-rdf-syntax-ns#"
   xmlns:svg="http://www.w3.org/2000/svg"
   xmlns="http://www.w3.org/2000/svg"
   xmlns:sodipodi="http://sodipodi.sourceforge.net/DTD/sodipodi-0.dtd"
   xmlns:inkscape="http://www.inkscape.org/namespaces/inkscape"
   enable-background="new 0 0 1299 2241"
   version="1.1"
   viewBox="0 0 1024.6187 2068.6846"
   xml:space="preserve"
   id="svg4"
   sodipodi:docname="couple walking.svg"
   width="1024.6187"
   height="2068.6846"
   inkscape:version="0.92.4 (5da689c313, 2019-01-14)"><metadata
   id="metadata10"><rdf:RDF><cc:Work
       rdf:about=""><dc:format>image/svg+xml</dc:format><dc:type
         rdf:resource="http://purl.org/dc/dcmitype/StillImage" /><dc:title></dc:title></cc:Work></rdf:RDF></metadata><defs
   id="defs8" /><sodipodi:namedview
   pagecolor="#ffffff"
   bordercolor="#666666"
   borderopacity="1"
   objecttolerance="10"
   gridtolerance="10"
   guidetolerance="10"
   inkscape:pageopacity="0"
   inkscape:pageshadow="2"
   inkscape:window-width="1920"
   inkscape:window-height="1048"
   id="namedview6"
   showgrid="false"
   fit-margin-top="0"
   fit-margin-left="0"
   fit-margin-right="0"
   fit-margin-bottom="0"
   inkscape:zoom="0.10531013"
   inkscape:cx="-2234.2088"
   inkscape:cy="1009.7466"
   inkscape:window-x="0"
   inkscape:window-y="0"
   inkscape:window-maximized="1"
   inkscape:current-layer="svg4" />
	<path
   d="m 128.56391,1181.0379 c 5.309,-14.632 11.528,-28.953 16.631,-43.676 2.154,-6.215 4.184,-12.447 6.519,-18.621 4.045,-10.695 8.159,-21.381 11.677,-32.299 5.009,-15.547 10.621,-30.902 16.37,-46.214 4.838,-12.888 9.584,-25.864 15.329,-38.3 5.601,-12.12499 7.282,-25.27799 12.177,-37.47099 3.17,-7.896 7.539,-15.253 12.774,-21.951 4.581,-5.861 12.161,-10.421 14.535,-17.543 3.204,-9.612 5.919,-14.399 13.3,-21.464 6.911,-6.616 14.673,-12.44 19.497,-20.897 8.306,-14.562 16.613,-29.124 24.92,-43.687 9.292,-16.289 9.909,-28.643 2.341,-45.702 -6.154,-13.873 -18.446,-21.52 -27.739,-32.152 -8.786,-10.051 -15.641,-21.131 -20.535,-33.758 -4.276,-11.032 -9.009,-21.963 -12.837,-33.13 -4.919,-14.35 -13.653,-27.927 -10.505,-44.33 1.328,-6.918 4.043,-13.34 6.459,-19.817 2.041,-5.47 4.099,-10.93 5.051,-16.617 1.233,-7.362 4.898,-13.185 9.616,-18.613 7.826,-9.003 16.987,-16.654 25.351,-25.11 5.703,-5.765 9.057,-11.584 8.158,-20.898 -1.107,-11.479 -4.713,-22.042 -7.411,-32.957 -4.748,-19.205 -4.772,-38.66 -2.084,-58.016 2.628,-18.927 6.963,-37.599 14.36,-55.315 4.387,-10.509 8.285,-21.149 14.782,-30.886 7.154,-10.723 14.617,-20.92 24.385,-29.257 6.188,-5.281 13.139,-9.585 20.472,-13.172 2.777,-1.358 5.134,-2.53 5.076,-6.436 -0.045,-3.046 2.223,-4.908 5.4,-5.667 3.761,-0.899 7.239,-2.556 9.826,-5.59 1.11,-1.301 1.911,-2.871 1.145,-4.602 -0.766,-1.731 -2.437,-1.424 -3.927,-1.328 -1.326,0.086 -2.671,0.096 -3.971,0.34 -3.206,0.601 -5.908,5.783 -9.859,0.382 -1.129,-1.543 -4.794,-0.966 -3.039,3.161 1.072,2.52 -0.433,2.841 -2.551,2.278 -1.539,-0.409 -2.591,-1.332 -3.579,-2.526 -4.784,-5.781 -5.131,-11.328 -1.044,-17.552 0.727,-1.107 1.704,-2.209 1.952,-3.437 0.486,-2.41 -0.405,-3.982 -3.262,-3.289 -0.639,0.155 -1.207,0.607 -1.846,0.749 -1.863,0.413 -4.105,2.036 -5.529,0.013 -1.483,-2.107 0.166,-4.234 1.709,-5.706 3.377,-3.222 4.989,-7.705 8.523,-10.913 3.197,-2.901 1.789,-6.162 -2.495,-7.214 -0.483,-0.119 -1.047,-0.341 -1.472,-0.203 -7.892,2.566 -10.946,-4.642 -15.927,-7.906 -0.914,-0.599 -1.927,-1.66 -1.406,-2.929 0.568,-1.382 2.039,-0.835 3.099,-0.805 4.517,0.126 5.946,-1.745 4.686,-6.17 -1.757,-6.173 -0.994,-12.566 -0.899,-18.855 0.056,-3.705 -0.98,-6.355 -4.057,-8.442 -5.363,-3.637 -6.436,-8.54 -4.976,-14.83 2.093,-9.019 4.938,-17.885 7.701,-26.614 2.061,-6.511 6.275,-12.884 12.144,-18.005 11.708,-10.216 25.052,-19.263 30.609,-34.985 0.825,-2.335 2.611,-4.457 2.393,-7.009 -0.507,-5.948 3.485,-8.037 7.955,-9.693 4.511,-1.671 7.103,-4.441 9.515,-8.996004 4.096,-7.737 7.362,-15.845 11.48,-23.483 3.462,-6.421 7.094,-13.77 15.931,-14.974 1.467,-0.2 1.839,-1.577 1.948,-2.594 0.581,-5.424 4.522,-8.787 7.494,-12.758 0.384,-0.513 0.505,-1.136 1.296,-1.304 9.574,-2.031 16.58,-8.641 24.307,-13.89 4.171,-2.833 8.353,-5.463 13.356,-6.189 9.495,-1.377 15.94,-8.034 23.245,-13.1640004 1.502,-1.055 2.86,-2.26 4.635,-2.732 8.338,-2.221 16.682,-4.34200006 25.406,-2.067 4.124,1.075 7.818,-1.148 11.646,-1.963 8.927,-1.90100006 17.679,-1.57200006 26.575,0.166 6.186,1.209 12.784,0.806 18.732,2.635 16.476,5.066 34.061,8.3780004 45.154,23.7840004 0.388,0.539 0.988,1.01 1.158,1.607 2.962,10.398 8.724,19.719 11.382,30.271 1.811,7.189 3.771,14.4 8.964,20.285 4.1,4.645 9.1,5.931 14.801,5.317 3.786,-0.407 6.156,-2.548 7.182,-6.531 0.945,-3.667 2.773,-7.099 4.114,-10.672 5.661,-15.085 11.697,-30.009 19.435,-44.173 13.221,-24.19800046 45.991,-21.8400004 70.45,-21.0990004 39.154,1.186 87.067,11.2070004 117.59,37.3130004 7.826,6.694 10.471,14.733 9.896,24.727 -0.447,7.78 0.403,15.626 0.445,23.444 0.085,15.817004 -1.438,31.495004 -3.705,47.157004 -1.401,9.679 -1.502,19.542 -2.318,29.312 -0.26,3.112 1.009,4.991 3.681,6.338 14.994,7.559 27.267,18.281 36.9,32.019 3.208,4.575 5.352,9.407 4.769,15.309 -0.494,5.001 -3.246,7.015 -7.769,7.296 -8.996,0.559 -17.392,-2.34 -25.808,-4.847 -6.839,-2.037 -13.536,-4.546 -20.31,-6.804 -2.413,-0.804 -4.669,-1.185 -6.805,1.056 -2.065,2.167 -4.962,2.461 -7.877,2.414 -2.381,-0.039 -4.155,1.045 -5.079,3.316 -1.03,2.529 1.003,3.641 2.433,4.887 3.305,2.882 7.005,4.268 11.509,3.004 1.692,-0.475 4.034,-0.772 5.142,0.743 1.139,1.559 -0.107,3.467 -0.974,5.105 -4.482,8.466 -10.205,16 -17.46,22.235 -3.225,2.771 -4.552,5.888 -4.347,10.033 0.205,4.158 -0.176,8.299 -0.771,12.446 -1.354,9.429 -10.195,13.926 -18.362,9.166 -7.58,-4.418 -7.661,-4.382 -11.557,3.553 -1.095,2.231 -2.25,4.436 -3.461,6.606 -2.472,4.432 -5.967,7.129 -11.348,6.235 -2.755,-0.458 -3.725,0.359 -3.866,3.357 -0.347,7.404 -2.341,9.339 -9.474,10.354 -7.728,1.099 -10.023,3.43 -12.376,11.371 -1.201,4.056 -0.523,8.472 -3.534,12.242 -6.478,8.109 -18.016,8.354 -25.577,4.819 -8.151,-3.811 -16.068,-7.913 -24.741,-10.581 -4.096,-1.26 -6.839,-5.166 -9.941,-8.196 -3.902,-3.812 -6.083,-3.724 -9.449,0.484 -5.088,6.362 -9.988,12.875 -15.026,19.277 -2.289,2.908 -2.576,5.632 -0.801,9.109 2.477,4.851 5.533,9.025 9.853,12.345 2.186,1.68 4.026,1.72 5.305,-0.789 2.678,-5.253 6.238,-9.028 12.374,-10.48 2.473,-0.585 4.455,-3.345 6.6,-5.187 1.879,-1.614 3.434,-1.498 5.14,0.359 9.935,10.822 11.257,19.607 3.669,32.625 -0.498,0.854 -1.406,1.64 -1.507,2.527 -1.004,8.77 -7.101,14.295 -12.75,20.056 -1.212,1.236 -1.528,2.431 -1.552,3.962 -0.192,12.046 0.402,23.821 5.93,35.045 7.156,14.527 10.405,30.456 15.18,45.835 4.527,14.58 9.965,28.844 15.209,43.177 5.548,15.164 5.948,30.738 3.427,46.591 -1.12,7.038 -3.67,13.377 -6.891,19.601 -2.747,5.309 -5.313,10.695 -6.754,16.573 -1.35,5.507 -0.955,10.79 0.527,16.236 3.485,12.812 8.633,25.227 10.632,38.369 3.813,25.064 5.681,50.281 2.583,75.607 -0.652,5.335 -0.676,10.521 0.319,15.848 2.032,10.879 1.197,21.942 1.062,32.903 -0.249,20.163 5.598,40.622 7.543,60.949 1.909,19.947 -8.646,41.989 2.354,59.852 2.665,4.328 3.271,9.477 0.094,13.216 -2.01,2.365 -0.399,5.388 -2.068,7.397 -5.031,6.056 -7.562,14.787 -17.074,16.191 -1.246,0.184 -2.371,1.146 -3.565,1.72 -2.058,0.991 -2.868,2.325 -1.016,4.19 8.225,8.283 19.272,12.787 28.01,20.416 7.808,6.816 17.351,8.651 22.231,18.87299 4.877,10.217 9.479,20.609 13.359,31.234 1.435,3.93 1.279,8.61 1.939,12.946 2.068,13.585 5.756,27.014 12.047,38.833 5.214,9.795 9.614,19.844 13.946,29.943 2.795,6.516 4.132,13.648 6.281,20.453 2.751,8.709 5.217,17.548 8.643,25.991 2.818,6.945 7.364,13.186 10.23,20.117 3.729,9.016 7.109,18.511 5.407,28.38 -0.643,3.726 -2.822,8.589 -8.454,9.041 -1.017,0.081 -1.936,1.178 -2.932,1.75 -3.422,1.961 -6.48,0.853 -7.75,-2.888 -1.368,-4.029 -2.796,-7.47 -7.248,-2.461 -0.724,0.815 -1.89,0.886 -2.405,-0.384 -1.243,-3.064 -3.061,-6.093 -3.431,-9.277 -1.322,-11.372 -2.444,-22.788 -3.035,-34.218 -0.388,-7.505 -5.105,-12.786 -8.237,-18.892 -0.844,-1.645 -2.238,-1.585 -4.144,-0.402 -5.531,3.432 -11.182,6.79 -17.131,9.385 -3.802,1.659 -5.357,3.83 -5.6,7.79 -0.7,11.386 0.149,22.674 2.641,33.74 1.764,7.834 0.583,16.064 3.445,23.645 8.93,23.654 7.92,52.611 10.271,77.534 3.371,35.743 4.714,72.409 9.944,107.82 1.187,8.037 1.921,16.838 -0.4,25.176 -0.508,1.825 -0.557,3.596 -0.025,5.391 2.348,7.921 1.315,15.873 0.599,23.901 -0.344,3.856 -2.093,7.04 -4.49,9.092 -4.997,4.277 -6.413,10.201 -6.492,15.609 -0.162,11.203 -3.081,22.147 -2.798,33.234 0.386,15.118 -4.208,30.051 -1.979,45.041 1.36,9.148 1.525,18.563 4.7,27.456 2.091,5.858 0.07,12.365 2.377,18.238 8.574,21.827 7.772,46.228 5.878,69.187 -3.119,37.823 -7.843,75.495 -10.829,113.33 -2.973,37.672 -5.741,76.124 3.045,113.22 3.711,15.672 9.165,30.5 18.824,43.566 7.008,9.481 16.857,15.429 26.601,21.513 15.264,9.531 32.24,15.646 48.069,24.068 12.212,6.498 23.679,6.579 37.059,6.365 11.557,-0.185 23.129,0.681 34.531,2.573 9.286,1.541 18.517,6.964 26.788,-0.038 3.71199,-3.143 7.18799,-2.83 10.87399,-0.513 1.845,1.16 3.521,2.391 5.894,2.321 4.161,-0.124 8.899,-0.64 10.841,4.115 1.882,4.61 -1.667,8.5 -4.13,11.478 -3.475,4.199 -7.793,8.465 -14.421,7.26 -1.383,-0.251 -2.515,0.519 -3.661,1.284 -8.67999,5.797 -18.36499,9.457 -28.09299,12.992 -2.606,0.947 -4.465,2.907 -6.532,4.523 -5.898,4.614 -12.695,2.927 -19.124,2.775 -7.931,-0.188 -15.784,-1.332 -23.568,-3.349 -3.992,-1.034 -8.865,-1.001 -12.738,0.32 -10.166,3.469 -21.241,2.64 -31.789,2.258 -10.412,-0.377 -20.615,0.622 -30.987,0.592 -8.65,-0.025 -17.302,-0.038 -25.95,-0.23 -2.309,-0.051 -2.566,0.818 -2.797,2.877 -0.849,7.579 -2.855,8.407 -10.007,10.382 -13.198,3.643 -25.782,-0.825 -38.637,-1.513 -12.772,-0.684 -25.605,-2.331 -38.082,-4.159 -21.32,-3.125 -42.173,1.087 -63.189,0 -9.575,-0.498 -19.084,-1.073 -28.595,-3.352 -10.961,-2.626 -22.493,-1.48 -33.778,-2.142 -7.609,-0.446 -18.497,0.304 -21.437,-8.681 -1.025,-3.134 -0.906,-6.514 -0.705,-9.806 1.053,-17.2 6.471,-33.765 7.564,-50.748 1.149,-17.842 -0.66,-36.238 -5.937,-53.338 -3.656,-11.842 -4.769,-24.26 -8.384,-36.18 -1.43,-4.715 -4.354,-9.388 -4.628,-13.556 -0.435,-6.635 -3.432,-12.002 -5.092,-17.946 -2.908,-10.408 -6.803,-20.516 -9.749,-30.935 -1.184,-4.188 -3.88,-7.907 -5.224,-12.175 -2.905,-9.226 -6.15,-18.345 -9.062,-27.569 -1.941,-6.148 -3.862,-12.255 -7.395,-17.744 -0.669,-1.039 -0.611,-2.536 -0.929,-3.812 -0.52,-2.091 -0.529,-4.563 -1.701,-6.195 -6.611,-9.213 -8.565,-20.379 -13.207,-30.381 -16.25,-35.01 -21.223,-74.544 -19.702,-112.82 0.775,-19.496 3.279,-38.93 7.358,-58.008 2.113,-9.883 4.708,-34.566 -10.421,-34.196 -3.655,0.089 -7.277,0.204 -10.795,1.598 -1.452,0.575 -3.719,0.908 -4.843,0.172 -4.066,-2.665 -6.453,-0.311 -8.868,2.334 -8.824,9.669 -18.451,18.5 -29.315,25.756 -4.418,2.951 -9.301,5.471 -14.137,7.778 -40.536,19.335 -69.753,50.456 -101.03,81.909 -17.773,17.873 -35.416,35.876 -52.926,54.007 -9.135,9.459 -18.235,18.952 -27.298,28.48 -22.734,23.9 -44.894,46.777 -59.419,76.752 -18.88,38.963 -34.045,88.45 -25.084,132.37 1.071,5.25 2.907,10.363 5.554,14.908 6.932,11.902 8.215,25.72 13.476,38.211 1.957,4.646 3.061,9.766 5.597,14.302 3.139,5.613 8.646,8.39 13.773,11.588 2.391,1.491 5.371,2.183 7.474,3.959 3.558,3.006 7.542,3.813 11.962,4.2 6.823,0.598 9.841,6.388 6.996,12.715 -1.76,3.915 -20.23,0.897 -23.783,0.806 l -34.548,-0.885 c -31.941,-0.819 -65.216,1.005 -96.945001,-2.655 -3.607,-0.416 -7.296,-0.087 -10.944,-0.193 -10.924,-0.318 -14.878,-22.977 -17.882,-31.185 -8.074,-22.059 -12.62,-45.368 -22.235,-66.675 -6.805,-15.15 -14.1629998,-30.052 -20.9459998,-45.212 -4.517,-10.094 -4.235,-21.296 0.796,-30.278 6.8099998,-12.158 15.9679998,-22.82 28.3049998,-30.824 44.477,-28.856 71.236001,-67.167 84.566001,-118.01 2.557,-9.752 3.552,-20.072 7.286,-29.313 3.712,-9.187 7.657,-18.367 10.975,-27.675 3.301,-9.261 7.241,-18.201 11.221,-27.121 9.851,-22.077 22.888,-41.925 40.166,-59.167 9.276,-9.256 18.153,-18.917 28.153,-27.41 8.725,-7.411 17.634,-14.607 26.559,-21.782 11.576,-9.306 23.34,-18.749 30.554,-32.304 6.063,-11.393 12.368,-22.673 17.973,-34.288 2.85,-5.906 4.796,-12.216 4.925,-19.11 0.338,-18.168 -2.963,-35.896 -5.622,-53.717 -0.196,-1.312 -0.279,-2.653 -0.273,-3.98 0.023,-5.835 -0.3,-11.576 -1.523,-17.361 -1.118,-5.291 -1.914,-10.712 -0.779,-16.316 1.55,-7.655 -1.508,-15.094 -2.013,-22.691 -0.782,-11.764 0.761,-23.56 -0.755,-35.291 -0.161,-1.244 0.321,-2.952 -1.336,-3.437 -1.597,-0.467 -2.747,0.708 -3.919,1.691 -2.801,2.346 -3.716,6.102 -7.081,8.214 -8.392,5.267 -17.663,5.357 -26.945,5.33 -15.335,-0.044 -30.598,1.164 -45.892,1.952 -17.703,0.912 -35.105,-1.585 -52.164,-6.349 -4.383,-1.224 -8.835,-1.761 -13.314,-1.456 -3.854,0.263 -5.941,-1.495 -7.126,-4.837 -0.942,-2.655 -1.726,-5.372 -2.787,-7.977 -0.609,-1.495 -0.108,-2.588 0.664,-3.698 4.022,-5.776 10.133,-8.551 16.518,-10.157 2.979,-0.749 5.19,-1.882 7.165,-3.902 1.459,-1.492 2.342,-2.794 -0.606,-3.979 -2.494,-1.003 -3.045,-3.005 -2.825,-6.045 0.391,-5.39 0.238,-10.935 -1.779,-16.185 -1.486,-3.869 -3.504,-6.889 -7.805,-8.362 -13.359,-4.576 -17.232,-9.334 -14.098,-23.135 2.099,-9.234 4.977,-18.197 8.188,-27.047 z m 574.02,776.72 c 1.801,-22.906 2.368,-44.87 2.265,-66.861 -0.076,-16.34 -0.213,-32.718 -3.698,-48.737 -4.176,-19.194 -8.48,-38.371 -10.826,-57.868 -1.347,-11.194 -1.978,-22.376 -5.7,-33.207 -3.725,-10.838 -8.32,-21.52 -10.865,-32.599 -6.601,-28.735 -7.602,-58.137 -8.045,-87.522 -0.008,-0.498 -0.03,-1.018 0.088,-1.494 3.123,-12.601 1.266,-25.448 1.611,-38.157 0.637,-23.469 -1.409,-47.081 1.474,-70.405 2.268,-18.35 -2.055,-35.291 -6.828,-52.428 -0.577,-2.073 -1.347,-4.126 -2.305,-6.05 -1.533,-3.078 -2.807,-6.994 -7.297,-6.235 -15.594,2.637 -16.402,21.225 -17.263,34.959 -0.532,8.476 2.323,17.017 2.86,25.482 0.642,10.117 0.062,20.275 -0.519,30.38 -1.057,18.376 -6.227,41.269 -1.197,59.171 2.153,7.661 4.46,14.447 5.529,22.462 0.731,5.478 0.879,11.209 3.136,16.279 2.395,5.382 4.965,8.343 5.54,14.785 1.77,19.806 5.858,39.354 7.074,59.217 1.594,26.042 6.019,51.349 8.449,77.185 2.645,28.133 5.976,56.217 10.772,84.071 3.613,20.985 7.565,41.936 15.697,61.789 2.255,5.51 4.743,10.926 10.048,15.783 z M 623.08991,60.857906 c -0.226,-1.951 -0.122,-4.084 -1.977,-5.378 -1.353,-0.944 -3.875,-0.889 -3.241,0.766 1.429,3.728 0.369,7.006 -0.059,10.515 -0.186,1.524 0.858,3.017 2.622,3.024 1.961,0.007 2.52,-1.369 1.96,-3.103 -0.673,-2.077 0.967,-3.823 0.695,-5.824 z m -292.33,157.670004 c -0.789,0.056 -1.816,0.455 -1.868,1.936 -0.033,0.938 5.079,6.274 5.825,6.117 1.167,-0.244 1.736,-1.148 1.483,-2.176 -0.673,-2.734 -1.291,-5.631 -5.44,-5.877 z m 9.084,-50.67 c 2.019,0.067 6.218,-3.991 6.114,-6.175 -0.055,-1.161 -0.617,-1.832 -1.832,-1.83 -1.001,0.002 -6.518,5.329 -6.468,6.261 0.064,1.2 0.74,1.76 2.186,1.744 z m 12.885,125.42 c -1.372,-0.044 -2.803,0.321 -2.654,1.626 0.334,2.916 3.291,2.617 5.208,3.476 0.901,0.404 2.132,-0.33 1.971,-1.501 -0.357,-2.585 -2.675,-2.94 -4.525,-3.601 z m 0.692,31.695 c 1.52,-0.532 3.717,-0.481 4.089,-2.763 0.243,-1.491 -0.998,-2.099 -2.283,-1.812 -1.742,0.39 -3.84,0.679 -4.063,2.998 -0.114,1.176 0.986,1.584 2.257,1.577 z"
   id="path2"
   inkscape:connector-curvature="0" />
</svg>