<?xml version="1.0" encoding="UTF-8"?>
<svg enable-background="new 0 0 1555 2385" version="1.1" viewBox="0 0 1555 2385" xmlns="http://www.w3.org/2000/svg">
 <path d="m1137.5 917.79c2.6642 0.1393 3.9608 1.032 3.5686 4.1882-0.8621 6.9379-1.2079 13.938-1.9039 20.899-0.2474 2.4744 0.0682 3.6419 3.0012 4.3989 22.976 5.9305 42.938 17.145 60.786 32.996 39.559 35.13 71.052 76.334 93.678 123.97 28.763 60.562 57.902 120.99 83.993 182.76 12.016 28.449 26.424 55.584 40.735 82.823 8.127 15.468 16.342 30.908 25.854 45.604 2.1041 3.2511 2.6891 7.1327 3.9828 10.721 9.9822 27.686 21.842 54.639 32.138 82.204 3.5493 9.5021 7.5728 18.82 10.723 28.482 0.9562 2.9323 0.421 5.1429-1.2727 7.3845-2.8317 3.7482-6.3364 6.8292-9.7997 9.9611-19.014 17.193-41.3 27.694-66.312 32.821-16.32 3.3456-32.99 4.418-49.281 7.9559-10.568 2.2954-21.188 4.3373-31.671 7.0278-7.4945 1.9236-14.444 4.9092-20.882 9.2465-2.1759 1.4662-3.5045 2.9078-3.0651 5.5995 0.5126 3.1394-1.0789 3.9165-3.9785 4.0519-36.115 1.6855-72.174 4.7986-108.37 4.5013-11.312-0.0929-22.173 1.7458-32.814 5.4771-15.662 5.4917-31.786 7.3285-48.224 4.9414-3.468-0.5037-4.3207 0.6421-5.0576 3.4712-3.7048 14.221-5.5336 28.749-7.4003 43.282-1.7819 13.871-3.359 27.864-9.7797 40.563-3.4735 6.8699-6.4885 13.868-8.6021 21.235-9.359 32.622-18.797 65.235-25.805 98.461-1.95 9.2443-3.0808 18.717-3.3021 28.249-1.3501 58.144-4.1514 116.25-4.6727 174.42-0.0386 4.2936 0.9462 6.5709 5.2816 7.934 6.6761 2.0989 12.736 5.4177 17.853 10.53 5.9402 5.9341 13.464 9.7493 20.79 13.698 3.3219 1.7903 5.983 4.0649 8.1169 7.158 2.8361 4.1113 6.0774 7.9504 8.7948 12.134 4.8369 7.4465 3.0457 12.925-5.3043 16.062-10.607 3.9849-21.357 7.4722-32.822 8.1301-5.5903 0.3208-5.6949 0.4895-5.5681 6.1506 0.2908 12.98-0.8713 25.993 0.9478 38.94 0.7905 5.6255 1.9138 11.192 4.0063 16.453 2.6046 6.5488 2.4463 12.983 0.2565 19.518-0.3167 0.9448-0.4708 1.9907-0.9802 2.8174-7.8467 12.736-6.7174 26.7-5.7264 40.683 0.6721 9.4834 0.8525 18.972-0.3655 28.448-0.5375 4.1819-1.5793 8.1384-3.7108 11.81-3.9619 6.8254-7.2526 14.027-7.78 21.945-0.8527 12.804-17.733 23.354-30.956 18.591-6.5842-2.3713-13.176-4.7878-19.377-7.9563-12.151-6.2085-24.087-12.834-35.871-19.74-11.595-6.7954-14.197-17.731-14.72-29.832-0.0612-1.4126 0.713-2.5205 1.3871-3.6753 9.4958-16.261 17.634-33.215 25.574-50.267 2.4565-5.2756 4.6531-10.641 6.0354-16.355 1.5684-6.4822 3.9218-12.777 7.205-18.572 8.1107-14.317 10.932-29.376 8.1722-45.69-2.1086-12.464-3.1114-25.132-7.3363-37.161-4.5155-12.857-9.8185-25.477-13.62-38.537-12.043-41.373-23.829-82.81-30.307-125.57-4.2128-27.808-9.6411-55.429-14.193-83.189-4.8768-29.74-8.8936-59.609-12.707-89.505-2.236-17.528-3.7797-35.088-4.6133-52.747-0.6451-13.666-4.4279-26.905-7.1113-40.28-0.2242-1.1174-0.7967-2.1835-1.3129-3.2209-4.6705-9.387-9.4174-18.736-14.013-28.159-1.1226-2.3013-2.5683-3.5776-5.1821-3.9923-6.902-1.0952-13.768-2.4236-20.635-3.7283-1.8635-0.3541-3.571-0.1415-5.3839 0.4-7.3315 2.1897-14.669 4.3763-22.071 6.3086-11.674 3.0471-23.347 2.9728-35.062-0.1432-28.135-7.4836-56.359-14.639-84.448-22.292-13.146-3.5817-25.743-9.0106-39.116-11.951-8.6173-1.8947-17.276-3.5454-25.923-5.2753-3.553-0.7108-4.1515 0.4336-4.1343 3.6564 0.1125 21.159 0.058 42.319 0.058 63.727 2.0002-1.1522 0.0272-3.2439 1.8232-4.4039 0.6105 4.8209 0.0978 9.4475-0.1016 14.364-2.0377-1.215-0.5463-3.4504-2.0895-4.5901-1.2494 3.2317-2.3189 6.5067-3.7534 9.6134-4.4559 9.65-11.715 14.905-22.72 14.873-13.83-0.0409-27.66 0.3799-41.381 2.4141-7.9162 1.1736-15.72 2.7526-23.129 5.9535-7.2911 3.1498-11.276 8.2378-12.752 16.391-7.6185 42.09-16.94 83.835-26.386 125.55-2.94 12.983-6.0841 25.923-8.8278 38.947-3.1069 14.749-9.2208 28.46-14.21 42.557-12.543 35.44-27.096 70.148-38.819 105.88-8.6701 26.43-16.128 53.182-20.084 80.799-1.3984 9.7612-1.8185 19.564-1.7214 29.409 0.0173 1.7502 0.4325 3.1606 1.6424 4.5095 13.467 15.013 27.067 29.906 41.593 43.904 12.072 11.633 26.195 19.876 42.385 24.495 5.9241 1.6902 11.781 3.5833 16.901 7.2229 4.9192 3.4971 8.4065 7.9907 10.132 13.814 2.3928 8.0735 0.7715 11.867-6.9335 15.544-11.263 5.3745-22.893 10.078-33.764 16.147-8.5883 4.7937-16.749 4.719-25.778 2.3618-15.229-3.9763-29.678-9.7947-43.634-16.956-12.582-6.4561-24.93-13.374-38.021-18.818-5.7755-2.4019-11.64-3.7502-17.945-3.6528-10.516 0.1631-20.977-0.6633-31.264-3.0186-2.1003-0.4805-4.1421-1.2151-6.214-1.822-4.5559-1.3352-6.8587-3.7505-7.2357-9.103-0.9938-14.111-2.8266-28.166-4.4492-42.23-0.3637-3.1521 0.2431-5.5513 2.3222-8.1846 8.714-11.037 13.406-24.075 17.374-37.348 7.1276-23.841 11.122-48.317 14.088-72.964 8.5381-70.942 10.083-142.23 10.188-213.57 0.0059-4.0354 0.52-7.8873 1.676-11.778 11.181-37.635 22.258-75.301 33.344-112.96 1.7849-6.0643 4.5003-11.813 5.9469-17.994 2.7722-11.845-1.4991-21.179-12.414-26.368-2.3553-1.1198-3.5694-2.2413-3.6195-5.1029-0.3044-17.367-3.4558-34.445-5.5515-51.631-1.3309-10.915-2.6138-21.829-2.5727-32.858 0.1055-28.341-0.6985-56.655-3.0999-84.903-0.8604-10.122-2.2024-20.195-4.0526-30.191-0.2084-1.1262-0.3806-2.3077-1.5502-3.5078-2.6841 12.199-5.4004 24.133-7.9261 36.108-5.4263 25.727-11.233 51.377-15.771 77.285-1.5313 8.7428-0.9922 17.616-1.5363 26.422-1.6231 26.272-6.2604 51.859-16.909 76.125-4.9748 11.336-11.1 21.985-18.737 31.74-1.5674 2.0022-2.7091 3.923-2.5891 6.7281 1.5946 37.257-4.0448 73.714-12.26 109.89-5.0879 22.407-9.5428 44.929-12.201 67.787-1.4731 12.669 0.0144 24.898 4.1242 36.895 3.45 10.072 6.8256 20.169 10.267 30.243 6.7494 19.761 8.556 39.832 5.0045 60.536-2.4471 14.266-3.8253 28.716-5.66 43.087-0.5741 4.4963-0.404 8.9504 0.599 13.403 2.378 10.557 1.8958 20.894-0.8099 31.505-5.8764 23.046-11.615 46.156-14.985 69.756-0.2348 1.6443-0.8365 3.2429-1.0026 4.8894-1.4858 14.733-11.918 20.092-24.392 23.034-9.2445 2.1802-18.382 0.6194-26.895-3.0488-22.206-9.5691-38.332-25.554-48-47.762-5.7992-13.32-5.3727-27.252-3.052-41.253 3.5669-21.521 11.304-41.685 19.932-61.571 4.7679-10.989 8.9649-22.249 14.208-33.002 6.2062-12.728 6.4423-25.824 4.9476-39.453-4.266-38.898-14.373-76.483-24.97-113.98-8.2448-29.174-15.285-58.613-19.26-88.717-4.572-34.621-1.0295-68.447 10.043-101.5 1.2541-3.7443 1.6064-7.1996 0.7996-11.165-7.2731-35.745-13.15-71.726-16.992-108.01-3.0729-29.015-4.7655-58.114-4.3872-87.317 0.2158-16.664 0.1261-33.332 0.1546-49.998 0.0088-5.1481-0.0197-5.1344-5.1755-4.8817-22.893 1.1221-45.181-1.7382-66.661-10.049-2.0727-0.8021-3.8339-1.8309-5.3846-3.443-18.477-19.209-31.001-41.456-35.389-68.032-2.7429-16.611-0.7649-32.837 2.9405-49.032 1.335-5.8346 2.3406-11.754 3.2652-17.67 0.9332-5.9717 0.5013-11.836-0.9931-17.792-5.9925-23.88-12.59-47.62-16.754-71.933-4.841-28.264-7.8953-56.724-10.051-85.305-3.3105-43.896-4.1952-87.866-4.9024-131.86-0.4582-28.507 3.1497-56.485 8.6055-84.326 5.7285-29.232 12.604-58.248 16.856-87.759 3.6556-25.378 7.2405-50.768 10.568-76.19 3.7169-28.399 7.2054-56.829 10.611-85.267 2.9509-24.638 5.6999-49.3 8.3963-73.967 0.3759-3.4393 1.3382-6.3486 3.4419-9.1312 16.838-22.272 37.46-40.613 59.498-57.483 18.14-13.888 37.3-26.266 56.741-38.237 28.815-17.744 57.024-36.369 82.876-58.326 8.3889-7.125 16.424-14.623 23.75-22.869 1.765-1.9867 2.4634-4.0487 2.7571-6.6659 1.2991-11.58 3.002-23.101 2.4951-34.83-0.196-4.5356-0.6895-8.8918-2.0438-13.241-7.3209-23.509-16.142-46.528-22.981-70.19-6.9636-24.094-11.923-48.518-11.093-73.782 0.5759-17.532 2.3054-34.893 8.5078-51.507 6.6556-17.828 17.55-31.661 36.143-38.137 2.08-0.7244 2.9348-1.8519 3.0459-3.9411 0.0701-1.3178 0.7311-2.6281 0.6802-3.9243-0.3005-7.6591 3.6261-11.244 10.767-13.46 13.027-4.0431 25.894-8.4781 39.336-11.13 18.589-3.6671 36.57-1.6366 53.863 5.5268 26.251 10.874 48.962 26.906 67.466 48.607 14.449 16.947 18.685 36.478 15.481 58.357-2.9686 20.272-7.196 40.313-10.182 60.568-0.9468 6.4231-2.2974 12.896-2.2439 19.337 0.1623 19.553-5.1133 37.802-11.978 55.799-4.5717 11.986-8.5828 24.177-10.181 36.974-2.4816 19.872 5.1073 36.532 17.062 51.654 13.802 17.459 31.057 31.043 49.35 43.399 17.662 11.93 36.312 22.347 53.516 34.987 13.181 9.684 25.707 20.086 37.302 31.666 16.792 16.769 26.037 36.966 29.676 60.269 4.1172 26.372 6.489 52.876 8.1 79.49 1.6915 27.945 1.3934 55.982 3.9205 83.881 2.9388 32.444 8.0381 64.423 21.148 94.6 3.6471 8.3956 8.5573 16.168 11.976 24.692 9.0087 22.464 12.141 45.884 12.105 69.924-0.0475 31.336-0.7895 62.658-1.3513 93.985-0.0296 1.653-0.0038 3.307-0.0038 5.8623 1.4922-2.1182 1.6768-3.8038 2.0836-5.3826 4.7315-18.365 9.157-36.82 15.068-54.852 4.85-14.795 11.693-28.705 20.746-41.36 4.9841-6.9678 6.2875-14.965 8.0437-22.846 3.6708-16.472 5.267-33.205 5.2083-50.092-0.0417-12-0.0633-24 0.0482-35.999 0.0228-2.4545-0.5538-3.9879-2.9823-4.9825-6.3245-2.5902-8.4913-8.5615-11.029-14.174-0.355-0.7852-0.3145-1.6238 0.0634-2.4183 4.7875-10.066 4.9943-20.987 5.627-31.756 0.6258-10.65 1.0861-21.296 3.0403-31.808 0.449-2.4149-0.0258-4.5519-1.1522-6.7104-2.3089-4.4247-4.5549-8.8878-6.6552-13.415-3.6433-7.8521-4.0698-15.822-1.8221-24.308 3.708-14.001 7.67-27.905 12.512-41.553 2.6257-7.4006 5.6462-14.6 10.881-20.635 0.2468-0.2845 0.1444-0.8718 0.2046-1.3181l0.2217 0.1829-0.1417-0.0384c-18.203 2.9676-32.398-5.9553-39.827-25.044-2.1339-5.4825-3.4837-11.126-2.8796-17.047 0.4402-4.3146 1.5742-5.0956 5.7567-4.0795 5.1876 1.2603 9.1039-0.4453 12.094-4.7241 2.8079-4.0189 4.2948-8.6077 5.6719-13.222 1.8501-6.199 5.0405-12.484 4.8815-18.66-0.1595-6.1971-4.7866-11.843-7.3435-17.779-1.1799-2.7392-2.3032-5.5028-3.4522-8.2553l-0.1392 0.0059c4.6191-0.3326 8.6232 2.0958 12.99 2.8909 1.4497 0.2639 2.7536 1.1064 4.3659 0.7611 3.3464-0.7167 4.1786-1.9758 3.0609-5.2768-1.0754-3.1763-2.8071-6.044-4.6788-8.7927-7.1489-10.498-6.8583-21.222-0.9741-32.052 4.7982-8.8312 11.474-16.346 17.606-24.218 2.4929-3.2005 3.7955-5.8024 1.2826-9.6596-1.7853-2.7405-0.7131-5.6507 1.0839-8.381 4.8025-7.2966 10.949-13.39 16.944-19.643 2.3704-2.4724 5.2123-4.6718 6.1884-8.2953-8.3444-0.0567-10.307-1.8807-12.798-12.072 5.2613 0.5764 8.6437-2.5709 11.687-6.0732 3.9312-4.5239 7.5515-9.3181 11.488-13.837 2.0432-2.3458 1.3436-4.6689 0.4995-7.0037-1.2535-3.4672-0.893-6.3347 2.0112-8.9148 7.6187-6.7684 10.84-15.539 11.788-25.515 0.469-4.9396 1.8161-9.8127 2.9721-14.667 2.0263-8.5089 5.0818-16.374 11.713-22.695 6.6808-6.3686 11.109-14.331 14.805-22.875 6.8647-15.869 13.045-32.078 21.44-47.244 10.558-19.071 25.783-32.259 47.368-37.739 14.058-3.5686 28.043-7.2433 42.626-7.7924 13.489-0.5079 24.716 4.349 33.738 14.35 3.0129 3.3399 5.9614 6.7379 8.9745 10.078 4.1454 4.5946 8.7139 8.5806 14.158 11.723 8.2731 4.7755 14.216 12.011 18.914 20.212 8.4865 14.816 14.993 30.424 18.318 47.257 0.3494 1.7686 0.6371 3.5472 1.9645 5.0309 5.105 5.7057 10.115 11.496 15.309 17.424 2.9598-2.1378 4.1903-5.6179 7.5828-8.4701 0 5.6137 0.12 10.358-0.0477 15.093-0.0913 2.5775 0.7212 3.5665 3.3749 3.452 7.5057-0.3239 12.701 3.232 17.092 9.2778 12.585 17.327 18.874 36.809 21.57 57.813 2.4127 18.794 2.2937 37.536 0.3513 56.33-0.2203 2.1336-0.2302 4.3551 0.1018 6.4668 0.8823 5.6118 5.1526 7.9696 10.551 6.0273 0.7766-0.2794 1.5278-0.6848 2.7035-0.2304 0.6528 5.4088-0.0481 10.756-2.3933 15.832-1.6903 3.6591-4.5911 5.5674-8.7565 5.3978-2.4946-0.1016-5.0028-0.1522-7.4926-0.0094-2.009 0.1152-4.2169 0.4978-4.9572 2.6874-0.7902 2.3373-0.1387 4.613 1.5433 6.4962 1.2657 1.4172 2.8899 2.3292 4.7198 2.6323 9.8151 1.6256 16.784 7.8069 23.16 14.713 3.4883 3.7787 6.2451 8.2217 9.5537 12.18 5.0139 5.998 5.9469 12.87 4.6328 20.216-0.9661 5.4016-2.2313 10.75-3.3835 16.118-1.8446 8.5937-6.8562 14.224-15.445 16.548-1.5522 0.42-3.1868 0.7321-4.8462 2.0532 6.7451 0.6366 13.145 1.2371 19.374 2.789 14.872 3.7051 26.369 12.395 35.379 24.539 10.725 14.455 17.375 30.737 19.967 48.455 2.438 16.66 6.1268 33.049 9.7548 49.445 1.6298 7.3657 1.9875 14.218-0.5829 21.412-2.381 6.6633-2.035 6.7858 3.5897 11.257 1.304 1.0365 2.6177 2.0617 3.8975 3.1274 3.3473 2.7874 3.6649 6.7122 0.7583 9.8729-0.7844 0.8531-1.6344 1.7382-2.631 2.2886-5.4471 3.0089-6.5873 8.0511-6.4875 13.624 0.201 11.239 3.0717 22.059 5.3802 32.958 3.4528 16.3 5.8003 32.751 7.6953 49.308 2.2827 19.944 8.3633 38.667 20.269 55.16 0.2924 0.405 0.6296 0.7851 0.8706 1.2186 18.344 33.004 37.942 65.452 50.83 101.1 5.8075 16.063 12.897 31.316 20.891 46.292 1.749 3.2766 3.7605 4.5735 7.4052 4.2401 3.4703-0.3174 7.0027 0.1025 10.49-0.1037 7.2632-0.4295 14.271 0.2411 20.8 3.7856 2.1228 1.1526 4.514 1.3633 6.8237 1.0344 4.1697-0.5936 6.9163 1.0281 8.9933 4.5927 2.2053 3.7849 5.4622 6.6466 8.9479 9.2928 4.3772 3.3231 8.4104 7.1281 12.94 10.214 4.7311 3.2233 7.7511 7.163 7.736 13-0.0115 4.4889 3.389 5.8417 6.5968 7.0377 3.4857 1.2996 3.9464 2.9631 2.5289 6.3368-3.2184 7.6595-5.5706 15.676-9.2537 23.154-2.071 4.205-4.4867 8.2207-8.2609 11.144-2.8383 2.1986-5.8346 4.2306-9.4355 1.2579-1.0714 2.2638-0.6117 4.2881-0.677 6.2438-0.6119 18.317-0.3959 36.66-1.6698 54.957-0.452 6.4924-1.5878 12.837-3.7891 19.02-4.8165 13.527-18.838 14.637-27.731 8.0974-5.7209-4.2072-10.231-9.5825-13.688-15.725-8.3936-14.914-14.242-30.666-16.505-47.801-1.3651-10.34-1.7991-20.549-0.308-30.837 0.4667-3.22-0.405-5.5697-2.8254-7.9106-8.7377-8.4508-17.078-17.296-26.814-24.69-4.6548-3.5355-7.9296-8.5206-11.75-12.914-31.284-35.975-60.808-73.354-88.946-111.83-6.1016-8.3433-11.577-17.067-16.102-26.398-4.1422-8.5427-8.8223-16.797-14.464-24.476-4.7786-6.5043-5.337-14.218-5.9836-21.858-0.3088-3.6483-0.5646-7.3419-0.3474-10.985 0.4705-7.8928-1.6649-15.098-4.8706-22.17-3.9532-8.7205-7.6803-17.544-11.505-26.322-0.3398 0.0547-0.6798 0.1094-1.0198 0.1641-0.4576 6.0153-0.944 12.028-1.3669 18.046-0.9579 13.626-1.8982 27.238-6.6124 40.262-4.7064 13.002-11.28 24.797-21.214 34.602-3.0645 3.0248-6.3158 5.9446-8.4891 9.7689 0.2319 0.4436 0.3313 0.4599 0.2395 0.0624-0.0131-0.0546-0.2456-0.0588-0.3763-0.0867zm-947.21-172.03c-1.9272 11.113-3.8826 22.221-5.7766 33.339-6.5385 38.383-13.106 76.761-19.566 115.16-6.2127 36.924-12.155 73.893-17.493 110.95-2.5626 17.793-5.9171 35.567-6.3849 53.53-1.2246 47.013 0.5001 93.926 8.0247 140.46 2.6066 16.118 6.6213 31.88 12.921 47.047 2.8882 6.9539 8.2721 10.79 14.419 14.548 0.2296-0.8632 0.4159-1.3051 0.4584-1.7604 3.0794-33.016 5.2489-66.08 5.2162-99.259-0.0018-1.8217 0.0179-3.621 0.5861-5.427 7.7986-24.785 13.082-50.194 18.891-75.483 4.6585-20.28 9.2139-40.571 12.147-61.171 5.2445-36.829 7.5023-73.871 7.3589-111.07-0.138-35.796-4.4566-71.049-13.013-105.81-2.7361-11.116-6.3074-22.003-7.5878-33.521-0.8798-7.9162-4.5114-15.178-10.201-21.529zm452.83 622.2c0.405 0.0354 0.8101 0.0708 1.2151 0.1061 3.3423-9.6898 6.6594-19.388 10.058-29.059 0.4432-1.2612 0.0828-2.2858-0.3256-3.36-5.2458-13.801-5.2004-28.014-3.3479-42.376 1.045-8.1008 1.4732-16.149 0.6931-24.38-1.2341-13.023 1.2026-25.635 7.6741-37.102 2.7032-4.7897 4.12-9.7314 4.8735-15.03 0.4451-3.1296 1.0521-6.2361 1.5131-9.3636 2.4075-16.335 4.363-32.704 3.1157-49.266-1.8789-24.95-6.3582-49.505-11.192-74.014-6.8265-34.614-16.02-68.697-22.977-103.28-9.1451-45.461-15.868-91.186-15.592-137.73 0.1088-18.333-1.0513-36.634-3.9473-54.767-2.1316-13.346-5.0294-26.509-11.873-38.406-1.7027-2.9598-3.3069-6.0917-6.6066-8.082-5.4108 8.9148-7.588 18.661-9.3884 28.473-4.2499 23.161-5.2477 46.615-6.3844 70.084-2.9164 60.215 2.1123 119.87 12.898 179.02 6.9518 38.132 15.273 76.013 22.954 114.01 2.6337 13.029 5.5022 25.946 5.9675 39.399 0.6213 17.962 2.2319 35.909 3.9517 53.811 2.2451 23.368 4.8334 46.707 7.606 70.02 2.8293 23.788 6.0602 47.527 9.1153 71.288zm228.55-534.19c-0.1901 0.0214-0.3802 0.0427-0.5703 0.064-0.315 1.2767-0.7427 2.5372-0.9279 3.8325-2.0959 14.662-4.0272 29.349-6.2603 43.99-2.0812 13.645-2.8437 27.543-6.4724 40.892-5.6712 20.862-11.76 41.609-16.044 62.823-1.1996 5.9404-2.4253 11.876-3.6391 17.813 0.3792 0.2363 0.7584 0.4726 1.1375 0.7089 1.0454-1.2482 2.0393-2.5441 3.1445-3.7369 8.4954-9.1696 16.338-18.894 24.403-28.434 7.3317-8.6719 11.536-18.618 13.239-29.686 1.3715-8.9175 1.4813-17.889 0.8112-26.907-0.7913-10.649-3.293-21.046-4.4233-31.618-1.7691-16.548-2.9609-33.158-4.3973-49.742zm-744.93 512.85c0.4191 8.1656 3.5794 15.233 7.8127 21.906 5.757 9.0747 13.248 16.614 21.174 23.758 9.3331 8.4127 9.3355 8.4105 20.535 2.818 6.6328-3.312 6.8985-5.7002 1.1603-10.786-1.6258-1.4409-3.4001-3.1171-5.4835-3.321-9.0207-0.8823-10.08-7.0002-9.8218-14.171 0.0298-0.8269-0.0614-1.663-0.1524-2.4886-1.5076-13.677-5.28-26.674-11.644-38.902-0.8019-1.5406-1.5602-2.8873-3.6467-2.7692-7.1024 0.4025-11.901 5.2522-17.319 8.9011-0.2118 0.1427-0.2444 0.6062-0.2917 0.9303-0.6938 4.7557-2.3616 9.3558-2.3233 14.124z"/>
 <polygon points="774.77 495.13 775.03 495.06 774.63 495.13"/>
</svg>
