<?xml version="1.0" encoding="UTF-8"?>
<svg enable-background="new 0 0 2677.047 1492.745" version="1.1" viewBox="0 0 2677.047 1492.745" xmlns="http://www.w3.org/2000/svg">
 <path d="m2202.3 951.24c-2.589 18.933-2.281 37.948-2.277 56.953 1e-3 3.798-1.414 7.678 1.125 11.305 1.452 2.073 0.43 4.817-1.032 5.792-20.72 13.829 1.613 35.889-13.637 64.622-10.773 20.296-13.92 41.19-12.055 63.737 4.628 55.96-48.946 88.73-22.267 161.18 7.319 19.878-11.63 43.819-9.403 94.805 0.438 10.045-4.315 18.189-8.425 26.531-4.358 8.846-13.88 7.508-21.277 8.023-25.472 1.771-42.448-33.553-20.926-93.956 4.295-12.055 11.229-23.296 8.352-37.207-1.236-5.978 4.329-10.777 6.397-16.298 6.794-18.136 2.065-35.772-0.293-53.646-22.505-170.55 10.514-117.49 16.929-199.73 0.561-7.195-2.447-10.744-10.089-11.78-72.76-9.86-66.879-8.965-66.554-28.444 0.401-24.035 4.296-47.594 9.564-70.677 6.173-27.047-0.989-48.417 10.267-86.302 2.392-8.05 4.045-16.277 3.844-24.742-0.618-26.116 14.387-51.987 17.772-80.412 3.655-30.681 29.283-32.687 14.65-40.364-6.357-3.335-11.666-7.939-16.611-12.99-5.52-5.639-7.238-12.159-2.947-19.248 13.107-21.658 23.88-44.59 36.647-66.469 8.33-14.276 18.305-27.955 20.766-45.622 2.018-14.489 8.89-27.122 20.249-38.27 11.273-11.063 12.472-36.658 13.785-38.709 12.6-19.677 12.037-42.224 14.428-64.148 2.135-19.569-30.756-10.392-85.798-44.258-71.817-44.188-71.157-38.015-64.783-62.762 15.353-59.601 8.688-62.757 43.93-120.97 30.983-51.179 18.568-56.464 41.936-71.933 14.107-9.339 25.955-20.429 31.221-37.209 0.786-2.504 2.509-6.471 5.436-5.226 5.421 2.308-15.887 42.904-1.94 29.735 19.179-18.111 14.117-38.011 23.497-34.918 5.985 1.974-0.466 7.692-0.471 11.854-5e-3 4.963-6.477 12.648-2.159 13.939 5.798 1.734 5.996-7.69 8.735-12.208 3.141-5.18 1.658-12.575 7.795-12.363 4.239 0.147 0.45 4.686 2.039 5.756 9.193 6.195 3.248 12.754 0.58 18.998-21.314 49.888-60.758 53.562-68.353 71.941-11.99 29.012-32.314 66.674-30.38 129.84 0.204 6.667 2.564 12.213 9.766 13.03 30.654 3.479 36.036 28.449 103.85 30.357 20.015 0.563 40.021 3.756 55.248 19.287 1.746 1.78 4.098 4.175 6.331 3.107 12.26-5.861 19.65 7.359 30.46 7.508 4.388 0.061 1.645 14.889 9.398 14.077 4.501-0.472 3.001-4.36 2.813-6.679-2.254-27.768 7.631-53.652 11.894-80.41 8.06-50.57 29.062-48.35 47.265-63.892 6.326-5.401 19.323-5.625 26.258-0.796 3.807 2.651 7.072 4.542 12.71 4.628 13.025 0.199 34.413 24.725 34.191 38.341-0.127 7.817 2.518 15.029 2.344 22.841-0.338 15.199-8.803 26.957-14.868 39.763-1.201 2.536-3.483 4.767-2.816 7.733 2.448 10.878-5.039 18.479-9.196 26.964-7.551 15.413-12.499 1.238-19.862 9.829-30.264 35.311-39.268 40.44-22.897 50.734 16.637 10.463 31.807 22.14 41.998 39.818 8.133 14.108 23.775 18.795 37.744 25.159 2.042 0.93 3.318 8e-3 4.6-1.274 23.125-23.129 42.538-24.458 90.9-97.161 4.155-6.247 6.563-13.112 5.759-20.848-1.439-13.854-1.115-28.028-8.219-40.785-0.813-1.46-3.364-3.262-1.009-5.473 4.404-4.134 13.512 9.85 13.539-7.706 0.018-12.036 6.605-22.694 7.814-34.541 0.135-1.325 0.917-2.954 2.517-2.89 7.99 0.322-4.553 33.062 2.782 36.521 4.545 2.143 4.475-3.241 6.517-5.046 7.574-6.695 17.141-10.984 23.266-19.461 1.103-1.527 3.499-2.975 5.56-1.088 6.503 5.956-15.839 10.089-8.813 25.725 0.885 1.969-1.829 5.828-3.346 8.559-18.672 33.616 2.449 47.172-21.795 81.523-33.863 47.978-19.822 66.404-83.711 146.52-6.359 7.974-14.111 10.334-22.246 7.76-26.753-8.468-54.536-14.419-78.823-29.506-15.334-9.525-15.979-9.828-22.826 7.455-0.906 2.288-54.285 106.54-66.794 152.13-3.773 13.752-5.318 28.198-8.816 42.136-0.484 1.931-0.022 3.221 1.662 4.449 8.2 5.979 14.757 13.988 24.334 18.334 24.979 11.337 16.674 29.811 15.945 48.249-0.332 8.401 1.351 16.949-1.948 25.128-3.259 8.082-0.813 15.428 1.811 23.331 16.497 49.69 23.852 86.889 40.74 160.58 0.308 1.341 1.296 2.534 1.562 3.877 2.096 10.595 0.535 13.383-10.018 15.521-16.079 3.258-31.477 9.761-48.156 10.146-4.654 0.107-3.565 3.302-3.163 6.04 2.576 17.533 1.907 35.301 5.642 52.889 1.685 7.934 6.494 74.621-12.967 146.54-2.618 9.673 0.431 19.588-2.227 29.343-13.132 48.177-7.345 97.347 7.588 131.72 2.027 4.665 18.337 21.978 5.301 24.594-48.99 9.83-54.492 4.161-54.088-11.477 0.348-13.487-3.122-26.405-5.239-39.467-1.549-9.558-5.715-18.433-13.52-25.474-22.202-20.026 16.788-37.048 8.603-57.601-2.277-5.717 1.663-10.879 1.649-16.516-0.046-19.005-2.822-37.847-2.695-56.905 0.262-39.341-25.295 1.423-1.845-122.72 0.956-5.06 0.366-10.323-1.965-15.399-12.649-27.54-3.166-40.84-17.648-45.589-16.889-5.538-19.432-9.729-20.536-28.186-0.789-13.183 1.963-26.55-2.057-39.561-4.663-15.094-8.615-30.329-9.559-46.207-0.097-1.63-1.267-3.196-1.938-4.791-3.543 6.092-3.022 0.138-3.022 21.057z"/>
 <path d="m1144.5 88.068c-6.674 21.763-3.664 44.159-4.497 66.358-1.141 30.392 5.798 18.843 6.579 72.037 0.212 14.419-0.533 29.723 2.954 42.948 4.246 16.103 6.115 32.559 10.352 48.555 8.169 30.839-5.766 33.041 11.944 63.62 2.048 3.536 5.188 6.161 6.648 10.473 4.223 12.472 22.245-1.592 36.856 13.451 10.627 10.942 18.546-6.142 14.221-19.328-18.031-54.984-9.012-47.727-5.795-70.993 3.69-26.687 37.531-41.692 64.472-41.137 14.056 0.29 26.598 5.374 38.95 10.819 17.46 7.697 25.78 34.114 16.279 50.066-7.23 12.139 3.46 13.904-1.946 27.271-3.434 8.491-6.537 17.028-7.547 26.243-1.604 14.631-27.869 28.789-25.026 37.231 1.141 3.388 4.909 1.736 7.452 1.746 19.5 0.079 31.237-11.103 39.878-27.272 24.503-45.854 44.351-37.532 51.321-68.172 8.651-38.031 27.535-32.006 60.061-103.59 2.447-5.386 0.303-10.293-1.118-15.372-5.631-20.129-12.305-25.444-7.303-28.47 3.21-1.942 5.135 1.666 7.107 4.387 5.97 8.24 6.578 7.906 13.199-0.522 5.464-6.956 13.981-8.415 21.935-10.498 1.749-0.458 4.877-0.23 4.943 2.608 0.264 11.408 7.671 20.972 3.666 34.383-3.418 11.445-6.838 21.031-14.825 29.91-9.864 10.966-11.262 26.284-17.397 39.276-27.705 58.668-70.574 103.31-100.78 159.74-8.996 16.804-47.078 43.861-58.499 134.74-3.481 27.702-6.094 55.518-16.34 82.197-4.449 11.585-6.805 24.092-12.82 35.29-2.408 4.483 0.15 30.767-3.131 49.394-2.33 13.224 2.605 25.749 5.333 38.375 4.225 19.551 28.585 16.711 28.073 58.503-0.284 23.247 1.844 46.582 0.101 69.646-0.658 8.709-9.28 49.602-9.28 49.602 2.898 32.663-27.055 107.81-19.186 131.76 4.183 12.728 5.833 25.683 8.643 38.516 2.715 12.402 3.348 24.628-1.8 36.978-13.675 32.808-10.847 100.76-22.627 128.3-5.183 12.115-10.267 72.367 10.954 112.74 3.367 6.406-0.547 11.157-8.653 9.425-11.51-2.46-23.667-4.457-32.285-13.649-8.298-8.851-44.816-30.155-26.098-49.53 6.613-6.845 10.657-14.172 11.173-24.116 0.668-12.88 4.112-25.492 1.3-38.673-1.502-7.039-1.403-14.335 3.142-21.374 6.637-10.279-13.868-53.786-12.361-79.214 1.759-29.695-11.754-45.375-10.502-53.528 4.631-30.142-11.529-51.646-21.248-136.78-0.238-2.086 1.492-5.825-1.988-5.94-2.382-0.079-3.209-1.708-5.064 39.981-0.579 13.007 2.574 26.279-4.416 38.734-3.317 5.91-1.624 13.202-2.161 19.717-1.443 17.495-5.718 34.676-5.613 52.311 0.012 2.07 0.127 4.475-0.815 6.162-8.71 15.594-5.149 32.114-3.954 48.461 0.102 1.4 1.086 3.356 0.484 4.092-7.118 8.696-1.414 18.13-1.872 27.182-4.057 80.125-15.571 62.626-2.382 96.622 2.965 7.643 5.497 15.227 4.521 23.478-1.319 11.151 3.711 21.299 4.777 32.158 2.065 21.036-12.527 35.315-32.844 30.265-43.432-10.797 3.959-33.43-11.851-58.968-2.443-3.945-3.21-8.147-2.102-12.164 5.233-18.973 0.672-36.913-5.885-54.394-3.96-10.557-1.721-21.594-4.843-32.332-4.357-14.99-6.47-30.694-8.693-46.214-0.963-6.727-8.313-9.943-7.971-16.698 0.847-16.737-7.899-31.725-8.589-48.086-1.08-25.595-9.143-50.668-3.306-76.93 2.292-10.313 1.109-21.875-2.029-33.268l-11-112.17c-11.108-117.14 24.142-139.18 31.923-165.65 22.637-77.016-4.138-97.654-4.663-153.16-0.126-13.372-0.804-26.752 3.374-39.684 6.384-19.76-4.913-50.203 9.638-87.833 2.171-5.614-0.343-16.679 1.262-19.85 7.708-15.226-0.502-27.546-6.858-40.029-8.218-16.142 5.412-12.842 2.958-33.187-3.286-27.256 1.638-51.144-1.034-120.51-0.517-13.413-6.006-26.337-7.469-40.003-2.524-23.567 8.265-78.702 4.026-99.838-1.828-9.112 6.768-13.926-4.488-27.713-10.273-12.583-6.029-27.359-6.823-41.445-0.315-5.592 2.427-6.186 6.079-4.662 4.912 2.051 7.573-0.897 11.557-2.265 5.883-2.02 13.944 0.48 19.494 6.063 9.23 9.28 14.419 19.843 12.153 33.392zm-17.251-20.738c0.406-4.543-0.421-8.449-6.852-8.819-9.555-0.551-11.835 14.998 1.525 16.967 5.917 0.872 5.623-3.613 5.327-8.148zm369.71 123.26c-0.177 0.522-0.617 1.131-0.478 1.547 0.564 1.685 2.286-0.281 1.786-0.739-0.369-0.339-0.857-0.55-1.308-0.808z"/>
 <path d="m369.21 1074.4c-47.041 10.771-93.701 23.152-141.19 32.041-40.722 7.622-65.508 57.061-69.792 80.702-2.172 11.986-9.937 22.33-16.58 32.561-5.432 8.364-14.191 8.841-20.031 0.751-9.436-13.069-17.439-26.452-11.34-44.473 26.867-79.389 14.827-104.86 53.514-100.4 26.836 3.091 56.138-30.889 131.5-61.32 19.415-7.84 43.557 8.003 38.713-12.121-16.025-66.569-27.123-61.766-39.583-121.36-0.62-2.963 0.28-6.426-3.394-8.266-9.448-4.731-7.842-13.384-6.866-21.328 5.246-42.719-0.448-64.944-0.483-76.773-0.305-101.62 29.511-101.15 14.873-130.7-3.921-7.915-3.486-17.303-4.524-25.856-3.646-30.027-12.154-60.711 4.647-89.703 10.054-17.349 4.778-34.725 0.844-52.165-0.836-3.707-4.181-5.521-6.664-7.98-43.427-43.011-18.296-28.285-62.766-65.389-98.117-81.864-163.72-189.76-166.63-219.8-1.35-13.929 0.532-28.18-4.587-41.732-0.587-1.554-0.25-3.5-0.162-5.255 0.413-8.259 5.914-7.925 6.694-0.321 0.602 5.867 0.69 14.387 7.827 13.62 8.457-0.908 4.884-10.085 5.214-15.824 0.742-12.911-8.563-22.752-2.889-24.814 5.228-1.9 7.09 13.418 14.584 27.373 3.364-7.458 5.105-13.331-1.943-30.372-1.1-2.66-3.113-6.171-0.522-7.685 3.676-2.148 5.671 2.272 6.888 4.67 4.861 9.575 10.709 19.037 8.052 30.64-0.362 1.58-1.526 3.735 1.262 3.983 1.926 0.171 1.722-1.917 1.704-3.184-0.143-9.829 8.011-18.905 2.557-29.282-1.452-2.763 3.623-7.166 6.561 0.118 7.803 19.351 3.325 56.462-10.148 73.57-14.175 18 26.961 52.851 68.014 109.91 29.831 41.463 47.516 38.801 62.982 51.823 13.745 11.573 29.628 19.088 45.578 27.163 13.258 6.713 28.739 7.981 40.62 18.181 4.093 3.514 11.65 2.994 15.079 9.03 0.701 1.234 2.258 1.411 3.699 0.445 16.354-10.961 12.6 20.413 23.573 15.004 5.117-2.523 1.796-7.269-0.236-9.915-6.469-8.423-6.09-20.078-11.149-27.694-6.598-9.931 0.356-17.2-0.376-25.565-1.45-16.575 12.35-35.333 18.29-40.982 17.523-16.666 1.715-47.944 38.226-62.962 22.818-9.386 43.739-1.998 64.46 6.493 23.83 9.765 1.453 37.777 7.382 74.199 3.436 21.108-29.463 39.99-32.628 62.831-0.69 4.978 0.238 5.564 4.243 5.217 17.733-1.537 26.184-15.465 36.809-3.744 6.143 6.776 14.317 7.134 21.877 2.345 31.119-19.712 89.014-12.928 129.39-49.855 24.75-22.637 34.029-14.082 121.2-67.667 7.789-4.788 10.616-13.071 9.713-20.998-1.545-13.556 1.909-25.791 6.397-37.99 5.637-15.322 30.481-14.365 21.686-8.365-5.765 3.934-5.036 5.829 1.854 5.383 3.604-0.234 7.513 0.532 5.875 4.725-4.433 11.345 10.361 20.404 4.941 27.058-15.977 19.614 4.336 26.264-23.754 48.072-132.47 102.85-125.43 82.637-192.03 124.93-2.588 1.643-1.904 4.182-2.315 6.477-7.486 41.844-0.909 11.86-56.148 45.819-14.805 9.102 0.225 44.281-16.717 99.953-15.321 50.35-35.302 67.062-24.536 89.729 8.833 18.597 10.525 39.97 21.742 57.337 8.512 13.178 13.915 27.132 17.439 42.177 4.725 20.171-14.471 13.513-23.92 18.766-9.824 5.461-12.08 8.813-9.445 19.937 7.823 33.016 12.391 38.105 9.835 41.681-7.82 10.946 3.903 81.272-3.288 128.93-5.506 36.487 9.859 51.751-29.304 114.9-10.433 16.821-24.995 29.25-39.493 42.107-12.333 10.937-22.606 24.454-35.803 34.068-15.076 10.983-11.055 29.041-27.686 46.151-18.66 19.197-13.028 84.441-46.408 71.615-3.645-1.401-4.181-4.099-4.206-7.554-0.164-23.488 0.586-46.697 14.983-66.966 16.931-23.838-7.342-59.915 19.553-60.57 36.23-0.883 33.369-69.728 69.561-107.53 2.568-2.682 4.103-5.142 4.169-9.076 0.548-32.648-2.697-64.555-16.592-94.689-5.89-12.773-10.64-32.811-10.861-21.76-1.7 84.463 26.548 152.81-37.607 167.5z"/>
 <path d="m1948.9 380.17c-8.501-22.539-10.274-48.008-28.367-66.474-2.83-2.889 0.52-10.824-12.904-15.357-21.277-7.184-24.633 3.425-28.383-5.281-0.326-0.755-1.618-1.706-2.287-1.586-1.934 0.349-1.207 2.208-1.33 3.464-4.549 46.445 30.171 37.103 34.5 60.953 2.609 14.376 5.432 28.734 8.247 43.048 2.809 14.282 0.486 28.623 3.486 42.889 3.634 17.282 1.471 19.245-15.138 23.835-11.519 3.183-26.553 8.304-37.946 5.742-26.551-5.97-42.278 14.769-45.264-33.147-0.907-14.569-1.38-29.581 10.216-42.022 20.967-22.495-0.293-41.085-0.473-47.981-0.679-25.867-13.448-47-0.574-45.094 17.33 2.565-0.649-21.568-2.406-32.035-0.09-0.538-0.922-1.182-1.534-1.368-13.191-4.009-25.592-11.876-40.353-8.277-27.45 6.694-39.064 7.522-46.103 17.864-8.81 12.946-10.632-0.917-23.169 6.135-12.338 6.94-25.208 12.594-38.838 16.588-9.442 2.767-13.124-1.799-20.297-34.176-7.75-34.981-30.901-72.262-24.042-94.24 1.198-3.841-0.712-8.11-1.509-12.2-1.27-6.519-10.42-9.329-8.22-15.696 4.194-12.138-4.859-18.417-10.213-25.898-4.14-5.784-11.136-4.084-17.477-1.878-9.424 3.278-2.108 16.013-3.779 20.716-7.13 20.064 15.932 27.393 17.834 40.003 8.557 56.736 0.896 56.457 9.982 99.173 6.144 28.884 20.246 55.008 28.042 83.296 8.942 32.449 24.428 62.572 33.847 94.926 12.313 42.296 10.521 21.403 20.184 48.527 4.362 12.245 8.676 24.649 14.667 36.121 14.97 28.661 6.186 34.544 34.381 110.1 10.471 28.061 11.22 47.165-3.283 87.975-6.22 17.499-26.523 3.334-40.617 33.829-5.411 11.707-6.098 25.432-15.294 35.521-0.998 1.095-1.493 3.645-0.942 5.002 5.993 14.784 7.536 31.503 18.798 44 9.689 10.752 8.447 8.26 21.474 68.247 0.485 2.231 1.413 5.123-1.59 6.565-32.557 15.636 0.864 70.589-30.478 67.675-29.498-2.743-58.545-7.322-83.38-25.565-8.607-6.322-21.245-3.284-25.496 6.204-13.596 30.343 7.884 3.194-23.134 73.423-11.89 26.92-0.419 47.702 18.531 63.941 2.284 1.957 7.553 3.846 7.813-3.394 0.201-5.597 1.445-11.404 4.766-15.849 11.312-15.138 17.137-33.454 29.495-48.154 9.5-11.302 8.39-12.249 22.768-6.52 38.447 15.321 61.828 38.861 133.59 62.83 42.47 14.186 35.643-19.079 60.915-4.7 12.391 7.05 26.831 5.382 36.321-2.967 29.58-26.024 26.986-57.155 29.404-68.403 7.11-33.078 11.174-77.376 8.873-133.34-0.168-4.073-0.237-8.062 4.264-9.714 7.799-2.862 7.811-8.946 6.391-15.289-6.068-27.107-12.562-28.351-1.674-29.281 14.602-1.247 25.277-13.829 13.676-37.659-8.058-16.554-14.284-34.537-32.9-43.034-3.913-1.786-1.759-23.693-7.901-51.323-12.988-58.423-5.895-77.923-5.873-110.73 0.021-32.308 24.486-49.577 7.872-70.916-4.115-5.285-0.242-5.21 3.539-6.258 19.572-5.425 36.805-15.5 53.032-27.44 5.708-4.2 8.524-9.586 8.875-17.042 1.411-29.933-12.17-70.621-22.612-98.306zm-269.12-69.469c-0.129-0.482-0.255-0.963-0.38-1.443 2.194 0.057 1.577-0.199 2.156 0.772-0.592 0.225-1.184 0.448-1.776 0.671zm75.887 131.98c-3.944-3.759-9.179-5.792-13.778-8.599-2.636-1.609-0.641-5.534 1.932-4.824 0.886-1.103 2.573-1.616 3.892-0.35 3.724 3.578 8.412 5.98 11.658 10.069 2.05 2.582-1.201 6.089-3.704 3.704z"/>
</svg>
