<?xml version="1.0" encoding="UTF-8" standalone="no"?>
<svg
   xmlns:dc="http://purl.org/dc/elements/1.1/"
   xmlns:cc="http://creativecommons.org/ns#"
   xmlns:rdf="http://www.w3.org/1999/02/22-rdf-syntax-ns#"
   xmlns:svg="http://www.w3.org/2000/svg"
   xmlns="http://www.w3.org/2000/svg"
   xmlns:sodipodi="http://sodipodi.sourceforge.net/DTD/sodipodi-0.dtd"
   xmlns:inkscape="http://www.inkscape.org/namespaces/inkscape"
   version="1.1"
   width="424.45505"
   height="478.34741"
   viewBox="0 0 424.45505 478.34741"
   id="svg63"
   sodipodi:docname="woman with hat walking dog.svg"
   inkscape:version="0.92.4 (5da689c313, 2019-01-14)">
  <metadata
     id="metadata69">
    <rdf:RDF>
      <cc:Work
         rdf:about="">
        <dc:format>image/svg+xml</dc:format>
        <dc:type
           rdf:resource="http://purl.org/dc/dcmitype/StillImage" />
        <dc:title></dc:title>
      </cc:Work>
    </rdf:RDF>
  </metadata>
  <defs
     id="defs67" />
  <sodipodi:namedview
     pagecolor="#ffffff"
     bordercolor="#666666"
     borderopacity="1"
     objecttolerance="10"
     gridtolerance="10"
     guidetolerance="10"
     inkscape:pageopacity="0"
     inkscape:pageshadow="2"
     inkscape:window-width="1920"
     inkscape:window-height="1048"
     id="namedview65"
     showgrid="false"
     fit-margin-top="0"
     fit-margin-left="0"
     fit-margin-right="0"
     fit-margin-bottom="0"
     inkscape:zoom="0.96721311"
     inkscape:cx="-148.25513"
     inkscape:cy="205.61464"
     inkscape:window-x="0"
     inkscape:window-y="0"
     inkscape:window-maximized="1"
     inkscape:current-layer="svg63" />
  <g
     id="layer1"
     transform="translate(-92.23045,-340.52937)">
    <g
       id="g60">
      <g
         id="g6">
        <g
           style="fill:#000000;fill-opacity:1;stroke-linejoin:miter"
           id="g4">
          <path
             d="m 179.60046,341.12262 c 0.99469,0.27136 2.12513,0.63306 2.48682,0.76868 0.36176,0.1809 1.26605,0.40698 2.03473,0.5879 1.4469,0.31645 4.92859,2.6676 7.64148,5.15453 2.80347,2.62257 5.83288,7.59631 7.73199,12.70569 0.40692,1.13043 0.99469,2.39642 1.35645,2.89392 0.58783,0.76866 0.76867,0.72339 3.02948,-1.1305 1.31122,-1.08514 3.25555,-2.75824 4.34069,-3.7077 2.53211,-2.26074 8.18415,-4.8833 10.7162,-4.97374 2.12518,-0.0904 4.38598,1.17565 4.65725,2.57732 0.18091,0.90436 -1.13037,3.88848 -1.7182,3.88848 -0.22605,0 -0.85913,0.45222 -1.4469,0.99476 -0.5878,0.58789 -2.57733,2.26086 -4.43118,3.75299 -1.85388,1.49205 -3.7981,3.07477 -4.29547,3.52685 -0.49738,0.45215 -1.40174,0.90424 -2.0348,1.08527 -0.63293,0.13556 -1.35644,0.40686 -1.58251,0.58765 -0.2713,0.13574 -1.58259,0.67828 -2.98426,1.13048 -2.5321,0.8139 -2.57733,0.85908 -2.84857,2.80335 -0.13568,1.08515 -0.76874,2.84865 -1.40173,3.93378 -0.63306,1.04004 -1.13043,2.44171 -1.13043,3.07471 0,0.63299 0.99475,2.8034 2.26086,4.8833 3.1651,5.24506 3.07464,5.6972 -1.13043,7.09888 l -2.71295,0.90435 -0.13562,2.21563 c -0.0905,1.22084 -0.36176,2.3965 -0.67829,2.66768 -0.99475,0.85919 -2.12512,3.84338 -2.12512,5.78765 0,1.98951 -0.9043,3.48169 -2.57733,4.34077 -1.22082,0.63305 -10.26404,0.67828 -11.43964,0.0452 -1.03998,-0.5426 -1.58252,0.0904 -1.9895,2.35132 -0.18085,0.94946 -0.49744,1.71814 -0.72345,1.71814 -0.2713,0 -0.45215,0.45222 -0.45215,1.03998 0,0.58776 -0.67828,1.85382 -1.53735,2.84851 -0.8139,0.94958 -1.62775,2.35133 -1.76343,3.11999 -0.13562,0.72344 -0.49743,2.26081 -0.76867,3.39124 -0.3617,1.266 -0.45215,3.6624 -0.27131,6.33026 0.22608,3.79809 0.45215,4.70244 2.03473,7.91266 0.94953,1.98956 2.26081,4.15991 2.84864,4.7929 1.40167,1.53736 4.11462,4.88343 4.52154,5.60682 0.18091,0.31652 1.85388,2.07996 3.75293,3.88861 3.88861,3.79809 6.14942,7.91278 7.05371,12.75091 0.45215,2.53204 0.45215,3.48164 -0.22607,6.51104 -0.40692,1.9443 -0.94953,4.15992 -1.1756,4.9286 -0.2713,0.76868 -0.45221,2.17035 -0.45221,3.1198 0,0.9496 -0.22607,3.97908 -0.49738,6.73725 -0.45214,4.38599 -0.45214,5.47115 0.27131,8.63625 0.90435,4.29552 1.35644,6.60155 2.03472,10.8518 1.08521,7.1442 2.26081,14.1074 2.66773,15.8256 0.22613,0.99477 0.94958,4.15987 1.62781,7.0085 0.63305,2.84863 1.49212,6.5111 1.89904,8.13885 0.36176,1.62781 0.72345,3.39125 0.81391,3.93385 0.0452,0.58776 0.99475,2.0347 2.07995,3.2103 1.08515,1.1757 2.57728,2.8938 3.34595,3.75295 0.72345,0.85915 2.80341,3.1651 4.56684,5.1546 4.70245,5.29028 6.14935,7.46065 5.56158,8.18408 -0.90436,1.08517 -0.0905,2.53211 4.3407,7.82237 3.93378,4.7025 4.29553,5.33547 4.29553,7.05373 0,1.85382 0,1.89907 2.80338,3.1651 2.44168,1.08521 5.33551,3.34597 5.33551,4.11462 0,0.13569 0.72342,0.99475 1.58255,1.89911 0.85913,0.9043 1.58255,1.8086 1.58255,1.98944 0,0.22614 0.2713,0.36176 0.63302,0.36176 0.85911,0 5.24506,2.71304 5.24506,3.21039 0,0.22601 0.2713,0.40685 0.5878,0.40685 0.3165,0 1.4017,0.58784 2.39642,1.3565 0.94959,0.72346 2.03476,1.3565 2.30606,1.3565 0.31647,0 0.58777,0.13564 0.58777,0.3617 0,0.1809 0.72348,0.7235 1.58255,1.1757 0.85913,0.4973 1.58258,1.03995 1.58258,1.26597 0,0.18093 0.27127,0.36173 0.63303,0.36173 0.36172,0 0.94952,0.2714 1.26605,0.5426 0.72345,0.67825 2.12515,1.5826 3.07469,2.03475 0.3617,0.18085 0.9043,0.54261 1.22084,0.76862 1.49213,1.31128 1.94426,1.62783 2.26074,1.62783 0.22612,0 0.90439,0.49735 1.58262,1.1304 0.67822,0.633 1.53732,1.1304 1.89904,1.1304 0.36176,0 0.85913,0.2713 1.03998,0.5426 0.18085,0.3165 1.08521,0.99473 1.94431,1.44694 0.85907,0.49732 1.67294,1.03992 1.80862,1.17556 0.13562,0.1809 1.31128,0.9948 2.5773,1.80863 1.31125,0.76867 2.39649,1.62777 2.39649,1.80867 0,0.22606 0.36169,0.49736 0.85906,0.6782 0.45218,0.1357 1.2661,0.58784 1.76346,1.04 2.98424,2.48687 2.89384,2.48687 3.30072,1.8539 0.49738,-0.81393 25.59226,-0.94955 26.08962,-0.1357 0.18086,0.3165 2.93904,0.58776 7.55107,0.76867 6.69196,0.18083 11.98227,0.94953 11.98227,1.67297 0,0.18091 1.26602,0.45221 2.80334,0.63306 1.53736,0.1356 2.89382,0.45215 3.02952,0.6782 0.13558,0.2261 1.67294,0.54256 3.4364,0.6783 4.83807,0.4521 8.99795,1.266 9.3597,1.80866 0.18085,0.27124 3.1199,0.54254 7.55103,0.63294 4.02427,0.1357 7.27982,0.36175 7.27982,0.5426 0,0.1809 1.17555,0.4522 2.57727,0.63305 4.52163,0.49735 9.17886,1.35651 9.17886,1.67295 0,0.1357 0.81387,0.407 1.76342,0.58786 0.99476,0.13568 1.85386,0.49737 1.94428,0.81384 0.22612,0.6783 11.34922,0.63305 11.57529,-0.0904 0.22611,-0.58776 3.25556,-0.58776 3.25556,0 0,0.2261 1.03997,0.45215 2.2608,0.45215 3.25555,0 5.06421,0.94955 8.41015,4.29555 1.58259,1.62773 3.11994,2.939 3.34602,2.939 0.27126,0 0.45214,0.1809 0.45214,0.407 0,0.226 0.49738,0.5426 1.1304,0.67816 0.63303,0.1809 1.1304,0.49737 1.1304,0.72351 0,0.2713 1.13041,0.45213 2.44169,0.45213 2.35119,0 2.57727,0.0904 3.75289,1.673 0.67826,0.9496 1.4469,1.8539 1.62781,1.98955 0.22607,0.18079 2.21555,0.18079 4.38593,0.0452 3.84334,-0.1808 4.02424,-0.1808 5.19984,0.99477 0.633,0.63303 1.26604,1.1756 1.4017,1.1756 0.13564,0 0.8591,0.5426 1.53734,1.22088 0.72346,0.67815 1.85386,1.26599 2.53208,1.40165 0.67822,0.0905 1.7182,0.633 2.2608,1.22085 0.5426,0.58785 1.71823,1.22085 2.62253,1.35651 0.90433,0.18084 1.76343,0.49737 1.89908,0.72339 0.13565,0.22615 0.72345,0.40695 1.35647,0.40695 0.5878,0 1.08518,0.1809 1.08518,0.4522 0,0.2713 1.7182,0.4521 4.20508,0.4521 3.43644,0 4.29554,0.1357 4.88334,0.7687 1.53734,1.7634 3.0747,2.7582 4.61202,3.0295 0.94952,0.1809 1.673,0.49736 1.673,0.7235 0,0.27123 0.40692,0.4521 0.90433,0.4521 0.49737,0 0.9043,0.1808 0.9043,0.4521 0,0.22616 0.40695,0.45224 0.90432,0.45224 0.49738,0 1.03995,0.31646 1.17563,0.67822 0.3165,0.8139 1.35648,0.9043 1.7182,0.0904 0.22608,-0.40697 0.3165,-0.40697 0.5426,0 0.18085,0.40694 1.67298,0.5878 5.1546,0.5878 3.75294,0 5.0642,0.1809 5.6068,0.67827 0.3617,0.36169 0.8591,0.67823 1.1304,0.67823 0.2713,0 0.49736,0.18084 0.49736,0.45214 0,0.22606 0.3165,0.45221 0.67824,0.45221 0.36174,0 0.67824,0.2713 0.67824,0.58775 0,0.3165 0.99476,0.8591 2.21558,1.1756 1.22082,0.31654 2.71295,0.94954 3.30078,1.447 0.58783,0.45206 1.26605,0.9947 1.49212,1.22074 0.27131,0.22606 1.53736,0.76866 2.84861,1.22082 1.26605,0.45224 2.35122,1.03998 2.35122,1.22089 0,0.18085 0.36173,0.36169 0.81391,0.36169 0.49737,0 1.26604,0.36176 1.80862,0.81391 0.49738,0.40698 1.53735,1.26605 2.306,1.89905 0.76868,0.63305 1.40172,1.26605 1.40172,1.44696 0,0.18084 0.67824,0.99474 1.53734,1.80859 0.81386,0.8139 1.673,1.94425 1.80862,2.48685 0.18084,0.58786 0.63304,1.04 0.94956,1.04 1.08518,0 1.7182,1.89905 1.58255,4.7477 -0.2713,6.0137 -0.13565,6.7824 1.4469,8.9075 0.8139,1.13045 2.03473,2.2609 2.75817,2.57735 0.67823,0.31645 1.22083,0.76865 1.22083,0.94955 0,0.22605 0.5426,0.9947 1.26605,1.7182 0.67826,0.7235 1.7182,1.94425 2.35126,2.75815 0.63299,0.76865 1.67297,2.03475 2.3512,2.75818 0.72345,0.67822 1.26605,1.49213 1.26605,1.76343 0,0.2713 0.49737,0.49737 1.13043,0.49737 0.633,0 1.13037,0.18091 1.13037,0.45217 0,0.22606 0.22607,0.45213 0.5426,0.45213 0.85907,0 4.43117,4.11467 4.43117,5.10944 0,1.80863 -4.2051,7.09887 -5.652,7.09887 -0.36175,0 -0.67824,0.18086 -0.67824,0.45216 0,0.2261 -0.40696,0.4522 -0.90433,0.4522 -0.49738,0 -1.03995,0.3165 -1.1756,0.6782 -0.18085,0.3618 -0.5878,0.67825 -0.90433,0.67825 -0.36172,0 -0.76867,0.31655 -0.90433,0.67825 -0.18084,0.4522 -0.90429,0.67825 -2.03472,0.67825 -0.94953,0 -1.76343,0.18085 -1.76343,0.45215 0,0.2261 -0.27127,0.4522 -0.633,0.4522 -0.36175,0 -1.03998,0.633 -1.49212,1.35646 -0.49738,0.85904 -1.1304,1.35644 -1.76343,1.35644 -0.5426,0 -1.08517,0.22614 -1.17563,0.49744 -0.13564,0.36169 -1.53732,0.54256 -4.06944,0.54256 -3.61724,0 -3.979,-0.0905 -5.06417,-1.22084 -0.67825,-0.633 -1.4469,-1.1756 -1.673,-1.1756 -0.2713,0 -0.76868,-0.31656 -1.13037,-0.67826 -0.40696,-0.3617 -1.17563,-0.6782 -1.80866,-0.6782 -0.58783,0 -1.0852,-0.2261 -1.0852,-0.4522 0,-0.2713 -0.40692,-0.45215 -0.85907,-0.45215 -0.45218,0 -0.94956,-0.31655 -1.1304,-0.67825 -0.13568,-0.3617 -0.63303,-0.67825 -1.1304,-0.67825 -0.45218,0 -0.94953,-0.31645 -1.13043,-0.67825 -0.13563,-0.3617 -0.76868,-0.6782 -1.40168,-0.6782 -0.63302,0 -1.1304,-0.2261 -1.1304,-0.4522 0,-0.2713 -0.22612,-0.45216 -0.45215,-0.45216 -0.2713,0 -1.22087,-0.81384 -2.21561,-1.80864 -0.94952,-0.9947 -1.9895,-1.8086 -2.26076,-1.8086 -0.2713,0 -0.4974,-0.2261 -0.4974,-0.54255 0,-0.27135 -0.40694,-0.0453 -0.9043,0.54255 -0.4974,0.5878 -0.90434,1.3113 -0.90434,1.673 0,0.31644 -0.18086,0.5878 -0.40692,0.5878 -0.2261,0 -0.5426,0.4974 -0.67824,1.0852 -0.13566,0.633 -0.67827,1.266 -1.1756,1.4017 -0.49742,0.1356 -0.90434,0.49735 -0.90434,0.7234 0,0.633 -1.35651,0.4974 -2.07996,-0.2713 -0.40692,-0.3617 -1.08517,-0.6782 -1.58254,-0.6782 -0.45216,0 -0.85911,-0.2261 -0.85911,-0.4522 0,-0.2713 -0.2713,-0.45216 -0.63302,-0.45216 -0.36173,0 -0.72345,-0.31654 -0.9043,-0.67824 -0.13565,-0.36173 -0.67828,-0.6782 -1.17563,-0.6782 -0.49737,0 -0.90432,-0.1809 -0.90432,-0.4522 0,-0.226 -0.49738,-0.54255 -1.13041,-0.7234 -0.63302,-0.1357 -1.1304,-0.4522 -1.1304,-0.6783 0,-0.22606 -0.22607,-0.4069 -0.45217,-0.4069 -0.2713,0 -0.94953,-0.4974 -1.53733,-1.1304 -0.58783,-0.63303 -1.22082,-1.1304 -1.44693,-1.1304 -0.22604,-0.0452 -0.9043,-0.633 -1.53732,-1.3565 -0.5878,-0.7687 -1.31125,-1.35646 -1.58255,-1.35646 -0.22611,0 -0.8591,-0.5426 -1.35651,-1.22088 -1.49213,-2.03466 -2.80336,-3.30073 -3.34598,-3.30073 -0.2713,0 -0.49734,-0.18083 -0.49734,-0.40698 0,-0.22605 -0.58784,-0.54255 -1.35651,-0.72339 -0.72345,-0.1809 -1.35643,-0.49736 -1.35643,-0.72351 0,-0.22601 -0.49742,-0.49731 -1.13045,-0.67825 -0.63299,-0.1356 -1.1304,-0.4521 -1.1304,-0.6782 0,-0.22607 -0.22607,-0.4069 -0.49735,-0.4069 -0.2713,0 -0.76867,-0.31654 -1.13042,-0.6783 -1.08518,-1.0399 -1.98951,-0.8139 -1.98951,0.45215 0,0.63305 -0.18084,1.13045 -0.40692,1.13045 -0.2261,0 -0.4974,0.4069 -0.63302,0.90434 -0.2713,0.99469 -1.89908,1.13036 -7.00849,0.63296 -2.26077,-0.27126 -2.8034,-0.4974 -3.21032,-1.3565 -0.27132,-0.58774 -0.72345,-1.5825 -0.99476,-2.1703 -0.36176,-0.7687 -0.36176,-1.3113 0,-1.9895 0.90434,-1.7182 0.63304,-1.8991 -2.89382,-1.8991 -1.85386,0 -3.39121,-0.1809 -3.39121,-0.3617 0,-0.5426 -2.2608,-1.49215 -2.75818,-1.22085 -0.22607,0.18085 -0.40692,1.89905 -0.40692,3.84335 0,1.9443 -0.18085,3.6625 -0.40695,3.7981 -0.18088,0.1357 -0.49738,1.4922 -0.63303,3.0295 -0.2713,2.57734 -1.44693,5.3807 -2.2156,5.3807 -0.18085,0 -0.3617,0.2713 -0.3617,0.5878 0,0.31654 -0.40695,0.85915 -0.90433,1.22084 -0.49737,0.3617 -0.90432,0.9043 -0.90432,1.22083 0,0.31653 -0.18085,0.58783 -0.40693,0.58783 -0.90432,0 -2.30603,5.5616 -2.30603,8.998 0.0452,3.79814 1.1756,10.12834 2.57734,14.2882 0.54257,1.4922 1.31125,3.93377 1.7182,5.42595 0.45212,1.49215 0.94952,3.07465 1.1756,3.48165 0.22607,0.45213 0.40695,1.13035 0.40695,1.53734 0,0.67822 2.66772,6.46586 3.21032,6.96326 0.13562,0.1356 0.49738,0.9495 0.8591,1.8086 0.3165,0.8591 0.94953,2.2156 1.40171,2.98424 0.45214,0.76866 1.49212,2.66776 2.35119,4.29556 0.81391,1.58255 2.44172,4.4311 3.61731,6.285 1.22084,1.9442 2.89384,5.652 3.93381,8.54584 1.67297,4.83806 1.89905,5.29023 4.34073,7.46066 3.66247,3.3007 9.22406,7.1893 12.2535,8.59104 1.44694,0.67822 2.98426,1.40161 3.3912,1.67296 0.45216,0.2261 3.6173,0.4069 7.0537,0.4069 6.7824,0 7.50585,0.1809 12.2083,3.3912 0.90433,0.63307 2.12516,1.13044 2.66776,1.13044 1.22084,0 1.40167,1.40166 0.31654,2.30596 -0.36176,0.31654 -1.0852,1.3113 -1.5374,2.2609 -0.49734,0.9043 -1.31124,1.80857 -1.89904,1.9895 -1.89908,0.633 -7.32498,1.1756 -14.9213,1.49204 -5.06414,0.22606 -7.7319,0.49746 -8.13886,0.85916 -1.35647,1.40165 -3.3912,0.2713 -4.88332,-2.713 -1.22083,-2.4416 -7.32498,-7.6867 -11.34922,-9.7214 -3.61726,-1.85383 -3.93376,-1.8991 -6.5563,-1.62776 -2.5773,0.27126 -2.80338,0.22606 -3.52686,-0.76868 -0.40695,-0.58783 -0.72345,-1.53736 -0.72345,-2.07996 0,-0.58776 -0.67822,-1.7634 -1.53735,-2.6677 -0.81387,-0.85915 -2.17035,-2.9391 -2.98422,-4.6121 -2.07996,-4.2503 -4.61203,-9.5858 -5.15466,-10.94224 -0.27128,-0.63306 -1.2208,-2.17041 -2.0799,-3.39126 -0.90432,-1.26597 -2.39648,-3.8885 -3.3912,-5.878 -0.94956,-1.9895 -2.80342,-5.3807 -4.15989,-7.5059 -1.31123,-2.1251 -2.39643,-4.1146 -2.39643,-4.43114 0,-0.2713 -0.13564,-0.49736 -0.36174,-0.49736 -0.18086,0 -0.72346,-0.7687 -1.22083,-1.7182 -0.49738,-0.9044 -1.1756,-1.9443 -1.4469,-2.2608 -0.31653,-0.31655 -0.58783,-0.9043 -0.58783,-1.26607 0,-0.36169 -0.18085,-0.63299 -0.40695,-0.63299 -0.22608,0 -0.54257,-0.49738 -0.67822,-1.13044 -0.18085,-0.63305 -0.49738,-1.13037 -0.72345,-1.13037 -0.2713,0 -0.45218,-0.31653 -0.45218,-0.67823 0,-0.36175 -0.22605,-0.6783 -0.45212,-0.6783 -0.27133,0 -0.45221,-0.22605 -0.45221,-0.4521 0,-0.5426 -0.54257,-1.2661 -2.3512,-3.2104 -0.72345,-0.6782 -1.26605,-1.4921 -1.26605,-1.7634 0,-0.22605 -0.22607,-0.4521 -0.45218,-0.4521 -0.2713,0 -0.45214,-0.31655 -0.45214,-0.6783 0,-0.3617 -0.18085,-0.6782 -0.40693,-0.6782 -0.2261,0 -0.58783,-0.4522 -0.76867,-0.9948 -0.18088,-0.5878 -1.80866,-2.48686 -3.61728,-4.2955 l -3.34602,-3.30074 v -3.84336 c 0,-2.4417 0.2713,-4.4764 0.67826,-5.5164 0.36174,-0.8591 0.67824,-2.07993 0.67824,-2.66776 0,-0.58777 0.1809,-1.08514 0.45216,-1.08514 0.22608,0 0.45214,-0.4974 0.45214,-1.1304 0,-1.1304 -0.0452,-1.1304 -4.02422,-1.1304 -2.98422,0 -4.20508,0.18084 -4.74765,0.6782 -0.36173,0.36177 -1.4017,0.6783 -2.26083,0.6783 -0.9043,0 -1.62775,0.18084 -1.62775,0.4069 0,0.2261 -0.72342,0.5426 -1.58255,0.6783 -0.85913,0.18085 -1.58255,0.4974 -1.58255,0.7234 0,0.2713 -0.40695,0.4522 -0.90433,0.4522 -0.4974,0 -1.03997,0.31647 -1.17562,0.6782 -0.18085,0.3617 -0.54258,0.67824 -0.90433,0.67824 -0.3617,0 -0.633,0.18086 -0.633,0.45216 0,0.2261 -0.40697,0.4522 -0.90437,0.4522 -0.49733,0 -1.03996,0.3165 -1.17555,0.6782 -0.18091,0.3618 -0.67829,0.67825 -1.13045,0.67825 -0.49736,0 -0.9947,0.31655 -1.1304,0.67825 -0.18083,0.3617 -0.5426,0.67825 -0.90428,0.67825 -0.36172,0 -0.63302,0.18085 -0.63302,0.45215 0,0.2261 -0.22612,0.4522 -0.54264,0.4522 -0.633,0 -5.29026,4.88325 -9.85703,10.44484 -0.85913,1.03996 -2.44168,2.8034 -3.52685,3.84336 -1.03998,1.08516 -1.89911,2.08 -1.89911,2.2156 0,0.1357 -0.90427,1.1304 -2.0347,2.2156 -1.1304,1.13034 -2.0347,2.12516 -2.0347,2.2608 0,0.13566 -0.54257,0.8139 -1.22087,1.53727 -1.85384,1.94433 -2.84862,3.21039 -2.84862,3.61733 0,0.1809 -0.40688,0.63303 -0.94946,0.9948 -0.49742,0.3617 -1.35652,1.40166 -1.89912,2.26073 -0.54262,0.85913 -1.22082,1.85387 -1.53734,2.26081 -0.36173,0.36176 -1.22083,1.40173 -1.98951,2.2608 -0.99475,1.1756 -1.31125,1.85386 -1.08517,2.71296 0.99478,4.34075 0.94952,4.74773 -1.58255,8.1389 -1.26605,1.7182 -2.48688,3.1651 -2.66773,3.1651 -0.1809,0 -1.13043,0.72346 -2.12515,1.6278 -0.94955,0.9043 -3.1199,2.5773 -4.74771,3.75294 -4.70242,3.30076 -5.1094,3.70766 -6.60154,6.82752 -3.57204,7.46069 -4.56682,10.58054 -4.92852,15.4187 l -0.27128,3.79814 2.98423,2.93904 c 2.84861,2.80336 2.98427,2.98426 2.98427,5.06421 0,4.11465 -2.66777,6.64675 -7.00847,6.6919 -1.26605,0 -3.02951,0.40695 -5.51635,1.13049 -0.81388,0.27126 -1.13041,0 -2.03473,-1.53734 -0.67825,-1.1757 -1.80865,-2.2609 -3.21033,-3.02956 -3.57212,-1.94424 -3.79816,-2.35119 -4.15988,-7.64148 l -0.3165,-4.70246 1.7634,-3.75286 c 2.62252,-5.38074 3.30078,-7.00854 3.30078,-7.55114 0,-0.27125 0.18088,-0.4973 0.36172,-0.4973 0.18086,0 0.58783,-0.5879 0.85913,-1.3566 0.49738,-1.4016 0,-1.89903 -0.99477,-0.9947 -0.2713,0.22604 -1.58256,0.8591 -2.93903,1.447 -1.35645,0.5425 -3.70771,1.5825 -5.19987,2.2607 -1.4921,0.67825 -3.7529,1.7182 -4.97375,2.2608 -1.26605,0.5426 -3.4816,1.6278 -4.97375,2.3513 -3.57202,1.7634 -8.63623,2.2607 -9.76667,0.99474 -0.90426,-1.08521 -1.94424,-3.84339 -2.66772,-6.91809 -0.3165,-1.35645 -1.13037,-3.61725 -1.85385,-5.01895 -1.1304,-2.2608 -1.26606,-3.0295 -1.22086,-6.8276 0,-3.6625 -0.18084,-4.6121 -1.17556,-6.96327 -2.12516,-4.79283 -3.66251,-7.55108 -4.25031,-7.77713 -0.27133,-0.13565 -0.5426,-0.4974 -0.5426,-0.85916 0,-0.36169 -0.18085,-0.633 -0.36176,-0.633 -0.22607,0 -0.81387,-0.81384 -1.40167,-1.80864 -0.99475,-1.76344 -1.85385,-2.3512 -1.85385,-1.22084 0,0.31654 -0.45218,1.26604 -1.03995,2.12519 -0.5878,0.85905 -1.31128,2.30595 -1.673,3.1651 -0.31656,0.85905 -0.8139,2.17035 -1.13044,2.93905 -0.94952,2.39646 -2.03469,6.37546 -2.03469,7.5963 0,0.63304 -0.18085,1.62773 -0.40696,2.21556 -0.22607,0.58777 -0.72345,2.84858 -1.13037,5.10938 -0.72348,3.84336 -0.67825,4.29556 0.0904,7.91286 0.67822,3.2103 1.22085,4.47636 3.25555,7.46055 1.35648,1.9895 3.57205,5.33551 4.8833,7.4607 4.47641,7.09885 6.42066,8.41015 11.80139,7.91271 5.19983,-0.45206 7.23453,-0.40686 7.95801,0.22614 0.36173,0.31647 1.85385,1.13043 3.30075,1.80865 3.43646,1.62775 4.25033,2.44165 3.88858,3.97901 -0.58783,2.48688 -1.673,3.07464 -7.59628,4.38594 -2.66779,0.633 -4.74767,0.76866 -8.59103,0.5878 -2.75821,-0.1356 -6.82761,-0.0904 -8.99796,0.0452 -2.17038,0.13566 -4.29556,0.13566 -4.65726,-0.0904 -0.45218,-0.27135 -0.63302,-1.22095 -0.63302,-3.39125 0,-2.5321 -0.18085,-3.346 -1.22083,-4.8381 -1.35647,-2.0347 -4.43118,-5.8781 -5.78766,-7.2346 -0.49737,-0.49736 -1.85385,-2.0347 -2.93902,-3.39115 -1.1304,-1.35651 -2.12513,-2.5774 -2.26084,-2.71295 -0.67822,-0.633 -5.74243,-7.64155 -8.95275,-12.4344 -5.15464,-7.68676 -6.42063,-10.21887 -6.42063,-12.70574 0,-1.98951 0.99475,-4.70246 1.76343,-4.70246 0.22601,0 0.54254,-0.5426 0.72339,-1.266 0.13568,-0.6783 0.85913,-1.9443 1.49218,-2.8034 0.67823,-0.8591 1.71814,-2.3964 2.35123,-3.39117 1.03998,-1.71823 1.44687,-2.44173 3.4816,-6.87286 0.45221,-0.94957 0.90433,-1.80867 1.03998,-1.94427 0.45218,-0.45216 1.80865,-3.66254 1.80865,-4.29554 0,-0.36169 0.18085,-0.67822 0.45215,-0.67822 0.22607,0 0.45212,-0.2713 0.45212,-0.63304 0,-0.31655 0.31656,-1.22084 0.67828,-1.89907 0.45215,-0.85913 0.67826,-2.62253 0.67826,-5.29028 0,-3.57208 -0.0905,-3.93375 -0.85914,-3.93375 -0.45214,0 -0.94952,0.31644 -1.13037,0.6782 -0.13571,0.36175 -0.67828,0.6782 -1.17563,0.6782 -0.49737,0 -0.90432,0.1809 -0.90432,0.4522 0,0.22604 -0.3165,0.4522 -0.67828,0.4522 -0.4069,0 -0.81388,0.31644 -0.94947,0.6782 -0.18091,0.36175 -0.67828,0.6782 -1.13043,0.6782 -0.45215,0 -0.85913,0.18087 -0.85913,0.4522 0,0.22604 -0.40689,0.4522 -0.90427,0.4522 -0.49737,0 -0.90436,0.31645 -0.90436,0.6782 0,0.3617 -0.40689,0.6782 -0.8591,0.6782 -0.49737,0 -1.1756,0.31655 -1.58252,0.6783 -0.36175,0.3617 -0.85912,0.67823 -1.13043,0.67823 -0.27124,0 -0.49737,0.18087 -0.49737,0.45217 0,0.22605 -0.31647,0.4521 -0.67829,0.4521 -0.40686,0 -0.81384,0.31656 -0.94946,0.6783 -0.18091,0.3617 -0.63306,0.67824 -1.08521,0.67824 -0.45214,0 -1.13043,0.31646 -1.53729,0.67822 -0.36181,0.36174 -0.99481,0.67824 -1.3565,0.67824 -0.40699,0 -0.72345,0.1809 -0.72345,0.4522 0,0.226 -0.40699,0.45214 -0.85914,0.45214 -0.49737,0 -1.17559,0.27126 -1.49212,0.58783 -0.31647,0.31647 -0.94959,0.72339 -1.40167,0.90423 -0.40699,0.1357 -0.76868,0.4974 -0.76868,0.7687 0,0.2261 -0.22607,0.4522 -0.49738,0.4522 -0.31653,0 -0.99475,0.49737 -1.58258,1.13036 -0.58783,0.63304 -1.22082,1.13044 -1.4469,1.13044 -0.2713,0 -0.5426,0.31646 -0.72345,0.6782 -0.13568,0.3618 -0.5426,0.67824 -0.94952,0.67824 -0.36176,0 -0.67828,0.18086 -0.67828,0.45216 0,0.22606 -0.31653,0.45214 -0.67823,0.45214 -0.40698,0 -0.8139,0.31652 -0.94952,0.67826 -0.18085,0.3617 -0.49738,0.67824 -0.72351,0.67824 -0.67816,0 -8.41016,8.00326 -9.17877,9.4953 -0.40699,0.76866 -0.85913,1.35656 -1.08527,1.35656 -0.22601,0 -0.63293,1.0399 -0.94946,2.26075 -0.31653,1.26611 -0.72345,2.39649 -0.94959,2.53211 -0.22607,0.13564 -0.40692,0.63304 -0.40692,1.13044 0,0.4521 -0.18085,0.85906 -0.36175,0.85906 -0.72339,0 -1.85382,7.46069 -2.0799,13.79089 -0.13562,3.75295 -0.45215,6.37549 -0.72345,6.46585 -0.63305,0.2261 -0.58783,2.2156 0.0905,2.4417 0.40691,0.13566 0.58776,1.3565 0.58776,3.8433 0,3.2556 -0.13562,3.7982 -0.99475,4.5669 -0.9043,0.7234 -2.39648,5.0189 -2.39648,6.7372 0,1.4921 -2.0799,4.83806 -3.75287,6.0589 -3.57208,2.5773 -7.55109,1.26603 -9.58582,-3.21035 -0.72338,-1.58255 -0.72338,-1.9895 -0.22607,-2.93905 0.31653,-0.633 0.45215,-1.266 0.27136,-1.4469 -0.18091,-0.22604 -10.2641,-0.36166 -22.33673,-0.36166 -22.42712,-0.0453 -31.01812,-0.54261 -34.81628,-1.98951 -1.40174,-0.58789 -1.44696,-0.63303 -1.44696,-3.48169 0,-1.58254 0.18084,-2.89379 0.40698,-2.89379 0.22607,0 0.49738,-2.30605 0.58777,-5.10945 0.22607,-5.06414 1.0852,-8.81707 2.44171,-10.12835 0.36169,-0.36169 0.63299,-0.90435 0.63299,-1.17565 0,-0.3165 0.49738,-1.08515 1.13038,-1.76343 1.26605,-1.35647 2.35125,-4.25027 2.75818,-7.32497 0.1809,-1.13036 0.45221,-2.07994 0.63305,-2.07994 0.18085,0 0.45215,-0.67822 0.58783,-1.49213 0.13562,-0.76868 0.5426,-3.30073 0.94952,-5.51629 0.36176,-2.26084 0.72345,-5.01904 0.72345,-6.19458 0,-1.17566 0.22608,-2.17042 0.49738,-2.26086 0.58783,-0.18086 2.17035,-19.4429 2.21558,-26.7226 0,-2.3964 0.18084,-4.386 0.36175,-4.386 0.22601,0 0.54254,-1.89904 0.67823,-4.20507 0.13562,-2.35123 0.49737,-4.79293 0.76867,-5.51633 0.2713,-0.67825 0.58777,-2.75814 0.76868,-4.5668 0.13562,-1.8539 0.40692,-3.346 0.58777,-3.346 0.18084,0 0.45215,-0.9043 0.58777,-1.9895 0.1809,-1.0852 0.58789,-2.8486 0.99481,-3.9338 0.36175,-1.0852 0.67822,-2.6678 0.67822,-3.4816 0,-0.7687 0.18091,-1.4469 0.40692,-1.4469 0.40698,0 2.30603,-5.2903 2.30603,-6.4659 0,-0.407 0.18085,-0.7687 0.45215,-0.7687 0.22613,0 0.45221,-0.2261 0.45221,-0.49735 0,-0.67828 4.65722,-10.08319 5.19983,-10.44488 0.22607,-0.18091 0.58783,-2.21557 0.76868,-4.52167 0.45208,-5.60675 0.81384,-8.00323 1.31121,-8.3197 0.22614,-0.1356 0.40699,-1.04 0.40699,-2.03473 0,-1.22083 0.18084,-1.76343 0.63299,-1.76343 0.36176,0 0.72345,-0.63299 0.90436,-1.49214 0.81384,-4.7476 1.40167,-7.09886 1.7182,-7.09886 0.18085,0 0.36169,-6.42074 0.36169,-14.24304 v -14.24305 h -5.65197 c -3.11994,0 -5.65198,-0.18085 -5.65198,-0.40692 0,-0.22613 -0.85913,-0.54263 -1.89911,-0.72353 -1.03998,-0.18076 -2.17035,-0.633 -2.5321,-0.94944 -0.45209,-0.49736 -2.12513,-0.63312 -6.60151,-0.63312 -4.83813,0 -6.5111,-0.18084 -8.68145,-0.90424 -6.42066,-2.2156 -8.41016,-3.66253 -11.48493,-8.365 -1.58252,-2.3964 -1.85382,-3.346 -2.53204,-7.6867 -0.85907,-5.92333 -0.63306,-10.2188 0.67822,-12.4796 0.49738,-0.85914 1.35651,-3.3008 1.89911,-5.3807 0.9043,-3.7529 2.532045,-6.6467 4.8833,-8.7719 1.08521,-0.99474 0.58777,-2.0799 -1.039976,-2.0799 -1.085144,-0.0453 -2.532044,-0.9948 -2.532044,-1.71825 0,-0.22605 -0.31659,-0.5426 -0.67828,-0.72345 -0.94953,-0.36176 -0.859134,-1.9443 0.180844,-2.4869 1.130432,-0.63303 1.311276,-1.1756 1.899046,-5.92326 0.271364,-2.2608 0.678285,-4.06944 0.85913,-4.06944 0.18085,0 0.58783,-1.26607 0.85913,-2.84865 0.31653,-1.53735 0.72345,-3.4364 0.94953,-4.20505 0.2713,-0.7687 0.45215,-2.5321 0.45215,-3.8886 0,-1.4017 0.22607,-2.6225 0.49737,-2.7129 0.45215,-0.1357 0.99481,-1.8991 1.89905,-6.1494 0.22613,-1.26603 0.63306,-2.35124 0.85913,-2.35124 0.18085,0 0.36176,-0.49736 0.36176,-1.08516 0,-0.63304 0.18084,-1.22087 0.40692,-1.3565 0.18084,-0.13567 0.63305,-1.4921 0.99475,-2.98424 0.31653,-1.49213 0.72345,-2.71296 0.9043,-2.71296 0.76867,0 1.7182,-5.5616 2.07995,-12.11785 0.0905,-2.03479 0.36176,-3.7077 0.5426,-3.7077 0.22608,0 0.49738,-1.49219 0.633,-3.30085 0.22613,-3.2555 1.22082,-5.87805 2.62256,-6.9632 0.40692,-0.31652 0.99475,-1.22088 1.35644,-2.03472 0.31653,-0.8139 0.90436,-1.71826 1.22083,-1.9895 1.0852,-0.81398 1.3565,-4.15985 1.71826,-19.98542 0.18085,-8.22936 0.49731,-15.01184 0.67822,-15.01184 0.18085,0 0.40692,-2.48682 0.49738,-5.56152 0.18085,-6.69196 1.67297,-17.49866 2.48687,-18.35773 0.3617,-0.31647 0.76868,-1.17553 0.9043,-1.89904 0.13568,-0.72345 0.45221,-1.44683 0.63306,-1.58253 0.22607,-0.13574 0.40692,-0.8139 0.40692,-1.53735 0,-0.67822 0.18091,-1.3565 0.45221,-1.4469 0.22601,-0.0905 0.63293,-0.8139 0.85907,-1.62787 0.36169,-1.26593 0.31653,-1.53723 -0.45215,-2.0346 -0.45221,-0.2713 -0.85913,-0.76868 -0.85913,-1.08521 0,-0.36175 -0.58777,-0.58789 -1.35645,-0.58789 -1.26611,0 -1.3565,-0.0904 -1.3565,-1.7633 0,-0.99482 0.22607,-1.89911 0.5426,-1.98951 0.45215,-0.18097 0.45215,-0.31657 0.0452,-0.63305 -0.67829,-0.49738 -1.94434,-4.38599 -1.94434,-6.01374 0,-0.63305 0.31653,-1.71826 0.72351,-2.48693 0.3617,-0.72339 0.633,-2.03467 0.54254,-2.93903 -0.13562,-1.58246 -0.13562,-1.58246 1.71827,-1.58246 2.35119,0 3.21026,-0.72356 3.57202,-2.98431 0.18084,-0.94945 0.45221,-1.76343 0.63305,-1.76343 0.18085,0 0.58777,-0.76868 0.9043,-1.7182 0.31653,-0.90436 1.7182,-2.84857 3.11987,-4.29552 1.40173,-1.4017 2.35126,-2.57728 2.07996,-2.57728 -0.22607,0 -0.67823,0.22608 -0.94953,0.49731 -0.36175,0.36177 -0.58776,0.36177 -0.8139,0 -0.31653,-0.5426 1.94434,-5.92328 2.48688,-5.92328 0.13568,0 0.5426,-0.72345 0.90436,-1.58252 0.36169,-0.85907 0.90429,-1.58258 1.22082,-1.58258 0.31647,0 0.58777,-0.2713 0.58777,-0.58777 0,-0.36181 1.13043,-1.22088 2.48688,-1.94428 1.40173,-0.72356 2.98425,-1.76342 3.48163,-2.30602 0.5426,-0.58788 1.22082,-1.04004 1.49212,-1.04004 0.27131,0 0.90436,-0.36164 1.40174,-0.81378 0.45215,-0.40698 1.4469,-1.0401 2.17035,-1.35656 1.17559,-0.5426 1.26605,-0.67823 0.99475,-2.4869 -0.18091,-1.0399 -0.40692,-3.11986 -0.5426,-4.61205 -0.13563,-1.49205 -0.45215,-3.1651 -0.72345,-3.7077 -0.27131,-0.54255 -0.3617,-1.71815 -0.18085,-2.71289 0.18085,-0.94952 0.49737,-3.43646 0.67822,-5.56159 0.45215,-4.65727 0.90436,-6.78241 1.4469,-6.78241 0.22614,0 0.63306,-0.5426 0.85913,-1.26599 1.03992,-2.75817 1.80859,-4.02429 3.66248,-5.92334 6.46588,-6.42059 9.72149,-8.04846 18.99072,-9.54058 3.61731,-0.54261 5.47113,-0.49732 7.86761,0.22607 z m -41.14654,53.62616 c -0.49744,0.76868 0.0452,0.94958 0.67822,0.18092 0.36176,-0.407 0.36176,-0.67824 0.0905,-0.67824 -0.2713,0 -0.63306,0.22602 -0.76868,0.49732 z m -3.25556,2.66778 c -0.63306,0.49732 -0.99481,0.9043 -0.76867,0.9043 0.54254,-0.0452 2.75811,-1.76343 2.30603,-1.80866 -0.22614,0 -0.90436,0.40693 -1.53736,0.90436 z m 71.75776,190.35924 c 0,0.633 0.31646,0.9043 0.94952,0.9043 0.67822,0 0.85913,0.2261 0.67822,0.67824 -0.36176,0.94952 0.58777,3.39126 1.85388,4.74766 0.58777,0.6331 1.03992,1.4922 1.03992,1.89907 0,0.45223 0.18091,0.81393 0.45221,0.81393 0.22607,0 0.45215,0.40695 0.45215,0.9043 0,0.9948 0.81384,3.0747 1.62775,4.0694 0.2713,0.3618 1.0852,2.39645 1.76343,4.52163 1.44692,4.43117 2.2156,6.55627 3.61727,9.72144 0.5426,1.22083 1.13037,2.89383 1.26605,3.66247 0.5878,3.02956 3.02948,5.78766 3.02948,3.43646 0,-0.7687 0.90433,-3.52685 1.4017,-4.3859 0.13563,-0.2713 0.633,-2.08 1.03999,-4.06954 0.40689,-1.98946 0.94949,-4.25026 1.17556,-4.97376 0.22611,-0.7686 0.81388,-3.07464 1.31128,-5.1998 0.94956,-3.84335 2.66773,-9.1788 3.39121,-10.3092 0.5878,-0.9948 -0.0452,-1.8539 -2.30604,-2.8938 -1.17556,-0.5427 -2.35125,-1.26614 -2.5321,-1.58267 -0.49731,-0.76863 -1.22079,-0.76863 -1.22079,0.0453 0,0.31655 -0.76868,0.94954 -1.71821,1.3565 -0.90432,0.4069 -2.03469,0.9495 -2.4417,1.17556 -1.2208,0.67829 -3.7981,0.54261 -4.43116,-0.22606 -0.31649,-0.3617 -0.99472,-0.6782 -1.53732,-0.6782 -1.1756,-0.0453 -2.21558,-0.7687 -2.93909,-2.1704 -0.36169,-0.6782 -0.94946,-0.99473 -1.76336,-0.99473 -0.72345,0 -1.67304,-0.31653 -2.17041,-0.67827 -1.22076,-0.90425 -1.98944,-0.81386 -1.98944,0.2261 z m 31.5155,10.9423 c -0.13565,1.3112 -0.58783,4.1146 -0.99472,6.2397 -0.40698,2.1252 -0.85913,4.386 -0.99478,5.06423 -0.13565,0.72347 -0.40696,1.26607 -0.5878,1.26607 -0.18088,0 -0.45218,0.5878 -0.58783,1.31127 -0.13565,0.67823 -0.76868,2.39643 -1.4017,3.79813 -0.67819,1.4017 -1.17557,2.66775 -1.17557,2.8938 0,0.40694 -1.89911,4.3407 -2.30603,4.6573 -0.13565,0.1356 -0.36176,0.54255 -0.49741,0.94953 -0.49738,1.31122 1.85385,0.40692 3.7077,-1.44693 1.13044,-1.1304 2.17042,-1.7634 2.89383,-1.7634 0.63303,0 1.17566,-0.1809 1.17566,-0.4522 0,-0.2261 0.81388,-0.5878 1.80863,-0.72345 0.99472,-0.18085 1.80862,-0.45209 1.80862,-0.633 0,-0.45221 3.02948,-1.26605 6.10416,-1.62775 1.49209,-0.1809 2.80337,-0.49743 2.93905,-0.6783 0.13562,-0.1808 2.53208,-0.49736 5.33545,-0.6782 2.75818,-0.18085 5.06418,-0.45215 5.06418,-0.63306 0,-0.13564 1.67307,-0.5426 3.70777,-0.85904 6.37545,-0.94955 6.69195,-1.04 6.69195,-1.4017 0,-0.2261 -0.45218,-0.54266 -1.03998,-0.7235 -0.54257,-0.18086 -1.08517,-0.45216 -1.22085,-0.5878 -0.3165,-0.40696 -3.39121,-1.85386 -3.97901,-1.85386 -0.27127,0 -0.54257,-0.18084 -0.63299,-0.40694 -0.18088,-0.4522 -5.10945,-3.2103 -5.78763,-3.2103 -0.2713,0 -0.94959,-0.407 -1.49216,-0.90437 -0.54256,-0.54253 -1.49212,-1.08523 -2.12515,-1.22083 -0.63303,-0.18084 -1.40167,-0.54254 -1.7182,-0.90435 -0.31653,-0.31645 -0.90433,-0.58775 -1.26605,-0.58775 -0.36176,0 -1.13044,-0.40694 -1.67301,-0.9043 -0.5426,-0.5426 -1.49212,-1.0852 -2.12515,-1.22084 -0.633,-0.18091 -1.40167,-0.54261 -1.71817,-0.90436 -0.31653,-0.31647 -0.90436,-0.58777 -1.26605,-0.58777 -0.36173,0 -0.63303,-0.18083 -0.63303,-0.36173 0,-0.4522 -2.93905,-1.8991 -3.79815,-1.8991 -0.36173,0 -0.72349,-0.3165 -0.90433,-0.67826 -0.49735,-1.35644 -1.08517,-0.63299 -1.31125,1.67306 z m -56.83649,54.80174 c 0,0.85906 -0.22601,1.62776 -0.49731,1.7182 -0.22614,0.0905 -0.58783,1.76342 -0.67829,3.75293 -0.22613,3.25553 -1.22082,6.55627 -2.12518,6.91803 -0.18085,0.0904 -0.31647,0.99475 -0.31647,1.9895 0,0.99475 -0.22607,3.1651 -0.49737,4.83813 -0.22608,1.62777 -0.67829,4.38593 -0.90436,6.14937 -0.2713,1.7182 -0.76868,3.979 -1.08521,4.97374 -1.35644,3.93376 -1.71814,6.14936 -2.07989,12.88656 -0.22607,3.84336 -0.58783,8.63627 -0.8139,10.6258 -0.27131,1.9895 -0.633,5.4259 -0.85907,7.6867 -0.45221,4.29545 -1.53736,7.00846 -2.89386,7.00846 -0.40692,0 -1.03998,0.31644 -1.4469,0.67824 -0.72345,0.72343 -4.34076,0.9495 -4.34076,0.2713 0,-0.2261 -0.40692,-0.5426 -0.85907,-0.7235 -2.26081,-0.6782 -2.39643,-6.6015 -0.2713,-11.9822 0.63299,-1.5825 1.13037,-3.25556 1.13037,-3.6625 0,-0.4522 0.18091,-0.94956 0.45221,-1.0852 0.22607,-0.13567 0.45215,-0.8591 0.45215,-1.53734 0,-0.72346 0.31652,-2.17036 0.67822,-3.21033 0.36176,-1.03993 0.67828,-2.80343 0.67828,-3.88853 0,-1.0852 0.18079,-2.39644 0.40692,-2.98427 0.22608,-0.58783 0.633,-1.85388 0.94953,-2.84863 0.31653,-0.99475 0.76867,-2.30603 1.03998,-2.939 0.2713,-0.6331 0.72345,-2.44174 1.03997,-4.0695 0.54261,-2.8033 0.9043,-4.34074 1.94428,-8.365 0.2713,-0.99466 0.49737,-2.44156 0.49737,-3.25547 0,-0.76867 0.40693,-2.39643 0.9043,-3.57208 0.49738,-1.1756 0.85913,-2.3512 0.76868,-2.62255 -0.0904,-0.2713 -0.45209,0.3618 -0.76868,1.4017 -0.31653,1.0852 -0.76867,1.9443 -0.94952,1.9443 -0.18085,0 -0.67829,0.99475 -1.08515,2.2156 -0.40698,1.2208 -1.22088,2.713 -1.80865,3.30076 -0.58783,0.58774 -1.40174,1.9895 -1.85388,3.0747 -0.45215,1.13037 -0.90436,2.12514 -1.08515,2.26074 -0.13568,0.1357 -0.76867,0.9496 -1.3565,1.80866 -0.58783,0.85914 -1.22083,1.67304 -1.35651,1.80864 -1.31128,1.04 -5.87805,10.038 -5.87805,11.57533 0,0.36167 -0.18091,0.63297 -0.40692,0.63297 -0.18085,0 -0.54261,1.49215 -0.72351,3.2556 -0.13563,1.80864 -0.45215,3.4816 -0.67823,3.7529 -0.18084,0.2261 -0.45215,1.35646 -0.58777,2.4869 -0.13568,1.0852 -0.49737,2.07995 -0.72351,2.1704 -0.2713,0.0904 -0.49737,0.8591 -0.49737,1.6729 0,0.85914 -0.18085,1.6278 -0.40692,1.7635 -0.22608,0.18085 -0.54261,1.3112 -0.72345,2.53204 -0.18085,1.35651 -0.54261,2.26081 -0.9043,2.26081 -0.36176,0 -0.63306,0.99481 -0.85913,2.75815 -0.13568,1.5374 -0.58783,3.39126 -0.94952,4.15994 -0.3617,0.76861 -0.67823,1.62776 -0.67823,1.9895 0,0.31646 -0.18084,0.58776 -0.40698,0.58776 -0.18085,0 -0.49738,0.9043 -0.633,2.03474 -0.40698,2.66772 -1.67297,6.55636 -2.17034,6.55636 -0.22614,0 -0.40698,0.9947 -0.40698,2.2608 0,1.2208 -0.22608,2.2608 -0.45216,2.2608 -0.2713,0 -0.45214,0.4521 -0.45214,0.99473 0,1.03997 -0.94953,4.06937 -1.40174,4.43117 -0.13562,0.1356 -0.40692,1.0399 -0.58776,2.0347 -0.45222,2.44166 -1.76343,6.10414 -2.17042,6.10414 -0.22607,0 -0.36169,0.5426 -0.36169,1.22082 0,1.58258 -1.53735,6.46594 -2.12519,6.82764 -0.90429,0.633 -1.49206,9.49536 -0.81384,13.0674 0.49738,2.713 1.62775,2.9391 3.66248,0.8591 1.80866,-1.89903 3.25556,-2.07994 5.19983,-0.6782 1.76343,1.2208 1.62781,2.07995 -0.49737,4.2051 -2.0799,2.03464 -2.17036,2.35117 -0.9043,2.75815 0.49737,0.13562 0.9043,0.49735 0.9043,0.72345 0,0.2261 0.22607,0.4069 0.45214,0.4069 0.2713,0 0.90436,0.407 1.44696,0.9044 0.49738,0.4521 1.53736,0.99467 2.21558,1.13035 0.72339,0.18085 1.31122,0.49735 1.31122,0.72345 0,0.2261 0.40698,0.407 0.90435,0.407 0.49738,0 0.9043,0.18077 0.9043,0.4069 0,1.1304 11.07795,9.04315 12.70569,9.08844 0.40698,0 1.31128,-0.67824 2.07996,-1.49219 l 1.35644,-1.49205 0.2713,-22.11067 c 0.18091,-12.20833 0.45221,-22.60797 0.58783,-23.1958 0.18085,-0.54253 0.49732,-0.99473 0.72345,-0.99473 0.22608,0 0.72345,-0.3165 1.08515,-0.67824 0.40698,-0.36176 1.17565,-0.67822 1.80865,-0.67822 0.58783,0 1.08521,-0.18094 1.08521,-0.40699 0,-0.22605 0.63305,-0.49735 1.40173,-0.67825 0.81384,-0.13565 1.76337,-0.67825 2.17035,-1.13034 0.45215,-0.49746 1.31128,-1.03996 1.9895,-1.17566 0.67822,-0.18085 1.22082,-0.4974 1.22082,-0.6782 0,-0.2261 0.58777,-0.4974 1.35645,-0.67825 0.72345,-0.1809 1.35651,-0.49735 1.35651,-0.72351 0,-0.22607 0.40692,-0.40694 0.85913,-0.40694 0.45215,0 0.94946,-0.31645 1.13037,-0.6782 0.13562,-0.36176 0.5426,-0.6782 0.94952,-0.6782 0.36176,0 0.67823,-0.22616 0.67823,-0.4522 0,-0.2713 0.31652,-0.4522 0.67828,-0.4522 0.40692,0 0.8139,-0.31645 0.94946,-0.6782 0.18091,-0.36176 0.67829,-0.6782 1.13049,-0.6782 0.45209,0 0.85907,-0.18093 0.85907,-0.407 0,-0.2261 0.45216,-0.5878 0.99476,-0.7686 1.13037,-0.3166 1.58258,-0.6783 3.979,-3.0295 0.94952,-0.90436 1.94427,-1.67304 2.21558,-1.67304 0.2713,0 0.49737,-0.31653 0.49737,-0.67822 0,-0.36174 0.2713,-0.67824 0.5426,-0.67824 0.31653,-0.0452 0.99475,-0.5878 1.49213,-1.2208 0.49738,-0.63307 1.26605,-1.53736 1.67297,-1.9896 0.45215,-0.49735 0.81385,-1.0399 0.81385,-1.3112 0,-0.2713 0.13574,-0.45214 0.31659,-0.45214 0.22607,0 0.94952,-1.03996 1.7182,-2.2608 0.72345,-1.26606 1.49212,-2.26081 1.67297,-2.26081 0.18084,0 0.36176,-0.22605 0.36176,-0.49735 0,-0.31655 0.63299,-1.5374 1.35644,-2.7582 1.1756,-1.8991 1.40167,-2.6677 1.49213,-5.9233 0.0905,-3.02946 -0.0905,-4.06944 -0.90436,-5.78764 -0.54254,-1.1756 -1.31122,-3.61731 -1.71814,-5.4259 -0.40699,-1.85382 -0.94959,-4.06946 -1.22089,-4.92856 -0.27124,-0.8591 -0.63299,-3.43643 -0.81384,-5.652 -0.45221,-5.0642 -1.13043,-8.2293 -1.98956,-9.0432 -0.3617,-0.3617 -0.90424,-1.2661 -1.266,-2.0347 -0.31652,-0.72344 -0.72344,-1.3565 -0.90435,-1.3565 -0.22608,0 -0.3617,-0.2713 -0.3617,-0.633 0,-0.3165 -0.31652,-1.2209 -0.67828,-1.8991 -0.36169,-0.72345 -0.67822,-1.7634 -0.67822,-2.3512 0,-0.5426 -0.22602,-0.99475 -0.45215,-0.99475 -0.27124,0 -0.45215,-0.58785 -0.45215,-1.31125 0,-1.40176 -1.03998,-3.6625 -2.39642,-5.19985 -0.40698,-0.49745 -0.76868,-1.03998 -0.76868,-1.1756 0,-0.18091 -0.45215,-0.81391 -1.03998,-1.44695 -0.5426,-0.5878 -1.49212,-1.80867 -2.12518,-2.6225 -0.63299,-0.8139 -1.58252,-2.03474 -2.17035,-2.62257 -0.54254,-0.63299 -0.99475,-1.31128 -0.99475,-1.49213 0,-0.226 -1.62775,-0.4069 -3.61731,-0.4069 h -3.61725 z m 92.69275,23.78356 c 0,0.2261 -0.76868,0.4522 -1.71823,0.4522 -1.03992,0 -1.98947,0.3165 -2.44165,0.7687 -0.3617,0.45214 -1.08518,1.13036 -1.53735,1.49206 -0.49738,0.36174 -1.5373,2.39648 -2.39643,4.43124 -1.22082,3.02945 -1.44692,4.1598 -1.22082,5.6068 0.45215,2.6677 0.31653,13.5647 -0.18085,17.9959 -1.31128,12.02746 -1.85385,14.1526 -4.25035,18.0864 -0.9947,1.62777 -2.07988,3.1199 -2.35118,3.3912 -1.53736,1.3113 -1.44696,2.1251 0.36168,5.60674 0.9948,1.89911 1.9895,3.48169 2.21562,3.57206 0.22604,0.0905 0.40692,0.3617 0.40692,0.58786 0,0.54254 3.39121,5.92327 4.70248,7.46054 2.48685,2.9391 3.93378,4.2504 4.74768,4.2504 0.45218,0 0.94953,0.31646 1.13038,0.6782 0.13568,0.3618 0.45218,0.67824 0.72348,0.67824 0.27127,0 0.81387,0.31653 1.17559,0.67822 0.40695,0.36174 1.17563,0.67828 1.76343,0.67828 0.58782,0 1.1304,0.27131 1.22086,0.54261 0.13559,0.40692 0.40689,0.36169 0.99472,-0.22605 0.45214,-0.407 0.99478,-0.76876 1.22082,-0.76876 0.63306,0 1.76342,-1.1756 1.76342,-1.76337 0,-0.27137 0.40696,-0.49737 0.90434,-0.49737 0.49734,0 0.90433,-0.22614 0.90433,-0.45216 0,-0.67828 3.16513,-0.54264 3.88855,0.18086 0.72345,0.76867 0.81393,2.84856 0.18084,4.612 -0.85906,2.17034 -0.27126,2.8034 2.89384,3.1199 3.1199,0.3617 6.60156,-0.0452 6.60156,-0.7234 0,-0.2713 0.36174,-0.8139 0.76864,-1.3113 0.45218,-0.45215 1.31125,-1.80866 1.94434,-3.0295 0.63299,-1.1756 1.26602,-2.2608 1.40166,-2.3964 0.54258,-0.407 7.1893,-11.304 7.1893,-11.71094 0,-0.22616 0.18092,-0.49736 0.3618,-0.58786 0.22604,-0.0904 1.67297,-2.2156 3.25552,-4.7929 1.58255,-2.532 3.02945,-4.612 3.25555,-4.612 0.18085,0 0.36173,-0.3165 0.36173,-0.6782 0,-0.36176 0.99475,-2.2608 2.2608,-4.20514 1.22083,-1.94426 2.2608,-3.7981 2.2608,-4.0694 0,-0.22616 0.13563,-0.5426 0.3165,-0.63306 0.22608,-0.0905 1.3565,-2.17035 2.5773,-4.6572 1.2209,-2.4869 2.35126,-4.6121 2.53214,-4.7477 0.67819,-0.54255 1.53732,-3.48163 1.40166,-4.8381 -0.13564,-1.4921 1.0852,-4.65727 1.80867,-4.65727 0.63299,0 0.45213,-0.8139 -0.36177,-1.80859 -0.4521,-0.49744 -1.1304,-0.90434 -1.58254,-0.90434 -0.45216,0 -0.81386,-0.2261 -0.81386,-0.45217 0,-0.2713 -0.31654,-0.45213 -0.67824,-0.45213 -0.36176,0 -0.67828,-0.1809 -0.67828,-0.4522 0,-0.2261 -0.4974,-0.5426 -1.13038,-0.7235 -0.63302,-0.1356 -1.13042,-0.49735 -1.13042,-0.72336 0,-0.54264 -1.1756,-1.71824 -1.7182,-1.71824 -0.2713,0 -0.54258,-0.31655 -0.72348,-0.67825 -0.1356,-0.36175 -0.45215,-0.67825 -0.72342,-0.67825 -0.2713,0 -0.94953,-0.4974 -1.53733,-1.1304 -0.58782,-0.63306 -1.17565,-1.1304 -1.3565,-1.1304 -0.40695,0 -2.98428,-2.8034 -2.98428,-3.2555 0,-0.22616 -0.31647,-0.3618 -0.72342,-0.3618 -0.36173,0 -0.99472,-0.3165 -1.35651,-0.6782 -0.40689,-0.3617 -1.08517,-0.6782 -1.58254,-0.6782 -0.45216,0 -0.8591,-0.22616 -0.8591,-0.4522 0,-0.2713 -0.40693,-0.4522 -0.90434,-0.4522 -0.49734,0 -0.90433,-0.18083 -0.90433,-0.4069 0,-0.2261 -0.72343,-0.5426 -1.58255,-0.6782 -0.85908,-0.18094 -1.58255,-0.49747 -1.58255,-0.72354 0,-0.22606 -0.49737,-0.5426 -1.13037,-0.72346 -0.63302,-0.1356 -1.13043,-0.4521 -1.13043,-0.6782 0,-0.2261 -0.49733,-0.407 -1.1304,-0.407 -0.633,0 -1.13037,-0.18084 -1.13037,-0.45214 0,-0.22602 -0.76868,-0.54256 -1.7182,-0.72339 -0.90433,-0.18091 -1.80866,-0.5426 -1.9895,-0.81391 -0.18091,-0.31652 -2.35123,-0.5426 -5.33551,-0.63306 -2.71299,-0.0904 -4.97373,-0.3617 -4.97373,-0.5878 0,-0.2261 -2.26082,-0.40694 -4.97375,-0.40694 -3.02951,0 -4.97379,0.18084 -4.97379,0.45214 z m -106.84534,23.55756 c -0.49737,0.3617 -1.13037,3.02948 -1.67297,7.41541 -0.27136,1.7182 -0.63306,4.612 -0.90436,6.37543 -0.27124,1.7634 -0.31646,3.6173 -0.0904,4.2051 l 0.36169,0.9948 0.49738,-1.04 c 0.81391,-1.53735 1.94427,-7.8224 1.94427,-10.4901 0,-1.3113 0.22608,-2.57734 0.49738,-2.8486 0.2713,-0.2713 0.5426,-2.07993 0.67828,-4.0243 0.13562,-3.0746 0.0904,-3.39114 -0.31652,-2.21555 -0.31653,0.72352 -0.72345,1.49215 -0.99476,1.62781 z m -25.90875,74.74201 c -0.13568,0.36173 -0.18085,1.03997 -0.0452,1.49213 0.18091,0.72344 0.27131,0.6782 0.54261,-0.2261 0.18084,-0.5426 0.49737,-0.99473 0.72345,-0.99473 0.22613,0 0.40698,-0.22607 0.40698,-0.45217 0,-0.67826 -1.3565,-0.5426 -1.62781,0.18087 z"
             id="path2"
             inkscape:connector-curvature="0" />
        </g>
      </g>
      <g
         style="fill:#000000;fill-opacity:1;stroke-linejoin:miter"
         id="g10">
        <path
           d="m 432.67288,645.86395 q -0.67453,0.82019 1.33286,1.14315 l 4.16858,1.03916 q 6.15898,0.66639 6.94851,1.23734 1.53299,0.454 9.10233,4.7286 0.98639,0.50776 1.81412,0.747 0.0416,0.124 4.91122,0.86836 l 6.8292,0.34644 15.10647,8.2484 q 3.6001,2.04567 5.45253,3.4127 3.4413,2.2704 7.04106,7.5679 0.30167,0.70905 0.37504,1.90485 0.003,7.32045 0.229,7.94061 0.28363,2.08354 1.20397,3.32398 0.60251,0.8045 1.27848,1.24226 0.44,0.35924 2.31785,1.06236 l 0.97554,0.81844 6.73766,8.6904 q 0.8759,1.0184 1.57762,1.49873 0.68445,0.4801 1.81485,0.75397 0.20929,0.0737 0.56409,0.41754 1.01784,1.04156 2.84474,4.19306 l 0.8768,-0.49683 q -1.7119,-2.96503 -2.7159,-4.09973 -0.5327,-0.89344 -2.76504,-1.57324 -0.55176,-0.388 -1.03726,-0.92 l -7.17017,-9.1706 q -0.64655,-0.9601 -3.50156,-2.0474 -0.56287,-0.37525 -1.05497,-1.0779 -0.72795,-1.0377 -0.95946,-2.8864 -0.19147,-0.46893 -0.20267,-7.71497 -0.10254,-1.47137 -0.45175,-2.24817 -3.68954,-5.54206 -7.35056,-7.97716 -2.03582,-1.49116 -5.57566,-3.4947 l -15.24535,-8.3145 q -0.47021,-0.1909 -1.41223,-0.2285 l -5.72736,-0.18576 q -0.40161,0.0169 -4.44562,-0.76379 -0.6332,-0.1358 -1.70321,-0.65631 -8.2609,-4.66524 -9.82617,-5.02088 -0.65894,-0.45066 -6.63803,-1.11686 -1.70777,-0.34334 -5.25855,-1.34005 -0.11206,-0.0695 -0.43555,0.12365"
           id="path8"
           inkscape:connector-curvature="0" />
      </g>
      <g
         style="fill:#000000;fill-opacity:1;stroke-linejoin:miter"
         id="g14">
        <path
           d="m 367.85468,623.62177 q 0.0188,0.43438 0.43627,0.60083 2.55579,0.758 4.59229,1.0325 1.36886,0.1957 3.18292,0.2522 9.95614,-0.075 10.98554,0.1623 3.5402,0.3225 7.5032,1.65486 1.21076,0.38344 2.30744,1.297 l 5.2525,5.13524 q 1.48584,1.3263 2.47439,1.7704 0.67497,0.3199 1.47641,0.40204 0.28136,0.0825 2.23319,-0.095 0.39147,-0.0183 0.85751,0.1626 0.37363,0.161 0.86572,0.5426 2.43451,2.0907 2.9105,2.35255 0.98938,0.67375 1.99597,0.94281 0.63711,0.18284 1.73135,0.21104 l 3.82025,-0.13383 q 0.81632,0.0213 1.60599,0.29893 0.75665,0.2813 1.6535,0.9236 4.0835,3.27466 4.94338,3.7354 1.61143,1.0279 3.84444,2.0307 3.11886,1.40986 7.8544,2.9555 l 0.39666,-1.1997 q -6.35437,-2.0839 -9.7497,-3.8926 -1.77117,-0.75253 -6.76156,-4.80655 -0.81897,-0.56475 -1.59114,-0.87735 -0.75,-0.3248 -1.91405,-0.4208 -0.21591,-0.0967 -4.09645,0.1188 -0.94697,-0.0245 -1.45912,-0.1811 -0.77044,-0.20955 -1.61426,-0.7888 -0.22302,-0.0809 -2.84195,-2.3076 -0.67687,-0.50396 -1.10571,-0.6737 -0.48336,-0.2206 -1.20606,-0.258 -2.17178,0.1748 -2.37054,0.0855 -0.6347,-0.099 -1.07806,-0.3414 -0.87637,-0.4431 -2.19287,-1.64784 l -5.14728,-5.03636 q -1.16315,-0.9943 -2.70938,-1.5113 -4.05957,-1.367 -7.76157,-1.70906 -1.24072,-0.12504 -3.09924,-0.16101 -9.0163,0.0662 -9.42841,-0.0803 -2.52345,-0.1367 -6.11142,-1.17846 -0.60968,0.0318 -0.68301,0.58126"
           id="path12"
           inkscape:connector-curvature="0" />
      </g>
      <g
         style="fill:#000000;fill-opacity:1;stroke-linejoin:miter"
         id="g18">
        <path
           d="m 380.70245,625.4257 q -6.99157,-0.9771 -15.28567,-2.44487 -1.79148,-0.26413 -24.44934,-4.57366 -5.10987,-0.94217 -9.7554,-1.72247 -9.95096,-1.67 -17.30854,-2.4538 -9.7175,-1.0434 -19.74756,-1.00873 -6.02834,-0.01 -16.93527,0.54983 -0.57892,-0.007 -0.71187,0.5468 0.009,0.6939 0.65206,0.7253 12.55731,-0.66275 19.97049,-0.5393 8.48657,0.10683 16.69851,0.99325 7.63754,0.82025 17.7985,2.54235 3.39117,0.4884 32.08731,5.92566 7.50299,1.34357 13.50256,2.23444 l 3.26221,0.47406 0.22113,-1.24266"
           id="path16"
           inkscape:connector-curvature="0" />
      </g>
      <g
         style="fill:#000000;fill-opacity:1;stroke-linejoin:miter"
         id="g22">
        <path
           d="m 175.48517,659.7499 q -0.56114,-0.13357 -0.78587,0.268 -4.42472,10.45286 -6.90857,14.6394 -1.13393,2.14556 -6.62377,10.0779 l -1.50412,2.5036 q -1.42448,2.5444 -2.57768,6.02383 l -4.46031,15.82013 -5.32416,15.8097 -3.53143,13.76954 q -6.24788,19.5789 -6.54961,21.6389 -2.37328,9.5686 -0.61803,16.7102 l 1.18973,-0.2246 q -1.72961,-7.58545 1.00395,-17.54724 0.14882,-1.19966 6.17139,-20.15332 l 3.58113,-13.93964 5.32277,-15.80066 4.4106,-15.66168 q 1.16542,-3.56626 2.79047,-6.36576 l 6.54464,-9.91103 q 1.50434,-2.37237 3.04529,-5.41347 1.91313,-3.73717 5.17665,-11.4279 0.0947,-0.6761 -0.34996,-0.8147"
           id="path20"
           inkscape:connector-curvature="0" />
      </g>
      <g
         style="fill:#000000;fill-opacity:1;stroke-linejoin:miter"
         id="g26">
        <path
           d="m 137.9578,620.6928 q -0.54278,0.0491 -0.63956,0.5239 0.0276,21.96726 -0.83097,29.0471 -0.32567,3.062 -0.87985,5.8343 l -2.22439,9.7017 q -0.15288,0.3675 -0.72437,7.1946 -0.18799,1.53996 -0.43935,2.6917 -0.51783,2.4841 -1.65843,4.9833 l -5.69073,11.0426 q -1.53855,3.1858 -2.53695,5.9238 -2.36823,6.4681 -3.79897,15.3814 -0.95784,5.90736 -1.55691,13.2798 -0.23505,1.656 -1.34271,23.24365 -0.32389,4.93785 -0.70941,8.33395 -1.07741,9.75644 -3.75257,21.54087 l 1.20495,0.31738 q 2.62076,-11.34485 3.74109,-21.12905 0.43659,-3.76194 0.75293,-8.5528 1.16005,-22.80356 1.52462,-25.4748 0.80739,-8.9025 2.1225,-15.4433 1.42797,-7.1998 3.55268,-12.4908 0.97033,-2.9119 7.30659,-14.72145 1.00649,-2.0957 1.56358,-3.9555 0.54183,-1.75215 0.87303,-4.03165 0.17978,-1.01755 0.59041,-6.1996 0.0902,-0.94197 0.30391,-2.1591 2.37036,-9.6804 2.53768,-11.4223 0.96582,-5.51236 1.20193,-16.9261 0.11888,-5.0496 0.12792,-15.82357 -0.0581,-0.68473 -0.60707,-0.70963"
           id="path24"
           inkscape:connector-curvature="0" />
      </g>
      <g
         style="fill:#000000;fill-opacity:1;stroke-linejoin:miter"
         id="g30">
        <path
           d="m 138.54654,646.7489 q -0.45381,0.0439 -0.58926,0.476 l -2.02137,10.1805 1.23917,0.25775 2.0249,-10.19928 q 0.0333,-0.28377 -0.15818,-0.50623 -0.20205,-0.21364 -0.4894,-0.20894"
           id="path28"
           inkscape:connector-curvature="0" />
      </g>
      <g
         style="fill:#000000;fill-opacity:1;stroke-linejoin:miter"
         id="g34">
        <path
           d="m 468.3087,709.33026 q -0.005,0.36974 0.2675,0.56234 l 5.50635,3.5822 q 6.10867,3.93346 9.66555,5.76324 5.67246,2.99486 9.78855,3.1889 3.75275,0.19966 5.8299,-0.90814 0.45718,-0.23236 0.97665,-0.57385 2.64743,-1.88715 2.95657,-2.00915 0.0128,-0.0926 3.07425,-1.37855 0.79761,-0.39085 1.57248,-0.90552 2.04352,-1.36633 5.29447,-4.31933 l -0.83637,-0.9395 q -3.39007,3.0454 -5.21664,4.24046 -0.71063,0.46619 -1.42023,0.80921 -2.88748,1.20413 -3.03201,1.35583 -0.46369,0.2096 -3.15277,2.1287 -0.59037,0.3819 -1.06327,0.5928 -1.70181,0.8028 -4.92838,0.64 -3.29043,-0.17784 -7.51098,-2.18206 -4.44418,-1.95324 -16.85565,-10.17054 -0.71399,-0.2374 -0.91527,0.5136"
           id="path32"
           inkscape:connector-curvature="0" />
      </g>
      <g
         style="fill:#000000;fill-opacity:1;stroke-linejoin:miter"
         id="g38">
        <path
           d="m 434.69647,694.73157 q -0.50729,0.55263 0.006,1.01739 5.06577,3.19094 9.04624,6.20114 3.58673,2.6507 14.48288,11.4837 1.40555,1.1047 2.25178,1.6519 3.3376,2.26916 6.2882,0.6084 0.7157,-0.1176 2.18045,-4.158 l 1.30939,-3.4095 q 0.0978,-0.4268 -0.2645,-0.6978 -0.55249,-0.29196 -0.91584,0.25077 l -2.15535,5.50263 q -0.47919,1.1552 -0.73435,1.3531 -1.45154,0.98515 -3.39902,0.3361 -1.10861,-0.3775 -3.01348,-1.8447 -13.83222,-11.19064 -17.48917,-13.72104 -2.79323,-2.01971 -6.8772,-4.60596 -0.27969,-0.19396 -0.68121,0.008"
           id="path36"
           inkscape:connector-curvature="0" />
      </g>
      <g
         style="fill:#000000;fill-opacity:1;stroke-linejoin:miter"
         id="g42">
        <path
           d="m 414.02393,687.4049 q -0.60309,-0.14825 -0.82523,0.4684 -2.14987,14.74987 -3.28244,17.5117 -0.40918,1.1492 -0.93556,1.93763 l -2.2938,2.90927 q -0.64756,0.89096 -1.53834,2.3777 -1.64764,2.74544 -4.27469,7.86147 l 1.08975,0.59918 q 3.06288,-5.83795 4.27832,-7.8194 0.86956,-1.45065 1.49323,-2.30495 l 2.3179,-2.94663 q 0.59383,-0.89267 1.05703,-2.18777 0.9969,-2.6909 2.33555,-11.19364 l 1.0032,-6.54309 q 0.0441,-0.43557 -0.40435,-0.66242"
           id="path40"
           inkscape:connector-curvature="0" />
      </g>
      <g
         style="fill:#000000;fill-opacity:1;stroke-linejoin:miter"
         id="g46">
        <path
           d="m 381.56995,707.60815 q -20.98765,0.79371 -33.63703,11.34275 -8.13009,6.3982 -18.77472,19.4266 -6.49234,7.8923 -16.33566,21.6781 l 0.96448,0.7149 q 21.89218,-30.755 35.05918,-40.9245 6.31066,-4.9191 12.98095,-7.3628 6.93222,-2.72124 19.72711,-3.67485 0.80829,-0.41235 0.0974,-1.16445"
           id="path44"
           inkscape:connector-curvature="0" />
      </g>
      <g
         style="fill:#000000;fill-opacity:1;stroke-linejoin:miter"
         id="g50">
        <path
           d="m 379.496,706.1122 q -0.24508,-0.1097 -0.4513,-0.0466 l -23.012,5.9878 0.29512,1.2271 23.06631,-5.9963 q 0.38895,-0.1387 0.44627,-0.5427 0.0178,-0.42595 -0.33655,-0.6253"
           id="path48"
           inkscape:connector-curvature="0" />
      </g>
      <g
         style="fill:#000000;fill-opacity:1;stroke-linejoin:miter"
         id="g54">
        <path
           d="m 333.05908,704.97906 q -3.93274,-5.4472 -5.2333,-6.38126 -2.7374,-1.58443 -4.077,-2.648 l -8.55088,-6.91654 q -2.57693,-2.0155 -4.98864,-3.6723 -5.04624,-3.474 -9.71079,-5.52636 -6.09539,-2.6873 -13.79495,-3.5347 -3.89422,-0.446 -8.93272,-0.49607 -3.4814,-0.0406 -9.52812,0.14247 -0.81903,-0.0214 -0.90258,0.1517 -0.59852,0.8412 0.37426,1.1304 14.17556,-0.53297 21.07696,0.6237 6.28986,0.9548 11.22888,3.1571 5.2603,2.3019 11.36533,6.73537 2.1575,1.45693 11.44174,9.09803 1.38873,1.10705 4.4519,2.94713 1.27085,1.11951 4.73325,5.90577 l 1.01408,-0.69263"
           id="path52"
           inkscape:connector-curvature="0" />
      </g>
      <g
         style="fill:#000000;fill-opacity:1;stroke-linejoin:miter"
         id="g58">
        <path
           d="m 318.3189,690.9142 -10.04507,-7.6018 q -0.4888,-0.27676 -0.86367,0.1367 -0.30124,0.46014 0.0935,0.8684 l 10.04274,7.602 0.7712,-1.00355"
           id="path56"
           inkscape:connector-curvature="0" />
      </g>
    </g>
  </g>
</svg>
