<?xml version="1.0" encoding="UTF-8" standalone="no"?>
<svg
   xmlns:dc="http://purl.org/dc/elements/1.1/"
   xmlns:cc="http://creativecommons.org/ns#"
   xmlns:rdf="http://www.w3.org/1999/02/22-rdf-syntax-ns#"
   xmlns:svg="http://www.w3.org/2000/svg"
   xmlns="http://www.w3.org/2000/svg"
   xmlns:sodipodi="http://sodipodi.sourceforge.net/DTD/sodipodi-0.dtd"
   xmlns:inkscape="http://www.inkscape.org/namespaces/inkscape"
   version="1.1"
   width="87.712296"
   height="145.74506"
   viewBox="0 0 87.712296 145.74506"
   id="svg7"
   sodipodi:docname="two men shaking hands.svg"
   inkscape:version="0.92.4 (5da689c313, 2019-01-14)">
  <metadata
     id="metadata13">
    <rdf:RDF>
      <cc:Work
         rdf:about="">
        <dc:format>image/svg+xml</dc:format>
        <dc:type
           rdf:resource="http://purl.org/dc/dcmitype/StillImage" />
        <dc:title></dc:title>
      </cc:Work>
    </rdf:RDF>
  </metadata>
  <defs
     id="defs11" />
  <sodipodi:namedview
     pagecolor="#ffffff"
     bordercolor="#666666"
     borderopacity="1"
     objecttolerance="10"
     gridtolerance="10"
     guidetolerance="10"
     inkscape:pageopacity="0"
     inkscape:pageshadow="2"
     inkscape:window-width="1920"
     inkscape:window-height="1048"
     id="namedview9"
     showgrid="false"
     fit-margin-top="0"
     fit-margin-left="0"
     fit-margin-right="0"
     fit-margin-bottom="0"
     inkscape:zoom="3.8688525"
     inkscape:cx="-46.961938"
     inkscape:cy="87.399721"
     inkscape:window-x="0"
     inkscape:window-y="0"
     inkscape:window-maximized="1"
     inkscape:current-layer="svg7" />
  <g
     id="layer1"
     transform="translate(-252.5909,-380.11141)">
    <g
       style="fill:#000000;fill-opacity:1;stroke-linejoin:miter"
       id="g4">
      <path
         d="m 316.8189,380.1808 c -0.0983,0.0478 -0.56792,0.0757 -1.03466,0.0506 -0.67889,-0.0366 -0.88269,-0.005 -1.0722,0.15485 -0.12244,0.0998 -0.26544,0.18781 -0.31854,0.18494 -0.0531,-0.003 -0.3161,0.14251 -0.58118,0.31963 -0.26552,0.18787 -0.67884,0.357 -0.91449,0.38685 -0.23566,0.0298 -0.50659,0.12158 -0.5954,0.19128 -0.0889,0.0697 -0.33753,0.1413 -0.54073,0.16217 -1.08,0.10132 -2.03618,0.27307 -2.2456,0.41083 -0.13188,0.0779 -0.36675,0.2887 -0.51494,0.47217 -0.14819,0.18347 -0.383,0.39423 -0.50421,0.47284 -0.13245,0.0886 -0.39191,0.36188 -0.56482,0.60779 -0.3681,0.51211 -0.39606,1.03189 -0.0601,1.50753 0.0988,0.14362 0.17268,0.3498 0.16694,0.45581 -0.006,0.11677 0.08,0.29157 0.19146,0.39333 0.2527,0.24767 0.23383,0.5977 -0.0958,1.97356 -0.1488,0.58777 -0.33996,1.56684 -0.41565,2.17981 -0.15333,1.06623 -0.1455,1.11987 0.0741,1.38708 0.26984,0.32309 0.27967,0.92995 0.0185,1.23502 -0.0906,0.1015 -0.17402,0.26727 -0.17859,0.35217 -0.005,0.0848 -0.0903,0.29296 -0.19549,0.46814 -0.35089,0.58752 -0.51422,1.2489 -0.38178,1.55402 0.18152,0.38208 0.58258,0.6378 1.05988,0.6635 0.3288,0.0178 0.43268,0.0659 0.4765,0.23853 0.0256,0.11835 0.0946,0.21784 0.14771,0.22071 0.0423,0.002 0.1098,0.13354 0.1336,0.28386 0.0338,0.1614 0.17377,0.3285 0.37079,0.42433 0.16571,0.0834 0.27776,0.17457 0.2337,0.20404 -0.10124,0.10089 0.10029,1.29279 0.26038,1.4823 0.0797,0.10003 0.1178,0.37873 0.093,0.64331 -0.0754,0.80452 -0.0238,1.42429 0.14685,1.61435 0.28979,0.34547 0.80932,0.57574 1.02771,0.4704 0.11963,-0.0467 0.91806,-0.0568 1.80911,-0.009 1.32605,0.0717 1.61078,0.11903 1.75177,0.26489 0.28033,0.32361 0.44354,0.65161 0.44873,0.94977 0.002,0.15973 0.0376,0.28931 0.08,0.29157 0.0424,0.002 0.16053,0.1789 0.27636,0.39794 0.21217,0.40509 0.25177,0.85401 0.0768,0.94036 -0.0548,0.0289 -0.14673,0.35377 -0.20856,0.71217 -0.0631,0.37958 -0.18979,0.7558 -0.30215,0.86676 -0.11243,0.11097 -0.20984,0.33967 -0.22962,0.50891 -0.0559,0.44379 -0.45379,1.11376 -0.89099,1.52643 -0.20178,0.19123 -0.50702,0.52583 -0.65759,0.75177 -0.1604,0.21478 -0.51167,0.61078 -0.78113,0.87274 -0.69556,0.66462 -0.87781,0.88872 -1.08112,1.30342 -0.10632,0.19634 -0.28492,0.5485 -0.41418,0.77556 -0.11932,0.23822 -0.24484,0.59302 -0.28806,0.80354 -0.0327,0.21102 -0.12072,0.46163 -0.18005,0.57546 -0.0587,0.10314 -0.16229,0.64014 -0.2345,1.18951 -0.0616,0.54987 -0.22203,1.55183 -0.35357,2.21503 -0.13153,0.6631 -0.27164,1.879 -0.31571,2.69577 -0.0441,0.81683 -0.11438,1.52576 -0.14959,1.58777 -0.0453,0.0507 -0.1009,0.29248 -0.12409,0.52526 -0.26764,2.98563 -0.38197,3.72422 -0.5852,4.13883 -0.12983,0.23767 -0.23475,0.60431 -0.24567,0.80585 -0.0115,0.21216 -0.063,0.37958 -0.1267,0.37622 -0.053,-0.003 -0.1341,0.12036 -0.1852,0.27722 -0.1599,0.59778 -0.5739,1.17108 -0.81786,1.15796 -0.0742,-0.004 -0.14014,0.0349 -0.14246,0.0774 -0.003,0.053 -0.20238,0.20185 -0.45495,0.34778 l -0.45033,0.26295 -2.13225,-0.11506 c -1.71785,-0.10346 -2.18295,-0.16058 -2.33567,-0.28584 -0.15283,-0.12523 -0.51123,-0.18718 -1.44476,-0.23754 -0.74262,-0.0402 -1.27057,-0.1112 -1.30957,-0.17718 -0.039,-0.0659 -0.34695,-0.27405 -0.69785,-0.47382 -0.9295,-0.51831 -1.3513,-0.7857 -1.45935,-0.95116 -0.16765,-0.24305 -0.76287,-0.25392 -1.12665,-0.0182 -0.27563,0.17658 -0.43646,0.1997 -0.93273,0.13037 -0.72852,-0.10315 -1.17081,0.0113 -2.0286,0.52881 -1.51715,0.90735 -1.94885,1.02234 -2.54693,0.67096 -0.19587,-0.117 -0.79468,-0.25574 -1.47077,-0.34534 -0.63354,-0.0874 -1.23377,-0.205 -1.32629,-0.26318 -0.0927,-0.0582 -0.61902,-0.16107 -1.16828,-0.23328 -0.54873,-0.0828 -1.11642,-0.20919 -1.26095,-0.29154 -0.14392,-0.0928 -0.47992,-0.1748 -0.74505,-0.18908 -0.297,-0.0161 -0.58955,-0.11706 -0.78425,-0.25519 -0.16333,-0.12585 -0.3916,-0.23393 -0.48705,-0.23907 -0.0955,-0.005 -0.2394,-0.098 -0.30793,-0.20813 -0.0685,-0.11005 -0.28614,-0.21753 -0.48712,-0.23901 -0.20032,-0.0322 -0.41028,-0.0861 -0.47101,-0.14252 -0.0608,-0.0565 -0.3219,-0.14496 -0.57422,-0.20117 -0.25232,-0.0562 -0.61786,-0.18233 -0.80482,-0.26685 -0.18627,-0.0951 -0.5542,-0.17895 -0.80883,-0.19275 -0.25457,-0.0137 -0.73737,-0.1355 -1.09173,-0.2716 l -0.62449,-0.25721 0.0229,-1.60516 c 0.005,-0.88276 0.0408,-2.13623 0.0653,-2.78386 0.11187,-2.27064 0.0732,-2.5387 -0.5909,-3.63844 -0.32262,-0.52808 -0.6245,-1.04436 -0.68237,-1.15386 -0.13421,-0.27327 -0.56603,-0.94557 -0.64746,-1.0138 -0.0301,-0.0336 -0.12701,-0.209 -0.21337,-0.38398 -0.0857,-0.18536 -0.33198,-0.54974 -0.55103,-0.82757 -0.22961,-0.27832 -0.4068,-0.54322 -0.40454,-0.5857 0.006,-0.10608 -0.38538,-0.7442 -0.55768,-0.90245 -0.30328,-0.29304 -0.81055,-1.34163 -0.79388,-1.64924 0.01,-0.18036 -0.0532,-0.39656 -0.13397,-0.47536 -0.0809,-0.0788 -0.14594,-0.2525 -0.13788,-0.4011 0.007,-0.1379 -0.0614,-0.43946 -0.16662,-0.6579 -0.0946,-0.2179 -0.25502,-0.599 -0.34846,-0.83808 -0.1781,-0.4458 -0.85828,-1.64215 -1.07844,-1.8988 -0.0702,-0.0783 -0.12646,-0.21955 -0.12133,-0.31502 0.005,-0.0848 -0.0806,-0.281 -0.18921,-0.43578 -0.15766,-0.23192 -0.18866,-0.44642 -0.1503,-1.1571 0.0258,-0.47742 0.0868,-1.01672 0.12774,-1.18469 l 0.0809,-0.31483 1.58454,0.011 c 1.65881,0.0152 1.99168,-0.0414 2.49248,-0.4505 0.3561,-0.2893 0.3713,-0.37359 0.1631,-0.8529 -0.11353,-0.26148 -0.13044,-0.53905 -0.07,-1.06769 0.0682,-0.47504 0.0535,-0.79492 -0.0327,-0.96979 -0.19092,-0.40393 -0.138,-0.79474 0.1825,-1.21367 0.15997,-0.20405 0.29101,-0.46296 0.29675,-0.56904 0.007,-0.13794 0.22808,-0.28566 0.71753,-0.48256 0.69605,-0.2816 0.97565,-0.5324 0.7608,-0.69304 -0.0619,-0.0353 -0.13879,-0.18836 -0.17315,-0.33923 -0.0783,-0.32331 -0.8183,-1.78888 -0.93268,-1.83753 -0.11382,-0.0593 -0.0649,-0.76947 0.0412,-0.76373 0.053,0.003 0.19891,-0.13831 0.34655,-0.3111 0.23883,-0.28503 0.24115,-0.32751 0.10181,-0.50517 -0.0898,-0.11128 -0.15375,-0.30623 -0.14685,-0.4335 0.007,-0.12725 -0.0536,-0.38585 -0.13995,-0.56078 -0.22763,-0.51224 -0.4766,-1.81302 -0.44626,-2.37527 0.0264,-0.48792 0.0499,-0.52925 0.98901,-1.37213 l 0.97277,-0.87299 -0.5454,-0.54023 c -0.30273,-0.30352 -0.6084,-0.55413 -0.68262,-0.55804 -0.0743,-0.004 -0.38618,-0.13794 -0.67518,-0.30243 -0.38274,-0.20153 -0.57512,-0.3822 -0.66863,-0.62127 -0.0645,-0.1843 -0.22394,-0.38443 -0.34887,-0.43376 -0.46705,-0.21672 -0.96882,-0.38213 -1.128,-0.39074 -0.0954,-0.005 -0.2187,-0.0863 -0.2884,-0.17511 -0.0697,-0.0889 -0.28844,-0.17523 -0.5006,-0.18665 -0.20147,-0.0109 -0.4621,-0.1101 -0.563,-0.21123 -0.3328,-0.3371 -2.19753,-0.48037 -5.0636,-0.40117 -2.7812,0.0839 -3.30446,0.11952 -3.31075,0.23616 -0.007,0.13794 -0.94662,0.58722 -1.19065,0.57404 -0.1167,-0.006 -0.23558,0.0298 -0.27025,0.0811 -0.0348,0.0513 -0.33025,0.20564 -0.6673,0.33637 -0.47931,0.20807 -0.60175,0.30787 -0.6131,0.52005 -0.008,0.14856 -0.0897,0.28248 -0.17639,0.3097 -0.087,0.0379 -0.1665,0.12933 -0.17053,0.20355 -0.005,0.0848 -0.084,0.17633 -0.17053,0.20361 -0.22736,0.0728 -0.62177,0.67914 -0.63782,0.9762 -0.008,0.1485 -0.11902,0.42975 -0.24768,0.6463 -0.1281,0.20582 -0.24194,0.5401 -0.25226,0.73102 -0.012,0.22278 -0.10834,0.4303 -0.24194,0.54016 -0.21125,0.16944 -0.2293,0.30676 -0.31147,2.02582 -0.0676,1.25167 -0.0566,1.83749 0.0176,1.84146 0.0637,0.003 0.0831,0.0364 0.0491,0.0772 -0.0442,0.0296 -0.006,0.11656 0.0857,0.18547 0.0814,0.0682 0.15766,0.23193 0.16145,0.35973 -0.008,0.1379 0.0599,0.26924 0.12243,0.29396 0.0725,0.0358 0.14882,0.19946 0.18146,0.38208 0.0327,0.18268 0.12012,0.3363 0.20502,0.34094 0.0848,0.005 0.14337,0.10339 0.13702,0.22009 -0.006,0.1167 0.0628,0.21613 0.14772,0.22077 0.0848,0.005 0.174,0.1264 0.20842,0.27722 0.0237,0.15021 0.0918,0.27094 0.14478,0.27374 0.053,0.003 0.1422,0.12476 0.18725,0.27613 0.045,0.15137 0.13415,0.27313 0.19782,0.27661 0.0636,0.003 0.0958,0.19666 0.0714,0.45068 -0.0785,0.66595 0.033,1.55498 0.18872,1.62732 0.0732,0.0252 0.15668,0.25311 0.18646,0.48876 0.0198,0.2245 0.11384,0.453 0.19702,0.4894 0.0831,0.0364 0.14162,0.1353 0.13709,0.22014 -0.005,0.0848 0.0851,0.19606 0.20007,0.23426 0.375,0.14788 0.15369,0.69976 -0.27064,0.67694 -0.32885,-0.0178 -0.73857,0.27911 -0.75347,0.55499 -0.007,0.13787 -0.11725,0.39795 -0.24426,0.58257 -0.12695,0.1847 -0.2373,0.45527 -0.24585,0.6144 -0.008,0.1485 -0.0702,0.31536 -0.13732,0.37566 -0.0671,0.0601 -0.18177,0.21356 -0.26344,0.34747 -0.0706,0.12377 -0.29126,0.27149 -0.47509,0.32537 -0.1944,0.0534 -0.49103,0.22883 -0.65877,0.3794 -0.17882,0.16053 -0.71092,0.55744 -1.19704,0.89283 -0.82946,0.58287 -2.28924,2.00421 -2.30243,2.24811 -0.003,0.0637 -0.12872,0.21649 -0.28467,0.34643 -0.14465,0.11988 -0.2481,0.26331 -0.22979,0.31745 0.0295,0.0441 0.005,0.10662 -0.0505,0.14624 -0.0547,0.0289 -0.17999,0.1817 -0.27349,0.33624 -0.75938,1.25696 -0.90153,1.52582 -0.91245,1.72736 -0.007,0.12731 -0.11261,0.31317 -0.22382,0.40284 -0.20013,0.1594 -0.28643,0.37816 -0.46954,1.20873 -0.0427,0.19989 -0.1178,0.40863 -0.1637,0.46997 -0.11407,0.14264 -0.48031,6.72955 -0.37424,6.7353 0.053,0.003 0.10804,0.16546 0.14075,0.348 0.0216,0.19276 0.0585,0.4927 0.0913,0.67524 0.0226,0.17146 0.0519,0.41773 0.0456,0.53443 0.004,0.11725 0.0688,0.30151 0.15851,0.41273 0.0797,0.10002 0.18866,0.44646 0.24634,0.75804 0.2348,1.36371 0.58133,2.82941 0.70175,2.96356 0.0596,0.0778 0.11176,0.29328 0.1026,0.46302 -0.009,0.16974 0.0258,0.30988 0.0894,0.31328 0.0531,0.003 0.11822,0.17665 0.14978,0.3805 0.0209,0.20325 0.086,0.37702 0.13898,0.37983 0.0531,0.003 0.0897,0.11127 0.0829,0.23852 -0.007,0.13795 0.056,0.34345 0.13507,0.4541 0.0786,0.12128 0.14258,0.31623 0.13617,0.43293 -0.007,0.12725 0.0548,0.36468 0.13056,0.539 0.0762,0.16362 0.13671,0.42224 0.12872,0.5708 -0.008,0.1485 0.0742,0.39764 0.17169,0.56244 0.11762,0.18725 0.17041,0.39221 0.12048,0.52778 -0.0387,0.12554 -0.0232,0.23284 0.0192,0.23516 0.13794,0.007 0.36816,0.66876 0.33148,0.95404 -0.0181,0.1374 0.0555,0.35415 0.16587,0.4772 0.11981,0.1447 0.19152,0.3933 0.1795,0.61603 -0.0115,0.21217 0.0367,0.50201 0.1029,0.65447 0.0768,0.15315 0.17017,0.59437 0.22431,0.96967 0.0536,0.38587 0.1402,0.75226 0.17981,0.80763 0.0496,0.0666 0.0877,0.3452 0.0941,0.62224 0.006,0.27686 0.0474,0.50251 0.0898,0.50483 0.053,0.003 0.0613,0.0459 0.0267,0.0972 -0.0453,0.0507 -0.017,0.11608 0.0455,0.14074 0.052,0.024 0.0935,0.23902 0.0904,0.4942 -0.0132,0.24396 0.0183,0.44776 0.0607,0.45014 0.11676,0.006 0.29016,0.53692 0.27302,0.85519 -0.009,0.16968 0.0459,0.33228 0.1184,0.36811 0.0831,0.0364 0.21337,0.38385 0.2982,0.78204 0.12757,0.59204 0.12678,0.80475 0.004,1.30878 -0.0814,0.32537 -0.19898,0.92547 -0.25312,1.33746 -0.0536,0.40137 -0.17424,0.86298 -0.25708,1.018 -0.0934,0.15461 -0.19574,0.67041 -0.22503,1.21137 -0.0686,0.8793 -0.28995,1.8248 -0.46883,1.98544 -0.1454,0.13043 -0.0994,0.46271 0.0662,0.54621 0.0832,0.0362 0.1316,0.12402 0.10694,0.18658 -0.10797,0.22821 -0.18854,6.05386 -0.0882,6.16568 0.0602,0.0671 0.0763,0.55731 0.0471,1.09833 -0.0402,0.74249 -0.007,1.11663 0.13971,1.55017 0.15454,0.487 0.17632,0.87116 0.126,2.59196 -0.0278,1.1049 -0.0615,2.12447 -0.0684,2.25167 0.003,0.13849 0.0505,0.24743 0.10346,0.25036 0.0637,0.003 0.0792,0.11067 0.0405,0.23621 -0.0493,0.12494 -0.0266,0.29651 0.0224,0.37353 0.0596,0.0777 0.064,0.19507 0.007,0.26643 -0.104,0.15392 -0.15594,0.52355 -0.36474,3.01232 -0.11628,1.36608 -0.1203,1.83405 -0.0249,1.83911 0.0637,0.003 0.0909,0.0901 0.0523,0.21564 -0.0382,0.11499 -0.0222,0.21155 0.0203,0.21381 0.16966,0.009 0.16002,1.37048 -0.0396,5.26416 -0.11798,2.18518 -0.18286,3.97956 -0.1405,3.98186 0.13794,0.007 0.0114,3.92634 -0.3539,10.69404 -0.21699,4.02051 -0.32008,6.7171 -0.25642,6.72052 0.1272,0.007 0.0259,1.8844 -0.11658,1.96184 -0.0547,0.029 -0.12097,0.2701 -0.13525,0.53535 -0.0137,0.25458 0.0278,0.46955 0.0808,0.47235 0.0637,0.003 0.0907,0.29218 0.0713,0.65284 -0.019,0.35009 0.003,0.73431 0.0607,0.84381 0.0474,0.10895 0.0517,1.01342 0.008,2.01123 -0.0538,0.99712 -0.0555,1.81616 -0.002,1.81902 0.1167,0.006 0.15521,0.87022 0.14642,3.19956 -0.002,1.0213 0.0263,2.07599 0.0756,2.34467 0.0388,0.26794 0.0486,1.26861 -0.004,2.23395 -0.0415,0.966 -0.0443,1.80615 0.0159,1.87329 0.0491,0.0771 0.0863,0.17498 0.0734,0.21673 -0.0134,0.0524 -0.009,0.16974 0.0287,0.2569 0.0273,0.0866 0.0356,0.91687 0.0176,1.84137 -0.0285,1.31773 -0.007,1.71273 0.12378,1.84743 0.20014,0.23405 0.17694,0.4669 -0.0983,0.83506 -0.12585,0.16344 -0.23443,0.40224 -0.24017,0.5083 -0.006,0.11664 -0.10089,0.29249 -0.21326,0.40344 -0.15765,0.1617 -0.20092,0.3721 -0.22442,1.2007 -0.0203,0.57335 0.0164,1.0754 0.0861,1.16424 0.0591,0.0883 0.0768,0.15316 0.0239,0.15026 -0.053,-0.003 -0.0341,0.0406 0.0378,0.087 0.0714,0.0572 0.15491,0.28506 0.17408,0.52006 0.0304,0.22524 0.10156,0.4843 0.18237,0.56313 0.0897,0.11121 0.11041,0.51667 0.056,1.52437 -0.0664,1.2305 -0.0537,1.39073 0.12686,1.59196 0.11042,0.12314 0.30676,0.22944 0.4447,0.23694 0.12726,0.007 0.33594,0.0818 0.43744,0.17237 0.11212,0.0912 0.53131,0.20959 0.92148,0.27337 0.39026,0.0635 0.70386,0.16571 0.70105,0.21876 -0.004,0.0743 0.21815,0.0969 0.59228,0.0638 0.61927,-0.0411 1.50171,0.16616 1.88044,0.44196 0.11267,0.0805 0.26837,0.1527 0.36383,0.15795 0.0848,0.005 0.27063,0.11029 0.41284,0.23505 0.14221,0.12463 0.39166,0.2339 0.55078,0.2425 0.16974,0.009 0.43085,0.0979 0.57483,0.19054 0.15509,0.083 0.67865,0.23889 1.17377,0.32936 0.49566,0.0801 1.20123,0.2138 1.58023,0.28746 1.51553,0.30544 6.97592,0.45124 8.44519,0.23274 1.13646,-0.162 2.16534,-1.2873 2.05731,-2.24006 -0.0431,-0.38524 -0.30603,-0.83557 -0.50757,-0.8465 -0.0636,-0.003 -0.18573,-0.10584 -0.28552,-0.22814 -0.0993,-0.1331 -0.29621,-0.2288 -0.50836,-0.24036 -0.19092,-0.0102 -0.44156,-0.0984 -0.54313,-0.18894 -0.12207,-0.1024 -0.43692,-0.1832 -0.79757,-0.2026 -0.38184,-0.0208 -0.7173,-0.1133 -0.97504,-0.26557 -0.20586,-0.12803 -0.45526,-0.23736 -0.54016,-0.24183 -0.0848,-0.005 -0.1568,-0.0511 -0.15338,-0.11474 0.003,-0.0531 -0.14935,-0.1889 -0.32507,-0.2835 -0.69233,-0.37786 -0.90711,-0.53836 -0.89855,-0.69756 0.004,-0.0742 -0.0245,-0.1396 -0.0675,-0.13136 -0.0541,0.0185 -0.35211,-0.17844 -0.66888,-0.41904 -0.45014,-0.33285 -0.59003,-0.4999 -0.57971,-0.6909 0.0133,-0.244 0.035,-0.25334 0.89477,-0.21764 1.83692,0.0673 5.95078,0.12994 7.8876,0.11749 2.19208,-0.009 3.26191,-0.12185 3.92738,-0.42635 0.22906,-0.1046 0.48882,-0.1863 0.57366,-0.1817 0.3396,0.0184 1.21912,-0.5085 1.87989,-1.1219 0.3919,-0.36184 0.71887,-0.7059 0.7218,-0.75894 0.003,-0.0531 -0.055,-0.16259 -0.13593,-0.24139 -0.0696,-0.0888 -0.15422,-0.29547 -0.18695,-0.47817 -0.0326,-0.18266 -0.19031,-0.41453 -0.38391,-0.5739 -0.31738,-0.2299 -0.4541,-0.2586 -1.9292,-0.3277 -0.86986,-0.0469 -2.29358,-0.0813 -3.16571,-0.0858 -1.70239,0.004 -2.14447,-0.084 -2.55762,-0.51049 -0.24206,-0.2472 -0.29229,-0.69666 -0.0801,-0.68536 0.0743,0.004 0.26147,-0.11353 0.4397,-0.2635 0.30132,-0.2603 0.302,-0.27093 0.13763,-0.57763 -0.0863,-0.17487 -0.26868,-0.34424 -0.39423,-0.38294 -0.12555,-0.0388 -0.24774,-0.14105 -0.2749,-0.2276 -0.0374,-0.0978 -0.2254,-0.16119 -0.586,-0.18066 -0.29706,-0.0161 -0.52753,-0.0817 -0.5241,-0.14533 0.003,-0.053 -0.0384,-0.0765 -0.10377,-0.0481 -0.0548,0.029 -0.24347,-0.0237 -0.40796,-0.12843 -0.17577,-0.0947 -0.39453,-0.18103 -0.50061,-0.18665 -0.21216,-0.0115 -0.73086,-0.84808 -0.71371,-1.16632 0.006,-0.10602 -0.0582,-0.3009 -0.13733,-0.41168 -0.0786,-0.12128 -0.14197,-0.32678 -0.13452,-0.46466 0.0149,-0.27588 -0.48514,-0.8667 -0.869,-1.047 -0.30138,-0.1333 -0.29144,-0.51568 0.0151,-0.87158 0.40821,-0.46735 0.35138,-1.77893 -0.11718,-2.55968 -0.21564,-0.34138 -0.23596,-0.5552 -0.22919,-1.86342 10e-4,-0.80844 -0.0434,-1.75772 -0.10931,-2.11233 -0.0659,-0.35475 -0.10614,-0.79309 -0.0969,-0.96265 0.01,-0.18036 -0.0402,-0.43847 -0.10583,-0.60156 -0.0769,-0.15314 -0.1523,-0.52954 -0.16754,-0.83887 -0.0151,-0.30937 -0.0834,-0.6217 -0.13251,-0.69873 -0.0496,-0.0665 -0.11725,-0.38934 -0.14252,-0.70984 -0.0147,-0.31994 -0.0978,-0.75006 -0.16119,-0.95562 -0.15634,-0.45528 -0.0515,-2.79023 0.12741,-2.95075 0.0672,-0.0602 0.17572,-0.29901 0.23015,-0.51947 0.0651,-0.21991 0.19123,-0.58551 0.2992,-0.81366 0.0975,-0.22864 0.193,-0.61706 0.21625,-0.84997 0.0132,-0.24403 0.0962,-0.60126 0.19141,-0.7876 0.0851,-0.19745 0.20471,-0.63783 0.26544,-0.97503 0.0614,-0.3478 0.15393,-0.6833 0.22162,-0.7541 0.0564,-0.0608 0.14783,-0.37506 0.20698,-0.6803 0.0489,-0.31652 0.1538,-0.68335 0.23607,-0.82788 0.0823,-0.14442 0.18713,-0.51104 0.23621,-0.82769 0.059,-0.30523 0.15045,-0.61945 0.21814,-0.69037 0.0676,-0.0707 0.16302,-0.45923 0.21606,-0.84998 0.0642,-0.40094 0.18,-0.96905 0.26972,-1.25152 0.0903,-0.29296 0.22232,-0.96668 0.2946,-1.51606 0.0616,-0.54986 0.16454,-1.07617 0.23442,-1.18957 0.0588,-0.10321 0.18402,-0.64966 0.26795,-1.21961 0.0834,-0.55932 0.20269,-1.19116 0.27723,-1.38934 0.0639,-0.19868 0.1679,-0.74622 0.23552,-1.21075 0.0676,-0.46433 0.19803,-1.10623 0.30008,-1.41996 0.10205,-0.31367 0.1938,-0.82989 0.21155,-1.15881 0.0177,-0.3288 0.1178,-0.80212 0.21692,-1.0628 0.0986,-0.25006 0.25373,-0.95446 0.3399,-1.56684 0.0969,-0.61175 0.23078,-1.31732 0.29813,-1.57965 0.0791,-0.28307 0.26184,-2.8797 0.4666,-6.4751 0.27314,-5.05993 0.34645,-6.02417 0.47957,-6.12329 0.0889,-0.0696 0.19751,-0.30848 0.25253,-0.53968 0.0556,-0.24163 0.1682,-0.55474 0.26105,-0.69866 0.21112,-0.36096 0.38005,-3.09656 0.20568,-3.41454 -0.0685,-0.11006 -0.0941,-0.22853 -0.0711,-0.2591 0.033,-0.0195 1.25232,0.0569 2.70317,0.1778 2.96565,0.2453 2.69698,0.2946 3.2118,-0.5713 0.36387,-0.6292 0.51804,-1.5146 0.32767,-1.92914 -0.0764,-0.16376 -0.13742,-0.41174 -0.13052,-0.53894 0.0172,-0.31836 -0.43842,-1.14074 -1.0365,-1.88574 -0.28992,-0.34552 -0.52667,-0.68811 -0.52385,-0.74121 0.003,-0.053 -0.0551,-0.16254 -0.1365,-0.23077 -0.0814,-0.0682 -0.2468,-0.35376 -0.38097,-0.6269 -0.39203,-0.81915 -0.48785,-1.0158 -0.61773,-1.1718 -0.0703,-0.0783 -0.12867,-0.1772 -0.1264,-0.2196 0.002,-0.0424 -0.1047,-0.22908 -0.24397,-0.4068 -0.12823,-0.18776 -0.27701,-0.3874 -0.32723,-0.44325 -0.039,-0.0659 -0.10694,-0.18665 -0.13416,-0.2732 -0.0267,-0.0972 -0.29962,-0.55877 -0.60382,-1.03271 -0.3042,-0.47374 -0.54706,-0.90186 -0.54419,-0.95489 0.003,-0.053 -0.10181,-0.28205 -0.21711,-0.51172 -0.52404,-0.93256 -1.40362,-2.96955 -1.39038,-3.21357 0.008,-0.14849 -0.0525,-0.4071 -0.12878,-0.5708 -0.0757,-0.17431 -0.13562,-0.44348 -0.12756,-0.59198 0.008,-0.14856 -0.0547,-0.36468 -0.13343,-0.48596 -0.079,-0.11059 -0.14239,-0.31622 -0.13557,-0.44348 0.0206,-0.38196 0.32222,-0.45081 1.2494,-0.28357 0.46326,0.0889 1.55072,0.24329 2.41773,0.3432 2.00807,0.24689 2.90337,0.41211 3.18177,0.57617 0.11327,0.07 0.68032,0.20694 1.25033,0.29093 0.5805,0.0845 1.27497,0.22851 1.55792,0.30755 0.50232,0.15473 0.50232,0.15473 0.82819,-0.16809 0.23602,-0.23193 0.33116,-0.41827 0.34722,-0.71527 0.0126,-0.2334 0.0889,-0.46332 0.18836,-0.53246 0.0888,-0.0697 0.17224,-0.23536 0.18024,-0.38386 0.0171,-0.31836 0.25561,-0.40124 0.74731,-0.24701 0.2724,0.0786 0.41393,0.21387 0.52875,0.45417 0.23596,0.5553 0.4602,0.7376 1.01958,0.82116 0.38014,0.0524 0.5146,0.12348 0.5077,0.25074 -0.002,0.24456 0.70068,0.81445 0.90686,0.74053 0.35804,-0.12963 0.72994,-0.12017 0.871,0.0257 0.0808,0.0788 0.28674,0.20703 0.46366,0.28039 0.2807,0.12153 0.40912,0.10724 0.85553,-0.0814 0.29382,-0.12243 0.7138,-0.2168 0.92595,-0.20532 0.2546,0.0137 0.43837,-0.0402 0.54066,-0.16228 0.14886,-0.19416 1.10126,-0.4938 1.47241,-0.47377 0.25458,0.0137 0.32916,0.20923 0.29706,0.80329 -0.0131,0.24402 0.0262,0.50146 0.0964,0.57971 0.17059,0.19 1.84771,0.25934 2.84399,0.13227 0.45016,-0.0607 0.9733,-0.0963 1.17429,-0.0749 0.81525,0.076 3.19097,0.0128 4.01629,-0.1023 0.48261,-0.0696 0.94104,-0.0873 1.02423,-0.051 0.12493,0.0493 0.1095,0.72931 -0.10382,4.48389 -0.14185,2.42859 -0.21878,4.44587 -0.18815,4.46875 0.062,0.0353 0.18184,0.96729 0.1719,1.34972 0.005,0.0961 0.0309,0.21443 0.0816,0.25978 0.0402,0.0447 0.0112,1.17096 -0.0598,2.48626 -0.10596,1.96246 -0.0999,2.44146 0.0116,2.54328 0.16223,0.14698 0.0864,1.35571 -0.20795,3.45698 -0.0845,0.5805 -0.11261,1.10033 -0.0842,1.1657 0.0396,0.0554 0.0671,0.72705 0.069,1.48254 10e-4,0.76599 0.0192,1.41602 0.0482,1.47076 0.0295,0.0441 0.1864,0.0952 0.3667,0.10487 l 0.30761,0.0166 -0.079,1.46386 c -0.0647,1.1988 -0.0423,1.57237 0.0999,2.09073 0.10901,0.34626 0.16034,0.7746 0.12934,0.95374 -0.0332,0.22162 0.01,0.41546 0.14,0.56085 0.12934,0.16655 0.16254,0.33855 0.12482,0.64502 -0.0457,0.25287 -0.003,0.63818 0.10743,0.96333 0.10122,0.29277 0.19223,0.77635 0.21859,1.0756 0.0269,0.28877 0.0935,0.63282 0.15088,0.75288 0.0467,0.11957 0.11268,0.47424 0.12726,0.79412 0.0259,0.30994 0.0829,0.63227 0.14258,0.7099 0.0592,0.0885 0.14462,0.47602 0.17594,0.88197 0.0319,0.39533 0.10723,0.77178 0.1574,0.82769 0.0602,0.067 0.0837,0.41938 0.0643,0.78004 -0.0229,0.4243 0.0224,0.7672 0.10933,0.93145 0.0779,0.13195 0.1666,0.65802 0.19212,1.16998 0.0255,0.51215 0.0845,0.99402 0.13428,1.06055 0.0596,0.0777 0.1192,0.54902 0.13477,1.0498 0.0161,0.4903 0.0734,1.00402 0.1308,1.12415 0.0573,0.12024 0.11297,0.66583 0.12616,1.20905 0.0233,0.5545 0.0706,1.057 0.12017,1.12352 0.15772,0.23194 0.16352,1.70045 0.006,2.2558 -0.0909,0.30366 -0.19851,1.51063 -0.27408,2.91084 -0.12713,2.35498 -0.27465,3.31516 -0.79864,5.13803 -0.0768,0.2406 -0.15076,0.82177 -0.17596,1.28845 -0.0252,0.46674 -0.12548,1.14221 -0.23048,1.50898 -0.1565,0.53405 -0.25872,1.8371 -0.53304,6.91833 -0.31531,6.03627 -0.60889,9.30783 -0.85426,9.51797 -0.0565,0.0608 -0.10577,0.1858 -0.1121,0.30255 -0.006,0.10608 -0.15962,0.39557 -0.34248,0.6305 -0.19415,0.24475 -0.38232,0.57495 -0.4339,0.74237 -0.0516,0.16742 -0.15962,0.39563 -0.24024,0.50836 -0.0699,0.11322 -0.17852,0.35192 -0.23132,0.54052 -0.0415,0.1788 -0.15906,0.3852 -0.24798,0.4548 -0.0883,0.0592 -0.16102,0.2254 -0.16901,0.3738 -0.0104,0.19106 -0.10034,0.28194 -0.32715,0.34414 -0.17316,0.0546 -0.34972,0.17272 -0.38678,0.26641 -0.0369,0.0937 -0.2439,0.38055 -0.45964,0.63489 -0.2159,0.25436 -0.4023,0.55292 -0.4192,0.66896 -0.006,0.1167 -0.20984,0.3397 -0.45234,0.49693 -0.2431,0.16767 -0.44323,0.32717 -0.44604,0.38013 -0.002,0.0423 -0.0789,0.0809 -0.16376,0.0763 -0.0955,-0.005 -0.42944,0.0725 -0.76466,0.17138 -0.33452,0.0883 -0.87065,0.16576 -1.2,0.15866 -0.32947,-0.007 -0.71588,0.0571 -0.84772,0.13504 -0.14251,0.0775 -0.31458,0.11072 -0.37708,0.086 -0.17687,-0.0732 -2.12063,0.0663 -2.80868,0.19926 -0.63452,0.1253 -1.29104,0.4623 -1.53207,0.7897 -0.21875,0.3074 -0.29125,1.0588 -0.12293,1.2913 0.0697,0.089 0.0974,0.1649 0.0656,0.1632 -0.18036,-0.01 0.92326,1.02865 1.23576,1.1519 0.49944,0.2078 7.3191,0.5974 7.5516,0.42906 0.0882,-0.0591 0.49596,-0.12216 0.90075,-0.13226 0.4154,-0.009 0.8985,-0.0897 1.07281,-0.1655 0.18561,-0.0856 0.48658,-0.14383 0.67749,-0.1335 0.19092,0.0104 0.48085,-0.0379 0.64447,-0.1141 0.16315,-0.0657 0.50782,-0.1429 0.77528,-0.17095 0.2675,-0.0281 0.67565,-0.10185 0.9137,-0.17415 0.23796,-0.0722 0.70806,-0.1107 1.0587,-0.10234 0.33948,0.0183 0.8091,-0.009 1.03583,-0.0717 0.32343,-0.0782 0.61987,-0.0517 1.30359,0.0918 0.71558,0.1449 1.02264,0.1721 1.56934,0.0951 0.37544,-0.054 1.16554,-0.10713 1.76181,-0.11743 0.71359,-0.0147 1.17433,-0.075 1.36093,-0.18195 0.15375,-0.0874 0.34912,-0.16205 0.4447,-0.1568 0.13782,0.007 0.17218,-0.23541 0.25293,-1.73095 0.0705,-1.3049 0.1264,-1.7486 0.23419,-1.7748 0.0866,-0.0273 0.17828,-0.54344 0.29053,-1.8355 0.0998,-1.0584 0.25079,-2.08215 0.38092,-2.52203 0.29956,-1.0158 0.62451,-2.3067 0.72259,-2.93987 0.0478,-0.2953 0.13644,-0.55653 0.19114,-0.5854 0.066,-0.0391 0.172,-0.42687 0.2497,-0.8803 0.0665,-0.44318 0.19652,-0.88294 0.26482,-0.96448 0.0788,-0.0808 0.17774,-0.5329 0.23528,-1.00862 0.047,-0.4762 0.16334,-1.05507 0.2502,-1.28438 0.0975,-0.22876 0.2259,-1.0304 0.3084,-1.77075 0.0725,-0.75129 0.19746,-1.48927 0.27973,-1.63379 0.0958,-0.19696 0.216,-1.63733 0.41387,-4.71198 l 0.2707,-4.4217 0.24396,0.0132 c 0.2334,0.0126 0.24109,0.0663 0.26062,0.8864 0.005,0.48963 0.0806,1.0683 0.15405,1.28504 0.0834,0.22786 0.14057,0.55006 0.13135,0.71991 -0.01,0.1803 0.078,0.52551 0.18212,0.76508 0.11408,0.25091 0.1769,0.46704 0.14338,0.49719 -0.0336,0.03 0.0238,0.15028 0.13416,0.27318 0.1004,0.1119 0.1845,0.32918 0.17706,0.46718 -0.007,0.13787 0.0471,0.31097 0.12842,0.37927 0.0809,0.0789 0.17666,0.27551 0.19931,0.44702 0.0227,0.17139 0.1184,0.36803 0.19927,0.44696 0.0814,0.0681 0.13593,0.24139 0.1285,0.37921 -0.007,0.12732 0.0577,0.31166 0.13786,0.40112 0.0698,0.0889 0.16554,0.28559 0.19934,0.4469 0.0238,0.15027 0.0895,0.31336 0.14075,0.34804 0.18469,0.127 0.0427,0.58745 -0.41217,1.32878 -0.23278,0.37042 -0.52998,1.73755 -0.70331,3.17499 -0.0971,0.8139 -0.24591,1.79538 -0.32067,2.19559 -0.17487,0.87359 -0.2433,1.94452 -0.12,2.02557 0.0714,0.057 0.14957,2.15705 0.0885,2.69635 -0.007,0.13794 0.0292,0.24634 0.0823,0.24915 0.0636,0.003 0.0975,0.16485 0.0871,0.35589 -0.01,0.18018 0.0161,0.49018 0.0594,0.67328 0.0938,0.43067 -0.17213,2.2037 -0.40894,2.64826 -0.0946,0.17584 -0.17084,0.4057 -0.17719,0.52234 -0.006,0.10614 -0.0896,0.28247 -0.18024,0.38397 -0.0911,0.11223 -0.17849,0.35223 -0.18826,0.53253 -0.01,0.1803 -0.10907,0.4406 -0.21191,0.5735 -0.20533,0.255 -0.21753,0.28624 -0.26116,0.6988 -0.0175,0.1267 -0.1009,0.2923 -0.1792,0.36265 -0.2688,0.25135 -0.53688,0.68375 -0.5478,0.88519 -0.006,0.11676 -0.13214,0.28021 -0.28577,0.36766 -0.15369,0.0875 -0.27777,0.2191 -0.2818,0.2933 -0.009,0.1697 -0.41993,0.488 -0.80041,0.6377 -0.17372,0.0651 -0.30672,0.1643 -0.31018,0.228 -0.003,0.053 -0.0694,0.1025 -0.14362,0.0986 -0.0743,-0.004 -0.19612,0.0851 -0.27667,0.19786 -0.0806,0.11267 -0.22351,0.20068 -0.31909,0.1955 -0.0955,-0.005 -0.38031,0.14974 -0.64588,0.33744 -0.25488,0.1884 -0.53985,0.34316 -0.62468,0.3386 -0.085,-0.005 -0.21565,0.0522 -0.28383,0.1336 -0.0682,0.0815 -0.40222,0.15917 -0.74389,0.18334 -0.33128,0.0247 -0.73954,0.0983 -0.90311,0.17462 -0.16377,0.0763 -0.43237,0.12561 -0.59143,0.117 -0.16974,-0.009 -0.49316,0.0691 -0.73279,0.17324 -0.23985,0.1039 -0.4783,0.1868 -0.54195,0.1834 -0.0637,-0.004 -0.31733,0.1636 -0.57283,0.3627 -0.36777,0.31 -0.47122,0.45333 -0.5007,0.8028 -0.0803,0.6978 -0.0613,0.7414 0.56023,1.4453 0.43086,0.49124 0.7165,0.7196 1.04036,0.8329 0.57477,0.19057 7.48554,0.4679 8.04634,0.3281 0.20503,-0.0528 0.76128,-0.10787 1.22966,-0.1144 0.46899,-0.0173 1.00397,-0.0737 1.17767,-0.1387 0.18439,-0.0644 0.58197,-0.13876 0.89137,-0.15396 0.30944,-0.0151 0.6646,-0.0917 0.79705,-0.18018 0.14245,-0.0775 0.37982,-0.13922 0.54955,-0.13006 0.15913,0.009 0.3222,-0.0569 0.3587,-0.14014 0.0469,-0.0825 0.15706,-0.15112 0.2525,-0.14606 0.0955,0.005 0.60316,-0.13763 1.14436,-0.3105 0.81287,-0.27525 1.1239,-0.3223 1.98496,-0.30766 0.61638,0.012 1.16195,-0.0436 1.41165,-0.1366 0.2279,-0.0834 0.59253,-0.13824 0.81537,-0.12628 0.22272,0.0121 0.50256,-0.0472 0.62378,-0.12586 0.11072,-0.0792 0.3374,-0.14135 0.49664,-0.1326 0.42432,0.0229 0.75244,-0.34255 0.71289,-0.7915 -0.0103,-0.2028 -0.0285,-0.8526 -0.0282,-1.4484 -0.0166,-0.8733 0.0188,-1.1373 0.17047,-1.3844 0.2457,-0.41235 0.39128,-2.71307 0.1782,-2.9054 -0.11152,-0.1017 -0.0918,-1.05815 0.067,-4.986 0.11182,-2.66426 0.16443,-5.21467 0.13501,-5.65266 -0.0403,-0.43829 -0.0745,-1.5784 -0.0759,-2.53604 -0.002,-0.94696 -0.0417,-1.78955 -0.1013,-1.86725 -0.0496,-0.0667 -0.0956,-0.79248 -0.0945,-1.60101 5e-4,-0.79784 -0.0276,-1.45899 -0.07,-1.46124 -0.10608,-0.006 -0.0983,0.0478 -0.089,-2.29218 0.007,-1.11664 -0.0282,-2.23572 -0.0776,-2.50427 -0.0387,-0.26819 -0.0729,-1.01459 -0.0703,-1.65277 0.003,-0.64888 -0.0623,-1.40768 -0.13172,-1.69883 -0.0693,-0.29083 -0.12017,-0.72979 -0.10754,-0.96313 0.0132,-0.24396 -0.0334,-0.56572 -0.0996,-0.71826 -0.0768,-0.1532 -0.14825,-0.6037 -0.16949,-0.99866 -0.0207,-0.4052 -0.0915,-0.86658 -0.16724,-1.04095 -0.0762,-0.1637 -0.13214,-0.50708 -0.11847,-0.76165 0.0138,-0.2546 -0.0337,-0.55507 -0.11243,-0.67628 -0.0679,-0.12067 -0.14564,-0.45465 -0.17254,-0.74342 -0.0164,-0.28807 -0.10358,-0.64385 -0.18158,-0.7757 -0.0775,-0.1427 -0.1391,-0.38 -0.13104,-0.52855 0.008,-0.1485 -0.0419,-0.40649 -0.11818,-0.57019 -0.0656,-0.16316 -0.15392,-0.49768 -0.18322,-0.7439 -0.0186,-0.24578 -0.11102,-0.5061 -0.19188,-0.58496 -0.0814,-0.0681 -0.13362,-0.2838 -0.1238,-0.46417 0.01,-0.18023 -0.0491,-0.47063 -0.1248,-0.64496 -0.0952,-0.20727 -0.15192,-0.73169 -0.13538,-1.43297 0.008,-0.74415 -0.0432,-1.1725 -0.14062,-1.3374 -0.078,-0.13197 -0.1391,-0.37996 -0.1294,-0.56026 0.01,-0.18034 -0.0413,-0.41711 -0.1093,-0.5379 -0.0679,-0.1206 -0.1792,-0.42456 -0.23967,-0.6831 -0.0505,-0.24744 -0.14563,-0.45478 -0.19867,-0.45758 -0.0637,-0.003 -0.0998,-0.12232 -0.0918,-0.27094 0.008,-0.14844 -0.0502,-0.44958 -0.13366,-0.67749 -0.12183,-0.30438 -0.13996,-0.95443 -0.1073,-2.73996 0.0354,-1.44513 0.005,-2.45727 -0.0585,-2.6629 -0.0739,-0.20612 -0.0877,-1.13245 -0.0428,-2.55554 0.0383,-1.49811 0.0234,-2.40308 -0.0638,-2.75893 -0.0588,-0.2904 -0.0969,-0.9627 -0.0684,-1.49315 0.0225,-0.61578 -0.0142,-1.11785 -0.10535,-1.39929 -0.17352,-0.5307 -0.13428,-1.06056 0.0945,-1.35669 0.1029,-0.13275 0.18433,-0.45813 0.20557,-0.85065 l 0.0337,-0.62579 0.95062,0.12579 c 1.60624,0.20383 2.62333,-0.11362 3.75653,-1.20147 l 0.57251,-0.55425 0.87159,0.0151 c 1.38133,0.0321 1.89569,-0.0359 2.26233,-0.32472 0.3213,-0.23796 0.33367,-0.26915 0.32788,-0.9504 -0.0112,-0.77722 -0.006,-0.6706 -0.35541,-3.8598 -0.44667,-4.14123 -0.66779,-6.15326 -0.71829,-6.4007 -0.0233,-0.16082 10e-4,-0.22332 0.0734,-0.17693 0.0514,0.0348 0.10553,0.0164 0.1084,-0.0367 0.003,-0.0636 -0.0361,-0.11895 -0.0785,-0.12121 -0.053,-0.003 -0.0921,-0.0688 -0.0986,-0.14367 -0.007,-0.0642 -0.0316,-0.59748 -0.0543,-1.16254 -0.0327,-0.57624 -0.0978,-1.14362 -0.15522,-1.26374 -0.0573,-0.12012 -0.12358,-0.6662 -0.13678,-1.20952 -0.0132,-0.5433 -0.0695,-1.0782 -0.12683,-1.19838 -0.0574,-0.12022 -0.10583,-0.60162 -0.11255,-1.07006 -0.007,-0.46846 -0.0806,-1.06818 -0.15167,-1.3274 -0.0817,-0.2597 -0.12745,-0.79412 -0.10565,-1.19726 0.0217,-0.40314 -0.0132,-0.9369 -0.085,-1.18558 -0.0711,-0.25915 -0.12444,-0.84717 -0.13111,-1.31567 -0.007,-0.46845 -0.0766,-1.14245 -0.15313,-1.49762 -0.0666,-0.34403 -0.10932,-0.93149 -0.0892,-1.30277 0.0194,-0.36066 -0.0179,-0.85206 -0.0913,-1.06878 -0.0729,-0.22733 -0.13507,-0.84768 -0.13825,-1.37986 -0.003,-0.5321 -0.066,-1.1419 -0.15,-1.35919 -0.0729,-0.22735 -0.12135,-0.70868 -0.099,-1.12243 0.0217,-0.40314 -0.0115,-0.96876 -0.0809,-1.2597 -0.0694,-0.29096 -0.1328,-0.8902 -0.15184,-1.3274 -0.0189,-0.43726 -0.0863,-0.9621 -0.16028,-1.16828 -0.0745,-0.19555 -0.11291,-0.66572 -0.093,-1.03692 0.0201,-0.37134 -0.0161,-0.8839 -0.0878,-1.13245 -0.071,-0.25915 -0.131,-0.92205 -0.1437,-1.47601 -0.0127,-0.55396 -0.0826,-1.22784 -0.1426,-1.49714 -0.0705,-0.26977 -0.10204,-0.86718 -0.0769,-1.33392 0.0146,-0.46734 -0.0181,-1.04364 -0.0903,-1.28155 -0.0723,-0.23793 -0.14624,-0.83771 -0.15117,-1.33801 -0.005,-0.48962 -0.0718,-1.03595 -0.14808,-1.19959 -0.0763,-0.1637 -0.12049,-0.52783 -0.10552,-0.80359 0.0149,-0.27582 -0.0294,-0.63989 -0.10554,-0.80359 -0.0769,-0.15307 -0.15412,-0.4978 -0.1828,-0.75465 -0.0287,-0.25688 -0.10761,-0.5697 -0.18556,-0.70152 -0.078,-0.13184 -0.1319,-0.31562 -0.1267,-0.41114 0.005,-0.0848 -0.0772,-0.3446 -0.18237,-0.56299 -0.10471,-0.22918 -0.18753,-0.46771 -0.18411,-0.53131 0.004,-0.0742 -0.0663,-0.15258 -0.14887,-0.19952 -0.0831,-0.0364 -0.15215,-0.13586 -0.14752,-0.22082 0.009,-0.16968 -0.30121,-0.72895 -0.75537,-1.38123 -0.47418,-0.67457 -2.61402,-3.01367 -2.77306,-3.02222 -0.0743,-0.004 -0.1982,-0.0746 -0.2572,-0.16285 -0.0697,-0.0888 -0.26558,-0.20574 -0.45418,-0.25853 -0.17859,-0.0415 -0.38502,-0.15907 -0.46582,-0.23792 -0.0697,-0.0889 -0.21478,-0.16058 -0.31024,-0.16571 -0.10608,-0.006 -0.29248,-0.10084 -0.43586,-0.20428 -0.2548,-0.20526 -0.64275,-0.31141 -2.1058,-0.60318 -0.57885,-0.1164 -0.96508,-0.25422 -1.07537,-0.37726 -0.10096,-0.1012 -0.26606,-0.19519 -0.37213,-0.20092 -0.21216,-0.0115 -0.81098,-0.74598 -1.368,-1.65907 -0.2924,-0.4945 -0.51726,-0.6662 -0.8667,-0.69573 -0.28636,-0.0155 -0.29588,-0.0372 -0.2672,-0.56763 0.0195,-0.36072 0.0968,-0.61185 0.22034,-0.73282 0.1236,-0.12098 0.21448,-0.42462 0.26922,-0.84723 0.0406,-0.3595 0.1496,-0.80048 0.24476,-0.98682 0.0951,-0.1864 0.18402,-0.64966 0.20868,-1.10583 0.028,-0.51977 0.0994,-0.85633 0.2135,-0.99915 0.0911,-0.11206 0.21783,-0.48819 0.26794,-0.82596 0.0613,-0.34784 0.17682,-0.71386 0.25739,-0.8266 0.24115,-0.32746 0.4049,-3.3612 0.2005,-3.7127 -0.0875,-0.15369 -0.14399,-0.48652 -0.12793,-0.78356 0.0194,-0.36067 -0.0311,-0.60805 -0.1692,-0.80702 -0.10864,-0.15485 -0.19042,-0.41455 -0.1812,-0.58428 0.02,-0.37135 -0.51246,-1.3469 -0.7848,-1.4254 -0.13562,-0.0499 -0.19348,-0.15936 -0.18213,-0.37158 0.0229,-0.42432 -0.41667,-1.15026 -0.76207,-1.25396 -0.15742,-0.0405 -0.37385,-0.16913 -0.4848,-0.2815 -0.45503,-0.43946 -1.25844,-0.92969 -1.57667,-0.9469 -0.20153,-0.0109 -0.37787,-0.0949 -0.46593,-0.23791 -0.1075,-0.17603 -0.2543,-0.21582 -0.7741,-0.24393 -0.35058,-0.008 -0.74023,-0.0825 -0.85345,-0.15252 -0.26775,-0.1634 -1.69989,-0.24073 -1.95185,-0.1054 z"
         id="path2"
         inkscape:connector-curvature="0" />
    </g>
  </g>
</svg>
