<?xml version="1.0" encoding="UTF-8" standalone="no"?>
<svg
   xmlns:dc="http://purl.org/dc/elements/1.1/"
   xmlns:cc="http://creativecommons.org/ns#"
   xmlns:rdf="http://www.w3.org/1999/02/22-rdf-syntax-ns#"
   xmlns:svg="http://www.w3.org/2000/svg"
   xmlns="http://www.w3.org/2000/svg"
   xmlns:sodipodi="http://sodipodi.sourceforge.net/DTD/sodipodi-0.dtd"
   xmlns:inkscape="http://www.inkscape.org/namespaces/inkscape"
   version="1.1"
   id="svg2"
   x="0px"
   y="0px"
   viewBox="0 0 5509.3945 4559.8926"
   enable-background="new 0 0 5000 3994.604"
   xml:space="preserve"
   sodipodi:docname="alone_other_female1.svg"
   width="5509.3945"
   height="4559.8926"
   inkscape:version="1.0.2 (e86c870879, 2021-01-15)"><metadata
   id="metadata9"><rdf:RDF><cc:Work
       rdf:about=""><dc:format>image/svg+xml</dc:format><dc:type
         rdf:resource="http://purl.org/dc/dcmitype/StillImage" /><dc:title></dc:title></cc:Work></rdf:RDF></metadata><defs
   id="defs7" /><sodipodi:namedview
   pagecolor="#ffffff"
   bordercolor="#666666"
   borderopacity="1"
   objecttolerance="10"
   gridtolerance="10"
   guidetolerance="10"
   inkscape:pageopacity="0"
   inkscape:pageshadow="2"
   inkscape:window-width="1920"
   inkscape:window-height="997"
   id="namedview5"
   showgrid="false"
   fit-margin-top="0"
   fit-margin-left="0"
   fit-margin-right="0"
   fit-margin-bottom="0"
   inkscape:zoom="0.1181594"
   inkscape:cx="2129.7291"
   inkscape:cy="2587.1158"
   inkscape:window-x="0"
   inkscape:window-y="0"
   inkscape:window-maximized="1"
   inkscape:current-layer="svg2"
   inkscape:document-rotation="0" />
<rect
   style="fill:#ffffff;stroke-width:5.66929;stroke-linecap:square;stroke-linejoin:round;stroke-dasharray:11.3386, 11.3386"
   id="rect830"
   width="5509.3945"
   height="4559.8926"
   x="0"
   y="0" /><path
   d="m 5255.9472,3209.9386 c -0.691,-1.683 -2.832,-7.422 -4.758,-12.753 -53.248,-147.426 -77.305,-167.073 -132.983,-312.704 -0.383,-1.001 -51.162,-133.142 -53.417,-133.142 -1.226,0 -1.214,-3.363 -0.01,-2.615 1.124,0.695 76.653,-54.147 76.604,-134.097 -0.02,-31.662 -23.749,-50.05 -47.415,-81.619 -28.586,-38.129 -50.79,-59.07 -71.437,-98.453 -10.781,-20.566 -105.989,-161.218 -154.738,-219.862 -18.809,-22.626 -57.376,-61.742 -93.186,-87.71 -22.76,-16.505 -34.39,-19.847 -90.785,-26.091 -81.441,-9.018 -79.716,8.635 -108.146,1.173 -14.303,-3.755 -50.589,-0.755 -65.295,8.948 -8.217,5.422 -24.055,11.438 -45.452,24.834 -26.625,16.669 -57.082,30.395 -57.082,25.726 0,0 -11.963,-14.78 -34.904,-71.349 -9.057,-22.331 -23.587,-48.768 -53.834,-97.943 -41.834,-68.014 -75.659,-140.189 -75.659,-140.189 -107.944,-167.709 38.308,21.168 -230.163,-329.521 -36.209,-48.279 -60.282,-85.106 -116.24,-141.65 -59.046,-59.663 -91.001,-77.865 -110.605,-98.5 -8.981,-9.454 -18.177,-19.329 -28.542,-27.304 -35.864,-27.598 -40.163,-21.956 -33.334,-27.952 27.862,-24.463 46.203,-78.837 35.503,-105.252 l -0.992,-2.447 c -18.523,64.495 -98.947,94.845 -147.555,54.481 -47.221,-39.211 -84.178,-144.436 -80.999,-204.00501 3.558,-66.666 113.311,-221.876 -3.742,-432.482 -18.155,-32.664 -70.037,-94.797 -70.82,-95.798 -9.987,-12.766 -43.69,-40.79999 -45.931,-39.41399 -3.722,2.299 -38.25,-34.191 -42.76,-34.191 -0.387,0 -1.594,-0.823 -2.683,-1.829 -13.208,-12.213 -32.916,-17.985 -49.418,-24.194 -122.208,-45.978 -153.549,-32.86901 -278.136,28.317 -36.471,17.911 -33.223,19.105 -45.98,10.658 -31.065,-20.57 -72.806,-34.455 -121.219,-52.268 -60.536,-22.27401 -68.66,-26.44501 -169.36,-11.75701 -72.363,10.55501 -131.317,15.15901 -216.803,98.501 -111.752,108.95 -180.758,147.684 -205.553,264.871 -7.952,37.583 -5.706,53.456 9.886,69.87 l 7.292,7.677 c 1.345,17.956 1.551,15.022 1.672,109.278 -16.081,-3.016 -21.735,1.013 -35.223,1.668 -112.549,0 -198.71,52.726 -210.99,57.765 -8.434,3.461 -17.273,7.48 -21.276,16.53 -8.579,19.394 -10.594,52.215 16.747,56.026 9.824,1.36901 8.208,5.62701 -3.306,8.71501 -13.225,3.547 -36.196,13.125 -36.196,13.125 -2.081,0 2.224,-10.136 4.322,-10.177 1.585,-0.031 1.71,-2.065 0.127,-2.065 -0.742,0 -0.922,-1.131 -0.508,-3.2 2.415,-12.08201 -6.37,-10.39301 -6.474,-16.60501 -0.164,-9.882 -16.976,-12.681 -41.862,-6.971 -11.915,2.734 -28.567,3.206 -28.567,5.397 0,0.46 -0.857,1.108 -1.904,1.44 -3.261,1.035 -10.034,8.449 -12.37,13.54101 -17.678,38.524 -1.68,33.277 -51.172,33.447 -57.12,0.197 -88.463,6.799 -125.848,1.929 -40.17,-5.232 -121.368,1.385 -161.234,-1.964 -56.858,-4.775 -67.931,5.314 -109.13,2.568 -175.894,-11.725 -151.236,2.339 -165.836,-14.814 -13.169,-15.47 -10.195,-19.014 -185.637,-29.08801 -9.663,-0.555 -73.496,-2.461 -132.51896,1.643 -22.423,1.56 -33.662,9.29501 -32.576,22.42101 0.807,9.743 14.072,14.64 42.666,15.75 34.11096,1.325 54.16796,6.443 82.98596,33.508 34.816,32.698 -76.767,84.597 -117.82396,116.097 -17.179,13.18 -28.696,33.133 -26.949,46.686 5.254,40.742 22.913,64.64 60.258,81.547 22.41896,10.149 83.29996,47.813 92.02096,56.928 25.401,26.547 -3.128,56.004 -66.619,68.784 -36.64096,7.375 -49.51896,13.891 -51.12496,25.866 -1.726,12.871 9.84,14.453 56.92396,7.789 42.16,-5.969 120.375,-10.923 165.118,-20.014 90.648,-18.417 96.146,-2.827 108.739,-26.81 5.277,-10.049 5.802,-7.906 5.184,-6.906 -1.432,2.317 79.977,4.859 104.995,3.279 51.891,-3.277 136.828,-4.056 129.682,1.874 -8.87,7.361 -7.721,41.019 1.702,49.871 13.614,12.79 79.809,23.807 99.19,27.257 23.479,4.178 39.499,0.757 58.208,29.58 84.477,130.145 114.329,27.097 286.124,74.662 191.501,53.021 122.988,29.939 171.344,146.021 18.355,44.062 13.649,45.374 24.534,88.96 33.044,132.312 9.865,124.725 52.058,279.546 13.147,48.24 4.938,54.689 24.502,110.186 10.441,29.619 24.561,62.838 28.512,67.079 7.288,7.823 9.813,18.618 4.356,18.629 -15.577,0.029 -86.843,28.3 -93.138,31.187 -70.603,32.382 -59.909,54.755 -83.866,66.8 -56.085,28.196 -91.234,67.46 -120.006,117.744 -3.476,6.074 -28.274,32.714 -32.783,38.284 -79.164,97.803 -274.98,291.239 -284.567,298.948 -118.393,95.202 -233.02,249.449 -286.396,302.439 -13.509,13.411 -28.597,25.892 -41.418,39.752 -54.13,58.521 -133.392,132.005 -135.625,126.243 -0.187,-0.482 -12.277,-5.369 -26.866,-10.859 -74.611,-28.075 -65.985,-31.193 -65.853,-42.847 0.208,-18.405 -4.419,-35.809 -11.486,-43.199 -13.374,-13.986 -76.555,-34.339 -113.37196,-36.52 -28.147,-1.667 -44.638,-2.378 -93.454,141.444 -27.456,80.892 -25.864,68.636 -34.663,107.125 -10.518,46.001 -14.968,46.392 -31.74,67.552 -8.07,10.76 -19.372,20.988 -25.672,32.856 -3.212,6.051 -10.942,17.874 -10.942,24.877 0,1.001 -1.625,2.655 -3.712,3.779 -7.575,4.079 -22.693,21.402 -34.428,39.447 -13.958,21.464 -24.652,61.976 -19.096,72.342 3.049,5.689 0.526,12.797 -23.521,66.239 -39.529,87.855 -72.201,104.271 -114.11,127.04 -41.232,22.401 -33.465,18.939 -42.85,22.398 -15.671,5.774 -80.333,36 -185.174,42.821 -105.01,6.833 -99.591,42.214 -111.961,57.456 -12.987,16.008 -9.563,63.595 6.029,83.772 21.973,28.436 14.622,21.409 99.811,65.317 78.207,40.31 186.813,53.004 232.016,52.842 206.67,-0.742 203.299,-19.798 255.034,-77.727 7.162,-8.02 25.482,-36.576 46.025,-52.069 21.511,-16.222 44.781,-34.196 77.028,-43.336 24.39596,-6.915 26.98996,-10.927 21.83396,6.534 -0.085,0.287 -28.44096,77.535 -28.44096,77.535 25.35796,24.631 47.20596,36.583 54.54896,39.297 39.497,14.599 151.613,29.186 167.883,21.468 5.143,-2.44 4.793,-5.041 6.227,-9.996 2.43,-8.398 6.626,-16.61 9.691,-24.818 23.915,-64.054 25.461,-84.969 33.502,-114.391 24.571,-89.905 81.978,-120.319 69.751,-274.782 -4.642,-58.643 -31.735,-103.717 64.759,-152.935 7.852,-4.005 20.328,-6.863 21.722,-17.027 0.483,-3.522 1.26,-4.952 3.37,-6.198 7.584,-4.48 29.846,-22.978 43.442,-28.475 62.137,-25.123 87.549,-50.75 179.052,-102.787 27.292,-15.52 44.995,-19.66 79.837,-41.094 74.472,-45.814 117.612,-40.499 246.13,-117.577 60.898,-36.524 159.599,-143.416 213.401,-231.112 38.857,-63.333 47.638,-73.637 47.638,-73.637 9.667,1.329 65.608,10.843 68.212,12.568 5.61,3.715 9.739,10.932 14.84,15.516 42.091,37.816 50.28,43.467 50.28,43.467 26.355,24.896 35.428,37.143 59.874,49.746 8.13,4.192 43.863,24.777 44.211,24.777 1.427,0 10.179,7.921 19.296,15.859 8.867,7.719 12.338,8.693 19.405,13.28 2.316,1.504 49.029,28.914 66.826,43.319 9.431,7.633 37.263,26.066 45.393,30.063 3.011,1.481 1.423,3.584 3.252,3.584 0.01,0 149.291,89.677 155.587,93.997 15.981,10.966 113.581,63.571 114.593,64.156 115.049,66.54 42.432,28.77 156.607,95.378 157.305,91.77 85.677,40.169 122.939,75.323 18.221,17.19 33.889,33.737 43.636,46.085 15.579,19.734 31.099,31.645 29.263,64.275 -2.153,38.258 35.932,79.432 65.581,62.699 l 5.373,-3.032 c 0,22.78 8.424,18.566 0.668,30.128 -4.632,6.904 -19.948,33.668 -22.264,38.903 -7.81,17.657 -6.702,54.136 17.24,64.039 2.655,32.35 3.937,39.783 -27.787,102.186 -125.339,246.549 -284.479,139.148 -368.975,194.858 -27.966,18.438 -37.625,47.738 -35.965,80.027 0.861,16.741 6.229,27.71 22.988,33.445 10.633,3.639 447.834,54.746 615.719,-14.891 58.667,-24.334 98.796,-70.78 166.683,-105.199 22.629,-11.473 23.1,-15.998 20.469,2.786 -9.007,64.3 -8.925,50.783 -1.733,57.462 2.662,2.472 40.128,22.25 48.198,29.859 6.106,5.757 4.376,2.801 11.072,8.288 l 4.382,3.591 c 30.984,0.1 23.973,-2.336 40.777,-3.577 45.025,-3.326 47.669,-1.417 109.563,-8.381 7.853,-0.884 28.453,2.322 28.453,-9.166 0,0 3.811,-14.206 8.705,-44.211 33.179,-203.436 65.517,-333.106 8.517,-426.055 -2.904,-4.735 -5.096,-8.783 -4.874,-8.996 0.643,-0.616 22.41,2.123 39.684,4.992 192.112,31.91 369.722,-105.773 443.662,-205.869 2.409,-3.26 5.033,-6.179 5.832,-6.486 0.799,-0.306 1.452,-1.221 1.452,-2.033 0,-1.661 7.102,-10.809 21.257,-27.383 44.283,-51.847 35.475,-57.276 90.689,-158.137 11.278,-20.601 42.45,-63.12 58.106,-89.526 14.024,-23.655 6.835,-16.256 17.243,34.766 18.697,91.652 32.788,123.839 62.581,142.958 29.725,19.075 114.475,17.553 172.77,-3.102 28.936,-10.252 86.527,-23.065 126.244,-38.148 80.059,-30.404 121.781,-51.039 146.129,-60.742 31.288,-12.468 44.991,-27.67 65.061,-34.156 27.509,-8.89 45.955,-30.18 60.328,-69.627 3.667,-10.049 4.946,-33.836 2.187,-40.558 z m -2463.818,-1629.192 c -20.339,80.22 -68.595,212.107 -78.793,228.425 -32.045,56.267 -84.004,135.907 -88.203,138.736 -21.295,14.352 -227.233,-229.736 -241.928,-247.902 -19.05,-23.548 -10.302,-46.012 -17.838,-89.296 -6.339,-36.396 -7.436,-53.503 -10.593,-55.27 -1.209,-0.676 -1.376,-3.096 -0.928,-13.454 0.716,-16.578 -3.183,-47.866 -7.513,-60.285 -2.973,-8.527 2.976,-3.104 11.106,-30.659 3.37,-11.422 2.946,-6.545 12.481,-15.357 10.485,-9.69 0.355,0.783 54.331,-6.57 14.078,-1.918 33.859,-10.476 41.664,-18.025 6.903,-6.677 19.55,-33.299 16.666,-35.082 -0.81,-0.501 0.16,-2.713 3.066,-6.993 5.311,-7.82 10.268,-19.804 10.268,-24.843 0.01,-7.465 1.812,-0.138 16.556,-8.029 6.22,-3.329 17.594,-2.06 29.836,-5.492 7.01,-1.966 10.242,-1.189 17.151,-0.325 -3.198,3.064 -8.242,8.292 -14.845,12.018 -27.051,15.267 -26.728,56.812 0.425,54.527 29.917,-2.517 26.709,32.062 30.437,41.868 0.568,1.493 2.002,6.708 3.188,11.59 11.245,46.283 59.214,54.583 127.936,22.134 36.053,-17.024 72.847,-63.11 125.546,-76.241 10.383,-2.587 20.865,-8.168 31.467,-3.314 7.214,3.303 6.509,7.129 0.861,11.704 -30.925,25.048 -62.597,137.69 -72.344,176.135 z m 887.806,1199.083 c -0.82,2.584 -0.962,2.573 -6.557,-0.507 -14.65,-8.063 -94.953,-10.083 -153.946,-59.216 -6.834,-5.692 10.896,4.627 -183.732,-97.73 -155.117,-81.99 -204.391,-112.943 -345.22,-160.432 -10.134,-3.377 19.531,-25.774 46.015,-53.067 45.702,-47.097 107.258,-132.779 126.131,-158.286 2.018,-2.727 9.3,-17.535 13.316,-17.535 0.656,0 6.198,3.834 12.314,8.521 50.519,38.712 112.905,55.55 173.798,69.806 49.839,25.252 59.387,24.129 95.174,35.955 18.228,6.025 22.601,5.183 26.233,8.462 4.217,3.808 9.09,6.682 14.336,11.738 l 3.571,3.441 c 0.263,34.186 -0.748,49.704 9.718,76.837 5.569,14.437 8.102,22.165 9.76,23.535 2.85,2.354 10.695,21.848 15.203,28.433 2.083,3.042 19.126,31.524 19.738,32.526 38.563,63.046 44.777,78.056 59.81,144.473 12.431,54.922 36.535,84.186 57.681,96.431 8.074,4.676 7.465,4.069 6.657,6.615 z"
   id="path2"
   inkscape:connector-curvature="0" />
</svg>
