<?xml version="1.0" encoding="UTF-8" standalone="no"?>
<svg
   xmlns:dc="http://purl.org/dc/elements/1.1/"
   xmlns:cc="http://creativecommons.org/ns#"
   xmlns:rdf="http://www.w3.org/1999/02/22-rdf-syntax-ns#"
   xmlns:svg="http://www.w3.org/2000/svg"
   xmlns="http://www.w3.org/2000/svg"
   xmlns:sodipodi="http://sodipodi.sourceforge.net/DTD/sodipodi-0.dtd"
   xmlns:inkscape="http://www.inkscape.org/namespaces/inkscape"
   version="1.1"
   width="929.32867"
   height="1938.1622"
   viewBox="0 0 929.3287 1938.1622"
   id="svg7"
   sodipodi:docname="alone_standing_male15.svg"
   inkscape:version="1.0.2 (e86c870879, 2021-01-15)">
  <metadata
     id="metadata13">
    <rdf:RDF>
      <cc:Work
         rdf:about="">
        <dc:format>image/svg+xml</dc:format>
        <dc:type
           rdf:resource="http://purl.org/dc/dcmitype/StillImage" />
        <dc:title></dc:title>
      </cc:Work>
    </rdf:RDF>
  </metadata>
  <defs
     id="defs11" />
  <sodipodi:namedview
     pagecolor="#ffffff"
     bordercolor="#666666"
     borderopacity="1"
     objecttolerance="10"
     gridtolerance="10"
     guidetolerance="10"
     inkscape:pageopacity="0"
     inkscape:pageshadow="2"
     inkscape:window-width="1920"
     inkscape:window-height="997"
     id="namedview9"
     showgrid="false"
     fit-margin-top="0"
     fit-margin-left="0"
     fit-margin-right="0"
     fit-margin-bottom="0"
     inkscape:zoom="0.24180328"
     inkscape:cx="174.28574"
     inkscape:cy="294.92066"
     inkscape:window-x="0"
     inkscape:window-y="0"
     inkscape:window-maximized="1"
     inkscape:current-layer="svg7"
     inkscape:document-rotation="0" />
  <rect
     style="fill:#ffffff;stroke-width:5.66929;stroke-linecap:square;stroke-linejoin:round;stroke-dasharray:11.3386, 11.3386"
     id="rect832"
     width="929.32867"
     height="1938.1622"
     x="0"
     y="0" />
  <g
     id="layer1"
     transform="matrix(5.1119365,0,0,5.1119365,-874.45157,-1869.429)">
    <g
       style="fill:#000000;fill-opacity:1;stroke-linejoin:miter"
       id="g4">
      <path
         d="m 249.33662,607.1168 q 10.66863,21.02205 15.28628,26.0013 -0.0437,1.0501 -0.7412,2.6861 -4.3187,9.56573 -6.15694,14.5309 -2.07184,5.4156 -3.95062,11.0649 -2.0584,5.4535 -8.44736,29.8467 0.1178,0.2801 0.23402,0.5483 h -0.002 q -1.1272,3.0672 -2.24094,7.0575 -1.71261,6.42564 -1.17178,9.21446 0.10139,0.63424 0.33789,1.16919 v 0 q -2.93466,-3.84935 -6.30943,-9.28901 h -0.002 q 0.18851,-0.25204 0.25864,-0.49469 0.64717,-0.90069 -1.46594,-5.10601 1.3704,-1.84168 1.36807,-5.70948 l -1.42359,-21.979 q -0.20579,-4.58066 0.27039,-7.98616 l 8.70516,-37.1109 q 1.95538,-7.41423 5.45217,-14.4441 z M 230.25871,378.1312 q -4.77833,0 -9.48935,2.76223 -4.76779,2.91263 -7.05328,7.44635 -2.73467,5.47254 -1.57985,14.76508 v 0 q -0.0863,-0.0161 -0.17409,-0.0161 -0.0774,0 -0.15587,0.0125 -2.12312,1.05562 -1.46141,6.55327 0.51054,4.71259 4.49102,5.29166 l 0.45846,13.14831 v 0 l -2.26849,-0.2135 -0.1756,-0.0163 -2.3844,7.44615 q -15.44012,7.83134 -21.55128,17.00276 -6.80541,9.13821 -6.82158,17.08646 -0.04,1.90738 0.29606,3.68318 2.19124,6.8606 1.95945,8.05433 l -0.98056,14.36677 q -0.0849,4.5483 0.40896,9.0504 1.23415,10.63087 3.79105,16.2367 1.96447,4.39844 5.41075,5.76014 2.0865,0.85461 4.8313,0.85461 4.04349,0 9.51558,-1.85461 2.44966,2.33313 3.0291,4.55651 0.56144,1.80561 0.22143,4.75715 -3.26939,15.88616 -2.81334,17.32135 -0.0935,5.45642 1.92577,12.23985 0.10397,-0.11583 0.2059,-0.22783 h 0.002 q 3.57564,18.77263 4.22637,38.53073 l -3.10044,72.7896 q -0.31915,8.33745 0.0548,12.8865 0.12702,3.5767 1.76775,6.99 l -0.21921,7.1503 q 0.11866,2.0207 0.67278,3.031 0.19095,0.4419 0.64407,1.07585 h -0.002 l -8.8e-4,0.0166 -0.63807,3.7417 q -0.0215,1.26464 0.96965,2.9143 2.2052,3.5421 8.80631,9.3306 5.71606,4.91506 9.53499,6.4559 2.00974,0.8649 4.43248,1.29296 8.10052,1.30914 10.01103,1.3368 0.55542,0.0323 1.07732,0.0323 3.65698,0 5.6683,-1.58539 3.40419,-2.75895 1.51601,-5.93285 -0.54819,-0.9396 -1.5716,-2.123 -6.83938,-7.27294 -10.09402,-11.3827 h 0.002 q 0.86172,0.687 2.19197,1.03 1.11554,0.3063 2.96782,0.4485 l 8.34564,0.2933 q 2.12005,0.12073 3.7533,0.41407 1.68035,0.30493 3.42445,0.84823 7.25584,2.536 7.86748,2.61356 2.6192,0.71558 5.42624,1.09694 2.58261,0.34386 4.9154,0.34386 6.61948,0 11.22745,-2.7688 2.67823,-2.10086 1.51355,-4.35633 -0.38977,-0.41893 -1.95175,-1.29253 -9.89774,-5.1988 -12.49503,-6.80726 -4.03567,-2.39974 -6.38879,-4.28747 -4.6182,-3.70343 -5.78278,-7.95594 h -0.003 q 0.233,-0.0621 0.43596,-0.0621 0.27692,0 0.49796,0.11566 2.52646,-10.56016 7.24738,-22.41466 1.288,-3.8336 11.8074,-24.8158 1.71917,-3.71546 2.57104,-6.25153 2.5582,-7.19457 1.87064,-15.41147 -0.60996,-8.693 -5.39108,-26.147 -5.69947,-21.2285 -10.65888,-36.1542 h -0.003 q 0.23032,-0.082 0.46439,-0.1678 l -3.11566,-16.2232 -1.85089,-21.98105 h 0.003 q 2.61614,0.98945 3.63796,0.98945 0.20181,0 0.34144,-0.0386 1.25573,-0.0162 2.97594,-2.3074 2.02292,0.33305 3.50528,0.33305 2.08968,0 3.10508,-0.66195 h -0.003 q 9.68087,-1.9376 14.37582,-2.30875 2.63019,0.43091 3.70657,0.81311 0.53992,0.11494 2.59728,1.29604 0.3387,0.16246 0.73466,0.2786 0.75287,0.2008 1.56421,0.2008 0.27543,0 0.55759,-0.0231 1.04156,-0.0774 2.01776,-0.4401 0.29865,-0.0566 2.53088,-1.27983 0.4058,-0.19437 0.7528,-0.29633 0.22575,-0.15069 2.18556,-0.1911 0.44156,-0.0642 0.70364,-0.24294 1.0785,-0.37907 1.3519,-5.96534 3.84216,-0.36666 5.13053,-0.95016 1.4801,-0.64826 1.39877,-1.8198 -0.16315,-1.06457 -1.6371,-1.48788 -0.81877,-0.24982 -2.5152,-0.34152 h -0.003 l 15.21612,-47.7305 -25.75305,-6.81254 -0.0395,-0.0103 -17.12473,54.0712 -7.8219,0.72271 v 0 l -0.0711,-1.69427 q -2.61248,-3.39371 -8.71942,-6.26016 -0.0165,-6.33985 -1.0238,-9.68116 l -8.07568,-29.9002 q -1.53901,-5.26978 -2.97206,-6.9115 -1.2014,-1.54974 -3.98882,-3.15842 -12.51251,-6.45917 -16.353,-8.97076 l 0.56293,-3.73908 -6.52669,-6.02456 -0.43355,-0.0408 h -0.002 q 0.003,-0.097 0.006,-0.1949 2.34132,-2.93408 3.12196,-4.81793 1.03468,-2.13177 2.75473,-8.66544 1.17314,-1.61359 1.60555,-2.9744 1.13876,-4.0072 0.77726,-8.08753 -0.0932,-0.64397 -0.25967,-0.91158 h -0.002 q 0.50964,-4.85867 0.24342,-7.76505 -0.35364,-4.77757 -2.30136,-8.65521 -5.04111,-9.52582 -13.69012,-10.06329 l -0.0526,-0.002 q -0.18892,-0.004 -0.37775,-0.004 z"
         id="path2"
         inkscape:connector-curvature="0" />
    </g>
  </g>
</svg>
