<?xml version='1.0' encoding='utf-8'?>
<svg xmlns="http://www.w3.org/2000/svg" version="1.1" width="600px" height="976px" viewBox="0 0 600 976"> <g id="layer1"> <g> <g style="fill:rgb(0,0,0); fill-opacity:1.0; stroke-linejoin: miter"> <path d="M55.86151,63.60675L52.297485,95.96774L97.63937,94.691345L103.57013,57.3161L55.897156,63.60205"/> </g> <g style="fill:rgb(0,0,0); fill-opacity:1.0; stroke-linejoin: miter"> <path d="M433.99063,846.2124L398.88425,849.40857L391.86978,877.3817L427.1863,882.5918L433.9814,846.26184"/> </g> <g style="fill:rgb(0,0,0); fill-opacity:1.0; stroke-linejoin: miter"> <path d="M398.132,826.589L380.4294,832.65466L382.80154,850.08984Q391.5389,850.23474,395.00955,849.40796Q399.13022,848.52576,400.5792,846.25366Q402.0588,843.9945,401.48245,839.45483Q401.0665,835.5829,398.1332,826.59314"/> </g> <g style="fill:rgb(0,0,0); fill-opacity:1.0; stroke-linejoin: miter"> <path d="M382.1472,35.86554Q371.7756,35.581665,364.05154,44.783264Q362.48947,46.531494,361.1345,48.354065L354.02524,58.14966Q352.5762,60.141876,351.75858,61.759705Q349.49893,65.83743,350.92807,70.684326Q352.00552,74.28284,354.01077,76.92709Q354.38596,77.30429,354.89468,77.3692L409.02158,128.57626Q427.28238,118.56845,432.28238,106.365814Q438.97385,90.113525,434.29947,72.36194Q430.50986,58.136017,416.31796,48.234985Q398.81375,36.64154,382.2299,35.86566"/> </g> <g style="fill:rgb(0,0,0); fill-opacity:1.0; stroke-linejoin: miter"> <path d="M376.51663,62.149353Q374.85165,62.039734,370.55643,63.02188Q362.74454,62.298798,361.6196,63.130127Q357.9896,64.29605,355.08755,69.65646Q351.19083,77.144226,348.39847,92.33435Q345.7632,107.44174,346.5106,117.727325Q346.82816,122.157135,347.71243,126.37552L351.16104,140.28983Q351.71036,142.60825,351.47458,152.05966Q351.6556,153.98306,352.2062,155.0198Q356.5134,161.88425,365.33615,159.42624L362.68582,170.2468L363.942,204.5068L387.01797,213.62283L425.8419,169.14725Q420.96164,154.55618,420.37418,149.48434Q419.31876,143.18271,420.63412,135.17099L421.7142,129.60037Q429.68796,121.4888,433.55612,113.82913Q436.3851,108.30374,436.22684,104.4581Q434.67203,95.46219,424.31723,96.748505Q412.2264,99.71854,412.77676,111.35715L407.0029,110.3345Q408.25113,101.831696,405.2416,91.54675Q403.63907,85.489075,398.92227,85.04114Q402.1158,75.221985,399.17508,71.19165Q393.27042,63.917694,376.64426,62.14981"/> </g> <g style="fill:rgb(0,0,0); fill-opacity:1.0; stroke-linejoin: miter"> <path d="M374.84933,574.8446Q377.44913,617.7666,381.58554,642.72424Q385.23294,666.5714,397.49692,715.1018L396.34103,759.4756Q387.97623,736.2832,355.928,681.19055L374.72543,575.54114 M456.92484,466.04642L303.11172,468.28494Q290.96158,513.5969,289.15213,548.6312Q286.3334,586.516,293.60043,684.33545L374.89072,840.74524L394.39474,832.57227L393.89334,855.3004L435.306,858.6201Q453.8444,784.8661,455.2335,749.8406Q457.86136,715.0879,445.41782,654.9967L456.88492,466.70114"/> </g> <g style="fill:rgb(0,0,0); fill-opacity:1.0; stroke-linejoin: miter"> <path d="M413.33292,187.68954Q398.00034,197.99106,388.36838,199.13681Q380.5004,200.92056,357.25784,196.50717L306.08682,478.40103L390.6982,481.90628L413.3248,187.82541"/> </g> <g style="fill:rgb(0,0,0); fill-opacity:1.0; stroke-linejoin: miter"> <path d="M364.40274,163.64316L355.1893,174.39914Q317.65164,179.15671,304.92996,187.7305Q299.3552,191.12222,293.71426,197.3378Q273.413,223.74667,270.918,225.25156Q263.50278,232.84036,250.89108,242.67697L235.48965,254.2089L221.36548,253.01578L191.8226,300.36752Q215.60373,317.6884,232.1406,312.92654Q248.56473,310.07913,288.18472,278.20718Q278.3571,362.35153,272.14304,395.11203Q266.33273,427.8052,253.97964,463.05875Q265.61655,478.28238,277.61984,483.7053Q290.68918,489.80508,315.81516,492.0463L364.02744,254.18045L372.6105,204.59628L367.832,190.51639L365.86545,183.02945Q364.3759,176.3107,364.40817,164.05771"/> </g> <g style="fill:rgb(0,0,0); fill-opacity:1.0; stroke-linejoin: miter"> <path d="M424.95584,159.36234L407.14297,185.31711L395.8038,196.89084L359.0886,499.12338L461.51126,474.91098L457.35635,405.41898L493.17294,426.36563Q521.4879,385.83963,523.2883,366.96854Q528.2197,344.48795,522.614,292.3561Q516.33203,230.6442,506.9868,213.92404Q500.0529,199.2333,487.97824,191.51974Q473.58554,181.16867,433.74112,173.05484L425.1965,159.74515"/> </g> <g style="fill:rgb(0,0,0); fill-opacity:1.0; stroke-linejoin: miter"> <path d="M452.73373,401.92593L404.6813,451.90903Q369.90817,462.44382,368.46536,467.26956Q366.21964,472.06186,372.78757,473.98325Q374.06253,474.1605,375.707,473.6237Q381.71268,470.8846,382.57584,470.88364Q384.79245,470.31998,388.94266,470.1367Q386.81204,475.558,386.23746,480.9089Q385.4971,486.52426,385.05008,501.54715L419.9753,493.33438L430.1216,468.2889L485.3539,420.87863L452.8738,402.00668"/> </g> <g style="fill:rgb(0,0,0); fill-opacity:1.0; stroke-linejoin: miter"> <path d="M164.67169,179.26547Q161.79025,180.1315,166.93588,190.49026Q159.21393,192.68777,157.43036,195.83652Q155.05505,199.60513,156.87286,206.2034Q161.65399,222.12485,171.75494,234.01547Q178.09628,241.1951,187.35483,238.15097Q191.38425,283.0615,191.04175,282.56058Q191.81131,289.31436,193.69641,293.2581Q196.5669,299.63998,203.70267,301.1091Q212.10175,302.70175,220.59885,299.119Q232.7673,294.35233,229.55127,277.89578Q228.90485,274.03622,226.78467,266.36124L207.63504,222.5571Q206.15616,205.92313,203.09406,199.9515Q200.60794,194.25461,194.52823,190.97818Q189.78998,188.30179,178.88971,185.85721Q173.0668,180.95602,169.8685,179.81052Q166.44153,178.52292,164.78885,179.21262"/> </g> <g style="fill:rgb(0,0,0); fill-opacity:1.0; stroke-linejoin: miter"> <path d="M402.2957,848.7715Q397.51212,848.97314,394.6708,854.3884Q393.3314,856.79126,391.9669,860.8436L386.95688,878.4147Q385.77243,882.2196,384.218,885.4313Q382.76767,888.4109,380.9183,891.13086Q370.51242,904.75574,366.20255,912.2506Q360.52145,921.818,359.1111,927.6553Q355.2996,940.4176,381.0579,939.4684Q398.60953,938.516,408.69193,931.86914Q412.50406,929.36365,416.17844,925.567Q417.82242,924.0719,425.7689,914.3374Q427.25253,912.6548,428.36368,911.6449Q429.5159,910.5947,430.72787,909.75183Q438.05453,905.35034,438.23337,904.72046Q440.0983,902.89185,440.68686,900.20496Q442.9152,892.3125,431.85648,858.369L426.10184,871.562Q422.11026,875.2699,420.76303,874.6533Q419.85776,874.3428,419.47745,872.7676Q418.1912,863.66675,417.28104,861.41797Q416.26132,858.30237,414.58554,855.95386Q409.03342,848.8076,402.32852,848.77"/> </g> <g style="fill:rgb(0,0,0); fill-opacity:1.0; stroke-linejoin: miter"> <path d="M376.3309,833.5598Q374.28574,833.5209,370.75052,836.5941L371.19107,851.4016L360.6686,866.56006Q357.55447,870.464,355.76913,872.30664Q351.5162,876.806,346.7313,879.02783Q345.0325,879.8407,342.36063,880.69934L331.0377,884.02246Q328.31277,884.9586,326.3361,886.07117Q322.4636,888.20654,320.21066,892.3821Q318.24655,896.04016,317.7241,900.75903Q317.23093,905.86414,318.66214,907.5012Q320.4747,910.7894,334.45645,911.07324Q356.0906,911.9601,383.3198,898.1953L394.7269,855.3353Q394.8398,849.7168,394.54288,847.14624Q394.1343,842.7676,392.10727,843.12195Q390.5198,843.0842,384.66202,848.7549Q381.879,839.75037,380.22256,836.8463Q378.35983,833.4331,376.40445,833.56067"/> </g> <g style="fill:rgb(0,0,0); fill-opacity:1.0; stroke-linejoin: miter"> <path d="M206.88257,220.91916L198.97421,225.17905L210.9701,235.43051L210.9942,235.44443L217.35135,229.28964L206.90002,220.93314"/> </g> <g style="fill:rgb(0,0,0); fill-opacity:1.0; stroke-linejoin: miter"> <path d="M163.25381,181.20505L156.19614,187.86154L164.25137,194.47726L172.49258,191.97842L173.22028,188.73654L163.26349,181.21231"/> </g> <g style="fill:rgb(0,0,0); fill-opacity:1.0; stroke-linejoin: miter"> <path d="M76.52649,110.48471Q75.49924,111.111786,81.755066,120.15762L157.9068,188.25565L163.6611,182.85965Q115.84573,140.63052,96.359436,124.423676Q78.02521,109.06357,76.60431,110.40866"/> </g> <g style="fill:rgb(0,0,0); fill-opacity:1.0; stroke-linejoin: miter"> <path d="M85.67264,59.215546L66.180115,62.048584L62.731903,97.76877L68.21893,97.58902L68.39011,98.704315L62.915894,102.418304L60.935272,104.76468Q75.097015,117.56406,78.62393,119.344574Q82.91345,121.98654,84.8978,118.44736Q86.278046,115.79556,83.83191,112.66391Q81.85724,109.99161,73.48767,103.98697L77.547,102.53726L77.906555,99.250824L83.77194,98.38681L81.912994,94.67233L85.66083,59.326965"/> </g> <g style="fill:rgb(0,0,0); fill-opacity:1.0; stroke-linejoin: miter"> <path d="M358.1622,186.83774L344.00583,198.50034L366.2864,201.11166L366.2864,201.11166L358.16708,186.84622L358.1622,186.83774 Z M407.4775,187.32846L397.1169,200.35886L411.7756,201.35452L411.7756,201.35452L407.48154,187.34164L407.4775,187.32846 Z"/> </g> <g style="fill:rgb(0,0,0); fill-opacity:1.0; stroke-linejoin: miter"> <path d="M388.1547,152.53012Q381.59262,155.91971,377.6686,157.15012Q373.73532,158.4609,365.9014,159.50528L383.74612,200.2551L388.14853,152.63077"/> </g> </g> </g> </svg>