<?xml version="1.0" encoding="UTF-8" standalone="no"?>
<svg
   xmlns:dc="http://purl.org/dc/elements/1.1/"
   xmlns:cc="http://creativecommons.org/ns#"
   xmlns:rdf="http://www.w3.org/1999/02/22-rdf-syntax-ns#"
   xmlns:svg="http://www.w3.org/2000/svg"
   xmlns="http://www.w3.org/2000/svg"
   xmlns:sodipodi="http://sodipodi.sourceforge.net/DTD/sodipodi-0.dtd"
   xmlns:inkscape="http://www.inkscape.org/namespaces/inkscape"
   version="1.1"
   width="647.48834"
   height="1024.255"
   viewBox="0 0 647.48834 1024.255"
   id="svg7"
   sodipodi:docname="alone_standing_male20.svg"
   inkscape:version="1.0.2 (e86c870879, 2021-01-15)">
  <metadata
     id="metadata13">
    <rdf:RDF>
      <cc:Work
         rdf:about="">
        <dc:format>image/svg+xml</dc:format>
        <dc:type
           rdf:resource="http://purl.org/dc/dcmitype/StillImage" />
        <dc:title></dc:title>
      </cc:Work>
    </rdf:RDF>
  </metadata>
  <defs
     id="defs11" />
  <sodipodi:namedview
     pagecolor="#ffffff"
     bordercolor="#666666"
     borderopacity="1"
     objecttolerance="10"
     gridtolerance="10"
     guidetolerance="10"
     inkscape:pageopacity="0"
     inkscape:pageshadow="2"
     inkscape:window-width="1920"
     inkscape:window-height="997"
     id="namedview9"
     showgrid="false"
     fit-margin-top="0"
     fit-margin-left="0"
     fit-margin-right="0"
     fit-margin-bottom="0"
     inkscape:zoom="0.74507965"
     inkscape:cx="231.92615"
     inkscape:cy="502.70313"
     inkscape:window-x="0"
     inkscape:window-y="0"
     inkscape:window-maximized="1"
     inkscape:current-layer="svg7"
     inkscape:document-rotation="0" />
  <rect
     style="fill:#ffffff;stroke-width:5.66929;stroke-linecap:square;stroke-linejoin:round;stroke-dasharray:11.3386, 11.3386"
     id="rect832"
     width="647.48834"
     height="1024.255"
     x="0"
     y="0" />
  <g
     id="layer1"
     transform="matrix(7.6466003,0,0,7.6466003,-1992.8564,-3280.4365)">
    <g
       style="fill:#000000;fill-opacity:1;stroke-linejoin:miter"
       id="g4">
      <path
         d="m 300.80566,433.9546 c -0.10986,0.0513 -0.41016,0.0659 -0.74706,0.0366 -0.3955,-0.0293 -0.5713,-0.0146 -0.58594,0.044 -0.022,0.0659 -0.17578,0.0659 -0.61524,0 -0.68847,-0.10254 -1.10596,-0.0147 -1.45019,0.30029 -0.16113,0.15381 -0.28565,0.19775 -0.52735,0.19775 -0.17578,0 -0.60791,0.0879 -0.95948,0.19043 -0.44677,0.13184 -0.73974,0.17577 -0.95214,0.14649 -0.16846,-0.022 -0.32959,-0.0146 -0.34424,0.022 -0.022,0.0366 -0.19775,0.0879 -0.38818,0.10985 -0.46874,0.0659 -0.73242,0.19775 -1.12061,0.57129 -0.27833,0.25636 -0.41015,0.32226 -0.80566,0.39551 -0.26367,0.0513 -0.40283,0.0952 -0.30762,0.0952 0.20508,0.007 0.21973,0.271 0.0146,0.32227 -0.1172,0.0293 -0.14648,0.10254 -0.14648,0.32959 0,0.30028 -0.16846,0.56398 -0.46142,0.70313 -0.15382,0.0806 -0.16114,0.13915 -0.1831,0.92285 -0.007,0.4541 -0.0513,0.87158 -0.0879,0.92285 -0.10987,0.12451 -0.24903,1.23047 -0.23438,1.79443 0.007,0.271 0.0806,0.76905 0.16113,1.12062 0.0806,0.35155 0.14649,0.7617 0.14649,0.92284 0,0.15381 0.0366,0.30762 0.0732,0.32959 0.0439,0.022 0.0732,0.10987 0.0732,0.1831 0,0.0806 0.0659,0.25635 0.13916,0.39551 0.0806,0.13184 0.16112,0.41016 0.19042,0.60059 0.022,0.19775 0.0806,0.49072 0.12452,0.65185 0.10254,0.37354 0.76172,1.72852 1.01075,2.08008 0.38086,0.53467 0.73243,1.38428 0.73243,1.77246 0,0.29298 -0.022,0.35888 -0.12452,0.35888 -0.0806,0 -0.18311,-0.11718 -0.26368,-0.31493 -0.0732,-0.16847 -0.16845,-0.36621 -0.20507,-0.43213 -0.0366,-0.0732 -0.0659,-0.17578 -0.0659,-0.23438 0,-0.21972 -0.3955,-0.90086 -0.67382,-1.15722 -0.4248,-0.38819 -0.94482,-0.54199 -2.96631,-0.87158 -0.50537,-0.0806 -0.53467,-0.10254 -0.53467,-0.27832 -0.007,-0.31494 -0.16113,-0.44678 -0.55664,-0.46144 l -0.35156,-0.022 0.022,0.32226 0.022,0.32227 -0.24903,-0.0513 c -0.21972,-0.0366 -0.49072,-0.10986 -1.30372,-0.35156 -0.32225,-0.0879 -3.5742,-0.0293 -4.28466,0.0879 -0.65184,0.10254 -3.68408,0.17577 -4.21142,0.0952 -0.38819,-0.0586 -0.40282,-0.0732 -0.42482,-0.29297 -0.022,-0.20507 -0.0586,-0.2417 -0.2783,-0.28564 -0.13917,-0.022 -0.271,-0.0732 -0.29298,-0.10987 -0.0952,-0.1538 -0.3955,-0.0586 -0.57862,0.18311 -0.17577,0.23438 -0.62987,0.4541 -1.23778,0.59326 -0.2417,0.0513 -0.73242,0.52002 -1.20117,1.13527 -0.16845,0.2197 -0.37355,0.46874 -0.45411,0.5493 -0.0806,0.0879 -0.14648,0.17578 -0.14648,0.20508 0,0.0293 -0.0586,0.11719 -0.12451,0.19775 -0.16845,0.19043 -0.7544,1.31837 -0.7544,1.44287 0,0.1172 -0.59325,0.12452 -1.42822,0.022 -0.32227,-0.0366 -0.94483,-0.10254 -1.3916,-0.14648 -0.43945,-0.0366 -0.9668,-0.0952 -1.17188,-0.13184 -0.37353,-0.0732 -0.46142,-0.0513 -1.04005,0.22704 -0.59325,0.27833 -1.26707,1.1792 -1.604,2.1167 -0.10253,0.29298 -0.21972,0.6006 -0.249,0.68116 -0.0879,0.19774 -0.1465,0.49804 -0.21974,1.06201 -0.0366,0.26367 -0.10254,0.76903 -0.14648,1.12061 -0.10254,0.74707 -0.0586,0.85692 0.35888,0.85692 0.38086,0 0.76904,0.12452 0.93018,0.3003 0.0732,0.0806 0.31494,0.23438 0.53466,0.33692 l 0.41016,0.1831 1.80909,-0.0806 c 0.99609,-0.044 2.05078,-0.0806 2.34375,-0.0806 0.52734,0 0.53466,0.007 0.70312,0.25634 0.0879,0.13916 0.2124,0.25636 0.271,0.25636 0.13183,0 0.14648,0.22704 0.0293,0.34422 -0.10253,0.10254 -0.10253,0.70313 0.007,0.89356 0.0439,0.0952 0.0586,0.44678 0.0293,0.97412 -0.0293,0.542 -0.0146,0.9668 0.0439,1.23047 0.0439,0.21973 0.10254,0.55663 0.12452,0.73973 l 0.0366,0.33693 -0.28563,0.0439 c -0.15381,0.0293 -0.39551,0.0513 -0.54199,0.0513 -0.3003,0 -0.76172,0.16846 -0.9668,0.35156 -0.31494,0.27833 -0.4834,1.07667 -0.35888,1.66993 0.0439,0.21972 0.0513,0.83497 0.0293,1.56737 -0.0293,0.6665 -0.0293,1.45753 0,1.75782 0.0806,0.87158 0.29296,2.49024 0.38085,2.81983 0.0146,0.0806 0.0879,0.41015 0.15381,0.73242 0.0659,0.32227 0.15381,0.65918 0.19044,0.74707 0.0366,0.0952 0.0952,0.2417 0.13182,0.32959 0.0366,0.0952 0.10254,0.26367 0.14648,0.37353 0.1172,0.28564 0.10255,0.50538 -0.0513,0.87159 -0.12451,0.29297 -0.12451,0.40283 -0.0439,1.52343 0.0879,1.14992 0.19042,1.78712 0.32958,1.9336 0.0366,0.0439 0.0659,0.14648 0.0659,0.2417 0,0.0952 0.0293,0.22705 0.0659,0.30029 0.0366,0.0659 0.13916,0.28563 0.23438,0.49073 0.21972,0.44677 0.90087,1.14257 1.55273,1.56738 l 0.49072,0.31494 v 0.61523 c 0,0.71045 0.0439,0.85695 0.37355,1.20117 0.41747,0.43213 0.46874,0.59328 0.3662,1.07666 -0.1465,0.67382 -0.32227,1.27442 -0.3882,1.31104 -0.0293,0.022 -0.0586,0.10254 -0.0586,0.1831 0,0.0733 -0.0293,0.19776 -0.0659,0.271 -0.0366,0.0659 -0.10986,0.21973 -0.16113,0.34424 -0.0586,0.11719 -0.14649,0.26367 -0.19043,0.31494 -0.19044,0.19775 -0.0952,0.41016 0.36621,0.8423 0.63721,0.60057 0.68848,0.62254 0.81299,0.32958 0.0586,-0.13184 0.15381,-0.35888 0.21972,-0.5127 0.0659,-0.14648 0.11719,-0.30028 0.11719,-0.34424 0,-0.0439 0.0806,-0.0806 0.17578,-0.0806 0.18311,0 0.21973,0.0952 0.38087,0.8789 0.022,0.10254 0.0659,0.24902 0.10253,0.32959 0.0366,0.0806 0.0806,0.2417 0.10987,0.36621 0.022,0.11719 0.0806,0.38086 0.11718,0.58594 0.0439,0.19775 0.13916,0.49072 0.21972,0.65186 0.19044,0.3955 0.1831,0.55664 -0.0366,0.55664 -0.2051,0 -0.84962,0.57128 -0.84962,0.75438 0,0.0659 -0.0293,0.12452 -0.0732,0.12452 -0.0366,0 -0.0732,0.11718 -0.0732,0.25635 0,0.13916 -0.022,0.25635 -0.0586,0.25635 -0.0293,0 -0.0952,0.15381 -0.14648,0.34424 -0.0513,0.19774 -0.11719,0.46142 -0.15382,0.59326 -0.0366,0.13183 -0.1538,0.41748 -0.25634,0.62988 -0.10254,0.2124 -0.19043,0.43213 -0.19043,0.49072 0,0.0586 -0.0513,0.19043 -0.10253,0.3003 -0.0732,0.14648 -0.10987,0.49804 -0.1172,1.20848 -0.0147,1.30372 -0.0147,1.2671 0.0952,1.2671 0.10986,0 0.26368,-0.13183 1.09131,-0.92285 l 0.54931,-0.52002 0.0586,-0.61523 c 0.0806,-0.73975 0.0806,-2.06543 0,-2.39502 -0.0439,-0.20508 -0.0366,-0.23438 0.0879,-0.23438 0.16113,0 0.30029,-0.14648 0.46142,-0.46142 0.0513,-0.10988 0.12451,-0.19776 0.16115,-0.19776 0.0293,0 0.0586,-0.0513 0.0586,-0.10986 0,-0.0586 0.0586,-0.10986 0.13184,-0.10986 0.1538,0 0.31494,0.10253 0.70312,0.46875 0.16113,0.14648 0.32959,0.26367 0.37354,0.26367 0.0439,0 0.14648,0.0586 0.22705,0.13183 0.0732,0.0732 0.31494,0.22705 0.52734,0.34425 0.20508,0.10985 0.38086,0.23437 0.38086,0.271 0,0.0293 0.0659,0.0586 0.13917,0.0586 0.0806,0 0.249,0.0586 0.38817,0.12452 0.44678,0.22704 0.49805,0.2417 0.63721,0.2417 0.0806,0 0.16846,0.0293 0.19042,0.0732 0.022,0.0366 0.16114,0.0733 0.30763,0.0733 h 0.25635 l -0.0513,0.40282 c -0.022,0.21974 -0.022,0.40284 0.0146,0.40284 0.0293,0 0.13915,0.0732 0.2417,0.16846 0.10255,0.0879 0.36621,0.29297 0.58595,0.4541 0.21972,0.16113 0.41747,0.30762 0.43944,0.3369 0.022,0.022 0.17579,0.13185 0.34424,0.2344 0.16846,0.10253 0.32227,0.22704 0.35156,0.27098 0.022,0.0366 0.10986,0.0733 0.19043,0.0733 0.0733,0 0.13916,0.022 0.13916,0.0586 0,0.0293 0.0879,0.0952 0.20507,0.14648 0.36622,0.16846 0.74708,0.55665 0.74708,0.76905 0,0.27099 -0.15381,1.23047 -0.21972,1.40625 -0.19043,0.46875 -0.34424,1.50146 -0.38819,2.6001 -0.0586,1.35498 -0.0439,3.42773 0.022,3.69873 0.1538,0.59327 0.23437,2.12402 0.26367,5.05371 0.022,2.77588 0.0732,3.92578 0.24902,5.16356 0.0366,0.2637 0.11719,0.8789 0.18311,1.37696 0.0659,0.49804 0.1538,0.98144 0.19775,1.07664 0.0586,0.13186 0.0586,0.4175 -0.007,1.06936 -0.0733,0.67384 -0.0733,1.08398 -0.007,1.70654 0.0879,0.88623 0.19775,1.52344 0.30029,1.7871 0.0879,0.21974 0.0806,0.5054 -0.007,0.564 -0.0366,0.0219 -0.0732,0.3369 -0.0732,0.7031 0,0.3955 -0.0366,0.71045 -0.0879,0.79834 -0.15382,0.23436 0.007,0.41016 0.34423,0.38086 0.1831,-0.022 0.40283,0.0293 0.6372,0.13916 l 0.36621,0.16844 -0.0513,0.52004 c -0.0806,0.75439 -0.21972,1.39892 -0.43945,1.97756 -0.10986,0.2783 -0.22705,0.59324 -0.25635,0.6958 -0.0366,0.1025 -0.16113,0.44676 -0.28564,0.769 -0.12451,0.3223 -0.22705,0.64455 -0.22705,0.7105 0,0.0732 -0.0293,0.1318 -0.0659,0.1318 -0.0732,0 -0.44678,1.0547 -0.44678,1.2671 0,0.0659 -0.0293,0.1245 -0.0659,0.1245 -0.0366,0 -0.0806,0.0879 -0.10253,0.2051 -0.0293,0.10985 -0.0952,0.41014 -0.16113,0.6738 -0.25635,1.0474 -0.29298,1.45753 -0.29298,3.1494 0,1.4209 0.0293,1.897 0.16114,2.71 0.0879,0.542 0.19774,1.2817 0.24902,1.6333 0.0513,0.35155 0.11719,0.6592 0.15382,0.68114 0.0293,0.022 0.0586,0.2124 0.0586,0.41746 0,0.2124 0.0366,0.5127 0.0806,0.67385 0.0513,0.16115 0.14648,0.57129 0.2124,0.91555 0.19043,0.9082 0.35889,1.582 0.52002,2.146 0.0806,0.271 0.17578,0.6518 0.2124,0.84226 0.0366,0.19044 0.10253,0.49074 0.14649,0.67384 0.0439,0.1831 0.10986,0.47606 0.14648,0.65917 0.0293,0.18313 0.13184,0.62253 0.2124,0.98143 0.21241,0.91554 0.20508,1.0913 -0.0806,1.3843 -0.13184,0.1318 -0.33692,0.3003 -0.4541,0.3735 -0.20508,0.13186 -0.20508,0.1392 -0.16114,0.63723 0.0659,0.61524 0.23438,1.22317 0.39551,1.40627 0.0806,0.0879 0.12451,0.2856 0.13185,0.5493 0.007,0.2344 0.0513,0.8203 0.10253,1.31103 0.0806,0.78367 0.0732,0.9375 -0.0293,1.23777 -0.0732,0.2124 -0.11719,0.58596 -0.11719,0.9522 0,0.3369 -0.0293,0.62253 -0.0659,0.6445 -0.0366,0.022 -0.0806,0.1465 -0.10252,0.2783 -0.022,0.13186 -0.0806,0.3882 -0.12453,0.5713 -0.10254,0.3589 -0.14647,1.06935 -0.16845,2.6587 l -0.0147,1.01075 0.32959,0.31495 c 0.23437,0.2197 0.46142,0.35155 0.76904,0.43944 0.2417,0.0733 0.52002,0.16846 0.62256,0.20506 0.10254,0.044 0.30029,0.10256 0.43944,0.1392 0.13917,0.0293 0.43947,0.10985 0.6592,0.16844 0.21972,0.0586 0.6372,0.16846 0.91552,0.23436 0.28564,0.0659 0.57128,0.1465 0.63721,0.1831 0.0732,0.0366 0.25634,0.0659 0.40283,0.0659 0.15381,0 0.39551,0.0293 0.53467,0.0733 1.07667,0.29295 6.03515,0.4248 6.96533,0.1831 0.4834,-0.1245 0.82031,-0.30763 0.76172,-0.40285 -0.022,-0.0366 0.022,-0.0806 0.10254,-0.10985 0.0806,-0.022 0.22705,-0.1538 0.32958,-0.293 0.1538,-0.19773 0.19044,-0.32957 0.19044,-0.6445 0,-0.21974 -0.0439,-0.49073 -0.10254,-0.6079 -0.0513,-0.1172 -0.19043,-0.4468 -0.29297,-0.73977 -0.10987,-0.28563 -0.26367,-0.60058 -0.35156,-0.6958 -0.0806,-0.0879 -0.18311,-0.21973 -0.23437,-0.28563 -0.0952,-0.1392 -0.50538,-0.3589 -0.65186,-0.3589 -0.11719,0 -0.9668,-0.55664 -1.24512,-0.8203 -0.10254,-0.0952 -0.30029,-0.24903 -0.43946,-0.3516 -0.20506,-0.13913 -0.27099,-0.23435 -0.27099,-0.4028 0,-0.1465 -0.11719,-0.37354 -0.33692,-0.6592 -0.1831,-0.2417 -0.35155,-0.5273 -0.37353,-0.6372 -0.0513,-0.2417 -0.34424,-0.55663 -0.58594,-0.6152 -0.11718,-0.0293 -0.16845,-0.0952 -0.16845,-0.21975 0,-0.0952 -0.0952,-0.27835 -0.21973,-0.41015 -0.1465,-0.1538 -0.21973,-0.3003 -0.21973,-0.46144 0,-0.23436 -0.25635,-0.54931 -0.52734,-0.64453 -0.0806,-0.0293 -0.13183,-0.13913 -0.14649,-0.32226 -0.022,-0.23437 -0.0586,-0.29297 -0.26367,-0.38817 -0.23437,-0.1099 -0.2417,-0.1172 -0.19775,-0.4541 0.0293,-0.24904 0.007,-0.4175 -0.0806,-0.5786 -0.0659,-0.13187 -0.17578,-0.63724 -0.24902,-1.12064 -0.2417,-1.64062 -0.30763,-1.88232 -0.4834,-1.94826 -0.0879,-0.0366 -0.17578,-0.14646 -0.20508,-0.249 -0.022,-0.10254 -0.16113,-0.271 -0.30029,-0.38086 l -0.25636,-0.19044 0.007,-0.89355 c 0,-0.48339 0.0293,-1.16455 0.0732,-1.50878 0.0366,-0.34427 0.0879,-0.9668 0.10986,-1.39161 0.022,-0.4248 0.0659,-0.83496 0.10254,-0.91552 0.0952,-0.22704 0.56396,-2.42434 0.65186,-3.07618 0.10986,-0.78366 0.14648,-1.45016 0.22706,-4.39453 0.0439,-1.54543 0.11717,-2.73923 0.1831,-3.14943 0.0586,-0.3662 0.13183,-0.791 0.16112,-0.9521 0.022,-0.16116 0.0733,-0.3296 0.10988,-0.37356 0.0586,-0.0805 0.1245,-0.40284 0.2783,-1.34764 0.0586,-0.3809 0.3882,-1.4722 0.58595,-1.94094 0.0879,-0.21972 0.19775,-0.46142 0.68115,-1.50876 l 0.25635,-0.54934 0.56395,-0.0879 c 0.67384,-0.10257 0.68116,-0.10987 0.813,-0.42481 0.0806,-0.19043 0.0806,-0.28566 0.0146,-0.43213 -0.0586,-0.13913 -0.0659,-0.29297 0,-0.62253 0.0586,-0.31497 0.0586,-0.49075 -0.007,-0.6519 -0.0586,-0.1611 -0.0586,-0.26365 0,-0.38817 0.0879,-0.19043 0.19776,-0.57128 0.31494,-1.12793 0.0439,-0.2051 0.0879,-0.77636 0.0952,-1.2671 0.007,-0.8423 0.0147,-0.8862 0.15382,-0.8862 0.23436,0 0.41747,0.5493 0.52733,1.5381 0.0732,0.6518 0.2417,1.1206 0.64453,1.74313 0.23438,0.36622 0.33692,0.60791 0.33692,0.78367 0,0.13186 0.0366,0.271 0.0732,0.293 0.0439,0.022 0.0732,0.13915 0.0732,0.25634 0,0.13186 0.0659,0.27832 0.17578,0.38086 0.0952,0.0952 0.19776,0.2637 0.22706,0.3882 0.022,0.1172 0.0952,0.3149 0.14648,0.43944 0.22705,0.52002 0.27099,1.57471 0.11718,2.7832 -0.0513,0.40286 -0.12451,0.94483 -0.1538,1.2085 -0.0366,0.26366 -0.10254,1.29636 -0.14649,2.29246 -0.10987,2.37306 -0.022,3.8379 0.28565,4.99514 0.12451,0.43946 0.28564,1.06936 0.37353,1.3916 0.0879,0.32226 0.18311,0.65186 0.21973,0.73242 0.0293,0.0805 0.0952,0.29294 0.13916,0.47607 0.0513,0.18311 0.15381,0.55667 0.23436,0.84227 0.0806,0.27834 0.1758,0.6592 0.21242,0.8423 0.0293,0.1831 0.16113,0.8423 0.27832,1.46485 0.12451,0.62255 0.26366,1.53075 0.30761,2.01415 0.0439,0.4834 0.11719,0.95216 0.14649,1.04005 0.0366,0.0879 0.0439,0.49072 0.022,0.90085 -0.0439,0.7178 -0.0513,0.7398 -0.23436,0.7837 -0.10254,0.022 -0.26368,0.0952 -0.35889,0.1538 -0.18311,0.12454 -0.19043,0.1685 -0.0439,3.1934 0.0366,0.8276 -0.007,1.11327 -0.19043,1.28905 -0.022,0.0219 -0.19043,0.33691 -0.38087,0.70315 -0.29295,0.5786 -0.35155,0.77634 -0.46874,1.56 -0.10986,0.76175 -0.11718,1.0108 -0.0513,1.6187 0.0659,0.5859 0.0586,0.77635 -0.022,1.0034 -0.0586,0.16846 -0.0952,0.6006 -0.10254,1.1133 v 0.83494 l 0.37354,0.35156 c 0.34424,0.3296 0.40283,0.35157 0.85693,0.3955 0.271,0.022 0.63721,0.0659 0.82031,0.0879 0.18311,0.0293 0.37354,0.0513 0.42481,0.0439 0.0513,0 0.65918,0.0219 1.35498,0.0586 0.6958,0.0366 1.99951,0.0806 2.90771,0.10256 1.14991,0.0293 1.6626,0.0732 1.69922,0.1318 0.0439,0.0659 0.0586,0.0659 0.0586,-0.007 0,-0.10255 0.22705,-0.1172 0.33692,-0.022 0.0366,0.0366 0.41015,0.0879 0.83495,0.1099 0.42481,0.022 1.34765,0.0732 2.05078,0.10985 2.92237,0.16115 4.39453,0.0879 4.9878,-0.26365 0.27832,-0.1685 0.54931,-0.67385 0.60791,-1.1426 0.0439,-0.35156 0.0293,-0.4541 -0.0952,-0.6665 -0.0879,-0.13184 -0.15382,-0.3369 -0.15382,-0.4541 0,-0.5347 -0.65184,-1.3037 -1.25975,-1.49415 -0.17578,-0.0513 -0.5127,-0.11719 -0.7544,-0.14648 -0.2417,-0.0293 -0.9082,-0.15381 -1.47949,-0.28567 -1.06201,-0.227 -1.55273,-0.44675 -1.56006,-0.6811 0,-0.2271 -0.24902,-0.67386 -0.542,-0.97415 -0.1538,-0.16115 -0.3076,-0.36621 -0.34423,-0.4541 -0.0293,-0.0879 -0.17577,-0.2124 -0.32227,-0.271 -0.14648,-0.0659 -0.28564,-0.19045 -0.32958,-0.29295 -0.0366,-0.10256 -0.19776,-0.27834 -0.35889,-0.3882 -0.15381,-0.1172 -0.34423,-0.3076 -0.41016,-0.4248 -0.17577,-0.3003 -0.4834,-0.62256 -0.59327,-0.62256 -0.0513,0 -0.1831,-0.16844 -0.29296,-0.36624 -0.10986,-0.20505 -0.22704,-0.3662 -0.26367,-0.3662 -0.0293,0 -0.0586,-0.1172 -0.0586,-0.26366 0,-0.14648 -0.044,-0.36621 -0.10254,-0.49074 -0.0586,-0.1318 -0.11719,-0.3662 -0.13916,-0.5273 -0.0293,-0.31497 -0.61524,-2.21926 -0.71045,-2.3438 -0.0366,-0.0439 -0.10987,-0.3735 -0.17578,-0.7324 -0.0806,-0.4834 -0.15381,-0.6885 -0.26367,-0.7837 -0.13184,-0.1025 -0.14648,-0.20507 -0.14648,-0.8862 0,-1.3257 0.14648,-3.7134 0.30028,-4.7754 0.0806,-0.564 0.20508,-1.5161 0.28565,-2.1167 0.0806,-0.5933 0.16847,-1.1133 0.19043,-1.1499 0.0439,-0.0806 0.15381,-1.3843 0.2417,-3.03224 0.0586,-1.08396 0.022,-2.06543 -0.13916,-3.55226 -0.1465,-1.3037 -0.1172,-3.10545 0.0659,-4.3945 0.0952,-0.6226 0.18312,-1.2378 0.19777,-1.355 0.0366,-0.249 0.11719,-0.3003 1.01073,-0.6299 0.82032,-0.3003 1.03273,-0.4394 1.01808,-0.65916 -0.0513,-0.62988 -0.12451,-1.07664 -0.2124,-1.23779 -0.29298,-0.56395 -0.31495,-0.98875 -0.0879,-1.75781 0.13184,-0.47608 0.15382,-0.73244 0.15382,-1.86768 0,-0.7251 -0.0439,-1.61133 -0.0952,-1.97021 -0.0952,-0.66651 -0.13184,-2.15332 -0.0806,-3.40575 0.0147,-0.49806 0.0659,-0.7837 0.1758,-1.0254 0.14648,-0.3296 0.2783,-1.00342 0.2783,-1.42823 0,-0.13183 0.0659,-0.28564 0.1758,-0.39551 0.2124,-0.2124 0.21972,-0.25634 0.0732,-0.93016 -0.0586,-0.28566 -0.16114,-0.77638 -0.22704,-1.09864 -0.0659,-0.32226 -0.1465,-0.68848 -0.18312,-0.81299 -0.10986,-0.36621 -0.0806,-0.76172 0.0732,-0.95215 0.14648,-0.18312 0.13916,-0.18312 -0.0732,-0.61524 -0.19775,-0.40283 -0.2124,-0.48338 -0.19775,-1.19384 0.0146,-0.57862 -0.007,-0.79102 -0.0879,-0.89356 -0.0806,-0.0952 -0.10254,-0.34424 -0.10987,-0.98144 0,-0.63721 -0.022,-0.87159 -0.10254,-0.93018 -0.0806,-0.0586 -0.0952,-0.1831 -0.0586,-0.4834 0.044,-0.34424 0.0293,-0.4248 -0.0952,-0.53466 -0.0879,-0.0732 -0.14649,-0.22706 -0.14649,-0.3589 0,-0.1245 -0.0513,-0.29296 -0.10986,-0.3662 -0.14648,-0.19776 -0.14648,-0.62256 0.007,-0.68116 0.0659,-0.022 0.24903,0.0293 0.41016,0.11719 0.16114,0.0806 0.32226,0.15381 0.35888,0.15381 0.044,0 0.16114,0.0806 0.271,0.18311 0.10986,0.10255 0.2417,0.1831 0.30762,0.1831 0.0586,0 0.25634,0.14649 0.43944,0.32227 0.32228,0.31494 0.80568,0.62988 0.9668,0.62988 0.24903,0 0.86427,-1.11328 0.86427,-1.56738 0,-0.13916 0.0293,-0.271 0.0586,-0.29297 0.0952,-0.0586 0.15381,-1.9336 0.0806,-2.3877 -0.14649,-0.83495 -0.20508,-1.47215 -0.27833,-2.91505 -0.0659,-1.25243 -0.10986,-1.5747 -0.25634,-2.01415 -0.10254,-0.29295 -0.21973,-0.72509 -0.26366,-0.96679 -0.044,-0.2417 -0.1465,-0.64453 -0.22706,-0.90088 -0.0732,-0.24903 -0.13916,-0.54932 -0.13916,-0.65918 0,-0.10986 -0.0366,-0.2417 -0.0732,-0.27832 -0.0439,-0.0439 -0.0952,-0.37354 -0.10986,-0.73242 -0.0366,-0.81299 -0.10987,-1.35498 -0.20507,-1.47216 -0.0366,-0.0513 -0.0952,-0.5713 -0.12452,-1.1499 -0.0366,-0.58595 -0.0806,-1.09132 -0.10254,-1.12794 -0.022,-0.044 -0.10986,-0.542 -0.19044,-1.12061 -0.0806,-0.57861 -0.23436,-1.35498 -0.3369,-1.71387 -0.37354,-1.333 -0.55664,-1.91162 -0.6958,-2.21923 -0.0733,-0.16845 -0.13916,-0.43945 -0.13916,-0.59327 0,-0.16113 -0.0659,-0.49804 -0.15381,-0.75438 -0.0806,-0.24903 -0.17578,-0.77638 -0.21973,-1.15724 -0.0366,-0.38086 -0.0952,-0.89356 -0.13916,-1.13526 -0.0366,-0.2417 -0.10254,-0.81298 -0.14648,-1.26708 -0.0733,-0.71045 -0.0659,-0.84962 0.0293,-1.05469 0.13915,-0.27099 0.14649,-0.52003 0.0293,-0.71045 -0.0513,-0.0806 -0.0586,-0.19043 -0.022,-0.27098 0.0366,-0.0806 0.0659,-0.28566 0.0732,-0.46876 0.10986,-2.16064 0.38818,-3.1128 1.27441,-4.28467 0.52735,-0.68847 0.83497,-0.84961 1.80177,-0.91553 0.68847,-0.0439 1.0034,-0.13916 1.58935,-0.44678 0.0733,-0.0366 0.2124,-0.0659 0.31495,-0.0659 0.10253,0 0.2417,-0.0293 0.31493,-0.0659 0.0659,-0.0439 0.28564,-0.13183 0.47607,-0.19776 0.19043,-0.0659 0.4248,-0.2124 0.5127,-0.31494 0.0879,-0.10253 0.25635,-0.25635 0.37353,-0.33691 0.11719,-0.0806 0.29297,-0.20508 0.40284,-0.27832 0.15381,-0.10987 0.27833,-0.1245 0.68847,-0.0952 0.46143,0.0439 0.542,0.0293 1.02539,-0.20508 0.76905,-0.3662 0.81299,-0.41015 0.79834,-0.76904 -0.0146,-0.22706 0.007,-0.30029 0.0879,-0.30029 0.0586,0 0.15381,-0.0586 0.20508,-0.13184 0.0513,-0.0659 0.19776,-0.17578 0.31494,-0.23437 0.13184,-0.0659 0.24902,-0.20508 0.29297,-0.34424 0.0952,-0.29297 0.5127,-0.75439 0.67383,-0.75439 0.12452,0 0.98877,-0.56397 1.03272,-0.67383 0.0146,-0.0293 0.0732,-0.0586 0.13183,-0.0586 0.0586,0 0.10254,-0.0439 0.10254,-0.0952 0,-0.0586 0.14648,-0.1758 0.32959,-0.26368 0.18311,-0.0879 0.36621,-0.21972 0.41748,-0.29297 0.11719,-0.16115 0.71046,-0.44678 0.92286,-0.44678 0.1831,0 1.0034,-0.39551 1.16454,-0.55664 0.10986,-0.10986 0.98876,-0.54199 1.10596,-0.54199 0.0366,0 0.10986,-0.0513 0.16113,-0.10987 0.0513,-0.0586 0.15381,-0.10987 0.22705,-0.10987 0.38086,0 1.77246,-1.15722 2.66602,-2.2119 0.1245,-0.1465 0.30762,-0.3662 0.4248,-0.49073 0.10987,-0.12451 0.19776,-0.25634 0.19776,-0.29297 0,-0.0879 1.89697,-1.98486 1.98486,-1.98486 0.0659,0 0.56398,-0.4541 1.62598,-1.47949 0.71777,-0.68848 0.74707,-0.71045 1.14258,-0.75439 0.22705,-0.022 0.54199,-0.0733 0.70312,-0.10986 0.40283,-0.0879 1.67725,-0.53468 1.70654,-0.60792 0.0366,-0.0659 0.73976,-0.0586 0.92286,0.0147 0.0732,0.0293 0.40283,0.0146 0.7251,-0.0293 0.6665,-0.10253 0.81298,-0.2124 0.74706,-0.58593 -0.0293,-0.1172 0.007,-0.3589 0.0659,-0.53467 0.0659,-0.17578 0.0952,-0.41016 0.0732,-0.52735 -0.0659,-0.32226 0.0147,-0.54931 0.32958,-0.89355 0.16115,-0.16846 0.30763,-0.40283 0.3296,-0.52003 0.0513,-0.23436 -0.14648,-0.67382 -0.38818,-0.87157 -0.0879,-0.0732 -0.15382,-0.17578 -0.15382,-0.23438 0,-0.0586 -0.11718,-0.17578 -0.25634,-0.26367 -0.19043,-0.11718 -0.25634,-0.2124 -0.25634,-0.35888 0,-0.1538 0.0586,-0.22706 0.25634,-0.32227 0.13916,-0.0659 0.25634,-0.15381 0.25634,-0.19775 0,-0.0366 0.0586,-0.0732 0.13917,-0.0732 0.0732,0 0.17578,-0.0439 0.21973,-0.10253 0.0952,-0.10987 0.68115,-0.41016 1.14258,-0.57862 0.41748,-0.15381 1.07666,-0.44678 1.20849,-0.52734 0.0586,-0.0439 0.20508,-0.10987 0.32959,-0.14649 0.12451,-0.0439 0.26367,-0.16113 0.31494,-0.27832 0.0879,-0.17578 0.0806,-0.22705 -0.0147,-0.38818 -0.1538,-0.22705 -0.2124,-0.21973 -1.14257,0.0513 -0.42481,0.12451 -0.9961,0.28564 -1.28174,0.35156 -0.57129,0.14648 -1.51611,0.4541 -2.22656,0.7251 -0.25635,0.0952 -0.58594,0.19042 -0.73243,0.2124 -0.14648,0.0146 -0.32959,0.0586 -0.41015,0.0952 -0.0806,0.0293 -0.22705,0.0879 -0.3296,0.13183 -0.3003,0.11719 -1.16454,0.78369 -1.83105,1.40625 -0.78369,0.73242 -1.09863,0.97412 -1.50879,1.17188 -0.17578,0.0879 -0.32226,0.19044 -0.32226,0.22704 0,0.0439 -0.1172,0.12452 -0.25635,0.1831 -0.13915,0.0586 -0.25635,0.13185 -0.25635,0.16115 0,0.0366 -0.11718,0.11718 -0.25634,0.1831 -0.13916,0.0659 -0.25636,0.15381 -0.25636,0.19043 0,0.0366 -0.1538,0.12452 -0.34423,0.19775 -0.52002,0.19777 -1.34033,0.69581 -1.34033,0.80567 0,0.0586 -0.0659,0.10254 -0.14649,0.10254 -0.0806,0 -0.31495,0.10986 -0.52735,0.2417 -0.2124,0.13916 -0.43944,0.27099 -0.49804,0.29296 -0.0586,0.0293 -0.30761,0.1831 -0.54931,0.34424 -0.44678,0.3003 -0.52735,0.33692 -1.17188,0.62256 -0.73974,0.3296 -0.89355,0.3882 -1.53807,0.58594 -0.82765,0.24902 -1.0547,0.30029 -1.66994,0.41016 -0.27099,0.0439 -0.51269,0.10986 -0.53466,0.14648 -0.022,0.0366 -0.10987,0.0659 -0.19776,0.0659 -0.16846,0 -0.82031,0.23437 -1.19384,0.43213 -0.40284,0.2124 -1.0547,0.6665 -1.0547,0.73974 0,0.044 -0.0366,0.0733 -0.0806,0.0733 -0.0439,0 -0.31494,0.19775 -0.61524,0.43945 -0.35156,0.28563 -0.6372,0.46143 -0.84228,0.50537 -0.16846,0.0366 -0.34424,0.10254 -0.38818,0.14648 -0.0439,0.0439 -0.23438,0.0806 -0.41748,0.0806 -0.28566,0 -0.40284,0.0513 -0.82032,0.3662 -0.27099,0.19776 -0.52734,0.3662 -0.58594,0.3662 -0.10253,0 -0.32958,0.1758 -0.90087,0.70314 -0.40283,0.36621 -1.45753,0.84961 -1.70655,0.78369 -0.21972,-0.0513 -0.95948,0.10987 -1.17188,0.25635 -0.32958,0.23437 -2.27782,0.36622 -2.34374,0.16845 -0.0147,-0.0439 -0.10986,-0.0806 -0.2124,-0.0806 -0.18311,0 -2.54883,-0.62989 -2.69532,-0.71777 -0.0366,-0.022 -0.14648,-0.0513 -0.23437,-0.0586 -0.34424,-0.0366 -0.98145,-0.25635 -0.9375,-0.32227 0.022,-0.0366 -0.0439,-0.0879 -0.14647,-0.11718 -0.13185,-0.0293 -0.37355,0.0293 -0.79103,0.19775 -0.50537,0.2124 -0.68115,0.24902 -1.1499,0.2417 -0.64453,-0.007 -1.18653,-0.10986 -1.36963,-0.25635 -0.54932,-0.43945 -0.67384,-0.54931 -0.98877,-0.84228 -0.36621,-0.34424 -0.38087,-0.61524 -0.0366,-0.74707 0.12451,-0.0586 0.30029,-0.13184 0.38085,-0.16114 0.0806,-0.0366 0.3003,-0.11718 0.49073,-0.17578 0.43945,-0.14648 1.4502,-0.6372 1.4502,-0.71045 0,-0.0293 0.0513,-0.10986 0.11717,-0.17578 0.0879,-0.0879 0.13185,-0.34425 0.1758,-1.01075 0.0439,-0.61522 0.11718,-1.08397 0.24902,-1.50878 0.10254,-0.34424 0.19043,-0.62988 0.19043,-0.64452 0,-0.0147 0.0293,-0.0147 0.0659,0.007 0.0293,0.022 0.11719,-0.17577 0.19044,-0.4321 0.0659,-0.2637 0.1538,-0.4761 0.19042,-0.4761 0.10254,0 0.21241,-0.52733 0.21241,-1.01806 0,-0.3955 -0.0366,-0.52001 -0.19043,-0.75439 -0.16114,-0.22705 -0.2124,-0.4248 -0.3003,-1.14258 -0.10254,-0.93017 -0.0952,-1.50879 0.0439,-1.64795 0.11719,-0.11718 0.10255,-0.38086 -0.0366,-0.49072 -0.16846,-0.14648 -0.65186,-1.01074 -0.79103,-1.40625 -0.19042,-0.56395 -0.52733,-1.18652 -0.9741,-1.78711 -0.1465,-0.1831 -0.2417,-0.40284 -0.2417,-0.52734 0,-0.21973 0.23437,-0.52735 0.40282,-0.52735 0.0586,0 0.12452,-0.0733 0.14648,-0.16845 0.1465,-0.65918 0.1831,-0.86426 0.1831,-1.19385 0,-0.24902 -0.0366,-0.41015 -0.10985,-0.46875 -0.0586,-0.0513 -0.10985,-0.1538 -0.10985,-0.22705 0,-0.0806 -0.1172,-0.271 -0.271,-0.43213 -0.24903,-0.28565 -0.27833,-0.29297 -0.58595,-0.24902 -0.26367,0.0366 -0.31495,0.0293 -0.31495,-0.0732 0,-0.0733 -0.0659,-0.11718 -0.17577,-0.11718 -0.0952,0 -0.26367,-0.0147 -0.38086,-0.0366 -0.11719,-0.0146 -0.29297,0 -0.39551,0.044 z"
         id="path2"
         inkscape:connector-curvature="0" />
    </g>
  </g>
</svg>
