<?xml version="1.0" encoding="UTF-8" standalone="no"?>
<svg
   xmlns:dc="http://purl.org/dc/elements/1.1/"
   xmlns:cc="http://creativecommons.org/ns#"
   xmlns:rdf="http://www.w3.org/1999/02/22-rdf-syntax-ns#"
   xmlns:svg="http://www.w3.org/2000/svg"
   xmlns="http://www.w3.org/2000/svg"
   xmlns:sodipodi="http://sodipodi.sourceforge.net/DTD/sodipodi-0.dtd"
   xmlns:inkscape="http://www.inkscape.org/namespaces/inkscape"
   width="899.56775mm"
   height="3071.3152mm"
   viewBox="0 0 899.56777 3071.3152"
   version="1.1"
   id="svg832"
   inkscape:version="1.0.2 (e86c870879, 2021-01-15)"
   sodipodi:docname="alone_standing_male14.svg">
  <defs
     id="defs826" />
  <sodipodi:namedview
     id="base"
     pagecolor="#ffffff"
     bordercolor="#666666"
     borderopacity="1.0"
     inkscape:pageopacity="0.0"
     inkscape:pageshadow="2"
     inkscape:zoom="0.024967078"
     inkscape:cx="2391.0377"
     inkscape:cy="-773.72072"
     inkscape:document-units="mm"
     inkscape:current-layer="layer1"
     showgrid="false"
     fit-margin-top="0"
     fit-margin-left="0"
     fit-margin-right="0"
     fit-margin-bottom="0"
     inkscape:window-width="1920"
     inkscape:window-height="997"
     inkscape:window-x="0"
     inkscape:window-y="0"
     inkscape:window-maximized="1"
     inkscape:document-rotation="0" />
  <metadata
     id="metadata829">
    <rdf:RDF>
      <cc:Work
         rdf:about="">
        <dc:format>image/svg+xml</dc:format>
        <dc:type
           rdf:resource="http://purl.org/dc/dcmitype/StillImage" />
        <dc:title></dc:title>
      </cc:Work>
    </rdf:RDF>
  </metadata>
  <g
     inkscape:label="Ebene 1"
     inkscape:groupmode="layer"
     id="layer1"
     transform="translate(-29.26403,-1733.7322)">
    <rect
       style="fill:#ffffff;stroke-width:0.884112;stroke-linecap:square;stroke-linejoin:round;stroke-dasharray:1.76822, 1.76822"
       id="rect831"
       width="899.56775"
       height="3071.3152"
       x="29.26403"
       y="1733.7322" />
    <path
       style="stroke-width:56.7387"
       inkscape:connector-curvature="0"
       d="m 465.04335,2441.9964 -1.44116,1.4469 -1.44684,4.3348 -1.44684,2.888 -1.44684,2.8937 -1.44679,5.776 -1.44684,2.8936 -1.44116,2.8937 v 7.2228 l -1.44684,2.888 -1.44685,4.3349 -1.44115,2.8879 -1.44684,2.8937 -1.44115,4.3349 -1.44685,4.3348 -1.44684,2.8937 -1.44685,2.888 -1.44684,2.8936 -1.44685,2.8937 -1.44677,2.888 -1.44685,4.3348 -2.888,1.4412 -1.44684,1.4468 -1.44116,1.4469 -1.44684,1.4468 -2.888,1.4469 -1.44684,1.4468 -1.44684,1.4412 -2.89369,1.4468 -1.44116,1.4468 -1.44684,1.4469 -1.44115,1.4468 -1.44685,1.4412 -1.44684,1.4468 -1.44115,1.4468 -1.44685,1.4469 -1.44678,1.4468 -1.44684,1.4468 -1.44684,2.888 -1.44685,1.4412 -1.44115,2.8937 -1.44685,1.4411 -1.44115,2.8937 -1.44685,1.4468 -1.44684,2.8937 -1.44116,2.888 -1.44684,1.4412 v -1.4406 l 1.44684,-10.1165 1.44116,-50.5826 1.44684,-2.888 2.888,-1.4468 1.44685,-1.4411 1.44115,-1.4469 1.44685,-1.4468 1.44684,-1.4412 1.44684,-2.8937 1.44678,-2.888 1.44685,-1.4468 1.44115,-2.8937 1.44684,-4.3348 1.44685,-5.776 1.44115,-4.3348 1.44684,-5.7874 7.22285,-7.2228 4.33484,-1.4468 2.88799,-1.4412 1.44685,-2.8937 1.44115,-1.4411 1.44684,-1.4469 1.44685,-1.4411 1.44684,-2.8937 1.44678,-1.4412 1.44685,-1.4468 1.44684,-1.4468 1.44684,-1.4412 1.44116,-1.4468 1.44684,-1.4469 1.44116,-1.4411 1.44684,-1.4469 1.44684,-1.4411 1.44116,-1.4469 1.44684,-1.4468 1.44685,-2.888 1.44684,-4.3348 1.44678,-5.776 h 1.44854 l 1.44122,7.2285 1.44678,7.2228 1.44121,7.2285 v 13.0079 l -2.88799,1.4412 z m 8.67537,-138.7374 1.44116,-2.888 1.44684,-1.4468 2.888,-1.4412 1.44684,-2.888 1.44678,-1.4468 1.44122,-2.888 1.44678,-2.8937 1.44684,-1.4411 h 2.88915 l 1.44116,4.3348 1.44684,2.888 1.44684,4.3348 1.44684,2.888 1.44685,4.3349 1.44684,4.3348 1.44679,5.7874 1.44684,5.7759 1.44116,5.7817 v 11.56 c 0,7.8815 0.68883,4.2814 -2.88909,5.7782 l -1.44685,2.888 -2.888,1.4468 -1.44684,1.4469 -1.44684,1.4411 -1.44684,1.4469 -1.44116,1.4468 -1.44684,1.4469 -1.44116,1.4468 -1.44684,1.4468 -1.44685,1.4412 -1.44115,1.4468 -1.44684,1.4412 -1.44678,1.4468 -1.44685,2.888 -1.44684,1.4469 -1.44684,1.4468 -1.44116,4.3348 -1.44684,1.4412 -1.44116,1.4468 -1.44684,1.4412 -1.44684,1.4468 -1.44116,1.4469 v -1.4483 l 1.44116,-1.4468 1.44684,-2.888 1.44684,-2.888 1.44116,-1.4469 1.44684,-1.4411 1.44116,-1.4469 1.44684,-2.888 1.44684,-1.4468 1.44685,-1.4468 1.44678,-1.4412 1.44684,-5.7817 1.44115,-5.776 1.44685,-2.8936 1.44684,-4.3292 1.44116,-2.8937 1.44684,-1.4468 1.44116,-4.3348 v -10.1194 l -1.44116,-2.888 -1.44684,-1.4468 -1.44116,-1.4412 -5.78731,-2.888 -1.44684,-1.4468 -1.44685,-1.4468 -1.44684,-2.888 -1.44685,-2.888 -1.44115,-2.8937 z m 106.94102,-382.9803 c 2.56911,-2.5689 -2.57251,2.5689 0,0 z m -5.776,-1.4411 z m -80.93203,-10.1165 4.33484,1.4468 2.89369,1.4468 2.888,1.4469 v 1.4445 h -10.11538 l -1.44684,4.3348 -5.776,1.4412 -5.78737,1.4468 -2.888,1.4469 -2.89363,1.4411 -1.44115,1.4468 -2.88806,1.4469 -2.89363,1.4468 -4.32915,1.4469 -2.89368,1.4468 -4.33484,1.4412 -1.44116,1.4468 -1.44684,1.4411 -2.888,4.3349 -4.33484,1.4468 -4.33484,1.4469 -2.888,1.4468 -1.44684,1.4468 -4.33484,1.4469 -4.33479,1.4411 -1.44684,1.4469 -2.888,1.4411 -2.89369,1.4469 h -10.11537 l -1.44684,2.888 v 2.8927 l 1.44684,1.4469 1.44684,1.4468 v 4.3373 l 1.44116,1.4411 1.44684,1.4469 v 5.7816 l -1.44684,1.4469 v 4.3336 l 1.44684,1.4468 1.44684,2.888 1.44116,7.2285 1.44684,2.8937 v 5.7782 l 2.888,7.2285 1.44684,1.4469 -1.44684,4.3348 v 7.2263 l -1.44685,1.4468 v 2.8891 l 1.44685,2.888 1.44684,1.4468 v 1.4483 l -1.44684,1.4411 -1.44685,7.2285 -1.44115,2.8937 -1.44684,5.776 -1.44116,2.888 -1.44684,1.4468 -1.44684,2.888 -1.44116,2.8937 v 4.3373 l 1.44116,2.888 2.89368,4.3349 1.44116,4.3348 1.44684,1.4411 v 1.4483 l -1.44684,1.4468 -1.44116,4.3292 -1.44684,4.3348 -1.44684,4.3349 -1.44116,5.7873 -1.44684,8.6697 -1.44684,7.2285 -1.44685,8.6697 -1.44678,4.3348 -1.44685,4.3291 -1.44115,5.7817 -1.44685,2.888 -1.44115,7.2285 -1.44684,2.888 -1.44685,2.888 -1.44115,5.7874 -1.44684,4.3348 -1.44116,4.3348 -1.44684,4.3349 v 10.1193 l 1.44684,1.4468 23.12099,1.4469 7.22284,1.4468 1.44685,5.776 0.23844,11.5974 -1.68516,5.7476 -1.44685,20.233 -1.44678,7.2285 -14.45137,7.2285 -4.33484,1.4469 -2.888,1.4468 -1.44684,1.4468 -1.44116,2.888 -1.44684,1.4469 -1.44116,2.888 v 10.1193 l 1.44116,2.888 1.44684,2.888 1.44116,2.8937 v 4.3336 l -1.44116,1.4468 -2.888,1.4468 -1.44684,2.888 -1.44684,1.4469 -1.44684,1.4411 -1.44679,1.4469 -1.44684,1.4468 -1.44116,2.888 -1.44684,1.4468 -1.44685,23.121 -1.44115,1.4412 -1.44684,1.4468 -1.44116,1.4469 -1.44684,1.4468 -1.44684,1.4468 -1.44685,2.888 -1.44684,2.888 -1.44684,2.8937 -1.44116,5.776 -1.44684,7.2228 -1.44116,7.2286 -1.44684,4.3348 -1.44684,7.2285 -1.44116,11.5577 -1.44684,4.3348 -1.44678,2.888 -1.44685,8.6696 -1.44684,10.1166 -1.44684,7.2228 -1.44685,4.3348 -1.44684,5.7817 -2.888,4.3348 -1.44684,7.2285 -1.44116,5.7817 -1.44684,1.4412 -1.44115,4.3348 -1.44685,4.3348 -2.888,5.7817 -1.44684,1.4412 -1.44678,10.1221 -1.44122,4.3349 -1.44678,5.776 -1.44122,10.1165 -1.44678,5.776 -1.44684,7.2285 -1.44116,5.7816 -1.44684,5.7817 -1.44684,7.2285 -1.44685,4.3349 -1.44684,5.776 -1.44684,2.888 -1.44685,2.8936 -1.44684,7.2285 -1.44115,7.2229 -1.44685,5.7873 -1.44678,4.3292 -1.44122,7.2284 -1.44678,4.3349 -1.44121,5.776 -1.44679,5.7816 -1.44684,7.2286 -1.44684,5.776 -1.44685,5.7816 -1.44684,7.2286 -1.44115,7.2284 -1.44685,4.3348 -1.44684,5.7817 -1.44116,15.8982 -1.44684,7.2285 -1.44115,7.2285 -1.44685,13.0102 -1.44684,7.2285 v 11.56 l 1.44684,13.0101 v 2.8891 l -1.44684,1.4469 -1.44684,1.4468 -1.44679,1.4469 -4.33484,1.4468 -2.888,1.4412 -1.44684,1.4468 -1.44115,1.4469 -1.44685,1.4411 -1.44684,1.4469 -1.44684,1.4468 -1.44685,2.888 -1.44684,1.4468 -1.44684,4.3292 -1.44679,2.8936 -1.44121,4.3349 -1.44679,2.888 -1.44121,4.3348 -1.44679,4.3349 -1.44684,11.5576 v 10.1153 l -1.44115,8.6697 -1.44685,7.2286 -1.44684,4.3348 -1.44684,8.6696 v 5.7817 l 1.44684,10.1165 1.44684,13.0102 1.44685,13.0102 1.44115,7.2285 1.44684,5.7759 1.44679,7.2229 1.44121,2.8937 1.44679,2.888 1.44121,4.3348 1.44679,2.888 1.44684,2.888 1.44684,1.4469 1.44685,2.888 1.44684,1.4468 1.44684,1.4468 1.44685,1.4468 1.44115,1.4469 1.44684,1.4468 2.888,2.888 1.44685,1.4412 2.88799,1.4468 2.888,1.4469 2.89363,1.4411 4.32915,1.4469 2.89369,1.4468 2.88799,1.4469 2.888,1.4468 2.89369,1.4468 h 7.22623 l 1.44115,-1.4468 h 4.33714 l 1.44679,1.4468 1.44684,2.8879 1.44684,1.4413 1.44685,2.8936 2.88799,1.4412 1.44685,1.4468 1.44115,1.4468 v 8.6748 l -1.44115,10.1109 -1.44685,1.4468 -1.44684,4.3349 -1.44115,1.4411 -1.44685,4.3348 -1.44684,4.3349 -1.44684,2.888 -1.44679,5.7873 -1.44684,7.2228 -1.44684,2.888 -1.44685,4.3349 -1.44115,5.7816 -1.44684,5.7761 -1.44685,4.3348 -1.44115,7.2284 -1.44685,1.4469 -1.44115,2.888 -1.44684,8.6754 -1.44685,13.0101 -1.44684,8.6697 -1.44684,7.2285 -1.44679,11.5577 -1.44121,8.6696 -1.44679,11.5633 v 24.5679 l 1.44679,1.4412 1.44121,5.7873 0.2439,24.6076 -1.68517,5.7419 v 15.8971 l 1.44115,15.8981 1.44684,4.3349 2.888,2.888 1.44685,2.8937 1.44684,2.888 1.44115,1.4468 2.888,2.888 1.44685,1.4468 2.88799,1.4469 1.44685,1.4468 1.44684,1.4468 v 11.564 l -1.44684,20.2329 v 52.0294 l 1.44684,17.3394 1.44684,10.1164 1.44679,15.8982 1.44684,11.5577 1.44684,7.2285 1.44685,15.8982 1.44115,17.3393 1.44685,1.4468 1.44684,7.2286 v 28.9054 l 1.44115,62.1459 1.44685,5.776 1.44115,11.5634 1.44684,8.6696 1.44685,8.6697 1.44684,5.776 1.44684,5.7873 1.44679,10.1108 1.44115,2.8937 1.44685,5.7761 1.44121,18.7918 1.44678,10.1165 1.44685,8.6697 1.44115,8.6752 1.44684,7.2229 1.44685,5.7761 1.44684,2.8936 1.44684,5.776 1.44685,4.3347 1.44684,2.888 1.44685,2.8938 1.44115,4.3348 1.44684,4.3291 1.44679,2.8938 1.44121,7.2227 1.44678,5.7761 1.44116,2.8936 1.44684,4.3349 1.44685,5.776 1.44684,2.888 1.44684,4.3348 1.44685,8.6695 1.44115,2.8881 1.44684,2.8938 1.44116,4.3347 1.44684,2.8881 1.44684,2.888 1.44116,5.7873 1.44684,7.2228 1.44685,4.3349 1.44684,7.2285 1.44684,5.7817 1.44679,5.776 1.44121,7.2285 1.44678,2.8936 1.44116,11.5577 1.44684,10.1165 1.44684,4.3347 1.44116,4.3349 1.44684,4.3349 1.44116,2.8881 1.44684,2.8878 1.44684,2.8938 1.44685,2.8881 1.44684,2.8879 1.44684,2.8936 1.44116,2.888 1.44684,2.888 1.44684,2.8881 1.44116,5.7817 1.44684,2.8879 1.44116,5.7816 1.44684,20.2331 v 7.2261 l -1.44684,28.9028 -1.44116,7.2228 -1.44684,4.3348 -1.44116,7.2285 -1.44684,2.8881 -1.44684,10.1165 v 26.0124 l 1.44684,7.2228 1.44684,5.7816 1.44116,5.776 1.44684,2.8938 1.44116,2.8879 1.44684,4.3349 1.44685,1.4469 1.44678,2.8936 1.44684,2.8879 1.44685,2.8881 1.44684,4.3347 1.44684,4.335 1.44116,5.7816 1.44684,2.8879 1.44685,4.335 1.44115,4.3347 1.44684,5.7761 1.44685,4.3349 1.44678,14.4512 1.44684,11.5634 v 13.008 l -1.44684,43.3539 v 31.7946 l 1.44684,13.0045 1.44684,5.7817 1.44685,5.776 1.44684,5.7874 1.44115,5.7817 0.2439,40.5 -1.68511,5.7419 v 7.2263 l 1.44116,5.7816 0.24389,13.0443 -1.68511,5.7419 -1.44684,1.4469 -1.44685,14.4513 -1.44684,5.7874 -1.44684,39.019 -1.44684,4.3349 -1.44685,2.888 -1.44684,2.8881 -1.44116,18.7918 -1.44684,7.2285 -1.44679,10.1165 -1.44121,15.8982 v 5.7816 l 1.44121,5.776 0.2439,8.7094 -1.68517,5.7476 -1.44678,7.2228 -1.44684,5.7761 -1.44685,4.3349 -1.44684,2.8936 -1.44685,2.8879 -1.44684,1.4469 -1.44685,4.3348 -1.44115,4.3349 -1.44684,14.4571 -2.888,5.7758 -1.44684,2.888 -1.44116,1.4469 -1.44684,1.4469 -1.44684,1.4411 -1.44685,2.8936 -1.44678,2.8881 -1.44684,2.888 -1.44116,2.888 -1.44684,2.8936 v 5.7783 l 1.44684,7.2285 1.44116,4.3291 1.44684,5.7874 1.44678,13.0102 1.44685,10.1109 1.44684,2.8936 1.44684,1.4411 1.44116,1.4469 1.44684,1.4411 -1.44684,5.7817 -1.44116,1.4469 -1.44684,1.4411 -2.888,1.4469 -2.89368,2.888 -1.44116,1.4467 -1.44684,1.4413 -2.88794,1.4467 -1.44684,1.4469 v 11.5639 l 1.44684,1.4412 1.44678,1.4469 1.44116,11.5576 v 5.7816 l -1.44116,4.335 -1.44678,2.888 0.57857,5.4639 -4.91359,1.7588 -1.44116,1.4469 -2.89369,2.888 -1.44684,2.888 -1.44684,1.4468 -1.44684,1.4412 -1.44116,1.4468 -1.44684,1.4469 -8.66963,1.4411 -10.11652,1.4469 -11.55768,1.4467 -10.11647,1.4469 -1.44684,1.4469 -4.33484,1.4467 -7.22853,1.4413 -4.33484,1.4467 -2.888,1.4413 -2.888,1.4467 -2.89362,1.4469 -5.776,1.4411 -4.33484,1.4469 -2.888,1.4469 -4.33484,1.4467 -1.44684,1.4469 -4.33485,1.447 -2.88799,1.441 -7.22284,1.4468 -4.33484,1.4412 -7.22847,1.4468 -7.22284,1.4469 -4.33484,1.4411 -2.888,1.4469 -14.457,1.4469 -11.55768,1.4467 -7.22853,1.4469 -17.3393,1.4469 -7.22853,1.4411 -4.32915,1.4469 -1.44684,1.4467 -4.33485,1.4412 -2.888,1.4468 h -2.88908 l -1.44684,1.4469 v 4.3337 l 1.44684,13.0101 1.44678,10.1165 1.44684,7.223 2.888,1.4467 H 470.8542 l 5.776,-1.4467 2.888,-2.8881 h 13.00791 l 2.888,1.4468 1.44684,1.4469 2.888,1.4469 1.44684,1.4467 h 80.92634 l 1.44685,-1.4467 1.44115,-4.3349 1.44684,-2.8937 1.44116,-2.888 1.44684,-2.888 1.44684,-2.8937 1.44116,-1.4468 1.44684,-2.8881 1.44116,-1.4468 1.44684,-2.8879 1.44685,-2.8937 1.44115,-1.4412 1.44684,-2.8936 1.44685,-1.4469 1.44115,-1.4468 1.44684,-1.4468 1.44685,-1.4469 1.44115,-2.888 2.888,-1.4469 1.44684,-2.8879 1.44679,-1.4468 1.44121,-1.4469 1.44678,-1.4467 1.44685,-2.8938 1.44115,-4.3348 1.44684,-2.888 v -21.6753 l -1.44684,-8.6696 -1.44115,-1.4469 v -1.4407 h 5.77829 l 1.44685,-7.2284 1.44115,-2.8881 1.44685,-4.3347 1.44684,-1.4412 1.44684,-4.3349 1.44678,-4.3348 1.44685,-5.7873 1.44684,-5.776 1.44685,-7.223 1.44115,-8.6752 v -17.3417 l 1.44684,-1.4467 1.44685,-1.4412 1.44115,-2.8879 1.44684,-1.4469 1.44116,-1.4469 1.44684,-1.4411 1.44684,-1.4469 2.888,-1.4468 v -8.6635 l -1.44684,-1.4468 -1.44684,-1.4468 -1.44685,-13.0102 -4.33484,-1.4411 -1.44116,-5.7874 -1.44684,-4.3347 -1.44684,-7.2285 -1.44116,-13.0104 -1.44684,-2.8879 -1.44678,-10.1108 -1.44684,-2.8937 -1.44685,-1.4411 -1.44684,-1.4469 -1.44685,-1.4469 -1.44684,-1.4467 v -4.3338 l 1.44684,-2.888 1.44685,-1.4469 1.44684,-1.4467 1.44685,-1.4411 1.44684,-1.4469 1.44678,-2.888 1.44684,-1.447 1.44116,-2.8879 1.44684,-1.4467 1.44684,-4.3349 1.44116,-4.3348 1.44684,-5.7761 v -20.2346 l -1.44684,-7.2285 -1.44116,-8.6699 v -31.7938 l -1.44684,-2.8881 -1.44684,-7.2285 -1.44116,-10.1165 -1.44684,-5.7817 -1.44678,-7.2285 -1.44684,-5.776 -1.44685,-10.1165 -1.44684,-5.7761 -1.44685,-4.3347 -1.44684,-8.6755 -1.44115,-8.6695 -1.44685,-7.2286 -1.44684,-5.7816 -1.44115,-10.1165 -1.44685,-7.2229 -1.44115,-21.6855 -1.44684,-15.8981 -1.44685,-7.223 -1.44115,-4.3347 -1.44685,-5.776 -1.44684,-7.2285 v -17.3417 l 1.44684,-15.8982 1.44685,-5.7816 1.44115,-5.776 1.44685,-5.7817 1.44684,-4.3349 1.44115,-2.8878 1.44685,-2.888 1.44115,-2.8938 1.44684,-2.888 1.44685,-2.8879 1.44115,-2.888 1.44684,-4.3348 1.44685,-2.8937 1.44684,-2.888 1.44685,-5.776 1.44684,-1.4469 1.44678,-4.3348 1.44684,-4.3349 1.44116,-7.2285 v -13.0079 l -1.44116,-1.4411 -1.44684,-1.4469 -1.44678,-1.4467 -1.44684,-2.8938 -1.44685,-4.3348 -1.44684,-2.888 -1.44685,-17.345 -1.44684,-13.0102 -1.44115,-1.4411 -1.44685,-4.3349 -1.44684,-11.5576 -1.44115,-8.6753 -1.44685,-11.5578 -1.44115,-5.7816 -1.44684,-13.0044 -1.44685,-4.3349 -1.44115,-2.8937 -1.44685,-4.3348 -1.44684,-5.7761 -1.44116,-4.3347 -1.44684,-4.3349 -1.44115,-4.335 -1.44685,-5.7758 -1.44678,-1.4469 -1.44121,-2.888 -1.44679,-5.7816 -1.44684,-1.4469 -1.44116,-1.4468 v -15.8976 l 1.44116,-2.888 1.44684,-1.4469 1.44679,-1.4468 2.88799,-2.8879 1.44685,-1.447 v -8.6707 l -1.44685,-2.888 -1.44678,-4.3349 -1.44121,-4.3348 -1.44679,-5.776 -1.44684,-4.3349 -1.44116,-1.4467 v -4.3338 l 1.44116,-4.3348 1.44684,-2.8879 1.44679,-5.7761 1.44121,-2.8936 1.44678,-4.3349 1.44685,-5.7761 1.44115,-8.6695 1.44684,-11.5634 v -39.0169 l -1.44684,-14.4513 -1.44115,-13.0102 -1.44685,-7.2285 -1.44678,-7.2229 -1.44121,-7.2285 -1.44679,-11.5577 -1.44684,-5.7872 -1.44116,-7.2229 -1.44684,-7.2285 -1.44684,-5.7761 -1.44116,-10.1163 -1.44684,-2.888 -1.44115,-4.3349 -1.44685,-2.8881 -1.44684,-2.8936 -1.44115,-5.7761 -1.44685,-5.7815 -1.44115,-15.8982 -1.44684,-11.5635 v -4.3336 l 1.44684,-2.8879 1.44115,-11.5635 1.44685,-10.1164 1.44115,-5.776 1.44684,-4.3349 1.44685,-2.888 1.44115,-37.578 1.44684,-5.776 v -2.8925 l -1.44684,-8.6697 v -1.4445 l 1.44684,-4.3349 v -4.3371 l 1.44116,-2.888 1.44684,-2.8937 1.44684,-5.7759 1.44116,-11.5634 1.44684,-8.6697 1.44679,-8.6696 1.44121,-21.6742 v -2.8965 l 1.44678,-2.888 1.44685,-2.888 1.44115,-2.888 1.44684,-1.4468 1.44116,-4.3349 1.44684,-2.8879 1.44685,-1.4469 1.44115,-1.4469 1.44685,-5.7759 1.44684,-24.5736 1.44115,-2.888 1.44685,-5.7816 1.44115,-2.888 1.44684,-1.4468 1.44685,-2.888 1.44115,-4.3349 1.44684,-4.3348 1.44685,-2.888 1.44684,-2.888 1.44685,-4.3349 1.44684,-2.8936 1.44678,-2.8881 1.44684,-4.3348 1.44116,-4.3347 1.44684,-4.3349 1.44684,-4.3292 1.44116,-5.7873 1.44684,-2.8881 1.44116,-2.8936 1.44684,-5.776 1.44685,-10.1165 1.44684,-10.1165 1.44684,-15.8982 v -30.35 l -1.44684,-14.4514 v -2.8892 l 1.44684,-2.8879 2.888,-4.3349 1.44684,-2.8936 1.44116,-4.3348 1.44684,-5.7761 1.44685,-7.2284 v -34.6838 l -1.44685,-10.1165 -1.44684,-10.1166 -1.44116,-11.5576 -1.44684,-5.7817 -1.44116,-7.2285 -1.44684,-5.7816 -0.24389,-27.4956 1.6908,-5.7419 1.44115,-13.0045 1.44685,-11.5578 1.44115,-15.8981 1.44684,-8.6754 1.44685,-5.7816 1.44115,-2.888 1.44684,-7.2228 1.44685,-7.2285 1.44678,-5.7817 1.44684,-7.2285 1.44116,-5.7817 1.44684,-1.4468 1.44685,-5.7817 1.44115,-7.2285 1.44685,-2.888 1.44684,-1.4468 1.44115,-4.3349 1.44685,-2.888 1.44115,-4.3348 1.44684,-4.3349 1.44685,-5.7873 1.44115,-2.888 1.44684,-4.3348 1.44685,-4.3348 1.44115,-2.8881 1.44684,-2.888 1.44685,-2.888 1.44115,-4.3348 1.44685,-2.8936 1.44115,-4.3348 1.44685,-4.3293 1.44684,-2.8936 1.44115,-2.888 1.44685,-2.888 1.44678,-4.3348 1.44684,-2.888 1.44685,-4.3349 1.44115,-4.3348 1.44684,-2.8937 1.44685,-2.888 1.44115,-4.3348 1.44684,-5.776 1.44685,-2.8937 1.44115,-2.888 1.44685,-4.3348 1.44684,-1.4469 1.44684,-4.3348 1.44679,-2.8937 1.44121,-5.776 1.44684,-1.4468 1.44116,-4.3349 1.44684,-1.4411 1.44678,-2.8936 1.44122,-1.4413 1.44678,-2.8879 1.44684,-2.8937 1.44685,-4.3348 1.44684,-2.888 1.44685,-4.3349 1.44115,-2.888 1.44684,-2.8879 1.44116,-2.8937 1.44684,-4.3349 1.44684,-4.3348 1.44116,-7.2228 1.44684,-7.2285 1.44685,-13.0102 1.44684,-4.3348 1.44679,-4.3292 1.44121,-4.3348 1.44678,-2.8937 1.44685,-2.888 1.44115,-8.6697 1.44684,-5.776 1.44685,-4.3348 1.44115,-5.7816 1.44684,-13.0046 1.44116,-14.4569 v -21.672 l -1.44116,-11.5634 -1.44684,-11.5632 -1.44115,-8.6697 -1.44685,-5.7874 -1.44684,-7.2228 -1.44115,-8.6753 -1.44685,-5.7817 -1.44678,-5.776 -1.44121,-8.6754 -1.44679,-2.8879 -1.44684,-5.7874 -1.44685,-4.3348 -1.44684,-5.776 -1.44116,-10.1165 -1.44684,-4.3349 -1.44684,-17.3393 -1.44116,-2.8937 -1.44684,-4.3348 -1.44115,-4.3348 -1.44685,-7.2285 -1.44684,-4.3349 -1.44685,-5.7873 -1.44684,-11.5577 -1.44678,-8.6696 -1.44122,-7.2286 -1.44678,-8.6696 -1.44684,-8.6754 -1.44116,-4.3348 -1.44684,-1.4412 -1.44121,-4.3348 -1.44679,-2.8937 -1.44684,-1.4411 -1.44684,-1.4469 -1.44685,-1.4411 -1.44115,-1.4469 -1.44685,-1.4468 -1.44684,-1.4412 -1.44115,-1.4468 -1.44685,-1.4468 -1.44684,-1.4412 -1.44115,-2.8937 -1.44685,-1.4411 -1.44684,-2.888 -1.44678,-2.8937 v -2.8895 l -1.44685,-1.4468 -1.44115,-1.4412 -1.44684,-2.8936 -1.44685,-2.888 -1.44115,-2.888 -1.44685,-1.4469 -1.44115,-5.776 -1.44685,-1.4468 -1.44684,-1.4468 -1.44115,-2.888 -1.44685,-2.888 -1.44684,-1.4469 -1.44115,-1.4411 -1.44685,-2.8937 -1.44684,-1.4412 -1.44115,-1.4468 -1.44685,-1.4468 -1.44115,-2.888 -1.44684,-1.4412 -1.44685,-1.4468 -1.44115,-1.4469 -1.44685,-1.4468 -1.44684,-2.8937 -1.44116,-1.4411 -1.44684,-2.8937 -1.44678,-2.888 -1.44685,-1.4412 -1.44684,-2.8936 -1.44115,-2.888 -1.44685,-1.4469 -1.44684,-2.888 -1.44115,-4.3348 -1.44685,-1.4412 -1.44115,-2.8936 -1.44684,-5.776 -1.44685,-7.2286 -1.44684,-2.8936 -1.44685,-7.2285 -1.44678,-8.6697 -1.44121,-5.776 -1.44679,-4.3348 v -1.4483 l 1.44679,-14.4513 1.44121,-2.8937 1.44678,-4.3348 1.44685,-5.7817 1.44684,-2.888 1.44685,-4.3348 1.44684,-4.3349 1.44115,-2.888 1.44685,-1.4468 1.44115,-1.4468 2.89369,-1.4412 1.44115,-2.8937 1.44684,-2.888 1.44685,-1.4468 2.88799,-2.8937 2.888,-1.4411 1.44679,-1.4469 1.44121,-1.4468 1.44685,-1.4412 1.44678,-1.4468 2.88799,-2.888 1.44122,-1.4468 1.44678,-1.4469 1.44685,-1.4468 1.44115,-1.4468 1.44685,-2.888 1.44684,-2.888 1.44116,-2.8937 1.44684,-1.4468 1.44684,-2.888 1.44116,-2.8937 1.44684,-1.4412 1.44115,-1.4468 1.44685,-2.888 1.44684,-1.4468 1.44115,-1.4469 1.44685,-1.4468 1.44684,-1.4468 1.44684,-1.4469 1.44679,-2.8937 1.44121,-1.4411 1.44684,-1.4469 1.44679,-1.4468 1.44121,-1.4412 1.44679,-1.4468 1.44684,-1.4468 1.44115,-2.888 1.44685,-2.888 2.88799,-4.3349 1.44685,-1.4468 1.44115,-10.1108 1.44685,-4.3349 1.44115,-2.888 1.44685,-7.2285 1.44684,-8.6696 v -34.6866 l -1.44684,-4.3349 -1.44685,-7.2285 -1.44115,-4.3348 -1.44685,-5.776 -1.44115,-8.6754 -1.44685,-2.888 -1.44684,-2.8936 -1.44678,-4.3292 1.44678,-2.8937 v -5.7782 l -2.89362,-1.4469 -1.44116,-4.3348 -1.44684,-1.4412 -1.44684,-4.3348 -1.44116,-2.8937 -1.44684,-2.888 -1.44685,-2.888 -1.44115,-2.888 -1.44685,-4.3348 -2.88799,-2.8937 -2.888,-4.3348 -1.44684,-1.4412 -2.888,-1.4468 -1.44684,-2.888 -1.44116,-5.7817 h -2.89653 l -2.888,-1.4468 1.44685,-8.6697 1.44115,-4.3348 1.44684,-5.7817 v -4.3373 h -2.88908 l -1.44685,4.3348 -1.44684,4.3349 -1.44116,4.3348 -1.44684,2.888 -1.44684,1.4468 -1.44116,-2.888 -1.44684,-2.888 -1.44116,-4.3348 v -5.7817 l -1.44678,-1.4468 -1.44684,-1.4412 -1.44116,-2.8936 -2.89368,-1.4469 -1.44116,-4.3348 -1.44684,-1.4468 -1.44684,-1.4412 -1.44685,-1.4468 -1.44678,-1.4469 -2.888,-1.4411 -1.44684,-1.4469 h -4.32976 l -1.44684,-2.888 -2.888,-1.4468 -1.44684,-1.4468 -2.888,-1.4469 -1.44685,-1.4468 -1.44115,-1.4412 -1.44685,-1.4468 -2.88799,-1.4468 -2.89363,-1.4412 -1.44684,-1.4468 -2.888,-1.4412 -2.89369,-1.4468 -2.888,-1.4469 -2.888,-1.4468 -1.44684,-1.4468 -4.33484,-1.4469 -2.88799,-1.4411 -1.44685,-1.4469 -4.32915,-1.4468 -2.89363,-1.4412 -4.33484,-1.4468 -4.33484,-1.4412 -7.22853,-1.4468 -4.32915,-1.4468 -4.33484,-1.4469 -2.89369,-1.4468 -2.888,-1.4469 h -1.44793 l -5.77599,1.4469 -1.44685,1.4468 v 2.8891 l 2.89369,1.4468 -2.89369,1.4412 -8.66968,-1.4412 -11.56331,-1.4468 -5.78169,-1.4468 -2.88799,-1.4469 h -1.448 l -5.77599,1.4469 -8.66963,-1.4469 -4.33484,-1.4468 -1.44684,-1.4469 -4.33484,-1.4411 -4.33484,-1.4469 -4.33484,-1.4468 h -7.22623 v 4.3373 z"
       id="path2" />
  </g>
</svg>
