<?xml version="1.0" encoding="UTF-8" standalone="no"?>
<svg
   xmlns:dc="http://purl.org/dc/elements/1.1/"
   xmlns:cc="http://creativecommons.org/ns#"
   xmlns:rdf="http://www.w3.org/1999/02/22-rdf-syntax-ns#"
   xmlns:svg="http://www.w3.org/2000/svg"
   xmlns="http://www.w3.org/2000/svg"
   xmlns:sodipodi="http://sodipodi.sourceforge.net/DTD/sodipodi-0.dtd"
   xmlns:inkscape="http://www.inkscape.org/namespaces/inkscape"
   version="1.1"
   width="841.87238"
   height="1524.538"
   viewBox="0 0 841.87237 1524.538"
   id="svg7"
   sodipodi:docname="alone_standing_male8.svg"
   inkscape:version="1.0.2 (e86c870879, 2021-01-15)">
  <metadata
     id="metadata13">
    <rdf:RDF>
      <cc:Work
         rdf:about="">
        <dc:format>image/svg+xml</dc:format>
        <dc:type
           rdf:resource="http://purl.org/dc/dcmitype/StillImage" />
        <dc:title></dc:title>
      </cc:Work>
    </rdf:RDF>
  </metadata>
  <defs
     id="defs11" />
  <sodipodi:namedview
     pagecolor="#ffffff"
     bordercolor="#666666"
     borderopacity="1"
     objecttolerance="10"
     gridtolerance="10"
     guidetolerance="10"
     inkscape:pageopacity="0"
     inkscape:pageshadow="2"
     inkscape:window-width="1920"
     inkscape:window-height="997"
     id="namedview9"
     showgrid="false"
     fit-margin-top="0"
     fit-margin-left="0"
     fit-margin-right="0"
     fit-margin-bottom="0"
     inkscape:zoom="0.24180328"
     inkscape:cx="221.46994"
     inkscape:cy="503.12962"
     inkscape:window-x="0"
     inkscape:window-y="0"
     inkscape:window-maximized="1"
     inkscape:current-layer="svg7"
     inkscape:document-rotation="0" />
  <rect
     style="fill:#ffffff;stroke-width:5.66929;stroke-linecap:square;stroke-linejoin:round;stroke-dasharray:11.3386, 11.3386"
     id="rect832"
     width="841.87238"
     height="1524.538"
     x="0"
     y="0" />
  <g
     id="layer1"
     transform="matrix(2.0476164,0,0,2.0476164,-214.11603,-472.30113)">
    <g
       style="fill:#000000;fill-opacity:1;stroke-linejoin:miter"
       id="g4">
      <path
         d="m 428.2107,403.40665 q 0.87542,1.43771 1.73132,2.84631 v 0 c -1.07788,-1.00336 -1.5737,-1.80582 -1.7356,-2.84631 z M 241.54573,455.5113 c 0.28732,0 0.57459,1.43658 0.57459,3.23217 0,2.94476 3.0884,16.44751 6.17684,26.93383 1.72376,5.96137 1.50828,10.41444 -0.79006,15.80122 -0.53562,1.24972 -1.05347,2.819 -1.46532,4.33712 v 0 l -10.09551,-40.48202 h -0.002 c 0.1964,-0.18522 0.38886,-0.37172 0.57416,-0.55702 2.08286,-2.0111 2.72931,-3.16027 2.72931,-5.09954 0,-2.29821 1.00552,-4.16576 2.29834,-4.16576 z m 172.08293,16.47082 c 0.83234,0 1.88864,1.16562 2.87934,3.42444 0.79003,1.9392 1.7956,4.66851 2.29834,6.10498 0.43096,1.50824 1.14916,2.7293 1.5083,2.7293 0.35913,0 0.64636,0.78998 0.64636,1.79548 0,1.79558 4.52496,7.54162 5.8896,7.54162 0.0816,0 0.18547,0.026 0.30403,0.0728 h -0.004 l -9.28683,19.7492 v 0 c -0.20053,-1.85128 -0.5142,-4.27881 -0.85279,-6.60656 -0.57458,-3.87848 -1.43646,-11.20453 -1.93921,-16.30396 -0.57458,-6.17682 -1.14923,-9.12152 -1.72375,-9.12152 -1.00556,0 -1.65198,-3.80676 -1.14918,-7.03876 0.22535,-1.57763 0.7538,-2.34704 1.43006,-2.34704 z m -240.8181,425.24432 c 0.21546,0 0.3591,0.43091 0.3591,1.00549 0,1.11867 -2.8333,3.14157 -4.19211,3.14157 -0.12437,0 -0.2364,-0.017 -0.33276,-0.0531 -0.50275,-0.21554 0.21545,-0.7182 1.5083,-1.22103 1.22101,-0.50281 2.29834,-1.29287 2.29834,-1.86744 0,-0.57458 0.14365,-1.00549 0.35913,-1.00549 z M 321.1069,257.67343 c -1.63556,0 -3.22876,0.10307 -4.6492,0.32315 -2.01104,0.28722 -5.5304,1.3645 -7.82873,2.4419 -2.37017,1.07739 -5.74591,2.22656 -7.46967,2.58569 -3.66296,0.64636 -4.88403,1.86731 -7.8288,7.90063 -1.79553,3.73487 -1.9392,4.66852 -2.2265,16.87848 -0.2873,10.27082 -0.57458,13.07196 -1.36462,13.64655 -1.58014,1.14911 -2.22656,5.88947 -1.58014,11.77905 0.50276,4.30945 1.00549,5.74585 3.08838,8.69055 1.43652,1.93927 2.80115,4.45313 3.0166,5.53047 0.28735,1.07738 1.07733,3.30388 1.79558,4.88402 0.7901,1.58014 1.36464,4.59668 1.36464,6.75141 0,3.44757 -0.21546,4.09393 -2.5138,6.17682 -1.36462,1.29285 -4.59674,3.87848 -7.25414,5.67407 -4.30945,3.01654 -5.38685,3.44751 -10.62995,4.09393 -13.0719,1.65198 -19.75145,2.87299 -24.85091,4.59668 -2.94479,0.93377 -5.88955,1.79567 -6.46417,1.79567 -2.72925,0 -8.40332,7.61327 -10.4862,13.93376 -0.64643,2.01104 -1.58014,4.16577 -2.08289,4.74042 -1.58014,1.86732 -3.0166,5.31488 -3.44757,8.25958 -0.50275,2.87299 -1.93924,6.17694 -4.38123,9.83984 -0.93371,1.43653 -1.14917,2.65748 -0.86188,4.45307 0.43098,2.15479 0.0718,2.87299 -2.22653,5.67407 -3.16021,3.73486 -6.75143,9.91176 -12.20999,20.61346 -2.15472,4.16572 -4.88403,8.54694 -6.0332,9.7679 -1.36462,1.4365 -2.58566,3.8067 -3.23206,6.46422 -0.64642,2.29822 -1.93924,5.67408 -2.87292,7.61328 -1.65198,3.23206 -1.72379,3.7348 -1.00556,9.69617 0.35914,3.51935 0.71826,8.90613 0.71826,12.06635 0,3.23211 0.50275,7.61334 1.07737,9.83984 0.57455,2.2265 1.50827,7.25421 2.08285,11.13269 1.36466,9.2652 3.37571,14.43652 7.18238,18.67401 2.29834,2.58574 3.66296,5.17139 5.31494,10.05544 1.29281,3.59117 2.29834,7.46965 2.29834,8.61876 0,1.07739 0.43097,2.72931 0.93372,3.59124 0.43093,0.8618 2.37017,4.3094 4.30941,7.68506 1.8674,3.37574 5.81769,9.91174 8.69064,14.50844 2.94477,4.5248 5.60227,9.2652 5.81772,10.41435 0.3591,1.43645 -0.14364,4.16575 -1.29281,8.04425 -1.00553,3.23206 -2.94476,9.6244 -4.38126,14.2211 -1.43646,4.59665 -2.58563,8.7624 -2.58563,9.26523 0,0.45967 1.24101,0.68947 4.42161,0.68947 0.79534,0 1.71193,-0.0144 2.76073,-0.0431 1.50333,-0.049 2.7018,-0.0795 3.67494,-0.0795 3.30426,0 4.01058,0.35086 5.23122,1.516 1.50827,1.4365 1.65192,1.9392 1.00553,3.663 -0.35917,1.14915 -1.14918,2.442 -1.72379,2.94474 -0.57456,0.43096 -1.50827,2.65756 -2.1547,4.88406 -0.64642,2.2265 -1.72378,5.6022 -2.44198,7.6133 -0.71826,1.93917 -1.79559,6.32045 -2.51386,9.6961 -0.64642,3.37576 -2.01104,9.2653 -2.94476,13.0719 -0.93371,3.8067 -1.72379,8.0443 -1.72379,9.3371 0,1.2928 -0.79006,6.2487 -1.79559,10.98904 -1.93921,9.69616 -4.66852,32.39239 -4.66852,39.43116 0,2.5856 -0.64642,7.326 -1.43649,10.55803 -0.7182,3.23207 -1.86737,10.12714 -2.51379,15.2984 -0.57462,5.17133 -1.43647,11.49183 -1.86743,14.07747 -2.22654,13.21556 -2.94477,18.24315 -3.80665,24.7791 -0.50274,3.9503 -1.5801,9.4089 -2.44198,12.21 -0.86191,2.72933 -2.22653,9.19344 -3.08841,14.36477 -0.79007,5.09949 -1.79562,10.91717 -2.15473,12.92823 -0.35913,1.9392 -0.50277,4.453 -0.21545,5.4586 0.21545,1.0773 -0.0719,3.01655 -0.64642,4.30946 -0.50278,1.36464 -1.36463,4.52478 -1.86743,7.11047 -0.93372,4.59667 -2.44199,8.54697 -5.1713,13.71827 -0.71823,1.4365 -1.36463,3.30395 -1.36463,4.094 0,0.86187 -0.28732,1.65197 -0.64642,1.8674 -0.3591,0.28725 -0.8619,1.7238 -1.14917,3.30385 -0.28729,1.58015 -0.79007,3.0166 -1.14917,3.3039 -0.35916,0.21551 -0.64642,1.79559 -0.64642,3.59118 0,2.2265 -0.57462,4.09394 -1.86743,6.17682 -1.07736,1.65195 -2.37018,3.95032 -2.94476,5.17125 -1.58011,3.44765 -2.58563,5.0995 -4.02213,6.46425 -0.7182,0.71815 -1.50827,2.22645 -1.72372,3.37561 -0.21552,1.14914 -0.71827,2.29834 -1.00556,2.51394 -0.35913,0.2154 -0.64642,0.9336 -0.64642,1.65183 0,0.71827 -1.43646,4.16577 -3.08841,7.61337 -2.80112,5.45853 -3.51938,6.39225 -6.10501,7.5414 -1.65195,0.7901 -3.01658,1.86745 -3.01658,2.44203 0,0.57457 -0.64642,1.43653 -1.50832,1.86744 -1.07737,0.64643 -1.36463,1.29283 -1.07737,2.51379 0.50281,1.93924 -1.14917,3.30389 -9.98343,8.40338 -5.38678,3.16022 -9.33709,5.09946 -21.5471,10.48626 -5.31493,2.3702 -5.88954,3.1603 -6.03317,7.9724 -0.0718,1.9392 0.50277,2.87294 2.80111,5.02767 3.23206,2.94476 5.88955,3.80663 15.44207,5.17133 2.43463,0.31506 4.04683,0.50445 5.66111,0.50445 2.43366,0 4.87201,-0.43048 10.1401,-1.51001 5.17129,-1.00554 12.71273,-2.44204 16.87854,-3.08844 4.81216,-0.79004 8.47518,-1.7956 10.05532,-2.80115 2.8729,-1.79555 7.90054,-6.82315 7.90054,-7.90051 0.0126,-0.0628 0.0361,-0.0926 0.0695,-0.0926 0.15745,0 0.53378,0.6652 1.0079,1.6727 1.00553,2.29836 1.1492,2.3702 5.45862,2.3702 4.884,0 13.00006,-1.1492 15.58569,-2.22657 0.86188,-0.35907 2.29834,-0.93363 3.23206,-1.29278 0.86187,-0.35915 2.87295,-0.86195 4.45309,-1.14915 1.58008,-0.2873 3.66297,-0.93374 4.59668,-1.5802 1.72379,-1.0773 1.72379,-1.0773 1.22098,-10.91714 -0.28726,-5.38676 -1.00546,-12.42546 -1.65192,-15.65756 -1.14917,-5.8177 -1.14917,-5.8177 0.50275,-8.11606 1.22104,-1.72384 1.50833,-2.87294 1.22104,-5.02764 -0.43097,-3.0884 0.14364,-3.5912 4.23758,-3.5912 1.36465,0 2.44198,-0.35906 2.44198,-0.71825 0,-0.86185 2.94477,-5.24305 3.80668,-5.60215 0.28729,-0.1437 0.50277,-0.93374 0.50277,-1.7956 0,-0.8619 0.7182,-2.7293 1.58011,-4.09395 1.8674,-3.0166 5.96136,-14.6521 7.0387,-20.1106 0.43097,-2.15475 1.221,-5.60229 1.79559,-7.5415 2.37016,-8.69065 3.87853,-15.29845 4.23759,-18.31505 0.21546,-1.7956 0.71827,-4.6685 1.14917,-6.4641 0.35913,-1.79556 1.29285,-6.8233 2.08289,-11.13266 0.79004,-4.38128 1.86743,-10.27084 2.51385,-13.14374 0.64637,-2.8729 1.14917,-7.11047 1.14917,-9.40887 0,-2.29833 0.21546,-4.38123 0.43091,-4.59673 1.58015,-1.5083 5.09949,-12.21 6.75147,-20.2542 0.43091,-2.3702 1.5083,-6.7514 2.29834,-9.69625 0.79004,-2.9447 1.65191,-6.53589 1.93921,-7.90055 0.64643,-3.0884 5.60229,-20.25423 6.89508,-23.70174 0.4309,-1.36466 2.08288,-6.24872 3.59118,-10.77362 1.43647,-4.52484 3.23207,-9.5525 3.95027,-11.13264 0.71825,-1.58013 3.9503,-9.55255 7.18242,-17.81225 l 5.96131,-14.86745 1.58014,4.4531 c 1.93921,5.67405 6.53589,14.4365 8.76251,16.8066 0.93365,1.00564 1.65185,2.01113 1.65185,2.29836 0,0.28734 0.7901,1.43654 1.65197,2.58574 l 1.652,2.0829 -1.22108,6.5359 c -1.36462,7.1105 -1.72369,18.6741 -0.64636,22.6962 0.35914,1.3647 1.29278,4.74044 2.08288,7.5415 1.14916,3.8785 1.5083,7.18234 1.5083,14.72384 0,6.96692 0.43091,11.49182 1.43646,16.16036 2.01105,8.6906 2.5138,12.5691 1.65192,12.5691 -1.00555,0 -3.51935,4.8122 -4.81212,9.33707 -1.29286,4.23753 -3.30397,22.04986 -3.30397,28.87303 0,2.2266 -0.28723,4.1658 -0.64636,4.30946 -1.29284,0.43094 -3.66302,16.59124 -3.66302,24.6355 0,4.38124 0.0719,8.40334 0.0719,8.97794 0.1436,2.0111 -3.01662,14.72384 -4.09395,16.3039 -1.58008,2.5139 -1.29285,5.67415 0.79005,7.6133 1.07738,0.9337 1.86742,2.4421 1.93926,3.44763 0,0.93372 0.64636,3.73477 1.36464,6.24857 0.71825,2.442 1.5083,6.6078 1.79558,9.19345 0.43092,4.0221 0.28729,4.8122 -0.79004,5.6023 -1.22101,0.86181 -1.36469,2.2265 -1.29284,14.86745 0.0718,7.6851 0.35912,17.0222 0.71825,20.82883 0.64637,5.96131 1.0055,7.32597 3.01661,10.19897 3.80658,5.6022 9.48064,9.1216 14.65197,9.1216 4.38123,0 9.55249,-1.7238 12.64093,-4.1658 1.43647,-1.0774 3.16028,-2.22654 3.87848,-2.51384 0.64643,-0.21546 1.22101,-0.93366 1.22101,-1.58016 0,-0.57456 0.64642,-1.7237 1.5083,-2.5856 1.58015,-1.58015 2.65747,-6.96686 2.37018,-11.77906 -0.21545,-3.80664 -1.07739,-8.54704 -1.72375,-8.97794 -0.43098,-0.35916 -1.50831,-3.87844 -3.80665,-12.7846 -0.57463,-2.22653 -0.57463,-3.232 0,-3.5912 0.43091,-0.2873 1.14917,-2.442 1.58007,-4.81215 0.71827,-4.09395 2.0829,-6.10505 4.0221,-6.10505 0.5028,0 1.652,-0.71826 2.65754,-1.6519 1.65192,-1.5084 1.72376,-2.0829 1.79559,-10.41444 0.14362,-8.40336 0.21547,-8.83426 1.93921,-10.34256 1.43646,-1.36465 2.08289,-3.0885 3.3039,-9.1216 0.79003,-4.094 1.43646,-8.18794 1.43646,-9.19343 0,-0.93377 0.43097,-2.22657 1.0055,-2.72931 0.6464,-0.64642 1.00555,-3.08836 1.07738,-7.68516 0.0718,-3.663 0.43097,-9.6243 0.79004,-13.1437 0.35913,-3.5912 1.00556,-14.22107 1.43653,-23.7018 0.4309,-9.4807 1.07733,-18.6741 1.43645,-20.4697 0.35908,-1.7956 0.8619,-5.2431 1.14918,-7.7569 0.21545,-2.4421 0.7182,-4.4531 1.07732,-4.4531 0.35914,0 0.64643,-3.44754 0.64643,-7.7569 0.0718,-8.4034 0.57459,-13.0719 2.87293,-26.7185 0.7901,-4.9557 1.72374,-13.71823 1.93927,-19.60776 0.21545,-5.81769 0.7182,-10.5581 1.00555,-10.5581 0.35907,0 0.64636,-3.232 0.64636,-7.18234 0,-3.87846 0.64643,-12.0663 1.43653,-18.0995 0.7182,-6.105 1.58008,-16.0167 1.86737,-22.12167 0.21546,-6.10503 0.86188,-13.862 1.43646,-17.16583 0.57465,-3.3039 1.00556,-7.6133 1.00556,-9.4807 0,-1.9393 0.35907,-3.5194 0.71826,-3.5194 0.43091,0 0.7182,-1.7956 0.7182,-3.9503 0,-2.1547 -0.28729,-3.9503 -0.7182,-3.9503 -0.35919,0 -0.71826,-0.8619 -0.71826,-1.8674 0,-1.05777 0.19232,-1.58664 0.65567,-1.58664 0.10293,0 0.21927,0.026 0.34982,0.0783 0.24535,0.0908 0.72525,0.1323 1.38325,0.1323 4.5427,0 17.57436,-1.9751 20.523,-3.29255 1.8953,-0.81955 3.16952,-1.16425 4.917,-1.16425 0.70275,0 1.48202,0.0557 2.409,0.15876 1.023,0.12474 2.0612,0.18454 3.09123,0.18454 4.89977,0 9.61475,-1.35196 11.63257,-3.48843 l 1.9392,-2.01107 -1.9392,-11.06083 c -1.00555,-6.17682 -1.86737,-13.79017 -1.86737,-17.23767 0,-1.7934 -0.0266,-3.0982 -0.0987,-4.0363 h -0.004 q 24.83212,-39.2038 33.61876,-51.62435 h -0.005 c 0.54383,-0.64905 0.90873,-1.13721 0.95833,-1.32831 h -0.005 q 0.36236,-0.5014 0.6907,-0.9461 2.66266,-3.88854 5.50577,-7.20899 h -0.005 c 0.57229,-0.002 1.00105,-0.43222 1.00105,-0.93365 0,-0.0703 0.0112,-0.1499 0.0327,-0.23773 h -0.005 q 4.09519,-4.58402 8.55631,-8.01563 1.94376,-2.92822 1.91153,-7.3338 0.0557,-5.6163 -3.23067,-14.61786 h -0.005 c -0.26541,-1.22918 -0.47918,-2.37915 -0.5809,-3.19293 -0.21545,-1.79559 -0.7182,-3.0166 -1.29278,-3.0166 -0.31781,0 -0.97281,-1.02595 -1.72013,-2.5087 h -0.005 q -0.505,-1.1109 -1.0473,-2.25958 h -0.005 c -1.33318,-3.04197 -2.60988,-6.65933 -2.60988,-8.01633 0,-0.86182 -0.43098,-1.58014 -0.8619,-1.58014 -1.14916,0 -5.53045,-7.39783 -6.10497,-10.27075 -0.21553,-1.14923 -0.86193,-2.2265 -1.29285,-2.44202 -0.46933,-0.16766 -1.83058,-1.9783 -3.14892,-3.97851 h -0.005 q -1.32541,-2.32074 -2.77142,-4.81858 h -0.005 c -0.11286,-0.27394 -0.17554,-0.48437 -0.17554,-0.61178 0,-0.43096 -0.28729,-0.86188 -0.64636,-1.00549 -0.0468,-0.0176 -0.0994,-0.0466 -0.15732,-0.0864 h -0.005 q -9.52,-16.3772 -23.98625,-40.01587 l -8.98117,-14.67883 q -0.32008,-0.41264 -0.68174,-0.67877 h -0.004 c -0.20703,-1.4079 -0.42178,-2.37693 -0.58826,-2.50177 -0.28729,-0.21546 -1.14917,-1.7956 -1.86743,-3.44758 -0.71826,-1.65197 -2.01104,-3.59118 -2.87292,-4.38122 -2.01112,-1.79553 -8.25972,-3.59113 -15.51392,-4.52484 -3.30383,-0.35913 -6.89508,-1.22106 -7.9724,-1.72382 -1.0774,-0.57452 -2.5857,-1.07727 -3.37574,-1.07727 -0.7182,0 -1.58014,-0.28729 -1.93921,-0.64647 -1.22101,-1.07734 -9.83985,-3.5912 -14.00562,-4.0939 -13.86193,-1.5083 -16.8067,-3.16026 -24.99463,-13.7183 -2.15466,-2.72938 -2.37017,-3.51936 -2.80108,-9.83985 -0.35912,-5.81769 -0.28729,-6.89508 0.64642,-6.89508 0.57459,0 2.29834,-1.50837 3.87848,-3.30397 1.50824,-1.79558 3.16022,-3.6629 3.59113,-4.16576 1.07739,-1.07727 3.16027,-9.55244 3.16027,-12.49724 0,-1.2928 -0.5028,-3.0884 -1.07732,-3.95027 -0.7901,-1.22101 -1.00556,-3.87848 -0.8619,-11.63543 0.0718,-7.25422 -0.14366,-10.48627 -0.7901,-11.70722 -0.57457,-0.93372 -1.07732,-2.94482 -1.221,-4.5249 -0.2155,-1.5083 -0.64642,-3.23212 -1.07732,-3.73488 -0.35914,-0.4309 -1.50831,-1.86736 -2.51386,-3.1602 -1.00549,-1.29285 -3.08838,-3.0166 -4.52484,-3.87854 -1.43652,-0.9336 -3.73486,-2.5138 -5.02765,-3.66286 -1.29285,-1.0775 -2.65753,-2.0112 -3.08843,-2.0112 -0.43098,0 -2.0829,-0.5746 -3.7348,-1.36464 -2.53907,-1.13996 -7.0595,-1.83133 -11.2957,-1.83133 z"
         id="path2"
         inkscape:connector-curvature="0" />
    </g>
  </g>
</svg>
