<?xml version="1.0" encoding="UTF-8" standalone="no"?>
<svg
   xmlns:dc="http://purl.org/dc/elements/1.1/"
   xmlns:cc="http://creativecommons.org/ns#"
   xmlns:rdf="http://www.w3.org/1999/02/22-rdf-syntax-ns#"
   xmlns:svg="http://www.w3.org/2000/svg"
   xmlns="http://www.w3.org/2000/svg"
   xmlns:sodipodi="http://sodipodi.sourceforge.net/DTD/sodipodi-0.dtd"
   xmlns:inkscape="http://www.inkscape.org/namespaces/inkscape"
   version="1.1"
   width="1043.66"
   height="1571.8748"
   viewBox="0 0 1043.66 1571.8747"
   id="svg7"
   sodipodi:docname="alone_standing_male21.svg"
   inkscape:version="1.0.2 (e86c870879, 2021-01-15)">
  <metadata
     id="metadata13">
    <rdf:RDF>
      <cc:Work
         rdf:about="">
        <dc:format>image/svg+xml</dc:format>
        <dc:type
           rdf:resource="http://purl.org/dc/dcmitype/StillImage" />
        <dc:title></dc:title>
      </cc:Work>
    </rdf:RDF>
  </metadata>
  <defs
     id="defs11" />
  <sodipodi:namedview
     pagecolor="#ffffff"
     bordercolor="#666666"
     borderopacity="1"
     objecttolerance="10"
     gridtolerance="10"
     guidetolerance="10"
     inkscape:pageopacity="0"
     inkscape:pageshadow="2"
     inkscape:window-width="1920"
     inkscape:window-height="997"
     id="namedview9"
     showgrid="false"
     fit-margin-top="0"
     fit-margin-left="0"
     fit-margin-right="0"
     fit-margin-bottom="0"
     inkscape:zoom="0.22733248"
     inkscape:cx="-804.44846"
     inkscape:cy="280.73564"
     inkscape:window-x="0"
     inkscape:window-y="0"
     inkscape:window-maximized="1"
     inkscape:current-layer="svg7"
     inkscape:document-rotation="0" />
  <rect
     style="fill:#ffffff;stroke-width:5.66929;stroke-linecap:square;stroke-linejoin:round;stroke-dasharray:11.3386, 11.3386"
     id="rect832"
     width="1043.66"
     height="1571.8748"
     x="0"
     y="0" />
  <g
     id="layer1"
     transform="matrix(5.7444734,0,0,5.7444734,-1212.1437,-2106.8878)">
    <g
       style="fill:#000000;fill-opacity:1;stroke-linejoin:miter"
       id="g4">
      <path
         d="m 342.281,381.13275 c 0.15305,0 0.3045,0.002 0.45334,0.008 v 0 c -0.14884,-0.005 -0.30029,-0.008 -0.45334,-0.008 -0.44695,0 -0.90737,0.0215 -1.35488,0.0649 v 0 c 0.44751,-0.0434 0.90788,-0.0649 1.35488,-0.0649 z m -4.0528,34.36765 c 5.3e-4,0 10e-4,0 0.002,0 h -0.003 c 4.9e-4,0 0.001,0 0.002,0 z m -69.8225,29.36197 c 1.8e-4,0 4e-4,0 5.8e-4,0 h -0.004 c 3e-5,0 3e-5,0 6e-5,0 h 0.003 c -2.3e-4,0 -4.5e-4,0 -7e-4,0 z m 10.36804,1.45923 c 0.0778,0 0.17853,0.003 0.29529,0.008 h -6e-5 c -0.11677,-0.005 -0.21747,-0.008 -0.29523,-0.008 -0.0742,0 -0.1275,0.003 -0.15384,0.008 v 0 c 0.0263,-0.006 0.0797,-0.008 0.15384,-0.008 z m 4.611,0.2856 c -0.003,0 -0.007,0 -0.0103,0 -0.003,0 -0.007,0 -0.0105,0 z m -12.42902,3.1484 c -7.9e-4,0 -0.002,0 -0.002,0 -7.9e-4,0 -0.002,0 -0.002,0 z m 54.53693,9.42274 c 7.3e-4,0 10e-4,0 0.002,4e-5 h -0.004 c 7.6e-4,-4e-5 10e-4,-4e-5 0.002,-4e-5 z m 49.91387,7.05829 c 0.0899,0 0.18988,0.003 0.30148,0.008 -0.1116,-0.005 -0.21163,-0.008 -0.30148,-0.008 -0.0801,0 -0.15212,0.002 -0.21707,0.008 h -1.5e-4 c 0.065,-0.005 0.13702,-0.008 0.21722,-0.008 z m -58.52672,3.68707 c 0,0 2e-5,0 2e-5,0 h -2e-5 c 0,0 0,0 0,0 z m -78.20474,14.681 c 1.9e-4,0 3.6e-4,0 5.4e-4,0 h 0.001 c -1e-5,0 -5e-5,0 -8e-5,0 z m 19.8481,2.64762 c 4.6e-4,0 8.9e-4,0 10e-4,0 h -0.003 c 4.6e-4,0 8.8e-4,0 10e-4,0 z m 11.84702,1.75952 c 3.6e-4,0 7e-4,0 10e-4,0 h 5.8e-4 c -1.6e-4,0 -2.8e-4,0 -4e-4,0 z m -29.06101,63.9195 c 5.1e-4,0 0.001,0 0.002,0 h -0.003 c 5.2e-4,0 0.001,0 0.002,0 z m 40.62915,21.95796 c 0.0486,0 0.0876,0.007 0.12028,0.0207 h -4e-5 c -0.0327,-0.0139 -0.0717,-0.0207 -0.12024,-0.0207 -0.0493,0 -0.10849,0.007 -0.18087,0.0207 h -3e-5 c 0.0724,-0.0137 0.13158,-0.0207 0.1809,-0.0207 z m -23.10305,-86.6505 0.80301,0.0953 c 0.43554,0.0544 1.60604,0.17694 2.57238,0.28579 3.64759,0.38111 3.47064,0.35388 3.5387,0.66693 0.0409,0.1633 0.70776,4.17838 1.49716,8.92844 0.77578,4.75003 1.48352,8.98288 1.56518,9.39121 0.0681,0.40825 0.29945,1.70129 0.49,2.85815 0.19055,1.1569 0.43554,2.64044 0.5444,3.2937 0.19055,1.19775 0.44916,2.7357 0.803,4.8045 0.16334,1.0208 0.28584,1.74213 0.81666,4.96784 0.1225,0.7077 0.29941,1.78296 0.39468,2.38176 0.0953,0.5989 0.46276,2.8038 0.81662,4.8998 0.38111,2.3138 0.72138,4.0287 0.88471,4.35534 0.14973,0.29946 0.39468,1.40186 0.55801,2.44989 0.14969,1.04797 0.46274,3.03507 0.69412,4.42337 0.21778,1.3883 0.49,3.1032 0.59888,3.8109 0.1225,0.70775 0.29944,1.83745 0.40832,2.5179 0.10886,0.66696 0.38105,2.38186 0.61243,3.81094 0.21777,1.41553 0.46277,2.95349 0.54444,3.40266 0.068,0.44915 0.2586,1.606 0.40833,2.586 0.1497,0.9663 0.34026,2.0687 0.4083,2.4498 0.0681,0.3675 0.16335,0.98 0.20415,1.36104 0.0408,0.36749 0.13611,0.95276 0.20415,1.29306 0.0681,0.3402 0.21775,1.2521 0.34025,2.04154 0.31305,2.06876 0.54445,3.49786 1.08887,6.85966 0.27218,1.6332 0.43552,3.0215 0.38108,3.07594 -0.0953,0.0953 -11.90913,2.85816 -12.18134,2.85816 -0.13608,0 -0.23136,-0.5988 -0.38108,-2.51795 -0.068,-0.97992 -0.20416,-2.40899 -0.27221,-3.19845 -0.14972,-1.55155 -0.40833,-4.4234 -0.74857,-8.16623 -0.1225,-1.30657 -0.27222,-3.02147 -0.35388,-3.81091 -0.0681,-0.78936 -0.19055,-2.16406 -0.25858,-3.06232 -0.0681,-0.89834 -0.19058,-2.21851 -0.27221,-2.92624 -0.0681,-0.7078 -0.23139,-2.3682 -0.34027,-3.67484 -0.1225,-1.30656 -0.29944,-3.38896 -0.42194,-4.62756 -0.10889,-1.2385 -0.2858,-3.1984 -0.39472,-4.35535 -0.10885,-1.15685 -0.2858,-3.15759 -0.4083,-4.42335 -0.10888,-1.2794 -0.35384,-4.0287 -0.54442,-6.1247 -0.19052,-2.096 -0.44913,-4.8181 -0.55802,-6.0566 -0.10888,-1.2386 -0.2586,-2.95345 -0.32666,-3.81093 -0.0817,-0.85747 -0.19052,-2.15047 -0.27218,-2.85822 -0.0681,-0.70775 -0.23139,-2.36825 -0.34027,-3.6748 -0.1225,-1.30658 -0.28583,-2.44989 -0.35385,-2.53155 -0.0681,-0.0817 -0.17695,-0.74854 -0.2586,-1.49714 -0.0817,-0.73499 -0.20417,-1.86462 -0.27223,-2.50433 -0.14972,-1.29297 -0.43554,-3.97425 -0.74857,-6.94129 -0.12252,-1.08884 -0.29943,-2.77654 -0.40832,-3.74289 -0.10888,-0.97995 -0.28583,-2.69485 -0.40832,-3.81091 -0.34024,-3.28012 -0.47636,-4.45062 -0.57163,-5.02224 z m 4.35409,91.1216 c 4.4e-4,0 8.9e-4,0 10e-4,0 h -0.003 c 4.5e-4,0 8.8e-4,0 10e-4,0 z m -0.16244,0.0232 c -1.9e-4,0 -3.7e-4,0 -5.2e-4,0 -2e-4,0 -3.4e-4,0 -5.2e-4,0 z m -1.01346,0.94843 c 0.0561,0 0.10054,0.006 0.1362,0.0169 h -9e-5 c -0.0356,-0.0112 -0.08,-0.0169 -0.13611,-0.0169 -0.0553,0 -0.12186,0.006 -0.2023,0.0169 h -1.6e-4 c 0.0805,-0.0113 0.14713,-0.0169 0.20246,-0.0169 z m 0.62359,0.90647 c -7.9e-4,0 -0.002,0 -0.002,0 -7.9e-4,0 -0.002,0 -0.002,0 z m -11.25972,-94.30185 c 0.23664,0 0.58532,0.0532 1.1427,0.14525 0.54442,0.0816 0.99357,0.16334 1.00716,0.16334 0.0272,0.0136 0.36749,3.33456 0.65332,6.41049 0.12249,1.26577 0.29942,3.22567 0.40831,4.35535 0.10888,1.11606 0.28581,3.07596 0.40831,4.35532 0.1225,1.2658 0.29942,3.2257 0.40833,4.35534 0.10885,1.11603 0.28579,3.07596 0.40829,4.35536 0.1225,1.26573 0.29945,3.26647 0.40833,4.4234 0.10888,1.15685 0.2994,3.11675 0.40832,4.3553 0.12247,1.23856 0.2994,3.2257 0.4219,4.4234 0.3675,3.86533 0.7894,8.4112 1.21134,12.9571 0.10886,1.22494 0.29941,3.21206 0.4083,4.42337 0.36749,3.89263 0.62609,6.65553 0.81662,8.75153 0.20416,2.0688 0.44914,4.6548 0.81664,8.66985 0.10886,1.22492 0.2994,3.22565 0.4219,4.46425 0.1089,1.2385 0.28584,3.13036 0.39473,4.2192 0.10887,1.08883 0.28582,3.04873 0.40832,4.3554 0.12247,1.30655 0.31305,3.3072 0.42191,4.4369 0.12249,1.1297 0.19054,2.2866 0.16334,2.5724 l -0.0409,0.53083 -1.97351,0.50357 c -1.08884,0.2722 -2.92624,0.7486 -4.08314,1.048 -4.64115,1.2113 -7.45848,1.9327 -7.58101,1.9327 -0.0816,0 -0.1633,-1.5652 -0.21774,-3.97426 -0.25861,-10.76584 -0.38111,-14.59039 -0.48999,-14.7265 -0.068,-0.0816 -0.1633,-1.40184 -0.20416,-2.93984 -0.0545,-1.538 -0.14971,-4.28727 -0.23136,-6.1247 -0.0681,-1.8374 -0.19055,-5.1992 -0.27222,-7.4857 -0.068,-2.28655 -0.21777,-6.69634 -0.32664,-9.79955 -0.10889,-3.10315 -0.25861,-7.58099 -0.34028,-9.93561 -0.068,-2.35454 -0.20414,-5.72998 -0.2722,-7.48574 -0.0817,-1.7557 -0.1361,-3.75645 -0.1361,-4.437 0,-0.68047 -0.0681,-1.42906 -0.14972,-1.66045 -0.14971,-0.43555 -0.10889,-0.89825 0.48999,-5.47137 0.12248,-0.85748 0.29942,-2.27295 0.40831,-3.1304 0.10887,-0.85746 0.28581,-2.27295 0.40831,-3.13041 0.2722,-1.9599 0.55803,-4.21923 0.73495,-5.71637 0.0817,-0.63968 0.20416,-1.59243 0.28583,-2.10962 0.19053,-1.36105 0.40833,-3.18488 0.46274,-3.74285 0.0136,-0.29943 0.36749,-1.00718 0.96637,-1.97353 0.50357,-0.83025 1.03438,-1.7013 1.18408,-1.9463 0.18037,-0.29517 0.28174,-0.41745 0.64027,-0.41745 z M 357.2294,604.2867 c 2.4e-4,0 5.2e-4,0 7.6e-4,0 h -0.002 c 2.4e-4,0 5.2e-4,0 7.6e-4,0 z m -10.14413,-39.31233 0.70776,0.74859 c 0.54443,0.58521 1.04797,1.42908 2.23212,3.74284 0.84381,1.6469 1.91905,3.6748 2.39541,4.51864 0.47634,0.84386 0.93912,1.78302 1.0344,2.10966 0.0953,0.3266 0.35388,1.12965 0.55804,1.8102 0.47635,1.4835 0.78937,2.59955 0.9391,3.37536 0.068,0.31299 0.34026,1.5788 0.59886,2.81739 0.25861,1.23855 0.51719,2.5451 0.55804,2.9262 0.21775,1.59241 0.9391,4.13755 1.51075,5.33525 0.68055,1.41555 1.02078,2.47713 1.02078,3.11684 0,0.39466 -0.0817,0.50356 -0.59883,0.80296 -1.1161,0.65334 -1.08888,1.538 0.0953,3.10323 0.39469,0.54437 0.77576,1.07517 0.81659,1.19767 0.0409,0.13613 -0.0953,0.5853 -0.29945,1.02084 -0.20412,0.44909 -0.48992,1.10241 -0.6124,1.48352 l -0.245,0.68054 -0.58527,-0.0408 c -0.11338,-0.0106 -0.20478,-0.0186 -0.28266,-0.0186 -0.32403,0 -0.41333,0.1385 -0.8742,0.80793 -0.58527,0.87107 -0.85749,1.15693 -3.14402,3.33454 -0.88467,0.85748 -1.40188,1.46997 -1.6741,2.01443 -0.21777,0.43546 -0.59885,0.9527 -0.84385,1.15683 -0.51717,0.43557 -4.2192,2.74927 -4.38256,2.74927 -0.27219,0 -0.44914,-1.4291 -0.43552,-3.2937 l 0.0272,-1.9463 -0.48999,-1.1296 c -0.76218,-1.7013 -0.87104,-2.38186 -0.57163,-3.6204 0.25857,-1.10247 0.21777,-1.4972 -0.20416,-2.4635 -0.24497,-0.5444 -0.25857,-0.735 -0.12247,-2.2049 0.13608,-1.4971 0.2722,-2.3818 0.9663,-6.3697 0.13612,-0.8302 0.25862,-1.7285 0.25862,-2.0007 0,-0.2722 0.0544,-0.5308 0.12248,-0.57166 0.0681,-0.0408 0.19056,-0.58521 0.27223,-1.1977 0.51721,-4.08314 0.61247,-5.15838 0.62607,-8.07098 0.0272,-2.85816 0.0953,-4.23286 0.47635,-8.37042 0.0817,-0.78934 0.13611,-2.80377 0.13611,-4.49144 z m -13.45389,50.33813 c 0.3743,0 0.66012,0.0477 1.09564,0.14294 -0.43552,-0.0953 -0.72134,-0.14294 -1.09564,-0.14294 -0.3743,0 -0.83708,0.0477 -1.62648,0.14294 0.7894,-0.0953 1.25218,-0.14294 1.62648,-0.14294 z m -15.54883,2.32104 c -0.007,0 -0.0135,0 -0.0202,0 -0.007,0 -0.0135,0 -0.0202,0 z m 32.35168,3.93456 c -0.002,0 -0.004,0 -0.006,0 -0.002,0 -0.004,0 -0.006,0 z m -7.19616,-241.10533 c -0.34571,0 -0.77985,0.014 -1.20227,0.0359 -3.38898,0.23141 -6.08387,1.19772 -8.92844,3.22571 -2.70846,1.91903 -4.36896,3.85173 -5.23999,6.05663 -0.54443,1.37464 -0.32667,2.91257 0.42191,3.1576 0.28582,0.0953 0.28582,0.1497 0.20416,1.8102 -0.0544,1.00715 -0.20416,2.13682 -0.35388,2.70848 -0.31302,1.12962 -0.34024,1.60598 -0.19052,3.51147 0.0953,1.293 0.0816,1.40189 -0.25861,2.10962 -0.3811,0.81663 -0.80301,1.56518 -1.27939,2.31375 -0.35384,0.55804 -0.40829,1.56522 -0.0952,2.00073 0.13607,0.20417 0.4627,0.32665 1.11602,0.44915 0.51722,0.0953 0.96634,0.24498 1.02076,0.32667 0.0545,0.0817 0.10892,0.36749 0.10892,0.62607 0,0.54443 0.0952,0.70773 0.47634,0.92551 0.25861,0.1361 0.27222,0.28582 0.27222,2.64041 0,2.79014 0.10889,3.22567 0.91189,3.82454 0.72245,0.52623 1.62021,0.78358 2.84653,0.78358 0.64505,0 1.38102,-0.0712 2.23017,-0.21194 0.71885,-0.11881 1.1213,-0.18576 1.31948,-0.18614 h 0.003 c 0.25173,5e-4 0.16698,0.1111 -0.0163,0.36305 -0.31298,0.43557 -0.61242,1.18415 -0.84382,2.06881 -0.0816,0.3675 -0.35387,0.84384 -0.66692,1.17051 -1.17048,1.27938 -1.63324,2.47711 -1.63324,4.26007 0,0.84381 0.0681,1.25213 0.28583,1.7149 0.16333,0.34024 0.34027,0.65329 0.40833,0.69412 0.2994,0.17694 0.068,0.48996 -0.58527,0.81659 -1.03439,0.51721 -4.21923,2.9671 -5.56665,4.27368 -0.1225,0.10889 -0.85748,0.80304 -1.64688,1.53803 l -1.44272,1.32019 -0.42191,1.3338 c -0.21774,0.72138 -0.44912,1.56519 -0.50357,1.86462 -0.0953,0.68055 -0.68054,2.30018 -1.04803,2.92627 -0.59882,1.02079 -3.40259,4.62754 -3.94702,5.07669 -0.31305,0.25857 -1.12965,1.03437 -1.82379,1.7013 -1.48352,1.42907 -4.19202,3.74287 -5.55304,4.72281 -1.14328,0.81666 -2.31379,1.36102 -3.56595,1.66046 -0.76535,0.18265 -4.982,0.30417 -8.49127,0.30417 -1.98243,0 -3.7391,-0.0388 -4.5203,-0.12723 -0.76218,-0.0816 -1.9735,-0.21774 -2.68124,-0.2858 -1.44272,-0.14972 -4.0423,-0.65332 -5.97501,-1.15689 -0.7077,-0.17695 -1.82379,-0.42193 -2.49065,-0.53079 -1.85105,-0.29944 -2.88545,-1.03439 -3.57957,-2.57242 -0.46277,-1.00714 -1.00717,-2.65399 -0.9119,-2.70844 0.01,-0.005 0.0492,-0.007 0.11472,-0.007 0.31045,0 1.20123,0.0508 2.21268,0.1295 0.7879,0.0593 1.51254,0.0922 1.98675,0.0922 0.2876,0 0.48312,-0.0121 0.54477,-0.0378 0.4083,-0.14975 0.53079,-0.51721 0.27219,-0.89829 -0.24497,-0.38106 -0.9527,-0.53082 -3.44342,-0.73498 -0.99356,-0.0953 -1.97352,-0.20418 -2.17768,-0.27218 -0.20416,-0.0545 -0.78939,-0.53086 -1.32019,-1.04804 -0.66693,-0.65329 -1.34745,-1.15689 -2.25933,-1.64686 -1.16972,-0.6354 -2.10192,-0.94903 -2.87796,-0.94903 -0.68676,0 -1.25119,0.24563 -1.74961,0.73126 -0.23578,0.23577 -0.42938,0.3703 -0.52759,0.3703 -0.0265,0 -0.0461,-0.01 -0.0576,-0.03 -0.0817,-0.1361 -0.245,-0.9119 -0.69412,-3.48425 -0.1089,-0.59888 -0.28583,-1.60605 -0.39472,-2.24573 -0.10888,-0.63972 -0.29944,-1.67407 -0.40833,-2.31378 -0.10888,-0.63971 -0.38107,-2.23212 -0.62605,-3.5387 -0.2314,-1.30657 -0.50358,-2.87179 -0.61247,-3.47067 -0.0953,-0.59884 -0.3811,-2.19127 -0.6261,-3.53869 -0.23138,-1.34742 -0.50357,-2.92624 -0.59885,-3.4979 -0.0817,-0.58526 -0.19055,-1.10242 -0.24498,-1.14325 -0.0681,-0.0681 -1.9327,-0.66693 -3.7973,-1.22497 -0.7894,-0.23136 -1.75578,-0.51722 -2.7221,-0.81662 -0.3947,-0.1225 -0.99358,-0.29941 -1.33382,-0.39472 -0.34024,-0.10885 -3.67481,-1.11602 -7.41768,-2.24569 -3.74287,-1.14328 -7.21353,-2.17768 -7.71712,-2.31379 -0.85745,-0.23138 -4.27366,-1.41546 -10.52086,-3.6748 -0.59886,-0.21777 -1.87823,-0.68051 -2.8582,-1.02078 -0.96634,-0.35389 -2.2321,-0.80301 -2.79012,-1.00716 -1.27181,-0.461 -1.76372,-0.64818 -2.1725,-0.64818 -0.29116,0 -0.54015,0.0949 -0.99874,0.25348 l -0.97994,0.34024 -0.0408,0.65332 c -0.0408,0.69412 0.0272,1.22492 0.57165,4.21921 0.19055,1.048 0.44913,2.44989 0.57163,3.13043 0.10888,0.6669 0.29944,1.68768 0.39471,2.2457 0.34026,1.87823 1.41548,8.0165 2.04155,11.56885 0.17694,1.00717 0.44914,2.57238 0.61248,3.47067 0.16332,0.89828 0.34026,1.93268 0.40832,2.31375 0.068,0.36749 0.24496,1.4155 0.40831,2.31378 0.53081,2.98068 0.91189,5.09033 1.14327,6.49219 0.10888,0.62604 0.29943,1.67406 0.42193,2.35458 0.1225,0.6669 0.31303,1.74216 0.42192,2.38184 0.10887,0.63968 0.28581,1.64688 0.3947,2.2457 0.10889,0.59884 0.29944,1.63327 0.40829,2.31378 0.27222,1.56518 0.57166,3.23929 0.81664,4.62756 0.10889,0.59885 0.29942,1.63324 0.40831,2.31375 0.1225,0.66693 0.31305,1.74215 0.42193,2.38185 0.10889,0.6397 0.29943,1.67406 0.40833,2.31377 0.10885,0.63968 0.29942,1.66046 0.40829,2.27293 0.10889,0.6261 0.28583,1.64687 0.3947,2.28655 0.1225,0.63968 0.29943,1.67407 0.40833,2.31378 0.12248,0.63967 0.29942,1.66047 0.40831,2.27295 0.0953,0.62607 0.28582,1.64682 0.39468,2.28656 0.12252,0.63968 0.21779,1.19772 0.21779,1.25214 0,0.0681 -0.73497,0.10888 -1.63325,0.10888 -1.48355,0 -1.63326,0.0272 -1.76935,0.27222 -0.0953,0.17692 -0.10889,1.37462 -0.0545,3.70202 0.0875,3.04905 0.17495,4.01 0.38881,4.01 0.0191,0 0.0391,-0.008 0.0603,-0.0221 0.0227,-0.0136 0.0484,-0.0197 0.0741,-0.0197 0.0514,0 0.10284,0.0242 0.13007,0.0605 0.0817,0.13607 1.14327,0.3675 2.59959,0.57165 2.58598,0.35385 3.81091,0.55798 3.89258,0.65325 0.0544,0.0545 0.13612,2.0552 0.17694,4.45063 0.0544,2.39545 0.1497,6.65552 0.21776,9.45927 0.54441,21.58614 0.54441,21.1234 0.36747,26.47225 -0.068,1.79655 -0.17692,3.78369 -0.24498,4.4234 -0.17694,1.52435 -0.48997,4.1784 -0.73495,6.12469 -0.10889,0.85746 -0.28583,2.3274 -0.39471,3.26646 -0.12249,0.9392 -0.29943,2.4635 -0.42191,3.4027 -0.1225,0.93906 -0.29944,2.4362 -0.40833,3.3345 -0.10888,0.89826 -0.28581,2.39545 -0.40831,3.33454 -0.85746,6.90051 -0.87106,6.96856 -0.78939,7.36326 0.0408,0.2041 0,0.9391 -0.0953,1.6332 -0.14971,1.225 -0.32664,2.72217 -0.74856,6.5875 -0.25859,2.30013 -0.54442,4.8453 -0.81662,7.2135 -0.38109,3.2937 -0.61248,5.3761 -0.81664,7.336 -0.10887,1.04806 -0.23137,2.00076 -0.25859,2.10964 -0.0408,0.1225 -0.10888,0.76221 -0.14972,1.44269 -0.0408,0.66693 -0.10888,1.44277 -0.1497,1.70127 -0.0272,0.25863 -0.14972,1.5789 -0.2722,2.9263 -0.1089,1.3474 -0.29944,3.48425 -0.40833,4.76367 -0.10888,1.26573 -0.28581,3.2937 -0.3811,4.49143 -0.10887,1.1977 -0.23135,2.273 -0.27222,2.3818 -0.0408,0.1089 -0.13608,0.93914 -0.21774,1.8374 -0.0817,0.8983 -0.245,2.64044 -0.35388,3.87897 -0.39472,4.35533 -0.43553,4.96783 -0.29941,5.21283 0.068,0.1225 0.42191,0.3811 0.80299,0.5716 l 0.68053,0.3539 1.18411,-0.3539 c 2.34099,-0.7213 2.68125,-0.85743 2.70847,-1.11604 0.0272,-0.13611 0.13611,-1.44266 0.24499,-2.89896 0.12249,-1.4564 0.29943,-3.7293 0.42191,-5.0359 0.1089,-1.3066 0.28583,-3.5115 0.39471,-4.8998 0.10889,-1.38824 0.28583,-3.5659 0.3947,-4.83166 0.10889,-1.27944 0.25861,-3.14404 0.34027,-4.15118 0.31304,-3.90619 0.44915,-4.96786 0.65329,-5.1175 0.12248,-0.10886 0.24498,-0.62609 0.32665,-1.45636 0.068,-0.7077 0.19057,-1.7013 0.2586,-2.21844 0.0681,-0.51721 0.14973,-1.40192 0.17695,-1.95996 0.0408,-0.558 0.16333,-2.00073 0.28581,-3.1984 0.2586,-2.4227 0.51719,-5.0495 0.83024,-8.23434 0.10888,-1.15686 0.28582,-3.0351 0.4083,-4.15116 0.10889,-1.12966 0.27222,-2.81735 0.36749,-3.7837 0.0817,-0.9527 0.20416,-1.72853 0.27222,-1.72853 0.0544,0 0.10887,0.59883 0.10887,1.32019 0,0.73498 0.068,2.95349 0.13612,4.94064 0.0816,1.9871 0.23136,6.35605 0.34024,9.7314 0.1225,3.3618 0.29944,8.7515 0.40833,11.9772 0.10887,3.212 0.25859,7.7443 0.34026,10.0717 0.068,2.3138 0.19053,5.8661 0.2722,7.89405 0.14972,3.86535 0.32666,9.36395 0.59887,17.59825 0.0816,2.7221 0.10886,5.0223 0.0545,5.10396 -0.17694,0.28574 -0.12253,2.36814 0.068,2.51794 0.18772,0.1519 0.97434,0.25104 1.61172,0.25104 0.33302,0 0.62531,-0.027 0.7701,-0.0877 0.20416,-0.0953 1.00717,-0.42196 1.79658,-0.73495 l 1.42909,-0.55805 -0.0272,-7.39044 c -0.0136,-4.35536 -0.0817,-7.77161 -0.16333,-8.30236 -0.0817,-0.5308 -0.17694,-5.3081 -0.23138,-11.55524 l -0.0953,-10.64336 0.53079,-0.1361 c 0.29942,-0.0681 2.7357,-0.6942 5.43057,-1.37466 2.69488,-0.68054 5.09032,-1.32024 5.30806,-1.42914 0.23139,-0.1089 2.12322,-0.6397 4.21924,-1.17047 4.40976,-1.10243 11.33748,-2.87183 14.74008,-3.74283 1.29297,-0.3267 2.36823,-0.5989 2.39545,-0.5989 0.0817,0 0.23138,0.6533 0.43551,1.9327 0.61249,3.7973 1.538,9.364 1.75577,10.52085 0.10889,0.59885 0.32667,1.87825 0.47637,2.85815 0.14973,0.9664 0.3266,2.1096 0.40828,2.51795 0.068,0.40835 0.35388,2.09601 0.61248,3.74285 1.0344,6.45136 1.46991,8.9965 1.5788,9.28236 0.10889,0.28574 0.20416,0.31298 1.14331,0.31298 0.57163,0 1.15686,0.0545 1.29297,0.13616 0.0407,0.0217 0.0851,0.0336 0.13821,0.0336 0.21378,0 0.56861,-0.19364 1.38615,-0.72778 0.69415,-0.46276 1.30663,-0.91193 1.36108,-0.99359 0.0544,-0.0817 -0.0136,-0.27222 -0.14972,-0.42187 -0.13611,-0.1498 -0.28583,-0.5853 -0.34026,-0.95276 -0.0408,-0.38111 -0.16334,-1.23854 -0.27223,-1.90544 -0.10889,-0.68056 -0.29944,-1.86465 -0.42194,-2.6541 -0.12249,-0.78934 -0.31303,-1.94626 -0.40829,-2.586 -0.10889,-0.6396 -0.28584,-1.79654 -0.40834,-2.5859 -0.10884,-0.78944 -0.27217,-1.5788 -0.34023,-1.7694 -0.12249,-0.2994 -0.65332,-3.2665 -1.293,-7.2135 -0.28582,-1.75576 -2.17764,-12.9299 -2.65402,-15.72005 -0.39471,-2.30015 -0.5036,-2.93988 -1.0072,-5.98859 -0.10885,-0.68056 -0.57163,-3.42981 -1.03435,-6.12469 -0.46278,-2.69487 -0.92555,-5.41693 -1.02083,-6.05667 -0.4219,-2.5315 -0.50357,-2.9262 -0.63965,-3.00785 -0.13612,-0.0952 -0.24499,-0.51721 -0.58526,-2.54515 -0.10889,-0.6125 -0.28583,-1.61964 -0.39472,-2.24574 -0.10888,-0.61246 -0.39471,-2.21851 -0.62606,-3.56592 -0.69413,-4.02869 -1.0344,-5.96134 -1.4155,-8.13904 -0.10888,-0.6125 -0.39471,-2.2185 -0.62608,-3.5659 -0.51717,-3.02156 -0.74855,-4.35536 -1.02077,-5.85255 -0.63971,-3.67481 -1.36103,-7.75795 -1.63323,-9.44565 -0.1089,-0.626 -0.2314,-1.2385 -0.25862,-1.361 -0.0408,-0.1225 -0.13611,-0.70776 -0.21778,-1.3066 -0.068,-0.59885 -0.21776,-1.55155 -0.32665,-2.1096 -0.10889,-0.55804 -0.29945,-1.538 -0.42191,-2.17767 -0.20416,-1.08886 -0.31301,-1.74213 -0.803,-4.53228 -0.10889,-0.61245 -0.39472,-2.16407 -0.6261,-3.42981 -0.23139,-1.27939 -0.50357,-2.80378 -0.61246,-3.40262 -0.10888,-0.59885 -0.36748,-2.09602 -0.59888,-3.33454 -0.46274,-2.55878 -0.46274,-2.54516 -0.83023,-4.53228 -0.29327,-1.6065 -0.33569,-2.2097 -0.13847,-2.21244 h 0.003 c 0.0125,1.9e-4 0.0261,0.003 0.0405,0.008 0.0817,0.0272 1.57882,0.14972 3.29373,0.2722 1.72851,0.1089 3.47067,0.25862 3.90622,0.32668 0.2879,0.0523 0.52343,0.0785 0.73452,0.0785 0.33777,0 0.61289,-0.067 0.93955,-0.20105 0.14968,-0.068 0.91188,-0.27219 1.70128,-0.47635 0.7894,-0.20416 2.13685,-0.5444 2.99428,-0.76214 0.85748,-0.21781 1.70135,-0.39472 1.86465,-0.39472 0.1633,0 0.32663,-0.0409 0.35385,-0.10889 0.0272,-0.0545 0.0136,-1.02081 -0.0272,-2.13687 l -0.0817,-2.04153 -0.8166,-0.0953 c -0.44915,-0.0545 -1.8238,-0.19052 -3.06237,-0.29941 -3.86536,-0.36752 -5.23999,-0.5036 -5.29443,-0.57166 -0.0272,-0.0272 -0.20417,-0.85747 -0.3811,-1.85103 -0.17695,-0.99357 -0.40833,-2.28657 -0.5172,-2.8718 -0.5444,-2.8718 -0.63967,-3.37537 -0.8166,-4.38257 -0.1089,-0.59884 -0.28584,-1.5924 -0.39473,-2.21847 -0.12249,-0.61246 -0.31304,-1.61963 -0.42193,-2.24573 -0.1225,-0.6125 -0.29941,-1.60605 -0.42191,-2.2049 -0.10888,-0.59884 -0.28583,-1.57882 -0.39471,-2.17767 -0.0953,-0.59885 -0.2858,-1.5788 -0.39468,-2.17767 -0.19056,-1.02076 -0.78944,-4.2873 -1.25217,-6.87323 -0.1225,-0.62607 -0.245,-1.19773 -0.27222,-1.25217 -0.0408,-0.0544 -0.0136,-0.10889 0.0544,-0.10889 0.0544,0 0.57165,0.43555 1.12966,0.96631 0.89829,0.88472 3.29371,2.57242 4.43702,3.17127 0.89825,0.46277 2.72207,1.12967 3.71562,1.37463 0.55803,0.13612 1.1841,0.32666 1.38826,0.43555 0.20416,0.0952 0.91192,0.29941 1.56521,0.46274 0.6669,0.14973 1.34745,0.32666 1.538,0.40833 0.19053,0.0681 0.65329,0.17696 1.02075,0.245 1.07523,0.19054 2.12323,0.5036 3.34818,1.0208 0.62606,0.25854 1.8238,0.69412 2.6404,0.9663 0.83027,0.2722 2.13685,0.72138 2.92628,1.00718 1.75572,0.65329 2.70846,0.91192 3.6748,1.03439 0.40832,0.0545 0.9119,0.19055 1.11602,0.28583 0.20417,0.1089 0.57166,0.19055 0.81666,0.19055 0.46277,0 2.50434,0.35385 2.68124,0.47635 0.0544,0.0272 0.46277,0.1225 0.9119,0.19055 0.43555,0.0817 1.52438,0.25858 2.40906,0.42195 1.04874,0.17598 2.14492,0.26506 3.08621,0.26506 0.80557,0 1.49773,-0.0652 1.94963,-0.19706 0.85747,-0.2586 1.1569,-0.42192 3.1168,-1.61965 2.05518,-1.25213 5.7436,-3.44342 6.5058,-3.86535 0.34024,-0.1769 1.15686,-0.69413 1.8238,-1.12964 0.6419,-0.43231 1.19552,-0.76374 1.2483,-0.76374 0.002,0 0.003,5.2e-4 0.004,0.002 0.0272,0.0136 0.0544,1.22498 0.0681,2.66765 l 0.0136,2.64046 -1.12964,0.23134 c -0.72138,0.14973 -1.66049,0.49 -2.57239,0.92552 -0.78943,0.38108 -1.60602,0.73498 -1.8374,0.78938 -1.56522,0.35393 -2.65407,0.99358 -2.65407,1.55162 0,0.17694 -0.20415,0.35385 -0.59883,0.51721 -0.68051,0.31302 -0.81662,0.68051 -0.59885,1.68767 0.10888,0.5308 0.27218,0.7758 0.89826,1.36107 0.43554,0.39468 0.96637,0.96631 1.18414,1.25213 0.23135,0.29944 0.66688,0.7894 0.99353,1.0752 0.31305,0.29944 0.57165,0.65335 0.57165,0.78943 0,0.34027 0.6261,1.03439 1.18412,1.30661 0.27218,0.1225 0.76218,0.58523 1.10244,1.02078 0.69414,0.89828 1.52436,1.46991 2.66764,1.82378 l 0.76217,0.245 v 0.87104 c 0,0.89829 -0.17694,3.02156 -0.43551,5.3353 -0.0681,0.70776 -0.19058,1.83743 -0.245,2.51794 -0.0953,1.11606 -0.40829,2.4635 -1.10244,4.81809 -0.25862,0.89828 -0.23139,1.66049 0.14971,3.36178 0.10889,0.48999 0.0953,0.9119 -0.0817,1.86463 -0.20417,1.07522 -0.20417,1.38824 -0.0544,2.30017 0.12249,0.7894 0.1361,1.27935 0.0272,1.90545 -0.0817,0.47638 -0.17695,2.40906 -0.21778,4.31452 -0.0544,2.27295 -0.12249,3.51148 -0.23137,3.63398 -0.0953,0.1225 -0.1225,0.50356 -0.0681,1.1024 0.0544,0.5172 0.14972,2.0824 0.21776,3.5115 0.0817,1.4155 0.25862,3.3754 0.40833,4.3553 0.14972,0.9664 0.3675,2.47714 0.46277,3.3346 0.19056,1.49715 0.44913,3.1712 0.76218,4.995 0.068,0.4492 0.38107,2.01436 0.68052,3.4707 0.28582,1.4427 0.57165,2.96706 0.61245,3.3754 0.0953,0.88463 0.39471,2.5315 0.77579,4.4233 0.14972,0.7486 0.32666,1.783 0.39471,2.3002 0.0545,0.5172 0.14972,1.0344 0.19055,1.1297 0.20416,0.5444 0.93912,4.6275 1.08884,6.1655 0.0544,0.48995 0.20416,1.25216 0.34024,1.7013 0.13612,0.4492 0.27222,1.18416 0.32666,1.63326 0.0953,0.99359 0.48999,2.19128 0.95276,2.88544 0.3266,0.4627 0.35385,0.6397 0.35385,1.87823 0,1.23853 0.0408,1.42907 0.39468,2.10962 l 0.39472,0.74855 0.0136,3.06236 c 0,1.68769 0.10889,4.21924 0.21777,5.64834 0.10889,1.41544 0.25861,3.5931 0.34027,4.8317 0.0681,1.2385 0.21778,2.9126 0.32663,3.74286 0.27222,2.0824 0.19055,5.70274 -0.1633,7.63544 -0.14973,0.8166 -0.3811,2.70844 -0.48999,4.2056 -0.31304,3.7701 -0.40832,4.28726 -1.12967,5.52585 -0.46273,0.80305 -0.63967,1.26575 -0.73495,2.01435 -0.14972,1.0752 0,2.27294 0.35388,2.7765 0.10886,0.1633 0.20413,0.3947 0.20413,0.5308 0,0.2858 -2.93985,3.25293 -4.3417,4.36896 -1.23856,0.97998 -2.79016,2.00074 -4.36896,2.8446 -1.86462,1.00714 -5.0495,1.98714 -9.06454,2.76288 -2.57236,0.5036 -3.51151,1.11606 -4.05593,2.66766 -0.61244,1.6741 0.245,3.5387 2.02797,4.4506 1.04801,0.53085 1.86463,0.7077 4.21923,0.91195 1.31187,0.11965 2.49522,0.18201 3.62126,0.18201 2.71754,0 5.10128,-0.36326 8.15176,-1.16196 2.522,-0.6676 5.58028,-1.1042 7.38268,-1.1042 0.5126,0 0.92366,0.0353 1.19187,0.11064 1.03443,0.28576 2.35463,0.40826 4.69563,0.4491 2.04156,0.0409 2.43624,0.0817 2.39544,0.24499 -0.28584,1.03443 -0.42194,1.78297 -0.42194,2.31377 0,0.5444 0.0817,0.7214 0.54444,1.23854 0.38106,0.44916 0.69409,0.65332 1.04796,0.73496 0.24827,0.0473 0.48625,0.0843 0.58912,0.0843 0.0156,0 0.0281,-8.4e-4 0.037,-0.003 0.002,-4.3e-4 0.005,-6e-4 0.009,-6e-4 0.13882,0 1.66577,0.21367 3.46182,0.5042 2.31702,0.36083 3.05057,0.4765 4.0589,0.4765 0.43692,0 0.92538,-0.0217 1.61665,-0.0546 2.93987,-0.14972 6.98217,-0.69407 8.64263,-1.17047 0.40832,-0.1225 1.07522,-0.29944 1.4563,-0.3947 1.10247,-0.27223 2.83099,-1.4155 4.50507,-2.9535 0.46276,-0.4355 0.96633,-0.7894 1.10244,-0.7894 0.40829,0 1.53799,-0.4355 2.20486,-0.8438 0.3539,-0.21776 1.03443,-0.58525 1.4972,-0.84386 0.9799,-0.5036 1.55157,-1.2113 2.02792,-2.49074 0.35388,-0.9663 0.32666,-1.2657 -0.63968,-5.553 -0.1225,-0.53084 -0.35388,-1.29305 -0.53082,-1.7014 -0.16332,-0.40824 -0.53079,-1.3338 -0.81662,-2.0415 -0.2722,-0.70774 -0.73496,-1.79655 -1.0344,-2.40904 -0.72134,-1.53796 -0.74856,-1.76936 -0.34027,-2.57236 1.03443,-2.0824 1.18415,-3.9062 0.44917,-5.6892 -0.21778,-0.5172 -0.5308,-1.1432 -0.70774,-1.4018 -0.63968,-0.9528 -0.83023,-1.7694 -1.04801,-4.6004 -0.21777,-2.62674 -0.31305,-3.2937 -0.93911,-5.7844 -0.14972,-0.6397 -0.44916,-1.9599 -0.6669,-2.9262 -0.89832,-4.23285 -1.81018,-8.5746 -2.23212,-10.62976 -0.25862,-1.30664 -0.58527,-2.13684 -1.97352,-5.09034 -1.293,-2.73565 -2.25933,-4.5322 -3.13042,-5.7572 -0.29941,-0.4219 -0.68048,-1.1977 -0.8302,-1.7013 -0.44916,-1.4427 -0.5036,-1.5652 -1.293,-2.76293 -0.40833,-0.62607 -0.76218,-1.26577 -0.80301,-1.41547 -0.0272,-0.1497 -0.0817,-0.9799 -0.1225,-1.8374 -0.0817,-1.91907 -0.24499,-2.51794 -0.83027,-3.13043 -0.93908,-0.96631 -0.9527,-1.08881 -0.91186,-5.7572 0.0136,-2.31373 0.0953,-4.60027 0.19052,-5.10387 0.17694,-1.048 0.17694,-0.9663 0.1225,-5.1992 -0.0408,-3.45707 0.17694,-8.32956 0.39472,-8.9148 0.0681,-0.1906 0.13607,-0.6942 0.13607,-1.11606 0,-0.5036 0.0817,-0.89834 0.25861,-1.18414 0.48999,-0.803 0.58527,-1.4563 0.40834,-3.10315 -0.13612,-1.33385 -0.1225,-1.72852 0.0817,-3.14405 0.21777,-1.37463 0.31305,-1.68768 0.65332,-2.10958 0.99353,-1.26578 1.25213,-2.00072 1.79657,-5.26724 0.19056,-1.12968 0.38106,-2.13685 0.4083,-2.24573 0.0953,-0.2858 0.31301,-1.85101 0.5444,-3.74285 0.10889,-0.8983 0.24499,-1.85102 0.28583,-2.10963 0.10888,-0.5444 -0.13611,-4.30087 -0.43555,-6.70993 -0.13612,-1.11606 -0.38107,-2.15042 -0.78937,-3.40262 -0.95275,-2.84457 -1.48358,-5.10388 -1.93268,-8.12542 -0.10887,-0.70774 -0.21777,-1.45627 -0.27221,-1.66044 -0.0681,-0.3403 -0.0272,-0.38113 0.51721,-0.53086 0.59885,-0.1633 1.66046,-0.51717 2.89899,-0.9527 0.3811,-0.1361 2.4635,-0.84386 4.62756,-1.5924 2.17768,-0.74862 4.13758,-1.42913 4.35532,-1.49716 0.23138,-0.0816 0.84384,-0.28579 1.38826,-0.44919 1.8374,-0.57159 2.79014,-1.64682 3.30732,-3.77008 l 0.21778,-0.91187 0.83026,-0.0408 c 0.47634,-0.0272 0.89828,-0.1225 0.97992,-0.21778 0.20416,-0.23135 0.47638,-8.37042 0.3811,-10.8339 -0.0544,-1.0072 -0.14972,-2.44985 -0.21778,-3.19848 -0.0817,-0.74852 -0.20416,-2.04152 -0.27218,-2.85815 -0.0817,-0.83023 -0.25862,-2.17767 -0.42194,-2.99432 -0.14968,-0.8302 -0.39468,-2.30015 -0.5444,-3.26648 -0.57165,-3.6612 -0.99356,-5.37613 -1.9599,-7.86687 -0.46278,-1.17046 -0.61248,-1.79652 -0.69415,-2.68123 -0.10889,-1.38824 -0.68051,-3.72922 -1.52435,-6.32883 -1.75574,-5.41696 -2.74933,-7.30877 -5.13114,-9.78588 l -1.1705,-1.1977 -0.97994,-0.19058 c -0.5444,-0.10886 -1.2794,-0.19052 -1.61967,-0.19052 h -0.62603 l -0.14973,-1.11606 c -0.1361,-0.9119 -0.2586,-1.2386 -0.66693,-1.85104 -1.08432,-1.57968 -1.80002,-1.98746 -3.49394,-1.98746 -0.0283,0 -0.0568,1.2e-4 -0.0856,3.4e-4 -0.7622,0.0136 -1.33382,0.0817 -1.68767,0.23138 -0.28583,0.13614 -0.78943,0.23141 -1.11609,0.23141 -0.51718,0 -0.61246,-0.0545 -0.7894,-0.38113 -0.63968,-1.25217 -1.30661,-4.24646 -1.30661,-5.93414 0,-1.83736 0.34027,-3.19843 1.23859,-5.00861 1.51074,-3.06238 1.93268,-4.77725 1.63324,-6.80525 -0.20416,-1.48354 -0.40833,-2.02794 -1.27939,-3.45702 -1.64687,-2.7221 -2.91263,-4.35534 -4.11035,-5.32168 -1.46992,-1.1841 -5.24002,-3.15766 -6.53299,-3.42984 -0.10123,-0.0253 -0.33483,-0.0359 -0.63516,-0.0359 z"
         id="path2"
         inkscape:connector-curvature="0" />
    </g>
  </g>
</svg>
