<?xml version="1.0" encoding="UTF-8" standalone="no"?>
<svg
   xmlns:dc="http://purl.org/dc/elements/1.1/"
   xmlns:cc="http://creativecommons.org/ns#"
   xmlns:rdf="http://www.w3.org/1999/02/22-rdf-syntax-ns#"
   xmlns:svg="http://www.w3.org/2000/svg"
   xmlns="http://www.w3.org/2000/svg"
   xmlns:sodipodi="http://sodipodi.sourceforge.net/DTD/sodipodi-0.dtd"
   xmlns:inkscape="http://www.inkscape.org/namespaces/inkscape"
   viewBox="0 0 932.0193 2010.9275"
   version="1.1"
   id="svg4"
   sodipodi:docname="alone_standing_male19.svg"
   width="932.01929"
   height="2010.9275"
   inkscape:version="1.0.2 (e86c870879, 2021-01-15)">
  <metadata
     id="metadata10">
    <rdf:RDF>
      <cc:Work
         rdf:about="">
        <dc:format>image/svg+xml</dc:format>
        <dc:type
           rdf:resource="http://purl.org/dc/dcmitype/StillImage" />
        <dc:title></dc:title>
      </cc:Work>
    </rdf:RDF>
  </metadata>
  <defs
     id="defs8" />
  <sodipodi:namedview
     pagecolor="#ffffff"
     bordercolor="#666666"
     borderopacity="1"
     objecttolerance="10"
     gridtolerance="10"
     guidetolerance="10"
     inkscape:pageopacity="0"
     inkscape:pageshadow="2"
     inkscape:window-width="1920"
     inkscape:window-height="997"
     id="namedview6"
     showgrid="false"
     fit-margin-top="0"
     fit-margin-left="0"
     fit-margin-right="0"
     fit-margin-bottom="0"
     inkscape:zoom="0.22425739"
     inkscape:cx="321.92707"
     inkscape:cy="509.6506"
     inkscape:window-x="0"
     inkscape:window-y="0"
     inkscape:window-maximized="1"
     inkscape:current-layer="svg4"
     inkscape:document-rotation="0" />
  <rect
     style="fill:#ffffff;stroke-width:5.66929;stroke-linecap:square;stroke-linejoin:round;stroke-dasharray:11.3386, 11.3386"
     id="rect830"
     width="932.01929"
     height="2010.9275"
     x="0"
     y="0" />
  <path
     d="m 588.89437,1928.8317 c -7.93783,-1.7309 -15.80353,-4.4629 -17.47931,-6.0709 -1.67578,-1.608 -6.74858,-2.9238 -11.27279,-2.9238 -19.61574,0 -58.71164,-32.4445 -62.53748,-51.8978 -2.34728,-11.9342 -3.87248,-16.0136 -15.36937,-41.11 -7.75523,-16.9292 -15.21522,-42.9142 -15.21522,-53.0006 0,-4.805 -7.7495,-23.945 -19.445,-48.0265 -3.42665,-7.0559 -6.22647,-15.9909 -6.22153,-19.8564 0.004,-3.8656 -1.26202,-7.8124 -2.81543,-8.7726 -1.55342,-0.9602 -3.57408,-5.0141 -4.49043,-9.0091 -0.91634,-3.995 -4.69693,-15.181 -8.40104,-24.8581 -3.70411,-9.677 -6.73474,-22.2199 -6.73474,-27.8737 0,-5.6538 -1.23694,-11.0439 -2.74884,-11.9783 -1.5119,-0.9343 -3.58277,-9.7786 -4.60188,-19.654 -1.0191,-9.8755 -3.21935,-19.6596 -4.88921,-21.7417 -1.66985,-2.0821 -3.74857,-8.8388 -4.61966,-15.0127 -2.64528,-18.7504 -9.20376,-49.3249 -12.03934,-56.1268 -1.47098,-3.5278 -3.53614,-12.9091 -4.58943,-20.8465 -1.05329,-7.9374 -5.34551,-28.8657 -9.53872,-46.5049 -7.00607,-29.4724 -20.84846,-93.2766 -26.0912,-120.2709 -1.19937,-6.1739 -3.30928,-12.6684 -4.68844,-14.4325 -1.37916,-1.7641 -5.04196,-19.7635 -8.139,-39.9974 -4.32502,-28.2571 -8.12141,-41.5685 -16.36515,-57.3837 -10.57047,-20.2793 -10.73449,-21.2318 -10.77757,-62.6323 -0.0589,-56.4806 -0.0557,-56.4727 -19.87421,-56.4727 -13.14086,0 -16.25193,-1.1079 -17.60144,-6.2681 -1.21892,-4.6612 -5.45894,-6.7895 -16.53767,-8.3009 -8.19414,-1.1179 -19.94931,-3.3405 -26.12283,-4.939 -6.17352,-1.5985 -26.68998,-2.9146 -45.58995,-2.9243 -32.35167,-0.018 -34.59066,-0.4407 -38.209,-7.2341 -4.75385,-8.9246 -12.40948,-14.9977 -19.07486,-15.1323 -2.77947,-0.056 -8.44313,-3.71 -12.58615,-8.12 -4.14301,-4.41 -9.39505,-8.0181 -11.67138,-8.0181 -8.295317,0 -11.230504,-12.6464 -9.158898,-39.46186 1.116964,-14.45756 3.633758,-29.56331 5.592723,-33.56701 2.654175,-5.42534 2.597655,-8.24532 -0.221883,-11.0649 -2.081091,-2.08109 -3.783946,-6.3816 -3.783946,-9.55669 0,-3.1751 -2.079709,-5.77295 -4.621442,-5.77295 -8.181885,0 -8.923537,-6.31146 -3.393458,-28.87759 4.426198,-18.06149 4.724005,-24.19805 1.629184,-33.57689 -3.77782,-11.44709 -1.941436,-26.44692 6.755297,-55.17827 1.69663,-5.60517 3.95686,-17.55381 5.022603,-26.55165 1.65788,-13.99831 3.67545,-17.7376 13.96866,-25.88964 7.44221,-5.89429 15.79385,-9.52864 21.89583,-9.52864 7.24321,0 11.75695,-2.55774 16.97954,-9.62151 3.9124,-5.29195 8.28702,-9.62171 9.72111,-9.62171 1.4341,0 8.40638,-5.97531 15.49387,-13.2784 11.83382,-12.19388 12.68574,-14.22399 10.43055,-24.85611 -3.80154,-17.92197 -2.70082,-32.99985 3.28101,-44.94375 3.00692,-6.00396 5.46724,-14.93896 5.46724,-19.85643 0,-4.91747 1.29822,-9.74186 2.88499,-10.72263 1.58678,-0.98076 4.6001,-9.36441 6.69641,-18.63081 2.09631,-9.2664 6.09644,-21.89978 8.88954,-28.0733 5.01608,-11.08782 11.97611,-38.40859 15.71599,-61.69168 1.05835,-6.58871 3.90192,-13.62086 6.31916,-15.62706 2.41723,-2.00619 4.39497,-9.1585 4.39497,-15.89423 0,-6.73573 1.44325,-13.13888 3.20731,-14.22893 1.82342,-1.12694 3.23082,-17.46804 3.26204,-37.87305 0.0371,-24.27907 1.95149,-43.15533 5.91642,-58.3421 12.48674,-47.82499 13.17148,-49.06008 36.72886,-66.22696 18.33163,-13.35922 26.32835,-16.90366 49.62922,-21.99464 16.44163,-3.59305 33.16783,-5.33107 40.98748,-4.2592 12.84147,1.7601 13.64537,1.3073 28.75704,-16.19599 8.55025,-9.90372 17.37932,-18.00675 19.62009,-18.00675 5.86839,0 17.11095,-12.62468 22.84833,-25.65843 3.54068,-8.04256 4.7738,-20.31885 4.34913,-43.29761 -0.7509,-40.62979 6.68553,-65.50962 20.94726,-70.08244 5.00403,-1.60421 11.26311,-4.71551 13.90899,-6.913788 18.23242,-15.14863 50.72796,-20.921579 79.90593,-14.195925 17.15324,3.953896 54.79687,27.624703 54.79687,34.458253 0,2.7024 2.30578,7.46138 5.12417,10.57561 10.50506,11.60795 17.32616,49.50669 17.32616,96.26455 0,25.95881 -1.32049,44.94375 -3.2073,46.10969 -1.76396,1.09018 -3.20731,9.07984 -3.20731,17.75497 0,13.28531 -1.26452,16.6013 -8.01806,21.02632 -7.89475,5.17279 -10.99771,14.13743 -4.89316,14.13743 1.71868,0 5.39728,4.39438 8.17457,9.76518 3.61281,6.98651 11.16549,12.582 26.54177,19.66375 11.82059,5.44412 30.31623,13.98883 41.10408,18.98791 10.78784,4.99909 26.4232,15.27353 34.75073,22.83252 13.87381,12.59366 15.4075,15.48478 18.34921,34.58869 1.7655,11.46566 4.26178,36.72293 5.54727,56.12682 2.17852,32.88326 6.1253,56.6426 13.35685,80.40787 1.64839,5.41704 2.99704,14.2724 2.99704,19.67838 0,5.40598 2.15599,13.96294 4.791,19.01557 3.48159,6.67586 4.79653,19.87224 4.81075,48.28544 0.01,21.50454 1.31057,39.89664 2.88816,40.87088 1.57758,0.97425 3.66063,7.19401 4.62915,13.81987 0.96851,6.62585 2.71089,16.62225 3.87247,22.21398 1.43703,6.91892 -0.11738,16.12466 -4.86569,28.81633 -6.29505,16.8252 -6.77288,22.41555 -4.88704,57.18407 2.22278,40.98155 10.94653,81.46116 20.39988,94.66189 10.87459,15.18519 13.89001,30.32611 15.04587,75.54652 1.02778,40.21283 0.47973,46.18283 -5.07972,55.32453 -3.42744,5.636 -8.85081,10.2471 -12.05179,10.2471 -3.20098,0 -7.52284,1.7028 -9.60393,3.784 -2.72808,2.7281 -5.81543,2.852 -11.0649,0.4444 -13.65406,-6.2624 -31.81021,-11.2358 -33.79032,-9.2557 -1.08668,1.0867 -0.1733,12.7035 2.02991,25.8145 3.07095,18.2763 3.13162,25.4727 0.25987,30.838 -2.38819,4.4623 -4.04144,29.2135 -4.56137,68.29 -0.44857,33.7093 -1.75216,65.6203 -2.89685,70.9125 -1.14469,5.2921 -3.37409,29.1977 -4.95403,53.125 -1.86055,28.1741 -4.79415,47.9495 -8.32634,56.1268 -2.99941,6.9431 -6.71142,22.7259 -8.24848,35.0749 -4.03255,32.3931 -7.78705,49.6904 -13.72718,63.239 -6.84007,15.6027 -7.13116,66.8652 -0.48663,85.698 3.55965,10.0893 4.65286,27.5674 4.38786,70.1595 -0.60142,96.6598 0.42573,133.1812 4.14242,147.2969 3.10099,11.7763 2.66643,15.7264 -3.24129,29.4586 -3.88967,9.0417 -6.82268,22.6527 -6.82268,31.662 0,16.0752 2.24412,20.3228 26.60303,50.3603 9.30177,11.4701 21.50454,34.812 21.50454,41.1338 0,9.0247 -13.01102,21.4077 -22.4946,21.4077 -5.05975,0 -10.09144,1.4432 -11.18169,3.2073 -2.57118,4.1604 -119.97845,3.6328 -139.51276,-0.6269 z M 258.89584,769.73633 c 5.11449,-4.62856 5.48324,-9.99165 3.80469,-55.32451 -1.24614,-33.65593 -0.39574,-62.8833 2.58047,-88.68599 2.44154,-21.16662 4.4511,-52.17451 4.46572,-68.90268 0.0231,-26.42715 -0.70936,-30.5593 -5.586,-31.50588 -4.35941,-0.84589 -5.61269,1.10143 -5.61269,8.72177 0,11.13308 -5.75891,37.58849 -10.00054,45.93974 -1.55557,3.06304 -2.82828,9.16739 -2.82828,13.56553 0,10.63706 -9.35947,59.35388 -12.96043,67.46008 -1.56721,3.52784 -3.26125,10.74417 -3.76438,16.03612 -0.68337,7.1865 -2.73994,9.88079 -8.12576,10.64576 -4.83783,0.68715 -7.80424,3.85351 -9.01365,9.62171 -0.99144,4.72855 -3.15869,11.10364 -4.81609,14.16648 -3.91734,7.23946 -3.85865,15.27768 0.11145,15.27768 4.4175,0 12.91123,17.45757 12.91123,26.53782 0,5.46862 3.38753,9.49859 12.02709,14.30836 14.88007,8.28386 19.59913,8.65992 26.80657,2.13682 z"
     id="path2"
     inkscape:connector-curvature="0"
     style="stroke-width:1.97616" />
</svg>
