<?xml version="1.0" encoding="UTF-8" standalone="no"?>
<svg
   xmlns:dc="http://purl.org/dc/elements/1.1/"
   xmlns:cc="http://creativecommons.org/ns#"
   xmlns:rdf="http://www.w3.org/1999/02/22-rdf-syntax-ns#"
   xmlns:svg="http://www.w3.org/2000/svg"
   xmlns="http://www.w3.org/2000/svg"
   xmlns:sodipodi="http://sodipodi.sourceforge.net/DTD/sodipodi-0.dtd"
   xmlns:inkscape="http://www.inkscape.org/namespaces/inkscape"
   viewBox="0 0 994.96331 2647.8945"
   version="1.1"
   id="svg4"
   sodipodi:docname="alone_standing_male11.svg"
   inkscape:version="1.0.2 (e86c870879, 2021-01-15)"
   width="994.96332"
   height="2647.8945">
  <metadata
     id="metadata10">
    <rdf:RDF>
      <cc:Work
         rdf:about="">
        <dc:format>image/svg+xml</dc:format>
        <dc:type
           rdf:resource="http://purl.org/dc/dcmitype/StillImage" />
        <dc:title></dc:title>
      </cc:Work>
    </rdf:RDF>
  </metadata>
  <defs
     id="defs8" />
  <sodipodi:namedview
     pagecolor="#ffffff"
     bordercolor="#666666"
     borderopacity="1"
     objecttolerance="10"
     gridtolerance="10"
     guidetolerance="10"
     inkscape:pageopacity="0"
     inkscape:pageshadow="2"
     inkscape:window-width="1920"
     inkscape:window-height="997"
     id="namedview6"
     showgrid="false"
     inkscape:zoom="0.18909266"
     inkscape:cx="-614.68463"
     inkscape:cy="1667.7521"
     inkscape:window-x="0"
     inkscape:window-y="0"
     inkscape:window-maximized="1"
     inkscape:current-layer="svg4"
     inkscape:document-rotation="0"
     fit-margin-top="0"
     fit-margin-left="0"
     fit-margin-right="0"
     fit-margin-bottom="0" />
  <rect
     style="fill:#ffffff;stroke-width:5.66929;stroke-linecap:square;stroke-linejoin:round;stroke-dasharray:11.3386, 11.3386"
     id="rect830"
     width="994.96332"
     height="2647.8945"
     x="0"
     y="0" />
  <path
     d="m 603.85835,81.443357 c -2.77725,0.1734 -4.31825,1.1524 -9.22309,0.4033 1.5e-4,1.5643 -7.44012,3.7335 -10.38249,1.9151 -6.69742,0.4839 -4.51693,0.08 -12.80135,3.276 -10.26396,-0.5074 -16.66108,2.8538 -22.47845,7.4088 -3.69586,0 -4.32241,0.5704 -3.62876,3.2256 0.67687,2.588203 0.0493,3.225603 -3.17508,3.225603 -2.21018,0 -6.48133,0.3542 -9.47516,0.8064 -4.91366,3.2416 -3.66052,5.0619 -6.24953,4.788 0,1.5574 -7.0668,8.9207 -8.56795,8.9207 -1.61397,0 -18.84934,17.602 -18.84954,19.2527 0,0.8699 -5.92857,6.5432 -6.85433,6.5519 -3.08026,-0.06 -3.14574,2.2233 -7.35837,9.072 1.07299,3.939 -2.7201,8.9901 -8.46715,11.2895 -7.42881,2.9724 -8.23991,5.4431 -1.76405,5.4431 h 4.58644 l -2.92316,8.4672 c -1.60894,4.6569 -2.9448,12.4649 -2.97355,17.388 -0.0292,4.923 -0.90104,9.8218 -1.96564,10.8863 -1.50521,1.5052 -1.26686,1.9656 1.00799,1.9656 2.57515,0 2.77322,0.9163 1.7641,7.6607 -1.4557,9.7256 -1.47555,9.7322 -8.16495,10.9872 -5.79327,1.0868 -9.33205,3.9312 -4.88866,3.9312 3.61907,0 3.11558,2.7862 -0.9072,4.9391 -2.63365,1.4095 -2.93978,2.1683 -1.31038,3.1752 1.70534,1.054 1.70583,1.7957 0.10074,3.7296 -1.62586,1.9591 -1.42054,3.0271 0.9072,5.7456 1.5786,1.8436 3.66312,3.3768 4.68707,3.3768 6.22733,7.1239 -1.91921,17.1025 5.98056,12.2892 6.41797,-2.811 -4.8185,18.1151 4.78806,12.7049 -3.97491,1.0395 1.90549,12.2305 4.45229,16.9889 2.3166,4.3288 12.92503,9.82 12.8518,6.6527 2.55708,5.8636 -5.18429,-4.5794 4.33442,10.7352 1.45871,2.3469 4.99044,9.8022 5.99761,12.2471 3.28363,7.9714 3.19976,13.5322 3.88068,14.9687 0.15853,4.4105 -0.2124,5.4742 -1.31033,3.7296 -2.09524,-3.3287 -0.38311,8.3982 2.57024,17.6399 2.66757,8.347 2.12472,8.9803 -8.87031,10.4831 -11.72643,1.6028 -16.56033,2.7428 -15.62373,3.6792 0.47798,0.4779 -0.54288,2.6448 -2.2681,4.8383 -2.3585,2.9983 -2.76381,4.7612 -1.56228,7.0056 1.25244,2.3402 0.93187,3.3254 -1.6128,4.6872 -4.12698,2.2087 -4.18637,4.9292 -0.10108,5.9975 2.7516,0.7196 2.27224,1.5479 -3.62878,6.2496 -17.57943,14.0072 -26.75071,22.2622 -26.05654,23.3855 0.41755,0.6757 -0.19609,1.5642 -1.3104,2.0159 -1.53569,0.6226 -1.41524,1.2585 0.40321,2.52 1.99612,1.3849 1.86084,1.6234 -0.80645,1.512 -1.76287,-0.074 -7.94276,0.6346 -13.70869,1.5624 -5.76587,0.9277 -16.18596,2.1691 -23.18387,2.7719 -13.34537,1.1498 -35.78585,7.5991 -50.29889,14.4647 -4.71286,2.2296 -9.33947,4.0824 -10.28152,4.0824 -0.77157,0 -1.40021,0.4497 -1.61281,1.0584 -2.25739,0.369 -4.30064,0.7326 -5.44317,1.1089 -8.4163,1.0118 -8.24006,2.2736 -14.21267,5.7959 -8.93279,4.77403 -9.14359,10.4171 -14.96881,11.28953 -3.75151,1.73166 -11.61709,6.22652 -15.77501,10.23112 -0.33207,-0.28059 -1.05671,-0.45358 -2.21763,-0.45358 -1.38295,0 -2.01984,0.71128 -1.4615,1.6128 0.37516,0.60722 0.99754,0.95567 1.61281,0.95763 -3.12609,3.1927 -5.07223,5.02398 -6.85438,9.57591 -6.22583,3.12092 -10.33393,7.61173 -11.2392,10.43271 -1.75728,4.88023 -3.47022,5.74096 -5.34235,6.45118 0,-0.88703 -0.77445,-1.61276 -1.71362,-1.6128 -0.93918,-5e-5 -1.25359,0.72577 -0.7056,1.6128 0.18514,0.29971 0.39143,0.5653 0.60482,0.80638 -0.85316,0.40907 -1.76001,0.95681 -2.72157,2.01596 -0.17406,0.20281 -0.33614,0.44017 -0.50404,0.65517 -0.39575,0.0525 -0.75297,0.14743 -0.95746,0.35279 -0.26809,0.26807 -0.18278,0.49925 0.20154,0.65519 -2.98979,4.34222 -5.05915,10.47617 -7.66074,15.27113 -2.30806,4.18561 -3.79825,9.68856 -6.14893,14.66633 -5.78265,8.98398 -13.1057,20.14167 -17.58942,28.77819 -5.07899,8.40851 -4.57594,25.20494 -6.19923,33.61662 -3.6231,11.17487 -4.74191,26.20439 -6.45116,38.50533 -0.4319,8.39056 -5.15784,18.74334 -6.65276,28.97985 -3.16152,14.29205 -3.78474,24.59002 -5.24157,35.6326 -1.59794,10.40431 1.66103,18.64275 0.2016,29.23177 1.69892,11.29135 -1.15927,19.69319 -1.66311,26.61106 1.08638,9.99732 2.20936,19.91568 0.60481,26.00622 0.76591,1.64487 0.40237,1.59641 -0.75606,3.83039 -0.80011,1.50495 -0.79737,3.5662 -0.95751,4.93916 -0.18905,0.34132 -0.38388,0.63957 -0.55431,0.85679 -1.54056,1.96058 -1.54315,4.60848 -0.25213,7.20717 0.4321,6.85473 4.28843,9.08343 9.97915,8.31595 1.16071,0.49134 2.10306,0.74376 2.52,0.6048 0.26206,-0.0874 0.61238,-0.61882 1.00798,-1.41119 1.0314,-0.30568 2.12067,-0.66931 3.2256,-1.10879 1.13507,11.1301 0.0414,14.74788 -1.96554,20.71428 0.6245,6.00036 -2.355,15.18179 -2.01597,19.05109 -1.09862,5.65795 -1.30137,11.31536 -0.75606,18.24466 0.96557,5.02509 8.63308,6.81986 5.29188,13.05355 0.69864,7.03078 -0.25242,14.34681 -0.45353,19.40389 1.15475,2.62465 2.74563,13.36439 3.93121,20.51264 0.2201,6.85337 2.34077,8.57133 2.01596,14.36392 -2.15612,2.72439 2.28757,17.06251 2.21757,22.57906 0.24114,4.03188 -0.22786,4.50894 2.01601,9.17278 0.61979,2.19192 2.86525,1.16812 4.48566,2.26798 9.50384,31.39472 21.56508,40.23082 44.85556,33.31412 8.76518,-2.6029 17.28138,-3.3133 21.31912,-1.7639 1.26944,0.4871 1.65069,3.2644 1.20959,13.2047 l -0.50399,-0.3024 c -0.32769,0.8432 -0.74412,0.5007 -0.45368,-0.252 l -0.25192,-0.1008 c -0.91865,1.3387 -3.00138,4.9366 -5.89666,10.2816 -1.24379,0.2747 -2.65741,2.237 -4.03198,4.5864 -1.97599,-0.4123 -3.91344,-0.6552 -5.49364,-0.6552 -2.43115,0 -4.01232,0.5145 -3.4272,1.4616 0.50931,0.8242 3.89829,1.4031 7.71126,1.4111 l -2.01602,3.6792 c -2.01789,4.259 -0.89606,9.2578 -2.67124,12.348 -2.90482,6.5146 -7.19678,9.2661 -5.29203,10.0295 1.68584,0.2482 4.33356,4.5667 3.22555,11.7935 0.4327,3.4269 -0.22067,7.8895 -0.70544,12.1968 0.60739,6.9005 -1.27831,11.2641 -0.95767,13.9607 0.75626,6.1788 -2.73366,8.8651 -0.7056,8.4671 3.58396,1.0743 1.53315,10.1631 2.11679,14.2127 -0.0851,1.1592 0.85077,7.1152 -0.80638,11.6424 -0.8477,3.999 -5.47753,9.5224 -6.24956,12.7511 -0.88799,7.6013 -3.35785,12.4083 -1.86471,13.6079 -1.02911,2.3487 -6.20735,5.5437 -8.97131,12.8519 -1.93632,3.3803 -0.96786,9.5471 -0.45353,13.2552 -0.9433,4.952 0.53208,8.0132 -0.50398,11.7431 0.65592,5.3292 -2.48789,9.4711 1.3104,14.6159 1.83534,-2.2754 -3.87183,5.4349 -8.01365,11.592 -2.38838,4.9196 -4.42261,6.7041 -6.75337,10.5334 -4.277,4.5305 -9.55421,10.7996 -9.47517,11.8944 -1.23941,-1.5545 -0.77818,6.0087 -0.3529,16.1783 0.5387,4.2133 -1.90116,7.4105 -1.56244,12.4487 -1.372,10.8684 0.98457,17.5834 1.15929,17.6903 2.83139,0.8924 -0.54501,7.1371 0,14.3135 0.71623,2.0754 0.82462,4.0954 0.75605,5.9472 -0.35885,-0.081 -0.783,-0.1512 -1.31055,-0.1512 -1.53087,0 -2.84418,0.7653 -3.62877,1.7136 l 1.00798,1.4616 c 0.65772,0.9753 1.30122,1.9686 1.91533,2.9736 0.72155,0.1515 1.27929,0.1727 1.61281,0.051 0.0213,0.4756 0.1004,0.9293 0.20159,1.3607 0.2158,0.3772 0.2434,1.1089 0.15121,2.016 2.04146,3.7777 3.72601,7.7127 4.93914,11.7432 1.64262,6.6484 1.04154,12.6291 1.61279,19.8575 1.67023,7.0656 0.49306,16.5282 -0.75606,24.8471 -1.69136,7.3274 -1.37395,11.7687 -0.65514,19.7062 0.0955,4.2658 -1.05526,9.1027 -2.57046,13.6079 0.45143,0.7029 0.64578,1.5436 0.40321,2.2679 -0.33514,1.0052 -0.77933,1.2954 -1.56234,0.8569 l -0.95746,2.3687 2.92302,-0.4032 -1.00804,11.0879 c -1.32602,14.9725 -9.71817,72.6632 -14.6662,100.5978 -1.33558,7.5398 -2.39243,15.6094 -2.3184,17.9423 0.0976,3.0735 -0.84218,4.5544 -3.47748,5.3425 l -3.67928,1.0583 3.52799,1.7137 c 3.00993,1.4726 3.40946,2.7577 2.82239,9.0214 -0.37641,4.016 -1.612,8.3826 -2.72161,9.7272 -1.61743,1.9605 -1.60246,2.62 0.0505,3.1752 1.34278,0.4517 1.79855,2.4786 1.2599,5.796 -0.45497,2.8007 -1.20218,12.2277 -1.6128,20.9662 -0.59881,12.7477 -1.29685,16.3296 -3.62877,18.2447 -2.71723,2.2315 -2.71062,2.35 -0.0503,1.512 2.51255,-0.7914 2.80012,0.1603 2.46949,8.064 -0.20594,4.9229 -0.8362,9.2206 -1.41119,9.5759 -0.57499,0.3553 -0.73026,2.4989 -0.30239,4.7376 0.82189,4.2997 -0.93136,5.2687 -3.98151,2.2176 -2.04306,-2.0429 -7.56961,-0.6044 -6.19924,1.6128 0.48127,0.7786 2.93868,1.8564 5.49349,2.3688 3.95457,0.7909 4.63531,1.6556 4.48565,5.8464 -0.19207,5.3667 -0.93265,5.9218 -3.88083,2.9735 -1.37734,-1.3773 -1.96535,-1.4007 -1.96555,-0.1007 0,1.0046 1.49651,2.2927 3.32638,2.8727 3.24574,1.03 3.3314,1.8232 2.62078,32.7599 -0.49588,21.5899 0.0371,39.7309 1.71363,56.7499 1.35442,13.749 2.57157,27.7213 2.67125,31.0462 0.0997,3.325 0.65836,6.048 1.2599,6.048 0.60154,0 1.60425,4.0099 2.21757,8.9208 1.00207,8.0193 -0.90118,20.4186 -3.93114,25.7542 -0.5037,0.887 -1.03832,2.3388 -1.20959,3.2255 -1.62185,8.404 -6.48875,24.1145 -9.47516,30.6431 -2.02854,4.4351 -4.15229,10.9684 -4.73757,14.5151 -1.87631,11.3731 -2.42112,12.3181 -7.05593,11.844 -2.3626,-0.2416 -5.254,-1.1256 -6.40084,-1.9657 -1.33334,-0.9752 -2.68949,-0.9391 -3.77991,0.1512 -1.19781,1.1978 0.004,2.3556 4.08244,3.8304 3.32285,1.2016 5.79607,3.1808 5.79588,4.6368 0,3.8742 -7.79926,26.92 -12.19672,36.0358 -2.14647,4.449 -3.55459,8.4389 -3.12477,8.8703 0.42981,0.4314 0.1861,1.6017 -0.55431,2.5703 -1.96311,2.5639 -2.94415,5.8717 -2.41918,7.4087 -0.74353,1.8147 -1.47766,3.659 -2.1673,5.4936 -8.60842,3.9745 -18.08015,14.8329 -23.93991,27.5183 -3.07963,6.6671 -5.59411,12.784 -5.59432,13.5575 -1.9e-4,0.7734 -1.2231,4.2262 -2.72155,7.6607 -1.49846,3.4345 -2.7953,6.6139 -2.92317,7.0559 -0.12789,0.4421 -1.1993,4.3386 -2.36872,8.6688 -1.39295,5.1585 -3.18916,8.1589 -5.14094,8.6687 -3.66182,0.9575 -3.91216,3.6288 -0.3527,3.6288 1.84081,0 2.24612,0.8192 1.4112,2.8224 -0.64643,1.5523 -2.21663,7.1772 -3.47767,12.4991 -1.26105,5.3219 -2.9801,11.8905 -3.83038,14.6161 -0.85027,2.7256 -1.56214,6.8498 -1.56233,9.1726 -2e-4,2.3228 -0.72559,4.6948 -1.61276,5.2415 -0.88716,0.5468 -1.61265,3.1553 -1.6128,5.7961 -1.5e-4,2.6408 -1.36958,10.7571 -3.07446,18.0431 -1.70488,7.2859 -3.95118,17.4975 -4.98949,22.6798 -1.03831,5.1824 -3.298,10.807 -4.9895,12.4991 -1.69151,1.6921 -2.34853,3.0743 -1.46166,3.0743 2.13404,0 2.09566,5.933 -0.0505,7.2576 -0.92287,0.5708 -1.26269,2.3841 -0.75596,3.9817 0.50672,1.5976 0.26017,4.6053 -0.55431,6.7031 -1.38455,3.5656 -4.06226,14.751 -5.74571,23.9902 -2.53064,13.8944 -9.954276,42.8865 -11.188576,43.747 -0.81105,0.5662 -0.97751,1.7926 -0.40321,2.7217 1.15574,1.8698 -1.596,22.4671 -4.03193,30.2901 -0.85446,2.7434 -1.87442,7.8237 -2.31855,11.2896 -0.44413,3.4658 -1.20591,8.1142 -1.66312,10.3318 -0.4572,2.2176 -1.23121,6.5725 -1.71358,9.6768 -0.48236,3.1042 -1.25622,6.7348 -1.76394,8.0639 -0.50772,1.3291 -0.79912,3.3601 -0.60477,4.5361 0.19435,1.1761 -0.2732,2.9874 -1.0585,4.032 -0.78529,1.0446 -1.59634,7.1995 -1.81435,13.7087 -0.36225,10.8145 0.11917,13.0323 5.99748,25.8047 3.53763,7.6848 6.90871,15.101 7.45913,16.4301 4.41228,10.6517 21.277206,32.3959 28.375096,36.5903 2.54322,1.5021 5.48767,4.7908 6.55198,7.3582 1.6584,4.0039 1.42055,5.75 -1.6128,11.9953 -2.76914,5.6999 -3.09574,7.7387 -1.6128,9.5255 1.48294,1.7869 1.25717,2.9911 -1.00798,5.4935 -2.8208,3.117 -2.79838,3.2256 1.86487,3.2256 2.58499,0 6.05893,1.0453 7.81189,2.3185 -3.8433,2.5777 -7.68625,5.4513 -11.39034,8.5677 -8.88147,1.484 -14.15933,4.6374 -12.90231,7.913 0.44089,1.1491 -0.76352,4.1655 -2.97369,7.6606 l -0.0503,0.051 c -4.47323,5.3749 -8.220716,8.7014 -11.743036,14.4647 -3.48026,5.6937 -9.09695,12.6567 -12.60008,18.3454 -3.91847,6.3642 -2.21101,14.8395 -2.46954,21.1175 l -0.30238,0.2015 c -6.36038,8.9693 2.52,10.9583 -6.45116,18.396 -3.57974,2.629 -3.518,3.5318 0.40321,8.5178 1.76196,2.2399 2.80658,4.7548 2.31835,5.5437 -0.48823,0.7888 0.22582,2.5426 1.6128,3.9314 1.38699,1.3888 2.52016,3.5695 2.52001,4.8383 0,1.2671 1.02121,2.3182 2.26803,2.3182 2.28872,0 15.5933,6.391 17.085436,8.2152 0.44353,0.5423 4.27435,1.4989 8.46712,2.1169 4.19277,0.6177 8.08106,1.9218 8.66878,2.8729 0.71415,1.1552 7.55897,1.4385 20.61357,0.8565 16.55365,-0.7377 22.82498,-1.863 41.27725,-7.3582 27.30084,-8.1303 32.968,-10.2444 36.74144,-13.6583 1.66004,-1.5024 3.90053,-2.7217 4.93904,-2.7217 1.03851,0 1.86502,-0.7818 1.86487,-1.7134 -1.5e-4,-0.9316 2.10292,-2.4416 4.63675,-3.3265 2.53382,-0.8851 5.45346,-3.1889 6.50162,-5.1406 1.81843,-3.3896 8.56347,-7.5603 12.19656,-7.5603 0.94042,0 2.58483,-1.402 3.62881,-3.0742 1.11409,-1.7836 5.40539,-3.8283 10.43283,-4.9897 4.71302,-1.0871 10.97649,-3.3628 13.91029,-5.0399 2.93381,-1.6772 6.83225,-3.0241 8.66873,-3.0241 3.65247,0 22.27683,-18.3789 22.27669,-21.9741 0,-1.1815 2.15468,-5.5237 4.78789,-9.6768 2.63321,-4.1532 4.3987,-8.1633 3.93134,-8.9207 -0.46734,-0.7574 -0.13007,-1.3608 0.70541,-1.3608 2.11779,0 3.53267,-8.6419 1.6128,-9.8279 -0.87056,-0.5381 0.34579,-3.2733 2.72177,-6.0984 4.09406,-4.8654 4.13146,-5.0401 0.907,-5.0401 -1.85295,0 -3.37655,-0.7243 -3.3767,-1.6128 -1.6e-4,-0.8885 0.72593,-1.6128 1.61281,-1.6128 0.88685,0 1.61294,-1.9663 1.61279,-4.3341 -1.4e-4,-2.368 1.27026,-5.7165 2.8224,-7.4592 2.77352,-3.1146 2.68994,-3.1725 -4.83842,-2.0665 -6.34858,0.9326 -7.66059,0.7243 -7.66074,-1.3607 0,-1.6846 1.50521,-2.5202 4.53597,-2.5202 1.2701,-13.5777 -3.942,-9.9468 -3.02394,-19.9582 -6.103,-0.9653 -2.0194,7.9416 -7.81205,-3.9816 -0.34095,-1.5597 2.68607,-0.1312 3.07446,-4.7879 0,-0.7095 0.90735,-2.2829 2.01597,-3.4775 1.61279,-1.7378 1.61295,-1.9186 0,-1.008 -2.68756,1.5173 -2.64997,-3.0232 0.0505,-5.7959 2.38036,-2.4449 7.61044,-17.9189 7.61029,-22.5288 0,-1.717 1.61395,-3.7099 3.62877,-4.4855 3.04706,-1.1751 3.21546,-1.5744 1.00803,-2.4697 -2.20742,-0.8952 -2.36711,-2.1321 -1.0585,-7.8118 0.85639,-3.7159 2.20888,-12.5592 3.024,-19.656 0.81513,-7.097 2.4869,-20.8842 3.67924,-30.6431 1.19233,-9.7588 1.8128,-18.3705 1.41118,-19.1014 -0.40162,-0.7309 0.98527,-3.198 3.07447,-5.4936 2.75755,-3.0283 3.07351,-3.879 1.10867,-3.1751 -2.30295,0.8249 -2.6192,0.076 -1.91505,-4.9895 0.45482,-3.2738 1.26408,-7.0356 1.76389,-8.3665 0.49981,-1.3309 0.75045,-4.0994 0.55431,-6.0983 -0.20967,-2.1404 0.74498,-4.0333 2.31855,-4.6368 1.88665,-0.724 2.10053,-1.3865 0.75597,-2.2176 -1.44928,-0.8955 -1.29477,-6.1042 0.70555,-21.9239 4.16068,-32.9029 5.55831,-48.3416 6.35037,-70.6099 0.53143,-14.9444 1.32106,-21.1403 2.87286,-22.1255 1.34427,-0.8519 1.50282,-1.3951 0.35275,-1.4112 -2.14986,-0.029 -3.7559,-12.7817 -1.76395,-14.011 0.738,-0.4561 0.52144,-1.7989 -0.45368,-2.9736 -0.97511,-1.1748 -1.70374,-5.2769 -1.61275,-9.1223 0.091,-3.8454 0.1536,-13.4868 0.10075,-21.4704 -0.0529,-7.9836 0.51628,-18.5062 1.31042,-23.3855 0.79414,-4.8793 1.18826,-23.5466 0.85684,-41.4284 -0.45641,-24.5644 -0.0431,-34.0147 1.61281,-38.7069 1.54199,-4.3709 1.99985,-11.9982 1.56228,-25.7041 -0.60542,-18.9747 -0.52219,-19.5776 3.4272,-23.839 3.01316,-3.2513 4.03213,-6.1226 4.03198,-11.2391 0,-3.7851 1.19881,-10.8378 2.62079,-15.6238 1.48373,-4.9966 2.20082,-11.3852 1.71359,-15.0193 -0.96299,-7.1785 4.08682,-29.2124 7.61043,-33.1628 5.32106,-5.9683 15.02506,-29.2225 17.84135,-42.8399 4.03083,-19.4804 7.86444,-31.0694 16.12786,-48.4843 8.46493,-17.8401 14.49462,-34.2559 17.84168,-48.6863 2.76219,-11.9103 13.12184,-45.7847 15.77504,-51.6093 0.9141,-2.0067 2.68432,-3.6288 3.98165,-3.6288 1.90824,0 1.97098,-0.4675 0.35271,-2.4192 -1.60267,-1.9308 -1.4354,-3.9918 0.65526,-10.3821 1.43442,-4.3857 2.5705,-8.7854 2.57029,-9.7777 -2e-4,-0.9923 1.35635,-4.8479 2.97352,-8.5678 4.00362,-9.2125 7.01856,-16.9212 13.91032,-35.2798 3.22299,-8.5855 7.13792,-17.296 8.66876,-19.3535 1.53087,-2.0575 3.60878,-5.5441 4.63675,-7.7617 2.17597,-4.6934 4.06842,-9.0723 5.54415,-12.8014 0.48817,-5.8478 1.48242,-12.957 3.12459,-17.4384 1.05265,-6.7765 4.07731,-11.7579 6.65275,-17.6902 2.12697,-5.2156 7.85398,-10.7396 9.67674,-16.0271 3.23639,-22.3513 20.02761,-39.0478 16.29377,-36.3515 -4.7206,4.4848 3.33966,-5.3227 12.94803,11.6211 3.08234,2.7782 3.04735,10.2685 4.91274,16.4642 1.20832,4.0132 4.53351,14.9141 3.72231,28.5891 1.68858,8.097 0.88643,13.2939 1.88859,19.3417 0.0407,6.8019 -0.71717,8.9483 1.81442,18.0429 1.47797,6.8923 1.67952,12.1642 1.81436,18.2449 1.14027,6.4776 -0.85381,13.5968 -1.51196,18.9503 -0.1824,1.6481 -0.39511,3.2178 -0.65516,4.7374 1.2964,6.8279 1.71328,17.5391 0,17.5391 -1.02315,0 -0.57427,0.9101 1.00804,2.0664 2.46963,1.8061 3.08962,6.133 4.28385,30.6431 0.76467,15.6929 1.85956,31.2214 2.46953,34.4733 0.95073,5.0678 0.75687,5.7582 -1.51181,4.8889 -1.45641,-0.5588 -2.67109,-0.305 -2.67129,0.5543 -2.1e-4,0.8593 1.46811,1.5623 3.22558,1.5623 2.17438,0 3.47106,1.418 4.13278,4.4352 0.53447,2.4394 1.36248,5.5252 1.81439,6.8544 2.79141,8.2158 5.39071,20.5422 6.95516,33.1126 0.98864,7.9443 3.14879,22.8123 4.83836,33.0118 1.68957,10.1994 3.55926,23.628 4.1328,29.8366 1.10811,11.9991 6.36053,30.0265 11.89433,40.8742 4.25487,8.3401 4.50723,17.8786 0.50399,18.1439 -2.59064,0.1716 -2.57421,0.2637 0.10075,0.9577 2.18485,0.5661 2.79062,2.0174 2.41917,5.8464 -0.40963,4.2218 -1.2715,5.2225 -4.93913,5.6447 -2.43937,0.2806 -4.43505,1.4734 -4.4352,2.6711 -1.4e-4,1.1976 -0.90706,2.5271 -2.01604,2.9232 -1.10894,0.3961 -1.38697,1.3373 -0.6552,2.1168 0.73173,0.7794 1.99389,0.1597 2.87285,-1.4112 0.86459,-1.5449 2.82608,-2.7486 4.33434,-2.7216 2.50758,0.045 2.51061,0.1561 0.10075,1.5623 -1.48341,0.8664 -3.11506,4.7214 -3.72954,8.82 -0.60059,4.0051 -1.96938,7.3706 -3.02398,7.4592 -1.05464,0.089 -0.10057,0.6435 2.11678,1.2599 3.49299,0.9719 4.24616,2.4225 5.39266,10.6344 1.14651,8.2119 0.74721,11.0047 -2.82235,20.8655 -2.86498,7.9144 -4.40987,16.1632 -5.04,26.9134 -0.49978,8.5273 -1.8924,19.1587 -3.07425,23.6374 -1.18185,4.4787 -1.75714,11.4097 -1.31043,15.372 0.57386,5.0906 -0.25963,9.9944 -2.77189,16.6822 -5.11224,13.605 -6.71807,22.8537 -5.59447,32.0542 0.60321,4.9386 0.0673,12.1284 -1.41118,18.5471 -5.20303,22.5905 -8.14762,68.2792 -9.07194,141.1191 -0.21679,17.0932 -1.00815,28.1974 -2.1168,29.5344 -1.30181,1.5684 -1.27765,2.4756 0.10075,3.3262 2.52822,1.5626 2.99491,31.2745 0.504,32.1047 -2.52536,0.8417 -2.21504,3.5783 0.40314,3.5783 1.67169,0 2.28697,4.2263 2.67131,18.1439 0.41896,15.1804 0.50914,46.0732 0.20163,58.4637 -0.0443,1.774 0.0789,8.6687 0.25175,15.3214 l 0.30244,12.096 c -0.50189,16.4661 -1.91539,17.202 1.20959,27.1152 1.55231,-0.4893 2.82253,-0.084 2.82237,0.907 -1.3e-4,0.9904 -1.06622,1.8143 -2.36869,1.8143 -1.53101,0 -2.01551,0.9163 -1.36088,2.6209 0.83814,2.1841 0.13314,2.4836 -4.08232,1.8648 -2.80267,-0.4112 -5.09026,-0.1279 -5.09042,0.6048 -1.3e-4,0.7337 0.90739,1.383 2.01597,1.4113 -9.20434,19.8688 20.49084,3.7164 1.20959,16.0773 0,0.8871 -1.2699,1.6012 -2.82238,1.6128 -2.07821,0.017 -1.75923,0.583 1.2096,2.117 3.06301,1.5808 3.94233,3.1334 3.57828,6.5015 -0.37799,3.507 0.12785,4.3195 2.41918,3.9312 4.0449,-0.6857 4.9553,6.2217 0.95767,7.2574 -1.60421,0.4156 -0.0205,0.8427 3.52799,0.9575 4.35519,0.1432 5.73385,0.6642 4.23358,1.6128 -1.24106,0.7862 -1.68633,2.2797 -1.00799,3.377 0.94689,1.532 1.48346,1.5448 2.46965,-0.051 0.98622,-1.5952 1.86573,-1.5095 3.88074,0.5039 1.41616,1.4164 3.99484,3.0229 5.74557,3.5785 1.7507,0.5555 3.02623,1.749 2.82231,2.6207 -0.4196,1.7957 15.82426,8.0654 17.23676,6.6527 0.504,-0.5039 0.90734,2e-4 0.90719,1.1089 -1.4e-4,1.1087 0.90735,1.6839 2.01598,1.3104 1.10859,-0.3735 4.3879,0.6622 7.25757,2.2679 2.86967,1.6056 6.26968,2.5113 7.55991,2.0159 1.29025,-0.4952 3.63544,-0.1261 5.24155,0.8065 2.8158,1.6379 2.81306,1.7168 0,1.764 -1.60468,0.026 -2.46317,0.7765 -1.91517,1.6631 0.54799,0.8868 2.83045,1.6128 5.03998,1.6128 5.16221,0 11.68226,3.4207 16.63188,8.7192 2.15053,2.3018 4.86324,4.1831 6.048,4.1831 1.18478,0 3.42007,1.4522 4.93913,3.2256 1.51908,1.7734 3.36334,3.2256 4.13281,3.2256 0.76949,0 2.66947,1.5076 4.18322,3.3768 1.51379,1.8693 5.10723,3.6935 8.01349,4.032 3.41286,0.3974 7.27838,2.635 10.88638,6.3505 4.21728,4.3425 6.37727,5.4936 8.92077,4.6871 2.25796,-0.7169 3.00756,-0.4909 2.26795,0.7054 -0.6069,0.9823 -0.26544,1.8145 0.75606,1.8145 3.22107,0 9.14065,5.5426 8.36618,7.8623 -0.42032,1.2615 -0.002,1.8029 0.95766,1.2096 0.95976,-0.5932 2.83162,0.1091 4.23361,1.5121 2.32386,2.3241 3.22604,1.8845 2.72155,-1.3104 -0.42578,-2.6968 2.89031,-0.9972 3.83037,1.9657 0.62948,1.983 3.40819,3.8251 7.35836,4.8886 3.49464,0.941 6.35053,2.4232 6.35039,3.2761 -1.5e-4,0.8527 1.55796,1.5623 3.42715,1.5623 2.22066,0 3.07592,0.7698 2.52002,2.2174 -0.61561,1.6038 1.17343,2.4521 6.45114,3.1753 12.88814,-1.519 4.07683,-0.4026 19.85747,-1.7135 4.87873,-0.4587 11.04779,-0.7303 13.70876,-0.6048 l 17.74065,0.9575 c 15.73973,0.854 24.59214,1.1024 35.48136,0.9577 7.6903,-0.1023 19.6261,-4.9344 16.68224,-6.7536 -1.15539,-0.7141 0.75676,-1.9384 4.78803,-3.0239 3.76654,-1.0141 7.47515,-3.2351 8.4672,-5.0905 0.97071,-1.8141 3.9092,-4.0369 6.50146,-4.939 4.88806,-1.704 5.93135,-4.3009 2.97369,-7.2576 -1.21349,-1.2134 -0.90817,-2.4679 0.95765,-4.3345 1.48119,-1.4809 1.83002,-2.6208 0.8064,-2.6208 -1.00269,0 -1.41717,-0.6876 -0.90738,-1.5118 0.50981,-0.8241 0.1955,-1.9616 -0.7054,-2.5201 -2.22811,-1.3772 -2.06489,-7.8133 0.25205,-10.1303 1.43469,-1.4347 1.26602,-2.116 -0.70559,-2.8728 -1.423,-0.5458 -2.19471,-2.022 -1.71365,-3.276 0.65528,-1.7072 -0.28001,-2.1499 -3.72954,-1.7135 -2.53287,0.3203 -3.36656,0.2846 -1.8144,-0.1006 3.70359,-0.9197 3.60764,-3.1762 -0.25204,-5.2415 -1.97648,-1.0578 -3.28799,-1.1042 -3.62879,-0.1006 -0.30306,0.8929 -2.29453,1.0744 -4.58627,0.4031 -4.93966,-1.4467 -5.42448,-6.9627 -0.80642,-9.1727 2.58419,-1.2367 1.30137,-1.764 -6.45117,-2.5703 -5.3222,-0.5543 -7.86218,-1.1464 -5.64478,-1.3105 7.72529,-0.5668 8.70443,-2.9563 1.66329,-4.0824 -5.01289,-0.8015 -6.6118,-1.7374 -6.40085,-3.8304 0.48931,-4.8498 -0.0205,-5.6776 -2.36885,-3.7295 -1.82034,1.5111 -2.51434,1.2475 -3.3262,-1.3104 -0.56012,-1.7645 -2.55082,-3.4015 -4.4352,-3.6792 -1.88435,-0.2776 -3.72649,-1.5394 -4.13295,-2.7719 -0.44786,-1.3585 -0.0464,-1.7915 1.0585,-1.1089 1.00201,0.6193 1.81454,0.3346 1.81439,-0.6048 -1.4e-4,-0.9393 -1.34504,-1.6633 -3.02398,-1.6633 -1.67893,0 -3.47092,-1.0883 -3.98152,-2.4191 -0.51062,-1.3308 -2.45093,-2.4193 -4.28404,-2.4193 -2.77575,0 -3.02992,-0.5197 -1.66327,-3.0742 1.39651,-2.6092 1.15768,-2.9806 -1.56228,-2.2679 -3.67669,0.9613 -4.39748,-2.4554 -1.20959,-5.8463 1.66305,-1.7703 0.95781,-2.0151 -4.032,-1.2601 -4.60761,0.697 -6.04779,0.404 -6.048,-1.3607 0,-1.2748 1.13721,-2.3185 2.52003,-2.3185 1.38281,0 2.13805,-0.6417 1.66311,-1.4113 -0.47494,-0.7697 -2.68805,-1.0343 -4.93904,-0.6048 -3.27217,0.6257 -3.92518,0.2229 -3.12492,-1.8646 0.66235,-1.726 0.16722,-2.5705 -1.51183,-2.5705 -1.59633,0 -2.19613,-0.8982 -1.61279,-2.4193 0.5106,-1.3305 1.98807,-2.4191 3.27591,-2.4191 1.28784,0 1.83455,-0.7855 1.2599,-1.7135 -0.57463,-0.928 -2.57822,-1.4754 -4.48549,-1.2095 -2.11985,0.2936 -3.46734,-0.3851 -3.47749,-1.7642 -0.009,-1.2411 -1.50183,-2.8355 -3.27608,-3.5279 -1.7742,-0.6923 -2.54837,-1.2994 -1.71357,-1.3607 0.83481,-0.061 0.10893,-1.1674 -1.61279,-2.4696 -2.83273,-2.1426 -2.8561,-2.3729 -0.30243,-2.4193 1.55235,-0.029 2.82259,-0.7388 2.82238,-1.5623 0,-0.9195 -1.99435,-0.9529 -5.14074,-0.051 -2.82403,0.8101 -5.46882,1.134 -5.89671,0.7057 -0.42785,-0.4283 0.0747,-0.7562 1.10866,-0.7562 1.03415,0 1.86505,-1.0882 1.86484,-2.4191 0,-1.6127 1.61293,-2.4192 4.8384,-2.4192 2.6611,0 4.8385,-0.7243 4.83834,-1.6128 0,-2.0675 -3.6615,-2.3866 -12.09591,-1.0583 -0.88704,0.1398 -1.96679,2.0664 -2.41919,4.2839 -1.09559,5.3722 -5.46865,5.1786 -6.09846,-0.252 -0.43477,-3.7511 0.18707,-4.3372 5.54415,-5.3424 3.32947,-0.6246 7.47221,-2.1519 9.22309,-3.3767 2.93172,-2.0537 2.97333,-2.2898 0.40318,-3.276 -1.5347,-0.5889 -2.43358,-2.1073 -1.96551,-3.3264 0.63608,-1.6575 -0.17541,-1.5449 -3.22555,0.4535 -3.07871,2.0174 -3.55962,3.0211 -1.96571,4.032 1.59392,1.0109 1.39589,1.3425 -0.75606,1.3607 -1.58342,0.017 -4.67599,1.1943 -6.85438,2.6208 -3.67132,2.4058 -3.99167,2.3993 -4.98948,-0.2015 -1.38074,-3.5982 3.92264,-13.6417 7.30804,-13.8096 1.87393,-0.093 1.97906,-0.3793 0.40321,-1.008 -1.49945,-0.5979 -1.00574,-1.402 1.61279,-2.7215 2.57529,-1.2979 3.62165,-3.0571 3.27588,-5.4935 -0.29205,-2.0604 0.51929,-3.9499 1.91518,-4.4857 1.33135,-0.5107 2.04196,-1.976 1.56234,-3.2256 -0.47961,-1.2496 0.29049,-2.7296 1.71374,-3.276 2.8069,-1.0769 3.50152,-4.8763 1.05828,-5.7454 -0.89264,-0.3178 -0.55496,-4.9769 0.80643,-11.4408 1.7649,-8.3809 2.11163,-19.5748 1.51198,-47.8293 -0.43028,-20.2854 -1.10574,-37.8638 -1.51198,-39.0598 -1.65134,-4.8593 -3.44087,-37.553 -3.32637,-60.7316 0.0978,-19.8463 0.56752,-25.0063 2.46965,-26.2078 1.94565,-1.2307 1.82987,-1.4917 -0.65531,-1.5122 -2.71544,-0.023 -2.88995,-0.9422 -2.01597,-9.2735 0.53497,-5.1004 1.75313,-13.2646 2.72157,-18.1439 1.8986,-9.5635 2.56874,-59.0743 0.95772,-70.9628 -3.14467,-23.1962 -4.39729,-42.4744 -2.87291,-43.9988 1.11658,-1.1166 0.95817,-2.2679 -0.45366,-3.6791 -1.4884,-1.4886 -1.72372,-4.3052 -0.8567,-9.8783 1.91893,-12.3344 0.20833,-21.3214 -6.60243,-35.1792 -3.48753,-7.0963 -6.79876,-14.9344 -7.35821,-17.3878 -0.55948,-2.4534 -2.89106,-5.952 -5.19127,-7.7616 -3.54584,-2.789 -3.88858,-3.7553 -2.2679,-6.3503 1.05126,-1.6835 1.30699,-3.4162 0.55431,-3.8807 -3.43857,-2.1252 -4.78625,-61.7946 -1.86484,-82.3533 1.00867,-7.0963 2.06502,-16.5311 2.36885,-20.9663 0.3038,-4.4352 1.02106,-12.417 1.61279,-17.7406 0.59174,-5.3237 1.81134,-16.2082 2.67109,-24.1919 -1.16102,-27.4994 5.13901,-20.9879 4.83841,-39.1102 3.02444,-5.5401 4.27308,-12.4327 6.09843,-21.7221 2.14598,-6.9236 8.24328,-40.9794 8.46717,-47.2246 0.0953,-2.6611 1.20619,-11.0059 2.41917,-18.5471 1.21296,-7.5412 3.30073,-28.5861 4.68726,-46.771 1.86839,-24.5179 3.4109,-35.4813 5.89666,-42.3357 1.84345,-5.0832 3.95715,-8.8678 4.68709,-8.4167 0.157,0.097 0.34837,0.089 0.55446,0.051 -0.31865,-2.422 -0.64201,-4.9735 -0.75606,-7.8623 -0.25991,-0.2349 -0.24504,-0.4702 0,-0.7561 -0.0397,-1.4364 -0.0687,-2.9303 0,-4.536 1.56491,-7.7876 -1.55113,-14.893 -0.30224,-22.075 0.90075,-5.2407 2.41422,-13.8512 2.36874,-21.5208 -1.14751,-6.5652 0.20338,-14.1526 1.61279,-22.1254 1.63004,-7.5375 5.60072,-11.3777 5.39265,-20.1094 0.9954,-7.2534 1.16235,-16.5984 2.72177,-23.94 1.75744,-7.0557 0.20134,-15.1808 3.62876,-22.3774 1.04764,-8.8507 5.16515,-17.0933 6.45114,-24.3432 2.1373,-6.7519 0.92238,-12.0133 2.26795,-20.1093 1.65486,-8.3845 1.54311,-14.7245 3.52794,-21.924 2.10067,-8.0194 2.14922,-16.8069 3.07452,-24.6958 -0.34918,-10.2188 1.33243,-14.1356 2.21756,-22.7807 -1.75361,-8.416 3.36396,-15.0496 3.37669,-23.7382 1.12139,-7.2469 -1.89582,-15.5484 -3.52796,-24.1918 0.98056,-8.0288 -1.53879,-18.5276 -2.4695,-26.9639 -1.69395,-13.1752 -1.31769,-25.2512 0.65508,-36.8926 -0.0817,-0.2874 -0.17134,-0.6297 -0.25177,-0.9072 -0.90382,-3.0987 -1.66309,-5.7222 -1.6633,-5.8463 -2e-4,-0.1241 1.45172,-0.6449 3.2256,-1.1089 0.0921,-0.024 0.16382,-0.074 0.25204,-0.1007 0.57981,-2.4778 1.24975,-4.9034 1.96551,-7.3584 -0.50897,-1.4113 -1.24251,-3.0278 -2.21758,-4.9392 -1.77409,-3.4774 -3.2254,-7.454 -3.2256,-8.8199 -2.1e-4,-1.3659 -1.35846,-2.4696 -3.02396,-2.4696 -1.6655,10e-5 -3.73779,-0.9072 -4.58627,-2.016 -2.25243,-2.9411 -5.01129,-17.3684 -7.05598,-36.691 -0.98576,-9.3138 -2.20017,-17.2971 -2.67124,-17.7406 -0.47111,-0.4435 -0.38596,10.3651 0.1512,24.0406 1.02572,26.1182 -0.48915,30.2076 -3.62876,9.828 -3.63897,-23.6268 -4.84194,-29.3581 -6.70307,-31.6006 -1.34816,-1.6244 -1.38701,-2.8947 -0.1512,-4.3848 1.28362,-1.5464 0.92352,-2.5742 -1.41118,-4.032 -1.72888,-1.0798 -3.17496,-2.7649 -3.1751,-3.7296 -1.5e-4,-0.9647 -2.43318,-6.9597 -5.44318,-13.3055 -7.52704,-15.8697 -13.91013,-37.4742 -13.9103,-47.2245 0,-7.6874 7.94007,-34.4221 11.49113,-38.707 0.8388,-1.0123 3.83779,-2.15718 6.65277,-2.57034 3.83506,-0.56285 5.83476,0.0745 7.96315,2.62074 1.96208,2.3473 2.83639,2.6922 2.87268,1.1088 0.15854,-6.76139 9.45984,-10.25214 16.68236,-6.24955 1.93762,1.07376 7.15698,2.13833 11.59196,2.36882 25.12647,1.30554 24.76889,1.44143 28.27432,-9.52557 1.20894,-3.78259 3.12851,-8.30589 4.23356,-10.07993 2.10164,-3.37355 5.34978,-14.86855 6.14858,-21.77269 0.25699,-2.21758 0.64385,-4.03198 0.8569,-4.03193 1.06863,0 0.98428,-18.34871 -0.10074,-22.17591 -0.69962,-2.46779 -0.58319,-4.82608 0.25205,-5.34234 0.8351,-0.51627 1.46179,-3.07431 1.46166,-5.69514 0,-4.28271 2.49305,-10.61798 4.98948,-12.75113 0.51917,-0.44354 1.75002,-3.70946 2.72173,-7.25758 2.25822,-8.25472 11.27518,-38.95737 13.15423,-44.75493 0.88834,-2.74115 0.86766,-4.79426 -0.10075,-5.39276 -1.83793,-1.13581 -0.43563,-8.77005 2.77189,-14.91833 1.24155,-2.37955 2.26277,-5.55404 2.26807,-7.10634 0.005,-1.5523 0.69546,-2.82239 1.51198,-2.82239 0.8165,0 1.95374,-2.35872 2.57048,-5.24158 0.6167,-2.88284 1.89166,-6.20546 2.82238,-7.35837 2.56402,-3.17946 2.64823,-11.87154 0.1512,-16.78308 -1.51958,-2.98881 -2.03132,-8.61667 -1.66325,-17.74069 0.29719,-7.34974 -0.1241,-14.69284 -0.90706,-16.27908 -1.74874,-3.53989 -2.63998,-30.13906 -1.00799,-30.13906 0.64543,0 1.65889,-3.34657 2.2679,-7.40872 0.68496,-4.56813 2.11003,-7.7449 3.72957,-8.36635 1.75067,-0.67188 0.2876,-1.622 -4.43517,-2.77197 l -4.98951,-1.20965 c -0.003,-0.27418 -0.0174,-0.55341 0,-0.85679 0.48436,-1.859 3.45755,-12.42494 2.62078,-16.07748 -0.27302,-3.08893 -0.51752,-7.81985 -1.61274,-11.44071 -0.20746,-4.09776 -1.06174,-9.45819 -2.41917,-13.45671 -0.49161,-2.92189 -0.63997,-9.49922 -1.56251,-13.50715 -3.43475,-5.18339 -3.89987,-7.85897 -3.37682,-11.39033 l -0.10075,-0.10081 c 0.71399,-1.76475 1.08479,-4.21597 1.15911,-8.46717 10e-4,-0.0603 -9.5e-4,-0.14045 0,-0.20163 0.0516,-3.33366 -0.0496,-7.72448 -0.30239,-13.7591 -0.58627,-13.98319 -1.84956,-28.24299 -3.37683,-40.31975 0.062,-0.50204 0.0205,-0.98997 -0.10074,-1.51197 l -0.15121,-0.25204 c -1.45381,-11.0799 -3.07835,-20.12367 -4.6368,-24.64547 -0.48948,-3.61314 -2.57303,-7.74834 -3.88067,-10.4327 -1.8942,-3.72567 -3.27235,-5.49598 -6.80406,-8.21515 3.46976,0.45008 5.14094,0.13112 5.14079,-1.0584 0,-2.96719 -5.02884,-7.76154 -8.11443,-7.76157 -1.52829,0 -3.78444,-1.58651 -5.03997,-3.47759 l -2.26792,-3.42716 -0.90721,0.45358 c -1.30232,-1.64262 -2.8341,-3.05253 -4.9895,-3.62876 -2.49659,-2.02954 -6.39488,-5.22343 -8.82002,-5.69514 -1.99549,-1.21879 -4.45517,-2.34967 -6.90467,-3.42718 0.51352,-1.04622 0.20455,-1.65178 -0.80637,-2.21757 -1.08317,-0.60615 -2.60354,-0.5709 -4.43521,-0.0505 -5.50508,-2.90746 -6.59196,-2.11455 -12.14639,-2.72157 -0.66866,-1.05376 -4.46857,-3.05128 -8.26551,-4.03196 -2.1362,-0.31612 -2.60259,-1.40315 -4.93919,-1.0584 l 0.10074,-0.10075 c -0.5303,-2.10725 -1.56954,-1.37359 -11.54158,-3.02401 -1.72926,-0.51511 -2.09164,-1.13216 -3.52786,-1.91518 -3.72069,0.21533 -6.33292,-0.80064 -7.9128,-1.05838 -0.64982,-0.22758 -1.31106,-0.69744 -1.9655,-1.15918 0.79507,-0.17337 1.54985,-0.35667 2.16711,-0.55441 l 4.03197,-1.31037 -4.23358,-0.1512 c -2.68854,-0.10143 -6.04169,-2.1498 -9.02148,-5.54395 -2.67417,-3.04549 -6.98044,-5.87153 -9.87832,-6.45114 -2.82014,-0.56407 -7.10406,-2.50708 -9.57611,-4.33439 -2.56353,-1.89524 -9.32611,-4.08138 -15.72472,-5.09035 -10.92984,-1.72354 -11.46401,-2.03095 -21.2182,-12.2975 -12.56364,-14.7767 -10.79356,-11.3058 -13.05358,-21.4703 -2.79383,1.4952 -3.58393,0.9535 -5.99751,-4.1328 -1.86406,-3.9282 -2.5006,-8.1545 -1.96549,-12.9023 0.60965,-5.4084 0.14831,-7.3918 -1.86486,-8.5679 -0.23893,-3.7508 -0.10518,-2.8962 1.41118,-6.6023 l 2.01597,-5.4936 2.8729,-11.088 c 1.58653,-6.0841 3.61009,-11.7747 4.48546,-12.6503 0.66288,-4.0743 1.99454,-3.6991 1.20961,-7.56 -3.69262,-0.6059 -4.59825,-2.3431 -5.74559,-3.276 0,0.9504 -1.10492,0.608 -2.46964,-0.756 -2.23143,-2.2315 -2.02902,-2.9781 2.01597,-7.5599 2.47273,-2.8007 4.30441,-5.7242 4.08249,-6.5016 -0.22203,-0.7774 0.32273,-1.4112 1.20959,-1.4112 0.88689,0 1.61296,1.8412 1.61276,4.1327 0,3.8268 3.06303,5.2009 3.37669,1.512 0.0757,-0.887 0.80061,-2.4483 1.61279,-3.4271 2.05103,-2.4714 1.1667,-10.5306 -1.05826,-9.6768 -0.99412,0.3815 -2.67501,0.1285 -3.78009,-0.5544 4.54017,-4.1041 2.44255,-4.2935 5.89687,-7.2575 1.99583,-0.6889 3.62891,-2.358 3.62876,-3.6792 -1.6e-4,-1.3212 2.09388,-5.0333 4.63675,-8.2656 2.54288,-3.2323 6.2044,-8.9308 8.11447,-12.7007 l 4.98946,-16.8335 0.0505,-8.3159 c 0.0291,-13.1661 1.61762,-20.3965 4.58628,-20.5127 1.60812,-0.063 1.07188,-0.7799 -1.41118,-1.8144 -3.84151,-1.6006 -3.87942,-1.7569 -0.8064,-3.024 0.35336,-3.9984 0.15598,-1.2451 0.75592,-4.2336 -2.09694,0.9935 -2.48695,-0.156 -2.26792,-7.056 0.14337,-4.5178 1.10879,-9.0216 2.11679,-10.0296 1.00799,-1.0079 1.81457,-3.7384 1.81438,-6.0983 -1.80325,-6.8729 -0.76925,-8.273 -3.37669,-18.1439 2.23419,-15.5884 3.43284,-16.2409 1.76392,-26.5102 l -0.95754,-5.2416 -4.48563,-10.8863 c -4.08065,-12.7315 -5.82378,-14.7847 -9.22306,-20.1095 -1.79233,-5.617 -1.11654,-5.584 -5.29207,-8.6688 -2.87961,-7.5335 -6.24551,-10.1542 -11.49112,-13.1543 l -7.66075,-7.6607 c -1.42411,-3.0671 -4.8287,-5.7486 -10.33202,-7.6104 -6.5316,-8.877 -6.96998,-5.198 -11.84385,-11.239103 0,1.519603 -2.33131,0.8269 -7.66072,-2.268 -4.21346,-2.4468 -8.02348,-4.9349 -8.46715,-5.5439 -0.44371,-0.6091 -2.98349,-1.8431 -5.6448,-2.7216 l -4.83834,-1.5624 -6.14878,-1.764 -6.60246,-0.9072 c -3.63359,-0.498 -11.50097,-1.4026 -17.48859,-2.016 -2.03968,-0.5099 -3.5572,-0.7168 -4.7879,-0.756 h -1.26006 z M 304.18174,1019.0289 c 0.39546,-0.5762 0.67239,-0.8615 0.55451,-0.504 -0.15734,0.2019 -0.23518,0.4323 -0.30258,0.6048 l 0.45367,0.252 c 0.25868,-0.6655 0.40545,-2.0889 0.0504,-4.6872 l -5.94735,-1.2096 c -2.64724,1.6944 -0.95201,2.1357 5.19125,5.544 z M 517.42296,107.90326 c -0.1929,0.032 -0.43353,0.1147 -0.65531,0.252 -0.887,0.5483 -1.61264,1.2721 -1.61279,1.6632 -1.4e-4,0.3911 0.72593,0.756 1.61279,0.756 0.88689,0 1.61296,-0.7742 1.61283,-1.7136 0,-0.7045 -0.37921,-1.0548 -0.95752,-0.9576 z m 18.59739,1511.58764 -0.20165,0.504 c -0.43157,0.5611 -0.98618,1.156 -1.61279,1.7639 h 0.30239 c 0.88707,0 1.61295,-0.7742 1.6128,-1.7134 0,-0.2305 -0.0263,-0.403 -0.10075,-0.5545 z m -327.29559,32.9109 c -0.88706,0 -1.61265,0.7261 -1.6128,1.6128 -1.5e-4,0.8867 0.72593,1.6128 1.6128,1.6128 0.88687,0 1.61295,-0.7243 1.61276,-1.6128 -2.1e-4,-0.8884 -0.72559,-1.6128 -1.61276,-1.6128 z m 229.9234,14.5152 c -1.38282,0 -2.51982,0.726 -2.52002,1.6127 -2.1e-4,0.8867 0.67706,1.6128 1.51203,1.6128 0.83496,0 1.97197,-0.7243 2.51995,-1.6128 0.548,-0.8885 -0.12904,-1.6127 -1.51196,-1.6127 z m 100.84966,0.2016 c -0.56011,0.023 -1.04297,0.1367 -1.3102,0.4032 -0.53613,0.5359 0.41673,0.927 2.11665,0.8568 1.87887,-0.078 2.2443,-0.4433 0.95765,-0.9575 -0.58225,-0.2331 -1.20282,-0.324 -1.7641,-0.3025 z m -114.00391,45.511 c -0.19288,0.032 -0.43353,0.1159 -0.65529,0.252 -0.88701,0.5482 -1.61266,1.2722 -1.61279,1.6633 -1.6e-4,0.3911 0.72593,0.7559 1.61279,0.7559 0.88689,0 1.61296,-0.7742 1.61281,-1.7134 0,-0.7047 -0.37919,-1.0549 -0.95752,-0.9577 z m -239.44905,191.3675 c -1.72178,0 -3.12457,0.7261 -3.12477,1.6128 -2e-4,0.8867 1.86293,1.6128 4.1328,1.6128 2.34078,0 3.69022,-0.6966 3.12478,-1.6128 -0.56544,-0.9162 -2.41127,-1.6128 -4.13281,-1.6128 z m -2.16725,15.1199 c -0.43046,0.066 -1.06655,0.4309 -1.7639,1.008 -1.33055,1.1045 -2.41902,2.2116 -2.41918,2.5202 -1.4e-4,0.3085 1.08878,0.1577 2.41918,-0.3529 1.33041,-0.5106 2.41933,-1.6691 2.41918,-2.5705 0,-0.4719 -0.22418,-0.6691 -0.65528,-0.6048 z m 162.08544,186.6804 c -0.56012,0.023 -1.04304,0.1368 -1.31028,0.4033 -0.53605,0.5359 0.41679,0.927 2.11664,0.8569 1.8789,-0.078 2.24438,-0.4434 0.95767,-0.9576 -0.58219,-0.2331 -1.20281,-0.324 -1.76403,-0.3026 z m 3.07445,22.3775 c -0.88706,0 -1.61265,0.724 -1.61279,1.6634 -1.5e-4,0.9393 0.72593,1.3051 1.61279,0.7558 0.88688,-0.5492 1.61297,-1.3234 1.61276,-1.7134 -2e-4,-0.3899 -0.72559,-0.7058 -1.61276,-0.7058 z m 0.20161,19.3535 c -0.88707,0 -2.07245,0.7261 -2.62078,1.6128 -0.54834,0.8867 -0.23194,1.6128 0.65523,1.6128 0.88716,0 2.02227,-0.7243 2.57032,-1.6128 0.54804,-0.8885 0.28211,-1.6128 -0.60477,-1.6128 z m 414.23499,221.0028 c -0.82866,0.1792 -1.59814,1.017 -2.11663,2.3687 -1.03738,2.7033 -0.80998,2.8067 2.82238,1.4111 1.39782,-0.5362 2.15387,-1.6243 1.66311,-2.4192 -0.67658,-1.0944 -1.54007,-1.5398 -2.36886,-1.3606 z m 3.67923,8.1144 c -0.81882,0 -2.06518,0.5024 -3.62876,1.5118 -1.95632,1.2643 -1.72457,1.5427 1.20959,1.5625 1.99583,0.015 3.62896,-0.674 3.62876,-1.5625 0,-1.0102 -0.3908,-1.5134 -1.20959,-1.5118 z m -15.11987,8.3159 c -1.85619,0.2284 -4.63661,1.7979 -4.63682,3.0239 0,2.0189 4.4589,1.7796 5.74556,-0.3024 0.58484,-0.946 0.70774,-2.0137 0.30244,-2.4192 -0.28117,-0.2811 -0.79257,-0.3784 -1.41118,-0.3023 z"
     id="path2"
     style="stroke-width:4.9718" />
</svg>
