<?xml version="1.0" encoding="UTF-8" standalone="no"?>
<svg
   xmlns:dc="http://purl.org/dc/elements/1.1/"
   xmlns:cc="http://creativecommons.org/ns#"
   xmlns:rdf="http://www.w3.org/1999/02/22-rdf-syntax-ns#"
   xmlns:svg="http://www.w3.org/2000/svg"
   xmlns="http://www.w3.org/2000/svg"
   xmlns:sodipodi="http://sodipodi.sourceforge.net/DTD/sodipodi-0.dtd"
   xmlns:inkscape="http://www.inkscape.org/namespaces/inkscape"
   version="1.1"
   width="1043.6235"
   height="2201.6831"
   viewBox="0 0 1043.6235 2201.6831"
   id="svg7"
   sodipodi:docname="alone_standing_male23.svg"
   inkscape:version="1.0.2 (e86c870879, 2021-01-15)">
  <metadata
     id="metadata13">
    <rdf:RDF>
      <cc:Work
         rdf:about="">
        <dc:format>image/svg+xml</dc:format>
        <dc:type
           rdf:resource="http://purl.org/dc/dcmitype/StillImage" />
        <dc:title></dc:title>
      </cc:Work>
    </rdf:RDF>
  </metadata>
  <defs
     id="defs11" />
  <sodipodi:namedview
     pagecolor="#ffffff"
     bordercolor="#666666"
     borderopacity="1"
     objecttolerance="10"
     gridtolerance="10"
     guidetolerance="10"
     inkscape:pageopacity="0"
     inkscape:pageshadow="2"
     inkscape:window-width="1920"
     inkscape:window-height="997"
     id="namedview9"
     showgrid="false"
     fit-margin-top="0"
     fit-margin-left="0"
     fit-margin-right="0"
     fit-margin-bottom="0"
     inkscape:zoom="0.31409062"
     inkscape:cx="68.670325"
     inkscape:cy="1142.2626"
     inkscape:window-x="0"
     inkscape:window-y="0"
     inkscape:window-maximized="1"
     inkscape:current-layer="svg7"
     inkscape:document-rotation="0" />
  <rect
     style="fill:#ffffff;stroke-width:5.66929;stroke-linecap:square;stroke-linejoin:round;stroke-dasharray:11.3386, 11.3386"
     id="rect832"
     width="1043.6235"
     height="2201.6831"
     x="0"
     y="0" />
  <g
     id="layer1"
     transform="matrix(9.4815405,0,0,9.4815405,-2311.8511,-3594.527)">
    <g
       style="fill:#000000;fill-opacity:1;stroke-linejoin:miter"
       id="g4">
      <path
         d="m 312.64563,386.08963 c 0.11084,0.11993 0.4209,0.21912 0.69737,0.2117 0.27654,-0.007 0.6638,0.10517 0.86766,0.25347 0.2038,0.14833 0.62434,0.35218 0.9195,0.46723 0.29468,0.0996 0.76251,0.34833 1.04437,0.54071 0.26605,0.17731 0.53167,0.3393 0.5932,0.33766 0.12287,-0.003 1.07794,0.64733 1.14313,0.78393 0.0324,0.0607 0.42999,0.55725 0.89117,1.12902 1.44557,1.74427 2.0058,2.57477 2.01654,2.97413 0.006,0.21502 0.12243,0.55012 0.25025,0.73114 0.30383,0.43756 0.56622,2.76702 0.46338,4.09173 -0.0312,0.5542 -0.0659,1.55432 -0.0632,2.23059 -0.0117,0.70746 -0.0873,1.32428 -0.19122,1.46552 -0.10425,0.12574 -0.2152,0.57446 -0.26544,0.99078 -0.0345,0.43134 -0.1471,0.81866 -0.22272,0.86682 -0.0756,0.0482 -0.14574,0.29602 -0.13916,0.54174 -0.008,0.2615 -0.002,1.6449 -0.009,3.09 -0.009,2.53663 0.01,2.65906 0.36389,3.2491 0.20874,0.3325 0.59137,0.84496 0.84454,1.11474 0.26863,0.26953 0.9343,1.02016 1.48923,1.65091 0.55536,0.64605 1.06134,1.17047 1.10742,1.16925 0.0615,-0.002 0.46948,0.3103 0.8949,0.69854 1.07135,0.9704 2.828,2.27591 3.02771,2.27054 0.0922,-0.002 0.17065,0.057 0.17273,0.13379 0.002,0.0767 0.52081,0.50861 1.13232,0.95325 0.62677,0.4444 1.85004,1.34924 2.69727,1.98748 4.6585,3.472 5.19145,3.85737 5.75275,4.14973 1.34124,0.71727 2.1037,1.06564 2.3341,1.05947 0.13824,-0.004 0.34082,0.0985 0.4516,0.21845 0.11084,0.11993 0.2827,0.22295 0.37482,0.22052 0.29188,-0.008 1.38153,1.06958 1.62628,1.60107 0.115,0.27369 0.2901,0.49952 0.36694,0.49744 0.0922,-0.002 0.15979,0.22626 0.16766,0.51812 0.007,0.2765 0.10822,0.5967 0.2336,0.68555 0.12572,0.10419 0.27507,0.5152 0.34764,0.92823 0.0726,0.41314 0.20661,0.82452 0.31622,0.8985 0.10994,0.0892 0.21369,0.51696 0.25599,0.94616 0.0484,0.6597 0.26837,1.40708 0.81115,2.72983 0.1311,0.30389 0.1485,0.38025 0.46918,1.44775 0.33777,1.12842 0.3725,1.28113 0.60687,2.56611 0.0921,0.56627 0.25061,1.31517 0.33722,1.68182 0.18993,0.77887 0.2107,5.5589 0.0254,6.10181 -0.21392,0.62054 -1.03662,6.62237 -1.05548,7.63734 -0.002,0.5073 -0.0662,0.97014 -0.14172,1.0183 -0.18066,0.14318 -0.52196,2.31976 -0.40534,2.65478 0.0502,0.15242 0.0248,0.35297 -0.0491,0.46246 -0.2525,0.32959 -0.99035,5.48352 -0.94531,6.58906 0.0236,0.30688 -0.006,0.33843 -0.13416,0.15734 -0.12818,-0.19641 -0.15893,-0.19554 -0.15318,0.0195 0.004,0.13832 -0.0997,0.2948 -0.2209,0.3595 -0.12164,0.0493 -0.22382,0.25196 -0.21887,0.43623 0.0244,0.33765 0.0244,0.33765 0.23211,0.0553 0.37036,-0.51715 0.25696,-0.16059 -0.29748,0.94567 -0.59723,1.2304 -2.0191,3.2361 -3.05008,4.33982 -0.38868,0.41008 -0.71582,0.81848 -0.71381,0.89532 0.002,0.0769 -0.0884,0.14076 -0.21137,0.14406 -0.10747,0.003 -0.30352,0.14647 -0.406,0.33367 -0.2069,0.31303 -0.25293,0.31427 -2.9306,0.20159 -1.5083,-0.0671 -2.7691,-0.0793 -2.8139,-0.032 -0.3891,0.39472 -0.4112,5.29888 -0.0405,7.65618 0.11107,0.70405 0.21802,1.8233 0.23492,2.453 0.0186,0.69136 0.11017,1.24226 0.22059,1.34688 0.18926,0.17932 0.58068,2.73602 0.80554,5.38922 0.0854,0.88922 0.18452,1.7166 0.23388,1.8383 0.0647,0.1213 0.11737,0.3658 0.13727,0.53432 0.10285,0.96558 1.09667,5.35064 1.30579,5.69861 0.1781,0.33343 1.15288,4.01184 1.3006,4.93017 l 0.11151,0.7193 -2.48151,0.89685 c -1.99454,0.71442 -2.51059,0.95892 -2.55052,1.19061 -0.0262,0.1698 -0.0831,0.34034 -0.14324,0.38819 -0.36083,0.30175 -0.77722,1.9729 -0.91486,3.71375 -0.0205,0.38476 -0.1464,1.41808 -0.2454,2.31225 -0.099,0.89429 -0.22493,1.92749 -0.24537,2.31235 -0.0358,0.3853 -0.10859,1.10965 -0.18713,1.61904 -0.0632,0.50892 -0.1178,1.34046 -0.11952,1.84766 -0.002,0.50745 -0.0654,1.0011 -0.12432,1.09485 -0.0743,0.0941 -0.11298,0.37195 -0.10639,0.61765 0.0219,0.2455 -0.0405,0.7852 -0.12147,1.2023 -0.0815,0.40185 -0.153,1.17236 -0.15435,1.69506 -0.0171,0.50784 -0.0662,0.9701 -0.11108,1.01744 -0.22504,0.20595 -0.77007,6.8151 -0.72144,8.6277 0.0577,1.58155 0.0228,1.99756 -0.21106,2.44947 -0.36457,0.73243 -0.3208,1.79173 0.0831,2.5188 0.17719,0.30273 0.32576,0.68313 0.33026,0.85203 0.004,0.1537 0.11744,0.36574 0.24317,0.46987 0.17273,0.13379 0.24403,0.50083 0.26507,1.28418 0.0356,0.75232 0.14173,1.27209 0.35291,1.6969 0.1781,0.33335 0.31745,0.94445 0.34351,1.34335 0.0107,0.3995 0.13317,0.94955 0.29412,1.222 0.14576,0.2726 0.28467,0.8684 0.31244,1.3289 0.043,0.45993 0.18328,1.1018 0.32972,1.40537 0.14691,0.31883 0.26562,0.73073 0.27099,0.9303 0.005,0.19973 0.13562,0.47303 0.27753,0.60753 0.26704,0.208 0.29424,0.65296 0.40301,5.277 0.0588,2.76525 0.079,5.2396 0.0247,5.5023 -0.0549,0.24744 -0.15003,0.7112 -0.21899,1.00513 -0.0689,0.29383 -0.14679,1.40271 -0.14904,2.46337 -0.002,1.0608 -0.0947,2.2008 -0.1932,2.54164 -0.0831,0.34036 -0.14513,1.46396 -0.11754,2.49326 0.0301,1.12124 -0.0107,1.891 -0.10291,1.89346 -0.0768,0.002 -0.10425,0.12584 -0.0693,0.27868 0.0502,0.15236 -0.006,0.35352 -0.12592,0.46436 -0.16443,0.17346 -0.2436,1.80505 -0.15954,3.2169 0.0182,0.1072 -0.0254,0.2006 -0.10218,0.20265 -0.18432,0.005 -0.44024,0.78055 -0.42578,1.318 0.007,0.27661 -0.091,0.61745 -0.2102,0.75891 -0.11957,0.12624 -0.21723,0.4978 -0.2082,0.83569 0.0108,0.39942 -0.0736,0.69375 -0.28368,0.88379 -0.20966,0.20532 -0.29444,0.4845 -0.28168,0.96056 0.0132,0.4916 -0.0438,0.6621 -0.21271,0.66664 -0.16893,0.005 -0.22583,0.17516 -0.21473,0.58996 0.0107,0.3994 -0.0889,0.6941 -0.28368,0.8838 -0.19477,0.1897 -0.2945,0.4845 -0.28462,0.853 0.01,0.3688 -0.0603,0.6165 -0.21215,0.68215 -0.1521,0.0655 -0.22223,0.31335 -0.20868,0.82019 0.0112,0.4148 -0.0504,0.98526 -0.11937,1.27906 -0.1678,0.6195 0.10674,2.2568 0.47856,2.9386 0.29011,0.4994 0.29871,0.822 0.0251,0.9369 -0.10625,0.049 -0.25206,0.34495 -0.2899,0.65355 -0.0532,0.30871 -0.19898,0.60475 -0.32062,0.65415 -0.10633,0.049 -0.20928,0.2207 -0.2052,0.3743 0.004,0.1537 -0.0843,0.29454 -0.20722,0.29784 -0.10748,0.003 -0.23999,0.22156 -0.29436,0.48436 -0.0395,0.24684 -0.18446,0.5736 -0.30403,0.69984 -0.11917,0.14166 -0.22055,0.37496 -0.21647,0.52851 0.004,0.15355 -0.0838,0.30969 -0.2055,0.35901 -0.12164,0.0494 -0.2533,0.29884 -0.30773,0.56164 -0.0544,0.2627 -0.15534,0.5115 -0.23097,0.5597 -0.1959,0.1434 -0.14873,0.7572 0.0725,0.9818 0.15728,0.13404 0.20783,0.8705 0.22943,2.82215 0.0195,2.4436 0.01,2.65905 -0.28869,2.98985 -0.17896,0.2047 -0.40528,0.3644 -0.5282,0.3677 -0.10749,0.003 -0.19716,0.0975 -0.19386,0.2203 0.004,0.13834 -0.2699,0.2533 -0.77514,0.3283 -0.73443,0.1273 -0.78009,0.1439 -0.69336,0.5106 0.15882,0.7643 -0.1485,1.3412 -0.93484,1.82367 -0.40856,0.24157 -0.89514,0.43908 -1.09486,0.44443 -0.18426,0.005 -0.50396,0.121 -0.7,0.2647 -0.19593,0.1435 -0.71485,0.2805 -1.221,0.3247 -0.47572,0.0282 -1.0412,0.1511 -1.23805,0.2639 -0.49945,0.29003 -3.74975,0.6078 -5.82593,0.5714 -1.59906,-0.0187 -1.83082,-0.0585 -2.42517,-0.44225 -0.85925,-0.51502 -1.54571,-1.46495 -1.26007,-1.70315 0.10504,-0.0951 0.23382,-0.452 0.27082,-0.7911 0.037,-0.3395 0.25335,-0.8678 0.49047,-1.1969 0.23713,-0.32924 0.62006,-0.95436 0.85468,-1.3756 0.23431,-0.4368 0.51459,-0.87466 0.61915,-0.98513 0.10467,-0.11047 0.1886,-0.42017 0.182,-0.66587 -0.007,-0.26114 0.079,-0.49405 0.216,-0.5437 0.12128,-0.0649 0.22546,-0.1906 0.22217,-0.3135 -0.003,-0.1074 0.10053,-0.26404 0.22131,-0.3441 0.1366,-0.0652 0.26624,-0.3915 0.31934,-0.7002 0.0641,-0.4783 0.0143,-0.6154 -0.29944,-0.8529 l -0.36078,-0.267 0.34766,-0.7932 c 0.18817,-0.4357 0.3941,-0.7793 0.45594,-0.7654 0.1237,0.0274 0.87786,-1.08433 0.8725,-1.28404 -0.002,-0.0769 0.11833,-0.17226 0.2711,-0.20706 0.2287,-0.0676 0.29935,-0.3002 0.36686,-1.2243 0.13311,-1.90977 0.36724,-3.4991 0.56109,-3.71946 0.12005,-0.11094 0.18402,-0.58914 0.16962,-1.12684 -0.0144,-0.53747 0.0778,-1.1089 0.20863,-1.389 0.13127,-0.2649 0.25304,-0.88296 0.2855,-1.39114 0.0325,-0.50806 0.1405,-1.06436 0.24354,-1.23633 0.0876,-0.17126 0.19483,-0.75833 0.22606,-1.3125 0.0312,-0.5542 0.16707,-1.21887 0.29872,-1.46838 0.13135,-0.26475 0.22601,-0.7439 0.21655,-1.09715 -0.009,-0.33803 0.0873,-0.75564 0.20569,-0.9279 0.11878,-0.15684 0.21514,-0.57444 0.20606,-0.91245 -0.009,-0.33802 0.11438,-0.89455 0.27428,-1.23695 0.15986,-0.34264 0.28327,-0.8993 0.27424,-1.2372 -0.009,-0.338 0.0865,-0.78635 0.20361,-1.0046 0.13165,-0.2495 0.19233,-0.8506 0.16968,-1.6956 -0.0227,-0.8447 -0.11553,-1.44174 -0.26037,-1.6838 -0.28931,-0.46876 -0.40412,-3.60145 -0.18311,-4.5298 0.0831,-0.3403 0.19043,-1.49596 0.22345,-2.5575 0.0326,-1.0771 0.13785,-2.3095 0.24918,-2.74297 0.13672,-0.63393 0.13642,-1.21803 -0.0646,-2.98047 -0.12434,-1.19556 -0.29791,-3.08156 -0.38854,-4.17066 -0.10264,-1.53423 -0.21134,-2.1462 -0.47068,-2.64654 -0.17847,-0.34876 -0.38599,-0.63513 -0.46277,-0.63306 -0.0768,0.002 -0.14075,-0.0885 -0.14362,-0.19616 -0.003,-0.10744 -0.15021,-0.44164 -0.32783,-0.75964 -0.17717,-0.30274 -0.32573,-0.683 -0.32946,-0.8213 -0.0195,-0.1532 -0.15307,-0.5493 -0.33111,-0.8827 -0.25977,-0.5156 -0.31781,-0.9598 -0.38599,-2.92564 -0.0478,-1.78192 -0.11001,-2.37956 -0.30044,-2.60516 -0.12708,-0.15015 -0.242,-0.42383 -0.24652,-0.5929 -0.005,-0.1688 -0.15388,-0.57996 -0.33198,-0.91333 -0.17797,-0.33337 -0.31243,-0.76027 -0.33312,-0.95947 -0.005,-0.18433 -0.10584,-0.5045 -0.23365,-0.6854 -0.12787,-0.18106 -0.28051,-0.7151 -0.35431,-1.1741 -0.0738,-0.45935 -0.21069,-0.9783 -0.30742,-1.14466 -0.0967,-0.1665 -0.2427,-1.02334 -0.328,-1.91259 -0.17317,-1.87075 -0.66005,-4.54775 -0.99238,-5.47655 -0.16559,-0.4413 -0.2522,-1.3766 -0.29419,-2.9435 -0.0338,-1.2595 -0.12743,-2.45605 -0.21003,-2.66894 -0.0975,-0.19726 -0.2144,-1.11646 -0.28527,-2.03676 -0.33003,-4.2799 -0.38599,-4.6473 -0.70856,-4.63866 -0.29181,0.008 -0.81549,0.54456 -0.83827,0.83726 -0.0138,0.0618 -0.1624,0.25027 -0.32768,0.39297 -0.18067,0.14333 -0.32679,0.42393 -0.33722,0.60863 -0.01,0.2001 -0.0981,0.3562 -0.20557,0.359 -0.10753,0.003 -0.22589,0.1752 -0.28156,0.39186 -0.0402,0.21619 -0.14327,0.38824 -0.20474,0.38994 -0.0614,0.002 -0.19385,0.22023 -0.27948,0.46865 -0.0697,0.26315 -0.2027,0.46655 -0.27948,0.46865 -0.0922,0.002 -0.19305,0.2511 -0.23132,0.54416 -0.0536,0.29344 -0.15455,0.54214 -0.24671,0.54454 -0.0922,0.003 -0.22497,0.20595 -0.29479,0.46914 -0.0856,0.24826 -0.21808,0.46691 -0.27955,0.46862 -0.0615,0.002 -0.1947,0.1897 -0.28064,0.42249 -0.21563,0.55935 -0.60936,1.35375 -0.72973,1.44935 -0.0602,0.0476 -0.17768,0.2506 -0.27953,0.4685 -0.10176,0.218 -0.3069,0.5924 -0.46882,0.858 -0.16242,0.2503 -0.38208,0.6559 -0.46808,0.8888 -0.1009,0.2487 -0.2649,0.4375 -0.37244,0.44045 -0.10754,0.003 -0.19726,0.0976 -0.19396,0.22045 0.007,0.2765 -0.74378,1.4955 -0.9128,1.5 -0.0614,0.002 -0.12,0.111 -0.1167,0.2338 0.003,0.1075 -0.0847,0.279 -0.1906,0.34324 -0.31677,0.22376 -0.78644,1.05116 -0.95392,1.68576 -0.0831,0.3405 -0.25012,0.9905 -0.3606,1.4546 -0.12598,0.4645 -0.28295,0.91457 -0.37262,1.0092 -0.0747,0.0789 -0.14532,0.3114 -0.13996,0.5111 0.005,0.19957 -0.12548,0.47984 -0.2907,0.62254 -0.16492,0.15806 -0.29614,0.4231 -0.29077,0.6228 0.005,0.18433 -0.0814,0.40176 -0.18726,0.46606 -0.22637,0.1598 -0.43187,0.5188 -0.86797,1.4529 -0.17408,0.3889 -0.454,0.84215 -0.60304,1.01525 -0.14904,0.17309 -0.38452,0.56372 -0.51489,0.85935 -0.13043,0.29555 -0.30615,0.62295 -0.39587,0.7177 -0.0897,0.0946 -0.41608,0.53366 -0.74237,0.973 -0.31073,0.454 -0.6391,0.8164 -0.70063,0.818 -0.0613,0.002 -0.1207,0.0801 -0.11868,0.15703 0.002,0.0922 -0.12842,0.37244 -0.30646,0.60767 -0.29571,0.43835 -0.30816,0.5464 -0.10106,3.1079 0.21862,2.9916 0.19512,6.69666 -0.0679,7.21107 -0.11664,0.23363 -0.14136,1.60243 -0.0858,4.24499 0.0423,2.15074 0.0278,3.90354 -0.0183,3.90479 -0.0922,0.002 -0.20642,0.89695 -0.30267,2.46755 -0.12538,2.2015 -0.27098,3.65037 -0.41382,4.05393 -0.0856,0.24817 -0.1438,0.94141 -0.12732,1.55591 0.0165,0.61436 -0.0535,1.44626 -0.16571,1.849 -0.11169,0.41806 -0.23513,1.54352 -0.27023,2.52816 -0.0455,1.16953 -0.13446,1.86375 -0.2536,2.0052 -0.13458,0.1419 -0.19934,0.5894 -0.18,1.3114 0.019,0.7067 -0.058,1.2775 -0.20373,1.5734 -0.11633,0.249 -0.22187,0.8976 -0.22327,1.4203 -8.5e-4,0.53794 -0.0508,0.9697 -0.11224,0.9714 -0.0614,0.002 -0.22009,0.39015 -0.33056,0.85426 -0.12592,0.46448 -0.28455,0.85304 -0.3614,0.85511 -0.0768,0.002 -0.17767,0.25073 -0.23138,0.54433 -0.0383,0.29295 -0.16822,0.604 -0.28822,0.7147 -0.1204,0.0955 -0.20763,0.2822 -0.2047,0.3899 0.003,0.1074 -0.14044,0.4957 -0.30035,0.8381 -0.30645,0.6077 -0.30402,0.69986 -0.0649,2.7378 0.46209,4.0458 0.53913,5.1964 0.61859,8.7299 l 0.0649,3.56455 -0.38867,0.41005 c -0.41809,0.4569 -0.8769,0.5461 -4.87687,0.9917 -2.03845,0.22374 -2.1153,0.2258 -2.7691,-0.0794 -0.37396,-0.18984 -0.74884,-0.4104 -0.82806,-0.50034 -0.5857,-0.63003 -1.91374,-0.85586 -2.45551,-0.42605 -0.18066,0.14319 -0.63903,0.24765 -1.09979,0.26001 -0.5069,0.0136 -0.85816,0.1 -0.97699,0.25684 -0.0888,0.12524 -0.33087,0.27014 -0.49817,0.3363 -0.18318,0.0509 -0.74488,0.3119 -1.26093,0.5564 -0.5003,0.2593 -1.24675,0.51 -1.65991,0.5825 -0.3977,0.0722 -0.91584,0.2399 -1.12799,0.35304 -0.25745,0.14526 -0.93127,0.24026 -1.89898,0.26611 -0.84482,0.0227 -1.99393,0.1612 -2.60465,0.31598 -0.90057,0.23937 -1.54522,0.27207 -3.52887,0.24842 -2.64532,-0.052 -2.53693,-0.0241 -4.88611,-1.06785 -1.22912,-0.5512 -1.66704,-0.83145 -1.87664,-1.19485 -0.14478,-0.24205 -0.36896,-0.57422 -0.51087,-0.70885 -0.20557,-0.2095 -0.20843,-0.317 -0.0505,-0.73634 0.1001,-0.27942 0.24792,-0.49841 0.32482,-0.50046 0.0767,-0.002 0.19586,-0.1437 0.23738,-0.3139 0.0416,-0.17026 0.22222,-0.31345 0.39116,-0.31796 0.15364,-0.004 0.29022,-0.0692 0.28821,-0.146 -0.002,-0.0768 0.49903,-0.30564 1.09271,-0.52124 0.94409,-0.3329 1.28082,-0.38806 2.18955,-0.3202 1.29357,0.0881 4.42059,-0.2417 5.05787,-0.55065 1.2298,-0.57115 2.1378,-1.10265 2.30065,-1.33775 0.10418,-0.12575 0.24042,-0.2063 0.28815,-0.146 0.063,0.0597 0.6776,-0.52565 1.37976,-1.28224 1.50891,-1.62376 1.70244,-1.85936 2.05504,-2.46851 0.14662,-0.26525 0.45802,-0.68859 0.6972,-0.94105 0.22334,-0.2672 0.54854,-0.75255 0.70845,-1.09496 0.48053,-0.99658 0.87715,-1.68374 1.70398,-2.95104 0.81097,-1.28223 0.85254,-1.4524 1.01575,-3.9623 0.0528,-0.89293 0.23272,-3.35716 0.39135,-5.4674 0.22882,-2.92675 0.2869,-4.773 0.22391,-7.6918 -0.0562,-3.242 -0.0284,-3.9192 0.16316,-4.2317 0.17644,-0.2968 0.2351,-0.97475 0.26702,-2.651 0.028,-1.246 0.10052,-2.55446 0.16742,-2.9252 0.15002,-0.71105 0.14599,-10.0261 0.004,-14.72625 -0.0656,-1.87355 -0.15961,-3.08545 -0.31066,-3.55795 -0.15064,-0.45694 -0.19703,-1.03995 -0.14875,-1.533 0.0341,-0.44677 0.10443,-1.2633 0.151,-1.818 0.0297,-0.6156 0.16925,-1.1421 0.34741,-1.3774 0.16321,-0.2195 0.23261,-0.4981 0.16657,-0.6653 -0.0502,-0.1525 0.003,-0.4459 0.12091,-0.64893 0.13336,-0.18823 0.25879,-0.66797 0.30951,-1.06887 0.0512,-0.38584 0.17987,-0.7428 0.30157,-0.7922 0.12158,-0.0493 0.20972,-0.20546 0.20598,-0.34377 -0.004,-0.13818 0.0799,-0.46313 0.1957,-0.72753 0.24542,-0.5907 1.42877,-5.7567 1.69262,-7.3778 0.10602,-0.63307 0.25768,-1.2827 0.33038,-1.43837 0.0727,-0.15573 0.17572,-0.89633 0.23243,-1.651 0.0566,-0.75473 0.16052,-1.4646 0.23443,-1.57433 0.0892,-0.1099 0.1803,-0.7272 0.20911,-1.37367 0.0288,-0.64633 0.14723,-1.38733 0.27838,-1.65223 0.13129,-0.26476 0.22395,-0.82067 0.2132,-1.21996 -0.0107,-0.39944 0.0824,-0.93994 0.19873,-1.18894 0.1167,-0.23367 0.2127,-0.6668 0.20568,-0.9279 -0.007,-0.2611 0.11804,-0.75645 0.27796,-1.09886 0.15985,-0.3424 0.28735,-0.74548 0.28241,-0.92981 0.0109,-0.16943 0.0948,-0.47913 0.21185,-0.69738 0.11719,-0.21839 0.19982,-0.5741 0.20942,-0.78955 -0.006,-0.23047 0.1226,-0.58753 0.28582,-0.807 0.16315,-0.21962 0.29273,-0.54603 0.28742,-0.74562 -0.005,-0.18445 0.0952,-0.46362 0.22918,-0.62108 0.11923,-0.14155 0.24344,-0.66755 0.2764,-1.16035 0.0649,-1.01611 0.49561,-2.1499 0.91948,-2.39185 0.15156,-0.0809 0.29823,-0.3462 0.3381,-0.57788 0.0653,-0.43206 0.19078,-0.91198 1.06816,-4.302 0.54218,-2.1358 1.37067,-5.63196 1.5431,-6.65112 0.0806,-0.4325 0.21777,-1.05115 0.30084,-1.39154 0.0678,-0.34003 0.13428,-0.72614 0.11566,-0.84851 -0.056,-0.36745 0.32962,-2.03797 0.49394,-2.21143 0.0897,-0.0948 0.1616,-0.28107 0.1583,-0.40399 -0.004,-0.13818 0.0956,-0.4483 0.21186,-0.69745 0.1167,-0.23364 0.21474,-0.58978 0.20978,-0.77418 0.0109,-0.16936 0.12213,-0.6027 0.28211,-0.94518 0.15991,-0.34247 0.27125,-0.77588 0.28155,-0.96057 -0.005,-0.18439 0.0961,-0.43305 0.21527,-0.57459 0.11951,-0.12616 0.22046,-0.37486 0.21553,-0.55914 -0.005,-0.18432 0.12126,-0.63354 0.28044,-1.00665 0.23084,-0.55963 0.28119,-0.97602 0.23249,-2.21979 -0.0467,-1.16705 -0.013,-1.62908 0.16387,-1.91046 0.11762,-0.203 0.25794,-0.69872 0.30915,-1.08442 l 0.0881,-0.7248 -0.4609,0.0124 c -0.2611,0.007 -0.658,0.10987 -0.90044,0.23932 -0.22712,0.12915 -0.59126,0.30798 -0.80378,0.40588 -0.44018,0.21162 -0.89355,0.50056 -1.17798,0.78492 -0.23998,0.22162 -4.21163,2.29578 -4.42666,2.30158 -0.0922,0.002 -0.1557,-0.0728 -0.15778,-0.1496 -0.002,-0.0922 -0.0963,-0.151 -0.21916,-0.1477 -0.10756,0.003 -0.3102,-0.0994 -0.4214,-0.2347 -0.3648,-0.42058 -1.13812,-0.59966 -3.52734,-0.843 -0.38526,-0.0358 -0.78833,-0.16334 -0.91413,-0.26758 -0.11078,-0.11994 -0.31293,-0.20679 -0.42047,-0.20386 -0.12286,0.003 -0.51106,-0.14008 -0.85351,-0.29993 -0.71643,-0.34973 -1.83655,-0.27356 -2.24018,0.15241 -0.34417,0.34736 -1.55887,0.33392 -2.13717,-0.0195 -0.26563,-0.16199 -0.5766,-0.29207 -0.71485,-0.28833 -0.13818,0.004 -0.34082,-0.0984 -0.4516,-0.21839 -0.11085,-0.12005 -0.45165,-0.2185 -0.77417,-0.20985 -0.32258,0.009 -0.66338,-0.0898 -0.77423,-0.20976 -0.11095,-0.12 -0.28277,-0.22304 -0.40565,-0.21974 -0.30718,0.008 -1.00322,-0.72625 -1.1074,-1.16924 -0.0522,-0.22919 -0.18336,-0.53314 -0.29456,-0.66846 -0.23908,-0.31634 -1.61017,-1.00207 -1.97884,-0.9922 -0.1536,0.004 -0.30888,-0.0531 -0.37236,-0.12828 -0.0482,-0.0757 -0.29724,-0.19196 -0.55957,-0.23102 -0.52557,-0.10882 -1.67467,-0.53918 -2.34461,-0.87463 -0.21789,-0.10187 -0.51269,-0.20142 -0.63556,-0.19812 -0.12286,0.003 -0.3097,-0.084 -0.4052,-0.20447 -0.11073,-0.12 -0.37562,-0.25128 -0.60767,-0.3064 -0.23163,-0.0399 -0.97718,-0.32738 -1.67749,-0.64678 -1.43091,-0.62257 -1.54218,-0.75788 -2.60154,-3.00446 -0.37475,-0.78924 -0.86364,-1.82147 -1.09106,-2.27649 -0.22736,-0.45508 -0.70007,-1.45691 -1.05817,-2.20045 -0.3432,-0.7594 -0.78183,-1.63927 -0.94455,-1.973 -0.16259,-0.33388 -0.38958,-0.7735 -0.47222,-0.9866 -0.0979,-0.2125 -0.24366,-0.48528 -0.32374,-0.60613 -0.27349,-0.45379 -0.82757,-1.62249 -0.83209,-1.7915 -0.002,-0.0921 -0.21234,-0.47083 -0.46765,-0.81757 -0.25568,-0.362 -0.53039,-0.86187 -0.59845,-1.106 -0.0684,-0.25947 -0.21576,-0.59383 -0.32776,-0.75978 -0.11212,-0.16614 -0.22791,-0.47046 -0.26434,-0.68469 -0.0361,-0.19885 -0.18256,-0.50238 -0.33991,-0.63653 -0.14227,-0.14985 -0.27179,-0.39234 -0.27636,-0.5613 -0.004,-0.15355 -0.11743,-0.3657 -0.24317,-0.46996 -0.12579,-0.10424 -0.23748,-0.25494 -0.23956,-0.33172 -0.002,-0.0922 -0.29663,-0.7453 -0.66931,-1.45777 -0.37305,-0.72778 -0.77979,-1.56231 -0.92581,-1.8504 -0.13068,-0.28857 -0.30921,-0.63733 -0.38929,-0.75812 -0.0647,-0.12121 -0.17797,-0.33343 -0.22735,-0.45505 -0.0494,-0.12176 -0.24451,-0.51618 -0.43823,-0.8645 -0.27564,-0.53064 -0.31,-0.66803 -0.13105,-0.87268 0.22254,-0.29803 1.13135,-0.23022 1.55545,0.11197 0.12622,0.11957 0.4513,0.20306 0.69709,0.19647 0.24573,-0.007 0.6322,0.0753 0.8659,0.19196 0.21839,0.11706 0.71363,0.2422 1.08386,0.2937 0.37037,0.0516 0.80463,0.19366 0.97645,0.29663 0.1723,0.11835 0.51269,0.20142 0.7738,0.1944 0.26117,-0.007 0.61732,0.0911 0.80487,0.20904 0.3446,0.2367 1.31891,0.45648 2.4444,0.58003 0.33911,0.0369 0.78869,0.17864 1.00787,0.32647 0.21918,0.14783 0.69988,0.30401 1.08558,0.35523 0.3856,0.051 0.83514,0.19274 1.00707,0.2957 0.1723,0.11835 0.49733,0.20185 0.7431,0.19526 0.23041,-0.006 0.64765,0.0748 0.92693,0.17504 0.2798,0.11542 0.86848,0.28413 1.3011,0.36475 0.4483,0.0955 0.82105,0.23932 0.82312,0.3161 0.002,0.0767 0.17268,0.13367 0.37238,0.12835 0.4608,-0.0124 4.5502,1.1537 5.03384,1.41737 0.18756,0.11793 0.39472,0.38903 0.44696,0.61823 0.0523,0.22924 0.198,0.502 0.30792,0.59118 0.12538,0.0889 0.22413,0.33222 0.22908,0.51648 0.005,0.18439 0.11907,0.42724 0.2448,0.5315 0.12586,0.10418 0.27228,0.40777 0.3416,0.69787 0.0535,0.27527 0.20003,0.57887 0.32576,0.68305 0.1253,0.0889 0.22284,0.28602 0.22656,0.42425 0.004,0.13831 0.1344,0.42682 0.27808,0.62287 0.15936,0.21093 0.30664,0.5451 0.3427,0.744 0.0361,0.19887 0.16597,0.45668 0.2922,0.57625 0.11083,0.12005 0.22527,0.37829 0.2302,0.56262 0.005,0.19971 0.11958,0.4425 0.24537,0.54675 0.12573,0.10425 0.27223,0.40772 0.34155,0.69788 0.0535,0.27533 0.19996,0.5788 0.32568,0.68298 0.12544,0.0889 0.2229,0.28619 0.22663,0.42438 0.004,0.1383 0.15021,0.44177 0.32617,0.69836 0.17563,0.24128 0.32248,0.56024 0.3262,0.69838 0.004,0.13823 0.1012,0.3355 0.22657,0.4243 0.11003,0.0894 0.25647,0.39283 0.32495,0.6523 0.29575,1.2832 1.23526,1.35027 4.17343,0.28758 0.24371,-0.0834 0.83825,-0.26838 1.29615,-0.3883 0.4575,-0.13532 1.35687,-0.42072 1.9804,-0.66798 0.62402,-0.232 1.417,-0.4685 1.7533,-0.53887 0.33673,-0.0552 0.7332,-0.17353 0.90014,-0.25483 0.1814,-0.11242 0.39686,-0.1029 0.61438,-0.0165 0.28022,0.13087 0.86841,0.28417 2.04358,0.54474 0.26285,0.0543 0.4127,-0.0881 0.7346,-0.69623 0.23504,-0.40588 0.6051,-0.93854 0.84423,-1.19086 0.55347,-0.56824 0.51417,-0.89008 -0.15576,-1.79431 -0.62177,-0.82873 -0.59931,-1.13677 0.0946,-1.6319 0.30225,-0.19262 0.38739,-0.45617 0.51258,-1.52027 0.12762,-0.9718 0.11608,-1.40185 -0.0326,-1.78222 -0.0995,-0.27398 -0.1875,-0.68658 -0.19322,-0.90168 -0.006,-0.21508 -0.12188,-0.53472 -0.24898,-0.68505 -0.31798,-0.39111 -0.333,-1.52825 -0.0478,-1.78185 0.12,-0.1108 0.22088,-0.3595 0.21595,-0.54377 -0.005,-0.18427 0.1242,-0.52593 0.28747,-0.74553 0.26696,-0.3608 0.29066,-0.6227 0.23334,-2.75777 -0.0408,-1.52075 -0.1485,-2.67083 -0.31818,-3.26568 -0.2904,-1.08355 -0.40698,-3.70905 -0.17767,-4.33002 0.086,-0.23291 0.16675,-1.23425 0.18683,-2.20319 0.0201,-0.96899 0.13067,-2.00184 0.23041,-2.2965 0.11547,-0.27984 0.18703,-1.05039 0.1697,-1.69554 -0.0452,-2.2584 0.66346,-4.4909 1.84223,-5.81377 0.7163,-0.80316 1.1399,-1.06049 4.22052,-2.54193 0.60705,-0.29297 2.35078,-1.18524 3.86633,-1.99445 2.21253,-1.18152 2.75685,-1.51892 2.77973,-1.81165 0.025,-0.21588 -0.0398,-0.3371 -0.16266,-0.3338 -0.12292,0.003 -0.37402,-0.18975 -0.56537,-0.44592 -0.2702,-0.33105 -0.35559,-0.65143 -0.375,-1.37348 -0.0214,-0.7987 -0.10608,-1.0885 -0.55597,-1.81432 -0.30468,-0.46828 -0.59638,-1.02924 -0.64826,-1.24298 -0.0846,-0.28986 -0.24194,-0.4239 -0.56616,-0.47675 -0.37073,-0.0669 -0.46618,-0.18732 -0.6355,-0.76691 -0.15386,-0.58001 -0.28088,-0.73028 -0.73132,-0.90271 -0.60559,-0.22961 -0.92889,-0.82043 -0.83826,-1.45313 0.0519,-0.3549 0.55207,-1.7672 0.82819,-2.35876 0.21813,-0.46692 0.11816,-1.32514 -0.21837,-1.83874 -0.1764,-0.2719 -0.32783,-0.75977 -0.3365,-1.08234 -0.009,-0.32256 -0.12616,-0.68836 -0.29962,-0.85278 -0.1424,-0.1499 -0.50592,-0.52442 -0.79025,-0.8089 -0.34783,-0.3595 -0.50971,-0.66266 -0.51753,-0.95453 0.009,-0.24621 0.0128,-1.81409 -0.002,-3.50465 -0.0119,-2.73583 -0.0368,-3.08873 -0.29248,-3.45073 -0.73462,-1.02564 -1.1449,-2.56707 -0.75208,-2.82367 0.0756,-0.0482 0.17566,-0.32746 0.21436,-0.60517 0.0519,-0.35498 0.45184,-0.91906 1.31756,-1.88 1.05973,-1.18133 1.30056,-1.37219 1.73062,-1.38373 0.33796,-0.009 0.64148,-0.15558 0.95581,-0.47143 0.25409,-0.26813 0.64728,-0.50934 0.87603,-0.57691 0.2748,-0.0689 0.5447,-0.32202 0.78022,-0.71264 0.32264,-0.57752 0.39863,-0.61022 1.05872,-0.64338 0.78339,-0.021 1.6507,-0.35162 1.96338,-0.72894 0.10382,-0.1411 0.34674,-0.2553 0.54645,-0.26068 0.18426,-0.005 0.4425,-0.11939 0.57751,-0.24597 0.17932,-0.18933 0.71576,-0.24982 2.82019,-0.30628 2.13507,-0.0573 2.64325,-0.0248 2.80176,0.15546 z"
         id="path2"
         inkscape:connector-curvature="0" />
    </g>
  </g>
</svg>
