<?xml version="1.0" encoding="UTF-8" standalone="no"?>
<svg
   xmlns:dc="http://purl.org/dc/elements/1.1/"
   xmlns:cc="http://creativecommons.org/ns#"
   xmlns:rdf="http://www.w3.org/1999/02/22-rdf-syntax-ns#"
   xmlns:svg="http://www.w3.org/2000/svg"
   xmlns="http://www.w3.org/2000/svg"
   xmlns:sodipodi="http://sodipodi.sourceforge.net/DTD/sodipodi-0.dtd"
   xmlns:inkscape="http://www.inkscape.org/namespaces/inkscape"
   version="1.1"
   width="30.731577"
   height="52.641998"
   viewBox="0 0 30.731577 52.641998"
   id="svg7"
   sodipodi:docname="2 men standing laptop_new.svg"
   inkscape:version="0.92.4 (5da689c313, 2019-01-14)">
  <metadata
     id="metadata13">
    <rdf:RDF>
      <cc:Work
         rdf:about="">
        <dc:format>image/svg+xml</dc:format>
        <dc:type
           rdf:resource="http://purl.org/dc/dcmitype/StillImage" />
        <dc:title></dc:title>
      </cc:Work>
    </rdf:RDF>
  </metadata>
  <defs
     id="defs11" />
  <sodipodi:namedview
     pagecolor="#ffffff"
     bordercolor="#666666"
     borderopacity="1"
     objecttolerance="10"
     gridtolerance="10"
     guidetolerance="10"
     inkscape:pageopacity="0"
     inkscape:pageshadow="2"
     inkscape:window-width="640"
     inkscape:window-height="512"
     id="namedview9"
     showgrid="false"
     fit-margin-top="0"
     fit-margin-left="0"
     fit-margin-right="0"
     fit-margin-bottom="0"
     inkscape:zoom="0.24180328"
     inkscape:cx="12.690968"
     inkscape:cy="25.7492"
     inkscape:window-x="0"
     inkscape:window-y="0"
     inkscape:window-maximized="0"
     inkscape:current-layer="svg7" />
  <g
     id="layer1"
     transform="translate(-287.30903,-461.1072)">
    <g
       style="fill:#000000;fill-opacity:1;stroke-linejoin:miter"
       id="g4">
      <path
         d="m 313.29044,480.7453 c 0.0263,0 0.0391,0.008 0.0281,0.0165 -0.006,0.006 -0.0175,0.009 -0.0309,0.009 -0.01,0 -0.0201,-0.002 -0.0294,-0.006 -0.0254,-0.01 -0.0159,-0.019 0.019,-0.019 0.005,-4.2e-4 0.009,-6e-4 0.0132,-6e-4 z m -0.28257,0.0665 c 0.025,0 0.0298,0.009 0.0186,0.0262 -0.01,0.0159 -0.073,0.0286 -0.13647,0.0286 l -0.11745,-0.003 0.0952,-0.0254 c 0.0698,-0.0175 0.11505,-0.0262 0.14004,-0.0262 z m -0.6217,0.12698 c 0.0167,0 0.0167,0.009 0.006,0.0262 -0.009,0.0145 -0.0491,0.029 -0.0923,0.029 -0.004,0 -0.008,-1.3e-4 -0.0124,-4e-4 l -0.0857,-0.003 0.0793,-0.0254 c 0.0555,-0.0175 0.0889,-0.0262 0.10553,-0.0262 z m -0.27011,0.0605 c 0.0263,0 0.0391,0.008 0.0281,0.0165 -0.006,0.006 -0.0175,0.009 -0.0309,0.009 -0.01,0 -0.0201,-0.002 -0.0294,-0.006 -0.0254,-0.01 -0.0159,-0.019 0.019,-0.019 0.005,-4.3e-4 0.009,-6.1e-4 0.0132,-6.1e-4 z m -0.3591,0.0958 -0.0635,0.0286 c -0.0349,0.0159 -0.0984,0.0254 -0.14285,0.0254 h -0.0794 l 0.0794,-0.0254 c 0.0445,-0.0127 0.10794,-0.0254 0.14285,-0.0254 z m -4.66861,-19.98786 c -0.0886,0 -0.15372,0.003 -0.17165,0.011 -0.0254,0.01 -0.0825,0.0444 -0.1238,0.0762 -0.0539,0.0444 -0.13015,0.0603 -0.26028,0.0603 -0.17456,0 -0.18725,0.006 -0.29199,0.12695 -0.10473,0.12065 -0.11426,0.12699 -0.29837,0.12699 -0.14916,0 -0.20946,0.0159 -0.29516,0.0793 -0.0603,0.0444 -0.12378,0.0793 -0.14283,0.0793 -0.0413,0 -0.52371,0.45071 -0.52371,0.4888 0,0.0159 -0.0349,0.0666 -0.0794,0.1206 -0.0444,0.0508 -0.0793,0.11109 -0.0793,0.13013 0,0.0222 -0.0254,0.054 -0.0603,0.0762 -0.0317,0.019 -0.0698,0.0762 -0.0794,0.12377 -0.0127,0.0476 -0.0508,0.1238 -0.0857,0.16505 -0.0317,0.0444 -0.0603,0.10155 -0.0603,0.12695 0,0.0286 -0.0222,0.073 -0.0508,0.10474 -0.11107,0.12381 -0.11425,1.16803 0,1.38386 0.0254,0.0508 0.0572,0.17138 0.0699,0.26662 0.01,0.0952 0.0476,0.23488 0.0793,0.31104 0.0667,0.14917 0.0794,0.36502 0.0286,0.49197 -0.0349,0.092 0.0349,0.29517 0.10792,0.32373 0.0603,0.0222 0.0952,0.28564 0.0666,0.51737 -0.0159,0.15234 -0.0413,0.2063 -0.12694,0.29517 l -0.10793,0.11108 0.0889,0.0857 c 0.0603,0.0572 0.13966,0.0952 0.22852,0.10477 0.21267,0.0286 0.21902,0.0413 0.21902,0.40942 0,0.27294 0.01,0.33008 0.0476,0.33008 0.0254,0 0.0476,0.0254 0.0476,0.0603 0,0.0476 -0.0317,0.0635 -0.14286,0.0794 -0.16186,0.0254 -0.23169,0.10158 -0.37768,0.40944 -0.0476,0.10156 -0.12061,0.22216 -0.15869,0.26978 -0.0381,0.0476 -0.12064,0.16508 -0.18412,0.26028 -0.1333,0.20313 -0.33007,0.40942 -0.42845,0.4475 -0.1111,0.0413 -0.83476,0.53324 -0.97758,0.66337 -0.11746,0.10473 -0.59354,0.4158 -0.83792,0.54593 -0.51102,0.26978 -0.59037,0.32373 -0.98078,0.6411 -0.41894,0.34282 -0.48242,0.42216 -0.5935,0.76497 -0.11742,0.35547 -0.18726,1.25686 -0.14282,1.9107 0.0159,0.27613 0.0444,0.77127 0.0635,1.10453 0.019,0.3301 0.0476,0.6951 0.0635,0.80935 0.0159,0.11425 0.0444,0.41263 0.0635,0.66655 0.0159,0.2539 0.0444,0.511 0.0635,0.5713 0.019,0.0603 0.0476,0.2793 0.0667,0.4856 0.0159,0.2063 0.0444,0.41263 0.0635,0.45706 0.0159,0.0444 0.0444,0.23487 0.0635,0.41898 0.0159,0.18408 0.0508,0.40626 0.0762,0.49512 0.0222,0.0857 0.0508,0.24438 0.0635,0.34912 0.01,0.10472 0.0444,0.30472 0.0762,0.44436 0.0349,0.13966 0.0762,0.32376 0.092,0.41263 0.019,0.0857 0.0476,0.22217 0.0667,0.30153 0.019,0.0793 0.0412,0.20946 0.0508,0.2888 0.0222,0.16504 0.2793,0.63163 0.42529,0.76493 0.054,0.0476 0.15872,0.10157 0.23172,0.1206 0.0762,0.019 0.16504,0.0476 0.19996,0.0635 0.21264,0.0952 0.51098,0.19678 0.65698,0.22216 0.16506,0.0286 0.43802,0.1238 0.59672,0.2063 0.0444,0.0222 0.1238,0.0571 0.17775,0.0793 0.10791,0.0381 0.12695,0.10155 0.2063,0.6951 0.0412,0.28882 0.019,0.85062 -0.0381,1.06645 -0.019,0.0698 -0.0476,0.26342 -0.0603,0.4285 -0.0159,0.20946 -0.0508,0.3618 -0.10791,0.50145 -0.0571,0.13015 -0.0952,0.30472 -0.11745,0.52055 -0.0159,0.17772 -0.0381,0.3364 -0.0476,0.3491 -0.01,0.0159 -0.0317,0.28886 -0.0476,0.60624 -0.0127,0.31741 -0.0476,0.73319 -0.0762,0.92679 -0.0254,0.19043 -0.0476,0.43802 -0.0476,0.54593 0,0.10791 -0.0222,0.30151 -0.0476,0.4285 -0.0444,0.20947 -0.10792,1.19339 -0.1111,1.69804 v 0.19362 l 0.19995,0.0984 c 0.11109,0.054 0.21268,0.0984 0.22538,0.0984 0.0159,0 0.0793,0.0413 0.14599,0.0952 0.0984,0.0794 0.12061,0.11744 0.13648,0.2444 0.01,0.0826 0.0413,0.1968 0.0666,0.25076 0.0286,0.0539 0.073,0.28247 0.0984,0.50784 0.10791,0.9395 0.13646,1.11722 0.19676,1.29813 0.12062,0.35232 0.16505,0.50784 0.1841,0.65067 0.01,0.0793 0.0412,0.25073 0.0635,0.38085 0.0349,0.16822 0.0571,0.67288 0.0762,1.69805 0.0286,1.38386 0.035,1.4759 0.10794,1.79332 0.0698,0.30151 0.0794,0.40308 0.0794,1.07913 0.003,0.40942 0.019,0.85061 0.0349,0.97439 0.0508,0.35233 0.0984,1.72346 0.0984,2.80262 0,0.77761 0.006,0.99344 0.0444,1.095 0.0254,0.0698 0.0476,0.15551 0.0508,0.19044 0,0.0349 0.0285,0.1206 0.0635,0.19042 0.0349,0.0698 0.0635,0.1492 0.0635,0.17458 0,0.0254 0.0286,0.0889 0.0603,0.13966 0.10477,0.15551 0.11746,0.49514 0.0318,0.79666 -0.0889,0.33008 -0.0889,0.52051 0.003,0.79348 0.0825,0.24122 0.10791,0.28248 0.39991,0.6697 0.0738,0.098 0.13009,0.1799 0.17147,0.25126 h -0.003 q -0.007,0.0228 -0.0142,0.0468 -0.15207,0.5646 -0.12881,1.24423 0.0195,0.46835 0.16866,0.81972 0.0943,0.23335 0.3082,0.5049 h -0.003 c 0.0519,0.093 0.12095,0.16803 0.27207,0.32293 0.15234,0.14917 0.32373,0.29834 0.38403,0.33007 0.0571,0.0317 0.12698,0.0762 0.1492,0.0984 0.0254,0.0222 0.0952,0.0508 0.16187,0.0603 0.0635,0.0127 0.17456,0.0413 0.24438,0.0666 0.0873,0.0301 0.30548,0.0452 0.51892,0.0452 0.21348,0 0.42215,-0.0151 0.49038,-0.0452 0.0571,-0.0254 0.14286,-0.0571 0.19364,-0.073 0.0762,-0.0222 0.10474,-0.0635 0.14916,-0.18725 0.073,-0.20313 0.073,-0.29834 0,-0.56815 -0.0317,-0.12378 -0.0698,-0.33642 -0.0825,-0.47607 -0.01,-0.13968 -0.0413,-0.31741 -0.0635,-0.39676 -0.0222,-0.0793 -0.0508,-0.21899 -0.0635,-0.31422 -0.0127,-0.10473 -0.0635,-0.25072 -0.13016,-0.3777 -0.10473,-0.1936 -0.11108,-0.22217 -0.0984,-0.43165 0.0159,-0.28567 0.10156,-0.51101 0.25076,-0.67288 0.19677,-0.21264 0.24754,-0.28882 0.31104,-0.47927 0.10473,-0.31104 0.0635,-0.67924 -0.092,-0.85062 -0.0349,-0.0349 -0.0857,-0.11426 -0.11425,-0.17456 -0.0667,-0.146 -0.1333,-0.25708 -0.2952,-0.50464 -0.073,-0.11112 -0.1333,-0.2222 -0.1333,-0.24124 0,-0.0222 -0.019,-0.0571 -0.0444,-0.0762 -0.10156,-0.0857 -0.0825,-0.61256 0.0349,-1.06008 0.0413,-0.1587 0.0508,-0.33963 0.0508,-0.92678 -0.003,-0.40312 -0.0191,-0.80937 -0.0381,-0.90458 -0.019,-0.0952 -0.054,-0.4888 -0.0825,-0.86969 -0.0254,-0.38403 -0.0698,-0.76807 -0.0952,-0.85376 -0.054,-0.17777 -0.0603,-0.43802 -0.0159,-0.65705 0.0159,-0.0793 0.0444,-0.25072 0.0635,-0.38086 0.0191,-0.13012 0.0571,-0.34594 0.0825,-0.47926 0.0254,-0.13014 0.0571,-0.4158 0.0762,-0.63478 0.0159,-0.21585 0.0444,-0.43802 0.0603,-0.4888 0.0159,-0.054 0.0381,-0.18726 0.0476,-0.30152 0.0191,-0.1936 0.10156,-0.58084 0.24126,-1.14263 0.0349,-0.13013 0.0698,-0.31104 0.0825,-0.39673 0.01,-0.0889 0.0381,-0.22217 0.0603,-0.30152 0.0222,-0.0793 0.0508,-0.23489 0.0603,-0.34915 0.01,-0.11427 0.0476,-0.27929 0.0794,-0.36502 0.0349,-0.0889 0.0762,-0.24438 0.092,-0.34912 0.0381,-0.21583 0.11426,-0.5332 0.17773,-0.74588 0.0254,-0.0794 0.0635,-0.22852 0.0825,-0.33325 0.0222,-0.10474 0.0571,-0.22537 0.0793,-0.2698 0.0222,-0.0444 0.0508,-0.17457 0.0635,-0.29517 0.0222,-0.22535 0.0635,-0.29517 0.19681,-0.32691 0.0162,-0.004 0.0307,-0.006 0.0438,-0.006 0.0585,0 0.0878,0.0432 0.10856,0.15219 0.01,0.0444 0.0476,0.16504 0.0825,0.26978 0.0381,0.10473 0.0762,0.29833 0.0889,0.4285 0.0127,0.14916 0.0413,0.2666 0.0762,0.31737 0.0286,0.0413 0.054,0.12696 0.054,0.19046 0.003,0.0603 0.0254,0.16822 0.0508,0.23804 0.0286,0.0698 0.0699,0.21265 0.0921,0.31738 0.0222,0.10475 0.0635,0.25391 0.0889,0.33325 0.0254,0.0793 0.0635,0.24125 0.0793,0.36503 0.0413,0.26977 0.12378,0.66017 0.16822,0.80301 0.019,0.0571 0.054,0.23486 0.0793,0.39672 0.0476,0.33011 0.146,0.68558 0.31104,1.14899 0.0635,0.17455 0.11426,0.3523 0.11426,0.39355 0,0.0413 0.0635,0.2063 0.13967,0.36503 0.17139,0.34594 0.19677,0.4888 0.23804,1.32034 0.0349,0.6221 0.0286,0.69827 -0.073,0.97443 -0.0793,0.20947 -0.092,0.51098 -0.0539,1.22512 0.0381,0.7681 0.11108,1.36798 0.1936,1.59333 0.0349,0.0857 0.0698,0.19995 0.0825,0.25393 0.01,0.0508 0.0476,0.15552 0.0825,0.22852 0.092,0.19678 0.10156,0.81253 0.0127,0.94266 -0.0317,0.0508 -0.0857,0.0984 -0.11743,0.10474 -0.0317,0.01 -0.0603,0.0286 -0.0603,0.0444 0,0.0159 -0.0413,0.073 -0.0952,0.13012 -0.0508,0.0539 -0.0952,0.11425 -0.0952,0.13013 0,0.0191 -0.0603,0.1492 -0.1333,0.28885 l -0.1365,0.25707 0.01,0.85697 c 0.003,0.46976 0.01,0.95536 0.01,1.07913 0.003,0.1206 0,0.33646 -0.006,0.47928 -0.01,0.22217 -0.003,0.27612 0.0667,0.41262 0.12381,0.2444 0.27933,0.42213 0.44437,0.50465 0.0857,0.0444 0.16186,0.0921 0.17456,0.11108 0.01,0.0159 0.0445,0.0317 0.0698,0.0317 0.0635,0 0.61574,0.26981 0.7554,0.36503 0.0539,0.0381 0.18724,0.1587 0.30153,0.27294 0.23487,0.22856 0.8887,0.80936 1.11087,0.98392 0.0793,0.0635 0.27295,0.18408 0.42847,0.26981 0.60063,0.3287 0.94183,0.47193 1.23089,0.47193 0.16309,0 0.30957,-0.0456 0.47672,-0.12916 0.26025,-0.13014 0.37134,-0.22534 0.37134,-0.32056 0,-0.0444 0.0603,-0.16824 0.13964,-0.27615 0.1016,-0.14283 0.13016,-0.20947 0.11429,-0.25708 -0.0127,-0.0349 -0.13015,-0.15552 -0.25711,-0.2666 -0.13014,-0.11109 -0.29834,-0.27613 -0.37768,-0.36185 -0.3555,-0.3999 -1.05692,-1.04422 -1.17756,-1.0823 -0.0476,-0.0159 -0.12695,-0.0698 -0.17773,-0.1206 l -0.0889,-0.092 v -0.70462 c 0,-0.66336 0.003,-0.71097 0.0698,-0.83475 0.0889,-0.16504 0.12695,-0.5618 0.0666,-0.67923 -0.0317,-0.0571 -0.10156,-0.0952 -0.26343,-0.146 -0.12061,-0.0381 -0.23172,-0.0888 -0.24441,-0.11111 -0.13964,-0.26024 -0.23804,-1.32352 -0.13964,-1.48856 0.20946,-0.34915 0.33644,-0.70778 0.36818,-1.03468 0.0127,-0.14287 0.0317,-0.273 0.0413,-0.28886 0.0127,-0.0159 0.0508,-0.32374 0.0857,-0.67924 0.0349,-0.35546 0.0793,-0.69823 0.0952,-0.75857 0.0159,-0.0603 0.0381,-0.36181 0.0476,-0.66653 0.01,-0.3047 0.0413,-0.72046 0.0635,-0.9204 0.0254,-0.2 0.0603,-0.54912 0.0793,-0.7713 0.0159,-0.22536 0.0539,-0.50148 0.0793,-0.61574 0.0286,-0.11743 0.0635,-0.37771 0.0794,-0.58401 0.0159,-0.2063 0.0444,-0.43802 0.0635,-0.51102 0.0413,-0.19043 0.0381,-0.36816 -0.0127,-0.60303 -0.0254,-0.11108 -0.0539,-0.3428 -0.0666,-0.51736 -0.01,-0.17456 -0.0349,-0.38089 -0.0508,-0.46024 -0.0191,-0.0793 -0.054,-0.4221 -0.0794,-0.7617 -0.0254,-0.33964 -0.0603,-0.72053 -0.0762,-0.84114 -0.0159,-0.12378 -0.0286,-0.45068 -0.0317,-0.72998 0,-0.58718 -0.0508,-1.35211 -0.0952,-1.5108 -0.019,-0.0603 -0.0476,-0.32378 -0.0667,-0.58402 -0.0159,-0.26346 -0.054,-0.59036 -0.0793,-0.73001 -0.0254,-0.13965 -0.0539,-0.37769 -0.0666,-0.52689 -0.0159,-0.23169 -0.01,-0.28881 0.0381,-0.37133 0.0508,-0.0825 0.0539,-0.11743 0.0254,-0.219 -0.019,-0.0667 -0.0444,-0.25711 -0.0571,-0.42215 -0.0127,-0.16504 -0.0412,-0.38086 -0.0635,-0.47608 -0.10477,-0.39992 -0.14602,-0.72683 -0.11111,-0.8538 0.0254,-0.0921 0.0222,-0.15236 -0.0127,-0.2444 -0.0222,-0.0698 -0.054,-0.2539 -0.0667,-0.40942 -0.0127,-0.15868 -0.0412,-0.32058 -0.0635,-0.36502 -0.0222,-0.0444 -0.054,-0.19996 -0.073,-0.34912 -0.0222,-0.17777 -0.073,-0.36184 -0.14917,-0.53958 -0.0635,-0.14916 -0.13647,-0.38404 -0.15869,-0.52369 -0.0508,-0.2825 -0.12061,-0.59353 -0.19043,-0.80937 -0.0793,-0.25392 -0.14282,-0.5713 -0.14282,-0.70778 0,-0.0762 -0.0381,-0.24124 -0.0825,-0.37137 -0.0445,-0.13012 -0.13015,-0.39672 -0.19363,-0.58718 -0.0603,-0.19361 -0.13012,-0.39357 -0.15234,-0.44434 -0.0254,-0.054 -0.0603,-0.18726 -0.0825,-0.29833 -0.0349,-0.1873 -0.0349,-0.20634 0.019,-0.24442 0.0381,-0.0282 0.10147,-0.0426 0.1532,-0.0426 0.0472,0 0.0848,0.012 0.0848,0.0362 0,0.006 0.004,0.01 0.0101,0.01 0.0125,0 0.0356,-0.012 0.0629,-0.035 0.0381,-0.0349 0.10793,-0.0793 0.1587,-0.10157 0.0476,-0.019 0.0857,-0.0508 0.0857,-0.0667 0,-0.0159 0.0762,-0.0635 0.1682,-0.10472 0.0889,-0.0413 0.22218,-0.10475 0.292,-0.1365 0.0698,-0.0349 0.19044,-0.0762 0.26978,-0.0952 0.0762,-0.0159 0.13652,-0.0476 0.13332,-0.0635 -0.005,-0.0201 -0.0587,-0.0293 -0.12734,-0.0293 -0.10476,0 -0.24426,0.0214 -0.29796,0.0578 -0.0505,0.0319 -0.10996,0.046 -0.20255,0.046 -0.0179,0 -0.0371,-5.2e-4 -0.0577,-0.002 -0.146,-0.006 0.13012,-0.0762 1.65996,-0.40626 l 1.83137,-0.39674 0.16503,-0.82525 c 0.0921,-0.45385 0.32694,-1.61871 0.5269,-2.58993 0.2825,-1.39414 0.34518,-1.74249 0.31158,-1.75217 h -0.003 c -1.5e-4,5e-5 -3.3e-4,9e-5 -5.1e-4,1.5e-4 -0.26661,0.0635 -3.19931,0.7078 -3.22791,0.7078 -0.019,0 -0.0666,-0.11743 -0.10475,-0.26343 -0.0857,-0.32377 -0.29515,-0.7681 -0.64748,-1.36163 -0.34594,-0.58402 -0.35864,-0.61574 -0.38402,-0.80301 -0.0127,-0.0889 -0.0413,-0.18726 -0.0635,-0.22217 -0.0222,-0.0349 -0.0508,-0.18411 -0.0603,-0.33011 -0.0127,-0.16505 -0.0412,-0.29835 -0.073,-0.34595 -0.0381,-0.0571 -0.0603,-0.18725 -0.0762,-0.40942 -0.0159,-0.24124 -0.0317,-0.33646 -0.0698,-0.36818 -0.0286,-0.0191 -0.0603,-0.0825 -0.073,-0.1333 -0.01,-0.054 -0.0444,-0.12062 -0.0699,-0.1492 -0.0317,-0.0381 -0.0413,-0.0825 -0.0286,-0.14284 0.0286,-0.11426 0.0286,-0.11426 -0.0159,-0.35546 -0.019,-0.1111 -0.0603,-0.24122 -0.092,-0.28565 -0.0317,-0.0444 -0.0667,-0.1333 -0.0762,-0.19678 -0.0127,-0.0667 -0.0413,-0.13333 -0.0667,-0.15555 -0.0286,-0.0254 -0.0476,-0.0952 -0.0476,-0.17772 0,-0.0952 -0.019,-0.1587 -0.0603,-0.19996 -0.0317,-0.0317 -0.0698,-0.0952 -0.0825,-0.13651 -0.0127,-0.0381 -0.073,-0.1206 -0.13334,-0.17773 -0.0857,-0.0857 -0.14282,-0.11108 -0.29833,-0.1333 -0.10474,-0.0159 -0.21265,-0.0444 -0.23804,-0.0635 -0.0222,-0.0222 -0.15869,-0.0508 -0.29833,-0.0666 -0.14283,-0.0159 -0.28886,-0.0508 -0.32695,-0.0762 -0.0381,-0.0254 -0.15551,-0.054 -0.26025,-0.0666 -0.10474,-0.0127 -0.21268,-0.0413 -0.2444,-0.0667 -0.0286,-0.0254 -0.12697,-0.0571 -0.22218,-0.0698 -0.092,-0.0127 -0.20312,-0.0444 -0.24756,-0.073 -0.0444,-0.0286 -0.13966,-0.0603 -0.21582,-0.0698 -0.0762,-0.0127 -0.17139,-0.0412 -0.20947,-0.0698 -0.0413,-0.0254 -0.15237,-0.054 -0.24442,-0.0667 -0.0952,-0.01 -0.2063,-0.0412 -0.25073,-0.0666 -0.0444,-0.0286 -0.14282,-0.0603 -0.2222,-0.0698 -0.12378,-0.0127 -0.14282,-0.0254 -0.15234,-0.0984 -0.006,-0.0444 0.0127,-0.0984 0.0381,-0.12378 0.0286,-0.0222 0.0508,-0.0571 0.0508,-0.0762 0,-0.019 0.0571,-0.11743 0.12699,-0.21585 0.0698,-0.10156 0.13647,-0.22218 0.14599,-0.26978 0.0127,-0.0508 0.0571,-0.15234 0.0984,-0.2285 0.0381,-0.0762 0.073,-0.1587 0.073,-0.1841 0,-0.0222 0.0222,-0.0762 0.0476,-0.11425 0.0635,-0.10155 0.11743,-0.64432 0.0952,-0.99029 -0.019,-0.26343 -0.0127,-0.29834 0.0603,-0.44116 0.0444,-0.0857 0.0826,-0.18726 0.0826,-0.22852 0,-0.0381 0.019,-0.0762 0.0413,-0.0857 0.0222,-0.006 0.10156,-0.1016 0.17456,-0.20952 0.13965,-0.20312 0.16187,-0.30468 0.10474,-0.49198 -0.0159,-0.0539 -0.0444,-0.2793 -0.0635,-0.50146 -0.019,-0.24756 -0.0476,-0.42846 -0.0762,-0.47607 -0.0254,-0.0381 -0.0571,-0.11429 -0.0667,-0.16507 -0.0127,-0.0508 -0.0508,-0.13013 -0.0857,-0.1714 -0.0413,-0.0539 -0.0603,-0.12694 -0.0603,-0.24758 0,-0.13647 -0.0127,-0.17456 -0.0635,-0.20312 -0.0349,-0.019 -0.0635,-0.054 -0.0635,-0.0762 0,-0.0222 -0.0286,-0.0762 -0.0603,-0.12061 -0.0349,-0.0413 -0.073,-0.11426 -0.0825,-0.15869 -0.0254,-0.10473 -0.53958,-0.62845 -0.61574,-0.62845 -0.0191,0 -0.0476,-0.0286 -0.0667,-0.0635 -0.019,-0.0349 -0.0508,-0.0635 -0.0698,-0.0635 -0.019,0 -0.0666,-0.0317 -0.10472,-0.073 -0.23804,-0.23173 -0.40943,-0.33646 -0.62528,-0.37137 -0.11108,-0.019 -0.25708,-0.0476 -0.3269,-0.0635 -0.11133,-0.0279 -0.52433,-0.0523 -0.76465,-0.0523 z m -10.33105,1.90772 c -0.0835,0 -0.16852,0.007 -0.29243,0.0204 -0.30471,0.0317 -0.52371,0.10477 -0.92361,0.31742 -0.23172,0.12377 -0.62526,0.55227 -0.81891,0.88552 -0.0444,0.0793 -0.0921,0.2063 -0.10475,0.28564 -0.0127,0.0793 -0.0381,0.16824 -0.0539,0.19999 -0.054,0.10155 -0.1333,0.69192 -0.13013,0.94265 0.0222,1.21247 0.0222,2.31382 0,2.38047 -0.0381,0.10791 -0.37133,0.40943 -0.45703,0.41259 -0.1333,0 -0.21902,0.0603 -0.56497,0.38724 -0.35233,0.33325 -0.47611,0.4126 -0.68558,0.4507 -0.0667,0.0127 -0.15235,0.0476 -0.19043,0.0793 -0.0413,0.0317 -0.13965,0.0667 -0.21899,0.0762 -0.0793,0.01 -0.18729,0.0413 -0.2349,0.0667 -0.0508,0.0254 -0.16503,0.054 -0.2539,0.0666 -0.219,0.0286 -0.52371,0.12697 -0.8284,0.26977 -0.13965,0.0667 -0.3523,0.16505 -0.47611,0.22218 -0.45385,0.2095 -0.55859,0.26346 -0.57129,0.28567 -0.01,0.0159 -0.0635,0.0381 -0.12063,0.0508 -0.054,0.01 -0.15234,0.0476 -0.21265,0.0793 -0.0603,0.0349 -0.1333,0.0603 -0.16505,0.0603 -0.0285,0 -0.0603,0.0127 -0.0698,0.0286 -0.01,0.0159 -0.1238,0.0825 -0.24757,0.14599 -0.30789,0.15552 -0.51419,0.38724 -0.70463,0.79349 -0.0444,0.092 -0.0984,0.18094 -0.11425,0.19047 -0.019,0.01 -0.0317,0.0444 -0.0317,0.073 0,0.0317 -0.0349,0.1206 -0.0794,0.2031 -0.0444,0.0825 -0.0793,0.16823 -0.0793,0.19044 0,0.0222 -0.0222,0.0794 -0.0476,0.13013 -0.0254,0.0476 -0.0603,0.16503 -0.0762,0.26025 -0.019,0.0952 -0.0476,0.20316 -0.0635,0.2349 -0.019,0.0317 -0.054,0.19043 -0.0793,0.34912 -0.0254,0.15869 -0.0571,0.30472 -0.0667,0.32059 -0.01,0.0159 -0.0317,0.11107 -0.0508,0.21264 -0.019,0.10157 -0.0603,0.26343 -0.092,0.36183 -0.0444,0.13012 -0.0635,0.3047 -0.0762,0.66652 -0.01,0.26981 -0.0349,0.58718 -0.0635,0.71098 -0.0254,0.1206 -0.054,0.39355 -0.0666,0.60305 -0.0127,0.20947 -0.0413,0.58085 -0.0667,0.82523 -0.0572,0.57762 -0.0921,2.97717 -0.0508,3.80872 0.0381,0.81255 0.1492,1.36162 0.4031,2.03133 0.15234,0.40311 0.20948,0.56815 0.26978,0.76493 0.0317,0.10791 0.073,0.22216 0.0889,0.2539 0.0159,0.0349 0.0413,0.12378 0.054,0.20314 0.0127,0.0793 0.0476,0.1841 0.0793,0.23805 0.14286,0.23805 0.1746,0.46973 0.17142,1.20609 -0.003,0.59036 -0.0444,1.68854 -0.092,2.49156 -0.01,0.11427 -0.0286,0.52052 -0.0476,0.90456 -0.0191,0.38406 -0.0476,0.76814 -0.0667,0.85699 -0.0159,0.0857 -0.0317,0.36499 -0.0317,0.6189 0,0.43485 0.003,0.46975 0.0793,0.61893 0.0953,0.1809 0.4666,0.60622 0.55545,0.63479 0.0698,0.0222 0.14917,0.19995 0.18095,0.39673 0.01,0.0793 0.0381,0.18726 0.0603,0.2444 0.0222,0.054 0.0571,0.1968 0.0762,0.3174 0.019,0.12378 0.0571,0.27612 0.0889,0.34598 0.0793,0.18408 0.073,0.75537 -0.0159,1.20292 -0.0413,0.2158 -0.073,0.55226 -0.0857,0.87282 -0.0127,0.28882 -0.0349,0.66654 -0.0508,0.8411 -0.0159,0.17456 -0.0508,1.14578 -0.0762,2.15828 -0.0254,1.0125 -0.0603,1.91072 -0.0762,1.99958 -0.019,0.0857 -0.0444,0.3523 -0.0635,0.58719 -0.0159,0.23487 -0.0508,0.52053 -0.0762,0.6348 -0.0286,0.11426 -0.0635,0.3269 -0.0825,0.47607 -0.0381,0.33646 -0.11743,0.80301 -0.18091,1.09503 -0.0254,0.12378 -0.0603,0.40308 -0.0793,0.6189 -0.0159,0.21903 -0.0508,0.51103 -0.0762,0.65067 -0.0254,0.13964 -0.0539,0.41896 -0.0635,0.61892 -0.0127,0.19994 -0.0413,0.44117 -0.0667,0.53321 -0.0254,0.0952 -0.0603,0.38089 -0.0762,0.63483 -0.0159,0.25707 -0.0413,0.51415 -0.0603,0.57446 -0.019,0.0571 -0.0476,0.3142 -0.0667,0.57132 -0.019,0.2539 -0.0476,0.50466 -0.0635,0.55862 -0.0762,0.25073 -0.13646,1.28543 -0.092,1.52985 0.0317,0.15869 0.13648,0.3999 0.22852,0.51733 0.0222,0.0254 0.0825,0.13012 0.1333,0.22852 0.054,0.10156 0.14286,0.23486 0.19998,0.29837 0.15868,0.17456 0.17456,0.3142 0.15868,1.35208 l -0.0159,0.91415 0.0825,0.1809 c 0.10156,0.2285 0.15869,0.3142 0.39041,0.59983 0.39585,0.49353 0.73249,0.70837 1.13573,0.70837 0.0817,0 0.16618,-0.009 0.25444,-0.0259 0.0952,-0.0191 0.29202,-0.054 0.43802,-0.0794 0.45386,-0.0825 0.6951,-0.2952 0.7681,-0.6856 0.0444,-0.2253 0.01,-0.54906 -0.0667,-0.64745 -0.0412,-0.0539 -0.0603,-0.12695 -0.0603,-0.25075 0,-0.0952 -0.0191,-0.2317 -0.0445,-0.30152 -0.0254,-0.073 -0.0603,-0.26028 -0.0793,-0.41581 -0.0159,-0.15869 -0.0444,-0.31421 -0.0635,-0.34594 -0.0159,-0.0317 -0.0413,-0.17139 -0.054,-0.31103 -0.01,-0.1365 -0.0413,-0.2825 -0.0635,-0.3206 -0.0539,-0.0857 -0.0571,-0.12695 -0.0127,-0.17773 0.019,-0.0222 0.13964,-0.17457 0.26976,-0.33963 0.13016,-0.16504 0.25712,-0.32374 0.27934,-0.34912 0.0539,-0.0571 0.14916,-0.24122 0.26025,-0.49195 0.0762,-0.17459 0.0825,-0.23807 0.11425,-0.88873 0.0159,-0.38404 0.0349,-0.7268 0.0444,-0.76172 0.01,-0.0349 0.0381,-0.65704 0.0635,-1.38067 0.0254,-0.72367 0.0635,-1.60919 0.0825,-1.96787 0.019,-0.35864 0.0444,-1.45682 0.0603,-2.44394 0.0222,-1.51397 0.0317,-1.81866 0.0762,-1.94879 0.0286,-0.0857 0.0508,-0.25073 0.054,-0.36499 0.003,-0.35232 0.0349,-0.49516 0.11108,-0.50466 0.008,-10e-4 0.0147,-0.002 0.0212,-0.002 0.0679,0 0.0855,0.0665 0.10573,0.34135 0.006,0.1333 0.0349,0.33962 0.0635,0.4634 0.0254,0.1206 0.0667,0.34912 0.0952,0.5078 0.0286,0.15553 0.073,0.39995 0.0984,0.5396 0.0381,0.1936 0.0508,0.46658 0.0508,1.1426 -0.003,0.87604 -0.0286,1.21564 -0.1206,1.50763 -0.0254,0.0793 -0.0603,0.29837 -0.0794,0.4888 -0.019,0.19043 -0.0508,0.37455 -0.0698,0.40947 -0.019,0.0349 -0.054,0.41576 -0.0794,0.84423 -0.0762,1.28227 -0.0793,1.37432 -0.0444,1.40924 0.0571,0.0571 0.0381,0.31103 -0.0317,0.46023 -0.0603,0.1206 -0.0666,0.17774 -0.054,0.44116 l 0.0159,0.30472 0.1238,0.10474 c 0.0698,0.0571 0.146,0.10473 0.17138,0.10791 0.0254,0 0.0984,0.0286 0.16186,0.0603 0.0635,0.0349 0.18412,0.073 0.26981,0.0825 0.0857,0.0127 0.19995,0.0476 0.25073,0.073 0.0666,0.0349 0.19042,0.0508 0.40312,0.0508 0.2666,0.003 0.32055,0.0127 0.40307,0.0762 0.0539,0.0381 0.10791,0.0698 0.1206,0.0698 0.0476,0 0.28885,0.18093 0.53958,0.40627 0.13965,0.12696 0.30469,0.26343 0.36499,0.3079 0.15556,0.11108 0.74271,0.39673 0.81571,0.39673 0.0191,0 0.0889,0.0286 0.15235,0.0635 0.0667,0.0349 0.14602,0.0635 0.17458,0.0635 0.0317,0 0.146,0.0317 0.25392,0.0698 0.1682,0.0571 0.27294,0.0698 0.67604,0.0698 0.0632,4.3e-4 0.11806,7.3e-4 0.16608,7.3e-4 0.30682,0 0.3364,-0.0128 0.48458,-0.0896 0.0132,-0.007 0.0262,-0.014 0.039,-0.021 h -0.003 q 0.26958,-0.072 0.49942,-0.3396 0.33389,-0.42777 0.14606,-0.74237 -0.0826,-0.12696 -0.3175,-0.25168 l -0.22532,-0.10692 q -0.66188,-0.26973 -0.75775,-0.321 -0.22793,-0.10654 -0.4538,-0.25443 -0.22628,-0.14782 -0.46881,-0.34973 -0.11847,-0.0951 -0.37558,-0.33471 h -0.003 c 0.0177,-0.0309 0.0137,-0.0754 -3e-5,-0.17957 -0.0127,-0.10156 -0.0285,-0.3396 -0.0317,-0.53003 -0.006,-0.1936 -0.019,-0.58719 -0.0317,-0.87601 l -0.0222,-0.52688 0.11108,-0.23487 c 0.23806,-0.50467 0.53958,-1.36797 0.57766,-1.66314 0.0127,-0.0889 0.0413,-0.18726 0.0635,-0.22533 0.0222,-0.0349 0.0508,-0.1619 0.0635,-0.2857 0.0127,-0.1206 0.0444,-0.2761 0.0666,-0.34594 0.0254,-0.0698 0.0571,-0.29519 0.0762,-0.49832 0.0159,-0.2063 0.0444,-0.43481 0.0635,-0.50781 0.019,-0.0762 0.0476,-0.43803 0.0635,-0.80303 0.0159,-0.36817 0.0444,-0.78077 0.0635,-0.92045 0.019,-0.13965 0.0476,-0.39038 0.0666,-0.55542 0.019,-0.16507 0.0603,-0.38089 0.092,-0.47611 0.0317,-0.0952 0.0667,-0.2666 0.0793,-0.37452 0.01,-0.11107 0.0349,-0.23805 0.0508,-0.2825 0.0159,-0.0444 0.0508,-0.23168 0.073,-0.41893 0.0254,-0.18412 0.0603,-0.37137 0.0762,-0.41581 0.0159,-0.0444 0.0413,-0.21582 0.054,-0.38086 0.0127,-0.16503 0.0412,-0.37454 0.0666,-0.46023 0.0222,-0.0889 0.0571,-0.32057 0.0762,-0.52054 0.019,-0.19995 0.0413,-0.37451 0.0508,-0.38721 0.01,-0.0159 0.0445,-0.22216 0.0762,-0.46337 0.0857,-0.60305 0.1809,-1.10455 0.219,-1.17755 0.0159,-0.0317 0.0476,-0.1841 0.0666,-0.33643 0.019,-0.14917 0.0476,-0.31107 0.0635,-0.3555 0.019,-0.0444 0.0476,-0.26343 0.0635,-0.48245 0.019,-0.22217 0.0476,-0.46338 0.0635,-0.53955 0.0539,-0.219 0.16186,-0.91727 0.1936,-1.22834 0.0191,-0.15869 0.0508,-0.42213 0.0762,-0.58716 0.0254,-0.16503 0.0635,-0.44119 0.0825,-0.61257 0.0159,-0.1714 0.0539,-0.3682 0.0793,-0.4412 0.0254,-0.073 0.0667,-0.32373 0.092,-0.56176 0.0286,-0.23487 0.0635,-0.47294 0.0825,-0.52689 0.0178,-0.0491 0.0231,-0.15131 0.017,-0.34421 h 0.003 q 0.30646,0.40336 0.71506,0.83231 0.85684,0.90115 1.10714,0.99222 0.19135,-0.67395 0.23661,-1.0243 0.0468,-0.33717 0.0109,-0.61287 l -0.031,-0.20954 -0.1086,-0.54866 -0.044,-0.27227 -0.0336,-0.29853 q -0.0808,-0.9962 -0.11649,-1.2652 -0.0519,-0.44823 -0.15109,-0.99675 -0.0473,-0.29401 -0.27698,-1.39249 h -0.003 q -0.0146,-0.33838 -0.0348,-0.78632 -0.0113,-0.30908 -0.0104,-0.50009 5.3e-4,-0.20965 0.0193,-0.37909 l 0.0795,-0.46759 q 0.0201,-0.14367 0.027,-0.28601 0.0193,-0.34016 -0.0129,-0.98532 -0.13068,-2.25244 -0.4177,-4.00284 -0.0768,-0.45724 -0.15841,-0.76275 h -0.003 c 0.0316,-0.13422 0.0403,-0.28425 0.0403,-0.64872 0,-0.38406 -0.0127,-0.56179 -0.0444,-0.63797 -0.0222,-0.0571 -0.054,-0.16821 -0.0667,-0.24438 -0.0254,-0.14285 -0.1587,-0.41898 -0.28567,-0.58402 -0.22217,-0.29516 -0.43799,-0.4602 -0.97439,-0.7427 -0.25074,-0.13648 -0.57129,-0.3555 -0.72367,-0.49832 -0.0603,-0.0571 -0.13647,-0.12378 -0.16504,-0.146 -0.0286,-0.0222 -0.0635,-0.0952 -0.0762,-0.16504 l -0.0222,-0.12378 0.12378,0.0222 c 0.0698,0.01 0.21265,0.0286 0.32378,0.0381 0.1333,0.0159 0.19676,0.0349 0.19676,0.0635 0,0.0703 0.0902,0.10623 0.21174,0.10623 0.10876,0 0.24267,-0.0287 0.35958,-0.0872 0.22852,-0.11424 0.30152,-0.24754 0.30152,-0.56811 0,-0.2095 0.006,-0.23807 0.0857,-0.31107 0.1079,-0.0984 0.1333,-0.1936 0.10473,-0.37136 -0.0444,-0.28565 -0.0349,-0.365 0.0571,-0.4507 0.0476,-0.0444 0.0857,-0.10155 0.0857,-0.1333 0,-0.0635 0.14282,-0.23803 0.23172,-0.28246 0.0349,-0.0159 0.092,-0.10477 0.12695,-0.19046 0.0317,-0.0889 0.0793,-0.20312 0.10791,-0.26025 0.0286,-0.0603 0.0413,-0.14283 0.0317,-0.2063 -0.0317,-0.19046 -0.12061,-0.51737 -0.15234,-0.54911 -0.0413,-0.0413 -0.0349,-0.1333 0.0127,-0.15234 0.0476,-0.019 0.18091,-0.35868 0.18091,-0.46023 0,-0.0349 0.0222,-0.0889 0.0539,-0.11745 0.0413,-0.0444 0.0444,-0.0698 0.0159,-0.15233 -0.0159,-0.0571 -0.0412,-0.15234 -0.0539,-0.21265 -0.0127,-0.0603 -0.0476,-0.19362 -0.0825,-0.29519 -0.0349,-0.10157 -0.0603,-0.2666 -0.0603,-0.38403 0,-0.25074 -0.0476,-0.39994 -0.13013,-0.39994 -0.0444,0 -0.0603,-0.0254 -0.0666,-0.10474 -0.003,-0.0539 -0.006,-0.14599 -0.01,-0.19677 -0.006,-0.10475 -0.0857,-0.2825 -0.21585,-0.48245 -0.2063,-0.32056 -0.66968,-0.69507 -1.14896,-0.92362 -0.54277,-0.26343 -0.78079,-0.34912 -1.06327,-0.39041 -0.21526,-0.0316 -0.3296,-0.0457 -0.4471,-0.0457 z"
         id="path2"
         inkscape:connector-curvature="0" />
    </g>
  </g>
</svg>
