<?xml version="1.0" encoding="UTF-8" standalone="no"?>
<svg
   xmlns:dc="http://purl.org/dc/elements/1.1/"
   xmlns:cc="http://creativecommons.org/ns#"
   xmlns:rdf="http://www.w3.org/1999/02/22-rdf-syntax-ns#"
   xmlns:svg="http://www.w3.org/2000/svg"
   xmlns="http://www.w3.org/2000/svg"
   xmlns:sodipodi="http://sodipodi.sourceforge.net/DTD/sodipodi-0.dtd"
   xmlns:inkscape="http://www.inkscape.org/namespaces/inkscape"
   version="1.1"
   width="199.04158"
   height="187.57356"
   viewBox="0 0 199.04158 187.57356"
   id="svg7"
   sodipodi:docname="2 men sitting working table_new.svg"
   inkscape:version="0.92.4 (5da689c313, 2019-01-14)">
  <metadata
     id="metadata13">
    <rdf:RDF>
      <cc:Work
         rdf:about="">
        <dc:format>image/svg+xml</dc:format>
        <dc:type
           rdf:resource="http://purl.org/dc/dcmitype/StillImage" />
        <dc:title></dc:title>
      </cc:Work>
    </rdf:RDF>
  </metadata>
  <defs
     id="defs11" />
  <sodipodi:namedview
     pagecolor="#ffffff"
     bordercolor="#666666"
     borderopacity="1"
     objecttolerance="10"
     gridtolerance="10"
     guidetolerance="10"
     inkscape:pageopacity="0"
     inkscape:pageshadow="2"
     inkscape:window-width="933"
     inkscape:window-height="512"
     id="namedview9"
     showgrid="false"
     fit-margin-top="0"
     fit-margin-left="0"
     fit-margin-right="0"
     fit-margin-bottom="0"
     inkscape:zoom="0.24180328"
     inkscape:cx="104.85216"
     inkscape:cy="68.5204"
     inkscape:window-x="0"
     inkscape:window-y="0"
     inkscape:window-maximized="0"
     inkscape:current-layer="svg7" />
  <g
     id="layer1"
     transform="translate(-195.14784,-368.94684)">
    <g
       style="fill:#000000;fill-opacity:1;stroke-linejoin:miter"
       id="g4">
      <path
         d="m 260.69925,380.59976 q 0.1001,0 0.19913,8.9e-4 h -0.002 q -0.0982,-8.9e-4 -0.19745,-8.9e-4 -0.10007,0 -0.20115,8.9e-4 0.10108,-8.9e-4 0.20115,-8.9e-4 z m 45.10699,3.30072 q 10e-4,0 0.003,0 h -0.005 q 0.001,0 0.003,0 z m 6.97346,17.75647 v 0 q -0.003,0 -0.006,0 -0.003,0 -0.006,0 z m 16.0518,5.54165 q 0.0495,0 0.0973,10e-4 h -2.1e-4 q -0.0477,-10e-4 -0.0971,-10e-4 -0.0494,0 -0.10042,10e-4 0.0511,-10e-4 0.10042,-10e-4 z m -95.59273,2.37837 q 6.6e-4,0 0.001,0 h -0.003 q 6.4e-4,0 0.001,0 z M 311.84,440.06683 q 0.11914,0 0.23437,0.003 h -1.2e-4 q -0.11517,-0.003 -0.23425,-0.003 -0.1191,0 -0.24216,0.003 0.12306,-0.003 0.24216,-0.003 z m -9.67466,16.68183 q -0.006,0 -0.0127,0 -0.006,0 -0.0127,0 z m 13.61048,-0.90363 q 1.94588,0 2.37912,0.0336 -0.11258,2.11244 0.98116,4.16318 0.0906,0.073 0.17518,0.073 0.009,0 0.0185,-8.8e-4 l 3.70706,-0.12515 0.32474,7.76623 q -0.55829,1.61213 -1.19226,1.61213 -0.0677,0 -0.13638,-0.0184 -0.38065,-0.0521 -0.98633,-0.42246 l -2.8262,-1.88484 q -0.65613,-0.36782 -1.39829,-0.58043 -0.42508,-0.12525 -1.10338,-0.25403 l -8.7972,-1.62387 q -1.87945,-0.34155 -2.74016,-0.39197 -0.16284,-2.60977 -1.00672,-3.84442 -0.80258,-1.32843 -3.44015,-3.15478 l -9e-5,-1.3e-4 h 0.003 q 1.40268,0.0963 2.37173,0.0963 1.17816,0 1.71533,-0.14238 1.08927,-0.25662 1.37451,-1.23697 8.19019,-0.063 9.96048,-0.063 0.0102,0 0.0202,0 0.31399,-7e-4 0.59616,-7e-4 z m -32.38762,37.0452 1.19795,1.47464 -4.5271,11.88503 -2.43841,-13.2954 v 0 l 5.74984,-0.0641 z m 36.9032,1.34427 q 1.08406,0.0684 2.1413,0.13455 h -0.003 l -3.42038,17.78915 v 0 q -1.10717,-1.41034 -2.38852,-3.07687 z m -22.23076,20.24926 -0.2208,0.95118 -0.0511,-0.44204 z m 0.0232,3.06019 0.66776,0.55665 -0.41428,1.63445 z M 241.29166,499.9657 q 1.13105,1.52765 2.98245,3.86658 l 0.42126,1.33877 -7.1197,25.21065 v 0 l 3.71358,-30.416 z m 67.84897,22.3505 0.54507,0.4929 v 0 l -3.35895,12.576 v 0 q -0.24142,-0.3048 -0.44211,-0.5626 0.16034,-4.44054 0.762,-6.59746 0.54779,-2.23054 2.49319,-5.9076 z m 8.6596,9.66525 0.43329,0.72855 -1.19318,3.2232 z m -42.77258,-38.99805 3.27933,17.86633 -4.79028,12.57597 q 0.007,0.19027 0.12985,0.2534 l 5.1361,3.32505 q -4.53183,7.39975 -5.99939,8.96985 l -0.82989,0.9754 -3.70364,2.78925 q -1.3577,-0.57642 -3.9643,-6.3938 -1.33743,-2.9588 -2.10423,-5.10071 -0.65212,-1.76331 -0.96413,-3.86164 l -0.56863,-1.36004 2.15996,-2.44733 q -0.0842,-20.01306 0.85066,-27.46505 l 9.80481,-0.10926 h 0.003 q 0.28013,0.15741 0.61967,0.16065 0.35453,-0.003 0.64441,-0.17471 h -0.003 z m -6.58698,47.2934 q -2.1e-4,0 -3.9e-4,0 -1.8e-4,0 -4e-4,0 z m -22.35037,-30.67274 4.23892,13.47114 q -1.56311,2.6768 0.70876,7.3788 -1.82835,3.0876 -1.71256,4.41685 -0.0237,0.94855 0.84453,2.38831 l -12.72819,3.02819 v 0 z M 284.06064,540.7 q 0.001,0 0.002,0 h -0.005 q 0.001,0 0.002,0 z m 12.19723,-22.8407 0.8014,6.91804 -0.82917,3.27131 -2.59717,6.859 q -2.08503,0.15455 -2.44277,1.56165 0.46804,2.1708 0.23164,5.9625 v 0 l -6.40987,-1.27555 v 0 l -0.39627,-0.57765 2.91138,-9.4607 1.71586,-0.1236 z m 15.55813,6.87605 3.62354,3.27649 0.39396,0.66246 -2.83997,14.7705 v 0 l -0.0284,0.01 -0.0228,-0.0193 q -2.8006,-3.35445 -4.6264,-5.58706 h -0.003 z m 13.18907,-30.20605 q 25.14603,1.55865 34.14166,1.8 h -0.004 l 22.98957,52.76176 -55.10713,-1.28036 h -0.003 q 1.07406,-1.2049 2.22955,-2.654 l 2.478,1.3932 q 1.76883,-0.54905 3.3558,-1.3226 6.92459,-4.08533 6.85095,-6.39234 0.11484,-1.64356 -4.10925,-5.97776 -7.54297,-5.16695 -13.90579,-11.96 l 0.84116,-1.8651 q -1.2344,-1.2462 -3.6546,-4.2367 h -0.003 l 3.89693,-20.2661 z m 37.41815,1.8415 28.33606,56.1415 -66.33802,-2.0275 h -0.003 q 0.093,-0.0857 0.18665,-0.1736 h 0.003 l 59.49612,1.3827 q 0.0525,0.005 0.10407,0.005 0.58643,0 1.05407,-0.6316 0.32004,-0.57294 0.0641,-1.17816 L 361.9572,496.3735 h -0.004 q 0.2468,-2.4e-4 0.466,-0.003 z M 323.9262,368.94684 q -4.55474,0.1185 -8.44656,2.36616 l -7.87789,8.2042 q -2.09003,2.44514 -1.99048,3.34742 l -1.84267,0.22228 q -0.2573,0.073 0.73885,1.235 0.27053,0.3081 0.8569,0.3081 0.3847,0 0.90533,-0.13262 0.0131,-0.002 0.0267,-0.002 0.25015,0 0.65307,0.75082 0.24585,6.5568 4.86633,11.24546 -0.59606,5.41874 0.14527,5.41874 0.002,0 0.004,-4e-5 0.0848,0.27514 0.78839,0.27514 0.57007,0 1.5463,-0.18063 h 0.003 q -0.10623,1.96475 1.82394,1.96475 0.37461,0 0.8259,-0.074 h 0.003 q -0.68836,1.24981 -0.35489,1.79928 2.64932,1.0976 4.72024,3.92713 0.15323,0.15915 0.58383,0.15915 1.52808,0 6.54923,-2.00416 0.22854,-0.0707 0.43707,-0.0707 0.4827,0 0.85803,0.37878 0.16437,0.38522 -0.49615,2.12051 l -2.02213,29.61226 -12.04415,1.14412 q -0.62525,-1.41862 -3.18607,-1.41862 -0.35965,0 -0.75745,0.028 -0.0662,-0.007 -0.13248,-0.007 -1.26513,0 -2.55795,2.57943 l -4.42611,-1.83548 q -1.18624,-4.5129 -6.69687,-16.75227 l 0.28073,-4.9622 q 0.0623,-1.11783 -2.13385,-3.27787 0.44971,-4.85913 -0.30285,-5.0809 -0.6737,-1.01938 -2.81327,-1.61398 -17.50498,-4.39099 -18.23859,-4.87088 -0.49679,-10.26895 -4.43914,-19.78424 -2.43897,-3.89966 -9.00376,-3.89966 -0.21408,0 -0.43254,0.004 -7.39441,1.06028 -11.22224,7.42618 -1.63767,3.71496 1.39202,11.39612 -2.1573,0.43316 -1.85707,2.18445 0.0794,1.2261 1.18799,3.28637 -6.41083,2.07642 -14.41726,3.07226 -2.01072,0.6254 -2.63394,1.85844 -0.6904,0.56201 -1.5579,7.15741 l -0.91284,2.42178 q -9.98018,13.28907 -12.04347,18.81323 -1.89748,4.46436 -1.80805,10.74698 l -21.3264,0.91266 4.64128,4.63828 31.35146,0.70928 q -2.45145,3.53904 -2.69232,6.58786 -0.37645,2.41123 -0.35046,8.44895 -1.93632,3.92667 -3.49512,30.89403 1.05034,0.65 2.11314,0.65 4.88663,0 10.03664,-13.74087 l 3.2659,1.74789 v 0 l -6.33663,51.90038 v 0 l -26.38573,6.2775 -0.32751,0.1685 -0.16611,3.29996 6.87742,-0.0835 0.7229,-2.10586 18.70013,-2.8151 v 0 l -0.0859,0.70355 q -0.0354,0.23401 0.0533,0.54041 0.28612,0.80768 1.20256,0.88489 0.8908,-0.0308 1.22798,-0.87885 l 0.4742,-1.6824 v 0 l 7.6116,-1.1458 -10.07585,8.0991 0.26351,3.6214 q -0.0441,0.4547 0.34782,0.4547 0.0442,0 0.094,-0.006 l 4.03466,-0.43605 0.26666,-2.47925 14.00354,-8.1561 q 2.39764,2.24454 3.74667,2.685 -6.90062,0.6444 -7.49764,0.95285 -1.35615,0.18985 -1.30548,1.41175 1.15105,2.11755 8.9529,4.7187 4.0676,1.158 8.08905,1.1876 0.30695,0.007 0.60812,0.007 4.36528,0 7.52195,-1.5095 h 0.003 q -0.1889,0.94274 0.19392,0.94274 0.0208,0 0.0434,-0.003 l 13.65322,-0.32833 0.18298,-6.95133 -0.7701,-4.60907 v 0 l 5.26177,1.04706 h -0.003 q -0.0731,0.68504 -0.16404,1.41114 l 8.2628,3.0451 0.93072,-1.16254 q 3.70368,2.25434 8.37893,3.8421 0.34245,1.72944 1.5398,1.84424 2.35425,0.1269 4.20557,0.1269 5.04635,0 6.35611,-0.9428 0.2098,-0.1005 0.4252,-0.2178 h 0.003 l 71.60724,2.1893 q 0.0541,0.003 0.10629,0.003 0.64249,0 1.01244,-0.4275 0.55852,-0.7227 0.15312,-1.48945 L 365.06796,495.9293 h -0.004 q 0.5319,-0.19694 0.7499,-0.4773 -0.45016,-0.6156 8.4294,-7.67514 l 1.52972,-2.0058 q 3.16421,-10.81426 5.24072,-26.92166 l 2.96029,-10.2143 q 0.041,-0.1522 -0.58721,-0.1522 -2.18525,0 -12.46778,1.8417 l -1.30459,-7.56624 q -0.80275,-19.49216 -1.25983,-19.7438 -0.83514,-6.22896 -3.30365,-10.42752 -4.21287,-6.91424 -8.25711,-10.32614 -3.06088,-2.70276 -8.76181,-4.47648 l -4.15143,-4.16619 q -0.46719,0.64282 -0.95206,0.64282 -0.71649,0 -1.47152,-1.40369 -0.95957,-1.32486 -1.07187,-2.28464 -1.06531,-9.4003 -1.79184,-11.57028 -0.66928,-2.57312 -2.39969,-4.52524 -2.65756,-3.00116 -11.90512,-5.5062 z"
         id="path2"
         inkscape:connector-curvature="0" />
    </g>
  </g>
</svg>
