<?xml version="1.0" encoding="UTF-8" standalone="no"?>
<svg
   xmlns:dc="http://purl.org/dc/elements/1.1/"
   xmlns:cc="http://creativecommons.org/ns#"
   xmlns:rdf="http://www.w3.org/1999/02/22-rdf-syntax-ns#"
   xmlns:svg="http://www.w3.org/2000/svg"
   xmlns="http://www.w3.org/2000/svg"
   xmlns:sodipodi="http://sodipodi.sourceforge.net/DTD/sodipodi-0.dtd"
   xmlns:inkscape="http://www.inkscape.org/namespaces/inkscape"
   version="1.1"
   width="697.28534"
   height="760.33044"
   viewBox="0 0 697.28535 760.33044"
   id="svg7"
   sodipodi:docname="together_dynamic_female1.svg"
   inkscape:version="1.0.2 (e86c870879, 2021-01-15)">
  <metadata
     id="metadata13">
    <rdf:RDF>
      <cc:Work
         rdf:about="">
        <dc:format>image/svg+xml</dc:format>
        <dc:type
           rdf:resource="http://purl.org/dc/dcmitype/StillImage" />
        <dc:title></dc:title>
      </cc:Work>
    </rdf:RDF>
  </metadata>
  <defs
     id="defs11" />
  <sodipodi:namedview
     pagecolor="#ffffff"
     bordercolor="#666666"
     borderopacity="1"
     objecttolerance="10"
     gridtolerance="10"
     guidetolerance="10"
     inkscape:pageopacity="0"
     inkscape:pageshadow="2"
     inkscape:window-width="1920"
     inkscape:window-height="997"
     id="namedview9"
     showgrid="false"
     fit-margin-top="0"
     fit-margin-left="0"
     fit-margin-right="0"
     fit-margin-bottom="0"
     inkscape:zoom="0.46614563"
     inkscape:cx="159.84327"
     inkscape:cy="493.65744"
     inkscape:window-x="0"
     inkscape:window-y="0"
     inkscape:window-maximized="1"
     inkscape:current-layer="svg7"
     inkscape:document-rotation="0" />
  <rect
     style="fill:#ffffff;stroke-width:5.66929;stroke-linecap:square;stroke-linejoin:round;stroke-dasharray:11.3386, 11.3386"
     id="rect832"
     width="697.28534"
     height="760.33044"
     x="0"
     y="0" />
  <g
     id="layer1"
     transform="matrix(2.2276662,0,0,2.2276662,-500.1209,-747.98579)">
    <g
       style="fill:#000000;fill-opacity:1;stroke-linejoin:miter"
       id="g4">
      <path
         d="m 305.1532,355.04745 q 0.0959,0 0.2565,0.006 h -3.4e-4 q -0.16036,-0.006 -0.25616,-0.006 -0.0959,0 -0.12705,0.006 v 0 q 0.0312,-0.006 0.12705,-0.006 z m 6.0364,0.32917 q -0.002,0 -0.004,0 -0.002,0 -0.004,0 z m -0.49444,0.006 q -0.007,0 -0.0147,0 -0.007,0 -0.0148,0 z m -16.41092,4.90002 q 0,0 0,0 v 0 q 0,0 0,0 z m 87.85873,6.48392 q 1.85215,0 3.58158,0.36586 -1.72943,-0.36586 -3.58158,-0.36586 -1.85214,0 -3.82697,0.36586 h -2e-5 q 1.97485,-0.36586 3.82699,-0.36586 z m -98.19137,8.61096 q -0.526,4.5157 -1.0083,6.3716 -0.34216,1.41615 -0.82083,2.5833 v 0 l 1.16818,-6.15814 q 0.3345,-1.52942 0.65811,-2.79676 z m -2.33597,11.6268 -1.40259,7.3939 z m 36.83317,8.716 q 5.7e-4,0 10e-4,0 h 0.003 q -0.001,0 -0.003,0 -0.002,0 -0.004,0 z m 55.5791,4.65354 q 0.002,0 0.004,0 h -0.007 q 0.002,0 0.004,0 z m -4.8406,1.70766 0.012,0.0153 -0.003,0.003 v 0 l 0.003,-0.003 -0.0119,-0.0151 h -0.004 q -1e-4,-1.3e-4 -1.9e-4,-2.6e-4 z m -3.68968,1.52754 q 0.1463,0 0.26193,0.0486 v 0 q -0.11565,-0.0486 -0.26193,-0.0486 -0.14627,0 -0.32322,0.0486 0.17695,-0.0486 0.32322,-0.0486 z m -1.91309,1.22153 q -0.002,0 -0.003,0 -0.002,0 -0.003,0 z m 75.69049,1.10103 -9e-5,0.003 h -10e-4 z m -46.31115,1.46 q 0.001,0 0.003,0 h -0.005 q 0.001,0 0.003,0 z m 46.31073,-1.44504 -0.0784,2.81739 q -0.19633,-0.77597 -0.18013,-1.42139 0.015,-0.63571 0.2541,-1.396 z m -42.2665,8.38704 q 0.89473,0 1.83357,0.0573 h -7e-5 q -0.93883,-0.0573 -1.8335,-0.0573 -0.89476,0 -1.74534,0.0573 0.85058,-0.0573 1.74534,-0.0573 z m 24.78346,22.28166 0.10358,0.0564 -0.10361,-0.0564 z m -0.22674,0.0815 v 0 q -10e-4,0 -0.002,0 -10e-4,0 -0.002,0 z m -150.75137,5.37065 q 4.8e-4,0 0.001,0 h -0.002 q 5.2e-4,0 10e-4,0 z m 140.53415,5.33796 q 10e-4,0 0.002,0 h -0.005 q 10e-4,0 0.002,0 z m -2.41486,0.93144 q 10e-4,0 0.002,0 h -0.004 q 10e-4,0 0.002,0 z M 268.8703,446.43225 q -0.1266,2.29602 -0.78195,3.50659 -0.51115,1.00616 -1.58899,1.96399 1.49249,-3.7388 2.36502,-5.46435 l 0.003,-0.006 z m 95.22104,-0.59549 -5.46668,8.53274 v 0 z m -100.99661,11.53308 q 3.3e-4,0 6.4e-4,0 h 10e-4 q -5e-5,0 -10e-5,0 z m -7.17958,6.34888 q -0.0733,0.0382 -0.0784,0.0396 h -3.9e-4 q 0,-0.001 0.0527,-0.0309 l 0.0235,-0.009 z m 246.1913,-5.40418 2.82805,7.99299 v 0 z m -136.6789,8.38953 q 10e-4,0 0.003,0 h -0.006 q 0.002,0 0.003,0 z m 139.65335,0.30911 q -10e-4,0 -0.002,0 -10e-4,0 -0.002,0 z m -142.07977,-0.45848 1.90577,1.03618 h -4e-5 z m 2.5741,1.39958 1.14413,0.62212 v 0 l -1.14413,-0.62212 h -0.004 q 0,0 4e-5,0 z m -0.19791,0.73096 0.99826,0.54226 z m 73.26904,5.30069 0.44358,0.0949 h -7e-5 z m -4.9e-4,-1.3e-4 -0.0566,0.26463 v 0 z m 0.57746,0.82878 -0.40088,1.87602 z m 71.98105,21.24442 q -0.001,0 -0.002,0 -0.001,0 -0.002,0 z m -169.14988,5.95565 q -4e-4,0 -8e-4,0 -4e-4,0 -7.8e-4,0 z m -0.0179,0.011 q -2.5e-4,0 -5.2e-4,0 -2.7e-4,0 -5.5e-4,0 z m 168.0253,9.71307 v 0 q -0.002,0 -0.004,0 -0.002,0 -0.004,0 z m -243.31105,7.16949 q 0.004,0 0.009,4e-5 -0.004,-4e-5 -0.009,-4e-5 -0.004,0 -0.009,4e-5 h -6e-4 q 0.005,-4e-5 0.009,-4e-5 z m 4.72273,7.36524 0.008,0.0463 z m 0.55177,-2.6773 3.5104,6.46105 -0.7627,0.17365 -2.91028,-5.5772 0.16188,-1.0532 z m -5.87132,-0.51704 -0.37868,7.43024 -4.78294,0.1485 5.15772,-7.573 z m 5.31022,4.72674 1.4742,2.7351 q -0.69842,0.4332 -1.02245,0.5419 -0.11872,0.0417 -0.20078,0.0417 -0.13525,0 -0.17097,-0.11343 -0.13793,-0.25546 -0.15673,-1.00735 -0.0225,-0.56265 0.0762,-2.19275 z m -3.16346,-0.59106 0.46912,4.08142 q -0.39816,0.23304 -0.57642,0.24329 -5.4e-4,0 -10e-4,0 -0.0732,0 -0.13293,-0.42309 -0.11249,-0.75013 0.24084,-3.89896 z m 6.94974,-8.59997 3.62955,13.29156 -0.85993,0.0823 -4.09637,-10.3142 1.31767,-3.0389 z m 80.49744,13.27673 3.07448,0.3682 h -5e-5 z m -87.53916,0.38306 q -0.001,0 -0.002,0 -0.001,0 -0.002,0 z m 91.24216,0.0604 2.42498,0.29045 -2.4252,-0.29045 z m 0.0864,0.7581 2.23373,0.2635 -2.23373,-0.2635 h -0.004 q 0,0 0,0 z m 78.46478,1.1406 q 0.03,0 0.0579,0.003 h -2.7e-4 q -0.0277,-0.003 -0.0577,-0.003 -0.0299,0 -0.062,0.003 0.0321,-0.003 0.062,-0.003 z m 0.29849,0.11593 q 1.2e-4,0 2.4e-4,0 h -0.005 q 0,0 0,0 z m 44.1965,14.76317 q 10e-4,0 0.003,0 h -0.005 q 0.001,0 0.003,0 z m 2.7985,-10.2581 -2.75442,10.26214 v 0 z m -105.99142,-2.09516 1.80404,0.3487 q 0.65916,7.16036 0.86984,11.27416 0.19739,3.6894 0.0551,6.6656 l -2.7265,-18.27204 z m 2.87838,22.06922 q -0.002,0 -0.004,0 -0.002,0 -0.004,0 z m -49.12842,-14.14456 -4.08696,14.43216 v 0 z m -26.91333,22.9201 q 0.69117,4.5694 -0.098,10.37973 -0.25732,1.87687 -0.77682,4.55292 -2.50854,12.08755 -2.643,13.08722 -0.70053,3.85493 -1.0181,6.74843 -0.28571,2.53196 -0.46695,5.4399 -0.0808,0.9783 -0.42517,8.5898 -0.0731,1.4156 -0.1684,2.7458 -0.19396,2.6934 -0.50601,4.90606 -0.47439,3.4234 -1.36445,7.3183 l -0.90468,3.71774 -0.72718,2.74545 v 0 q 0.66553,-6.97185 0.63743,-10.29955 0.0137,-2.4466 -0.25599,-4.6762 -0.0525,-0.8379 -1.08776,-6.6415 -0.18562,-1.2022 -0.27277,-2.36114 -0.19559,-2.56732 0.23115,-5.56686 0.47616,-3.28885 1.67177,-6.8191 0.0754,-0.63516 4.3071,-10.6423 0.86676,-2.2638 1.31259,-4.07825 0.60819,-2.48999 0.65244,-5.16075 0.0228,-1.38484 -0.0634,-2.68556 l -0.37432,-4.33868 q -0.0422,-1.00996 0.0557,-1.52506 0.11482,-0.6925 0.44425,-1.4238 0.77365,-1.6624 1.83753,-4.0126 z m -10.08423,70.27286 0.2391,0.0646 h -5e-5 z m 0.46344,4.00824 q 0,0 0,0 v 0 q 0,0 0,0 z m -9.11478,7.17334 q -0.005,0 -0.009,0 -0.005,0 -0.009,0 z m 10.3458,0.5097 q 0.20096,0 0.43594,0.11933 -0.23498,-0.11933 -0.43594,-0.11933 -0.20096,0 -0.36789,0.11933 h -3e-5 q 0.16696,-0.11933 0.36792,-0.11933 z m -0.74493,1.44516 q 0.18582,0.1312 0.14083,1.5983 0.0558,0.038 -0.0574,0.038 -0.0402,0 -0.10178,-0.005 l 0.018,-1.61316 z m 78.9515,1.7138 q 10e-4,0 0.002,0 h -0.005 q 10e-4,0 0.002,0 z m 8.95124,4.0264 q -0.018,0 -0.036,0 -0.018,0 -0.0361,0 z M 315.49722,353.42566 q -0.35082,0 -0.79327,0.036 l -2.59122,0.34131 q -0.7008,0.0756 -1.31773,0.0804 -0.053,0.009 -0.1924,0.009 -0.81888,0 -4.61975,-0.30865 -0.50949,-0.028 -0.96607,-0.028 -0.24591,0 -0.47644,0.008 l -0.0519,0.002 q -1.80331,0.0653 -3.34817,0.85602 -0.58893,0.2882 -1.48813,0.8497 l -3.6041,2.33001 -2.1748,1.1662 -0.6102,0.374 q -0.48505,0.31463 -0.98353,0.91061 h -0.003 q -6.21418,4.06074 -8.60768,11.08447 -0.83928,2.24323 -1.73036,6.2096 l -3.27967,17.16809 q -0.87255,4.22688 -1.81467,7.26721 -0.90972,2.93457 -2.1938,5.82467 -0.49775,1.3908 -5.34428,10.45344 -1.00488,2.11822 -1.47352,3.97488 -0.3952,1.47784 -0.6562,3.47108 -0.77534,8.85253 -1.3232,11.37865 -0.94524,5.24975 -2.53942,10.5267 -2.34968,8.43655 -7.92615,16.84125 0.0619,0.8921 0.69471,0.8921 0.26141,0 0.62024,-0.15226 0.84039,-0.50909 5.85852,-5.35657 1.872,11.56153 4.5907,13.75467 l -0.72434,11.33206 q 0.0194,0.4066 0.42594,0.63642 l 1.64382,0.25228 q -0.33734,7.5407 -0.69502,11.06663 -0.55104,5.73747 -1.58748,8.26797 -0.38428,1.58514 -3.94922,6.15106 -0.68213,1.17974 -1.0879,2.89844 -0.86095,3.3629 0.94392,7.0628 h -0.003 l -6.67334,10.9205 -15.82871,68.94205 q 0,0.49439 0.29019,0.68185 l 5.16944,3.44425 9.44378,2.69861 9.32174,-0.0708 q 0.0482,0.0166 0.0948,0.0166 0.55075,0 0.8902,-2.30396 l 4.15577,2.3856 0.0127,-0.0221 h 0.003 q 0.11026,0.0419 0.24583,0.0651 l 15.34368,0.093 q 0.23129,8.14649 -0.25504,11.72705 -0.19327,1.6257 -0.66086,3.47657 -0.0372,0.35363 -1.78653,5.96883 -0.40997,1.47514 -0.66365,2.85056 -0.66108,3.52741 -0.48347,6.83934 0.29587,4.6898 2.33987,8.6762 1.5865,3.069 4.04242,3.11294 4.23508,-0.23041 7.01706,-2.90539 0.58812,-0.41235 1.43826,-2.79505 h 0.003 l -0.0737,8.7394 q 0.10406,0.40385 0.55938,0.5417 l 1.93366,-0.0148 q 0.73642,-0.1842 0.65048,-0.9738 h 0.003 q 2.49808,1.3776 7.453,1.3776 1.03662,0 2.18075,-0.0603 4.6159,-0.32006 6.418,-2.379 1.4725,-1.7408 0.92033,-3.8452 -0.16706,-0.5864 -0.53797,-1.17747 l -1.85686,-2.48663 q -0.4497,-0.65607 -0.83863,-1.4869 -0.98914,-2.09477 -2.04667,-6.10136 l -1.5e-4,-4.9e-4 -0.0768,0.0218 v 0 q -0.40257,-2.16084 -0.0895,-4.42224 0.31766,-2.37933 1.29538,-5.49554 0.8187,-2.65206 2.58982,-7.25906 7.92102,-19.7882 7.94946,-20.1436 1.92261,-5.2204 2.7876,-8.8123 0.82602,-3.4086 1.00262,-6.3036 0.0886,-1.3732 0.0818,-2.8019 -0.15244,-6.59464 -0.0967,-6.91776 0.0378,-2.07788 0.3002,-3.89868 0.58546,-4.01096 2.7636,-9.5965 h -0.003 q 0.17102,-0.0256 0.33468,-0.29576 l 0.48428,-1.71047 h -0.003 q 0.26889,-0.64133 0.55682,-1.30157 l -0.16526,-0.0698 3.65843,-12.92145 4.022,-3.14335 3.38895,-39.78875 q 0.52066,0.69409 0.99289,0.69409 1.63021,0 2.68303,-8.27254 0.87965,-7.4485 -0.15777,-13.214 -0.79863,-5.1435 -4.64755,-14.20142 11.55359,-1.1596 15.29837,-4.13202 3.52878,-2.99656 3.42635,-7.41101 h -0.004 l 5.0026,-7.8063 h 0.004 q -0.34302,2.00107 -1.4758,19.02875 0.0335,0.1769 0.17446,0.26162 l 2.29285,1.24552 h -0.004 q -1.83655,6.84836 -2.66712,10.04876 -2.695,10.30793 -4.0973,17.04673 -2.15645,10.18139 -2.67335,19.95703 -0.42805,8.63144 -0.22623,17.00704 0.068,0.161 0.27496,0.21146 l 3.46915,0.40924 h -0.004 q 0.38828,4.40784 1.0564,7.2338 0.39554,1.74435 0.95514,3.5142 2.93887,8.5517 3.10934,9.3752 0.79186,2.70285 1.0929,4.9716 0.22399,1.7502 0.25346,3.5594 0.0192,1.00913 0.005,2.02586 -0.14243,5.9812 -0.10996,7.40164 0.0119,2.60135 0.2334,6.06503 0.59956,8.82563 1.97149,17.31077 0.68597,4.1488 1.56803,7.6318 2.65444,9.19916 4.04196,14.6871 h -0.004 q -0.095,0.0258 -0.15198,0.1012 l -0.93982,1.1704 q -0.64554,0.95304 -0.98926,2.19047 -0.24944,0.90273 -0.37652,1.88743 -0.6637,7.6135 -1.15116,9.2366 -0.29303,1.32055 -0.90836,2.99914 -2.94476,6.98456 -2.95217,7.49616 -0.75053,2.53625 -0.61066,4.78234 0.24545,5.25986 6.5372,8.55146 1.72611,0.8541 2.83429,0.8541 1.39652,0 1.81171,-1.3564 0.81113,2.0975 2.34695,2.368 1.32282,0.3822 6.93631,0.3822 0.66087,0 1.38123,-0.005 3.55557,-0.1833 5.09631,-1.3945 1.43747,-1.1124 1.29315,-3.75423 -0.057,-1.04444 -0.44852,-2.50617 -0.20413,-0.8875 -1.4294,-4.09656 -0.19102,-0.57208 -0.32007,-1.42694 -0.28443,-1.4216 -0.73143,-11.6927 -0.12874,-0.27226 -0.3414,-0.27226 -0.032,0 -0.0659,0.006 l -1.47485,0.4036 q -1.36137,-2.58774 -1.94904,-4.53574 -0.88479,-2.43323 -1.44753,-8.27586 h -0.004 q 0.1672,-0.0188 0.29413,-0.2287 3.14182,-6.8085 4.70272,-10.86434 2.6028,-6.65942 4.28302,-13.68121 1.95058,-8.12219 3.04984,-15.98779 0.43491,-3.19483 0.57562,-5.24316 l 0.36896,-7.84186 q 0.13316,-1.58234 0.51336,-3.74829 0.82682,-5.01295 5.16852,-21.41835 l 6.82932,0.1081 q 1.1759,-27.5961 1.65096,-35.6639 0.11467,-2.8893 0.004,-4.59122 -0.11612,-2.72123 -1.03817,-6.57118 -0.19224,-1.14037 -3.76194,-13.44237 l -0.95459,-3.95548 q -0.41917,-2.19021 -0.32647,-3.5809 h 0.004 q 0.0275,0.0136 0.0589,0.0238 0.0529,0.007 0.10018,0.007 0.30488,0 0.37367,-0.2922 0.1473,-0.93817 0.28588,-1.82715 h -0.004 q 0.0145,-0.0114 0.0293,-0.0225 l -0.0155,-0.014 h -0.004 q 1.28974,-8.2751 1.8205,-12.27868 0.93787,-6.77752 0.54357,-9.18005 l 0.007,-0.0299 0.5885,0.44845 q 0.1167,0.0385 0.19849,0.0385 0.0752,0 0.12088,-0.0326 l 0.14197,-0.11441 0.61419,-1.03642 q 0.23877,1.02574 1.49069,12.1882 0.33165,2.49394 0.6868,4.1839 0.76055,3.7986 2.36289,5.17052 1.4656,1.38018 5.37206,1.44888 0.4679,1.15234 2.12897,1.6694 1.34093,0.46198 4.4552,0.96185 5.60785,0.85087 8.11661,0.85087 0.1594,0 0.30628,-0.003 1.29342,-0.0162 2.36314,-0.28147 h 0.004 l -0.11798,0.55152 h -0.004 q -0.0197,0.0355 -0.0338,0.0776 -3.80027,13.569 -6.6311,23.09098 -0.74418,2.64142 -1.1984,4.85772 -0.71604,3.48065 -0.9236,7.02895 -0.10348,1.671 -0.14727,3.88444 l -0.0945,8.02566 q -0.052,1.8175 -0.16071,2.7742 -0.14294,1.3059 -0.44281,2.0643 -0.2478,0.70854 -0.94497,1.36686 -0.11628,0.19494 -0.0965,0.38544 4.405,5.6012 10.20111,5.90497 h -0.004 q 6.11169,14.99803 8.16186,21.07133 1.86896,5.39687 2.50748,8.7744 0.49985,2.5296 0.47275,4.97544 0.13555,0.57806 -0.81614,7.49986 -0.1398,1.4489 -0.21063,2.93043 -0.2032,4.21087 0.12082,8.36933 0.36508,6.27634 3.66254,16.62504 l -2.39334,12.22664 -3.19612,2.27126 -3.12954,0.3599 -6.68261,10.82325 -0.0152,3.88598 3.90735,2.39137 q -0.0316,1.33575 -0.59113,2.9311 -3.10177,6.9258 -3.08578,7.54014 -0.58072,2.08666 -0.0671,3.8097 3.4758,6.84069 7.80585,6.84069 3.09247,0 6.62067,-3.48923 1.28878,-1.49996 1.65285,-2.99825 0.21897,-0.80615 0.30817,-1.77161 0.19738,-4.22714 0.35715,-5.04889 0.23315,-1.70581 0.78193,-3.92705 1.598,-6.2381 4.82946,-14.7865 0.82852,1.8551 0.81381,4.7659 0.12927,0.39345 -0.85827,10.87215 -0.14307,2.23322 -0.0777,4.4541 -0.0235,3.16415 1.40817,8.97025 0.15503,0.9098 -0.17725,5.032 l 15.61759,-0.1438 q 0.22863,-0.0765 0.26718,-0.2065 l 0.93378,-3.3661 q 0.38375,-1.6254 0.27706,-3.024 -0.1217,-0.94855 -0.43026,-1.5584 l -1.7325,-3.2325 q -0.0986,-0.4285 -0.0952,-0.9336 0.21945,-3.22936 0.1349,-4.1718 -0.0404,-1.28034 -0.43477,-3.2269 -0.49145,-2.9362 -4.10989,-13.60294 -0.47769,-1.68762 -0.85492,-4.05072 -1.1098,-5.59528 -0.33592,-18.51947 5.91588,-11.71057 6.8563,-16.61857 0.53794,-1.62295 2.8365,-15.51547 l 0.55605,-3.89123 q 0.62455,-7.0832 0.85382,-7.77985 0.083,-0.51855 0.23847,-1.28192 h -0.005 q 0.031,-0.0392 0.0622,-0.0869 l 5.39323,-20.0174 2.86585,0.23745 -0.37256,54.62005 q 0.04,0.31104 0.34402,0.354 l 19.19623,2.5316 12.62018,-15.25644 -7.22795,-71.11521 q -10e-4,-0.34505 -0.3078,-0.42669 l -0.005,-8.3e-4 -2.462,0.69937 v 0 l 1.14092,-3.31393 q 1.12458,-3.34707 1.50658,-5.08947 0.7279,-2.9436 -0.41893,-4.24647 0.52307,-0.0618 0.48053,-0.50563 l -0.5754,-2.22 q -0.0517,-0.0887 -0.18046,-0.14455 l -1.01081,-0.3341 q -0.0727,-0.70063 -0.37979,-2.44455 l -1.34564,-7.4133 -1.06696,-6.1138 q -0.47074,-2.58762 -0.99574,-4.82675 -0.68434,-2.92981 -1.8473,-7.15363 h -0.005 q 0.0251,-0.12512 -0.0255,-0.30804 l -0.21557,-0.59903 h -0.005 q -0.25052,-0.90012 -0.52143,-1.85541 l -0.12829,0.0359 v 0 l -2.03398,-5.65216 q 3.49257,-0.63654 4.2838,-1.2255 0.77575,-0.39868 0.5738,-2.1918 l -0.9018,-4.02887 q -5.76817,-19.52167 -6.2225,-22.11401 -1.1535,-4.59555 -0.89772,-9.74695 -0.20004,-1.29577 -0.6166,-2.16934 -1.49793,-3.28837 -5.55896,-5.22123 -0.96892,-0.90222 -16.37018,-5.02218 -3.03748,-1.08682 -5.43469,-2.88722 l -0.13985,-1.41088 h 0.005 q 0.57731,0.0768 1.07654,0.0768 2.62392,0 3.08994,-2.12313 l 0.30624,-7.58341 q -0.0154,-0.80472 1.6575,-5.73685 0.2121,-0.78741 0.26251,-1.63717 0.15583,-1.62363 -0.90631,-5.07498 -6.47424,-21.00904 -17.69846,-21.00904 -0.6458,0 -1.30733,0.0695 l -0.0935,6.4e-4 q -12.9769,1.06156 -16.55924,8.27189 -1.04522,2.0892 -1.41412,5.79774 -0.2762,1.60258 -0.1718,11.18355 -0.0518,1.90011 -0.40358,3.71267 -0.32846,1.59028 -0.89982,3.15244 -3.39092,8.4014 -3.71587,9.7131 -1.05233,3.36051 -1.38901,6.1074 -0.78506,5.22546 2.23498,6.11734 -5.38372,1.92495 -7.32714,5.31918 -1.01282,1.56937 -1.89951,3.73642 -0.38185,0.6511 -3.26645,9.48312 -0.5102,1.33018 -1.43987,3.08008 v 0 l -0.42487,-4.55725 1.34354,-2.28937 q 0.0916,-0.24075 -0.0957,-0.42668 l -9.8078,-9.90822 q -1.38754,-1.34578 -2.71154,-2.0242 -2.04291,-1.09982 -6.70511,-1.92254 -2.00473,-0.34694 -3.77657,-0.50412 -0.84856,-0.0945 -2.14738,-0.0945 -0.92197,0 -2.07082,0.0476 -0.4774,-0.0347 -0.66844,-0.19874 -0.76618,-0.61367 -1.29419,-2.4154 -0.0953,-0.29824 -0.15604,-0.61032 h -0.004 q 1.91915,-0.55606 2.90844,-2.55276 0.5167,-1.04797 0.91529,-2.69809 l 1.28454,-6.34668 1.67038,-6.83258 q 0.54135,-2.6033 0.0579,-4.13071 -0.21584,-0.70416 -0.5736,-1.28628 l -1.6089,-2.13755 q -0.24952,-0.35751 -0.40684,-0.81436 -0.14106,-0.39467 -0.23761,-1.05462 -0.28519,-4.13117 -0.66333,-5.49469 -0.57322,-2.41751 -1.40665,-3.48618 -0.3641,-0.51285 -1.02032,-0.92018 -2.55933,-0.9981 -2.59232,-1.2887 l -2.05653,-3.2404 q -0.68654,-0.92544 -1.51766,-1.52798 -1.55064,-1.17124 -4.47004,-1.35205 l -0.0977,-0.006 q -0.233,-0.003 -0.46366,-0.003 -6.80981,0 -11.54196,2.53189 -6.92002,4.06367 -9.34271,9.37573 -1.00245,2.03037 -1.81907,5.02872 -0.46746,1.46812 -2.2349,9.86035 -0.3756,1.573 -0.71523,2.41864 -0.38879,0.99109 -0.81587,1.33548 l -0.45687,0.20163 q -0.59741,-0.11804 -0.91153,-0.11804 -0.26245,0 -0.32717,0.0824 -0.53598,0.37671 -0.37513,0.88404 4.17905,6.68237 6.24817,8.39443 1.24923,1.08912 2.53449,1.08912 0.88766,0 1.79248,-0.51947 h 0.004 q 0.1747,0.83737 -0.2898,1.75912 l -2.27105,3.16086 0.66505,0.31659 -0.69413,-0.24202 h -0.004 q -0.21557,0.677 0.25157,1.05144 0.2263,0.14078 0.5315,0.14078 1.26637,0 3.89082,-2.42352 1.69513,-1.69456 1.88944,-4.41007 h 0.004 q 0.32739,1.19457 -0.12905,2.35879 -0.36402,1.07776 -2.4423,3.30555 -0.20377,0.31555 -0.0736,0.68777 0.20768,0.46402 0.6893,0.46402 0.11484,0 0.24524,-0.0264 2.78504,-0.84083 4.08527,-1.8306 2.47009,-1.52927 2.92264,-6.8615 0.54173,1.46077 0.59106,1.75096 l -0.005,6.89734 q -2.583,1.5501 -3.77303,1.8612 -0.19817,0.27802 -6.81213,0.71012 -1.20557,0.14383 -2.20807,0.37125 -2.73132,0.60603 -4.64747,1.98666 -2.79757,2.06671 -4.82723,6.74507 -0.0505,0.1159 -0.10074,0.23335 v 0 q -1.55183,-7.50033 -3.06381,-11.13647 -1.75385,-4.44043 -4.62216,-7.15552 -3.70736,-3.56566 -9.43219,-5.45434 -2.08734,-0.69309 -4.40907,-1.10935 -0.56582,-0.16675 -6.92013,-0.88351 -2.02507,-0.30518 -3.98535,-0.73651 l -0.22462,-2.16413 h -0.003 q 3.53443,-1.46399 5.08897,-2.43896 3.05953,-1.84146 3.07898,-3.9173 0.054,-0.742 -0.18582,-1.73383 -0.0903,-0.37829 -0.25333,-0.90081 -0.8219,-2.44785 -0.91892,-2.85715 -0.28891,-1.03485 -0.42251,-1.92432 -0.15482,-0.975 -0.25275,-2.30625 l -0.2904,-5.02654 q -0.10772,-1.19583 -0.31379,-1.89762 -0.25576,-0.85101 -0.73028,-1.34881 -0.2356,-0.25595 -0.56232,-0.47556 -1.4353,-0.7785 -1.52005,-0.92867 -0.42084,-0.35398 -0.79278,-1.11274 -0.57917,-1.17059 -1.16483,-3.48471 h -0.003 q 0.002,-0.0102 0.003,-0.0206 -0.0962,-4.3368 -0.37549,-6.153 -0.40005,-3.23813 -1.95163,-4.38858 -1.00784,-0.77167 -2.4806,-0.84684 -0.16552,-0.0109 -0.35888,-0.0109 z"
         id="path2"
         inkscape:connector-curvature="0" />
    </g>
  </g>
</svg>
