<?xml version="1.0" encoding="UTF-8" standalone="no"?>
<svg
   xmlns:dc="http://purl.org/dc/elements/1.1/"
   xmlns:cc="http://creativecommons.org/ns#"
   xmlns:rdf="http://www.w3.org/1999/02/22-rdf-syntax-ns#"
   xmlns:svg="http://www.w3.org/2000/svg"
   xmlns="http://www.w3.org/2000/svg"
   xmlns:sodipodi="http://sodipodi.sourceforge.net/DTD/sodipodi-0.dtd"
   xmlns:inkscape="http://www.inkscape.org/namespaces/inkscape"
   version="1.1"
   width="827.93243"
   height="1448.8668"
   viewBox="0 0 827.93244 1448.8668"
   id="svg13"
   sodipodi:docname="together_static_male5.svg"
   inkscape:version="1.0.2 (e86c870879, 2021-01-15)">
  <metadata
     id="metadata19">
    <rdf:RDF>
      <cc:Work
         rdf:about="">
        <dc:format>image/svg+xml</dc:format>
        <dc:type
           rdf:resource="http://purl.org/dc/dcmitype/StillImage" />
        <dc:title></dc:title>
      </cc:Work>
    </rdf:RDF>
  </metadata>
  <defs
     id="defs17" />
  <sodipodi:namedview
     pagecolor="#ffffff"
     bordercolor="#666666"
     borderopacity="1"
     objecttolerance="10"
     gridtolerance="10"
     guidetolerance="10"
     inkscape:pageopacity="0"
     inkscape:pageshadow="2"
     inkscape:window-width="1920"
     inkscape:window-height="997"
     id="namedview15"
     showgrid="false"
     fit-margin-top="0"
     fit-margin-left="0"
     fit-margin-right="0"
     fit-margin-bottom="0"
     inkscape:zoom="0.26755587"
     inkscape:cx="940.95792"
     inkscape:cy="906.42917"
     inkscape:window-x="0"
     inkscape:window-y="0"
     inkscape:window-maximized="1"
     inkscape:current-layer="svg13"
     inkscape:document-rotation="0" />
  <rect
     style="fill:#ffffff;stroke-width:5.66929;stroke-linecap:square;stroke-linejoin:round;stroke-dasharray:11.3386, 11.3386"
     id="rect835"
     width="827.93243"
     height="1448.8668"
     x="0"
     y="0" />
  <g
     id="layer1"
     transform="matrix(8.1376301,0,0,8.1376301,-2816.5842,-3023.2363)">
    <g
       id="g10">
      <g
         style="fill:#000000;fill-opacity:1;stroke-linejoin:miter"
         id="g4">
        <path
           d="m 376.7009,381.28436 c -0.21765,0.0977 -0.47846,0.26548 -0.59125,0.37114 -0.32098,0.29927 -1.13345,0.27025 -1.76477,-0.0658 -0.43838,-0.2326 -0.55203,-0.24928 -1.35553,-0.24342 -0.66375,0.005 -0.99527,0.0596 -1.396,0.20227 -1.01049,0.36545 -1.50628,0.64853 -2.06125,1.20282 -0.53765,0.52796 -0.62417,0.64213 -1.04742,1.29153 -0.29373,0.44755 -1.07418,2.41843 -1.18368,2.9782 -0.0505,0.26238 -0.12635,0.63848 -0.15992,0.8309 -0.13522,0.62108 0.0109,1.50216 0.42987,2.66076 0.66845,1.84677 0.70441,1.98626 0.92768,3.86244 0.0468,0.42766 0.12893,0.91615 0.18261,1.09047 0.0449,0.17433 0.0912,0.5321 0.0931,0.79413 0.002,0.25326 0.0394,0.61108 0.0843,0.78546 0.0449,0.17434 0.15265,0.57531 0.22486,0.89794 0.081,0.3313 0.20703,0.8457 0.29667,1.1595 0.14373,0.5492 0.13518,0.57546 -0.021,0.7251 -0.0955,0.0793 -0.50329,0.4491 -0.90243,0.81005 -0.4079,0.36108 -0.84159,0.77475 -0.9715,0.92415 -0.12128,0.1406 -0.31182,0.36036 -0.41574,0.48338 -0.3811,0.43952 -0.77786,1.13238 -0.87088,1.55232 -0.1439,0.62987 -0.1786,0.66506 -0.7796,0.88777 -0.30493,0.10703 -0.9143,0.38221 -1.3494,0.60373 -0.80057,0.40757 -0.80057,0.40757 -2.0926,0.49555 -0.71572,0.0577 -1.53597,0.1597 -1.8237,0.23165 -0.28762,0.0807 -0.6364,0.16187 -0.7672,0.189 -0.13956,0.0272 -0.6442,0.29288 -1.13113,0.59342 -0.48691,0.30048 -1.06113,0.61035 -1.27875,0.708 -1.04502,0.42682 -1.1319,0.48858 -1.44269,0.98871 -0.58723,0.92137 -0.99933,1.90253 -1.30536,3.05767 -0.0851,0.31507 -0.20074,1.22425 -0.4375,3.49684 -0.16287,1.62573 -0.26517,3.17239 -0.259,4.01953 0.0102,1.3974 0.23663,6.12091 0.33963,7.07213 0.0559,0.48 0.14102,1.37898 0.198,2.00743 0.15072,1.50992 0.25085,2.06814 0.59115,3.22732 0.49262,1.68213 0.57389,2.04835 0.71315,3.18277 0.0739,0.54972 0.18508,1.43106 0.25008,1.96335 0.1846,1.36118 0.17816,2.88093 0.006,3.27521 -0.22351,0.49075 -0.39473,0.97238 -0.54785,1.53247 -0.0765,0.28879 -0.18763,0.62145 -0.2392,0.73541 -0.13768,0.28922 -0.11862,1.70398 0.0335,2.20947 0.0628,0.22663 0.2132,0.49627 0.32753,0.60027 0.20221,0.18196 0.28372,0.58314 0.15375,0.72383 -0.45953,0.46625 -0.66422,3.55084 -0.89005,13.33467 -0.0521,2.4459 -0.0407,4.018 0.0332,5.76427 0.11428,2.50586 0.24984,4.33029 0.33914,4.6004 0.0268,0.0871 0.0916,0.59326 0.14786,1.11688 0.085,0.88155 0.21572,2.04221 0.45684,3.97071 0.18522,1.44848 0.53168,3.45484 0.96576,5.49542 0.0812,0.35754 0.181,0.8721 0.2266,1.13379 0.0456,0.26173 0.20764,0.93303 0.3601,1.48218 0.1525,0.54913 0.31402,1.1419 0.35016,1.30758 0.0449,0.16562 0.18816,0.65369 0.33109,1.08939 l 0.25024,0.78421 -0.0156,2.66403 c -0.0155,1.46741 -0.005,5.35401 0.0192,8.64661 0.0417,5.72931 0.1164,7.59783 0.37967,10.17251 0.12192,1.15202 0.29006,3.85837 0.3963,6.46036 0.26456,6.35646 0.32508,7.474 0.40522,7.68306 0.0533,0.1306 0.0899,0.3487 0.0909,0.48845 0.002,0.30565 0.57436,0.9129 0.9418,0.99755 0.46359,0.0927 0.46366,0.10145 0.46713,0.5818 0.003,0.43664 -0.0225,0.498 -0.42975,0.95513 -0.53712,0.60657 -0.69119,1.03567 -0.68518,1.86537 0.004,0.57635 -0.0882,1.0749 -0.35348,1.8367 -0.17948,0.5428 -0.25388,1.11983 -0.14862,1.1802 0.21056,0.12945 -0.0173,1.2229 -0.50592,2.49286 -0.36872,0.94598 -0.46094,2.67604 -0.2005,3.66104 0.48471,1.7957 2.40341,2.6115 5.41433,2.29263 1.056,-0.11249 2.39815,-0.51523 3.1113,-0.93097 0.58267,-0.34486 1.12042,-0.86406 1.25763,-1.21446 0.17154,-0.4292 0.17389,-1.31136 0.005,-1.78175 -0.0713,-0.19165 -0.1702,-0.58399 -0.23343,-0.87171 -0.10874,-0.54074 -0.29755,-1.28174 -0.44947,-1.75234 -0.16952,-0.49656 -0.0546,-5.1178 0.12745,-5.30247 0.0867,-0.088 3.38055,0.0628 3.9404,0.18097 0.20999,0.0508 0.72577,0.117 1.13655,0.15766 0.4108,0.0407 1.1365,0.14024 1.61744,0.22414 0.48102,0.0838 1.28501,0.1478 1.79156,0.14414 1.0043,-0.016 3.83274,-0.21124 4.0243,-0.29124 0.0697,-0.0267 0.43613,-0.0818 0.82,-0.1283 1.0995,-0.139 2.25855,-0.4968 2.93678,-0.91225 0.33044,-0.2033 0.6344,-0.44125 0.67742,-0.52899 0.14646,-0.28051 0.0796,-2.26269 -0.0892,-2.66321 -0.28437,-0.67045 -0.96097,-1.23325 -1.73099,-1.42858 -0.14001,-0.0339 -0.48132,-0.12751 -0.74388,-0.20417 -0.2626,-0.0767 -0.69996,-0.1696 -0.9623,-0.21136 -0.4458,-0.0578 -1.07537,-0.15808 -2.14223,-0.33374 -0.23612,-0.0419 -0.83069,-0.1337 -1.31162,-0.2088 -0.48099,-0.0839 -0.97075,-0.1764 -1.09329,-0.21045 -0.32392,-0.10242 -1.14656,-0.32355 -1.40894,-0.37405 -0.23617,-0.0507 -0.78122,-0.53586 -0.78235,-0.693 -0.002,-0.22714 -0.44973,-0.59067 -1.1423,-0.94376 -0.41207,-0.21539 -1.06082,-0.55124 -1.44657,-0.74934 -0.3858,-0.20683 -0.7978,-0.41344 -0.91174,-0.465 l -0.20156,-0.0946 0.0513,-1.3542 c 0.0208,-0.74256 0.0755,-1.6338 0.11672,-1.966 0.10712,-0.88294 0.0393,-9.00513 -0.0772,-9.4148 -0.0537,-0.183 -0.10071,-0.63684 -0.1121,-1.0036 -0.0138,-0.6899 0.0626,-1.00488 0.47498,-1.9424 0.29199,-0.6834 0.31763,-0.7622 0.40033,-1.40038 0.0414,-0.31472 0.1329,-0.94427 0.20819,-1.39898 0.0753,-0.45471 0.16699,-1.04938 0.20005,-1.31162 0.0417,-0.26232 0.1169,-0.73452 0.16705,-1.04928 0.1004,-0.6034 0.17553,-1.08434 0.38333,-2.53571 0.16629,-1.15411 0.35879,-2.30841 0.46066,-2.71087 0.11859,-0.50748 0.31293,-1.40851 0.42239,-1.96826 0.0591,-0.28867 0.15183,-0.7435 0.21107,-1.00596 0.14388,-0.62991 0.33785,-1.58334 0.46414,-2.23056 0.0591,-0.28866 0.15182,-0.74353 0.21978,-1.00604 0.0592,-0.26244 0.16916,-0.76108 0.24538,-1.09354 0.31258,-1.4521 0.69377,-3.07943 1.02467,-4.41815 0.16126,-0.64749 0.33969,-1.33005 0.38199,-1.52249 0.0848,-0.34126 0.51508,-1.23529 3.1236,-6.45099 1.60124,-3.20834 1.67007,-3.34857 1.8844,-3.90039 0.24017,-0.60438 1.59034,-4.71051 1.81154,-5.51562 0.27232,-0.98896 0.4016,-1.22571 1.11952,-2.19166 0.71792,-0.966 1.0795,-1.6848 1.24795,-2.54196 0.32865,-1.65316 0.4285,-2.33511 0.74241,-4.80917 0.0656,-0.58563 0.20269,-0.95343 0.91665,-2.46094 0.16347,-0.34179 0.29193,-0.69203 0.29137,-0.77066 -5e-4,-0.0699 0.0503,-0.28857 0.1189,-0.46374 0.0685,-0.18396 0.23078,-0.69168 0.3587,-1.12061 0.12782,-0.43762 0.33247,-1.12036 0.4605,-1.5318 0.31597,-0.98926 0.476,-1.80267 0.71603,-3.62985 0.1159,-0.87424 0.27127,-4.73587 0.34604,-8.86761 0.0295,-1.94791 0.0815,-4.40262 0.10879,-5.45963 0.0272,-1.05701 0.0319,-4.02661 0.0132,-6.5943 l -0.0427,-4.67243 -0.25854,-0.72308 c -0.32074,-0.87106 -0.73499,-1.38336 -2.57324,-3.14309 -0.88834,-0.84949 -1.6264,-1.45551 -2.70615,-2.20753 -0.81641,-0.57052 -1.55371,-1.07174 -1.64145,-1.1235 -0.0876,-0.043 -0.63162,-0.3797 -1.21063,-0.73358 -1.10535,-0.67316 -1.211,-0.78595 -1.59375,-1.77887 -0.0356,-0.0958 -0.13337,-0.32217 -0.21332,-0.50505 -0.0799,-0.18282 -0.14252,-0.38322 -0.14298,-0.44435 -5.2e-4,-0.0699 -0.0628,-0.23538 -0.13366,-0.36591 -0.11499,-0.20001 -0.13419,-0.43567 -0.0959,-1.16961 0.0225,-0.50678 0.0794,-1.09235 0.1215,-1.31103 0.2779,-1.41694 0.39703,-1.8545 0.6118,-2.34516 0.21485,-0.48194 0.30155,-0.56992 0.70185,-0.77374 0.9223,-0.4784 1.95291,-1.68244 2.58075,-3.02332 0.0774,-0.1665 0.28378,-0.61348 0.45578,-0.98151 0.17197,-0.37683 0.44788,-0.86795 0.60342,-1.09619 0.15555,-0.22821 0.40516,-0.73658 0.5596,-1.11328 0.15442,-0.3854 0.31763,-0.76215 0.35206,-0.83228 0.0431,-0.0789 0.14484,-0.4989 0.22906,-0.92749 0.18518,-0.96209 0.16501,-2.53408 -0.0503,-3.30987 -0.29646,-1.13324 -0.41266,-1.49924 -0.49228,-1.63843 -0.0443,-0.087 -0.0801,-0.20898 -0.0805,-0.27013 -0.003,-0.41923 -1.07916,-1.86997 -1.7818,-2.40638 -0.25464,-0.19032 -0.61477,-0.4672 -0.79052,-0.61438 -0.55344,-0.44144 -2.28009,-1.27606 -3.00632,-1.45416 -0.84003,-0.21228 -1.19806,-0.20093 -1.703,0.0211 z"
           id="path2"
           inkscape:connector-curvature="0" />
      </g>
      <g
         style="fill:#000000;fill-opacity:1;stroke-linejoin:miter"
         id="g8">
        <path
           d="m 410.1276,383.87122 c -0.0435,0.0178 -0.19175,0.0538 -0.31385,0.0809 -0.1308,0.0272 -0.40909,0.19512 -0.60867,0.37126 -0.20835,0.17621 -0.55568,0.4582 -0.76401,0.6344 -0.57287,0.49326 -0.5816,0.49334 -1.07247,0.25238 -0.412,-0.20666 -0.55186,-0.22311 -1.48637,-0.2163 -0.68997,0.005 -1.12631,0.0519 -1.3179,0.13183 -0.48755,0.2132 -1.90903,1.71703 -2.24478,2.38323 -0.0947,0.19288 -0.36218,0.64024 -0.58661,1.0087 -0.21574,0.3597 -0.51754,0.89463 -0.65518,1.18388 -0.23218,0.49952 -0.24902,0.58697 -0.23312,1.57382 0.0168,1.10037 0.2586,3.13367 0.42776,3.57785 0.0447,0.13945 0.16907,0.42675 0.25793,0.63575 0.38157,0.82696 0.42677,1.03625 0.4795,2.28484 0.0225,0.69856 0.0977,1.42296 0.15149,1.61469 0.0538,0.19177 0.14328,0.4881 0.1969,0.65362 0.0536,0.16559 0.23916,0.46118 0.41525,0.65205 0.1936,0.1995 0.45886,0.643 0.62771,1.0435 0.45334,1.0885 0.53315,1.25386 0.62085,1.30564 0.0526,0.0258 0.0883,0.12162 0.0975,0.20016 5.8e-4,0.0786 0.12469,0.331 0.28348,0.5482 1.17375,1.66842 1.12039,1.5378 1.27121,3.05642 0.0566,0.57605 0.0567,0.59351 -0.16974,0.6825 l -0.22644,0.089 0.007,1.02186 c 0.004,0.61134 -0.0432,1.26674 -0.11942,1.59918 -0.0676,0.31494 -0.14358,0.67358 -0.16888,0.79602 -0.0252,0.13124 -0.17182,0.39429 -0.31888,0.58752 -0.15582,0.1933 -0.49288,0.68485 -0.74319,1.08847 -0.48358,0.76337 -0.88257,1.14185 -1.70025,1.60193 -0.66974,0.38044 -1.9201,1.39396 -2.43973,2.00037 -0.24259,0.27252 -0.82285,0.94928 -1.29929,1.49423 -0.84015,0.96689 -2.05905,2.70508 -2.3165,3.33579 -0.0774,0.16653 -0.21478,0.49069 -0.32654,0.73605 -0.41229,0.95505 -0.44534,1.21726 -0.49734,3.67194 -0.0168,1.29274 -0.0605,2.49838 -0.0942,2.66458 -0.15124,0.82208 -0.31924,1.74042 -0.38714,2.01166 -0.0338,0.1662 -0.12665,0.60357 -0.20264,0.9622 -0.076,0.35866 -0.17749,0.81355 -0.21979,1.00603 -0.20275,0.94477 -0.5134,2.66763 -0.67169,3.71687 -0.0498,0.35847 -0.15048,0.92693 -0.20914,1.26796 -0.0587,0.33234 -0.17645,0.96204 -0.25186,1.39929 -0.0755,0.42853 -0.17654,0.94455 -0.21008,1.13693 -0.27038,1.25095 -0.53868,7.6026 -0.38794,9.11252 0.0663,0.70697 0.0596,0.99524 -0.0335,1.3977 -0.0679,0.27125 -0.16119,0.6562 -0.20349,0.84864 -0.051,0.19254 -0.12744,0.49006 -0.17862,0.65636 -0.22186,0.71785 -0.35379,1.79304 -0.57772,4.63328 -0.11964,1.56427 -0.1143,2.29788 0.0228,3.14412 0.14642,0.916 0.2446,1.2035 0.59811,1.7774 0.3624,0.59127 0.3624,0.59127 0.50888,2.72134 0.0971,1.33563 0.1001,1.75482 0.007,2.09613 -0.0507,0.2362 -0.13501,0.6473 -0.17678,0.9096 -0.18296,1.26779 -0.25016,1.63513 -0.32706,1.87149 -0.0514,0.14011 -0.0835,0.52466 -0.0811,0.85651 0.004,0.53278 0.0486,0.67218 0.40294,1.35956 1.00091,1.92297 1.61876,2.80937 2.75403,3.98895 0.61608,0.6506 0.93151,0.78802 1.03399,0.46414 0.0767,-0.26257 -0.10034,-0.58444 -0.66366,-1.18302 -0.4753,-0.5031 -0.6259,-0.79024 -0.47843,-0.93105 0.0606,-0.0704 1.40203,0.62741 2.20935,1.14555 0.70203,0.4578 1.04331,0.5427 1.1814,0.3146 0.13812,-0.21937 -0.0477,-0.5499 -0.46002,-0.8002 -0.23688,-0.14674 -0.4131,-0.3551 -0.5639,-0.67716 -0.11536,-0.25244 -0.3891,-0.66099 -0.6004,-0.89524 -0.44032,-0.49466 -0.60822,-0.76422 -0.6097,-0.9651 -0.001,-0.17464 0.8024,-1.3596 1.23573,-1.82567 0.20795,-0.22858 0.31997,-0.43896 0.31891,-0.58743 -0.004,-0.53275 -0.59626,-0.31885 -1.26309,0.46332 -0.5456,0.64158 -0.6854,0.63382 -0.72507,-0.0209 -0.0201,-0.35791 0.03,-0.68146 0.20099,-1.18054 0.13665,-0.42896 0.23758,-0.96246 0.2604,-1.42554 0.0387,-0.68152 0.0643,-0.76907 0.32423,-1.05917 0.30318,-0.34287 0.3458,-0.49161 0.4266,-1.39183 0.0326,-0.31468 0.1504,-0.93566 0.26065,-1.3906 0.11025,-0.44624 0.20361,-0.82252 0.20349,-0.83998 -6e-5,-0.009 0.0695,-0.0529 0.15662,-0.0797 0.0784,-0.0268 0.24374,-0.1153 0.3655,-0.18608 0.35664,-0.20348 0.40101,-0.1077 0.69264,1.56712 0.2001,1.0903 0.39965,2.11075 0.52593,2.66008 0.0721,0.3139 0.19119,1.07292 0.26567,1.70122 0.16683,1.32635 0.28575,2.06788 0.457,2.79153 0.37807,1.55195 0.58586,2.50245 0.6772,3.05205 0.40302,2.57363 0.89463,5.32128 1.193,6.71657 0.19873,0.90689 0.4161,1.97089 0.4975,2.35458 0.0727,0.38375 0.17202,0.83722 0.21688,1.00285 0.31452,1.21175 0.61658,3.11358 0.82382,5.1908 0.0468,0.4276 0.14945,1.33522 0.2329,2.00713 0.0835,0.67193 0.18632,1.59697 0.2334,2.0683 0.0383,0.46261 0.103,0.95127 0.13023,1.09082 0.0271,0.1308 0.0921,0.65439 0.14819,1.16052 0.0845,0.82043 0.15912,1.46619 0.4646,3.83966 0.11108,0.86387 0.33051,2.21603 0.51191,3.14057 0.15417,0.77618 0.22711,1.20364 0.39177,2.2243 0.0548,0.3315 0.13658,0.76764 0.18165,0.95944 0.0451,0.19183 0.15355,0.69763 0.23532,1.13373 0.18198,1.00308 0.28165,1.50021 0.44477,2.31131 0.0725,0.35757 0.19943,1.00296 0.28122,1.43909 0.0817,0.42736 0.18167,0.95941 0.22689,1.17743 0.0816,0.4099 0.29123,1.6137 0.45605,2.6606 0.0461,0.3315 0.1387,1.0558 0.18632,1.59696 0.15051,1.48371 0.14158,1.45758 0.61448,1.62884 1.16475,0.42823 1.58556,0.6435 1.5868,0.8182 10e-4,0.1572 -0.76635,1.50786 -1.7248,3.0258 -0.54402,0.85987 -0.7259,1.0708 -1.71537,1.92523 -1.46673,1.28583 -2.90563,2.78977 -3.24195,3.38617 -0.77575,1.42054 -0.92984,1.8496 -0.92413,2.6357 0.004,0.51524 0.0216,0.56755 0.31177,0.83617 0.39568,0.36393 0.71112,0.50143 1.53332,0.67013 1.45196,0.2864 1.90631,0.3093 3.14548,0.16055 0.64578,-0.0746 1.41342,-0.20239 1.70108,-0.28315 0.28772,-0.072 0.64508,-0.1706 0.80206,-0.20665 0.50556,-0.13471 1.59037,-1.09461 1.58814,-1.40025 -7.7e-4,-0.1048 0.0498,-0.3585 0.11822,-0.5599 0.0596,-0.21 0.17896,-0.61267 0.25548,-0.9014 0.21288,-0.7527 0.28166,-0.9017 0.67934,-1.4636 l 0.36322,-0.5005 0.71606,-0.0139 c 0.79478,-0.006 0.90894,0.0808 0.72894,0.5537 -0.0769,0.2276 -0.19064,1.40755 -0.2756,2.93667 -0.0549,0.85633 0.10931,3.02117 0.24216,3.27349 0.0531,0.0957 0.40475,0.4076 0.7911,0.693 0.38638,0.2854 0.83426,0.6228 1.0011,0.74384 0.23716,0.1817 0.456,0.25 0.94541,0.2901 0.62051,0.0566 0.63807,0.0652 1.08677,0.52483 0.28157,0.28614 0.5818,0.73817 0.80346,1.19074 0.46109,0.94867 0.51449,1.08803 0.69659,2.10858 0.19989,1.06409 0.31475,1.2467 1.43951,2.18175 0.65904,0.5455 0.98368,0.75276 1.50031,0.9324 0.3591,0.13713 0.73566,0.27416 0.83206,0.3171 0.79737,0.3523 4.22174,0.441 5.50345,0.1347 0.38364,-0.0901 0.78452,-0.2153 0.89755,-0.286 0.5564,-0.3534 0.48291,-2.056 -0.12743,-3.1171 -0.17695,-0.30445 -0.31864,-0.57417 -0.31877,-0.5916 -1.5e-4,-0.0175 -0.32711,-0.54793 -0.72479,-1.1826 -0.55676,-0.8956 -1.7471,-2.44157 -2.18674,-2.8489 -0.3781,-0.34663 -1.60345,-1.90114 -2.35363,-2.9699 -0.25587,-0.3563 -0.9559,-1.73995 -1.72769,-3.3763 -0.142,-0.3134 -0.33708,-0.71375 -0.43448,-0.8965 -0.32788,-0.65264 -0.30182,-0.67034 0.85968,-0.6875 1.09164,-0.0167 1.74579,-0.14367 1.85779,-0.3541 0.0602,-0.1315 0.11803,-0.586 0.36047,-3.2779 0.073,-0.7692 0.16238,-1.6956 0.20343,-2.054 0.0411,-0.3584 0.12799,-1.6167 0.19806,-2.79635 0.07,-1.17965 0.15555,-2.63015 0.19482,-3.23305 0.42591,-6.2916 0.68585,-13.78737 0.65122,-18.55595 -0.0192,-2.63755 0.002,-3.31018 0.11258,-3.73899 0.10168,-0.42871 0.12415,-0.94418 0.0859,-2.59463 -0.0278,-1.41473 -0.007,-2.20093 0.0604,-2.49838 0.25422,-1.07615 0.51453,-2.51047 0.6131,-3.36713 0.15592,-1.3811 0.38773,-5.54022 0.54026,-9.7861 0.0362,-1.03089 0.0899,-2.05316 0.11454,-2.2717 0.0246,-0.21854 0.0794,-1.08362 0.11703,-1.92236 0.0671,-1.58133 0.126,-1.88746 0.42071,-2.20406 0.0953,-0.10548 0.19856,-0.31584 0.22356,-0.48198 0.0505,-0.25366 0.0852,-0.28885 0.3385,-0.29068 0.1572,-10e-4 0.33235,0.0588 0.394,0.12814 0.17617,0.20832 1.14535,0.16639 1.43194,-0.0628 0.19104,-0.14984 0.29572,-0.16808 0.69779,-0.12732 0.46331,0.0577 0.48074,0.0489 0.60127,-0.18781 0.0689,-0.14025 0.15443,-0.38543 0.1882,-0.5429 0.0591,-0.27991 0.13738,-0.32415 0.6435,-0.38895 0.25303,-0.0368 0.42478,-0.4398 0.4294,-1.00754 0.007,-0.21844 0.11794,-0.59479 0.27267,-0.93656 0.26663,-0.56963 0.26645,-0.59585 0.22406,-1.61742 l -0.0425,-1.04776 -0.55678,-0.89557 -0.56549,-0.89551 -0.009,-1.26639 c -0.005,-0.6987 0.0333,-1.42389 0.0843,-1.61642 0.0423,-0.19245 0.10907,-0.61219 0.14166,-0.93555 0.0239,-0.31464 0.1001,-0.64703 0.16067,-0.72613 0.0605,-0.0878 0.30436,-0.18561 0.58353,-0.23133 0.89857,-0.14624 1.10431,-0.67182 0.96077,-2.40008 -0.0476,-0.5412 -0.0421,-0.97794 0.009,-1.14424 0.0768,-0.2451 0.58673,-0.99126 0.95932,-1.3957 0.49402,-0.52763 1.06174,-1.72834 1.16156,-2.41032 0.0331,-0.26228 0.14228,-0.85698 0.23505,-1.31183 0.0928,-0.45483 0.16663,-1.11045 0.17291,-1.44238 -0.002,-0.34061 0.054,-0.98734 0.12054,-1.44202 0.0666,-0.45465 0.12391,-0.97909 0.12256,-1.1625 -10e-4,-0.17465 0.0321,-0.39328 0.0751,-0.48093 0.37045,-0.70142 0.60918,-1.49796 0.8526,-2.86224 0.15918,-0.92695 0.11438,-2.28916 -0.0993,-2.8378 -0.51611,-1.31513 -0.61517,-1.72492 -0.71027,-2.78978 -0.048,-0.60228 -0.15826,-1.3439 -0.2304,-1.6578 -0.0809,-0.31384 -0.2253,-0.9591 -0.3249,-1.43878 -0.17162,-0.78482 -0.25295,-1.15979 -0.54113,-2.35424 -0.27057,-1.17713 -0.38711,-1.5868 -0.45794,-1.71728 -0.0443,-0.087 -0.0802,-0.21778 -0.0808,-0.29637 -6.4e-4,-0.0874 -0.0638,-0.36636 -0.14438,-0.63656 -0.0806,-0.27017 -0.17935,-0.64502 -0.2332,-0.83679 -0.0538,-0.19175 -0.14348,-0.52301 -0.2062,-0.74088 -0.0627,-0.2179 -0.1881,-0.645 -0.26898,-0.95877 -0.0896,-0.31378 -0.50952,-1.60339 -0.93799,-2.87546 -0.42849,-1.27207 -0.84823,-2.54422 -0.93768,-2.83175 -0.71618,-2.40542 -1.2048,-3.5373 -2.15845,-4.96277 -0.22955,-0.33895 -0.45935,-0.71283 -0.5301,-0.83463 -0.12413,-0.25238 -0.54668,-0.71222 -0.8981,-0.98916 -0.12294,-0.0952 -0.39528,-0.31153 -0.61483,-0.47589 -0.21954,-0.16437 -0.41284,-0.32017 -0.4393,-0.35489 -0.0969,-0.11286 -1.05297,-0.67362 -1.45599,-0.84538 -0.50821,-0.22338 -1.0852,-0.29778 -3.66296,-0.4625 -1.05728,-0.0622 -2.11492,-0.17677 -2.35992,-0.2361 -0.2363,-0.0682 -0.65635,-0.17868 -0.92762,-0.24658 -0.60382,-0.16156 -1.19108,-0.44552 -1.96344,-0.96392 -0.71097,-0.48396 -1.14886,-0.64668 -1.70779,-0.64262 -0.40175,0.003 -0.43683,-0.023 -0.92095,-0.53482 -0.44884,-0.46838 -0.61683,-0.74664 -0.8394,-1.3302 -0.16904,-0.42676 -0.2557,-1.53534 -0.1535,-1.89423 0.11093,-0.35888 0.32754,-0.59625 0.55462,-0.5979 0.2096,-0.002 0.78268,-0.46863 0.92038,-0.74908 0.18064,-0.37689 0.3608,-0.82367 0.4889,-1.22635 0.0597,-0.1926 0.14553,-0.4028 0.18875,-0.46426 0.052,-0.0615 0.0932,-0.39374 0.11688,-0.74326 0.0221,-0.55914 0.33581,-1.86288 0.53384,-2.25732 0.0431,-0.0789 0.10269,-0.28896 0.12763,-0.46384 0.0337,-0.17492 0.0936,-0.34132 0.13705,-0.36782 0.0435,-0.0265 0.0771,-0.21018 0.0756,-0.41108 -10e-4,-0.20087 0.0741,-0.62064 0.16794,-0.92702 0.0851,-0.30635 0.1442,-0.58625 0.1265,-0.62104 -0.11496,-0.19129 -0.21857,-1.22992 -0.14154,-1.44883 0.0686,-0.17517 0.0591,-0.27993 -0.0292,-0.41903 -0.0706,-0.0956 -0.25636,-0.41736 -0.41566,-0.70444 -0.1593,-0.28708 -0.7059,-0.99048 -1.19915,-1.56336 -0.49325,-0.57284 -1.01297,-1.18048 -1.14517,-1.3455 -0.13223,-0.16496 -0.44012,-0.46843 -0.68618,-0.67622 -0.24604,-0.19913 -0.64158,-0.54563 -0.8877,-0.76218 -0.8352,-0.75378 -1.60696,-1.18488 -2.28015,-1.27606 -0.23605,-0.0332 -0.51587,-0.0748 -0.61205,-0.0916 -0.0962,-0.0168 -0.20973,-0.016 -0.262,0.002 z m 19.34405,58.61355 c 0.11771,0.57563 -0.0713,2.21027 -0.2872,2.5437 -0.10375,0.14923 -0.21645,0.26361 -0.26892,0.25525 -0.17493,-0.0337 -0.0648,-2.89922 0.1246,-3.28492 0.0776,-0.1403 0.10373,-0.14922 0.21817,-0.0278 0.0704,0.0694 0.16815,0.30448 0.21335,0.51377 z m -1.36179,6.10633 c 6.7e-4,0.0961 -0.0599,0.1751 -0.12976,0.1756 -0.1485,10e-4 -0.15735,-0.0163 -0.0801,-0.20905 0.0771,-0.20142 0.20838,-0.17621 0.2099,0.0334 z m -14.33076,23.09228 c 0.0647,0.49738 0.14845,1.1955 0.186,1.55334 0.0653,0.57596 0.19225,1.22138 0.46285,2.3985 0.2167,0.97663 0.61502,2.90398 0.72405,3.48838 0.0367,0.23556 0.13636,0.73266 0.21757,1.09015 0.0725,0.35755 0.18163,0.95941 0.22813,1.34338 0.0551,0.37517 0.11873,0.71533 0.13643,0.75015 0.0265,0.0348 0.0809,0.31384 0.1268,0.6192 0.0546,0.30527 0.17352,1.04685 0.27399,1.64875 0.10916,0.60183 0.19258,1.26504 0.19418,1.48339 0.002,0.21833 0.0493,0.76822 0.11374,1.23068 0.0834,0.66315 0.0864,1.07365 -0.003,1.9739 -0.0974,1.0139 -0.0869,1.26707 0.0514,2.26176 0.0919,0.61944 0.19218,1.20392 0.22778,1.29974 0.0444,0.0958 0.1421,0.32212 0.22205,0.50495 0.11542,0.26117 0.14429,0.62781 0.15275,1.78937 0.01,1.31006 -0.015,1.53738 -0.1942,2.11514 -0.2306,0.71787 -0.37292,1.56614 -0.46942,2.71097 -0.0407,0.41083 -0.1047,1.21481 -0.15292,1.79163 -0.0482,0.57678 -0.13052,1.26736 -0.17221,1.53842 -0.0505,0.26242 -0.082,0.73428 -0.0797,1.04867 0.002,0.30567 -0.0367,0.9523 -0.0857,1.43302 -0.0402,0.48068 -0.10211,1.5729 -0.13954,2.4291 -0.05,1.52881 -0.0924,1.71253 -0.35432,1.72318 -0.13101,9.5e-4 -0.18618,-0.38295 -0.26628,-1.78855 -0.13005,-2.26992 -0.2871,-3.44787 -0.64723,-4.93005 -0.0361,-0.16568 -0.11747,-0.54065 -0.1807,-0.82843 -0.15387,-0.74127 -0.2352,-1.11627 -0.44253,-2.00562 -0.0993,-0.43597 -0.18229,-1.04678 -0.19339,-1.36987 -0.004,-0.51526 -0.0785,-1.18725 -0.37339,-3.29883 -0.0463,-0.35772 -0.11114,-0.87258 -0.13922,-1.1344 -0.0657,-0.61965 -0.22724,-1.22112 -0.37732,-1.4384 -0.0883,-0.13038 -0.11792,-0.60182 -0.12756,-1.9293 -0.0112,-1.54587 -0.0306,-1.81644 -0.20023,-2.31308 -0.14285,-0.42694 -0.17953,-0.6712 -0.13855,-1.03836 0.033,-0.26224 0.0899,-0.8566 0.13895,-1.3111 0.0403,-0.45446 0.0951,-2.54233 0.11484,-4.62991 0.0197,-2.08755 0.0594,-3.84341 0.10263,-3.90485 0.15542,-0.2457 0.24316,-1.3905 0.28723,-3.74026 0.0328,-1.49378 0.0858,-2.62084 0.14593,-2.75232 0.0515,-0.12265 0.11121,-0.32398 0.13639,-0.4639 0.0339,-0.14872 0.11185,-0.23662 0.21665,-0.23739 0.13973,-0.001 0.17553,0.121 0.2772,0.88885 z"
           id="path6"
           inkscape:connector-curvature="0" />
      </g>
    </g>
  </g>
</svg>
