<?xml version="1.0" encoding="UTF-8" standalone="no"?>
<svg
   xmlns:dc="http://purl.org/dc/elements/1.1/"
   xmlns:cc="http://creativecommons.org/ns#"
   xmlns:rdf="http://www.w3.org/1999/02/22-rdf-syntax-ns#"
   xmlns:svg="http://www.w3.org/2000/svg"
   xmlns="http://www.w3.org/2000/svg"
   xmlns:sodipodi="http://sodipodi.sourceforge.net/DTD/sodipodi-0.dtd"
   xmlns:inkscape="http://www.inkscape.org/namespaces/inkscape"
   version="1.1"
   width="235.08481"
   height="487.38095"
   viewBox="0 0 235.08481 487.38095"
   id="svg9"
   sodipodi:docname="man standing with suitcase.svg"
   inkscape:version="0.92.4 (5da689c313, 2019-01-14)">
  <metadata
     id="metadata15">
    <rdf:RDF>
      <cc:Work
         rdf:about="">
        <dc:format>image/svg+xml</dc:format>
        <dc:type
           rdf:resource="http://purl.org/dc/dcmitype/StillImage" />
        <dc:title></dc:title>
      </cc:Work>
    </rdf:RDF>
  </metadata>
  <defs
     id="defs13" />
  <sodipodi:namedview
     pagecolor="#ffffff"
     bordercolor="#666666"
     borderopacity="1"
     objecttolerance="10"
     gridtolerance="10"
     guidetolerance="10"
     inkscape:pageopacity="0"
     inkscape:pageshadow="2"
     inkscape:window-width="1920"
     inkscape:window-height="1048"
     id="namedview11"
     showgrid="false"
     fit-margin-top="0"
     fit-margin-left="0"
     fit-margin-right="0"
     fit-margin-bottom="0"
     inkscape:zoom="0.96721311"
     inkscape:cx="20.934446"
     inkscape:cy="229.9332"
     inkscape:window-x="0"
     inkscape:window-y="0"
     inkscape:window-maximized="1"
     inkscape:current-layer="svg9" />
  <g
     id="layer1"
     transform="translate(-182.56322,-244.09865)">
    <g
       id="g6">
      <g
         style="fill:#000000;fill-opacity:1;stroke-linejoin:miter"
         id="g4">
        <path
           d="m 262.4942,244.36823 c -0.085,0.1416 -0.67987,0.2832 -1.27475,0.2832 -0.59488,0 -1.18975,0.11334 -1.27472,0.28332 -0.085,0.1416 -0.42493,0.28327 -0.76486,0.28327 -0.76487,0 -3.99419,1.75628 -5.60886,3.05938 -1.41638,1.13312 -4.53242,4.19251 -4.53242,4.44745 0,0.085 -0.22662,0.39655 -0.48157,0.70819 -0.59488,0.62317 -1.47304,2.37952 -2.35119,4.67408 -1.04813,2.71942 -1.69967,6.91192 -1.69967,10.93444 0,2.40784 -0.0283,2.46448 -0.99145,3.48426 l -0.99147,1.04815 v 2.88941 c 0.0283,3.28602 0.8215,8.35662 1.55801,9.94305 0.3116,0.65149 0.87816,1.24634 1.41638,1.50135 0.96314,0.45324 1.2181,0.99145 1.86963,4.05078 0.16997,0.84984 0.6232,2.37957 0.99147,3.39934 0.6232,1.813 1.24642,5.35395 1.24642,7.19526 0,0.70814 -0.28328,1.2464 -1.04813,2.09619 -0.59488,0.62323 -1.75632,1.92627 -2.60614,2.88941 -1.58635,1.81299 -4.87236,4.24914 -5.75052,4.24914 -0.25494,0 -0.53822,0.11335 -0.6232,0.255 -0.085,0.1416 -0.5099,0.3399 -0.93481,0.45325 -0.45325,0.085 -1.55801,0.53821 -2.49283,0.96315 -0.93482,0.45324 -2.2662,1.0481 -2.97439,1.3314 -0.7082,0.31153 -1.84131,0.8498 -2.54949,1.21803 -0.70819,0.36827 -2.3512,0.96313 -3.6826,1.33142 -3.08771,0.87817 -4.58907,1.41638 -6.48703,2.26623 -0.82149,0.39662 -2.15289,0.87818 -2.9744,1.10474 -2.63446,0.70825 -3.22934,0.93482 -4.47577,1.64308 -1.27473,0.76476 -3.05937,1.41637 -4.75903,1.7562 -1.47304,0.31166 -3.71092,1.52974 -4.36246,2.3796 -0.3116,0.39654 -0.93481,1.1048 -1.38805,1.55803 -1.0198,1.0481 -1.67133,2.37952 -2.4645,4.9856 -0.33994,1.1615 -0.73653,2.37952 -0.84982,2.69117 -0.9065,2.2379 -3.1727,9.5747 -3.68261,11.89758 -0.33993,1.55804 -0.70819,3.0877 -0.84982,3.39929 -0.14165,0.31163 -0.59488,1.78467 -1.01979,3.25769 -0.39659,1.47302 -0.96315,3.39929 -1.24641,4.24914 -0.28328,0.84986 -0.70819,2.32288 -0.96315,3.2577 -0.25495,0.9348 -0.59488,2.09625 -0.73651,2.5778 -0.16997,0.48158 -0.28329,1.0765 -0.28329,1.33137 0,0.28333 -0.1133,0.70826 -0.25494,0.99153 -0.14165,0.25493 -0.45325,1.55803 -0.70819,2.8894 -0.67987,3.42767 -2.0396,10.08465 -2.83277,13.88055 -0.39658,1.78467 -0.76484,3.71095 -0.84983,4.24915 -0.22661,1.3314 -0.59488,2.91772 -1.16142,4.95727 -0.84984,3.14441 -1.01981,4.22083 -1.41639,10.198 -0.84983,12.94568 -0.8215,23.82348 0.11332,29.74403 0.56654,3.48424 1.61467,7.59178 2.32286,8.97984 0.14163,0.28326 0.25494,0.76484 0.25494,1.0481 0,0.31166 0.11332,0.62316 0.22662,0.70819 0.22663,0.14167 0.5099,1.13312 1.58635,5.41057 1.18976,4.87233 1.67133,6.34535 2.86109,9.06483 0.22662,0.45325 0.45325,1.3031 0.56656,1.84131 0.085,0.53821 0.28328,1.3031 0.39659,1.69966 0.14163,0.3966 0.39657,1.2747 0.59488,1.98296 0.19829,0.70816 0.76484,2.40784 1.27473,3.82422 1.47304,4.10748 2.52117,7.70512 3.28601,11.24606 0.19829,0.90646 0.42491,1.64301 0.53823,1.64301 0.22662,0 0.84982,3.03103 0.84982,4.13583 0,0.48157 0.1983,1.52969 0.42493,2.32285 0.36825,1.2181 0.56654,1.47305 1.07644,1.47305 0.36826,0 0.79317,-0.14166 0.96314,-0.31162 0.56656,-0.56656 1.50135,0.56656 1.50135,1.78464 0,0.59488 0.11332,1.30307 0.25496,1.58637 0.14164,0.25493 0.39658,0.99145 0.59488,1.61465 0.19829,0.6232 0.50989,1.50138 0.70819,1.98294 0.19829,0.45324 0.50989,1.30307 0.70819,1.84131 1.30307,3.65423 2.40786,5.09893 3.88088,5.09893 0.28328,0 0.96315,0.3683 1.52969,0.82154 0.96315,0.79316 2.29454,1.35971 6.11878,2.63446 1.69966,0.56653 1.72798,0.59488 1.89795,1.75632 0.085,0.6232 0.28328,1.92628 0.42491,2.86108 0.14165,0.93482 0.39659,2.57785 0.56655,3.6826 0.42492,2.7478 0.76485,4.7307 1.3314,7.36516 0.62321,3.03104 0.84984,5.26898 1.38806,13.17234 0.39657,6.2321 0.96314,10.2546 1.58635,11.3877 0.14163,0.2833 0.25494,0.6516 0.25494,0.8499 0,0.1983 0.45325,1.52964 1.01979,2.9177 l 1.01979,2.5495 -0.0283,11.1044 c -0.0283,7.28024 0.0567,11.1611 0.25495,11.2744 0.14164,0.085 0.28328,0.48155 0.28328,0.84984 0,0.36826 0.14163,0.76483 0.28328,0.84986 0.6232,0.3682 0.36825,1.18975 -1.24642,4.3058 -0.39659,0.7648 -0.93481,2.7478 -1.50137,5.4672 -0.0567,0.3966 -0.22661,0.96314 -0.36826,1.2747 -0.11331,0.31167 -0.36825,0.93483 -0.53822,1.35976 -0.16997,0.42494 -0.3116,1.72804 -0.3116,2.88941 0,1.89803 0.11331,2.43627 0.87816,4.24913 0.28326,0.6233 0.53822,22.01063 0.6232,50.98976 0.0566,14.07884 0.16997,19.43274 0.39659,19.85764 0.19829,0.34 0.79317,1.983 1.35973,3.68264 0.56654,1.69971 1.18975,3.34266 1.38804,3.6543 0.1983,0.31156 0.45325,1.18969 0.56656,1.92626 0.19829,1.30305 0.16997,1.38807 -0.87816,2.3795 -0.59487,0.53823 -1.55801,1.33144 -2.12457,1.69967 -0.59488,0.39653 -1.07645,0.82147 -1.07645,0.96313 0,0.11335 -0.70819,0.99146 -1.55801,1.89795 -0.84984,0.93482 -1.55803,1.86965 -1.55803,2.12455 0,0.22665 -0.19829,0.56655 -0.42491,0.7649 -0.22663,0.19826 -0.42491,0.5382 -0.42491,0.73647 0,0.22668 -0.11332,0.39663 -0.22663,0.39663 -0.14163,0 -0.42491,0.33994 -0.65153,0.76487 -0.19829,0.45318 -0.79317,1.41638 -1.30307,2.18113 -0.50991,0.7366 -0.93482,1.6431 -0.93482,1.983 0,0.3399 -0.14163,0.7648 -0.3116,0.9348 -0.1983,0.1983 -0.33993,1.1048 -0.36825,2.0396 -0.0283,1.50136 0.0566,1.7846 0.79316,2.54946 0.48157,0.48154 0.93482,0.87814 1.07645,0.87814 0.11331,0 0.79318,0.3683 1.5297,0.82156 2.57781,1.64294 6.14709,2.2945 12.57746,2.2945 h 4.64573 l 2.06791,-1.01976 c 1.13312,-0.5666 2.06792,-1.13314 2.06792,-1.27474 0,-0.14166 0.16997,-0.255 0.36827,-0.255 0.3116,0 2.01126,-1.67126 3.03105,-3.00266 0.53822,-0.67996 1.24642,-2.1813 1.69966,-3.6543 0.73651,-2.3512 1.4447,-3.4843 2.52115,-3.96584 0.56656,-0.28336 1.24642,-0.62326 1.50137,-0.73656 0.28328,-0.1416 1.3314,-0.2549 2.32287,-0.2549 1.01979,0 1.92628,-0.1134 2.01126,-0.2833 0.085,-0.1416 0.42491,-0.2833 0.70819,-0.2833 0.84982,0 3.08766,-1.303 3.99416,-2.32287 0.45326,-0.50988 0.96314,-1.38803 1.13313,-1.92626 0.16997,-0.53827 0.42492,-1.13312 0.5382,-1.27472 0.11335,-0.17005 0.2833,-0.73655 0.36829,-1.27478 0.085,-0.53821 0.31158,-1.55797 0.48158,-2.26627 0.1983,-0.7081 0.39656,-1.92624 0.42488,-2.6911 0.0567,-0.7931 0.31162,-4.7307 0.56656,-8.7815 0.76483,-11.9826 0.33994,-29.1209 -1.01977,-42.3498 -0.14167,-1.3314 -0.36829,-3.5693 -0.50992,-4.95735 -0.14163,-1.41639 -0.39658,-3.88085 -0.59488,-5.52395 -0.16997,-1.6429 -0.48157,-4.64573 -0.73651,-6.65696 -0.22662,-2.03954 -0.53821,-4.90064 -0.67986,-6.37364 -0.5099,-5.269 -0.76484,-6.9403 -1.2181,-7.96016 -0.25493,-0.56654 -0.3966,-1.1048 -0.3116,-1.18974 0.2833,-0.2833 0.73654,-5.184 0.84982,-9.5464 0.085,-2.40785 0.25494,-4.64576 0.36828,-4.95735 0.7365,-1.72795 0.90647,-3.73925 1.18976,-14.58875 0.36824,-15.4385 0.96314,-25.7215 1.61466,-29.0358 0.16995,-0.7932 0.48156,-2.4928 0.73654,-3.82424 0.25494,-1.33142 0.59484,-2.97436 0.76484,-3.68261 0.14162,-0.70815 0.39657,-1.84125 0.5382,-2.54945 0.76486,-3.90923 0.9348,-4.5324 1.13312,-4.5324 0.11331,0 0.36825,0.5382 0.56655,1.18976 0.31159,1.13304 0.48157,2.01124 1.13309,5.89209 0.14166,0.84985 0.45324,2.63452 0.70819,3.96585 0.25498,1.33145 0.56655,3.37106 0.70819,4.53244 0.9065,7.08191 0.99149,7.59186 1.89796,10.3396 0.9348,2.7478 1.24642,7.42186 0.96316,15.15526 -0.11331,3.286 0,4.24916 0.67984,5.8072 0.9348,2.09625 1.07644,2.80444 1.44473,6.94025 0.4249,5.21225 0.50989,5.66555 1.4447,7.56345 0.59487,1.2465 0.67987,1.7564 0.59487,3.3994 -0.085,1.0481 -0.36824,2.77604 -0.65154,3.8525 -0.48156,1.81294 -0.48156,2.0113 -0.0283,4.44746 0.42493,2.09634 0.45326,2.71949 0.16996,3.59764 -0.19828,0.59487 -0.45322,1.1897 -0.56653,1.35976 -0.48157,0.67984 -0.76487,2.69104 -1.38807,10.6228 -0.16995,1.95459 -0.48156,5.26894 -0.7365,7.36524 -0.25495,2.0962 -0.5949,5.29724 -0.73655,7.0819 -0.16995,1.78455 -0.39657,4.2775 -0.53821,5.5238 -0.11331,1.2465 -0.36824,3.90925 -0.53824,5.94886 -0.25494,3.31434 -0.59487,6.37364 -1.0481,10.05628 -0.085,0.70826 -0.25497,4.02256 -0.3966,7.36526 -0.14163,3.3426 -0.36825,7.3651 -0.5099,8.9232 -0.28328,2.8611 -0.14162,6.57195 0.22664,7.08184 0.11331,0.14166 0.28326,0.70816 0.39656,1.2464 0.085,0.50986 0.56657,1.78466 1.04814,2.83276 0.48156,1.0198 0.99146,2.12463 1.10476,2.43616 0.1983,0.56659 1.84132,4.07924 2.91776,6.37378 0.33994,0.67981 1.04814,1.81296 1.55802,2.46446 0.48156,0.6799 0.90649,1.3881 0.90649,1.5863 0,0.17006 0.1983,0.595 0.4249,0.8782 0.22663,0.31164 0.42493,0.73656 0.42493,0.9631 0,0.3683 1.33138,1.84134 5.04232,5.6089 0.8215,0.84987 1.72798,1.52974 2.01126,1.52974 0.6232,0 1.16144,1.7846 1.16144,3.85256 0,2.7194 1.4447,5.6372 3.68258,7.47843 0.65153,0.53827 1.35972,1.13317 1.5297,1.27477 0.39658,0.3683 4.3058,2.26625 5.41055,2.63453 1.9263,0.65147 8.32835,0.93477 11.16111,0.48157 1.21807,-0.17004 1.75631,-0.45325 2.63446,-1.3314 0.59488,-0.5949 1.07644,-1.2748 1.07644,-1.50136 0,-0.22669 0.14164,-0.42494 0.2833,-0.42494 0.25494,0 0.79314,-1.0198 1.41638,-2.69115 0.67984,-1.75635 0.90646,-3.03101 0.76483,-4.13585 -0.70819,-5.43886 -0.99145,-6.3737 -2.60614,-8.89485 -0.8215,-1.2464 -1.81296,-2.66278 -2.23788,-3.11605 -0.67987,-0.73655 -0.73652,-1.01976 -0.6232,-2.2662 0.19827,-2.03957 0.56655,-4.0792 1.41638,-7.79005 2.40784,-10.3396 2.43617,-11.5011 1.01977,-24.92835 -0.56652,-5.2406 -0.87814,-13.4556 -0.7082,-18.9795 0.14168,-5.43896 0,-9.0365 -0.76482,-17.988 -0.16995,-2.03964 -0.39658,-7.7619 -0.50988,-12.74747 -0.11332,-5.41063 -0.33994,-9.63146 -0.53824,-10.48123 -0.19831,-0.7932 -0.48156,-2.23794 -0.6232,-3.2577 -0.14164,-1.0198 -0.39661,-2.37953 -0.53824,-3.0594 -0.16996,-0.65156 -0.28327,-1.50135 -0.28327,-1.89795 0,-0.36829 -0.11331,-0.76485 -0.28329,-0.84985 -0.14163,-0.085 -0.28326,-0.6232 -0.28326,-1.1897 0,-0.5383 -0.25495,-1.35975 -0.5949,-1.813 -0.56654,-0.7932 -0.56654,-0.9631 -0.25493,-2.7478 0.16995,-1.0481 0.56656,-2.40783 0.84983,-3.03106 0.9065,-1.98294 1.1331,-3.00274 1.1331,-5.01398 0,-1.07642 0.14164,-2.23792 0.33995,-2.57782 0.36825,-0.67984 0.48155,-1.50134 1.61465,-11.24604 0.16998,-1.3314 0.48157,-3.1161 0.76486,-3.9659 0.99146,-3.25766 1.04814,-4.70237 1.16141,-25.9481 0.085,-16.43002 0.16998,-21.359 0.45325,-21.58563 0.16998,-0.14167 0.99148,-0.48157 1.75632,-0.76487 1.89794,-0.6232 3.73926,-1.728 3.93753,-2.35118 0.25497,-0.76484 -0.0566,-38.10068 -0.36827,-42.973 -0.14162,-2.35119 -0.48156,-8.01672 -0.76482,-12.60582 -0.42493,-7.1952 -0.56656,-8.46998 -1.01981,-9.12147 -0.50987,-0.73651 -0.79315,-2.03955 -1.38803,-6.31708 -0.14166,-1.1048 -0.3966,-2.74775 -0.53824,-3.68255 -0.14163,-0.93482 -0.36825,-2.97443 -0.53824,-4.50416 -0.16996,-1.55798 -0.45321,-3.71087 -0.62319,-4.81567 -0.22663,-1.41637 -0.25495,-2.94604 -0.085,-5.12732 l 0.25498,-3.11597 0.39657,1.13306 c 0.48158,1.41638 1.01981,2.01123 2.26621,2.63452 1.4447,0.67981 1.89795,1.1897 2.09625,2.37952 0.16995,1.07642 0.65152,2.29449 1.67132,4.33412 0.33994,0.62315 1.13312,2.20952 1.81296,3.54088 0.67988,1.33142 1.24644,2.77612 1.24644,3.20105 0,0.45325 0.1983,1.27477 0.45324,1.84131 0.73651,1.72802 2.52116,5.29724 2.66278,5.4389 0.085,0.085 0.33994,0.70819 0.53824,1.41638 0.70819,2.40784 1.58634,4.07918 2.94608,5.46723 l 1.33139,1.41638 v 2.8894 c 0,1.55805 0.11331,2.97443 0.25494,3.14441 0.31163,0.33991 0.84983,13.28566 1.01981,25.38153 0.085,5.41059 0.22662,9.99967 0.28326,10.19793 0.085,0.22663 0.2833,5.94883 0.45326,12.71913 0.16994,6.74197 0.36824,14.02215 0.45323,16.1184 0.085,2.52117 0,3.99421 -0.1983,4.39081 -0.36825,0.65149 -0.25493,15.35352 0.25495,35.12622 0.14162,6.06214 0.36825,15.15528 0.48156,20.16934 l 0.19831,9.14976 h -2.43619 c -1.33139,0 -2.52116,0.14164 -2.60614,0.28334 -0.085,0.1699 -0.50989,0.28324 -0.93482,0.28324 -0.84982,0 -1.75628,0.8498 -1.75628,1.64301 -0.0283,0.70815 -0.50992,1.1897 -2.40787,2.43615 -4.6174,2.9744 -6.09042,6.40205 -6.09042,14.05054 0,2.40786 -0.14163,11.5293 -0.31163,20.25426 -0.28325,14.44704 -0.33992,15.94844 -0.8215,16.8549 -0.28326,0.53824 -0.7365,1.81296 -0.99145,2.83274 -0.8215,3.17273 -0.28329,28.04446 0.67987,31.72696 0.14164,0.5383 0.59488,2.0963 0.99146,3.4277 0.50989,1.6996 0.84982,3.65424 1.04812,6.37366 0.28327,3.82424 0.16996,13.229 -0.16998,18.38464 -0.22662,2.8611 0.2833,9.0365 0.84986,10.7645 1.69964,5.15567 3.20102,7.7334 5.18392,9.06485 1.18976,0.79321 3.85257,1.84131 4.64576,1.84131 0.28326,0 0.50988,0.11328 0.50988,0.28324 0,0.1417 0.19831,0.2833 0.42493,0.2833 0.22659,0 0.4249,0.11327 0.4249,0.2266 0,0.1417 0.84983,0.65156 1.92627,1.1331 1.04812,0.4816 2.97442,1.64303 4.30581,2.57785 1.33139,0.96315 2.71945,1.81295 3.11603,1.89795 0.39662,0.085 0.93482,0.25494 1.18976,0.4249 0.28329,0.1416 0.87816,0.25497 1.33142,0.25497 0.48157,0 0.93478,0.11328 1.01978,0.28323 0.085,0.1417 0.45324,0.2833 0.8215,0.2833 0.33993,0 1.4447,0.31164 2.43619,0.7082 0.99145,0.3966 2.35119,0.7082 3.03103,0.7082 1.35974,0 2.01126,0.3116 3.31434,1.558 2.15292,2.0963 4.58907,2.5212 8.01672,1.388 3.39932,-1.1047 4.6174,-1.95457 6.74198,-4.7023 0.42492,-0.5383 1.1048,-0.8782 2.5495,-1.2181 1.10476,-0.2833 2.20956,-0.5949 2.4645,-0.73656 0.28326,-0.1416 0.76483,-0.25488 1.04813,-0.25488 0.31157,0 0.84982,-0.11336 1.21807,-0.25501 0.36826,-0.1416 1.55802,-0.45325 2.63446,-0.70819 1.10477,-0.25496 2.69114,-0.67986 3.54096,-0.90646 0.84982,-0.255 1.95462,-0.5099 2.40784,-0.5949 0.48159,-0.0566 1.10479,-0.2266 1.41638,-0.3682 0.31161,-0.1417 0.96316,-0.31165 1.41638,-0.3683 0.48158,-0.085 1.55804,-0.3683 2.40788,-0.6232 1.473,-0.4532 2.43614,-0.7082 4.3341,-1.16146 0.62322,-0.1416 0.96316,-0.0283 1.55804,0.50986 1.16141,1.1048 1.8696,1.35977 3.59759,1.35977 2.01127,0 4.24915,-0.59487 6.88361,-1.78467 1.1048,-0.48157 1.30306,-0.73645 2.23788,-2.6061 0.42493,-0.9065 1.04813,-1.78465 1.35974,-1.9546 0.31159,-0.17 0.6232,-0.36826 0.7082,-0.4532 0.085,-0.085 0.65152,-0.31166 1.27474,-0.5383 1.41636,-0.5099 3.76755,-2.2095 4.929,-3.6259 1.16143,-1.4164 2.20956,-3.56934 2.88943,-6.0055 0.65152,-2.40783 0.67984,-3.9375 0.11331,-5.29724 -0.2833,-0.67986 -0.48157,-2.54946 -0.59488,-5.3822 -0.1983,-4.1925 -0.16998,-4.41916 0.39657,-5.21236 1.728,-2.3228 1.81297,-2.66276 1.81297,-7.22355 0.0283,-4.70239 -0.085,-5.12725 -1.643,-6.51535 l -0.93483,-0.84976 -0.14163,-5.2406 c -0.28326,-12.74744 -1.21808,-35.89114 -1.4447,-36.2594 -0.14164,-0.25494 -0.50989,-5.60889 -0.9065,-13.20069 l -0.14164,-3.14441 1.58638,-1.64294 c 1.89795,-1.9829 2.01126,-2.40784 2.01126,-7.53516 0,-3.68264 -0.0283,-3.88084 -0.76486,-4.98564 -0.70818,-1.0765 -2.12458,-2.06795 -2.91776,-2.06795 -0.19827,0 -0.65152,-0.25485 -1.01977,-0.5382 -0.59488,-0.48155 -0.7082,-0.87815 -0.87818,-3.34265 -0.42489,-5.5806 -0.96313,-8.1867 -2.29452,-10.8495 -0.56655,-1.1332 -1.04813,-1.6997 -3.88089,-4.53246 -3.11603,-3.11604 -5.04233,-4.22084 -8.215,-4.7024 -0.70819,-0.0849 -1.78464,-0.39654 -2.40786,-0.67981 -0.6232,-0.25503 -1.50135,-0.65153 -1.98292,-0.84983 -0.45324,-0.1983 -2.43618,-0.42495 -4.39081,-0.5099 l -3.54095,-0.14167 -0.085,-2.43613 c -0.11331,-2.8328 -0.39661,-4.1359 -1.38806,-6.2038 -0.7932,-1.61465 -3.7959,-4.5891 -4.64572,-4.5891 -0.2833,0 -0.56656,-0.11325 -0.65155,-0.2549 -0.25495,-0.3966 -1.55803,-0.65157 -4.7024,-0.82155 l -2.97439,-0.19825 -0.19828,-1.78466 c -0.11331,-0.99144 -0.33993,-7.67674 -0.50991,-14.87201 -0.59488,-25.49483 -0.76485,-29.82898 -1.2464,-30.56549 -0.36825,-0.53821 -0.45325,-2.91772 -0.59488,-15.3819 -0.25497,-20.96244 -0.31162,-23.56857 -0.70819,-36.57092 -0.33994,-11.841 -0.31162,-14.33386 0.25494,-17.10992 0.4249,-2.1529 -0.0567,-7.22358 -0.73652,-8.01673 -0.90648,-0.99145 -2.09624,-1.38807 -5.014,-1.643 -4.02252,-0.36829 -4.13583,-0.39661 -4.13583,-1.38807 0,-0.45324 -0.11331,-0.9065 -0.28327,-0.99145 -0.14163,-0.0849 -0.2833,-0.48157 -0.2833,-0.84985 0,-0.36823 -0.1133,-0.76483 -0.28325,-0.8498 -0.14165,-0.085 -0.28327,-0.42492 -0.28327,-0.7365 0,-0.28333 -0.8215,-1.35975 -1.84131,-2.37952 -1.58633,-1.58638 -4.10751,-4.9007 -4.10751,-5.38228 0,-0.085 -0.33994,-0.67986 -0.73651,-1.33135 -0.67987,-1.07653 -0.70819,-1.27478 -0.42493,-2.12463 0.42493,-1.10474 0.16998,-3.00269 -0.42489,-3.51257 -0.22663,-0.17005 -0.39658,-0.42493 -0.39658,-0.53827 0,-0.11334 -0.59491,-1.18976 -1.33142,-2.37952 -1.16143,-1.92626 -1.27475,-2.23786 -0.99146,-2.8894 0.19831,-0.39661 0.33993,-2.0113 0.33993,-3.5976 v -2.8894 l -1.1331,-1.38806 c -0.6232,-0.73658 -1.1331,-1.4447 -1.1331,-1.58637 0,-0.11333 0.25495,-0.93481 0.56653,-1.86963 1.04813,-3.201 0.70819,-4.27746 -1.95459,-6.09045 -1.1048,-0.73651 -1.4447,-1.13312 -1.4447,-1.72797 0,-0.42493 -0.11331,-0.84985 -0.28329,-0.93481 -0.14165,-0.085 -0.28327,-0.56653 -0.28327,-1.0481 0,-0.76489 -1.75632,-4.9574 -2.23788,-5.32562 -0.45325,-0.36823 -2.2379,-3.05939 -2.49283,-3.82422 -0.16997,-0.48163 -0.53824,-1.75629 -0.79317,-2.83276 -0.25496,-1.1048 -0.56657,-2.23787 -0.7082,-2.5495 -0.14164,-0.31165 -0.31162,-0.87817 -0.36826,-1.27477 -0.14164,-0.6515 -1.64301,-5.12727 -2.15289,-6.37367 -0.14165,-0.31165 -0.73651,-1.78467 -1.30307,-3.25769 -0.59488,-1.47302 -1.18976,-2.80444 -1.30308,-2.97437 -0.14163,-0.14172 -0.25494,-0.53827 -0.25494,-0.84985 0,-0.33997 -0.085,-0.70825 -0.1983,-0.82152 -0.16998,-0.16994 -0.65156,-1.35975 -1.24643,-3.14436 -0.76483,-2.26618 -1.10477,-4.02252 -1.10477,-5.66554 0,-1.72795 -0.59488,-5.0423 -1.10476,-6.2321 -0.14167,-0.31153 -0.50992,-1.16138 -0.84986,-1.89795 -0.31158,-0.73645 -0.79314,-2.20955 -1.01977,-3.31435 -0.67987,-2.8894 -1.38807,-4.70238 -2.37952,-5.94872 -0.87817,-1.10485 -3.31433,-2.86108 -3.96588,-2.86108 -0.16995,0 -0.53821,-0.11334 -0.8215,-0.28333 -1.30307,-0.70819 -4.84403,-2.26623 -5.15561,-2.26623 -0.53824,0 -2.40786,-0.59484 -4.30582,-1.38806 -2.74777,-1.13306 -4.70239,-2.01123 -6.88361,-3.05933 -1.41638,-0.67987 -2.83276,-1.21815 -3.14437,-1.21815 -0.31159,0 -0.67984,-0.11327 -0.82151,-0.22655 -0.16995,-0.14165 -0.90645,-0.48157 -1.69965,-0.76489 -0.76482,-0.28326 -2.60613,-1.0481 -4.07916,-1.72796 -1.44474,-0.67988 -2.69114,-1.2464 -2.77612,-1.2464 -0.0566,0 -0.31162,-0.17 -0.53824,-0.3966 -0.19828,-0.22664 -0.70818,-0.6515 -1.07644,-0.93483 -0.36826,-0.28327 -1.44471,-1.55797 -2.37952,-2.77612 -0.96312,-1.2464 -2.12457,-2.71942 -2.57782,-3.25769 -0.48157,-0.53821 -0.93478,-1.30304 -1.01978,-1.69959 -0.16998,-0.73657 0.19828,-4.22082 0.67988,-6.51537 0.6515,-3.0594 0.8215,-3.59766 1.38803,-4.78736 0.33993,-0.70824 0.62323,-1.61469 0.62323,-2.03961 0,-0.42493 0.14164,-0.87813 0.28326,-0.96313 0.16995,-0.085 0.28328,-0.48158 0.28328,-0.87818 0,-1.388 0.45323,-1.81292 1.9546,-1.81292 1.21808,0 1.50138,-0.11335 2.12458,-0.87818 0.90649,-1.07642 1.58632,-2.5495 1.86962,-4.07922 0.14164,-0.62318 0.45325,-2.01124 0.73652,-3.05933 0.45325,-1.69971 0.45325,-2.23792 0.16995,-4.24915 -0.36827,-2.52118 -0.73651,-3.03107 -2.09622,-3.03107 h -0.76485 l -0.11333,-5.46722 c -0.11331,-5.80719 -0.31157,-7.19519 -1.27475,-9.37646 -0.3399,-0.76484 -0.62319,-1.61463 -0.62319,-1.89795 0,-0.31165 -0.11333,-0.53822 -0.22663,-0.53822 -0.1133,0 -0.36825,-0.42492 -0.56656,-0.9348 -0.70819,-1.9546 -5.35391,-7.0536 -7.19519,-7.90345 -0.45325,-0.19824 -0.79318,-0.45325 -0.79318,-0.56653 0,-0.1416 -0.14163,-0.22662 -0.28329,-0.22662 -0.16996,0 -0.87815,-0.28326 -1.64298,-0.65155 -0.73654,-0.33991 -1.89795,-0.79315 -2.60614,-1.01978 -0.70819,-0.1983 -1.643,-0.48157 -2.09626,-0.62317 -1.1331,-0.33996 -6.03377,-0.31164 -6.2604,0.0283 z m -49.85661,177.8125 c -0.0567,0.22657 -0.25495,0.31157 -0.42491,0.22657 -0.42491,-0.2549 -0.36826,-5.32557 0.085,-5.77882 0.28328,-0.28328 0.36827,0.1983 0.42493,2.40784 0.0283,1.52966 0,2.94604 -0.085,3.14441 z m 146.14221,18.07299 c 0.25493,0.36828 0.45323,1.21808 0.45323,1.84131 0,0.65149 0.16997,1.4447 0.36827,1.78467 0.4249,0.7931 0.90648,13.8805 1.0198,27.8177 0.0283,5.4389 0.16995,11.75594 0.3116,14.02217 0.39658,6.00543 0.36826,25.57983 -0.0283,25.97641 -0.22663,0.22662 -0.25496,1.92627 -0.14163,5.80722 0.11331,3.00266 0.31161,10.56614 0.45324,16.79825 0.14163,6.23205 0.33993,14.53205 0.45325,18.44129 l 0.16995,7.13856 -1.2464,0.17 c -0.65155,0.0849 -2.29455,0.28323 -3.62594,0.4249 -2.69113,0.28326 -3.82423,0.62317 -6.40203,1.9829 -2.26622,1.16144 -4.98567,4.5041 -5.7222,6.9686 -0.56654,2.01126 -0.96314,5.07065 -0.87815,6.71366 0.11331,1.81294 0.0283,1.92624 -1.67133,1.92624 -0.59488,0 -1.50137,0.1133 -2.01126,0.2833 -0.53824,0.14165 -1.04813,0.1983 -1.13312,0.11333 -0.25494,-0.25503 -0.53821,-8.75329 -0.87814,-24.90003 -0.48157,-25.5515 -0.96314,-38.83715 -1.38806,-39.34704 -0.39658,-0.45326 -0.67987,-8.29998 -1.10477,-30.62216 -0.11331,-5.77884 -0.31161,-10.62286 -0.42493,-10.79285 -0.11331,-0.19827 -0.1983,-5.83548 -0.22662,-12.54915 0,-7.28016 -0.11332,-12.26588 -0.28326,-12.35084 -0.48156,-0.31158 -0.25496,-2.12451 0.39657,-3.28601 0.59487,-1.10475 0.65155,-1.13305 1.75632,-0.96315 0.6232,0.085 1.55801,0.42494 2.06793,0.7366 1.16142,0.65148 1.84128,0.6798 2.88942,0.0566 0.70818,-0.42493 0.99144,-0.42493 2.32286,-0.11333 1.5297,0.36827 1.5297,0.36827 3.65427,-0.73653 1.16141,-0.62317 2.52115,-1.18975 3.03103,-1.3031 0.50989,-0.11327 1.64301,-0.76477 2.49284,-1.47302 1.47305,-1.1897 1.69967,-1.27472 3.22936,-1.27472 1.41639,0 1.69964,0.085 2.09624,0.70819 z m 17.4215,125.49138 c 0.99145,0.8498 1.72796,2.20955 1.72796,3.1727 0,0.53825 -0.14163,0.65154 -0.8215,0.65154 -0.6232,0 -1.04813,0.25496 -1.55802,0.93481 -0.42489,0.53821 -0.73651,1.10475 -0.73651,1.2464 0,0.42495 -0.65155,0.67985 -3.1727,1.21805 l -2.20956,0.4816 v -3.7676 -3.76756 l 1.50137,-0.28324 c 3.56928,-0.73654 4.24916,-0.73654 5.26896,0.1133 z m -14.10718,3.14437 c 0.11331,0.90649 0.1983,2.71943 0.22662,3.9942 l 0.0284,2.32287 -0.9065,0.1416 c -0.5099,0.085 -1.38807,0.22663 -1.92627,0.31166 -0.53823,0.1133 -2.06793,0.25493 -3.37101,0.3399 l -2.37952,0.14166 -1.33138,-1.4447 c -0.82152,-0.87816 -1.55805,-1.44471 -1.9263,-1.44471 -0.84982,0 -0.79315,-0.70825 0.11331,-2.43622 1.38807,-2.63443 2.66281,-3.22933 7.47852,-3.51263 1.78463,-0.085 3.39929,-0.1699 3.54095,-0.1416 0.16995,0.0283 0.36826,0.79315 0.45322,1.72797 z"
           id="path2"
           inkscape:connector-curvature="0" />
      </g>
    </g>
  </g>
</svg>
