<?xml version="1.0" encoding="UTF-8" standalone="no"?>
<!-- Created with Inkscape (http://www.inkscape.org/) -->

<svg
   xmlns:dc="http://purl.org/dc/elements/1.1/"
   xmlns:cc="http://creativecommons.org/ns#"
   xmlns:rdf="http://www.w3.org/1999/02/22-rdf-syntax-ns#"
   xmlns:svg="http://www.w3.org/2000/svg"
   xmlns="http://www.w3.org/2000/svg"
   xmlns:sodipodi="http://sodipodi.sourceforge.net/DTD/sodipodi-0.dtd"
   xmlns:inkscape="http://www.inkscape.org/namespaces/inkscape"
   width="128.39206mm"
   height="291.3573mm"
   viewBox="0 0 128.39206 291.3573"
   version="1.1"
   id="svg855"
   inkscape:version="0.92.4 (5da689c313, 2019-01-14)"
   sodipodi:docname="man leaning classy.svg">
  <defs
     id="defs849">
    <clipPath
       clipPathUnits="userSpaceOnUse"
       id="clipPath18">
      <path
         d="M 0,825.895 H 363.946 V 0 H 0 Z"
         id="path16"
         inkscape:connector-curvature="0" />
    </clipPath>
  </defs>
  <sodipodi:namedview
     id="base"
     pagecolor="#ffffff"
     bordercolor="#666666"
     borderopacity="1.0"
     inkscape:pageopacity="0.0"
     inkscape:pageshadow="2"
     inkscape:zoom="0.35"
     inkscape:cx="-771.65505"
     inkscape:cy="382.02504"
     inkscape:document-units="mm"
     inkscape:current-layer="layer1"
     showgrid="false"
     fit-margin-top="0"
     fit-margin-left="0"
     fit-margin-right="0"
     fit-margin-bottom="0"
     inkscape:window-width="1920"
     inkscape:window-height="1048"
     inkscape:window-x="0"
     inkscape:window-y="0"
     inkscape:window-maximized="1" />
  <metadata
     id="metadata852">
    <rdf:RDF>
      <cc:Work
         rdf:about="">
        <dc:format>image/svg+xml</dc:format>
        <dc:type
           rdf:resource="http://purl.org/dc/dcmitype/StillImage" />
        <dc:title></dc:title>
      </cc:Work>
    </rdf:RDF>
  </metadata>
  <g
     inkscape:label="Ebene 1"
     inkscape:groupmode="layer"
     id="layer1"
     transform="translate(-89.262304,41.446501)">
    <g
       transform="matrix(0.35277777,0,0,-0.35277777,89.262304,249.91085)"
       id="g12">
      <g
         id="g14"
         clip-path="url(#clipPath18)">
        <g
           id="g20"
           transform="translate(102.5739,390.3856)">
          <path
             d="m 0,0 c 7.667,0 15.334,0.049 23,-0.034 1.915,-0.021 2.116,0.64 1.103,1.951 -1.895,2.452 -3.781,4.928 -5.883,7.196 -2.605,2.811 -6.502,3.562 -9.751,1.64 C -0.405,5.505 -9.8,2.118 -20.199,1.814 -21.212,1.784 -22.226,1.415 -23.216,1.124 -23.64,1 -24.004,0.674 -24.396,0.439 -23.931,0.293 -23.466,0.021 -23,0.02 -15.333,-0.007 -7.667,0.001 0,0 m 131.317,-134.737 0.065,0.008 c -0.164,1.187 -0.1,2.464 -0.528,3.545 -3.256,8.2 -3.065,16.944 -4.05,25.484 -2.152,18.653 -4.09,37.332 -6.121,56 -0.095,0.868 -0.247,1.729 -0.372,2.595 -0.241,-0.963 -0.624,-1.915 -0.701,-2.89 -0.65,-8.279 -1.115,-16.575 -1.889,-24.843 -0.886,-9.455 -2.678,-18.874 -2.844,-28.33 -0.116,-6.558 -1.475,-12.175 -5.008,-17.571 -4.099,-6.261 -3.974,-6.377 2.939,-9.78 2.051,-1.009 3.432,-2.25 3.514,-4.794 0.082,-2.533 -0.223,-5.685 1.116,-7.442 2.824,-3.708 6.602,-6.691 10.037,-9.921 0.152,-0.143 1.043,0.11 1.149,0.363 2.33,5.549 0.499,11.756 2.71,17.338 0.026,0.067 -0.01,0.159 -0.017,0.238 m 85.26,289.829 c -0.426,0.61 -0.934,1.376 -1.483,2.112 -0.409,0.548 -1.119,0.994 -1.273,1.593 -3.488,13.695 -6.865,27.419 -10.428,41.094 -0.427,1.641 -1.752,3.073 -2.8,4.5 -0.155,0.21 -1.496,0 -1.59,-0.264 -1.561,-4.413 -4.249,-8.863 -4.259,-13.31 -0.03,-14.847 -1.679,-29.356 -6.618,-43.35 -1.764,-4.994 -3.547,-9.778 -2.383,-15.155 0.476,-2.196 1.233,-4.231 1.259,-6.651 0.062,-5.652 1.075,-11.286 1.465,-16.944 0.085,-1.239 -0.478,-2.918 -1.356,-3.737 -1.333,-1.243 -1.382,-2.288 -0.781,-3.769 1.501,-3.693 2.93,-7.417 4.402,-11.122 0.219,-0.55 0.514,-1.07 0.774,-1.604 0.418,0.453 0.965,0.84 1.234,1.369 3.403,6.674 6.721,13.392 10.15,20.052 3.384,6.576 6.932,13.068 10.264,19.67 0.754,1.493 1.172,3.272 1.283,4.949 0.218,3.274 -0.63,6.755 2.658,9.172 0.289,0.213 0.184,1.537 -0.182,1.968 -1.987,2.342 -2.406,4.762 -0.879,7.488 0.263,0.47 0.306,1.062 0.543,1.939 M 28.542,16.934 C 28.111,9.835 33.492,1.308 39.1,-0.883 c 0.274,-0.107 0.601,-0.206 0.877,-0.158 1.865,0.319 3.712,0.865 5.586,0.973 1.697,0.096 2.183,0.739 2.544,2.375 1.27,5.756 2.816,11.453 4.249,17.173 0.23,0.919 0.641,1.86 0.591,2.77 -0.395,7.176 -0.832,14.351 -1.359,21.518 -0.265,3.604 -1.024,7.19 -1.063,10.789 -0.064,5.937 0.973,11.66 3.625,17.137 1.849,3.819 3.13,7.953 4.288,12.054 1.236,4.376 1.989,8.887 3.033,13.32 0.583,2.472 0.735,5.372 2.181,7.216 1.268,1.615 0.982,3.022 1.226,4.564 0.04,0.249 -0.168,0.539 -0.262,0.81 -0.122,-0.171 -0.244,-0.342 -0.366,-0.512 -0.346,-0.483 -0.692,-0.967 -1.038,-1.45 0.103,0.649 0.236,1.295 0.3,1.947 0.063,0.635 0.085,1.276 0.074,1.915 -0.081,4.949 -0.186,9.898 -0.262,14.847 -0.138,8.937 -0.492,17.879 -0.283,26.808 0.089,3.848 1.71,7.651 0.064,11.536 -1.027,2.425 -1.939,4.898 -2.921,7.343 -0.123,0.309 -0.351,0.575 -0.53,0.861 -0.131,-0.286 -0.318,-0.56 -0.382,-0.86 -0.583,-2.731 -1.013,-5.503 -1.735,-8.196 -2.65,-9.888 -1.619,-20.326 -4.596,-30.168 -0.712,-2.355 -1.056,-4.829 -1.484,-7.263 C 49.633,116.088 48.049,105.663 45.99,95.333 42.811,79.377 37.908,63.722 38.137,47.195 c 0.014,-0.974 -1.582,-1.977 -2.444,-2.953 -0.528,-0.598 -1.426,-1.097 -1.571,-1.768 -0.706,-3.275 -1.075,-6.628 -1.873,-9.876 -0.273,-1.11 -1.26,-2.297 -2.251,-2.933 -4.007,-2.569 -4.068,-2.498 -2.892,-7.276 0.526,-2.137 1.119,-4.256 1.436,-5.455 M 253.29,177.485 c 2.491,-10.794 4.853,-21.619 7.53,-32.366 1.283,-5.146 0.286,-9.851 -2.521,-13.921 -3.127,-4.531 -4.112,-9.731 -5.824,-14.701 -3.014,-8.747 -5.294,-17.775 -8.767,-26.326 -3.928,-9.669 -8.836,-18.939 -13.305,-28.388 -0.611,-1.292 -1.029,-2.694 -1.789,-3.885 -0.241,-0.377 -1.299,-0.257 -1.987,-0.308 -0.156,-0.011 -0.33,0.212 -0.495,0.327 -0.066,-0.28 -0.255,-0.599 -0.178,-0.832 0.879,-2.681 -0.717,-3.75 -2.839,-4.631 -3.347,-1.391 -6.68,-2.828 -9.948,-4.394 -0.935,-0.449 -1.836,-1.281 -2.381,-2.167 -1.462,-2.378 -2.649,-4.924 -4.081,-7.322 -2.226,-3.729 -3.178,-7.62 -3.188,-12.051 -0.019,-8.063 -0.608,-16.129 -1.148,-24.182 -0.14,-2.094 0.368,-2.952 2.472,-2.915 4.151,0.073 8.303,0.083 12.455,0.081 0.79,0 1.6,-0.096 2.363,-0.295 0.64,-0.167 1.223,-0.551 1.83,-0.838 -0.596,-0.132 -1.336,-0.082 -1.768,-0.423 -4.802,-3.78 -10.303,-0.897 -15.43,-1.559 -2.189,-0.283 -2.853,-0.943 -3.146,-2.867 -1.362,-8.919 -2.74,-17.837 -4.223,-26.738 -1.628,-9.768 -3.582,-19.486 -5.03,-29.28 -2.439,-16.5 -4.688,-33.03 -6.825,-49.572 -1.132,-8.767 -0.434,-17.467 1.047,-26.221 2.476,-14.626 1.231,-29.303 -0.411,-43.961 -1.253,-11.186 -1.931,-22.435 -3.118,-33.628 -0.682,-6.432 -1.746,-12.832 -2.896,-19.2 -0.442,-2.454 0.191,-3.912 2.101,-5.454 5.084,-4.104 10.513,-6.934 17.288,-6.1 4.612,0.568 7.422,-1.329 8.322,-5.968 1.566,-8.057 3.671,-16.057 4.473,-24.188 0.263,-2.671 -2.539,-5.873 -4.442,-8.462 -1.764,-2.397 -2.161,-4.479 -1.119,-7.28 2.902,-7.809 6.857,-14.722 12.799,-20.825 2.618,-2.689 3.38,-7.668 3.955,-11.753 0.968,-6.868 1.126,-13.85 1.6,-20.786 0.349,-5.097 0.961,-10.203 0.865,-15.293 -0.052,-2.768 -1.309,-5.52 -2.094,-8.259 -0.117,-0.409 -0.579,-0.764 -0.954,-1.049 -2.017,-1.534 -9.661,0.385 -10.682,2.668 -2.24,5.008 -4.38,10.062 -6.737,15.015 -2.603,5.47 -4.891,11.192 -8.246,16.18 -4.451,6.618 -9.964,12.377 -16.78,16.897 -3.004,1.991 -4.647,0.916 -6.848,-0.677 -0.604,-0.439 -1.897,-0.641 -2.461,-0.288 -1.61,1.003 -2.999,2.359 -4.495,3.55 -0.468,0.372 -1.004,0.66 -1.508,0.987 -0.142,-0.608 -0.4,-1.214 -0.407,-1.823 -0.07,-6.156 -0.047,-12.313 -0.172,-18.468 -0.038,-1.9 0.078,-4.089 -0.79,-5.634 -2.278,-4.062 -5.18,-7.693 -9.33,-10.161 -2.889,-1.718 -5.684,-3.384 -6.753,-7.159 -1.397,-4.946 -5.033,-8.547 -9.17,-11.364 -8.17,-5.565 -16.484,-10.925 -24.822,-16.24 -4.454,-2.839 -9.653,-3.602 -14.703,-3.318 -2.205,0.124 -4.347,2.597 -6.327,4.232 -0.307,0.253 0.29,1.8 0.686,2.648 0.418,0.896 1.319,1.596 1.625,2.511 1.847,5.502 3.354,11.13 5.425,16.543 1.792,4.681 4.627,8.986 6.187,13.725 1.613,4.897 2.265,10.112 3.3,15.196 0.795,3.913 1.447,7.855 2.345,11.742 0.244,1.057 1.305,1.901 1.72,2.95 0.973,2.464 2.822,5.146 2.478,7.468 -1.537,10.354 -0.82,20.536 0.835,30.765 0.585,3.619 2.189,6.275 4.688,9.02 1.494,1.641 1.464,5.358 0.978,7.926 -0.508,2.672 -1.988,5.413 -3.737,7.557 -8.688,10.653 -18.089,20.761 -26.267,31.782 -5.19,6.994 -8.974,15.104 -12.874,22.968 -9.041,18.229 -19.256,35.749 -31.017,52.335 -2.801,3.95 -3.363,8.004 -2.856,12.453 1.026,9.014 1.306,17.992 -0.161,27.003 -2.814,17.283 -2.426,34.731 -2.345,52.15 0.017,3.496 0.31,7.069 1.08,10.469 1.987,8.778 0.412,17.69 1.364,26.491 0.559,5.159 0.83,10.355 1.569,15.485 0.335,2.329 -0.606,2.68 -2.452,2.943 -1.331,0.191 -2.594,0.845 -3.898,1.255 -0.153,0.049 -0.519,-0.099 -0.549,-0.217 -0.784,-3.039 -3.126,-2.669 -5.302,-2.314 -4.365,0.712 -8.61,2.377 -13.167,1.371 -0.998,-0.221 -2.072,-0.128 -3.111,-0.128 -39.354,-0.005 -78.709,-0.005 -118.063,-0.005 -0.48,0 -1.099,-0.184 -1.412,0.045 -0.711,0.523 -1.273,1.251 -1.895,1.895 0.639,0.496 1.264,1.399 1.919,1.421 4.955,0.164 9.916,0.142 14.875,0.201 11.597,0.136 23.195,0.251 34.79,0.494 0.959,0.02 1.923,0.906 2.842,1.46 3.593,2.168 7.109,4.473 10.772,6.516 3.129,1.745 6.451,3.145 9.609,4.842 0.531,0.285 1.047,1.4 0.911,1.975 -0.415,1.748 0.115,2.83 1.549,3.832 4.565,3.189 8.834,6.699 14.709,7.626 2.216,0.35 4.159,2.544 6.164,3.985 0.285,0.204 0.288,0.907 0.289,1.379 0.004,2.093 -0.31,4.224 -0.026,6.273 1.988,14.368 4.274,28.697 6.118,43.082 1.969,15.354 3.059,30.789 6.575,45.964 4.341,18.738 8.129,37.618 11.614,56.536 2.429,13.186 3.942,26.541 5.874,39.819 0.655,4.505 1.352,9.004 2.001,13.51 0.101,0.698 0.183,1.446 0.048,2.125 -1.821,9.116 -1.288,18.294 -1.1,27.504 0.142,6.908 2.042,13.532 2.468,20.296 0.381,6.059 2.719,8.424 8.579,9.692 5.077,1.098 9.626,4.46 14.56,6.447 4.935,1.988 10.206,3.177 15.058,5.33 5.314,2.358 10.469,5.176 15.375,8.293 1.944,1.235 3.148,3.739 4.491,5.796 2.658,4.073 4.685,8.671 7.862,12.267 5.845,6.619 2.294,13.879 2.373,20.9 0.012,1.111 -0.325,2.225 -0.333,3.338 -0.025,3.123 -1.043,5.309 -4.449,6.108 -0.941,0.221 -2.066,1.639 -2.275,2.676 -1.248,6.182 -2.522,12.385 -3.15,18.646 -0.163,1.611 1.648,3.843 3.146,5.063 1.141,0.929 1.722,1.56 1.618,2.968 -0.391,5.335 -0.762,10.671 -1.084,16.009 -0.43,7.162 3.171,12.35 8.823,15.941 4.475,2.843 9.399,5.06 14.307,7.119 7.437,3.119 15.055,2.74 22.313,-0.537 4.755,-2.147 9.057,-5.179 11.812,-9.885 0.2,-0.342 0.377,-0.78 0.689,-0.964 6.736,-3.959 6.841,-10.692 7.145,-17.269 0.161,-3.493 -0.065,-7.002 -0.03,-10.504 0.003,-0.229 0.79,-0.701 1.129,-0.635 1.777,0.349 2.151,-0.298 2.118,-2.041 -0.051,-2.706 0.262,-5.424 0.496,-8.13 0.519,-5.979 -0.409,-11.324 -6.016,-14.847 -0.534,-0.336 -0.89,-1.294 -0.95,-1.994 -0.634,-7.548 -1.301,-15.017 -0.224,-22.68 0.795,-5.669 3.548,-9.702 7.033,-13.665 2.036,-2.316 3.803,-4.955 6.148,-6.899 9.431,-7.818 20.945,-10.825 32.521,-13.683 5.189,-1.281 10.34,-2.798 15.373,-4.586 1.444,-0.513 2.424,-2.343 3.605,-3.581 0.1,-0.104 0.091,-0.415 0.164,-0.427 3.843,-0.592 2.349,-3.833 3.161,-6.032 5.191,-14.062 6.414,-28.844 8.397,-43.51 0.372,-2.75 2.225,-5.266 3.036,-7.996 2.365,-7.957 4.291,-16.052 6.894,-23.926 1.715,-5.189 4.358,-10.067 6.474,-15.131 1.076,-2.574 1.981,-5.228 2.833,-7.886 1.757,-5.476 3.469,-10.966 5.085,-16.484 0.228,-0.777 -0.189,-1.743 -0.3,-2.618 0.084,0.123 0.161,0.241 0.237,0.36 -0.096,0.036 -0.192,0.071 -0.286,0.107 z"
             style="fill:#000000;fill-opacity:1;fill-rule:nonzero;stroke:none"
             id="path22"
             inkscape:connector-curvature="0" />
        </g>
        <g
           id="g24"
           transform="translate(326.3346,388.4676)">
          <path
             d="M 0,0 C 0.229,0.127 0.396,0.221 0.564,0.314 0.664,0.123 0.848,-0.075 0.834,-0.257 0.823,-0.393 0.555,-0.508 0.401,-0.632 0.287,-0.452 0.173,-0.271 0,0"
             style="fill:#000000;fill-opacity:1;fill-rule:nonzero;stroke:none"
             id="path26"
             inkscape:connector-curvature="0" />
        </g>
      </g>
    </g>
  </g>
</svg>
