<?xml version="1.0" encoding="UTF-8" standalone="no"?>
<svg
   xmlns:dc="http://purl.org/dc/elements/1.1/"
   xmlns:cc="http://creativecommons.org/ns#"
   xmlns:rdf="http://www.w3.org/1999/02/22-rdf-syntax-ns#"
   xmlns:svg="http://www.w3.org/2000/svg"
   xmlns="http://www.w3.org/2000/svg"
   xmlns:sodipodi="http://sodipodi.sourceforge.net/DTD/sodipodi-0.dtd"
   xmlns:inkscape="http://www.inkscape.org/namespaces/inkscape"
   version="1.1"
   width="12.768407"
   height="33.854271"
   viewBox="0 0 12.768407 33.854271"
   id="svg9"
   sodipodi:docname="man calling phone standing.svg"
   inkscape:version="0.92.4 (5da689c313, 2019-01-14)">
  <metadata
     id="metadata15">
    <rdf:RDF>
      <cc:Work
         rdf:about="">
        <dc:format>image/svg+xml</dc:format>
        <dc:type
           rdf:resource="http://purl.org/dc/dcmitype/StillImage" />
        <dc:title></dc:title>
      </cc:Work>
    </rdf:RDF>
  </metadata>
  <defs
     id="defs13" />
  <sodipodi:namedview
     pagecolor="#ffffff"
     bordercolor="#666666"
     borderopacity="1"
     objecttolerance="10"
     gridtolerance="10"
     guidetolerance="10"
     inkscape:pageopacity="0"
     inkscape:pageshadow="2"
     inkscape:window-width="1920"
     inkscape:window-height="1048"
     id="namedview11"
     showgrid="false"
     fit-margin-top="0"
     fit-margin-left="0"
     fit-margin-right="0"
     fit-margin-bottom="0"
     inkscape:zoom="7.7377049"
     inkscape:cx="-13.064161"
     inkscape:cy="2.8018447"
     inkscape:window-x="0"
     inkscape:window-y="0"
     inkscape:window-maximized="1"
     inkscape:current-layer="svg9" />
  <g
     id="layer1"
     transform="translate(-184.1615,-528.52998)">
    <g
       id="g6">
      <g
         style="fill:#000000;fill-opacity:1;stroke-linejoin:miter"
         id="g4">
        <path
           d="m 189.08298,528.54236 c -0.1633,0.0262 -0.3246,0.10687 -0.58268,0.29234 -0.40928,0.29036 -0.54032,0.4698 -0.6492,0.87703 -0.0585,0.2218 -0.0625,0.38513 -0.0202,0.66737 0.0343,0.23186 0.0766,0.3629 0.15323,0.4758 0.0686,0.0988 0.0706,0.1069 0.0222,0.1069 -0.0222,0 -0.0545,0.0181 -0.0746,0.0403 -0.0323,0.0363 -0.0343,0.0564 -0.0121,0.21775 0.0323,0.26208 0.0363,0.25201 -0.0746,0.29035 -0.14315,0.0524 -0.42542,0.22784 -0.53429,0.33465 -0.12701,0.125 -0.17137,0.22585 -0.19356,0.42945 -0.0202,0.1976 -0.0121,0.62707 0.0161,0.8085 0.0101,0.0706 0.0262,0.32864 0.0343,0.5746 l 0.0121,0.44557 -0.0867,0.0444 c -0.0524,0.0283 -0.22985,0.0706 -0.45365,0.1109 -0.37904,0.0686 -0.47783,0.10086 -0.5484,0.17743 -0.0222,0.0242 -0.0988,0.22183 -0.17137,0.4375 -0.23993,0.71979 -0.44154,1.19159 -0.60486,1.41937 -0.0705,0.0968 -0.33468,0.39926 -0.60888,0.69766 -0.15726,0.16935 -0.35485,0.5 -0.47179,0.78226 -0.0685,0.16734 -0.0726,0.18549 -0.0726,0.40724 0.002,0.21373 0.008,0.24596 0.0665,0.3972 0.0363,0.0887 0.0948,0.2016 0.13106,0.246 0.0927,0.1169 0.32258,0.2843 0.54032,0.39316 0.3246,0.16327 0.43348,0.12904 0.84882,-0.26216 0.1371,-0.127 0.25403,-0.2177 0.34073,-0.26005 0.18347,-0.0928 0.24798,-0.1734 0.29033,-0.35685 0.0383,-0.1694 0.0806,-0.246 0.19356,-0.3468 0.0927,-0.0847 0.16935,-0.119 0.23185,-0.1048 0.0403,0.01 0.0444,0.0302 0.0645,0.3286 0.0464,0.63103 0.0685,1.16936 0.0544,1.3367 -0.0161,0.2178 -0.0645,0.44356 -0.17944,0.8327 -0.16936,0.5746 -0.24195,0.94357 -0.30445,1.55245 -0.0343,0.34479 -0.0705,0.49195 -0.22177,0.90125 -0.24194,0.6573 -0.29435,0.8145 -0.32258,0.9819 -0.0383,0.2137 -0.0403,0.5504 -0.004,0.5968 0.0282,0.0383 0.31453,0.15116 0.57059,0.2258 0.125,0.0363 0.25,0.0544 0.42137,0.0645 l 0.24396,0.0121 -0.002,0.3145 v 0.3145 l 0.0666,0.10086 c 0.0363,0.0544 0.0746,0.13104 0.0867,0.17139 0.0121,0.0382 0.0302,0.3609 0.0403,0.71569 0.0101,0.35486 0.0323,0.83069 0.0484,1.05856 0.0302,0.4032 0.22178,2.5061 0.3226,3.5283 0.0726,0.748 0.0625,1.0504 -0.0504,1.60486 -0.16734,0.80844 -0.1996,1.26014 -0.16331,2.36294 0.0121,0.40726 0.0323,0.8488 0.0423,0.98184 0.0363,0.4093 0.23993,2.04646 0.32461,2.61096 0.0524,0.33674 0.0867,0.6472 0.0948,0.83875 0.0121,0.26209 0.0202,0.3125 0.0524,0.34875 0.0222,0.0242 0.0545,0.0424 0.0726,0.0424 0.0403,0 0.0605,0.0867 0.0605,0.25204 0,0.0544 0.0242,0.17136 0.0544,0.2581 l 0.0524,0.15924 -0.0423,0.13306 c -0.0242,0.0746 -0.0847,0.2541 -0.13507,0.40124 -0.125,0.3609 -0.16937,0.57456 -0.18549,0.87296 -0.0202,0.4194 0.0222,0.46377 0.50606,0.5142 0.16129,0.0161 0.34274,0.0302 0.40121,0.0302 0.0585,0 0.20565,0.0142 0.32664,0.0303 0.16936,0.0241 0.25402,0.0262 0.36491,0.01 0.29035,-0.0403 0.33671,-0.0988 0.34679,-0.44354 0.0121,-0.373 -0.0504,-0.83875 -0.17944,-1.3307 -0.0383,-0.1472 -0.0444,-0.23186 -0.0484,-0.5948 -0.002,-0.23386 -0.0181,-0.5685 -0.0363,-0.74595 -0.11292,-1.12705 -0.14718,-2.33275 -0.10283,-3.66945 0.0101,-0.3166 0.006,-0.5403 -0.0141,-0.78624 -0.0323,-0.40126 -0.0323,-0.89722 0,-1.15126 0.0262,-0.1976 0.0766,-0.32664 0.1996,-0.5061 0.19154,-0.2822 0.20565,-0.3629 0.20565,-1.13506 0,-0.55244 0.0141,-0.72584 0.0907,-1.06457 0.0524,-0.24197 0.0746,-0.41333 0.12098,-0.9516 0.0343,-0.3952 0.0766,-0.73187 0.11493,-0.89722 0.0282,-0.13105 0.0867,-0.24595 0.25605,-0.50201 0.0806,-0.12097 0.15928,-0.27021 0.18549,-0.34884 0.0242,-0.0746 0.0484,-0.129 0.0504,-0.1169 0.0423,0.13303 0.41534,1.9133 0.5101,2.4315 0.1996,1.07666 0.33469,2.20166 0.3488,2.9114 0.004,0.133 -0.002,0.4859 -0.0101,0.7863 -0.008,0.2984 -0.0242,0.8568 -0.0343,1.23986 -0.0222,0.8327 -0.0343,1.12094 -0.0706,1.87504 -0.0706,1.42946 -0.0686,1.4698 0.13307,2.13716 0.11896,0.39714 0.12298,0.41938 0.1129,0.57459 -0.008,0.0927 -0.0443,0.2702 -0.0847,0.41335 -0.11695,0.40525 -0.1492,0.5625 -0.16129,0.7762 -0.0182,0.28835 -0.0121,0.30044 0.18144,0.3871 0.13509,0.0585 0.19155,0.0726 0.35283,0.0807 0.10483,0.006 0.20766,0.0201 0.22782,0.0302 0.0181,0.0101 0.0484,0.0484 0.0625,0.0867 0.0746,0.17736 0.37903,0.25406 1.2097,0.30246 0.27823,0.0161 0.57462,0.0403 0.65728,0.0503 0.25807,0.0343 0.36291,-0.0342 0.36291,-0.2359 0,-0.1451 -0.0383,-0.22575 -0.16734,-0.3649 -0.40929,-0.4355 -0.873,-1.08265 -1.00003,-1.39313 -0.0948,-0.23792 -0.10283,-0.37507 -0.0363,-0.59077 0.10283,-0.32867 0.15524,-0.80645 0.1754,-1.58874 0.008,-0.34881 0.0302,-0.79036 0.0464,-0.97786 0.0807,-0.8831 0.0948,-1.8327 0.0504,-3.5746 -0.0262,-1.03836 -0.0182,-1.28634 0.0645,-2.3731 0.0222,-0.27823 0.0383,-0.54435 0.0383,-0.59476 -0.002,-0.0504 -0.002,-0.5 -0.002,-0.99799 0.002,-0.5 -0.006,-1.21175 -0.0161,-1.5827 -0.008,-0.37095 -0.0141,-0.97585 -0.0101,-1.34075 0.004,-0.60084 0.0101,-0.68556 0.0504,-0.867 0.0383,-0.17537 0.0424,-0.2419 0.0343,-0.5242 -0.0101,-0.3589 -0.0403,-0.68346 -0.0847,-0.9294 -0.0423,-0.2319 -0.0464,-0.2218 0.0766,-0.23794 0.18146,-0.0243 0.6976,-0.13106 0.76817,-0.16132 0.0645,-0.0282 0.0685,-0.0343 0.0827,-0.16734 0.0141,-0.1532 -0.0282,-0.5907 -0.0907,-0.9516 l -0.0383,-0.20973 0.0585,-0.0706 c 0.0323,-0.0383 0.10081,-0.1855 0.15323,-0.3266 l 0.0968,-0.2581 0.12702,0.0585 c 0.18145,0.0807 0.28225,0.10483 0.38508,0.0887 0.0867,-0.0121 0.0907,-0.0161 0.14719,-0.14116 0.0323,-0.0705 0.10686,-0.2782 0.16734,-0.46167 0.0907,-0.27423 0.16129,-0.43147 0.39316,-0.88312 0.32661,-0.63709 0.47783,-0.9718 0.66736,-1.47785 0.39113,-1.04235 0.41935,-1.2682 0.20765,-1.58874 -0.14112,-0.21166 -0.45364,-0.60086 -0.58873,-0.7359 -0.20362,-0.20361 -0.89114,-0.79636 -1.14114,-0.98186 -0.12099,-0.0928 -0.25001,-0.1976 -0.2863,-0.2339 -0.21373,-0.22986 -0.71172,-0.9335 -1.01213,-1.43353 -0.0565,-0.0968 -0.12903,-0.19357 -0.15726,-0.21772 -0.0827,-0.0645 -0.22581,-0.0968 -0.76211,-0.17138 -0.71979,-0.10083 -1.28835,-0.19153 -1.45368,-0.23387 -0.1754,-0.0424 -0.22984,-0.0766 -0.46573,-0.2742 -0.17742,-0.15123 -0.1875,-0.1633 -0.22782,-0.29436 l -0.0423,-0.13507 0.0524,-0.16737 c 0.0786,-0.248 0.1512,-0.55846 0.1512,-0.65124 0,-0.0686 0.0181,-0.10276 0.10887,-0.21771 0.13913,-0.17541 0.1613,-0.25409 0.1492,-0.54035 -0.0121,-0.254 -0.0443,-0.35284 -0.13507,-0.4214 -0.0565,-0.0423 -0.0565,-0.0443 -0.0302,-0.131 0.0141,-0.0484 0.0504,-0.2037 0.0806,-0.3468 0.10283,-0.496 0.0282,-0.7803 -0.29234,-1.121 -0.20767,-0.2198 -0.68754,-0.5505 -0.87906,-0.60894 -0.12298,-0.0363 -0.61696,-0.0544 -0.7843,-0.0282 z m -0.85486,4.20774 c 0.0363,0.0303 0.0706,0.0565 0.0746,0.0585 0.004,0.004 -0.0302,0.0484 -0.0746,0.10284 -0.0968,0.11291 -0.125,0.18146 -0.125,0.28833 0,0.0987 -0.0262,0.11493 -0.0786,0.0483 -0.0686,-0.0867 -0.0524,-0.30444 0.0323,-0.4879 0.0383,-0.0786 0.0827,-0.0827 0.17137,-0.0101 z m 0.29638,0.57467 c -0.0524,0.18548 -0.0806,0.24597 -0.12097,0.25403 -0.0585,0.0101 -0.0706,-0.1432 -0.0242,-0.30445 0.0101,-0.0363 0.10686,-0.0928 0.1613,-0.0948 0.0161,0 0.0121,0.0423 -0.0161,0.1452 z m 5.76224,4.10089 c 0.15323,0.11494 0.1996,0.16534 0.38106,0.39514 0.0927,0.11694 0.20566,0.244 0.25002,0.27826 0.17942,0.14114 0.21168,0.3327 0.11088,0.6452 -0.1754,0.54438 -0.32661,0.86894 -0.50001,1.0625 -0.0706,0.0806 -0.20162,0.25604 -0.28832,0.38914 -0.0867,0.1331 -0.16533,0.24197 -0.17338,0.24197 -0.0141,0 -0.0262,-1.25007 -0.0262,-2.50013 0,-0.6109 0.0302,-0.6734 0.24597,-0.51208 z"
           id="path2"
           inkscape:connector-curvature="0" />
      </g>
    </g>
  </g>
</svg>
