<?xml version="1.0" encoding="UTF-8" standalone="no"?>
<svg
   xmlns:dc="http://purl.org/dc/elements/1.1/"
   xmlns:cc="http://creativecommons.org/ns#"
   xmlns:rdf="http://www.w3.org/1999/02/22-rdf-syntax-ns#"
   xmlns:svg="http://www.w3.org/2000/svg"
   xmlns="http://www.w3.org/2000/svg"
   xmlns:sodipodi="http://sodipodi.sourceforge.net/DTD/sodipodi-0.dtd"
   xmlns:inkscape="http://www.inkscape.org/namespaces/inkscape"
   version="1.1"
   width="9.049324"
   height="23.345385"
   viewBox="0 0 9.049324 23.345385"
   id="svg9"
   sodipodi:docname="old man with walking stick.svg"
   inkscape:version="0.92.4 (5da689c313, 2019-01-14)">
  <metadata
     id="metadata15">
    <rdf:RDF>
      <cc:Work
         rdf:about="">
        <dc:format>image/svg+xml</dc:format>
        <dc:type
           rdf:resource="http://purl.org/dc/dcmitype/StillImage" />
        <dc:title></dc:title>
      </cc:Work>
    </rdf:RDF>
  </metadata>
  <defs
     id="defs13" />
  <sodipodi:namedview
     pagecolor="#ffffff"
     bordercolor="#666666"
     borderopacity="1"
     objecttolerance="10"
     gridtolerance="10"
     guidetolerance="10"
     inkscape:pageopacity="0"
     inkscape:pageshadow="2"
     inkscape:window-width="1920"
     inkscape:window-height="1048"
     id="namedview11"
     showgrid="false"
     fit-margin-top="0"
     fit-margin-left="0"
     fit-margin-right="0"
     fit-margin-bottom="0"
     inkscape:zoom="15.47541"
     inkscape:cx="0.23271803"
     inkscape:cy="3.5248411"
     inkscape:window-x="0"
     inkscape:window-y="0"
     inkscape:window-maximized="1"
     inkscape:current-layer="svg9" />
  <g
     id="layer1"
     transform="translate(-226.20699,-329.83863)">
    <g
       id="g6">
      <g
         style="fill:#000000;fill-opacity:1;stroke-linejoin:miter"
         id="g4">
        <path
           d="m 229.71825,329.85013 c -0.0269,0.006 -0.0693,0.0212 -0.0947,0.0339 -0.0254,0.0127 -0.0707,0.024 -0.10034,0.024 -0.0325,0 -0.0636,0.008 -0.0735,0.0212 -0.01,0.0113 -0.0367,0.0212 -0.0608,0.0212 -0.058,0 -0.22188,0.0269 -0.25722,0.0424 -0.10458,0.0452 -0.13426,0.0608 -0.13426,0.0721 0,0.007 -0.007,0.0127 -0.0141,0.0127 -0.008,0 -0.0382,0.024 -0.0678,0.0523 -0.0438,0.0452 -0.12862,0.11591 -0.30951,0.25864 -0.0495,0.0382 -0.089,0.1286 -0.10881,0.24448 -0.0113,0.0636 -0.0283,0.13427 -0.0353,0.15544 -0.0198,0.0509 -0.0198,0.11308 -10e-4,0.13145 0.008,0.008 0.0212,0.0523 0.0297,0.099 0.008,0.0452 0.0212,0.11446 0.0297,0.154 0.007,0.0382 0.017,0.10743 0.0212,0.15126 0.004,0.0537 0.0155,0.0876 0.0339,0.10454 0.0381,0.034 0.0367,0.1357 -0.003,0.1894 -0.0297,0.0381 -0.0297,0.0523 -0.0297,0.48755 l 0.001,0.448 0.0367,0.0367 c 0.0297,0.0297 0.048,0.0367 0.0933,0.0325 l 0.0551,-0.004 v 0.0707 c 0,0.0382 0.006,0.0876 0.0127,0.11023 0.007,0.0226 0.0212,0.0792 0.0311,0.12579 0.01,0.0466 0.024,0.089 0.0311,0.0933 0.007,0.006 0.017,0.0424 0.0212,0.082 0.007,0.0763 -0.01,0.11446 -0.0509,0.11446 -0.0198,0 -0.19926,0.0806 -0.29114,0.13004 -0.11023,0.0593 -0.1597,0.0876 -0.17805,0.10455 -0.0113,0.01 -0.11025,0.0636 -0.21765,0.11871 -0.10881,0.0551 -0.21764,0.11731 -0.2445,0.13708 -0.0339,0.0255 -0.0721,0.0382 -0.13566,0.0452 -0.0565,0.006 -0.10458,0.0198 -0.13284,0.041 -0.0792,0.0565 -0.23601,0.23884 -0.27983,0.32224 -0.0226,0.0466 -0.065,0.1187 -0.0947,0.1625 -0.0297,0.0438 -0.0537,0.0904 -0.0537,0.10318 0,0.0127 -0.0156,0.048 -0.0353,0.0791 -0.0367,0.058 -0.0664,0.17668 -0.0989,0.39573 -0.0113,0.0735 -0.0269,0.16959 -0.0353,0.21197 -0.008,0.0424 -0.024,0.15122 -0.0353,0.24024 -0.0127,0.0891 -0.0268,0.19363 -0.0339,0.23322 -0.007,0.0381 -0.0212,0.14414 -0.0297,0.23318 -0.017,0.1738 -0.0466,0.26709 -0.14839,0.48756 -0.0325,0.0692 -0.0805,0.171 -0.10457,0.22612 -0.0834,0.18228 -0.30526,0.61758 -0.35189,0.69108 -0.0254,0.0396 -0.0523,0.0961 -0.0608,0.12576 -0.0198,0.0735 0.0198,0.15829 0.10741,0.22894 0.0622,0.0509 0.065,0.0579 0.0565,0.1046 -0.004,0.0282 -0.0141,0.10457 -0.0198,0.171 -0.007,0.0664 -0.0184,0.1498 -0.0269,0.18513 -0.024,0.0975 0.008,0.29537 0.0636,0.38723 0.024,0.0395 0.0466,0.0947 0.0523,0.12296 0.004,0.0268 0.0212,0.0608 0.0367,0.0749 0.0438,0.0396 0.0382,0.11308 -0.0127,0.14982 -0.0212,0.0155 -0.0537,0.0551 -0.0721,0.0848 -0.0269,0.0495 -0.0297,0.0721 -0.0254,0.19503 l 0.004,0.13709 0.11165,0.12295 c 0.0622,0.0679 0.12718,0.1272 0.14415,0.13143 0.0438,0.0113 0.0735,0.10316 0.0749,0.22612 0.001,0.11308 0.0382,0.19644 0.0975,0.21198 0.024,0.007 0.0311,0.0184 0.0311,0.0565 0,0.0269 -0.006,0.048 -0.0141,0.048 -0.007,0 -0.0141,0.0184 -0.0141,0.0424 0,0.024 -0.007,0.0424 -0.017,0.0424 -0.01,0 -0.0353,0.0254 -0.0565,0.0551 l -0.0382,0.0537 0.0622,0.12294 c 0.0678,0.13568 0.10175,0.18374 0.19503,0.27984 l 0.0622,0.065 0.008,0.1738 c 0.0155,0.35756 0.0947,0.50172 0.24166,0.4353 0.0509,-0.024 0.0707,-0.0862 0.0678,-0.22047 l -0.003,-0.11731 h 0.0481 c 0.0297,0 0.065,0.0127 0.089,0.0325 0.0466,0.0382 0.10883,0.0664 0.14415,0.0664 0.0226,0 0.0268,0.0198 0.0339,0.20775 0.006,0.1159 0.0156,0.30385 0.024,0.42113 0.007,0.11591 0.0198,0.34201 0.0283,0.50171 0.008,0.1597 0.0198,0.36603 0.0283,0.45932 0.007,0.0933 0.0198,0.31232 0.0283,0.48754 0.007,0.17527 0.0212,0.39573 0.0283,0.49043 0.008,0.0947 0.0212,0.30807 0.0283,0.47342 0.008,0.16535 0.0198,0.39993 0.0283,0.52008 0.008,0.12011 0.0212,0.35894 0.0283,0.52997 0.008,0.17098 0.0212,0.41265 0.0283,0.537 0.008,0.12437 0.0198,0.37593 0.0283,0.55824 0.007,0.18231 0.0198,0.43386 0.0283,0.55823 0.007,0.12436 0.0198,0.3844 0.0283,0.57943 0.008,0.1936 0.0212,0.44236 0.0283,0.55118 0.008,0.1088 0.0212,0.35612 0.0283,0.55115 0.007,0.1936 0.0198,0.47345 0.0283,0.62183 0.008,0.14697 0.0212,0.4494 0.0283,0.67129 0.007,0.22185 0.0198,0.56528 0.0283,0.76315 0.008,0.19785 0.0198,0.55115 0.0283,0.78434 0.007,0.23318 0.0198,0.61193 0.0297,0.84231 0.017,0.41123 0.0155,0.41971 -0.0113,0.44657 -0.024,0.024 -0.0311,0.0565 -0.0396,0.19644 -0.0212,0.33494 -0.01,0.40417 0.0721,0.44094 0.0438,0.0212 0.27418,0.0226 0.27418,0.003 0,-0.008 0.0113,-0.0141 0.0254,-0.0141 0.0127,0 0.0424,-0.017 0.065,-0.0367 0.0382,-0.0367 0.0396,-0.041 0.0311,-0.13849 -0.017,-0.21625 -0.0565,-0.44235 -0.0848,-0.47345 -0.0212,-0.0226 -0.0283,-0.0551 -0.0311,-0.1399 -0.003,-0.0593 -0.0113,-0.2558 -0.0198,-0.43386 -0.0184,-0.41124 -0.0382,-0.92144 -0.0848,-2.25412 -0.008,-0.22189 -0.0212,-0.54269 -0.0283,-0.71368 -0.007,-0.17102 -0.0198,-0.46074 -0.0283,-0.64304 -0.008,-0.1823 -0.0212,-0.45364 -0.0297,-0.6006 -0.007,-0.14842 -0.0226,-0.47206 -0.0339,-0.72078 -0.0113,-0.24872 -0.0269,-0.56952 -0.0353,-0.71368 -0.007,-0.14417 -0.0226,-0.44236 -0.0353,-0.66422 -0.0367,-0.71228 -0.0495,-0.93417 -0.0636,-1.18712 -0.0269,-0.44236 -0.0565,-0.97654 -0.0707,-1.24366 -0.008,-0.14414 -0.0212,-0.35754 -0.0283,-0.47342 -0.008,-0.11732 -0.024,-0.37172 -0.0353,-0.56532 -0.0113,-0.19503 -0.024,-0.38158 -0.0282,-0.4169 -0.004,-0.0353 -0.017,-0.26144 -0.0283,-0.5017 -0.0113,-0.24167 -0.0254,-0.4805 -0.0297,-0.5342 l -0.01,-0.0947 h 0.0495 c 0.0269,0 0.0537,0.006 0.0608,0.0127 0.024,0.0212 0.10599,0.0311 0.10741,0.0113 10e-4,-0.008 10e-4,-0.0834 0,-0.16534 -0.001,-0.082 0.003,-0.1682 0.01,-0.1908 0.008,-0.0311 0.004,-0.0636 -0.0141,-0.1187 -0.017,-0.0481 -0.0311,-0.14134 -0.0382,-0.24028 -0.01,-0.15402 -0.0141,-0.17239 -0.0791,-0.31936 -0.0381,-0.0862 -0.0805,-0.16819 -0.0947,-0.18516 -0.0367,-0.041 -0.12436,-0.26568 -0.12436,-0.3194 0,-0.024 0.01,-0.0551 0.0226,-0.0692 0.0127,-0.0141 0.0283,-0.0622 0.0339,-0.10739 0.007,-0.0452 0.0268,-0.12155 0.0452,-0.17102 0.0311,-0.0834 0.0353,-0.0876 0.0791,-0.0876 h 0.0452 l -0.003,0.15121 c -0.004,0.17947 0.0155,0.23602 0.0989,0.28405 0.0282,0.0156 0.0777,0.0551 0.1088,0.0876 0.0311,0.0325 0.0692,0.065 0.0862,0.0707 0.0169,0.007 0.0339,0.0297 0.0381,0.0523 0.006,0.0297 0.0269,0.0537 0.0735,0.0834 0.11729,0.0735 0.1286,0.10035 0.14131,0.31659 0.0198,0.37592 0.017,0.44092 -0.0155,0.48756 -0.0551,0.0792 -0.15969,0.3505 -0.21623,0.55822 -0.01,0.0353 -0.024,0.0862 -0.0325,0.11308 -0.0254,0.0791 -0.0184,0.32222 0.01,0.38863 0.0141,0.0311 0.0297,0.0749 0.0367,0.0989 0.0452,0.18087 0.0763,0.27697 0.11165,0.35753 0.024,0.0495 0.0424,0.10035 0.0424,0.11024 0,0.01 0.004,0.0198 0.0113,0.0226 0.006,10e-4 0.024,0.0311 0.0424,0.065 0.0325,0.0579 0.0339,0.0721 0.0325,0.34624 -0.004,0.94123 0.0184,1.15037 0.17807,1.67045 0.0127,0.0382 0.0311,0.12015 0.041,0.18091 0.0113,0.0608 0.0424,0.18512 0.0678,0.27557 0.0466,0.1611 0.048,0.17523 0.0707,0.6388 0.0297,0.61897 0.0325,0.66421 0.0495,0.80554 0.008,0.0664 0.0212,0.31375 0.0297,0.55113 0.008,0.23744 0.0226,0.5074 0.0297,0.60066 0.008,0.0933 0.0212,0.24872 0.0297,0.34624 0.007,0.0975 0.0184,0.24025 0.0254,0.31798 0.007,0.0777 0.0155,0.20492 0.0212,0.28265 0.01,0.19504 0.0622,0.73207 0.0777,0.82817 0.008,0.0438 0.0226,0.17946 0.0339,0.30385 0.0113,0.12292 0.024,0.23459 0.0283,0.24588 0.004,0.0113 0.0141,0.0947 0.0226,0.18372 0.017,0.17242 0.0537,0.31799 0.12719,0.5017 0.0523,0.13005 0.11307,0.31092 0.11307,0.33637 0,0.01 0.0198,0.0678 0.0438,0.13 0.024,0.0622 0.0707,0.1922 0.10459,0.28974 0.0565,0.16391 0.0975,0.26001 0.21763,0.51156 0.041,0.0862 0.0452,0.10458 0.0368,0.17668 -0.004,0.0452 -0.0141,0.0947 -0.0198,0.11022 -0.007,0.0156 -0.0198,0.0537 -0.0297,0.0848 -0.01,0.0311 -0.0283,0.072 -0.0424,0.0919 -0.0396,0.0593 -0.0848,0.1851 -0.0848,0.23457 0,0.0269 0.007,0.0763 0.0169,0.11167 0.0127,0.0466 0.0127,0.0707 0.001,0.089 -0.0269,0.0452 -0.0353,0.11587 -0.0254,0.22754 0.008,0.10458 0.0127,0.11303 0.0692,0.17383 0.0848,0.0904 0.21623,0.17663 0.3208,0.20773 0.12013,0.0353 0.54694,0.065 0.62606,0.0424 0.12578,-0.0353 0.28266,-0.13141 0.39148,-0.23883 0.13001,-0.13002 0.17948,-0.2233 0.1809,-0.34626 0.003,-0.20066 -0.0198,-0.58789 -0.0438,-0.74334 -0.0212,-0.14272 -0.01,-0.18656 0.0791,-0.3194 0.10458,-0.15405 0.11307,-0.17664 0.14133,-0.32928 0.0141,-0.0735 0.0438,-0.18656 0.0664,-0.25156 0.0226,-0.065 0.041,-0.13992 0.041,-0.16534 0,-0.0735 0.0127,-0.0919 0.0622,-0.0919 0.0452,0 0.0452,10e-4 0.0707,0.10882 0.048,0.2035 0.12153,0.44376 0.14839,0.47626 0.007,0.008 0.0156,0.0438 0.0198,0.0791 0.006,0.0353 0.0127,0.0862 0.017,0.11306 0.006,0.0325 10e-4,0.0636 -0.0127,0.0904 -0.0113,0.0226 -0.0184,0.0466 -0.0155,0.0509 0.004,0.006 0.0127,0.10738 0.0212,0.2275 0.0155,0.2205 0.0438,0.4353 0.065,0.48477 0.0212,0.0551 0.14699,0.2247 0.18655,0.25436 0.0212,0.0155 0.0707,0.0608 0.11023,0.0975 0.10601,0.10317 0.27417,0.18517 0.56954,0.28125 l 0.26286,0.0834 0.20493,-0.0127 c 0.13708,-0.008 0.21905,-0.0198 0.24731,-0.0353 0.0254,-0.0127 0.0707,-0.0678 0.1173,-0.14132 l 0.0749,-0.12015 v -0.12435 c 0.001,-0.13426 -0.007,-0.18656 -0.041,-0.25157 -0.0113,-0.0226 -0.0254,-0.0848 -0.0325,-0.13708 -0.0141,-0.11871 -0.0692,-0.24167 -0.17242,-0.3844 -0.0438,-0.0608 -0.0876,-0.12295 -0.0961,-0.13989 -0.008,-0.0156 -0.0368,-0.058 -0.0636,-0.0919 -0.0325,-0.0438 -0.0481,-0.0777 -0.0481,-0.11166 0,-0.0438 0.004,-0.048 0.041,-0.048 0.0367,0 0.10176,-0.017 0.16394,-0.0424 0.0155,-0.006 0.0565,-0.0226 0.0919,-0.0353 0.0975,-0.0367 0.26428,-0.13144 0.27417,-0.15689 0.006,-0.0127 0.0155,-0.17948 0.0226,-0.37168 0.0155,-0.36037 0.0325,-0.58367 0.0565,-0.7292 0.0551,-0.3265 0.11165,-1.2691 0.11305,-1.8754 0,-0.27134 0.004,-0.37733 0.017,-0.38157 0.0113,-0.004 0.0127,-0.25439 0.003,-1.01611 -0.0127,-0.95535 -0.0113,-1.01047 0.0113,-1.02744 0.0226,-0.017 0.0254,-0.048 0.0254,-0.31091 0,-0.27133 0.007,-0.42255 0.0424,-0.94263 0.008,-0.10882 0.0226,-0.35754 0.0339,-0.55117 0.0113,-0.19501 0.0283,-0.38157 0.0353,-0.4169 0.0749,-0.31373 0.12719,-0.8324 0.13566,-1.33692 0.003,-0.13849 0.01,-0.24025 0.0198,-0.25865 0.0113,-0.0198 0.0184,-0.1413 0.0226,-0.33775 0.003,-0.16815 0.01,-0.32221 0.0155,-0.34198 0.006,-0.0198 0.0283,-0.0608 0.0495,-0.0933 0.0212,-0.0325 0.048,-0.0834 0.058,-0.11587 l 0.0169,-0.0565 0.10882,-0.017 c 0.0594,-0.01 0.11447,-0.0212 0.12436,-0.0268 0.0226,-0.0141 0.0495,-0.12012 0.0933,-0.36179 0.0212,-0.10882 0.0424,-0.23037 0.0495,-0.26852 0.007,-0.0396 0.0198,-0.11872 0.0283,-0.17667 0.0254,-0.17383 0.0325,-0.20488 0.15969,-0.60768 0.0155,-0.0509 0.0438,-0.12718 0.0622,-0.1696 0.0198,-0.0424 0.0438,-0.106 0.0565,-0.1413 0.0268,-0.082 0.0424,-0.39572 0.0198,-0.39572 -0.008,0 -0.0268,-0.0113 -0.041,-0.0255 -0.0141,-0.0127 -0.0622,-0.0551 -0.10741,-0.0933 l -0.0819,-0.0693 0.007,-0.0791 c 0.004,-0.0438 0.0141,-0.10743 0.0226,-0.14277 0.0608,-0.23459 0.0509,-0.48615 -0.0283,-0.73486 -0.0339,-0.10743 -0.14839,-0.37311 -0.2247,-0.52292 -0.0551,-0.11023 -0.20351,-0.34905 -0.2544,-0.40982 -0.017,-0.0198 -0.065,-0.0933 -0.10738,-0.16253 -0.0424,-0.0707 -0.11025,-0.17524 -0.15124,-0.2332 -0.13002,-0.18655 -0.27133,-0.41265 -0.34482,-0.55114 -0.16818,-0.31659 -0.30526,-0.58792 -0.34342,-0.68402 -0.0537,-0.13709 -0.0933,-0.21482 -0.18372,-0.36887 -0.041,-0.0707 -0.10034,-0.17523 -0.13144,-0.23317 -0.0297,-0.0579 -0.0735,-0.13002 -0.0961,-0.15828 -0.0226,-0.0283 -0.041,-0.0551 -0.041,-0.058 0,-0.0127 -0.0933,-0.10317 -0.14133,-0.13992 -0.0283,-0.0198 -0.12577,-0.1074 -0.21905,-0.19501 -0.0919,-0.0876 -0.18371,-0.16394 -0.20209,-0.17102 -0.0184,-0.007 -0.0693,-0.0127 -0.11307,-0.0127 -0.0438,-10e-4 -0.10316,-0.01 -0.13002,-0.0198 -0.19644,-0.0749 -0.32646,-0.12152 -0.37451,-0.13425 -0.0311,-0.008 -0.10034,-0.0269 -0.15546,-0.0424 -0.13142,-0.0382 -0.25862,-0.0692 -0.39711,-0.10034 -0.15263,-0.0339 -0.16818,-0.0382 -0.2671,-0.0848 -0.0466,-0.0212 -0.10883,-0.048 -0.13991,-0.0579 l -0.0537,-0.0198 0.008,-0.0848 c 0.006,-0.0467 0.0127,-0.14982 0.017,-0.23037 0.008,-0.13565 0.0113,-0.14415 0.0396,-0.14415 0.0721,-0.001 0.10457,-0.0622 0.12436,-0.24025 0.0127,-0.11165 0.01,-0.1611 -0.01,-0.29395 -0.017,-0.10458 -0.0226,-0.19504 -0.017,-0.26568 0.008,-0.11167 -0.017,-0.22754 -0.0537,-0.24027 -0.0325,-0.0127 -0.041,-0.23175 -0.0141,-0.32505 0.0141,-0.048 0.0198,-0.0961 0.0127,-0.1173 -0.004,-0.0198 -0.0113,-0.11304 -0.0127,-0.20633 -0.003,-0.17807 -0.0113,-0.20914 -0.082,-0.31517 -0.0212,-0.0325 -0.0495,-0.082 -0.0608,-0.10878 -0.0113,-0.0269 -0.0254,-0.0495 -0.0325,-0.0495 -0.007,0 -0.0537,-0.0636 -0.10599,-0.13992 -0.0975,-0.14838 -0.106,-0.15686 -0.24167,-0.23743 -0.0834,-0.048 -0.16818,-0.0763 -0.28547,-0.0947 -0.0325,-0.004 -0.0876,-0.0212 -0.12436,-0.0367 -0.0523,-0.0226 -0.0947,-0.0283 -0.2021,-0.0269 -0.0749,0.001 -0.1597,0.006 -0.18654,0.0113 z m 3.47938,7.02664 c 0.13004,0.0848 0.12155,0.0678 0.14557,0.32788 l 0.01,0.0961 -0.0523,-0.004 c -0.0452,-0.004 -0.0565,-0.0127 -0.0876,-0.0678 -0.0198,-0.0353 -0.0537,-0.0876 -0.0763,-0.11587 -0.0226,-0.0283 -0.041,-0.058 -0.041,-0.065 0,-0.007 -0.01,-0.0212 -0.0212,-0.0311 -0.0325,-0.0268 -0.0636,-0.0989 -0.0636,-0.15121 0,-0.0438 0.003,-0.0466 0.048,-0.0466 0.0339,0 0.0777,0.0184 0.13849,0.058 z m 0.40419,1.45706 c 0.01,0.01 0.017,0.0494 0.017,0.089 0,0.0622 0.006,0.0777 0.041,0.11165 0.0226,0.0226 0.0495,0.0593 0.0579,0.0848 0.01,0.024 0.0297,0.0664 0.0438,0.0961 0.0156,0.0283 0.0466,0.11022 0.0707,0.1809 0.0226,0.072 0.0678,0.18372 0.0989,0.24872 0.0509,0.10883 0.0735,0.21765 0.0438,0.21765 -0.006,0 -0.0268,0.0509 -0.0452,0.11303 -0.0325,0.10883 -0.0353,0.11308 -0.0777,0.11308 -0.0339,0 -0.0466,-0.008 -0.0622,-0.0466 -0.0113,-0.024 -0.058,-0.12434 -0.10459,-0.22189 -0.0452,-0.0975 -0.0876,-0.18935 -0.0947,-0.20492 -0.006,-0.0155 -0.0212,-0.0509 -0.0339,-0.0805 -0.0127,-0.0283 -0.0226,-0.0566 -0.0226,-0.0636 0,-0.006 -0.0212,-0.0565 -0.048,-0.11024 -0.19786,-0.40276 -0.19786,-0.39853 -0.082,-0.48334 0.0834,-0.0608 0.16252,-0.0791 0.19784,-0.0438 z m -2.14247,5.49185 c 0.0141,0.0452 0.048,0.11728 0.0777,0.15967 l 0.0537,0.0763 0.008,0.24026 c 0.006,0.13141 0.0155,0.27556 0.024,0.31796 0.008,0.0424 0.0184,0.2233 0.0226,0.40277 0.008,0.39713 0.0311,0.74338 0.0537,0.81971 0.01,0.0311 0.0184,0.15826 0.0198,0.28262 0.001,0.1569 0.01,0.25015 0.0254,0.30386 0.0283,0.0989 0.0509,0.29819 0.0509,0.45364 0,0.0707 0.0127,0.18232 0.0297,0.26145 0.0155,0.0777 0.0325,0.21481 0.0367,0.30527 0.004,0.0919 0.0127,0.16675 0.0184,0.16675 0.006,0 0.0141,0.0297 0.0184,0.0664 0.006,0.0382 0.0184,0.13144 0.0311,0.20774 0.0325,0.20916 0.0283,0.2445 -0.0438,0.45224 -0.17948,0.51584 -0.25155,0.8211 -0.26852,1.13766 l -0.01,0.18516 h -0.0466 c -0.0382,0 -0.0495,-0.007 -0.0551,-0.0325 -0.089,-0.41126 -0.11307,-0.7236 -0.10035,-1.32423 0.0113,-0.50027 0.0113,-0.80414 0.001,-1.19417 -0.004,-0.1795 -0.0113,-0.58934 -0.0141,-0.91157 -0.004,-0.32221 -0.0127,-0.63736 -0.0212,-0.69956 -0.007,-0.0622 -0.0184,-0.4833 -0.024,-0.93695 l -0.008,-0.82252 h 0.0481 c 0.0466,0 0.0495,0.003 0.0721,0.082 z"
           id="path2"
           inkscape:connector-curvature="0" />
      </g>
    </g>
  </g>
</svg>
