<?xml version="1.0" encoding="UTF-8" standalone="no"?>
<svg
   xmlns:dc="http://purl.org/dc/elements/1.1/"
   xmlns:cc="http://creativecommons.org/ns#"
   xmlns:rdf="http://www.w3.org/1999/02/22-rdf-syntax-ns#"
   xmlns:svg="http://www.w3.org/2000/svg"
   xmlns="http://www.w3.org/2000/svg"
   xmlns:sodipodi="http://sodipodi.sourceforge.net/DTD/sodipodi-0.dtd"
   xmlns:inkscape="http://www.inkscape.org/namespaces/inkscape"
   version="1.1"
   width="174.56705"
   height="367.95749"
   viewBox="0 0 174.56705 367.95749"
   id="svg7"
   sodipodi:docname="man taking photos.svg"
   inkscape:version="0.92.4 (5da689c313, 2019-01-14)">
  <metadata
     id="metadata13">
    <rdf:RDF>
      <cc:Work
         rdf:about="">
        <dc:format>image/svg+xml</dc:format>
        <dc:type
           rdf:resource="http://purl.org/dc/dcmitype/StillImage" />
        <dc:title></dc:title>
      </cc:Work>
    </rdf:RDF>
  </metadata>
  <defs
     id="defs11" />
  <sodipodi:namedview
     pagecolor="#ffffff"
     bordercolor="#666666"
     borderopacity="1"
     objecttolerance="10"
     gridtolerance="10"
     guidetolerance="10"
     inkscape:pageopacity="0"
     inkscape:pageshadow="2"
     inkscape:window-width="933"
     inkscape:window-height="512"
     id="namedview9"
     showgrid="false"
     fit-margin-top="0"
     fit-margin-left="0"
     fit-margin-right="0"
     fit-margin-bottom="0"
     inkscape:zoom="0.24180328"
     inkscape:cx="204.23184"
     inkscape:cy="167.487"
     inkscape:window-x="0"
     inkscape:window-y="0"
     inkscape:window-maximized="0"
     inkscape:current-layer="svg7" />
  <g
     id="layer1"
     transform="translate(-95.768159,-287.5295)">
    <g
       style="fill:#000000;fill-opacity:1;stroke-linejoin:miter"
       id="g4">
      <path
         d="m 169.338,287.77252 c 1.56215,0 3.13807,0.0796 4.68672,0.2421 v 0 c -1.54865,-0.16248 -3.12457,-0.2421 -4.68672,-0.2421 -1.58348,0 -3.15283,0.0818 -4.6653,0.2421 h -6e-5 c 1.51249,-0.16028 3.08186,-0.2421 4.66536,-0.2421 z m 98.6554,14.47171 c 0,0 0,0 0,0 h -0.003 l -7.27132,1.03791 v 0 l -0.33274,0.0475 -0.26523,0.0465 v 0 l -10.30125,1.80353 -0.0682,1.27676 0.0682,-1.27676 v 0 l 10.30125,-1.80353 v 0 l 0.2652,-0.0465 v 0 h 3e-5 v 0 0 l 0.33274,-0.0475 v 0 l 7.27123,-1.03791 z m -68.50976,3.80942 1.73041,0.0897 v 0 l 6.94717,0.36026 v 0 0 0 0 0 l 0.41888,1.00052 -0.41888,-1.00052 v 0 l -6.94717,-0.36026 v 0 l -1.73041,-0.0897 v 0 l -0.8592,0.879 v 0 l -0.0682,1.13962 0.0682,-1.13962 v 0 0 0 0 0 l 0.8592,-0.879 v 0 z m -2.97935,2.37463 v 0 c 0,0 0,0 0,0 h -0.002 l -0.23542,0.0855 0.23542,-0.0855 z m 1.87974,-0.1253 -1.91659,0.69562 h -2e-5 z m -2.0442,0.8009 c -4.4e-4,0 -8.7e-4,0 -0.001,0 -4.3e-4,0 -8.7e-4,0 -0.001,0 z m -1.93331,1.72705 c 2.2e-4,0 4.3e-4,0 6.3e-4,0 h -0.001 c 2.1e-4,0 4.3e-4,0 6.2e-4,0 z m 55.11615,-4.12848 -26.57557,3.3136 -1.85463,1.9245 1.85463,-1.9245 v 0 0 z m -28.61698,5.3183 v 0 c -6.6e-4,0 -0.001,0 -0.002,0 -6.5e-4,0 -0.001,0 -0.002,0 z m -9.38172,0.45868 v 0 c -7.2e-4,0 -0.001,0 -0.002,0 -7.9e-4,0 -0.002,0 -0.002,0 z m 5.34741,-2.10203 v 0 0 0 0 l 3.93235,1.62352 -3.93235,-1.62352 v 0 l -0.1974,0.43455 2.02496,2.52225 v 0 l -2.02496,-2.52225 v 0 0 0 z m -1.60766,1.97956 2.3336,2.24179 v 0 l -2.3336,-2.24179 -3.73328,0.12232 z m 2.51651,2.31488 v 0 c -4.4e-4,0 -8.7e-4,0 -10e-4,0 -4.3e-4,0 -8.7e-4,0 -0.001,0 z m -23.38455,-3.58624 0.74562,0.41693 v 0 l -0.12204,3.8342 v 0 l -0.91144,0.66739 v 0 c -0.43271,-0.35684 -0.82839,-0.71352 -0.99724,-1.41605 -0.18297,-0.76132 -0.0998,-1.92537 0.17087,-2.57833 0.24957,-0.60218 0.65762,-0.76524 1.11227,-0.92414 z m -0.29122,5.1938 v 0 c -3.2e-4,0 -6.2e-4,0 -9.4e-4,0 -3.2e-4,0 -6.3e-4,0 -9.5e-4,0 z m 56.51708,7.9888 c 1.8e-4,0 3.8e-4,0 5.6e-4,0 h -10e-4 c 1.8e-4,0 3.8e-4,0 5.7e-4,0 z m 12.79728,-3.6977 6.37323,0.87582 v 0 0 0 l -0.27118,3.38598 v 0 0 0 0 l -18.50723,0.46152 v 0 0 0 0 0 l -0.13384,-0.80642 0.13384,0.80642 v 0 l 18.50723,-0.46152 v 0 l 0.27118,-3.38598 v 0 z m -70.00705,5.46582 c 1.4e-4,0 2.9e-4,0 4.3e-4,0 h -4.3e-4 c 3.3e-4,0 6.3e-4,0 9.3e-4,0 h -0.002 c 3.4e-4,0 6.9e-4,0 0.001,0 z m 28.68932,0.57198 c 4e-4,0 7.9e-4,0 0.001,0 h -0.002 c 4e-4,0 8e-4,0 0.001,0 z m -4.94547,0.36372 c 5.1e-4,0 0.001,0 0.002,0 h -0.002 c 1.8e-4,0 3.7e-4,0 5.7e-4,0 h -0.002 c 5.5e-4,0 0.001,0 0.002,0 z m 27.05665,2.27664 c 7.9e-4,0 0.002,0 0.002,0 h -0.002 c 1e-5,0 3e-5,0 6e-5,0 h -0.002 c 7.9e-4,0 0.002,0 0.002,0 z m -22.15496,-2.38584 1.02382,1.13698 -1.31854,2.35875 v 0 l -0.74489,0.11645 v 0 l -0.17229,-3.36398 v 0 z m -1.15251,3.87461 c -5.2e-4,0 -0.001,0 -0.002,0 -5.2e-4,0 -0.001,0 -0.002,0 z m -27.38135,-4.62748 2.79714,6.52341 h -2e-5 z m 2.85417,6.65645 0.0386,0.09 -0.0386,-0.09 h -0.002 c 0,0 0,0 0,0 z m 20.89893,-5.68516 0.58902,5.7763 v 0 l 2.71603,0.2313 v 0 l -2.71603,-0.2313 v 0 0 0 0 z m -47.5688,17.54251 c 7e-5,0 1.5e-4,0 2.1e-4,0 h -4.3e-4 c 7e-5,0 1.4e-4,0 2.2e-4,0 z m 0.03,0.26233 v 0 c 0,0 0,0 0,0 h -0.002 c 0,0 0,0 0,0 z m 0.11296,0.0787 c -3.4e-4,0 -6.7e-4,0 -0.001,0 -3.3e-4,0 -6.7e-4,0 -10e-4,0 z m -48.05579,4.72779 c 0.0874,0 0.17385,0.002 0.25926,0.005 h -1.6e-4 c -0.0854,-0.004 -0.17172,-0.005 -0.2591,-0.005 -0.086,0 -0.17294,0.002 -0.26091,0.005 0.088,-0.004 0.17494,-0.005 0.26091,-0.005 z m 9.10454,2.50964 c 0,0 0,0 0,0 h -0.001 c 0,0 0,0 2e-5,0 z m 0.0764,0.0258 c -5.1e-4,0 -0.001,0 -0.002,0 -5.1e-4,0 -0.001,0 -0.002,0 z m -1.80358,0.49289 c -0.002,0 -0.003,0 -0.005,0 -0.002,0 -0.003,0 -0.005,0 z m 87.90158,-25.23178 0.56015,5.49328 c 0.006,0.0581 0.0524,0.10376 0.1106,0.10874 l 2.64258,0.22506 h -0.002 c -0.47716,0.98858 -0.94856,2.00763 -1.19036,3.39856 -0.2538,1.45984 -0.25393,3.32697 -0.25443,5.17882 h -6.7e-4 c -0.27962,2.6871 -0.55917,5.36714 -1.20117,8.23772 -0.62049,2.77432 -1.57991,5.72848 -2.55352,8.69546 v 0 l -7.06843,-18.63562 h -0.002 c 1.66005,-1.88946 3.32354,-3.78666 4.84356,-5.95102 1.46382,-2.08432 2.79342,-4.41484 4.11383,-6.751 z m -23.70363,-1.11991 2.76331,6.44457 h -0.002 c -0.0911,4.2624 -0.18387,8.52162 -0.54143,12.91005 -0.35547,4.36295 -0.97279,8.85475 -1.59389,13.35208 v 0 c -4.39252,-3.44077 -8.78804,-6.87453 -12.80759,-9.27475 -3.95303,-2.36048 -7.54042,-3.72022 -11.10789,-5.04685 h -0.002 c 1.69529,-2.07873 3.37852,-4.12286 5.03935,-5.41223 1.61299,-1.25223 3.20448,-1.79162 5.54985,-1.79162 v 2e-5 c 0.001,0 0.003,0 0.004,0 0.11681,0 0.2347,0.001 0.35538,0.004 1.01796,0.0226 2.17455,0.13885 3.33189,0.25531 1.1434,0.11499 2.28765,0.23019 3.28705,0.25238 0.11287,0.002 0.22455,0.004 0.33367,0.004 0.39892,-3e-5 0.7725,-0.0176 1.11001,-0.06 2.10057,-0.26315 2.76122,-1.47671 2.96767,-2.79181 0.20079,-1.27908 -0.0219,-2.66717 -0.2457,-4.03298 h -0.002 c 0.63237,-0.68091 1.30385,-1.40717 1.37918,-2.06019 0.0747,-0.64755 -0.43078,-1.19201 -0.90756,-1.67907 h -0.002 z m 21.82322,32.94347 c -1.3e-4,0 -2.5e-4,0 -3.7e-4,0 -1.2e-4,0 -2.4e-4,0 -3.7e-4,0 z m -21.09713,0.11644 v 0 c -4.7e-4,0 -9.3e-4,0 -0.001,0 -4.7e-4,0 -9.3e-4,0 -10e-4,0 z m 16.02202,1.89209 c 5.8e-4,0 0.001,0 0.002,0 h -0.003 c 5.7e-4,0 10e-4,0 0.002,0 z m -101.1492,0.26517 c 3.2e-4,0 6.4e-4,0 9.6e-4,0 h -0.002 c 3.1e-4,0 6.3e-4,0 9.4e-4,0 z m 101.26315,0.53497 1.71268,4.78073 v 0 l -1.76581,0.049 v 0 z m -0.1746,5.07626 c -4.8e-4,0 -9.5e-4,0 -0.001,0 -6.2e-4,0 -0.001,0 -0.002,0 z m -2.33264,19.58484 c 5.2e-4,0 10e-4,0 0.002,0 h -0.003 c 5.4e-4,0 0.001,0 0.002,0 z m -16.31906,9.65836 c 0.0396,0 0.0797,0.009 0.11749,0.028 -0.0378,-0.019 -0.0779,-0.028 -0.11749,-0.028 -0.0411,0 -0.0815,0.01 -0.11792,0.028 h -4e-5 c 0.0364,-0.0183 0.0769,-0.028 0.11796,-0.028 z m -0.20833,0.4263 v 0 c 0,0 0,0 0,0 v 0 c 0,0 0,0 0,0 z m -88.03196,3.18283 c 7.5e-4,0 0.001,0 0.002,4e-5 h -3.1e-4 c -6.4e-4,-4e-5 -10e-4,-4e-5 -0.002,-4e-5 h -0.001 c 3.8e-4,0 7.6e-4,0 0.001,0 z m 45.86805,42.95462 c 6e-5,0 1.3e-4,0 2.1e-4,0 h -2.1e-4 c 2.4e-4,0 4.9e-4,0 7.3e-4,0 h -0.001 c 2.5e-4,0 5.1e-4,0 7.7e-4,0 z m 0.0428,0.23529 -0.012,0.005 h -2e-5 z m -0.0856,-0.22747 -20.04988,7.54287 h -3e-5 z m 0.23448,91.0398 v 0 c 0,0 1e-5,0 1e-5,0 h -0.002 c 0,0 0,0 0,0 z m 20.64169,19.6963 c 0.0121,0 0.024,0.002 0.0353,0.005 h -5e-5 c -0.0113,-0.003 -0.0232,-0.005 -0.0352,-0.005 -0.0117,0 -0.0236,0.002 -0.0353,0.005 0.0118,-0.004 0.0236,-0.005 0.0353,-0.005 z m -4.17387,0.6781 c 0.004,0 0.008,1.6e-4 0.0121,6e-4 -0.004,-4.4e-4 -0.008,-6e-4 -0.0121,-6e-4 -0.004,0 -0.008,2e-4 -0.012,6e-4 h -1.4e-4 c 0.004,-4.4e-4 0.008,-6e-4 0.0122,-6e-4 z m 0.84713,0.0529 c -0.004,0 -0.008,0 -0.0117,0 -0.004,0 -0.008,0 -0.0117,0 z m 3.37168,-0.4959 -0.0392,18.506 z m -6.0103,12.523 -2.25788,19.6859 v 0 z m -2.25788,19.6859 v 0 h -0.002 c 8e-5,0 1.7e-4,0 2.5e-4,0 z m 34.48585,-7.4005 0.002,0.022 v 0 0 l 1.88564,28.86605 -1.88564,-28.86605 z m -26.46087,-24.7343 -0.039,18.4314 v 0 c -0.022,6.77396 -0.0442,13.557 0.71655,19.9667 0.75572,6.3673 2.28377,12.36366 3.81465,18.34895 v 0 l -10.24374,-6.51955 v 0 l 0.23997,-10.23607 h -0.002 c 0.53153,-1.25659 1.08638,-2.56593 0.67568,-3.89403 -0.39495,-1.2772 -1.68122,-2.55396 -2.96168,-3.80085 h -0.002 c 0.002,-0.007 0.003,-0.0136 0.004,-0.0208 l 2.27076,-19.798 1.65448,-11.8548 h 0.002 c 0.23026,0.0223 0.46651,0.0419 0.72908,0.0419 0.25455,0 0.53383,-0.0185 0.85635,-0.0708 0.0572,-0.009 0.1157,-0.0197 0.17522,-0.031 0.61287,-0.1162 1.35725,-0.3358 2.1073,-0.563 z m 4.74328,56.90684 0.0714,0.0455 -0.0714,-0.0455 h -0.002 c 0,0 0,0 2e-5,0 z m 0.008,0.26946 v 0 c -7.9e-4,0 -0.002,0 -0.002,0 -8.1e-4,0 -0.002,0 -0.002,0 z m 3.46518,11.4823 c 0.007,0 0.0147,7e-4 0.0219,0.002 h -1.1e-4 c -0.007,-0.001 -0.0144,-0.002 -0.0217,-0.002 -0.007,0 -0.0145,7e-4 -0.0217,0.002 v 0 c 0.007,-0.001 0.0146,-0.002 0.0217,-0.002 z m -0.10974,0.0694 c -2e-5,0 -2e-5,0 -2e-5,0 h -0.002 c 9e-5,0 1.8e-4,0 2.7e-4,0 z m 0.27771,0.18903 0.55058,1.83237 z m -23.13388,4.61747 c 0,0 0,0 -2e-5,0 h -3e-5 c 0,0 0,0 2e-5,0 z m 46.88739,-4.02885 2.40516,4.5105 v 0 l -0.22697,-0.0738 c -0.0269,-0.009 -0.0542,-0.0129 -0.0811,-0.0129 -0.0278,0 -0.0551,0.004 -0.081,0.0129 h -6e-5 c 0.0259,-0.008 0.0532,-0.0129 0.081,-0.0129 0.0268,0 0.0541,0.004 0.0811,0.0129 l 0.22697,0.0738 z m -57.70347,4.52631 c -0.22868,0.003 -0.45022,0.004 -0.66407,0.004 -0.18558,0 -0.36537,-0.001 -0.53899,-0.003 h 0.001 c 0.17317,0.002 0.35247,0.003 0.53755,0.003 0.21339,0 0.43446,-0.001 0.66264,-0.004 z m 60.71537,0.68738 c 0,0 0,0 0,0 v 0 c 0,0 0,0 0,0 z m -0.0674,0.009 c -8e-4,0 -0.002,0 -0.002,0 -7.9e-4,0 -0.002,0 -0.002,0 z m -7.05515,24.44019 11.13874,1.5122 h -2.3e-4 z m 11.14097,1.51226 c 1.8e-4,0 3.8e-4,0 5.6e-4,0 h -0.002 -2.3e-4 z m 13.44337,0.50556 v 0 c -0.006,0 -0.0122,0 -0.0183,0 -0.006,0 -0.0122,0 -0.0183,0 z M 169.33754,287.5295 c -5.01895,0 -9.89877,0.81782 -13.30342,2.35044 -6.53782,2.94306 -7.6342,8.51731 -8.68799,14.03873 h -10e-4 c -0.0418,0.0226 -0.0681,0.0688 -0.0631,0.11903 0.42274,4.20968 0.84719,8.45336 2.23065,11.30733 0.5095,1.05107 1.14804,1.91187 1.76022,2.73761 1.05664,1.42533 2.03568,2.74912 2.22518,4.81146 0.3018,3.28473 -1.39309,8.44498 -3.10627,13.6493 h -0.001 c -4.8e-4,2e-4 -9.3e-4,4.2e-4 -10e-4,6.4e-4 -3.99188,1.87396 -8.00016,3.75496 -11.25758,6.34079 -3.2077,2.54637 -5.68314,5.77285 -8.13734,8.99591 h -0.001 c -0.003,10e-4 -0.006,0.003 -0.009,0.004 -0.58931,0.3049 -1.15146,0.5932 -1.81507,0.5932 -0.13641,0 -0.27711,-0.0122 -0.42321,-0.0389 -0.2817,-0.0515 -0.58649,-0.1578 -0.92162,-0.3392 -0.32851,-0.1778 -0.68478,-0.42677 -1.08469,-0.7065 -0.98536,-0.68918 -2.21235,-1.54913 -3.80888,-1.84118 -0.3593,-0.0657 -0.73708,-0.10272 -1.1349,-0.10272 -0.0894,0 -0.17987,0.002 -0.27134,0.006 -3.02187,0.1263 -7.15502,2.39435 -9.47523,4.78095 -2.33314,2.39999 -2.84438,4.92907 -3.35079,7.42547 -0.005,0.0249 -0.002,0.0496 0.007,0.0714 h -10e-4 l -1.80542,1.15106 h -10e-4 c -0.49776,0.0407 -1.00711,0.084 -1.52883,0.223 -0.68872,0.18344 -1.39498,0.5321 -2.14107,1.2514 -0.60281,0.58121 -1.23216,1.40554 -1.8905,2.26736 -0.78409,1.0264 -1.61237,2.11008 -2.50395,2.93898 -0.23334,0.21694 -0.47144,0.4168 -0.7089,0.6161 -1.454345,1.22068 -2.788245,2.35664 -2.22342,6.63062 0.65255,4.93775 3.844316,14.12118 7.02748,23.28198 0.0174,0.0502 0.0645,0.0817 0.1148,0.0817 h 0.001 c 3.6e-4,0.012 0.003,0.0241 0.007,0.036 4.39946,12.75808 8.79985,25.51878 11.64534,33.64853 2.84056,8.11569 4.1413,11.65353 6.26875,13.71825 2.1112,2.049 5.02491,2.63948 7.90165,3.21037 h -0.001 c 0.02,0.0136 0.0439,0.0211 0.0685,0.0211 0.009,0 0.0174,-9.5e-4 0.0261,-0.003 h 0.001 c 0.004,4.9e-4 0.009,7.3e-4 0.0131,7.3e-4 0.0335,0 0.065,-0.0139 0.0874,-0.0373 h -0.001 l 19.73973,-7.42618 h 0.002 c -1.02654,5.82144 -2.04988,11.64186 -2.61571,16.79026 -0.57086,5.19412 -0.67818,9.71966 0.55678,13.8861 0.39575,1.33512 0.92866,2.6312 1.52206,3.88654 0.65158,1.37851 1.37703,2.7099 2.07485,3.99066 0.65025,1.19345 1.276,2.342 1.79866,3.44775 1.59118,3.36631 2.23016,6.34281 2.86988,9.33139 l 0.003,0.0156 h 2e-5 c 0.001,0.007 0.003,0.0128 0.006,0.0188 h -0.002 c -0.41289,2.10647 -0.82493,4.20816 -1.20379,6.10739 l -0.016,0.0801 c -0.37993,1.90417 -0.72562,3.63739 -0.96802,7.44753 -0.0667,1.04844 -0.12566,2.25544 -0.1888,3.5485 h 2e-5 c -0.16943,3.4693 -0.36963,7.5671 -0.83359,10.9686 -0.63652,4.6666 -1.76988,8.0247 -2.90646,11.39184 -0.0138,0.041 -0.005,0.0841 0.0207,0.11536 h -10e-4 c -3.48166,7.9798 -6.95091,15.9731 -8.80544,24.0672 -1.8758,8.1869 -2.09875,16.473 -2.32171,24.745 -0.001,0.0546 0.0332,0.1016 0.0822,0.11834 h -0.001 l 0.92772,13.71376 h -2.4e-4 c 0.01,3.01665 0.0191,6.0455 0.2366,7.7763 0.19916,1.5853 0.57553,2.1018 0.97284,2.5126 h -0.001 c -0.77527,0.34317 -1.52886,0.7989 -1.80417,2.7424 -0.28672,2.02386 -0.0614,5.69885 0.16645,9.3658 h -0.001 c -0.0371,0.0203 -0.0626,0.0594 -0.0633,0.1047 -0.0417,2.49904 -0.0842,5.0155 0.13895,6.54134 0.15026,1.02753 0.43036,1.65179 1.46615,1.97326 0.50756,0.1576 1.19393,0.24244 2.12872,0.2807 0.41778,0.0171 0.88724,0.025 1.40053,0.025 2.90305,0 7.20897,-0.25156 11.50721,-0.50265 h 6.1e-4 l 0.002,-1.5e-4 h 0.002 l 4.3e-4,-4e-5 c 0.01,-6.1e-4 0.0198,-0.002 0.0293,-0.005 4.07593,-1.2789 8.14494,-2.55537 11.97477,-3.35755 3.77162,-0.79005 7.31317,-1.12061 10.85873,-1.44485 h 0.002 l 0.53116,1.7678 h -0.002 c -0.93309,0.653 -1.89766,1.34416 -2.20688,2.43364 -0.30933,1.08986 0.0456,2.56046 0.39542,3.98932 h -0.002 c -1.22617,1.16614 -2.48399,2.37364 -2.7164,3.89099 -0.23369,1.52565 0.57482,3.34192 1.36143,5.1098 h -0.002 c -0.32058,3.97975 -0.64905,8.06345 3.14649,10.29405 3.75697,2.2079 11.56187,2.5821 19.3151,2.95436 l 0.0328,0.002 v 0 l 11.1369,1.51205 0.01,9e-4 c 4.75468,0.253 9.51463,0.5064 13.44743,0.5064 0.61438,0 1.20859,-0.006 1.77942,-0.0195 1.35409,-0.0317 2.57971,-0.10357 3.69388,-0.25677 2.36451,-0.3251 4.23382,-1.0172 5.77069,-2.47364 0.30195,-0.28616 0.59109,-0.60181 0.85632,-0.94092 1.71689,-2.19494 2.45016,-5.40899 -0.81638,-7.96411 -0.96179,-0.75233 -2.2676,-1.44427 -3.76763,-2.09903 -2.17237,-0.9482 -4.76682,-1.8246 -7.34327,-2.695 -2.55602,-0.86344 -5.09404,-1.721 -7.19723,-2.639 -5.32451,-2.32405 -7.86559,-5.0376 -10.24115,-7.7866 h -0.002 c 0.0245,-0.0683 0.0201,-0.1453 -0.0154,-0.2118 l -2.63222,-4.9363 h -0.002 c 1.14798,-1.55646 2.31644,-3.22443 1.6774,-5.9059 -0.63664,-2.6714 -3.08067,-6.3554 -5.48604,-9.9789 h -0.002 l -1.8814,-28.80106 -2e-4,-0.003 -0.002,-0.0234 v 0 c -0.11622,-1.54737 -0.22234,-3.03784 0.22815,-4.49774 0.18211,-0.59016 0.45688,-1.18086 0.74977,-1.80916 0.30878,-0.6624 0.63606,-1.36363 0.86873,-2.1176 0.0944,-0.3059 0.17349,-0.6211 0.22999,-0.948 0.31705,-1.8343 -0.0938,-3.9731 -0.50685,-6.05743 h -0.002 c 1.50328,-1.21827 3.04307,-2.52187 3.51068,-5.28431 0.46961,-2.77426 -0.14791,-7.02546 -0.75592,-11.21286 h -0.002 c 0.24485,-1.98166 0.49386,-4.0087 0.0443,-6.2304 -0.44661,-2.20694 -1.58087,-4.5939 -2.69974,-6.9435 h -0.002 l -2.61237,-36.4479 -1.17488,-17.69256 h -0.002 c 1.07872,-2.23178 2.17235,-4.50836 2.51691,-7.29648 0.21562,-1.74476 0.13692,-3.68393 0.0623,-5.53936 -0.0455,-1.13175 -0.0898,-2.23346 -0.0684,-3.25595 0.0562,-2.68519 0.56534,-4.84137 1.08352,-7.01905 h -0.002 c 1.40418,-2.86502 2.87369,-5.84637 2.71967,-7.80353 -0.15762,-2.00289 -1.97389,-2.90124 -3.62259,-3.70095 h -0.002 c -0.48178,-1.82132 -0.91005,-3.52808 -0.52112,-4.80662 0.1736,-0.5707 0.51381,-1.06707 0.8728,-1.5871 h 2e-5 c 0.3299,-0.4779 0.68233,-0.98452 0.85419,-1.54946 0.0585,-0.19224 0.0968,-0.39279 0.10715,-0.60334 0.0336,-0.68414 -0.23533,-1.44485 -0.56041,-2.38033 -0.37903,-1.0907 -0.86589,-2.49219 -1.18532,-4.46472 -0.32007,-1.97648 -0.47255,-4.52865 -0.63155,-7.19602 -0.13894,-2.33099 -0.28297,-4.74803 -0.55003,-6.91675 -0.45128,-3.66468 -1.25316,-6.61858 -1.93395,-9.1275 -0.18397,-0.67801 -0.35635,-1.31308 -0.51365,-1.93155 -0.6935,-2.7265 -1.04486,-4.94933 -1.37694,-7.15088 h 0.002 c 1.25217,0.61579 2.61209,1.18145 4.65531,1.18145 0.17312,0 0.35289,-0.004 0.53598,-0.0125 h 1e-5 c 2.59047,-0.11924 6.2918,-1.11582 8.33014,-3.16785 1.98933,-2.00269 2.34969,-4.9711 2.65967,-7.84972 h 0.002 c 2.49564,0.25933 5.00118,0.51174 7.41945,0.51174 0.77838,0 1.54888,-0.0262 2.30757,-0.0868 3.19761,-0.2555 6.16845,-1.12198 9.11069,-1.97915 0.1033,-0.0301 0.17772,-0.12025 0.18767,-0.2274 0.72223,-7.78186 1.44572,-15.57547 1.54268,-23.26538 0.0961,-7.62592 -0.42389,-15.14538 -0.94812,-22.65225 h -0.002 l 8.82525,-3.63904 h -0.002 c 0.71834,-0.0518 1.52955,-0.10963 2.09987,-0.48105 0.55539,-0.36172 0.85391,-0.9996 1.10718,-1.56823 h -0.002 c 0.78967,-0.28415 1.63702,-0.59711 2.16638,-1.09995 0.54033,-0.51324 0.73218,-1.20337 0.89322,-1.82297 h -0.002 l 1.63124,-1.24377 h 0.002 c 0.19623,0.0115 0.39767,0.0219 0.59743,0.0219 0.68659,0 1.40397,-0.12262 1.95443,-0.78769 0.66278,-0.80081 1.05205,-2.38553 1.41408,-3.90121 h -0.002 l 2.14465,-0.28742 v 0 l 0.12955,0.78061 c 0.021,0.12671 0.13064,0.21921 0.25845,0.21921 0.002,0 0.004,-4e-5 0.007,-9e-5 l 18.97092,-0.47309 c 0.13409,-0.003 0.24401,-0.10739 0.25473,-0.24108 l 0.30978,-3.86805 c 0.0111,-0.13855 -0.0879,-0.26165 -0.22559,-0.28058 l -6.21246,-0.85372 h -0.003 c 1.70452,-2.69489 3.41458,-5.46338 3.40222,-7.53273 -0.0122,-2.03554 -1.6644,-3.34957 -3.31278,-4.52337 h -0.003 c 1.19098,-0.33843 2.40093,-0.75883 3.17078,-1.69751 0.87597,-1.06812 1.15228,-2.77662 1.41835,-4.37667 0.0137,-0.0824 -0.0127,-0.16645 -0.0711,-0.2262 -0.0496,-0.0508 -0.1174,-0.0789 -0.1874,-0.0789 -0.0123,0 -0.0247,8.6e-4 -0.0371,0.003 l -7.96595,1.13704 -0.008,10e-4 -10.77555,1.88658 c -0.12022,0.0211 -0.21,0.1223 -0.21652,0.2442 l -0.0676,1.26604 v 0 l -26.44999,3.29796 c -0.0595,0.007 -0.11469,0.035 -0.1563,0.0782 l -1.79512,1.86276 v 0 l -4.00134,-1.652 c -0.0327,-0.0135 -0.0666,-0.0199 -0.0999,-0.0199 -0.0999,0 -0.19494,0.0574 -0.23872,0.15375 l -0.36877,0.81176 c -0.0409,0.09 -0.0277,0.19541 0.0342,0.27249 l 1.99561,2.48567 v 0 l -0.40831,0.52 v 0 l -2.20445,-2.11773 c -0.0489,-0.047 -0.114,-0.0731 -0.18156,-0.0731 -0.003,0 -0.006,5e-5 -0.009,1.5e-4 l -3.71243,0.12165 v 0 l -0.53105,-0.66443 h -0.002 c 0.27138,-1.19732 0.5732,-2.54037 0.19705,-3.28032 -0.39441,-0.7759 -1.45038,-0.83146 -2.30769,-0.85975 h -0.002 l -0.41754,-0.99732 c -0.0389,-0.0929 -0.1276,-0.1553 -0.22818,-0.16053 l -8.96036,-0.46468 c -0.005,-2.5e-4 -0.009,-3.7e-4 -0.0136,-3.7e-4 -0.0703,0 -0.13796,0.0284 -0.1874,0.0789 l -1.01034,1.03363 c -0.0441,0.0451 -0.0704,0.10458 -0.0742,0.16754 l -0.0638,1.06528 v 0 l -1.21772,0.44195 v 0 c 0.42068,-0.97732 0.53294,-2.3063 -0.76676,-5.29589 -0.39534,-0.90938 -0.92196,-1.97438 -1.60522,-3.11051 -2.15178,-3.57809 -5.85951,-7.86539 -11.91002,-10.20251 -3.81957,-1.47541 -8.57208,-2.17256 -13.20601,-2.17256 z"
         id="path2"
         inkscape:connector-curvature="0" />
    </g>
  </g>
</svg>
