<?xml version="1.0" encoding="UTF-8" standalone="no"?>
<svg
   xmlns:dc="http://purl.org/dc/elements/1.1/"
   xmlns:cc="http://creativecommons.org/ns#"
   xmlns:rdf="http://www.w3.org/1999/02/22-rdf-syntax-ns#"
   xmlns:svg="http://www.w3.org/2000/svg"
   xmlns="http://www.w3.org/2000/svg"
   xmlns:sodipodi="http://sodipodi.sourceforge.net/DTD/sodipodi-0.dtd"
   xmlns:inkscape="http://www.inkscape.org/namespaces/inkscape"
   version="1.1"
   width="767.7196"
   height="2158.126"
   viewBox="0 0 767.7196 2158.126"
   id="svg9"
   sodipodi:docname="worker helmet taking notes.svg"
   inkscape:version="0.92.4 (5da689c313, 2019-01-14)">
  <metadata
     id="metadata15">
    <rdf:RDF>
      <cc:Work
         rdf:about="">
        <dc:format>image/svg+xml</dc:format>
        <dc:type
           rdf:resource="http://purl.org/dc/dcmitype/StillImage" />
        <dc:title></dc:title>
      </cc:Work>
    </rdf:RDF>
  </metadata>
  <defs
     id="defs13" />
  <sodipodi:namedview
     pagecolor="#ffffff"
     bordercolor="#666666"
     borderopacity="1"
     objecttolerance="10"
     gridtolerance="10"
     guidetolerance="10"
     inkscape:pageopacity="0"
     inkscape:pageshadow="2"
     inkscape:window-width="1920"
     inkscape:window-height="1048"
     id="namedview11"
     showgrid="false"
     fit-margin-top="0"
     fit-margin-left="0"
     fit-margin-right="0"
     fit-margin-bottom="0"
     inkscape:zoom="0.24180328"
     inkscape:cx="-901.27747"
     inkscape:cy="891.1935"
     inkscape:window-x="0"
     inkscape:window-y="0"
     inkscape:window-maximized="1"
     inkscape:current-layer="svg9" />
  <g
     id="layer1"
     transform="translate(6.3157539,778.9325)">
    <g
       style="fill:#000000;fill-opacity:1;stroke-linejoin:miter"
       id="g2" />
    <g
       style="fill:#000000;fill-opacity:1;stroke-linejoin:miter"
       id="g6">
      <path
         d="m 509.88885,-778.9325 c 7.64105,0 16.29578,0.734 25.83435,2.1542 14.7837,2.10935 19.3938,3.3696 25.85645,7.2876 2.11675,1.30515 5.23955,3.09086 6.79965,4.04057 1.56296,0.83643 3.43405,2.81396 4.0725,4.30468 0.6384,1.49025 6.05736,6.28565 12.0515,10.75735 26.8701,19.7783 43.71215,45.7368 48.7805,75.44773 2.3313,14.00057 2.3518,37.79352 -0.0442,42.48541 -2.9902,5.6958 -2.7285,12.61376 0.5579,16.67041 3.61375,4.51855 4.3059,8.16355 2.78417,14.0127 -0.76707,3.15085 -0.83301,5.52835 -0.18824,6.79295 3.44092,6.66603 4.63697,20.74807 2.21607,26.3462 -3.1443,7.16413 -4.31714,8.60456 -10.6787,13.2999 -5.4309,3.8154 -6.7229,5.4785 -6.7952,8.0825 -0.0468,1.69824 -2.33934,6.7329 -5.0654,11.07617 -2.8423,4.45313 -5.9241,9.35303 -6.8765,11.02588 -0.95286,1.67285 -2.7231,4.22995 -3.7827,5.67335 -1.5283,1.99657 -1.92455,4.0254 -1.55004,6.86815 0.27684,2.27345 -0.32326,7.58252 -1.57786,11.96582 -1.138,4.2735 -2.2855,8.88776 -2.6627,10.23639 -0.2673,1.46582 -2.04075,4.13524 -3.79514,6.12646 -4.79856,5.53226 -8.4524,10.64212 -8.49316,12.1138 -0.0188,0.6792 -1.0879,2.46288 -2.3772,4.01318 -1.64136,1.99366 -2.3928,4.57862 -2.49317,8.20118 -0.10033,3.62305 0.50684,6.24562 2.03517,8.32764 1.2014,1.61962 2.17675,3.23242 2.1672,3.57178 -0.0627,2.26415 7.50735,11.19824 9.86916,11.83007 4.94974,1.27003 11.09474,4.38573 12.95974,6.59083 1.09764,1.27636 3.33665,2.24462 5.1482,2.2949 3.8491,0.10646 6.6418,1.54347 12.1799,6.11525 2.2139,1.87451 4.6638,3.41505 5.4563,3.43701 0.6792,0.0185 6.94385,2.91164 13.75586,6.49904 6.92481,3.59083 15.75564,7.91456 19.78394,9.7256 4.02856,1.81103 8.49414,4.20068 10.04785,5.37646 1.55371,1.17627 4.78665,3.07814 7.24295,4.39258 2.4558,1.31446 8.3684,4.65039 13.16403,7.38916 4.79932,2.6255 9.38117,4.90528 10.17367,4.92725 6.1135,0.16943 26.1062,22.81641 32.1921,36.24075 7.6873,16.98047 10.3389,27.59082 14.10866,55.11328 0.86499,5.57572 1.94094,11.72367 2.45364,13.6641 1.44065,5.25146 2.625,27.94336 2.20456,43.11378 -0.31346,11.3208 0.0481,14.6167 1.94164,19.88086 1.89674,5.15089 2.25245,8.67287 1.9734,18.74904 -0.2068,11.55029 -0.4678,12.78955 -3.4331,17.57912 -1.7765,2.78322 -5.06556,6.99757 -7.2855,9.42872 -5.13504,5.40918 -7.6912,11.7959 -9.50173,23.98244 -0.96802,6.31787 -2.34207,10.9248 -4.11231,13.48144 -1.42116,2.22706 -3.62842,8.2837 -4.7915,13.4629 -4.37596,18.9131 -8.75246,33.74708 -12.52856,43.27248 -0.9746,2.465575 -1.8738,6.29272 -2.04664,8.440917 -0.0628,2.26416 -0.57836,4.515873 -1.15991,5.066166 -0.47165,0.666504 -1.70725,4.371094 -2.49951,8.427977 -3.10914,14.07618 -9.72434,32.020523 -16.88694,45.1911813 -3.3455,6.2519553 -17.4292,27.9548427 -23.0767,35.5026987 -4.4659,5.94229 -11.2267,9.459034 -18.16185,9.459034 -0.18905,0 -0.37815,-0.0026 -0.56738,-0.0079 -0.49417,-0.01369 -0.94257,-0.02207 -1.35151,-0.02207 -3.33886,0 -4.04836,0.558496 -5.53866,3.34336 -1.55,2.789551 -1.70725,4.371586 -0.9206,8.698491 4.6626,23.921645 5.7583,45.705341 2.57346,54.341085 -3.18826,8.74878 -6.9397,13.29005 -12.8894,15.39112 l -5.26076,1.78052 4.28664,4.76392 c 5.3872,5.92724 6.78396,8.68505 6.64576,13.66625 -0.18513,6.67943 -2.95546,8.5288 -12.7013,8.59862 l -8.5,0.10473 0.22045,4.31129 c 0.1482,2.83642 -0.49025,5.42481 -2.14721,7.98463 -2.00928,3.00342 -2.53444,5.59473 -2.74439,13.17968 -0.25755,5.2046 -1.14065,12.54444 -2.14965,16.25538 -1.6382,5.95922 -1.66334,6.86499 -0.22266,8.03784 0.88672,0.70435 1.63526,2.31128 1.60056,3.55664 -0.0344,1.24536 0.9314,3.19824 2.14504,4.36474 2.76146,2.5691 2.72096,8.11964 10e-4,16.31472 -2.23536,7.07593 -2.37231,24.29346 -0.0637,30.92871 1.00916,3.09302 1.41526,4.19501 2.70776,4.19501 0.71406,0 1.6986,-0.33634 3.20484,-0.85907 2.17261,-0.73291 2.99656,-1.84302 3.05296,-3.88062 0.0549,-1.98367 0.61367,-2.7725 2.10524,-2.7725 0.0407,0 0.0822,5.8e-4 0.12426,0.002 4.52833,0.12549 5.7329,1.6316 7.8877,9.73535 2.46314,9.24561 2.9759,11.18579 10.3929,33.82422 2.91894,9.14478 6.13353,19.88379 7.0398,23.98733 0.90575,4.104 1.9314,7.98438 2.3684,8.563 0.4341,0.6919 1.35253,4.34277 2.27123,7.99365 0.80201,3.76123 2.74317,11.40575 4.17117,17.11035 4.72776,17.46557 4.73093,17.3523 -2.2278,23.1643 l -6.03126,5.04444 4.0542,13.1416 c 2.29321,7.20142 4.448,15.30518 4.82251,18.14796 1.12305,8.5283 7.4082,35.21438 9.12255,38.77395 0.8557,1.83642 1.57276,4.57545 1.5288,6.1604 -0.0657,2.37745 -0.6445,2.81469 -4.2766,3.05395 -7.3745,0.3623 -5.62597,2.6765 2.6228,3.47144 8.47535,0.80126 21.02284,5.90741 30.25013,12.28094 8.78052,6.13477 23.53052,21.72534 23.4458,24.78222 -0.0483,1.74806 -0.70333,2.61472 -1.81659,2.61472 -1.33814,0 -3.33844,-1.25207 -5.74344,-3.73068 -1.7498,-1.77548 -2.74844,-2.61612 -3.2547,-2.61612 -0.29086,0 -0.41915,0.27741 -0.43405,0.81436 -0.0374,1.34882 -0.62548,1.98676 -1.5957,1.98676 -1.79845,0 -4.90991,-2.19208 -8.26025,-6.11176 -6.47876,-7.43042 -9.71485,-9.21972 -16.9602,-9.42041 -0.6233,-0.0172 -1.1799,-0.0271 -1.6768,-0.0271 -3.3845,0 -4.0002,0.45636 -4.0466,2.13453 -0.0408,1.47168 -1.437,2.79248 -4.1853,3.84936 -3.89307,1.47827 -4.52515,3.84009 -0.90234,3.94044 1.47168,0.0408 1.56004,0.9497 0.88404,4.89623 -0.52516,2.59131 -1.86427,5.95313 -2.9209,7.28369 -8.5813,11.20508 -8.48,15.73975 1.05004,80.69678 1.04786,7.16675 2.26536,16.37744 2.83176,20.4719 0.4563,3.9783 1.93484,11.9497 3.25,17.65115 3.3374,14.4812 6.4236,29.86205 7.04983,35.88405 0.37451,2.843 1.06347,6.6008 1.57617,8.541 1.5381,5.8208 7.05396,48.0071 8.79126,67.08935 0.69874,7.49658 1.69019,16.70142 2.26587,20.45605 0.57567,3.7549 1.79027,13.0789 2.82227,20.81183 1.032,7.73267 3.017,17.87097 4.4733,22.55652 3.844,12.56935 3.429,15.2771 -2.7185,20.43165 -6.88114,5.71935 -18.17717,9.1006 -27.32634,9.1006 -4.88232,0 -9.15332,-0.9629 -11.81576,-3.04714 -4.104,-3.17261 -4.4597,-6.69482 -1.3498,-12.61353 1.07835,-2.1228 2.7036,-7.62913 3.62473,-12.24903 1.33277,-7.2141 1.29807,-10.0476 -0.22796,-20.39977 -1.81517,-12.1731 -3.77832,-23.10406 -6.35497,-36.43123 -3.26857,-16.9719 -9.2124,-64.155 -12.5547,-98.9165 -0.94434,-10.90306 -2.2031,-22.7207 -2.67505,-26.1328 -1.5166,-10.6919 -4.41135,-32.9783 -5.99095,-45.48486 -0.83693,-6.59448 -2.10475,-13.9939 -2.82814,-16.50634 -0.83692,-2.5159 -1.73656,-6.8462 -2.11086,-9.689 -0.2612,-2.8398 -1.47557,-8.08494 -2.6206,-11.74216 -1.0349,-3.54104 -1.94066,-7.64478 -1.90306,-9.00318 0.11656,-4.20736 -2.88074,-6.60696 -7.36794,-6.60696 -1.9121,0 -4.0948,0.43576 -6.42235,1.35306 -2.21205,0.81457 -5.37245,1.49688 -7.21728,1.49688 -0.0645,0 -0.12732,-7.9e-4 -0.18847,-0.003 -0.0687,-0.002 -0.1377,-0.003 -0.207,-0.003 -1.7581,0 -3.6832,0.60483 -4.24906,1.3522 -0.698,0.6604 -1.92674,8.2173 -2.95144,16.573 -1.02464,8.3555 -2.64305,21.7932 -3.77464,29.9192 -1.01516,8.01586 -2.72803,20.77124 -3.6145,28.22436 -2.17166,17.04761 -5.12966,33.84714 -6.84619,38.55811 -1.10352,3.02833 -0.83301,5.52853 1.41943,14.20143 1.5381,5.8208 4.2527,14.1667 6.05493,18.63524 1.80542,4.35546 4.22413,11.10693 5.59227,14.88356 1.25515,3.7734 4.19606,12.1257 6.51125,18.53465 4.73682,13.04712 7.84495,27.63525 9.75781,44.4563 0.62329,6.1355 1.96364,15.00975 2.85718,19.56645 1.28662,6.7202 1.43481,13.6355 0.70673,31.7428 -0.98877,23.42506 -0.17847,51.4319 1.63013,59.75294 1.4092,6.38356 1.8257,24.06956 0.7727,29.36526 -0.635,2.4751 -0.7322,5.9846 -0.33277,7.92185 3.10817,14.58815 3.82862,21.29275 3.58447,34.20165 -0.2229,8.0381 0.0266,19.4879 0.3161,25.38734 2.74244,44.14891 2.2654,98.17841 -1.1174,109.86761 -1.1321,4.0474 -2.6597,10.1233 -3.3201,13.5037 -1.31713,6.6482 -8.13036,23.5674 -11.31884,28.2375 -2.83301,4.1136 -3.81592,23.2337 -1.32202,27.2681 2.2771,3.6885 11.11766,11.751 21.65942,19.7473 8.98804,6.8203 15.75928,15.9583 17.47681,23.4837 0.60107,2.8491 0.51953,9.8713 -0.40723,18.7961 -1.29174,13.8999 -1.42358,14.5759 -5.6748,20.8027 -2.47779,3.5569 -6.28224,10.023 -8.66894,14.3753 -2.3833,4.2392 -6.2886,10.2492 -8.75074,13.24 -2.46216,2.9907 -4.25122,6.227 -4.05296,7.2519 0.31126,1.0283 0.69236,7.7234 0.83415,14.8651 0.3501,11.9059 0.19922,13.2611 -1.91065,15.8087 -1.2893,1.5503 -2.72924,4.4561 -3.1223,6.3714 -0.5093,2.0251 -1.4683,3.9245 -2.0437,4.2485 -0.5786,0.4373 -1.1067,3.1419 -1.1914,6.1985 -0.1287,4.6416 -0.616,5.8743 -2.9209,7.2835 -1.84596,1.195 -2.9182,3.0913 -3.4651,6.4753 -0.41504,2.7075 -1.64746,6.2991 -2.60303,8.0852 -1.07251,1.8962 -1.97461,5.8367 -2.05617,8.78 -0.0815,2.9436 -1.03416,8.6956 -2.16575,12.7429 -1.88331,6.6324 -2.71021,7.8558 -9.7854,13.7779 -4.1637,3.6094 -8.30845,6.545 -9.12285,6.545 -0.003,0 -0.006,0 -0.009,-10e-5 -0.008,-2e-4 -0.0167,-4e-4 -0.0254,-4e-4 -0.951,0 -4.8056,1.356 -8.66935,3.0453 -12.7295,5.5389 -26.99705,9.3355 -36.63575,9.635 -1.1687,0.04 -2.41235,0.058 -3.71453,0.058 -15.12337,0 -38.1413,-2.5485 -43.39387,-4.989 -4.4578,-1.9949 -12.5646,-7.4063 -14.12347,-9.1974 h 0.005 q -1.9117,-0.7601 -4.46745,-2.1957 l -3.64321,-2.5262 q -4.36728,-4.1629 -4.49952,-4.4994 -0.92697,-1.0452 -3.71682,-5.0798 l -2.40082,-4.0578 -1.2464,-1.3971 h 0.005 c -4.64792,-1.8099 -5.78409,-4.0232 -4.85576,-8.9473 1.07838,-6.2014 4.26954,-15.0634 5.65016,-15.8183 0.57837,-0.4369 1.14404,-4.5 1.27588,-9.2548 0.27906,-10.0759 2.67506,-14.7679 9.09961,-17.6492 2.1792,-0.9593 4.61938,-3.1575 5.45581,-4.7204 2.77002,-5.9283 9.24438,-14.6993 13.77246,-18.6526 2.5564,-2.3084 4.66943,-4.969 4.70093,-6.1011 0.0312,-1.1321 1.3269,-2.9089 2.94018,-3.884 3.22632,-1.9497 3.86743,-4.6512 1.28882,-5.6293 -0.89331,-0.4777 -1.66065,-1.4055 -1.6355,-2.3109 0.022,-0.7925 -0.84595,-2.1764 -1.95605,-3 -1.11035,-0.824 -2.62622,-3.3584 -3.4724,-5.5347 -0.84596,-2.1758 -3.0918,-6.9966 -5.03248,-10.5625 -1.94019,-3.5661 -3.55079,-6.7829 -3.54126,-7.1225 0.006,-0.2266 -0.51294,-1.9405 -1.14186,-3.7708 -6.02,-15.8018 -9.10912,-26.9905 -12.25512,-44.2988 -1.47241,-8.1983 -3.63378,-20.1546 -4.92358,-26.7615 -1.4756,-8.0848 -1.89087,-13.5344 -1.34082,-17.0315 0.53102,-2.8179 1.88842,-19.0952 2.92828,-36.1742 1.15284,-17.0759 2.34326,-35.5105 2.94654,-40.9319 l 0.8391,-9.8337 -5.71484,-10.4685 c -3.23632,-5.8677 -6.47583,-11.6226 -7.11743,-12.9998 -0.75488,-1.3806 -1.34619,-4.5691 -1.27733,-7.0598 -0.0442,-2.4936 -0.37794,-6.8083 -0.75245,-9.6511 -0.48755,-2.8457 -1.33715,-8.98761 -1.8877,-13.64801 -1.4978,-11.37134 -6.50659,-43.2334 -8.30908,-51.78054 -0.68897,-3.75804 -2.27441,-11.9592 -3.46069,-18.2236 -1.07276,-6.261 -2.75586,-15.0315 -3.65552,-19.3618 -1.89086,-9.4561 -3.82593,-25.48465 -4.90259,-39.79007 -0.40893,-5.67603 -1.1521,-15.66699 -1.64624,-22.36523 -0.99805,-13.05664 0.49512,-26.04444 3.99121,-33.6521 5.19751,-11.75196 10.06256,-52.40424 6.66901,-56.6904 -0.65405,-0.92453 -1.88721,-5.49045 -2.66405,-10.15744 -1.93214,-12.06296 -4.32912,-23.68556 -5.19704,-25.06936 -0.43408,-0.6916 -1.56958,-4.68845 -2.58569,-8.90867 -3.65552,-15.28323 -6.9519,-27.15747 -9.68213,-34.93723 -4.92261,-14.5252 -6.65259,-21.59744 -7.7102,-32.5037 -0.87189,-8.8006 -1.53464,-12.8104 -2.41547,-12.8104 -0.46091,0 -0.98154,1.0979 -1.62311,3.18175 -0.74511,2.35865 -1.42406,6.41845 -1.49316,8.90918 -0.0688,2.49047 -1.44605,7.21094 -3.12183,10.45017 -1.67895,3.3523 -3.04347,7.6199 -3.09667,9.54446 -0.0567,2.03784 -1.0122,7.90284 -1.9519,13.2019 -1.32032,6.76099 -1.53077,10.26734 -0.79786,12.44044 0.63526,1.60375 1.2019,9.77685 1.19629,18.16064 0.16137,14.61986 0.0166,15.74876 -3.53589,25.39406 -4.66602,13.0134 -6.39771,26.44774 -8.22541,63.7853 -0.79736,16.5193 -2.12623,35.8562 -2.88963,42.9729 -0.8772,7.11355 -1.92995,16.48806 -2.39186,20.8938 -0.57202,4.2896 -0.81689,9.0413 -0.74144,10.40285 0.54784,8.85255 -1.16896,50.38501 -2.57716,60.31615 -2.27246,16.5918 -3.46607,35.13966 -4.6958,75.43945 -0.53004,19.1325 -1.469,36.6674 -2.09474,38.8029 -0.62572,2.1353 -2.6565,10.0098 -4.44848,17.438 -1.79199,7.4281 -4.94532,19.0103 -7.06128,25.8629 -3.73804,12.2458 -5.13014,25.6895 -3.57594,35.023 0.28636,1.9338 -0.26393,5.431 -1.12526,7.8997 -0.97778,2.5786 -1.40552,5.7392 -0.99634,7.3366 1.12305,4.4497 0.43897,25.0508 -0.93164,29.5447 -1.48752,4.8107 -11.56064,15.3386 -14.77446,15.3386 -0.0133,0 -0.0265,-10e-5 -0.0395,-5e-4 -0.0177,-4e-4 -0.0357,-7e-4 -0.0537,-7e-4 -1.25055,0 -3.28366,1.177 -4.66629,2.7024 -1.38413,1.5272 -3.53123,2.7023 -4.6753,2.7023 -0.0151,0 -0.03,-3e-4 -0.0447,-6e-4 -0.048,0 -0.096,0 -0.14392,0 -1.19704,0 -2.37317,0.4075 -2.71474,0.9424 -0.3552,0.5569 -4.91185,1.4502 -10.02513,1.9883 -5.22974,0.6482 -10.46875,1.6362 -11.72974,2.1677 -1.26099,0.5315 -12.04103,1.1392 -24.05395,1.2595 -12.24244,0.2276 -22.34328,0.854 -23.26783,1.5083 -0.81128,0.6572 -5.26415,1.8933 -9.93408,2.7837 -4.67285,1.0034 -12.78296,3.3845 -18.05029,5.3914 -5.23001,1.8814 -10.11855,3.5483 -10.95891,3.5483 -0.005,0 -0.0108,-10e-5 -0.016,-2e-4 -0.003,-10e-5 -0.007,-10e-5 -0.0103,-10e-5 -0.71625,0 -5.50461,1.899 -10.41723,4.243 -4.87306,2.3253 -10.39515,4.1909 -12.27972,4.1909 -0.0248,0 -0.049,-4e-4 -0.0726,-0 -0.0613,0 -0.12424,0 -0.18883,0 -1.845,0 -5.00899,0.6861 -7.33337,1.6068 -2.29224,0.9563 -10.25171,1.9819 -17.62598,2.3442 -7.48755,0.3591 -14.65136,1.2937 -15.91526,1.9384 -0.99608,0.5044 -4.88051,0.7218 -9.5312,0.7218 -8.22674,0 -18.85118,-0.6805 -20.12701,-1.6566 -0.27533,-0.2333 -1.16301,-0.6519 -2.37337,-1.122 h 0.001 q -2.69386,-0.2205 -7.08918,-0.7291 l -3.68142,-0.086 q -1.40425,-0.109 -2.40385,-0.4514 l -7.37934,-3.1694 q -1.60832,-0.7755 -3.04975,-1.8868 -1.33234,-1.0623 -2.47938,-2.311 -3.6121,-4.3591 -7.32659,-8.4276 -1.77486,-2.0976 -3.2568,-4.1653 h 8.6e-4 l -1.71518,-0.7972 q -3.70689,-2.0541 -5.02073,-3.1561 -4.68903,-4.4864 -4.8436,-4.8237 -0.4188,-0.2242 -2.23238,-4.3101 -0.87528,-2.0153 -1.2363,-3.4956 l -2.96203,-12.9822 q -1.18722,-9.8177 2.79103,-20.6842 l 0.0036,-0.01 q 3.4175,-7.2441 12.11111,-15.5175 1.138795,-1.0102 2.67395,-1.7095 l 9.147416,-3.6775 11.741254,-4.2735 0.33592,-0.281 h 0.001 c 5.3e-4,-0.034 0.001,-0.068 0.002,-0.1033 0.0593,-2.1424 1.84141,-3.5906 8.0071,-4.9429 h 10e-4 l 0.92372,-0.4967 q 1.46748,-1.1732 10.90027,-2.9925 l 7.99217,-0.8117 6.08376,-0.8461 q 2.27417,-0.2386 4.62372,-0.2782 h 0.0883 q 0.14145,-0.041 0.71254,-0.041 1.85912,0 8.27129,0.4368 c 5.99541,-0.8781 10.96678,-2.0558 14.51588,-3.4872 3.78003,-1.4814 8.25147,-3.3969 10.08179,-4.0259 2.29248,-0.956 3.11328,-1.9531 3.18213,-4.4437 0.0471,-1.6981 1.38649,-5.0598 3.0342,-7.28 1.6477,-2.2205 2.97436,-5.1294 3.01196,-6.4881 0.0376,-1.3584 1.97143,-5.7237 4.23218,-9.6262 2.25781,-3.7896 4.88305,-8.5888 5.95239,-10.3718 0.95898,-1.8994 4.48706,-6.5603 7.7666,-10.4348 4.56592,-5.3118 6.229,-8.0982 6.7854,-11.8215 0.5752,-4.4029 0.25439,-5.0914 -3.27734,-8.4749 -2.09449,-2.0972 -4.63892,-4.3206 -5.52246,-5.1382 -0.99707,-0.8205 -3.50684,-4.289 -5.56373,-7.7451 -3.46899,-5.6475 -3.8811,-7.1318 -3.69604,-13.8113 0.18506,-6.67945 0.56226,-8.02859 4.08081,-12.34965 7.16016,-8.97875 16.91064,-25.58983 19.73706,-33.5559 0.8584,-2.35546 5.69434,-9.24585 10.85156,-15.44775 9.72879,-11.73985 10.45828,-13.53235 8.29105,-21.18325 -0.61963,-2.1699 -1.48193,-7.8586 -1.91919,-12.51585 -0.43774,-4.65745 -1.27759,-11.13865 -1.75903,-14.21095 -3.23096,-18.3303 -4.9524,-33.8999 -5.42823,-49.4348 -0.65234,-17.3528 -1.66406,-50.35034 -2.27587,-69.1748 -0.32471,-12.8116 2.0581,-25.2081 5.91625,-29.51984 l 3.0376,-3.3147 -2.28051,-7.65429 c -6.32862,-21.02222 -8.76026,-31.39942 -13.32203,-54.86524 -4.35083,-22.89333 -4.3413,-23.23293 -1.45263,-37.54173 1.55932,-7.2078 3.58667,-23.1267 4.61085,-35.56075 1.89137,-23.28711 3.34962,-35.02955 5.56911,-45.61792 0.66016,-3.38083 1.83545,-17.17043 2.54492,-30.52003 0.70972,-13.34935 1.84985,-34.05125 2.62866,-45.8125 l 1.27539,-21.4912 -4.99682,4.5066 c -2.78906,2.52856 -6.26052,5.1516 -7.63796,5.7932 -1.4619,0.70393 -3.56338,1.04624 -5.88914,1.04624 -3.33764,0 -7.13716,-0.70494 -10.17116,-2.05771 -5.48779,-2.30443 -9.03223,-9.31396 -9.5708,-18.50586 l -0.39673,-6.12915 -2.43677,2.08521 c -2.2874,2.02374 -4.45411,2.99937 -7.0251,2.99937 -1.47625,0 -3.0858,-0.32167 -4.92802,-0.95128 -5.61353,-1.85498 -7.56958,-4.85472 -9.45117,-14.6509 -1.69873,-8.20435 -4.84424,-21.43384 -6.61524,-27.03467 -2.1831,-7.08472 -6.0647,-22.37403 -6.0271,-23.73267 0.0627,-2.26416 -11.13771,-27.38672 -15.25783,-34.07202 -3.68286,-6.10693 -6.08252,-9.45898 -14.38549,-20.56566 -2.07569,-2.77663 -3.80542,-5.77028 -3.78345,-6.56276 0.072,-2.59334 2.67345,-7.25216 4.03665,-7.25216 0.005,0 0.0109,6e-5 0.0163,2.2e-4 0.68237,-0.0945 2.40576,-0.95314 3.91186,-2.15776 2.5503,-2.08204 2.66651,-2.19214 0.84229,-5.86816 -1.71387,-3.55982 -6.49146,-11.0564 -17.25707,-27.32956 -3.37159,-5.07837 -4.21143,-7.48096 -4.10791,-11.21704 0.26684,-5.54395 1.67895,-7.43115 8.59375,-11.65796 3.35644,-1.97762 7.5976,-2.96329 11.01703,-2.96329 3.50353,0 6.14443,1.03473 6.08722,3.09732 -0.022,0.79248 2.40601,3.12549 5.40918,5.13477 l 5.56667,3.55322 -0.57276,-3.86792 c -1.1101,-8.02475 7.06931,-13.61593 19.22626,-13.61593 0.24878,0 0.49922,0.002 0.75128,0.007 9.50952,0.26343 11.16382,1.89551 13.22461,13.39551 0.771,4.89306 2.20215,10.48438 3.06055,12.20776 0.85888,1.7234 1.48144,3.7798 1.45654,4.68555 -0.022,0.79248 0.50952,2.05347 1.28027,2.86792 0.44771,0.47321 0.85561,0.7139 1.30761,0.7139 0.54797,0 1.16075,-0.35379 1.98782,-1.07597 2.20434,-1.86498 2.13184,-7.41844 -0.0542,-10.3115 -0.65724,-0.8113 -1.46266,-4.459 -1.93141,-7.98414 -0.46582,-3.63843 -1.31836,-9.66699 -1.89087,-13.53491 -1.17041,-6.83033 -1.16431,-7.05665 2.24438,-11.49415 1.88356,-2.5537 4.44314,-4.97534 5.69777,-5.28051 3.42774,-1.03809 7.5,-4.89064 7.5691,-7.38112 0.0312,-1.13208 1.62524,-5.50659 3.54956,-9.53223 5.05908,-10.84961 5.44555,-12.53833 3.29467,-12.5979 -1.47168,-0.0408 -1.66357,-1.29224 -0.77124,-8.97168 l 1.03711,-8.80861 -4.61963,-4.99975 c -2.4187,-2.6731 -4.49145,-5.56299 -4.47265,-6.24219 0.0188,-0.6792 -1.17285,-2.63818 -2.7107,-4.38037 -2.96606,-3.36768 -3.22729,-6.20728 -1.48242,-11.93701 0.99365,-3.14502 0.896,-3.71411 -1.01269,-4.3335 -1.34595,-0.49048 -2.10401,-1.75781 -2.05689,-3.45605 0.0627,-2.26416 0.87085,-2.80835 4.17261,-3.39649 1.03499,-0.15873 2.25641,-0.22998 3.54756,-0.22998 4.95432,0 10.93556,1.04894 11.35234,2.22876 0.20752,0.68555 4.15772,5.32691 8.77784,10.32666 4.73315,5.00293 9.64868,11.59693 11.03906,14.5813 2.00961,4.39432 3.17158,6.15727 5.07661,6.15727 0.93053,0 2.03836,-0.42064 3.50885,-1.16069 2.07091,-0.99051 4.7337,-1.48004 7.17067,-1.48004 2.83263,0 5.36012,0.66138 6.29833,1.96613 0.5845,0.93187 1.08413,1.36808 2.36523,1.36808 1.09689,0 2.76672,-0.31978 5.55322,-0.92204 6.27051,-1.41235 6.61646,-1.62915 8.67896,-6.55737 1.09741,-2.802 2.55273,-10.35254 3.18432,-16.79321 0.6316,-6.44019 1.58423,-12.1919 2.27905,-12.73926 0.58497,-0.66359 1.1665,-5.29274 1.3108,-10.5005 0.1411,-5.09449 0.85742,-10.51295 1.58056,-12.07886 1.19507,-2.23291 0.89917,-3.8274 -1.55396,-9.3335 -2.55712,-5.84913 -2.84984,-7.55665 -1.9917,-13.99097 0.73853,-6.21094 1.46485,-7.89015 5.32618,-12.3152 5.38012,-6.08227 6.86742,-10.68603 9.64917,-29.30347 1.79468,-11.61988 5.88525,-65.2094978 5.99732,-77.442657 0.0122,-4.531496 -2.54444,-6.30176 -9.4502,-6.493166 -3.16992,-0.08765 -11.75513,-1.005371 -19.2019,-2.118164 -7.44677,-1.112307 -17.49436,-2.41065 -22.34983,-2.998297 l -8.69532,-1.033691 -6.616,5.708013 c -5.92114,5.160891 -17.52808,11.070805 -24.48096,12.577641 -1.59448,0.295655 -7.65723,2.3938003 -13.61011,4.608156 -6.96915,2.6644783 -12.266,3.9787295 -16.61987,3.9787295 -3.58696,0 -6.53388,-0.8920305 -9.24855,-2.6559747 -3.67017,-2.4809582 -11.4541,-11.8737838 -20.82619,-25.2758868 -2.5068,-3.582037 -6.22117,-8.556163 -8.30296,-11.106455 -1.96899,-2.547364 -6.3125,-9.352298 -9.44165,-14.990242 -5.43279,-9.785466 -6.60623,-12.426176 -8.99653,-12.426176 -1.12318,0 -2.51503,0.58306 -4.74371,1.281885 -3.31128,0.928225 -8.21704,2.151611 -11.05982,2.526367 -2.7295,0.377441 -5.46851,1.094482 -6.160405,1.528808 -0.578615,0.437012 -4.456055,1.349366 -8.437255,1.918946 -2.84597,0.460697 -4.59794,0.737568 -5.79894,0.737568 -1.824726,0 -2.377605,-0.639118 -3.56313,-2.243672 -1.09448,-1.389648 -2.4751,-4.713622 -2.97217,-7.219972 -0.61035,-2.50903 -1.74902,-6.39283 -2.59521,-8.5691 -0.73267,-2.17285 -2.9126,-9.37109 -4.65528,-15.990484 -1.74268,-6.619626 -4.65235,-16.104006 -6.438724,-21.138676 -1.673584,-5.03125 -3.548096,-10.97462 -3.941406,-13.13819 -0.50635,-2.16651 -1.868412,-6.16993 -3.15479,-8.81153 -1.173095,-2.63818 -2.11377,-5.49658 -2.088622,-6.40234 0.02197,-0.79248 -0.289551,-1.82082 -0.619628,-2.16994 -0.547364,-0.69482 -3.900395,-10.53125 -13.075692,-39.22365 -2.186035,-6.97119 -4.494873,-13.60644 -5.026368,-14.86767 -0.531497,-1.26074 -1.582034,-4.23535 -2.19556,-6.63184 -0.72339,-2.51271 -1.877685,-5.83009 -2.739502,-7.44044 -0.858642,-1.72315 -1.484621,-3.6665 -1.465822,-4.3457 0.02197,-0.79249 -1.67334,-5.03126 -3.70215,-9.50635 -2.028565,-4.4751 -3.727051,-8.60059 -3.708252,-9.27979 0.0188,-0.6792 -0.396486,-2.05029 -0.931154,-3.19824 -0.537842,-1.0342 -1.38379,-3.21095 -2.019288,-4.81447 -5.390872,-13.97168 -10.866949,-24.88623 -17.9338464,-35.61915 -6.8469266,-10.49953 -8.2402383,-13.37063 -7.4951206,-15.72903 0.4324755,-1.75405 0.7827696,-2.41767 2.1909308,-2.41767 0.6697957,0 1.5789297,0.15016 2.8500872,0.4045 2.367921,0.40526 11.066411,1.32616 19.43458,1.89794 8.364994,0.68456 15.70484,1.56836 16.255133,2.1499 0.666748,0.47119 10.610604,1.42676 22.035412,2.08301 58.253202,3.42675 66.282012,3.9888 67.278842,4.8096 0.6665,0.47217 22.26173,2.08935 48.05177,3.59717 25.79006,1.50732 47.49833,3.12891 48.05179,3.59718 0.667,0.47167 4.38404,1.25438 8.45337,1.59374 l 7.4563,0.77296 1.6001,-4.6006 c 2.06163,-6.0466 3.10902,-7.23416 8.23642,-7.23416 0.39319,0 0.81036,0.007 1.25383,0.0193 7.5852,0.20997 8.55395,2.04983 9.12134,18.37991 0.27734,10.43164 0.97264,13.96338 2.89746,18.09473 1.0654,2.10437 2.02096,3.41381 2.42808,3.41381 0.12648,0 0.2,-0.12645 0.2074,-0.39477 0.0628,-2.26465 4.65016,-12.44727 10.50172,-23.27491 2.38965,-4.4658 4.71338,-10.6328 5.51783,-15.1426 1.61255,-9.13233 3.16285,-11.92188 9.93603,-19.21192 2.91824,-3.0913 5.27005,-6.19873 5.28909,-6.87793 0.0188,-0.67919 2.84546,-4.5664 6.35473,-8.54785 3.396,-3.98486 7.04347,-8.86816 8.11256,-10.65185 2.8645,-5.24512 7.72607,-8.96289 17.02151,-13.23737 4.70435,-2.13574 9.99076,-4.82178 11.72,-5.90674 1.73267,-1.19824 6.43091,-3.10742 10.31446,-4.24609 4,-1.24855 9.03442,-3.03565 11.21704,-4.10791 2.18213,-1.07274 6.29248,-2.20459 9.13525,-2.57959 2.84278,-0.37402 7.75464,-1.82422 10.96534,-3.20801 3.18934,-1.37457 6.26086,-2.52944 6.85656,-2.52944 0.004,0 0.008,5e-5 0.0116,1.4e-4 0.004,1e-4 0.007,1.6e-4 0.0108,1.6e-4 0.70526,0 4.25083,-1.8206 8.0361,-4.19547 3.68848,-2.27733 8.0564,-4.53563 9.65406,-4.94433 5.36474,-1.4375 14.33322,-6.1743 20.69137,-10.7568 3.46851,-2.50977 7.38672,-4.89356 8.64453,-5.31202 1.25464,-0.30468 4.95582,-3.03516 8.32372,-6.00048 l 6.0408,-5.3843 -0.2593,-15.18898 c 0.003,-8.271 -0.75292,-17.80908 -1.67773,-21.23292 -1.42187,-5.93114 -8.38207,-20.5127 -11.6748,-24.34325 -0.88062,-0.93067 -1.52539,-2.19435 -1.50977,-2.76025 0.0127,-0.45313 -1.1731,-2.63868 -2.70483,-4.60694 -2.94385,-4.16016 -9.5166,-8.19436 -17.48557,-10.90778 -4.83032,-1.49365 -10.90014,-7.32668 -10.82153,-10.15725 0.0156,-0.56593 -0.61059,-2.50879 -1.46264,-4.45899 -0.84937,-2.0625 -1.89723,-9.22949 -2.4983,-16.15724 -0.49096,-6.8115 -1.34083,-12.9531 -1.88793,-13.64793 -1.6416,-2.08497 -2.07325,-11.04737 -1.79517,-37.43807 0.17187,-14.38426 0.0132,-33.1958 -0.42773,-41.81883 -0.61744,-14.51907 -0.9131,-16.11327 -3.74366,-20.27051 -1.63232,-2.42432 -3.58862,-5.42432 -4.12332,-6.57226 -1.94067,-3.5659 -12.97632,-14.18165 -16.77832,-15.98633 -2.0127,-0.9624 -3.67944,-2.1416 -3.667,-2.59427 0.0283,-1.019 -10.44726,-7.31394 -12.25878,-7.3642 -3.05664,-0.0845 -7.79294,-4.9743 -7.7114,-7.91763 0.0691,-2.49072 1.46828,-3.92481 7.34546,-7.50097 3.92162,-2.4971 8.40552,-4.8657 10.00318,-5.2744 1.59741,-0.4092 3.43094,-1.1514 4.0093,-1.5884 0.6919,-0.4346 4.00318,-1.3618 7.42457,-2.1738 3.41845,-0.6983 6.84301,-1.6231 7.42163,-2.0601 0.69164,-0.43456 3.42749,-1.0381 6.2705,-1.4126 9.09449,-1.1074 12.18872,-2.3818 13.52514,-5.62987 4.99293,-12.55127 7.51762,-17.80663 12.77494,-27.63083 18.87494,-35.1655 47.58518,-53.17776 89.47608,-56.2095 2.55633,-0.2058 5.25976,-0.3075 8.10363,-0.3075 z"
         id="path4"
         inkscape:connector-curvature="0" />
    </g>
  </g>
</svg>
