<?xml version="1.0" encoding="UTF-8" standalone="no"?>
<svg
   xmlns:dc="http://purl.org/dc/elements/1.1/"
   xmlns:cc="http://creativecommons.org/ns#"
   xmlns:rdf="http://www.w3.org/1999/02/22-rdf-syntax-ns#"
   xmlns:svg="http://www.w3.org/2000/svg"
   xmlns="http://www.w3.org/2000/svg"
   xmlns:sodipodi="http://sodipodi.sourceforge.net/DTD/sodipodi-0.dtd"
   xmlns:inkscape="http://www.inkscape.org/namespaces/inkscape"
   version="1.1"
   viewBox="0 0 313.01 800"
   id="svg6"
   sodipodi:docname="man with jacket standing.svg"
   inkscape:version="0.92.4 (5da689c313, 2019-01-14)">
  <metadata
     id="metadata12">
    <rdf:RDF>
      <cc:Work
         rdf:about="">
        <dc:format>image/svg+xml</dc:format>
        <dc:type
           rdf:resource="http://purl.org/dc/dcmitype/StillImage" />
        <dc:title></dc:title>
      </cc:Work>
    </rdf:RDF>
  </metadata>
  <defs
     id="defs10" />
  <sodipodi:namedview
     pagecolor="#ffffff"
     bordercolor="#666666"
     borderopacity="1"
     objecttolerance="10"
     gridtolerance="10"
     guidetolerance="10"
     inkscape:pageopacity="0"
     inkscape:pageshadow="2"
     inkscape:window-width="933"
     inkscape:window-height="512"
     id="namedview8"
     showgrid="false"
     inkscape:zoom="0.295"
     inkscape:cx="156.505"
     inkscape:cy="400"
     inkscape:window-x="0"
     inkscape:window-y="0"
     inkscape:window-maximized="0"
     inkscape:current-layer="svg6" />
  <g
     transform="translate(-839.85 -290)"
     id="g4">
    <path
       d="m1085 1081.8c-1.5598-2.3806-2.85-11.496-2.4999-17.663 0.2433-4.2859 0.6904-5.7806 2.6233-8.7691 2.6727-4.1325 2.831-6.0019 1.1935-14.092-1.7387-8.5904-6.1434-24.355-7.3184-26.192-0.8328-1.3023-1.7226-1.6389-4.3325-1.6389-4.6373 0-8.1702-1.6329-8.7788-4.0576-0.4923-1.9617 0.043-14.335 0.903-20.87l0.4526-3.4399-7.6361-7.544c-7.1951-7.1086-7.8922-8.0664-12.075-16.591-5.4489-11.105-12.649-29.095-15.19-37.953-1.7128-5.9713-1.8409-7.2719-1.3403-13.614 1.0814-13.701 1.1555-13.304-4.3652-23.401-7.5448-13.8-13.931-26.883-15.167-31.069-0.6092-2.0645-1.327-6.8173-1.5952-10.562-0.2682-3.7445-1.1101-9.5191-1.871-12.832-1.9808-8.6252-11.666-37.553-12.331-36.831-2.654 2.8816-3.9996 33.642-1.8352 41.951 2.5834 9.9186 4.2578 22.171 4.2544 31.132-7e-3 15.411-2.5148 26.151-10.157 43.481-2.1539 4.8846-3.9162 9.6994-3.9162 10.7 0 1.0891 1.2196 3.2245 3.0402 5.323 3.8098 4.3914 6.7652 10.795 11.199 24.264 4.1949 12.743 4.9052 20.075 2.9025 29.962-1.5646 7.7246-3.4464 12.086-7.4252 17.21-1.7386 2.239-3.18 4.2596-3.2029 4.49-0.0233 0.2305-0.67319 10.461-0.80911 14.467-0.13592 4.0063-0.65513 11.778-1.1539 17.27-0.82427 9.077-0.79572 10.138 0.31292 11.654 5.3888 7.3701 4.9437 5.7739 4.7305 16.965-0.10685 5.6088 0.0776 11.609 0.40988 13.334 1.0949 5.6834-0.17169 6.795-11.854 10.404-8.7937 2.7169-16.767 3.2416-33.116 2.1794-17.153-1.1145-19.281-1.5487-21.889-4.4681-1.9267-2.1563-2.0589-2.6559-1.6069-6.0724 0.6917-5.2277 2.4902-8.8923 6.7579-13.769 3.6625-4.1853 5.3181-7.7378 10.933-23.46 1.6349-4.5776 1.7753-5.8124 1.3727-12.078-0.56204-8.7486-0.97207-20.473-2.8444-24.706-1.4606-3.302-1.4761-3.3119-4.5131-2.9046-5.3194 0.7135-6.9522-0.7355-10.096-8.9582-0.84234-2.2034-3.1379-6.5161-5.1014-9.5837-8.872-13.862-11.666-36.21-6.9512-55.595 1.6523-6.7932 1.6942-7.4384 0.63859-9.8335-1.6026-3.636-1.9497-25.422-0.51454-32.294 0.59766-2.8612 1.033-9.0331 1.0276-14.568-8e-3 -8.1533-0.27724-10.443-1.7832-15.157-1.1081-3.4693-2.062-8.9367-2.5418-14.568-0.4224-4.9581-1.1418-11.617-1.5988-14.798-0.55986-3.8981-0.6268-8.5284-0.20519-14.204 0.96783-13.029 0.6957-20.081-1.1119-28.816-1.1577-5.5942-1.5535-9.481-1.3112-12.878l0.34701-4.8657-4.4517-1.6223c-2.4484-0.89225-5.223-2.3083-6.1658-3.1468-1.5702-1.3965-1.6654-1.8611-1.1328-5.5308 0.87555-6.0333 0.56955-13.805-0.68827-17.482l-1.1215-3.2778 0.50741 2.9136c0.84692 4.8637 0.57874 9.6112-0.43099 11.095-0.78349 1.1514-2.8419 0.62667-2.9733 1.2201 1.4434 0.86586 1.827 1.5491 1.9977 2.822 0.46514 3.468-0.78295 4.0751-8.034 9.0296-9.8659 6.741-15.698 4.8933-24.186-7.6627-3.2818-4.8545-4.3742-8.7917-3.7737-13.599 0.26115-2.0904 0.75799-2.8386 0.79416-3.6562-0.72624-0.33234-1.6142-0.27671-2.3148-0.59595-1.8067-0.82319-1.7267-1.3644-1.7267-8.3246v-7.1534l-2.6079-0.94304c-3.9482-1.4277-9.0466-6.6352-9.0468-9.2404-7e-5 -1.1704-0.49175-4.6972-1.0926-7.8372-1.4557-7.607-1.4048-13.204 0.14371-15.826 1.0936-1.8512 1.126-2.5222 0.2819-5.8158-0.65645-2.5613-0.80278-5.8076-0.46903-10.403 0.3484-4.7971 0.16637-8.3218-0.64602-12.507-1.6035-8.2604-1.4312-11.25 1.126-19.537l2.2575-7.3155-0.90563-8.1248c-2.5695-23.054 0.38667-69.282 8.2956-100.87 6.0398-24.123-0.97372-37.055 4.9423-47.911 2.463-4.5198 3.6075-7.6661 4.3546-11.971 1.4406-8.3013 3.1511-11.604 8.9701-17.32 7.8575-7.7185 21.806-12.877 32.584-18.022 5.4155-2.5856 19.127-7.2855 19.806-7.9007-2.3451-3.2481-1.8403-3.3634-3.5806-7.613-4.1109-10.038-7.3114-13.391-7.3114-16.329 7.2674-5.0207 8.2838 0.57325 16.818-4.5562 3.6226-2.1772 5.2488-2.7193 9.3002-2.9802 2.7042-0.17414 4.9168-0.41431 4.9168-0.5337 0-0.1194-0.84365-3.4422-1.8748-7.384-1.0311-3.9418-2.8231-10.93-3.1873-12.349-0.60125 0.64295-1.6542 0.65377-2.7327-0.46998-2.9122-3.0344-4.8892-4.9605-4.3164-13.651 0.36106-5.478-0.0776-9.8004 0.78464-12.233 0.52969-1.4944 2.2576-1.9573 3.0024-1.5305 0.39209-1.4438 0.37563-5.2138 0.55895-8.0888 0.55364-8.6826 2.2418-14.46 5.0644-19.593 16.813-30.577 59.609-28.928 70.539 2.0312 3.7062 10.497 4.278 17.833 2.8189 25.566-0.5236 2.7748-0.9115 4.2898-0.6627 5.2832 1.0925-0.55184 1.9895 0.11149 2.6437 0.99629 1.5103 2.0428 0.3795 3.6345-0.043 8.6316-0.8646 10.228-2.9067 14.578-6.9723 15.185-0.4073 0.0609-0.8815 0.0759-1.1906-0.31044-0.9553 0.65382-1.5133 2.9961-3.2455 7.3712-0.8723 2.2034-1.7562 4.416-1.9639 4.9168-0.6725 1.6208 10.908 1.1635 16.55-0.65348 5.7392-1.8484 8.4797-1.4795 9.1606 1.2334 0.253 1.0078-0.236 4.8543-1.0866 8.5477-0.8505 3.6934-1.5442 7.6481-1.5414 8.7882 0.01 3.1681-0.3909 4.5155-0.1762 7.694 2.9695 1.4376 24.976 2.6698 34.697 2.1972 13.01-0.63248 12.723-0.76038 25.419 11.351 12.214 11.652 11.652 19.593 15.738 27.022 4.8835 8.878 5.7255 12.41 10.367 20.136 6.257 10.416 17.492 37.706 19.904 44.088 2.3358 6.1801 3.121 7.1116 6.9667 8.2638 4.1922 1.256 5.675 3.2427 6.4779 8.6796 0.3824 2.5894 2.393 10.116 4.4679 16.727 5.4516 17.368 5.6217 24.038 0.613 24.038-2.1611 0-3.7097 4.2947-3.1285 8.6763 0.4431 3.34 0.3232 3.6812-2.3228 6.61-2.6001 2.878-2.7916 3.3988-2.8131 7.6513-0.023 4.5519-0.041 4.5889-7.0858 15.032-8.2782 12.271-9.5666 15.012-13.604 28.937-5.5264 19.062-7.1909 21.292-17.952 24.059-4.9369 1.2694-6.9447 2.1569-8.1786 3.6151-1.7062 2.0165-2.1422 3.7536-0.9421 3.7536 0.3851 0 1.0738 1.3868 1.5302 3.0819 0.8004 2.9726 0.6258 4.9122-1.2433 13.811-0.2308 1.0991 0.5759 6.0603 1.8357 11.29 2.8701 11.914 3.7003 17.831 3.7183 26.497 0.021 10.326-1.8893 15.583-6.7337 18.525-1.095 0.66502-1.1046 1.0771-0.1111 4.7347 1.7245 6.3478 1.555 20.905-0.3251 27.924-2.7743 10.357-2.7426 13.636 0.2152 22.298 3.0785 9.0144 3.2076 11.619 0.7815 15.759l-1.8171 3.1008 3.5402 4.2474c4.822 5.7853 6.4746 9.3437 11.614 25.007 10.395 31.681 12.473 41.644 11.072 53.081-0.9889 8.0728-0.8044 8.7958 3.3316 13.055 1.7763 1.829 3.0905 4.5354 4.9728 10.241 4.0856 12.383 5.1324 17.832 5.0588 26.329-0.061 7.0631-0.3246 8.4238-3.4426 17.785-1.8569 5.5749-3.3762 11.192-3.3762 12.483 0 1.5192 0.9523 3.725 2.6998 6.253 3.335 4.825 4.0428 10.608 2.0373 16.646-1.0737 3.2327-1.8149 4.128-5.2212 6.307-2.1834 1.3967-4.1347 2.9692-4.3363 3.4945s1.4561 8.0779 3.6838 16.783c2.2276 8.7056 4.0574 16.858 4.0662 18.117 0.039 5.471 4.526 11.944 13.447 19.395 7.2915 6.0901 8.4772 8.3122 8.6359 16.184 0.1135 5.6245 0.039 5.9088-1.9365 7.403-1.9017 1.4384-3.0119 1.5625-14.932 1.669-7.0828 0.063-15.5-0.182-18.705-0.5452-18.982-2.151-26.129-4.0024-28.312-7.3335z"
       id="path2" />
  </g>
</svg>
