<?xml version="1.0" encoding="UTF-8" standalone="no"?>
<svg
   xmlns:dc="http://purl.org/dc/elements/1.1/"
   xmlns:cc="http://creativecommons.org/ns#"
   xmlns:rdf="http://www.w3.org/1999/02/22-rdf-syntax-ns#"
   xmlns:svg="http://www.w3.org/2000/svg"
   xmlns="http://www.w3.org/2000/svg"
   xmlns:sodipodi="http://sodipodi.sourceforge.net/DTD/sodipodi-0.dtd"
   xmlns:inkscape="http://www.inkscape.org/namespaces/inkscape"
   version="1.1"
   width="162.81941"
   height="405.94269"
   viewBox="0 0 162.81941 405.94269"
   id="svg9"
   sodipodi:docname="man standing calling.svg"
   inkscape:version="0.92.4 (5da689c313, 2019-01-14)">
  <metadata
     id="metadata15">
    <rdf:RDF>
      <cc:Work
         rdf:about="">
        <dc:format>image/svg+xml</dc:format>
        <dc:type
           rdf:resource="http://purl.org/dc/dcmitype/StillImage" />
        <dc:title></dc:title>
      </cc:Work>
    </rdf:RDF>
  </metadata>
  <defs
     id="defs13" />
  <sodipodi:namedview
     pagecolor="#ffffff"
     bordercolor="#666666"
     borderopacity="1"
     objecttolerance="10"
     gridtolerance="10"
     guidetolerance="10"
     inkscape:pageopacity="0"
     inkscape:pageshadow="2"
     inkscape:window-width="933"
     inkscape:window-height="512"
     id="namedview11"
     showgrid="false"
     fit-margin-top="0"
     fit-margin-left="0"
     fit-margin-right="0"
     fit-margin-bottom="0"
     inkscape:zoom="0.24180328"
     inkscape:cx="199.91907"
     inkscape:cy="202.9128"
     inkscape:window-x="0"
     inkscape:window-y="0"
     inkscape:window-maximized="0"
     inkscape:current-layer="svg9" />
  <g
     id="layer1"
     transform="translate(-100.08093,-284.9701)">
    <g
       style="fill:#000000;fill-opacity:1;stroke-linejoin:miter"
       id="g2" />
    <g
       style="fill:#000000;fill-opacity:1;stroke-linejoin:miter"
       id="g6">
      <path
         d="m 141.0713,336.5348 c 0.25754,0 0.41216,0.67928 0.5448,2.09856 0.19211,2.01727 0.57633,2.76166 1.92112,3.65014 0.52232,0.36063 1.22496,0.54096 2.24134,0.54096 0.94624,0 2.1644,-0.15631 3.76214,-0.46893 1.53366,-0.29718 2.53169,-0.44723 3.27386,-0.44723 0.75693,0 1.2477,0.15606 1.76907,0.47134 1.58492,0.96051 4.13042,3.69806 5.93145,6.33966 l 1.77703,2.6175 -0.16809,1.75292 c -0.19214,2.30536 -0.57635,2.61756 -4.32251,3.6742 -2.28134,0.64843 -3.2659,1.05664 -4.89885,2.11328 -1.12866,0.74438 -2.5695,1.53686 -3.24188,1.77697 -0.93655,0.33619 -1.58493,0.86451 -2.97772,2.3534 -0.96056,1.08063 -2.06522,2.08917 -2.44943,2.28131 -0.3602,0.19214 -1.29676,0.88849 -2.08921,1.53686 -0.79246,0.64844 -2.28134,1.60896 -3.33793,2.16132 -2.01717,1.00854 -6.57984,4.61066 -7.46836,5.90734 -0.26416,0.3843 -0.72041,1.60902 -1.03259,2.68965 -0.79245,2.95367 -1.46484,3.48193 -5.11496,4.1784 -0.67239,0.14405 -1.51288,0.31215 -1.87309,0.38415 l -0.64838,0.12012 0.024,-4.17846 c 0,-3.86621 -0.048,-4.29846 -0.62435,-6.02746 -0.74443,-2.2333 -0.76845,-2.5935 -0.14409,-5.16297 l 0.48027,-1.99317 -0.50427,-1.15266 c -0.26416,-0.62444 -1.08064,-1.729 -1.80107,-2.44945 -0.69638,-0.69635 -1.29675,-1.46485 -1.29675,-1.70502 0,-0.21613 0.26416,-0.91247 0.60037,-1.53686 0.43225,-0.81647 0.60034,-1.51294 0.60034,-2.47345 v -1.34479 l 2.0412,-2.11316 2.01715,-2.08923 1.2007,0.024 c 0.0586,0.002 0.11642,0.003 0.17342,0.003 1.18141,0 2.01184,-0.46878 2.01184,-1.15594 0,-0.18384 0.0879,-0.26018 0.33861,-0.26018 0.1423,0 0.33706,0.0246 0.59794,0.0681 0.21959,0.0387 0.39229,0.0619 0.53864,0.0619 0.39779,0 0.60095,-0.17076 1.02227,-0.66226 0.79246,-0.96057 0.79246,-1.6089 -0.024,-2.4494 -0.57633,-0.60035 -0.60036,-0.7204 -0.3362,-1.24872 0.31218,-0.55238 0.45625,-0.5763 3.12181,-0.67243 2.42541,-0.072 2.97772,-0.16803 4.25047,-0.76849 1.44083,-0.64826 1.51288,-0.72034 2.01717,-2.1131 0.28816,-0.81659 0.8405,-2.16132 1.22472,-3.02582 0.38699,-0.85998 0.6633,-1.30614 0.872,-1.30614 z m 84.18532,44.00292 c 0.0961,0 0.91254,0.24018 1.77704,0.50433 0.98459,0.33612 1.94513,0.8404 2.52145,1.36872 0.93656,0.84051 0.96058,0.88855 0.8165,2.06518 -0.0961,0.67237 -0.048,1.58495 0.072,2.0412 0.21613,0.69647 0.16813,0.9126 -0.33618,1.51288 -0.62435,0.72047 -0.81646,2.1853 -0.3602,2.47345 0.26413,0.16815 0.31217,1.29682 0.096,1.89715 -0.072,0.19202 -0.50427,0.48029 -0.96054,0.62433 -0.8165,0.28814 -1.75302,1.53687 -2.13724,2.88166 -0.0961,0.33618 -0.43225,0.8645 -0.74444,1.20068 -1.46485,1.53687 -1.80106,1.84912 -2.71357,2.52148 -1.27276,0.93652 -3.74618,3.79419 -4.34652,5.04292 -0.28818,0.60033 -0.48028,1.48882 -0.48028,2.20928 0,0.95004 -0.30071,1.70468 -0.6047,1.70468 -0.0802,0 -0.16061,-0.0525 -0.23579,-0.16781 -0.072,-0.14405 -0.21613,-2.83362 -0.28815,-5.95539 l -0.1441,-5.71533 1.51288,-4.6828 c 0.81646,-2.5694 1.75299,-5.54718 2.08923,-6.60376 1.12863,-3.65015 1.00858,-3.45801 2.71356,-4.20245 0.8645,-0.38422 1.65695,-0.7204 1.75299,-0.7204 z M 155.43819,284.9701 c -1.53051,0 -2.96328,0.2514 -4.33658,0.7606 -1.05661,0.3843 -2.7616,0.96058 -3.79419,1.29677 -3.74617,1.12866 -7.01209,3.458 -9.70163,6.89203 -1.82506,2.28124 -2.66556,3.81817 -3.69815,6.74786 -1.41683,3.89032 -1.53691,4.39454 -1.22472,5.28308 0.14409,0.40826 0.24015,1.82501 0.24015,3.16992 0,1.92102 0.0961,2.59339 0.43225,3.24182 0.28816,0.50428 0.48028,1.39276 0.50428,2.37738 0.0961,2.76166 0.16811,3.12184 0.57634,3.12184 0.88854,0 1.22472,1.15264 0.60036,2.0412 -0.50432,0.74437 -0.91254,3.04967 -0.81648,4.82677 l 0.072,1.60889 -2.28131,0.0961 c -2.9057,0.096 -6.14758,0.69641 -7.10813,1.29675 -0.45626,0.2641 -0.93654,0.8645 -1.15267,1.41675 -0.19212,0.50439 -0.62437,1.10467 -0.93654,1.3208 -0.31218,0.19214 -0.79246,0.7445 -1.03259,1.22479 -0.3324,0.62976 -0.43539,0.80072 -0.94032,0.80072 -0.18818,0 -0.43218,-0.0237 -0.76468,-0.0563 -0.17002,-0.0182 -0.33198,-0.0287 -0.49282,-0.0287 -1.11131,0 -2.1691,0.50324 -5.46263,2.4541 -2.30534,1.34484 -2.52147,1.60901 -2.52147,3.07384 0,1.12867 -0.072,1.3207 -0.72041,1.7771 -1.12866,0.81642 -1.51288,1.75294 -1.34479,3.3379 0.19213,1.729 0.64838,11.43067 0.62438,13.4718 0,0.96058 -0.0961,1.5849 -0.28818,1.65693 -0.14407,0.048 -0.76845,0.52832 -1.34479,1.08062 -1.29675,1.1767 -2.20926,3.09785 -2.37738,4.99488 -0.12005,1.24871 -0.26413,1.53697 -1.53688,3.02581 -1.2007,1.41681 -1.53688,2.0412 -2.35338,4.39453 -1.44082,4.22651 -1.56088,4.82685 -1.24872,6.07551 0.26417,1.08068 -0.024,4.25048 -0.69641,7.80456 -0.31216,1.68096 -0.31216,7.78052 0.024,10.34998 0.33618,2.88171 1.58491,8.76508 2.13722,10.27801 0.26416,0.69635 0.79246,1.94507 1.1767,2.76154 0.38421,0.81653 0.76843,1.92113 0.8645,2.4494 0.19211,1.12873 0.8645,2.4975 1.46484,3.0498 0.6724,0.60035 6.31566,1.70503 8.74108,1.72901 0.12307,0.002 0.24184,0.003 0.35675,0.003 1.31997,0 2.13117,-0.13165 3.12526,-0.50726 0.79246,-0.28814 2.35337,-0.79234 3.48202,-1.12866 7.78052,-2.3053 7.97263,-2.35333 17.14595,-5.88336 2.00171,-0.75067 3.70178,-1.35046 3.91644,-1.35046 0.012,0 0.0193,0.002 0.0218,0.006 0.0721,0.048 0.57634,2.44947 1.15266,5.30713 0.57634,2.88164 1.20072,5.71534 1.39282,6.31554 0.19211,0.60048 0.52831,2.4975 0.74444,4.2265 0.21612,1.70503 0.48028,3.50612 0.62437,3.96236 0.31216,1.22467 0.26413,3.21784 -0.14409,5.3551 -0.21612,1.17664 -0.36021,3.28992 -0.36021,5.54724 0,3.0017 -0.0961,3.93823 -0.48029,5.11487 -1.00857,3.09783 -1.2007,4.2265 -1.05661,6.00353 0.14407,1.63294 0.21614,1.753 1.39282,3.0498 0.79245,0.8645 1.41682,1.3448 1.77701,1.3448 0.69641,0 0.67241,0.21606 -0.19209,1.96906 -0.76845,1.53692 -1.92113,5.21104 -1.92113,6.0996 0,0.28814 0.14409,0.64838 0.33621,0.79242 0.1921,0.14412 0.52829,1.10468 0.74442,2.13727 0.26416,1.12865 0.60034,2.01715 0.88852,2.28131 0.43225,0.36024 0.48028,0.62434 0.36023,2.88166 -0.0721,1.34478 -0.26416,3.57812 -0.45629,4.97094 -0.21612,1.849 -0.31218,6.12354 -0.31218,15.84912 v 13.32776 l 0.6724,2.71356 c 0.3602,1.46485 0.76845,3.53003 0.8885,4.5627 0.12007,1.00853 0.38423,3.09777 0.60036,4.61065 0.21612,1.51285 0.5283,4.01031 0.72043,5.52319 0.48025,3.96236 0.74441,5.83536 1.44081,10.5661 0.3362,2.30536 0.88853,6.57986 1.22473,9.48556 0.31218,2.9057 0.74443,6.1956 0.93652,7.32425 0.19213,1.1286 0.55233,3.38595 0.81649,5.04285 0.91252,5.54724 1.05661,6.3637 1.72902,9.7497 0.69641,3.6021 1.87307,6.7719 3.14581,8.52496 0.43225,0.57629 1.1767,1.20068 1.99316,1.5849 1.20069,0.60034 1.32074,0.7204 1.32074,1.44084 0,0.45625 0.26416,1.2007 0.62439,1.729 0.57633,0.8885 0.60034,1.0566 0.67236,5.4512 0.0721,4.3705 0.12009,4.63463 0.8645,6.94 0.43226,1.32073 1.03263,3.36193 1.32081,4.5627 2.30533,9.14927 2.52142,9.82163 3.93826,12.72733 1.729,3.57807 2.66556,5.09097 4.9949,7.99667 1.77704,2.2092 1.80103,2.23325 1.3928,2.8336 -0.33619,0.5283 -0.3602,0.7684 -0.096,1.729 0.14407,0.6244 0.33618,2.2573 0.43225,3.65014 0.14407,2.71356 0.28815,3.09776 1.46484,4.2024 0.64838,0.62436 0.93653,0.72046 2.0892,0.72046 0.93656,0 1.39283,0.096 1.5369,0.36016 0.0961,0.19214 0.3122,2.08924 0.45627,4.20244 0.26416,3.50606 0.24014,4.15444 -0.19211,7.44435 -0.84048,6.21961 -1.65698,7.70845 -5.21103,9.58155 -1.34479,0.7204 -2.92969,1.70495 -4.92285,3.02575 -0.72043,0.50425 -2.18527,1.41681 -3.24188,2.04115 -1.05662,0.6484 -2.95371,1.89715 -4.20242,2.76165 -1.24875,0.88849 -2.88169,1.96912 -3.6261,2.37735 -1.22474,0.6724 -4.8028,1.72903 -6.98807,2.0172 -0.50429,0.0721 -1.24872,0.40824 -1.68097,0.7204 -1.05663,0.7684 -2.9057,1.3688 -4.27449,1.3688 -0.8645,0 -1.24872,0.1201 -1.63294,0.5523 -1.12866,1.2007 -0.36021,3.53005 1.32076,4.01034 0.98094,0.28026 1.98892,0.41866 3.09923,0.41866 0.9826,0 2.04536,-0.1084 3.24045,-0.3226 1.48861,-0.2672 2.74972,-0.3827 4.50657,-0.3827 0.45375,0 0.94056,0.008 1.4729,0.0225 0.34114,0.006 0.67506,0.009 1.00148,0.009 3.57985,0 6.25708,-0.3614 7.64351,-1.0656 2.66559,-1.3688 3.65015,-1.58496 12.77545,-2.6656 1.68204,-0.2072 2.59076,-0.3092 3.2945,-0.3092 0.68277,0 1.1726,0.096 1.98852,0.2852 3.2179,0.74447 6.05152,1.1527 8.35688,1.24874 1.68096,0.0721 2.28131,0.16806 2.28131,0.40826 -0.024,0.4802 -1.48883,5.1389 -2.32935,7.2762 -0.40824,1.0806 -1.29675,2.6656 -1.99316,3.6021 -1.65696,2.2092 -1.75299,2.4254 -2.04117,4.4186 -0.14408,1.1046 -0.45627,2.06516 -0.86451,2.6895 -0.8645,1.3688 -1.80105,4.2505 -1.60891,5.0189 0.31216,1.29677 0.64835,1.4409 3.48199,1.4409 1.96915,0 2.7616,-0.0961 3.19385,-0.3843 0.24402,-0.1553 0.38559,-0.23884 0.4933,-0.23884 0.12551,0 0.20507,0.11341 0.34722,0.35894 0.38993,0.7366 1.15341,1.0997 2.36877,1.0997 0.80541,0 1.80925,-0.15944 3.03433,-0.4753 1.45096,-0.3957 3.74721,-0.63043 5.74643,-0.63043 0.18459,0 0.36664,0.002 0.54526,0.006 l 1.729,0.048 0.96054,-0.98455 c 0.63469,-0.65095 0.87233,-0.87184 1.19129,-0.87184 0.1517,0 0.32179,0.05 0.56173,0.12738 0.19747,0.068 0.4041,0.10016 0.61501,0.10016 1.35369,0 2.88373,-1.3262 3.29927,-3.0299 0.096,-0.38416 0.45627,-0.8164 0.8645,-1.0326 1.10462,-0.5523 1.51285,-1.3688 1.29676,-2.56946 -0.0961,-0.55231 -0.21616,-2.20929 -0.26416,-3.65014 -0.072,-1.9211 -0.24015,-3.04975 -0.62436,-4.1544 l -0.52832,-1.48885 0.55234,-1.51288 c 1.17666,-3.1698 1.2247,-5.18701 0.14407,-6.65187 -1.12866,-1.53685 -1.27274,-3.65013 -0.57633,-8.4049 0.2161,-1.4888 0.1681,-2.2333 -0.40823,-5.0429 -0.0961,-0.5043 0.24011,-0.9605 2.28131,-3.0017 l 2.42542,-2.40144 v -1.4408 c 0,-1.84912 -0.57636,-5.64331 -0.96058,-6.3637 -0.16809,-0.28816 -0.7204,-1.00861 -1.22473,-1.56092 l -0.9125,-0.98454 0.19211,-2.5695 c 0.26416,-3.0738 -0.024,-7.9967 -0.69642,-12.4152 -0.26412,-1.77703 -0.69638,-5.091 -0.96054,-7.3243 -0.91253,-7.4683 -1.87307,-13.4718 -2.76159,-17.19395 -0.19211,-0.84045 -0.57633,-3.12185 -0.84049,-5.0429 -0.67242,-4.85085 -1.51288,-8.59699 -2.56952,-11.21455 -0.84048,-2.0892 -0.8645,-2.2813 -0.60034,-3.3139 0.16809,-0.57635 0.28818,-1.53686 0.28818,-2.13726 0,-1.32074 -1.17666,-6.89197 -2.4014,-11.2865 -0.43225,-1.58494 -0.50427,-2.28137 -0.3602,-3.96228 0.31217,-4.15442 0.26416,-4.61072 -1.32076,-15.84926 -0.12006,-0.98454 -0.36024,-2.56944 -0.4803,-3.482 -0.12005,-0.93657 -0.40823,-2.92967 -0.60033,-4.44255 l -0.38422,-2.76159 0.64838,-2.64156 c 0.52832,-2.2093 0.67239,-3.482 0.84048,-7.9246 0.28818,-6.916 0.43225,-8.0447 1.41684,-10.20594 1.10461,-2.42536 1.12863,-4.58666 0.14407,-7.99664 l -0.69641,-2.32935 0.62436,-3.3139 c 0.69641,-3.67413 1.36881,-8.54895 1.36881,-9.96582 0,-0.52825 0.26412,-1.82501 0.57632,-2.90565 0.33618,-1.05663 0.8645,-3.6261 1.2247,-5.6673 0.33621,-2.0412 0.74442,-4.41857 0.88852,-5.25902 0.40823,-2.4494 0.33618,-8.47693 -0.16809,-10.47008 -0.21613,-0.93654 -0.45627,-2.49745 -0.52832,-3.482 -0.072,-0.98457 -0.24011,-1.92115 -0.3602,-2.08924 -0.16809,-0.21613 0.0721,-0.5763 0.76843,-1.24872 0.86451,-0.81647 1.00858,-1.05658 0.86451,-1.63294 -0.45627,-2.0893 -0.45627,-2.1132 0.1921,-2.42535 1.05665,-0.48035 1.22473,-1.22479 0.79248,-3.21795 -0.55233,-2.4494 -0.67239,-3.62604 -0.48028,-3.93824 0.12005,-0.16816 0.62435,-0.52832 1.17669,-0.84051 0.52829,-0.31215 1.51288,-0.88849 2.20926,-1.29675 0.6724,-0.38422 1.32077,-0.93653 1.46485,-1.2007 0.12008,-0.26415 0.31219,-2.28136 0.38425,-4.46654 l 0.16809,-3.96234 1.03259,-1.08062 c 1.52618,-1.54835 2.54302,-2.32243 3.10687,-2.32243 0.0483,0 0.0933,0.006 0.13501,0.0171 0.0635,0.0166 0.12543,0.0252 0.18634,0.0252 0.46886,0 0.8783,-0.51134 1.49463,-1.85022 0.69641,-1.48889 2.59351,-3.55414 4.34653,-4.75482 0.92013,-0.628 1.43165,-0.90958 1.79388,-0.90958 0.23334,0 0.40474,0.11685 0.5835,0.33322 0.16809,0.19214 0.64837,0.36029 1.08062,0.36029 0.64838,0 1.41681,-0.48028 4.01032,-2.4975 1.75302,-1.36877 3.57809,-2.83361 4.03433,-3.26586 0.45627,-0.40827 1.60895,-1.34479 2.52149,-2.08924 4.58667,-3.69813 6.14755,-5.73926 11.76681,-15.3208 4.13039,-7.08417 5.61926,-10.15796 7.44434,-15.56103 1.2247,-3.60218 1.39279,-5.73938 0.64835,-7.42035 -0.6724,-1.46485 -5.47517,-7.32428 -8.57294,-10.42205 -4.03436,-4.05836 -10.32602,-8.7411 -17.41013,-12.99153 -1.29675,-0.76849 -2.68954,-1.82513 -3.24185,-2.44947 -2.42542,-2.76153 -6.43576,-6.3637 -7.34827,-6.57976 -0.33621,-0.0961 -1.36881,-0.84046 -2.25732,-1.65704 -2.7616,-2.54542 -3.09778,-2.83356 -4.08237,-3.52998 -1.84909,-1.29675 -5.13898,-2.88165 -6.29166,-3.02575 -0.62436,-0.072 -1.68096,-0.28821 -2.35336,-0.4563 -2.61752,-0.74439 -7.03607,-1.5849 -8.21277,-1.5849 -1.32077,0 -3.38595,0.36017 -4.41855,0.74438 -0.18501,0.074 -0.35218,0.1124 -0.529,0.1124 -0.28223,0 -0.58898,-0.0978 -1.03191,-0.30447 -0.8645,-0.40821 -0.93655,-0.52832 -0.93655,-1.39283 0,-1.10461 -0.81647,-2.32935 -2.37738,-3.53003 -1.41681,-1.12866 -1.82508,-1.63292 -1.82508,-2.32934 -0.024,-0.33618 -0.33618,-1.82508 -0.69638,-3.26588 -0.38421,-1.46483 -0.64838,-2.68957 -0.60037,-2.7376 0.0541,-0.0541 0.32436,-0.0811 0.67908,-0.0811 0.11811,0 0.24559,0.003 0.37756,0.009 0.10812,0.007 0.20686,0.0108 0.29624,0.0108 0.80384,0 0.84918,-0.29175 0.13601,-0.87524 -1.10464,-0.88848 -1.63296,-1.48896 -1.63296,-1.87305 0,-0.18793 0.0735,-0.2876 0.22041,-0.2876 0.0409,0 0.0875,0.008 0.13982,0.0234 0.11737,0.0478 0.2127,0.0689 0.28614,0.0689 0.33226,0 0.21649,-0.43103 -0.33418,-0.76535 -1.44083,-0.8885 -1.96914,-1.58496 -2.2333,-2.90564 -0.3602,-1.68103 -3.14582,-7.18018 -6.67585,-13.15961 -3.9143,-6.60382 -4.87484,-7.82861 -8.28482,-10.56622 -4.41855,-3.57801 -7.30023,-4.73065 -15.1528,-6.12353 -0.91846,-0.15452 -1.80008,-0.2323 -2.65147,-0.2323 z"
         id="path4"
         inkscape:connector-curvature="0" />
    </g>
  </g>
</svg>
