<?xml version="1.0" encoding="UTF-8" standalone="no"?>
<svg
   xmlns:dc="http://purl.org/dc/elements/1.1/"
   xmlns:cc="http://creativecommons.org/ns#"
   xmlns:rdf="http://www.w3.org/1999/02/22-rdf-syntax-ns#"
   xmlns:svg="http://www.w3.org/2000/svg"
   xmlns="http://www.w3.org/2000/svg"
   xmlns:sodipodi="http://sodipodi.sourceforge.net/DTD/sodipodi-0.dtd"
   xmlns:inkscape="http://www.inkscape.org/namespaces/inkscape"
   version="1.1"
   width="65.652824"
   height="185.15881"
   viewBox="0 0 65.652824 185.15881"
   id="svg7"
   sodipodi:docname="young man anorak standing.svg"
   inkscape:version="0.92.4 (5da689c313, 2019-01-14)">
  <metadata
     id="metadata13">
    <rdf:RDF>
      <cc:Work
         rdf:about="">
        <dc:format>image/svg+xml</dc:format>
        <dc:type
           rdf:resource="http://purl.org/dc/dcmitype/StillImage" />
        <dc:title></dc:title>
      </cc:Work>
    </rdf:RDF>
  </metadata>
  <defs
     id="defs11" />
  <sodipodi:namedview
     pagecolor="#ffffff"
     bordercolor="#666666"
     borderopacity="1"
     objecttolerance="10"
     gridtolerance="10"
     guidetolerance="10"
     inkscape:pageopacity="0"
     inkscape:pageshadow="2"
     inkscape:window-width="1920"
     inkscape:window-height="1048"
     id="namedview9"
     showgrid="false"
     fit-margin-top="0"
     fit-margin-left="0"
     fit-margin-right="0"
     fit-margin-bottom="0"
     inkscape:zoom="1.9344262"
     inkscape:cx="-75.092775"
     inkscape:cy="148.05812"
     inkscape:window-x="0"
     inkscape:window-y="0"
     inkscape:window-maximized="1"
     inkscape:current-layer="svg7" />
  <g
     id="layer1"
     transform="translate(-352.5769,-371.52764)">
    <g
       style="fill:#000000;fill-opacity:1;stroke-linejoin:miter"
       id="g4">
      <path
         d="m 382.38702,371.71722 c -0.4916,0.10462 -1.19238,0.30335 -1.56897,0.4498 -0.37652,0.14643 -1.26559,0.48111 -1.9873,0.75308 -1.41208,0.53342 -3.42035,1.53757 -4.19437,2.1024 -0.73214,0.53344 -1.33883,1.2447 -1.66305,1.95595 -0.56485,1.21332 -0.99369,4.1525 -0.82636,5.73191 0.0837,0.86816 0.59623,2.64634 0.87863,3.08564 0.0732,0.11504 0.24057,0.6694 0.35563,1.22378 0.29287,1.35974 0.7008,2.54168 1.05642,3.05422 0.34519,0.50208 1.16105,1.2761 1.70493,1.61078 l 0.38702,0.24057 v 0.8577 0.86815 l -1.41205,0.71126 c -0.77401,0.39749 -1.50622,0.80542 -1.62127,0.91 -0.12548,0.11504 -0.57526,0.73218 -1.00412,1.39114 -1.11916,1.684 -1.95596,2.44755 -4.06882,3.7132 -0.51251,0.3033 -1.31794,0.82633 -1.77814,1.16098 -0.46023,0.32428 -1.4016,0.8891 -2.09195,1.24472 -1.53755,0.80542 -2.89735,1.68402 -3.45169,2.24884 -0.72174,0.72174 -1.42251,2.26978 -1.72586,3.83872 -0.0732,0.36609 -0.3033,0.89954 -0.61712,1.41204 -0.53342,0.87867 -0.54392,0.92048 -0.83678,2.38483 -0.1046,0.51251 -0.3347,1.25519 -0.51253,1.63172 -0.44974,0.98321 -1.02502,2.74045 -1.17147,3.59815 -0.0941,0.5543 -0.1046,0.90996 -0.0104,1.48525 0.0627,0.40793 0.11504,1.00412 0.11504,1.30745 0,0.5439 -0.3347,2.2907 -0.67986,3.58766 -0.0941,0.34522 -0.20924,0.81589 -0.26151,1.04602 -0.4707,2.13376 -0.71127,3.06467 -1.74676,6.74646 -0.87864,3.11701 -1.07737,4.10022 -1.07737,5.4914 0,1.86178 0.76355,3.11694 3.0647,5.08336 0.27194,0.24058 0.86817,1.0669 2.40573,3.34712 0.70081,1.02502 1.11917,1.43298 2.46847,2.39526 0.42884,0.29285 1.52714,1.18195 2.44758,1.95596 0.92047,0.77402 1.7363,1.43296 1.81998,1.46436 0.0732,0.0314 0.18829,0.2615 0.25104,0.51254 0.0732,0.29288 0.36608,0.76356 0.8368,1.34931 l 0.7217,0.88903 -0.5753,1.12967 c -0.63802,1.2761 -0.99367,2.25931 -1.297,3.62949 -0.19872,0.87863 -1.11916,4.84286 -1.35976,5.90973 -0.37654,1.57943 -0.55434,3.19023 -0.69034,6.27583 -0.0837,1.80956 -0.1569,3.54582 -0.1569,3.8387 v 0.55435 h 0.65898 c 0.35562,0 1.48526,0.0732 2.49984,0.15692 1.85138,0.14643 3.05426,0.37653 4.19438,0.79493 l 0.59618,0.23013 -0.0628,1.05643 c -0.0732,1.1087 -0.0418,1.44342 0.48115,5.71099 0.16735,1.34931 0.42885,3.51447 0.57532,4.81147 0.14643,1.29698 0.31378,2.81366 0.38699,3.36801 0.13598,1.19241 0.12552,1.24472 -0.72171,4.21524 -0.58575,2.08148 -0.77402,2.97055 -1.02505,4.95788 -0.2092,1.70495 -0.3452,2.61493 -0.46024,3.09607 -0.50206,2.207 -0.76356,4.11066 -1.10871,7.84478 -0.0941,0.9727 -0.20922,2.2279 -0.2615,2.7718 -0.0523,0.5544 -0.0732,1.1611 -0.0523,1.3598 0.0314,0.19873 0.10459,2.2279 0.15689,4.4976 0.0628,2.2698 0.15692,5.86794 0.2092,8.00173 0.0523,2.12327 0.12552,5.30307 0.14645,7.0603 0.0314,1.75721 0.0523,3.20063 0.0627,3.22157 0.0105,0.12554 1.05643,0.46026 1.62125,0.5125 0.37655,0.0314 0.73217,0.12555 0.79495,0.19873 0.0523,0.0733 0.11505,0.62763 0.12549,1.22382 l 0.0209,1.08785 -0.58575,1.14006 c -0.6485,1.24469 -0.76355,1.71539 -0.88907,3.70274 -0.0523,0.774 -0.13596,1.22377 -0.28241,1.5166 -0.17782,0.36617 -0.19872,0.53346 -0.13596,1.6213 0.13596,2.3743 0.2301,2.68816 0.93091,2.981 0.21963,0.0837 1.20285,0.3661 2.19653,0.61714 0.98322,0.25106 2.2279,0.58576 2.74042,0.74261 2.21748,0.659 3.7446,1.04605 4.81146,1.21335 1.09827,0.1778 5.11482,0.18826 6.53732,0.0105 1.58988,-0.19873 3.20066,-0.42887 3.9224,-0.57532 l 0.62756,-0.12549 0.0314,-0.96226 c 0.0209,-0.8682 0.0105,-0.9728 -0.1778,-1.0669 -0.37656,-0.2092 -0.53344,-0.43934 -0.53344,-0.8159 0,-0.32425 -0.0837,-0.44974 -0.6485,-0.96225 -0.8891,-0.80545 -1.1401,-0.96225 -2.28022,-1.40161 -1.54803,-0.59619 -2.12332,-1.14014 -2.82412,-2.6568 -0.94138,-2.00824 -3.72366,-5.78418 -4.26756,-5.78418 -0.0418,0 -0.2824,-0.16736 -0.51254,-0.36606 -0.4916,-0.4184 -0.55436,-0.6381 -0.81582,-2.56265 -0.10462,-0.72175 -0.27197,-1.73635 -0.37659,-2.26975 -0.2301,-1.1715 -0.37652,-3.2843 -0.4602,-6.8825 -0.0627,-2.709 -0.0627,-2.72995 0.29287,-5.28214 0.19873,-1.41206 0.4184,-2.96006 0.49161,-3.45166 0.0732,-0.49164 0.16737,-2.2803 0.21964,-3.9747 0.0837,-3.0124 0.20919,-5.02066 0.36613,-5.96204 0.0523,-0.31381 0.29283,-0.81586 0.73213,-1.49576 0.87863,-1.3388 0.99369,-1.77813 1.07737,-4.0374 l 0.0732,-1.84092 0.44977,-0.99368 c 0.58576,-1.2447 0.72173,-1.88275 0.80539,-3.7655 0.0628,-1.49573 0.0732,-1.5271 0.51254,-2.51032 0.29288,-0.66943 0.4916,-1.31793 0.60667,-1.98731 0.0941,-0.54394 0.44976,-2.6777 0.80539,-4.72781 0.34518,-2.06058 0.62759,-3.78641 0.62759,-3.83871 0,-0.0627 0.11505,-0.18827 0.26147,-0.28241 0.21968,-0.14644 0.29288,-0.14644 0.42888,-0.0314 0.2092,0.16736 0.61708,0.98322 0.9518,1.87229 0.2824,0.75308 0.46024,1.12965 2.17563,4.70688 l 1.18194,2.458 0.0627,1.62127 c 0.0942,2.45802 0.38702,3.53535 1.20288,4.42445 0.50204,0.54388 0.5125,0.67987 0.16736,1.79907 -0.31381,1.01458 -0.32426,1.5062 -0.0523,2.78226 0.29288,1.39114 0.27195,1.81998 -0.11505,2.58356 -0.3138,0.59622 -0.32425,0.7008 -0.32425,1.71536 0.0104,0.59622 0.10458,1.9978 0.21967,3.117 0.27194,2.61493 0.29284,3.08564 0.49158,8.1586 0.25103,6.6942 0.3347,8.38864 0.44976,8.943 0.16736,0.8577 0.43934,2.3639 0.53344,2.98105 0.0523,0.31375 0.16737,0.97271 0.2615,1.46435 0.0941,0.4916 0.2092,1.7572 0.26152,2.8241 0.0523,1.0669 0.12548,2.21747 0.14642,2.5626 0.0314,0.3452 0.11506,1.5271 0.1778,2.6254 0.11508,1.7677 0.10461,2.0919 -0.0523,2.8555 -0.0942,0.47066 -0.21966,1.433 -0.27194,2.1338 -0.17782,2.10236 -0.4184,8.169 -0.33472,8.24225 0.0732,0.0732 1.28653,0.29285 2.84503,0.51252 0.42884,0.0523 1.30747,0.17779 1.93503,0.26147 0.63804,0.0941 1.83048,0.20916 2.66724,0.27191 1.6003,0.10462 1.7886,0.13599 3.2948,0.52301 0.82632,0.20924 1.19238,0.2406 2.9287,0.2406 3.40986,0 5.54365,-0.34521 10.10407,-1.61076 1.09827,-0.30336 1.09827,-0.30336 1.18195,-1.1506 0.0837,-0.8472 0,-1.046 -0.46024,-1.046 -0.34515,0 -0.47068,-0.13594 -0.57528,-0.5962 -0.13596,-0.66944 -1.62125,-1.5689 -3.40985,-2.0815 -2.13379,-0.6066 -3.55631,-1.41203 -4.12113,-2.3325 -0.2301,-0.38697 -0.83679,-1.04596 -1.64215,-1.7886 -0.71127,-0.6589 -1.87231,-1.7363 -2.58357,-2.39524 -0.71126,-0.66946 -1.31792,-1.23426 -1.35976,-1.26563 -0.2301,-0.16733 -0.73218,-2.02917 -0.85769,-3.19018 -0.0523,-0.52301 -0.13595,-1.24475 -0.18827,-1.62125 -0.0523,-0.37655 -0.15688,-1.07736 -0.2301,-1.569 -0.0732,-0.53345 -0.0942,-1.3807 -0.0628,-2.1442 0.2092,-4.4454 0.39747,-10.5957 0.60666,-19.55966 0.0628,-2.6463 0.14646,-5.07294 0.19877,-5.38671 0.14642,-0.91003 0.11505,-2.21747 -0.0523,-2.79276 -0.0837,-0.28241 -0.29288,-0.71127 -0.47072,-0.95184 -0.3033,-0.42883 -0.31377,-0.47068 -0.31377,-1.60031 0,-0.63807 0.0732,-1.68402 0.15689,-2.32209 0.0942,-0.6485 0.2092,-1.51666 0.26151,-1.93503 0.13599,-0.98318 0.13599,-2.34298 0,-2.8555 -0.0628,-0.2301 -0.15693,-0.60662 -0.21967,-0.85766 -0.0627,-0.2406 -0.34516,-1.08784 -0.63806,-1.87231 l -0.5125,-1.42253 0.1046,-1.87227 c 0.0627,-1.02506 0.16736,-2.68815 0.21964,-3.69227 0.0837,-1.32836 0.0732,-2.52081 -0.0209,-4.34076 -0.0628,-1.3807 -0.12551,-2.9601 -0.12551,-3.50402 l -0.0105,-0.99366 0.29288,0.0314 c 0.15689,0.0209 0.36607,-0.0209 0.46023,-0.0941 0.13596,-0.11505 0.18826,-0.0942 0.36609,0.14645 l 0.2092,0.2824 h 1.48525 c 1.74677,0 1.70493,0.0314 2.05012,-1.12962 0.26148,-0.89954 0.39746,-1.01458 1.74676,-1.43298 1.0878,-0.33473 1.18195,-0.48115 0.98322,-1.44346 -0.0732,-0.35562 -0.3138,-1.11917 -0.53345,-1.69449 -0.39749,-1.01459 -0.52298,-1.48525 -1.08783,-4.18385 -0.14642,-0.69035 -0.36609,-1.70494 -0.48114,-2.24883 -0.12552,-0.54391 -0.33472,-1.53759 -0.47068,-2.19653 -0.61712,-2.8869 -0.79494,-3.69229 -1.09826,-5.12527 -0.16736,-0.83677 -0.44977,-1.9455 -0.61712,-2.45804 -0.86817,-2.67768 -1.26562,-4.02698 -1.26562,-4.25708 0,-0.14643 -0.0419,-0.39745 -0.0942,-0.56482 -0.0523,-0.16736 -0.14642,-0.51251 -0.2301,-0.77403 -0.17782,-0.62755 -0.38699,-1.04598 -0.62756,-1.24468 -0.2406,-0.19876 -0.51254,-1.23422 -0.51254,-1.92459 0,-0.58575 -0.387,-2.24883 -1.18194,-5.09387 -0.69035,-2.44756 -0.91,-3.47263 -1.37022,-6.38043 -0.2615,-1.60035 -0.31378,-1.95593 -0.63806,-4.02698 -0.0837,-0.57525 -0.27194,-1.77815 -0.42882,-2.66721 -0.523,-3.19021 -0.5753,-3.70274 -0.82634,-8.26318 l -0.15689,-2.76136 -0.31377,-0.32424 c -0.21968,-0.23011 -0.4184,-0.65894 -0.67988,-1.46436 -0.73218,-2.2488 -0.78449,-2.63583 -0.78449,-6.0143 0,-2.0501 -0.0314,-3.0333 -0.11508,-3.0333 -0.0523,0 -0.28238,0.10455 -0.50205,0.2301 -0.50207,0.2824 -0.7008,0.20916 -0.86816,-0.35562 -0.14642,-0.50208 -0.31378,-0.66944 -1.07734,-1.11921 -0.91,-0.53344 -1.39113,-1.02505 -1.82,-1.88275 -0.40792,-0.80539 -0.50207,-0.89952 -2.1756,-2.39526 -0.774,-0.69034 -2.02917,-2.29068 -2.01873,-2.58353 0,-0.0628 0.24057,-0.25107 0.53345,-0.41839 0.95184,-0.56482 1.3493,-1.18194 2.37435,-3.7132 1.32837,-3.30527 1.55851,-4.24664 1.64219,-6.8511 l 0.0732,-2.09192 0.41836,-0.94138 c 1.12967,-2.49991 1.23427,-2.96011 1.02509,-4.24664 -0.2406,-1.44345 -1.44345,-4.62317 -2.24884,-5.9411 -0.77405,-1.2761 -2.31162,-2.39527 -4.48725,-3.27387 -1.28649,-0.51253 -2.91823,-0.62759 -4.45581,-0.29291 z m -16.23342,57.75843 c 0.0627,0.13598 0.18826,0.50207 0.2824,0.81585 0.17783,0.659 0.26148,0.8786 1.60032,4.3408 1.29702,3.34707 1.27608,3.25295 1.26562,4.801 -0.0104,1.48528 -0.10458,2.4162 -0.26147,2.57308 -0.12552,0.12552 -1.92459,-0.19876 -2.32207,-0.40793 -0.27193,-0.14642 -0.29286,-0.4707 -0.0628,-1.05645 0.12552,-0.32423 0.14646,-0.4602 0.0523,-0.56483 -0.16735,-0.18827 -1.00412,-0.55435 -1.5271,-0.63803 -0.66945,-0.12552 -0.80542,-0.31381 -0.76358,-1.04596 l 0.0314,-0.62758 -0.39749,-0.20918 c -0.40793,-0.21966 -0.59618,-0.60669 -0.59618,-1.26562 0,-0.25107 0.0941,-0.3975 0.44975,-0.6799 0.77402,-0.6276 0.81585,-0.6694 0.97275,-0.95185 0.17783,-0.34515 0.32425,-1.37021 0.44977,-3.11697 0.0627,-1.01458 0.13599,-1.41205 0.31378,-1.75724 0.25105,-0.50207 0.34519,-0.53341 0.51255,-0.20919 z"
         id="path2"
         inkscape:connector-curvature="0" />
    </g>
  </g>
</svg>
