<?xml version="1.0" encoding="UTF-8" standalone="no"?>
<svg
   xmlns:dc="http://purl.org/dc/elements/1.1/"
   xmlns:cc="http://creativecommons.org/ns#"
   xmlns:rdf="http://www.w3.org/1999/02/22-rdf-syntax-ns#"
   xmlns:svg="http://www.w3.org/2000/svg"
   xmlns="http://www.w3.org/2000/svg"
   xmlns:sodipodi="http://sodipodi.sourceforge.net/DTD/sodipodi-0.dtd"
   xmlns:inkscape="http://www.inkscape.org/namespaces/inkscape"
   viewBox="0 0 165.17456 500.8457"
   version="1.1"
   id="svg4"
   sodipodi:docname="man standing.svg"
   inkscape:version="0.92.4 (5da689c313, 2019-01-14)">
  <metadata
     id="metadata10">
    <rdf:RDF>
      <cc:Work
         rdf:about="">
        <dc:format>image/svg+xml</dc:format>
        <dc:type
           rdf:resource="http://purl.org/dc/dcmitype/StillImage" />
        <dc:title></dc:title>
      </cc:Work>
    </rdf:RDF>
  </metadata>
  <defs
     id="defs8" />
  <sodipodi:namedview
     pagecolor="#ffffff"
     bordercolor="#666666"
     borderopacity="1"
     objecttolerance="10"
     gridtolerance="10"
     guidetolerance="10"
     inkscape:pageopacity="0"
     inkscape:pageshadow="2"
     inkscape:window-width="640"
     inkscape:window-height="512"
     id="namedview6"
     showgrid="false"
     inkscape:zoom="0.471203"
     inkscape:cx="82.58728"
     inkscape:cy="250.42285"
     inkscape:window-x="0"
     inkscape:window-y="0"
     inkscape:window-maximized="0"
     inkscape:current-layer="svg4" />
  <path
     d="m107.00603.00302c-.5586.03484-.86855.23178-1.85508.0811 3e-005,.31465-1.49647.75095-2.08828.38521-1.34708.09732-.90851.01613-2.57479.65891-2.06444-.10207-3.35112.57399-4.52119,1.49016-.74337,0-.86939.11474-.72987.64878 .13614.52058.00992.64878-.63862.64878-.44454,0-1.30362.07124-1.90578.16219-.98831.65201-.73626,1.01813-1.257.96303 0,.31326-1.42137,1.79427-1.72331,1.79427-.32462,0-3.79125,3.54037-3.79129,3.87238 0,.17497-1.19244,1.31607-1.37864,1.31782-.61955-.01207-.63272.44717-1.48002,1.82468 .21581.79228-.54711,1.80822-1.70304,2.27071-1.49419.59786-1.65733,1.09481-.35481,1.09481h.92249l-.58795,1.70304c-.32361.93667-.5923,2.50711-.59808,3.49731s-.18123,1.97552-.39536,2.18962c-.30275.30276-.25481.39535.20274.39535 .51795,0 .55779.18429.35482,1.54084-.29279,1.95615-.29678,1.95748-1.64225,2.20989-1.16523.2186-1.877.7907-.98328.7907 .72792,0 .62665.56041-.18247.99344-.52972.2835-.59129.43611-.26356.63864 .343.21199.3431.36118.02027.75015-.32702.39403-.28572.60885.18247,1.15563 .31751.37082.73678.67919.94273.67919 1.25253,1.43287-.38602,3.4399 1.2029,2.47179 1.29087-.5654-.96917,3.64357.96304,2.55539-.79949.20907.38326,2.45997.89551,3.41704 .46595.87069 2.59967,1.97516 2.58494,1.3381 .51432,1.17937-1.04274-.92108.8718,2.15921 .2934.47204 1.00375,1.97157 1.20633,2.46332 .66045,1.60333.64358,2.7218.78054,3.01072 .03186.8871-.04272,1.10105-.26356.75015-.42142-.66951-.07705,1.68918.51697,3.54799 .53654,1.67887.42735,1.80626-1.78413,2.10852-2.35859.32237-3.33085.55168-3.14247.74001 .09614.09612-.10919.53196-.45619.97316-.47438.60305-.5559.95764-.31423,1.40906 .25191.4707.18743.66885-.32439.94275-.83008.44425-.84202.99143-.02031,1.20632 .55344.14472.45703.31133-.72987,1.257-3.53583,2.81734-5.38049,4.4777-5.24087,4.70362 .08398.13591-.03942.31462-.26357.40548-.30888.12523-.28465.25313.0811.50686 .40149.27854.37428.32651-.1622.30411-.35458-.0148-1.59757.12765-2.75729.31425s-3.25556.43628-4.66308.55754c-2.68421.23126-7.19777,1.52843-10.11684,2.90935-.94792.44844-1.87849.82111-2.06797.82111-.15519,0-.28163.09044-.32439.21288-.45404.07421-.86501.14735-1.09481.22302-1.69281.20351-1.65736.45732-2.85866,1.16577-1.79669.96022-1.83909,2.09523-3.01074,2.27071-.75456.3483-2.3366,1.25237-3.1729,2.05783-.06679-.05646-.21254-.09123-.44604-.09123-.27816,0-.40626.14306-.29396.32439 .07546.12213.20064.19222.32439.19261-.62876.64217-1.0202,1.0105-1.37865,1.92605-1.25223.62772-2.07851,1.53098-2.26059,2.09838-.35345.98158-.69798,1.1547-1.07453,1.29755 0-.17841-.15577-.32438-.34467-.32439s-.25214.14598-.14192.32439c.03724.06028.07873.1137.12165.16219-.1716.08228-.354.19245-.5474.40548-.03501.04082-.06761.08853-.10138.13178-.0796.01053-.15145.02966-.19258.07096-.05392.0539-.03676.10041.04054.13178-.60135.87337-1.01757,2.10712-1.54084,3.07155-.46423.84187-.76396,1.9487-1.23676,2.9499-1.16309,1.80699-2.63601,4.05119-3.53784,5.78829-1.02156,1.69124-.92038,5.06958-1.24688,6.76146-.72873,2.24765-.95376,5.27061-1.29755,7.74475-.08687,1.68763-1.03742,3.76993-1.3381,5.82885-.63589,2.87462-.76124,4.9459-1.05426,7.16694-.3214,2.09267.33409,3.7497.04055,5.87952 .34171,2.27108-.23317,3.96098-.33451,5.3524 .21851,2.01081.44438,4.00573.12165,5.23075 .15405.33084.08093.32109-.15207.77042-.16093.3027-.16038.71729-.19259.99344-.03802.06865-.07721.12864-.11149.17233-.30986.39434-.31038.92692-.05071,1.44961 .08691,1.37872.86255,1.82699 2.00715,1.67262 .23346.09883.423.1496.50686.12165 .05271-.01757.12317-.12447.20274-.28384 .20745-.06148.42654-.13462.64878-.22302 .2283,2.23865.00833,2.96631-.39534,4.16636 .12561,1.20688-.47367,3.05358-.40548,3.83183-.22097,1.13801-.26175,2.27591-.15207,3.66963 .19421,1.01072 1.73641,1.37171 1.06438,2.62552 .14052,1.41413-.05077,2.88564-.09122,3.90279 .23226.52791.55224,2.68804.7907,4.1258 .04427,1.37845.47081,1.72399.40548,2.88908-.43367.54797.46011,3.43186.44603,4.54143 .0485.81095-.04583.9069.40549,1.84496 .12466.44087.5763.23495.90222.45617 1.91155,6.31456 4.33748,8.09181 9.022,6.70063 1.76298-.52354 3.47588-.66643 4.28801-.3548 .25533.09798.33201.65659.24329,2.65592l-.10137-.06082c-.06591.16961-.14967.10072-.09125-.05068l-.05067-.02028c-.18477.26925-.60368.99291-1.18602,2.06797-.25017.05525-.5345.44995-.81097.92248-.39744-.08292-.78713-.13178-1.10496-.13178-.48899,0-.80702.10349-.68933.29398 .10244.16577.78408.28221 1.551.28383l-.40549.74001c-.40587.85662-.18023,1.86206-.53728,2.4836-.58426,1.31031-1.44752,1.86373-1.06441,2.01728 .33908.04993.87163.91852.64877,2.37209 .08703.68927-.04438,1.58685-.14189,2.45318 .12217,1.38794-.25711,2.2656-.19262,2.80798 .15211,1.24277-.54983,1.78308-.14192,1.70304 .72086.21608.30837,2.04415.42576,2.85866-.01709.23316.17112,1.4311-.16219,2.34168-.1705.80435-1.10172,1.9153-1.257,2.56469-.17861,1.52889-.67538,2.49575-.37506,2.73702-.20699.4724-1.24851,1.11503-1.80444,2.58496-.38946.6799-.19467,1.92026-.09122,2.66607-.18973.99602.10702,1.61174-.10137,2.36196 .13193,1.07187-.5004,1.90496.26357,2.93976 .36915-.45768-.77876,1.09315-1.61182,2.33154-.48039.98951-.88954,1.34844-1.35834,2.11864-.86025.91124-1.92168,2.17216-1.90578,2.39236-.24929-.31265-.15652,1.20857-.07098,3.25403 .10835.84743-.38239,1.4905-.31426,2.50385-.27596,2.18602.19803,3.53664.23317,3.55814 .56949.17949-.10962,1.43552 0,2.87894 .14406.41743.16586.82372.15207,1.19618-.07218-.01634-.15749-.03042-.2636-.03042-.30791,0-.57206.15392-.72987.34466l.20274.29399c.13229.19616.26172.39595.38524.59808 .14513.03049.25731.03474.32439.01015 .00425.09566.02021.18691.04055.27368 .0434.07588.04895.22305.0304.40549 .41061.75984.74943,1.55129.99343,2.36196 .33039,1.33723.20949,2.54015.32439,3.99403 .33594,1.42114.09917,3.32439-.15207,4.99761-.34019,1.47379-.27635,2.36709-.13177,3.9636 .0192.858-.21225,1.83087-.51701,2.73702 .0908.14137.12989.31047.0811.45615-.06741.20219-.15675.26055-.31424.17235l-.19258.47643 .58792-.0811-.20275,2.23017c-.26671,3.01148-1.95466,14.61506-2.94988,20.23368-.26863,1.51651-.4812,3.13959-.46631,3.60881 .01963.61819-.16939.91604-.69944,1.07457l-.74003.21286 .7096.34467c.6054.29619.68576.55467.56768,1.81452-.07571.80776-.32423,1.68604-.54741,1.95648-.32532.39433-.32231.52697.01016.63863 .27008.09086.36175.49855.25341,1.16578-.09151.56333-.2418,2.45941-.32439,4.21704-.12044,2.56399-.26084,3.28443-.72987,3.66964-.54653.44882-.5452.47266-.01012.30411 .50536-.15918.5632.03221.4967,1.62194-.04142.99016-.16819,1.85459-.28384,1.92605s-.14688.50261-.06082.95289c.16531.86482-.18733,1.05971-.80082.44603-.41093-.4109-1.52251-.12155-1.24688.32439 .0968.15661.59107.3734 1.10493.47646 .7954.15908.93232.33299.90222,1.17591-.03863,1.07943-.18759,1.19108-.78057.59807-.27703-.27703-.3953-.28173-.39534-.02027 0,.20206.301.46115.66905.5778 .65283.20718.67006.36672.52713,6.58915-.09974,4.34248.00747,7.99126.34467,11.41436 .27242,2.76541.51723,5.57571.53728,6.24447s.13242,1.21645.25341,1.21645 .32267.80653.44603,1.79429c.20155,1.61295-.18126,4.10688-.79069,5.18005-.10131.17841-.20884.47042-.24329.64877-.32621,1.69032-1.30511,4.85025-1.90578,6.16337-.40801.89207-.83517,2.20613-.95289,2.91949-.37739,2.28752-.48697,2.47761-1.41919,2.38224-.4752-.0486-1.05676-.22639-1.28743-.39537-.26818-.19615-.54095-.18889-.76027.03043-.24092.24092.00074.4738.82112.77042 .66834.2417 1.16579.63979 1.16575.93262 0,.77924-1.5687,5.41455-2.45318,7.24805-.43173.89486-.71495,1.69736-.6285,1.78413s.03743.32215-.11149.51698c-.39485.51568-.59217,1.181-.48658,1.49014-.14955.365-.29721.73594-.43592,1.10496-1.73145.79939-3.63654,2.9834-4.81514,5.53487-.61942,1.34098-1.12517,2.57129-1.12521,2.72687s-.24601.85005-.5474,1.54084-.56223,1.33028-.58795,1.41919-.24122.87264-.47643,1.74359c-.28017,1.03755-.64145,1.64104-1.03402,1.74358-.73652.19259-.78687.72987-.07094.72987 .37025,0 .45177.16476.28384.56768-.13002.31223-.44584,1.44359-.69948,2.51401s-.5994,2.39158-.77042,2.93979-.3142,1.37774-.31424,1.84493-.14594.94429-.32438,1.05426-.32436.63463-.32439,1.16578-.27547,2.16363-.61838,3.62909-.79472,3.51935-1.00356,4.5617-.66334,2.17366-1.00356,2.514-.47237.61835-.29399.61835c.42923,0 .42151,1.19333-.01015,1.45975-.18562.1148-.25397.47951-.15205.80085s.05233.92629-.11149,1.34822c-.27848.71718-.81706,2.96694-1.15566,4.82526-.509,2.79464-2.00215,8.62596-2.25041,8.79902-.16313.11389-.19661.36056-.0811.54744 .23246.37609-.32101,4.51891-.81096,6.09239-.17186.55178-.37701,1.5736-.46634,2.27071s-.24255,1.63206-.33451,2.07809-.24764,1.32195-.34466,1.94633-.25267,1.35461-.35479,1.62194-.16073.67583-.12164.91237-.05495.60087-.2129.81097-.32108,1.44807-.36493,2.7573c-.07286,2.17515.02397,2.62124 1.2063,5.1902 .71154,1.54568 1.38958,3.03734 1.50029,3.30467 .88746,2.14242 4.27958,6.51594 5.70721,7.35958 .51153.30213 1.10376.96359 1.31783,1.47998 .33356.80533.28572,1.15654-.32439,2.41267-.55697,1.14645-.62266,1.55651-.32439,1.9159s.25286.60161-.20274,1.10493c-.56736.62694-.56285.64877.37509.64877 .51993,0 1.21866.21027 1.57124.46634-.77302.51847-1.54597,1.09643-2.29099,1.72328-1.78637.29847-2.84793.93274-2.5951,1.59154 .08868.23113-.15357.83786-.59811,1.54084l-.01012.01016c-.89972,1.08105-1.65347,1.75013-2.36193,2.90933-.7,1.14519-1.82971,2.5457-2.53431,3.68991-.78814,1.28004-.44471,2.98473-.49671,4.24744l-.06082.04055c-1.27929,1.80402.50686,2.20408-1.29755,3.70006-.72001.52875-.70759.71035.0811,1.71319 .35439.45054.5645.95639.4663,1.11505s.04542.5114.32439.79073 .50689.71797.50686.97316c0,.25487.2054.46628.45618.46628 .46034,0 3.13635,1.28545 3.43647,1.65236 .08921.10906.85972.30149 1.70303.42576s1.62538.38654 1.74359.57783c.14364.23236 1.52037.28936 4.1461.17232 3.32951-.14841 4.59089-.37473 8.30228-1.48002 5.49114-1.63527 6.631-2.06048 7.38997-2.74714 .33389-.30217.78453-.54744.99341-.54744s.37512-.15726.37509-.34463 .42297-.49109.93261-.66908 1.09688-.64138 1.3077-1.03395c.36575-.68174 1.72241-1.5206 2.45315-1.5206 .18915,0 .5199-.28203.72988-.61835 .22408-.35874 1.08721-.77 2.0984-1.00359 .94795-.21867 2.20775-.67638 2.79784-1.01371s1.3742-.60823 1.74358-.60823c.73464,0 4.48064-3.69666 4.48061-4.41978 0-.23765.43338-1.11097.96301-1.94633s.88473-1.64192.79073-1.79425-.02615-.27372.14188-.27372c.42596,0 .71054-1.73817.32439-1.97672-.1751-.10822.06955-.65835.54744-1.22661 .82346-.97858.83098-1.01371.18243-1.01371-.37269,0-.67914-.14568-.67917-.32439s.14601-.32439.32439-.32439 .32442-.39549.32439-.87176 .25549-1.14976.56768-1.50029c.55785-.62646.54104-.6381-.97317-.41564-1.27692.18756-1.54081.14568-1.54084-.27368 0-.33883.30275-.50689.91234-.50689 .25546-2.73096-.79287-2.00066-.60822-4.0143-1.22752-.19415-.40617,1.59735-1.57127-.80082-.06858-.31374.54026-.0263.61838-.96301 0-.14273.1825-.45917.40548-.69947 .32439-.3495.32442-.3859 0-.20275-.54056.30519-.533-.60806.01015-1.16575 .47877-.49174 1.53072-3.60411 1.53069-4.53131 0-.34534.32462-.74618.72987-.90218 .61287-.23635.64674-.31667.20275-.49674s-.47611-.42884-.2129-1.57123c.17225-.74739.44428-2.52608.60823-3.95351s.5002-4.20053.74002-6.16337 .36462-3.69494.28384-3.84195 .19817-.64323.61838-1.10496c.55464-.6091.61819-.78019.22299-.63862-.4632.16592-.52681.01544-.38518-1.00356 .09148-.65848.25425-1.41511.35478-1.6828s.15094-.82452.11149-1.22657c-.04217-.4305.14984-.81123.46634-.93261 .37947-.14562.42249-.27888.15205-.44604-.2915-.18013-.26042-1.22777.14191-4.40966 .83686-6.6179 1.11797-9.72316 1.27728-14.20208 .10689-3.00584.26571-4.25204.57783-4.45021 .27038-.17134.30227-.2806.07095-.28384-.43241-.00578-.75544-2.57084-.35479-2.81809 .14844-.09174.10488-.36182-.09125-.5981s-.34268-1.06137-.32438-1.83481 .03091-2.71266.02027-4.31844 .10384-3.72222.26357-4.70362 .239-4.73603.17234-8.33268c-.0918-4.94075-.00866-6.84153.32439-7.7853 .31015-.87913.40224-2.41325.31423-5.16997-.12177-3.81648-.10503-3.93774.68933-4.79484 .60605-.65396.811-1.23147.81097-2.26059 0-.7613.24112-2.17985.52713-3.14247 .29843-1.00499.44266-2.28995.34466-3.0209-.19369-1.44385.822-5.87563 1.53072-6.67019 1.07025-1.20042 3.02206-5.87764 3.58851-8.61658 .81074-3.91818 1.58181-6.24913 3.24387-9.75187 1.70259-3.58825 2.91537-6.89003 3.58858-9.79249 .55557-2.39557 2.63925-9.20888 3.1729-10.3804 .18386-.40361.53991-.72988.80085-.72988 .38381,0 .39643-.09404.07094-.48658-.32235-.38835-.28871-.80289.1318-2.08821 .28851-.88211.51701-1.76704.51697-1.96663s.27281-.97508.59808-1.72328c.80526-1.85294 1.41167-3.40344 2.79784-7.09598 .64826-1.72685 1.43568-3.47883 1.74359-3.89266s.72585-1.11511.93261-1.56114c.43766-.944.8183-1.82475 1.11512-2.5748 .09819-1.1762.29817-2.6061.62846-3.50747 .21173-1.36298.82009-2.36492 1.3381-3.55811 .42781-1.04904 1.57971-2.1601 1.94633-3.22361 .65095-4.49562 4.02824-7.85385 3.27724-7.31153-.94948.90205.67172-1.07058 2.60429,2.3374 .61997.55879.61293,2.06535.98812,3.31152 .24304.8072.91185,2.99974.74869,5.75025 .33963,1.62859.17829,2.67387.37986,3.89029 .00818,1.3681-.14425,1.7998.36494,3.62905 .29727,1.38627.33781,2.44663.36493,3.66967 .22935,1.30287-.17173,2.73479-.30411,3.81156-.03669.33149-.07947.64722-.13177.95285 .26075,1.37333.3446,3.52772 0,3.52772-.20579,0-.11551.18305.20275.41564 .49673.36325.62143,1.23355.86163,6.16337 .1538,3.15639.37402,6.27969.49671,6.93378 .19122,1.01929.15223,1.15816-.30408.98332-.29293-.1124-.53725-.06134-.53729.11149s.29529.31424.64878.31424c.43734,0 .69815.2852.83124.89206 .1075.49064.27404,1.11132.36494,1.37865 .56145,1.6525 1.08426,4.13176 1.39892,6.6601 .19885,1.59787.63333,4.58834.97316,6.6398s.71589,4.75241.83125,6.00117c.22288,2.41344 1.27932,6.03938 2.39236,8.22122 .8558,1.67747.90656,3.596.10137,3.64936-.52107.03455-.51776.05304.02027.19262 .43945.11386.56129.40578.48658,1.17591-.08239.84915-.25574,1.05043-.99343,1.13535-.49064.05645-.89204.29636-.89207.53725s-.18244.50829-.40549.58796-.27897.26898-.13179.42575 .40104.03212.57783-.28383c.1739-.31074.56842-.55283.87179-.54741 .50436.00902.50497.03143.02027.31424-.29837.17426-.62655.94964-.75014,1.77401-.1208.80555-.39611,1.48248-.60823,1.50029s-.02024.12943.42576.25341c.70256.19548.85405.48726 1.08465,2.13895s.15029,2.21343-.56767,4.19677c-.57625,1.59186-.88698,3.25098-1.01372,5.41322-.10052,1.71513-.38063,3.85346-.61834,4.75429s-.35342,2.29488-.26357,3.09183c.11542,1.0239-.05219,2.01023-.55752,3.35537-1.02825,2.73644-1.35124,4.59667-1.12524,6.44721 .12132.99331.01356,2.43943-.28384,3.73046-1.04651,4.54373-1.63877,13.73331-1.82468,28.38392-.04363,3.43803-.20277,5.67147-.42576,5.94039-.26184.31546-.25698.49793.02028.66901 .50851.3143.60238,6.29037.10137,6.45736-.50793.1693-.44552.71972.08109.71972 .33623,0 .45999.85006.53729,3.64936 .08427,3.0533.10241,9.26692.04055,11.75906-.00889.35682.01586,1.74358.05066,3.08168l.06083,2.43291c-.10095,3.3119-.38525,3.45992.24329,5.4538 .31222-.09839.56771-.01677.56768.18244s-.21446.36493-.47643.36493c-.30794,0-.40539.18429-.27372.52713 .16858.43929.02679.49953-.82109.37509-.56372-.08272-1.02383-.02589-1.02386.12165s.1825.27816.40548.28384c-1.85131,3.99632 4.12141.74751.24329,3.23372 0,.17841-.25542.32205-.56768.32439-.418.00353-.35384.11726.24329.42579 .61608.31796.79294.63022.71972,1.30767-.07603.70538.02573.86881.48658.7907 .81357-.1379.99668,1.25139.19262,1.45974-.32266.08359-.00402.16946.7096.19259 .87598.0288 1.15327.13355.85152.32439-.24962.1581-.33918.45849-.20274.6792 .19045.30814.29837.31073.49673-.01012s.37526-.30363.78055.10134c.28484.28491.8035.608 1.15563.71975s.60868.3518.56767.52713c-.0844.36117 3.1828,1.6222 3.4669,1.3381 .10137-.10137.1825,3e-005 .18247.22302s.1825.33869.40548.26356 .88256.13319 1.45975.45615 1.26105.50511 1.52056.40549 .73121-.02556 1.05426.16219c.56635.32945.5658.34531 0,.35482-.32276.00542-.49543.15616-.38521.33451s.5693.32438 1.01371.32438c1.0383,0 2.34971.68803 3.34525,1.75374 .43254.46297.97816.84137 1.21646.84137s.68789.29207.99343.64877 .67648.64878.83125.64878 .53692.30323.84139.6792 1.02724.74288 1.61179.81097c.68644.07993 1.46393.52998 2.18962,1.27728 .84824.87344 1.28269,1.10496 1.79428.94276 .45415-.14419.60492-.09874.45616.14189-.12207.19755-.05336.36494.15207.36494 .64787,0 1.8385,1.11479 1.68273,1.58139-.08454.25373-.00042.3626.19262.24329s.56953.02206.85152.30414c.46741.46745.64887.37902.5474-.26359-.08564-.54241.58134-.20057.77042.39536 .12661.39887.6855.76938 1.48002.98328 .70289.18928 1.27731.4874 1.27728.65893s.31336.31424.68932.31424c.44665,0 .61867.15486.50686.44603-.12382.32257.23602.49317 1.29755.63866 2.59225-.30555.81999-.081 3.99402-.34467 .98128-.09225 2.22209-.14688 2.7573-.12164l3.56826.19259c3.1658.17176 4.94633.22172 7.13653.19262 1.54678-.02057 3.94748-.99247 3.35537-1.35838-.23239-.14363.15221-.38988.96304-.60822 .75758-.20398 1.50351-.65069 1.70304-1.02387 .19525-.36487.78628-.81194 1.30767-.9934 .98316-.34272 1.193-.86505.59811-1.45975-.24407-.24407-.18266-.49637.19262-.87182 .29792-.29785.36808-.52713.16219-.52713-.20167,0-.28504-.13832-.1825-.30408s.03935-.39456-.14188-.50689c-.44815-.277-.41532-1.57153.05067-2.03754 .28857-.28858.25464-.4256-.14192-.5778-.28621-.10981-.44143-.40672-.34467-.65893 .1318-.3434-.05634-.43244-.75014-.34466-.50945.06442-.67713.05725-.36494-.02028 .74492-.185.72562-.63885-.0507-1.05426-.39754-.21277-.66133-.22208-.72987-.02027-.06096.17961-.46151.2161-.92246.08109-.99354-.291-1.09105-1.40044-.1622-1.84495 .51977-.24874.26175-.35478-1.29755-.51698-1.07048-.11149-1.58136-.23057-1.13536-.2636 1.55382-.11399 1.75076-.5946.33454-.82109-1.00826-.16122-1.32986-.34946-1.28743-.77042 .09842-.97546-.00424-1.14197-.47646-.75014-.36613.30392-.50572.25091-.66901-.26357-.11266-.35491-.51306-.68416-.89207-.73999s-.74953-.30966-.83128-.55756c-.09008-.27323-.00931-.36033.2129-.22302 .20154.12457.36497.06731.36494-.12164s-.27054-.33454-.60823-.33454-.69812-.2189-.80082-.48658-.49297-.48659-.86167-.48659c-.5583,0-.60942-.10455-.33454-.61834 .28089-.5248.23285-.5995-.31423-.45616-.73951.19334-.88448-.49385-.24329-1.1759 .3345-.35605.19265-.40529-.81097-.25345-.92675.1402-1.21642.08126-1.21646-.27368 0-.2564.22873-.46634.50686-.46634s.43004-.12904.33451-.28384-.54066-.20803-.99341-.12165c-.65815.12587-.78949.04483-.62853-.37505 .13322-.34716.03367-.51701-.30408-.51701-.32108,0-.44172-.18066-.32439-.48659 .1027-.26761.39987-.48658.6589-.48658s.36899-.15797.25341-.34463-.51857-.29675-.90219-.24329c-.42637.05904-.6974-.07743-.69944-.35481-.00195-.24965-.30207-.57034-.65893-.7096s-.51257-.26136-.34466-.27369 .02192-.23479-.32439-.49673c-.56976-.43095-.57446-.47724-.06083-.48658 .31223-.00568.56772-.1486.56768-.31424 0-.18493-.40113-.19168-1.03398-.01015-.56801.16291-1.09997.22808-1.18603.14192s.01499-.15207.22299-.15207 .37512-.2189.37508-.48659c0-.32438.32442-.48658.97317-.48658 .53524,0 .97319-.14568.97316-.32438 0-.41584-.73646-.48003-2.43291-.21287-.17841.02809-.39559.41561-.48658.86164-.22036,1.08054-1.09993,1.04158-1.22661-.05067-.08745-.75446.0376-.87237 1.11512-1.07453 .66967-.12564 1.50292-.43283 1.85508-.67917 .58967-.41308.59804-.46057.08109-.65893-.30868-.11844-.48947-.42385-.39533-.66905 .12794-.33338-.03529-.31073-.64877.09122-.61923.40577-.71596.60764-.39537.81097s.28076.27002-.15207.27371c-.31848.00273-.9405.24021-1.37865.52713-.73843.48386-.80286.48256-1.00356-.04054-.27771-.72371.78898-2.74381 1.4699-2.77757 .37691-.01869.39806-.0763.0811-.20275-.30159-.12025-.20229-.28199.32439-.5474 .51798-.26104.72844-.61488.65889-1.10493-.05874-.41441.10445-.79446.38521-.90222 .26778-.10273.41071-.39744.31424-.64878s.05845-.54902.34469-.65892c.56457-.2166.70428-.98079.21286-1.1556-.17954-.06391-.11162-1.00103.1622-2.30114 .35498-1.68569.42472-3.93716.30411-9.62011-.08654-4.08009-.2224-7.61572-.30411-7.85628-.33214-.97738-.69208-7.55321-.66905-12.21521 .01969-3.99179.11415-5.02963.49673-5.2713 .39134-.24754.36805-.30003-.1318-.30415-.54617-.00444-.58127-.18951-.40548-1.86523 .1076-1.02587.35261-2.66796.5474-3.64936 .38187-1.92355.51666-11.88187.19263-14.27306-.6325-4.66557-.88445-8.54307-.57784-8.84969 .22458-.22457.19272-.45615-.09125-.73999-.29937-.29941-.3467-.86592-.17231-1.98687 .38596-2.48086.04191-4.28847-1.32798-7.07574-.70146-1.42731-1.36746-3.00383-1.47999-3.49729s-.58149-1.19715-1.04414-1.56112c-.71319-.56096-.78213-.75533-.45615-1.27727 .21144-.3386.26288-.68712.11149-.78055-.69162-.42744-.96268-12.42901-.37509-16.56408 .20288-1.4273.41535-3.32497.47646-4.21704s.20537-2.49749.32439-3.56826 .36432-3.26003.53725-4.86582c-.23352-5.53107 1.03363-4.22138.97317-7.8664 .60832-1.1143.85946-2.50064 1.2266-4.36908 .43163-1.39256 1.65801-8.24237 1.70304-9.49849 .01917-.53524.24261-2.21366.48658-3.73046s.66389-5.74965.94277-9.40725c.3758-4.9314.68605-7.13653 1.18602-8.51517 .37078-1.02241.79592-1.78362.94274-1.69289 .0316.01953.07007.01784.11152.01016-.06409-.48714-.12913-1.00035-.15207-1.58139-.05229-.04727-.04931-.09456 0-.15208-.00798-.2889-.01382-.58938 0-.91234 .31476-1.56634-.31199-2.99549-.06079-4.44005 .18117-1.05407.48558-2.78594.47643-4.32857-.2308-1.32048.0409-2.84657.32439-4.45018 .32786-1.51605 1.1265-2.28845 1.08465-4.04469 .20021-1.4589.23379-3.3385.54744-4.81515 .35348-1.41916.04048-3.05339.72987-4.50088 .21072-1.78017 1.03889-3.43805 1.29755-4.89624 .42988-1.35805.18552-2.4163.45616-4.04469 .33285-1.6864.31037-2.9616.70959-4.40966 .42252-1.61299.43228-3.38045.61839-4.96719-.07023-2.05535.268-2.84316.44603-4.58198-.35271-1.69275.67661-3.02699.67917-4.77456 .22555-1.45761-.38132-3.12733-.7096-4.86582 .19723-1.61487-.3095-3.72653-.4967-5.42337-.34071-2.64999-.26503-5.07888.13176-7.42037-.01638-.05781-.03448-.12666-.05066-.18247-.18179-.62326-.33451-1.15093-.33455-1.1759s.29199-.1297.64878-.22302c.01855-.00485.03292-.01495.0507-.02027 .11662-.49837.25137-.98625.39533-1.48002-.10237-.28387-.24991-.609-.44603-.99344-.35683-.69944-.64874-1.49926-.64878-1.77399s-.27323-.49673-.60822-.49672-.7518-.18248-.92246-.40549c-.45304-.59156-1.00794-3.49338-1.4192-7.37982-.19827-1.87334-.44253-3.47906-.53728-3.56826s-.07763,2.08478.03039,4.8354c.20631,5.25327-.09839,6.07578-.72987,1.97674-.73192-4.75215-.97388-5.90491-1.34822-6.35597-.27116-.32671-.27897-.58222-.03043-.88193 .25818-.31104.18575-.51775-.28384-.81097-.34774-.21718-.63859-.55612-.63862-.75015s-.4894-1.39983-1.09481-2.6762c-1.51395-3.19194-2.79781-7.53735-2.79784-9.49847 0-1.54621 1.59702-6.92347 2.31126-7.78531 .16871-.20361.77191-.43389 1.3381-.51699 .77136-.11321 1.17357.01499 1.60166.52713 .39465.47212.5705.54148.5778.22302 .03186-1.35996 1.9027-2.06207 3.3554-1.25701 .38972.21597 1.43951.43009 2.33154.47645 5.0538.26259 4.98188.28993 5.68694-1.91592 .24316-.76081.62925-1.6706.85152-2.02742 .42271-.67854 1.07602-2.99058 1.23669-4.37924 .05168-.44603.1295-.81097.17235-.81096 .21494,0 .19797-3.69056-.02027-4.46034-.14072-.49636-.1173-.97069.05067-1.07453s.29402-.61835.29399-1.14549c0-.8614.50144-2.13564 1.00356-2.56469 .10442-.08921.35199-.7461.54743-1.45975 .45421-1.66031 2.26783-7.83567 2.64577-9.00176 .17868-.55134.17452-.96429-.02027-1.08467-.36967-.22845-.08762-1.76396.55752-3.00059 .24972-.47861.45512-1.11711.45619-1.42933s.13988-.56768.30411-.56768 .39297-.47442.51701-1.05426 .38048-1.24813.56768-1.48002c.51571-.6395.53265-2.38778.0304-3.37566-.30564-.60115-.40857-1.73311-.33454-3.56826 .05978-1.47829-.02498-2.95524-.18244-3.27429-.35173-.71199-.53099-6.062-.20274-6.062 .12982,0 .33366-.67311.45615-1.49015 .13777-.91881.4244-1.55777.75015-1.68276 .35212-.13514.05787-.32624-.89207-.55754l-1.00356-.2433c-.00084-.05516-.00366-.11131 0-.17233 .09742-.37391.69543-2.49909.52713-3.23374-.05491-.62129-.10409-1.57284-.32438-2.30112-.04172-.8242-.21355-1.90237-.48658-2.70661-.09888-.58769-.12872-1.91062-.31427-2.71675-.69085-1.04256-.7844-1.58071-.6792-2.29099l-.02025-.02027c.14361-.35495.21819-.84798.23314-1.70304 .00023-.01215-.00019-.02824 0-.04055 .01035-.67051-.00993-1.55366-.06082-2.76743-.11792-2.8125-.37201-5.68064-.6792-8.10969 .01248-.10098.00405-.19912-.02025-.30411l-.03042-.05069c-.29241-2.22855-.61916-4.04756-.93262-4.95705-.09845-.72673-.51753-1.55846-.78054-2.09838-.38099-.74936-.65818-1.10543-1.36853-1.65235 .69789.09053 1.03402.0264 1.03399-.21288 0-.5968-1.01147-1.56111-1.63209-1.56112-.30739,0-.76118-.3191-1.01371-.69946l-.45616-.68932-.18247.09123c-.26194-.33039-.57004-.61397-1.00356-.72987-.50215-.40821-1.28623-1.05061-1.77401-1.14549-.40136-.24514-.89609-.4726-1.38877-.68932 .10329-.21043.04114-.33223-.16219-.44603-.21786-.12192-.52366-.11483-.89207-.01014-1.10726-.58479-1.32587-.42531-2.44306-.5474-.13449-.21195-.89878-.61372-1.66248-.81097-.42966-.06358-.52347-.28222-.99344-.21288l.02027-.02027c-.10666-.42384-.31569-.27628-2.32141-.60823-.34781-.10361-.4207-.22772-.70957-.38521-.74836.04331-1.27377-.16104-1.59154-.21288-.1307-.04575-.2637-.14028-.39533-.23315 .15992-.03487.31173-.07174.43588-.11151l.81097-.26356-.85152-.03041c-.54076-.02037-1.21519-.4324-1.81453-1.11508-.53787-.61255-1.40401-1.18097-1.98687-1.29755-.56723-.11345-1.42887-.50426-1.92609-.87179-.51561-.3812-1.8758-.82091-3.16278-1.02385-2.19837-.34666-2.30581-.40849-4.26771-2.47346-2.52698-2.97209-2.17096-2.27398-2.62553-4.31841-.56193.30073-.72085.19178-1.2063-.83124-.37493-.7901-.50296-1.64017-.39533-2.5951 .12262-1.08783.02984-1.48676-.37509-1.72331-.04804-.7544-.02118-.58252.28384-1.32796l.40548-1.10495 .57784-2.23017c.3191-1.22372.72611-2.3683.90218-2.54442 .13333-.81947.40117-.744.24329-1.52057-.74271-.12186-.92486-.47128-1.15563-.65891 0,.19116-.22224.12229-.49673-.15206-.44882-.44884-.40811-.599.40548-1.52057 .49735-.56331.86576-1.15133.82113-1.30769s.06491-.28384.24329-.28384 .32442.37034.32438.83124c0,.7697.61608,1.04608.67917.30411 .01522-.17841.16103-.49243.32439-.68932 .41253-.49707.23466-2.11806-.21286-1.94633-.19995.07673-.53803.02583-.7603-.11151 .91318-.82548.49128-.86357 1.18606-1.45974 .40143-.13856.7299-.47427.72987-.74001s.42115-1.01237.93261-1.66249 1.24792-1.79629 1.6321-2.55455l1.00355-3.3858 .01016-1.67262c.00564-2.64815.32536-4.10243.92246-4.12581 .32345-.01266.21559-.15687-.28384-.36494-.77266-.32192-.78028-.35335-.16219-.60823 .07107-.80421.03133-.25043.15204-.85152-.42177.19983-.50021-.03136-.45616-1.4192 .02884-.90868.22302-1.81455.42576-2.01729s.36497-.75193.36494-1.22659c-.3627-1.38237-.15473-1.66398-.67917-3.64936 .44937-3.13537.69046-3.2666.35478-5.33212l-.19259-1.05426-.90222-2.18962c-.82076-2.56073-1.17136-2.97371-1.85507-4.04471-.3605-1.12977-.22458-1.12312-1.06442-1.74358-.57919-1.51525-1.25619-2.04236-2.31126-2.64579l-1.54084-1.54084c-.28644-.6169-.97122-1.15623-2.07813-1.5307-1.31373-1.78549-1.4019-1.04551-2.3822-2.26058 0,.30565-.46891.16631-1.54084-.45617-.84747-.49214-1.6138-.99258-1.70304-1.11508s-.60008-.37071-1.13536-.5474l-.97316-.31425-1.23673-.3548-1.32798-.18247c-.73084-.10017-2.31324-.28211-3.51756-.40548-.41025-.10257-.71547-.14419-.96301-.15206h-.25344zm-60.2753,188.58077c.07954-.11589.13524-.17328.11153-.10137-.03163.04062-.0473.08695-.06086.12165l.09125.05068c.05203-.13386.08155-.42014.01016-.94275l-1.19622-.24329c-.53245.34079-.19148.42955 1.04414,1.11508zm42.89016-183.25878c-.0388.00652-.0872.02312-.1318.05069-.17841.11027-.32436.25585-.32439.33452s.14601.15206.32439.15206 .32442-.15572.32439-.34466c0-.14171-.07627-.21216-.19259-.19261zm3.74058,304.0324-.04055.10137c-.08681.11285-.19836.23252-.32439.35478h.06082c.17842,0 .32442-.15571.32439-.34463 0-.04635-.00522-.08106-.02027-.11152zm-65.83043,6.61952c-.17842,0-.32436.14604-.32439.32439s.14601.32438.32439.32438 .32442-.14568.32438-.32438-.14594-.32439-.32438-.32439zm46.24552,2.91949c-.27813,0-.50682.14604-.50686.32438s.13618.32439.30412.32439 .39663-.14568.50685-.32439-.02595-.32438-.30411-.32438zm20.28435.04055c-.11266.00463-.20978.0275-.26353.08109-.10783.1078.08382.18646.42573.17235 .37791-.01557.45141-.08917.19262-.19259-.11711-.04687-.24193-.06517-.35482-.06085zm-22.93012,9.15383c-.0388.00652-.0872.02335-.1318.05067-.17841.11026-.32436.25587-.32439.33454s.14601.15204.32439.15204 .32442-.15571.32439-.34463c0-.14173-.07627-.21218-.19259-.19262zm-48.16146,38.49061c-.34631,0-.62846.14604-.6285.32439s.3747.32439.83125.32439c.47081,0 .74223-.14011.6285-.32439s-.48499-.32439-.83125-.32439zm-.43591,3.04114c-.08658.01326-.21452.08667-.35478.20274-.26762.22214-.48655.44483-.48658.50689s.21899.03172.48658-.07098 .48661-.33571.48658-.51701c0-.09491-.04509-.13459-.1318-.12164zm32.60097,37.54787c-.11266.00464-.20979.02751-.26354.0811-.10782.1078.08383.18646.42573.17235 .37791-.01557.45142-.08918.19262-.19259-.1171-.04687-.24193-.06517-.35481-.06086zm.61838,4.50088c-.17842,0-.32436.14562-.32439.33455s.14601.26252.32439.15204 .32442-.2662.32438-.34463-.14594-.14196-.32438-.14196zm.04055,3.89266c-.17842,0-.41684.14604-.52713.32438s-.04665.32439.13179.32439 .40675-.14568.51698-.32439 .05674-.32438-.12164-.32438zm83.31694,44.45127c-.16667.03604-.32144.20456-.42573.47643-.20865.54373-.16291.56453.56768.28383 .28115-.10785.43322-.32672.33451-.48658-.13608-.22013-.30976-.30972-.47646-.27368zm.74002,1.63209c-.16469,0-.41538.10105-.72987.30408-.39348.25429-.34687.31028.24329.31427 .40143.00272.72991-.13556.72987-.31427 0-.2032-.0786-.30441-.24329-.30408zm-3.04113,1.67261c-.37334.04593-.93258.36162-.93262.60822 0,.40607.89684.35793 1.15563-.06082 .11763-.19028.14235-.40503.06083-.48658-.05658-.05657-.15941-.07613-.28384-.06082z"
     id="path2" />
</svg>
