<?xml version="1.0" encoding="UTF-8" standalone="no"?>
<svg
   xmlns:dc="http://purl.org/dc/elements/1.1/"
   xmlns:cc="http://creativecommons.org/ns#"
   xmlns:rdf="http://www.w3.org/1999/02/22-rdf-syntax-ns#"
   xmlns:svg="http://www.w3.org/2000/svg"
   xmlns="http://www.w3.org/2000/svg"
   xmlns:sodipodi="http://sodipodi.sourceforge.net/DTD/sodipodi-0.dtd"
   xmlns:inkscape="http://www.inkscape.org/namespaces/inkscape"
   viewBox="0 0 377.00745 937.56649"
   version="1.1"
   id="svg4"
   sodipodi:docname="man with bag calling phone.svg"
   width="377.00745"
   height="937.56647"
   inkscape:version="0.92.4 (5da689c313, 2019-01-14)">
  <metadata
     id="metadata10">
    <rdf:RDF>
      <cc:Work
         rdf:about="">
        <dc:format>image/svg+xml</dc:format>
        <dc:type
           rdf:resource="http://purl.org/dc/dcmitype/StillImage" />
        <dc:title></dc:title>
      </cc:Work>
    </rdf:RDF>
  </metadata>
  <defs
     id="defs8" />
  <sodipodi:namedview
     pagecolor="#ffffff"
     bordercolor="#666666"
     borderopacity="1"
     objecttolerance="10"
     gridtolerance="10"
     guidetolerance="10"
     inkscape:pageopacity="0"
     inkscape:pageshadow="2"
     inkscape:window-width="933"
     inkscape:window-height="512"
     id="namedview6"
     showgrid="false"
     fit-margin-top="0"
     fit-margin-left="0"
     fit-margin-right="0"
     fit-margin-bottom="0"
     inkscape:zoom="0.22425739"
     inkscape:cx="238.52055"
     inkscape:cy="443.48509"
     inkscape:window-x="180"
     inkscape:window-y="179"
     inkscape:window-maximized="0"
     inkscape:current-layer="svg4" />
  <path
     d="m 255.79331,935.8003 c -4.0168,-0.8759 -7.9971,-2.2584 -8.8451,-3.0721 -0.848,-0.8137 -3.415,-1.4795 -5.7044,-1.4795 -9.9262,0 -29.71,-16.418 -31.646,-26.262 -1.1878,-6.0391 -1.9596,-8.1034 -7.7774,-20.803 -3.9244,-8.5667 -7.6994,-21.716 -7.6994,-26.82 0,-2.4315 -3.9215,-12.117 -9.8398,-24.303 -1.734,-3.5705 -3.1508,-8.0919 -3.1483,-10.048 0.002,-1.9561 -0.63862,-3.9533 -1.4247,-4.4392 -0.78608,-0.4859 -1.8086,-2.5373 -2.2723,-4.5589 -0.4637,-2.0216 -2.3768,-7.6821 -4.2512,-12.579 -1.8744,-4.8969 -3.408,-11.244 -3.408,-14.105 0,-2.861 -0.62593,-5.5886 -1.391,-6.0614 -0.76507,-0.4728 -1.813,-4.9483 -2.3287,-9.9456 -0.5157,-4.9973 -1.6291,-9.9484 -2.4741,-11.002 -0.845,-1.0536 -1.8969,-4.4727 -2.3377,-7.5969 -1.3386,-9.4883 -4.6574,-24.96 -6.0923,-28.402 -0.74436,-1.7852 -1.7894,-6.5324 -2.3224,-10.549 -0.533,-4.0166 -2.705,-14.607 -4.8269,-23.533 -3.5453,-14.914 -10.55,-47.201 -13.203,-60.861 -0.60692,-3.1242 -1.6746,-6.4106 -2.3725,-7.3033 -0.6979,-0.8927 -2.5514,-10.001 -4.1186,-20.24 -2.1886,-14.299 -4.1097,-21.035 -8.2813,-29.038 -5.349,-10.262 -5.432,-10.744 -5.4538,-31.694 -0.0298,-28.581 -0.0282,-28.577 -10.057,-28.577 -6.649702,0 -8.224002,-0.56064 -8.906902,-3.1719 -0.61681,-2.3587 -2.7624,-3.4357 -8.3686,-4.2005 -4.1465,-0.56569 -10.095,-1.6904 -13.219,-2.4993 -3.124,-0.8089 -13.506,-1.4749 -23.07,-1.4798 -16.371,-0.009 -17.504,-0.22299 -19.335,-3.6607 -2.4056,-4.5161 -6.2796,-7.5893 -9.6525,-7.6574 -1.4065,-0.0284 -4.2725,-1.8774 -6.369,-4.109 -2.0965,-2.2316 -4.7542,-4.0574 -5.9061002,-4.0574 -4.1977,0 -5.683,-6.3995 -4.6347,-19.969 0.56522,-7.316 1.8388,-14.96 2.8301,-16.986 1.3431,-2.7454 1.3145,-4.1724 -0.11228,-5.5992 -1.0531,-1.0531 -1.9148,-3.2293 -1.9148,-4.836 0,-1.6067 -1.0524,-2.9213 -2.3386,-2.9213 -4.14029999,0 -4.51559999,-3.1938 -1.7172,-14.613 2.2398,-9.1397 2.3905,-12.245 0.82442,-16.991 -1.91169999,-5.7926 -0.98243,-13.383 3.4184,-27.922 0.85855,-2.8364 2.0023,-8.8828 2.5416,-13.436 0.83894,-7.0836 1.8599002,-8.9758 7.0686002,-13.101 3.766,-2.9827 7.9922,-4.8218 11.08,-4.8218 3.6653,0 5.9494,-1.2943 8.5922,-4.8688 1.9798,-2.6779 4.1935,-4.8689 4.9192,-4.8689 0.7257,0 4.2539,-3.0237 7.8404,-6.7193 5.9883,-6.1705 6.4194,-7.1978 5.2782,-12.578 -1.9237,-9.0691 -1.3667,-16.699 1.6603,-22.743 1.5216,-3.0382 2.7666,-7.5596 2.7666,-10.048 0,-2.4884 0.65694,-4.9297 1.4599,-5.426 0.80296,-0.4963 2.3278,-4.7387 3.3886,-9.4278 1.0608,-4.6891 3.085,-11.082 4.4984,-14.206 2.5383,-5.6108 6.0603,-19.436 7.9528,-31.218 0.53556,-3.3341 1.9745,-6.8926 3.1977,-7.9078 1.2232,-1.0152 2.224,-4.6345 2.224,-8.043 0,-3.4085 0.73033,-6.6487 1.623,-7.2003 0.92271,-0.57027 1.6349,-8.8394 1.6507,-19.165 0.0188,-12.286 0.98752,-21.838 2.9939,-29.523 6.3187,-24.201 6.6652,-24.826 18.586002,-33.513 9.2764,-6.7602 13.323,-8.5538 25.114,-11.13 8.32,-1.8182 16.784,-2.697696 20.741,-2.155296 6.4982,0.890666 6.905,0.661536 14.552,-8.1957 4.3267,-5.0116 8.7945,-9.112 9.9284,-9.112 2.9696,0 8.6587,-6.3885 11.562,-12.984 1.7917,-4.0698 2.4157,-10.282 2.2008,-21.91 -0.37998,-20.56 3.3831,-33.15 10.6,-35.464 2.5322,-0.81178 5.6995,-2.3861998 7.0384,-3.4985998 9.2262,-7.66569995 25.67,-10.587 40.435,-7.1836 8.6801,2.0008 27.729,13.9789998 27.729,17.4369998 0,1.3675 1.1668,3.7757 2.593,5.3516 5.3159,5.874 8.7676,25.052 8.7676,48.713 0,13.136 -0.66821,22.743 -1.623,23.333 -0.89262,0.55167 -1.623,4.594696 -1.623,8.984596 0,6.7228 -0.63989,8.4008 -4.0574,10.64 -3.995,2.6176 -5.5652,7.154 -2.4761,7.154 0.86971,0 2.7312,2.2237 4.1366,4.9415 1.8282,3.5354 5.6501,6.3669 13.431,9.9505 5.9816,2.7549 15.341,7.0788 20.8,9.6085 5.459,2.5297 13.371,7.7289 17.585,11.554 7.0206,6.3728 7.7967,7.8358 9.2853,17.503 0.8934,5.802 2.1566,18.583 2.8071,28.402 1.1024,16.64 3.0996,28.663 6.759,40.689 0.83414,2.7412 1.5166,7.2223 1.5166,9.9579 0,2.7356 1.091,7.0657 2.4244,9.6225 1.7618,3.3782 2.4272,10.056 2.4344,24.434 0.005,10.882 0.66319,20.189 1.4615,20.682 0.79831,0.493 1.8524,3.6404 2.3425,6.9933 0.4901,3.3529 1.3718,8.4114 1.9596,11.241 0.72718,3.5012 -0.0594,8.1596 -2.4622,14.582 -3.1855,8.5141 -3.4273,11.343 -2.473,28.937 1.1248,20.738 5.5393,41.222 10.323,47.902 5.5029,7.6842 7.0288,15.346 7.6137,38.229 0.52009,20.349 0.24276,23.37 -2.5705,27.996 -1.7344,2.852 -4.4788,5.1854 -6.0986,5.1854 -1.6198,0 -3.8068,0.86164 -4.8599,1.9148 -1.3805,1.3805 -2.9428,1.4432 -5.5992,0.22489 -6.9094,-3.169 -16.097,-5.6857 -17.099,-4.6837 -0.5499,0.54991 -0.0877,6.4284 1.0272,13.063 1.554,9.2484 1.5847,12.89 0.1315,15.605 -1.2085,2.2581 -2.0451,14.783 -2.3082,34.557 -0.22699,17.058 -0.88665,33.206 -1.4659,35.884 -0.57925,2.678 -1.7074,14.775 -2.5069,26.883 -0.9415,14.257 -2.426,24.264 -4.2134,28.402 -1.5178,3.5134 -3.3962,11.5 -4.174,17.749 -2.0406,16.392 -3.9405,25.145 -6.9464,32.001 -3.4613,7.8955 -3.6086,33.836 -0.24625,43.366 1.8013,5.1055 2.3545,13.95 2.2204,35.503 -0.30434,48.913 0.21543,67.394 2.0962,74.537 1.5692,5.9592 1.3493,7.9581 -1.6402,14.907 -1.9683,4.5754 -3.4525,11.463 -3.4525,16.022 0,8.1346 1.1356,10.284 13.462,25.484 4.707,5.8042 10.882,17.616 10.882,20.815 0,4.5668 -6.584,10.833 -11.383,10.833 -2.5604,0 -5.1066,0.73033 -5.6583,1.623 -1.3011,2.1053 -60.713,1.8383 -70.598,-0.31721 z M 88.803308,349.2603 c 2.5881,-2.3422 2.7747,-5.0561 1.9253,-27.996 -0.63059,-17.031 -0.20026,-31.821 1.3058,-44.878 1.2355,-10.711 2.2524,-26.402 2.2598,-34.867 0.0117,-13.373 -0.35896,-15.464 -2.8267,-15.943 -2.206,-0.42805 -2.8402,0.55736 -2.8402,4.4135 0,5.6337 -2.9142,19.021 -5.0606,23.247 -0.78717,1.55 -1.4312,4.639 -1.4312,6.8646 0,5.3827 -4.7362,30.035 -6.5584,34.137 -0.79306,1.7852 -1.6503,5.4369 -1.9049,8.1148 -0.34581,3.6366 -1.3865,5 -4.1119,5.3871 -2.4481,0.34772 -3.9492,1.95 -4.5612,4.8689 -0.5017,2.3928 -1.5984,5.6188 -2.4371,7.1687 -1.9823,3.6634 -1.9526,7.731 0.0564,7.731 2.2354,0 6.5335,8.8341 6.5335,13.429 0,2.7673 1.7142,4.8066 6.0861,7.2405 7.5298,4.1919 9.9178,4.3822 13.565,1.0813 z"
     id="path2"
     inkscape:connector-curvature="0" />
</svg>
