<?xml version="1.0" encoding="UTF-8" standalone="no"?>
<!-- Created with Inkscape (http://www.inkscape.org/) -->

<svg
   xmlns:dc="http://purl.org/dc/elements/1.1/"
   xmlns:cc="http://creativecommons.org/ns#"
   xmlns:rdf="http://www.w3.org/1999/02/22-rdf-syntax-ns#"
   xmlns:svg="http://www.w3.org/2000/svg"
   xmlns="http://www.w3.org/2000/svg"
   xmlns:sodipodi="http://sodipodi.sourceforge.net/DTD/sodipodi-0.dtd"
   xmlns:inkscape="http://www.inkscape.org/namespaces/inkscape"
   width="78.282013mm"
   height="288.99295mm"
   viewBox="0 0 78.282013 288.99295"
   version="1.1"
   id="svg849"
   inkscape:version="0.92.4 (5da689c313, 2019-01-14)"
   sodipodi:docname="man standing classy.svg">
  <defs
     id="defs843">
    <clipPath
       clipPathUnits="userSpaceOnUse"
       id="clipPath18">
      <path
         d="M 0,819.193 H 221.902 V 0 H 0 Z"
         id="path16"
         inkscape:connector-curvature="0" />
    </clipPath>
  </defs>
  <sodipodi:namedview
     id="base"
     pagecolor="#ffffff"
     bordercolor="#666666"
     borderopacity="1.0"
     inkscape:pageopacity="0.0"
     inkscape:pageshadow="2"
     inkscape:zoom="0.35"
     inkscape:cx="233.64879"
     inkscape:cy="588.98556"
     inkscape:document-units="mm"
     inkscape:current-layer="layer1"
     showgrid="false"
     fit-margin-top="0"
     fit-margin-left="0"
     fit-margin-right="0"
     fit-margin-bottom="0"
     inkscape:window-width="1920"
     inkscape:window-height="1048"
     inkscape:window-x="0"
     inkscape:window-y="0"
     inkscape:window-maximized="1" />
  <metadata
     id="metadata846">
    <rdf:RDF>
      <cc:Work
         rdf:about="">
        <dc:format>image/svg+xml</dc:format>
        <dc:type
           rdf:resource="http://purl.org/dc/dcmitype/StillImage" />
        <dc:title></dc:title>
      </cc:Work>
    </rdf:RDF>
  </metadata>
  <g
     inkscape:label="Ebene 1"
     inkscape:groupmode="layer"
     id="layer1"
     transform="translate(-44.013757,-15.676135)">
    <g
       transform="matrix(0.35277777,0,0,-0.35277777,44.013757,304.66917)"
       id="g12">
      <g
         id="g14"
         clip-path="url(#clipPath18)">
        <g
           id="g20"
           transform="translate(166.9757,527.5092)">
          <path
             d="m 0,0 c 0.116,-0.15 0.233,-0.3 0.35,-0.45 2.879,0.508 4.609,-0.647 5.613,-3.3 0.343,-0.906 1.436,-1.527 2.187,-2.279 0.176,0.063 0.353,0.127 0.53,0.19 0.212,1.867 0.457,3.732 0.627,5.604 0.281,3.095 0.647,6.192 0.725,9.295 0.07,2.691 0.096,5.452 -0.428,8.069 C 9.131,19.496 7.889,21.708 6.902,24.197 6.695,23.162 6.398,22.256 6.352,21.337 6.219,18.79 6.335,16.223 6.089,13.688 5.661,9.268 5.037,4.882 1.121,1.872 0.585,1.459 0.366,0.634 0,0 m -111.957,-154.711 c -2.836,5.046 -5.599,8.754 -7.298,9.727 -0.213,-1.217 -0.39,-2.38 -0.625,-3.532 -0.255,-1.247 -0.446,-2.525 -0.875,-3.715 -0.701,-1.942 -1.995,-3.245 -4.259,-3.204 -0.29,0.006 -0.582,-0.158 -1.023,-0.288 v -8.843 c 1.22,0 2.355,0.18 3.4,-0.05 1.084,-0.238 2.081,-0.874 3.291,-1.413 1.527,4.333 3.623,8.328 7.389,11.318 m -6.361,198.587 c -0.382,-2.524 -0.593,-5.089 -1.185,-7.563 -0.876,-3.657 -1.543,-7.313 -1.47,-11.085 0.063,-3.277 -0.053,-6.567 0.214,-9.826 0.171,-2.07 0.629,-4.066 -0.252,-6.09 -0.24,-0.551 -0.232,-1.277 -0.141,-1.893 0.53,-3.591 0.442,-7.16 -0.053,-10.752 -0.183,-1.327 0.006,-2.713 0.101,-4.067 0.034,-0.488 0.288,-0.959 0.441,-1.438 0.173,0.006 0.345,0.013 0.517,0.019 0.07,0.647 0.141,1.295 0.211,1.943 0.077,0.698 0.038,1.435 0.253,2.087 0.445,1.344 1.199,2.602 1.515,3.967 0.611,2.643 1.144,5.32 1.461,8.012 0.483,4.098 1.043,8.221 1.044,12.334 0.001,5.35 -0.468,10.703 -0.823,16.049 -0.19,2.852 -0.66,5.672 -1.833,8.303 m 9.955,-215.571 c -2.285,0.624 -4.189,1.144 -6.281,1.715 0.117,-0.755 0.234,-1.594 0.377,-2.428 0.337,-1.965 -0.186,-3.682 -1.642,-5.015 -4.306,-3.944 -8.632,-7.867 -13.002,-11.739 -1.523,-1.349 -2.193,-1.29 -3.721,-0.004 -0.916,0.77 -1.8,1.584 -2.645,2.432 -1.21,1.214 -2.117,2.48 -1.817,4.437 0.156,1.019 -0.243,2.251 -0.729,3.217 -2.152,4.289 -0.833,8.008 2.378,10.812 2.624,2.291 4.045,4.731 3.955,8.133 -0.009,0.312 -0.001,0.626 -0.001,1.125 -2.26,0.042 -2.968,1.654 -3.244,3.426 -0.417,2.679 -0.735,5.386 -0.878,8.093 -0.089,1.671 -0.563,2.921 -2.05,3.763 -0.621,0.352 -1.132,0.895 -1.745,1.267 -1.225,0.744 -2.036,1.764 -2.367,3.166 -0.253,1.069 -0.771,1.92 -1.891,2.282 -1.215,0.392 -1.303,1.56 -1.572,2.511 -1.043,3.682 -1.109,7.436 -0.362,11.167 0.445,2.217 0.523,4.288 -0.125,6.534 -1.125,3.896 -0.7,7.931 -0.31,11.915 0.187,1.908 0.545,3.797 0.76,5.702 0.157,1.394 -0.405,2.567 -1.702,2.715 -2.624,0.299 -3.309,2.191 -3.99,4.187 -0.257,0.751 -0.434,1.53 -0.666,2.36 -0.894,0.17 -1.747,0.35 -2.605,0.491 -0.778,0.129 -1.563,0.216 -2.386,0.327 0.889,0.902 0.889,0.902 0.6,1.869 -0.115,0.381 -0.286,0.755 -0.333,1.144 -0.614,5.061 -1.936,10.022 -1.922,15.181 0.006,1.956 -0.638,3.916 -1.004,5.87 -0.117,0.623 -0.359,1.226 -0.43,1.852 -1.401,12.31 -2.882,24.613 -4.135,36.939 -0.678,6.678 -0.886,13.402 -1.454,20.093 -0.262,3.089 -1.019,6.136 -1.294,9.225 -0.289,3.254 -0.449,6.54 -0.351,9.802 0.235,7.832 0.504,15.668 1.045,23.482 0.446,6.455 1.23,12.891 1.998,19.319 0.815,6.825 1.469,13.692 2.764,20.431 2.096,10.906 2.16,21.944 2.84,32.947 0.39,6.31 1.076,12.548 2.736,18.7 1.202,4.46 1.608,9.128 2.638,13.643 0.653,2.86 1.621,5.682 2.761,8.389 1.826,4.336 3.914,8.562 5.888,12.837 0.201,0.435 0.36,0.89 0.574,1.318 1.009,2.021 2.057,3.901 4.594,4.482 1.367,0.313 2.608,1.187 3.897,1.825 2.462,1.217 4.991,2.109 7.807,2.019 0.668,-0.022 1.401,0.281 2.017,0.603 4.496,2.345 9.231,3.993 14.193,5.016 0.617,0.127 1.276,0.271 1.802,0.594 2.597,1.59 5.519,2.032 8.434,2.553 2.983,0.533 5.975,1.052 8.921,1.75 2.353,0.558 4.148,2.051 5.409,4.107 2.116,3.451 4.882,6.316 7.912,8.952 0.181,0.158 0.363,0.316 0.536,0.481 6.316,5.988 5.15,4.556 6.645,11.637 0.529,2.503 1.137,4.939 2.271,7.288 0.721,1.491 1.303,3.127 1.478,4.914 0.19,1.936 -0.34,3.26 -1.85,4.305 -0.587,0.408 -1.18,0.845 -1.834,1.111 -1.961,0.799 -2.958,2.339 -3.535,4.266 -0.678,2.263 -0.779,4.572 -0.523,6.891 0.456,4.121 0.977,8.234 1.499,12.588 0.73,0.248 1.611,0.549 2.674,0.911 0.154,2.939 0.23,6.051 0.511,9.145 0.164,1.802 0.688,3.569 0.991,5.363 0.185,1.097 0.298,2.21 0.373,3.321 0.293,4.363 1.596,8.292 4.728,11.492 0.877,0.896 1.771,1.465 3.123,1.448 1.975,-0.024 3.81,0.444 4.764,2.513 0.156,0.338 0.52,0.615 0.845,0.834 2.836,1.902 5.667,3.812 8.545,5.647 0.571,0.363 1.334,0.441 2.018,0.608 1.233,0.3 2.474,0.569 3.712,0.849 0.385,0.087 0.778,0.257 1.157,0.231 4.463,-0.3 8.945,-0.399 13.278,-1.751 4.6,-1.436 8.249,-4.013 10.912,-8.112 2.265,-3.487 4.706,-6.848 6.226,-10.768 0.234,-0.601 0.86,-1.102 1.402,-1.522 2.152,-1.66 3.462,-3.516 2.03,-6.346 -0.594,-1.172 -0.085,-2.345 0.404,-3.459 0.318,-0.726 0.594,-1.341 0.047,-2.214 -0.358,-0.573 -0.147,-1.541 -0.097,-2.325 0.069,-1.034 0.325,-2.063 0.316,-3.092 -0.006,-0.577 -0.245,-1.276 -0.623,-1.704 -1.356,-1.535 -1.396,-1.501 -2.05,-3.475 1.292,-0.564 2.595,-1.133 4.111,-1.795 -1.41,-1.847 -1.038,-3.914 -1.08,-5.931 -0.063,-3.033 0.156,-6.119 -0.334,-9.084 -0.766,-4.648 -3.308,-8.194 -8.022,-10.126 -0.119,-0.795 -0.251,-1.736 -0.404,-2.674 -0.626,-3.877 -1.49,-7.692 -3.098,-11.296 -0.355,-0.795 -0.898,-1.505 -1.268,-2.295 -0.348,-0.742 -0.583,-1.538 -0.904,-2.407 3.733,-0.79 4.857,-3.413 4.961,-6.405 0.088,-2.524 -0.43,-5.073 -0.725,-7.607 -0.203,-1.743 -0.474,-3.479 -0.729,-5.215 -0.285,-1.933 0.423,-3.485 1.929,-4.626 1.644,-1.246 2.656,-2.874 3.61,-4.679 1.187,-2.248 2.774,-4.287 4.041,-6.195 1.187,-0.634 2.297,-1.023 3.15,-1.724 1.572,-1.294 3.345,-2.052 5.208,-2.826 4.051,-1.683 8.01,-3.604 11.929,-5.583 3.351,-1.692 6.604,-3.58 9.878,-5.423 1.034,-0.582 1.935,-1.418 3.001,-1.923 1.425,-0.675 2.907,-1.356 4.439,-1.656 5.822,-1.136 6.638,-1.907 7.769,-7.725 1.386,-7.131 0.736,-14.169 -0.924,-21.155 -0.321,-1.352 -0.481,-2.607 -0.105,-3.98 2.162,-7.886 3.283,-15.956 4.198,-24.063 1.137,-10.087 2.327,-20.168 3.498,-30.251 0.258,-2.217 1.377,-4.049 2.571,-5.869 1.27,-1.932 2.564,-3.866 3.621,-5.916 1.375,-2.668 0.958,-5.327 -0.866,-7.638 -0.798,-1.011 -0.82,-1.817 -0.217,-2.806 0.166,-0.273 0.334,-0.547 0.486,-0.828 1.311,-2.411 1.257,-2.599 -1.024,-4.158 -0.25,-0.171 -0.423,-0.457 -0.803,-0.881 0.533,-0.677 1.034,-1.354 1.577,-1.995 0.878,-1.033 1.867,-1.984 2.66,-3.077 1.007,-1.39 1.688,-3.035 1.336,-4.732 -0.471,-2.269 0.051,-4.441 0.16,-6.658 C 55.202,9.235 53.682,3.325 49.149,-1.51 48.181,-2.543 48.277,-3.509 49,-4.23 c 1.906,-1.9 1.469,-3.88 0.876,-6.152 -1.432,-5.486 -2.644,-11.03 -3.894,-16.562 -0.189,-0.84 -0.185,-1.744 -0.147,-2.613 0.28,-6.402 -1.332,-12.354 -4.372,-17.924 -1.45,-2.657 -1.315,-5.247 -0.032,-7.801 1.074,-2.138 2.311,-4.205 3.617,-6.213 2.534,-3.894 2.632,-8.329 2.781,-12.691 0.102,-2.965 -1.469,-5.526 -3.12,-7.915 -1.045,-1.511 -2.278,-2.89 -3.331,-4.396 -1.643,-2.352 -3.195,-4.766 -4.804,-7.141 -0.716,-1.058 -1.475,-2.085 -2.216,-3.126 -4.586,-6.453 -9.149,-12.922 -13.77,-19.35 -1.585,-2.206 -3.374,-4.266 -4.952,-6.477 -0.771,-1.079 -1.53,-2.287 -1.843,-3.549 -0.727,-2.934 -1.179,-5.935 -1.742,-8.908 -0.074,-0.392 -0.093,-0.803 -0.227,-1.173 -1.017,-2.819 -2.087,-5.621 -3.078,-8.45 -0.526,-1.503 -1.055,-3.025 -1.366,-4.581 -1.097,-5.48 -2.229,-10.957 -3.113,-16.474 -2.584,-16.096 -5.133,-32.198 -7.544,-48.32 -1.644,-10.988 -3.077,-22.007 -4.512,-33.024 -0.412,-3.167 -0.407,-6.386 -0.765,-9.562 -0.475,-4.227 -1.183,-8.445 -3.751,-11.994 -1.155,-1.596 -2.548,-3.087 -4.077,-4.322 -1.027,-0.829 -1.549,-1.704 -1.842,-2.914 -1.155,-4.777 -1.322,-9.639 -1.489,-14.523 -0.201,-5.906 -0.316,-11.846 -1.058,-17.696 -0.693,-5.453 -2.149,-10.809 -3.285,-16.204 -2.109,-10.01 -4.358,-19.986 -7.493,-29.739 -1.107,-3.442 -0.365,-6.791 0.609,-10.128 0.737,-2.526 1.487,-5.056 2.051,-7.624 0.358,-1.629 0.368,-3.271 -0.467,-4.903 -0.438,-0.858 -0.508,-2.051 -0.36,-3.035 0.655,-4.358 -0.047,-8.601 -0.807,-12.859 -1.671,-9.364 -3.479,-18.698 -6.248,-27.812 -0.385,-1.271 -1.094,-2.448 -1.69,-3.651 -1.003,-2.019 -0.98,-2.167 0.878,-3.468 0.458,-0.322 0.931,-0.621 1.402,-0.923 0.973,-0.624 1.489,-1.459 1.911,-2.597 1.809,-4.873 3.847,-9.657 6.877,-13.936 0.452,-0.639 1.09,-1.17 0.747,-2.132 -0.105,-0.296 0.046,-0.894 0.288,-1.071 1.839,-1.343 2.822,-3.373 4.218,-5.068 0.592,-0.717 1.446,-1.279 2.28,-1.725 2.817,-1.503 5.682,-2.918 8.524,-4.376 3.267,-1.677 6.602,-3.239 9.773,-5.081 4.023,-2.337 6.682,-5.873 8.192,-10.281 0.748,-2.184 0.4,-2.989 -1.737,-3.905 -0.873,-0.374 -1.69,-0.886 -2.573,-1.228 -0.804,-0.31 -1.666,-0.672 -2.5,-0.669 -2.867,0.012 -5.681,-0.022 -8.553,-0.527 -2.798,-0.491 -5.742,-0.24 -8.619,-0.177 -6.728,0.148 -13.421,0.628 -19.902,2.66 -2.211,0.693 -4.204,1.667 -6.157,3.039 -2.978,2.091 -6.257,3.869 -9.628,5.243 -1.958,0.798 -4.253,1.305 -6.067,1.099 -1.291,-1.624 -2.299,-2.891 -3.759,-4.727 0.181,-1.281 0.315,-3.272 0.772,-5.184 0.583,-2.444 0.823,-4.761 0.164,-7.289 -0.509,-1.957 -0.567,-4.17 -0.249,-6.177 0.913,-5.764 0.312,-11.449 -0.367,-17.155 -0.217,-1.823 -0.353,-3.657 -0.594,-5.478 -0.081,-0.61 -0.413,-1.183 -0.556,-1.789 -0.179,-0.755 -0.281,-1.528 -0.436,-2.403 -0.854,-1.338 -1.948,-2.732 -2.689,-4.295 -0.948,-1.996 -2.461,-3.208 -4.51,-3.571 -1.786,-0.316 -3.645,-0.288 -5.471,-0.275 -0.58,0.003 -1.233,0.342 -1.723,0.703 -7.913,5.83 -13.864,13.19 -17.382,22.433 -0.544,1.43 -0.716,2.813 -0.59,4.407 0.559,7.085 1.457,14.155 1.136,21.295 -0.093,2.065 0.218,4.145 0.297,6.219 0.026,0.704 -0.006,1.434 -0.165,2.116 -0.806,3.472 -0.739,6.986 -0.588,10.505 0.017,0.396 0.063,0.811 0.202,1.177 1.25,3.29 1.236,6.724 1.282,10.171 0.039,2.952 0.316,5.9 0.415,8.852 0.022,0.667 -0.079,1.473 -0.439,1.997 -2.256,3.265 -2.804,6.924 -2.596,10.752 0.135,2.472 0.287,4.957 0.672,7.398 0.808,5.135 0.446,10.17 -0.602,15.239 -1.814,8.772 -2.977,17.642 -3.85,26.561 -1.195,12.196 -1.598,24.419 -1.534,36.658 0.03,5.753 0.187,11.52 0.677,17.248 0.346,4.042 1.302,8.037 2.069,12.037 0.899,4.682 1.142,9.351 0.161,14.052 -0.14,0.673 -0.036,1.411 0.031,2.111 0.487,5.089 1.151,10.167 1.452,15.267 0.347,5.908 0.605,11.806 1.793,17.633 0.244,1.197 0.114,2.601 -0.268,3.771 -1.572,4.821 -2.285,9.807 -2.838,14.797 -1.374,12.393 -2.518,24.812 -3.843,37.21 -0.552,5.165 -1.309,10.309 -2.03,15.453 -0.154,1.099 -0.654,2.148 -0.833,3.245 -0.672,4.096 -1.283,8.202 -1.902,12.307 -0.213,1.41 -0.382,2.826 -0.565,4.193"
             style="fill:#000000;fill-opacity:1;fill-rule:nonzero;stroke:none"
             id="path22"
             inkscape:connector-curvature="0" />
        </g>
      </g>
    </g>
  </g>
</svg>
