<?xml version="1.0" encoding="UTF-8" standalone="no"?>
<svg
   xmlns:dc="http://purl.org/dc/elements/1.1/"
   xmlns:cc="http://creativecommons.org/ns#"
   xmlns:rdf="http://www.w3.org/1999/02/22-rdf-syntax-ns#"
   xmlns:svg="http://www.w3.org/2000/svg"
   xmlns="http://www.w3.org/2000/svg"
   xmlns:sodipodi="http://sodipodi.sourceforge.net/DTD/sodipodi-0.dtd"
   xmlns:inkscape="http://www.inkscape.org/namespaces/inkscape"
   version="1.1"
   width="197.13957"
   height="373.69327"
   viewBox="0 0 197.13957 373.69327"
   id="svg7"
   sodipodi:docname="man standing wondering.svg"
   inkscape:version="0.92.4 (5da689c313, 2019-01-14)">
  <metadata
     id="metadata13">
    <rdf:RDF>
      <cc:Work
         rdf:about="">
        <dc:format>image/svg+xml</dc:format>
        <dc:type
           rdf:resource="http://purl.org/dc/dcmitype/StillImage" />
        <dc:title></dc:title>
      </cc:Work>
    </rdf:RDF>
  </metadata>
  <defs
     id="defs11" />
  <sodipodi:namedview
     pagecolor="#ffffff"
     bordercolor="#666666"
     borderopacity="1"
     objecttolerance="10"
     gridtolerance="10"
     guidetolerance="10"
     inkscape:pageopacity="0"
     inkscape:pageshadow="2"
     inkscape:window-width="1920"
     inkscape:window-height="1048"
     id="namedview9"
     showgrid="false"
     fit-margin-top="0"
     fit-margin-left="0"
     fit-margin-right="0"
     fit-margin-bottom="0"
     inkscape:zoom="0.96721311"
     inkscape:cx="160.20977"
     inkscape:cy="163.69354"
     inkscape:window-x="0"
     inkscape:window-y="0"
     inkscape:window-maximized="1"
     inkscape:current-layer="svg7" />
  <g
     id="layer1"
     transform="translate(-210.80237,-287.08792)">
    <g
       style="fill:#000000;fill-opacity:1;stroke-linejoin:miter"
       id="g4">
      <path
         d="m 302.1961,333.45233 -0.0187,0.0236 h 0.001 z m -13.401,-46.36441 q -4.42776,0 -9.37973,3.25076 -7.12979,4.50046 -8.34847,9.05062 -0.76075,2.36976 -0.55408,6.1893 0.0131,1.5849 1.01025,9.12907 l 0.0315,0.38101 q -0.0178,-0.006 -0.0355,-0.0111 -0.16781,-0.0357 -0.32727,-0.0357 -0.85917,0 -1.47525,1.03693 -0.53116,0.9459 -0.16955,2.56 -0.007,0.43063 1.67023,5.03768 0.3108,0.88132 0.70205,1.44586 0.40057,0.5315 0.80151,0.72538 l 2.2876,0.77035 q 0.51761,0.24473 0.62744,0.5383 0.11768,0.21593 0.1294,0.69073 -0.21497,2.16816 -0.0741,2.5713 0.0787,0.39965 0.23566,0.77038 1.0437,2.02289 0.93661,2.11554 0.01,0.55405 -0.007,1.13948 h -0.003 l -0.15907,0.4302 -0.20043,0.87884 -0.19134,0.57284 v 0 l -0.79877,-0.11878 -0.1065,-0.0158 -4.44336,7.16565 -28.10329,14.76569 q -4.63638,38.80016 -6.56621,44.60986 -1.21881,5.00238 -2.66772,8.40894 -0.43085,1.17236 -1.32614,2.94204 -0.94806,-0.57658 -2.36554,-1.22561 -4.06511,-1.95932 -7.38799,-1.95932 -0.5699,0 -1.11798,0.0577 -5.97664,-3.7338 -7.98241,-3.7338 -0.0321,0 -0.0631,9.4e-4 l -0.0377,-0.001 q -0.0364,-8e-4 -0.0725,-8e-4 -1.34362,0 -2.10499,1.09328 -0.74565,1.35392 0.0713,2.22576 0.35188,0.36846 1.09004,0.66986 3.07896,0.93885 3.30745,1.1222 0.78712,0.3673 1.49315,0.93628 1.06659,0.86279 2.20892,2.23877 0.61887,0.64337 2.88611,4.10015 0.63882,0.84064 1.47731,1.59662 0.60817,0.54408 1.45421,1.16864 0.98695,0.68684 1.78834,1.25104 h -0.002 q -0.54591,1.4324 -0.57689,3.3523 1.03944,9.09478 3.26215,10.26568 0.5657,0.78528 3.06034,0.78528 2.95725,0 8.62513,-1.10351 5.31648,-3.15278 9.21396,-9.59615 1.52435,-2.69908 2.6846,-6.0759 l 3.1103,-10.54115 q 0.964,7.85528 0.96825,9.89625 -0.68457,3.05047 -1.28278,65.06118 l 6.83603,3.95309 2.74683,85.84593 q 0.48517,13.5039 1.22307,20.69277 0.49177,13.85463 13.18815,46.28443 l 0.92731,-0.15687 h 0.003 q 0.48169,3.97147 0.43069,5.80493 -0.009,1.0918 -0.19192,2.24184 l -0.78354,3.8656 q -0.12335,0.97325 -0.0491,1.77196 0.32443,3.74884 4.68297,4.35744 1.60392,0.4522 9.26716,0.4522 2.11164,0 4.68338,-0.0344 0.0416,3e-4 0.0827,3e-4 2.36826,0 2.95557,-0.78836 1.08191,-1.22827 0.0965,-5.56799 -0.31458,-1.20725 -0.68796,-1.86855 -0.17514,-0.316 -0.40003,-0.58824 l -1.03738,-1.07721 q -0.24893,-0.27945 -0.50073,-0.67935 -0.60187,-0.9676 -1.24614,-2.7898 -1.16838,-3.25625 -1.67946,-7.74307 h -0.003 l 2.52157,-0.42653 0.36097,-10.03416 q -0.0891,-0.86218 -0.94294,-2.06884 -4.89361,-3.63685 -4.76623,-4.4101 -0.21649,-0.1651 -0.10755,-1.6568 2.4679,-6.8368 1.83826,-8.4114 -0.0841,-2.1261 -4.6311,-8.27086 1.1821,-3.7879 0.93689,-6.48498 -2.30637,-20.88013 -1.90827,-25.8728 0.12932,-5.73646 1.18366,-12.31671 3.99469,-19.68125 6.13208,-34.1905 0.71234,-3.8645 1.64053,-7.58789 l 2.66532,-9.862 14.11969,35.09858 q 0.35444,1.70136 0.63739,7.5495 0.2098,5.60006 -0.44615,12.39471 l -4.43825,40.40855 q -0.22419,3.83657 -3.12745,12.61824 l 1.51142,6.74811 -3.41797,5.99719 q -0.56232,2.24616 -0.13037,7.04726 l 0.6416,-0.005 h 0.003 q -0.6177,2.47224 -0.67618,5.2675 -0.14001,1.07456 0.42164,12.51535 l 14.10583,0.89365 2.71838,-2.25723 q 2.39612,0.45513 4.44812,0.97418 10.24939,2.87095 11.91975,3.12011 4.47036,0.93738 8.0673,0.99084 9.0165,-0.11223 13.36015,-2.9612 1.73605,-1.52634 -1.06967,-3.00815 -1.05551,-0.54055 -2.65042,-0.94705 -0.59566,-0.19174 -5.14806,-1.0329 -1.09715,-0.2359 -1.72767,-0.4376 -1.49923,-0.44634 -2.8862,-1.4418 l -14.15378,-12.42697 -4.01365,-11.56043 6.59214,-8.58965 q 10.56424,-66.7926 9.47746,-72.64319 -2.579,-29.95196 -4.0868,-35.0784 -1.83005,-9.62286 -9.18814,-30.04041 h 0.003 l 3.5448,0.4679 q -0.84414,-42.17645 -4.8035,-53.3212 h 0.003 l 34.21689,2.38599 0.17261,-2.75342 4.89605,-0.61139 0.0632,-2.27203 h -0.004 q 12.53526,-1.27228 21.3627,-4.63577 6.5131,-2.50608 13.7975,-7.12283 3.3444,-2.21327 1.95068,-3.63453 l -0.0334,-0.0363 q -0.83977,-0.8034 -2.03137,-0.8034 -0.37934,0 -0.79432,0.0814 -0.42505,0.0935 -1.06838,0.4306 -3.12547,1.98291 -4.12635,2.3161 -1.51413,0.63538 -3.56897,0.84397 -1.39383,0.12054 -2.78838,0.12054 -3.46016,0 -6.92482,-0.74208 -1.93441,-0.48344 -2.01205,-1.43083 7.12949,-4.29867 6.78775,-5.31424 0.0447,-0.77051 -1.31592,-1.06813 -0.45756,-0.0922 -0.92106,-0.0922 -0.8984,0 -1.81917,0.34643 -0.66113,0.25189 -1.33985,0.72601 -2.98712,2.3836 -4.11413,3.07096 l -6.62201,4.10592 q -0.88526,0.56906 -2.32468,1.86703 -0.22,0.17691 -0.49563,0.32792 -0.38393,0.23956 -1.31015,0.42379 l 0.0451,-1.62226 1.2e-4,-0.004 -4.39514,0.47547 0.031,-0.4949 -31.07904,-4.553 q -5.88938,-19.51918 -6.79309,-25.7735 -1.055,-4.3254 -0.005,-14.5682 -0.16444,-4.78612 -0.68403,-6.93664 -0.78189,-3.9454 -4.02304,-9.50512 l -17.89203,-5.27329 -3.26965,-2.37075 v 0 l -0.0566,-0.17524 q -0.0174,-0.0503 -0.0454,-0.10019 l -0.32367,-0.45391 q -0.0294,-0.0359 -0.0587,-0.072 h -0.003 q -0.41925,-4.71857 -0.11383,-5.83185 h -0.003 l 0.0965,-0.12937 h -0.003 q -0.0422,0.054 -0.0843,0.10758 0.0133,-0.0459 0.0279,-0.0853 l 0.24933,-0.67462 q 0.88104,-1.26148 1.0338,-1.6474 0.3465,-0.70151 0.68648,-1.64499 l 0.6004,-1.92838 q 0.65402,-3.32077 0.75406,-3.32077 0.008,0 0.0119,0.0188 0.0994,-0.25305 0.37713,-0.54544 1.3242,-1.01376 1.484,-1.28356 0.41505,-0.47898 0.71443,-1.30256 0.81854,-2.46072 0.32684,-5.16958 -0.59762,-2.39444 -1.41407,-2.66646 h -0.003 q 0.0673,-3.7769 -0.0759,-8.9238 -0.22583,-5.7301 -1.54849,-8.28313 -1.52292,-3.2016 -6.25107,-5.90167 -4.76897,-2.81262 -8.9783,-3.12707 l -0.004,-2.8e-4 q -0.61768,-0.0654 -1.24592,-0.0654 z"
         id="path2"
         inkscape:connector-curvature="0" />
    </g>
  </g>
</svg>
