<?xml version="1.0" encoding="UTF-8" standalone="no"?>
<!-- Created with Inkscape (http://www.inkscape.org/) -->

<svg
   xmlns:dc="http://purl.org/dc/elements/1.1/"
   xmlns:cc="http://creativecommons.org/ns#"
   xmlns:rdf="http://www.w3.org/1999/02/22-rdf-syntax-ns#"
   xmlns:svg="http://www.w3.org/2000/svg"
   xmlns="http://www.w3.org/2000/svg"
   xmlns:sodipodi="http://sodipodi.sourceforge.net/DTD/sodipodi-0.dtd"
   xmlns:inkscape="http://www.inkscape.org/namespaces/inkscape"
   width="96.229401mm"
   height="454.64508mm"
   viewBox="0 0 96.229401 454.64508"
   version="1.1"
   id="svg832"
   inkscape:version="0.92.4 (5da689c313, 2019-01-14)"
   sodipodi:docname="man standing looking.svg">
  <defs
     id="defs826" />
  <sodipodi:namedview
     id="base"
     pagecolor="#ffffff"
     bordercolor="#666666"
     borderopacity="1.0"
     inkscape:pageopacity="0.0"
     inkscape:pageshadow="2"
     inkscape:zoom="0.35"
     inkscape:cx="473.27954"
     inkscape:cy="793.45752"
     inkscape:document-units="mm"
     inkscape:current-layer="layer1"
     showgrid="false"
     fit-margin-top="0"
     fit-margin-left="0"
     fit-margin-right="0"
     fit-margin-bottom="0"
     inkscape:window-width="1920"
     inkscape:window-height="1048"
     inkscape:window-x="0"
     inkscape:window-y="0"
     inkscape:window-maximized="1" />
  <metadata
     id="metadata829">
    <rdf:RDF>
      <cc:Work
         rdf:about="">
        <dc:format>image/svg+xml</dc:format>
        <dc:type
           rdf:resource="http://purl.org/dc/dcmitype/StillImage" />
        <dc:title></dc:title>
      </cc:Work>
    </rdf:RDF>
  </metadata>
  <g
     inkscape:label="Ebene 1"
     inkscape:groupmode="layer"
     id="layer1"
     transform="translate(240.12664,95.876111)">
    <path
       style="stroke-width:9.37524509"
       inkscape:connector-curvature="0"
       d="m -193.5665,-7.0574624 -0.23813,0.239069 -0.23907,0.716267 -0.23907,0.4772 -0.23907,0.478139 -0.23906,0.9544 -0.23907,0.478136 -0.23813,0.478139 v 1.193469 l -0.23907,0.4772 -0.23907,0.71626697 -0.23813,0.4772 -0.23907,0.478139 -0.23813,0.716269 -0.23907,0.71626703 -0.23907,0.478139 -0.23907,0.4772 -0.23907,0.478137 -0.23907,0.478139 -0.23906,0.4772 -0.23907,0.716265 -0.4772,0.23813 -0.23907,0.23907 -0.23813,0.23907 -0.23907,0.23907 -0.4772,0.23907 -0.23907,0.23907 -0.23907,0.23813 -0.47814,0.23907 -0.23813,0.23907 -0.23907,0.23907 -0.23813,0.23906 -0.23907,0.23814 -0.23907,0.23906 -0.23813,0.23907 -0.23907,0.23907 -0.23906,0.23907 -0.23907,0.23907 -0.23907,0.4772 -0.23907,0.23813 -0.23813,0.47814 -0.23907,0.2381304 -0.23813,0.47814 -0.23907,0.23906 -0.23907,0.47814 -0.23813,0.4772 -0.23907,0.23813 v -0.23803 l 0.23907,-1.67161 0.23813,-8.3580324 0.23907,-0.4772 0.4772,-0.239069 0.23907,-0.23813003 0.23813,-0.23907 0.23907,-0.239067 0.23907,-0.238133 0.23907,-0.478136 0.23906,-0.4772 0.23907,-0.23906997 0.23813,-0.478136 0.23907,-0.71627 0.23907,-0.954399 0.23813,-0.71627 0.23907,-0.956275 1.19347,-1.19347 0.71627,-0.239067 0.4772,-0.238132 0.23907,-0.478137 0.23813,-0.23813 0.23907,-0.23907 0.23907,-0.23813 0.23907,-0.478139 0.23906,-0.23813 0.23907,-0.23907 0.23907,-0.23907 0.23907,-0.23813 0.23813,-0.239069 0.23907,-0.239067 0.23813,-0.238133 0.23907,-0.2390666 0.23907,-0.238133 0.23813,-0.239067 0.23907,-0.23907 0.23907,-0.4772 0.23907,-0.716269 0.23906,-0.9544 h 0.23935 l 0.23814,1.194406 0.23906,1.19347 0.23814,1.1944046 v 2.14937 l -0.4772,0.23813 z m 1.43348,-22.9243516 0.23813,-0.4772 0.23907,-0.239067 0.4772,-0.238133 0.23907,-0.4772 0.23906,-0.239067 0.23814,-0.4772 0.23906,-0.478139 0.23907,-0.23813 h 0.47739 l 0.23813,0.716269 0.23907,0.4772 0.23907,0.716267 0.23907,0.4772 0.23907,0.716269 0.23907,0.71627 0.23906,0.956275 0.23907,0.9544 0.23813,0.955336 v 1.910115 c 0,1.302313 0.11382,0.707445 -0.47738,0.954772 l -0.23907,0.4772 -0.4772,0.23907 -0.23907,0.239069 -0.23907,0.238131 -0.23907,0.239069 -0.23813,0.23907 -0.23907,0.239067 -0.23813,0.239069 -0.23907,0.23907 -0.23907,0.23813 -0.23813,0.23907 -0.23907,0.23813 -0.23906,0.23907 -0.23907,0.477199 -0.23907,0.23907 -0.23907,0.239067 -0.23813,0.716269 -0.23907,0.238131 -0.23813,0.239069 -0.23907,0.23813 -0.23907,0.23907 -0.23813,0.23907 v -0.239303 l 0.23813,-0.239069 0.23907,-0.4772 0.23907,-0.4772 0.23813,-0.23907 0.23907,-0.23813 0.23813,-0.23907 0.23907,-0.477199 0.23907,-0.23907 0.23907,-0.239067 0.23906,-0.238133 0.23907,-0.955336 0.23813,-0.9544 0.23907,-0.478139 0.23907,-0.71533 0.23813,-0.478139 0.23907,-0.239067 0.23813,-0.71627 v -1.672074 l -0.23813,-0.477199 -0.23907,-0.23907 -0.23813,-0.238133 -0.95627,-0.4772 -0.23907,-0.239067 -0.23907,-0.239069 -0.23907,-0.4772 -0.23907,-0.4772 -0.23813,-0.478137 z m 17.67046,-63.28197 c 0.42451,-0.424473 -0.42507,0.424474 0,0 z m -0.9544,-0.238131 z m -13.37285,-1.671606 0.71627,0.239069 0.47814,0.239068 0.4772,0.239069 v 0.238684 h -1.67142 l -0.23907,0.716269 -0.9544,0.238131 -0.95628,0.239069 -0.4772,0.239069 -0.47813,0.238131 -0.23813,0.239069 -0.47721,0.239069 -0.47813,0.239069 -0.71533,0.239068 -0.47814,0.239069 -0.71627,0.238131 -0.23813,0.239069 -0.23907,0.238131 -0.4772,0.716269 -0.71627,0.239069 -0.71627,0.239069 -0.4772,0.239068 -0.23907,0.239069 -0.71627,0.239069 -0.71626,0.238131 -0.23907,0.239069 -0.4772,0.238131 -0.47814,0.239069 h -1.67142 l -0.23907,0.4772 v 0.477987 l 0.23907,0.239069 0.23907,0.239069 v 0.716672 l 0.23813,0.238132 0.23907,0.239068 v 0.955338 l -0.23907,0.239068 v 0.716063 l 0.23907,0.239069 0.23907,0.4772 0.23813,1.194406 0.23907,0.478138 v 0.954775 l 0.4772,1.194406 0.23907,0.239069 -0.23907,0.716269 v 1.194031 l -0.23907,0.239069 v 0.477377 l 0.23907,0.477201 0.23907,0.239068 v 0.239304 l -0.23907,0.238131 -0.23907,1.194406 -0.23813,0.478138 -0.23907,0.9544 -0.23813,0.477199 -0.23907,0.239069 -0.23907,0.4772 -0.23813,0.478138 v 0.716681 l 0.23813,0.4772 0.47814,0.716269 0.23813,0.71627 0.23907,0.23813 v 0.239303 l -0.23907,0.239069 -0.23813,0.71533 -0.23907,0.71627 -0.23907,0.716269 -0.23813,0.956276 -0.23907,1.432536 -0.23907,1.194406 -0.23907,1.432539 -0.23906,0.716266 -0.23907,0.715333 -0.23813,0.955337 -0.23907,0.477199 -0.23813,1.194409 -0.23907,0.4772 -0.23907,0.4772 -0.23813,0.956273 -0.23907,0.716269 -0.23813,0.716269 -0.23907,0.71627 v 1.672074 l 0.23907,0.239069 3.82041,0.239067 1.19347,0.23907 0.23907,0.9544 0.0394,1.9163 -0.27845,0.949714 -0.23907,3.343211 -0.23906,1.194406 -2.38788,1.194406 -0.71627,0.23907 -0.4772,0.239069 -0.23907,0.239067 -0.23813,0.4772 -0.23907,0.23907 -0.23813,0.4772 v 1.672076 l 0.23813,0.4772 0.23907,0.4772 0.23813,0.478136 v 0.716064 l -0.23813,0.239069 -0.4772,0.239067 -0.23907,0.4772 -0.23907,0.239069 -0.23907,0.238131 -0.23906,0.239069 -0.23907,0.23907 -0.23813,0.4772 -0.23907,0.239069 -0.23907,3.820412 -0.23813,0.23813 -0.23907,0.239069 -0.23813,0.23907 -0.23907,0.239067 -0.23907,0.23907 -0.23907,0.477199 -0.23907,0.4772 -0.23907,0.478139 -0.23813,0.9544 -0.23907,1.193469 -0.23813,1.194406 -0.23907,0.716267 -0.23907,1.194409 -0.23813,1.909736 -0.23907,0.716269 -0.23906,0.4772 -0.23907,1.432536 -0.23907,1.671608 -0.23907,1.193467 -0.23907,0.716269 -0.23907,0.955339 -0.4772,0.7162666 -0.23907,1.194409 -0.23813,0.955336 -0.23907,0.23813 -0.23813,0.71627 -0.23907,0.716269 -0.4772,0.955337 -0.23907,0.238132 -0.23906,1.672543 -0.23814,0.716269 -0.23906,0.9544 -0.23814,1.67160597 -0.23906,0.95439903 -0.23907,1.194409 -0.23813,0.955336 -0.23907,0.955335 -0.23907,1.19441 -0.23907,0.71627 -0.23907,0.9544 -0.23907,0.4772 -0.23907,0.47814 -0.23907,1.1944 -0.23813,1.1934704 -0.23907,0.95628 -0.23906,0.71533 -0.23814,1.1944 -0.23906,0.71627 -0.23814,0.9544 -0.23906,0.95534 -0.23907,1.19441 -0.23907,0.9544 -0.23907,0.95533 -0.23907,1.19441 -0.23813,1.19441 -0.23907,0.71626 -0.23907,0.95534 -0.23813,2.62694 -0.23907,1.19441 -0.23813,1.19441 -0.23907,2.14974 -0.23907,1.19441 v 1.91011 l 0.23907,2.14974 v 0.47739 l -0.23907,0.23907 -0.23907,0.23907 -0.23906,0.23907 -0.71627,0.23907 -0.4772,0.23813 -0.23907,0.23907 -0.23813,0.23907 -0.23907,0.23813 -0.23907,0.23907 -0.23907,0.23907 -0.23907,0.4772 -0.23907,0.23906 -0.23907,0.71534 -0.23906,0.47813 -0.23814,0.71627 -0.23906,0.4772 -0.23814,0.71627 -0.23906,0.71627 -0.23907,1.90974 v 1.67141 l -0.23813,1.43254 -0.23907,1.19441 -0.23907,0.71627 -0.23907,1.43253 v 0.95534 l 0.23907,1.67161 0.23907,2.14974 0.23907,2.14975 0.23813,1.1944 0.23907,0.9544 0.23906,1.19347 0.23814,0.47814 0.23906,0.4772 0.23814,0.71627 0.23906,0.4772 0.23907,0.4772 0.23907,0.23907 0.23907,0.4772 0.23907,0.23907 0.23907,0.23907 0.23907,0.23906 0.23813,0.23907 0.23907,0.23907 0.4772,0.4772 0.23907,0.23813 0.4772,0.23907 0.4772,0.23907 0.47813,0.23813 0.71533,0.23907 0.47814,0.23907 0.4772,0.23907 0.4772,0.23907 0.47814,0.23906 h 1.19403 l 0.23813,-0.23906 h 0.71665 l 0.23906,0.23906 0.23907,0.4772 0.23907,0.23814 0.23907,0.47813 0.4772,0.23814 0.23907,0.23906 0.23813,0.23907 v 1.43338 l -0.23813,1.67067 -0.23907,0.23907 -0.23907,0.71627 -0.23813,0.23813 -0.23907,0.71627 -0.23907,0.71627 -0.23907,0.4772 -0.23906,0.95627 -0.23907,1.19347 -0.23907,0.4772 -0.23907,0.71627 -0.23813,0.95534 -0.23907,0.9544 -0.23907,0.71627 -0.23813,1.1944 -0.23907,0.23907 -0.23813,0.4772 -0.23907,1.43348 -0.23907,2.14974 -0.23907,1.43254 -0.23907,1.1944 -0.23906,1.90974 -0.23814,1.43254 -0.23906,1.91067 v 4.059491 l 0.23906,0.23813 0.23814,0.95627 0.0403,4.06605 -0.27845,0.94877 v 2.62676 l 0.23813,2.62694 0.23907,0.71627 0.4772,0.4772 0.23907,0.47814 0.23907,0.4772 0.23813,0.23907 0.4772,0.4772 0.23907,0.23906 0.4772,0.23907 0.23907,0.23907 0.23907,0.23907 v 1.91077 l -0.23907,3.34321 v 8.5971 l 0.23907,2.86508 0.23907,1.6716 0.23906,2.62695 0.23907,1.90974 0.23907,1.1944 0.23907,2.62695 0.23813,2.86507 0.23907,0.23907 0.23907,1.19441 v 4.77621 l 0.23813,10.26871 0.23907,0.9544 0.23813,1.91068 0.23907,1.43253 0.23907,1.43254 0.23907,0.9544 0.23907,0.95628 0.23906,1.67066 0.23813,0.47815 0.23907,0.95441 0.23814,3.10507 0.23906,1.67161 0.23907,1.43253 0.23813,1.43346 0.23907,1.19348 0.23907,0.95441 0.23907,0.47813 0.23907,0.9544 0.23907,0.71625 0.23907,0.47721 0.23907,0.47815 0.23813,0.71626 0.23907,0.71532 0.23906,0.47816 0.23814,1.19345 0.23906,0.95441 0.23813,0.47813 0.23907,0.71628 0.23907,0.9544 0.23907,0.47721 0.23907,0.71625 0.23907,1.43253 0.23813,0.4772 0.23907,0.47816 0.23813,0.71625 0.23907,0.47721 0.23907,0.4772 0.23813,0.95628 0.23907,1.19346 0.23907,0.71628 0.23907,1.19441 0.23907,0.95533 0.23906,0.9544 0.23814,1.19441 0.23906,0.47813 0.23813,1.90974 0.23907,1.67161 0.23907,0.71625 0.23813,0.71628 0.23907,0.71628 0.23813,0.4772 0.23907,0.47718 0.23907,0.47815 0.23907,0.47721 0.23907,0.4772 0.23907,0.47813 0.23813,0.4772 0.23907,0.4772 0.23907,0.4772 0.23813,0.95534 0.23907,0.4772 0.23813,0.95533 0.23907,3.34322 v 1.19401 l -0.23907,4.77576 -0.23813,1.19348 -0.23907,0.71625 -0.23813,1.19441 -0.23907,0.47721 -0.23907,1.67161 v 4.29818 l 0.23907,1.19346 0.23907,0.95533 0.23813,0.9544 0.23907,0.47816 0.23813,0.47717 0.23907,0.71628 0.23907,0.23908 0.23906,0.47813 0.23907,0.4772 0.23907,0.4772 0.23907,0.71626 0.23907,0.71628 0.23813,0.95533 0.23907,0.4772 0.23907,0.71628 0.23813,0.71625 0.23907,0.95441 0.23907,0.71628 0.23906,2.38786 0.23907,1.91069 v 2.14937 l -0.23907,7.16362 v 5.2536 l 0.23907,2.14881 0.23907,0.95533 0.23907,0.9544 0.23907,0.95629 0.23813,0.95533 0.0403,6.69205 -0.27844,0.94877 v 1.19404 l 0.23813,0.95533 0.0403,2.15538 -0.27844,0.94877 -0.23907,0.23907 -0.23907,2.38787 -0.23907,0.95628 -0.23907,6.44734 -0.23907,0.71628 -0.23907,0.4772 -0.23907,0.47721 -0.23813,3.10507 -0.23907,1.19441 -0.23906,1.67161 -0.23814,2.62694 v 0.95533 l 0.23814,0.9544 0.0403,1.4391 -0.27845,0.94972 -0.23906,1.19346 -0.23907,0.9544 -0.23907,0.71628 -0.23907,0.47813 -0.23907,0.4772 -0.23907,0.23908 -0.23907,0.71626 -0.23813,0.71628 -0.23907,2.38881 -0.4772,0.95438 -0.23907,0.4772 -0.23813,0.23908 -0.23907,0.23908 -0.23907,0.23812 -0.23907,0.47813 -0.23906,0.4772 -0.23907,0.47721 -0.23813,0.4772 -0.23907,0.47813 v 0.95477 l 0.23907,1.19441 0.23813,0.71533 0.23907,0.95628 0.23906,2.14974 0.23907,1.67069 0.23907,0.47813 0.23907,0.23812 0.23813,0.23908 0.23907,0.23812 -0.23907,0.95533 -0.23813,0.23908 -0.23907,0.23813 -0.4772,0.23907 -0.47814,0.47721 -0.23813,0.23905 -0.23907,0.23815 -0.47719,0.23905 -0.23907,0.23908 v 1.91077 l 0.23907,0.23812 0.23906,0.23908 0.23813,1.90973 v 0.95534 l -0.23813,0.71628 -0.23906,0.4772 0.0956,0.90284 -0.8119,0.29061 -0.23813,0.23908 -0.47814,0.4772 -0.23907,0.47721 -0.23907,0.23905 -0.23907,0.23815 -0.23813,0.23905 -0.23907,0.23908 -1.43253,0.23812 -1.67161,0.23908 -1.90974,0.23905 -1.6716,0.23908 -0.23907,0.23908 -0.71627,0.23905 -1.19441,0.23815 -0.71627,0.23905 -0.4772,0.23815 -0.4772,0.23905 -0.47813,0.23908 -0.9544,0.23812 -0.71627,0.23908 -0.4772,0.23908 -0.71627,0.23905 -0.23907,0.23908 -0.71627,0.23908 -0.4772,0.23812 -1.19347,0.23905 -0.71627,0.23815 -1.1944,0.23905 -1.19347,0.23908 -0.71627,0.23813 -0.4772,0.23907 -2.38881,0.23908 -1.90974,0.23905 -1.19441,0.23908 -2.86507,0.23908 -1.19441,0.23812 -0.71533,0.23908 -0.23907,0.23905 -0.71627,0.23813 -0.4772,0.23907 h -0.47738 l -0.23907,0.23908 v 0.71607 l 0.23907,2.14974 0.23906,1.67161 0.23907,1.19348 0.4772,0.23905 h 46.3259 l 0.9544,-0.23905 0.4772,-0.4772 h 2.14937 l 0.4772,0.23905 0.23907,0.23908 0.4772,0.23908 0.23907,0.23905 h 13.37191 l 0.23907,-0.23905 0.23813,-0.71628 0.23907,-0.47813 0.23813,-0.4772 0.23907,-0.47721 0.23907,-0.47813 0.23813,-0.23907 0.23907,-0.47721 0.23813,-0.23907 0.23907,-0.47718 0.23907,-0.47815 0.23813,-0.23813 0.23907,-0.47813 0.23907,-0.23908 0.23813,-0.23907 0.23907,-0.23905 0.23907,-0.23908 0.23813,-0.4772 0.4772,-0.23908 0.23907,-0.47718 0.23906,-0.23907 0.23814,-0.23908 0.23906,-0.23905 0.23907,-0.47816 0.23813,-0.71625 0.23907,-0.4772 v -3.58154 l -0.23907,-1.43253 -0.23813,-0.23908 v -0.23804 h 0.95478 l 0.23907,-1.19441 0.23813,-0.4772 0.23907,-0.71626 0.23907,-0.23812 0.23907,-0.71628 0.23906,-0.71628 0.23907,-0.95626 0.23907,-0.9544 0.23907,-1.19349 0.23813,-1.43346 v -2.86546 l 0.23907,-0.23905 0.23907,-0.23815 0.23813,-0.47718 0.23907,-0.23908 0.23813,-0.23907 0.23907,-0.23813 0.23907,-0.23908 0.4772,-0.23905 v -1.43153 l -0.23907,-0.23905 -0.23907,-0.23907 -0.23907,-2.14974 -0.71627,-0.23813 -0.23813,-0.95628 -0.23907,-0.71626 -0.23907,-1.1944 -0.23813,-2.14977 -0.23907,-0.47718 -0.23906,-1.67068 -0.23907,-0.47813 -0.23907,-0.23813 -0.23907,-0.23907 -0.23907,-0.23908 -0.23907,-0.23905 v -0.7161 l 0.23907,-0.4772 0.23907,-0.23908 0.23907,-0.23905 0.23907,-0.23812 0.23907,-0.23908 0.23906,-0.4772 0.23907,-0.23908 0.23813,-0.4772 0.23907,-0.23905 0.23907,-0.71628 0.23813,-0.71626 0.23907,-0.9544 v -3.34349 l -0.23907,-1.19441 -0.23813,-1.43256 v -5.25348 l -0.23907,-0.47721 -0.23907,-1.19441 -0.23813,-1.67161 -0.23907,-0.95533 -0.23906,-1.19441 -0.23907,-0.9544 -0.23907,-1.67161 -0.23907,-0.95441 -0.23907,-0.71625 -0.23907,-1.43349 -0.23813,-1.43253 -0.23907,-1.19441 -0.23907,-0.95533 -0.23813,-1.67161 -0.23907,-1.19348 -0.23813,-3.5832 -0.23907,-2.62694 -0.23907,-1.19349 -0.23813,-0.71625 -0.23907,-0.95441 -0.23907,-1.1944 v -2.86547 l 0.23907,-2.62694 0.23907,-0.95533 0.23813,-0.95441 0.23907,-0.95533 0.23907,-0.71628 0.23813,-0.47717 0.23907,-0.47721 0.23813,-0.47815 0.23907,-0.4772 0.23907,-0.47718 0.23813,-0.4772 0.23907,-0.71628 0.23907,-0.47813 0.23907,-0.4772 0.23907,-0.95441 0.23907,-0.23908 0.23906,-0.71625 0.23907,-0.71628 0.23813,-1.19441 v -2.14937 l -0.23813,-0.23812 -0.23907,-0.23908 -0.23906,-0.23905 -0.23907,-0.47816 -0.23907,-0.71625 -0.23907,-0.4772 -0.23907,-2.86602 -0.23907,-2.14974 -0.23813,-0.23813 -0.23907,-0.71628 -0.23907,-1.90973 -0.23813,-1.43346 -0.23907,-1.90976 -0.23813,-0.95533 -0.23907,-2.14879 -0.23907,-0.71628 -0.23813,-0.47813 -0.23907,-0.71628 -0.23907,-0.95441 -0.23813,-0.71625 -0.23907,-0.71628 -0.23813,-0.71628 -0.23907,-0.95438 -0.23906,-0.23908 -0.23814,-0.4772 -0.23906,-0.95533 -0.23907,-0.23908 -0.23813,-0.23905 v -2.62686 l 0.23813,-0.4772 0.23907,-0.23908 0.23906,-0.23905 0.4772,-0.4772 0.23907,-0.23908 v -1.43272 l -0.23907,-0.4772 -0.23906,-0.71628 -0.23814,-0.71626 -0.23906,-0.9544 -0.23907,-0.71628 -0.23813,-0.23905 v -0.7161 l 0.23813,-0.71625 0.23907,-0.4772 0.23906,-0.95441 0.23814,-0.47813 0.23906,-0.71628 0.23907,-0.9544 0.23813,-1.43253 0.23907,-1.91067 v -6.44699 l -0.23907,-2.38787 -0.23813,-2.14974 -0.23907,-1.19441 -0.23906,-1.19348 -0.23814,-1.19441 -0.23906,-1.90973 -0.23907,-0.95626 -0.23813,-1.19348 -0.23907,-1.19441 -0.23907,-0.95441 -0.23813,-1.67158 -0.23907,-0.4772 -0.23813,-0.71628 -0.23907,-0.47721 -0.23907,-0.47812 -0.23813,-0.95441 -0.23907,-0.95533 -0.23813,-2.62694 -0.23907,-1.91069 v -0.71607 l 0.23907,-0.4772 0.23813,-1.91069 0.23907,-1.67158 0.23813,-0.95441 0.23907,-0.71628 0.23907,-0.4772 0.23813,-6.20922 0.23907,-0.9544 v -0.47795 l -0.23907,-1.43254 v -0.23869 l 0.23907,-0.71627 v -0.71664 l 0.23813,-0.4772 0.23907,-0.47814 0.23907,-0.9544 0.23813,-1.91068 0.23907,-1.43253 0.23906,-1.43254 0.23814,-3.58135 v -0.4786 l 0.23906,-0.4772 0.23907,-0.4772 0.23813,-0.4772 0.23907,-0.23907 0.23813,-0.71627 0.23907,-0.4772 0.23907,-0.23907 0.23813,-0.23907 0.23907,-0.9544 0.23907,-4.06042 0.23813,-0.4772 0.23907,-0.95533 0.23813,-0.4772 0.23907,-0.23907 0.23907,-0.4772 0.23813,-0.71627 0.23907,-0.71627 0.23907,-0.4772 0.23907,-0.4772 0.23907,-0.71627 0.23907,-0.47814 0.23906,-0.4772 0.23907,-0.71627 0.23813,-0.71626 0.23907,-0.71627 0.23907,-0.71533 0.23813,-0.95628 0.23907,-0.4772 0.23813,-0.47814 0.23907,-0.9544 0.23907,-1.6716 0.23907,-1.67161 0.23907,-2.62694 v -5.01491 l -0.23907,-2.38788 v -0.47739 l 0.23907,-0.4772 0.4772,-0.71627 0.23907,-0.47813 0.23813,-0.71627 0.23907,-0.9544 0.23907,-1.19441 v -5.73099 l -0.23907,-1.67161 -0.23907,-1.67161 -0.23813,-1.909731 -0.23907,-0.95534 -0.23813,-1.19441 -0.23907,-0.95533 -0.0403,-4.54325 0.27938,-0.94877 0.23813,-2.14881 0.23907,-1.90974 0.23813,-2.62694 0.23907,-1.43348 0.23907,-0.95533 0.23813,-0.4772 0.23907,-1.19347 0.23907,-1.19441 0.23906,-0.95534 0.23907,-1.1944 0.23813,-0.95534 0.23907,-0.23907 0.23907,-0.95534 0.23813,-1.1944 0.23907,-0.4772 0.23907,-0.23907 0.23813,-0.71627 0.23907,-0.4772 0.23813,-0.71627 0.23907,-0.71627 0.23907,-0.95627 0.23813,-0.4772 0.23907,-0.71627 0.23907,-0.71627 0.23813,-0.4772 0.23907,-0.4772 0.23907,-0.4772 0.23813,-0.71627 0.23907,-0.47814 0.23813,-0.71626 0.23907,-0.71534 0.23907,-0.47813 0.23813,-0.4772 0.23907,-0.4772 0.23906,-0.71627 0.23907,-0.4772 0.23907,-0.71627 0.23813,-0.71627 0.23907,-0.47814 0.23907,-0.4772 0.23813,-0.71627 0.23907,-0.9544 0.23907,-0.47813 0.23813,-0.4772 0.23907,-0.71627 0.23907,-0.23907 0.23907,-0.71627 0.23906,-0.47814 0.23814,-0.9544 0.23907,-0.23907 0.23813,-0.71627 0.23907,-0.23813 0.23906,-0.47813 0.23814,-0.23814 0.23906,-0.4772 0.23907,-0.47813 0.23907,-0.71627 0.23907,-0.4772 0.23907,-0.71627 0.23813,-0.4772 0.23907,-0.4772 0.23813,-0.47814 0.23907,-0.71627 0.23907,-0.71627 0.23813,-1.19346 0.23907,-1.19441 0.23907,-2.14974 0.23907,-0.71627 0.23906,-0.71533 0.23814,-0.71627 0.23906,-0.47814 0.23907,-0.4772 0.23813,-1.43254 0.23907,-0.9544 0.23907,-0.71627 0.23813,-0.95533 0.23907,-2.14881 0.23813,-2.38881 v -3.58097 l -0.23813,-1.91068 -0.23907,-1.91067 -0.23813,-1.43254 -0.23907,-0.95627 -0.23907,-1.19347 -0.23813,-1.43348 -0.23907,-0.95533 -0.23906,-0.9544 -0.23814,-1.43348 -0.23906,-0.4772 -0.23907,-0.95628 -0.23907,-0.71626 -0.23907,-0.9544004 -0.23813,-1.67161 -0.23907,-0.71627 -0.23907,-2.86507 -0.23813,-0.47814 -0.23907,-0.716271 -0.23813,-0.716269 -0.23907,-1.194406 -0.23907,-0.71626903 -0.23907,-0.956273 -0.23907,-1.90973897 -0.23906,-1.432536 -0.23814,-1.194409 -0.23906,-1.432536 -0.23907,-1.433475 -0.23813,-0.71627 -0.23907,-0.23813 -0.23814,-0.71627 -0.23906,-0.478136 -0.23907,-0.238133 -0.23907,-0.2390666 -0.23907,-0.238133 -0.23813,-0.239067 -0.23907,-0.239069 -0.23907,-0.238131 -0.23813,-0.239069 -0.23907,-0.23907 -0.23907,-0.23813 -0.23813,-0.478139 -0.23907,-0.23813 -0.23907,-0.4772 -0.23906,-0.478137 v -0.477443 l -0.23907,-0.23907 -0.23813,-0.238133 -0.23907,-0.478136 -0.23907,-0.4772 -0.23813,-0.4772 -0.23907,-0.239069 -0.23813,-0.9544 -0.23907,-0.23907 -0.23907,-0.239067 -0.23813,-0.477199 -0.23907,-0.4772 -0.23907,-0.23907 -0.23813,-0.23813 -0.23907,-0.478139 -0.23907,-0.238131 -0.23813,-0.239069 -0.23907,-0.23907 -0.23813,-0.477199 -0.23907,-0.238131 -0.23907,-0.239069 -0.23813,-0.239067 -0.23907,-0.23907 -0.23907,-0.478136 -0.23813,-0.238133 -0.23907,-0.478137 -0.23906,-0.4772 -0.23907,-0.238133 -0.23907,-0.478136 -0.23813,-0.4772 -0.23907,-0.239069 -0.23907,-0.4772 -0.23813,-0.71627 -0.23907,-0.23813 -0.23813,-0.478136 -0.23907,-0.9544 -0.23907,-1.194409 -0.23907,-0.478136 -0.23907,-1.194406 -0.23906,-1.432539 -0.23814,-0.9544 -0.23906,-0.716269 v -0.239302 l 0.23906,-2.387876 0.23814,-0.478136 0.23906,-0.716269 0.23907,-0.955337 0.23907,-0.4772 0.23907,-0.716269 0.23907,-0.71627 0.23813,-0.477199 0.23907,-0.23907 0.23813,-0.239067 0.47814,-0.238133 0.23813,-0.478136 0.23907,-0.4772 0.23907,-0.23907 0.4772,-0.478136 0.4772,-0.238133 0.23906,-0.239067 0.23814,-0.23907 0.23907,-0.23813 0.23906,-0.239069 0.4772,-0.4772 0.23814,-0.23907 0.23906,-0.239069 0.23907,-0.239067 0.23813,-0.23907 0.23907,-0.4772 0.23907,-0.4772 0.23813,-0.478136 0.23907,-0.23907 0.23907,-0.477199 0.23813,-0.47814 0.23907,-0.23813 0.23813,-0.239069 0.23907,-0.4772 0.23907,-0.239067 0.23813,-0.23907 0.23907,-0.239069 0.23907,-0.239067 0.23907,-0.23907 0.23906,-0.478139 0.23814,-0.23813 0.23907,-0.23907 0.23906,-0.239067 0.23814,-0.238133 0.23906,-0.239067 0.23907,-0.239069 0.23813,-0.4772 0.23907,-0.4772 0.4772,-0.716269 0.23907,-0.23907 0.23813,-1.670666 0.23907,-0.71627 0.23813,-0.4772 0.23907,-1.194405 0.23907,-1.432539 v -5.731463 l -0.23907,-0.716269 -0.23907,-1.194406 -0.23813,-0.716269 -0.23907,-0.9544 -0.23813,-1.433475 -0.23907,-0.4772 -0.23907,-0.478137 -0.23906,-0.715331 0.23906,-0.478138 v -0.954775 l -0.47813,-0.239069 -0.23813,-0.716268 -0.23907,-0.238132 -0.23907,-0.716268 -0.23813,-0.478138 -0.23907,-0.4772 -0.23907,-0.4772 -0.23813,-0.4772 -0.23907,-0.716269 -0.4772,-0.478137 -0.4772,-0.716269 -0.23907,-0.238131 -0.4772,-0.239069 -0.23907,-0.4772 -0.23813,-0.955338 h -0.47861 l -0.4772,-0.239068 0.23907,-1.432538 0.23813,-0.716269 0.23907,-0.955337 v -0.716681 h -0.47738 l -0.23907,0.716268 -0.23907,0.716269 -0.23813,0.716269 -0.23907,0.4772 -0.23907,0.239069 -0.23813,-0.4772 -0.23907,-0.4772 -0.23813,-0.716269 v -0.955338 l -0.23906,-0.239068 -0.23907,-0.238132 -0.23813,-0.478138 -0.47814,-0.239068 -0.23813,-0.716269 -0.23907,-0.239069 -0.23907,-0.238131 -0.23907,-0.239069 -0.23906,-0.239069 -0.4772,-0.238131 -0.23907,-0.239069 h -0.71543 l -0.23907,-0.4772 -0.4772,-0.239068 -0.23907,-0.239069 -0.4772,-0.239069 -0.23907,-0.239069 -0.23813,-0.238131 -0.23907,-0.239069 -0.4772,-0.239068 -0.47813,-0.238132 -0.23907,-0.239068 -0.4772,-0.238132 -0.47814,-0.239068 -0.4772,-0.239069 -0.4772,-0.239069 -0.23907,-0.239069 -0.71627,-0.239069 -0.4772,-0.238131 -0.23907,-0.239068 -0.71533,-0.239069 -0.47813,-0.238131 -0.71627,-0.239069 -0.71627,-0.238131 -1.19441,-0.239069 -0.71533,-0.239069 -0.71627,-0.239069 -0.47814,-0.239068 -0.4772,-0.239069 h -0.23925 l -0.9544,0.239069 -0.23907,0.239068 v 0.477378 l 0.47814,0.239069 -0.47814,0.238131 -1.43254,-0.238131 -1.91067,-0.239069 -0.95534,-0.239068 -0.4772,-0.239069 h -0.23926 l -0.9544,0.239069 -1.43253,-0.239069 -0.71627,-0.239069 -0.23907,-0.239069 -0.71627,-0.238131 -0.71627,-0.239069 -0.71627,-0.239068 h -1.19403 v 0.716681 z"
       id="path2" />
  </g>
</svg>
