<?xml version='1.0' encoding='utf-8'?>
<svg xmlns="http://www.w3.org/2000/svg" version="1.1" id="Layer_1" x="0px" y="0px" viewBox="0 0 3172.188 4000" enable-background="new 0 0 3172.188 4000"> <path d="M3166.788,2070.201c4.475-16.62-8.189-23.645-13.48-34.072c-8.437-10.334-6.735-24.568-10.883-36.55 c-7.611-10.958-10.378-8.471-33.554-27.854c-2.597-2.047-4.806-5.689-8.502-5.355c-13.943,1.799-28.027,0.388-42.013,1.121 c-3.469,0.431-6.961,1.314-10.409,0.399c-0.362-7.462,4.719-8.98,0.776-17.865c-0.733-2.037-3.168-2.047-4.817-2.748 c-5.7-1.358-9.935-6.174-15.861-6.853c-12.501-0.103-25.359,8.465-29.04,25.926c-7.393,0.067-35.251-3.744-38.662-4.633 c-0.884-4.881,2.953-8.901,2.532-13.717c-0.474-6.864-1.121-13.911-3.901-20.279c-2.802-0.377-5.506-1.519-8.308-1.261 c-3.33,0.55-6.509,1.767-9.86,2.037c-1.465,0.215-3.297-0.097-3.987,1.519c-2.241,3.858-3.825,8.157-4.569,12.553 c0.345,3.717,4.332,9.105-0.463,11.465c-4.709,0.69-9.504,0.377-14.18-0.172c-1.659-4.741,3.362-8.512,1.713-13.275 c-4.82-13.891-17.283-13.071-23.76-14.148c-4.87-0.776-9.159,1.896-13.178,4.17c-7.055,0.599-2.757,0.59-8.512-20.247 c-4.116-1.703-8.696-0.83-12.823-2.349c-1.67,1.358-3.373,2.694-5.226,3.782c-0.377,4.547-0.183,9.127,0.819,13.609 c3.381,8.805-25.727-3.146-34.212-6.832c-3.513-1.487-6.293-4.245-9.795-5.668c-4.838,3.859-9.652,18.699-15.053,22.057 c-15.028,8.631-12.927,18.449-55.623,12.359c-4.332-0.42-4.515-5.442-5.269-8.696c-2.306-0.356-4.623-0.83-6.918-0.647 c-6.833,4.649,8.562,5.258-82.809-3.383c-2.715-0.56-5.668-0.302-8.146-1.487c-1.368-1.972,0.463-4.666-0.635-6.788 c-2.608-6.185-9.536-10.506-8.696-17.941c33.459-31.778,28.63-38.745,29.104-50.924c0.183-5.075-0.183-10.667-3.675-14.644 c-7.952-7.306-20.096-8.739-30.031-5.107c-6.304,0.991-10.215,6.325-15.215,9.655c-8.987,6.605-19.32,11.228-27.844,18.447 c-1.447,1-33.476,29.321-49.33,37.983c-25.411,16.793-42.886,16.943-43.888,17.133c-3.071-3.127-39.943-4.05-42.972-4.666 c0,0-398.464-28.494-416.187-30.074c-2.198,0.054-3.211-1.8-3.965-3.502c-7.854-1.751,1.292-0.629-18.027-13.243 c-3.179-2.134-7.144-3.34-9.342-6.649c-9.172-12.23-19.363-4.007-28.199-16.001c-2.92-4.278-7.931-6.508-10.549-11.056 c-7.079-6.745-17.381-8.243-25.559-13.232c-4.601-4.03-7.079-10.14-12.241-13.599c-3.103-2.058-6.734-3.135-9.73-5.344 c-5.689-3.75-10.431-9.191-17.251-10.851c-4.935-3.567-8.567-9.008-14.234-11.541c-3.685-0.991-7.392-1.832-11.002-3.006 c-3.783-12.337-3.926-6.691-10.592-14.202c-3.556-4.03-8.674-5.937-13.361-8.221c-6.433-3.954-3.728-13.965-10.172-17.844 c-4.86-4.827-11.788-6.142-17.639-9.299c-3.892-1.367-53.107-54.935-53.823-55.935c-1.067-5.679-4.601-10.366-7.446-15.247 c-4.046-6.794-11.378-1.99-5.301-30.667c-0.069-1.005-3.691-31.4-5.927-37.843c-1.756-5.118-0.959-10.56-1.412-15.829 c-1.174-6.034-2.381-12.047-2.295-18.221c-3.664-10.118-10.818-18.986-11.961-29.934c-2.304-10.76,5.722-36.52-8.491-56.28 c-4.924-4.095-9.795-8.524-12.683-14.332c-0.496-2.532,2.36-4.461,1.692-6.982c-1.228-6.519-2.371-13.081-2.446-19.719 c-0.108-5.582-3.265-10.388-4.31-15.754c-1.584-0.377-3.179-0.69-4.73-1.013c0.625-1.034,1.336-2.004,2.036-2.974 c-5.331-5.391-3.333,0.344-8.318-17.92c4.859-13.227,6.218-7.878,1.078-32.682c-1.358-6.401-7.823-9.256-12.64-12.693 c0.938-6.767-4.084-12.65-3.771-19.396c0.097-3.868-0.452-7.661-1.325-11.4c-0.905-3.254,2.058-5.689,3.179-8.437 c1.595-7.036-0.205-14.417-4.364-20.247c1.864-1.519,4.03-2.618,5.991-4.03c1.422-2.209,0.754-5,0.97-7.468 c-2.899-2.468-7.209-3.868-8.663-7.607c7.687-22.736,25.155-20.201,12.079-61.57c3.511-9.383,11.172-13.169,3.642-36.194 c-1.875-4.859,0.571-9.816,1.207-14.654c1.099-12.747,0.108-25.893-4.687-37.865c-1.81-5.334,1.853-10.398,1.735-15.711 c-0.075-7.209,0.787-14.417-0.032-21.605c-0.582-6.411-3.06-12.715-1.983-19.213c0.938-4.418,3.243-8.362,4.709-12.586 c23.936-63.606-7.443-90.213-13.135-121.557c-0.808-5.528-6.142-8.545-7.931-13.62c-2.036-5.517-7.5-8.329-11.53-12.176 c-2.263-2.327-5.485-3.125-8.135-4.806c-4.174-4.686-4.102-9.755-14.6-29.503c-1.539-3.27-25.736-45.469-33.824-53.532 c-3.911-3.911-3.631-10-3.879-15.129c0.42-3.803-0.808-7.769,0.215-11.454c1.006-0.88,28.11-23.036,30.236-23.814 c57.011-22.34,72.922-33.298,99.489-9.924c20.471,18.691,50.123,60.125,95.103,60.148c26.339-1.405,49.346-12.865,60.838-38.296 c3.917-9.071,23.135-22.586,39.33-22.046c4.72,0.291,9.299-1.153,14.019-1.196c6.196-0.086,12.058-2.424,17.693-4.827 c19.614-9.917,5.511-29.714,4.806-37.347c19.438-4.951,42.164-15.675,51.495-33.576c2.542-13.198,0.177-38.196,5.474-47.272 c14.025-5.826,26.983,6.491,44.545-0.787c25.712-10.344,19.617-11.193,10.722-118.055c18.13-5.195,22.822-7.338,32.013-14.795 c16.668-18.627,11.937-21.782,8.502-30.02c0.09-10.188,13.466-63.529,13.976-64.965c1.347-4.267,4.105-8.071,4.623-12.597 c0.269-3.103,0.883-6.153,1.595-9.17c1.046-4.146,1.356-23.899,2.629-27.574c4.206-12.974,1.814-11.363,11.25-16.4 c1.271,1.368,1.821,3.103,1.293,4.935c0.905,0.356,1.832,0.711,2.802,1.045c0.248-1.843,0.431-3.675,0.55-5.517 c1.724-0.991,3.61-1.508,5.635-1.25c-3.157,11.013-4.03,22.467-6.595,33.609c-0.517,2.133,0.065,4.299,1.272,6.11 c4.299-7.898,10.032-15.021,12.963-23.609c2.704-4.515,4.062-10.765,9.46-12.844c0.69,1.228,1.52,2.424,2.425,3.566 c-7.943,25.443-9.922,22.46-10.625,33.199c1.315-0.431,2.791-0.603,4.03-1.401c2.609-8.204-2.048-4.915,11.917-30.042 c0.873,1.174,1.778,2.338,2.737,3.491c-0.765,4.278-1.864,8.491-2.812,12.726c-1.196,7.09-8.814,11.12-9.353,18.458 c2.877-0.56,3.48-3.653,5.01-5.722c2.285-3.47,5.269-6.605,6.509-10.668c5.652-18.248,4.002-13.364,8.254-16.486 c0.187,6.911-9.204,36.318-9.708,47.39c-7.931,5.431-15.193,11.993-21.109,19.568c2.166-0.571,4.741-0.442,6.584-1.897 c9.288-9.708,19.967-18.027,29.05-27.962c-0.032,2.457,0.108,4.946-0.194,7.403c-6.401,14.18-12.564,28.781-22.607,40.849 c-1.271,1.95-3.61,3.89-2.866,6.454c5.265,9.416,22.864-25.887,27.531-35.613c2.394-5.591,7.203-6.059,10.959-29.902 c0.474-9.461,1.401-18.932,3.329-28.221c0.55-2.575-0.948-5.129-0.355-7.693c0.797-2.608,1.756-5.161,2.64-7.748 c3.286,1.8,6.713,3.653,9.137,6.595c6.151,18.632,0.672,33.014,0.593,38.49c5.926-6.088,7.791-15.506,6.131-23.684 c-1.002-4.838-1.196-9.849-2.672-14.579c-3.2-10.628-12.077-9.813-22.272-31.669c-3.06-5.98-0.507-13.028-3.351-19.105 c-1.681-8.405-7.769-14.611-11.541-22.003c-1.734-3.242-5.137-4.923-7.595-7.498c-7.031-7.367-3.983-13.388-16.781-22.121 c-9.942-6.785-13.689-11.447-17.25-18.346c-3.346-3.352-6.52-13.372-9.672-14.652c-7.964-5.827-13.889-31.204-22.168-31.287 c-4.261-10.542-8.579-10.24-12.968-16.788c-4.388-3-8.846-15.314-13.387-16.449c-4.541-7.058-9.165-10.89-13.885-16.027 c-4.72-5.381-9.535-12.668-14.46-15.519c-5.488-5.724-11.118-9.847-16.895-16.588c-5.776-3.429-11.698-9.261-17.768-15.687 c-9.664-9.755-35.713-25.817-38.213-27.956c-6.671-0.329-13.494-10.97-20.472-11.914c-6.021-7.729-12.172-5.952-18.431-8.584 c-6.258-0.851-12.625-7.439-19.078-6.644c-6.453,0.489-12.994,0.132-19.6-4.874c-6.606-4.892-13.279,3.024-19.995-3.273 c-6.717,2.295-13.479,2.362-20.265-1.84c-6.786,2.605-13.595-6.279-20.407-0.577c-8.256-4.984-16.516,2.698-24.75,1.095 c-8.234,4.798-16.442,4.477-24.594,3.247c-8.152-1.638-16.247,7.508-24.256,5.337c-8.009-1.655-15.932-1.249-23.738,7.364 c-7.806,3.569-15.495,4.898-23.038,9.329c-7.542,7.813-14.938,10.842-22.157,11.231c-7.219,4.827-14.261,10.364-21.096,13.07 c-6.835,3.455-13.463,10.668-19.853,14.848c-6.39,2.785-12.543,9.537-18.429,16.562c-5.886,2.168-11.504,6.494-16.824,18.214 c-5.321,6.799-10.343,8.873-15.038,19.803c-10.283,11.983-3.92,4.539-25.753,38.901c-4.152,4.082-8.213,10.852-12.152,19.908 c-8.936,19.155-9.613,13.941-21.567,41.495c-9.251,21.325-16.222,43.122-24.666,65.02c-37.644,75.369,0.211,52.102-48.64,115.07 c-13.396,13.841-26.375,37.002-48.101,44.739c-7.854-7.614-21.901-1.007-25.29-1.864c-6.2-1.009-33.142,0.231-42.509-3.944 c-8.984-4.304-12.564-11.215-32.854-17.779c-4.45-0.851-9.019,0.064-13.491-0.517c-5.258-1.002-9.892-3.803-14.913-5.506 c-10.078-3.352-52.186-3.344-69.081-8.545c-10.398-3.082-18.835-10.301-28.835-14.288c-8.89-3.491-17.639-7.704-25.074-13.782 c0,0-62.054-32.724-62.055-32.725c-7.155-1.95-14.676-1.411-21.917-2.898c-15.592-1.767-30.817-6.81-46.647-6.174 c-34.503-3.151-48.427,3.988-62.411,5.549c-10.238,1.972-26.232,3.105-54.48,17.672c-23.59,13.382-41.019,7.113-67.023,27.768 c-13.963,12.066-29.941,8.895-60.698,27.574c-1,0.58-35.157,21.549-44.556,28.759c-2.349,1.993-5.625,1.648-8.437,2.371 c-7.661,0.98-13.598,6.314-20.01,10.118c-24.775,16.411-48.316,13.744-64.436,23.932c-22.146,18.851-31.115,16.424-45.386,31.152 c-4.838,4.935-11.562,7.704-15.732,13.329c-2.532,3.233-6.573,4.892-8.836,8.351c-4.006,5.404-1.176,18.413-2.133,21.572 c-1.293,5.118-0.776,10.7,2.942,14.719c-4.009,4.047-69.922,46.972-76.86,53.661c-8.686,7.761-185.859,142.927-202.254,160.865 c-1.001,0.939-27.873,24.189-31.863,28.522c-0.936,1.001-27.9,28.802-32.1,31.432c-29.543,19.488-46.905,45.713-60.148,66.031 c-3.456,5.434-14.578,16.207-24.568,38.91c-18.099,45.312,8.666,61.921,25.161,109.219 c-19.483,13.88-105.163,124.207-152.805,333.228c-1.204,5.62-7.238,3.969-9.73,30.182c-2.04,6.719-13.996,7.393-12.629,21.755 c0.409,5.905-2.985,11.131-3.545,16.928c-2.065,17.17-15.163,32.567-19.88,45.774c-0.388,6.616-1.735,14.04,2.241,19.924 c14.977,21.184-4.73,42.423,9.202,69.479c0.388,2.661,0.097,5.377,0,8.082c-6.244,3.456-4.449,10.032-5.301,29.255 c4.138,3.383,8.976,5.625,13.695,8.06c2.597,1.11,4.526,4.267,7.661,3.588c6.766-0.316,3.569-0.588,9.87,18.749 c3.677,13.619,14.232,49.244,14.073,53.791c-2.164,61.25,19.959,114.959,57.357,158.225c35.264,41,44.502,34.969,42.39,43.974 c-3.33,0.377-6.541-1.53-9.827-0.377c-2.608,0.765-5.851,0.323-7.984,2.112c-0.625,3.966,0.172,8.62,3.717,11.034 c4.364,3.944,10.247-1.164,15.204,1.121c3.674,1.595,7.64,2.317,11.454,3.524c2.683,2.231,1.843,6.401,3.825,9.148 c2.489,4.342,7.575,6.002,10.7,9.752c1.972,2.759,3.427,5.851,5.226,8.728c12.25,23.197,25.528-51.935-64.835,330.879 c-1.875,3.341,3.459,6.282,0.862,9.321c-54.83,51.776-79.764,151.553-35.666,231.19c12.349,22.302,25.213,38.332,47.419,50.987 c62.297,35.5,134.573,31.521,184.66,7.703c11.516-5.476,20.52-16.368,30.247-24.343c3.211-2.532,4.989-6.853,9.094-8.125 c10.206-3.641,7.916,2.797,23.307-19.837c7.252-8.868,15.14-17.155,22.424-25.99c2.944-2.753,24.772-34.036,30.979-46.776 c3.664-6.929,5.83-14.525,9.644-21.378c3.297-8.458,9.773-15.085,13.501-23.296c9.33-19.386,7.9-24.285,16.551-19.988 c179.251,102.094,372.536,27.551,374.702,28.113c3.664,2.209,3.858,7.5,7.629,9.687c30.139,20.281,19.461,15.23,26.906,22.628 c3.276,3.265,5.452,8.233,10.474,9.073c7.219,2.909,15.225,2.683,22.51,5.323c2.899,0.787,2.424,4.213,3.254,6.498 c4.537,7.036,9.148,14.051,13.167,21.421c3.103,5.625,8.933,8.987,12.424,14.321c2.091,3.286,4.687,6.282,7.726,8.76 c5.398,1.153,11.314-0.851,16.454,1.627c7.493,3.777-1.592,18.69-3.028,25.419c1.67,6.907,3.771,13.9,3.06,21.109 c-2.92,0.431-5.851,0.593-8.782,0.679c-0.991,4.817-2.586,9.482-3.319,14.385c-2.198,2.177-5.334,0.27-7.963,0.517 c-10.302,0.19-1.854,6.355-16.346,22.844c0.698,14.681,6.753,17.72-12.068,37.089c-7.937,8.297-8.428,20.443-25.107,40.666 c-8.586,10.549-32.41,60.687-31.917,59.685c-12.607,25.604-26.817,41.36-33.544,59.178c-13.821,23.631-11.126,24.536-15.861,35.602 c-1.713,4.612-4.149,9.052-4.526,14.062c-1.297,16.244-17.27,59.133-18.081,70.32c-3.749,31.659-10.385,42.115-13.264,68.887 c-2.145,10.107-3.049,20.462-5.873,30.44c-4.741,15.592-6.185,32.035-5.452,48.274c0.475,4.706,3.26,9.185,1.715,14.041 c-0.876,0.316-1.238,0.447-2.115,0.764c-1.325-0.84-2.596-1.723-3.878-2.542c-2.252,4.008-4.881,7.812-7.683,11.487 c-3.513,4.461-4.429,10.344-7.758,14.935c-2.435,3.254-2.672,7.457-3.825,11.26c-3.071,8.62-0.097,17.736-0.496,26.604 c1.466,5.894,0.83,12.09,2.672,17.919c1.293,4.633,1.153,9.698-0.323,14.31c-1.711,5.047-6.509,30.08-8.944,36.313 c-8.553,23.824-6.231,51.136-25.096,62.195c-2.748,1.11-7.069,0.14-8.211,3.653c-2.646,6.162-7.827,28.725-9.978,33.199 c-0.512,1.011-12.206,31.789-11.702,40.386c0.762,23.524-7.934,24.352-10.635,28.716c-3.383,5.366-5.226,11.497-7.564,17.37 c-0.758,1.803-14.458,26.292-16.626,34.05c-2.5,7.586-7.78,14.148-8.803,22.24c-0.507,8.092-0.431,16.378-2.899,24.212 c-1.196,2.898-4.245,4.515-5.635,7.295c-1.088,5.474-1.799,11.142-1.196,16.756c1.11,2.392,4.364,3.707,4.17,6.702 c0.841,7.295-5.937,12.273-6.605,19.255c-2.155,8.524,0.873,17.801-2.92,26.012c-1.907,4.224-2.834,8.965-5.657,12.769 c-2.866,3.664-4.72,8.06-8.006,11.422c-6.304,6.939-15.689,9.504-23.404,14.267c-1.325,4.752-3.717,9.062-5.959,13.437 c-0.647,4.741,0.108,9.612-0.733,14.385c-0.905,10.258-4.062,20.279-3.847,30.656c-0.323,3.47,3.254,5.01,5.603,6.756 c0.227,4.623-3.523,7.812-5.678,11.53c-1.875,2.78-1.886,6.347-3.707,9.181c-2.952,4.439-4.041,9.762-5.862,14.73 c-0.884,2.36,2.09,3.987,1.972,6.314c-0.334,4.903-0.701,9.827-1.207,14.751c-0.291,3.599-3.588,5.743-5.388,8.644 c-5.762,6.994-21.815,10.481-30.312,17c-54.965,42.172-55.02,111.77-55.311,175.543c-0.164,36.022,28.992,65.311,65.014,65.302 c389.535-0.099,779.538-0.014,1166.846-0.029c37.631-0.001,114.471,20.662,110.434-55.518c-3.311-62.634-1.786-53.101-86.962-68.75 c-28.318-5.409-56.635-10.872-84.932-16.346c-4.795-0.776-6.088-6.53-10.581-7.715c-23.04-6.369-33.822-2.867-46.216-20.419 c-4.256-9.051-6.067-20.236-14.751-26.357c-8.469-7.469-33.211-22.185-34.212-22.876c-5.97-4.256-6.864-12.241-12.025-17.122 c-1.864-1.423-1.261-3.987-1.078-5.916c4.725-6.723,24.049,12.078,37.326,12.866c1.524-6.427,10.937-18.569,8.653-29.061 c-2.328-3.287-5.625-5.905-9.612-6.681c-5.118-1.035-8.89-4.752-13.297-7.198c-4.687-1.131-9.396-2.144-14.105-3.125 c-6.271-1.476-12.844,0.377-19.029-1.466c-30.559-8.339-39.415,0.131-69.372-12.467c-2.435-0.916-1.207-3.966-1.616-5.862 c2.468-2.295,5.819-2.252,8.987-2.219c0.294-6.072-1.814-17.184-5.334-20.894c-3.287-3.524-2.371-8.857-2.015-13.189 c11.63-13.83,29.469-11.78,41.011,3.254c0,0,24.089,27.438,28.21,32.175c1.832,2.295,5.043,2.155,7.672,2.931 c2.888-2.802,5.722-5.657,8.383-8.653c-1.563-5.766-5.671-18.285-10.7-21.238c-6.239-3.2-10.226-9.181-15.743-13.297 c-3.491-4.526-8.728-7.047-12.704-11.023c-2.5-2.479-6.11-3.125-8.879-5.151c-9.332-6.853-22.036-8.254-32.973-4.967 c-6.023,1.648-9.008,8.534-15.42,9.299c-2.177-0.83-4.677-2.036-5.28-4.461c-22.486-87.189-19.639-71.646-26.346-81.429 c-2.856-4.396-8.038-6.271-11.293-10.269c-4.159-5.496-14.159-4.407-15.991-11.875c-5.257-57.777-2.76-41.979,0.463-51.84 c3.556-0.41,7.306-0.356,10.528-2.145c4.235-2.263,9.558-2.758,12.801-6.627c3.556-3.718,4.515-8.987,7.392-13.135 c2.629-4.127,5.679-8.329,5.948-13.383c1.186-28.537-4.676-24.613-10.657-29.988c-17.792-16.056-9.239-15.595-26.529-18.846 c-2.536-4.237-13.444,41.102,181.511-670.142c1.763-7.94,11.354-4.627,16.486-24.46c1.976-13.506-7.509-15.491,8.157-55.278 c16.869-41.802,28.022-15.239,36.744-81.947c13.686-16.99,38.52-77.748,40.537-118.152c4.474-44.208-8.175-72.037-31.162-97.431 c-4.309-5.003-100.11-109.829-102.883-111.601c-8.601-5.768-24.07-33.325-41.658-49.89c-4.569-4.795-10.161-8.491-14.46-13.544 c-29.896-34.79-27.466-64.001-26.313-91.03c4.763-0.69,9.644-1.832,13.588-4.741c20.083-15.164,120.406-20.84,152.838-14.816 c5.959-2.101,10.42-8.415,17.208-7.984c6.056-0.248,12.176-0.42,18.167-1.271c37.382-22.406,1.996-5.909,84.457-33.048 c18.041-5.869,66.164-10.291,80.136-8.114c74.541,41.539,277.655,151.781,361.395,169.55c4.472-1.519,7.553-5.452,11.691-7.629 c22.728-13.223,42.569-45.335,52.034-38.673c8.297,5.183,20.182,6.928,28.21,0.323c14.453-2.376,49.83,8.382,95.114,14.288 c12.78,2.26,5.986-5.938,80.858,19.374c5.829,1.756,8.814,9.062,15.57,8.416c8.025,1.657,25.482-7.157,32.25-7.618 c1.983-0.28,2.996,1.735,4.332,2.877c4.483,5.205,12.111,4.677,18.361,4.418c12.187-0.588,17.805-7.789,50.569-20.408 c6.508-2.037,13.157-3.718,19.385-6.552c4.483-2.306,9.773-1.853,14.256-4.202c15.71-7.295,33.339-10.301,47.929-19.956 c2.694-1.325,2.813-4.612,3.804-7.069c4.128-18.071,10.67-30.759,24.212-65.223c4.762-11.393,7.808-7.734,21.033-9.827 c12.974-0.819,25.71,2.985,38.684,3.114c27.43-0.902,63.568,24.241,81.386,43.22c6.424,6.345,10.724,26.603,17.747,40.289 c3.287-0.463,6.562-1.002,9.859-1.584c3.578-0.646,7.371,0.065,10.862-1.271c8.855-3.7,26.354,1.172,31.001,1.196 c1.864-0.011,3.998,0.42,4.558,2.554c9.308,21.286,2.001,22.644,1.853,29.46c1.412,7.586,4.375,14.762,6.961,22.014 c1.724,4.504,0.938,9.719,3.76,13.868c4.483-0.302,8.922-1.088,13.415-1.53c-0.355-5.711-2.047-11.228-4.062-16.529 c-2.338-6.584,2.263-13.049,1.304-19.644c-1.983-3.825-5.571-6.928-5.635-11.551c-0.248-6.217-2.263-12.661-0.42-18.738 c5.7-0.625,11.142,1.509,16.713,2.392c24.554,5.871,11.115,7.821,28.339,5.053c3.922-0.571,7.866-2.791,11.875-1.304 c1.465,0.485,3.717,0.55,3.954,2.586c4.837,21.995,3.864,23.195,2.08,24.363c-2.371,0.226-4.644-0.539-6.939-0.668 c-2.5,0.722-3.233,3.373-4.396,5.366c-9.747,17.785-7.693,25.14,13.038,36.184c11.357,6.445,24.259-5.224,27.951-7.112 c4.946-2.457,7.855-7.381,11.444-11.368c1.196-6.196,1.002-12.758-1.067-18.749c-2.863-2.352-15.803-2.465-19.288-1.896 c-2.22,0.507-3.901-1.864-3.707-3.858c-0.246-13.448-4.162-22.138,1.757-23.242c8.566,1.078,16.077,6.034,24.622,7.349 c4.364,0.679,6.691,5.442,11.174,6.056c5.107,1.767,9.461-2.726,14.471-2.586c3.179,1.4,6.67,3.61,7.478,7.284 c5.847,24.542,1.969,15.993-2.209,23.274c-4.957-0.485-9.396,2.037-12.629,5.582c-8.074,18.365-1.103,17.24,2.489,23.415 c2.489,4.407,8.006,4.429,12.144,6.422c22.742,11.575,54.817-18.463,35.386-33.425c-3.901-2.92-8.524-4.612-12.92-6.53 c-1.379-5.334-2.532-10.829-2.123-16.346c1.799-0.216,3.75-0.755,5.538,0.118c6.298,2.66,43.096,14.564,45.655,14.773 c17.82-10.169,20.524-8.298,21.82-13.167c2.149-6.708,19.675-9.664,24.04-12.381c2.144-8.642-0.894-18.06,2.705-26.529 c2.123-11.088,10.603-19.891,11.53-31.292C3172.927,2091.209,3163.109,2085.5,3166.788,2070.201z M2197.135,354.246 c-0.14,6.121,2.144,12.596-0.927,18.35c-3.017,5.064-6.756,9.913-11.702,13.211c0.061-10.567,5.117-29.961,10.614-39.158 C2196.423,348.977,2197.296,351.541,2197.135,354.246z M214.694,1997.09c12.937,8.016,24.719,155.26,17.424,194.474 c-1.291,37.68-19.912,98.017-24.428,82.399c-1.218-3.653-5.926-5.043-5.926-9.245c0.972-10.69,4.032-6.035,4.289-26.906 c-14.405-0.083-16.593,3.492-19.191-0.237C186.35,2234.408,199.133,2010.078,214.694,1997.09z M169.718,2135.823 c0.452-2.759,4.763-3.621,6.142-1.164c0.779,3.15-3.276,100.499-3.276,104.295c14.324,6.728,23.219-2.21-24.051,37.304 c-2.338,1.616-4.493,4.73-7.683,4.213C134.436,2272.866,134.915,2287.823,169.718,2135.823z M426.797,2396.037 c-9.142,11.326-32.769,44.827-37.585,60.547c-1.745,6.832-6.594,12.209-9.385,18.588c-5.549,11.583-17.294,19.697-20.139,32.66 c-5.154,28.185-16.969,23.825-24.363,39.319c-0.127,4.189,6.243,2.994,4.127,12.456c-4.957,5.754-11.972,9.138-18.253,13.211 c-62.907,34.032-119.153,37.499-183.02-5.291c-67-43.206-61.693-88.358-62.54-110.954c0.964-37.578,18.574-76.928,23.253-90.966 c0.593-4.353,2.058-8.448,4.041-12.327c1.929-0.043,3.868-0.043,5.797,0.022c4.517,10.527-0.224,2.234,2.953,40.354 c2.284,6.95,1.972,14.364,1.498,21.583c-2.231,3.782-6.842,4.03-10.668,4.957c0.765,4.3,3.233,10.474-1.25,13.469 c-2.64,1.584-6.185,2.543-6.939,6.034c-0.463,3.577-1.261,7.984,1.228,11.034c3.577,2.705,7.791,4.719,12.284,5.237 c6.023-2.252,8.426-8.792,11.594-13.835c2.295-3.287,1.347-7.5,1.756-11.228c4.687-1.875,9.493-0.054,13.879,1.724 c1.84,5.199,5.576,8.044,9.795,2.597c9.515-24.632,7.662-19.194,8.674-28.027c0.39-1.568,12.968-33.812,6.756-49.157 c-0.927-4.17-1.444-9.137,1.39-12.693c3.418-4.714,21.368-37.67,27.402-46.905c2.845-4.698,8.804-3.383,13.265-5.151 c60.537-22.233,44.541-125.313,47.347-141.028c2.565-0.496,5.086-1.487,7.726-1.379c2.967,2.206,6.447,16.468,6.745,20.139 c0.361,7.464,41.765,141.548,159.195,209.387c3.901,2.597,9.277,1.444,12.973,4.385 C438.348,2390.778,431.236,2394.076,426.797,2396.037z M1132.001,3149.784c-2.64,4.041-3.718,8.868-6.4,12.909 c-3.05,4.806-3.685,10.57-5.808,15.786c-2.586,6.552-0.604,13.749-2.144,20.527c-1.713,6.702-0.916,13.641-1.034,20.495 c0.043,5.291-2.187,10.247-2.791,15.473c-1.369,12.252-6.584,23.587-9.956,35.354c-11.587,35.4-10.341,26.653-16.4,37.455 c-12.717,21.417-13.873,25.43-13.965,31.292c0.284,3.94-12.323,26.813-5.991,50.148c6.63,17.345,7.65,13.031,21.648,13.911 c3.099,15.388-9.829,1.836-12.478,32.93c0.463,9.256,6.196,16.928,11.379,24.191c1.756,11.476,1.907,23.221,1.444,34.869 c-0.742,2.291-10.373,20.972-14.892,24.029c-5.754,4.224-11.368,8.664-16.669,13.459c-11.124,3.091-14.443-1.572-18.922,10.247 c0.237,5.668,5.108,9.504,6.767,14.687c0.636,2.306,3.523,3.9,2.769,6.562c-1.196,4.946-0.108,10.581-3.621,14.773 c-3.578,4.73-4.978,11.217-10.366,14.417c-7.758,4.712,1.997,17.061-3.815,30.635c-2.769,7.392-2.241,15.376-3.039,23.092 c6.131,5.303-1.411,16.42,7.489,20.462c-0.205,5.797,1.336,11.562,0.668,17.359c-4.515,0.496-8.89-1.239-12.661-3.513 c-5.528-6.034-14.407-5.916-21.928-6.885c-3.136,0.269-10.097,2.748-10.334,3.319c-2.801,0.506-5.097,2.263-6.347,4.827 c-1.929-0.021-3.836-0.043-5.743,0.021c-0.366-5.593,0.69-11.077,1.476-16.551c0.496-0.194,2.424-16.756,0.883-24.611 c-0.776-4.719-0.086-9.547-1.045-14.213c-1.325-7.069-3.2-14.008-4.569-21.044c-0.172-4.612-0.7-9.277-2.726-13.458 c-4.44-3.2-7.295-8.297-12.607-10.247c-2.478-3.017,0.894-6.778,2.306-9.579c3.707-4.041,9.094-6.034,13.652-8.944 c6.077-7.317,10.528-16.163,12.068-25.592c-1.476-4.924-2.446-10.053-4.569-14.73c-2.478-5.571-8.868-8.179-10.818-14.051 c-2.715-5.161-5.129-12.683-0.506-17.402c3.427-0.119,7.166,0.355,10.237-1.541c3.491-2.155,7.618-3.718,10.075-7.155 c1.843-2.511,4.181-4.773,5.161-7.78c0.754-4.095-0.334-8.297,0.582-12.338c2.288-12.959,8.554-17.527,4.903-44.535 c-0.528-8.976-5.28-16.81-8.394-25.02c-1.455-5.539,2.004-10.323,3.89-15.204c18.917-41.074,35.744-82.174,41.119-90.254 c16.638-29.456,11.922-43.454,40.149-83.789c6.196-11.012,11.034-22.704,16.723-33.975c4.782-9.223,6.266-32.561,14.935-44.276 c17.351-32.691,23.113-49.103,23.113-49.103c2.306-4.062,0.668-9.008,3.006-13.081c1.552-3.017,2.015-8.89,6.638-7.995 c2.069,0.582,1.875,2.996,2.327,4.72c4.047,25.226-1.522,8.48,2.101,38.996C1146.493,3124.721,1146.428,3128.975,1132.001,3149.784z M1436.491,1612.862c-8.367-3.789-31.983-4.995-40.806-5.431c-7.37-0.463-14.676,1.832-22.025,0.539 c-5.317-0.991-23.001-0.628-30.57,7.252c-1.379,1.326-40.02,7.888-57.778,15.581c-2.875,1.547-27.799,12.375-27.531,10.947 c-41.501,17.224-61.517,23.878-61.517,23.878c-31.028-4.415-28.946,0.434-41.097,5.377c-11.702-1.164-23.771-1.454-34.88-5.808 c-6.605-8.836-15.84-16.573-27.089-18.232c-13.806-3.665-13.465,1.583-39.449-19.827c-38.166-29.697-73.649-62.971-114.456-89.177 c-3.448-2.661-8.028-4.192-10.323-8.071c20.548-18.787,73.363-36.106,104.392-57.336c8.976-4.073,18.846-6.261,27.219-11.637 c27.762-16.065,23.199-16.731,30.753-28.566c3.793-4.881,9.752-7.37,13.857-11.939c5.118-5.647,10.764-10.743,16.184-16.077 c10.306-4.014,26.191,0.549,43.479-24.395c5.901-7.294,28.755,2.437,47.271-29.244c3.513-4.59,9.547-5.722,14.493-8.135 c8.545-3.599,15.635-9.763,23.727-14.127c10.339-2.082,19.197,10.768,31.917-11.088c1.886-3.857,6.444-4.666,10.107-6.034 c14.177-4.604,19.27-17.327,60.105-30.538c6.275,19.366,35.745,134.036,61.57,178.02c9.175,19.887,13.094,17.771,18.383,40.828 c13.649,38.879,31.411,98.601,34.233,103.681c1.271,2.209,0.905,4.816,1.078,7.273 C1453.716,1607.683,1449.212,1607.169,1436.491,1612.862z"/> </svg>