<?xml version="1.0" encoding="utf-8"?>
<svg version="1.1" id="Layer_1" xmlns="http://www.w3.org/2000/svg" xmlns:xlink="http://www.w3.org/1999/xlink" x="0px" y="0px"
	 viewBox="0 0 2602.888 1250.641" enable-background="new 0 0 2602.888 1250.641" xml:space="preserve">
<path d="M1281.556,19.382c1.415-0.591,2.974-1.128,4.48-0.455c8.242,1.87,9.329,13.375,9.478,13.835
	c1.182,0.541,2.438-0.346,3.679-0.114c7.319,1.259,6.776,2.802,11.966,5.79c1.483,0.864,3.202,1.255,4.68,2.16
	c0.341,0.587,0.255,1.319,0.409,1.974c0.523,0.009,1.064,0.018,1.624,0.023c0.582-0.914,0.828-2.324,2.056-2.606
	c5.823-1.346,10.428-4.291,18.665,4.271c1.469-1.451,2.561-3.379,4.503-4.284c1.696-0.828,3.575-1.906,5.535-1.296
	c2.179,0.273,4.289,1.273,5.531,3.152c1.712,3.116,6.917,0.445,9.042,7.755c0.791,2.902,0,5.903,0.268,8.851
	c0.123,1.46,1.05,2.665,1.705,3.93c-1.237,0.323-1.069,2.088-0.173,2.711c3.652,2.788,5.681,7.054,7.532,11.138
	c0.932,1.787,0.282,3.848-0.005,5.712c0.591,0.209,1.392,0.105,1.897,0.587c2.679,2.92,4.161,6.886,7.5,9.201
	c-0.546,1.614-0.571,0.883,6.317,9.728c2.224,3.72,3.593,7.882,4.862,11.998c0.168,0.359,0.414,0.673,0.741,0.941
	c-0.941,2.92,0.132,6.035,0.705,8.937c4.507-0.014,9.219,4.061,8.373,8.819c-0.364,1.414,0.173,2.77,0.45,4.139
	c-0.018,1.101-0.478,2.138-0.796,3.175c1.605,2.279,1.16,5.339-0.337,7.55c1.078,1.933,1.396,4.489,0.182,6.44
	c-3.059,5.94,2.857,4.643-2.902,13.822c0.887,2.383,1.187,5.135,0.086,7.5c-1.128,2.52-1.96,5.167-3.379,7.545
	c-0.305,1.76,0.223,3.502,0.464,5.235c8.632,1.228,12.084,7.653,11.766,16.064c-1.087,8.641-1.351,17.569-4.716,25.733
	c-7.404,20.042-10.881,21.026-14.09,28.189c-4.181,8.119-9.152,10.618-15.132,3.766c-1.478,1.674-1.369,4.025-1.865,6.081
	c-0.871,7.6-6.862,24.045-10.142,30.349c-1.06,1.61,0.391,3.329,0.427,5.017c0.109,2.41-1.237,4.712-0.746,7.127
	c0.609,3.252,0.723,6.708-0.427,9.86c-0.764,1.851,0.337,3.734,0.464,5.603c0.487,1.969-0.068,4.102,0.837,5.981
	c0.969,2.306,1.419,4.839,1.21,7.336c-0.246,1.619,0.682,3.061,0.955,4.616c1.184,5.953-1.036,7.067,0.609,8.887
	c83.081,23.795,139.094,83.741,150.242,129.025c12.309,49.965,1.802,71.579-20.812,161.249
	c-4.969,34.371-13.642,39.025-30.836,125.61c-7.244,37.227-14.936,63.451-9.092,66.825c32.138-9.993,66.774-10.54,102.237-12.83
	c3.631-0.727,34.948-3.131,50.088,5.094c1.885,1.065,14.149,2.586,14.604,2.633c4.967,0.432,9.669,2.206,14.518,3.27
	c7.049,1.846,5.571,0.212,25.096,5.799c11.37,3.339,4.078,5.552,36.699,7.391c33.516,0.094,41.82-3.985,57.474,2.133
	c2.756,1.442,6.044,2.192,8.132,4.662c0.741,0.891,2.069,0.337,3.102,0.491c2.084-0.175,14.031,1.889,17.879,3.507
	c3.648,1.706,7.354,3.302,11.093,4.807c3.693,1.969,7.081,4.744,11.302,5.567c45.372,9.324,38.258,9.498,66.198,3.875
	c4.694-0.869,9.492-0.773,14.172-1.747c7.55-1.018,16.485-3.351,28.494-2.219c2.592,0.573,5.289,0.023,7.895,0.605
	c3.159,0.589,14.04-0.918,15.809-0.791c12.154-2.347,63.208,0.519,63.664,0.5c0.68-0.004,90.817-0.604,94.237-1.228
	c1.943-0.404,12.705,1.185,17.887,0.496c2.688-0.35,5.435,0.064,8.118-0.455c2.351-0.382,4.748-0.091,7.132-0.205
	c1.651-0.014,3.279-0.45,4.953-0.437c0.457-0.007,11.414-0.081,13.626-0.373c4.389,0.951,8.819-0.305,13.244-0.096
	c2.119-0.036,4.207,0.509,6.344,0.469c0,0,42.853-0.024,50.957,0.036c10.948,1.263,33.121,1.175,56.583-1.997
	c-1.163-2.012-8.236-2.826-7.463-9.319c2.545-8.59,18.812-4.383,26.288-6.526c0.705-0.314,1.355,0.082,1.988,0.45
	c4.708-1.555,9.46-3.206,14.431-3.666c2.332-0.3,8.625-6.924,26.411-1.269c1.428,0.35,2.956,0.878,4.452,0.446
	c10.43-3.085,17.349,1.079,21.031,0.564c3.616-0.114,7.295-0.377,10.884,0.346c2.447,0.409,4.948,1.396,7.45,0.619
	c6.519-1.806,19.991,1.421,23.459,1.101c4.275-1.219,8.741-1.451,13.167-1.596c4.219,0.856,15.507-1.495,24.442-0.364
	c4.254,1.341,6.592-3.272,24.223-8.455c3.575-1.046,7.209-2.065,10.957-2.265c4.128-0.441,19.273-4.101,27.771-2.724
	c25.005,0.226,27.446,6.594,34.461,13.353c2.224,1.978,3.074,5.021,5.189,7.09c2.229,1.587,4.994,2.115,7.582,2.906
	c19.754,6.719,14.748,12.296,19.275,18.875c7.858,12.353,9.414,15.795,8.191,22.959c-0.273,1.742,0.346,3.925-1.387,5.08
	c-1.274,22.779-26.832,43.88-44.358,56.988c-36.284,25.277-91.534,30.678-125.737,50.261c-16.981,9.119-24.684,20.982-68.949,41.561
	c0,0-0.209-0.036-26.129,12.58c-11.413,6.38-26.286,7.627-37.872,5.449c-17.749-4.09-15.927-8.199-24.023-25.156
	c-0.393-0.789-6.875-14.884-6.881-14.895c-1.428-2.36-1.183-5.367,0.123-7.718c0.95-1.501-0.068-3.125-0.609-4.557
	c-3.143-6.995-5.771-14.308-6.74-21.945c-0.246-2.661-2.124-4.939-1.837-7.682c0.264-2.151-1.328-3.784-2.124-5.622
	c-1.535-3.9-20.642-1.963-27.443-2.106c0,0-7.781-0.534-40.019-0.837c-61.075-1.552-165.559,50.929-225.231,50.266
	c-36.049-0.993-76.869-7.75-121.944-22.922c-47.043-15.122-41.126-7.714-54.464-8.291c-11.575,0.491-23.018-1.574-34.557-1.906
	c-21.494-2.348-103.488,10.401-103.747,10.879c-7.318,13.174-14.688,23.857-27.816,31.323c-10.501,5.141-12.614,1.999-45.663,8
	c-29.591,5.381-43.383,16.354-103.82,23.923c-1.833,0.059-3.652,0.173-5.43,0.578c0.029,0.456-1.16,26.617-5.153,40.328
	c-3.753,13.088-11.375,19.17-16.605,20.207c-4.016,1-7.964,2.247-11.984,3.206c0.133,5.001,3.818,9.701,2.056,22.354
	c-1.545,7.46-2.521,7.18-4.78,9.778c1.046,1.51,2.024,3.343,3.939,3.884c18.899,6.239,6.098,1.289,52.717,9.16
	c4.278,1.572,20.877,1.36,27.703,5.012c2.47,1.055,4.494,2.893,6.949,3.98c8.278,3.502,17.41,3.652,26.052,5.785
	c3.311,0.8,6.135,2.824,9.378,3.839c3.998,1.883,8.573,1.046,12.757,2.206c1.91,0.437,3.743,1.21,5.681,1.583
	c3.138,0.296,6.372-0.373,9.456,0.559c2.233,0.437,4.202,1.651,6.385,2.269c3.047,0.989,12.031-0.229,18.074,1.956
	c6.827,1.776,1.92-2.131,15.295,1.032c0.355,1.683,2.179,2.647,2.506,4.262c-0.962,2.747,1.695,18.56-8.073,18.197
	c-3.343-0.082-6.695,0.114-10.024-0.105c-2.706-0.559-5.467-0.318-8.196-0.364c-2.16-0.041-4.207-0.955-6.354-0.932
	c-9.291,1.289-8.719,5.281-56.665-1.574c-2.92-0.673-6.017-0.059-8.823-1.233c-2.665-1.114-5.626-0.291-8.332-1.155
	c-2.97-0.887-6.035-1.355-9.032-2.106c-2.174-0.328-4.112-1.501-6.295-1.701c-8.264-1.001-16.505,2.488-24.724,0.564
	c-2.197-0.509-4.289-2.151-6.617-1.437c-9.088,2.163-4.683,2.45-12.321,2.524c-16.494-0.32-11.301,1.56-14.972,1.969
	c-1.806,0.146-3.607,0.041-5.399,0.123c-8.156,11.767-20.453,8.731-25.533,4.484c-0.928-0.741-1.369-2.392-2.747-2.251
	c-2.301,0.027-4.553-0.487-6.84-0.459c-3.279,0.118-6.267-1.419-9.433-1.965c-10.276-1.904-13.118-7.98-15.072-10.351
	c-7.615-9.087-3.452-16.453-10.065-34.516c-3.17-3.793-5.167-8.396-7.15-12.876c-2.612-5.573-1.986-10.687-1.646-27.63
	c-1.336,0.15-6.802,1.904-9.269-3.325c-0.614-2.142,0.723-4.098,1.383-6.04c1.223-5.48,2.902-10.856,4.857-16.114
	c1.599-4.287-1.379-11.841-2.742-23.177c-0.655-4.211-1.354-19.45-1.023-24c-16.546-4.257-36.987-0.054-43.002-0.655
	c-31.539-2.963-44.475,1.171-65.161,4.612c-1.064-0.1-1.205,1.073-1.251,1.869c-1.285,17.422-3.84,13.745-1.114,21.049
	c0.196,0.465,12.76,34.965,7.996,42.252c-2.814,3.609-4.585,2.667-10.061,1.819c-1.312,24.599,5.038,19.464-4.907,39.177
	c-0.81,1.692-2.915,2.538-3.252,4.48c-0.555,4.844-1.355,9.683-2.974,14.304c-2.927,13.474-3.507,16.672-6.281,19.643
	c-3.769,4.068-0.882,3.958-11.311,6.868c-3.079,0.655-6.067,1.71-9.201,2.088c-2.511,0.427-5.062,0.05-7.577,0.282
	c-7.863,1.039-11.62,1.874-13.521-0.678c-0.735-0.74-1.952-4.03-8.983-0.482c-4.664,2.323-4.216,9.348-30.732,8.787
	c-2.006-0.382-4.375-0.723-5.594-2.556c-4.807-6.599-3.033-8.077-2.884-11.498c-1.688-4.141-7.47,0.331-11.589,1.815
	c-3.14,0.634-22.933-0.068-25.915,0.132c-7.246-0.114-8.026,2.141-25.005,3.543c-3.197,0.227-6.326,1.078-9.537,1.014
	c-2.861-0.082-5.644,0.65-8.473,0.901c-2.327,0.182-12.413,0.025-23.382,4.33c-2.189,0.74-10.421,1.098-16.646-0.532
	c-1.483-1.019-2.556-2.733-4.38-3.202c-4.73-0.828-8.81,2.829-13.508,2.465c-4.53-0.118-9.042,0.678-13.558,0.364
	c-3.734-1.556-4.789-5.922-5.558-9.506c-0.464-1.61-0.041-3.252,0.036-4.871c0.573-0.382,1.164-0.75,1.76-1.105
	c0.041-1.301-0.205-2.747,0.641-3.848c3.943-2.233,8.719-2.401,13.085-1.565c5.942,0.456,14.852-7.621,26.806-6.786
	c3.211-0.35,7.136-0.168,9.224-3.134c2.943-0.155,5.903,0.123,8.846-0.127c0.455-0.099,17.403-4.768,21.581-5.24
	c5.03-0.177,9.778-2.097,14.781-2.547c18.897-4.29,13.063-7.032,28.316-8.91c5.789,0.115,15.35-2.366,15.805-2.447
	c2.479-0.632,5.071-0.059,7.577-0.564c0.32-0.038,32.94-4.327,33.46-4.321c6.927-0.054,6.62-4.519,13.099-4.093
	c1.119-1.082,1.896-2.433,2.365-3.902c-3.493-2.892-4.193-7.7-4.644-11.939c-1.251-6.454,0.941-12.835,2.219-19.098
	c-13.187-3.14-19.44,0.801-22.586-24.628c-0.056-0.459-4.193-34.852-4.193-37.64c-52.524-2.775-72.378-24.571-134.515-30.118
	c-7.732-0.822-21.172,0.873-36.412-18.615c-12.197-16.029-9.815-18.845-13.285-19.461c-33.003-5.299-24.933-4.838-44.881-7.018
	c-29.744-3.678-5.179-2.436-41.415-3.125c-8.568-0.306-23.663,2.26-29.135,1.815c-17.229-1.623-14.926-3.535-31.714,0.096
	c-17.462,3.791-67.662,22.807-120.038,26.975c-33.127,4.569-65.815-4.796-97.771-14.449
	c-98.394-30.225-115.134-43.44-175.702-40.715c-9.133,1.039-21.395-1.941-29.504-1.378c-6.764,0.511-6.344,0.073-7.018,2.979
	c-1.492,10.641-1.245,20.291-7.163,33.647c6.066,4.335,0.81,15.574-3.015,22.099c-7.219,12.607-8.605,23.633-15.918,26.879
	c-28.258,13.644-53.688,1.446-89.889-17.751c-42.32-20.722-47.174-36.678-77.181-46.054c-74.629-25.58-73.87-21.996-105.484-41.902
	c-23.377-14.707-43.122-45.039-42.338-59.112c0.159-3.338-0.528-6.627-0.728-9.933c0.732-3.152,2.129-6.131,2.36-9.387
	c1.669-3.579,4.462-6.536,6.354-10.01c4.095-6.847,1.93-12.685,11.343-19.143c3.588-2.039,7.39-1.897,9.587-5.812
	c0.795-1.31,7.69-8.34,13.371-11.266c12.279-7.664,23.719-5.446,31.837-5.931c6.094-1.102,16.099,0.095,21.458,1.378
	c11.516,2.312,10.004,0.447,20.967,5.003c2.711,1.232,5.744,1.542,8.437,2.833c10.272,5.028,13.622,0.926,34.406,4.293
	c9.789,1.116,18.801,4.194,21.435,3.584c5.178-1.15,12.448-0.727,17.924-0.055c6.177-1.238,1.188-1.808,17.697-1.442
	c3.3-0.448,9.819-2.599,16.705-0.778c1.637,0.359,3.334,1.287,5.007,0.555c12.261-4.632,16.147-2.084,30.65,0.623
	c0.241,0.069,11.817,2.008,19.971,4.166c2.397,0.692,9.605,0.042,11.693,1.478c1.847,1.132,4.157,1.892,5.089,4.048
	c1.51,5.068-4.547,7.065-6.185,8.037c0.146,0.559,0.291,1.128,0.428,1.71c13.977,5.353,41.772,5.909,42.402,5.776
	c20.18-3.344,60.417,1.858,72.142-0.177c23.549-1.171,70.189,8.16,79.223,7.163c17.074,0.169,55.392-0.094,56.801,1.001
	c4.121-1.342,8.45-0.127,12.657-0.841c2.124,0.537,4.28,0.227,6.413-0.027c1.464,0.3,2.92,0.146,4.393-0.027
	c0.759,0.723,2.088,1.428,2.688,0.086c2.87,0.6,10.662,0.514,14.227-0.2c2.752-0.669,5.612-0.059,8.369-0.705
	c3.702-0.787,7.554-0.8,11.288-0.186c1.587,0.155,30.656,1.271,32.523,1.646c11.046,1.98,30.222,2.991,30.677,2.965
	c2.479-0.209,4.776,1.092,7.263,0.905c1.892-0.214,3.534,1.073,5.43,0.901c5.622-0.501,24.93,7.837,38.977,3.075
	c5.571-1.055,10.811-3.616,16.537-3.925c3.366,0.032,6.59-1.164,9.965-1.014c2.169-0.91,4.566-0.978,6.772-1.824
	c2.761-0.646,4.735-2.806,6.927-4.439c8.002-6.346,20.267-8.05,24.091-7.764c4.765,0.311,15.068-2.825,15.764-2.856
	c1.023-1.778,3.193-2.042,4.889-2.888c1.555-0.223,2.938-1.001,4.421-1.451c7.505-0.2,1.734-1.65,40.433-1.437
	c3.387,0.043,13.102-1.88,17.178-1.269c6.037,1.157,20.953-0.656,24.2-0.559c2.997,0.091,5.762-1.292,8.691-1.746
	c3.375-0.391,6.276-2.31,9.496-3.252c6.372-2.238,13.29-3.475,18.834-7.564c3.429-2.142,7.7-1.587,11.302-3.247
	c8.369-3.361,33.822-6.319,55.482-2.083c3.461,0.45,6.99-0.223,10.442,0.464c1.026,0.066,20.273,2.218,27.648,1.96
	c12.236-0.389,40.6,5.169,48.287,7.163c-4.857-39.982-21.189-110.995-24.555-124.141c-4.696-18.716-12.883-40.791-15.677-57.097
	c-1.423-5.421-1.305-11.147-3.047-16.496c-7.036-23.905-28.47-99.069-24.655-123.731c0.172-4.626,2.26-25.554,6.467-37.704
	c19.569-60.096,97.539-111.224,159.252-125.091c-0.609-2.21-0.941-4.53-0.605-6.813c0.268-1.746-0.45-3.407-0.746-5.089
	c-0.273-1.915,0.064-3.852-0.177-5.762c-0.273-1.542-0.901-3.029-0.855-4.616c-0.159-2.224,1.16-4.407,0.3-6.59
	c-0.441-2.793-0.782-6.158,1.128-8.496c-8.342-11.99-8.345-15.865-13.904-30.645c-0.605-1.328,0.246-3.038-0.814-4.171
	c-0.527-0.614-1.064-1.296-0.928-2.151c0.132-2.169-1.464-3.989-1.223-6.163c0.068-1.81-0.455-3.561-0.514-5.358
	c-1.014-0.723-2.01-1.469-2.92-2.31c-12.574,12.456-16.955-7.279-23.759-16.018c-8.183-11.088-9.553-29.05-10.179-36.348
	c-1.781-11.539,1.744-16.072,6.008-19.111c2.742-1.357,4.45-3.893,10.57-1.278c-1.228-3.079-3.238-5.894-3.761-9.219
	c-0.332-1.742,0.059-3.52-0.136-5.258c-1.092-2.101-2.647-3.998-3.22-6.34c-0.914-2.874,0.528-5.985-0.71-8.787
	c-0.791-2.292-1.469-4.866-0.296-7.159c0.737-1.273-0.409-2.442-0.764-3.629c-0.773-1.565-0.109-3.293,0.537-4.771
	c-0.818-1.337-1.655-2.843-1.287-4.466c1.147-4.519-3.691-13.33,8.118-15.136c-0.383-4.141,2.955-7.682,0.623-8.782
	c1.419-4.366,3.034-8.732,5.58-12.58c1.369-1.469,2.097-3.388,3.511-4.821c2.035-2.128,3.644-6.892,7.691-11.834
	c0.437-0.518,0.737-1.137,1.023-1.76c0.473-0.241,0.964-0.478,1.474-0.71c-0.023-0.173-0.064-0.518-0.086-0.691
	c0.678-0.132,1.492-0.073,1.983-0.691c-0.022-2.881-1.148-2.851,0.869-8.068c-0.073-0.223-0.214-0.673-0.287-0.896
	c0.541-0.018,1.092-0.036,1.66-0.055c-0.03-4.065,6.501-7.58,6.481-9.728c-0.628-0.264-1.232-0.532-1.833-0.787
	c1.283-1.706,2.615-3.516,2.888-5.699c0.527-1.737,0.59-11.004,6.213-12.384c2.965-0.464,3.547-4.098,6.226-5.117
	c3.807-1.273,8.182,0.123,10.961,2.934c0.582,0.687,1.656,1.242,2.433,0.468c1.469-1.337,3.725-1.828,4.707-3.643
	c2.292-0.273,4.766-1.087,6.995-0.077c2.633,1.287,5.653,1.205,8.496,1.701c1.396,0.337,2.247-1.123,3.584-1.233
	c3.948-0.782,6.336-4.471,10.02-5.799c2.456-0.591,4.994-1.374,7.504-0.546c0.582-2.415,0.396-4.98,1.346-7.318
	c1.642-3.911,5.626-7.004,9.979-6.818C1278.181,19.028,1279.914,20.206,1281.556,19.382z"/>
</svg>
