<?xml version="1.0" encoding="UTF-8" standalone="no"?>
<svg
   xmlns:dc="http://purl.org/dc/elements/1.1/"
   xmlns:cc="http://creativecommons.org/ns#"
   xmlns:rdf="http://www.w3.org/1999/02/22-rdf-syntax-ns#"
   xmlns:svg="http://www.w3.org/2000/svg"
   xmlns="http://www.w3.org/2000/svg"
   xmlns:sodipodi="http://sodipodi.sourceforge.net/DTD/sodipodi-0.dtd"
   xmlns:inkscape="http://www.inkscape.org/namespaces/inkscape"
   version="1.1"
   width="711.53632"
   height="1042.2706"
   viewBox="0 0 711.53632 1042.2706"
   id="svg7"
   sodipodi:docname="alone_moving_female21.svg"
   inkscape:version="1.0.2 (e86c870879, 2021-01-15)">
  <metadata
     id="metadata13">
    <rdf:RDF>
      <cc:Work
         rdf:about="">
        <dc:format>image/svg+xml</dc:format>
        <dc:type
           rdf:resource="http://purl.org/dc/dcmitype/StillImage" />
        <dc:title></dc:title>
      </cc:Work>
    </rdf:RDF>
  </metadata>
  <defs
     id="defs11" />
  <sodipodi:namedview
     pagecolor="#ffffff"
     bordercolor="#666666"
     borderopacity="1"
     objecttolerance="10"
     gridtolerance="10"
     guidetolerance="10"
     inkscape:pageopacity="0"
     inkscape:pageshadow="2"
     inkscape:window-width="1920"
     inkscape:window-height="997"
     id="namedview9"
     showgrid="false"
     fit-margin-top="0"
     fit-margin-left="0"
     fit-margin-right="0"
     fit-margin-bottom="0"
     inkscape:zoom="0.24180328"
     inkscape:cx="333.20775"
     inkscape:cy="449.54623"
     inkscape:window-x="0"
     inkscape:window-y="0"
     inkscape:window-maximized="1"
     inkscape:current-layer="svg7"
     inkscape:document-rotation="0" />
  <rect
     style="fill:#ffffff;stroke-width:5.66929;stroke-linecap:square;stroke-linejoin:round;stroke-dasharray:11.3386, 11.3386"
     id="rect832"
     width="711.53632"
     height="1042.2706"
     x="0"
     y="0" />
  <g
     id="layer1"
     transform="translate(33.207745,90.785414)">
    <g
       style="fill:#000000;fill-opacity:1;stroke-linejoin:miter"
       id="g4">
      <path
         d="m 347.47244,-32.716427 q 22.39121,-0.73418 47.29706,10.388317 3.44937,6.691879 3.66196,24.541918 1.88751,5.803253 3.55136,6.951175 -2.57142,1.70284 -1.04895,6.446223 l 14.11889,16.651562 q -0.82571,6.222852 -5.01651,7.14439 l 3.53409,9.295382 -3.20208,25.55774 q -0.93094,2.6043 -3.60476,4.384015 -20.29652,9.038285 -21.3777,11.158661 -5.73028,7.796684 -6.71994,14.250904 l 8.18296,19.27892 q 13.91156,18.94337 21.78372,37.86459 l 21.80256,53.60126 q 9.7535,24.56099 7.7867,91.50407 l 11.42975,1.99802 39.61551,17.35198 4.40558,6.18995 18.65793,7.26199 15.19833,12.51539 3.9321,6.97497 q -1.72205,18.70267 -15.8589,23.48453 -2.7984,1.70557 -6.26528,-1.81455 3.41008,-2.89511 3.53763,-5.79742 -5.76587,-9.65842 -7.88185,-5.67546 -2.02077,-0.18163 3.46736,7.7736 l 0.36494,4.2675 q -0.32936,3.23174 -3.8898,3.6638 -0.28904,-9.20177 -19.42564,-19.8358 -2.84106,-0.4807 -3.18896,-0.0464 -9.55573,13.00961 -10.82505,11.32757 -12.84707,-6.30954 -33.98025,-19.45587 -2.73374,-1.55899 -4.5761,-0.87018 l -7.11195,31.74173 q 0.24432,2.39243 -6.44437,5.29303 -1.47174,-1.02469 1.3158,10.87741 l -4.42005,2.30109 q -0.673,8.57223 2.2977,23.00127 29.46327,85.36647 32.01929,110.0093 l 2.26743,17.9173 -8.36948,3.1259 q -0.45209,0.3519 -0.23731,2.85724 5.6604,22.49996 12.33631,35.77456 3.91033,59.80735 5.88123,56.7661 l 14.75918,36.892 16.4632,70.0277 q 9.33169,28.06216 21.70992,48.0058 l 21.21784,23.6304 5.336,8.9865 q 7.75656,6.36756 14.46319,9.2804 l 2.48567,1.473 q 2.0923,1.0141 3.99053,1.95144 l 29.43323,2.7876 q 7.46674,1.46046 6.79284,7.45282 -12.14514,11.31404 -74.63256,11.11114 -37.58866,-29.031 -43.77154,-25.89434 -9.43324,-0.79792 -3.625,27.21094 -5.29365,2.674 -5.52567,-0.007 -0.5532,-16.80188 -3.09626,-18.43719 -2.0863,-6.95612 -15.26025,-16.80255 -2.11557,-2.6216 -1.95444,-4.334 -0.6532,-12.42016 3.28235,-19.71184 1.42127,-4.39142 3.7103,-7.61336 4.19837,-3.1555 6.74862,-2.7418 2.82525,-7.40626 -1.34579,-17.7889 L 443.6473,751.86896 414.46527,703.6439 q -7.35254,-13.38224 -12.86722,-60.6881 l -12.53895,-41.59276 -22.71382,-44.04794 -3.97062,-0.44083 -6.22816,0.48108 q -2.60823,6.48755 -12.69417,22.47461 -12.59579,26.57818 -14.39033,42.44567 l -31.41457,35.79072 -17.53753,35.72215 -43.43392,61.60274 -10.75464,23.46099 q -4.77656,16.86537 -2.19852,25.72777 l 8.68724,14.10726 q 5.41134,14.51611 10.95467,20.52124 4.01325,2.59985 5.5517,4.32916 l 2.58528,1.55894 q 2.53909,1.80605 5.07529,1.5286 l 26.1374,2.8707 q 3.8736,1.526 6.12526,2.85914 l 1.22507,2.68966 q -0.13065,3.9762 -3.37793,4.6155 l -21.0183,4.6423 q -27.64708,0.632 -38.36734,-0.1298 l -14.8403,-9.47025 Q 198.16022,835.0967 194.4014,833.8078 l -13.51914,-7.8946 q -11.0318,-0.5163 -9.54016,26.0209 -5.19179,0.25145 -5.78256,-0.9791 -1.05721,-0.4125 -0.85556,-1.6315 2.308,2.3086 1.61319,-18.72944 l -11.62477,-21.5055 1.6351,-8.81701 5.52324,-11.56605 q 8.76483,0.6917 33.53285,-38.3739 22.48128,-46.2834 19.13919,-43.6221 Q 191.22113,710.82056 33.099594,646.4139 11.660645,638.55444 15.926233,611.053 L 41.49148,536.20013 q -0.177717,-13.27533 1.92061,-17.6629 l 4.61066,-3.961 q 6.401738,-22.65753 16.15127,-32.80041 10.425505,-11.97662 20.37729,-13.61856 28.5902,-1.19763 46.9495,0.007 5.66136,-17.5351 29.4676,-33.96192 7.24064,-19.12843 10.67769,-20.30001 l 6.78759,-23.57742 6.40174,-8.1186 q -2.08781,-2.05728 -0.9805,-6.7576 0.19628,-4.43683 5.89022,-5.61975 13.53668,-43.9877 20.60888,-60.03607 15.4925,-38.49878 21.84925,-43.32278 0.89652,-11.78162 4.53192,-20.51459 -0.28793,-4.32889 10.36035,-12.86823 l 4.7785,-9.84089 q -0.60806,-8.8539 2.66809,-14.45674 l 12.68558,-22.20935 6.56513,-34.64802 q 5.09237,-11.54504 11.30205,-19.61869 l 3.6626,-18.53496 q -4.91283,12.20863 -5.4213,5.27959 l 5.5819,-33.414395 q -0.0243,-1.878165 -0.38902,-3.876381 -0.26626,-1.573959 -1.45038,1.261776 -0.52536,-8.4405 -3.0118,-11.205 -2.44513,-18.91911 -1.67762,-23.060285 -0.77002,-21.065461 9.91028,-46.8123097 8.16528,-19.2711523 25.20444,-28.3522893 8.92773,-6.655229 29.75842,-6.357294 M 287.58353,77.71252 q -0.0527,2.13989 1.21972,-0.0037 -0.12125,-1.67805 -1.17459,-0.32 m -44.49911,301.61826 q -2.62819,-2.71881 -21.15232,47.55555 l -9.04809,0.3303 -5.29747,22.1988 11.53628,20.7321 9.27591,33.53054 31.44567,20.17586 q 3.16007,-69.56356 5.87579,-76.59172 18.36738,-53.85593 13.07944,-56.14203 l 3.37842,-5.87073 q -0.009,-1.39429 -5.15366,-2.26697 l -33.44818,-4.39305 m -78.25,73.9225 q -4.14948,5.9924 -5.84235,20.5761 l 36.36238,15.07155 q 3.67832,-0.81615 7.64582,-23.83738 0.11247,-2.79977 -1.08184,-2.52203 -4.10425,3.81246 -14.06788,0.17866 -3.86647,-1.99775 -3.91976,-6.8126 l -4.73312,0.0122 q -1.52257,-0.043 -3.74411,-4.50064 -3.95474,0.1489 -8.10353,-3.64666 -2.03295,2.3205 -2.51213,5.37417 M 44.76593,523.86005 q 0.21837,-1.9458 -0.0081,-0.0195 m 230.70193,35.17397 q -0.80448,11.61828 -3.63193,24.75173 3.17725,3.1304 -0.13542,7.39383 -0.3323,1.12497 1.20775,0.51697 3.34215,-4.00683 6.83548,-30.92846 0.71823,-3.05439 -3.63205,-2.1449 m -5.80503,29.43011 q 1.4036,1.03035 0.42878,-0.35699 m -3.44751,12.38334 q 0.38108,-3.4313 -6.5e-4,-0.003 m 2.43515,1.70695 -0.0483,-0.9765 m -1.55848,4.044 q 1.75533,-0.32914 0.17878,-0.57316 m -3.58715,3.00766 q -1.28148,-0.47756 -1.6264,0.63474 l -2.71745,8.55626 1.04852,0.2737 q 9.77396,-11.3453 3.8736,-9.4112 z"
         id="path2"
         inkscape:connector-curvature="0" />
    </g>
  </g>
</svg>
