<?xml version="1.0" encoding="UTF-8" standalone="no"?>
<svg
   xmlns:dc="http://purl.org/dc/elements/1.1/"
   xmlns:cc="http://creativecommons.org/ns#"
   xmlns:rdf="http://www.w3.org/1999/02/22-rdf-syntax-ns#"
   xmlns:svg="http://www.w3.org/2000/svg"
   xmlns="http://www.w3.org/2000/svg"
   xmlns:sodipodi="http://sodipodi.sourceforge.net/DTD/sodipodi-0.dtd"
   xmlns:inkscape="http://www.inkscape.org/namespaces/inkscape"
   version="1.1"
   width="702.16455"
   height="658.54736"
   viewBox="0 0 702.16455 658.54736"
   id="svg15"
   sodipodi:docname="alone_moving_female14.svg"
   inkscape:version="1.0.2 (e86c870879, 2021-01-15)">
  <metadata
     id="metadata21">
    <rdf:RDF>
      <cc:Work
         rdf:about="">
        <dc:format>image/svg+xml</dc:format>
        <dc:type
           rdf:resource="http://purl.org/dc/dcmitype/StillImage" />
        <dc:title></dc:title>
      </cc:Work>
    </rdf:RDF>
  </metadata>
  <defs
     id="defs19" />
  <sodipodi:namedview
     pagecolor="#ffffff"
     bordercolor="#666666"
     borderopacity="1"
     objecttolerance="10"
     gridtolerance="10"
     guidetolerance="10"
     inkscape:pageopacity="0"
     inkscape:pageshadow="2"
     inkscape:window-width="1920"
     inkscape:window-height="997"
     id="namedview17"
     showgrid="false"
     fit-margin-top="0"
     fit-margin-left="0"
     fit-margin-right="0"
     fit-margin-bottom="0"
     inkscape:zoom="0.73258197"
     inkscape:cx="350.1043"
     inkscape:cy="342.20612"
     inkscape:window-x="0"
     inkscape:window-y="0"
     inkscape:window-maximized="1"
     inkscape:current-layer="svg15" />
  <rect
     style="fill:#ffffff;fill-opacity:1;stroke:none;stroke-width:5.66929;stroke-linecap:square;stroke-linejoin:round;stroke-dasharray:11.3386, 11.3386"
     id="rect846"
     width="702.16455"
     height="658.54736"
     x="0"
     y="0" />
  <g
     id="layer1"
     transform="matrix(5.437725,0,0,5.437725,-1279.0718,-2226.1115)">
    <g
       style="fill:#000000;fill-opacity:1;stroke-linejoin:miter"
       id="g4">
      <path
         d="m 279.02954,418.01007 c -0.66641,0.51651 -1.63272,1.52448 -2.19084,2.26583 -0.68306,0.91636 -1.41612,1.70774 -1.74098,1.88267 -0.12497,0.0666 -0.50818,0.1416 -0.84137,0.16656 -0.58313,0.05 -0.64975,0.0417 -1.19123,-0.22491 -0.44149,-0.20825 -0.7164,-0.2832 -1.18286,-0.3082 -0.76638,-0.0417 -1.01629,0.0917 -1.01629,0.54148 0,0.62475 0.54977,1.0496 1.78265,1.39947 0.37488,0.1 0.92465,0.29987 1.23288,0.44147 0.45816,0.20826 0.59143,0.31659 0.73306,0.59143 0.0999,0.19995 0.38318,0.50818 0.68304,0.73309 0.89967,0.69971 1.36616,1.17456 1.5661,1.60774 0.1666,0.35817 0.18327,0.44152 0.0833,0.61638 -0.0916,0.18332 -0.075,0.26662 0.1999,0.81642 0.16664,0.33318 0.2999,0.6414 0.2999,0.6747 0,0.0833 1.21622,1.9576 1.38282,2.11588 0.15828,0.16662 0.44983,0.74969 0.74138,1.48279 0.12498,0.31656 0.25825,0.61645 0.29158,0.66641 0.0333,0.0417 0.14992,0.35818 0.24992,0.69974 0.0999,0.34155 0.23323,0.69973 0.29155,0.79138 0.0666,0.1 0.19989,0.39984 0.29987,0.67474 0.1,0.26654 0.37488,0.82468 0.60808,1.22456 0.2333,0.39983 0.59147,1.0246 0.7914,1.37444 0.20825,0.35822 0.3915,0.66644 0.4165,0.69144 0.05,0.0417 0.29156,0.46646 0.50815,0.87466 0.0666,0.1416 0.40817,0.66638 0.74972,1.16626 0.59976,0.8913 1.01627,1.53272 1.34116,2.10748 0.0916,0.14997 0.23324,0.37488 0.31657,0.49982 0.0833,0.12497 0.33318,0.51648 0.5581,0.8747 0.59978,0.94964 1.2412,1.92425 1.766,2.6823 0.2499,0.35822 0.5248,0.78303 0.6081,0.933 0.19993,0.35818 0.20826,0.76638 0.0167,0.82467 -0.0833,0.025 -0.21657,0.0833 -0.29157,0.12497 -0.0833,0.0417 -0.2249,0.075 -0.30822,0.075 -0.0916,0 -0.19158,0.0333 -0.21658,0.0833 -0.025,0.0417 -0.1666,0.0833 -0.3082,0.0833 -0.39988,0 -1.21622,0.39986 -1.24955,0.61644 -0.0166,0.13326 -0.12495,0.19992 -0.48315,0.29156 -0.2499,0.0666 -0.49982,0.17496 -0.54977,0.2499 -0.05,0.0666 -0.16663,0.1 -0.25827,0.075 -0.10828,-0.0334 -0.24988,0.025 -0.36652,0.13326 -0.10828,0.0916 -0.24158,0.17494 -0.29157,0.17494 -0.19157,0 -0.7247,0.51647 -0.87463,0.84966 -0.0916,0.19159 -0.23328,0.39154 -0.32489,0.44154 -0.0917,0.0499 -0.16663,0.13326 -0.16663,0.18322 0,0.05 -0.0583,0.1333 -0.1416,0.19158 -0.075,0.0584 -0.1416,0.175 -0.14992,0.25828 -0.0167,0.15826 -0.12498,0.42482 -0.50816,1.24122 -0.10831,0.2332 -0.19992,0.49977 -0.19992,0.59975 0,0.1 -0.0417,0.20825 -0.0833,0.23325 -0.0499,0.0333 -0.0666,0.0916 -0.0333,0.13327 0.025,0.0417 -0.0333,0.29989 -0.12494,0.57479 -0.1,0.27491 -0.17492,0.5748 -0.17492,0.65809 0,0.0916 -0.0417,0.19162 -0.0917,0.22491 -0.0666,0.0333 -0.0833,0.21658 -0.05,0.52478 0.05,0.49149 0.0167,0.61646 -0.19994,0.69144 -0.0916,0.0333 -0.14993,0.19992 -0.18326,0.49982 -0.0833,0.7247 -0.19158,1.21618 -0.29156,1.34112 -0.13327,0.15828 -0.23324,1.64941 -0.20824,3.01556 0.008,0.18326 0.008,0.56644 0,0.85797 0,0.37488 0.0333,0.54981 0.11663,0.60815 0.0916,0.0583 0.0916,0.075 -0.025,0.075 -0.18325,0 -0.19163,0.10828 -0.0167,0.25824 0.0833,0.0666 0.10828,0.17493 0.075,0.29987 -0.025,0.1083 0.0167,0.32489 0.0916,0.48315 0.10827,0.23328 0.11663,0.31656 0.0333,0.4165 -0.1333,0.1583 -0.05,0.37488 0.14992,0.37488 0.14994,0 0.34988,0.14997 0.34988,0.26654 0,0.0334 -0.0833,0.1333 -0.18328,0.23328 l -0.18326,0.16662 h 0.18326 c 0.14163,0 0.18328,0.05 0.18328,0.21656 0,0.1916 0.12495,0.97464 0.32487,2.03256 0.0417,0.20828 0.19993,0.73306 0.36653,1.16624 0.15828,0.43316 0.3832,1.04125 0.49983,1.34948 0.10827,0.29992 0.2832,0.66644 0.37485,0.79972 0.0999,0.13326 0.21658,0.4165 0.26657,0.62478 0.1,0.44982 1.04959,2.32409 1.48279,2.93219 0.16656,0.22493 0.57476,0.74975 0.91632,1.15793 0.60809,0.73306 0.61639,0.7497 0.54977,1.0829 -0.0333,0.1916 -0.0667,0.72474 -0.075,1.19123 -0.008,0.4665 -0.0333,0.883 -0.0666,0.90797 -0.0333,0.0333 -0.0583,0.25823 -0.0583,0.4998 v 0.43318 l -1.09127,1.07462 c -0.59976,0.5831 -1.30783,1.3245 -1.55773,1.64938 -0.2582,0.31652 -0.54978,0.66642 -0.64975,0.76635 -0.1,0.1 -0.38318,0.47487 -0.62475,0.83304 -0.2416,0.35819 -0.50816,0.72473 -0.58314,0.81635 -0.075,0.0916 -0.34152,0.54148 -0.57476,0.99963 -0.6081,1.16623 -1.03297,1.91592 -1.41615,2.49905 -0.18325,0.2749 -0.35821,0.55814 -0.39151,0.62476 -0.22491,0.49982 -1.45779,1.85767 -2.04922,2.24918 -0.16662,0.1166 -0.32489,0.26656 -0.34988,0.34988 -0.025,0.075 -0.1666,0.22491 -0.31656,0.34148 -0.14994,0.11665 -0.34986,0.28328 -0.44983,0.36656 -0.27491,0.24161 -1.44945,1.83267 -1.80765,2.44909 -0.17493,0.29155 -0.34985,0.59145 -0.3915,0.65809 -0.0417,0.0666 -0.15827,0.29153 -0.25825,0.49978 -0.21658,0.45818 -1.37448,2.02423 -2.04923,2.76563 -0.2749,0.30822 -0.92465,0.94135 -1.4328,1.41615 -0.51644,0.47484 -1.69102,1.6077 -2.61569,2.52406 -0.91633,0.91629 -2.04089,1.98258 -2.49073,2.37412 -0.44982,0.39148 -1.0579,0.91632 -1.34115,1.1662 -0.63308,0.5498 -2.15753,1.77435 -3.03219,2.44072 -0.35819,0.2666 -0.70806,0.53315 -0.78302,0.5998 -0.075,0.0583 -0.24158,0.1833 -0.37488,0.26658 -0.12494,0.0833 -0.4415,0.29989 -0.69141,0.49148 -0.44149,0.32489 -0.87465,0.5831 -1.99923,1.17454 -0.2999,0.1583 -0.84136,0.50814 -1.20789,0.77474 -0.36652,0.2749 -0.69141,0.49982 -0.72473,0.49982 -0.11661,0 -1.94925,1.24951 -2.27414,1.54107 -0.17493,0.16663 -0.66641,0.56641 -1.09125,0.88297 -0.4165,0.30826 -1.14956,0.983 -1.62439,1.47446 -0.49148,0.51648 -1.01628,0.99134 -1.22455,1.09124 -0.36651,0.1916 -1.30783,0.7664 -1.93258,1.1996 -0.49982,0.34984 -0.94966,0.76635 -1.08293,1.0079 -0.0583,0.11666 -0.19161,0.22494 -0.2999,0.24996 -0.1,0.0249 -0.29988,0.1499 -0.4415,0.26654 -0.52479,0.4415 -0.21658,1.1329 0.54979,1.2495 0.51648,0.075 2.07422,0 2.20751,-0.10826 0.0583,-0.05 0.3332,-0.15824 0.6081,-0.23324 0.7164,-0.1999 0.98298,-0.3082 1.12458,-0.45817 0.0666,-0.075 0.24991,-0.18329 0.39986,-0.23323 0.14994,-0.05 0.38319,-0.1666 0.50813,-0.2666 0.1333,-0.0916 0.26657,-0.1666 0.30822,-0.1666 0.0333,0 0.34153,-0.1666 0.69141,-0.3665 0.60809,-0.35824 1.44945,-0.6831 2.41574,-0.933 0.34155,-0.0916 0.51648,-0.1 0.66643,-0.0333 0.12495,0.05 0.7997,0.14164 1.50777,0.20824 1.5244,0.1417 1.8993,0.19997 1.9659,0.2999 0.025,0.0417 0.23328,0.075 0.45817,0.075 0.34988,0 0.49983,-0.0583 0.89133,-0.3249 0.5998,-0.4082 0.70806,-0.53314 0.97463,-1.1162 0.19993,-0.43323 0.36655,-1.41614 0.37487,-2.23255 0,-0.26655 0.34987,-0.73305 1.06627,-1.46605 0.53313,-0.53316 1.09961,-0.94966 2.09921,-1.55775 0.47482,-0.28325 1.05792,-0.69975 1.84097,-1.29955 0.12495,-0.0916 0.53315,-0.31654 0.91632,-0.50813 0.38318,-0.19159 1.05793,-0.56647 1.50775,-0.84137 0.44153,-0.26654 0.82471,-0.48316 0.85804,-0.48316 0.025,0 0.44984,-0.22491 0.94131,-0.49144 0.49149,-0.26658 1.05793,-0.58314 1.26618,-0.69142 0.58313,-0.30823 1.19955,-0.79138 2.33245,-1.82434 1.30783,-1.19952 1.6494,-1.54108 2.84894,-2.8739 0.53311,-0.59144 1.3245,-1.41614 1.74933,-1.83264 0.42483,-0.4165 0.95798,-0.95798 1.17456,-1.2079 0.50815,-0.56642 1.84097,-2.31578 1.99924,-2.6323 0.075,-0.12498 0.39983,-0.47487 0.73306,-0.77473 0.33322,-0.29987 0.68307,-0.61647 0.77472,-0.70807 0.53311,-0.50815 1.10791,-0.87466 2.34912,-1.50775 1.59103,-0.80805 3.3154,-1.94095 4.39835,-2.8906 0.4165,-0.36655 0.90796,-0.75802 1.09124,-0.87465 0.45817,-0.28324 1.34116,-1.0746 2.92389,-2.59904 0.73307,-0.70806 1.84931,-1.75766 2.49075,-2.33246 3.40702,-3.08218 3.6986,-3.35708 4.5816,-4.38998 0.6081,-0.70807 1.4411,-2.01592 1.61607,-2.53242 0.05,-0.1666 0.16659,-0.37484 0.24988,-0.46648 0.0916,-0.0916 0.17495,-0.23325 0.19162,-0.32489 0.025,-0.16657 0.14993,-0.24155 1.02459,-0.62476 0.32489,-0.13327 0.79139,-0.35817 1.04129,-0.49145 0.24988,-0.12497 0.69971,-0.31659 0.99128,-0.41652 0.59979,-0.19994 0.80804,-0.30822 2.11587,-1.11626 1.03296,-0.63312 2.65732,-1.87427 3.26544,-2.49904 0.74973,-0.75807 0.81636,-0.80803 3.8902,-2.82396 1.33286,-0.86634 2.14084,-1.44946 2.73233,-1.95758 0.29987,-0.24991 1.08289,-0.81634 1.74933,-1.24951 0.6664,-0.4332 1.47443,-0.96635 1.79932,-1.19125 0.32488,-0.2166 0.80804,-0.4998 1.08294,-0.61643 0.38318,-0.16663 1.1912,-0.75807 1.53272,-1.12457 0.025,-0.025 0.22492,-0.1916 0.45819,-0.37488 0.64143,-0.50812 1.58273,-1.47442 2.55737,-2.62399 0.49146,-0.5748 0.99961,-1.1579 1.12456,-1.29953 0.29988,-0.32486 1.87428,-1.5744 2.2075,-1.74933 0.2999,-0.15827 2.69065,-1.79099 3.52366,-2.40744 0.32489,-0.24155 1.04962,-0.74137 1.62442,-1.11623 0.57479,-0.36653 1.32449,-0.87468 1.66604,-1.1246 0.34152,-0.24986 0.72473,-0.4998 0.85798,-0.5581 0.125,-0.0583 0.22494,-0.1333 0.22494,-0.17495 0,-0.0333 0.0417,-0.0666 0.0916,-0.0666 0.05,0 0.33319,-0.17496 0.63306,-0.38321 1.20788,-0.86632 3.10718,-1.72432 5.04809,-2.2908 0.78309,-0.23325 1.66607,-0.53314 1.94927,-0.66642 0.28325,-0.13326 0.53316,-0.24154 0.55815,-0.24154 0.0666,0 1.1329,-0.67476 1.71603,-1.08296 0.29987,-0.21654 1.03292,-0.64974 1.62439,-0.9746 2.17417,-1.18292 2.19083,-1.19125 3.24878,-1.9743 1.21619,-0.89966 1.78265,-1.51605 2.14085,-2.3241 0.0583,-0.12493 0.13326,-0.2249 0.1666,-0.2249 0.0333,0 0.0666,-0.05 0.0666,-0.10832 0,-0.05 0.17492,-0.29153 0.38318,-0.51645 0.76638,-0.8497 0.86633,-1.04129 0.86633,-1.72436 0,-0.58313 -0.0166,-0.63309 -0.25825,-0.86633 -0.24987,-0.23328 -0.26653,-0.24158 -1.04955,-0.22492 -0.74975,0.0166 -1.841,0.25824 -2.05759,0.45816 -0.05,0.0333 -0.16659,0.0666 -0.2749,0.0666 -0.1,0 -0.64976,0.24158 -1.20786,0.53314 -0.56646,0.28324 -1.24954,0.61643 -1.5244,0.72474 -0.2749,0.0999 -0.55818,0.23322 -0.6248,0.2832 -0.0666,0.0584 -0.48315,0.20825 -0.91632,0.34155 -0.83303,0.24987 -0.92465,0.25824 -3.68194,0.18329 -1.14957,-0.025 -1.62439,0.14993 -2.1492,0.79968 -0.25824,0.33322 -0.37484,0.64975 -0.49982,1.34113 -0.20825,1.19125 -0.48315,1.82434 -0.858,2.03259 -0.13327,0.075 -0.39987,0.23325 -0.5831,0.34988 -1.07459,0.6581 -1.46612,0.858 -2.44074,1.24955 -0.59148,0.24157 -1.29956,0.51642 -1.57443,0.61639 -0.2749,0.1 -0.68307,0.2749 -0.91632,0.37488 -0.22491,0.10828 -0.52481,0.22491 -0.66641,0.25824 -0.1333,0.0416 -0.41652,0.10831 -0.62476,0.16659 -0.42486,0.10831 -1.31616,0.46653 -2.54071,1.00797 -0.45819,0.20825 -1.03295,0.44153 -1.2662,0.51648 -1.34949,0.44983 -1.98258,0.78302 -3.55698,1.87427 -0.5498,0.39153 -1.34117,0.93298 -1.75769,1.20788 -0.40818,0.2749 -0.89966,0.61645 -1.08292,0.76642 -0.18326,0.1499 -0.64144,0.48309 -1.01626,0.758 -0.9663,0.69143 -2.5407,2.14086 -3.77362,3.48205 -0.59143,0.64142 -1.21618,1.18286 -1.66602,1.4411 -1.41613,0.80805 -1.54944,0.8747 -2.14086,1.05796 -0.24158,0.075 -0.45817,0.17492 -0.48316,0.20825 -0.025,0.0417 -0.2999,0.15827 -0.59976,0.24991 -0.2999,0.0916 -0.66642,0.24156 -0.80802,0.32489 -0.14163,0.0833 -0.66644,0.31652 -1.17459,0.50811 -1.92427,0.73306 -3.02383,1.17456 -3.79022,1.49946 -0.43317,0.19158 -0.99963,0.42483 -1.24955,0.51647 -0.2499,0.0916 -0.49145,0.19989 -0.54143,0.23323 -0.0417,0.025 -0.24991,0.1 -0.45817,0.15825 -0.20825,0.0583 -0.55813,0.18329 -0.79138,0.27491 -0.43316,0.18328 -1.44112,0.51648 -1.95762,0.65808 -0.15825,0.0417 -0.59142,0.0917 -0.95794,0.1083 -0.36651,0.025 -0.77471,0.0667 -0.89966,0.0917 -0.17492,0.05 -0.28323,0.0166 -0.4165,-0.1083 -0.12497,-0.11663 -0.4082,-0.19994 -0.91635,-0.2749 -0.63309,-0.1 -0.73305,-0.1333 -0.69975,-0.25823 0.075,-0.26657 -0.1166,-0.25824 -0.35817,0.008 -0.1666,0.18329 -0.32489,0.25823 -0.51648,0.2749 -0.39985,0.0167 -0.4165,0.0167 -0.7164,0.1416 -0.20825,0.0833 -0.29987,0.0917 -0.37485,0.0167 -0.05,-0.05 -0.2999,-0.0916 -0.55813,-0.0916 -0.59977,0 -1.3245,-0.19159 -1.9076,-0.49982 -0.49147,-0.25823 -1.30787,-0.54144 -1.48277,-0.50814 -0.0583,0.008 -0.1083,-0.0333 -0.1083,-0.0916 0,-0.05 -0.1,-0.24157 -0.2166,-0.40817 -0.1166,-0.17493 -0.23325,-0.45819 -0.2582,-0.64145 -0.0417,-0.28322 -0.0167,-0.34152 0.13326,-0.39152 0.1,-0.025 0.19159,-0.14995 0.22491,-0.2749 0.0667,-0.31652 0.2749,-1.0246 0.35823,-1.22454 0.0416,-0.0916 0.15825,-0.44983 0.26653,-0.79136 0.1,-0.3415 0.23327,-0.69973 0.29157,-0.79134 0.0583,-0.0917 0.1666,-0.32489 0.23324,-0.52484 0.17492,-0.48316 0.38318,-0.93299 0.56646,-1.19952 0.0833,-0.11664 0.14994,-0.2999 0.14994,-0.39155 0,-0.1 0.0333,-0.24155 0.075,-0.32489 0.0417,-0.075 0.17493,-0.46646 0.29988,-0.87463 0.24156,-0.79138 0.21657,-0.79138 0.6581,-0.18329 0.32486,0.44153 1.23285,1.29953 1.75766,1.66608 0.23324,0.15826 0.50814,0.35818 0.62474,0.4498 0.11662,0.1 0.24992,0.17495 0.30824,0.17495 0.05,0 0.25824,0.12493 0.46649,0.28321 0.49149,0.37487 0.66641,0.46649 1.30783,0.67474 l 0.54148,0.18328 0.05,0.57478 c 0.0417,0.5748 0.25823,1.1329 0.55813,1.47442 0.42483,0.47486 2.1575,0.85804 3.01553,0.6581 1.10791,-0.25823 1.88264,-1.34114 1.96594,-2.75728 0.0167,-0.34155 0.0416,-0.62475 0.05,-0.63312 0.0167,-0.0166 0.2749,-0.1416 0.59146,-0.2832 0.39151,-0.1833 0.69974,-0.4165 1.03293,-0.75806 1.24121,-1.31616 1.7077,-2.49908 2.05755,-5.21472 0.075,-0.54144 0.17497,-1.12454 0.2166,-1.28282 0.05,-0.15828 0.0833,-0.42482 0.0833,-0.59145 0,-0.42485 -0.3665,-1.44113 -0.6664,-1.8493 -0.2416,-0.32489 -0.24992,-0.37488 -0.24992,-1.18289 0,-0.9913 -0.0666,-1.26621 -0.4165,-1.70766 -0.20825,-0.25825 -0.32488,-0.33327 -0.51648,-0.33327 -0.24158,0 -0.85803,-0.39151 -1.25784,-0.79135 -0.20829,-0.19992 -1.04129,-0.84968 -1.51612,-1.15786 -0.22491,-0.15832 -0.69974,-0.50818 -1.04126,-0.79139 l -0.61645,-0.50813 h -0.5831 c -0.54981,0 -0.59979,0.0167 -0.96631,0.32484 -0.20825,0.17493 -0.51648,0.39988 -0.67474,0.49982 -0.67475,0.41651 -0.49148,0.10831 0.60809,-1.00793 0.64143,-0.64978 1.29953,-1.39118 1.45779,-1.64939 0.63309,-0.97464 1.2995,-1.74102 1.96592,-2.25747 0.37487,-0.28321 0.87469,-0.69141 1.09962,-0.89967 1.59105,-1.44112 2.39906,-2.14086 2.74895,-2.35744 0.18325,-0.11664 0.38318,-0.27491 0.44983,-0.34989 0.0583,-0.0749 0.19992,-0.13327 0.29986,-0.13327 0.10831,0 0.20829,-0.05 0.23326,-0.1083 0.025,-0.0667 0.39153,-0.38318 0.8247,-0.70807 0.6914,-0.53315 1.71603,-1.54108 2.35745,-2.34909 0.59143,-0.74144 1.81598,-1.89096 2.4574,-2.32414 0.91632,-0.60812 1.97425,-1.42443 2.28247,-1.74932 0.1416,-0.14166 0.33322,-0.25824 0.43316,-0.25824 0.10828,0 0.21659,-0.0417 0.24158,-0.0833 0.025,-0.05 0.1416,-0.0583 0.24991,-0.0333 0.10831,0.025 0.46649,-0.0417 0.83303,-0.16662 0.3582,-0.11658 0.70808,-0.21656 0.78303,-0.21656 0.075,0 0.2749,-0.075 0.44983,-0.16662 0.31654,-0.16657 1.10791,-0.48316 1.64104,-0.64978 0.5498,-0.16657 1.791,-0.34986 2.43244,-0.34986 0.57476,0 0.64142,-0.0166 0.69141,-0.17492 0.0333,-0.10828 0,-0.22492 -0.0917,-0.33319 -0.13327,-0.14165 -0.26657,-0.1583 -1.60772,-0.1583 -1.70768,0 -1.85764,-0.13327 -0.21658,-0.19162 1.58273,-0.0583 3.3404,-0.19156 3.44866,-0.25818 0.05,-0.0333 0.0917,-0.14995 0.0917,-0.25825 0,-0.4082 -0.39154,-0.44982 -1.91596,-0.20824 -0.75805,0.12494 -2.09924,0.0583 -2.34912,-0.11664 -0.16662,-0.11664 -0.16662,-0.12494 0.1,-0.25824 0.21656,-0.10828 0.63309,-0.1416 2.23248,-0.18326 1.08292,-0.025 2.05756,-0.0833 2.16583,-0.11662 0.23328,-0.0916 0.24991,-0.42485 0.0167,-0.6581 -0.15827,-0.15826 -0.24158,-0.1666 -2.44907,-0.1083 -2.35745,0.05 -2.54905,0.0333 -2.54905,-0.27487 0,-0.14993 0.37486,-0.33323 0.83302,-0.39987 0.65808,-0.0833 2.19085,-0.28321 2.68231,-0.34153 0.25827,-0.025 0.51647,-0.10827 0.56647,-0.16659 0.14996,-0.18326 0.0666,-0.39984 -0.20826,-0.53314 -0.20824,-0.1 -0.34152,-0.1 -0.833,-0.0167 -0.86634,0.1583 -1.57441,0.25824 -2.49074,0.34157 -0.44982,0.0416 -0.84136,0.1 -0.85802,0.11662 -0.025,0.025 -0.12494,0.008 -0.23321,-0.0334 -0.14164,-0.05 -0.30823,0 -0.71644,0.22493 -0.54143,0.29988 -1.49943,0.6081 -1.94091,0.6081 -0.21662,0 -0.23325,-0.0167 -0.19159,-0.2749 0.025,-0.1416 0.0833,-0.4165 0.1416,-0.59976 0.22491,-0.77472 0.16662,-1.44949 -0.16663,-1.74936 -0.1416,-0.1333 -0.15826,-0.12494 -0.27487,0.0583 -0.0666,0.0999 -0.20825,0.43317 -0.3082,0.73306 -0.1083,0.29154 -0.28326,0.69971 -0.39153,0.89966 -0.10828,0.19158 -0.3249,0.69974 -0.47483,1.12458 -0.3082,0.85803 -0.50815,1.27453 -0.92465,1.9326 -0.1666,0.25825 -0.26657,0.4998 -0.24158,0.57478 0.025,0.075 0.008,0.13327 -0.0416,0.13327 -0.05,0 -0.27492,0.14163 -0.49982,0.30825 -0.23325,0.1749 -0.63312,0.4248 -0.8997,0.56645 -0.3998,0.19992 -1.65767,0.94961 -2.19082,1.2995 -0.0666,0.0417 -0.23324,0.14163 -0.36651,0.22491 -0.12497,0.075 -0.47483,0.2999 -0.76639,0.49149 -0.2999,0.19158 -0.67474,0.4165 -0.8497,0.49148 -0.1666,0.0833 -0.56644,0.35819 -0.87464,0.60812 -0.97467,0.79135 -2.05758,1.51605 -2.93224,1.94922 -0.95798,0.48319 -2.00757,1.21625 -2.63233,1.83265 -0.64142,0.64144 -1.5744,1.74102 -2.03259,2.3991 -0.31653,0.44153 -0.67475,0.89136 -1.24952,1.56611 -0.1416,0.16659 -0.39154,0.46649 -0.54146,0.67474 -0.15827,0.20825 -0.5165,0.60809 -0.78306,0.89966 -0.27487,0.2832 -0.64142,0.7164 -0.81634,0.95794 -0.48316,0.64143 -0.54148,0.71643 -1.14124,1.34949 -0.29986,0.32489 -0.86633,0.95798 -1.25786,1.40784 -0.39152,0.44983 -0.8913,0.99127 -1.11625,1.20785 -0.21659,0.20825 -0.7414,0.7081 -1.14957,1.10795 -0.40818,0.40817 -0.76636,0.73306 -0.79968,0.73306 -0.1916,-0.008 -0.73307,-0.41654 -0.86637,-0.64978 -0.0833,-0.14994 -0.24988,-0.37485 -0.36651,-0.49978 -0.11662,-0.125 -0.41652,-0.4915 -0.65808,-0.80805 -0.36652,-0.49982 -0.54981,-0.64978 -1.14957,-0.99131 -0.39984,-0.21658 -0.80805,-0.48312 -0.90799,-0.5831 -0.34155,-0.32489 -0.74973,-0.83304 -0.883,-1.11627 -0.075,-0.1416 -0.15828,-0.26657 -0.19992,-0.26657 -0.0333,0 -0.0667,-0.0416 -0.0667,-0.0916 0,-0.05 -0.1666,-0.34987 -0.37487,-0.66643 -0.20825,-0.31655 -0.37483,-0.59979 -0.37483,-0.62475 0,-0.025 -0.075,-0.15827 -0.1666,-0.2832 -0.4415,-0.62479 -0.94965,-1.78272 -1.49946,-3.41542 -0.32489,-0.98296 -0.72474,-2.0076 -0.88299,-2.27416 -0.15827,-0.26654 -0.28321,-0.52478 -0.28321,-0.56644 0,-0.0417 -0.39154,-0.45816 -0.86636,-0.93295 -0.47482,-0.46652 -1.19122,-1.24121 -1.59108,-1.72439 -0.3915,-0.48313 -0.86632,-1.04126 -1.04958,-1.24952 -0.46649,-0.54147 -1.32452,-1.82431 -1.32452,-1.99094 0,-0.0749 -0.13327,-0.3415 -0.29987,-0.59142 -0.16663,-0.24988 -0.37487,-0.5998 -0.45819,-0.76636 -0.0833,-0.16662 -0.34152,-0.49982 -0.56644,-0.74139 -0.2499,-0.26658 -0.44982,-0.56647 -0.50814,-0.77473 -0.12494,-0.44982 0.008,-3.66528 0.16662,-3.95684 0.0666,-0.1333 0.0833,-0.36652 0.05,-0.69141 -0.0417,-0.44983 -0.025,-0.54145 0.24158,-1.06625 0.45816,-0.91635 0.38321,-1.24954 -0.28324,-1.24954 -0.29153,0 -0.45813,0.0583 -0.67474,0.23321 z m 4.66492,52.16373 c 0,0.0416 -0.0167,0.0833 -0.0333,0.0833 -0.025,0 -0.0666,-0.0416 -0.0916,-0.0833 -0.025,-0.05 -0.008,-0.0833 0.0333,-0.0833 0.05,0 0.0916,0.0333 0.0916,0.0833 z"
         id="path2" />
    </g>
    <g
       style="fill:#000000;fill-opacity:1;stroke-linejoin:miter"
       id="g8">
      <path
         d="m 287.3925,477.78287 -4.42616,-4.18737 q -1.41984,-1.79652 -2.03107,-3.2872 -0.24867,-0.5848 -0.45581,-1.2847 l -0.19416,-0.7359 q -0.1825,-0.76832 -0.30788,-1.69496 -0.12564,-0.93394 -0.18247,-2.01129 l -0.0363,-1.09857 q -0.0175,-1.12711 0.0535,-2.30972 0.071,-1.18266 0.24353,-2.36226 l 0.20124,-1.16414 0.25857,-1.13333 0.31919,-1.08786 0.38305,-1.02771 0.45026,-0.95294 0.51916,-0.86716 0.58374,-0.78522 q 0.61603,-0.7442 1.33774,-1.35424 0.31242,-0.36652 2.34415,-1.6029 1.23077,-0.7269 4.41567,-2.0256 l -0.47262,5.28175 -3.00328,25.69132"
         id="path6" />
    </g>
    <g
       style="fill:#000000;fill-opacity:1;stroke-linejoin:miter"
       id="g12">
      <path
         d="m 307.6036,467.33148 -2.61367,0.61466 q -1.61153,-0.87494 -3.11969,-1.53568 -0.99902,-0.42731 -1.87546,-0.60076 -0.43628,-0.0828 -0.83044,-0.0783 l -0.38239,0.028 q -0.37088,0.0518 -0.70475,0.16077 -0.0376,-0.01 -1.2323,0.47393 -0.28676,0.10901 -0.5634,0.16095 -0.27665,0.052 -0.55216,0.009 l -0.27747,-0.0764 q -0.27917,-0.10999 -0.56549,-0.34207 l -0.28778,-0.25706 q -0.28943,-0.28478 -0.58404,-0.65835 -0.73529,-0.91175 -2.09896,-3.23642 0.0327,2.23277 0.39702,3.29187 0.13768,0.4279 0.35626,0.81342 l 0.2439,0.37225 q 0.26662,0.36035 0.64456,0.66241 0.77988,0.59208 1.92166,0.99162 0.56318,0.20364 1.1704,0.38235 l 2.45082,0.69223 0.59055,0.18052 0.56616,0.19118 q 0.55057,0.19827 1.04233,0.42322 1.55274,0.63965 4.03574,2.6499 l 2.2686,-5.31302"
         id="path10" />
    </g>
  </g>
</svg>
