<?xml version="1.0" encoding="UTF-8" standalone="no"?>
<svg
   xmlns:dc="http://purl.org/dc/elements/1.1/"
   xmlns:cc="http://creativecommons.org/ns#"
   xmlns:rdf="http://www.w3.org/1999/02/22-rdf-syntax-ns#"
   xmlns:svg="http://www.w3.org/2000/svg"
   xmlns="http://www.w3.org/2000/svg"
   xmlns:sodipodi="http://sodipodi.sourceforge.net/DTD/sodipodi-0.dtd"
   xmlns:inkscape="http://www.inkscape.org/namespaces/inkscape"
   version="1.1"
   id="Layer_1"
   x="0px"
   y="0px"
   viewBox="0 0 1485.8408 1855.9708"
   enable-background="new 0 0 1185.09 1621"
   xml:space="preserve"
   sodipodi:docname="alone_moving_female15.svg"
   width="1485.8407"
   height="1855.9708"
   inkscape:version="1.0.2 (e86c870879, 2021-01-15)"><metadata
   id="metadata9"><rdf:RDF><cc:Work
       rdf:about=""><dc:format>image/svg+xml</dc:format><dc:type
         rdf:resource="http://purl.org/dc/dcmitype/StillImage" /><dc:title></dc:title></cc:Work></rdf:RDF></metadata><defs
   id="defs7" /><sodipodi:namedview
   pagecolor="#ffffff"
   bordercolor="#666666"
   borderopacity="1"
   objecttolerance="10"
   gridtolerance="10"
   guidetolerance="10"
   inkscape:pageopacity="0"
   inkscape:pageshadow="2"
   inkscape:window-width="1920"
   inkscape:window-height="997"
   id="namedview5"
   showgrid="false"
   fit-margin-top="0"
   fit-margin-left="0"
   fit-margin-right="0"
   fit-margin-bottom="0"
   inkscape:zoom="0.14558914"
   inkscape:cx="765.12519"
   inkscape:cy="907.26606"
   inkscape:window-x="0"
   inkscape:window-y="0"
   inkscape:window-maximized="1"
   inkscape:current-layer="Layer_1"
   inkscape:document-rotation="0" />
<rect
   style="fill:#ffffff;stroke-width:5.66929;stroke-linecap:square;stroke-linejoin:round;stroke-dasharray:11.3386, 11.3386"
   id="rect830"
   width="1485.8407"
   height="1855.9708"
   x="0"
   y="0" /><path
   d="m 1330.6342,155.45342 c 3.875,-4.637 7.181,-5.508 0.834,-8.126 -4.485,-1.85 -9.072,-3.684 -14.086,-3.575 -4.163,0.091 -8.07,-1.641 -12.323,-1.388 -3.752,0.224 -7.915,2.142 -11.293,-1.566 -0.444,-0.487 -2.438,-0.405 -2.932,0.133 -5.222,5.685 -8.591,-4.431 -17.234,-6.552 -2.359,4.102 -6.411,6.32 -10.281,8.902 -26.81,17.884 -12.877,5.593 -56.862,54.371 -6.925,7.678 -2.16,10.357 -15.935,14.234 -14.442,4.065 -18.483,2.056 -24.664,8.249 -14.906,14.935 -148.486,12.667 -221.247,28.506 -5.054,1.1 -10.221,3.168 -15.186,2.793 -5.396,-0.408 -9.915,5.273 -15.47,1.622 -0.349,-0.229 -1.718,0.872 -2.469,1.521 -10.943,9.448 -58.604,-1.982 -64.599,-3.196 -16.182,-3.276 -32.853,-4.476 -48.246,-11.141 -12.788,-5.538 -26.855,-8.21 -38.173,-17.079 -1.168,-0.915 -2.818,-1.301 -4.307,-1.705 -5.042,-1.368 -9.73,-3.539 -14.329,-5.967 -57.224,-30.202 -84.682,-22.27 -95.902,-35.727 -2.639,-3.164 -5.842,-6.972 -10.8,-6.472 -6.939,0.7 -13.895,1.657 -18.754,7.67 -7.572,9.369 -31.252,8.522 -50.945,31.015 -10.639,12.152 -18.819,10.252 -39.756,21.363 -6.904,3.664 -16.985,12.725 -16.985,12.725 -12.346,2.802 -9.786,21.697 -29.153,15.238 -4.736,-1.58 -4.29,-5.51 -5.241,-8.629 -4.11,-13.476 -9.06,-26.696 -19.028,-36.833 -10.306,-10.481 -17.57,-23.691 -29.657,-32.506 -1.24,-0.904 -2.371,-2.096 -3.217,-3.375 -6.182,-9.348 -24.418,-23.947 -35.65,-38.982 -1.982,-2.654 -19.855,-12.612 -22.157,-13.836 -121.79899,-64.766999 -202.14899,33.83 -165.56599,166.65 0.823,2.987 2.876,6.045 0.908,9.572 -1.444,2.587 15.156,40.269 24.472,45.678 5.688,3.302 -3.672,22.865 -0.505,33.03 1.106,3.549 1.572,5.214 5.793,2.461 2.462,-1.606 6.596,-0.456 9.9,-1.011 15.743,-2.64 22.173,-19.647 22.234,10.423 0.265,127.686 -0.377,118.376 0.624,120.783 5.417,13.04 2.561,27.815 8.575,40.73 0.288,0.62 0.101,1.582 -0.128,2.302 -4.808,15.139 -2.04,22.323 -5.863,26.933 -2.64,3.184 -3.776,6.887 -3.687,11.449 5.672,0 9.168,-1.047 8.154,4.377 -0.187,1.001 -9.115,16.442 8.109,17.533 5.367,0.34 3.381,4.342 6.646,0.653 4.36,-4.926 7.02699,-2.119 8.62099,4.207 1.742,6.915 1.73,6.948 8.685,7.519 1.86,0.153 4.134,0.09 3.713,2.664 -0.977,5.966 1.843,11.479 1.408,17.591 -0.909,12.789 -3.097,24.206 4.615,19.794 4.44,-2.54 10.433,-3.985 10.181,-11.034 -0.136,-3.798 5.454,-5.673 5.632,-1.601 0.206,4.701 3.468,9.211 -0.708,15.242 5.892,-4.254 9.684,-10.157 10.421,-15.225 0.261,-1.798 -0.077,-3.951 1.856,-4.8 3.203,-1.406 2.865,-3.2 1.973,-6.137 -7.379,-24.28 27.337,-14.626 30.771,-48.025 0.112,-1.089 0.573,-1.96 1.766,-2.227 1.766,1.635 6.827,14.326 7.231,15.33 25.618,63.692 43.582,86.075 76.348,141.09 40.3,67.666 49.514,70.794 58.034,93.462 3.076,8.185 32.765,56.528 34.246,59.078 18.617,32.059 25.773,29.197 34.205,48.274 -4.895,3.598 -9.6,7.441 -16.01,6.878 -8.268,-0.727 -12.548,2.574 -26.52,9.82 -6.475,3.358 -3.747,-4.1 -19.207,-5.312 -8.617,-0.675 -16.871,2.653 -25.466,1.818 -3.704,-0.36 -7.104,0.976 -10.48,2.435 -31.229,13.495 -38.48,-1.087 -57.58,15.052 -15.863,13.404 -13.195,45.59998 -19.033,56.56298 -2.283,4.287 4.228,8.916 -5.955,18.881 -1.098,-0.327 -1.59,-1.221 -2.172,-2.101 C 284.35521,881.56042 293.7462,898.47942 264.73821,812.11742 c -6.443,-19.18 -24.267,-71.626 -36.765,-87.809 -1.983,-2.568 -4.391,-4.078 -7.926,-3.009 -29.389,8.888 -17.38,34.117 -17.731,52.845 -0.514,27.487 41.579,170.466 47.21,189.439 9.78,32.951 13.103,33.397 4.933,37.28698 -7.981,3.801 -21.682,12.587 -24.428,25.285 -12.368,57.208 29.945,57.33 30.05,66.62 0.521,45.893 1.437,44.876 -3.317,46.453 -23.347,7.741 -33.808,23.939 -33.835,42.596 -0.036,25.261 -0.095,25.661 0.585,27.988 8.253,28.235 36.743,41.785 65.686,36.83 49.33599,-8.445 34.07499,-65.393 35.08199,-77.931 0.125,-1.561 -0.373,-2.843 -1.488,-4.194 -7.02,-8.51 8.844,-6.491 8.128,-17.41 -0.074,-1.127 1.566,-4.675 6.87,4.603 22.422,39.222 175.492,248.374 203.975,291.699 7.268,11.055 -6.03,10.033 -1.923,31.052 8.143,41.668 28.587,29.099 32.755,34.452 3.706,4.761 3.553,15.001 -0.394,20.068 -4.204,5.396 -3.505,7.335 -0.26,13.232 3.687,6.7 10.376,-0.275 12.615,8.369 13.18,50.906 15.371,49.926 9.172,52.818 -22.076,10.303 -15.101,28.742 -10.229,56.332 2.822,15.98 18.576,28.832 51.122,17.347 33.348,-11.768 23.181,-39.389 17.301,-59.798 -7.161,-24.856 -29.844,-18.417 -35.251,-20.663 7.869,-56.931 4.155,-42.866 35.273,-1.13 52.341,70.198 54.717,94.274 120.185,111.007 7.784,1.989 22.879,-9.002 25.873,-10.906 9.83,-6.25 7.287,-28.284 5.603,-34.327 -6.178,-22.162 0.373,-23.032 -2.183,-39.337 -1.846,-11.77 5.27,-13.875 4.999,-24.579 -0.185,-7.266 2.271,-14.067 6.319,-19.632 9.184,-12.628 14.509,-27.184 21.774,-40.756 1.514,-2.828 6.336,-4.537 7.378,0.221 0.827,3.78 2.116,7.458 1.862,11.46 -1.593,25.123 18,63.012 -7.725,90.124 -1.662,1.752 -3.682,3.614 -3.043,6.561 3.628,0.53 2.751,-2.006 13.516,-15.562 10.429,-13.134 8.553,-28.841 7.41,-42.483 -2.937,-35.036 -3.666,-34.183 -1.043,-34.862 8.997,-2.328 7.035,-19.181 4.616,-28.126 -5.597,-20.7 14.435,-19.967 4.231,-28.487 -2.065,-1.724 -1.67,-4.283 0.048,-6.295 6.543,-7.661 5.755,-16.321 3.328,-25.088 -2.815,-10.166 -5.163,-11.783 -15.892,-11.811 -5.456,-0.014 -2.258,-6.577 2.093,-6.436 5.547,0.18 10.682,-1.786 15.976,-2.975 22.125,-4.968 23.693,4.58 29.969,-3.016 7.833,-9.482 14.868,-19.424 15.202,-32.444 0.067,-2.613 0.223,-5.087 1.793,-7.411 17.555,-25.982 22.764,-42.287 42.197,-80.203 26.595,-51.891 94.348,-113.427 114.515,-172.936 4.397,-12.977 3.847,-5.587 23.839,-40.861 3.957,-6.983 7.369,-14.796 12.991,-20.187 7.535,-7.225 10.189,-15.766 11.961,-25.23 0.359,-1.919 2.771,-6.865 3.126,-10.379 2.016,-19.939 7.604,-61.21698 -1.126,-78.49798 -8.229,-16.291 -10.784,-44.07 -18.944,-69.49 -10.443,-32.527 -12.193,-27.232 -28.978,-55.218 -4.333,-7.226 -9.285,-13.921 -15.785,-19.079 -6.204,-4.923 -9.871,-12.034 -16.022,-16.886 -2.195,-1.731 -1.351,-5.109 -3.528,-13.324 -7.664,-28.925 -16.346,-16.982 -25.541,-38.393 -12.627,-29.407 -12.112,-23.525 -20.853,-33.071 -15.651,-17.097 -16.322,-28.729 -32.771,-41.909 -8.661,-6.939 -0.679,-5.612 -8.167,-16.87 -10.667,-16.037 -32.116,-53.811 -59.022,-90.578 -50.252,-68.669 -14.561,-19.236 -72.936,-102.929 -41.209,-59.081 -43.217,-77.372 -61.422,-101.824 -5.978,-8.029 -5.754,-17.519 -9.003,-26.111 -2.687,-7.103 13.769,2.184 66.839,0.683 164.097,-4.641 156.642,-11.299 276.502,-42.791 10e-4,0 85.503,-22.103 85.503,-22.103 11.449,-2.739 10.881,9.438 23.648,0.297 16.894,-12.096 24.922,-8.889 39.041,-24.776 28.122,-31.643 26.954,-47.128 45.817,-47.579 4.685,-0.112 4.638,-4.206 14.206,-3.97 14.266,0.352 16.035,0.572 16.669,-3.374 1.691,-10.52 -33.402,-4.71 -32.958,-14.296 0.288,-6.213 23.281,-4.787 31.391,-2.348 16.099,4.84 17.084,-5.233 10.455,-10.078 -5.959,-4.354 -11.594,-9.525 -19.82,-9.468 13.005,-7.526 27.685,9.583 34.661,-1.211 -1.595,-5.09 -6.618,-6.755 -10.088,-9.885 z m -995.796,458.373 c -4.513,-11.745 -4.927,-23.931 -3.756,-36.287 4.695,11.725 5.312,23.889 3.756,36.287 z m 9.69,7.094 c -0.375,-17.991 -4.631,-34.796 -6.686,-52.133 7.489,0.604 19.479,41.202 6.686,52.133 z m 11.511,-20.594 c -3.57,-15.311 -0.09,-14.334 -8.645,-33.744 -2.578,-5.847 -2.853,-6.12 -2.136,-7.046 1.273,-1.647 6.616,10e-4 11.319,8.451 6.223,11.185 2.715,21.575 -0.538,32.339 z m -53.704,499.28798 -13.51799,15.208 8.83899,-22.617 c -0.001,0 6.628,1.82 4.679,7.409 z m 250.006,-375.11798 c -23.097,-49.437 -43.425,-78.571 -52.69,-107.739 7.631,5.784 17.272,7.452 24.758,13.357 18.478,14.575 27.752,14.662 34.2,22.597 7.695,9.471 14.124,8.42 13.769,15.474 -1.43,28.42 21.463,25.88 18.739,43.537 -0.216,1.399 6.811,32.063 13.914,38.793 12.407,11.758 6.416,21.148 5.499,42.262 -0.469,10.79 -3.889,21.341 -2.419,32.261 0.299,2.219 0.414,4.738 -2.849,6.805 -1.927,-3.473 -34.98,-68.946 -52.921,-107.347 z m 13.159,402.74498 c -1.541,1.917 -3.184,4.113 -5.039,6.115 -0.302,0.326 -1.638,-0.51 -1.544,-1.268 0.59,-4.738 5.252,-9.768 6.583,-4.847 z m -6.047,-24.219 c 0.411,-3.141 3.478,-4.088 4.013,0.356 0.862,7.142 -3.372,12.899 -5.932,18.01 -1.008,2.011 -3.133,-0.338 -3.036,-1.43 0.529,-5.964 3.785,-8.006 4.955,-16.936 z m -15.161,8.721 c 0.429,-3.816 3.878,-2.513 3.917,-0.272 0.144,8.312 1.462,4.491 -5.913,19.309 -6.486,-3.537 0.475,-5.516 1.996,-19.037 z m 216.113,-80.476 c 120.087,-0.146 46.079,-0.479 87.784,-2.009 23.836,-0.875 59.392,-10.061 66.274,-2.67 8.396,9.016 18.026,8.8 22.677,23.479 5.049,15.93 20.021,20.192 13.619,25.27 -22.339,17.721 -28.689,47.456 -41.949,58.283 -0.574,0.469 -0.952,1.216 -1.323,1.889 -18.488,33.603 -40.349,59.501 -40.337,95.054 0.004,11.511 -6.186,11.131 -7.857,19.809 -4.874,25.333 -21.548,32.685 -20.341,44.358 1.476,14.269 -30.229,39.655 -43.909,74.98 -2.504,6.465 -8.497,11.027 -11.662,17.351 -0.562,1.122 -2.547,1.634 -3.964,2.206 -12.313,4.966 -21.417,6.863 -26.893,14.27 -1.628,2.202 -3.728,3.471 -6.608,3.462 -13.65,-0.044 -30.301,13.76 -30.151,32.574 0.445,55.912 21.217,56.958 8.892,85.786 -3.053,-1.438 0.339,0.36 -44.495,-43.574 -18.275,-17.908 -26.576,-31.121 -84.764,-122.441 -133.684,-209.806 -84.665,-123.614 -85.592,-180.274 -0.151,-9.205 3.45,-17.716 3.91,-26.763 0.097,-1.913 1.403,-3.891 2.52,-5.599 7.322,-11.189 6.69,-20.24 18.433,-21.901 -1.062,6.967 3.075,13.2 0.403,20.047 -2.805,7.189 -7.221,9.154 -6.866,22.817 6.078,-0.604 7.237,-7.061 11.787,-8.482 3.853,4.131 -11.047,20.131 -5.609,22.551 3.715,1.654 2.176,-1.976 12.808,-24.818 9.812,-21.08 26.288,-15.927 24.849,-35.245 -0.8,-10.745 4.386,-20.116 5.116,-30.382 0.328,-4.611 9.773,-8.835 14.353,-12.485 2.211,-1.762 5.427,-1.144 8.035,0.638 7.969,5.447 14.659,-2.379 27.076,-1.353 4.199,0.347 7.659,-1.362 10.228,-4.494 4.141,-5.047 9.907,-7.252 15.545,-9.915 6.147,-2.903 11.238,5.387 13.222,11.872 4.274,13.972 14.346,8.99 13.901,29.032 -0.541,24.375 5.989,32.639 6.255,48.351 0.665,39.231 8.642,33.831 -0.938,58.796 -1.319,3.438 -1.674,6.322 -0.006,9.636 6.209,12.34 1.263,40.137 13.058,41.735 4.597,0.623 9.82,-7.878 10.094,-17.372 0.51,-17.649 -1.523,-20.692 4.074,-23.103 3.182,-1.371 1.895,-3.901 2.228,-21.827 0.036,-1.943 -0.743,-5.14 1.915,-5.144 6.205,-0.01 -0.824,16.326 5.38,33.009 4.937,13.274 7.148,34.446 11.047,41.931 4.08,7.832 17.17,9.234 17.41,0.778 0.125,-4.401 0.627,-8.856 -0.358,-13.207 -2.235,-9.88 -0.555,-20.252 -3.836,-30.001 -0.443,-1.317 1.58,-3.718 3.468,-1.949 14.964,14.019 9.417,47.872 26.531,43.506 7.402,-1.888 2.945,-28.711 1.662,-36.206 -2.061,-12.033 7.623,-6.569 2.356,-14.746 -2.227,-3.457 -5.753,-19.256 -4.884,-23.571 2.205,3.403 5.108,6.429 4.776,10.833 -0.166,2.201 0.41,4.317 1.809,5.818 9.955,10.691 9.186,28.61 16.139,38.977 7.101,10.587 17.704,9.191 18.225,-5.853 0.417,-12.066 -7.278,-21.318 -6.483,-36.466 0.582,-11.082 -10.027,-25.391 -9.454,-36.472 0.369,-7.134 -7.256,-9.751 -3.619,-19.73 16.978,17.444 12.834,24.596 23.418,22.805 5.633,-0.953 7.511,-4.548 4.674,-9.467 -5.942,-10.304 -11.94,-14.483 -10.318,-24.275 1.752,-10.582 -5.95,-12.04 -9.72,-22.923 -12.057,-34.802 -45.86,-48.582 -50.164,-67.004 -1.032,-4.418 -3.917,-8.384 -5.795,-12.631 -2.97,-6.732 4.611,-7.542 11.944,-7.551 z"
   id="path2"
   inkscape:connector-curvature="0" />
</svg>
