<?xml version="1.0" encoding="UTF-8" standalone="no"?>
<svg
   xmlns:dc="http://purl.org/dc/elements/1.1/"
   xmlns:cc="http://creativecommons.org/ns#"
   xmlns:rdf="http://www.w3.org/1999/02/22-rdf-syntax-ns#"
   xmlns:svg="http://www.w3.org/2000/svg"
   xmlns="http://www.w3.org/2000/svg"
   xmlns:sodipodi="http://sodipodi.sourceforge.net/DTD/sodipodi-0.dtd"
   xmlns:inkscape="http://www.inkscape.org/namespaces/inkscape"
   width="218.04504mm"
   height="261.50668mm"
   version="1.1"
   viewBox="0 0 772.59532 926.60064"
   id="svg12"
   sodipodi:docname="alone_moving_female10.svg"
   inkscape:version="1.0.2 (e86c870879, 2021-01-15)">
  <metadata
     id="metadata18">
    <rdf:RDF>
      <cc:Work
         rdf:about="">
        <dc:format>image/svg+xml</dc:format>
        <dc:type
           rdf:resource="http://purl.org/dc/dcmitype/StillImage" />
        <dc:title></dc:title>
      </cc:Work>
    </rdf:RDF>
  </metadata>
  <defs
     id="defs16" />
  <sodipodi:namedview
     pagecolor="#ffffff"
     bordercolor="#666666"
     borderopacity="1"
     objecttolerance="10"
     gridtolerance="10"
     guidetolerance="10"
     inkscape:pageopacity="0"
     inkscape:pageshadow="2"
     inkscape:window-width="1920"
     inkscape:window-height="997"
     id="namedview14"
     showgrid="false"
     fit-margin-top="0"
     fit-margin-left="0"
     fit-margin-right="0"
     fit-margin-bottom="0"
     inkscape:zoom="0.52608013"
     inkscape:cx="8.5679207"
     inkscape:cy="431.40043"
     inkscape:window-x="0"
     inkscape:window-y="0"
     inkscape:window-maximized="1"
     inkscape:current-layer="svg12" />
  <rect
     style="fill:#ffffff;fill-opacity:1;stroke:none;stroke-width:5.31497;stroke-linecap:square;stroke-linejoin:round;stroke-dasharray:10.63, 10.63"
     id="rect843"
     width="772.60236"
     height="926.60059"
     x="-0.0035404377"
     y="5.3290705e-14" />
  <g
     transform="matrix(2.62033,0,0,2.62033,-542.14688,-896.63234)"
     id="g10">
    <g
       fill-rule="evenodd"
       stroke="#000000"
       stroke-width="1px"
       id="g8">
      <path
         d="m 345,357.86 -7.125,0.625 -2.875,2.875 -1,2 h -1 l -3.25,-0.125 -2.625,0.375 -3.125,2.25 -1,3.5 v 4 l -1.5,6.5 v 7.5 l 1.5,2.5 v 2 l -2.5,3.5 2.5,3 0.5,2.5 v 1.5 l 2,2.5 -1,1 c 0,0 -0.30771,1.1059 0,1.5 0.4229,0.54164 2,0.5 2,0.5 v 1.5 c 0,0 0.19072,2.3246 1,3 0.9048,0.75513 2.3226,0.55001 3.5,0.5 2.2216,-0.0944 6.5,-1.5 6.5,-1.5 l 1.5,3.5 21,-6 15,-6 -2,11.5 4,-8 3,9.5 -3,-14.5 1.875,-12 c 0.0516,-3.9484 -0.63195,-9.257 -1.875,-14.5 -1.72,-1.4945 -2.7774,-2.8686 -8,-5 l -6.5,2 -3.5,-7.5 -5,-3.5 z m 18.5,19.75 1.75,0.125 H 366 l 1.25,0.25 0.375,2.5 -0.25,3.375 -2.625,5.75 -2.75,3.25 -3.125,1.375 v -1.875 l 2.625,-2.125 c 0,0 1.631,-0.97673 2.125,-1.75 0.53323,-0.83461 0.7012,-1.8858 0.75,-2.875 0.079,-1.601 -0.75,-4.75 -0.75,-4.75 z"
         id="path2" />
      <path
         d="m 358.25,409.24 1.125,2.75 12.75,4.125 11,3.5 4.016,2.1875 6.7175,5.1265 1.0607,1.0607 -0.53033,1.0607 12.611,7.5646 6,4.5 6.25,5.5 c 0,0 2.394,2.4216 2.75,4 0.46417,2.0581 -1,6.25 -1,6.25 l -1.75,9 -2,8 -2.5,6.5 -2.25,6.25 -0.25,4.25 -2,4 -0.75,2.5 -0.25,3.75 -2,4 -4,3.75 -4.25,3 -2.75,-0.5 -3.75,1 -1.5,-2 -2,0.75 -3.25,-4 -3.75,0.25 v -2.75 l 5,-4 5.25,-2.5 0.75,-1.75 -5.25,3.25 -2,-1.5 v -2 l 2.5,-2 3,-4 2,-2 h 2.75 l 4.25,1.25 1.75,-3.5 2,-4 1,-8 1,-12.5 1,-7 -22.5,-11.75 -1,1 -2,-1.25 -2,4.75 -1.5,1.75 -1.5,2 v 3.5 h -0.75 l -2.75,6.5 -0.5,4 -3,6.25 -0.25,3 v 2.25 l -1,2.5 0.25,2.5 -0.75,2.5 1.5,1.25 0.25,2.75 1.25,3.75 -0.5,3 2,3.25 4.25,12.25 2.25,17 -1,9.75 -1.75,7.75 -52.75,-6 1,-4.5 4.25,-1 4,-2.75 -1,-7.5 -0.75,-4.75 -2,-2.75 0.5,-9.75 -1.25,-8.75 -1,-9 -1.5,-10.75 -1.75,-12.5 -3.5,-2.75 -4.75,11.5 -6,4.25 h -9 l -10.75,-4.5 -3,-2.75 -5.25,0.25 -4,-4.5 -2,-3.25 1.25,-6.5 v -2 l 1.25,-1 5.5,-5 1.75,0.75 h 0.75 l -0.75,-1.25 1,-1 3.75,2.75 2,4.75 c 0,0 1.4746,1.5208 1.75,2.5 0.36168,1.286 -0.25,4 -0.25,4 l 9.25,0.5 1.75,-2 4,-9.25 4,-6.75 1.5,-3 -1.25,-4.25 4,-7.25 1.5,-4.75 9,-5.25 9,-4.75 2.75,-2.25 z"
         id="path4" />
      <path
         d="m 325,537.61 -4.75,5.25 -9,6.5 -9.25,7 -6.75,5 -4.5,5.75 -1,2 -5,3.25 -2,2.75 -0.5,4 1,4 0.75,2.5 -0.5,3.75 -0.25,4.75 -1.5,8.5 -1,5.25 -0.75,7.25 -2,10.75 -2.75,8.25 -3.25,9.75 -3.75,7.25 -2,2.25 -2.5,-1.25 -3.75,6.25 -6.25,3.25 -6.5,3.5 -4.25,1.75 -6,-1.75 h -3.75 l -2,2.75 -1,1.75 2,3.5 5.75,3.75 9.5,3.25 7.75,1 7.5,-2 3.25,-0.5 15.75,0.5 3.5,-7 -2.5,-5.25 0.75,-6.5 -1.5,-1 1,-6.5 4.75,-8.5 4.75,-9 5.75,-11 4.25,-9 2,-8 1,-11.75 0.25,-6.25 2.25,-3.25 2.5,-3.25 4,-1.5 7.75,-5.25 7.25,-4.25 7.25,-4.75 6,-4.75 3.5,-3 4.75,9.25 7.75,13.25 7.5,9.25 6.25,8.25 3.5,4 3.25,1.75 2.5,0.25 h 7.5 l 3.75,0.5 6.75,2.75 6.75,2.25 8,2.5 6.5,2.5 7.5,2.25 5.25,1.75 7,4.25 5.75,3.5 7.25,6 -1.25,2 4,4 4.25,3.75 3.75,3.5 1,5.25 0.5,7.25 v 3 l 3,4.5 h 2 l 3.25,-4.75 3,-7 v -6.25 l -0.5,-9 -1.5,-6.25 0.25,-10 -1,-9.75 -3.25,-4 -2.5,-0.5 -1.75,0.75 -1.5,1.75 -6.25,1.5 -4.25,-1.75 0.5,2.25 -9.5,-4.75 -8,-7 -8,-4.75 -2.5,-1 -6.25,-5 -4,-2.5 -7,-2 -6.25,-1.75 -5.25,-0.5 -4,-1.5 -4,-2.5 -3.5,-7 -4,-9.25 -5,-10 -5.25,-13 z"
         id="path6" />
    </g>
  </g>
</svg>
