<?xml version="1.0" encoding="UTF-8" standalone="no"?>
<svg
   xmlns:dc="http://purl.org/dc/elements/1.1/"
   xmlns:cc="http://creativecommons.org/ns#"
   xmlns:rdf="http://www.w3.org/1999/02/22-rdf-syntax-ns#"
   xmlns:svg="http://www.w3.org/2000/svg"
   xmlns="http://www.w3.org/2000/svg"
   xmlns:sodipodi="http://sodipodi.sourceforge.net/DTD/sodipodi-0.dtd"
   xmlns:inkscape="http://www.inkscape.org/namespaces/inkscape"
   width="1132.088mm"
   height="2965.1663mm"
   viewBox="0 0 1132.088 2965.1663"
   version="1.1"
   id="svg2008"
   inkscape:version="1.0.2 (e86c870879, 2021-01-15)"
   sodipodi:docname="alone_moving_female20.svg">
  <defs
     id="defs2002" />
  <sodipodi:namedview
     id="base"
     pagecolor="#ffffff"
     bordercolor="#666666"
     borderopacity="1.0"
     inkscape:pageopacity="0.0"
     inkscape:pageshadow="2"
     inkscape:zoom="0.04109526"
     inkscape:cx="6803.5127"
     inkscape:cy="8049.7502"
     inkscape:document-units="mm"
     inkscape:current-layer="layer1"
     showgrid="false"
     fit-margin-top="0"
     fit-margin-left="0"
     fit-margin-right="0"
     fit-margin-bottom="0"
     inkscape:window-width="1920"
     inkscape:window-height="997"
     inkscape:window-x="0"
     inkscape:window-y="0"
     inkscape:window-maximized="1"
     inkscape:document-rotation="0" />
  <metadata
     id="metadata2005">
    <rdf:RDF>
      <cc:Work
         rdf:about="">
        <dc:format>image/svg+xml</dc:format>
        <dc:type
           rdf:resource="http://purl.org/dc/dcmitype/StillImage" />
        <dc:title></dc:title>
      </cc:Work>
    </rdf:RDF>
  </metadata>
  <g
     inkscape:label="Ebene 1"
     inkscape:groupmode="layer"
     id="layer1"
     transform="translate(886.8725,2685.2988)">
    <rect
       style="fill:#ffffff;stroke-width:1.5;stroke-linecap:square;stroke-linejoin:round;stroke-dasharray:3, 3"
       id="rect831"
       width="1132.088"
       height="2965.1663"
       x="-886.8725"
       y="-2685.2988" />
    <path
       inkscape:connector-curvature="0"
       style="clip-rule:evenodd;fill-rule:evenodd;stroke-width:8.37642"
       d="m -107.4325,-2330.0404 c 3.29194,37.9451 -13.72053,52.4028 -18.30241,81.6699 7.41308,2.446 24.24964,20.1117 28.144702,26.7459 h -2.814492 c -2.34531,-2.4292 -5.23524,-4.0291 -8.44341,-5.629 v 1.4072 c 4.89183,3.6773 7.6728,10.6549 12.673493,14.0808 4.707556,3.2333 7.982698,2.446 11.257906,7.0362 -3.358979,0.5864 -9.951171,2.2699 -12.673497,4.2217 3.786138,1.2565 3.652091,1.449 5.6373,4.2301 -5.486538,-0.041 -6.332532,-0.7038 -8.451792,2.8145 3.291927,3.2835 6.575481,6.567 9.867382,9.8506 h -2.822704 c -3.233278,-3.694 -10.822288,-4.984 -15.487958,-7.0446 v 1.4073 c 6.74299,6.2655 20.899115,15.7979 25.338599,22.5325 h -5.6373 c -3.384062,-3.0659 -9.833904,-5.0594 -14.072349,-7.0445 v 16.8951 c 2.95695,4.2971 4.56514,11.4673 7.036153,15.488 -1.884636,0.4692 -3.769358,0.9381 -5.628953,1.4072 1.43217,1.1308 0.37701,0.5026 2.814508,1.4073 2.672007,3.5767 6.9859,3.8029 9.850641,7.0361 h 1.407244 l -1.407244,1.4073 c -8.962739,7.3293 -24.182669,-2.2282 -32.383149,-5.629 v 2.8145 h 1.40725 c 7.79005,23.2194 45.450346,25.9166 68.98802,33.7904 26.586694,8.8958 52.8467148,30.3729 64.774704,53.5085 5.561919,10.772 5.955628,21.7032 9.85903,33.7987 17.783066,55.1168 18.310798,125.956 18.310798,201.3519 0.0085,80.849 1.884636,168.2149 -15.487984,233.7351 -3.760991,14.1896 -2.169598,27.1144 -7.052912,40.8433 -11.1573761,31.4031 -34.167317,59.0285 -52.092838,84.476 -14.725697,20.8991 -27.901778,45.1739 -49.2867,59.1457 5.679185,16.2921 13.310105,61.776 9.859009,80.2543 -5.670839,2.22 -6.80162,1.7758 -7.036197,9.8507 7.924098,11.4756 7.195349,58.0903 2.814487,74.6336 -1.457541,5.5034 -7.455009,12.1291 -5.637299,19.7181 5.411134,22.4572 -8.192127,48.6333 -14.080741,67.5892 -4.364107,14.0389 0.79587,32.8187 -2.814487,46.4637 -3.36728,12.682 -12.07875,23.2448 -15.49631,35.1976 -0.47739,7.5054 -0.92985,15.0191 -1.399,22.5245 -5.02582,21.7032 -4.90856,48.50766 -9.85901,70.40338 -0.93809,12.19599 -1.88464,24.40057 -2.82273,36.59659 -9.34805,40.48305 -6.17342,87.35743 -15.49635,129.54942 -3.49294,15.83966 -1.06384,32.26597 -4.2133,46.46378 -1.87639,23.92315 -3.75264,47.88801 -5.64571,71.80269 -11.80236,46.76511 -23.54606,95.65854 -36.60488,139.41664 -6.39956,21.41001 -6.50007,45.55927 -11.2746,66.15693 -3.29194,38.01206 -6.55874,76.06596 -9.85066,114.06132 v 22.51589 c -5.15988,29.57705 -10.31973,59.15389 -15.48798,88.72291 -1.41549,14.53292 -2.81449,29.09099 -4.23006,43.65773 -8.45179,35.64959 -9.00465,73.25147 -18.30243,109.831347 -9.85066,38.648577 -19.48353,82.783911 -21.1253,126.718067 h -19.71804 c -0.0499,20.572279 1.93493,39.528134 5.63734,56.314457 -0.92985,16.425999 -1.88464,32.852209 -2.82272,49.278239 -9.71664,5.85531 -29.14987,4.24708 -45.05669,4.24708 h -97.15811 c -24.03192,-41.496663 17.49829,-76.342571 9.85065,-119.698743 -11.40867,-0.535471 -21.51898,-3.451204 -30.95918,-5.620729 0.0411,-5.5114692 0.69526,-6.3491802 -2.82275,-8.4601528 -5.05934,-3.2751883 -13.78752,-1.6585165 -16.90354,-7.03622 -6.91053,-11.0819082 -2.11097,-41.2705462 -5.62895,-56.3313722 -3.07409,-13.167518 -11.14899,-36.370235 -8.46015,-52.092733 4.68238,-27.23995 11.34999,-52.8886 12.68184,-81.66978 -12.04526,0.41843 -16.66067,4.95039 -28.15307,2.79866 -11.11547,-25.61504 -15.31206,-61.3236 -22.52411,-90.10478 -0.46916,-23.00197 -0.93811,-45.9868 -1.41571,-68.98833 -5.60382,-23.18581 -19.01441,-39.73756 -25.33023,-60.55289 -2.7977,-9.17212 -1.12234,-30.82516 1.39879,-38.01227 1.66676,-4.7659 8.30101,-13.07538 7.04454,-19.71789 -1.49937,-7.78981 -8.89573,-15.90656 -11.27464,-23.93138 -4.14632,-14.08067 -5.37762,-28.01913 -8.44339,-40.82654 v -18.30241 c -2.01862,-8.1755 -10.29461,-20.6395 -8.44342,-29.56035 1.96853,-9.63283 8.66959,-12.64829 9.85068,-22.54083 -2.68881,-3.36733 -8.02462,-12.19604 -7.05298,-18.30241 0.33498,-2.05094 5.48658,-7.92401 2.82275,-12.68209 h -2.82275 c -2.04397,-2.56432 -5.83833,-10.09355 -4.21334,-15.48792 1.7422,-5.78791 11.01498,-9.14676 8.45183,-19.71791 -2.15284,-8.85408 -12.39705,-18.03445 -14.08911,-23.93982 0.47739,-5.62051 0.92985,-11.26619 1.40724,-16.88693 -6.13154,-24.94479 -8.20046,-58.58444 -14.08073,-84.50085 -0.47741,-22.06349 -0.9381,-44.11022 -1.40726,-66.15695 -11.24947,-34.72936 -26.51967,-75.47232 -36.59646,-111.24802 -1.42393,-12.19598 -2.83128,-24.392 -4.23007,-36.61303 -5.41955,-22.4655 -7.81522,-49.044 -12.68188,-71.8027 -7.18697,0.063 -10.32812,-5.4194 -16.90359,-8.4517 -7.97451,-1.4152 -15.9488,-2.824 -23.92316,-4.2218 -9.38996,-3.1744 -20.51381,-8.9458 -29.57709,-12.6816 -8.40987,-3.4511 -18.82173,-3.1748 -25.33861,-8.452 -4.53159,-7.1366 -1.55792,-47.1758 -1.40723,-59.129 4.12118,-6.8016 -0.55276,-20.4551 1.40723,-29.577 3.84477,-17.7915 0.0411,-38.3807 4.23849,-57.7302 3.53483,-16.3758 1.13088,-35.5327 2.80627,-54.924 0.48598,-3.2752 0.93804,-6.5588 1.3987,-9.8506 -2.02716,-11.0066 -6.03941,-29.8284 -2.80628,-43.6495 6.71788,-28.7645 8.45177,-64.1548 8.45177,-101.3879 0,-10.5878 1.08055,-26.126 0,-32.3747 v -26.7543 c -2.71382,-10.236 -11.00658,-18.4532 -14.0891,-26.7542 -10.62127,-28.6556 8.35966,-65.5788 36.6049,-66.1652 1.84287,3.1663 9.83386,14.1728 12.68184,11.2496 4.406,-7.6478 -0.0348,-21.6363 -1.41549,-30.9844 -1.72541,-11.8107 4.91697,-14.7844 7.05295,-21.1169 -0.47741,-4.2217 -0.94661,-8.4433 -1.40723,-12.6651 3.06586,-14.4828 11.43378,-32.291 15.47958,-47.8795 4.32224,-16.5936 2.74736,-31.1518 7.04456,-47.8711 14.34038,-55.6193 17.36426,-119.5731 32.39153,-173.1904 4.23007,-27.2234 8.44338,-54.4467 12.65673,-81.6699 10.67151,-35.4909 29.36765,-68.4855 49.30347,-95.7507 16.94549,-23.1858 54.60577,-35.0217 92.9278,-32.3831 4.53165,-14.7928 12.28815,-24.5177 12.67349,-45.0567 h -2.81449 c -4.32221,6.5336 -13.22632,18.3778 -21.11692,21.1169 v -2.8145 c 13.96349,-10.6547 23.45397,-29.3927 23.93141,-53.5084 h -2.81449 c -5.47817,8.9879 -11.68506,20.0029 -18.31921,28.1615 -2.46273,-0.8796 -1.35696,-0.2689 -2.80624,-1.4073 -7.36285,-8.1753 7.12836,-44.0095 9.85068,-53.5084 h -1.40723 c -7.20371,9.0717 -20.17878,14.0054 -28.16148,22.5326 -2.4542,-0.8881 -1.3654,-0.2753 -2.79771,-1.4155 -2.48777,-0.8796 -1.38231,-0.269 -2.82271,-1.4073 h 1.40723 c 15.01051,-15.0189 30.03778,-30.0377 45.05667,-45.0483 6.80161,-5.1431 17.95897,-11.3584 21.11688,-19.718 h -2.83125 c -7.40474,-4.674 -17.16326,3.3421 -22.51574,5.6289 -14.131,6.0394 -36.93155,18.7548 -50.67724,21.1253 -1.81765,-2.9234 -2.94844,-3.2417 -4.23846,-7.0362 12.68188,-8.1251 23.19425,-20.1201 36.60487,-28.1614 6.94402,-4.1631 15.92354,-4.0793 23.93976,-7.0362 12.19602,-4.5149 25.04544,-10.6045 38.0121,-14.0807 4.21335,-17.6491 18.59559,-30.8922 25.33859,-46.4723 3.97881,-9.1302 7.78166,-31.1602 14.08911,-36.6132 5.34412,-4.607 14.67544,-1.1727 19.71806,-8.4434 5.94722,-8.5775 7.18692,-19.2574 12.67348,-28.1615 18.67098,-30.2304 43.87556,-66.5421 77.44818,-81.6699 88.91547,-40.0559 150.28935,22.1724 181.642224,83.0771 7.614161,14.8095 28.429487,64.9339 15.49633,88.7061 7.019438,11.9866 4.674061,11.3081 1.407244,25.3386 -2.822726,2.3539 -5.64569,4.6992 -8.460177,7.0446 -6.54196,0.5192 -13.117411,0.9883 -19.676151,1.4575 z"
       id="path8" />
  </g>
</svg>
